<?xml version="1.0" encoding="utf-8" standalone="no"?>
<!DOCTYPE svg PUBLIC "-//W3C//DTD SVG 1.1//EN"
  "http://www.w3.org/Graphics/SVG/1.1/DTD/svg11.dtd">
<svg xmlns:xlink="http://www.w3.org/1999/xlink" width="576pt" height="360pt" viewBox="0 0 576 360" xmlns="http://www.w3.org/2000/svg" version="1.1">
 <metadata>
  <rdf:RDF xmlns:dc="http://purl.org/dc/elements/1.1/" xmlns:cc="http://creativecommons.org/ns#" xmlns:rdf="http://www.w3.org/1999/02/22-rdf-syntax-ns#">
   <cc:Work>
    <dc:type rdf:resource="http://purl.org/dc/dcmitype/StillImage"/>
    <dc:date>2024-03-19T15:37:09.722098</dc:date>
    <dc:format>image/svg+xml</dc:format>
    <dc:creator>
     <cc:Agent>
      <dc:title>Matplotlib v3.7.1, https://matplotlib.org/</dc:title>
     </cc:Agent>
    </dc:creator>
   </cc:Work>
  </rdf:RDF>
 </metadata>
 <defs>
  <style type="text/css">*{stroke-linejoin: round; stroke-linecap: butt}</style>
 </defs>
 <g id="figure_1">
  <g id="patch_1">
   <path d="M 0 360 
L 576 360 
L 576 0 
L 0 0 
z
" style="fill: #ffffff"/>
  </g>
  <g id="axes_1">
   <g id="patch_2">
    <path d="M 67.94917 315.396627 
L 565.2 315.396627 
L 565.2 40.341553 
L 67.94917 40.341553 
z
" style="fill: #ffffff"/>
   </g>
   <g id="PolyCollection_1">
    <path d="M 90.55148 -623.869177 
L 90.55148 979.607357 
L 95.637485 979.607357 
L 132.687917 710.475199 
L 169.73835 508.191068 
L 206.788783 386.759166 
L 243.839216 341.799171 
L 280.889649 286.184848 
L 317.940081 249.418945 
L 354.990514 227.79466 
L 392.040947 211.810364 
L 429.09138 184.380474 
L 466.141813 193.714063 
L 503.192245 188.633306 
L 540.242678 179.517324 
L 540.242678 176.220856 
L 540.242678 176.220856 
L 503.192245 167.104875 
L 466.141813 162.024117 
L 429.09138 171.357706 
L 392.040947 143.927816 
L 354.990514 127.943521 
L 317.940081 106.319235 
L 280.889649 69.553332 
L 243.839216 13.939009 
L 206.788783 -31.020986 
L 169.73835 -152.452888 
L 132.687917 -354.737018 
L 95.637485 -623.869177 
L 90.55148 -623.869177 
z
" clip-path="url(#p5d4b61f889)" style="fill: #a6cee3; fill-opacity: 0.8; stroke: #a6cee3; stroke-opacity: 0.8"/>
   </g>
   <g id="PolyCollection_2">
    <defs>
     <path id="m0567232594" d="M 91.036634 -350.248346 
L 91.036634 -14.013474 
L 128.087067 -67.445702 
L 165.137499 -103.835731 
L 202.187932 -128.822389 
L 239.238365 -145.678332 
L 276.288798 -157.359299 
L 313.339231 -165.244322 
L 350.389664 -170.60885 
L 387.440096 -174.273248 
L 424.490529 -176.765252 
L 461.540962 -178.471715 
L 498.591395 -179.635142 
L 540.242678 -180.427806 
L 540.242678 -183.834014 
L 540.242678 -183.834014 
L 498.591395 -184.626678 
L 461.540962 -185.790105 
L 424.490529 -187.496568 
L 387.440096 -189.988572 
L 350.389664 -193.65297 
L 313.339231 -199.017498 
L 276.288798 -206.90252 
L 239.238365 -218.583487 
L 202.187932 -235.439431 
L 165.137499 -260.426089 
L 128.087067 -296.816118 
L 91.036634 -350.248346 
z
" style="stroke: #fb9a99; stroke-opacity: 0.8"/>
    </defs>
    <g clip-path="url(#p5d4b61f889)">
     <use xlink:href="#m0567232594" x="0" y="360" style="fill: #fb9a99; fill-opacity: 0.8; stroke: #fb9a99; stroke-opacity: 0.8"/>
    </g>
   </g>
   <g id="matplotlib.axis_1">
    <g id="xtick_1">
     <g id="line2d_1">
      <defs>
       <path id="me811ac0ee9" d="M 0 0 
L 0 3.5 
" style="stroke: #000000; stroke-width: 0.8"/>
      </defs>
      <g>
       <use xlink:href="#me811ac0ee9" x="91.036634" y="315.396627" style="stroke: #000000; stroke-width: 0.8"/>
      </g>
     </g>
     <g id="text_1">
      <!-- $\mathdefault{10^{-2}}$ -->
      <g transform="translate(80.956347 329.315126) scale(0.1 -0.1)">
       <defs>
        <path id="CMR17-31" d="M 1702 4083 
C 1702 4217 1696 4224 1606 4224 
C 1357 3927 979 3833 621 3820 
C 602 3820 570 3820 563 3808 
C 557 3795 557 3782 557 3648 
C 755 3648 1088 3686 1344 3839 
L 1344 467 
C 1344 243 1331 166 781 166 
L 589 166 
L 589 0 
C 896 6 1216 12 1523 12 
C 1830 12 2150 6 2458 0 
L 2458 166 
L 2266 166 
C 1715 166 1702 236 1702 467 
L 1702 4083 
z
" transform="scale(0.015625)"/>
        <path id="CMR17-30" d="M 2688 2038 
C 2688 2430 2682 3099 2413 3613 
C 2176 4063 1798 4224 1466 4224 
C 1158 4224 768 4082 525 3620 
C 269 3137 243 2539 243 2038 
C 243 1671 250 1112 448 623 
C 723 -39 1216 -128 1466 -128 
C 1760 -128 2208 -7 2470 604 
C 2662 1048 2688 1568 2688 2038 
z
M 1466 -26 
C 1056 -26 813 328 723 816 
C 653 1196 653 1749 653 2109 
C 653 2604 653 3015 736 3407 
C 858 3954 1216 4121 1466 4121 
C 1728 4121 2067 3947 2189 3420 
C 2272 3054 2278 2623 2278 2109 
C 2278 1691 2278 1176 2202 797 
C 2067 96 1690 -26 1466 -26 
z
" transform="scale(0.015625)"/>
        <path id="CMSY10-0" d="M 4218 1472 
C 4326 1472 4442 1472 4442 1600 
C 4442 1728 4326 1728 4218 1728 
L 755 1728 
C 646 1728 531 1728 531 1600 
C 531 1472 646 1472 755 1472 
L 4218 1472 
z
" transform="scale(0.015625)"/>
        <path id="CMR17-32" d="M 2669 990 
L 2554 990 
C 2490 537 2438 460 2413 422 
C 2381 371 1920 371 1830 371 
L 602 371 
C 832 620 1280 1073 1824 1596 
C 2214 1966 2669 2400 2669 3033 
C 2669 3788 2067 4224 1395 4224 
C 691 4224 262 3603 262 3027 
C 262 2777 448 2745 525 2745 
C 589 2745 781 2783 781 3007 
C 781 3206 614 3264 525 3264 
C 486 3264 448 3257 422 3244 
C 544 3788 915 4057 1306 4057 
C 1862 4057 2227 3616 2227 3033 
C 2227 2477 1901 1998 1536 1583 
L 262 147 
L 262 0 
L 2515 0 
L 2669 990 
z
" transform="scale(0.015625)"/>
       </defs>
       <use xlink:href="#CMR17-31" transform="scale(0.996264)"/>
       <use xlink:href="#CMR17-30" transform="translate(45.690477 0) scale(0.996264)"/>
       <use xlink:href="#CMSY10-0" transform="translate(91.380954 36.153639) scale(0.697382)"/>
       <use xlink:href="#CMR17-32" transform="translate(145.621947 36.153639) scale(0.697382)"/>
      </g>
     </g>
    </g>
    <g id="xtick_2">
     <g id="line2d_2">
      <g>
       <use xlink:href="#me811ac0ee9" x="202.187932" y="315.396627" style="stroke: #000000; stroke-width: 0.8"/>
      </g>
     </g>
     <g id="text_2">
      <!-- $\mathdefault{10^{-1}}$ -->
      <g transform="translate(192.107646 329.315126) scale(0.1 -0.1)">
       <use xlink:href="#CMR17-31" transform="scale(0.996264)"/>
       <use xlink:href="#CMR17-30" transform="translate(45.690477 0) scale(0.996264)"/>
       <use xlink:href="#CMSY10-0" transform="translate(91.380954 36.153639) scale(0.697382)"/>
       <use xlink:href="#CMR17-31" transform="translate(145.621947 36.153639) scale(0.697382)"/>
      </g>
     </g>
    </g>
    <g id="xtick_3">
     <g id="line2d_3">
      <g>
       <use xlink:href="#me811ac0ee9" x="313.339231" y="315.396627" style="stroke: #000000; stroke-width: 0.8"/>
      </g>
     </g>
     <g id="text_3">
      <!-- $\mathdefault{10^{0}}$ -->
      <g transform="translate(306.372277 329.315126) scale(0.1 -0.1)">
       <use xlink:href="#CMR17-31" transform="scale(0.996264)"/>
       <use xlink:href="#CMR17-30" transform="translate(45.690477 0) scale(0.996264)"/>
       <use xlink:href="#CMR17-30" transform="translate(91.380954 36.153639) scale(0.697382)"/>
      </g>
     </g>
    </g>
    <g id="xtick_4">
     <g id="line2d_4">
      <g>
       <use xlink:href="#me811ac0ee9" x="424.490529" y="315.396627" style="stroke: #000000; stroke-width: 0.8"/>
      </g>
     </g>
     <g id="text_4">
      <!-- $\mathdefault{10^{1}}$ -->
      <g transform="translate(417.523575 329.315126) scale(0.1 -0.1)">
       <use xlink:href="#CMR17-31" transform="scale(0.996264)"/>
       <use xlink:href="#CMR17-30" transform="translate(45.690477 0) scale(0.996264)"/>
       <use xlink:href="#CMR17-31" transform="translate(91.380954 36.153639) scale(0.697382)"/>
      </g>
     </g>
    </g>
    <g id="xtick_5">
     <g id="line2d_5">
      <g>
       <use xlink:href="#me811ac0ee9" x="535.641828" y="315.396627" style="stroke: #000000; stroke-width: 0.8"/>
      </g>
     </g>
     <g id="text_5">
      <!-- $\mathdefault{10^{2}}$ -->
      <g transform="translate(528.674874 329.315126) scale(0.1 -0.1)">
       <use xlink:href="#CMR17-31" transform="scale(0.996264)"/>
       <use xlink:href="#CMR17-30" transform="translate(45.690477 0) scale(0.996264)"/>
       <use xlink:href="#CMR17-32" transform="translate(91.380954 36.153639) scale(0.697382)"/>
      </g>
     </g>
    </g>
    <g id="xtick_6">
     <g id="line2d_6">
      <defs>
       <path id="mc8e9837d16" d="M 0 0 
L 0 2 
" style="stroke: #000000; stroke-width: 0.6"/>
      </defs>
      <g>
       <use xlink:href="#mc8e9837d16" x="73.81908" y="315.396627" style="stroke: #000000; stroke-width: 0.6"/>
      </g>
     </g>
    </g>
    <g id="xtick_7">
     <g id="line2d_7">
      <g>
       <use xlink:href="#mc8e9837d16" x="80.26496" y="315.396627" style="stroke: #000000; stroke-width: 0.6"/>
      </g>
     </g>
    </g>
    <g id="xtick_8">
     <g id="line2d_8">
      <g>
       <use xlink:href="#mc8e9837d16" x="85.950629" y="315.396627" style="stroke: #000000; stroke-width: 0.6"/>
      </g>
     </g>
    </g>
    <g id="xtick_9">
     <g id="line2d_9">
      <g>
       <use xlink:href="#mc8e9837d16" x="124.496509" y="315.396627" style="stroke: #000000; stroke-width: 0.6"/>
      </g>
     </g>
    </g>
    <g id="xtick_10">
     <g id="line2d_10">
      <g>
       <use xlink:href="#mc8e9837d16" x="144.069281" y="315.396627" style="stroke: #000000; stroke-width: 0.6"/>
      </g>
     </g>
    </g>
    <g id="xtick_11">
     <g id="line2d_11">
      <g>
       <use xlink:href="#mc8e9837d16" x="157.956384" y="315.396627" style="stroke: #000000; stroke-width: 0.6"/>
      </g>
     </g>
    </g>
    <g id="xtick_12">
     <g id="line2d_12">
      <g>
       <use xlink:href="#mc8e9837d16" x="168.728057" y="315.396627" style="stroke: #000000; stroke-width: 0.6"/>
      </g>
     </g>
    </g>
    <g id="xtick_13">
     <g id="line2d_13">
      <g>
       <use xlink:href="#mc8e9837d16" x="177.529156" y="315.396627" style="stroke: #000000; stroke-width: 0.6"/>
      </g>
     </g>
    </g>
    <g id="xtick_14">
     <g id="line2d_14">
      <g>
       <use xlink:href="#mc8e9837d16" x="184.970378" y="315.396627" style="stroke: #000000; stroke-width: 0.6"/>
      </g>
     </g>
    </g>
    <g id="xtick_15">
     <g id="line2d_15">
      <g>
       <use xlink:href="#mc8e9837d16" x="191.416259" y="315.396627" style="stroke: #000000; stroke-width: 0.6"/>
      </g>
     </g>
    </g>
    <g id="xtick_16">
     <g id="line2d_16">
      <g>
       <use xlink:href="#mc8e9837d16" x="197.101928" y="315.396627" style="stroke: #000000; stroke-width: 0.6"/>
      </g>
     </g>
    </g>
    <g id="xtick_17">
     <g id="line2d_17">
      <g>
       <use xlink:href="#mc8e9837d16" x="235.647807" y="315.396627" style="stroke: #000000; stroke-width: 0.6"/>
      </g>
     </g>
    </g>
    <g id="xtick_18">
     <g id="line2d_18">
      <g>
       <use xlink:href="#mc8e9837d16" x="255.220579" y="315.396627" style="stroke: #000000; stroke-width: 0.6"/>
      </g>
     </g>
    </g>
    <g id="xtick_19">
     <g id="line2d_19">
      <g>
       <use xlink:href="#mc8e9837d16" x="269.107682" y="315.396627" style="stroke: #000000; stroke-width: 0.6"/>
      </g>
     </g>
    </g>
    <g id="xtick_20">
     <g id="line2d_20">
      <g>
       <use xlink:href="#mc8e9837d16" x="279.879356" y="315.396627" style="stroke: #000000; stroke-width: 0.6"/>
      </g>
     </g>
    </g>
    <g id="xtick_21">
     <g id="line2d_21">
      <g>
       <use xlink:href="#mc8e9837d16" x="288.680454" y="315.396627" style="stroke: #000000; stroke-width: 0.6"/>
      </g>
     </g>
    </g>
    <g id="xtick_22">
     <g id="line2d_22">
      <g>
       <use xlink:href="#mc8e9837d16" x="296.121677" y="315.396627" style="stroke: #000000; stroke-width: 0.6"/>
      </g>
     </g>
    </g>
    <g id="xtick_23">
     <g id="line2d_23">
      <g>
       <use xlink:href="#mc8e9837d16" x="302.567557" y="315.396627" style="stroke: #000000; stroke-width: 0.6"/>
      </g>
     </g>
    </g>
    <g id="xtick_24">
     <g id="line2d_24">
      <g>
       <use xlink:href="#mc8e9837d16" x="308.253226" y="315.396627" style="stroke: #000000; stroke-width: 0.6"/>
      </g>
     </g>
    </g>
    <g id="xtick_25">
     <g id="line2d_25">
      <g>
       <use xlink:href="#mc8e9837d16" x="346.799106" y="315.396627" style="stroke: #000000; stroke-width: 0.6"/>
      </g>
     </g>
    </g>
    <g id="xtick_26">
     <g id="line2d_26">
      <g>
       <use xlink:href="#mc8e9837d16" x="366.371878" y="315.396627" style="stroke: #000000; stroke-width: 0.6"/>
      </g>
     </g>
    </g>
    <g id="xtick_27">
     <g id="line2d_27">
      <g>
       <use xlink:href="#mc8e9837d16" x="380.258981" y="315.396627" style="stroke: #000000; stroke-width: 0.6"/>
      </g>
     </g>
    </g>
    <g id="xtick_28">
     <g id="line2d_28">
      <g>
       <use xlink:href="#mc8e9837d16" x="391.030654" y="315.396627" style="stroke: #000000; stroke-width: 0.6"/>
      </g>
     </g>
    </g>
    <g id="xtick_29">
     <g id="line2d_29">
      <g>
       <use xlink:href="#mc8e9837d16" x="399.831753" y="315.396627" style="stroke: #000000; stroke-width: 0.6"/>
      </g>
     </g>
    </g>
    <g id="xtick_30">
     <g id="line2d_30">
      <g>
       <use xlink:href="#mc8e9837d16" x="407.272975" y="315.396627" style="stroke: #000000; stroke-width: 0.6"/>
      </g>
     </g>
    </g>
    <g id="xtick_31">
     <g id="line2d_31">
      <g>
       <use xlink:href="#mc8e9837d16" x="413.718855" y="315.396627" style="stroke: #000000; stroke-width: 0.6"/>
      </g>
     </g>
    </g>
    <g id="xtick_32">
     <g id="line2d_32">
      <g>
       <use xlink:href="#mc8e9837d16" x="419.404525" y="315.396627" style="stroke: #000000; stroke-width: 0.6"/>
      </g>
     </g>
    </g>
    <g id="xtick_33">
     <g id="line2d_33">
      <g>
       <use xlink:href="#mc8e9837d16" x="457.950404" y="315.396627" style="stroke: #000000; stroke-width: 0.6"/>
      </g>
     </g>
    </g>
    <g id="xtick_34">
     <g id="line2d_34">
      <g>
       <use xlink:href="#mc8e9837d16" x="477.523176" y="315.396627" style="stroke: #000000; stroke-width: 0.6"/>
      </g>
     </g>
    </g>
    <g id="xtick_35">
     <g id="line2d_35">
      <g>
       <use xlink:href="#mc8e9837d16" x="491.410279" y="315.396627" style="stroke: #000000; stroke-width: 0.6"/>
      </g>
     </g>
    </g>
    <g id="xtick_36">
     <g id="line2d_36">
      <g>
       <use xlink:href="#mc8e9837d16" x="502.181953" y="315.396627" style="stroke: #000000; stroke-width: 0.6"/>
      </g>
     </g>
    </g>
    <g id="xtick_37">
     <g id="line2d_37">
      <g>
       <use xlink:href="#mc8e9837d16" x="510.983051" y="315.396627" style="stroke: #000000; stroke-width: 0.6"/>
      </g>
     </g>
    </g>
    <g id="xtick_38">
     <g id="line2d_38">
      <g>
       <use xlink:href="#mc8e9837d16" x="518.424274" y="315.396627" style="stroke: #000000; stroke-width: 0.6"/>
      </g>
     </g>
    </g>
    <g id="xtick_39">
     <g id="line2d_39">
      <g>
       <use xlink:href="#mc8e9837d16" x="524.870154" y="315.396627" style="stroke: #000000; stroke-width: 0.6"/>
      </g>
     </g>
    </g>
    <g id="xtick_40">
     <g id="line2d_40">
      <g>
       <use xlink:href="#mc8e9837d16" x="530.555823" y="315.396627" style="stroke: #000000; stroke-width: 0.6"/>
      </g>
     </g>
    </g>
    <g id="text_6">
     <!-- Livetime [hr] -->
     <g transform="translate(278.165541 345.713076) scale(0.14 -0.14)">
      <defs>
       <path id="CMR17-4c" d="M 3469 1612 
L 3354 1612 
C 3302 981 3219 166 2125 166 
L 1530 166 
C 1274 166 1261 198 1261 414 
L 1261 3892 
C 1261 4121 1274 4185 1760 4185 
L 1901 4185 
L 1901 4352 
C 1638 4339 1331 4339 1069 4339 
C 870 4339 512 4339 326 4352 
L 326 4185 
C 768 4185 838 4185 838 3898 
L 838 453 
C 838 166 768 166 326 166 
L 326 0 
L 3315 0 
L 3469 1612 
z
" transform="scale(0.015625)"/>
       <path id="CMR17-69" d="M 992 3961 
C 992 4102 877 4224 730 4224 
C 589 4224 467 4108 467 3961 
C 467 3820 582 3699 730 3699 
C 870 3699 992 3814 992 3961 
z
M 243 2745 
L 243 2579 
C 602 2579 653 2540 653 2231 
L 653 443 
C 653 198 627 166 218 166 
L 218 0 
C 371 12 646 12 806 12 
C 960 12 1222 12 1370 0 
L 1370 166 
C 992 166 979 205 979 436 
L 979 2816 
L 243 2745 
z
" transform="scale(0.015625)"/>
       <path id="CMR17-76" d="M 2502 2173 
C 2560 2315 2662 2572 3034 2585 
L 3034 2752 
C 2912 2745 2752 2739 2630 2739 
C 2496 2739 2285 2739 2157 2752 
L 2157 2585 
C 2317 2572 2406 2495 2406 2328 
C 2406 2270 2406 2257 2368 2167 
L 1664 379 
L 902 2308 
C 864 2392 864 2405 864 2431 
C 864 2585 1075 2585 1171 2585 
L 1171 2752 
C 1018 2739 736 2739 576 2739 
C 403 2739 205 2739 64 2752 
L 64 2585 
C 307 2585 442 2585 518 2386 
L 1446 44 
C 1485 -52 1491 -64 1549 -64 
C 1606 -64 1613 -52 1651 44 
L 2502 2173 
z
" transform="scale(0.015625)"/>
       <path id="CMR17-65" d="M 2438 1503 
C 2464 1529 2464 1542 2464 1606 
C 2464 2251 2118 2816 1389 2816 
C 710 2816 173 2175 173 1394 
C 173 554 781 -64 1459 -64 
C 2176 -64 2458 619 2458 755 
C 2458 800 2419 800 2406 800 
C 2362 800 2355 787 2330 709 
C 2189 270 1837 51 1504 51 
C 1229 51 954 206 781 490 
C 582 819 582 1200 582 1503 
L 2438 1503 
z
M 589 1600 
C 634 2511 1126 2713 1382 2713 
C 1818 2713 2112 2308 2118 1600 
L 589 1600 
z
" transform="scale(0.015625)"/>
       <path id="CMR17-74" d="M 966 2585 
L 1862 2585 
L 1862 2752 
L 966 2752 
L 966 3968 
L 851 3968 
C 838 3292 614 2700 70 2687 
L 70 2585 
L 627 2585 
L 627 778 
C 627 655 627 -64 1370 -64 
C 1747 -64 1965 308 1965 784 
L 1965 1151 
L 1850 1151 
L 1850 790 
C 1850 347 1677 51 1408 51 
C 1222 51 966 179 966 765 
L 966 2585 
z
" transform="scale(0.015625)"/>
       <path id="CMR17-6d" d="M 4326 1954 
C 4326 2276 4269 2816 3507 2816 
C 3072 2816 2771 2520 2656 2173 
L 2650 2173 
C 2573 2700 2195 2816 1837 2816 
C 1331 2816 1069 2424 973 2166 
L 966 2166 
L 966 2816 
L 211 2745 
L 211 2578 
C 589 2578 646 2540 646 2231 
L 646 443 
C 646 198 621 166 211 166 
L 211 0 
C 365 12 646 12 813 12 
C 979 12 1267 12 1421 0 
L 1421 166 
C 1011 166 986 192 986 443 
L 986 1678 
C 986 2269 1344 2713 1792 2713 
C 2266 2713 2317 2289 2317 1980 
L 2317 443 
C 2317 198 2291 166 1882 166 
L 1882 0 
C 2035 12 2317 12 2483 12 
C 2650 12 2938 12 3091 0 
L 3091 166 
C 2682 166 2656 192 2656 443 
L 2656 1678 
C 2656 2269 3014 2713 3462 2713 
C 3936 2713 3987 2289 3987 1980 
L 3987 443 
C 3987 198 3962 166 3552 166 
L 3552 0 
C 3706 12 3987 12 4154 12 
C 4320 12 4608 12 4762 0 
L 4762 166 
C 4352 166 4326 192 4326 443 
L 4326 1954 
z
" transform="scale(0.015625)"/>
       <path id="CMR17-5b" d="M 1504 -1600 
L 1504 -1376 
L 902 -1376 
L 902 4575 
L 1504 4575 
L 1504 4800 
L 678 4800 
L 678 -1600 
L 1504 -1600 
z
" transform="scale(0.015625)"/>
       <path id="CMR17-68" d="M 2656 1954 
C 2656 2282 2592 2816 1837 2816 
C 1312 2816 1056 2392 979 2179 
L 973 2179 
L 973 4416 
L 211 4345 
L 211 4179 
C 589 4179 646 4141 646 3843 
L 646 443 
C 646 198 621 166 211 166 
L 211 0 
C 365 12 646 12 813 12 
C 979 12 1267 12 1421 0 
L 1421 166 
C 1011 166 986 192 986 443 
L 986 1678 
C 986 2269 1344 2713 1792 2713 
C 2266 2713 2317 2289 2317 1980 
L 2317 443 
C 2317 198 2291 166 1882 166 
L 1882 0 
C 2035 12 2317 12 2483 12 
C 2650 12 2938 12 3091 0 
L 3091 166 
C 2682 166 2656 192 2656 443 
L 2656 1954 
z
" transform="scale(0.015625)"/>
       <path id="CMR17-72" d="M 960 1517 
C 960 2134 1222 2713 1702 2713 
C 1747 2713 1792 2707 1837 2687 
C 1837 2687 1696 2642 1696 2475 
C 1696 2321 1818 2257 1914 2257 
C 1990 2257 2131 2302 2131 2482 
C 2131 2687 1926 2816 1709 2816 
C 1222 2816 1011 2340 947 2115 
L 941 2115 
L 941 2816 
L 198 2745 
L 198 2578 
C 576 2578 634 2540 634 2231 
L 634 443 
C 634 198 608 166 198 166 
L 198 0 
C 352 12 646 12 813 12 
C 998 12 1325 12 1498 0 
L 1498 166 
C 1037 166 960 166 960 455 
L 960 1517 
z
" transform="scale(0.015625)"/>
       <path id="CMR17-5d" d="M 915 4800 
L 90 4800 
L 90 4575 
L 691 4575 
L 691 -1376 
L 90 -1376 
L 90 -1600 
L 915 -1600 
L 915 4800 
z
" transform="scale(0.015625)"/>
      </defs>
      <use xlink:href="#CMR17-4c" transform="scale(0.996264)"/>
      <use xlink:href="#CMR17-69" transform="translate(57.381408 0) scale(0.996264)"/>
      <use xlink:href="#CMR17-76" transform="translate(82.252466 0) scale(0.996264)"/>
      <use xlink:href="#CMR17-65" transform="translate(127.942928 0) scale(0.996264)"/>
      <use xlink:href="#CMR17-74" transform="translate(168.428589 0) scale(0.996264)"/>
      <use xlink:href="#CMR17-69" transform="translate(203.709357 0) scale(0.996264)"/>
      <use xlink:href="#CMR17-6d" transform="translate(228.580415 0) scale(0.996264)"/>
      <use xlink:href="#CMR17-65" transform="translate(305.500005 0) scale(0.996264)"/>
      <use xlink:href="#CMR17-5b" transform="translate(376.061632 0) scale(0.996264)"/>
      <use xlink:href="#CMR17-68" transform="translate(400.93269 0) scale(0.996264)"/>
      <use xlink:href="#CMR17-72" transform="translate(451.82806 0) scale(0.996264)"/>
      <use xlink:href="#CMR17-5d" transform="translate(487.108828 0) scale(0.996264)"/>
     </g>
    </g>
   </g>
   <g id="matplotlib.axis_2">
    <g id="ytick_1">
     <g id="line2d_41">
      <defs>
       <path id="m4ea0849f66" d="M 0 0 
L -3.5 0 
" style="stroke: #000000; stroke-width: 0.8"/>
      </defs>
      <g>
       <use xlink:href="#m4ea0849f66" x="67.94917" y="315.396627" style="stroke: #000000; stroke-width: 0.8"/>
      </g>
     </g>
     <g id="text_7">
      <!-- $\mathdefault{−2}$ -->
      <g transform="translate(48.219091 318.855876) scale(0.1 -0.1)">
       <use xlink:href="#CMSY10-0" transform="scale(0.996264)"/>
       <use xlink:href="#CMR17-32" transform="translate(77.487468 0) scale(0.996264)"/>
      </g>
     </g>
    </g>
    <g id="ytick_2">
     <g id="line2d_42">
      <g>
       <use xlink:href="#m4ea0849f66" x="67.94917" y="269.554115" style="stroke: #000000; stroke-width: 0.8"/>
      </g>
     </g>
     <g id="text_8">
      <!-- $\mathdefault{−1}$ -->
      <g transform="translate(48.219091 273.013364) scale(0.1 -0.1)">
       <use xlink:href="#CMSY10-0" transform="scale(0.996264)"/>
       <use xlink:href="#CMR17-31" transform="translate(77.487468 0) scale(0.996264)"/>
      </g>
     </g>
    </g>
    <g id="ytick_3">
     <g id="line2d_43">
      <g>
       <use xlink:href="#m4ea0849f66" x="67.94917" y="223.711602" style="stroke: #000000; stroke-width: 0.8"/>
      </g>
     </g>
     <g id="text_9">
      <!-- $\mathdefault{0}$ -->
      <g transform="translate(55.967834 227.170852) scale(0.1 -0.1)">
       <use xlink:href="#CMR17-30" transform="scale(0.996264)"/>
      </g>
     </g>
    </g>
    <g id="ytick_4">
     <g id="line2d_44">
      <g>
       <use xlink:href="#m4ea0849f66" x="67.94917" y="177.86909" style="stroke: #000000; stroke-width: 0.8"/>
      </g>
     </g>
     <g id="text_10">
      <!-- $\mathdefault{1}$ -->
      <g transform="translate(55.967834 181.328339) scale(0.1 -0.1)">
       <use xlink:href="#CMR17-31" transform="scale(0.996264)"/>
      </g>
     </g>
    </g>
    <g id="ytick_5">
     <g id="line2d_45">
      <g>
       <use xlink:href="#m4ea0849f66" x="67.94917" y="132.026578" style="stroke: #000000; stroke-width: 0.8"/>
      </g>
     </g>
     <g id="text_11">
      <!-- $\mathdefault{2}$ -->
      <g transform="translate(55.967834 135.485827) scale(0.1 -0.1)">
       <use xlink:href="#CMR17-32" transform="scale(0.996264)"/>
      </g>
     </g>
    </g>
    <g id="ytick_6">
     <g id="line2d_46">
      <g>
       <use xlink:href="#m4ea0849f66" x="67.94917" y="86.184065" style="stroke: #000000; stroke-width: 0.8"/>
      </g>
     </g>
     <g id="text_12">
      <!-- $\mathdefault{3}$ -->
      <g transform="translate(55.967834 89.643315) scale(0.1 -0.1)">
       <defs>
        <path id="CMR17-33" d="M 1414 2176 
C 1984 2176 2234 1673 2234 1094 
C 2234 322 1824 25 1453 25 
C 1114 25 563 193 390 691 
C 422 678 454 678 486 678 
C 640 678 755 780 755 947 
C 755 1132 614 1216 486 1216 
C 378 1216 211 1164 211 927 
C 211 335 787 -128 1466 -128 
C 2176 -128 2720 432 2720 1087 
C 2720 1718 2208 2176 1600 2246 
C 2086 2347 2554 2776 2554 3353 
C 2554 3856 2048 4224 1472 4224 
C 890 4224 378 3862 378 3347 
C 378 3123 544 3084 627 3084 
C 762 3084 877 3167 877 3334 
C 877 3500 762 3584 627 3584 
C 602 3584 570 3584 544 3571 
C 730 3999 1235 4076 1459 4076 
C 1683 4076 2106 3966 2106 3347 
C 2106 3167 2080 2851 1862 2574 
C 1670 2329 1453 2316 1242 2297 
C 1210 2297 1062 2284 1037 2284 
C 992 2278 966 2272 966 2227 
C 966 2182 973 2176 1101 2176 
L 1414 2176 
z
" transform="scale(0.015625)"/>
       </defs>
       <use xlink:href="#CMR17-33" transform="scale(0.996264)"/>
      </g>
     </g>
    </g>
    <g id="ytick_7">
     <g id="line2d_47">
      <g>
       <use xlink:href="#m4ea0849f66" x="67.94917" y="40.341553" style="stroke: #000000; stroke-width: 0.8"/>
      </g>
     </g>
     <g id="text_13">
      <!-- $\mathdefault{4}$ -->
      <g transform="translate(55.967834 43.800802) scale(0.1 -0.1)">
       <defs>
        <path id="CMR17-34" d="M 2150 4147 
C 2150 4281 2144 4288 2029 4288 
L 128 1254 
L 128 1088 
L 1779 1088 
L 1779 460 
C 1779 230 1766 166 1318 166 
L 1197 166 
L 1197 0 
C 1402 12 1747 12 1965 12 
C 2182 12 2528 12 2733 0 
L 2733 166 
L 2611 166 
C 2163 166 2150 230 2150 460 
L 2150 1088 
L 2803 1088 
L 2803 1254 
L 2150 1254 
L 2150 4147 
z
M 1798 3723 
L 1798 1254 
L 256 1254 
L 1798 3723 
z
" transform="scale(0.015625)"/>
       </defs>
       <use xlink:href="#CMR17-34" transform="scale(0.996264)"/>
      </g>
     </g>
    </g>
    <g id="text_14">
     <!-- Best-fit beta  -->
     <g transform="translate(25.467212 215.177989) rotate(-90) scale(0.14 -0.14)">
      <defs>
       <path id="CMR17-42" d="M 333 4352 
L 333 4185 
C 774 4185 845 4185 845 3897 
L 845 451 
C 845 166 774 166 333 166 
L 333 0 
L 2534 0 
C 3354 0 3885 578 3885 1155 
C 3885 1726 3360 2214 2675 2259 
C 3290 2380 3718 2790 3718 3276 
C 3718 3808 3194 4352 2368 4352 
L 333 4352 
z
M 1248 2304 
L 1248 3936 
C 1248 4153 1261 4185 1517 4185 
L 2336 4185 
C 2970 4185 3251 3673 3251 3276 
C 3251 2790 2861 2304 2170 2304 
L 1248 2304 
z
M 1517 166 
C 1261 166 1248 198 1248 413 
L 1248 2201 
L 2432 2201 
C 3091 2201 3411 1624 3411 1161 
C 3411 698 3046 166 2349 166 
L 1517 166 
z
" transform="scale(0.015625)"/>
       <path id="CMR17-73" d="M 1978 2688 
C 1978 2803 1971 2809 1933 2809 
C 1907 2809 1901 2803 1824 2707 
C 1805 2681 1747 2617 1728 2592 
C 1523 2809 1235 2816 1126 2816 
C 416 2816 160 2444 160 2073 
C 160 1497 813 1363 998 1324 
C 1402 1241 1542 1216 1677 1100 
C 1760 1024 1901 883 1901 652 
C 1901 384 1747 38 1158 38 
C 602 38 403 460 288 1024 
C 269 1113 269 1120 218 1120 
C 166 1120 160 1113 160 985 
L 160 64 
C 160 -52 166 -58 205 -58 
C 237 -58 243 -52 275 0 
C 314 57 410 211 448 275 
C 576 102 800 -64 1158 -64 
C 1792 -64 2131 281 2131 780 
C 2131 1107 1958 1280 1875 1356 
C 1683 1555 1459 1600 1190 1651 
C 838 1728 390 1817 390 2208 
C 390 2374 480 2726 1126 2726 
C 1811 2726 1850 2086 1862 1881 
C 1869 1849 1901 1843 1920 1843 
C 1978 1843 1978 1862 1978 1971 
L 1978 2688 
z
" transform="scale(0.015625)"/>
       <path id="CMR17-2d" d="M 1632 1254 
L 1632 1536 
L 26 1536 
L 26 1254 
L 1632 1254 
z
" transform="scale(0.015625)"/>
       <path id="CMR17-c" d="M 2554 2816 
C 2400 2809 1926 2777 1805 2764 
C 1766 2758 1754 2758 1677 2758 
L 947 2758 
L 947 3517 
C 947 4127 1434 4416 1818 4416 
C 1939 4416 2214 4383 2355 4160 
C 2291 4160 2086 4160 2086 3935 
C 2086 3782 2189 3705 2317 3705 
C 2432 3705 2547 3769 2547 3942 
C 2547 4265 2240 4518 1843 4518 
C 1338 4518 634 4225 634 3517 
L 634 2758 
L 122 2758 
L 122 2591 
L 634 2591 
L 634 442 
C 634 198 608 166 198 166 
L 198 0 
C 352 12 634 12 794 12 
C 960 12 1242 12 1395 0 
L 1395 166 
C 986 166 960 192 960 442 
L 960 2591 
L 1901 2591 
C 2176 2591 2227 2534 2227 2251 
L 2227 442 
C 2227 198 2202 166 1792 166 
L 1792 0 
C 1946 12 2227 12 2387 12 
C 2554 12 2835 12 2989 0 
L 2989 166 
C 2579 166 2554 192 2554 442 
L 2554 2816 
z
" transform="scale(0.015625)"/>
       <path id="CMR17-62" d="M 960 4416 
L 198 4345 
L 198 4179 
C 576 4179 634 4141 634 3843 
L 634 -13 
L 749 -13 
L 934 445 
C 1120 141 1395 -64 1766 -64 
C 2406 -64 3053 503 3053 1382 
C 3053 2209 2477 2816 1830 2816 
C 1434 2816 1152 2603 960 2351 
L 960 4416 
z
M 973 2022 
C 973 2138 973 2157 1062 2293 
C 1312 2681 1670 2713 1792 2713 
C 1984 2713 2643 2610 2643 1388 
C 2643 109 1888 38 1734 38 
C 1536 38 1248 115 1043 490 
C 973 613 973 626 973 742 
L 973 2022 
z
" transform="scale(0.015625)"/>
       <path id="CMR17-61" d="M 2304 1656 
C 2304 2048 2304 2275 2035 2534 
C 1798 2751 1523 2816 1306 2816 
C 800 2816 435 2408 435 1977 
C 435 1740 627 1728 666 1728 
C 749 1728 896 1779 896 1958 
C 896 2118 774 2188 666 2188 
C 640 2188 608 2182 589 2176 
C 723 2594 1069 2713 1293 2713 
C 1613 2713 1965 2421 1965 1875 
L 1965 1632 
C 1587 1619 1133 1568 774 1373 
C 371 1147 256 822 256 576 
C 256 77 832 -64 1171 -64 
C 1523 -64 1850 135 1990 505 
C 2003 219 2182 -39 2464 -39 
C 2598 -39 2938 51 2938 563 
L 2938 926 
L 2822 926 
L 2822 557 
C 2822 161 2650 109 2566 109 
C 2304 109 2304 446 2304 732 
L 2304 1656 
z
M 1965 887 
C 1965 323 1568 38 1216 38 
C 896 38 646 278 646 576 
C 646 771 730 1114 1101 1322 
C 1408 1497 1760 1523 1965 1536 
L 1965 887 
z
" transform="scale(0.015625)"/>
      </defs>
      <use xlink:href="#CMR17-42" transform="scale(0.996264)"/>
      <use xlink:href="#CMR17-65" transform="translate(65.188754 0) scale(0.996264)"/>
      <use xlink:href="#CMR17-73" transform="translate(105.674415 0) scale(0.996264)"/>
      <use xlink:href="#CMR17-74" transform="translate(141.475753 0) scale(0.996264)"/>
      <use xlink:href="#CMR17-2d" transform="translate(176.75652 0) scale(0.996264)"/>
      <use xlink:href="#CMR17-c" transform="translate(206.832487 0) scale(0.996264)"/>
      <use xlink:href="#CMR17-74" transform="translate(256.57471 0) scale(0.996264)"/>
      <use xlink:href="#CMR17-62" transform="translate(321.931444 0) scale(0.996264)"/>
      <use xlink:href="#CMR17-65" transform="translate(375.429253 0) scale(0.996264)"/>
      <use xlink:href="#CMR17-74" transform="translate(415.914913 0) scale(0.996264)"/>
      <use xlink:href="#CMR17-61" transform="translate(451.195681 0) scale(0.996264)"/>
     </g>
     <!-- [Input] -->
     <g transform="translate(40.732167 198.162459) rotate(-90) scale(0.14 -0.14)">
      <defs>
       <path id="CMR17-49" d="M 1261 3898 
C 1261 4185 1338 4185 1798 4185 
L 1798 4352 
C 1594 4339 1267 4339 1050 4339 
C 832 4339 506 4339 301 4352 
L 301 4185 
C 762 4185 838 4185 838 3898 
L 838 453 
C 838 166 762 166 301 166 
L 301 0 
C 506 12 832 12 1050 12 
C 1267 12 1594 12 1798 0 
L 1798 166 
C 1338 166 1261 166 1261 453 
L 1261 3898 
z
" transform="scale(0.015625)"/>
       <path id="CMR17-6e" d="M 2656 1954 
C 2656 2282 2592 2816 1837 2816 
C 1331 2816 1069 2424 973 2166 
L 966 2166 
L 966 2816 
L 211 2745 
L 211 2578 
C 589 2578 646 2540 646 2231 
L 646 443 
C 646 198 621 166 211 166 
L 211 0 
C 365 12 646 12 813 12 
C 979 12 1267 12 1421 0 
L 1421 166 
C 1011 166 986 192 986 443 
L 986 1678 
C 986 2269 1344 2713 1792 2713 
C 2266 2713 2317 2289 2317 1980 
L 2317 443 
C 2317 198 2291 166 1882 166 
L 1882 0 
C 2035 12 2317 12 2483 12 
C 2650 12 2938 12 3091 0 
L 3091 166 
C 2682 166 2656 192 2656 443 
L 2656 1954 
z
" transform="scale(0.015625)"/>
       <path id="CMR17-70" d="M 1408 -1114 
C 998 -1114 973 -1088 973 -834 
L 973 380 
C 1158 109 1427 -64 1766 -64 
C 2406 -64 3053 503 3053 1382 
C 3053 2196 2496 2816 1837 2816 
C 1453 2816 1139 2603 960 2345 
L 960 2816 
L 198 2745 
L 198 2577 
C 576 2577 634 2539 634 2228 
L 634 -834 
C 634 -1081 608 -1114 198 -1114 
L 198 -1280 
C 352 -1268 634 -1268 800 -1268 
C 966 -1268 1254 -1268 1408 -1280 
L 1408 -1114 
z
M 973 2015 
C 973 2106 973 2241 1222 2481 
C 1254 2506 1472 2700 1792 2700 
C 2259 2700 2643 2112 2643 1376 
C 2643 639 2234 38 1728 38 
C 1498 38 1248 148 1056 451 
C 973 594 973 632 973 736 
L 973 2015 
z
" transform="scale(0.015625)"/>
       <path id="CMR17-75" d="M 1882 2745 
L 1882 2579 
C 2259 2579 2317 2540 2317 2229 
L 2317 1053 
C 2317 510 2029 38 1555 38 
C 1030 38 986 355 986 691 
L 986 2816 
L 211 2745 
L 211 2579 
C 467 2579 640 2579 646 2320 
L 646 1079 
C 646 646 646 368 813 187 
C 896 103 1056 -64 1517 -64 
C 2061 -64 2272 400 2323 536 
L 2330 536 
L 2330 -64 
L 3091 -13 
L 3091 154 
C 2714 154 2656 193 2656 503 
L 2656 2816 
L 1882 2745 
z
" transform="scale(0.015625)"/>
      </defs>
      <use xlink:href="#CMR17-5b" transform="scale(0.996264)"/>
      <use xlink:href="#CMR17-49" transform="translate(24.871058 0) scale(0.996264)"/>
      <use xlink:href="#CMR17-6e" transform="translate(57.509468 0) scale(0.996264)"/>
      <use xlink:href="#CMR17-70" transform="translate(108.404837 0) scale(0.996264)"/>
      <use xlink:href="#CMR17-75" transform="translate(159.300207 0) scale(0.996264)"/>
      <use xlink:href="#CMR17-74" transform="translate(210.195577 0) scale(0.996264)"/>
      <use xlink:href="#CMR17-5d" transform="translate(245.476345 0) scale(0.996264)"/>
     </g>
    </g>
   </g>
   <g id="LineCollection_1">
    <path d="M 91.036634 345.986526 
L 91.036634 9.751654 
" clip-path="url(#p5d4b61f889)" style="fill: none; stroke: #e31a1c; stroke-width: 1.5"/>
   </g>
   <g id="LineCollection_2">
    <path d="M 95.637485 361 
L 95.637485 -1 
" clip-path="url(#p5d4b61f889)" style="fill: none; stroke: #1f78b4; stroke-width: 1.5"/>
   </g>
   <g id="LineCollection_3">
    <path d="M 128.087067 292.554298 
L 128.087067 63.183882 
" clip-path="url(#p5d4b61f889)" style="fill: none; stroke: #e31a1c; stroke-width: 1.5"/>
   </g>
   <g id="LineCollection_4">
    <path d="M 132.687917 361 
L 132.687917 -1 
" clip-path="url(#p5d4b61f889)" style="fill: none; stroke: #1f78b4; stroke-width: 1.5"/>
   </g>
   <g id="LineCollection_5">
    <path d="M 165.137499 256.164269 
L 165.137499 99.573911 
" clip-path="url(#p5d4b61f889)" style="fill: none; stroke: #e31a1c; stroke-width: 1.5"/>
   </g>
   <g id="LineCollection_6">
    <path d="M 169.73835 361 
L 169.73835 -1 
" clip-path="url(#p5d4b61f889)" style="fill: none; stroke: #1f78b4; stroke-width: 1.5"/>
   </g>
   <g id="LineCollection_7">
    <path d="M 202.187932 231.177611 
L 202.187932 124.560569 
" clip-path="url(#p5d4b61f889)" style="fill: none; stroke: #e31a1c; stroke-width: 1.5"/>
   </g>
   <g id="LineCollection_8">
    <path d="M 206.788783 361 
L 206.788783 -1 
" clip-path="url(#p5d4b61f889)" style="fill: none; stroke: #1f78b4; stroke-width: 1.5"/>
   </g>
   <g id="LineCollection_9">
    <path d="M 239.238365 214.321668 
L 239.238365 141.416513 
" clip-path="url(#p5d4b61f889)" style="fill: none; stroke: #e31a1c; stroke-width: 1.5"/>
   </g>
   <g id="LineCollection_10">
    <path d="M 243.839216 341.799171 
L 243.839216 13.939009 
" clip-path="url(#p5d4b61f889)" style="fill: none; stroke: #1f78b4; stroke-width: 1.5"/>
   </g>
   <g id="LineCollection_11">
    <path d="M 276.288798 202.640701 
L 276.288798 153.09748 
" clip-path="url(#p5d4b61f889)" style="fill: none; stroke: #e31a1c; stroke-width: 1.5"/>
   </g>
   <g id="LineCollection_12">
    <path d="M 280.889649 286.184848 
L 280.889649 69.553332 
" clip-path="url(#p5d4b61f889)" style="fill: none; stroke: #1f78b4; stroke-width: 1.5"/>
   </g>
   <g id="LineCollection_13">
    <path d="M 313.339231 194.755678 
L 313.339231 160.982502 
" clip-path="url(#p5d4b61f889)" style="fill: none; stroke: #e31a1c; stroke-width: 1.5"/>
   </g>
   <g id="LineCollection_14">
    <path d="M 317.940081 249.418945 
L 317.940081 106.319235 
" clip-path="url(#p5d4b61f889)" style="fill: none; stroke: #1f78b4; stroke-width: 1.5"/>
   </g>
   <g id="LineCollection_15">
    <path d="M 350.389664 189.39115 
L 350.389664 166.34703 
" clip-path="url(#p5d4b61f889)" style="fill: none; stroke: #e31a1c; stroke-width: 1.5"/>
   </g>
   <g id="LineCollection_16">
    <path d="M 354.990514 227.79466 
L 354.990514 127.943521 
" clip-path="url(#p5d4b61f889)" style="fill: none; stroke: #1f78b4; stroke-width: 1.5"/>
   </g>
   <g id="LineCollection_17">
    <path d="M 387.440096 185.726752 
L 387.440096 170.011428 
" clip-path="url(#p5d4b61f889)" style="fill: none; stroke: #e31a1c; stroke-width: 1.5"/>
   </g>
   <g id="LineCollection_18">
    <path d="M 392.040947 211.810364 
L 392.040947 143.927816 
" clip-path="url(#p5d4b61f889)" style="fill: none; stroke: #1f78b4; stroke-width: 1.5"/>
   </g>
   <g id="LineCollection_19">
    <path d="M 424.490529 183.147691 
L 424.490529 172.416375 
" clip-path="url(#p5d4b61f889)" style="fill: none; stroke: #e31a1c; stroke-width: 1.5"/>
   </g>
   <g id="LineCollection_20">
    <path d="M 429.09138 184.544695 
L 429.09138 171.521927 
" clip-path="url(#p5d4b61f889)" style="fill: none; stroke: #1f78b4; stroke-width: 1.5"/>
   </g>
   <g id="LineCollection_21">
    <path d="M 461.540962 181.446224 
L 461.540962 174.127835 
" clip-path="url(#p5d4b61f889)" style="fill: none; stroke: #e31a1c; stroke-width: 1.5"/>
   </g>
   <g id="LineCollection_22">
    <path d="M 466.141813 193.714063 
L 466.141813 162.024117 
" clip-path="url(#p5d4b61f889)" style="fill: none; stroke: #1f78b4; stroke-width: 1.5"/>
   </g>
   <g id="LineCollection_23">
    <path d="M 498.591395 180.285089 
L 498.591395 175.293553 
" clip-path="url(#p5d4b61f889)" style="fill: none; stroke: #e31a1c; stroke-width: 1.5"/>
   </g>
   <g id="LineCollection_24">
    <path d="M 503.192245 188.633306 
L 503.192245 167.104875 
" clip-path="url(#p5d4b61f889)" style="fill: none; stroke: #1f78b4; stroke-width: 1.5"/>
   </g>
   <g id="LineCollection_25">
    <path d="M 535.641828 179.494571 
L 535.641828 176.088363 
" clip-path="url(#p5d4b61f889)" style="fill: none; stroke: #e31a1c; stroke-width: 1.5"/>
   </g>
   <g id="LineCollection_26">
    <path d="M 540.242678 179.668014 
L 540.242678 176.371546 
" clip-path="url(#p5d4b61f889)" style="fill: none; stroke: #1f78b4; stroke-width: 1.5"/>
   </g>
   <g id="LineCollection_27">
    <path clip-path="url(#p5d4b61f889)" style="fill: none; stroke: #1f78b4; stroke-width: 1.5"/>
   </g>
   <g id="LineCollection_28">
    <path clip-path="url(#p5d4b61f889)" style="fill: none; stroke: #e31a1c; stroke-width: 1.5"/>
   </g>
   <g id="LineCollection_29">
    <path d="M -1 177.86909 
L 542.59769 177.86909 
" clip-path="url(#p5d4b61f889)" style="fill: none; stroke: #d3d3d3; stroke-width: 1.5"/>
   </g>
   <g id="line2d_48">
    <defs>
     <path id="m95cbab2a20" d="M -3 3 
L 3 -3 
M -3 -3 
L 3 3 
" style="stroke: #e31a1c"/>
    </defs>
    <g clip-path="url(#p5d4b61f889)">
     <use xlink:href="#m95cbab2a20" x="91.036634" y="177.86909" style="fill: #e31a1c; stroke: #e31a1c"/>
    </g>
   </g>
   <g id="line2d_49">
    <defs>
     <path id="m33c970bb83" d="M -3 3 
L 3 -3 
M -3 -3 
L 3 3 
" style="stroke: #1f78b4"/>
    </defs>
    <g clip-path="url(#p5d4b61f889)">
     <use xlink:href="#m33c970bb83" x="95.637485" y="177.86909" style="fill: #1f78b4; stroke: #1f78b4"/>
    </g>
   </g>
   <g id="line2d_50">
    <g clip-path="url(#p5d4b61f889)">
     <use xlink:href="#m95cbab2a20" x="128.087067" y="177.86909" style="fill: #e31a1c; stroke: #e31a1c"/>
    </g>
   </g>
   <g id="line2d_51">
    <g clip-path="url(#p5d4b61f889)">
     <use xlink:href="#m33c970bb83" x="132.687917" y="177.86909" style="fill: #1f78b4; stroke: #1f78b4"/>
    </g>
   </g>
   <g id="line2d_52">
    <g clip-path="url(#p5d4b61f889)">
     <use xlink:href="#m95cbab2a20" x="165.137499" y="177.86909" style="fill: #e31a1c; stroke: #e31a1c"/>
    </g>
   </g>
   <g id="line2d_53">
    <g clip-path="url(#p5d4b61f889)">
     <use xlink:href="#m33c970bb83" x="169.73835" y="177.86909" style="fill: #1f78b4; stroke: #1f78b4"/>
    </g>
   </g>
   <g id="line2d_54">
    <g clip-path="url(#p5d4b61f889)">
     <use xlink:href="#m95cbab2a20" x="202.187932" y="177.86909" style="fill: #e31a1c; stroke: #e31a1c"/>
    </g>
   </g>
   <g id="line2d_55">
    <g clip-path="url(#p5d4b61f889)">
     <use xlink:href="#m33c970bb83" x="206.788783" y="177.86909" style="fill: #1f78b4; stroke: #1f78b4"/>
    </g>
   </g>
   <g id="line2d_56">
    <g clip-path="url(#p5d4b61f889)">
     <use xlink:href="#m95cbab2a20" x="239.238365" y="177.86909" style="fill: #e31a1c; stroke: #e31a1c"/>
    </g>
   </g>
   <g id="line2d_57">
    <g clip-path="url(#p5d4b61f889)">
     <use xlink:href="#m33c970bb83" x="243.839216" y="177.86909" style="fill: #1f78b4; stroke: #1f78b4"/>
    </g>
   </g>
   <g id="line2d_58">
    <g clip-path="url(#p5d4b61f889)">
     <use xlink:href="#m95cbab2a20" x="276.288798" y="177.86909" style="fill: #e31a1c; stroke: #e31a1c"/>
    </g>
   </g>
   <g id="line2d_59">
    <g clip-path="url(#p5d4b61f889)">
     <use xlink:href="#m33c970bb83" x="280.889649" y="177.86909" style="fill: #1f78b4; stroke: #1f78b4"/>
    </g>
   </g>
   <g id="line2d_60">
    <g clip-path="url(#p5d4b61f889)">
     <use xlink:href="#m95cbab2a20" x="313.339231" y="177.86909" style="fill: #e31a1c; stroke: #e31a1c"/>
    </g>
   </g>
   <g id="line2d_61">
    <g clip-path="url(#p5d4b61f889)">
     <use xlink:href="#m33c970bb83" x="317.940081" y="177.86909" style="fill: #1f78b4; stroke: #1f78b4"/>
    </g>
   </g>
   <g id="line2d_62">
    <g clip-path="url(#p5d4b61f889)">
     <use xlink:href="#m95cbab2a20" x="350.389664" y="177.86909" style="fill: #e31a1c; stroke: #e31a1c"/>
    </g>
   </g>
   <g id="line2d_63">
    <g clip-path="url(#p5d4b61f889)">
     <use xlink:href="#m33c970bb83" x="354.990514" y="177.86909" style="fill: #1f78b4; stroke: #1f78b4"/>
    </g>
   </g>
   <g id="line2d_64">
    <g clip-path="url(#p5d4b61f889)">
     <use xlink:href="#m95cbab2a20" x="387.440096" y="177.86909" style="fill: #e31a1c; stroke: #e31a1c"/>
    </g>
   </g>
   <g id="line2d_65">
    <g clip-path="url(#p5d4b61f889)">
     <use xlink:href="#m33c970bb83" x="392.040947" y="177.86909" style="fill: #1f78b4; stroke: #1f78b4"/>
    </g>
   </g>
   <g id="line2d_66">
    <g clip-path="url(#p5d4b61f889)">
     <use xlink:href="#m95cbab2a20" x="424.490529" y="177.782033" style="fill: #e31a1c; stroke: #e31a1c"/>
    </g>
   </g>
   <g id="line2d_67">
    <g clip-path="url(#p5d4b61f889)">
     <use xlink:href="#m33c970bb83" x="429.09138" y="178.033311" style="fill: #1f78b4; stroke: #1f78b4"/>
    </g>
   </g>
   <g id="line2d_68">
    <g clip-path="url(#p5d4b61f889)">
     <use xlink:href="#m95cbab2a20" x="461.540962" y="177.78703" style="fill: #e31a1c; stroke: #e31a1c"/>
    </g>
   </g>
   <g id="line2d_69">
    <g clip-path="url(#p5d4b61f889)">
     <use xlink:href="#m33c970bb83" x="466.141813" y="177.86909" style="fill: #1f78b4; stroke: #1f78b4"/>
    </g>
   </g>
   <g id="line2d_70">
    <g clip-path="url(#p5d4b61f889)">
     <use xlink:href="#m95cbab2a20" x="498.591395" y="177.789321" style="fill: #e31a1c; stroke: #e31a1c"/>
    </g>
   </g>
   <g id="line2d_71">
    <g clip-path="url(#p5d4b61f889)">
     <use xlink:href="#m33c970bb83" x="503.192245" y="177.86909" style="fill: #1f78b4; stroke: #1f78b4"/>
    </g>
   </g>
   <g id="line2d_72">
    <g clip-path="url(#p5d4b61f889)">
     <use xlink:href="#m95cbab2a20" x="535.641828" y="177.791467" style="fill: #e31a1c; stroke: #e31a1c"/>
    </g>
   </g>
   <g id="line2d_73">
    <g clip-path="url(#p5d4b61f889)">
     <use xlink:href="#m33c970bb83" x="540.242678" y="178.01978" style="fill: #1f78b4; stroke: #1f78b4"/>
    </g>
   </g>
   <g id="line2d_74">
    <g clip-path="url(#p5d4b61f889)"/>
   </g>
   <g id="line2d_75">
    <g clip-path="url(#p5d4b61f889)"/>
   </g>
   <g id="patch_3">
    <path d="M 67.94917 315.396627 
L 67.94917 40.341553 
" style="fill: none; stroke: #000000; stroke-width: 0.8; stroke-linejoin: miter; stroke-linecap: square"/>
   </g>
   <g id="patch_4">
    <path d="M 565.2 315.396627 
L 565.2 40.341553 
" style="fill: none; stroke: #000000; stroke-width: 0.8; stroke-linejoin: miter; stroke-linecap: square"/>
   </g>
   <g id="patch_5">
    <path d="M 67.94917 315.396627 
L 565.2 315.396627 
" style="fill: none; stroke: #000000; stroke-width: 0.8; stroke-linejoin: miter; stroke-linecap: square"/>
   </g>
   <g id="patch_6">
    <path d="M 67.94917 40.341553 
L 565.2 40.341553 
" style="fill: none; stroke: #000000; stroke-width: 0.8; stroke-linejoin: miter; stroke-linecap: square"/>
   </g>
   <g id="legend_1">
    <g id="patch_7">
     <path d="M 393.908717 92.001278 
L 555.4 92.001278 
Q 558.2 92.001278 558.2 89.201278 
L 558.2 50.141553 
Q 558.2 47.341553 555.4 47.341553 
L 393.908717 47.341553 
Q 391.108717 47.341553 391.108717 50.141553 
L 391.108717 89.201278 
Q 391.108717 92.001278 393.908717 92.001278 
z
" style="fill: #ffffff; opacity: 0.8; stroke: #cccccc; stroke-linejoin: miter"/>
    </g>
    <g id="LineCollection_30">
     <path d="M 410.708717 64.841553 
L 410.708717 50.841553 
" style="fill: none; stroke: #1f78b4; stroke-width: 1.5"/>
    </g>
    <g id="line2d_76"/>
    <g id="line2d_77">
     <g>
      <use xlink:href="#m33c970bb83" x="410.708717" y="57.841553" style="fill: #1f78b4; stroke: #1f78b4"/>
     </g>
    </g>
    <g id="text_15">
     <!-- fit with systematics -->
     <g transform="translate(435.908717 62.741553) scale(0.14 -0.14)">
      <defs>
       <path id="CMR17-77" d="M 3725 2186 
C 3853 2566 4109 2579 4205 2585 
L 4205 2752 
C 4077 2745 3949 2739 3821 2739 
C 3699 2739 3424 2739 3315 2752 
L 3315 2585 
C 3514 2572 3622 2456 3622 2296 
C 3622 2251 3610 2193 3597 2148 
L 2995 398 
L 2342 2296 
C 2330 2341 2310 2392 2310 2418 
C 2310 2585 2528 2585 2630 2585 
L 2630 2752 
C 2483 2739 2214 2739 2061 2739 
C 1901 2739 1734 2739 1587 2752 
L 1587 2585 
C 1939 2585 1939 2572 2074 2167 
L 1485 443 
L 851 2302 
C 819 2386 819 2399 819 2418 
C 819 2585 1037 2585 1139 2585 
L 1139 2752 
C 986 2739 717 2739 557 2739 
C 416 2739 198 2739 64 2752 
L 64 2585 
C 346 2585 416 2566 486 2353 
L 1274 38 
C 1299 -45 1318 -64 1370 -64 
C 1414 -64 1440 -52 1472 44 
L 2131 1987 
L 2797 44 
C 2829 -52 2854 -64 2899 -64 
C 2950 -64 2970 -45 2995 38 
L 3725 2186 
z
" transform="scale(0.015625)"/>
       <path id="CMR17-79" d="M 2496 2183 
C 2656 2579 2944 2585 3034 2585 
L 3034 2752 
C 2912 2745 2752 2739 2630 2739 
C 2496 2739 2285 2739 2157 2752 
L 2157 2585 
C 2400 2566 2406 2384 2406 2332 
C 2406 2268 2394 2235 2362 2158 
L 1664 409 
L 902 2300 
C 870 2378 870 2423 870 2430 
C 870 2572 1018 2585 1171 2585 
L 1171 2752 
C 1018 2739 742 2739 582 2739 
C 410 2739 205 2739 64 2752 
L 64 2585 
C 410 2585 448 2553 531 2345 
L 1485 -31 
C 1197 -795 1030 -1242 627 -1242 
C 557 -1242 397 -1223 282 -1106 
C 429 -1093 493 -1002 493 -892 
C 493 -782 416 -685 288 -685 
C 147 -685 77 -782 77 -899 
C 77 -1158 339 -1344 627 -1344 
C 998 -1344 1229 -983 1357 -659 
L 2496 2183 
z
" transform="scale(0.015625)"/>
       <path id="CMR17-63" d="M 2234 2240 
C 2112 2240 1933 2240 1933 2015 
C 1933 1836 2080 1785 2163 1785 
C 2208 1785 2394 1804 2394 2028 
C 2394 2476 1958 2816 1466 2816 
C 787 2816 211 2201 211 1379 
C 211 521 813 -64 1466 -64 
C 2259 -64 2458 676 2458 747 
C 2458 773 2451 792 2406 792 
C 2362 792 2355 786 2330 702 
C 2163 180 1798 51 1523 51 
C 1114 51 621 431 621 1385 
C 621 2358 1094 2700 1472 2700 
C 1722 2700 2093 2582 2234 2240 
z
" transform="scale(0.015625)"/>
      </defs>
      <use xlink:href="#CMR17-c" transform="scale(0.996264)"/>
      <use xlink:href="#CMR17-74" transform="translate(49.742223 0) scale(0.996264)"/>
      <use xlink:href="#CMR17-77" transform="translate(115.098958 0) scale(0.996264)"/>
      <use xlink:href="#CMR17-69" transform="translate(181.608838 0) scale(0.996264)"/>
      <use xlink:href="#CMR17-74" transform="translate(206.479897 0) scale(0.996264)"/>
      <use xlink:href="#CMR17-68" transform="translate(241.760664 0) scale(0.996264)"/>
      <use xlink:href="#CMR17-73" transform="translate(322.732 0) scale(0.996264)"/>
      <use xlink:href="#CMR17-79" transform="translate(358.533338 0) scale(0.996264)"/>
      <use xlink:href="#CMR17-73" transform="translate(406.826254 0) scale(0.996264)"/>
      <use xlink:href="#CMR17-74" transform="translate(442.627592 0) scale(0.996264)"/>
      <use xlink:href="#CMR17-65" transform="translate(477.908359 0) scale(0.996264)"/>
      <use xlink:href="#CMR17-6d" transform="translate(518.39402 0) scale(0.996264)"/>
      <use xlink:href="#CMR17-61" transform="translate(595.31361 0) scale(0.996264)"/>
      <use xlink:href="#CMR17-74" transform="translate(641.004087 0) scale(0.996264)"/>
      <use xlink:href="#CMR17-69" transform="translate(676.284855 0) scale(0.996264)"/>
      <use xlink:href="#CMR17-63" transform="translate(701.155913 0) scale(0.996264)"/>
      <use xlink:href="#CMR17-73" transform="translate(741.641574 0) scale(0.996264)"/>
     </g>
    </g>
    <g id="LineCollection_31">
     <path d="M 410.708717 85.014354 
L 410.708717 71.014354 
" style="fill: none; stroke: #e31a1c; stroke-width: 1.5"/>
    </g>
    <g id="line2d_78"/>
    <g id="line2d_79">
     <g>
      <use xlink:href="#m95cbab2a20" x="410.708717" y="78.014354" style="fill: #e31a1c; stroke: #e31a1c"/>
     </g>
    </g>
    <g id="text_16">
     <!-- fit w/o systematics -->
     <g transform="translate(435.908717 82.914354) scale(0.14 -0.14)">
      <defs>
       <path id="CMR17-2f" d="M 2605 4575 
C 2637 4658 2637 4671 2637 4684 
C 2637 4761 2579 4800 2528 4800 
C 2451 4800 2426 4748 2400 4671 
L 326 -1376 
C 294 -1460 294 -1472 294 -1485 
C 294 -1562 352 -1600 403 -1600 
C 480 -1600 506 -1549 531 -1472 
L 2605 4575 
z
" transform="scale(0.015625)"/>
       <path id="CMR17-6f" d="M 2758 1356 
C 2758 2176 2163 2816 1466 2816 
C 768 2816 173 2176 173 1356 
C 173 550 768 -64 1466 -64 
C 2163 -64 2758 550 2758 1356 
z
M 1466 51 
C 1165 51 909 230 762 480 
C 602 768 582 1126 582 1408 
C 582 1676 595 2009 762 2297 
C 890 2508 1139 2713 1466 2713 
C 1754 2713 1997 2553 2150 2329 
C 2349 2028 2349 1606 2349 1408 
C 2349 1158 2336 774 2163 467 
C 1984 172 1709 51 1466 51 
z
" transform="scale(0.015625)"/>
      </defs>
      <use xlink:href="#CMR17-c" transform="scale(0.996264)"/>
      <use xlink:href="#CMR17-74" transform="translate(49.742223 0) scale(0.996264)"/>
      <use xlink:href="#CMR17-77" transform="translate(115.098958 0) scale(0.996264)"/>
      <use xlink:href="#CMR17-2f" transform="translate(181.608838 0) scale(0.996264)"/>
      <use xlink:href="#CMR17-6f" transform="translate(227.299315 0) scale(0.996264)"/>
      <use xlink:href="#CMR17-73" transform="translate(303.065759 0) scale(0.996264)"/>
      <use xlink:href="#CMR17-79" transform="translate(338.867096 0) scale(0.996264)"/>
      <use xlink:href="#CMR17-73" transform="translate(387.160012 0) scale(0.996264)"/>
      <use xlink:href="#CMR17-74" transform="translate(422.96135 0) scale(0.996264)"/>
      <use xlink:href="#CMR17-65" transform="translate(458.242118 0) scale(0.996264)"/>
      <use xlink:href="#CMR17-6d" transform="translate(498.727778 0) scale(0.996264)"/>
      <use xlink:href="#CMR17-61" transform="translate(575.647368 0) scale(0.996264)"/>
      <use xlink:href="#CMR17-74" transform="translate(621.337845 0) scale(0.996264)"/>
      <use xlink:href="#CMR17-69" transform="translate(656.618613 0) scale(0.996264)"/>
      <use xlink:href="#CMR17-63" transform="translate(681.489671 0) scale(0.996264)"/>
      <use xlink:href="#CMR17-73" transform="translate(721.975332 0) scale(0.996264)"/>
     </g>
    </g>
   </g>
  </g>
  <g id="axes_2">
   <g id="matplotlib.axis_3">
    <g id="xtick_41">
     <g id="line2d_80">
      <defs>
       <path id="m6eb4290fd6" d="M 0 0 
L 0 -3.5 
" style="stroke: #000000; stroke-width: 0.8"/>
      </defs>
      <g>
       <use xlink:href="#m6eb4290fd6" x="91.036634" y="40.341553" style="stroke: #000000; stroke-width: 0.8"/>
      </g>
     </g>
     <g id="text_17">
      <!-- 4 -->
      <g transform="translate(88.545966 31.404375) scale(0.1 -0.1)">
       <use xlink:href="#CMR17-34" transform="scale(0.996264)"/>
      </g>
     </g>
    </g>
    <g id="xtick_42">
     <g id="line2d_81">
      <g>
       <use xlink:href="#m6eb4290fd6" x="128.087067" y="40.341553" style="stroke: #000000; stroke-width: 0.8"/>
      </g>
     </g>
     <g id="text_18">
      <!-- 9 -->
      <g transform="translate(125.596399 31.404375) scale(0.1 -0.1)">
       <defs>
        <path id="CMR17-39" d="M 2253 1871 
C 2253 448 1670 25 1190 25 
C 1043 25 685 43 538 281 
C 704 256 826 345 826 505 
C 826 678 685 736 595 736 
C 538 736 365 710 365 492 
C 365 68 742 -128 1203 -128 
C 1939 -128 2688 665 2688 2090 
C 2688 3857 1971 4224 1485 4224 
C 851 4224 243 3664 243 2800 
C 243 2000 762 1408 1414 1408 
C 1952 1408 2189 1910 2253 2122 
L 2253 1871 
z
M 1427 1510 
C 1254 1510 1011 1542 813 1929 
C 678 2181 678 2477 678 2793 
C 678 3174 678 3438 858 3722 
C 947 3857 1114 4076 1485 4076 
C 2240 4076 2240 2909 2240 2651 
C 2240 2193 2035 1510 1427 1510 
z
" transform="scale(0.015625)"/>
       </defs>
       <use xlink:href="#CMR17-39" transform="scale(0.996264)"/>
      </g>
     </g>
    </g>
    <g id="xtick_43">
     <g id="line2d_82">
      <g>
       <use xlink:href="#m6eb4290fd6" x="165.137499" y="40.341553" style="stroke: #000000; stroke-width: 0.8"/>
      </g>
     </g>
     <g id="text_19">
      <!-- 19 -->
      <g transform="translate(160.156164 31.404375) scale(0.1 -0.1)">
       <use xlink:href="#CMR17-31" transform="scale(0.996264)"/>
       <use xlink:href="#CMR17-39" transform="translate(45.690477 0) scale(0.996264)"/>
      </g>
     </g>
    </g>
    <g id="xtick_44">
     <g id="line2d_83">
      <g>
       <use xlink:href="#m6eb4290fd6" x="202.187932" y="40.341553" style="stroke: #000000; stroke-width: 0.8"/>
      </g>
     </g>
     <g id="text_20">
      <!-- 42 -->
      <g transform="translate(197.206597 31.404375) scale(0.1 -0.1)">
       <use xlink:href="#CMR17-34" transform="scale(0.996264)"/>
       <use xlink:href="#CMR17-32" transform="translate(45.690477 0) scale(0.996264)"/>
      </g>
     </g>
    </g>
    <g id="xtick_45">
     <g id="line2d_84">
      <g>
       <use xlink:href="#m6eb4290fd6" x="239.238365" y="40.341553" style="stroke: #000000; stroke-width: 0.8"/>
      </g>
     </g>
     <g id="text_21">
      <!-- 91 -->
      <g transform="translate(234.25703 31.404375) scale(0.1 -0.1)">
       <use xlink:href="#CMR17-39" transform="scale(0.996264)"/>
       <use xlink:href="#CMR17-31" transform="translate(45.690477 0) scale(0.996264)"/>
      </g>
     </g>
    </g>
    <g id="xtick_46">
     <g id="line2d_85">
      <g>
       <use xlink:href="#m6eb4290fd6" x="276.288798" y="40.341553" style="stroke: #000000; stroke-width: 0.8"/>
      </g>
     </g>
     <g id="text_22">
      <!-- 197 -->
      <g transform="translate(268.816795 31.404375) scale(0.1 -0.1)">
       <defs>
        <path id="CMR17-37" d="M 2886 3955 
L 2886 4096 
L 1382 4096 
C 634 4096 621 4166 595 4288 
L 480 4288 
L 294 3104 
L 410 3104 
C 429 3226 474 3552 550 3673 
C 589 3724 1062 3724 1171 3724 
L 2579 3724 
L 1869 2670 
C 1395 1961 1069 1003 1069 166 
C 1069 89 1069 -128 1299 -128 
C 1530 -128 1530 89 1530 172 
L 1530 466 
C 1530 1514 1709 2204 2003 2644 
L 2886 3955 
z
" transform="scale(0.015625)"/>
       </defs>
       <use xlink:href="#CMR17-31" transform="scale(0.996264)"/>
       <use xlink:href="#CMR17-39" transform="translate(45.690477 0) scale(0.996264)"/>
       <use xlink:href="#CMR17-37" transform="translate(91.380954 0) scale(0.996264)"/>
      </g>
     </g>
    </g>
    <g id="xtick_47">
     <g id="line2d_86">
      <g>
       <use xlink:href="#m6eb4290fd6" x="313.339231" y="40.341553" style="stroke: #000000; stroke-width: 0.8"/>
      </g>
     </g>
     <g id="text_23">
      <!-- 424 -->
      <g transform="translate(305.867228 31.404375) scale(0.1 -0.1)">
       <use xlink:href="#CMR17-34" transform="scale(0.996264)"/>
       <use xlink:href="#CMR17-32" transform="translate(45.690477 0) scale(0.996264)"/>
       <use xlink:href="#CMR17-34" transform="translate(91.380954 0) scale(0.996264)"/>
      </g>
     </g>
    </g>
    <g id="xtick_48">
     <g id="line2d_87">
      <g>
       <use xlink:href="#m6eb4290fd6" x="350.389664" y="40.341553" style="stroke: #000000; stroke-width: 0.8"/>
      </g>
     </g>
     <g id="text_24">
      <!-- 914 -->
      <g transform="translate(342.917661 31.404375) scale(0.1 -0.1)">
       <use xlink:href="#CMR17-39" transform="scale(0.996264)"/>
       <use xlink:href="#CMR17-31" transform="translate(45.690477 0) scale(0.996264)"/>
       <use xlink:href="#CMR17-34" transform="translate(91.380954 0) scale(0.996264)"/>
      </g>
     </g>
    </g>
    <g id="xtick_49">
     <g id="line2d_88">
      <g>
       <use xlink:href="#m6eb4290fd6" x="387.440096" y="40.341553" style="stroke: #000000; stroke-width: 0.8"/>
      </g>
     </g>
     <g id="text_25">
      <!-- 1970 -->
      <g transform="translate(377.477426 31.404375) scale(0.1 -0.1)">
       <use xlink:href="#CMR17-31" transform="scale(0.996264)"/>
       <use xlink:href="#CMR17-39" transform="translate(45.690477 0) scale(0.996264)"/>
       <use xlink:href="#CMR17-37" transform="translate(91.380954 0) scale(0.996264)"/>
       <use xlink:href="#CMR17-30" transform="translate(137.071431 0) scale(0.996264)"/>
      </g>
     </g>
    </g>
    <g id="xtick_50">
     <g id="line2d_89">
      <g>
       <use xlink:href="#m6eb4290fd6" x="424.490529" y="40.341553" style="stroke: #000000; stroke-width: 0.8"/>
      </g>
     </g>
     <g id="text_26">
      <!-- 4247 -->
      <g transform="translate(414.527859 31.404375) scale(0.1 -0.1)">
       <use xlink:href="#CMR17-34" transform="scale(0.996264)"/>
       <use xlink:href="#CMR17-32" transform="translate(45.690477 0) scale(0.996264)"/>
       <use xlink:href="#CMR17-34" transform="translate(91.380954 0) scale(0.996264)"/>
       <use xlink:href="#CMR17-37" transform="translate(137.071431 0) scale(0.996264)"/>
      </g>
     </g>
    </g>
    <g id="xtick_51">
     <g id="line2d_90">
      <g>
       <use xlink:href="#m6eb4290fd6" x="461.540962" y="40.341553" style="stroke: #000000; stroke-width: 0.8"/>
      </g>
     </g>
     <g id="text_27">
      <!-- 9152 -->
      <g transform="translate(451.578291 31.404375) scale(0.1 -0.1)">
       <defs>
        <path id="CMR17-35" d="M 730 3750 
C 794 3724 1056 3641 1325 3641 
C 1920 3641 2246 3961 2432 4140 
C 2432 4191 2432 4224 2394 4224 
C 2387 4224 2374 4224 2323 4198 
C 2099 4102 1837 4032 1517 4032 
C 1325 4032 1037 4055 723 4191 
C 653 4224 640 4224 634 4224 
C 602 4224 595 4217 595 4090 
L 595 2231 
C 595 2113 595 2080 659 2080 
C 691 2080 704 2093 736 2139 
C 941 2435 1222 2560 1542 2560 
C 1766 2560 2246 2415 2246 1293 
C 2246 1087 2246 716 2054 422 
C 1894 159 1645 25 1370 25 
C 947 25 518 319 403 812 
C 429 806 480 793 506 793 
C 589 793 749 838 749 1036 
C 749 1209 627 1280 506 1280 
C 358 1280 262 1190 262 1011 
C 262 454 704 -128 1382 -128 
C 2042 -128 2669 441 2669 1267 
C 2669 2054 2170 2662 1549 2662 
C 1222 2662 947 2540 730 2304 
L 730 3750 
z
" transform="scale(0.015625)"/>
       </defs>
       <use xlink:href="#CMR17-39" transform="scale(0.996264)"/>
       <use xlink:href="#CMR17-31" transform="translate(45.690477 0) scale(0.996264)"/>
       <use xlink:href="#CMR17-35" transform="translate(91.380954 0) scale(0.996264)"/>
       <use xlink:href="#CMR17-32" transform="translate(137.071431 0) scale(0.996264)"/>
      </g>
     </g>
    </g>
    <g id="xtick_52">
     <g id="line2d_91">
      <g>
       <use xlink:href="#m6eb4290fd6" x="498.591395" y="40.341553" style="stroke: #000000; stroke-width: 0.8"/>
      </g>
     </g>
     <g id="text_28">
      <!-- 19717 -->
      <g transform="translate(486.138057 31.404375) scale(0.1 -0.1)">
       <use xlink:href="#CMR17-31" transform="scale(0.996264)"/>
       <use xlink:href="#CMR17-39" transform="translate(45.690477 0) scale(0.996264)"/>
       <use xlink:href="#CMR17-37" transform="translate(91.380954 0) scale(0.996264)"/>
       <use xlink:href="#CMR17-31" transform="translate(137.071431 0) scale(0.996264)"/>
       <use xlink:href="#CMR17-37" transform="translate(182.761908 0) scale(0.996264)"/>
      </g>
     </g>
    </g>
    <g id="xtick_53">
     <g id="line2d_92">
      <g>
       <use xlink:href="#m6eb4290fd6" x="535.641828" y="40.341553" style="stroke: #000000; stroke-width: 0.8"/>
      </g>
     </g>
     <g id="text_29">
      <!-- 42480 -->
      <g transform="translate(523.188489 31.404375) scale(0.1 -0.1)">
       <defs>
        <path id="CMR17-38" d="M 1741 2289 
C 2144 2494 2554 2803 2554 3298 
C 2554 3884 1990 4224 1472 4224 
C 890 4224 378 3800 378 3215 
C 378 3054 416 2777 666 2533 
C 730 2469 998 2276 1171 2154 
C 883 2006 211 1652 211 945 
C 211 282 838 -128 1459 -128 
C 2144 -128 2720 366 2720 1022 
C 2720 1607 2330 1877 2074 2051 
L 1741 2289 
z
M 902 2855 
C 851 2887 595 3086 595 3388 
C 595 3781 998 4076 1459 4076 
C 1965 4076 2336 3716 2336 3298 
C 2336 2700 1670 2359 1638 2359 
C 1632 2359 1626 2359 1574 2398 
L 902 2855 
z
M 2080 1536 
C 2176 1466 2483 1253 2483 861 
C 2483 385 2010 25 1472 25 
C 890 25 448 443 448 951 
C 448 1459 838 1884 1280 2083 
L 2080 1536 
z
" transform="scale(0.015625)"/>
       </defs>
       <use xlink:href="#CMR17-34" transform="scale(0.996264)"/>
       <use xlink:href="#CMR17-32" transform="translate(45.690477 0) scale(0.996264)"/>
       <use xlink:href="#CMR17-34" transform="translate(91.380954 0) scale(0.996264)"/>
       <use xlink:href="#CMR17-38" transform="translate(137.071431 0) scale(0.996264)"/>
       <use xlink:href="#CMR17-30" transform="translate(182.761908 0) scale(0.996264)"/>
      </g>
     </g>
    </g>
    <g id="xtick_54">
     <g id="line2d_93">
      <defs>
       <path id="m0d20269d05" d="M 0 0 
L 0 -2 
" style="stroke: #000000; stroke-width: 0.6"/>
      </defs>
      <g>
       <use xlink:href="#m0d20269d05" x="73.81908" y="40.341553" style="stroke: #000000; stroke-width: 0.6"/>
      </g>
     </g>
    </g>
    <g id="xtick_55">
     <g id="line2d_94">
      <g>
       <use xlink:href="#m0d20269d05" x="80.26496" y="40.341553" style="stroke: #000000; stroke-width: 0.6"/>
      </g>
     </g>
    </g>
    <g id="xtick_56">
     <g id="line2d_95">
      <g>
       <use xlink:href="#m0d20269d05" x="85.950629" y="40.341553" style="stroke: #000000; stroke-width: 0.6"/>
      </g>
     </g>
    </g>
    <g id="xtick_57">
     <g id="line2d_96">
      <g>
       <use xlink:href="#m0d20269d05" x="124.496509" y="40.341553" style="stroke: #000000; stroke-width: 0.6"/>
      </g>
     </g>
    </g>
    <g id="xtick_58">
     <g id="line2d_97">
      <g>
       <use xlink:href="#m0d20269d05" x="144.069281" y="40.341553" style="stroke: #000000; stroke-width: 0.6"/>
      </g>
     </g>
    </g>
    <g id="xtick_59">
     <g id="line2d_98">
      <g>
       <use xlink:href="#m0d20269d05" x="157.956384" y="40.341553" style="stroke: #000000; stroke-width: 0.6"/>
      </g>
     </g>
    </g>
    <g id="xtick_60">
     <g id="line2d_99">
      <g>
       <use xlink:href="#m0d20269d05" x="168.728057" y="40.341553" style="stroke: #000000; stroke-width: 0.6"/>
      </g>
     </g>
    </g>
    <g id="xtick_61">
     <g id="line2d_100">
      <g>
       <use xlink:href="#m0d20269d05" x="177.529156" y="40.341553" style="stroke: #000000; stroke-width: 0.6"/>
      </g>
     </g>
    </g>
    <g id="xtick_62">
     <g id="line2d_101">
      <g>
       <use xlink:href="#m0d20269d05" x="184.970378" y="40.341553" style="stroke: #000000; stroke-width: 0.6"/>
      </g>
     </g>
    </g>
    <g id="xtick_63">
     <g id="line2d_102">
      <g>
       <use xlink:href="#m0d20269d05" x="191.416259" y="40.341553" style="stroke: #000000; stroke-width: 0.6"/>
      </g>
     </g>
    </g>
    <g id="xtick_64">
     <g id="line2d_103">
      <g>
       <use xlink:href="#m0d20269d05" x="197.101928" y="40.341553" style="stroke: #000000; stroke-width: 0.6"/>
      </g>
     </g>
    </g>
    <g id="xtick_65">
     <g id="line2d_104">
      <g>
       <use xlink:href="#m0d20269d05" x="235.647807" y="40.341553" style="stroke: #000000; stroke-width: 0.6"/>
      </g>
     </g>
    </g>
    <g id="xtick_66">
     <g id="line2d_105">
      <g>
       <use xlink:href="#m0d20269d05" x="255.220579" y="40.341553" style="stroke: #000000; stroke-width: 0.6"/>
      </g>
     </g>
    </g>
    <g id="xtick_67">
     <g id="line2d_106">
      <g>
       <use xlink:href="#m0d20269d05" x="269.107682" y="40.341553" style="stroke: #000000; stroke-width: 0.6"/>
      </g>
     </g>
    </g>
    <g id="xtick_68">
     <g id="line2d_107">
      <g>
       <use xlink:href="#m0d20269d05" x="279.879356" y="40.341553" style="stroke: #000000; stroke-width: 0.6"/>
      </g>
     </g>
    </g>
    <g id="xtick_69">
     <g id="line2d_108">
      <g>
       <use xlink:href="#m0d20269d05" x="288.680454" y="40.341553" style="stroke: #000000; stroke-width: 0.6"/>
      </g>
     </g>
    </g>
    <g id="xtick_70">
     <g id="line2d_109">
      <g>
       <use xlink:href="#m0d20269d05" x="296.121677" y="40.341553" style="stroke: #000000; stroke-width: 0.6"/>
      </g>
     </g>
    </g>
    <g id="xtick_71">
     <g id="line2d_110">
      <g>
       <use xlink:href="#m0d20269d05" x="302.567557" y="40.341553" style="stroke: #000000; stroke-width: 0.6"/>
      </g>
     </g>
    </g>
    <g id="xtick_72">
     <g id="line2d_111">
      <g>
       <use xlink:href="#m0d20269d05" x="308.253226" y="40.341553" style="stroke: #000000; stroke-width: 0.6"/>
      </g>
     </g>
    </g>
    <g id="xtick_73">
     <g id="line2d_112">
      <g>
       <use xlink:href="#m0d20269d05" x="346.799106" y="40.341553" style="stroke: #000000; stroke-width: 0.6"/>
      </g>
     </g>
    </g>
    <g id="xtick_74">
     <g id="line2d_113">
      <g>
       <use xlink:href="#m0d20269d05" x="366.371878" y="40.341553" style="stroke: #000000; stroke-width: 0.6"/>
      </g>
     </g>
    </g>
    <g id="xtick_75">
     <g id="line2d_114">
      <g>
       <use xlink:href="#m0d20269d05" x="380.258981" y="40.341553" style="stroke: #000000; stroke-width: 0.6"/>
      </g>
     </g>
    </g>
    <g id="xtick_76">
     <g id="line2d_115">
      <g>
       <use xlink:href="#m0d20269d05" x="391.030654" y="40.341553" style="stroke: #000000; stroke-width: 0.6"/>
      </g>
     </g>
    </g>
    <g id="xtick_77">
     <g id="line2d_116">
      <g>
       <use xlink:href="#m0d20269d05" x="399.831753" y="40.341553" style="stroke: #000000; stroke-width: 0.6"/>
      </g>
     </g>
    </g>
    <g id="xtick_78">
     <g id="line2d_117">
      <g>
       <use xlink:href="#m0d20269d05" x="407.272975" y="40.341553" style="stroke: #000000; stroke-width: 0.6"/>
      </g>
     </g>
    </g>
    <g id="xtick_79">
     <g id="line2d_118">
      <g>
       <use xlink:href="#m0d20269d05" x="413.718855" y="40.341553" style="stroke: #000000; stroke-width: 0.6"/>
      </g>
     </g>
    </g>
    <g id="xtick_80">
     <g id="line2d_119">
      <g>
       <use xlink:href="#m0d20269d05" x="419.404525" y="40.341553" style="stroke: #000000; stroke-width: 0.6"/>
      </g>
     </g>
    </g>
    <g id="xtick_81">
     <g id="line2d_120">
      <g>
       <use xlink:href="#m0d20269d05" x="457.950404" y="40.341553" style="stroke: #000000; stroke-width: 0.6"/>
      </g>
     </g>
    </g>
    <g id="xtick_82">
     <g id="line2d_121">
      <g>
       <use xlink:href="#m0d20269d05" x="477.523176" y="40.341553" style="stroke: #000000; stroke-width: 0.6"/>
      </g>
     </g>
    </g>
    <g id="xtick_83">
     <g id="line2d_122">
      <g>
       <use xlink:href="#m0d20269d05" x="491.410279" y="40.341553" style="stroke: #000000; stroke-width: 0.6"/>
      </g>
     </g>
    </g>
    <g id="xtick_84">
     <g id="line2d_123">
      <g>
       <use xlink:href="#m0d20269d05" x="502.181953" y="40.341553" style="stroke: #000000; stroke-width: 0.6"/>
      </g>
     </g>
    </g>
    <g id="xtick_85">
     <g id="line2d_124">
      <g>
       <use xlink:href="#m0d20269d05" x="510.983051" y="40.341553" style="stroke: #000000; stroke-width: 0.6"/>
      </g>
     </g>
    </g>
    <g id="xtick_86">
     <g id="line2d_125">
      <g>
       <use xlink:href="#m0d20269d05" x="518.424274" y="40.341553" style="stroke: #000000; stroke-width: 0.6"/>
      </g>
     </g>
    </g>
    <g id="xtick_87">
     <g id="line2d_126">
      <g>
       <use xlink:href="#m0d20269d05" x="524.870154" y="40.341553" style="stroke: #000000; stroke-width: 0.6"/>
      </g>
     </g>
    </g>
    <g id="xtick_88">
     <g id="line2d_127">
      <g>
       <use xlink:href="#m0d20269d05" x="530.555823" y="40.341553" style="stroke: #000000; stroke-width: 0.6"/>
      </g>
     </g>
    </g>
    <g id="text_30">
     <!-- Signal Counts -->
     <g transform="translate(274.996676 20.485876) scale(0.14 -0.14)">
      <defs>
       <path id="CMR17-53" d="M 2803 4351 
C 2803 4467 2797 4473 2758 4473 
C 2720 4473 2707 4447 2682 4390 
L 2490 3965 
C 2246 4320 1875 4480 1472 4480 
C 819 4480 294 3958 294 3301 
C 294 3101 339 2817 557 2546 
C 794 2250 1018 2198 1530 2063 
C 1722 2011 2042 1927 2106 1901 
C 2470 1747 2662 1360 2662 999 
C 2662 534 2336 38 1779 38 
C 1094 38 454 425 410 1328 
C 403 1431 397 1437 352 1437 
C 301 1437 294 1431 294 1302 
L 294 0 
C 294 -116 301 -122 339 -122 
C 384 -122 397 -90 486 109 
C 493 128 493 141 614 386 
C 934 -39 1472 -128 1779 -128 
C 2477 -128 2970 457 2970 1141 
C 2970 1476 2848 1734 2778 1850 
C 2509 2263 2221 2340 1914 2417 
C 1869 2437 1856 2437 1498 2527 
C 1152 2617 1005 2662 845 2836 
C 666 3036 602 3243 602 3449 
C 602 3868 934 4326 1478 4326 
C 2157 4326 2579 3842 2675 3036 
C 2694 2920 2701 2914 2746 2914 
C 2803 2914 2803 2933 2803 3043 
L 2803 4351 
z
" transform="scale(0.015625)"/>
       <path id="CMR17-67" d="M 710 1165 
C 832 1068 1043 960 1299 960 
C 1805 960 2240 1359 2240 1895 
C 2240 2063 2189 2321 1997 2521 
C 2176 2713 2438 2777 2586 2777 
C 2611 2777 2650 2777 2682 2758 
C 2656 2751 2598 2726 2598 2623 
C 2598 2540 2656 2483 2739 2483 
C 2835 2483 2886 2547 2886 2630 
C 2886 2751 2790 2880 2586 2880 
C 2330 2880 2106 2758 1926 2591 
C 1734 2764 1504 2828 1299 2828 
C 794 2828 358 2431 358 1895 
C 358 1527 570 1294 634 1230 
C 442 1004 442 742 442 710 
C 442 544 506 300 723 166 
C 390 82 128 -184 128 -517 
C 128 -996 736 -1344 1466 -1344 
C 2170 -1344 2803 -1009 2803 -510 
C 2803 384 1856 384 1363 384 
C 1216 384 954 384 922 390 
C 723 422 589 601 589 825 
C 589 883 589 1024 710 1165 
z
M 1299 1068 
C 736 1068 736 1766 736 1895 
C 736 2024 736 2719 1299 2719 
C 1862 2719 1862 2024 1862 1895 
C 1862 1766 1862 1068 1299 1068 
z
M 1466 -1236 
C 826 -1236 384 -883 384 -517 
C 384 -311 493 -118 634 -11 
C 794 102 858 102 1293 102 
C 1818 102 2547 102 2547 -517 
C 2547 -883 2106 -1236 1466 -1236 
z
" transform="scale(0.015625)"/>
       <path id="CMR17-6c" d="M 979 4416 
L 218 4345 
L 218 4179 
C 595 4179 653 4141 653 3835 
L 653 439 
C 653 198 627 166 218 166 
L 218 0 
C 371 12 653 12 813 12 
C 979 12 1261 12 1414 0 
L 1414 166 
C 1005 166 979 191 979 439 
L 979 4416 
z
" transform="scale(0.015625)"/>
       <path id="CMR17-43" d="M 3974 4351 
C 3974 4467 3968 4473 3930 4473 
C 3904 4473 3898 4467 3853 4390 
L 3571 3849 
C 3258 4249 2874 4480 2381 4480 
C 1286 4480 294 3507 294 2179 
C 294 837 1286 -128 2387 -128 
C 3366 -128 3974 741 3974 1482 
C 3974 1547 3974 1573 3917 1573 
C 3866 1573 3866 1553 3859 1495 
C 3808 592 3168 38 2477 38 
C 1824 38 781 502 781 2179 
C 781 3862 1843 4313 2464 4313 
C 3187 4313 3712 3681 3834 2785 
C 3846 2707 3846 2695 3904 2695 
C 3974 2695 3974 2707 3974 2824 
L 3974 4351 
z
" transform="scale(0.015625)"/>
      </defs>
      <use xlink:href="#CMR17-53" transform="scale(0.996264)"/>
      <use xlink:href="#CMR17-69" transform="translate(50.89537 0) scale(0.996264)"/>
      <use xlink:href="#CMR17-67" transform="translate(75.766428 0) scale(0.996264)"/>
      <use xlink:href="#CMR17-6e" transform="translate(121.456905 0) scale(0.996264)"/>
      <use xlink:href="#CMR17-61" transform="translate(172.352275 0) scale(0.996264)"/>
      <use xlink:href="#CMR17-6c" transform="translate(218.042752 0) scale(0.996264)"/>
      <use xlink:href="#CMR17-43" transform="translate(272.989777 0) scale(0.996264)"/>
      <use xlink:href="#CMR17-6f" transform="translate(339.499658 0) scale(0.996264)"/>
      <use xlink:href="#CMR17-75" transform="translate(385.190135 0) scale(0.996264)"/>
      <use xlink:href="#CMR17-6e" transform="translate(436.085505 0) scale(0.996264)"/>
      <use xlink:href="#CMR17-74" transform="translate(484.37842 0) scale(0.996264)"/>
      <use xlink:href="#CMR17-73" transform="translate(519.659188 0) scale(0.996264)"/>
     </g>
    </g>
   </g>
   <g id="LineCollection_32">
    <path d="M 335.021193 315.396627 
L 335.021193 40.341553 
" clip-path="url(#p5d4b61f889)" style="fill: none; stroke-dasharray: 5.55,2.4; stroke-dashoffset: 0; stroke: #808080; stroke-width: 1.5"/>
   </g>
   <g id="LineCollection_33">
    <path d="M 112.718591 315.396627 
L 112.718591 40.341553 
" clip-path="url(#p5d4b61f889)" style="fill: none; stroke-dasharray: 1.5,2.475; stroke-dashoffset: 0; stroke: #808080; stroke-width: 1.5"/>
   </g>
   <g id="patch_8">
    <path d="M 67.94917 315.396627 
L 67.94917 40.341553 
" style="fill: none; stroke: #000000; stroke-width: 0.8; stroke-linejoin: miter; stroke-linecap: square"/>
   </g>
   <g id="patch_9">
    <path d="M 565.2 315.396627 
L 565.2 40.341553 
" style="fill: none; stroke: #000000; stroke-width: 0.8; stroke-linejoin: miter; stroke-linecap: square"/>
   </g>
   <g id="patch_10">
    <path d="M 67.94917 315.396627 
L 565.2 315.396627 
" style="fill: none; stroke: #000000; stroke-width: 0.8; stroke-linejoin: miter; stroke-linecap: square"/>
   </g>
   <g id="patch_11">
    <path d="M 67.94917 40.341553 
L 565.2 40.341553 
" style="fill: none; stroke: #000000; stroke-width: 0.8; stroke-linejoin: miter; stroke-linecap: square"/>
   </g>
   <g id="text_31">
    <!-- 50 $\sigma$ -->
    <g style="fill: #808080" transform="translate(335.977113 58.678558) scale(0.14 -0.14)">
     <defs>
      <path id="CMMI12-1b" d="M 3251 2406 
C 3334 2406 3546 2406 3546 2611 
C 3546 2752 3424 2752 3309 2752 
L 1894 2752 
C 934 2752 243 1685 243 932 
C 243 389 595 -64 1171 -64 
C 1926 -64 2752 746 2752 1704 
C 2752 1953 2694 2195 2541 2406 
L 3251 2406 
z
M 1178 64 
C 851 64 614 312 614 753 
C 614 1136 845 2406 1786 2406 
C 2061 2406 2368 2272 2368 1780 
C 2368 1557 2266 1021 2042 651 
C 1811 274 1466 64 1178 64 
z
" transform="scale(0.015625)"/>
     </defs>
     <use xlink:href="#CMR17-35" transform="scale(0.996264)"/>
     <use xlink:href="#CMR17-30" transform="translate(45.690477 0) scale(0.996264)"/>
     <use xlink:href="#CMMI12-1b" transform="translate(121.456921 0) scale(0.996264)"/>
    </g>
   </g>
   <g id="text_32">
    <!-- 5 $\sigma$ -->
    <g style="fill: #808080" transform="translate(113.674511 58.678558) scale(0.14 -0.14)">
     <use xlink:href="#CMR17-35" transform="scale(0.996264)"/>
     <use xlink:href="#CMMI12-1b" transform="translate(75.766443 0) scale(0.996264)"/>
    </g>
   </g>
  </g>
 </g>
 <defs>
  <clipPath id="p5d4b61f889">
   <rect x="67.94917" y="40.341553" width="497.25083" height="275.055074"/>
  </clipPath>
 </defs>
</svg>
