<?xml version="1.0" encoding="utf-8" standalone="no"?>
<!DOCTYPE svg PUBLIC "-//W3C//DTD SVG 1.1//EN"
  "http://www.w3.org/Graphics/SVG/1.1/DTD/svg11.dtd">
<svg xmlns:xlink="http://www.w3.org/1999/xlink" width="360pt" height="216pt" viewBox="0 0 360 216" xmlns="http://www.w3.org/2000/svg" version="1.1">
 <metadata>
  <rdf:RDF xmlns:dc="http://purl.org/dc/elements/1.1/" xmlns:cc="http://creativecommons.org/ns#" xmlns:rdf="http://www.w3.org/1999/02/22-rdf-syntax-ns#">
   <cc:Work>
    <dc:type rdf:resource="http://purl.org/dc/dcmitype/StillImage"/>
    <dc:date>2023-09-21T18:13:22.341111</dc:date>
    <dc:format>image/svg+xml</dc:format>
    <dc:creator>
     <cc:Agent>
      <dc:title>Matplotlib v3.7.1, https://matplotlib.org/</dc:title>
     </cc:Agent>
    </dc:creator>
   </cc:Work>
  </rdf:RDF>
 </metadata>
 <defs>
  <style type="text/css">*{stroke-linejoin: round; stroke-linecap: butt}</style>
 </defs>
 <g id="figure_1">
  <g id="patch_1">
   <path d="M 0 216
L 360 216
L 360 0
L 0 0
z
" style="fill: #ffffff"/>
  </g>
  <g id="axes_1">
   <g id="patch_2">
    <path d="M 44.492719 175.381683
L 349.2 175.381683
L 349.2 37.574175
L 44.492719 37.574175
z
" style="fill: #ffffff"/>
   </g>
   <g id="PolyCollection_1">
    <defs>
     <path id="m44275734c3" d="M 58.34305 -172.161847
L 58.34305 -46.882294
L 64.475898 -46.882294
L 109.152353 -65.772643
L 153.828809 -78.246044
L 198.505265 -86.179753
L 243.181721 -90.957638
L 287.858177 -93.44726
L 332.534632 -94.379328
L 332.534632 -124.664814
L 332.534632 -124.664814
L 287.858177 -125.596882
L 243.181721 -128.086504
L 198.505265 -132.864389
L 153.828809 -140.798098
L 109.152353 -153.271498
L 64.475898 -172.161847
L 58.34305 -172.161847
z
" style="stroke: #6495ed; stroke-opacity: 0.6"/>
    </defs>
    <g clip-path="url(#p53087b7288)">
     <use xlink:href="#m44275734c3" x="0" y="216" style="fill: #6495ed; fill-opacity: 0.6; stroke: #6495ed; stroke-opacity: 0.6"/>
    </g>
   </g>
   <g id="PolyCollection_2">
    <defs>
     <path id="mf7d43c9fd0" d="M 58.928062 -170.840158
L 58.928062 -48.203984
L 103.604518 -67.698911
L 148.280974 -80.992651
L 192.95743 -90.058204
L 237.633885 -96.242019
L 282.310341 -100.457933
L 332.534632 -103.331661
L 332.534632 -115.712481
L 332.534632 -115.712481
L 282.310341 -118.586209
L 237.633885 -122.802123
L 192.95743 -128.985938
L 148.280974 -138.05149
L 103.604518 -151.34523
L 58.928062 -170.840158
z
" style="stroke: #db7093; stroke-opacity: 0.9"/>
    </defs>
    <g clip-path="url(#p53087b7288)">
     <use xlink:href="#mf7d43c9fd0" x="0" y="216" style="fill: #db7093; fill-opacity: 0.9; stroke: #db7093; stroke-opacity: 0.9"/>
    </g>
   </g>
   <g id="matplotlib.axis_1">
    <g id="xtick_1">
     <g id="line2d_1">
      <defs>
       <path id="ma89453130a" d="M 0 0
L 0 3.5
" style="stroke: #000000; stroke-width: 0.8"/>
      </defs>
      <g>
       <use xlink:href="#ma89453130a" x="58.928062" y="175.381683" style="stroke: #000000; stroke-width: 0.8"/>
      </g>
     </g>
     <g id="text_1">
      <!-- $\mathdefault{10^{0}}$ -->
      <g transform="translate(51.961108 189.300182) scale(0.1 -0.1)">
       <defs>
        <path id="CMR17-31" d="M 1702 4083
C 1702 4217 1696 4224 1606 4224
C 1357 3927 979 3833 621 3820
C 602 3820 570 3820 563 3808
C 557 3795 557 3782 557 3648
C 755 3648 1088 3686 1344 3839
L 1344 467
C 1344 243 1331 166 781 166
L 589 166
L 589 0
C 896 6 1216 12 1523 12
C 1830 12 2150 6 2458 0
L 2458 166
L 2266 166
C 1715 166 1702 236 1702 467
L 1702 4083
z
" transform="scale(0.015625)"/>
        <path id="CMR17-30" d="M 2688 2038
C 2688 2430 2682 3099 2413 3613
C 2176 4063 1798 4224 1466 4224
C 1158 4224 768 4082 525 3620
C 269 3137 243 2539 243 2038
C 243 1671 250 1112 448 623
C 723 -39 1216 -128 1466 -128
C 1760 -128 2208 -7 2470 604
C 2662 1048 2688 1568 2688 2038
z
M 1466 -26
C 1056 -26 813 328 723 816
C 653 1196 653 1749 653 2109
C 653 2604 653 3015 736 3407
C 858 3954 1216 4121 1466 4121
C 1728 4121 2067 3947 2189 3420
C 2272 3054 2278 2623 2278 2109
C 2278 1691 2278 1176 2202 797
C 2067 96 1690 -26 1466 -26
z
" transform="scale(0.015625)"/>
       </defs>
       <use xlink:href="#CMR17-31" transform="scale(0.996264)"/>
       <use xlink:href="#CMR17-30" transform="translate(45.690477 0) scale(0.996264)"/>
       <use xlink:href="#CMR17-30" transform="translate(91.380954 36.153639) scale(0.697382)"/>
      </g>
     </g>
    </g>
    <g id="xtick_2">
     <g id="line2d_2">
      <g>
       <use xlink:href="#ma89453130a" x="192.95743" y="175.381683" style="stroke: #000000; stroke-width: 0.8"/>
      </g>
     </g>
     <g id="text_2">
      <!-- $\mathdefault{10^{1}}$ -->
      <g transform="translate(185.990476 189.300182) scale(0.1 -0.1)">
       <use xlink:href="#CMR17-31" transform="scale(0.996264)"/>
       <use xlink:href="#CMR17-30" transform="translate(45.690477 0) scale(0.996264)"/>
       <use xlink:href="#CMR17-31" transform="translate(91.380954 36.153639) scale(0.697382)"/>
      </g>
     </g>
    </g>
    <g id="xtick_3">
     <g id="line2d_3">
      <g>
       <use xlink:href="#ma89453130a" x="326.986797" y="175.381683" style="stroke: #000000; stroke-width: 0.8"/>
      </g>
     </g>
     <g id="text_3">
      <!-- $\mathdefault{10^{2}}$ -->
      <g transform="translate(320.019843 189.300182) scale(0.1 -0.1)">
       <defs>
        <path id="CMR17-32" d="M 2669 990
L 2554 990
C 2490 537 2438 460 2413 422
C 2381 371 1920 371 1830 371
L 602 371
C 832 620 1280 1073 1824 1596
C 2214 1966 2669 2400 2669 3033
C 2669 3788 2067 4224 1395 4224
C 691 4224 262 3603 262 3027
C 262 2777 448 2745 525 2745
C 589 2745 781 2783 781 3007
C 781 3206 614 3264 525 3264
C 486 3264 448 3257 422 3244
C 544 3788 915 4057 1306 4057
C 1862 4057 2227 3616 2227 3033
C 2227 2477 1901 1998 1536 1583
L 262 147
L 262 0
L 2515 0
L 2669 990
z
" transform="scale(0.015625)"/>
       </defs>
       <use xlink:href="#CMR17-31" transform="scale(0.996264)"/>
       <use xlink:href="#CMR17-30" transform="translate(45.690477 0) scale(0.996264)"/>
       <use xlink:href="#CMR17-32" transform="translate(91.380954 36.153639) scale(0.697382)"/>
      </g>
     </g>
    </g>
    <g id="xtick_4">
     <g id="line2d_4">
      <defs>
       <path id="mc69c8c2644" d="M 0 0
L 0 2
" style="stroke: #000000; stroke-width: 0.6"/>
      </defs>
      <g>
       <use xlink:href="#mc69c8c2644" x="45.939274" y="175.381683" style="stroke: #000000; stroke-width: 0.6"/>
      </g>
     </g>
    </g>
    <g id="xtick_5">
     <g id="line2d_5">
      <g>
       <use xlink:href="#mc69c8c2644" x="52.795215" y="175.381683" style="stroke: #000000; stroke-width: 0.6"/>
      </g>
     </g>
    </g>
    <g id="xtick_6">
     <g id="line2d_6">
      <g>
       <use xlink:href="#mc69c8c2644" x="99.274922" y="175.381683" style="stroke: #000000; stroke-width: 0.6"/>
      </g>
     </g>
    </g>
    <g id="xtick_7">
     <g id="line2d_7">
      <g>
       <use xlink:href="#mc69c8c2644" x="122.876322" y="175.381683" style="stroke: #000000; stroke-width: 0.6"/>
      </g>
     </g>
    </g>
    <g id="xtick_8">
     <g id="line2d_8">
      <g>
       <use xlink:href="#mc69c8c2644" x="139.621782" y="175.381683" style="stroke: #000000; stroke-width: 0.6"/>
      </g>
     </g>
    </g>
    <g id="xtick_9">
     <g id="line2d_9">
      <g>
       <use xlink:href="#mc69c8c2644" x="152.61057" y="175.381683" style="stroke: #000000; stroke-width: 0.6"/>
      </g>
     </g>
    </g>
    <g id="xtick_10">
     <g id="line2d_10">
      <g>
       <use xlink:href="#mc69c8c2644" x="163.223182" y="175.381683" style="stroke: #000000; stroke-width: 0.6"/>
      </g>
     </g>
    </g>
    <g id="xtick_11">
     <g id="line2d_11">
      <g>
       <use xlink:href="#mc69c8c2644" x="172.196018" y="175.381683" style="stroke: #000000; stroke-width: 0.6"/>
      </g>
     </g>
    </g>
    <g id="xtick_12">
     <g id="line2d_12">
      <g>
       <use xlink:href="#mc69c8c2644" x="179.968642" y="175.381683" style="stroke: #000000; stroke-width: 0.6"/>
      </g>
     </g>
    </g>
    <g id="xtick_13">
     <g id="line2d_13">
      <g>
       <use xlink:href="#mc69c8c2644" x="186.824582" y="175.381683" style="stroke: #000000; stroke-width: 0.6"/>
      </g>
     </g>
    </g>
    <g id="xtick_14">
     <g id="line2d_14">
      <g>
       <use xlink:href="#mc69c8c2644" x="233.304289" y="175.381683" style="stroke: #000000; stroke-width: 0.6"/>
      </g>
     </g>
    </g>
    <g id="xtick_15">
     <g id="line2d_15">
      <g>
       <use xlink:href="#mc69c8c2644" x="256.90569" y="175.381683" style="stroke: #000000; stroke-width: 0.6"/>
      </g>
     </g>
    </g>
    <g id="xtick_16">
     <g id="line2d_16">
      <g>
       <use xlink:href="#mc69c8c2644" x="273.651149" y="175.381683" style="stroke: #000000; stroke-width: 0.6"/>
      </g>
     </g>
    </g>
    <g id="xtick_17">
     <g id="line2d_17">
      <g>
       <use xlink:href="#mc69c8c2644" x="286.639937" y="175.381683" style="stroke: #000000; stroke-width: 0.6"/>
      </g>
     </g>
    </g>
    <g id="xtick_18">
     <g id="line2d_18">
      <g>
       <use xlink:href="#mc69c8c2644" x="297.252549" y="175.381683" style="stroke: #000000; stroke-width: 0.6"/>
      </g>
     </g>
    </g>
    <g id="xtick_19">
     <g id="line2d_19">
      <g>
       <use xlink:href="#mc69c8c2644" x="306.225385" y="175.381683" style="stroke: #000000; stroke-width: 0.6"/>
      </g>
     </g>
    </g>
    <g id="xtick_20">
     <g id="line2d_20">
      <g>
       <use xlink:href="#mc69c8c2644" x="313.998009" y="175.381683" style="stroke: #000000; stroke-width: 0.6"/>
      </g>
     </g>
    </g>
    <g id="xtick_21">
     <g id="line2d_21">
      <g>
       <use xlink:href="#mc69c8c2644" x="320.853949" y="175.381683" style="stroke: #000000; stroke-width: 0.6"/>
      </g>
     </g>
    </g>
    <g id="text_4">
     <!-- Livetime [hr] -->
     <g transform="translate(168.81254 202.70934) scale(0.1 -0.1)">
      <defs>
       <path id="CMR17-4c" d="M 3469 1612
L 3354 1612
C 3302 981 3219 166 2125 166
L 1530 166
C 1274 166 1261 198 1261 414
L 1261 3892
C 1261 4121 1274 4185 1760 4185
L 1901 4185
L 1901 4352
C 1638 4339 1331 4339 1069 4339
C 870 4339 512 4339 326 4352
L 326 4185
C 768 4185 838 4185 838 3898
L 838 453
C 838 166 768 166 326 166
L 326 0
L 3315 0
L 3469 1612
z
" transform="scale(0.015625)"/>
       <path id="CMR17-69" d="M 992 3961
C 992 4102 877 4224 730 4224
C 589 4224 467 4108 467 3961
C 467 3820 582 3699 730 3699
C 870 3699 992 3814 992 3961
z
M 243 2745
L 243 2579
C 602 2579 653 2540 653 2231
L 653 443
C 653 198 627 166 218 166
L 218 0
C 371 12 646 12 806 12
C 960 12 1222 12 1370 0
L 1370 166
C 992 166 979 205 979 436
L 979 2816
L 243 2745
z
" transform="scale(0.015625)"/>
       <path id="CMR17-76" d="M 2502 2173
C 2560 2315 2662 2572 3034 2585
L 3034 2752
C 2912 2745 2752 2739 2630 2739
C 2496 2739 2285 2739 2157 2752
L 2157 2585
C 2317 2572 2406 2495 2406 2328
C 2406 2270 2406 2257 2368 2167
L 1664 379
L 902 2308
C 864 2392 864 2405 864 2431
C 864 2585 1075 2585 1171 2585
L 1171 2752
C 1018 2739 736 2739 576 2739
C 403 2739 205 2739 64 2752
L 64 2585
C 307 2585 442 2585 518 2386
L 1446 44
C 1485 -52 1491 -64 1549 -64
C 1606 -64 1613 -52 1651 44
L 2502 2173
z
" transform="scale(0.015625)"/>
       <path id="CMR17-65" d="M 2438 1503
C 2464 1529 2464 1542 2464 1606
C 2464 2251 2118 2816 1389 2816
C 710 2816 173 2175 173 1394
C 173 554 781 -64 1459 -64
C 2176 -64 2458 619 2458 755
C 2458 800 2419 800 2406 800
C 2362 800 2355 787 2330 709
C 2189 270 1837 51 1504 51
C 1229 51 954 206 781 490
C 582 819 582 1200 582 1503
L 2438 1503
z
M 589 1600
C 634 2511 1126 2713 1382 2713
C 1818 2713 2112 2308 2118 1600
L 589 1600
z
" transform="scale(0.015625)"/>
       <path id="CMR17-74" d="M 966 2585
L 1862 2585
L 1862 2752
L 966 2752
L 966 3968
L 851 3968
C 838 3292 614 2700 70 2687
L 70 2585
L 627 2585
L 627 778
C 627 655 627 -64 1370 -64
C 1747 -64 1965 308 1965 784
L 1965 1151
L 1850 1151
L 1850 790
C 1850 347 1677 51 1408 51
C 1222 51 966 179 966 765
L 966 2585
z
" transform="scale(0.015625)"/>
       <path id="CMR17-6d" d="M 4326 1954
C 4326 2276 4269 2816 3507 2816
C 3072 2816 2771 2520 2656 2173
L 2650 2173
C 2573 2700 2195 2816 1837 2816
C 1331 2816 1069 2424 973 2166
L 966 2166
L 966 2816
L 211 2745
L 211 2578
C 589 2578 646 2540 646 2231
L 646 443
C 646 198 621 166 211 166
L 211 0
C 365 12 646 12 813 12
C 979 12 1267 12 1421 0
L 1421 166
C 1011 166 986 192 986 443
L 986 1678
C 986 2269 1344 2713 1792 2713
C 2266 2713 2317 2289 2317 1980
L 2317 443
C 2317 198 2291 166 1882 166
L 1882 0
C 2035 12 2317 12 2483 12
C 2650 12 2938 12 3091 0
L 3091 166
C 2682 166 2656 192 2656 443
L 2656 1678
C 2656 2269 3014 2713 3462 2713
C 3936 2713 3987 2289 3987 1980
L 3987 443
C 3987 198 3962 166 3552 166
L 3552 0
C 3706 12 3987 12 4154 12
C 4320 12 4608 12 4762 0
L 4762 166
C 4352 166 4326 192 4326 443
L 4326 1954
z
" transform="scale(0.015625)"/>
       <path id="CMR17-5b" d="M 1504 -1600
L 1504 -1376
L 902 -1376
L 902 4575
L 1504 4575
L 1504 4800
L 678 4800
L 678 -1600
L 1504 -1600
z
" transform="scale(0.015625)"/>
       <path id="CMR17-68" d="M 2656 1954
C 2656 2282 2592 2816 1837 2816
C 1312 2816 1056 2392 979 2179
L 973 2179
L 973 4416
L 211 4345
L 211 4179
C 589 4179 646 4141 646 3843
L 646 443
C 646 198 621 166 211 166
L 211 0
C 365 12 646 12 813 12
C 979 12 1267 12 1421 0
L 1421 166
C 1011 166 986 192 986 443
L 986 1678
C 986 2269 1344 2713 1792 2713
C 2266 2713 2317 2289 2317 1980
L 2317 443
C 2317 198 2291 166 1882 166
L 1882 0
C 2035 12 2317 12 2483 12
C 2650 12 2938 12 3091 0
L 3091 166
C 2682 166 2656 192 2656 443
L 2656 1954
z
" transform="scale(0.015625)"/>
       <path id="CMR17-72" d="M 960 1517
C 960 2134 1222 2713 1702 2713
C 1747 2713 1792 2707 1837 2687
C 1837 2687 1696 2642 1696 2475
C 1696 2321 1818 2257 1914 2257
C 1990 2257 2131 2302 2131 2482
C 2131 2687 1926 2816 1709 2816
C 1222 2816 1011 2340 947 2115
L 941 2115
L 941 2816
L 198 2745
L 198 2578
C 576 2578 634 2540 634 2231
L 634 443
C 634 198 608 166 198 166
L 198 0
C 352 12 646 12 813 12
C 998 12 1325 12 1498 0
L 1498 166
C 1037 166 960 166 960 455
L 960 1517
z
" transform="scale(0.015625)"/>
       <path id="CMR17-5d" d="M 915 4800
L 90 4800
L 90 4575
L 691 4575
L 691 -1376
L 90 -1376
L 90 -1600
L 915 -1600
L 915 4800
z
" transform="scale(0.015625)"/>
      </defs>
      <use xlink:href="#CMR17-4c" transform="scale(0.996264)"/>
      <use xlink:href="#CMR17-69" transform="translate(57.381408 0) scale(0.996264)"/>
      <use xlink:href="#CMR17-76" transform="translate(82.252466 0) scale(0.996264)"/>
      <use xlink:href="#CMR17-65" transform="translate(127.942928 0) scale(0.996264)"/>
      <use xlink:href="#CMR17-74" transform="translate(168.428589 0) scale(0.996264)"/>
      <use xlink:href="#CMR17-69" transform="translate(203.709357 0) scale(0.996264)"/>
      <use xlink:href="#CMR17-6d" transform="translate(228.580415 0) scale(0.996264)"/>
      <use xlink:href="#CMR17-65" transform="translate(305.500005 0) scale(0.996264)"/>
      <use xlink:href="#CMR17-5b" transform="translate(376.061632 0) scale(0.996264)"/>
      <use xlink:href="#CMR17-68" transform="translate(400.93269 0) scale(0.996264)"/>
      <use xlink:href="#CMR17-72" transform="translate(451.82806 0) scale(0.996264)"/>
      <use xlink:href="#CMR17-5d" transform="translate(487.108828 0) scale(0.996264)"/>
     </g>
    </g>
   </g>
   <g id="matplotlib.axis_2">
    <g id="ytick_1">
     <g id="line2d_22">
      <defs>
       <path id="md5dba86728" d="M 0 0
L -3.5 0
" style="stroke: #000000; stroke-width: 0.8"/>
      </defs>
      <g>
       <use xlink:href="#md5dba86728" x="44.492719" y="155.36875" style="stroke: #000000; stroke-width: 0.8"/>
      </g>
     </g>
     <g id="text_5">
      <!-- $\mathdefault{0.6}$ -->
      <g transform="translate(24.76264 158.828) scale(0.1 -0.1)">
       <defs>
        <path id="CMMI12-3a" d="M 1178 307
C 1178 492 1024 620 870 620
C 685 620 557 467 557 313
C 557 128 710 0 864 0
C 1050 0 1178 153 1178 307
z
" transform="scale(0.015625)"/>
        <path id="CMR17-36" d="M 678 2198
C 678 3712 1395 4076 1811 4076
C 1946 4076 2272 4049 2400 3782
C 2298 3782 2106 3782 2106 3558
C 2106 3385 2246 3328 2336 3328
C 2394 3328 2566 3353 2566 3571
C 2566 3987 2246 4224 1805 4224
C 1043 4224 243 3411 243 2011
C 243 257 966 -128 1478 -128
C 2099 -128 2688 431 2688 1295
C 2688 2101 2170 2688 1517 2688
C 1126 2688 838 2430 678 1979
L 678 2198
z
M 1478 25
C 691 25 691 1212 691 1450
C 691 1914 909 2585 1504 2585
C 1613 2585 1926 2585 2138 2140
C 2253 1889 2253 1624 2253 1302
C 2253 954 2253 696 2118 438
C 1978 173 1773 25 1478 25
z
" transform="scale(0.015625)"/>
       </defs>
       <use xlink:href="#CMR17-30" transform="scale(0.996264)"/>
       <use xlink:href="#CMMI12-3a" transform="translate(45.690477 0) scale(0.996264)"/>
       <use xlink:href="#CMR17-36" transform="translate(72.787654 0) scale(0.996264)"/>
      </g>
     </g>
    </g>
    <g id="ytick_2">
     <g id="line2d_23">
      <g>
       <use xlink:href="#md5dba86728" x="44.492719" y="130.92334" style="stroke: #000000; stroke-width: 0.8"/>
      </g>
     </g>
     <g id="text_6">
      <!-- $\mathdefault{0.8}$ -->
      <g transform="translate(24.76264 134.382589) scale(0.1 -0.1)">
       <defs>
        <path id="CMR17-38" d="M 1741 2289
C 2144 2494 2554 2803 2554 3298
C 2554 3884 1990 4224 1472 4224
C 890 4224 378 3800 378 3215
C 378 3054 416 2777 666 2533
C 730 2469 998 2276 1171 2154
C 883 2006 211 1652 211 945
C 211 282 838 -128 1459 -128
C 2144 -128 2720 366 2720 1022
C 2720 1607 2330 1877 2074 2051
L 1741 2289
z
M 902 2855
C 851 2887 595 3086 595 3388
C 595 3781 998 4076 1459 4076
C 1965 4076 2336 3716 2336 3298
C 2336 2700 1670 2359 1638 2359
C 1632 2359 1626 2359 1574 2398
L 902 2855
z
M 2080 1536
C 2176 1466 2483 1253 2483 861
C 2483 385 2010 25 1472 25
C 890 25 448 443 448 951
C 448 1459 838 1884 1280 2083
L 2080 1536
z
" transform="scale(0.015625)"/>
       </defs>
       <use xlink:href="#CMR17-30" transform="scale(0.996264)"/>
       <use xlink:href="#CMMI12-3a" transform="translate(45.690477 0) scale(0.996264)"/>
       <use xlink:href="#CMR17-38" transform="translate(72.787654 0) scale(0.996264)"/>
      </g>
     </g>
    </g>
    <g id="ytick_3">
     <g id="line2d_24">
      <g>
       <use xlink:href="#md5dba86728" x="44.492719" y="106.477929" style="stroke: #000000; stroke-width: 0.8"/>
      </g>
     </g>
     <g id="text_7">
      <!-- $\mathdefault{1.0}$ -->
      <g transform="translate(24.76264 109.937178) scale(0.1 -0.1)">
       <use xlink:href="#CMR17-31" transform="scale(0.996264)"/>
       <use xlink:href="#CMMI12-3a" transform="translate(45.690477 0) scale(0.996264)"/>
       <use xlink:href="#CMR17-30" transform="translate(72.787654 0) scale(0.996264)"/>
      </g>
     </g>
    </g>
    <g id="ytick_4">
     <g id="line2d_25">
      <g>
       <use xlink:href="#md5dba86728" x="44.492719" y="82.032519" style="stroke: #000000; stroke-width: 0.8"/>
      </g>
     </g>
     <g id="text_8">
      <!-- $\mathdefault{1.2}$ -->
      <g transform="translate(24.76264 85.491768) scale(0.1 -0.1)">
       <use xlink:href="#CMR17-31" transform="scale(0.996264)"/>
       <use xlink:href="#CMMI12-3a" transform="translate(45.690477 0) scale(0.996264)"/>
       <use xlink:href="#CMR17-32" transform="translate(72.787654 0) scale(0.996264)"/>
      </g>
     </g>
    </g>
    <g id="ytick_5">
     <g id="line2d_26">
      <g>
       <use xlink:href="#md5dba86728" x="44.492719" y="57.587108" style="stroke: #000000; stroke-width: 0.8"/>
      </g>
     </g>
     <g id="text_9">
      <!-- $\mathdefault{1.4}$ -->
      <g transform="translate(24.76264 61.046357) scale(0.1 -0.1)">
       <defs>
        <path id="CMR17-34" d="M 2150 4147
C 2150 4281 2144 4288 2029 4288
L 128 1254
L 128 1088
L 1779 1088
L 1779 460
C 1779 230 1766 166 1318 166
L 1197 166
L 1197 0
C 1402 12 1747 12 1965 12
C 2182 12 2528 12 2733 0
L 2733 166
L 2611 166
C 2163 166 2150 230 2150 460
L 2150 1088
L 2803 1088
L 2803 1254
L 2150 1254
L 2150 4147
z
M 1798 3723
L 1798 1254
L 256 1254
L 1798 3723
z
" transform="scale(0.015625)"/>
       </defs>
       <use xlink:href="#CMR17-31" transform="scale(0.996264)"/>
       <use xlink:href="#CMMI12-3a" transform="translate(45.690477 0) scale(0.996264)"/>
       <use xlink:href="#CMR17-34" transform="translate(72.787654 0) scale(0.996264)"/>
      </g>
     </g>
    </g>
    <g id="text_10">
     <!-- Best-fit amplitude [Input amplitude] -->
     <g transform="translate(18.27198 185.99935) rotate(-90) scale(0.1 -0.1)">
      <defs>
       <path id="CMR17-42" d="M 333 4352
L 333 4185
C 774 4185 845 4185 845 3897
L 845 451
C 845 166 774 166 333 166
L 333 0
L 2534 0
C 3354 0 3885 578 3885 1155
C 3885 1726 3360 2214 2675 2259
C 3290 2380 3718 2790 3718 3276
C 3718 3808 3194 4352 2368 4352
L 333 4352
z
M 1248 2304
L 1248 3936
C 1248 4153 1261 4185 1517 4185
L 2336 4185
C 2970 4185 3251 3673 3251 3276
C 3251 2790 2861 2304 2170 2304
L 1248 2304
z
M 1517 166
C 1261 166 1248 198 1248 413
L 1248 2201
L 2432 2201
C 3091 2201 3411 1624 3411 1161
C 3411 698 3046 166 2349 166
L 1517 166
z
" transform="scale(0.015625)"/>
       <path id="CMR17-73" d="M 1978 2688
C 1978 2803 1971 2809 1933 2809
C 1907 2809 1901 2803 1824 2707
C 1805 2681 1747 2617 1728 2592
C 1523 2809 1235 2816 1126 2816
C 416 2816 160 2444 160 2073
C 160 1497 813 1363 998 1324
C 1402 1241 1542 1216 1677 1100
C 1760 1024 1901 883 1901 652
C 1901 384 1747 38 1158 38
C 602 38 403 460 288 1024
C 269 1113 269 1120 218 1120
C 166 1120 160 1113 160 985
L 160 64
C 160 -52 166 -58 205 -58
C 237 -58 243 -52 275 0
C 314 57 410 211 448 275
C 576 102 800 -64 1158 -64
C 1792 -64 2131 281 2131 780
C 2131 1107 1958 1280 1875 1356
C 1683 1555 1459 1600 1190 1651
C 838 1728 390 1817 390 2208
C 390 2374 480 2726 1126 2726
C 1811 2726 1850 2086 1862 1881
C 1869 1849 1901 1843 1920 1843
C 1978 1843 1978 1862 1978 1971
L 1978 2688
z
" transform="scale(0.015625)"/>
       <path id="CMR17-2d" d="M 1632 1254
L 1632 1536
L 26 1536
L 26 1254
L 1632 1254
z
" transform="scale(0.015625)"/>
       <path id="CMR17-c" d="M 2554 2816
C 2400 2809 1926 2777 1805 2764
C 1766 2758 1754 2758 1677 2758
L 947 2758
L 947 3517
C 947 4127 1434 4416 1818 4416
C 1939 4416 2214 4383 2355 4160
C 2291 4160 2086 4160 2086 3935
C 2086 3782 2189 3705 2317 3705
C 2432 3705 2547 3769 2547 3942
C 2547 4265 2240 4518 1843 4518
C 1338 4518 634 4225 634 3517
L 634 2758
L 122 2758
L 122 2591
L 634 2591
L 634 442
C 634 198 608 166 198 166
L 198 0
C 352 12 634 12 794 12
C 960 12 1242 12 1395 0
L 1395 166
C 986 166 960 192 960 442
L 960 2591
L 1901 2591
C 2176 2591 2227 2534 2227 2251
L 2227 442
C 2227 198 2202 166 1792 166
L 1792 0
C 1946 12 2227 12 2387 12
C 2554 12 2835 12 2989 0
L 2989 166
C 2579 166 2554 192 2554 442
L 2554 2816
z
" transform="scale(0.015625)"/>
       <path id="CMR17-61" d="M 2304 1656
C 2304 2048 2304 2275 2035 2534
C 1798 2751 1523 2816 1306 2816
C 800 2816 435 2408 435 1977
C 435 1740 627 1728 666 1728
C 749 1728 896 1779 896 1958
C 896 2118 774 2188 666 2188
C 640 2188 608 2182 589 2176
C 723 2594 1069 2713 1293 2713
C 1613 2713 1965 2421 1965 1875
L 1965 1632
C 1587 1619 1133 1568 774 1373
C 371 1147 256 822 256 576
C 256 77 832 -64 1171 -64
C 1523 -64 1850 135 1990 505
C 2003 219 2182 -39 2464 -39
C 2598 -39 2938 51 2938 563
L 2938 926
L 2822 926
L 2822 557
C 2822 161 2650 109 2566 109
C 2304 109 2304 446 2304 732
L 2304 1656
z
M 1965 887
C 1965 323 1568 38 1216 38
C 896 38 646 278 646 576
C 646 771 730 1114 1101 1322
C 1408 1497 1760 1523 1965 1536
L 1965 887
z
" transform="scale(0.015625)"/>
       <path id="CMR17-70" d="M 1408 -1114
C 998 -1114 973 -1088 973 -834
L 973 380
C 1158 109 1427 -64 1766 -64
C 2406 -64 3053 503 3053 1382
C 3053 2196 2496 2816 1837 2816
C 1453 2816 1139 2603 960 2345
L 960 2816
L 198 2745
L 198 2577
C 576 2577 634 2539 634 2228
L 634 -834
C 634 -1081 608 -1114 198 -1114
L 198 -1280
C 352 -1268 634 -1268 800 -1268
C 966 -1268 1254 -1268 1408 -1280
L 1408 -1114
z
M 973 2015
C 973 2106 973 2241 1222 2481
C 1254 2506 1472 2700 1792 2700
C 2259 2700 2643 2112 2643 1376
C 2643 639 2234 38 1728 38
C 1498 38 1248 148 1056 451
C 973 594 973 632 973 736
L 973 2015
z
" transform="scale(0.015625)"/>
       <path id="CMR17-6c" d="M 979 4416
L 218 4345
L 218 4179
C 595 4179 653 4141 653 3835
L 653 439
C 653 198 627 166 218 166
L 218 0
C 371 12 653 12 813 12
C 979 12 1261 12 1414 0
L 1414 166
C 1005 166 979 191 979 439
L 979 4416
z
" transform="scale(0.015625)"/>
       <path id="CMR17-75" d="M 1882 2745
L 1882 2579
C 2259 2579 2317 2540 2317 2229
L 2317 1053
C 2317 510 2029 38 1555 38
C 1030 38 986 355 986 691
L 986 2816
L 211 2745
L 211 2579
C 467 2579 640 2579 646 2320
L 646 1079
C 646 646 646 368 813 187
C 896 103 1056 -64 1517 -64
C 2061 -64 2272 400 2323 536
L 2330 536
L 2330 -64
L 3091 -13
L 3091 154
C 2714 154 2656 193 2656 503
L 2656 2816
L 1882 2745
z
" transform="scale(0.015625)"/>
       <path id="CMR17-64" d="M 1869 4345
L 1869 4179
C 2246 4179 2304 4141 2304 3843
L 2304 2371
C 2278 2403 2016 2816 1498 2816
C 845 2816 211 2228 211 1376
C 211 529 806 -64 1434 -64
C 1978 -64 2259 361 2291 406
L 2291 -64
L 3066 -13
L 3066 154
C 2688 154 2630 193 2630 503
L 2630 4416
L 1869 4345
z
M 2291 762
C 2291 568 2176 393 2029 264
C 1811 70 1594 38 1472 38
C 1286 38 621 135 621 1369
C 621 2636 1363 2713 1530 2713
C 1824 2713 2061 2545 2208 2313
C 2291 2177 2291 2157 2291 2041
L 2291 762
z
" transform="scale(0.015625)"/>
       <path id="CMR17-49" d="M 1261 3898
C 1261 4185 1338 4185 1798 4185
L 1798 4352
C 1594 4339 1267 4339 1050 4339
C 832 4339 506 4339 301 4352
L 301 4185
C 762 4185 838 4185 838 3898
L 838 453
C 838 166 762 166 301 166
L 301 0
C 506 12 832 12 1050 12
C 1267 12 1594 12 1798 0
L 1798 166
C 1338 166 1261 166 1261 453
L 1261 3898
z
" transform="scale(0.015625)"/>
       <path id="CMR17-6e" d="M 2656 1954
C 2656 2282 2592 2816 1837 2816
C 1331 2816 1069 2424 973 2166
L 966 2166
L 966 2816
L 211 2745
L 211 2578
C 589 2578 646 2540 646 2231
L 646 443
C 646 198 621 166 211 166
L 211 0
C 365 12 646 12 813 12
C 979 12 1267 12 1421 0
L 1421 166
C 1011 166 986 192 986 443
L 986 1678
C 986 2269 1344 2713 1792 2713
C 2266 2713 2317 2289 2317 1980
L 2317 443
C 2317 198 2291 166 1882 166
L 1882 0
C 2035 12 2317 12 2483 12
C 2650 12 2938 12 3091 0
L 3091 166
C 2682 166 2656 192 2656 443
L 2656 1954
z
" transform="scale(0.015625)"/>
      </defs>
      <use xlink:href="#CMR17-42" transform="scale(0.996264)"/>
      <use xlink:href="#CMR17-65" transform="translate(65.188754 0) scale(0.996264)"/>
      <use xlink:href="#CMR17-73" transform="translate(105.674415 0) scale(0.996264)"/>
      <use xlink:href="#CMR17-74" transform="translate(141.475753 0) scale(0.996264)"/>
      <use xlink:href="#CMR17-2d" transform="translate(176.75652 0) scale(0.996264)"/>
      <use xlink:href="#CMR17-c" transform="translate(206.832487 0) scale(0.996264)"/>
      <use xlink:href="#CMR17-74" transform="translate(256.57471 0) scale(0.996264)"/>
      <use xlink:href="#CMR17-61" transform="translate(321.931444 0) scale(0.996264)"/>
      <use xlink:href="#CMR17-6d" transform="translate(367.621921 0) scale(0.996264)"/>
      <use xlink:href="#CMR17-70" transform="translate(444.541511 0) scale(0.996264)"/>
      <use xlink:href="#CMR17-6c" transform="translate(495.436881 0) scale(0.996264)"/>
      <use xlink:href="#CMR17-69" transform="translate(520.307939 0) scale(0.996264)"/>
      <use xlink:href="#CMR17-74" transform="translate(545.178998 0) scale(0.996264)"/>
      <use xlink:href="#CMR17-75" transform="translate(580.459766 0) scale(0.996264)"/>
      <use xlink:href="#CMR17-64" transform="translate(631.355136 0) scale(0.996264)"/>
      <use xlink:href="#CMR17-65" transform="translate(682.250505 0) scale(0.996264)"/>
      <use xlink:href="#CMR17-5b" transform="translate(752.812132 0) scale(0.996264)"/>
      <use xlink:href="#CMR17-49" transform="translate(777.683191 0) scale(0.996264)"/>
      <use xlink:href="#CMR17-6e" transform="translate(810.3216 0) scale(0.996264)"/>
      <use xlink:href="#CMR17-70" transform="translate(861.21697 0) scale(0.996264)"/>
      <use xlink:href="#CMR17-75" transform="translate(912.112339 0) scale(0.996264)"/>
      <use xlink:href="#CMR17-74" transform="translate(963.007709 0) scale(0.996264)"/>
      <use xlink:href="#CMR17-61" transform="translate(1028.364443 0) scale(0.996264)"/>
      <use xlink:href="#CMR17-6d" transform="translate(1074.05492 0) scale(0.996264)"/>
      <use xlink:href="#CMR17-70" transform="translate(1150.97451 0) scale(0.996264)"/>
      <use xlink:href="#CMR17-6c" transform="translate(1201.86988 0) scale(0.996264)"/>
      <use xlink:href="#CMR17-69" transform="translate(1226.740939 0) scale(0.996264)"/>
      <use xlink:href="#CMR17-74" transform="translate(1251.611997 0) scale(0.996264)"/>
      <use xlink:href="#CMR17-75" transform="translate(1286.892765 0) scale(0.996264)"/>
      <use xlink:href="#CMR17-64" transform="translate(1337.788135 0) scale(0.996264)"/>
      <use xlink:href="#CMR17-65" transform="translate(1388.683504 0) scale(0.996264)"/>
      <use xlink:href="#CMR17-5d" transform="translate(1429.169165 0) scale(0.996264)"/>
     </g>
    </g>
   </g>
   <g id="LineCollection_1">
    <path d="M 58.928062 167.681258
L 58.928062 45.045084
" clip-path="url(#p53087b7288)" style="fill: none; stroke: #c71585; stroke-width: 1.5"/>
   </g>
   <g id="LineCollection_2">
    <path d="M 64.475898 169.117706
L 64.475898 43.838153
" clip-path="url(#p53087b7288)" style="fill: none; stroke: #191970; stroke-width: 1.5"/>
   </g>
   <g id="LineCollection_3">
    <path d="M 103.604518 148.175188
L 103.604518 64.528869
" clip-path="url(#p53087b7288)" style="fill: none; stroke: #c71585; stroke-width: 1.5"/>
   </g>
   <g id="LineCollection_4">
    <path d="M 109.152353 150.227357
L 109.152353 62.728502
" clip-path="url(#p53087b7288)" style="fill: none; stroke: #191970; stroke-width: 1.5"/>
   </g>
   <g id="LineCollection_5">
    <path d="M 148.280974 134.871562
L 148.280974 77.812722
" clip-path="url(#p53087b7288)" style="fill: none; stroke: #c71585; stroke-width: 1.5"/>
   </g>
   <g id="LineCollection_6">
    <path d="M 153.828809 137.753956
L 153.828809 75.201902
" clip-path="url(#p53087b7288)" style="fill: none; stroke: #191970; stroke-width: 1.5"/>
   </g>
   <g id="LineCollection_7">
    <path d="M 192.95743 125.797971
L 192.95743 86.870237
" clip-path="url(#p53087b7288)" style="fill: none; stroke: #c71585; stroke-width: 1.5"/>
   </g>
   <g id="LineCollection_8">
    <path d="M 198.505265 129.820247
L 198.505265 83.135611
" clip-path="url(#p53087b7288)" style="fill: none; stroke: #191970; stroke-width: 1.5"/>
   </g>
   <g id="LineCollection_9">
    <path d="M 237.633885 119.620915
L 237.633885 93.060811
" clip-path="url(#p53087b7288)" style="fill: none; stroke: #c71585; stroke-width: 1.5"/>
   </g>
   <g id="LineCollection_10">
    <path d="M 243.181721 125.042362
L 243.181721 87.913496
" clip-path="url(#p53087b7288)" style="fill: none; stroke: #191970; stroke-width: 1.5"/>
   </g>
   <g id="LineCollection_11">
    <path d="M 282.310341 115.412207
L 282.310341 97.28393
" clip-path="url(#p53087b7288)" style="fill: none; stroke: #c71585; stroke-width: 1.5"/>
   </g>
   <g id="LineCollection_12">
    <path d="M 287.858177 122.55274
L 287.858177 90.403118
" clip-path="url(#p53087b7288)" style="fill: none; stroke: #191970; stroke-width: 1.5"/>
   </g>
   <g id="LineCollection_13">
    <path d="M 326.986797 112.503866
L 326.986797 100.123046
" clip-path="url(#p53087b7288)" style="fill: none; stroke: #c71585; stroke-width: 1.5"/>
   </g>
   <g id="LineCollection_14">
    <path d="M 332.534632 121.422125
L 332.534632 91.136638
" clip-path="url(#p53087b7288)" style="fill: none; stroke: #191970; stroke-width: 1.5"/>
   </g>
   <g id="LineCollection_15">
    <path clip-path="url(#p53087b7288)" style="fill: none; stroke: #c71585; stroke-width: 1.5"/>
   </g>
   <g id="LineCollection_16">
    <path clip-path="url(#p53087b7288)" style="fill: none; stroke: #191970; stroke-width: 1.5"/>
   </g>
   <g id="LineCollection_17">
    <path d="M -1 106.477929
L 335.349669 106.477929
" clip-path="url(#p53087b7288)" style="fill: none; stroke: #d3d3d3; stroke-width: 1.5"/>
   </g>
   <g id="line2d_27">
    <defs>
     <path id="m4b3b8ff386" d="M -3 3
L 3 -3
M -3 -3
L 3 3
" style="stroke: #c71585"/>
    </defs>
    <g clip-path="url(#p53087b7288)">
     <use xlink:href="#m4b3b8ff386" x="58.928062" y="106.363171" style="fill: #c71585; stroke: #c71585"/>
    </g>
   </g>
   <g id="line2d_28">
    <defs>
     <path id="m5abdfbc84e" d="M -3 3
L 3 -3
M -3 -3
L 3 3
" style="stroke: #191970"/>
    </defs>
    <g clip-path="url(#p53087b7288)">
     <use xlink:href="#m5abdfbc84e" x="64.475898" y="106.477929" style="fill: #191970; stroke: #191970"/>
    </g>
   </g>
   <g id="line2d_29">
    <g clip-path="url(#p53087b7288)">
     <use xlink:href="#m4b3b8ff386" x="103.604518" y="106.352029" style="fill: #c71585; stroke: #c71585"/>
    </g>
   </g>
   <g id="line2d_30">
    <g clip-path="url(#p53087b7288)">
     <use xlink:href="#m5abdfbc84e" x="109.152353" y="106.477929" style="fill: #191970; stroke: #191970"/>
    </g>
   </g>
   <g id="line2d_31">
    <g clip-path="url(#p53087b7288)">
     <use xlink:href="#m4b3b8ff386" x="148.280974" y="106.342142" style="fill: #c71585; stroke: #c71585"/>
    </g>
   </g>
   <g id="line2d_32">
    <g clip-path="url(#p53087b7288)">
     <use xlink:href="#m5abdfbc84e" x="153.828809" y="106.477929" style="fill: #191970; stroke: #191970"/>
    </g>
   </g>
   <g id="line2d_33">
    <g clip-path="url(#p53087b7288)">
     <use xlink:href="#m4b3b8ff386" x="192.95743" y="106.334104" style="fill: #c71585; stroke: #c71585"/>
    </g>
   </g>
   <g id="line2d_34">
    <g clip-path="url(#p53087b7288)">
     <use xlink:href="#m5abdfbc84e" x="198.505265" y="106.477929" style="fill: #191970; stroke: #191970"/>
    </g>
   </g>
   <g id="line2d_35">
    <g clip-path="url(#p53087b7288)">
     <use xlink:href="#m4b3b8ff386" x="237.633885" y="106.340863" style="fill: #c71585; stroke: #c71585"/>
    </g>
   </g>
   <g id="line2d_36">
    <g clip-path="url(#p53087b7288)">
     <use xlink:href="#m5abdfbc84e" x="243.181721" y="106.477929" style="fill: #191970; stroke: #191970"/>
    </g>
   </g>
   <g id="line2d_37">
    <g clip-path="url(#p53087b7288)">
     <use xlink:href="#m4b3b8ff386" x="282.310341" y="106.348069" style="fill: #c71585; stroke: #c71585"/>
    </g>
   </g>
   <g id="line2d_38">
    <g clip-path="url(#p53087b7288)">
     <use xlink:href="#m5abdfbc84e" x="287.858177" y="106.477929" style="fill: #191970; stroke: #191970"/>
    </g>
   </g>
   <g id="line2d_39">
    <g clip-path="url(#p53087b7288)">
     <use xlink:href="#m4b3b8ff386" x="326.986797" y="106.313456" style="fill: #c71585; stroke: #c71585"/>
    </g>
   </g>
   <g id="line2d_40">
    <g clip-path="url(#p53087b7288)">
     <use xlink:href="#m5abdfbc84e" x="332.534632" y="106.279381" style="fill: #191970; stroke: #191970"/>
    </g>
   </g>
   <g id="line2d_41">
    <g clip-path="url(#p53087b7288)"/>
   </g>
   <g id="line2d_42">
    <g clip-path="url(#p53087b7288)"/>
   </g>
   <g id="patch_3">
    <path d="M 44.492719 175.381683
L 44.492719 37.574175
" style="fill: none; stroke: #000000; stroke-width: 0.8; stroke-linejoin: miter; stroke-linecap: square"/>
   </g>
   <g id="patch_4">
    <path d="M 349.2 175.381683
L 349.2 37.574175
" style="fill: none; stroke: #000000; stroke-width: 0.8; stroke-linejoin: miter; stroke-linecap: square"/>
   </g>
   <g id="patch_5">
    <path d="M 44.492719 175.381683
L 349.2 175.381683
" style="fill: none; stroke: #000000; stroke-width: 0.8; stroke-linejoin: miter; stroke-linecap: square"/>
   </g>
   <g id="patch_6">
    <path d="M 44.492719 37.574175
L 349.2 37.574175
" style="fill: none; stroke: #000000; stroke-width: 0.8; stroke-linejoin: miter; stroke-linecap: square"/>
   </g>
   <g id="legend_1">
    <g id="patch_7">
     <path d="M 215.748438 73.448532
L 342.2 73.448532
Q 344.2 73.448532 344.2 71.448532
L 344.2 44.574175
Q 344.2 42.574175 342.2 42.574175
L 215.748438 42.574175
Q 213.748438 42.574175 213.748438 44.574175
L 213.748438 71.448532
Q 213.748438 73.448532 215.748438 73.448532
z
" style="fill: #ffffff; opacity: 0.8; stroke: #cccccc; stroke-linejoin: miter"/>
    </g>
    <g id="LineCollection_18">
     <path d="M 227.748438 55.074175
L 227.748438 45.074175
" style="fill: none; stroke: #c71585; stroke-width: 1.5"/>
    </g>
    <g id="line2d_43"/>
    <g id="line2d_44">
     <g>
      <use xlink:href="#m4b3b8ff386" x="227.748438" y="50.074175" style="fill: #c71585; stroke: #c71585"/>
     </g>
    </g>
    <g id="text_11">
     <!-- Without Sys. Uncert. -->
     <g transform="translate(245.748438 53.574175) scale(0.1 -0.1)">
      <defs>
       <path id="CMR17-57" d="M 5523 3775
C 5581 3948 5677 4173 6048 4185
L 6048 4352
C 5939 4345 5715 4339 5600 4339
C 5440 4339 5158 4339 5005 4352
L 5005 4185
C 5293 4179 5414 4019 5414 3865
C 5414 3820 5408 3794 5382 3724
L 4390 557
L 3347 3890
C 3328 3955 3322 3980 3322 4006
C 3322 4185 3603 4185 3725 4185
L 3725 4352
C 3539 4339 3219 4339 3021 4339
C 2861 4339 2573 4339 2426 4352
L 2426 4185
C 2720 4185 2797 4166 2861 4051
C 2886 3993 2989 3660 2989 3640
C 2989 3615 2976 3576 2970 3557
L 2029 564
L 986 3890
C 954 3980 954 3993 954 4006
C 954 4185 1235 4185 1363 4185
L 1363 4352
C 1178 4339 858 4339 659 4339
C 493 4339 211 4339 58 4352
L 58 4185
C 442 4185 467 4147 531 3942
L 1779 -20
C 1811 -116 1811 -128 1869 -128
C 1920 -128 1939 -116 1965 -26
L 3053 3448
L 4141 -26
C 4166 -116 4186 -128 4237 -128
C 4294 -128 4294 -116 4326 -20
L 5523 3775
z
" transform="scale(0.015625)"/>
       <path id="CMR17-6f" d="M 2758 1356
C 2758 2176 2163 2816 1466 2816
C 768 2816 173 2176 173 1356
C 173 550 768 -64 1466 -64
C 2163 -64 2758 550 2758 1356
z
M 1466 51
C 1165 51 909 230 762 480
C 602 768 582 1126 582 1408
C 582 1676 595 2009 762 2297
C 890 2508 1139 2713 1466 2713
C 1754 2713 1997 2553 2150 2329
C 2349 2028 2349 1606 2349 1408
C 2349 1158 2336 774 2163 467
C 1984 172 1709 51 1466 51
z
" transform="scale(0.015625)"/>
       <path id="CMR17-53" d="M 2803 4351
C 2803 4467 2797 4473 2758 4473
C 2720 4473 2707 4447 2682 4390
L 2490 3965
C 2246 4320 1875 4480 1472 4480
C 819 4480 294 3958 294 3301
C 294 3101 339 2817 557 2546
C 794 2250 1018 2198 1530 2063
C 1722 2011 2042 1927 2106 1901
C 2470 1747 2662 1360 2662 999
C 2662 534 2336 38 1779 38
C 1094 38 454 425 410 1328
C 403 1431 397 1437 352 1437
C 301 1437 294 1431 294 1302
L 294 0
C 294 -116 301 -122 339 -122
C 384 -122 397 -90 486 109
C 493 128 493 141 614 386
C 934 -39 1472 -128 1779 -128
C 2477 -128 2970 457 2970 1141
C 2970 1476 2848 1734 2778 1850
C 2509 2263 2221 2340 1914 2417
C 1869 2437 1856 2437 1498 2527
C 1152 2617 1005 2662 845 2836
C 666 3036 602 3243 602 3449
C 602 3868 934 4326 1478 4326
C 2157 4326 2579 3842 2675 3036
C 2694 2920 2701 2914 2746 2914
C 2803 2914 2803 2933 2803 3043
L 2803 4351
z
" transform="scale(0.015625)"/>
       <path id="CMR17-79" d="M 2496 2183
C 2656 2579 2944 2585 3034 2585
L 3034 2752
C 2912 2745 2752 2739 2630 2739
C 2496 2739 2285 2739 2157 2752
L 2157 2585
C 2400 2566 2406 2384 2406 2332
C 2406 2268 2394 2235 2362 2158
L 1664 409
L 902 2300
C 870 2378 870 2423 870 2430
C 870 2572 1018 2585 1171 2585
L 1171 2752
C 1018 2739 742 2739 582 2739
C 410 2739 205 2739 64 2752
L 64 2585
C 410 2585 448 2553 531 2345
L 1485 -31
C 1197 -795 1030 -1242 627 -1242
C 557 -1242 397 -1223 282 -1106
C 429 -1093 493 -1002 493 -892
C 493 -782 416 -685 288 -685
C 147 -685 77 -782 77 -899
C 77 -1158 339 -1344 627 -1344
C 998 -1344 1229 -983 1357 -659
L 2496 2183
z
" transform="scale(0.015625)"/>
       <path id="CMR17-2e" d="M 1062 262
C 1062 422 934 524 800 524
C 672 524 538 422 538 262
C 538 102 666 0 800 0
C 928 0 1062 102 1062 262
z
" transform="scale(0.015625)"/>
       <path id="CMR17-55" d="M 3456 1442
C 3456 583 2899 38 2291 38
C 1965 38 1670 211 1491 480
C 1286 788 1261 1185 1261 1410
L 1261 3897
C 1261 4185 1331 4185 1773 4185
L 1773 4352
C 1587 4339 1248 4339 1050 4339
C 851 4339 512 4339 326 4352
L 326 4185
C 768 4185 838 4185 838 3897
L 838 1442
C 838 519 1536 -128 2278 -128
C 3110 -128 3590 724 3590 1352
L 3590 3788
C 3590 4147 3917 4185 4102 4185
L 4102 4352
C 3955 4339 3686 4339 3526 4339
C 3366 4339 3091 4339 2944 4352
L 2944 4185
C 3456 4185 3456 3884 3456 3724
L 3456 1442
z
" transform="scale(0.015625)"/>
       <path id="CMR17-63" d="M 2234 2240
C 2112 2240 1933 2240 1933 2015
C 1933 1836 2080 1785 2163 1785
C 2208 1785 2394 1804 2394 2028
C 2394 2476 1958 2816 1466 2816
C 787 2816 211 2201 211 1379
C 211 521 813 -64 1466 -64
C 2259 -64 2458 676 2458 747
C 2458 773 2451 792 2406 792
C 2362 792 2355 786 2330 702
C 2163 180 1798 51 1523 51
C 1114 51 621 431 621 1385
C 621 2358 1094 2700 1472 2700
C 1722 2700 2093 2582 2234 2240
z
" transform="scale(0.015625)"/>
      </defs>
      <use xlink:href="#CMR17-57" transform="scale(0.996264)"/>
      <use xlink:href="#CMR17-69" transform="translate(95.09665 0) scale(0.996264)"/>
      <use xlink:href="#CMR17-74" transform="translate(119.967708 0) scale(0.996264)"/>
      <use xlink:href="#CMR17-68" transform="translate(155.248476 0) scale(0.996264)"/>
      <use xlink:href="#CMR17-6f" transform="translate(206.143846 0) scale(0.996264)"/>
      <use xlink:href="#CMR17-75" transform="translate(251.834323 0) scale(0.996264)"/>
      <use xlink:href="#CMR17-74" transform="translate(302.729693 0) scale(0.996264)"/>
      <use xlink:href="#CMR17-53" transform="translate(368.086427 0) scale(0.996264)"/>
      <use xlink:href="#CMR17-79" transform="translate(418.981797 0) scale(0.996264)"/>
      <use xlink:href="#CMR17-73" transform="translate(467.274713 0) scale(0.996264)"/>
      <use xlink:href="#CMR17-2e" transform="translate(503.07605 0) scale(0.996264)"/>
      <use xlink:href="#CMR17-55" transform="translate(568.432769 0) scale(0.996264)"/>
      <use xlink:href="#CMR17-6e" transform="translate(637.505199 0) scale(0.996264)"/>
      <use xlink:href="#CMR17-63" transform="translate(688.400569 0) scale(0.996264)"/>
      <use xlink:href="#CMR17-65" transform="translate(728.886229 0) scale(0.996264)"/>
      <use xlink:href="#CMR17-72" transform="translate(769.37189 0) scale(0.996264)"/>
      <use xlink:href="#CMR17-74" transform="translate(804.652658 0) scale(0.996264)"/>
      <use xlink:href="#CMR17-2e" transform="translate(839.933425 0) scale(0.996264)"/>
     </g>
    </g>
    <g id="LineCollection_19">
     <path d="M 227.748438 69.011353
L 227.748438 59.011353
" style="fill: none; stroke: #191970; stroke-width: 1.5"/>
    </g>
    <g id="line2d_45"/>
    <g id="line2d_46">
     <g>
      <use xlink:href="#m5abdfbc84e" x="227.748438" y="64.011353" style="fill: #191970; stroke: #191970"/>
     </g>
    </g>
    <g id="text_12">
     <!-- With Sys. Uncert. -->
     <g transform="translate(245.748438 67.511353) scale(0.1 -0.1)">
      <use xlink:href="#CMR17-57" transform="scale(0.996264)"/>
      <use xlink:href="#CMR17-69" transform="translate(95.09665 0) scale(0.996264)"/>
      <use xlink:href="#CMR17-74" transform="translate(119.967708 0) scale(0.996264)"/>
      <use xlink:href="#CMR17-68" transform="translate(155.248476 0) scale(0.996264)"/>
      <use xlink:href="#CMR17-53" transform="translate(236.219812 0) scale(0.996264)"/>
      <use xlink:href="#CMR17-79" transform="translate(287.115182 0) scale(0.996264)"/>
      <use xlink:href="#CMR17-73" transform="translate(335.408098 0) scale(0.996264)"/>
      <use xlink:href="#CMR17-2e" transform="translate(371.209436 0) scale(0.996264)"/>
      <use xlink:href="#CMR17-55" transform="translate(436.566155 0) scale(0.996264)"/>
      <use xlink:href="#CMR17-6e" transform="translate(505.638584 0) scale(0.996264)"/>
      <use xlink:href="#CMR17-63" transform="translate(556.533954 0) scale(0.996264)"/>
      <use xlink:href="#CMR17-65" transform="translate(597.019615 0) scale(0.996264)"/>
      <use xlink:href="#CMR17-72" transform="translate(637.505275 0) scale(0.996264)"/>
      <use xlink:href="#CMR17-74" transform="translate(672.786043 0) scale(0.996264)"/>
      <use xlink:href="#CMR17-2e" transform="translate(708.066811 0) scale(0.996264)"/>
     </g>
    </g>
   </g>
  </g>
  <g id="axes_2">
   <g id="matplotlib.axis_3">
    <g id="xtick_22">
     <g id="line2d_47">
      <defs>
       <path id="m3b2489403e" d="M 0 0
L 0 -3.5
" style="stroke: #000000; stroke-width: 0.8"/>
      </defs>
      <g>
       <use xlink:href="#m3b2489403e" x="58.928062" y="37.574175" style="stroke: #000000; stroke-width: 0.8"/>
      </g>
     </g>
     <g id="text_13">
      <!-- 13 -->
      <g transform="translate(53.946727 28.636997) scale(0.1 -0.1)">
       <defs>
        <path id="CMR17-33" d="M 1414 2176
C 1984 2176 2234 1673 2234 1094
C 2234 322 1824 25 1453 25
C 1114 25 563 193 390 691
C 422 678 454 678 486 678
C 640 678 755 780 755 947
C 755 1132 614 1216 486 1216
C 378 1216 211 1164 211 927
C 211 335 787 -128 1466 -128
C 2176 -128 2720 432 2720 1087
C 2720 1718 2208 2176 1600 2246
C 2086 2347 2554 2776 2554 3353
C 2554 3856 2048 4224 1472 4224
C 890 4224 378 3862 378 3347
C 378 3123 544 3084 627 3084
C 762 3084 877 3167 877 3334
C 877 3500 762 3584 627 3584
C 602 3584 570 3584 544 3571
C 730 3999 1235 4076 1459 4076
C 1683 4076 2106 3966 2106 3347
C 2106 3167 2080 2851 1862 2574
C 1670 2329 1453 2316 1242 2297
C 1210 2297 1062 2284 1037 2284
C 992 2278 966 2272 966 2227
C 966 2182 973 2176 1101 2176
L 1414 2176
z
" transform="scale(0.015625)"/>
       </defs>
       <use xlink:href="#CMR17-31" transform="scale(0.996264)"/>
       <use xlink:href="#CMR17-33" transform="translate(45.690477 0) scale(0.996264)"/>
      </g>
     </g>
    </g>
    <g id="xtick_23">
     <g id="line2d_48">
      <g>
       <use xlink:href="#m3b2489403e" x="103.604518" y="37.574175" style="stroke: #000000; stroke-width: 0.8"/>
      </g>
     </g>
     <g id="text_14">
      <!-- 28 -->
      <g transform="translate(98.623183 28.636997) scale(0.1 -0.1)">
       <use xlink:href="#CMR17-32" transform="scale(0.996264)"/>
       <use xlink:href="#CMR17-38" transform="translate(45.690477 0) scale(0.996264)"/>
      </g>
     </g>
    </g>
    <g id="xtick_24">
     <g id="line2d_49">
      <g>
       <use xlink:href="#m3b2489403e" x="148.280974" y="37.574175" style="stroke: #000000; stroke-width: 0.8"/>
      </g>
     </g>
     <g id="text_15">
      <!-- 60 -->
      <g transform="translate(143.299639 28.636997) scale(0.1 -0.1)">
       <use xlink:href="#CMR17-36" transform="scale(0.996264)"/>
       <use xlink:href="#CMR17-30" transform="translate(45.690477 0) scale(0.996264)"/>
      </g>
     </g>
    </g>
    <g id="xtick_25">
     <g id="line2d_50">
      <g>
       <use xlink:href="#m3b2489403e" x="192.95743" y="37.574175" style="stroke: #000000; stroke-width: 0.8"/>
      </g>
     </g>
     <g id="text_16">
      <!-- 130 -->
      <g transform="translate(185.485427 28.636997) scale(0.1 -0.1)">
       <use xlink:href="#CMR17-31" transform="scale(0.996264)"/>
       <use xlink:href="#CMR17-33" transform="translate(45.690477 0) scale(0.996264)"/>
       <use xlink:href="#CMR17-30" transform="translate(91.380954 0) scale(0.996264)"/>
      </g>
     </g>
    </g>
    <g id="xtick_26">
     <g id="line2d_51">
      <g>
       <use xlink:href="#m3b2489403e" x="237.633885" y="37.574175" style="stroke: #000000; stroke-width: 0.8"/>
      </g>
     </g>
     <g id="text_17">
      <!-- 281 -->
      <g transform="translate(230.161883 28.636997) scale(0.1 -0.1)">
       <use xlink:href="#CMR17-32" transform="scale(0.996264)"/>
       <use xlink:href="#CMR17-38" transform="translate(45.690477 0) scale(0.996264)"/>
       <use xlink:href="#CMR17-31" transform="translate(91.380954 0) scale(0.996264)"/>
      </g>
     </g>
    </g>
    <g id="xtick_27">
     <g id="line2d_52">
      <g>
       <use xlink:href="#m3b2489403e" x="282.310341" y="37.574175" style="stroke: #000000; stroke-width: 0.8"/>
      </g>
     </g>
     <g id="text_18">
      <!-- 607 -->
      <g transform="translate(274.838338 28.636997) scale(0.1 -0.1)">
       <defs>
        <path id="CMR17-37" d="M 2886 3955
L 2886 4096
L 1382 4096
C 634 4096 621 4166 595 4288
L 480 4288
L 294 3104
L 410 3104
C 429 3226 474 3552 550 3673
C 589 3724 1062 3724 1171 3724
L 2579 3724
L 1869 2670
C 1395 1961 1069 1003 1069 166
C 1069 89 1069 -128 1299 -128
C 1530 -128 1530 89 1530 172
L 1530 466
C 1530 1514 1709 2204 2003 2644
L 2886 3955
z
" transform="scale(0.015625)"/>
       </defs>
       <use xlink:href="#CMR17-36" transform="scale(0.996264)"/>
       <use xlink:href="#CMR17-30" transform="translate(45.690477 0) scale(0.996264)"/>
       <use xlink:href="#CMR17-37" transform="translate(91.380954 0) scale(0.996264)"/>
      </g>
     </g>
    </g>
    <g id="xtick_28">
     <g id="line2d_53">
      <g>
       <use xlink:href="#m3b2489403e" x="326.986797" y="37.574175" style="stroke: #000000; stroke-width: 0.8"/>
      </g>
     </g>
     <g id="text_19">
      <!-- 1308 -->
      <g transform="translate(317.024127 28.636997) scale(0.1 -0.1)">
       <use xlink:href="#CMR17-31" transform="scale(0.996264)"/>
       <use xlink:href="#CMR17-33" transform="translate(45.690477 0) scale(0.996264)"/>
       <use xlink:href="#CMR17-30" transform="translate(91.380954 0) scale(0.996264)"/>
       <use xlink:href="#CMR17-38" transform="translate(137.071431 0) scale(0.996264)"/>
      </g>
     </g>
    </g>
    <g id="xtick_29">
     <g id="line2d_54">
      <defs>
       <path id="mc7db97586a" d="M 0 0
L 0 -2
" style="stroke: #000000; stroke-width: 0.6"/>
      </defs>
      <g>
       <use xlink:href="#mc7db97586a" x="45.939274" y="37.574175" style="stroke: #000000; stroke-width: 0.6"/>
      </g>
     </g>
    </g>
    <g id="xtick_30">
     <g id="line2d_55">
      <g>
       <use xlink:href="#mc7db97586a" x="52.795215" y="37.574175" style="stroke: #000000; stroke-width: 0.6"/>
      </g>
     </g>
    </g>
    <g id="xtick_31">
     <g id="line2d_56">
      <g>
       <use xlink:href="#mc7db97586a" x="99.274922" y="37.574175" style="stroke: #000000; stroke-width: 0.6"/>
      </g>
     </g>
    </g>
    <g id="xtick_32">
     <g id="line2d_57">
      <g>
       <use xlink:href="#mc7db97586a" x="122.876322" y="37.574175" style="stroke: #000000; stroke-width: 0.6"/>
      </g>
     </g>
    </g>
    <g id="xtick_33">
     <g id="line2d_58">
      <g>
       <use xlink:href="#mc7db97586a" x="139.621782" y="37.574175" style="stroke: #000000; stroke-width: 0.6"/>
      </g>
     </g>
    </g>
    <g id="xtick_34">
     <g id="line2d_59">
      <g>
       <use xlink:href="#mc7db97586a" x="152.61057" y="37.574175" style="stroke: #000000; stroke-width: 0.6"/>
      </g>
     </g>
    </g>
    <g id="xtick_35">
     <g id="line2d_60">
      <g>
       <use xlink:href="#mc7db97586a" x="163.223182" y="37.574175" style="stroke: #000000; stroke-width: 0.6"/>
      </g>
     </g>
    </g>
    <g id="xtick_36">
     <g id="line2d_61">
      <g>
       <use xlink:href="#mc7db97586a" x="172.196018" y="37.574175" style="stroke: #000000; stroke-width: 0.6"/>
      </g>
     </g>
    </g>
    <g id="xtick_37">
     <g id="line2d_62">
      <g>
       <use xlink:href="#mc7db97586a" x="179.968642" y="37.574175" style="stroke: #000000; stroke-width: 0.6"/>
      </g>
     </g>
    </g>
    <g id="xtick_38">
     <g id="line2d_63">
      <g>
       <use xlink:href="#mc7db97586a" x="186.824582" y="37.574175" style="stroke: #000000; stroke-width: 0.6"/>
      </g>
     </g>
    </g>
    <g id="xtick_39">
     <g id="line2d_64">
      <g>
       <use xlink:href="#mc7db97586a" x="233.304289" y="37.574175" style="stroke: #000000; stroke-width: 0.6"/>
      </g>
     </g>
    </g>
    <g id="xtick_40">
     <g id="line2d_65">
      <g>
       <use xlink:href="#mc7db97586a" x="256.90569" y="37.574175" style="stroke: #000000; stroke-width: 0.6"/>
      </g>
     </g>
    </g>
    <g id="xtick_41">
     <g id="line2d_66">
      <g>
       <use xlink:href="#mc7db97586a" x="273.651149" y="37.574175" style="stroke: #000000; stroke-width: 0.6"/>
      </g>
     </g>
    </g>
    <g id="xtick_42">
     <g id="line2d_67">
      <g>
       <use xlink:href="#mc7db97586a" x="286.639937" y="37.574175" style="stroke: #000000; stroke-width: 0.6"/>
      </g>
     </g>
    </g>
    <g id="xtick_43">
     <g id="line2d_68">
      <g>
       <use xlink:href="#mc7db97586a" x="297.252549" y="37.574175" style="stroke: #000000; stroke-width: 0.6"/>
      </g>
     </g>
    </g>
    <g id="xtick_44">
     <g id="line2d_69">
      <g>
       <use xlink:href="#mc7db97586a" x="306.225385" y="37.574175" style="stroke: #000000; stroke-width: 0.6"/>
      </g>
     </g>
    </g>
    <g id="xtick_45">
     <g id="line2d_70">
      <g>
       <use xlink:href="#mc7db97586a" x="313.998009" y="37.574175" style="stroke: #000000; stroke-width: 0.6"/>
      </g>
     </g>
    </g>
    <g id="xtick_46">
     <g id="line2d_71">
      <g>
       <use xlink:href="#mc7db97586a" x="320.853949" y="37.574175" style="stroke: #000000; stroke-width: 0.6"/>
      </g>
     </g>
    </g>
    <g id="text_20">
     <!-- Signal Counts -->
     <g transform="translate(166.515589 17.718498) scale(0.1 -0.1)">
      <defs>
       <path id="CMR17-67" d="M 710 1165
C 832 1068 1043 960 1299 960
C 1805 960 2240 1359 2240 1895
C 2240 2063 2189 2321 1997 2521
C 2176 2713 2438 2777 2586 2777
C 2611 2777 2650 2777 2682 2758
C 2656 2751 2598 2726 2598 2623
C 2598 2540 2656 2483 2739 2483
C 2835 2483 2886 2547 2886 2630
C 2886 2751 2790 2880 2586 2880
C 2330 2880 2106 2758 1926 2591
C 1734 2764 1504 2828 1299 2828
C 794 2828 358 2431 358 1895
C 358 1527 570 1294 634 1230
C 442 1004 442 742 442 710
C 442 544 506 300 723 166
C 390 82 128 -184 128 -517
C 128 -996 736 -1344 1466 -1344
C 2170 -1344 2803 -1009 2803 -510
C 2803 384 1856 384 1363 384
C 1216 384 954 384 922 390
C 723 422 589 601 589 825
C 589 883 589 1024 710 1165
z
M 1299 1068
C 736 1068 736 1766 736 1895
C 736 2024 736 2719 1299 2719
C 1862 2719 1862 2024 1862 1895
C 1862 1766 1862 1068 1299 1068
z
M 1466 -1236
C 826 -1236 384 -883 384 -517
C 384 -311 493 -118 634 -11
C 794 102 858 102 1293 102
C 1818 102 2547 102 2547 -517
C 2547 -883 2106 -1236 1466 -1236
z
" transform="scale(0.015625)"/>
       <path id="CMR17-43" d="M 3974 4351
C 3974 4467 3968 4473 3930 4473
C 3904 4473 3898 4467 3853 4390
L 3571 3849
C 3258 4249 2874 4480 2381 4480
C 1286 4480 294 3507 294 2179
C 294 837 1286 -128 2387 -128
C 3366 -128 3974 741 3974 1482
C 3974 1547 3974 1573 3917 1573
C 3866 1573 3866 1553 3859 1495
C 3808 592 3168 38 2477 38
C 1824 38 781 502 781 2179
C 781 3862 1843 4313 2464 4313
C 3187 4313 3712 3681 3834 2785
C 3846 2707 3846 2695 3904 2695
C 3974 2695 3974 2707 3974 2824
L 3974 4351
z
" transform="scale(0.015625)"/>
      </defs>
      <use xlink:href="#CMR17-53" transform="scale(0.996264)"/>
      <use xlink:href="#CMR17-69" transform="translate(50.89537 0) scale(0.996264)"/>
      <use xlink:href="#CMR17-67" transform="translate(75.766428 0) scale(0.996264)"/>
      <use xlink:href="#CMR17-6e" transform="translate(121.456905 0) scale(0.996264)"/>
      <use xlink:href="#CMR17-61" transform="translate(172.352275 0) scale(0.996264)"/>
      <use xlink:href="#CMR17-6c" transform="translate(218.042752 0) scale(0.996264)"/>
      <use xlink:href="#CMR17-43" transform="translate(272.989777 0) scale(0.996264)"/>
      <use xlink:href="#CMR17-6f" transform="translate(339.499658 0) scale(0.996264)"/>
      <use xlink:href="#CMR17-75" transform="translate(385.190135 0) scale(0.996264)"/>
      <use xlink:href="#CMR17-6e" transform="translate(436.085505 0) scale(0.996264)"/>
      <use xlink:href="#CMR17-74" transform="translate(484.37842 0) scale(0.996264)"/>
      <use xlink:href="#CMR17-73" transform="translate(519.659188 0) scale(0.996264)"/>
     </g>
    </g>
   </g>
   <g id="patch_8">
    <path d="M 44.492719 175.381683
L 44.492719 37.574175
" style="fill: none; stroke: #000000; stroke-width: 0.8; stroke-linejoin: miter; stroke-linecap: square"/>
   </g>
   <g id="patch_9">
    <path d="M 349.2 175.381683
L 349.2 37.574175
" style="fill: none; stroke: #000000; stroke-width: 0.8; stroke-linejoin: miter; stroke-linecap: square"/>
   </g>
   <g id="patch_10">
    <path d="M 44.492719 175.381683
L 349.2 175.381683
" style="fill: none; stroke: #000000; stroke-width: 0.8; stroke-linejoin: miter; stroke-linecap: square"/>
   </g>
   <g id="patch_11">
    <path d="M 44.492719 37.574175
L 349.2 37.574175
" style="fill: none; stroke: #000000; stroke-width: 0.8; stroke-linejoin: miter; stroke-linecap: square"/>
   </g>
  </g>
 </g>
 <defs>
  <clipPath id="p53087b7288">
   <rect x="44.492719" y="37.574175" width="304.707281" height="137.807508"/>
  </clipPath>
 </defs>
</svg>
