<?xml version="1.0" encoding="utf-8" standalone="no"?>
<!DOCTYPE svg PUBLIC "-//W3C//DTD SVG 1.1//EN"
  "http://www.w3.org/Graphics/SVG/1.1/DTD/svg11.dtd">
<svg xmlns:xlink="http://www.w3.org/1999/xlink" width="360pt" height="216pt" viewBox="0 0 360 216" xmlns="http://www.w3.org/2000/svg" version="1.1">
 <metadata>
  <rdf:RDF xmlns:dc="http://purl.org/dc/elements/1.1/" xmlns:cc="http://creativecommons.org/ns#" xmlns:rdf="http://www.w3.org/1999/02/22-rdf-syntax-ns#">
   <cc:Work>
    <dc:type rdf:resource="http://purl.org/dc/dcmitype/StillImage"/>
    <dc:date>2023-01-30T12:13:14.655550</dc:date>
    <dc:format>image/svg+xml</dc:format>
    <dc:creator>
     <cc:Agent>
      <dc:title>Matplotlib v3.6.2, https://matplotlib.org/</dc:title>
     </cc:Agent>
    </dc:creator>
   </cc:Work>
  </rdf:RDF>
 </metadata>
 <defs>
  <style type="text/css">*{stroke-linejoin: round; stroke-linecap: butt}</style>
 </defs>
 <g id="figure_1">
  <g id="patch_1">
   <path d="M 0 216 
L 360 216 
L 360 0 
L 0 0 
z
" style="fill: #ffffff"/>
  </g>
  <g id="axes_1">
   <g id="patch_2">
    <path d="M 60.221389 170.728 
L 349.2 170.728 
L 349.2 25.44 
L 60.221389 25.44 
z
" style="fill: #ffffff"/>
   </g>
   <g id="PolyCollection_1">
    <path d="M 74.645222 63.08252 
L 74.645222 81.72483 
L 77.222106 82.390347 
L 79.798989 83.058221 
L 82.375873 83.728507 
L 84.952756 84.401264 
L 87.529639 85.076551 
L 90.106523 85.754432 
L 92.683406 86.434969 
L 95.26029 87.118228 
L 97.837173 87.804276 
L 100.414056 88.49318 
L 102.99094 89.18501 
L 105.567823 89.879838 
L 108.144707 90.577736 
L 110.72159 91.278776 
L 113.298473 91.983032 
L 115.875357 92.690579 
L 118.45224 93.40149 
L 121.029124 94.115841 
L 123.606007 94.833706 
L 126.18289 95.555158 
L 128.759774 96.28027 
L 131.336657 97.009113 
L 133.913541 97.741757 
L 136.490424 98.47827 
L 139.067307 99.218717 
L 141.644191 99.963162 
L 144.221074 100.711662 
L 146.797958 101.464274 
L 149.374841 102.221051 
L 151.951724 102.982038 
L 154.528608 103.74728 
L 157.105491 104.516813 
L 159.682375 105.290671 
L 162.259258 106.068881 
L 164.836141 106.851463 
L 167.413025 107.638433 
L 169.989908 108.4298 
L 172.566792 109.225567 
L 175.143675 110.025731 
L 177.720558 110.830283 
L 180.297442 111.639206 
L 182.874325 112.452481 
L 185.451209 113.27008 
L 188.028092 114.091969 
L 190.604975 114.918113 
L 193.181859 115.748466 
L 195.758742 116.582982 
L 198.335626 117.421609 
L 200.912509 118.264291 
L 203.489392 119.110969 
L 206.066276 119.961579 
L 208.643159 120.816057 
L 211.220042 121.674335 
L 213.796926 122.536343 
L 216.373809 123.402008 
L 218.950693 124.27126 
L 221.527576 125.144024 
L 224.104459 126.020225 
L 226.681343 126.89979 
L 229.258226 127.782644 
L 231.83511 128.668712 
L 234.411993 129.557921 
L 236.988876 130.450198 
L 239.56576 131.345471 
L 242.142643 132.243669 
L 244.719527 133.144722 
L 247.29641 134.048563 
L 249.873293 134.955123 
L 252.450177 135.864339 
L 255.02706 136.776146 
L 257.603944 137.690482 
L 260.180827 138.607288 
L 262.75771 139.526506 
L 265.334594 140.448079 
L 267.911477 141.371952 
L 270.488361 142.298073 
L 273.065244 143.226392 
L 275.642127 144.156858 
L 278.219011 145.089425 
L 280.795894 146.024048 
L 283.372778 146.960683 
L 285.949661 147.899288 
L 288.526544 148.839823 
L 291.103428 149.78225 
L 293.680311 150.726531 
L 296.257195 151.672631 
L 298.834078 152.620516 
L 301.410961 153.570155 
L 303.987845 154.521515 
L 306.564728 155.474569 
L 309.141612 156.429287 
L 311.718495 157.385643 
L 314.295378 158.343611 
L 316.872262 159.303168 
L 319.449145 160.264289 
L 322.026029 161.226953 
L 324.602912 162.191139 
L 327.179795 163.156828 
L 329.756679 164.124 
L 329.756679 139.077363 
L 329.756679 139.077363 
L 327.179795 138.393383 
L 324.602912 137.709036 
L 322.026029 137.024299 
L 319.449145 136.339149 
L 316.872262 135.65356 
L 314.295378 134.967509 
L 311.718495 134.280967 
L 309.141612 133.593907 
L 306.564728 132.906301 
L 303.987845 132.218118 
L 301.410961 131.529326 
L 298.834078 130.839895 
L 296.257195 130.149788 
L 293.680311 129.458972 
L 291.103428 128.767409 
L 288.526544 128.075061 
L 285.949661 127.381888 
L 283.372778 126.68785 
L 280.795894 125.992904 
L 278.219011 125.297004 
L 275.642127 124.600105 
L 273.065244 123.902159 
L 270.488361 123.203116 
L 267.911477 122.502926 
L 265.334594 121.801535 
L 262.75771 121.098887 
L 260.180827 120.394928 
L 257.603944 119.689597 
L 255.02706 118.982836 
L 252.450177 118.274581 
L 249.873293 117.56477 
L 247.29641 116.853336 
L 244.719527 116.140213 
L 242.142643 115.425333 
L 239.56576 114.708626 
L 236.988876 113.990019 
L 234.411993 113.269442 
L 231.83511 112.546819 
L 229.258226 111.822078 
L 226.681343 111.095143 
L 224.104459 110.365937 
L 221.527576 109.634387 
L 218.950693 108.900415 
L 216.373809 108.163948 
L 213.796926 107.424909 
L 211.220042 106.683225 
L 208.643159 105.938824 
L 206.066276 105.191636 
L 203.489392 104.441591 
L 200.912509 103.688623 
L 198.335626 102.93267 
L 195.758742 102.17367 
L 193.181859 101.411568 
L 190.604975 100.646311 
L 188.028092 99.877851 
L 185.451209 99.106145 
L 182.874325 98.331154 
L 180.297442 97.552845 
L 177.720558 96.771191 
L 175.143675 95.986171 
L 172.566792 95.197769 
L 169.989908 94.405976 
L 167.413025 93.610788 
L 164.836141 92.812208 
L 162.259258 92.010247 
L 159.682375 91.204918 
L 157.105491 90.396245 
L 154.528608 89.584253 
L 151.951724 88.768975 
L 149.374841 87.95045 
L 146.797958 87.128722 
L 144.221074 86.303837 
L 141.644191 85.475849 
L 139.067307 84.644813 
L 136.490424 83.81079 
L 133.913541 82.973843 
L 131.336657 82.134039 
L 128.759774 81.291445 
L 126.18289 80.446133 
L 123.606007 79.598174 
L 121.029124 78.747643 
L 118.45224 77.894614 
L 115.875357 77.039162 
L 113.298473 76.181363 
L 110.72159 75.321294 
L 108.144707 74.459028 
L 105.567823 73.594642 
L 102.99094 72.72821 
L 100.414056 71.859804 
L 97.837173 70.989499 
L 95.26029 70.117365 
L 92.683406 69.243471 
L 90.106523 68.367887 
L 87.529639 67.49068 
L 84.952756 66.611915 
L 82.375873 65.731655 
L 79.798989 64.849963 
L 77.222106 63.966898 
L 74.645222 63.08252 
z
" clip-path="url(#p0a4749de4e)" style="fill: #008000; fill-opacity: 0.5"/>
   </g>
   <g id="PolyCollection_2">
    <path d="M 74.645222 65.301043 
L 74.645222 78.74009 
L 77.222106 79.37532 
L 79.798989 80.012313 
L 82.375873 80.651141 
L 84.952756 81.291882 
L 87.529639 81.93462 
L 90.106523 82.579446 
L 92.683406 83.22646 
L 95.26029 83.875768 
L 97.837173 84.527488 
L 100.414056 85.181745 
L 102.99094 85.838676 
L 105.567823 86.498428 
L 108.144707 87.161162 
L 110.72159 87.827049 
L 113.298473 88.496275 
L 115.875357 89.169037 
L 118.45224 89.84555 
L 121.029124 90.526039 
L 123.606007 91.210748 
L 126.18289 91.899931 
L 128.759774 92.593857 
L 131.336657 93.292808 
L 133.913541 93.997076 
L 136.490424 94.70696 
L 139.067307 95.422765 
L 141.644191 96.144799 
L 144.221074 96.873366 
L 146.797958 97.608759 
L 149.374841 98.351263 
L 151.951724 99.101137 
L 154.528608 99.858618 
L 157.105491 100.623908 
L 159.682375 101.397172 
L 162.259258 102.178531 
L 164.836141 102.968059 
L 167.413025 103.765779 
L 169.989908 104.571668 
L 172.566792 105.385649 
L 175.143675 106.2076 
L 177.720558 107.037355 
L 180.297442 107.874712 
L 182.874325 108.719433 
L 185.451209 109.571258 
L 188.028092 110.429903 
L 190.604975 111.295072 
L 193.181859 112.166462 
L 195.758742 113.043767 
L 198.335626 113.92668 
L 200.912509 114.814902 
L 203.489392 115.708142 
L 206.066276 116.606118 
L 208.643159 117.508562 
L 211.220042 118.415219 
L 213.796926 119.325847 
L 216.373809 120.24022 
L 218.950693 121.158124 
L 221.527576 122.079362 
L 224.104459 123.003749 
L 226.681343 123.931113 
L 229.258226 124.861294 
L 231.83511 125.794146 
L 234.411993 126.729532 
L 236.988876 127.667326 
L 239.56576 128.607412 
L 242.142643 129.549683 
L 244.719527 130.49404 
L 247.29641 131.440391 
L 249.873293 132.388653 
L 252.450177 133.338748 
L 255.02706 134.290604 
L 257.603944 135.244156 
L 260.180827 136.199343 
L 262.75771 137.15611 
L 265.334594 138.114404 
L 267.911477 139.074178 
L 270.488361 140.035388 
L 273.065244 140.997994 
L 275.642127 141.961959 
L 278.219011 142.927247 
L 280.795894 143.893828 
L 283.372778 144.861672 
L 285.949661 145.830753 
L 288.526544 146.801045 
L 291.103428 147.772525 
L 293.680311 148.745174 
L 296.257195 149.71897 
L 298.834078 150.693898 
L 301.410961 151.669939 
L 303.987845 152.64708 
L 306.564728 153.625306 
L 309.141612 154.604605 
L 311.718495 155.584967 
L 314.295378 156.566379 
L 316.872262 157.548833 
L 319.449145 158.532321 
L 322.026029 159.516835 
L 324.602912 160.502367 
L 327.179795 161.488912 
L 329.756679 162.476465 
L 329.756679 140.140314 
L 329.756679 140.140314 
L 327.179795 139.475531 
L 324.602912 138.810846 
L 322.026029 138.14625 
L 319.449145 137.481731 
L 316.872262 136.817281 
L 314.295378 136.152887 
L 311.718495 135.488537 
L 309.141612 134.82422 
L 306.564728 134.159919 
L 303.987845 133.495622 
L 301.410961 132.831313 
L 298.834078 132.166974 
L 296.257195 131.502587 
L 293.680311 130.838133 
L 291.103428 130.173592 
L 288.526544 129.508941 
L 285.949661 128.844156 
L 283.372778 128.179211 
L 280.795894 127.51408 
L 278.219011 126.848733 
L 275.642127 126.183137 
L 273.065244 125.517259 
L 270.488361 124.851062 
L 267.911477 124.184506 
L 265.334594 123.517548 
L 262.75771 122.850143 
L 260.180827 122.18224 
L 257.603944 121.513786 
L 255.02706 120.844723 
L 252.450177 120.174988 
L 249.873293 119.504513 
L 247.29641 118.833226 
L 244.719527 118.161046 
L 242.142643 117.487888 
L 239.56576 116.81366 
L 236.988876 116.138259 
L 234.411993 115.461579 
L 231.83511 114.7835 
L 229.258226 114.103896 
L 226.681343 113.422628 
L 224.104459 112.739548 
L 221.527576 112.054496 
L 218.950693 111.367299 
L 216.373809 110.67777 
L 213.796926 109.98571 
L 211.220042 109.290906 
L 208.643159 108.593129 
L 206.066276 107.892137 
L 203.489392 107.187675 
L 200.912509 106.479472 
L 198.335626 105.767247 
L 195.758742 105.050707 
L 193.181859 104.329553 
L 190.604975 103.603477 
L 188.028092 102.872174 
L 185.451209 102.135338 
L 182.874325 101.392674 
L 180.297442 100.643898 
L 177.720558 99.888748 
L 175.143675 99.126988 
L 172.566792 98.358414 
L 169.989908 97.582859 
L 167.413025 96.800203 
L 164.836141 96.010369 
L 162.259258 95.213331 
L 159.682375 94.409115 
L 157.105491 93.597794 
L 154.528608 92.77949 
L 151.951724 91.954367 
L 149.374841 91.122628 
L 146.797958 90.284509 
L 144.221074 89.440271 
L 141.644191 88.590198 
L 139.067307 87.734585 
L 136.490424 86.873736 
L 133.913541 86.007959 
L 131.336657 85.137559 
L 128.759774 84.262838 
L 126.18289 83.384087 
L 123.606007 82.501589 
L 121.029124 81.615614 
L 118.45224 80.726417 
L 115.875357 79.834243 
L 113.298473 78.939318 
L 110.72159 78.041857 
L 108.144707 77.142059 
L 105.567823 76.240112 
L 102.99094 75.336188 
L 100.414056 74.430449 
L 97.837173 73.523042 
L 95.26029 72.614107 
L 92.683406 71.70377 
L 90.106523 70.79215 
L 87.529639 69.879356 
L 84.952756 68.965489 
L 82.375873 68.050641 
L 79.798989 67.134899 
L 77.222106 66.218342 
L 74.645222 65.301043 
z
" clip-path="url(#p0a4749de4e)" style="fill: #ff0000; fill-opacity: 0.6"/>
   </g>
   <g id="matplotlib.axis_1">
    <g id="xtick_1">
     <g id="line2d_1">
      <defs>
       <path id="m85dc10fbc4" d="M 0 0 
L 0 3.5 
" style="stroke: #000000; stroke-width: 0.8"/>
      </defs>
      <g>
       <use xlink:href="#m85dc10fbc4" x="111.252125" y="170.728" style="stroke: #000000; stroke-width: 0.8"/>
      </g>
     </g>
     <g id="text_1">
      <!-- $\mathdefault{10^{0}}$ -->
      <g transform="translate(102.452125 185.326437) scale(0.1 -0.1)">
       <defs>
        <path id="DejaVuSans-31" d="M 794 531 
L 1825 531 
L 1825 4091 
L 703 3866 
L 703 4441 
L 1819 4666 
L 2450 4666 
L 2450 531 
L 3481 531 
L 3481 0 
L 794 0 
L 794 531 
z
" transform="scale(0.015625)"/>
        <path id="DejaVuSans-30" d="M 2034 4250 
Q 1547 4250 1301 3770 
Q 1056 3291 1056 2328 
Q 1056 1369 1301 889 
Q 1547 409 2034 409 
Q 2525 409 2770 889 
Q 3016 1369 3016 2328 
Q 3016 3291 2770 3770 
Q 2525 4250 2034 4250 
z
M 2034 4750 
Q 2819 4750 3233 4129 
Q 3647 3509 3647 2328 
Q 3647 1150 3233 529 
Q 2819 -91 2034 -91 
Q 1250 -91 836 529 
Q 422 1150 422 2328 
Q 422 3509 836 4129 
Q 1250 4750 2034 4750 
z
" transform="scale(0.015625)"/>
       </defs>
       <use xlink:href="#DejaVuSans-31" transform="translate(0 0.765625)"/>
       <use xlink:href="#DejaVuSans-30" transform="translate(63.623047 0.765625)"/>
       <use xlink:href="#DejaVuSans-30" transform="translate(128.203125 39.046875) scale(0.7)"/>
      </g>
     </g>
    </g>
    <g id="xtick_2">
     <g id="line2d_2">
      <g>
       <use xlink:href="#m85dc10fbc4" x="232.517226" y="170.728" style="stroke: #000000; stroke-width: 0.8"/>
      </g>
     </g>
     <g id="text_2">
      <!-- $\mathdefault{10^{1}}$ -->
      <g transform="translate(223.717226 185.326437) scale(0.1 -0.1)">
       <use xlink:href="#DejaVuSans-31" transform="translate(0 0.684375)"/>
       <use xlink:href="#DejaVuSans-30" transform="translate(63.623047 0.684375)"/>
       <use xlink:href="#DejaVuSans-31" transform="translate(128.203125 38.965625) scale(0.7)"/>
      </g>
     </g>
    </g>
    <g id="xtick_3">
     <g id="line2d_3">
      <defs>
       <path id="m2aeb1c83ab" d="M 0 0 
L 0 2 
" style="stroke: #000000; stroke-width: 0.6"/>
      </defs>
      <g>
       <use xlink:href="#m2aeb1c83ab" x="62.995889" y="170.728" style="stroke: #000000; stroke-width: 0.6"/>
      </g>
     </g>
    </g>
    <g id="xtick_4">
     <g id="line2d_4">
      <g>
       <use xlink:href="#m2aeb1c83ab" x="74.747692" y="170.728" style="stroke: #000000; stroke-width: 0.6"/>
      </g>
     </g>
    </g>
    <g id="xtick_5">
     <g id="line2d_5">
      <g>
       <use xlink:href="#m2aeb1c83ab" x="84.349614" y="170.728" style="stroke: #000000; stroke-width: 0.6"/>
      </g>
     </g>
    </g>
    <g id="xtick_6">
     <g id="line2d_6">
      <g>
       <use xlink:href="#m2aeb1c83ab" x="92.467923" y="170.728" style="stroke: #000000; stroke-width: 0.6"/>
      </g>
     </g>
    </g>
    <g id="xtick_7">
     <g id="line2d_7">
      <g>
       <use xlink:href="#m2aeb1c83ab" x="99.500322" y="170.728" style="stroke: #000000; stroke-width: 0.6"/>
      </g>
     </g>
    </g>
    <g id="xtick_8">
     <g id="line2d_8">
      <g>
       <use xlink:href="#m2aeb1c83ab" x="105.703338" y="170.728" style="stroke: #000000; stroke-width: 0.6"/>
      </g>
     </g>
    </g>
    <g id="xtick_9">
     <g id="line2d_9">
      <g>
       <use xlink:href="#m2aeb1c83ab" x="147.756558" y="170.728" style="stroke: #000000; stroke-width: 0.6"/>
      </g>
     </g>
    </g>
    <g id="xtick_10">
     <g id="line2d_10">
      <g>
       <use xlink:href="#m2aeb1c83ab" x="169.110282" y="170.728" style="stroke: #000000; stroke-width: 0.6"/>
      </g>
     </g>
    </g>
    <g id="xtick_11">
     <g id="line2d_11">
      <g>
       <use xlink:href="#m2aeb1c83ab" x="184.260991" y="170.728" style="stroke: #000000; stroke-width: 0.6"/>
      </g>
     </g>
    </g>
    <g id="xtick_12">
     <g id="line2d_12">
      <g>
       <use xlink:href="#m2aeb1c83ab" x="196.012793" y="170.728" style="stroke: #000000; stroke-width: 0.6"/>
      </g>
     </g>
    </g>
    <g id="xtick_13">
     <g id="line2d_13">
      <g>
       <use xlink:href="#m2aeb1c83ab" x="205.614715" y="170.728" style="stroke: #000000; stroke-width: 0.6"/>
      </g>
     </g>
    </g>
    <g id="xtick_14">
     <g id="line2d_14">
      <g>
       <use xlink:href="#m2aeb1c83ab" x="213.733024" y="170.728" style="stroke: #000000; stroke-width: 0.6"/>
      </g>
     </g>
    </g>
    <g id="xtick_15">
     <g id="line2d_15">
      <g>
       <use xlink:href="#m2aeb1c83ab" x="220.765423" y="170.728" style="stroke: #000000; stroke-width: 0.6"/>
      </g>
     </g>
    </g>
    <g id="xtick_16">
     <g id="line2d_16">
      <g>
       <use xlink:href="#m2aeb1c83ab" x="226.968439" y="170.728" style="stroke: #000000; stroke-width: 0.6"/>
      </g>
     </g>
    </g>
    <g id="xtick_17">
     <g id="line2d_17">
      <g>
       <use xlink:href="#m2aeb1c83ab" x="269.021659" y="170.728" style="stroke: #000000; stroke-width: 0.6"/>
      </g>
     </g>
    </g>
    <g id="xtick_18">
     <g id="line2d_18">
      <g>
       <use xlink:href="#m2aeb1c83ab" x="290.375383" y="170.728" style="stroke: #000000; stroke-width: 0.6"/>
      </g>
     </g>
    </g>
    <g id="xtick_19">
     <g id="line2d_19">
      <g>
       <use xlink:href="#m2aeb1c83ab" x="305.526092" y="170.728" style="stroke: #000000; stroke-width: 0.6"/>
      </g>
     </g>
    </g>
    <g id="xtick_20">
     <g id="line2d_20">
      <g>
       <use xlink:href="#m2aeb1c83ab" x="317.277894" y="170.728" style="stroke: #000000; stroke-width: 0.6"/>
      </g>
     </g>
    </g>
    <g id="xtick_21">
     <g id="line2d_21">
      <g>
       <use xlink:href="#m2aeb1c83ab" x="326.879816" y="170.728" style="stroke: #000000; stroke-width: 0.6"/>
      </g>
     </g>
    </g>
    <g id="xtick_22">
     <g id="line2d_22">
      <g>
       <use xlink:href="#m2aeb1c83ab" x="334.998125" y="170.728" style="stroke: #000000; stroke-width: 0.6"/>
      </g>
     </g>
    </g>
    <g id="xtick_23">
     <g id="line2d_23">
      <g>
       <use xlink:href="#m2aeb1c83ab" x="342.030524" y="170.728" style="stroke: #000000; stroke-width: 0.6"/>
      </g>
     </g>
    </g>
    <g id="xtick_24">
     <g id="line2d_24">
      <g>
       <use xlink:href="#m2aeb1c83ab" x="348.23354" y="170.728" style="stroke: #000000; stroke-width: 0.6"/>
      </g>
     </g>
    </g>
    <g id="text_3">
     <!-- Energy [TeV] -->
     <g transform="translate(173.013038 199.004562) scale(0.1 -0.1)">
      <defs>
       <path id="DejaVuSans-45" d="M 628 4666 
L 3578 4666 
L 3578 4134 
L 1259 4134 
L 1259 2753 
L 3481 2753 
L 3481 2222 
L 1259 2222 
L 1259 531 
L 3634 531 
L 3634 0 
L 628 0 
L 628 4666 
z
" transform="scale(0.015625)"/>
       <path id="DejaVuSans-6e" d="M 3513 2113 
L 3513 0 
L 2938 0 
L 2938 2094 
Q 2938 2591 2744 2837 
Q 2550 3084 2163 3084 
Q 1697 3084 1428 2787 
Q 1159 2491 1159 1978 
L 1159 0 
L 581 0 
L 581 3500 
L 1159 3500 
L 1159 2956 
Q 1366 3272 1645 3428 
Q 1925 3584 2291 3584 
Q 2894 3584 3203 3211 
Q 3513 2838 3513 2113 
z
" transform="scale(0.015625)"/>
       <path id="DejaVuSans-65" d="M 3597 1894 
L 3597 1613 
L 953 1613 
Q 991 1019 1311 708 
Q 1631 397 2203 397 
Q 2534 397 2845 478 
Q 3156 559 3463 722 
L 3463 178 
Q 3153 47 2828 -22 
Q 2503 -91 2169 -91 
Q 1331 -91 842 396 
Q 353 884 353 1716 
Q 353 2575 817 3079 
Q 1281 3584 2069 3584 
Q 2775 3584 3186 3129 
Q 3597 2675 3597 1894 
z
M 3022 2063 
Q 3016 2534 2758 2815 
Q 2500 3097 2075 3097 
Q 1594 3097 1305 2825 
Q 1016 2553 972 2059 
L 3022 2063 
z
" transform="scale(0.015625)"/>
       <path id="DejaVuSans-72" d="M 2631 2963 
Q 2534 3019 2420 3045 
Q 2306 3072 2169 3072 
Q 1681 3072 1420 2755 
Q 1159 2438 1159 1844 
L 1159 0 
L 581 0 
L 581 3500 
L 1159 3500 
L 1159 2956 
Q 1341 3275 1631 3429 
Q 1922 3584 2338 3584 
Q 2397 3584 2469 3576 
Q 2541 3569 2628 3553 
L 2631 2963 
z
" transform="scale(0.015625)"/>
       <path id="DejaVuSans-67" d="M 2906 1791 
Q 2906 2416 2648 2759 
Q 2391 3103 1925 3103 
Q 1463 3103 1205 2759 
Q 947 2416 947 1791 
Q 947 1169 1205 825 
Q 1463 481 1925 481 
Q 2391 481 2648 825 
Q 2906 1169 2906 1791 
z
M 3481 434 
Q 3481 -459 3084 -895 
Q 2688 -1331 1869 -1331 
Q 1566 -1331 1297 -1286 
Q 1028 -1241 775 -1147 
L 775 -588 
Q 1028 -725 1275 -790 
Q 1522 -856 1778 -856 
Q 2344 -856 2625 -561 
Q 2906 -266 2906 331 
L 2906 616 
Q 2728 306 2450 153 
Q 2172 0 1784 0 
Q 1141 0 747 490 
Q 353 981 353 1791 
Q 353 2603 747 3093 
Q 1141 3584 1784 3584 
Q 2172 3584 2450 3431 
Q 2728 3278 2906 2969 
L 2906 3500 
L 3481 3500 
L 3481 434 
z
" transform="scale(0.015625)"/>
       <path id="DejaVuSans-79" d="M 2059 -325 
Q 1816 -950 1584 -1140 
Q 1353 -1331 966 -1331 
L 506 -1331 
L 506 -850 
L 844 -850 
Q 1081 -850 1212 -737 
Q 1344 -625 1503 -206 
L 1606 56 
L 191 3500 
L 800 3500 
L 1894 763 
L 2988 3500 
L 3597 3500 
L 2059 -325 
z
" transform="scale(0.015625)"/>
       <path id="DejaVuSans-20" transform="scale(0.015625)"/>
       <path id="DejaVuSans-5b" d="M 550 4863 
L 1875 4863 
L 1875 4416 
L 1125 4416 
L 1125 -397 
L 1875 -397 
L 1875 -844 
L 550 -844 
L 550 4863 
z
" transform="scale(0.015625)"/>
       <path id="DejaVuSans-54" d="M -19 4666 
L 3928 4666 
L 3928 4134 
L 2272 4134 
L 2272 0 
L 1638 0 
L 1638 4134 
L -19 4134 
L -19 4666 
z
" transform="scale(0.015625)"/>
       <path id="DejaVuSans-56" d="M 1831 0 
L 50 4666 
L 709 4666 
L 2188 738 
L 3669 4666 
L 4325 4666 
L 2547 0 
L 1831 0 
z
" transform="scale(0.015625)"/>
       <path id="DejaVuSans-5d" d="M 1947 4863 
L 1947 -844 
L 622 -844 
L 622 -397 
L 1369 -397 
L 1369 4416 
L 622 4416 
L 622 4863 
L 1947 4863 
z
" transform="scale(0.015625)"/>
      </defs>
      <use xlink:href="#DejaVuSans-45"/>
      <use xlink:href="#DejaVuSans-6e" x="63.183594"/>
      <use xlink:href="#DejaVuSans-65" x="126.5625"/>
      <use xlink:href="#DejaVuSans-72" x="188.085938"/>
      <use xlink:href="#DejaVuSans-67" x="227.449219"/>
      <use xlink:href="#DejaVuSans-79" x="290.925781"/>
      <use xlink:href="#DejaVuSans-20" x="350.105469"/>
      <use xlink:href="#DejaVuSans-5b" x="381.892578"/>
      <use xlink:href="#DejaVuSans-54" x="420.90625"/>
      <use xlink:href="#DejaVuSans-65" x="464.990234"/>
      <use xlink:href="#DejaVuSans-56" x="526.513672"/>
      <use xlink:href="#DejaVuSans-5d" x="594.921875"/>
     </g>
    </g>
   </g>
   <g id="matplotlib.axis_2">
    <g id="ytick_1">
     <g id="line2d_25">
      <defs>
       <path id="m3580c9b596" d="M 0 0 
L -3.5 0 
" style="stroke: #000000; stroke-width: 0.8"/>
      </defs>
      <g>
       <use xlink:href="#m3580c9b596" x="60.221389" y="82.876724" style="stroke: #000000; stroke-width: 0.8"/>
      </g>
     </g>
     <g id="text_4">
      <!-- $\mathdefault{10^{-12}}$ -->
      <g transform="translate(25.321389 86.675942) scale(0.1 -0.1)">
       <defs>
        <path id="DejaVuSans-2212" d="M 678 2272 
L 4684 2272 
L 4684 1741 
L 678 1741 
L 678 2272 
z
" transform="scale(0.015625)"/>
        <path id="DejaVuSans-32" d="M 1228 531 
L 3431 531 
L 3431 0 
L 469 0 
L 469 531 
Q 828 903 1448 1529 
Q 2069 2156 2228 2338 
Q 2531 2678 2651 2914 
Q 2772 3150 2772 3378 
Q 2772 3750 2511 3984 
Q 2250 4219 1831 4219 
Q 1534 4219 1204 4116 
Q 875 4013 500 3803 
L 500 4441 
Q 881 4594 1212 4672 
Q 1544 4750 1819 4750 
Q 2544 4750 2975 4387 
Q 3406 4025 3406 3419 
Q 3406 3131 3298 2873 
Q 3191 2616 2906 2266 
Q 2828 2175 2409 1742 
Q 1991 1309 1228 531 
z
" transform="scale(0.015625)"/>
       </defs>
       <use xlink:href="#DejaVuSans-31" transform="translate(0 0.765625)"/>
       <use xlink:href="#DejaVuSans-30" transform="translate(63.623047 0.765625)"/>
       <use xlink:href="#DejaVuSans-2212" transform="translate(128.203125 39.046875) scale(0.7)"/>
       <use xlink:href="#DejaVuSans-31" transform="translate(186.855469 39.046875) scale(0.7)"/>
       <use xlink:href="#DejaVuSans-32" transform="translate(231.391602 39.046875) scale(0.7)"/>
      </g>
     </g>
    </g>
    <g id="ytick_2">
     <g id="line2d_26">
      <defs>
       <path id="md86171dae6" d="M 0 0 
L -2 0 
" style="stroke: #000000; stroke-width: 0.6"/>
      </defs>
      <g>
       <use xlink:href="#md86171dae6" x="60.221389" y="169.880553" style="stroke: #000000; stroke-width: 0.6"/>
      </g>
     </g>
    </g>
    <g id="ytick_3">
     <g id="line2d_27">
      <g>
       <use xlink:href="#md86171dae6" x="60.221389" y="147.96171" style="stroke: #000000; stroke-width: 0.6"/>
      </g>
     </g>
    </g>
    <g id="ytick_4">
     <g id="line2d_28">
      <g>
       <use xlink:href="#md86171dae6" x="60.221389" y="132.410043" style="stroke: #000000; stroke-width: 0.6"/>
      </g>
     </g>
    </g>
    <g id="ytick_5">
     <g id="line2d_29">
      <g>
       <use xlink:href="#md86171dae6" x="60.221389" y="120.347233" style="stroke: #000000; stroke-width: 0.6"/>
      </g>
     </g>
    </g>
    <g id="ytick_6">
     <g id="line2d_30">
      <g>
       <use xlink:href="#md86171dae6" x="60.221389" y="110.4912" style="stroke: #000000; stroke-width: 0.6"/>
      </g>
     </g>
    </g>
    <g id="ytick_7">
     <g id="line2d_31">
      <g>
       <use xlink:href="#md86171dae6" x="60.221389" y="102.158043" style="stroke: #000000; stroke-width: 0.6"/>
      </g>
     </g>
    </g>
    <g id="ytick_8">
     <g id="line2d_32">
      <g>
       <use xlink:href="#md86171dae6" x="60.221389" y="94.939533" style="stroke: #000000; stroke-width: 0.6"/>
      </g>
     </g>
    </g>
    <g id="ytick_9">
     <g id="line2d_33">
      <g>
       <use xlink:href="#md86171dae6" x="60.221389" y="88.572357" style="stroke: #000000; stroke-width: 0.6"/>
      </g>
     </g>
    </g>
    <g id="ytick_10">
     <g id="line2d_34">
      <g>
       <use xlink:href="#md86171dae6" x="60.221389" y="45.406214" style="stroke: #000000; stroke-width: 0.6"/>
      </g>
     </g>
    </g>
    <g id="text_5">
     <!-- e2 * dnde [TeV / (cm2 s)] -->
     <g transform="translate(19.241702 160.563688) rotate(-90) scale(0.1 -0.1)">
      <defs>
       <path id="DejaVuSans-2a" d="M 3009 3897 
L 1888 3291 
L 3009 2681 
L 2828 2375 
L 1778 3009 
L 1778 1831 
L 1422 1831 
L 1422 3009 
L 372 2375 
L 191 2681 
L 1313 3291 
L 191 3897 
L 372 4206 
L 1422 3572 
L 1422 4750 
L 1778 4750 
L 1778 3572 
L 2828 4206 
L 3009 3897 
z
" transform="scale(0.015625)"/>
       <path id="DejaVuSans-64" d="M 2906 2969 
L 2906 4863 
L 3481 4863 
L 3481 0 
L 2906 0 
L 2906 525 
Q 2725 213 2448 61 
Q 2172 -91 1784 -91 
Q 1150 -91 751 415 
Q 353 922 353 1747 
Q 353 2572 751 3078 
Q 1150 3584 1784 3584 
Q 2172 3584 2448 3432 
Q 2725 3281 2906 2969 
z
M 947 1747 
Q 947 1113 1208 752 
Q 1469 391 1925 391 
Q 2381 391 2643 752 
Q 2906 1113 2906 1747 
Q 2906 2381 2643 2742 
Q 2381 3103 1925 3103 
Q 1469 3103 1208 2742 
Q 947 2381 947 1747 
z
" transform="scale(0.015625)"/>
       <path id="DejaVuSans-2f" d="M 1625 4666 
L 2156 4666 
L 531 -594 
L 0 -594 
L 1625 4666 
z
" transform="scale(0.015625)"/>
       <path id="DejaVuSans-28" d="M 1984 4856 
Q 1566 4138 1362 3434 
Q 1159 2731 1159 2009 
Q 1159 1288 1364 580 
Q 1569 -128 1984 -844 
L 1484 -844 
Q 1016 -109 783 600 
Q 550 1309 550 2009 
Q 550 2706 781 3412 
Q 1013 4119 1484 4856 
L 1984 4856 
z
" transform="scale(0.015625)"/>
       <path id="DejaVuSans-63" d="M 3122 3366 
L 3122 2828 
Q 2878 2963 2633 3030 
Q 2388 3097 2138 3097 
Q 1578 3097 1268 2742 
Q 959 2388 959 1747 
Q 959 1106 1268 751 
Q 1578 397 2138 397 
Q 2388 397 2633 464 
Q 2878 531 3122 666 
L 3122 134 
Q 2881 22 2623 -34 
Q 2366 -91 2075 -91 
Q 1284 -91 818 406 
Q 353 903 353 1747 
Q 353 2603 823 3093 
Q 1294 3584 2113 3584 
Q 2378 3584 2631 3529 
Q 2884 3475 3122 3366 
z
" transform="scale(0.015625)"/>
       <path id="DejaVuSans-6d" d="M 3328 2828 
Q 3544 3216 3844 3400 
Q 4144 3584 4550 3584 
Q 5097 3584 5394 3201 
Q 5691 2819 5691 2113 
L 5691 0 
L 5113 0 
L 5113 2094 
Q 5113 2597 4934 2840 
Q 4756 3084 4391 3084 
Q 3944 3084 3684 2787 
Q 3425 2491 3425 1978 
L 3425 0 
L 2847 0 
L 2847 2094 
Q 2847 2600 2669 2842 
Q 2491 3084 2119 3084 
Q 1678 3084 1418 2786 
Q 1159 2488 1159 1978 
L 1159 0 
L 581 0 
L 581 3500 
L 1159 3500 
L 1159 2956 
Q 1356 3278 1631 3431 
Q 1906 3584 2284 3584 
Q 2666 3584 2933 3390 
Q 3200 3197 3328 2828 
z
" transform="scale(0.015625)"/>
       <path id="DejaVuSans-73" d="M 2834 3397 
L 2834 2853 
Q 2591 2978 2328 3040 
Q 2066 3103 1784 3103 
Q 1356 3103 1142 2972 
Q 928 2841 928 2578 
Q 928 2378 1081 2264 
Q 1234 2150 1697 2047 
L 1894 2003 
Q 2506 1872 2764 1633 
Q 3022 1394 3022 966 
Q 3022 478 2636 193 
Q 2250 -91 1575 -91 
Q 1294 -91 989 -36 
Q 684 19 347 128 
L 347 722 
Q 666 556 975 473 
Q 1284 391 1588 391 
Q 1994 391 2212 530 
Q 2431 669 2431 922 
Q 2431 1156 2273 1281 
Q 2116 1406 1581 1522 
L 1381 1569 
Q 847 1681 609 1914 
Q 372 2147 372 2553 
Q 372 3047 722 3315 
Q 1072 3584 1716 3584 
Q 2034 3584 2315 3537 
Q 2597 3491 2834 3397 
z
" transform="scale(0.015625)"/>
       <path id="DejaVuSans-29" d="M 513 4856 
L 1013 4856 
Q 1481 4119 1714 3412 
Q 1947 2706 1947 2009 
Q 1947 1309 1714 600 
Q 1481 -109 1013 -844 
L 513 -844 
Q 928 -128 1133 580 
Q 1338 1288 1338 2009 
Q 1338 2731 1133 3434 
Q 928 4138 513 4856 
z
" transform="scale(0.015625)"/>
      </defs>
      <use xlink:href="#DejaVuSans-65"/>
      <use xlink:href="#DejaVuSans-32" x="61.523438"/>
      <use xlink:href="#DejaVuSans-20" x="125.146484"/>
      <use xlink:href="#DejaVuSans-2a" x="156.933594"/>
      <use xlink:href="#DejaVuSans-20" x="206.933594"/>
      <use xlink:href="#DejaVuSans-64" x="238.720703"/>
      <use xlink:href="#DejaVuSans-6e" x="302.197266"/>
      <use xlink:href="#DejaVuSans-64" x="365.576172"/>
      <use xlink:href="#DejaVuSans-65" x="429.052734"/>
      <use xlink:href="#DejaVuSans-20" x="490.576172"/>
      <use xlink:href="#DejaVuSans-5b" x="522.363281"/>
      <use xlink:href="#DejaVuSans-54" x="561.376953"/>
      <use xlink:href="#DejaVuSans-65" x="605.460938"/>
      <use xlink:href="#DejaVuSans-56" x="666.984375"/>
      <use xlink:href="#DejaVuSans-20" x="735.392578"/>
      <use xlink:href="#DejaVuSans-2f" x="767.179688"/>
      <use xlink:href="#DejaVuSans-20" x="800.871094"/>
      <use xlink:href="#DejaVuSans-28" x="832.658203"/>
      <use xlink:href="#DejaVuSans-63" x="871.671875"/>
      <use xlink:href="#DejaVuSans-6d" x="926.652344"/>
      <use xlink:href="#DejaVuSans-32" x="1024.064453"/>
      <use xlink:href="#DejaVuSans-20" x="1087.6875"/>
      <use xlink:href="#DejaVuSans-73" x="1119.474609"/>
      <use xlink:href="#DejaVuSans-29" x="1171.574219"/>
      <use xlink:href="#DejaVuSans-5d" x="1210.587891"/>
     </g>
    </g>
   </g>
   <g id="line2d_35">
    <path d="M 74.645222 71.604016 
L 77.222106 72.39754 
L 79.798989 73.191064 
L 82.375873 73.984588 
L 84.952756 74.778112 
L 87.529639 75.571636 
L 90.106523 76.36516 
L 92.683406 77.158684 
L 95.26029 77.952207 
L 97.837173 78.745731 
L 100.414056 79.539255 
L 102.99094 80.332779 
L 105.567823 81.126303 
L 108.144707 81.919827 
L 110.72159 82.713351 
L 113.298473 83.506875 
L 115.875357 84.300399 
L 118.45224 85.093923 
L 121.029124 85.887447 
L 123.606007 86.680971 
L 126.18289 87.474494 
L 128.759774 88.268018 
L 131.336657 89.061542 
L 133.913541 89.855066 
L 136.490424 90.64859 
L 139.067307 91.442114 
L 141.644191 92.235638 
L 144.221074 93.029162 
L 146.797958 93.822686 
L 149.374841 94.61621 
L 151.951724 95.409734 
L 154.528608 96.203258 
L 157.105491 96.996781 
L 159.682375 97.790305 
L 162.259258 98.583829 
L 164.836141 99.377353 
L 167.413025 100.170877 
L 169.989908 100.964401 
L 172.566792 101.757925 
L 175.143675 102.551449 
L 177.720558 103.344973 
L 180.297442 104.138497 
L 182.874325 104.932021 
L 185.451209 105.725545 
L 188.028092 106.519068 
L 190.604975 107.312592 
L 193.181859 108.106116 
L 195.758742 108.89964 
L 198.335626 109.693164 
L 200.912509 110.486688 
L 203.489392 111.280212 
L 206.066276 112.073736 
L 208.643159 112.86726 
L 211.220042 113.660784 
L 213.796926 114.454308 
L 216.373809 115.247832 
L 218.950693 116.041355 
L 221.527576 116.834879 
L 224.104459 117.628403 
L 226.681343 118.421927 
L 229.258226 119.215451 
L 231.83511 120.008975 
L 234.411993 120.802499 
L 236.988876 121.596023 
L 239.56576 122.389547 
L 242.142643 123.183071 
L 244.719527 123.976595 
L 247.29641 124.770118 
L 249.873293 125.563642 
L 252.450177 126.357166 
L 255.02706 127.15069 
L 257.603944 127.944214 
L 260.180827 128.737738 
L 262.75771 129.531262 
L 265.334594 130.324786 
L 267.911477 131.11831 
L 270.488361 131.911834 
L 273.065244 132.705358 
L 275.642127 133.498882 
L 278.219011 134.292405 
L 280.795894 135.085929 
L 283.372778 135.879453 
L 285.949661 136.672977 
L 288.526544 137.466501 
L 291.103428 138.260025 
L 293.680311 139.053549 
L 296.257195 139.847073 
L 298.834078 140.640597 
L 301.410961 141.434121 
L 303.987845 142.227645 
L 306.564728 143.021169 
L 309.141612 143.814692 
L 311.718495 144.608216 
L 314.295378 145.40174 
L 316.872262 146.195264 
L 319.449145 146.988788 
L 322.026029 147.782312 
L 324.602912 148.575836 
L 327.179795 149.36936 
L 329.756679 150.162884 
" clip-path="url(#p0a4749de4e)" style="fill: none; stroke-dasharray: 1.5,2.475; stroke-dashoffset: 0; stroke: #000000; stroke-width: 1.5"/>
   </g>
   <g id="LineCollection_1">
    <path clip-path="url(#p0a4749de4e)" style="fill: none; stroke: #8b0000; stroke-width: 1.5"/>
    <path clip-path="url(#p0a4749de4e)" style="fill: none; stroke: #8b0000; stroke-width: 1.5"/>
    <path clip-path="url(#p0a4749de4e)" style="fill: none; stroke: #8b0000; stroke-width: 1.5"/>
    <path clip-path="url(#p0a4749de4e)" style="fill: none; stroke: #8b0000; stroke-width: 1.5"/>
    <path clip-path="url(#p0a4749de4e)" style="fill: none; stroke: #8b0000; stroke-width: 1.5"/>
    <path d="M 78.376269 217 
L 78.376269 32.175181 
" clip-path="url(#p0a4749de4e)" style="fill: none; stroke: #8b0000; stroke-width: 1.5"/>
    <path d="M 93.534407 104.280891 
L 93.534407 57.350206 
" clip-path="url(#p0a4749de4e)" style="fill: none; stroke: #8b0000; stroke-width: 1.5"/>
    <path d="M 108.692544 93.199691 
L 108.692544 70.294358 
" clip-path="url(#p0a4749de4e)" style="fill: none; stroke: #8b0000; stroke-width: 1.5"/>
    <path d="M 123.850682 95.920398 
L 123.850682 76.275791 
" clip-path="url(#p0a4749de4e)" style="fill: none; stroke: #8b0000; stroke-width: 1.5"/>
    <path d="M 139.008819 100.640421 
L 139.008819 80.907289 
" clip-path="url(#p0a4749de4e)" style="fill: none; stroke: #8b0000; stroke-width: 1.5"/>
    <path d="M 154.166957 105.734944 
L 154.166957 85.280817 
" clip-path="url(#p0a4749de4e)" style="fill: none; stroke: #8b0000; stroke-width: 1.5"/>
    <path d="M 169.325095 111.241798 
L 169.325095 89.381288 
" clip-path="url(#p0a4749de4e)" style="fill: none; stroke: #8b0000; stroke-width: 1.5"/>
    <path d="M 184.483232 117.114809 
L 184.483232 93.259422 
" clip-path="url(#p0a4749de4e)" style="fill: none; stroke: #8b0000; stroke-width: 1.5"/>
    <path d="M 199.64137 123.068448 
L 199.64137 97.116016 
" clip-path="url(#p0a4749de4e)" style="fill: none; stroke: #8b0000; stroke-width: 1.5"/>
    <path d="M 214.799508 129.533779 
L 214.799508 100.700805 
" clip-path="url(#p0a4749de4e)" style="fill: none; stroke: #8b0000; stroke-width: 1.5"/>
    <path d="M 229.957645 136.553133 
L 229.957645 104.035253 
" clip-path="url(#p0a4749de4e)" style="fill: none; stroke: #8b0000; stroke-width: 1.5"/>
    <path d="M 245.115783 144.000903 
L 245.115783 107.238202 
" clip-path="url(#p0a4749de4e)" style="fill: none; stroke: #8b0000; stroke-width: 1.5"/>
    <path d="M 260.27392 152.32729 
L 260.27392 110.142961 
" clip-path="url(#p0a4749de4e)" style="fill: none; stroke: #8b0000; stroke-width: 1.5"/>
    <path d="M 275.432058 161.714395 
L 275.432058 112.778555 
" clip-path="url(#p0a4749de4e)" style="fill: none; stroke: #8b0000; stroke-width: 1.5"/>
    <path d="M 290.590196 171.83976 
L 290.590196 115.386565 
" clip-path="url(#p0a4749de4e)" style="fill: none; stroke: #8b0000; stroke-width: 1.5"/>
    <path d="M 305.748333 183.867199 
L 305.748333 117.685453 
" clip-path="url(#p0a4749de4e)" style="fill: none; stroke: #8b0000; stroke-width: 1.5"/>
    <path d="M 320.906471 199.853528 
L 320.906471 119.431485 
" clip-path="url(#p0a4749de4e)" style="fill: none; stroke: #8b0000; stroke-width: 1.5"/>
    <path d="M 336.064609 217 
L 336.064609 120.096082 
" clip-path="url(#p0a4749de4e)" style="fill: none; stroke: #8b0000; stroke-width: 1.5"/>
    <path clip-path="url(#p0a4749de4e)" style="fill: none; stroke: #8b0000; stroke-width: 1.5"/>
   </g>
   <g id="LineCollection_2">
    <path clip-path="url(#p0a4749de4e)" style="fill: none; stroke: #006400; stroke-width: 1.5"/>
    <path clip-path="url(#p0a4749de4e)" style="fill: none; stroke: #006400; stroke-width: 1.5"/>
    <path clip-path="url(#p0a4749de4e)" style="fill: none; stroke: #006400; stroke-width: 1.5"/>
    <path clip-path="url(#p0a4749de4e)" style="fill: none; stroke: #006400; stroke-width: 1.5"/>
    <path clip-path="url(#p0a4749de4e)" style="fill: none; stroke: #006400; stroke-width: 1.5"/>
    <path d="M 73.356781 217 
L 73.356781 32.044 
" clip-path="url(#p0a4749de4e)" style="fill: none; stroke: #006400; stroke-width: 1.5"/>
    <path d="M 88.514918 105.472818 
L 88.514918 56.857646 
" clip-path="url(#p0a4749de4e)" style="fill: none; stroke: #006400; stroke-width: 1.5"/>
    <path d="M 103.673056 94.949451 
L 103.673056 69.178873 
" clip-path="url(#p0a4749de4e)" style="fill: none; stroke: #006400; stroke-width: 1.5"/>
    <path d="M 118.831194 97.851243 
L 118.831194 74.972749 
" clip-path="url(#p0a4749de4e)" style="fill: none; stroke: #006400; stroke-width: 1.5"/>
    <path d="M 133.989331 102.547496 
L 133.989331 79.621929 
" clip-path="url(#p0a4749de4e)" style="fill: none; stroke: #006400; stroke-width: 1.5"/>
    <path d="M 149.147469 107.563298 
L 149.147469 84.063195 
" clip-path="url(#p0a4749de4e)" style="fill: none; stroke: #006400; stroke-width: 1.5"/>
    <path d="M 164.305607 112.958809 
L 164.305607 88.264991 
" clip-path="url(#p0a4749de4e)" style="fill: none; stroke: #006400; stroke-width: 1.5"/>
    <path d="M 179.463744 118.716783 
L 179.463744 92.253545 
" clip-path="url(#p0a4749de4e)" style="fill: none; stroke: #006400; stroke-width: 1.5"/>
    <path d="M 194.621882 124.556268 
L 194.621882 96.215547 
" clip-path="url(#p0a4749de4e)" style="fill: none; stroke: #006400; stroke-width: 1.5"/>
    <path d="M 209.780019 130.923716 
L 209.780019 99.901735 
" clip-path="url(#p0a4749de4e)" style="fill: none; stroke: #006400; stroke-width: 1.5"/>
    <path d="M 224.938157 137.862475 
L 224.938157 103.331005 
" clip-path="url(#p0a4749de4e)" style="fill: none; stroke: #006400; stroke-width: 1.5"/>
    <path d="M 240.096295 145.238566 
L 240.096295 106.621892 
" clip-path="url(#p0a4749de4e)" style="fill: none; stroke: #006400; stroke-width: 1.5"/>
    <path d="M 255.254432 153.500688 
L 255.254432 109.613648 
" clip-path="url(#p0a4749de4e)" style="fill: none; stroke: #006400; stroke-width: 1.5"/>
    <path d="M 270.41257 162.840335 
L 270.41257 112.329757 
" clip-path="url(#p0a4749de4e)" style="fill: none; stroke: #006400; stroke-width: 1.5"/>
    <path d="M 285.570708 172.942896 
L 285.570708 115.003622 
" clip-path="url(#p0a4749de4e)" style="fill: none; stroke: #006400; stroke-width: 1.5"/>
    <path d="M 300.728845 184.978401 
L 300.728845 117.363086 
" clip-path="url(#p0a4749de4e)" style="fill: none; stroke: #006400; stroke-width: 1.5"/>
    <path d="M 315.886983 201.039417 
L 315.886983 119.167187 
" clip-path="url(#p0a4749de4e)" style="fill: none; stroke: #006400; stroke-width: 1.5"/>
    <path d="M 331.04512 217 
L 331.04512 119.890835 
" clip-path="url(#p0a4749de4e)" style="fill: none; stroke: #006400; stroke-width: 1.5"/>
    <path clip-path="url(#p0a4749de4e)" style="fill: none; stroke: #006400; stroke-width: 1.5"/>
   </g>
   <g id="line2d_36">
    <defs>
     <path id="m54219b9c3f" d="M 0 3 
C 0.795609 3 1.55874 2.683901 2.12132 2.12132 
C 2.683901 1.55874 3 0.795609 3 0 
C 3 -0.795609 2.683901 -1.55874 2.12132 -2.12132 
C 1.55874 -2.683901 0.795609 -3 0 -3 
C -0.795609 -3 -1.55874 -2.683901 -2.12132 -2.12132 
C -2.683901 -1.55874 -3 -0.795609 -3 0 
C -3 0.795609 -2.683901 1.55874 -2.12132 2.12132 
C -1.55874 2.683901 -0.795609 3 0 3 
z
" style="stroke: #8b0000"/>
    </defs>
    <g clip-path="url(#p0a4749de4e)">
     <use xlink:href="#m54219b9c3f" x="78.376269" y="71.207412" style="fill: #8b0000; stroke: #8b0000"/>
     <use xlink:href="#m54219b9c3f" x="93.534407" y="75.875042" style="fill: #8b0000; stroke: #8b0000"/>
     <use xlink:href="#m54219b9c3f" x="108.692544" y="80.54283" style="fill: #8b0000; stroke: #8b0000"/>
     <use xlink:href="#m54219b9c3f" x="123.850682" y="85.210617" style="fill: #8b0000; stroke: #8b0000"/>
     <use xlink:href="#m54219b9c3f" x="139.008819" y="89.878405" style="fill: #8b0000; stroke: #8b0000"/>
     <use xlink:href="#m54219b9c3f" x="154.166957" y="94.546193" style="fill: #8b0000; stroke: #8b0000"/>
     <use xlink:href="#m54219b9c3f" x="169.325095" y="99.213981" style="fill: #8b0000; stroke: #8b0000"/>
     <use xlink:href="#m54219b9c3f" x="184.483232" y="103.881768" style="fill: #8b0000; stroke: #8b0000"/>
     <use xlink:href="#m54219b9c3f" x="199.64137" y="108.549556" style="fill: #8b0000; stroke: #8b0000"/>
     <use xlink:href="#m54219b9c3f" x="214.799508" y="113.217339" style="fill: #8b0000; stroke: #8b0000"/>
     <use xlink:href="#m54219b9c3f" x="229.957645" y="117.885126" style="fill: #8b0000; stroke: #8b0000"/>
     <use xlink:href="#m54219b9c3f" x="245.115783" y="122.552901" style="fill: #8b0000; stroke: #8b0000"/>
     <use xlink:href="#m54219b9c3f" x="260.27392" y="127.220682" style="fill: #8b0000; stroke: #8b0000"/>
     <use xlink:href="#m54219b9c3f" x="275.432058" y="131.888491" style="fill: #8b0000; stroke: #8b0000"/>
     <use xlink:href="#m54219b9c3f" x="290.590196" y="136.556283" style="fill: #8b0000; stroke: #8b0000"/>
     <use xlink:href="#m54219b9c3f" x="305.748333" y="141.22407" style="fill: #8b0000; stroke: #8b0000"/>
     <use xlink:href="#m54219b9c3f" x="320.906471" y="145.891831" style="fill: #8b0000; stroke: #8b0000"/>
     <use xlink:href="#m54219b9c3f" x="336.064609" y="150.559579" style="fill: #8b0000; stroke: #8b0000"/>
    </g>
   </g>
   <g id="line2d_37">
    <defs>
     <path id="m8697bcaad6" d="M 0 3 
C 0.795609 3 1.55874 2.683901 2.12132 2.12132 
C 2.683901 1.55874 3 0.795609 3 0 
C 3 -0.795609 2.683901 -1.55874 2.12132 -2.12132 
C 1.55874 -2.683901 0.795609 -3 0 -3 
C -0.795609 -3 -1.55874 -2.683901 -2.12132 -2.12132 
C -2.683901 -1.55874 -3 -0.795609 -3 0 
C -3 0.795609 -2.683901 1.55874 -2.12132 2.12132 
C -1.55874 2.683901 -0.795609 3 0 3 
z
" style="stroke: #006400"/>
    </defs>
    <g clip-path="url(#p0a4749de4e)">
     <use xlink:href="#m8697bcaad6" x="73.356781" y="71.207177" style="fill: #006400; stroke: #006400"/>
     <use xlink:href="#m8697bcaad6" x="88.514918" y="75.875042" style="fill: #006400; stroke: #006400"/>
     <use xlink:href="#m8697bcaad6" x="103.673056" y="80.54283" style="fill: #006400; stroke: #006400"/>
     <use xlink:href="#m8697bcaad6" x="118.831194" y="85.210601" style="fill: #006400; stroke: #006400"/>
     <use xlink:href="#m8697bcaad6" x="133.989331" y="89.878405" style="fill: #006400; stroke: #006400"/>
     <use xlink:href="#m8697bcaad6" x="149.147469" y="94.546193" style="fill: #006400; stroke: #006400"/>
     <use xlink:href="#m8697bcaad6" x="164.305607" y="99.213981" style="fill: #006400; stroke: #006400"/>
     <use xlink:href="#m8697bcaad6" x="179.463744" y="103.881762" style="fill: #006400; stroke: #006400"/>
     <use xlink:href="#m8697bcaad6" x="194.621882" y="108.549556" style="fill: #006400; stroke: #006400"/>
     <use xlink:href="#m8697bcaad6" x="209.780019" y="113.217324" style="fill: #006400; stroke: #006400"/>
     <use xlink:href="#m8697bcaad6" x="224.938157" y="117.885132" style="fill: #006400; stroke: #006400"/>
     <use xlink:href="#m8697bcaad6" x="240.096295" y="122.552919" style="fill: #006400; stroke: #006400"/>
     <use xlink:href="#m8697bcaad6" x="255.254432" y="127.220682" style="fill: #006400; stroke: #006400"/>
     <use xlink:href="#m8697bcaad6" x="270.41257" y="131.888495" style="fill: #006400; stroke: #006400"/>
     <use xlink:href="#m8697bcaad6" x="285.570708" y="136.556283" style="fill: #006400; stroke: #006400"/>
     <use xlink:href="#m8697bcaad6" x="300.728845" y="141.22407" style="fill: #006400; stroke: #006400"/>
     <use xlink:href="#m8697bcaad6" x="315.886983" y="145.891851" style="fill: #006400; stroke: #006400"/>
     <use xlink:href="#m8697bcaad6" x="331.04512" y="150.559646" style="fill: #006400; stroke: #006400"/>
    </g>
   </g>
   <g id="patch_3">
    <path d="M 60.221389 170.728 
L 60.221389 25.44 
" style="fill: none; stroke: #000000; stroke-width: 0.8; stroke-linejoin: miter; stroke-linecap: square"/>
   </g>
   <g id="patch_4">
    <path d="M 349.2 170.728 
L 349.2 25.44 
" style="fill: none; stroke: #000000; stroke-width: 0.8; stroke-linejoin: miter; stroke-linecap: square"/>
   </g>
   <g id="patch_5">
    <path d="M 60.221389 170.728 
L 349.2 170.728 
" style="fill: none; stroke: #000000; stroke-width: 0.8; stroke-linejoin: miter; stroke-linecap: square"/>
   </g>
   <g id="patch_6">
    <path d="M 60.221389 25.44 
L 349.2 25.44 
" style="fill: none; stroke: #000000; stroke-width: 0.8; stroke-linejoin: miter; stroke-linecap: square"/>
   </g>
   <g id="text_6">
    <!-- N = 1000 -->
    <g transform="translate(176.110382 19.44) scale(0.12 -0.12)">
     <defs>
      <path id="DejaVuSans-4e" d="M 628 4666 
L 1478 4666 
L 3547 763 
L 3547 4666 
L 4159 4666 
L 4159 0 
L 3309 0 
L 1241 3903 
L 1241 0 
L 628 0 
L 628 4666 
z
" transform="scale(0.015625)"/>
      <path id="DejaVuSans-3d" d="M 678 2906 
L 4684 2906 
L 4684 2381 
L 678 2381 
L 678 2906 
z
M 678 1631 
L 4684 1631 
L 4684 1100 
L 678 1100 
L 678 1631 
z
" transform="scale(0.015625)"/>
     </defs>
     <use xlink:href="#DejaVuSans-4e"/>
     <use xlink:href="#DejaVuSans-20" x="74.804688"/>
     <use xlink:href="#DejaVuSans-3d" x="106.591797"/>
     <use xlink:href="#DejaVuSans-20" x="190.380859"/>
     <use xlink:href="#DejaVuSans-31" x="222.167969"/>
     <use xlink:href="#DejaVuSans-30" x="285.791016"/>
     <use xlink:href="#DejaVuSans-30" x="349.414062"/>
     <use xlink:href="#DejaVuSans-30" x="413.037109"/>
    </g>
   </g>
   <g id="legend_1">
    <g id="patch_7">
     <path d="M 248.3 77.474375 
L 342.2 77.474375 
Q 344.2 77.474375 344.2 75.474375 
L 344.2 32.44 
Q 344.2 30.44 342.2 30.44 
L 248.3 30.44 
Q 246.3 30.44 246.3 32.44 
L 246.3 75.474375 
Q 246.3 77.474375 248.3 77.474375 
z
" style="fill: #ffffff; opacity: 0.8; stroke: #cccccc; stroke-linejoin: miter"/>
    </g>
    <g id="patch_8">
     <path d="M 250.3 42.038438 
L 270.3 42.038438 
L 270.3 35.038438 
L 250.3 35.038438 
z
" style="fill: #008000; fill-opacity: 0.5"/>
    </g>
    <g id="text_7">
     <!-- $1\sigma$ Nuisance -->
     <g transform="translate(278.3 42.038438) scale(0.1 -0.1)">
      <defs>
       <path id="DejaVuSans-Oblique-3c3" d="M 2219 3044 
Q 1744 3044 1422 2700 
Q 1081 2341 969 1747 
Q 844 1119 1044 756 
Q 1241 397 1706 397 
Q 2166 397 2503 759 
Q 2844 1122 2966 1747 
Q 3075 2319 2881 2700 
Q 2700 3044 2219 3044 
z
M 2309 3503 
L 4219 3500 
L 4106 2925 
L 3463 2925 
Q 3706 2438 3575 1747 
Q 3406 888 2884 400 
Q 2359 -91 1609 -91 
Q 856 -91 525 400 
Q 194 888 363 1747 
Q 528 2609 1050 3097 
Q 1484 3503 2309 3503 
z
" transform="scale(0.015625)"/>
       <path id="DejaVuSans-75" d="M 544 1381 
L 544 3500 
L 1119 3500 
L 1119 1403 
Q 1119 906 1312 657 
Q 1506 409 1894 409 
Q 2359 409 2629 706 
Q 2900 1003 2900 1516 
L 2900 3500 
L 3475 3500 
L 3475 0 
L 2900 0 
L 2900 538 
Q 2691 219 2414 64 
Q 2138 -91 1772 -91 
Q 1169 -91 856 284 
Q 544 659 544 1381 
z
M 1991 3584 
L 1991 3584 
z
" transform="scale(0.015625)"/>
       <path id="DejaVuSans-69" d="M 603 3500 
L 1178 3500 
L 1178 0 
L 603 0 
L 603 3500 
z
M 603 4863 
L 1178 4863 
L 1178 4134 
L 603 4134 
L 603 4863 
z
" transform="scale(0.015625)"/>
       <path id="DejaVuSans-61" d="M 2194 1759 
Q 1497 1759 1228 1600 
Q 959 1441 959 1056 
Q 959 750 1161 570 
Q 1363 391 1709 391 
Q 2188 391 2477 730 
Q 2766 1069 2766 1631 
L 2766 1759 
L 2194 1759 
z
M 3341 1997 
L 3341 0 
L 2766 0 
L 2766 531 
Q 2569 213 2275 61 
Q 1981 -91 1556 -91 
Q 1019 -91 701 211 
Q 384 513 384 1019 
Q 384 1609 779 1909 
Q 1175 2209 1959 2209 
L 2766 2209 
L 2766 2266 
Q 2766 2663 2505 2880 
Q 2244 3097 1772 3097 
Q 1472 3097 1187 3025 
Q 903 2953 641 2809 
L 641 3341 
Q 956 3463 1253 3523 
Q 1550 3584 1831 3584 
Q 2591 3584 2966 3190 
Q 3341 2797 3341 1997 
z
" transform="scale(0.015625)"/>
      </defs>
      <use xlink:href="#DejaVuSans-31" transform="translate(0 0.015625)"/>
      <use xlink:href="#DejaVuSans-Oblique-3c3" transform="translate(63.623047 0.015625)"/>
      <use xlink:href="#DejaVuSans-20" transform="translate(127.001953 0.015625)"/>
      <use xlink:href="#DejaVuSans-4e" transform="translate(158.789062 0.015625)"/>
      <use xlink:href="#DejaVuSans-75" transform="translate(233.59375 0.015625)"/>
      <use xlink:href="#DejaVuSans-69" transform="translate(296.972656 0.015625)"/>
      <use xlink:href="#DejaVuSans-73" transform="translate(324.755859 0.015625)"/>
      <use xlink:href="#DejaVuSans-61" transform="translate(376.855469 0.015625)"/>
      <use xlink:href="#DejaVuSans-6e" transform="translate(438.134766 0.015625)"/>
      <use xlink:href="#DejaVuSans-63" transform="translate(501.513672 0.015625)"/>
      <use xlink:href="#DejaVuSans-65" transform="translate(556.494141 0.015625)"/>
     </g>
    </g>
    <g id="patch_9">
     <path d="M 250.3 56.716563 
L 270.3 56.716563 
L 270.3 49.716563 
L 250.3 49.716563 
z
" style="fill: #ff0000; fill-opacity: 0.6"/>
    </g>
    <g id="text_8">
     <!-- $1\sigma$ Standard -->
     <g transform="translate(278.3 56.716563) scale(0.1 -0.1)">
      <defs>
       <path id="DejaVuSans-53" d="M 3425 4513 
L 3425 3897 
Q 3066 4069 2747 4153 
Q 2428 4238 2131 4238 
Q 1616 4238 1336 4038 
Q 1056 3838 1056 3469 
Q 1056 3159 1242 3001 
Q 1428 2844 1947 2747 
L 2328 2669 
Q 3034 2534 3370 2195 
Q 3706 1856 3706 1288 
Q 3706 609 3251 259 
Q 2797 -91 1919 -91 
Q 1588 -91 1214 -16 
Q 841 59 441 206 
L 441 856 
Q 825 641 1194 531 
Q 1563 422 1919 422 
Q 2459 422 2753 634 
Q 3047 847 3047 1241 
Q 3047 1584 2836 1778 
Q 2625 1972 2144 2069 
L 1759 2144 
Q 1053 2284 737 2584 
Q 422 2884 422 3419 
Q 422 4038 858 4394 
Q 1294 4750 2059 4750 
Q 2388 4750 2728 4690 
Q 3069 4631 3425 4513 
z
" transform="scale(0.015625)"/>
       <path id="DejaVuSans-74" d="M 1172 4494 
L 1172 3500 
L 2356 3500 
L 2356 3053 
L 1172 3053 
L 1172 1153 
Q 1172 725 1289 603 
Q 1406 481 1766 481 
L 2356 481 
L 2356 0 
L 1766 0 
Q 1100 0 847 248 
Q 594 497 594 1153 
L 594 3053 
L 172 3053 
L 172 3500 
L 594 3500 
L 594 4494 
L 1172 4494 
z
" transform="scale(0.015625)"/>
      </defs>
      <use xlink:href="#DejaVuSans-31" transform="translate(0 0.015625)"/>
      <use xlink:href="#DejaVuSans-Oblique-3c3" transform="translate(63.623047 0.015625)"/>
      <use xlink:href="#DejaVuSans-20" transform="translate(127.001953 0.015625)"/>
      <use xlink:href="#DejaVuSans-53" transform="translate(158.789062 0.015625)"/>
      <use xlink:href="#DejaVuSans-74" transform="translate(222.265625 0.015625)"/>
      <use xlink:href="#DejaVuSans-61" transform="translate(261.474609 0.015625)"/>
      <use xlink:href="#DejaVuSans-6e" transform="translate(322.753906 0.015625)"/>
      <use xlink:href="#DejaVuSans-64" transform="translate(386.132812 0.015625)"/>
      <use xlink:href="#DejaVuSans-61" transform="translate(449.609375 0.015625)"/>
      <use xlink:href="#DejaVuSans-72" transform="translate(510.888672 0.015625)"/>
      <use xlink:href="#DejaVuSans-64" transform="translate(552.001953 0.015625)"/>
     </g>
    </g>
    <g id="line2d_38">
     <path d="M 250.3 67.894688 
L 260.3 67.894688 
L 270.3 67.894688 
" style="fill: none; stroke-dasharray: 1.5,2.475; stroke-dashoffset: 0; stroke: #000000; stroke-width: 1.5"/>
    </g>
    <g id="text_9">
     <!-- Input -->
     <g transform="translate(278.3 71.394688) scale(0.1 -0.1)">
      <defs>
       <path id="DejaVuSans-49" d="M 628 4666 
L 1259 4666 
L 1259 0 
L 628 0 
L 628 4666 
z
" transform="scale(0.015625)"/>
       <path id="DejaVuSans-70" d="M 1159 525 
L 1159 -1331 
L 581 -1331 
L 581 3500 
L 1159 3500 
L 1159 2969 
Q 1341 3281 1617 3432 
Q 1894 3584 2278 3584 
Q 2916 3584 3314 3078 
Q 3713 2572 3713 1747 
Q 3713 922 3314 415 
Q 2916 -91 2278 -91 
Q 1894 -91 1617 61 
Q 1341 213 1159 525 
z
M 3116 1747 
Q 3116 2381 2855 2742 
Q 2594 3103 2138 3103 
Q 1681 3103 1420 2742 
Q 1159 2381 1159 1747 
Q 1159 1113 1420 752 
Q 1681 391 2138 391 
Q 2594 391 2855 752 
Q 3116 1113 3116 1747 
z
" transform="scale(0.015625)"/>
      </defs>
      <use xlink:href="#DejaVuSans-49"/>
      <use xlink:href="#DejaVuSans-6e" x="29.492188"/>
      <use xlink:href="#DejaVuSans-70" x="92.871094"/>
      <use xlink:href="#DejaVuSans-75" x="156.347656"/>
      <use xlink:href="#DejaVuSans-74" x="219.726562"/>
     </g>
    </g>
   </g>
  </g>
 </g>
 <defs>
  <clipPath id="p0a4749de4e">
   <rect x="60.221389" y="25.44" width="288.978611" height="145.288"/>
  </clipPath>
 </defs>
</svg>
