<?xml version="1.0" encoding="utf-8" standalone="no"?>
<!DOCTYPE svg PUBLIC "-//W3C//DTD SVG 1.1//EN"
  "http://www.w3.org/Graphics/SVG/1.1/DTD/svg11.dtd">
<svg xmlns:xlink="http://www.w3.org/1999/xlink" width="504pt" height="180pt" viewBox="0 0 504 180" xmlns="http://www.w3.org/2000/svg" version="1.1">
 <metadata>
  <rdf:RDF xmlns:dc="http://purl.org/dc/elements/1.1/" xmlns:cc="http://creativecommons.org/ns#" xmlns:rdf="http://www.w3.org/1999/02/22-rdf-syntax-ns#">
   <cc:Work>
    <dc:type rdf:resource="http://purl.org/dc/dcmitype/StillImage"/>
    <dc:date>2023-08-17T15:19:13.241220</dc:date>
    <dc:format>image/svg+xml</dc:format>
    <dc:creator>
     <cc:Agent>
      <dc:title>Matplotlib v3.7.1, https://matplotlib.org/</dc:title>
     </cc:Agent>
    </dc:creator>
   </cc:Work>
  </rdf:RDF>
 </metadata>
 <defs>
  <style type="text/css">*{stroke-linejoin: round; stroke-linecap: butt}</style>
 </defs>
 <g id="figure_1">
  <g id="patch_1">
   <path d="M 0 180
L 504 180
L 504 0
L 0 0
z
" style="fill: #ffffff"/>
  </g>
  <g id="axes_1">
   <g id="patch_2">
    <path d="M 63 160.2
L 240.545455 160.2
L 240.545455 21.6
L 63 21.6
z
" style="fill: #ffffff"/>
   </g>
   <g id="matplotlib.axis_1">
    <g id="xtick_1">
     <g id="line2d_1">
      <defs>
       <path id="m8b95b9d60b" d="M 0 0
L 0 3.5
" style="stroke: #000000; stroke-width: 0.8"/>
      </defs>
      <g>
       <use xlink:href="#m8b95b9d60b" x="71.070248" y="160.2" style="stroke: #000000; stroke-width: 0.8"/>
      </g>
     </g>
     <g id="text_1">
      <!-- -10% -->
      <g transform="translate(64.428475 174.118498) scale(0.1 -0.1)">
       <defs>
        <path id="CMR17-2d" d="M 1632 1254
L 1632 1536
L 26 1536
L 26 1254
L 1632 1254
z
" transform="scale(0.015625)"/>
        <path id="CMR17-31" d="M 1702 4083
C 1702 4217 1696 4224 1606 4224
C 1357 3927 979 3833 621 3820
C 602 3820 570 3820 563 3808
C 557 3795 557 3782 557 3648
C 755 3648 1088 3686 1344 3839
L 1344 467
C 1344 243 1331 166 781 166
L 589 166
L 589 0
C 896 6 1216 12 1523 12
C 1830 12 2150 6 2458 0
L 2458 166
L 2266 166
C 1715 166 1702 236 1702 467
L 1702 4083
z
" transform="scale(0.015625)"/>
        <path id="CMR17-30" d="M 2688 2038
C 2688 2430 2682 3099 2413 3613
C 2176 4063 1798 4224 1466 4224
C 1158 4224 768 4082 525 3620
C 269 3137 243 2539 243 2038
C 243 1671 250 1112 448 623
C 723 -39 1216 -128 1466 -128
C 1760 -128 2208 -7 2470 604
C 2662 1048 2688 1568 2688 2038
z
M 1466 -26
C 1056 -26 813 328 723 816
C 653 1196 653 1749 653 2109
C 653 2604 653 3015 736 3407
C 858 3954 1216 4121 1466 4121
C 1728 4121 2067 3947 2189 3420
C 2272 3054 2278 2623 2278 2109
C 2278 1691 2278 1176 2202 797
C 2067 96 1690 -26 1466 -26
z
" transform="scale(0.015625)"/>
       </defs>
       <use xlink:href="#CMR17-2d" transform="scale(0.996264)"/>
       <use xlink:href="#CMR17-31" transform="translate(30.075966 0) scale(0.996264)"/>
       <use xlink:href="#CMR17-30" transform="translate(75.766443 0) scale(0.996264)"/>
      </g>
     </g>
    </g>
    <g id="xtick_2">
     <g id="line2d_2">
      <g>
       <use xlink:href="#m8b95b9d60b" x="151.772727" y="160.2" style="stroke: #000000; stroke-width: 0.8"/>
      </g>
     </g>
     <g id="text_2">
      <!-- 0% -->
      <g transform="translate(149.28206 174.118498) scale(0.1 -0.1)">
       <use xlink:href="#CMR17-30" transform="scale(0.996264)"/>
      </g>
     </g>
    </g>
    <g id="xtick_3">
     <g id="line2d_3">
      <g>
       <use xlink:href="#m8b95b9d60b" x="232.475207" y="160.2" style="stroke: #000000; stroke-width: 0.8"/>
      </g>
     </g>
     <g id="text_3">
      <!-- 10% -->
      <g transform="translate(227.493871 174.118498) scale(0.1 -0.1)">
       <use xlink:href="#CMR17-31" transform="scale(0.996264)"/>
       <use xlink:href="#CMR17-30" transform="translate(45.690477 0) scale(0.996264)"/>
      </g>
     </g>
    </g>
    <g id="text_4">
     <!-- Energy Bias -->
     <g transform="translate(125.302487 186.974175) scale(0.1 -0.1)">
      <defs>
       <path id="CMR17-45" d="M 3885 1614
L 3770 1614
C 3629 676 3546 166 2419 166
L 1530 166
C 1274 166 1261 198 1261 415
L 1261 2176
L 1862 2176
C 2464 2176 2522 1959 2522 1429
L 2637 1429
L 2637 3086
L 2522 3086
C 2522 2558 2464 2342 1862 2342
L 1261 2342
L 1261 3924
C 1261 4141 1274 4172 1530 4172
L 2406 4172
C 3398 4172 3514 3778 3603 2933
L 3718 2933
L 3565 4339
L 326 4339
L 326 4172
C 768 4172 838 4172 838 3886
L 838 453
C 838 166 768 166 326 166
L 326 0
L 3654 0
L 3885 1614
z
" transform="scale(0.015625)"/>
       <path id="CMR17-6e" d="M 2656 1954
C 2656 2282 2592 2816 1837 2816
C 1331 2816 1069 2424 973 2166
L 966 2166
L 966 2816
L 211 2745
L 211 2578
C 589 2578 646 2540 646 2231
L 646 443
C 646 198 621 166 211 166
L 211 0
C 365 12 646 12 813 12
C 979 12 1267 12 1421 0
L 1421 166
C 1011 166 986 192 986 443
L 986 1678
C 986 2269 1344 2713 1792 2713
C 2266 2713 2317 2289 2317 1980
L 2317 443
C 2317 198 2291 166 1882 166
L 1882 0
C 2035 12 2317 12 2483 12
C 2650 12 2938 12 3091 0
L 3091 166
C 2682 166 2656 192 2656 443
L 2656 1954
z
" transform="scale(0.015625)"/>
       <path id="CMR17-65" d="M 2438 1503
C 2464 1529 2464 1542 2464 1606
C 2464 2251 2118 2816 1389 2816
C 710 2816 173 2175 173 1394
C 173 554 781 -64 1459 -64
C 2176 -64 2458 619 2458 755
C 2458 800 2419 800 2406 800
C 2362 800 2355 787 2330 709
C 2189 270 1837 51 1504 51
C 1229 51 954 206 781 490
C 582 819 582 1200 582 1503
L 2438 1503
z
M 589 1600
C 634 2511 1126 2713 1382 2713
C 1818 2713 2112 2308 2118 1600
L 589 1600
z
" transform="scale(0.015625)"/>
       <path id="CMR17-72" d="M 960 1517
C 960 2134 1222 2713 1702 2713
C 1747 2713 1792 2707 1837 2687
C 1837 2687 1696 2642 1696 2475
C 1696 2321 1818 2257 1914 2257
C 1990 2257 2131 2302 2131 2482
C 2131 2687 1926 2816 1709 2816
C 1222 2816 1011 2340 947 2115
L 941 2115
L 941 2816
L 198 2745
L 198 2578
C 576 2578 634 2540 634 2231
L 634 443
C 634 198 608 166 198 166
L 198 0
C 352 12 646 12 813 12
C 998 12 1325 12 1498 0
L 1498 166
C 1037 166 960 166 960 455
L 960 1517
z
" transform="scale(0.015625)"/>
       <path id="CMR17-67" d="M 710 1165
C 832 1068 1043 960 1299 960
C 1805 960 2240 1359 2240 1895
C 2240 2063 2189 2321 1997 2521
C 2176 2713 2438 2777 2586 2777
C 2611 2777 2650 2777 2682 2758
C 2656 2751 2598 2726 2598 2623
C 2598 2540 2656 2483 2739 2483
C 2835 2483 2886 2547 2886 2630
C 2886 2751 2790 2880 2586 2880
C 2330 2880 2106 2758 1926 2591
C 1734 2764 1504 2828 1299 2828
C 794 2828 358 2431 358 1895
C 358 1527 570 1294 634 1230
C 442 1004 442 742 442 710
C 442 544 506 300 723 166
C 390 82 128 -184 128 -517
C 128 -996 736 -1344 1466 -1344
C 2170 -1344 2803 -1009 2803 -510
C 2803 384 1856 384 1363 384
C 1216 384 954 384 922 390
C 723 422 589 601 589 825
C 589 883 589 1024 710 1165
z
M 1299 1068
C 736 1068 736 1766 736 1895
C 736 2024 736 2719 1299 2719
C 1862 2719 1862 2024 1862 1895
C 1862 1766 1862 1068 1299 1068
z
M 1466 -1236
C 826 -1236 384 -883 384 -517
C 384 -311 493 -118 634 -11
C 794 102 858 102 1293 102
C 1818 102 2547 102 2547 -517
C 2547 -883 2106 -1236 1466 -1236
z
" transform="scale(0.015625)"/>
       <path id="CMR17-79" d="M 2496 2183
C 2656 2579 2944 2585 3034 2585
L 3034 2752
C 2912 2745 2752 2739 2630 2739
C 2496 2739 2285 2739 2157 2752
L 2157 2585
C 2400 2566 2406 2384 2406 2332
C 2406 2268 2394 2235 2362 2158
L 1664 409
L 902 2300
C 870 2378 870 2423 870 2430
C 870 2572 1018 2585 1171 2585
L 1171 2752
C 1018 2739 742 2739 582 2739
C 410 2739 205 2739 64 2752
L 64 2585
C 410 2585 448 2553 531 2345
L 1485 -31
C 1197 -795 1030 -1242 627 -1242
C 557 -1242 397 -1223 282 -1106
C 429 -1093 493 -1002 493 -892
C 493 -782 416 -685 288 -685
C 147 -685 77 -782 77 -899
C 77 -1158 339 -1344 627 -1344
C 998 -1344 1229 -983 1357 -659
L 2496 2183
z
" transform="scale(0.015625)"/>
       <path id="CMR17-42" d="M 333 4352
L 333 4185
C 774 4185 845 4185 845 3897
L 845 451
C 845 166 774 166 333 166
L 333 0
L 2534 0
C 3354 0 3885 578 3885 1155
C 3885 1726 3360 2214 2675 2259
C 3290 2380 3718 2790 3718 3276
C 3718 3808 3194 4352 2368 4352
L 333 4352
z
M 1248 2304
L 1248 3936
C 1248 4153 1261 4185 1517 4185
L 2336 4185
C 2970 4185 3251 3673 3251 3276
C 3251 2790 2861 2304 2170 2304
L 1248 2304
z
M 1517 166
C 1261 166 1248 198 1248 413
L 1248 2201
L 2432 2201
C 3091 2201 3411 1624 3411 1161
C 3411 698 3046 166 2349 166
L 1517 166
z
" transform="scale(0.015625)"/>
       <path id="CMR17-69" d="M 992 3961
C 992 4102 877 4224 730 4224
C 589 4224 467 4108 467 3961
C 467 3820 582 3699 730 3699
C 870 3699 992 3814 992 3961
z
M 243 2745
L 243 2579
C 602 2579 653 2540 653 2231
L 653 443
C 653 198 627 166 218 166
L 218 0
C 371 12 646 12 806 12
C 960 12 1222 12 1370 0
L 1370 166
C 992 166 979 205 979 436
L 979 2816
L 243 2745
z
" transform="scale(0.015625)"/>
       <path id="CMR17-61" d="M 2304 1656
C 2304 2048 2304 2275 2035 2534
C 1798 2751 1523 2816 1306 2816
C 800 2816 435 2408 435 1977
C 435 1740 627 1728 666 1728
C 749 1728 896 1779 896 1958
C 896 2118 774 2188 666 2188
C 640 2188 608 2182 589 2176
C 723 2594 1069 2713 1293 2713
C 1613 2713 1965 2421 1965 1875
L 1965 1632
C 1587 1619 1133 1568 774 1373
C 371 1147 256 822 256 576
C 256 77 832 -64 1171 -64
C 1523 -64 1850 135 1990 505
C 2003 219 2182 -39 2464 -39
C 2598 -39 2938 51 2938 563
L 2938 926
L 2822 926
L 2822 557
C 2822 161 2650 109 2566 109
C 2304 109 2304 446 2304 732
L 2304 1656
z
M 1965 887
C 1965 323 1568 38 1216 38
C 896 38 646 278 646 576
C 646 771 730 1114 1101 1322
C 1408 1497 1760 1523 1965 1536
L 1965 887
z
" transform="scale(0.015625)"/>
       <path id="CMR17-73" d="M 1978 2688
C 1978 2803 1971 2809 1933 2809
C 1907 2809 1901 2803 1824 2707
C 1805 2681 1747 2617 1728 2592
C 1523 2809 1235 2816 1126 2816
C 416 2816 160 2444 160 2073
C 160 1497 813 1363 998 1324
C 1402 1241 1542 1216 1677 1100
C 1760 1024 1901 883 1901 652
C 1901 384 1747 38 1158 38
C 602 38 403 460 288 1024
C 269 1113 269 1120 218 1120
C 166 1120 160 1113 160 985
L 160 64
C 160 -52 166 -58 205 -58
C 237 -58 243 -52 275 0
C 314 57 410 211 448 275
C 576 102 800 -64 1158 -64
C 1792 -64 2131 281 2131 780
C 2131 1107 1958 1280 1875 1356
C 1683 1555 1459 1600 1190 1651
C 838 1728 390 1817 390 2208
C 390 2374 480 2726 1126 2726
C 1811 2726 1850 2086 1862 1881
C 1869 1849 1901 1843 1920 1843
C 1978 1843 1978 1862 1978 1971
L 1978 2688
z
" transform="scale(0.015625)"/>
      </defs>
      <use xlink:href="#CMR17-45" transform="scale(0.996264)"/>
      <use xlink:href="#CMR17-6e" transform="translate(62.586301 0) scale(0.996264)"/>
      <use xlink:href="#CMR17-65" transform="translate(113.48167 0) scale(0.996264)"/>
      <use xlink:href="#CMR17-72" transform="translate(153.967331 0) scale(0.996264)"/>
      <use xlink:href="#CMR17-67" transform="translate(189.248099 0) scale(0.996264)"/>
      <use xlink:href="#CMR17-79" transform="translate(234.938576 0) scale(0.996264)"/>
      <use xlink:href="#CMR17-42" transform="translate(313.307458 0) scale(0.996264)"/>
      <use xlink:href="#CMR17-69" transform="translate(378.496212 0) scale(0.996264)"/>
      <use xlink:href="#CMR17-61" transform="translate(403.367271 0) scale(0.996264)"/>
      <use xlink:href="#CMR17-73" transform="translate(449.057748 0) scale(0.996264)"/>
     </g>
    </g>
   </g>
   <g id="matplotlib.axis_2">
    <g id="ytick_1">
     <g id="line2d_4">
      <defs>
       <path id="mf5c1c22857" d="M 0 0
L -3.5 0
" style="stroke: #000000; stroke-width: 0.8"/>
      </defs>
      <g>
       <use xlink:href="#mf5c1c22857" x="63" y="129.45951" style="stroke: #000000; stroke-width: 0.8"/>
      </g>
     </g>
     <g id="text_5">
      <!-- $\mathdefault{−0.05}$ -->
      <g transform="translate(30.539842 132.918759) scale(0.1 -0.1)">
       <defs>
        <path id="CMSY10-0" d="M 4218 1472
C 4326 1472 4442 1472 4442 1600
C 4442 1728 4326 1728 4218 1728
L 755 1728
C 646 1728 531 1728 531 1600
C 531 1472 646 1472 755 1472
L 4218 1472
z
" transform="scale(0.015625)"/>
        <path id="CMMI12-3a" d="M 1178 307
C 1178 492 1024 620 870 620
C 685 620 557 467 557 313
C 557 128 710 0 864 0
C 1050 0 1178 153 1178 307
z
" transform="scale(0.015625)"/>
        <path id="CMR17-35" d="M 730 3750
C 794 3724 1056 3641 1325 3641
C 1920 3641 2246 3961 2432 4140
C 2432 4191 2432 4224 2394 4224
C 2387 4224 2374 4224 2323 4198
C 2099 4102 1837 4032 1517 4032
C 1325 4032 1037 4055 723 4191
C 653 4224 640 4224 634 4224
C 602 4224 595 4217 595 4090
L 595 2231
C 595 2113 595 2080 659 2080
C 691 2080 704 2093 736 2139
C 941 2435 1222 2560 1542 2560
C 1766 2560 2246 2415 2246 1293
C 2246 1087 2246 716 2054 422
C 1894 159 1645 25 1370 25
C 947 25 518 319 403 812
C 429 806 480 793 506 793
C 589 793 749 838 749 1036
C 749 1209 627 1280 506 1280
C 358 1280 262 1190 262 1011
C 262 454 704 -128 1382 -128
C 2042 -128 2669 441 2669 1267
C 2669 2054 2170 2662 1549 2662
C 1222 2662 947 2540 730 2304
L 730 3750
z
" transform="scale(0.015625)"/>
       </defs>
       <use xlink:href="#CMSY10-0" transform="scale(0.996264)"/>
       <use xlink:href="#CMR17-30" transform="translate(77.487468 0) scale(0.996264)"/>
       <use xlink:href="#CMMI12-3a" transform="translate(123.177945 0) scale(0.996264)"/>
       <use xlink:href="#CMR17-30" transform="translate(150.275122 0) scale(0.996264)"/>
       <use xlink:href="#CMR17-35" transform="translate(195.965599 0) scale(0.996264)"/>
      </g>
     </g>
    </g>
    <g id="ytick_2">
     <g id="line2d_5">
      <g>
       <use xlink:href="#mf5c1c22857" x="63" y="90.9" style="stroke: #000000; stroke-width: 0.8"/>
      </g>
     </g>
     <g id="text_6">
      <!-- $\mathdefault{0.00}$ -->
      <g transform="translate(38.288586 94.359249) scale(0.1 -0.1)">
       <use xlink:href="#CMR17-30" transform="scale(0.996264)"/>
       <use xlink:href="#CMMI12-3a" transform="translate(45.690477 0) scale(0.996264)"/>
       <use xlink:href="#CMR17-30" transform="translate(72.787654 0) scale(0.996264)"/>
       <use xlink:href="#CMR17-30" transform="translate(118.478131 0) scale(0.996264)"/>
      </g>
     </g>
    </g>
    <g id="ytick_3">
     <g id="line2d_6">
      <g>
       <use xlink:href="#mf5c1c22857" x="63" y="52.34049" style="stroke: #000000; stroke-width: 0.8"/>
      </g>
     </g>
     <g id="text_7">
      <!-- $\mathdefault{0.05}$ -->
      <g transform="translate(38.288586 55.799739) scale(0.1 -0.1)">
       <use xlink:href="#CMR17-30" transform="scale(0.996264)"/>
       <use xlink:href="#CMMI12-3a" transform="translate(45.690477 0) scale(0.996264)"/>
       <use xlink:href="#CMR17-30" transform="translate(72.787654 0) scale(0.996264)"/>
       <use xlink:href="#CMR17-35" transform="translate(118.478131 0) scale(0.996264)"/>
      </g>
     </g>
    </g>
   </g>
   <g id="LineCollection_1">
    <path d="M 71.070248 153.9
L 71.070248 27.9
" clip-path="url(#pa2d041e691)" style="fill: none; stroke: #191970; stroke-width: 1.5"/>
   </g>
   <g id="LineCollection_2">
    <path d="M 71.070248 90.9
L 232.475207 90.9
" clip-path="url(#pa2d041e691)" style="fill: none; stroke: #a9a9a9; stroke-width: 1.5"/>
   </g>
   <g id="line2d_7">
    <defs>
     <path id="mb6706e6edc" d="M 0 3
C 0.795609 3 1.55874 2.683901 2.12132 2.12132
C 2.683901 1.55874 3 0.795609 3 0
C 3 -0.795609 2.683901 -1.55874 2.12132 -2.12132
C 1.55874 -2.683901 0.795609 -3 0 -3
C -0.795609 -3 -1.55874 -2.683901 -2.12132 -2.12132
C -2.683901 -1.55874 -3 -0.795609 -3 0
C -3 0.795609 -2.683901 1.55874 -2.12132 2.12132
C -1.55874 2.683901 -0.795609 3 0 3
z
" style="stroke: #191970"/>
    </defs>
    <g clip-path="url(#pa2d041e691)">
     <use xlink:href="#mb6706e6edc" x="71.070248" y="90.9" style="fill: #191970; stroke: #191970"/>
    </g>
   </g>
   <g id="patch_3">
    <path d="M 63 160.2
L 63 21.6
" style="fill: none; stroke: #000000; stroke-width: 0.8; stroke-linejoin: miter; stroke-linecap: square"/>
   </g>
   <g id="patch_4">
    <path d="M 240.545455 160.2
L 240.545455 21.6
" style="fill: none; stroke: #000000; stroke-width: 0.8; stroke-linejoin: miter; stroke-linecap: square"/>
   </g>
   <g id="patch_5">
    <path d="M 63 160.2
L 240.545455 160.2
" style="fill: none; stroke: #000000; stroke-width: 0.8; stroke-linejoin: miter; stroke-linecap: square"/>
   </g>
   <g id="patch_6">
    <path d="M 63 21.6
L 240.545455 21.6
" style="fill: none; stroke: #000000; stroke-width: 0.8; stroke-linejoin: miter; stroke-linecap: square"/>
   </g>
   <g id="text_8">
    <!-- bias -->
    <g transform="translate(141.660061 15.6) scale(0.12 -0.12)">
     <defs>
      <path id="CMR17-62" d="M 960 4416
L 198 4345
L 198 4179
C 576 4179 634 4141 634 3843
L 634 -13
L 749 -13
L 934 445
C 1120 141 1395 -64 1766 -64
C 2406 -64 3053 503 3053 1382
C 3053 2209 2477 2816 1830 2816
C 1434 2816 1152 2603 960 2351
L 960 4416
z
M 973 2022
C 973 2138 973 2157 1062 2293
C 1312 2681 1670 2713 1792 2713
C 1984 2713 2643 2610 2643 1388
C 2643 109 1888 38 1734 38
C 1536 38 1248 115 1043 490
C 973 613 973 626 973 742
L 973 2022
z
" transform="scale(0.015625)"/>
     </defs>
     <use xlink:href="#CMR17-62" transform="scale(0.996264)"/>
     <use xlink:href="#CMR17-69" transform="translate(50.89537 0) scale(0.996264)"/>
     <use xlink:href="#CMR17-61" transform="translate(75.766428 0) scale(0.996264)"/>
     <use xlink:href="#CMR17-73" transform="translate(121.456905 0) scale(0.996264)"/>
    </g>
   </g>
   <g id="legend_1">
    <g id="patch_7">
     <path d="M 247.545455 94.9
L 251.545455 94.9
Q 253.545455 94.9 253.545455 92.9
L 253.545455 88.9
Q 253.545455 86.9 251.545455 86.9
L 247.545455 86.9
Q 245.545455 86.9 245.545455 88.9
L 245.545455 92.9
Q 245.545455 94.9 247.545455 94.9
z
" style="fill: #ffffff; opacity: 0.8; stroke: #cccccc; stroke-linejoin: miter"/>
    </g>
   </g>
  </g>
  <g id="axes_2">
   <g id="patch_8">
    <path d="M 276.054545 160.2
L 453.6 160.2
L 453.6 21.6
L 276.054545 21.6
z
" style="fill: #ffffff"/>
   </g>
   <g id="matplotlib.axis_3">
    <g id="xtick_4">
     <g id="line2d_8">
      <g>
       <use xlink:href="#m8b95b9d60b" x="284.124793" y="160.2" style="stroke: #000000; stroke-width: 0.8"/>
      </g>
     </g>
     <g id="text_9">
      <!-- -10% -->
      <g transform="translate(277.483021 174.118498) scale(0.1 -0.1)">
       <use xlink:href="#CMR17-2d" transform="scale(0.996264)"/>
       <use xlink:href="#CMR17-31" transform="translate(30.075966 0) scale(0.996264)"/>
       <use xlink:href="#CMR17-30" transform="translate(75.766443 0) scale(0.996264)"/>
      </g>
     </g>
    </g>
    <g id="xtick_5">
     <g id="line2d_9">
      <g>
       <use xlink:href="#m8b95b9d60b" x="364.827273" y="160.2" style="stroke: #000000; stroke-width: 0.8"/>
      </g>
     </g>
     <g id="text_10">
      <!-- 0% -->
      <g transform="translate(362.336605 174.118498) scale(0.1 -0.1)">
       <use xlink:href="#CMR17-30" transform="scale(0.996264)"/>
      </g>
     </g>
    </g>
    <g id="xtick_6">
     <g id="line2d_10">
      <g>
       <use xlink:href="#m8b95b9d60b" x="445.529752" y="160.2" style="stroke: #000000; stroke-width: 0.8"/>
      </g>
     </g>
     <g id="text_11">
      <!-- 10% -->
      <g transform="translate(440.548417 174.118498) scale(0.1 -0.1)">
       <use xlink:href="#CMR17-31" transform="scale(0.996264)"/>
       <use xlink:href="#CMR17-30" transform="translate(45.690477 0) scale(0.996264)"/>
      </g>
     </g>
    </g>
    <g id="text_12">
     <!-- Energy Bias -->
     <g transform="translate(338.357032 186.974175) scale(0.1 -0.1)">
      <use xlink:href="#CMR17-45" transform="scale(0.996264)"/>
      <use xlink:href="#CMR17-6e" transform="translate(62.586301 0) scale(0.996264)"/>
      <use xlink:href="#CMR17-65" transform="translate(113.48167 0) scale(0.996264)"/>
      <use xlink:href="#CMR17-72" transform="translate(153.967331 0) scale(0.996264)"/>
      <use xlink:href="#CMR17-67" transform="translate(189.248099 0) scale(0.996264)"/>
      <use xlink:href="#CMR17-79" transform="translate(234.938576 0) scale(0.996264)"/>
      <use xlink:href="#CMR17-42" transform="translate(313.307458 0) scale(0.996264)"/>
      <use xlink:href="#CMR17-69" transform="translate(378.496212 0) scale(0.996264)"/>
      <use xlink:href="#CMR17-61" transform="translate(403.367271 0) scale(0.996264)"/>
      <use xlink:href="#CMR17-73" transform="translate(449.057748 0) scale(0.996264)"/>
     </g>
    </g>
   </g>
   <g id="matplotlib.axis_4">
    <g id="ytick_4">
     <g id="line2d_11">
      <g>
       <use xlink:href="#mf5c1c22857" x="276.054545" y="133.231832" style="stroke: #000000; stroke-width: 0.8"/>
      </g>
     </g>
     <g id="text_13">
      <!-- $\mathdefault{−0.1}$ -->
      <g transform="translate(248.575723 136.691082) scale(0.1 -0.1)">
       <use xlink:href="#CMSY10-0" transform="scale(0.996264)"/>
       <use xlink:href="#CMR17-30" transform="translate(77.487468 0) scale(0.996264)"/>
       <use xlink:href="#CMMI12-3a" transform="translate(123.177945 0) scale(0.996264)"/>
       <use xlink:href="#CMR17-31" transform="translate(150.275122 0) scale(0.996264)"/>
      </g>
     </g>
    </g>
    <g id="ytick_5">
     <g id="line2d_12">
      <g>
       <use xlink:href="#mf5c1c22857" x="276.054545" y="90.9" style="stroke: #000000; stroke-width: 0.8"/>
      </g>
     </g>
     <g id="text_14">
      <!-- $\mathdefault{0.0}$ -->
      <g transform="translate(256.324466 94.359249) scale(0.1 -0.1)">
       <use xlink:href="#CMR17-30" transform="scale(0.996264)"/>
       <use xlink:href="#CMMI12-3a" transform="translate(45.690477 0) scale(0.996264)"/>
       <use xlink:href="#CMR17-30" transform="translate(72.787654 0) scale(0.996264)"/>
      </g>
     </g>
    </g>
    <g id="ytick_6">
     <g id="line2d_13">
      <g>
       <use xlink:href="#mf5c1c22857" x="276.054545" y="48.568168" style="stroke: #000000; stroke-width: 0.8"/>
      </g>
     </g>
     <g id="text_15">
      <!-- $\mathdefault{0.1}$ -->
      <g transform="translate(256.324466 52.027417) scale(0.1 -0.1)">
       <use xlink:href="#CMR17-30" transform="scale(0.996264)"/>
       <use xlink:href="#CMMI12-3a" transform="translate(45.690477 0) scale(0.996264)"/>
       <use xlink:href="#CMR17-31" transform="translate(72.787654 0) scale(0.996264)"/>
      </g>
     </g>
    </g>
   </g>
   <g id="LineCollection_3">
    <path d="M 284.124793 153.9
L 284.124793 27.9
" clip-path="url(#pb87d4278fa)" style="fill: none; stroke: #191970; stroke-width: 1.5"/>
   </g>
   <g id="LineCollection_4">
    <path d="M 284.124793 90.9
L 445.529752 90.9
" clip-path="url(#pb87d4278fa)" style="fill: none; stroke: #a9a9a9; stroke-width: 1.5"/>
   </g>
   <g id="line2d_14">
    <g clip-path="url(#pb87d4278fa)">
     <use xlink:href="#mb6706e6edc" x="284.124793" y="90.9" style="fill: #191970; stroke: #191970"/>
    </g>
   </g>
   <g id="patch_9">
    <path d="M 276.054545 160.2
L 276.054545 21.6
" style="fill: none; stroke: #000000; stroke-width: 0.8; stroke-linejoin: miter; stroke-linecap: square"/>
   </g>
   <g id="patch_10">
    <path d="M 453.6 160.2
L 453.6 21.6
" style="fill: none; stroke: #000000; stroke-width: 0.8; stroke-linejoin: miter; stroke-linecap: square"/>
   </g>
   <g id="patch_11">
    <path d="M 276.054545 160.2
L 453.6 160.2
" style="fill: none; stroke: #000000; stroke-width: 0.8; stroke-linejoin: miter; stroke-linecap: square"/>
   </g>
   <g id="patch_12">
    <path d="M 276.054545 21.6
L 453.6 21.6
" style="fill: none; stroke: #000000; stroke-width: 0.8; stroke-linejoin: miter; stroke-linecap: square"/>
   </g>
   <g id="text_16">
    <!-- resolution -->
    <g transform="translate(339.756964 15.6) scale(0.12 -0.12)">
     <defs>
      <path id="CMR17-6f" d="M 2758 1356
C 2758 2176 2163 2816 1466 2816
C 768 2816 173 2176 173 1356
C 173 550 768 -64 1466 -64
C 2163 -64 2758 550 2758 1356
z
M 1466 51
C 1165 51 909 230 762 480
C 602 768 582 1126 582 1408
C 582 1676 595 2009 762 2297
C 890 2508 1139 2713 1466 2713
C 1754 2713 1997 2553 2150 2329
C 2349 2028 2349 1606 2349 1408
C 2349 1158 2336 774 2163 467
C 1984 172 1709 51 1466 51
z
" transform="scale(0.015625)"/>
      <path id="CMR17-6c" d="M 979 4416
L 218 4345
L 218 4179
C 595 4179 653 4141 653 3835
L 653 439
C 653 198 627 166 218 166
L 218 0
C 371 12 653 12 813 12
C 979 12 1261 12 1414 0
L 1414 166
C 1005 166 979 191 979 439
L 979 4416
z
" transform="scale(0.015625)"/>
      <path id="CMR17-75" d="M 1882 2745
L 1882 2579
C 2259 2579 2317 2540 2317 2229
L 2317 1053
C 2317 510 2029 38 1555 38
C 1030 38 986 355 986 691
L 986 2816
L 211 2745
L 211 2579
C 467 2579 640 2579 646 2320
L 646 1079
C 646 646 646 368 813 187
C 896 103 1056 -64 1517 -64
C 2061 -64 2272 400 2323 536
L 2330 536
L 2330 -64
L 3091 -13
L 3091 154
C 2714 154 2656 193 2656 503
L 2656 2816
L 1882 2745
z
" transform="scale(0.015625)"/>
      <path id="CMR17-74" d="M 966 2585
L 1862 2585
L 1862 2752
L 966 2752
L 966 3968
L 851 3968
C 838 3292 614 2700 70 2687
L 70 2585
L 627 2585
L 627 778
C 627 655 627 -64 1370 -64
C 1747 -64 1965 308 1965 784
L 1965 1151
L 1850 1151
L 1850 790
C 1850 347 1677 51 1408 51
C 1222 51 966 179 966 765
L 966 2585
z
" transform="scale(0.015625)"/>
     </defs>
     <use xlink:href="#CMR17-72" transform="scale(0.996264)"/>
     <use xlink:href="#CMR17-65" transform="translate(35.280768 0) scale(0.996264)"/>
     <use xlink:href="#CMR17-73" transform="translate(75.766428 0) scale(0.996264)"/>
     <use xlink:href="#CMR17-6f" transform="translate(111.567766 0) scale(0.996264)"/>
     <use xlink:href="#CMR17-6c" transform="translate(157.258243 0) scale(0.996264)"/>
     <use xlink:href="#CMR17-75" transform="translate(182.129301 0) scale(0.996264)"/>
     <use xlink:href="#CMR17-74" transform="translate(233.024671 0) scale(0.996264)"/>
     <use xlink:href="#CMR17-69" transform="translate(268.305439 0) scale(0.996264)"/>
     <use xlink:href="#CMR17-6f" transform="translate(293.176498 0) scale(0.996264)"/>
     <use xlink:href="#CMR17-6e" transform="translate(338.866975 0) scale(0.996264)"/>
    </g>
   </g>
   <g id="legend_2">
    <g id="patch_13">
     <path d="M 460.6 94.9
L 464.6 94.9
Q 466.6 94.9 466.6 92.9
L 466.6 88.9
Q 466.6 86.9 464.6 86.9
L 460.6 86.9
Q 458.6 86.9 458.6 88.9
L 458.6 92.9
Q 458.6 94.9 460.6 94.9
z
" style="fill: #ffffff; opacity: 0.8; stroke: #cccccc; stroke-linejoin: miter"/>
    </g>
   </g>
  </g>
 </g>
 <defs>
  <clipPath id="pa2d041e691">
   <rect x="63" y="21.6" width="177.545455" height="138.6"/>
  </clipPath>
  <clipPath id="pb87d4278fa">
   <rect x="276.054545" y="21.6" width="177.545455" height="138.6"/>
  </clipPath>
 </defs>
</svg>
