<?xml version="1.0" encoding="utf-8" standalone="no"?>
<!DOCTYPE svg PUBLIC "-//W3C//DTD SVG 1.1//EN"
  "http://www.w3.org/Graphics/SVG/1.1/DTD/svg11.dtd">
<svg xmlns:xlink="http://www.w3.org/1999/xlink" width="864pt" height="288pt" viewBox="0 0 864 288" xmlns="http://www.w3.org/2000/svg" version="1.1">
 <metadata>
  <rdf:RDF xmlns:dc="http://purl.org/dc/elements/1.1/" xmlns:cc="http://creativecommons.org/ns#" xmlns:rdf="http://www.w3.org/1999/02/22-rdf-syntax-ns#">
   <cc:Work>
    <dc:type rdf:resource="http://purl.org/dc/dcmitype/StillImage"/>
    <dc:date>2023-08-02T18:05:17.320221</dc:date>
    <dc:format>image/svg+xml</dc:format>
    <dc:creator>
     <cc:Agent>
      <dc:title>Matplotlib v3.7.1, https://matplotlib.org/</dc:title>
     </cc:Agent>
    </dc:creator>
   </cc:Work>
  </rdf:RDF>
 </metadata>
 <defs>
  <style type="text/css">*{stroke-linejoin: round; stroke-linecap: butt}</style>
 </defs>
 <g id="figure_1">
  <g id="patch_1">
   <path d="M 0 288 
L 864 288 
L 864 0 
L 0 0 
z
" style="fill: #ffffff"/>
  </g>
  <g id="axes_1">
   <g id="patch_2">
    <path d="M 45.599682 247.381683 
L 305.266455 247.381683 
L 305.266455 25.10218 
L 45.599682 25.10218 
z
" style="fill: #ffffff"/>
   </g>
   <g id="PolyCollection_1">
    <path d="M -43.41113 222816.077361 
L -43.41113 222816.077361 
L -22.789972 222816.077361 
L -2.168815 222816.077361 
L 18.452343 218.324 
L 39.0735 88.530207 
L 59.694657 46.390164 
L 80.315815 41.502948 
L 100.936972 41.549275 
L 121.55813 54.859403 
L 142.179287 81.600402 
L 162.800445 110.298174 
L 183.421602 142.971312 
L 204.042759 180.870041 
L 224.663917 223.999169 
L 245.285074 272.554634 
L 265.906232 327.235467 
L 286.527389 390.017422 
L 307.148547 461.862365 
L 327.769704 544.50913 
L 348.390861 642.738427 
L 369.012019 757.827206 
L 389.633176 893.542391 
L 410.254334 1067.117328 
L 430.875491 1328.12034 
L 430.875491 1115.612971 
L 430.875491 1115.612971 
L 410.254334 932.083685 
L 389.633176 790.148828 
L 369.012019 671.178471 
L 348.390861 569.228495 
L 327.769704 482.870868 
L 307.148547 408.609333 
L 286.527389 343.538973 
L 265.906232 286.795408 
L 245.285074 236.771414 
L 224.663917 192.195903 
L 204.042759 152.897535 
L 183.421602 118.79171 
L 162.800445 89.160265 
L 142.179287 62.068308 
L 121.55813 43.342579 
L 100.936972 40.435118 
L 80.315815 44.878202 
L 59.694657 68.757282 
L 39.0735 166.046787 
L 18.452343 222816.077361 
L -2.168815 222816.077361 
L -22.789972 222816.077361 
L -43.41113 222816.077361 
z
" clip-path="url(#p0a5ef871a7)" style="fill: #6495ed; fill-opacity: 0.6; stroke: #6495ed; stroke-opacity: 0.6"/>
   </g>
   <g id="matplotlib.axis_1">
    <g id="xtick_1">
     <g id="line2d_1">
      <defs>
       <path id="mfe1169cfa1" d="M 0 0 
L 0 3.5 
" style="stroke: #000000; stroke-width: 0.8"/>
      </defs>
      <g>
       <use xlink:href="#mfe1169cfa1" x="111.247551" y="247.381683" style="stroke: #000000; stroke-width: 0.8"/>
      </g>
     </g>
     <g id="text_1">
      <!-- $\mathdefault{10^{0}}$ -->
      <g transform="translate(104.280597 261.300182) scale(0.1 -0.1)">
       <defs>
        <path id="CMR17-31" d="M 1702 4083 
C 1702 4217 1696 4224 1606 4224 
C 1357 3927 979 3833 621 3820 
C 602 3820 570 3820 563 3808 
C 557 3795 557 3782 557 3648 
C 755 3648 1088 3686 1344 3839 
L 1344 467 
C 1344 243 1331 166 781 166 
L 589 166 
L 589 0 
C 896 6 1216 12 1523 12 
C 1830 12 2150 6 2458 0 
L 2458 166 
L 2266 166 
C 1715 166 1702 236 1702 467 
L 1702 4083 
z
" transform="scale(0.015625)"/>
        <path id="CMR17-30" d="M 2688 2038 
C 2688 2430 2682 3099 2413 3613 
C 2176 4063 1798 4224 1466 4224 
C 1158 4224 768 4082 525 3620 
C 269 3137 243 2539 243 2038 
C 243 1671 250 1112 448 623 
C 723 -39 1216 -128 1466 -128 
C 1760 -128 2208 -7 2470 604 
C 2662 1048 2688 1568 2688 2038 
z
M 1466 -26 
C 1056 -26 813 328 723 816 
C 653 1196 653 1749 653 2109 
C 653 2604 653 3015 736 3407 
C 858 3954 1216 4121 1466 4121 
C 1728 4121 2067 3947 2189 3420 
C 2272 3054 2278 2623 2278 2109 
C 2278 1691 2278 1176 2202 797 
C 2067 96 1690 -26 1466 -26 
z
" transform="scale(0.015625)"/>
       </defs>
       <use xlink:href="#CMR17-31" transform="scale(0.996264)"/>
       <use xlink:href="#CMR17-30" transform="translate(45.690477 0) scale(0.996264)"/>
       <use xlink:href="#CMR17-30" transform="translate(91.380954 36.153639) scale(0.697382)"/>
      </g>
     </g>
    </g>
    <g id="xtick_2">
     <g id="line2d_2">
      <g>
       <use xlink:href="#mfe1169cfa1" x="276.21681" y="247.381683" style="stroke: #000000; stroke-width: 0.8"/>
      </g>
     </g>
     <g id="text_2">
      <!-- $\mathdefault{10^{1}}$ -->
      <g transform="translate(269.249856 261.300182) scale(0.1 -0.1)">
       <use xlink:href="#CMR17-31" transform="scale(0.996264)"/>
       <use xlink:href="#CMR17-30" transform="translate(45.690477 0) scale(0.996264)"/>
       <use xlink:href="#CMR17-31" transform="translate(91.380954 36.153639) scale(0.697382)"/>
      </g>
     </g>
    </g>
    <g id="xtick_3">
     <g id="line2d_3">
      <defs>
       <path id="md162d1a7fc" d="M 0 0 
L 0 2 
" style="stroke: #000000; stroke-width: 0.6"/>
      </defs>
      <g>
       <use xlink:href="#md162d1a7fc" x="45.599682" y="247.381683" style="stroke: #000000; stroke-width: 0.6"/>
      </g>
     </g>
    </g>
    <g id="xtick_4">
     <g id="line2d_4">
      <g>
       <use xlink:href="#md162d1a7fc" x="61.586856" y="247.381683" style="stroke: #000000; stroke-width: 0.6"/>
      </g>
     </g>
    </g>
    <g id="xtick_5">
     <g id="line2d_5">
      <g>
       <use xlink:href="#md162d1a7fc" x="74.649327" y="247.381683" style="stroke: #000000; stroke-width: 0.6"/>
      </g>
     </g>
    </g>
    <g id="xtick_6">
     <g id="line2d_6">
      <g>
       <use xlink:href="#md162d1a7fc" x="85.693489" y="247.381683" style="stroke: #000000; stroke-width: 0.6"/>
      </g>
     </g>
    </g>
    <g id="xtick_7">
     <g id="line2d_7">
      <g>
       <use xlink:href="#md162d1a7fc" x="95.260378" y="247.381683" style="stroke: #000000; stroke-width: 0.6"/>
      </g>
     </g>
    </g>
    <g id="xtick_8">
     <g id="line2d_8">
      <g>
       <use xlink:href="#md162d1a7fc" x="103.698972" y="247.381683" style="stroke: #000000; stroke-width: 0.6"/>
      </g>
     </g>
    </g>
    <g id="xtick_9">
     <g id="line2d_9">
      <g>
       <use xlink:href="#md162d1a7fc" x="160.908246" y="247.381683" style="stroke: #000000; stroke-width: 0.6"/>
      </g>
     </g>
    </g>
    <g id="xtick_10">
     <g id="line2d_10">
      <g>
       <use xlink:href="#md162d1a7fc" x="189.957891" y="247.381683" style="stroke: #000000; stroke-width: 0.6"/>
      </g>
     </g>
    </g>
    <g id="xtick_11">
     <g id="line2d_11">
      <g>
       <use xlink:href="#md162d1a7fc" x="210.568942" y="247.381683" style="stroke: #000000; stroke-width: 0.6"/>
      </g>
     </g>
    </g>
    <g id="xtick_12">
     <g id="line2d_12">
      <g>
       <use xlink:href="#md162d1a7fc" x="226.556115" y="247.381683" style="stroke: #000000; stroke-width: 0.6"/>
      </g>
     </g>
    </g>
    <g id="xtick_13">
     <g id="line2d_13">
      <g>
       <use xlink:href="#md162d1a7fc" x="239.618586" y="247.381683" style="stroke: #000000; stroke-width: 0.6"/>
      </g>
     </g>
    </g>
    <g id="xtick_14">
     <g id="line2d_14">
      <g>
       <use xlink:href="#md162d1a7fc" x="250.662749" y="247.381683" style="stroke: #000000; stroke-width: 0.6"/>
      </g>
     </g>
    </g>
    <g id="xtick_15">
     <g id="line2d_15">
      <g>
       <use xlink:href="#md162d1a7fc" x="260.229637" y="247.381683" style="stroke: #000000; stroke-width: 0.6"/>
      </g>
     </g>
    </g>
    <g id="xtick_16">
     <g id="line2d_16">
      <g>
       <use xlink:href="#md162d1a7fc" x="268.668231" y="247.381683" style="stroke: #000000; stroke-width: 0.6"/>
      </g>
     </g>
    </g>
    <g id="text_3">
     <!-- Energy [TeV] -->
     <g transform="translate(146.430667 274.70934) scale(0.1 -0.1)">
      <defs>
       <path id="CMR17-45" d="M 3885 1614 
L 3770 1614 
C 3629 676 3546 166 2419 166 
L 1530 166 
C 1274 166 1261 198 1261 415 
L 1261 2176 
L 1862 2176 
C 2464 2176 2522 1959 2522 1429 
L 2637 1429 
L 2637 3086 
L 2522 3086 
C 2522 2558 2464 2342 1862 2342 
L 1261 2342 
L 1261 3924 
C 1261 4141 1274 4172 1530 4172 
L 2406 4172 
C 3398 4172 3514 3778 3603 2933 
L 3718 2933 
L 3565 4339 
L 326 4339 
L 326 4172 
C 768 4172 838 4172 838 3886 
L 838 453 
C 838 166 768 166 326 166 
L 326 0 
L 3654 0 
L 3885 1614 
z
" transform="scale(0.015625)"/>
       <path id="CMR17-6e" d="M 2656 1954 
C 2656 2282 2592 2816 1837 2816 
C 1331 2816 1069 2424 973 2166 
L 966 2166 
L 966 2816 
L 211 2745 
L 211 2578 
C 589 2578 646 2540 646 2231 
L 646 443 
C 646 198 621 166 211 166 
L 211 0 
C 365 12 646 12 813 12 
C 979 12 1267 12 1421 0 
L 1421 166 
C 1011 166 986 192 986 443 
L 986 1678 
C 986 2269 1344 2713 1792 2713 
C 2266 2713 2317 2289 2317 1980 
L 2317 443 
C 2317 198 2291 166 1882 166 
L 1882 0 
C 2035 12 2317 12 2483 12 
C 2650 12 2938 12 3091 0 
L 3091 166 
C 2682 166 2656 192 2656 443 
L 2656 1954 
z
" transform="scale(0.015625)"/>
       <path id="CMR17-65" d="M 2438 1503 
C 2464 1529 2464 1542 2464 1606 
C 2464 2251 2118 2816 1389 2816 
C 710 2816 173 2175 173 1394 
C 173 554 781 -64 1459 -64 
C 2176 -64 2458 619 2458 755 
C 2458 800 2419 800 2406 800 
C 2362 800 2355 787 2330 709 
C 2189 270 1837 51 1504 51 
C 1229 51 954 206 781 490 
C 582 819 582 1200 582 1503 
L 2438 1503 
z
M 589 1600 
C 634 2511 1126 2713 1382 2713 
C 1818 2713 2112 2308 2118 1600 
L 589 1600 
z
" transform="scale(0.015625)"/>
       <path id="CMR17-72" d="M 960 1517 
C 960 2134 1222 2713 1702 2713 
C 1747 2713 1792 2707 1837 2687 
C 1837 2687 1696 2642 1696 2475 
C 1696 2321 1818 2257 1914 2257 
C 1990 2257 2131 2302 2131 2482 
C 2131 2687 1926 2816 1709 2816 
C 1222 2816 1011 2340 947 2115 
L 941 2115 
L 941 2816 
L 198 2745 
L 198 2578 
C 576 2578 634 2540 634 2231 
L 634 443 
C 634 198 608 166 198 166 
L 198 0 
C 352 12 646 12 813 12 
C 998 12 1325 12 1498 0 
L 1498 166 
C 1037 166 960 166 960 455 
L 960 1517 
z
" transform="scale(0.015625)"/>
       <path id="CMR17-67" d="M 710 1165 
C 832 1068 1043 960 1299 960 
C 1805 960 2240 1359 2240 1895 
C 2240 2063 2189 2321 1997 2521 
C 2176 2713 2438 2777 2586 2777 
C 2611 2777 2650 2777 2682 2758 
C 2656 2751 2598 2726 2598 2623 
C 2598 2540 2656 2483 2739 2483 
C 2835 2483 2886 2547 2886 2630 
C 2886 2751 2790 2880 2586 2880 
C 2330 2880 2106 2758 1926 2591 
C 1734 2764 1504 2828 1299 2828 
C 794 2828 358 2431 358 1895 
C 358 1527 570 1294 634 1230 
C 442 1004 442 742 442 710 
C 442 544 506 300 723 166 
C 390 82 128 -184 128 -517 
C 128 -996 736 -1344 1466 -1344 
C 2170 -1344 2803 -1009 2803 -510 
C 2803 384 1856 384 1363 384 
C 1216 384 954 384 922 390 
C 723 422 589 601 589 825 
C 589 883 589 1024 710 1165 
z
M 1299 1068 
C 736 1068 736 1766 736 1895 
C 736 2024 736 2719 1299 2719 
C 1862 2719 1862 2024 1862 1895 
C 1862 1766 1862 1068 1299 1068 
z
M 1466 -1236 
C 826 -1236 384 -883 384 -517 
C 384 -311 493 -118 634 -11 
C 794 102 858 102 1293 102 
C 1818 102 2547 102 2547 -517 
C 2547 -883 2106 -1236 1466 -1236 
z
" transform="scale(0.015625)"/>
       <path id="CMR17-79" d="M 2496 2183 
C 2656 2579 2944 2585 3034 2585 
L 3034 2752 
C 2912 2745 2752 2739 2630 2739 
C 2496 2739 2285 2739 2157 2752 
L 2157 2585 
C 2400 2566 2406 2384 2406 2332 
C 2406 2268 2394 2235 2362 2158 
L 1664 409 
L 902 2300 
C 870 2378 870 2423 870 2430 
C 870 2572 1018 2585 1171 2585 
L 1171 2752 
C 1018 2739 742 2739 582 2739 
C 410 2739 205 2739 64 2752 
L 64 2585 
C 410 2585 448 2553 531 2345 
L 1485 -31 
C 1197 -795 1030 -1242 627 -1242 
C 557 -1242 397 -1223 282 -1106 
C 429 -1093 493 -1002 493 -892 
C 493 -782 416 -685 288 -685 
C 147 -685 77 -782 77 -899 
C 77 -1158 339 -1344 627 -1344 
C 998 -1344 1229 -983 1357 -659 
L 2496 2183 
z
" transform="scale(0.015625)"/>
       <path id="CMR17-5b" d="M 1504 -1600 
L 1504 -1376 
L 902 -1376 
L 902 4575 
L 1504 4575 
L 1504 4800 
L 678 4800 
L 678 -1600 
L 1504 -1600 
z
" transform="scale(0.015625)"/>
       <path id="CMR17-54" d="M 3981 4332 
L 288 4332 
L 179 2924 
L 294 2924 
C 378 3981 467 4166 1453 4166 
C 1568 4166 1754 4166 1805 4159 
C 1926 4140 1926 4064 1926 3917 
L 1926 465 
C 1926 236 1907 166 1376 166 
L 1197 166 
L 1197 0 
C 1504 6 1824 12 2138 12 
C 2451 12 2771 6 3078 0 
L 3078 166 
L 2899 166 
C 2368 166 2349 236 2349 465 
L 2349 3917 
C 2349 4057 2349 4134 2464 4159 
C 2515 4166 2701 4166 2816 4166 
C 3795 4166 3891 3981 3974 2924 
L 4090 2924 
L 3981 4332 
z
" transform="scale(0.015625)"/>
       <path id="CMR17-56" d="M 3776 3762 
C 3834 3903 3936 4179 4365 4185 
L 4365 4352 
C 4218 4339 4051 4339 3891 4339 
C 3738 4339 3475 4339 3328 4352 
L 3328 4185 
C 3648 4166 3661 3942 3661 3903 
C 3661 3833 3642 3788 3622 3737 
L 2362 448 
L 1043 3903 
C 1024 3948 1011 3980 1011 4012 
C 1011 4185 1267 4185 1402 4185 
L 1402 4352 
C 1197 4339 896 4339 685 4339 
C 518 4339 218 4339 64 4352 
L 64 4185 
C 435 4185 506 4160 582 3955 
L 2106 -26 
C 2138 -116 2144 -128 2214 -128 
C 2285 -128 2291 -116 2323 -26 
L 3776 3762 
z
" transform="scale(0.015625)"/>
       <path id="CMR17-5d" d="M 915 4800 
L 90 4800 
L 90 4575 
L 691 4575 
L 691 -1376 
L 90 -1376 
L 90 -1600 
L 915 -1600 
L 915 4800 
z
" transform="scale(0.015625)"/>
      </defs>
      <use xlink:href="#CMR17-45" transform="scale(0.996264)"/>
      <use xlink:href="#CMR17-6e" transform="translate(62.586301 0) scale(0.996264)"/>
      <use xlink:href="#CMR17-65" transform="translate(113.48167 0) scale(0.996264)"/>
      <use xlink:href="#CMR17-72" transform="translate(153.967331 0) scale(0.996264)"/>
      <use xlink:href="#CMR17-67" transform="translate(189.248099 0) scale(0.996264)"/>
      <use xlink:href="#CMR17-79" transform="translate(234.938576 0) scale(0.996264)"/>
      <use xlink:href="#CMR17-5b" transform="translate(313.307458 0) scale(0.996264)"/>
      <use xlink:href="#CMR17-54" transform="translate(338.178516 0) scale(0.996264)"/>
      <use xlink:href="#CMR17-65" transform="translate(396.881142 0) scale(0.996264)"/>
      <use xlink:href="#CMR17-56" transform="translate(437.366802 0) scale(0.996264)"/>
      <use xlink:href="#CMR17-5d" transform="translate(506.439232 0) scale(0.996264)"/>
     </g>
    </g>
   </g>
   <g id="matplotlib.axis_2">
    <g id="ytick_1">
     <g id="line2d_17">
      <defs>
       <path id="m25ffaf024b" d="M 0 0 
L -3.5 0 
" style="stroke: #000000; stroke-width: 0.8"/>
      </defs>
      <g>
       <use xlink:href="#m25ffaf024b" x="45.599682" y="158.927776" style="stroke: #000000; stroke-width: 0.8"/>
      </g>
     </g>
     <g id="text_4">
      <!-- 50 -->
      <g transform="translate(28.637012 162.387025) scale(0.1 -0.1)">
       <defs>
        <path id="CMR17-35" d="M 730 3750 
C 794 3724 1056 3641 1325 3641 
C 1920 3641 2246 3961 2432 4140 
C 2432 4191 2432 4224 2394 4224 
C 2387 4224 2374 4224 2323 4198 
C 2099 4102 1837 4032 1517 4032 
C 1325 4032 1037 4055 723 4191 
C 653 4224 640 4224 634 4224 
C 602 4224 595 4217 595 4090 
L 595 2231 
C 595 2113 595 2080 659 2080 
C 691 2080 704 2093 736 2139 
C 941 2435 1222 2560 1542 2560 
C 1766 2560 2246 2415 2246 1293 
C 2246 1087 2246 716 2054 422 
C 1894 159 1645 25 1370 25 
C 947 25 518 319 403 812 
C 429 806 480 793 506 793 
C 589 793 749 838 749 1036 
C 749 1209 627 1280 506 1280 
C 358 1280 262 1190 262 1011 
C 262 454 704 -128 1382 -128 
C 2042 -128 2669 441 2669 1267 
C 2669 2054 2170 2662 1549 2662 
C 1222 2662 947 2540 730 2304 
L 730 3750 
z
" transform="scale(0.015625)"/>
       </defs>
       <use xlink:href="#CMR17-35" transform="scale(0.996264)"/>
       <use xlink:href="#CMR17-30" transform="translate(45.690477 0) scale(0.996264)"/>
      </g>
     </g>
    </g>
    <g id="ytick_2">
     <g id="line2d_18">
      <g>
       <use xlink:href="#m25ffaf024b" x="45.599682" y="92.014978" style="stroke: #000000; stroke-width: 0.8"/>
      </g>
     </g>
     <g id="text_5">
      <!-- 100 -->
      <g transform="translate(23.655677 95.474227) scale(0.1 -0.1)">
       <use xlink:href="#CMR17-31" transform="scale(0.996264)"/>
       <use xlink:href="#CMR17-30" transform="translate(45.690477 0) scale(0.996264)"/>
       <use xlink:href="#CMR17-30" transform="translate(91.380954 0) scale(0.996264)"/>
      </g>
     </g>
    </g>
    <g id="text_6">
     <!-- Pred. Counts -->
     <g transform="translate(17.718498 165.548748) rotate(-90) scale(0.1 -0.1)">
      <defs>
       <path id="CMR17-50" d="M 1267 2048 
L 2291 2048 
C 3117 2048 3718 2583 3718 3187 
C 3718 3791 3130 4352 2291 4352 
L 333 4352 
L 333 4185 
C 774 4185 845 4185 845 3899 
L 845 453 
C 845 166 774 166 333 166 
L 333 0 
C 518 12 858 12 1056 12 
C 1254 12 1594 12 1779 0 
L 1779 166 
C 1338 166 1267 166 1267 453 
L 1267 2048 
z
M 1254 2182 
L 1254 3937 
C 1254 4153 1267 4185 1523 4185 
L 2170 4185 
C 2995 4185 3232 3715 3232 3187 
C 3232 2608 2950 2182 2170 2182 
L 1254 2182 
z
" transform="scale(0.015625)"/>
       <path id="CMR17-64" d="M 1869 4345 
L 1869 4179 
C 2246 4179 2304 4141 2304 3843 
L 2304 2371 
C 2278 2403 2016 2816 1498 2816 
C 845 2816 211 2228 211 1376 
C 211 529 806 -64 1434 -64 
C 1978 -64 2259 361 2291 406 
L 2291 -64 
L 3066 -13 
L 3066 154 
C 2688 154 2630 193 2630 503 
L 2630 4416 
L 1869 4345 
z
M 2291 762 
C 2291 568 2176 393 2029 264 
C 1811 70 1594 38 1472 38 
C 1286 38 621 135 621 1369 
C 621 2636 1363 2713 1530 2713 
C 1824 2713 2061 2545 2208 2313 
C 2291 2177 2291 2157 2291 2041 
L 2291 762 
z
" transform="scale(0.015625)"/>
       <path id="CMR17-2e" d="M 1062 262 
C 1062 422 934 524 800 524 
C 672 524 538 422 538 262 
C 538 102 666 0 800 0 
C 928 0 1062 102 1062 262 
z
" transform="scale(0.015625)"/>
       <path id="CMR17-43" d="M 3974 4351 
C 3974 4467 3968 4473 3930 4473 
C 3904 4473 3898 4467 3853 4390 
L 3571 3849 
C 3258 4249 2874 4480 2381 4480 
C 1286 4480 294 3507 294 2179 
C 294 837 1286 -128 2387 -128 
C 3366 -128 3974 741 3974 1482 
C 3974 1547 3974 1573 3917 1573 
C 3866 1573 3866 1553 3859 1495 
C 3808 592 3168 38 2477 38 
C 1824 38 781 502 781 2179 
C 781 3862 1843 4313 2464 4313 
C 3187 4313 3712 3681 3834 2785 
C 3846 2707 3846 2695 3904 2695 
C 3974 2695 3974 2707 3974 2824 
L 3974 4351 
z
" transform="scale(0.015625)"/>
       <path id="CMR17-6f" d="M 2758 1356 
C 2758 2176 2163 2816 1466 2816 
C 768 2816 173 2176 173 1356 
C 173 550 768 -64 1466 -64 
C 2163 -64 2758 550 2758 1356 
z
M 1466 51 
C 1165 51 909 230 762 480 
C 602 768 582 1126 582 1408 
C 582 1676 595 2009 762 2297 
C 890 2508 1139 2713 1466 2713 
C 1754 2713 1997 2553 2150 2329 
C 2349 2028 2349 1606 2349 1408 
C 2349 1158 2336 774 2163 467 
C 1984 172 1709 51 1466 51 
z
" transform="scale(0.015625)"/>
       <path id="CMR17-75" d="M 1882 2745 
L 1882 2579 
C 2259 2579 2317 2540 2317 2229 
L 2317 1053 
C 2317 510 2029 38 1555 38 
C 1030 38 986 355 986 691 
L 986 2816 
L 211 2745 
L 211 2579 
C 467 2579 640 2579 646 2320 
L 646 1079 
C 646 646 646 368 813 187 
C 896 103 1056 -64 1517 -64 
C 2061 -64 2272 400 2323 536 
L 2330 536 
L 2330 -64 
L 3091 -13 
L 3091 154 
C 2714 154 2656 193 2656 503 
L 2656 2816 
L 1882 2745 
z
" transform="scale(0.015625)"/>
       <path id="CMR17-74" d="M 966 2585 
L 1862 2585 
L 1862 2752 
L 966 2752 
L 966 3968 
L 851 3968 
C 838 3292 614 2700 70 2687 
L 70 2585 
L 627 2585 
L 627 778 
C 627 655 627 -64 1370 -64 
C 1747 -64 1965 308 1965 784 
L 1965 1151 
L 1850 1151 
L 1850 790 
C 1850 347 1677 51 1408 51 
C 1222 51 966 179 966 765 
L 966 2585 
z
" transform="scale(0.015625)"/>
       <path id="CMR17-73" d="M 1978 2688 
C 1978 2803 1971 2809 1933 2809 
C 1907 2809 1901 2803 1824 2707 
C 1805 2681 1747 2617 1728 2592 
C 1523 2809 1235 2816 1126 2816 
C 416 2816 160 2444 160 2073 
C 160 1497 813 1363 998 1324 
C 1402 1241 1542 1216 1677 1100 
C 1760 1024 1901 883 1901 652 
C 1901 384 1747 38 1158 38 
C 602 38 403 460 288 1024 
C 269 1113 269 1120 218 1120 
C 166 1120 160 1113 160 985 
L 160 64 
C 160 -52 166 -58 205 -58 
C 237 -58 243 -52 275 0 
C 314 57 410 211 448 275 
C 576 102 800 -64 1158 -64 
C 1792 -64 2131 281 2131 780 
C 2131 1107 1958 1280 1875 1356 
C 1683 1555 1459 1600 1190 1651 
C 838 1728 390 1817 390 2208 
C 390 2374 480 2726 1126 2726 
C 1811 2726 1850 2086 1862 1881 
C 1869 1849 1901 1843 1920 1843 
C 1978 1843 1978 1862 1978 1971 
L 1978 2688 
z
" transform="scale(0.015625)"/>
      </defs>
      <use xlink:href="#CMR17-50" transform="scale(0.996264)"/>
      <use xlink:href="#CMR17-72" transform="translate(62.586301 0) scale(0.996264)"/>
      <use xlink:href="#CMR17-65" transform="translate(97.867068 0) scale(0.996264)"/>
      <use xlink:href="#CMR17-64" transform="translate(138.352729 0) scale(0.996264)"/>
      <use xlink:href="#CMR17-2e" transform="translate(189.248099 0) scale(0.996264)"/>
      <use xlink:href="#CMR17-43" transform="translate(254.604818 0) scale(0.996264)"/>
      <use xlink:href="#CMR17-6f" transform="translate(321.114698 0) scale(0.996264)"/>
      <use xlink:href="#CMR17-75" transform="translate(366.805175 0) scale(0.996264)"/>
      <use xlink:href="#CMR17-6e" transform="translate(417.700545 0) scale(0.996264)"/>
      <use xlink:href="#CMR17-74" transform="translate(465.993461 0) scale(0.996264)"/>
      <use xlink:href="#CMR17-73" transform="translate(501.274229 0) scale(0.996264)"/>
     </g>
    </g>
   </g>
   <g id="line2d_19">
    <path d="M 18.445795 289 
L 18.452343 218.324 
L 39.0735 88.530207 
L 59.694657 46.390164 
L 80.315815 41.502948 
L 100.936972 41.549275 
L 121.55813 54.859403 
L 142.179287 81.600402 
L 162.800445 110.298174 
L 183.421602 142.971312 
L 204.042759 180.870041 
L 224.663917 223.999169 
L 245.285074 272.554634 
L 251.486927 289 
" clip-path="url(#p0a5ef871a7)" style="fill: none; stroke: #c71585; stroke-width: 1.5; stroke-linecap: square"/>
   </g>
   <g id="LineCollection_1">
    <path clip-path="url(#p0a5ef871a7)" style="fill: none; stroke: #000000; stroke-width: 1.5"/>
    <path clip-path="url(#p0a5ef871a7)" style="fill: none; stroke: #000000; stroke-width: 1.5"/>
    <path clip-path="url(#p0a5ef871a7)" style="fill: none; stroke: #000000; stroke-width: 1.5"/>
    <path clip-path="url(#p0a5ef871a7)" style="fill: none; stroke: #000000; stroke-width: 1.5"/>
    <path d="M 39.0735 136.731712 
L 39.0735 113.771016 
" clip-path="url(#p0a5ef871a7)" style="fill: none; stroke: #000000; stroke-width: 1.5"/>
    <path d="M 59.694657 56.549958 
L 59.694657 41.104619 
" clip-path="url(#p0a5ef871a7)" style="fill: none; stroke: #000000; stroke-width: 1.5"/>
    <path d="M 80.315815 50.813477 
L 80.315815 35.803816 
" clip-path="url(#p0a5ef871a7)" style="fill: none; stroke: #000000; stroke-width: 1.5"/>
    <path d="M 100.936972 46.797593 
L 100.936972 32.085855 
" clip-path="url(#p0a5ef871a7)" style="fill: none; stroke: #000000; stroke-width: 1.5"/>
    <path d="M 121.55813 53.565168 
L 121.55813 38.348019 
" clip-path="url(#p0a5ef871a7)" style="fill: none; stroke: #000000; stroke-width: 1.5"/>
    <path d="M 142.179287 81.090448 
L 142.179287 63.639954 
" clip-path="url(#p0a5ef871a7)" style="fill: none; stroke: #000000; stroke-width: 1.5"/>
    <path d="M 162.800445 110.213051 
L 162.800445 90.05849 
" clip-path="url(#p0a5ef871a7)" style="fill: none; stroke: #000000; stroke-width: 1.5"/>
    <path d="M 183.421602 143.22742 
L 183.421602 119.524851 
" clip-path="url(#p0a5ef871a7)" style="fill: none; stroke: #000000; stroke-width: 1.5"/>
    <path d="M 204.042759 182.439273 
L 204.042759 153.754884 
" clip-path="url(#p0a5ef871a7)" style="fill: none; stroke: #000000; stroke-width: 1.5"/>
    <path d="M 224.663917 228.13781 
L 224.663917 192.414354 
" clip-path="url(#p0a5ef871a7)" style="fill: none; stroke: #000000; stroke-width: 1.5"/>
    <path d="M 245.285074 281.337562 
L 245.285074 235.424312 
" clip-path="url(#p0a5ef871a7)" style="fill: none; stroke: #000000; stroke-width: 1.5"/>
    <path d="M 265.906232 289 
L 265.906232 282.524896 
" clip-path="url(#p0a5ef871a7)" style="fill: none; stroke: #000000; stroke-width: 1.5"/>
    <path clip-path="url(#p0a5ef871a7)" style="fill: none; stroke: #000000; stroke-width: 1.5"/>
    <path clip-path="url(#p0a5ef871a7)" style="fill: none; stroke: #000000; stroke-width: 1.5"/>
    <path clip-path="url(#p0a5ef871a7)" style="fill: none; stroke: #000000; stroke-width: 1.5"/>
    <path clip-path="url(#p0a5ef871a7)" style="fill: none; stroke: #000000; stroke-width: 1.5"/>
    <path clip-path="url(#p0a5ef871a7)" style="fill: none; stroke: #000000; stroke-width: 1.5"/>
    <path clip-path="url(#p0a5ef871a7)" style="fill: none; stroke: #000000; stroke-width: 1.5"/>
    <path clip-path="url(#p0a5ef871a7)" style="fill: none; stroke: #000000; stroke-width: 1.5"/>
    <path clip-path="url(#p0a5ef871a7)" style="fill: none; stroke: #000000; stroke-width: 1.5"/>
   </g>
   <g id="line2d_20">
    <defs>
     <path id="mc7321ef667" d="M -3 3 
L 3 -3 
M -3 -3 
L 3 3 
" style="stroke: #000000"/>
    </defs>
    <g clip-path="url(#p0a5ef871a7)">
     <use xlink:href="#mc7321ef667" x="37.164796" y="20737" style="stroke: #000000"/>
     <use xlink:href="#mc7321ef667" x="39.0735" y="124.570319" style="stroke: #000000"/>
     <use xlink:href="#mc7321ef667" x="59.694657" y="48.518715" style="stroke: #000000"/>
     <use xlink:href="#mc7321ef667" x="80.315815" y="43.017218" style="stroke: #000000"/>
     <use xlink:href="#mc7321ef667" x="100.936972" y="39.161739" style="stroke: #000000"/>
     <use xlink:href="#mc7321ef667" x="121.55813" y="45.657061" style="stroke: #000000"/>
     <use xlink:href="#mc7321ef667" x="142.179287" y="71.971423" style="stroke: #000000"/>
     <use xlink:href="#mc7321ef667" x="162.800445" y="99.610738" style="stroke: #000000"/>
     <use xlink:href="#mc7321ef667" x="183.421602" y="130.650482" style="stroke: #000000"/>
     <use xlink:href="#mc7321ef667" x="204.042759" y="167.035563" style="stroke: #000000"/>
     <use xlink:href="#mc7321ef667" x="224.663917" y="208.632957" style="stroke: #000000"/>
     <use xlink:href="#mc7321ef667" x="245.285074" y="255.676662" style="stroke: #000000"/>
     <use xlink:href="#mc7321ef667" x="265.906232" y="308.343156" style="stroke: #000000"/>
     <use xlink:href="#mc7321ef667" x="286.527389" y="368.943328" style="stroke: #000000"/>
     <use xlink:href="#mc7321ef667" x="307.148547" y="438.658485" style="stroke: #000000"/>
     <use xlink:href="#mc7321ef667" x="327.769704" y="518.233652" style="stroke: #000000"/>
     <use xlink:href="#mc7321ef667" x="348.390861" y="613.45811" style="stroke: #000000"/>
     <use xlink:href="#mc7321ef667" x="369.012019" y="725.762067" style="stroke: #000000"/>
     <use xlink:href="#mc7321ef667" x="389.633176" y="857.199472" style="stroke: #000000"/>
     <use xlink:href="#mc7321ef667" x="410.254334" y="1024.694464" style="stroke: #000000"/>
     <use xlink:href="#mc7321ef667" x="430.875491" y="1246.622959" style="stroke: #000000"/>
    </g>
   </g>
   <g id="patch_3">
    <path d="M 45.599682 247.381683 
L 45.599682 25.10218 
" style="fill: none; stroke: #000000; stroke-width: 0.8; stroke-linejoin: miter; stroke-linecap: square"/>
   </g>
   <g id="patch_4">
    <path d="M 305.266455 247.381683 
L 305.266455 25.10218 
" style="fill: none; stroke: #000000; stroke-width: 0.8; stroke-linejoin: miter; stroke-linecap: square"/>
   </g>
   <g id="patch_5">
    <path d="M 45.599682 247.381683 
L 305.266455 247.381683 
" style="fill: none; stroke: #000000; stroke-width: 0.8; stroke-linejoin: miter; stroke-linecap: square"/>
   </g>
   <g id="patch_6">
    <path d="M 45.599682 25.10218 
L 305.266455 25.10218 
" style="fill: none; stroke: #000000; stroke-width: 0.8; stroke-linejoin: miter; stroke-linecap: square"/>
   </g>
   <g id="text_7">
    <!-- sys = -10% -->
    <g transform="translate(151.468325 19.10218) scale(0.12 -0.12)">
     <defs>
      <path id="CMR17-3d" d="M 4115 2048 
C 4211 2048 4307 2048 4307 2156 
C 4307 2272 4198 2272 4090 2272 
L 512 2272 
C 403 2272 294 2272 294 2156 
C 294 2048 390 2048 486 2048 
L 4115 2048 
z
M 4090 927 
C 4198 927 4307 927 4307 1043 
C 4307 1152 4211 1152 4115 1152 
L 486 1152 
C 390 1152 294 1152 294 1043 
C 294 927 403 927 512 927 
L 4090 927 
z
" transform="scale(0.015625)"/>
      <path id="CMR17-2d" d="M 1632 1254 
L 1632 1536 
L 26 1536 
L 26 1254 
L 1632 1254 
z
" transform="scale(0.015625)"/>
     </defs>
     <use xlink:href="#CMR17-73" transform="scale(0.996264)"/>
     <use xlink:href="#CMR17-79" transform="translate(35.801338 0) scale(0.996264)"/>
     <use xlink:href="#CMR17-73" transform="translate(84.094253 0) scale(0.996264)"/>
     <use xlink:href="#CMR17-3d" transform="translate(149.971557 0) scale(0.996264)"/>
     <use xlink:href="#CMR17-2d" transform="translate(251.762312 0) scale(0.996264)"/>
     <use xlink:href="#CMR17-31" transform="translate(281.838279 0) scale(0.996264)"/>
     <use xlink:href="#CMR17-30" transform="translate(327.528756 0) scale(0.996264)"/>
    </g>
   </g>
   <g id="legend_1">
    <g id="patch_7">
     <path d="M 52.599682 242.381683 
L 160.039166 242.381683 
Q 162.039166 242.381683 162.039166 240.381683 
L 162.039166 189.412273 
Q 162.039166 187.412273 160.039166 187.412273 
L 52.599682 187.412273 
Q 50.599682 187.412273 50.599682 189.412273 
L 50.599682 240.381683 
Q 50.599682 242.381683 52.599682 242.381683 
z
" style="fill: #ffffff; opacity: 0.8; stroke: #cccccc; stroke-linejoin: miter"/>
    </g>
    <g id="line2d_21">
     <path d="M 54.599682 194.912273 
L 64.599682 194.912273 
L 74.599682 194.912273 
" style="fill: none; stroke: #c71585; stroke-width: 1.5; stroke-linecap: square"/>
    </g>
    <g id="text_8">
     <!-- Model Prediction -->
     <g transform="translate(82.599682 198.412273) scale(0.1 -0.1)">
      <defs>
       <path id="CMR17-4d" d="M 1338 4249 
C 1299 4345 1293 4352 1158 4352 
L 339 4352 
L 339 4185 
C 781 4185 851 4185 851 3898 
L 851 624 
C 851 465 851 166 339 166 
L 339 0 
C 486 12 755 12 915 12 
C 1075 12 1344 12 1491 0 
L 1491 166 
C 979 166 979 465 979 624 
L 979 4159 
L 986 4159 
L 2490 102 
C 2515 38 2528 0 2579 0 
C 2630 0 2643 38 2669 102 
L 4186 4191 
L 4192 4191 
L 4192 453 
C 4192 166 4122 166 3680 166 
L 3680 0 
C 3853 12 4198 12 4384 12 
C 4570 12 4922 12 5094 0 
L 5094 166 
C 4653 166 4582 166 4582 453 
L 4582 3898 
C 4582 4185 4653 4185 5094 4185 
L 5094 4352 
L 4282 4352 
C 4147 4352 4141 4345 4102 4249 
L 2720 516 
L 1338 4249 
z
" transform="scale(0.015625)"/>
       <path id="CMR17-6c" d="M 979 4416 
L 218 4345 
L 218 4179 
C 595 4179 653 4141 653 3835 
L 653 439 
C 653 198 627 166 218 166 
L 218 0 
C 371 12 653 12 813 12 
C 979 12 1261 12 1414 0 
L 1414 166 
C 1005 166 979 191 979 439 
L 979 4416 
z
" transform="scale(0.015625)"/>
       <path id="CMR17-69" d="M 992 3961 
C 992 4102 877 4224 730 4224 
C 589 4224 467 4108 467 3961 
C 467 3820 582 3699 730 3699 
C 870 3699 992 3814 992 3961 
z
M 243 2745 
L 243 2579 
C 602 2579 653 2540 653 2231 
L 653 443 
C 653 198 627 166 218 166 
L 218 0 
C 371 12 646 12 806 12 
C 960 12 1222 12 1370 0 
L 1370 166 
C 992 166 979 205 979 436 
L 979 2816 
L 243 2745 
z
" transform="scale(0.015625)"/>
       <path id="CMR17-63" d="M 2234 2240 
C 2112 2240 1933 2240 1933 2015 
C 1933 1836 2080 1785 2163 1785 
C 2208 1785 2394 1804 2394 2028 
C 2394 2476 1958 2816 1466 2816 
C 787 2816 211 2201 211 1379 
C 211 521 813 -64 1466 -64 
C 2259 -64 2458 676 2458 747 
C 2458 773 2451 792 2406 792 
C 2362 792 2355 786 2330 702 
C 2163 180 1798 51 1523 51 
C 1114 51 621 431 621 1385 
C 621 2358 1094 2700 1472 2700 
C 1722 2700 2093 2582 2234 2240 
z
" transform="scale(0.015625)"/>
      </defs>
      <use xlink:href="#CMR17-4d" transform="scale(0.996264)"/>
      <use xlink:href="#CMR17-6f" transform="translate(84.686941 0) scale(0.996264)"/>
      <use xlink:href="#CMR17-64" transform="translate(132.979856 0) scale(0.996264)"/>
      <use xlink:href="#CMR17-65" transform="translate(183.875226 0) scale(0.996264)"/>
      <use xlink:href="#CMR17-6c" transform="translate(224.360887 0) scale(0.996264)"/>
      <use xlink:href="#CMR17-50" transform="translate(279.307911 0) scale(0.996264)"/>
      <use xlink:href="#CMR17-72" transform="translate(341.894212 0) scale(0.996264)"/>
      <use xlink:href="#CMR17-65" transform="translate(377.17498 0) scale(0.996264)"/>
      <use xlink:href="#CMR17-64" transform="translate(417.66064 0) scale(0.996264)"/>
      <use xlink:href="#CMR17-69" transform="translate(468.55601 0) scale(0.996264)"/>
      <use xlink:href="#CMR17-63" transform="translate(493.427069 0) scale(0.996264)"/>
      <use xlink:href="#CMR17-74" transform="translate(533.912729 0) scale(0.996264)"/>
      <use xlink:href="#CMR17-69" transform="translate(569.193497 0) scale(0.996264)"/>
      <use xlink:href="#CMR17-6f" transform="translate(594.064555 0) scale(0.996264)"/>
      <use xlink:href="#CMR17-6e" transform="translate(639.755032 0) scale(0.996264)"/>
     </g>
    </g>
    <g id="patch_8">
     <path d="M 54.599682 218.356228 
L 74.599682 218.356228 
L 74.599682 211.356228 
L 54.599682 211.356228 
z
" style="fill: #6495ed; fill-opacity: 0.6; stroke: #6495ed; stroke-opacity: 0.6; stroke-linejoin: miter"/>
    </g>
    <g id="text_9">
     <!-- 10 % Systematic Error  -->
     <g transform="translate(82.599682 212.26795) scale(0.1 -0.1)">
      <use xlink:href="#CMR17-31" transform="scale(0.996264)"/>
      <use xlink:href="#CMR17-30" transform="translate(45.690477 0) scale(0.996264)"/>
     </g>
     <!--  on energy reco. -->
     <g transform="translate(82.599682 222.507327) scale(0.1 -0.1)">
      <use xlink:href="#CMR17-6f" transform="scale(0.996264)"/>
      <use xlink:href="#CMR17-6e" transform="translate(45.690477 0) scale(0.996264)"/>
      <use xlink:href="#CMR17-65" transform="translate(126.661813 0) scale(0.996264)"/>
      <use xlink:href="#CMR17-6e" transform="translate(167.147474 0) scale(0.996264)"/>
      <use xlink:href="#CMR17-65" transform="translate(218.042843 0) scale(0.996264)"/>
      <use xlink:href="#CMR17-72" transform="translate(258.528504 0) scale(0.996264)"/>
      <use xlink:href="#CMR17-67" transform="translate(293.809272 0) scale(0.996264)"/>
      <use xlink:href="#CMR17-79" transform="translate(339.499749 0) scale(0.996264)"/>
      <use xlink:href="#CMR17-72" transform="translate(417.868631 0) scale(0.996264)"/>
      <use xlink:href="#CMR17-65" transform="translate(453.149399 0) scale(0.996264)"/>
      <use xlink:href="#CMR17-63" transform="translate(493.635059 0) scale(0.996264)"/>
      <use xlink:href="#CMR17-6f" transform="translate(534.12072 0) scale(0.996264)"/>
      <use xlink:href="#CMR17-2e" transform="translate(579.811197 0) scale(0.996264)"/>
     </g>
    </g>
    <g id="LineCollection_2">
     <path d="M 64.599682 237.944505 
L 64.599682 227.944505 
" style="fill: none; stroke: #000000; stroke-width: 1.5"/>
    </g>
    <g id="line2d_22"/>
    <g id="line2d_23">
     <g>
      <use xlink:href="#mc7321ef667" x="64.599682" y="232.944505" style="stroke: #000000"/>
     </g>
    </g>
    <g id="text_10">
     <!-- Counts -->
     <g transform="translate(82.599682 236.444505) scale(0.1 -0.1)">
      <use xlink:href="#CMR17-43" transform="scale(0.996264)"/>
      <use xlink:href="#CMR17-6f" transform="translate(66.509881 0) scale(0.996264)"/>
      <use xlink:href="#CMR17-75" transform="translate(112.200358 0) scale(0.996264)"/>
      <use xlink:href="#CMR17-6e" transform="translate(163.095727 0) scale(0.996264)"/>
      <use xlink:href="#CMR17-74" transform="translate(211.388643 0) scale(0.996264)"/>
      <use xlink:href="#CMR17-73" transform="translate(246.669411 0) scale(0.996264)"/>
     </g>
    </g>
   </g>
  </g>
  <g id="axes_2">
   <g id="patch_9">
    <path d="M 319.566455 247.381683 
L 579.233227 247.381683 
L 579.233227 25.10218 
L 319.566455 25.10218 
z
" style="fill: #ffffff"/>
   </g>
   <g id="PolyCollection_2">
    <path d="M 230.555643 222816.077361 
L 230.555643 222816.077361 
L 251.1768 222816.077361 
L 271.797958 222816.077361 
L 292.419115 218.324 
L 313.040273 88.530207 
L 333.66143 46.390164 
L 354.282587 41.502948 
L 374.903745 41.549275 
L 395.524902 54.859403 
L 416.14606 81.600402 
L 436.767217 110.298174 
L 457.388374 142.971312 
L 478.009532 180.870041 
L 498.630689 223.999169 
L 519.251847 272.554634 
L 539.873004 327.235467 
L 560.494162 390.017422 
L 581.115319 461.862365 
L 601.736476 544.50913 
L 622.357634 642.738427 
L 642.978791 757.827206 
L 663.599949 893.542391 
L 684.221106 1067.117328 
L 704.842264 1328.12034 
L 704.842264 1115.612971 
L 704.842264 1115.612971 
L 684.221106 932.083685 
L 663.599949 790.148828 
L 642.978791 671.178471 
L 622.357634 569.228495 
L 601.736476 482.870868 
L 581.115319 408.609333 
L 560.494162 343.538973 
L 539.873004 286.795408 
L 519.251847 236.771414 
L 498.630689 192.195903 
L 478.009532 152.897535 
L 457.388374 118.79171 
L 436.767217 89.160265 
L 416.14606 62.068308 
L 395.524902 43.342579 
L 374.903745 40.435118 
L 354.282587 44.878202 
L 333.66143 68.757282 
L 313.040273 166.046787 
L 292.419115 222816.077361 
L 271.797958 222816.077361 
L 251.1768 222816.077361 
L 230.555643 222816.077361 
z
" clip-path="url(#p16ee98ba7f)" style="fill: #6495ed; fill-opacity: 0.6; stroke: #6495ed; stroke-opacity: 0.6"/>
   </g>
   <g id="matplotlib.axis_3">
    <g id="xtick_17">
     <g id="line2d_24">
      <g>
       <use xlink:href="#mfe1169cfa1" x="385.214323" y="247.381683" style="stroke: #000000; stroke-width: 0.8"/>
      </g>
     </g>
     <g id="text_11">
      <!-- $\mathdefault{10^{0}}$ -->
      <g transform="translate(378.247369 261.300182) scale(0.1 -0.1)">
       <use xlink:href="#CMR17-31" transform="scale(0.996264)"/>
       <use xlink:href="#CMR17-30" transform="translate(45.690477 0) scale(0.996264)"/>
       <use xlink:href="#CMR17-30" transform="translate(91.380954 36.153639) scale(0.697382)"/>
      </g>
     </g>
    </g>
    <g id="xtick_18">
     <g id="line2d_25">
      <g>
       <use xlink:href="#mfe1169cfa1" x="550.183583" y="247.381683" style="stroke: #000000; stroke-width: 0.8"/>
      </g>
     </g>
     <g id="text_12">
      <!-- $\mathdefault{10^{1}}$ -->
      <g transform="translate(543.216629 261.300182) scale(0.1 -0.1)">
       <use xlink:href="#CMR17-31" transform="scale(0.996264)"/>
       <use xlink:href="#CMR17-30" transform="translate(45.690477 0) scale(0.996264)"/>
       <use xlink:href="#CMR17-31" transform="translate(91.380954 36.153639) scale(0.697382)"/>
      </g>
     </g>
    </g>
    <g id="xtick_19">
     <g id="line2d_26">
      <g>
       <use xlink:href="#md162d1a7fc" x="319.566455" y="247.381683" style="stroke: #000000; stroke-width: 0.6"/>
      </g>
     </g>
    </g>
    <g id="xtick_20">
     <g id="line2d_27">
      <g>
       <use xlink:href="#md162d1a7fc" x="335.553628" y="247.381683" style="stroke: #000000; stroke-width: 0.6"/>
      </g>
     </g>
    </g>
    <g id="xtick_21">
     <g id="line2d_28">
      <g>
       <use xlink:href="#md162d1a7fc" x="348.6161" y="247.381683" style="stroke: #000000; stroke-width: 0.6"/>
      </g>
     </g>
    </g>
    <g id="xtick_22">
     <g id="line2d_29">
      <g>
       <use xlink:href="#md162d1a7fc" x="359.660262" y="247.381683" style="stroke: #000000; stroke-width: 0.6"/>
      </g>
     </g>
    </g>
    <g id="xtick_23">
     <g id="line2d_30">
      <g>
       <use xlink:href="#md162d1a7fc" x="369.22715" y="247.381683" style="stroke: #000000; stroke-width: 0.6"/>
      </g>
     </g>
    </g>
    <g id="xtick_24">
     <g id="line2d_31">
      <g>
       <use xlink:href="#md162d1a7fc" x="377.665744" y="247.381683" style="stroke: #000000; stroke-width: 0.6"/>
      </g>
     </g>
    </g>
    <g id="xtick_25">
     <g id="line2d_32">
      <g>
       <use xlink:href="#md162d1a7fc" x="434.875019" y="247.381683" style="stroke: #000000; stroke-width: 0.6"/>
      </g>
     </g>
    </g>
    <g id="xtick_26">
     <g id="line2d_33">
      <g>
       <use xlink:href="#md162d1a7fc" x="463.924664" y="247.381683" style="stroke: #000000; stroke-width: 0.6"/>
      </g>
     </g>
    </g>
    <g id="xtick_27">
     <g id="line2d_34">
      <g>
       <use xlink:href="#md162d1a7fc" x="484.535714" y="247.381683" style="stroke: #000000; stroke-width: 0.6"/>
      </g>
     </g>
    </g>
    <g id="xtick_28">
     <g id="line2d_35">
      <g>
       <use xlink:href="#md162d1a7fc" x="500.522887" y="247.381683" style="stroke: #000000; stroke-width: 0.6"/>
      </g>
     </g>
    </g>
    <g id="xtick_29">
     <g id="line2d_36">
      <g>
       <use xlink:href="#md162d1a7fc" x="513.585359" y="247.381683" style="stroke: #000000; stroke-width: 0.6"/>
      </g>
     </g>
    </g>
    <g id="xtick_30">
     <g id="line2d_37">
      <g>
       <use xlink:href="#md162d1a7fc" x="524.629521" y="247.381683" style="stroke: #000000; stroke-width: 0.6"/>
      </g>
     </g>
    </g>
    <g id="xtick_31">
     <g id="line2d_38">
      <g>
       <use xlink:href="#md162d1a7fc" x="534.19641" y="247.381683" style="stroke: #000000; stroke-width: 0.6"/>
      </g>
     </g>
    </g>
    <g id="xtick_32">
     <g id="line2d_39">
      <g>
       <use xlink:href="#md162d1a7fc" x="542.635004" y="247.381683" style="stroke: #000000; stroke-width: 0.6"/>
      </g>
     </g>
    </g>
    <g id="text_13">
     <!-- Energy [TeV] -->
     <g transform="translate(420.39744 274.70934) scale(0.1 -0.1)">
      <use xlink:href="#CMR17-45" transform="scale(0.996264)"/>
      <use xlink:href="#CMR17-6e" transform="translate(62.586301 0) scale(0.996264)"/>
      <use xlink:href="#CMR17-65" transform="translate(113.48167 0) scale(0.996264)"/>
      <use xlink:href="#CMR17-72" transform="translate(153.967331 0) scale(0.996264)"/>
      <use xlink:href="#CMR17-67" transform="translate(189.248099 0) scale(0.996264)"/>
      <use xlink:href="#CMR17-79" transform="translate(234.938576 0) scale(0.996264)"/>
      <use xlink:href="#CMR17-5b" transform="translate(313.307458 0) scale(0.996264)"/>
      <use xlink:href="#CMR17-54" transform="translate(338.178516 0) scale(0.996264)"/>
      <use xlink:href="#CMR17-65" transform="translate(396.881142 0) scale(0.996264)"/>
      <use xlink:href="#CMR17-56" transform="translate(437.366802 0) scale(0.996264)"/>
      <use xlink:href="#CMR17-5d" transform="translate(506.439232 0) scale(0.996264)"/>
     </g>
    </g>
   </g>
   <g id="matplotlib.axis_4">
    <g id="ytick_3">
     <g id="line2d_40">
      <g>
       <use xlink:href="#m25ffaf024b" x="319.566455" y="158.927776" style="stroke: #000000; stroke-width: 0.8"/>
      </g>
     </g>
    </g>
    <g id="ytick_4">
     <g id="line2d_41">
      <g>
       <use xlink:href="#m25ffaf024b" x="319.566455" y="92.014978" style="stroke: #000000; stroke-width: 0.8"/>
      </g>
     </g>
    </g>
   </g>
   <g id="line2d_42">
    <path d="M 305.160619 289 
L 313.040273 124.988599 
L 333.66143 49.087337 
L 354.282587 43.024737 
L 374.903745 39.227104 
L 395.524902 45.839421 
L 416.14606 71.906743 
L 436.767217 99.538306 
L 457.388374 130.592336 
L 478.009532 166.920438 
L 498.630689 208.47142 
L 519.251847 255.461851 
L 532.403153 289 
" clip-path="url(#p16ee98ba7f)" style="fill: none; stroke: #c71585; stroke-width: 1.5; stroke-linecap: square"/>
   </g>
   <g id="LineCollection_3">
    <path clip-path="url(#p16ee98ba7f)" style="fill: none; stroke: #000000; stroke-width: 1.5"/>
    <path clip-path="url(#p16ee98ba7f)" style="fill: none; stroke: #000000; stroke-width: 1.5"/>
    <path clip-path="url(#p16ee98ba7f)" style="fill: none; stroke: #000000; stroke-width: 1.5"/>
    <path clip-path="url(#p16ee98ba7f)" style="fill: none; stroke: #000000; stroke-width: 1.5"/>
    <path d="M 313.040273 136.731712 
L 313.040273 113.771016 
" clip-path="url(#p16ee98ba7f)" style="fill: none; stroke: #000000; stroke-width: 1.5"/>
    <path d="M 333.66143 56.549958 
L 333.66143 41.104619 
" clip-path="url(#p16ee98ba7f)" style="fill: none; stroke: #000000; stroke-width: 1.5"/>
    <path d="M 354.282587 50.813477 
L 354.282587 35.803816 
" clip-path="url(#p16ee98ba7f)" style="fill: none; stroke: #000000; stroke-width: 1.5"/>
    <path d="M 374.903745 46.797593 
L 374.903745 32.085855 
" clip-path="url(#p16ee98ba7f)" style="fill: none; stroke: #000000; stroke-width: 1.5"/>
    <path d="M 395.524902 53.565168 
L 395.524902 38.348019 
" clip-path="url(#p16ee98ba7f)" style="fill: none; stroke: #000000; stroke-width: 1.5"/>
    <path d="M 416.14606 81.090448 
L 416.14606 63.639954 
" clip-path="url(#p16ee98ba7f)" style="fill: none; stroke: #000000; stroke-width: 1.5"/>
    <path d="M 436.767217 110.213051 
L 436.767217 90.05849 
" clip-path="url(#p16ee98ba7f)" style="fill: none; stroke: #000000; stroke-width: 1.5"/>
    <path d="M 457.388374 143.22742 
L 457.388374 119.524851 
" clip-path="url(#p16ee98ba7f)" style="fill: none; stroke: #000000; stroke-width: 1.5"/>
    <path d="M 478.009532 182.439273 
L 478.009532 153.754884 
" clip-path="url(#p16ee98ba7f)" style="fill: none; stroke: #000000; stroke-width: 1.5"/>
    <path d="M 498.630689 228.13781 
L 498.630689 192.414354 
" clip-path="url(#p16ee98ba7f)" style="fill: none; stroke: #000000; stroke-width: 1.5"/>
    <path d="M 519.251847 281.337562 
L 519.251847 235.424312 
" clip-path="url(#p16ee98ba7f)" style="fill: none; stroke: #000000; stroke-width: 1.5"/>
    <path d="M 539.873004 289 
L 539.873004 282.524896 
" clip-path="url(#p16ee98ba7f)" style="fill: none; stroke: #000000; stroke-width: 1.5"/>
    <path clip-path="url(#p16ee98ba7f)" style="fill: none; stroke: #000000; stroke-width: 1.5"/>
    <path clip-path="url(#p16ee98ba7f)" style="fill: none; stroke: #000000; stroke-width: 1.5"/>
    <path clip-path="url(#p16ee98ba7f)" style="fill: none; stroke: #000000; stroke-width: 1.5"/>
    <path clip-path="url(#p16ee98ba7f)" style="fill: none; stroke: #000000; stroke-width: 1.5"/>
    <path clip-path="url(#p16ee98ba7f)" style="fill: none; stroke: #000000; stroke-width: 1.5"/>
    <path clip-path="url(#p16ee98ba7f)" style="fill: none; stroke: #000000; stroke-width: 1.5"/>
    <path clip-path="url(#p16ee98ba7f)" style="fill: none; stroke: #000000; stroke-width: 1.5"/>
    <path clip-path="url(#p16ee98ba7f)" style="fill: none; stroke: #000000; stroke-width: 1.5"/>
   </g>
   <g id="line2d_43">
    <g clip-path="url(#p16ee98ba7f)">
     <use xlink:href="#mc7321ef667" x="311.131569" y="20737" style="stroke: #000000"/>
     <use xlink:href="#mc7321ef667" x="313.040273" y="124.570319" style="stroke: #000000"/>
     <use xlink:href="#mc7321ef667" x="333.66143" y="48.518715" style="stroke: #000000"/>
     <use xlink:href="#mc7321ef667" x="354.282587" y="43.017218" style="stroke: #000000"/>
     <use xlink:href="#mc7321ef667" x="374.903745" y="39.161739" style="stroke: #000000"/>
     <use xlink:href="#mc7321ef667" x="395.524902" y="45.657061" style="stroke: #000000"/>
     <use xlink:href="#mc7321ef667" x="416.14606" y="71.971423" style="stroke: #000000"/>
     <use xlink:href="#mc7321ef667" x="436.767217" y="99.610738" style="stroke: #000000"/>
     <use xlink:href="#mc7321ef667" x="457.388374" y="130.650482" style="stroke: #000000"/>
     <use xlink:href="#mc7321ef667" x="478.009532" y="167.035563" style="stroke: #000000"/>
     <use xlink:href="#mc7321ef667" x="498.630689" y="208.632957" style="stroke: #000000"/>
     <use xlink:href="#mc7321ef667" x="519.251847" y="255.676662" style="stroke: #000000"/>
     <use xlink:href="#mc7321ef667" x="539.873004" y="308.343156" style="stroke: #000000"/>
     <use xlink:href="#mc7321ef667" x="560.494162" y="368.943328" style="stroke: #000000"/>
     <use xlink:href="#mc7321ef667" x="581.115319" y="438.658485" style="stroke: #000000"/>
     <use xlink:href="#mc7321ef667" x="601.736476" y="518.233652" style="stroke: #000000"/>
     <use xlink:href="#mc7321ef667" x="622.357634" y="613.45811" style="stroke: #000000"/>
     <use xlink:href="#mc7321ef667" x="642.978791" y="725.762067" style="stroke: #000000"/>
     <use xlink:href="#mc7321ef667" x="663.599949" y="857.199472" style="stroke: #000000"/>
     <use xlink:href="#mc7321ef667" x="684.221106" y="1024.694464" style="stroke: #000000"/>
     <use xlink:href="#mc7321ef667" x="704.842264" y="1246.622959" style="stroke: #000000"/>
    </g>
   </g>
   <g id="patch_10">
    <path d="M 319.566455 247.381683 
L 319.566455 25.10218 
" style="fill: none; stroke: #000000; stroke-width: 0.8; stroke-linejoin: miter; stroke-linecap: square"/>
   </g>
   <g id="patch_11">
    <path d="M 579.233227 247.381683 
L 579.233227 25.10218 
" style="fill: none; stroke: #000000; stroke-width: 0.8; stroke-linejoin: miter; stroke-linecap: square"/>
   </g>
   <g id="patch_12">
    <path d="M 319.566455 247.381683 
L 579.233227 247.381683 
" style="fill: none; stroke: #000000; stroke-width: 0.8; stroke-linejoin: miter; stroke-linecap: square"/>
   </g>
   <g id="patch_13">
    <path d="M 319.566455 25.10218 
L 579.233227 25.10218 
" style="fill: none; stroke: #000000; stroke-width: 0.8; stroke-linejoin: miter; stroke-linecap: square"/>
   </g>
   <g id="text_14">
    <!-- sys = 0% -->
    <g transform="translate(430.31259 19.10218) scale(0.12 -0.12)">
     <use xlink:href="#CMR17-73" transform="scale(0.996264)"/>
     <use xlink:href="#CMR17-79" transform="translate(35.801338 0) scale(0.996264)"/>
     <use xlink:href="#CMR17-73" transform="translate(84.094253 0) scale(0.996264)"/>
     <use xlink:href="#CMR17-3d" transform="translate(149.971557 0) scale(0.996264)"/>
     <use xlink:href="#CMR17-30" transform="translate(251.762312 0) scale(0.996264)"/>
    </g>
   </g>
   <g id="legend_2">
    <g id="patch_14">
     <path d="M 326.566455 242.381683 
L 434.005939 242.381683 
Q 436.005939 242.381683 436.005939 240.381683 
L 436.005939 189.412273 
Q 436.005939 187.412273 434.005939 187.412273 
L 326.566455 187.412273 
Q 324.566455 187.412273 324.566455 189.412273 
L 324.566455 240.381683 
Q 324.566455 242.381683 326.566455 242.381683 
z
" style="fill: #ffffff; opacity: 0.8; stroke: #cccccc; stroke-linejoin: miter"/>
    </g>
    <g id="line2d_44">
     <path d="M 328.566455 194.912273 
L 338.566455 194.912273 
L 348.566455 194.912273 
" style="fill: none; stroke: #c71585; stroke-width: 1.5; stroke-linecap: square"/>
    </g>
    <g id="text_15">
     <!-- Model Prediction -->
     <g transform="translate(356.566455 198.412273) scale(0.1 -0.1)">
      <use xlink:href="#CMR17-4d" transform="scale(0.996264)"/>
      <use xlink:href="#CMR17-6f" transform="translate(84.686941 0) scale(0.996264)"/>
      <use xlink:href="#CMR17-64" transform="translate(132.979856 0) scale(0.996264)"/>
      <use xlink:href="#CMR17-65" transform="translate(183.875226 0) scale(0.996264)"/>
      <use xlink:href="#CMR17-6c" transform="translate(224.360887 0) scale(0.996264)"/>
      <use xlink:href="#CMR17-50" transform="translate(279.307911 0) scale(0.996264)"/>
      <use xlink:href="#CMR17-72" transform="translate(341.894212 0) scale(0.996264)"/>
      <use xlink:href="#CMR17-65" transform="translate(377.17498 0) scale(0.996264)"/>
      <use xlink:href="#CMR17-64" transform="translate(417.66064 0) scale(0.996264)"/>
      <use xlink:href="#CMR17-69" transform="translate(468.55601 0) scale(0.996264)"/>
      <use xlink:href="#CMR17-63" transform="translate(493.427069 0) scale(0.996264)"/>
      <use xlink:href="#CMR17-74" transform="translate(533.912729 0) scale(0.996264)"/>
      <use xlink:href="#CMR17-69" transform="translate(569.193497 0) scale(0.996264)"/>
      <use xlink:href="#CMR17-6f" transform="translate(594.064555 0) scale(0.996264)"/>
      <use xlink:href="#CMR17-6e" transform="translate(639.755032 0) scale(0.996264)"/>
     </g>
    </g>
    <g id="patch_15">
     <path d="M 328.566455 218.356228 
L 348.566455 218.356228 
L 348.566455 211.356228 
L 328.566455 211.356228 
z
" style="fill: #6495ed; fill-opacity: 0.6; stroke: #6495ed; stroke-opacity: 0.6; stroke-linejoin: miter"/>
    </g>
    <g id="text_16">
     <!-- 10 % Systematic Error  -->
     <g transform="translate(356.566455 212.26795) scale(0.1 -0.1)">
      <use xlink:href="#CMR17-31" transform="scale(0.996264)"/>
      <use xlink:href="#CMR17-30" transform="translate(45.690477 0) scale(0.996264)"/>
     </g>
     <!--  on energy reco. -->
     <g transform="translate(356.566455 222.507327) scale(0.1 -0.1)">
      <use xlink:href="#CMR17-6f" transform="scale(0.996264)"/>
      <use xlink:href="#CMR17-6e" transform="translate(45.690477 0) scale(0.996264)"/>
      <use xlink:href="#CMR17-65" transform="translate(126.661813 0) scale(0.996264)"/>
      <use xlink:href="#CMR17-6e" transform="translate(167.147474 0) scale(0.996264)"/>
      <use xlink:href="#CMR17-65" transform="translate(218.042843 0) scale(0.996264)"/>
      <use xlink:href="#CMR17-72" transform="translate(258.528504 0) scale(0.996264)"/>
      <use xlink:href="#CMR17-67" transform="translate(293.809272 0) scale(0.996264)"/>
      <use xlink:href="#CMR17-79" transform="translate(339.499749 0) scale(0.996264)"/>
      <use xlink:href="#CMR17-72" transform="translate(417.868631 0) scale(0.996264)"/>
      <use xlink:href="#CMR17-65" transform="translate(453.149399 0) scale(0.996264)"/>
      <use xlink:href="#CMR17-63" transform="translate(493.635059 0) scale(0.996264)"/>
      <use xlink:href="#CMR17-6f" transform="translate(534.12072 0) scale(0.996264)"/>
      <use xlink:href="#CMR17-2e" transform="translate(579.811197 0) scale(0.996264)"/>
     </g>
    </g>
    <g id="LineCollection_4">
     <path d="M 338.566455 237.944505 
L 338.566455 227.944505 
" style="fill: none; stroke: #000000; stroke-width: 1.5"/>
    </g>
    <g id="line2d_45"/>
    <g id="line2d_46">
     <g>
      <use xlink:href="#mc7321ef667" x="338.566455" y="232.944505" style="stroke: #000000"/>
     </g>
    </g>
    <g id="text_17">
     <!-- Counts -->
     <g transform="translate(356.566455 236.444505) scale(0.1 -0.1)">
      <use xlink:href="#CMR17-43" transform="scale(0.996264)"/>
      <use xlink:href="#CMR17-6f" transform="translate(66.509881 0) scale(0.996264)"/>
      <use xlink:href="#CMR17-75" transform="translate(112.200358 0) scale(0.996264)"/>
      <use xlink:href="#CMR17-6e" transform="translate(163.095727 0) scale(0.996264)"/>
      <use xlink:href="#CMR17-74" transform="translate(211.388643 0) scale(0.996264)"/>
      <use xlink:href="#CMR17-73" transform="translate(246.669411 0) scale(0.996264)"/>
     </g>
    </g>
   </g>
  </g>
  <g id="axes_3">
   <g id="patch_16">
    <path d="M 593.533227 247.381683 
L 853.2 247.381683 
L 853.2 25.10218 
L 593.533227 25.10218 
z
" style="fill: #ffffff"/>
   </g>
   <g id="PolyCollection_3">
    <path d="M 504.522415 222816.077361 
L 504.522415 222816.077361 
L 525.143573 222816.077361 
L 545.76473 222816.077361 
L 566.385888 218.324 
L 587.007045 88.530207 
L 607.628202 46.390164 
L 628.24936 41.502948 
L 648.870517 41.549275 
L 669.491675 54.859403 
L 690.112832 81.600402 
L 710.73399 110.298174 
L 731.355147 142.971312 
L 751.976304 180.870041 
L 772.597462 223.999169 
L 793.218619 272.554634 
L 813.839777 327.235467 
L 834.460934 390.017422 
L 855.082092 461.862365 
L 875.703249 544.50913 
L 896.324406 642.738427 
L 916.945564 757.827206 
L 937.566721 893.542391 
L 958.187879 1067.117328 
L 978.809036 1328.12034 
L 978.809036 1115.612971 
L 978.809036 1115.612971 
L 958.187879 932.083685 
L 937.566721 790.148828 
L 916.945564 671.178471 
L 896.324406 569.228495 
L 875.703249 482.870868 
L 855.082092 408.609333 
L 834.460934 343.538973 
L 813.839777 286.795408 
L 793.218619 236.771414 
L 772.597462 192.195903 
L 751.976304 152.897535 
L 731.355147 118.79171 
L 710.73399 89.160265 
L 690.112832 62.068308 
L 669.491675 43.342579 
L 648.870517 40.435118 
L 628.24936 44.878202 
L 607.628202 68.757282 
L 587.007045 166.046787 
L 566.385888 222816.077361 
L 545.76473 222816.077361 
L 525.143573 222816.077361 
L 504.522415 222816.077361 
z
" clip-path="url(#p28ad592192)" style="fill: #6495ed; fill-opacity: 0.6; stroke: #6495ed; stroke-opacity: 0.6"/>
   </g>
   <g id="matplotlib.axis_5">
    <g id="xtick_33">
     <g id="line2d_47">
      <g>
       <use xlink:href="#mfe1169cfa1" x="659.181096" y="247.381683" style="stroke: #000000; stroke-width: 0.8"/>
      </g>
     </g>
     <g id="text_18">
      <!-- $\mathdefault{10^{0}}$ -->
      <g transform="translate(652.214142 261.300182) scale(0.1 -0.1)">
       <use xlink:href="#CMR17-31" transform="scale(0.996264)"/>
       <use xlink:href="#CMR17-30" transform="translate(45.690477 0) scale(0.996264)"/>
       <use xlink:href="#CMR17-30" transform="translate(91.380954 36.153639) scale(0.697382)"/>
      </g>
     </g>
    </g>
    <g id="xtick_34">
     <g id="line2d_48">
      <g>
       <use xlink:href="#mfe1169cfa1" x="824.150355" y="247.381683" style="stroke: #000000; stroke-width: 0.8"/>
      </g>
     </g>
     <g id="text_19">
      <!-- $\mathdefault{10^{1}}$ -->
      <g transform="translate(817.183401 261.300182) scale(0.1 -0.1)">
       <use xlink:href="#CMR17-31" transform="scale(0.996264)"/>
       <use xlink:href="#CMR17-30" transform="translate(45.690477 0) scale(0.996264)"/>
       <use xlink:href="#CMR17-31" transform="translate(91.380954 36.153639) scale(0.697382)"/>
      </g>
     </g>
    </g>
    <g id="text_20">
     <!-- Energy [TeV] -->
     <g transform="translate(694.364212 274.70934) scale(0.1 -0.1)">
      <use xlink:href="#CMR17-45" transform="scale(0.996264)"/>
      <use xlink:href="#CMR17-6e" transform="translate(62.586301 0) scale(0.996264)"/>
      <use xlink:href="#CMR17-65" transform="translate(113.48167 0) scale(0.996264)"/>
      <use xlink:href="#CMR17-72" transform="translate(153.967331 0) scale(0.996264)"/>
      <use xlink:href="#CMR17-67" transform="translate(189.248099 0) scale(0.996264)"/>
      <use xlink:href="#CMR17-79" transform="translate(234.938576 0) scale(0.996264)"/>
      <use xlink:href="#CMR17-5b" transform="translate(313.307458 0) scale(0.996264)"/>
      <use xlink:href="#CMR17-54" transform="translate(338.178516 0) scale(0.996264)"/>
      <use xlink:href="#CMR17-65" transform="translate(396.881142 0) scale(0.996264)"/>
      <use xlink:href="#CMR17-56" transform="translate(437.366802 0) scale(0.996264)"/>
      <use xlink:href="#CMR17-5d" transform="translate(506.439232 0) scale(0.996264)"/>
     </g>
    </g>
   </g>
   <g id="matplotlib.axis_6">
    <g id="ytick_5">
     <g id="line2d_49">
      <g>
       <use xlink:href="#m25ffaf024b" x="593.533227" y="158.927776" style="stroke: #000000; stroke-width: 0.8"/>
      </g>
     </g>
    </g>
    <g id="ytick_6">
     <g id="line2d_50">
      <g>
       <use xlink:href="#m25ffaf024b" x="593.533227" y="92.014978" style="stroke: #000000; stroke-width: 0.8"/>
      </g>
     </g>
    </g>
   </g>
   <g id="line2d_51">
    <path d="M 586.995657 289 
L 587.007045 166.046787 
L 607.628202 68.757282 
L 628.24936 44.878202 
L 648.870517 40.435118 
L 669.491675 43.342579 
L 690.112832 62.068308 
L 710.73399 89.160265 
L 731.355147 118.79171 
L 751.976304 152.897535 
L 772.597462 192.195903 
L 793.218619 236.771414 
L 813.839777 286.795408 
L 814.640947 289 
" clip-path="url(#p28ad592192)" style="fill: none; stroke: #c71585; stroke-width: 1.5; stroke-linecap: square"/>
   </g>
   <g id="LineCollection_5">
    <path clip-path="url(#p28ad592192)" style="fill: none; stroke: #000000; stroke-width: 1.5"/>
    <path clip-path="url(#p28ad592192)" style="fill: none; stroke: #000000; stroke-width: 1.5"/>
    <path clip-path="url(#p28ad592192)" style="fill: none; stroke: #000000; stroke-width: 1.5"/>
    <path clip-path="url(#p28ad592192)" style="fill: none; stroke: #000000; stroke-width: 1.5"/>
    <path d="M 587.007045 136.731712 
L 587.007045 113.771016 
" clip-path="url(#p28ad592192)" style="fill: none; stroke: #000000; stroke-width: 1.5"/>
    <path d="M 607.628202 56.549958 
L 607.628202 41.104619 
" clip-path="url(#p28ad592192)" style="fill: none; stroke: #000000; stroke-width: 1.5"/>
    <path d="M 628.24936 50.813477 
L 628.24936 35.803816 
" clip-path="url(#p28ad592192)" style="fill: none; stroke: #000000; stroke-width: 1.5"/>
    <path d="M 648.870517 46.797593 
L 648.870517 32.085855 
" clip-path="url(#p28ad592192)" style="fill: none; stroke: #000000; stroke-width: 1.5"/>
    <path d="M 669.491675 53.565168 
L 669.491675 38.348019 
" clip-path="url(#p28ad592192)" style="fill: none; stroke: #000000; stroke-width: 1.5"/>
    <path d="M 690.112832 81.090448 
L 690.112832 63.639954 
" clip-path="url(#p28ad592192)" style="fill: none; stroke: #000000; stroke-width: 1.5"/>
    <path d="M 710.73399 110.213051 
L 710.73399 90.05849 
" clip-path="url(#p28ad592192)" style="fill: none; stroke: #000000; stroke-width: 1.5"/>
    <path d="M 731.355147 143.22742 
L 731.355147 119.524851 
" clip-path="url(#p28ad592192)" style="fill: none; stroke: #000000; stroke-width: 1.5"/>
    <path d="M 751.976304 182.439273 
L 751.976304 153.754884 
" clip-path="url(#p28ad592192)" style="fill: none; stroke: #000000; stroke-width: 1.5"/>
    <path d="M 772.597462 228.13781 
L 772.597462 192.414354 
" clip-path="url(#p28ad592192)" style="fill: none; stroke: #000000; stroke-width: 1.5"/>
    <path d="M 793.218619 281.337562 
L 793.218619 235.424312 
" clip-path="url(#p28ad592192)" style="fill: none; stroke: #000000; stroke-width: 1.5"/>
    <path d="M 813.839777 289 
L 813.839777 282.524896 
" clip-path="url(#p28ad592192)" style="fill: none; stroke: #000000; stroke-width: 1.5"/>
    <path clip-path="url(#p28ad592192)" style="fill: none; stroke: #000000; stroke-width: 1.5"/>
    <path clip-path="url(#p28ad592192)" style="fill: none; stroke: #000000; stroke-width: 1.5"/>
    <path clip-path="url(#p28ad592192)" style="fill: none; stroke: #000000; stroke-width: 1.5"/>
    <path clip-path="url(#p28ad592192)" style="fill: none; stroke: #000000; stroke-width: 1.5"/>
    <path clip-path="url(#p28ad592192)" style="fill: none; stroke: #000000; stroke-width: 1.5"/>
    <path clip-path="url(#p28ad592192)" style="fill: none; stroke: #000000; stroke-width: 1.5"/>
    <path clip-path="url(#p28ad592192)" style="fill: none; stroke: #000000; stroke-width: 1.5"/>
    <path clip-path="url(#p28ad592192)" style="fill: none; stroke: #000000; stroke-width: 1.5"/>
   </g>
   <g id="line2d_52">
    <g clip-path="url(#p28ad592192)">
     <use xlink:href="#mc7321ef667" x="585.098341" y="20737" style="stroke: #000000"/>
     <use xlink:href="#mc7321ef667" x="587.007045" y="124.570319" style="stroke: #000000"/>
     <use xlink:href="#mc7321ef667" x="607.628202" y="48.518715" style="stroke: #000000"/>
     <use xlink:href="#mc7321ef667" x="628.24936" y="43.017218" style="stroke: #000000"/>
     <use xlink:href="#mc7321ef667" x="648.870517" y="39.161739" style="stroke: #000000"/>
     <use xlink:href="#mc7321ef667" x="669.491675" y="45.657061" style="stroke: #000000"/>
     <use xlink:href="#mc7321ef667" x="690.112832" y="71.971423" style="stroke: #000000"/>
     <use xlink:href="#mc7321ef667" x="710.73399" y="99.610738" style="stroke: #000000"/>
     <use xlink:href="#mc7321ef667" x="731.355147" y="130.650482" style="stroke: #000000"/>
     <use xlink:href="#mc7321ef667" x="751.976304" y="167.035563" style="stroke: #000000"/>
     <use xlink:href="#mc7321ef667" x="772.597462" y="208.632957" style="stroke: #000000"/>
     <use xlink:href="#mc7321ef667" x="793.218619" y="255.676662" style="stroke: #000000"/>
     <use xlink:href="#mc7321ef667" x="813.839777" y="308.343156" style="stroke: #000000"/>
     <use xlink:href="#mc7321ef667" x="834.460934" y="368.943328" style="stroke: #000000"/>
     <use xlink:href="#mc7321ef667" x="855.082092" y="438.658485" style="stroke: #000000"/>
     <use xlink:href="#mc7321ef667" x="875.703249" y="518.233652" style="stroke: #000000"/>
     <use xlink:href="#mc7321ef667" x="896.324406" y="613.45811" style="stroke: #000000"/>
     <use xlink:href="#mc7321ef667" x="916.945564" y="725.762067" style="stroke: #000000"/>
     <use xlink:href="#mc7321ef667" x="937.566721" y="857.199472" style="stroke: #000000"/>
     <use xlink:href="#mc7321ef667" x="958.187879" y="1024.694464" style="stroke: #000000"/>
     <use xlink:href="#mc7321ef667" x="978.809036" y="1246.622959" style="stroke: #000000"/>
    </g>
   </g>
   <g id="patch_17">
    <path d="M 593.533227 247.381683 
L 593.533227 25.10218 
" style="fill: none; stroke: #000000; stroke-width: 0.8; stroke-linejoin: miter; stroke-linecap: square"/>
   </g>
   <g id="patch_18">
    <path d="M 853.2 247.381683 
L 853.2 25.10218 
" style="fill: none; stroke: #000000; stroke-width: 0.8; stroke-linejoin: miter; stroke-linecap: square"/>
   </g>
   <g id="patch_19">
    <path d="M 593.533227 247.381683 
L 853.2 247.381683 
" style="fill: none; stroke: #000000; stroke-width: 0.8; stroke-linejoin: miter; stroke-linecap: square"/>
   </g>
   <g id="patch_20">
    <path d="M 593.533227 25.10218 
L 853.2 25.10218 
" style="fill: none; stroke: #000000; stroke-width: 0.8; stroke-linejoin: miter; stroke-linecap: square"/>
   </g>
   <g id="text_21">
    <!-- sys = +10% -->
    <g transform="translate(696.800541 19.10218) scale(0.12 -0.12)">
     <defs>
      <path id="CMR17-2b" d="M 2413 1472 
L 4109 1472 
C 4198 1472 4307 1472 4307 1580 
C 4307 1696 4205 1696 4109 1696 
L 2413 1696 
L 2413 3385 
C 2413 3475 2413 3584 2304 3584 
C 2189 3584 2189 3481 2189 3385 
L 2189 1696 
L 493 1696 
C 403 1696 294 1696 294 1587 
C 294 1472 397 1472 493 1472 
L 2189 1472 
L 2189 -194 
C 2189 -282 2189 -391 2298 -391 
C 2413 -391 2413 -289 2413 -194 
L 2413 1472 
z
" transform="scale(0.015625)"/>
     </defs>
     <use xlink:href="#CMR17-73" transform="scale(0.996264)"/>
     <use xlink:href="#CMR17-79" transform="translate(35.801338 0) scale(0.996264)"/>
     <use xlink:href="#CMR17-73" transform="translate(84.094253 0) scale(0.996264)"/>
     <use xlink:href="#CMR17-3d" transform="translate(149.971557 0) scale(0.996264)"/>
     <use xlink:href="#CMR17-2b" transform="translate(251.762312 0) scale(0.996264)"/>
     <use xlink:href="#CMR17-31" transform="translate(323.477101 0) scale(0.996264)"/>
     <use xlink:href="#CMR17-30" transform="translate(369.167578 0) scale(0.996264)"/>
    </g>
   </g>
   <g id="legend_3">
    <g id="patch_21">
     <path d="M 600.533227 242.381683 
L 707.972711 242.381683 
Q 709.972711 242.381683 709.972711 240.381683 
L 709.972711 189.412273 
Q 709.972711 187.412273 707.972711 187.412273 
L 600.533227 187.412273 
Q 598.533227 187.412273 598.533227 189.412273 
L 598.533227 240.381683 
Q 598.533227 242.381683 600.533227 242.381683 
z
" style="fill: #ffffff; opacity: 0.8; stroke: #cccccc; stroke-linejoin: miter"/>
    </g>
    <g id="line2d_53">
     <path d="M 602.533227 194.912273 
L 612.533227 194.912273 
L 622.533227 194.912273 
" style="fill: none; stroke: #c71585; stroke-width: 1.5; stroke-linecap: square"/>
    </g>
    <g id="text_22">
     <!-- Model Prediction -->
     <g transform="translate(630.533227 198.412273) scale(0.1 -0.1)">
      <use xlink:href="#CMR17-4d" transform="scale(0.996264)"/>
      <use xlink:href="#CMR17-6f" transform="translate(84.686941 0) scale(0.996264)"/>
      <use xlink:href="#CMR17-64" transform="translate(132.979856 0) scale(0.996264)"/>
      <use xlink:href="#CMR17-65" transform="translate(183.875226 0) scale(0.996264)"/>
      <use xlink:href="#CMR17-6c" transform="translate(224.360887 0) scale(0.996264)"/>
      <use xlink:href="#CMR17-50" transform="translate(279.307911 0) scale(0.996264)"/>
      <use xlink:href="#CMR17-72" transform="translate(341.894212 0) scale(0.996264)"/>
      <use xlink:href="#CMR17-65" transform="translate(377.17498 0) scale(0.996264)"/>
      <use xlink:href="#CMR17-64" transform="translate(417.66064 0) scale(0.996264)"/>
      <use xlink:href="#CMR17-69" transform="translate(468.55601 0) scale(0.996264)"/>
      <use xlink:href="#CMR17-63" transform="translate(493.427069 0) scale(0.996264)"/>
      <use xlink:href="#CMR17-74" transform="translate(533.912729 0) scale(0.996264)"/>
      <use xlink:href="#CMR17-69" transform="translate(569.193497 0) scale(0.996264)"/>
      <use xlink:href="#CMR17-6f" transform="translate(594.064555 0) scale(0.996264)"/>
      <use xlink:href="#CMR17-6e" transform="translate(639.755032 0) scale(0.996264)"/>
     </g>
    </g>
    <g id="patch_22">
     <path d="M 602.533227 218.356228 
L 622.533227 218.356228 
L 622.533227 211.356228 
L 602.533227 211.356228 
z
" style="fill: #6495ed; fill-opacity: 0.6; stroke: #6495ed; stroke-opacity: 0.6; stroke-linejoin: miter"/>
    </g>
    <g id="text_23">
     <!-- 10 % Systematic Error  -->
     <g transform="translate(630.533227 212.26795) scale(0.1 -0.1)">
      <use xlink:href="#CMR17-31" transform="scale(0.996264)"/>
      <use xlink:href="#CMR17-30" transform="translate(45.690477 0) scale(0.996264)"/>
     </g>
     <!--  on energy reco. -->
     <g transform="translate(630.533227 222.507327) scale(0.1 -0.1)">
      <use xlink:href="#CMR17-6f" transform="scale(0.996264)"/>
      <use xlink:href="#CMR17-6e" transform="translate(45.690477 0) scale(0.996264)"/>
      <use xlink:href="#CMR17-65" transform="translate(126.661813 0) scale(0.996264)"/>
      <use xlink:href="#CMR17-6e" transform="translate(167.147474 0) scale(0.996264)"/>
      <use xlink:href="#CMR17-65" transform="translate(218.042843 0) scale(0.996264)"/>
      <use xlink:href="#CMR17-72" transform="translate(258.528504 0) scale(0.996264)"/>
      <use xlink:href="#CMR17-67" transform="translate(293.809272 0) scale(0.996264)"/>
      <use xlink:href="#CMR17-79" transform="translate(339.499749 0) scale(0.996264)"/>
      <use xlink:href="#CMR17-72" transform="translate(417.868631 0) scale(0.996264)"/>
      <use xlink:href="#CMR17-65" transform="translate(453.149399 0) scale(0.996264)"/>
      <use xlink:href="#CMR17-63" transform="translate(493.635059 0) scale(0.996264)"/>
      <use xlink:href="#CMR17-6f" transform="translate(534.12072 0) scale(0.996264)"/>
      <use xlink:href="#CMR17-2e" transform="translate(579.811197 0) scale(0.996264)"/>
     </g>
    </g>
    <g id="LineCollection_6">
     <path d="M 612.533227 237.944505 
L 612.533227 227.944505 
" style="fill: none; stroke: #000000; stroke-width: 1.5"/>
    </g>
    <g id="line2d_54"/>
    <g id="line2d_55">
     <g>
      <use xlink:href="#mc7321ef667" x="612.533227" y="232.944505" style="stroke: #000000"/>
     </g>
    </g>
    <g id="text_24">
     <!-- Counts -->
     <g transform="translate(630.533227 236.444505) scale(0.1 -0.1)">
      <use xlink:href="#CMR17-43" transform="scale(0.996264)"/>
      <use xlink:href="#CMR17-6f" transform="translate(66.509881 0) scale(0.996264)"/>
      <use xlink:href="#CMR17-75" transform="translate(112.200358 0) scale(0.996264)"/>
      <use xlink:href="#CMR17-6e" transform="translate(163.095727 0) scale(0.996264)"/>
      <use xlink:href="#CMR17-74" transform="translate(211.388643 0) scale(0.996264)"/>
      <use xlink:href="#CMR17-73" transform="translate(246.669411 0) scale(0.996264)"/>
     </g>
    </g>
   </g>
  </g>
 </g>
 <defs>
  <clipPath id="p0a5ef871a7">
   <rect x="45.599682" y="25.10218" width="259.666773" height="222.279503"/>
  </clipPath>
  <clipPath id="p16ee98ba7f">
   <rect x="319.566455" y="25.10218" width="259.666773" height="222.279503"/>
  </clipPath>
  <clipPath id="p28ad592192">
   <rect x="593.533227" y="25.10218" width="259.666773" height="222.279503"/>
  </clipPath>
 </defs>
</svg>
