<?xml version="1.0" encoding="utf-8" standalone="no"?>
<!DOCTYPE svg PUBLIC "-//W3C//DTD SVG 1.1//EN"
  "http://www.w3.org/Graphics/SVG/1.1/DTD/svg11.dtd">
<svg xmlns:xlink="http://www.w3.org/1999/xlink" width="460.8pt" height="345.6pt" viewBox="0 0 460.8 345.6" xmlns="http://www.w3.org/2000/svg" version="1.1">
 <metadata>
  <rdf:RDF xmlns:dc="http://purl.org/dc/elements/1.1/" xmlns:cc="http://creativecommons.org/ns#" xmlns:rdf="http://www.w3.org/1999/02/22-rdf-syntax-ns#">
   <cc:Work>
    <dc:type rdf:resource="http://purl.org/dc/dcmitype/StillImage"/>
    <dc:date>2023-08-02T18:16:49.550045</dc:date>
    <dc:format>image/svg+xml</dc:format>
    <dc:creator>
     <cc:Agent>
      <dc:title>Matplotlib v3.7.1, https://matplotlib.org/</dc:title>
     </cc:Agent>
    </dc:creator>
   </cc:Work>
  </rdf:RDF>
 </metadata>
 <defs>
  <style type="text/css">*{stroke-linejoin: round; stroke-linecap: butt}</style>
 </defs>
 <g id="figure_1">
  <g id="patch_1">
   <path d="M 0 345.6 
L 460.8 345.6 
L 460.8 0 
L 0 0 
z
" style="fill: #ffffff"/>
  </g>
  <g id="axes_1">
   <g id="patch_2">
    <path d="M 57.6 307.584 
L 414.72 307.584 
L 414.72 41.472 
L 57.6 41.472 
z
" style="fill: #ffffff"/>
   </g>
   <g id="matplotlib.axis_1">
    <g id="xtick_1">
     <g id="line2d_1">
      <defs>
       <path id="m33507433f4" d="M 0 0 
L 0 3.5 
" style="stroke: #000000; stroke-width: 0.8"/>
      </defs>
      <g>
       <use xlink:href="#m33507433f4" x="57.6" y="307.584" style="stroke: #000000; stroke-width: 0.8"/>
      </g>
     </g>
     <g id="text_1">
      <!-- $\mathdefault{10^{-1}}$ -->
      <g transform="translate(47.519713 321.502498) scale(0.1 -0.1)">
       <defs>
        <path id="CMR17-31" d="M 1702 4083 
C 1702 4217 1696 4224 1606 4224 
C 1357 3927 979 3833 621 3820 
C 602 3820 570 3820 563 3808 
C 557 3795 557 3782 557 3648 
C 755 3648 1088 3686 1344 3839 
L 1344 467 
C 1344 243 1331 166 781 166 
L 589 166 
L 589 0 
C 896 6 1216 12 1523 12 
C 1830 12 2150 6 2458 0 
L 2458 166 
L 2266 166 
C 1715 166 1702 236 1702 467 
L 1702 4083 
z
" transform="scale(0.015625)"/>
        <path id="CMR17-30" d="M 2688 2038 
C 2688 2430 2682 3099 2413 3613 
C 2176 4063 1798 4224 1466 4224 
C 1158 4224 768 4082 525 3620 
C 269 3137 243 2539 243 2038 
C 243 1671 250 1112 448 623 
C 723 -39 1216 -128 1466 -128 
C 1760 -128 2208 -7 2470 604 
C 2662 1048 2688 1568 2688 2038 
z
M 1466 -26 
C 1056 -26 813 328 723 816 
C 653 1196 653 1749 653 2109 
C 653 2604 653 3015 736 3407 
C 858 3954 1216 4121 1466 4121 
C 1728 4121 2067 3947 2189 3420 
C 2272 3054 2278 2623 2278 2109 
C 2278 1691 2278 1176 2202 797 
C 2067 96 1690 -26 1466 -26 
z
" transform="scale(0.015625)"/>
        <path id="CMSY10-0" d="M 4218 1472 
C 4326 1472 4442 1472 4442 1600 
C 4442 1728 4326 1728 4218 1728 
L 755 1728 
C 646 1728 531 1728 531 1600 
C 531 1472 646 1472 755 1472 
L 4218 1472 
z
" transform="scale(0.015625)"/>
       </defs>
       <use xlink:href="#CMR17-31" transform="scale(0.996264)"/>
       <use xlink:href="#CMR17-30" transform="translate(45.690477 0) scale(0.996264)"/>
       <use xlink:href="#CMSY10-0" transform="translate(91.380954 36.153639) scale(0.697382)"/>
       <use xlink:href="#CMR17-31" transform="translate(145.621947 36.153639) scale(0.697382)"/>
      </g>
     </g>
    </g>
    <g id="xtick_2">
     <g id="line2d_2">
      <g>
       <use xlink:href="#m33507433f4" x="176.64" y="307.584" style="stroke: #000000; stroke-width: 0.8"/>
      </g>
     </g>
     <g id="text_2">
      <!-- $\mathdefault{10^{0}}$ -->
      <g transform="translate(169.673046 321.502498) scale(0.1 -0.1)">
       <use xlink:href="#CMR17-31" transform="scale(0.996264)"/>
       <use xlink:href="#CMR17-30" transform="translate(45.690477 0) scale(0.996264)"/>
       <use xlink:href="#CMR17-30" transform="translate(91.380954 36.153639) scale(0.697382)"/>
      </g>
     </g>
    </g>
    <g id="xtick_3">
     <g id="line2d_3">
      <g>
       <use xlink:href="#m33507433f4" x="295.68" y="307.584" style="stroke: #000000; stroke-width: 0.8"/>
      </g>
     </g>
     <g id="text_3">
      <!-- $\mathdefault{10^{1}}$ -->
      <g transform="translate(288.713046 321.502498) scale(0.1 -0.1)">
       <use xlink:href="#CMR17-31" transform="scale(0.996264)"/>
       <use xlink:href="#CMR17-30" transform="translate(45.690477 0) scale(0.996264)"/>
       <use xlink:href="#CMR17-31" transform="translate(91.380954 36.153639) scale(0.697382)"/>
      </g>
     </g>
    </g>
    <g id="xtick_4">
     <g id="line2d_4">
      <g>
       <use xlink:href="#m33507433f4" x="414.72" y="307.584" style="stroke: #000000; stroke-width: 0.8"/>
      </g>
     </g>
     <g id="text_4">
      <!-- $\mathdefault{10^{2}}$ -->
      <g transform="translate(407.753046 321.502498) scale(0.1 -0.1)">
       <defs>
        <path id="CMR17-32" d="M 2669 990 
L 2554 990 
C 2490 537 2438 460 2413 422 
C 2381 371 1920 371 1830 371 
L 602 371 
C 832 620 1280 1073 1824 1596 
C 2214 1966 2669 2400 2669 3033 
C 2669 3788 2067 4224 1395 4224 
C 691 4224 262 3603 262 3027 
C 262 2777 448 2745 525 2745 
C 589 2745 781 2783 781 3007 
C 781 3206 614 3264 525 3264 
C 486 3264 448 3257 422 3244 
C 544 3788 915 4057 1306 4057 
C 1862 4057 2227 3616 2227 3033 
C 2227 2477 1901 1998 1536 1583 
L 262 147 
L 262 0 
L 2515 0 
L 2669 990 
z
" transform="scale(0.015625)"/>
       </defs>
       <use xlink:href="#CMR17-31" transform="scale(0.996264)"/>
       <use xlink:href="#CMR17-30" transform="translate(45.690477 0) scale(0.996264)"/>
       <use xlink:href="#CMR17-32" transform="translate(91.380954 36.153639) scale(0.697382)"/>
      </g>
     </g>
    </g>
    <g id="xtick_5">
     <g id="line2d_5">
      <defs>
       <path id="m3e916e203c" d="M 0 0 
L 0 2 
" style="stroke: #000000; stroke-width: 0.6"/>
      </defs>
      <g>
       <use xlink:href="#m3e916e203c" x="93.434611" y="307.584" style="stroke: #000000; stroke-width: 0.6"/>
      </g>
     </g>
    </g>
    <g id="xtick_6">
     <g id="line2d_6">
      <g>
       <use xlink:href="#m3e916e203c" x="114.396514" y="307.584" style="stroke: #000000; stroke-width: 0.6"/>
      </g>
     </g>
    </g>
    <g id="xtick_7">
     <g id="line2d_7">
      <g>
       <use xlink:href="#m3e916e203c" x="129.269221" y="307.584" style="stroke: #000000; stroke-width: 0.6"/>
      </g>
     </g>
    </g>
    <g id="xtick_8">
     <g id="line2d_8">
      <g>
       <use xlink:href="#m3e916e203c" x="140.805389" y="307.584" style="stroke: #000000; stroke-width: 0.6"/>
      </g>
     </g>
    </g>
    <g id="xtick_9">
     <g id="line2d_9">
      <g>
       <use xlink:href="#m3e916e203c" x="150.231125" y="307.584" style="stroke: #000000; stroke-width: 0.6"/>
      </g>
     </g>
    </g>
    <g id="xtick_10">
     <g id="line2d_10">
      <g>
       <use xlink:href="#m3e916e203c" x="158.200471" y="307.584" style="stroke: #000000; stroke-width: 0.6"/>
      </g>
     </g>
    </g>
    <g id="xtick_11">
     <g id="line2d_11">
      <g>
       <use xlink:href="#m3e916e203c" x="165.103832" y="307.584" style="stroke: #000000; stroke-width: 0.6"/>
      </g>
     </g>
    </g>
    <g id="xtick_12">
     <g id="line2d_12">
      <g>
       <use xlink:href="#m3e916e203c" x="171.193028" y="307.584" style="stroke: #000000; stroke-width: 0.6"/>
      </g>
     </g>
    </g>
    <g id="xtick_13">
     <g id="line2d_13">
      <g>
       <use xlink:href="#m3e916e203c" x="212.474611" y="307.584" style="stroke: #000000; stroke-width: 0.6"/>
      </g>
     </g>
    </g>
    <g id="xtick_14">
     <g id="line2d_14">
      <g>
       <use xlink:href="#m3e916e203c" x="233.436514" y="307.584" style="stroke: #000000; stroke-width: 0.6"/>
      </g>
     </g>
    </g>
    <g id="xtick_15">
     <g id="line2d_15">
      <g>
       <use xlink:href="#m3e916e203c" x="248.309221" y="307.584" style="stroke: #000000; stroke-width: 0.6"/>
      </g>
     </g>
    </g>
    <g id="xtick_16">
     <g id="line2d_16">
      <g>
       <use xlink:href="#m3e916e203c" x="259.845389" y="307.584" style="stroke: #000000; stroke-width: 0.6"/>
      </g>
     </g>
    </g>
    <g id="xtick_17">
     <g id="line2d_17">
      <g>
       <use xlink:href="#m3e916e203c" x="269.271125" y="307.584" style="stroke: #000000; stroke-width: 0.6"/>
      </g>
     </g>
    </g>
    <g id="xtick_18">
     <g id="line2d_18">
      <g>
       <use xlink:href="#m3e916e203c" x="277.240471" y="307.584" style="stroke: #000000; stroke-width: 0.6"/>
      </g>
     </g>
    </g>
    <g id="xtick_19">
     <g id="line2d_19">
      <g>
       <use xlink:href="#m3e916e203c" x="284.143832" y="307.584" style="stroke: #000000; stroke-width: 0.6"/>
      </g>
     </g>
    </g>
    <g id="xtick_20">
     <g id="line2d_20">
      <g>
       <use xlink:href="#m3e916e203c" x="290.233028" y="307.584" style="stroke: #000000; stroke-width: 0.6"/>
      </g>
     </g>
    </g>
    <g id="xtick_21">
     <g id="line2d_21">
      <g>
       <use xlink:href="#m3e916e203c" x="331.514611" y="307.584" style="stroke: #000000; stroke-width: 0.6"/>
      </g>
     </g>
    </g>
    <g id="xtick_22">
     <g id="line2d_22">
      <g>
       <use xlink:href="#m3e916e203c" x="352.476514" y="307.584" style="stroke: #000000; stroke-width: 0.6"/>
      </g>
     </g>
    </g>
    <g id="xtick_23">
     <g id="line2d_23">
      <g>
       <use xlink:href="#m3e916e203c" x="367.349221" y="307.584" style="stroke: #000000; stroke-width: 0.6"/>
      </g>
     </g>
    </g>
    <g id="xtick_24">
     <g id="line2d_24">
      <g>
       <use xlink:href="#m3e916e203c" x="378.885389" y="307.584" style="stroke: #000000; stroke-width: 0.6"/>
      </g>
     </g>
    </g>
    <g id="xtick_25">
     <g id="line2d_25">
      <g>
       <use xlink:href="#m3e916e203c" x="388.311125" y="307.584" style="stroke: #000000; stroke-width: 0.6"/>
      </g>
     </g>
    </g>
    <g id="xtick_26">
     <g id="line2d_26">
      <g>
       <use xlink:href="#m3e916e203c" x="396.280471" y="307.584" style="stroke: #000000; stroke-width: 0.6"/>
      </g>
     </g>
    </g>
    <g id="xtick_27">
     <g id="line2d_27">
      <g>
       <use xlink:href="#m3e916e203c" x="403.183832" y="307.584" style="stroke: #000000; stroke-width: 0.6"/>
      </g>
     </g>
    </g>
    <g id="xtick_28">
     <g id="line2d_28">
      <g>
       <use xlink:href="#m3e916e203c" x="409.273028" y="307.584" style="stroke: #000000; stroke-width: 0.6"/>
      </g>
     </g>
    </g>
    <g id="text_5">
     <!-- Energy [TeV] -->
     <g transform="translate(207.157599 334.911657) scale(0.1 -0.1)">
      <defs>
       <path id="CMR17-45" d="M 3885 1614 
L 3770 1614 
C 3629 676 3546 166 2419 166 
L 1530 166 
C 1274 166 1261 198 1261 415 
L 1261 2176 
L 1862 2176 
C 2464 2176 2522 1959 2522 1429 
L 2637 1429 
L 2637 3086 
L 2522 3086 
C 2522 2558 2464 2342 1862 2342 
L 1261 2342 
L 1261 3924 
C 1261 4141 1274 4172 1530 4172 
L 2406 4172 
C 3398 4172 3514 3778 3603 2933 
L 3718 2933 
L 3565 4339 
L 326 4339 
L 326 4172 
C 768 4172 838 4172 838 3886 
L 838 453 
C 838 166 768 166 326 166 
L 326 0 
L 3654 0 
L 3885 1614 
z
" transform="scale(0.015625)"/>
       <path id="CMR17-6e" d="M 2656 1954 
C 2656 2282 2592 2816 1837 2816 
C 1331 2816 1069 2424 973 2166 
L 966 2166 
L 966 2816 
L 211 2745 
L 211 2578 
C 589 2578 646 2540 646 2231 
L 646 443 
C 646 198 621 166 211 166 
L 211 0 
C 365 12 646 12 813 12 
C 979 12 1267 12 1421 0 
L 1421 166 
C 1011 166 986 192 986 443 
L 986 1678 
C 986 2269 1344 2713 1792 2713 
C 2266 2713 2317 2289 2317 1980 
L 2317 443 
C 2317 198 2291 166 1882 166 
L 1882 0 
C 2035 12 2317 12 2483 12 
C 2650 12 2938 12 3091 0 
L 3091 166 
C 2682 166 2656 192 2656 443 
L 2656 1954 
z
" transform="scale(0.015625)"/>
       <path id="CMR17-65" d="M 2438 1503 
C 2464 1529 2464 1542 2464 1606 
C 2464 2251 2118 2816 1389 2816 
C 710 2816 173 2175 173 1394 
C 173 554 781 -64 1459 -64 
C 2176 -64 2458 619 2458 755 
C 2458 800 2419 800 2406 800 
C 2362 800 2355 787 2330 709 
C 2189 270 1837 51 1504 51 
C 1229 51 954 206 781 490 
C 582 819 582 1200 582 1503 
L 2438 1503 
z
M 589 1600 
C 634 2511 1126 2713 1382 2713 
C 1818 2713 2112 2308 2118 1600 
L 589 1600 
z
" transform="scale(0.015625)"/>
       <path id="CMR17-72" d="M 960 1517 
C 960 2134 1222 2713 1702 2713 
C 1747 2713 1792 2707 1837 2687 
C 1837 2687 1696 2642 1696 2475 
C 1696 2321 1818 2257 1914 2257 
C 1990 2257 2131 2302 2131 2482 
C 2131 2687 1926 2816 1709 2816 
C 1222 2816 1011 2340 947 2115 
L 941 2115 
L 941 2816 
L 198 2745 
L 198 2578 
C 576 2578 634 2540 634 2231 
L 634 443 
C 634 198 608 166 198 166 
L 198 0 
C 352 12 646 12 813 12 
C 998 12 1325 12 1498 0 
L 1498 166 
C 1037 166 960 166 960 455 
L 960 1517 
z
" transform="scale(0.015625)"/>
       <path id="CMR17-67" d="M 710 1165 
C 832 1068 1043 960 1299 960 
C 1805 960 2240 1359 2240 1895 
C 2240 2063 2189 2321 1997 2521 
C 2176 2713 2438 2777 2586 2777 
C 2611 2777 2650 2777 2682 2758 
C 2656 2751 2598 2726 2598 2623 
C 2598 2540 2656 2483 2739 2483 
C 2835 2483 2886 2547 2886 2630 
C 2886 2751 2790 2880 2586 2880 
C 2330 2880 2106 2758 1926 2591 
C 1734 2764 1504 2828 1299 2828 
C 794 2828 358 2431 358 1895 
C 358 1527 570 1294 634 1230 
C 442 1004 442 742 442 710 
C 442 544 506 300 723 166 
C 390 82 128 -184 128 -517 
C 128 -996 736 -1344 1466 -1344 
C 2170 -1344 2803 -1009 2803 -510 
C 2803 384 1856 384 1363 384 
C 1216 384 954 384 922 390 
C 723 422 589 601 589 825 
C 589 883 589 1024 710 1165 
z
M 1299 1068 
C 736 1068 736 1766 736 1895 
C 736 2024 736 2719 1299 2719 
C 1862 2719 1862 2024 1862 1895 
C 1862 1766 1862 1068 1299 1068 
z
M 1466 -1236 
C 826 -1236 384 -883 384 -517 
C 384 -311 493 -118 634 -11 
C 794 102 858 102 1293 102 
C 1818 102 2547 102 2547 -517 
C 2547 -883 2106 -1236 1466 -1236 
z
" transform="scale(0.015625)"/>
       <path id="CMR17-79" d="M 2496 2183 
C 2656 2579 2944 2585 3034 2585 
L 3034 2752 
C 2912 2745 2752 2739 2630 2739 
C 2496 2739 2285 2739 2157 2752 
L 2157 2585 
C 2400 2566 2406 2384 2406 2332 
C 2406 2268 2394 2235 2362 2158 
L 1664 409 
L 902 2300 
C 870 2378 870 2423 870 2430 
C 870 2572 1018 2585 1171 2585 
L 1171 2752 
C 1018 2739 742 2739 582 2739 
C 410 2739 205 2739 64 2752 
L 64 2585 
C 410 2585 448 2553 531 2345 
L 1485 -31 
C 1197 -795 1030 -1242 627 -1242 
C 557 -1242 397 -1223 282 -1106 
C 429 -1093 493 -1002 493 -892 
C 493 -782 416 -685 288 -685 
C 147 -685 77 -782 77 -899 
C 77 -1158 339 -1344 627 -1344 
C 998 -1344 1229 -983 1357 -659 
L 2496 2183 
z
" transform="scale(0.015625)"/>
       <path id="CMR17-5b" d="M 1504 -1600 
L 1504 -1376 
L 902 -1376 
L 902 4575 
L 1504 4575 
L 1504 4800 
L 678 4800 
L 678 -1600 
L 1504 -1600 
z
" transform="scale(0.015625)"/>
       <path id="CMR17-54" d="M 3981 4332 
L 288 4332 
L 179 2924 
L 294 2924 
C 378 3981 467 4166 1453 4166 
C 1568 4166 1754 4166 1805 4159 
C 1926 4140 1926 4064 1926 3917 
L 1926 465 
C 1926 236 1907 166 1376 166 
L 1197 166 
L 1197 0 
C 1504 6 1824 12 2138 12 
C 2451 12 2771 6 3078 0 
L 3078 166 
L 2899 166 
C 2368 166 2349 236 2349 465 
L 2349 3917 
C 2349 4057 2349 4134 2464 4159 
C 2515 4166 2701 4166 2816 4166 
C 3795 4166 3891 3981 3974 2924 
L 4090 2924 
L 3981 4332 
z
" transform="scale(0.015625)"/>
       <path id="CMR17-56" d="M 3776 3762 
C 3834 3903 3936 4179 4365 4185 
L 4365 4352 
C 4218 4339 4051 4339 3891 4339 
C 3738 4339 3475 4339 3328 4352 
L 3328 4185 
C 3648 4166 3661 3942 3661 3903 
C 3661 3833 3642 3788 3622 3737 
L 2362 448 
L 1043 3903 
C 1024 3948 1011 3980 1011 4012 
C 1011 4185 1267 4185 1402 4185 
L 1402 4352 
C 1197 4339 896 4339 685 4339 
C 518 4339 218 4339 64 4352 
L 64 4185 
C 435 4185 506 4160 582 3955 
L 2106 -26 
C 2138 -116 2144 -128 2214 -128 
C 2285 -128 2291 -116 2323 -26 
L 3776 3762 
z
" transform="scale(0.015625)"/>
       <path id="CMR17-5d" d="M 915 4800 
L 90 4800 
L 90 4575 
L 691 4575 
L 691 -1376 
L 90 -1376 
L 90 -1600 
L 915 -1600 
L 915 4800 
z
" transform="scale(0.015625)"/>
      </defs>
      <use xlink:href="#CMR17-45" transform="scale(0.996264)"/>
      <use xlink:href="#CMR17-6e" transform="translate(62.586301 0) scale(0.996264)"/>
      <use xlink:href="#CMR17-65" transform="translate(113.48167 0) scale(0.996264)"/>
      <use xlink:href="#CMR17-72" transform="translate(153.967331 0) scale(0.996264)"/>
      <use xlink:href="#CMR17-67" transform="translate(189.248099 0) scale(0.996264)"/>
      <use xlink:href="#CMR17-79" transform="translate(234.938576 0) scale(0.996264)"/>
      <use xlink:href="#CMR17-5b" transform="translate(313.307458 0) scale(0.996264)"/>
      <use xlink:href="#CMR17-54" transform="translate(338.178516 0) scale(0.996264)"/>
      <use xlink:href="#CMR17-65" transform="translate(396.881142 0) scale(0.996264)"/>
      <use xlink:href="#CMR17-56" transform="translate(437.366802 0) scale(0.996264)"/>
      <use xlink:href="#CMR17-5d" transform="translate(506.439232 0) scale(0.996264)"/>
     </g>
    </g>
   </g>
   <g id="matplotlib.axis_2">
    <g id="ytick_1">
     <g id="line2d_29">
      <defs>
       <path id="m068574abe7" d="M 0 0 
L -3.5 0 
" style="stroke: #000000; stroke-width: 0.8"/>
      </defs>
      <g>
       <use xlink:href="#m068574abe7" x="57.6" y="298.455639" style="stroke: #000000; stroke-width: 0.8"/>
      </g>
     </g>
     <g id="text_6">
      <!-- $\mathdefault{−80}$ -->
      <g transform="translate(32.888586 301.914888) scale(0.1 -0.1)">
       <defs>
        <path id="CMR17-38" d="M 1741 2289 
C 2144 2494 2554 2803 2554 3298 
C 2554 3884 1990 4224 1472 4224 
C 890 4224 378 3800 378 3215 
C 378 3054 416 2777 666 2533 
C 730 2469 998 2276 1171 2154 
C 883 2006 211 1652 211 945 
C 211 282 838 -128 1459 -128 
C 2144 -128 2720 366 2720 1022 
C 2720 1607 2330 1877 2074 2051 
L 1741 2289 
z
M 902 2855 
C 851 2887 595 3086 595 3388 
C 595 3781 998 4076 1459 4076 
C 1965 4076 2336 3716 2336 3298 
C 2336 2700 1670 2359 1638 2359 
C 1632 2359 1626 2359 1574 2398 
L 902 2855 
z
M 2080 1536 
C 2176 1466 2483 1253 2483 861 
C 2483 385 2010 25 1472 25 
C 890 25 448 443 448 951 
C 448 1459 838 1884 1280 2083 
L 2080 1536 
z
" transform="scale(0.015625)"/>
       </defs>
       <use xlink:href="#CMSY10-0" transform="scale(0.996264)"/>
       <use xlink:href="#CMR17-38" transform="translate(77.487468 0) scale(0.996264)"/>
       <use xlink:href="#CMR17-30" transform="translate(123.177945 0) scale(0.996264)"/>
      </g>
     </g>
    </g>
    <g id="ytick_2">
     <g id="line2d_30">
      <g>
       <use xlink:href="#m068574abe7" x="57.6" y="267.176409" style="stroke: #000000; stroke-width: 0.8"/>
      </g>
     </g>
     <g id="text_7">
      <!-- $\mathdefault{−60}$ -->
      <g transform="translate(32.888586 270.635658) scale(0.1 -0.1)">
       <defs>
        <path id="CMR17-36" d="M 678 2198 
C 678 3712 1395 4076 1811 4076 
C 1946 4076 2272 4049 2400 3782 
C 2298 3782 2106 3782 2106 3558 
C 2106 3385 2246 3328 2336 3328 
C 2394 3328 2566 3353 2566 3571 
C 2566 3987 2246 4224 1805 4224 
C 1043 4224 243 3411 243 2011 
C 243 257 966 -128 1478 -128 
C 2099 -128 2688 431 2688 1295 
C 2688 2101 2170 2688 1517 2688 
C 1126 2688 838 2430 678 1979 
L 678 2198 
z
M 1478 25 
C 691 25 691 1212 691 1450 
C 691 1914 909 2585 1504 2585 
C 1613 2585 1926 2585 2138 2140 
C 2253 1889 2253 1624 2253 1302 
C 2253 954 2253 696 2118 438 
C 1978 173 1773 25 1478 25 
z
" transform="scale(0.015625)"/>
       </defs>
       <use xlink:href="#CMSY10-0" transform="scale(0.996264)"/>
       <use xlink:href="#CMR17-36" transform="translate(77.487468 0) scale(0.996264)"/>
       <use xlink:href="#CMR17-30" transform="translate(123.177945 0) scale(0.996264)"/>
      </g>
     </g>
    </g>
    <g id="ytick_3">
     <g id="line2d_31">
      <g>
       <use xlink:href="#m068574abe7" x="57.6" y="235.897178" style="stroke: #000000; stroke-width: 0.8"/>
      </g>
     </g>
     <g id="text_8">
      <!-- $\mathdefault{−40}$ -->
      <g transform="translate(32.888586 239.356428) scale(0.1 -0.1)">
       <defs>
        <path id="CMR17-34" d="M 2150 4147 
C 2150 4281 2144 4288 2029 4288 
L 128 1254 
L 128 1088 
L 1779 1088 
L 1779 460 
C 1779 230 1766 166 1318 166 
L 1197 166 
L 1197 0 
C 1402 12 1747 12 1965 12 
C 2182 12 2528 12 2733 0 
L 2733 166 
L 2611 166 
C 2163 166 2150 230 2150 460 
L 2150 1088 
L 2803 1088 
L 2803 1254 
L 2150 1254 
L 2150 4147 
z
M 1798 3723 
L 1798 1254 
L 256 1254 
L 1798 3723 
z
" transform="scale(0.015625)"/>
       </defs>
       <use xlink:href="#CMSY10-0" transform="scale(0.996264)"/>
       <use xlink:href="#CMR17-34" transform="translate(77.487468 0) scale(0.996264)"/>
       <use xlink:href="#CMR17-30" transform="translate(123.177945 0) scale(0.996264)"/>
      </g>
     </g>
    </g>
    <g id="ytick_4">
     <g id="line2d_32">
      <g>
       <use xlink:href="#m068574abe7" x="57.6" y="204.617948" style="stroke: #000000; stroke-width: 0.8"/>
      </g>
     </g>
     <g id="text_9">
      <!-- $\mathdefault{−20}$ -->
      <g transform="translate(32.888586 208.077197) scale(0.1 -0.1)">
       <use xlink:href="#CMSY10-0" transform="scale(0.996264)"/>
       <use xlink:href="#CMR17-32" transform="translate(77.487468 0) scale(0.996264)"/>
       <use xlink:href="#CMR17-30" transform="translate(123.177945 0) scale(0.996264)"/>
      </g>
     </g>
    </g>
    <g id="ytick_5">
     <g id="line2d_33">
      <g>
       <use xlink:href="#m068574abe7" x="57.6" y="173.338718" style="stroke: #000000; stroke-width: 0.8"/>
      </g>
     </g>
     <g id="text_10">
      <!-- $\mathdefault{0}$ -->
      <g transform="translate(45.618665 176.797967) scale(0.1 -0.1)">
       <use xlink:href="#CMR17-30" transform="scale(0.996264)"/>
      </g>
     </g>
    </g>
    <g id="ytick_6">
     <g id="line2d_34">
      <g>
       <use xlink:href="#m068574abe7" x="57.6" y="142.059488" style="stroke: #000000; stroke-width: 0.8"/>
      </g>
     </g>
     <g id="text_11">
      <!-- $\mathdefault{20}$ -->
      <g transform="translate(40.637329 145.518737) scale(0.1 -0.1)">
       <use xlink:href="#CMR17-32" transform="scale(0.996264)"/>
       <use xlink:href="#CMR17-30" transform="translate(45.690477 0) scale(0.996264)"/>
      </g>
     </g>
    </g>
    <g id="ytick_7">
     <g id="line2d_35">
      <g>
       <use xlink:href="#m068574abe7" x="57.6" y="110.780258" style="stroke: #000000; stroke-width: 0.8"/>
      </g>
     </g>
     <g id="text_12">
      <!-- $\mathdefault{40}$ -->
      <g transform="translate(40.637329 114.239507) scale(0.1 -0.1)">
       <use xlink:href="#CMR17-34" transform="scale(0.996264)"/>
       <use xlink:href="#CMR17-30" transform="translate(45.690477 0) scale(0.996264)"/>
      </g>
     </g>
    </g>
    <g id="ytick_8">
     <g id="line2d_36">
      <g>
       <use xlink:href="#m068574abe7" x="57.6" y="79.501028" style="stroke: #000000; stroke-width: 0.8"/>
      </g>
     </g>
     <g id="text_13">
      <!-- $\mathdefault{60}$ -->
      <g transform="translate(40.637329 82.960277) scale(0.1 -0.1)">
       <use xlink:href="#CMR17-36" transform="scale(0.996264)"/>
       <use xlink:href="#CMR17-30" transform="translate(45.690477 0) scale(0.996264)"/>
      </g>
     </g>
    </g>
    <g id="ytick_9">
     <g id="line2d_37">
      <g>
       <use xlink:href="#m068574abe7" x="57.6" y="48.221798" style="stroke: #000000; stroke-width: 0.8"/>
      </g>
     </g>
     <g id="text_14">
      <!-- $\mathdefault{80}$ -->
      <g transform="translate(40.637329 51.681047) scale(0.1 -0.1)">
       <use xlink:href="#CMR17-38" transform="scale(0.996264)"/>
       <use xlink:href="#CMR17-30" transform="translate(45.690477 0) scale(0.996264)"/>
      </g>
     </g>
    </g>
    <g id="text_15">
     <!-- Residuals (data - model) -->
     <g transform="translate(26.397926 228.478563) rotate(-90) scale(0.1 -0.1)">
      <defs>
       <path id="CMR17-52" d="M 2509 2156 
C 3117 2278 3629 2689 3629 3203 
C 3629 3806 2950 4352 2054 4352 
L 333 4352 
L 333 4185 
C 774 4185 845 4185 845 3896 
L 845 428 
C 845 140 774 140 333 140 
L 333 -26 
C 518 -13 851 -13 1050 -13 
C 1248 -13 1581 -13 1766 -26 
L 1766 140 
C 1325 140 1254 140 1254 428 
L 1254 2112 
L 2003 2112 
C 2368 2112 2573 1964 2662 1881 
C 2918 1632 2918 1459 2918 1024 
C 2918 595 2918 377 3110 160 
C 3354 -103 3680 -128 3821 -128 
C 4294 -128 4365 403 4365 512 
C 4365 550 4365 595 4307 595 
C 4256 595 4250 556 4250 531 
C 4218 115 4032 -26 3834 -26 
C 3482 -26 3443 377 3405 768 
C 3386 902 3373 998 3360 1139 
C 3322 1459 3270 1926 2509 2156 
z
M 1984 2214 
L 1254 2214 
L 1254 3935 
C 1254 4153 1267 4185 1523 4185 
L 1990 4185 
C 2522 4185 3142 3999 3142 3203 
C 3142 2374 2464 2214 1984 2214 
z
" transform="scale(0.015625)"/>
       <path id="CMR17-73" d="M 1978 2688 
C 1978 2803 1971 2809 1933 2809 
C 1907 2809 1901 2803 1824 2707 
C 1805 2681 1747 2617 1728 2592 
C 1523 2809 1235 2816 1126 2816 
C 416 2816 160 2444 160 2073 
C 160 1497 813 1363 998 1324 
C 1402 1241 1542 1216 1677 1100 
C 1760 1024 1901 883 1901 652 
C 1901 384 1747 38 1158 38 
C 602 38 403 460 288 1024 
C 269 1113 269 1120 218 1120 
C 166 1120 160 1113 160 985 
L 160 64 
C 160 -52 166 -58 205 -58 
C 237 -58 243 -52 275 0 
C 314 57 410 211 448 275 
C 576 102 800 -64 1158 -64 
C 1792 -64 2131 281 2131 780 
C 2131 1107 1958 1280 1875 1356 
C 1683 1555 1459 1600 1190 1651 
C 838 1728 390 1817 390 2208 
C 390 2374 480 2726 1126 2726 
C 1811 2726 1850 2086 1862 1881 
C 1869 1849 1901 1843 1920 1843 
C 1978 1843 1978 1862 1978 1971 
L 1978 2688 
z
" transform="scale(0.015625)"/>
       <path id="CMR17-69" d="M 992 3961 
C 992 4102 877 4224 730 4224 
C 589 4224 467 4108 467 3961 
C 467 3820 582 3699 730 3699 
C 870 3699 992 3814 992 3961 
z
M 243 2745 
L 243 2579 
C 602 2579 653 2540 653 2231 
L 653 443 
C 653 198 627 166 218 166 
L 218 0 
C 371 12 646 12 806 12 
C 960 12 1222 12 1370 0 
L 1370 166 
C 992 166 979 205 979 436 
L 979 2816 
L 243 2745 
z
" transform="scale(0.015625)"/>
       <path id="CMR17-64" d="M 1869 4345 
L 1869 4179 
C 2246 4179 2304 4141 2304 3843 
L 2304 2371 
C 2278 2403 2016 2816 1498 2816 
C 845 2816 211 2228 211 1376 
C 211 529 806 -64 1434 -64 
C 1978 -64 2259 361 2291 406 
L 2291 -64 
L 3066 -13 
L 3066 154 
C 2688 154 2630 193 2630 503 
L 2630 4416 
L 1869 4345 
z
M 2291 762 
C 2291 568 2176 393 2029 264 
C 1811 70 1594 38 1472 38 
C 1286 38 621 135 621 1369 
C 621 2636 1363 2713 1530 2713 
C 1824 2713 2061 2545 2208 2313 
C 2291 2177 2291 2157 2291 2041 
L 2291 762 
z
" transform="scale(0.015625)"/>
       <path id="CMR17-75" d="M 1882 2745 
L 1882 2579 
C 2259 2579 2317 2540 2317 2229 
L 2317 1053 
C 2317 510 2029 38 1555 38 
C 1030 38 986 355 986 691 
L 986 2816 
L 211 2745 
L 211 2579 
C 467 2579 640 2579 646 2320 
L 646 1079 
C 646 646 646 368 813 187 
C 896 103 1056 -64 1517 -64 
C 2061 -64 2272 400 2323 536 
L 2330 536 
L 2330 -64 
L 3091 -13 
L 3091 154 
C 2714 154 2656 193 2656 503 
L 2656 2816 
L 1882 2745 
z
" transform="scale(0.015625)"/>
       <path id="CMR17-61" d="M 2304 1656 
C 2304 2048 2304 2275 2035 2534 
C 1798 2751 1523 2816 1306 2816 
C 800 2816 435 2408 435 1977 
C 435 1740 627 1728 666 1728 
C 749 1728 896 1779 896 1958 
C 896 2118 774 2188 666 2188 
C 640 2188 608 2182 589 2176 
C 723 2594 1069 2713 1293 2713 
C 1613 2713 1965 2421 1965 1875 
L 1965 1632 
C 1587 1619 1133 1568 774 1373 
C 371 1147 256 822 256 576 
C 256 77 832 -64 1171 -64 
C 1523 -64 1850 135 1990 505 
C 2003 219 2182 -39 2464 -39 
C 2598 -39 2938 51 2938 563 
L 2938 926 
L 2822 926 
L 2822 557 
C 2822 161 2650 109 2566 109 
C 2304 109 2304 446 2304 732 
L 2304 1656 
z
M 1965 887 
C 1965 323 1568 38 1216 38 
C 896 38 646 278 646 576 
C 646 771 730 1114 1101 1322 
C 1408 1497 1760 1523 1965 1536 
L 1965 887 
z
" transform="scale(0.015625)"/>
       <path id="CMR17-6c" d="M 979 4416 
L 218 4345 
L 218 4179 
C 595 4179 653 4141 653 3835 
L 653 439 
C 653 198 627 166 218 166 
L 218 0 
C 371 12 653 12 813 12 
C 979 12 1261 12 1414 0 
L 1414 166 
C 1005 166 979 191 979 439 
L 979 4416 
z
" transform="scale(0.015625)"/>
       <path id="CMR17-28" d="M 1958 -1562 
C 1958 -1556 1958 -1543 1939 -1524 
C 1645 -1223 858 -403 858 1596 
C 858 3595 1632 4408 1946 4729 
C 1946 4735 1958 4748 1958 4767 
C 1958 4787 1939 4800 1914 4800 
C 1843 4800 1299 4325 986 3620 
C 666 2909 576 2218 576 1603 
C 576 1141 621 360 1005 -467 
C 1312 -1133 1837 -1600 1914 -1600 
C 1946 -1600 1958 -1588 1958 -1562 
z
" transform="scale(0.015625)"/>
       <path id="CMR17-74" d="M 966 2585 
L 1862 2585 
L 1862 2752 
L 966 2752 
L 966 3968 
L 851 3968 
C 838 3292 614 2700 70 2687 
L 70 2585 
L 627 2585 
L 627 778 
C 627 655 627 -64 1370 -64 
C 1747 -64 1965 308 1965 784 
L 1965 1151 
L 1850 1151 
L 1850 790 
C 1850 347 1677 51 1408 51 
C 1222 51 966 179 966 765 
L 966 2585 
z
" transform="scale(0.015625)"/>
       <path id="CMR17-2d" d="M 1632 1254 
L 1632 1536 
L 26 1536 
L 26 1254 
L 1632 1254 
z
" transform="scale(0.015625)"/>
       <path id="CMR17-6d" d="M 4326 1954 
C 4326 2276 4269 2816 3507 2816 
C 3072 2816 2771 2520 2656 2173 
L 2650 2173 
C 2573 2700 2195 2816 1837 2816 
C 1331 2816 1069 2424 973 2166 
L 966 2166 
L 966 2816 
L 211 2745 
L 211 2578 
C 589 2578 646 2540 646 2231 
L 646 443 
C 646 198 621 166 211 166 
L 211 0 
C 365 12 646 12 813 12 
C 979 12 1267 12 1421 0 
L 1421 166 
C 1011 166 986 192 986 443 
L 986 1678 
C 986 2269 1344 2713 1792 2713 
C 2266 2713 2317 2289 2317 1980 
L 2317 443 
C 2317 198 2291 166 1882 166 
L 1882 0 
C 2035 12 2317 12 2483 12 
C 2650 12 2938 12 3091 0 
L 3091 166 
C 2682 166 2656 192 2656 443 
L 2656 1678 
C 2656 2269 3014 2713 3462 2713 
C 3936 2713 3987 2289 3987 1980 
L 3987 443 
C 3987 198 3962 166 3552 166 
L 3552 0 
C 3706 12 3987 12 4154 12 
C 4320 12 4608 12 4762 0 
L 4762 166 
C 4352 166 4326 192 4326 443 
L 4326 1954 
z
" transform="scale(0.015625)"/>
       <path id="CMR17-6f" d="M 2758 1356 
C 2758 2176 2163 2816 1466 2816 
C 768 2816 173 2176 173 1356 
C 173 550 768 -64 1466 -64 
C 2163 -64 2758 550 2758 1356 
z
M 1466 51 
C 1165 51 909 230 762 480 
C 602 768 582 1126 582 1408 
C 582 1676 595 2009 762 2297 
C 890 2508 1139 2713 1466 2713 
C 1754 2713 1997 2553 2150 2329 
C 2349 2028 2349 1606 2349 1408 
C 2349 1158 2336 774 2163 467 
C 1984 172 1709 51 1466 51 
z
" transform="scale(0.015625)"/>
       <path id="CMR17-29" d="M 1683 1596 
C 1683 2057 1638 2839 1254 3665 
C 947 4332 422 4800 346 4800 
C 326 4800 301 4793 301 4761 
C 301 4748 307 4742 314 4729 
C 621 4408 1402 3595 1402 1603 
C 1402 -396 627 -1210 314 -1530 
C 307 -1543 301 -1549 301 -1562 
C 301 -1594 326 -1600 346 -1600 
C 416 -1600 960 -1127 1274 -422 
C 1594 289 1683 981 1683 1596 
z
" transform="scale(0.015625)"/>
      </defs>
      <use xlink:href="#CMR17-52" transform="scale(0.996264)"/>
      <use xlink:href="#CMR17-65" transform="translate(67.791102 0) scale(0.996264)"/>
      <use xlink:href="#CMR17-73" transform="translate(108.276762 0) scale(0.996264)"/>
      <use xlink:href="#CMR17-69" transform="translate(144.0781 0) scale(0.996264)"/>
      <use xlink:href="#CMR17-64" transform="translate(168.949159 0) scale(0.996264)"/>
      <use xlink:href="#CMR17-75" transform="translate(219.844528 0) scale(0.996264)"/>
      <use xlink:href="#CMR17-61" transform="translate(270.739898 0) scale(0.996264)"/>
      <use xlink:href="#CMR17-6c" transform="translate(316.430375 0) scale(0.996264)"/>
      <use xlink:href="#CMR17-73" transform="translate(341.301434 0) scale(0.996264)"/>
      <use xlink:href="#CMR17-28" transform="translate(407.178738 0) scale(0.996264)"/>
      <use xlink:href="#CMR17-64" transform="translate(442.459505 0) scale(0.996264)"/>
      <use xlink:href="#CMR17-61" transform="translate(493.354875 0) scale(0.996264)"/>
      <use xlink:href="#CMR17-74" transform="translate(539.045352 0) scale(0.996264)"/>
      <use xlink:href="#CMR17-61" transform="translate(574.32612 0) scale(0.996264)"/>
      <use xlink:href="#CMR17-2d" transform="translate(650.092564 0) scale(0.996264)"/>
      <use xlink:href="#CMR17-6d" transform="translate(710.244496 0) scale(0.996264)"/>
      <use xlink:href="#CMR17-6f" transform="translate(787.164086 0) scale(0.996264)"/>
      <use xlink:href="#CMR17-64" transform="translate(835.457002 0) scale(0.996264)"/>
      <use xlink:href="#CMR17-65" transform="translate(886.352372 0) scale(0.996264)"/>
      <use xlink:href="#CMR17-6c" transform="translate(926.838032 0) scale(0.996264)"/>
      <use xlink:href="#CMR17-29" transform="translate(951.709091 0) scale(0.996264)"/>
     </g>
    </g>
   </g>
   <g id="LineCollection_1">
    <path d="M 57.6 173.338718 
L 72.48 173.338718 
" clip-path="url(#pbe0518fc02)" style="fill: none; stroke: #1f77b4; stroke-width: 1.5"/>
    <path d="M 72.48 173.338718 
L 87.36 173.338718 
" clip-path="url(#pbe0518fc02)" style="fill: none; stroke: #1f77b4; stroke-width: 1.5"/>
    <path d="M 87.36 173.338718 
L 102.24 173.338718 
" clip-path="url(#pbe0518fc02)" style="fill: none; stroke: #1f77b4; stroke-width: 1.5"/>
    <path d="M 102.24 173.338718 
L 117.12 173.338718 
" clip-path="url(#pbe0518fc02)" style="fill: none; stroke: #1f77b4; stroke-width: 1.5"/>
    <path d="M 117.12 201.547093 
L 132 201.547093 
" clip-path="url(#pbe0518fc02)" style="fill: none; stroke: #1f77b4; stroke-width: 1.5"/>
    <path d="M 132 154.828581 
L 146.88 154.828581 
" clip-path="url(#pbe0518fc02)" style="fill: none; stroke: #1f77b4; stroke-width: 1.5"/>
    <path d="M 146.88 166.028876 
L 161.76 166.028876 
" clip-path="url(#pbe0518fc02)" style="fill: none; stroke: #1f77b4; stroke-width: 1.5"/>
    <path d="M 161.76 168.54577 
L 176.64 168.54577 
" clip-path="url(#pbe0518fc02)" style="fill: none; stroke: #1f77b4; stroke-width: 1.5"/>
    <path d="M 176.64 162.77302 
L 191.52 162.77302 
" clip-path="url(#pbe0518fc02)" style="fill: none; stroke: #1f77b4; stroke-width: 1.5"/>
    <path d="M 191.52 172.648494 
L 206.4 172.648494 
" clip-path="url(#pbe0518fc02)" style="fill: none; stroke: #1f77b4; stroke-width: 1.5"/>
    <path d="M 206.4 176.857997 
L 221.28 176.857997 
" clip-path="url(#pbe0518fc02)" style="fill: none; stroke: #1f77b4; stroke-width: 1.5"/>
    <path d="M 221.28 177.650038 
L 236.16 177.650038 
" clip-path="url(#pbe0518fc02)" style="fill: none; stroke: #1f77b4; stroke-width: 1.5"/>
    <path d="M 236.16 177.04463 
L 251.04 177.04463 
" clip-path="url(#pbe0518fc02)" style="fill: none; stroke: #1f77b4; stroke-width: 1.5"/>
    <path d="M 251.04 175.707025 
L 265.92 175.707025 
" clip-path="url(#pbe0518fc02)" style="fill: none; stroke: #1f77b4; stroke-width: 1.5"/>
    <path d="M 265.92 174.370153 
L 280.8 174.370153 
" clip-path="url(#pbe0518fc02)" style="fill: none; stroke: #1f77b4; stroke-width: 1.5"/>
    <path d="M 280.8 173.314272 
L 295.68 173.314272 
" clip-path="url(#pbe0518fc02)" style="fill: none; stroke: #1f77b4; stroke-width: 1.5"/>
    <path d="M 295.68 172.811382 
L 310.56 172.811382 
" clip-path="url(#pbe0518fc02)" style="fill: none; stroke: #1f77b4; stroke-width: 1.5"/>
    <path d="M 310.56 172.753826 
L 325.44 172.753826 
" clip-path="url(#pbe0518fc02)" style="fill: none; stroke: #1f77b4; stroke-width: 1.5"/>
    <path d="M 325.44 172.89254 
L 340.32 172.89254 
" clip-path="url(#pbe0518fc02)" style="fill: none; stroke: #1f77b4; stroke-width: 1.5"/>
    <path d="M 340.32 173.096315 
L 355.2 173.096315 
" clip-path="url(#pbe0518fc02)" style="fill: none; stroke: #1f77b4; stroke-width: 1.5"/>
    <path d="M 355.2 173.241067 
L 370.08 173.241067 
" clip-path="url(#pbe0518fc02)" style="fill: none; stroke: #1f77b4; stroke-width: 1.5"/>
    <path d="M 370.08 173.309856 
L 384.96 173.309856 
" clip-path="url(#pbe0518fc02)" style="fill: none; stroke: #1f77b4; stroke-width: 1.5"/>
    <path d="M 384.96 173.334135 
L 399.84 173.334135 
" clip-path="url(#pbe0518fc02)" style="fill: none; stroke: #1f77b4; stroke-width: 1.5"/>
    <path d="M 399.84 173.339007 
L 414.72 173.339007 
" clip-path="url(#pbe0518fc02)" style="fill: none; stroke: #1f77b4; stroke-width: 1.5"/>
   </g>
   <g id="LineCollection_2">
    <path d="M 65.04 173.338718 
L 65.04 173.338718 
" clip-path="url(#pbe0518fc02)" style="fill: none; stroke: #1f77b4; stroke-width: 1.5"/>
    <path d="M 79.92 173.338718 
L 79.92 173.338718 
" clip-path="url(#pbe0518fc02)" style="fill: none; stroke: #1f77b4; stroke-width: 1.5"/>
    <path d="M 94.8 173.338718 
L 94.8 173.338718 
" clip-path="url(#pbe0518fc02)" style="fill: none; stroke: #1f77b4; stroke-width: 1.5"/>
    <path d="M 109.68 173.338718 
L 109.68 173.338718 
" clip-path="url(#pbe0518fc02)" style="fill: none; stroke: #1f77b4; stroke-width: 1.5"/>
    <path d="M 124.56 291.726847 
L 124.56 111.367339 
" clip-path="url(#pbe0518fc02)" style="fill: none; stroke: #1f77b4; stroke-width: 1.5"/>
    <path d="M 139.44 271.096601 
L 139.44 38.560562 
" clip-path="url(#pbe0518fc02)" style="fill: none; stroke: #1f77b4; stroke-width: 1.5"/>
    <path d="M 154.32 269.034596 
L 154.32 63.023156 
" clip-path="url(#pbe0518fc02)" style="fill: none; stroke: #1f77b4; stroke-width: 1.5"/>
    <path d="M 169.2 262.647041 
L 169.2 74.4445 
" clip-path="url(#pbe0518fc02)" style="fill: none; stroke: #1f77b4; stroke-width: 1.5"/>
    <path d="M 184.08 253.389864 
L 184.08 72.156176 
" clip-path="url(#pbe0518fc02)" style="fill: none; stroke: #1f77b4; stroke-width: 1.5"/>
    <path d="M 198.96 254.319491 
L 198.96 90.977497 
" clip-path="url(#pbe0518fc02)" style="fill: none; stroke: #1f77b4; stroke-width: 1.5"/>
    <path d="M 213.84 245.659064 
L 213.84 108.05693 
" clip-path="url(#pbe0518fc02)" style="fill: none; stroke: #1f77b4; stroke-width: 1.5"/>
    <path d="M 228.72 237.41887 
L 228.72 117.881206 
" clip-path="url(#pbe0518fc02)" style="fill: none; stroke: #1f77b4; stroke-width: 1.5"/>
    <path d="M 243.6 229.440038 
L 243.6 124.649221 
" clip-path="url(#pbe0518fc02)" style="fill: none; stroke: #1f77b4; stroke-width: 1.5"/>
    <path d="M 258.48 221.51472 
L 258.48 129.89933 
" clip-path="url(#pbe0518fc02)" style="fill: none; stroke: #1f77b4; stroke-width: 1.5"/>
    <path d="M 273.36 213.878987 
L 273.36 134.861318 
" clip-path="url(#pbe0518fc02)" style="fill: none; stroke: #1f77b4; stroke-width: 1.5"/>
    <path d="M 288.24 206.82852 
L 288.24 139.800023 
" clip-path="url(#pbe0518fc02)" style="fill: none; stroke: #1f77b4; stroke-width: 1.5"/>
    <path d="M 303.12 200.747002 
L 303.12 144.875761 
" clip-path="url(#pbe0518fc02)" style="fill: none; stroke: #1f77b4; stroke-width: 1.5"/>
    <path d="M 318 195.571162 
L 318 149.93649 
" clip-path="url(#pbe0518fc02)" style="fill: none; stroke: #1f77b4; stroke-width: 1.5"/>
    <path d="M 332.88 191.063219 
L 332.88 154.72186 
" clip-path="url(#pbe0518fc02)" style="fill: none; stroke: #1f77b4; stroke-width: 1.5"/>
    <path d="M 347.76 187.168573 
L 347.76 159.024058 
" clip-path="url(#pbe0518fc02)" style="fill: none; stroke: #1f77b4; stroke-width: 1.5"/>
    <path d="M 362.64 183.937138 
L 362.64 162.544997 
" clip-path="url(#pbe0518fc02)" style="fill: none; stroke: #1f77b4; stroke-width: 1.5"/>
    <path d="M 377.52 181.28296 
L 377.52 165.336753 
" clip-path="url(#pbe0518fc02)" style="fill: none; stroke: #1f77b4; stroke-width: 1.5"/>
    <path d="M 392.4 178.889729 
L 392.4 167.778542 
" clip-path="url(#pbe0518fc02)" style="fill: none; stroke: #1f77b4; stroke-width: 1.5"/>
    <path d="M 407.28 177.022126 
L 407.28 169.655889 
" clip-path="url(#pbe0518fc02)" style="fill: none; stroke: #1f77b4; stroke-width: 1.5"/>
   </g>
   <g id="line2d_38">
    <path d="M 57.6 173.338718 
L 414.72 173.338718 
" clip-path="url(#pbe0518fc02)" style="fill: none; stroke: #1f77b4; stroke-width: 0.5; stroke-linecap: square"/>
   </g>
   <g id="LineCollection_3">
    <path d="M 57.6 173.338718 
L 72.48 173.338718 
" clip-path="url(#pbe0518fc02)" style="fill: none; stroke: #ff7f0e; stroke-width: 1.5"/>
    <path d="M 72.48 173.338718 
L 87.36 173.338718 
" clip-path="url(#pbe0518fc02)" style="fill: none; stroke: #ff7f0e; stroke-width: 1.5"/>
    <path d="M 87.36 173.338718 
L 102.24 173.338718 
" clip-path="url(#pbe0518fc02)" style="fill: none; stroke: #ff7f0e; stroke-width: 1.5"/>
    <path d="M 102.24 173.338718 
L 117.12 173.338718 
" clip-path="url(#pbe0518fc02)" style="fill: none; stroke: #ff7f0e; stroke-width: 1.5"/>
    <path d="M 117.12 173.407728 
L 132 173.407728 
" clip-path="url(#pbe0518fc02)" style="fill: none; stroke: #ff7f0e; stroke-width: 1.5"/>
    <path d="M 132 172.845329 
L 146.88 172.845329 
" clip-path="url(#pbe0518fc02)" style="fill: none; stroke: #ff7f0e; stroke-width: 1.5"/>
    <path d="M 146.88 174.074867 
L 161.76 174.074867 
" clip-path="url(#pbe0518fc02)" style="fill: none; stroke: #ff7f0e; stroke-width: 1.5"/>
    <path d="M 161.76 173.712697 
L 176.64 173.712697 
" clip-path="url(#pbe0518fc02)" style="fill: none; stroke: #ff7f0e; stroke-width: 1.5"/>
    <path d="M 176.64 173.190181 
L 191.52 173.190181 
" clip-path="url(#pbe0518fc02)" style="fill: none; stroke: #ff7f0e; stroke-width: 1.5"/>
    <path d="M 191.52 173.574349 
L 206.4 173.574349 
" clip-path="url(#pbe0518fc02)" style="fill: none; stroke: #ff7f0e; stroke-width: 1.5"/>
    <path d="M 206.4 173.417938 
L 221.28 173.417938 
" clip-path="url(#pbe0518fc02)" style="fill: none; stroke: #ff7f0e; stroke-width: 1.5"/>
    <path d="M 221.28 173.298963 
L 236.16 173.298963 
" clip-path="url(#pbe0518fc02)" style="fill: none; stroke: #ff7f0e; stroke-width: 1.5"/>
    <path d="M 236.16 173.294121 
L 251.04 173.294121 
" clip-path="url(#pbe0518fc02)" style="fill: none; stroke: #ff7f0e; stroke-width: 1.5"/>
    <path d="M 251.04 173.29096 
L 265.92 173.29096 
" clip-path="url(#pbe0518fc02)" style="fill: none; stroke: #ff7f0e; stroke-width: 1.5"/>
    <path d="M 265.92 173.29738 
L 280.8 173.29738 
" clip-path="url(#pbe0518fc02)" style="fill: none; stroke: #ff7f0e; stroke-width: 1.5"/>
    <path d="M 280.8 173.310293 
L 295.68 173.310293 
" clip-path="url(#pbe0518fc02)" style="fill: none; stroke: #ff7f0e; stroke-width: 1.5"/>
    <path d="M 295.68 173.320486 
L 310.56 173.320486 
" clip-path="url(#pbe0518fc02)" style="fill: none; stroke: #ff7f0e; stroke-width: 1.5"/>
    <path d="M 310.56 173.331712 
L 325.44 173.331712 
" clip-path="url(#pbe0518fc02)" style="fill: none; stroke: #ff7f0e; stroke-width: 1.5"/>
    <path d="M 325.44 173.336184 
L 340.32 173.336184 
" clip-path="url(#pbe0518fc02)" style="fill: none; stroke: #ff7f0e; stroke-width: 1.5"/>
    <path d="M 340.32 173.337404 
L 355.2 173.337404 
" clip-path="url(#pbe0518fc02)" style="fill: none; stroke: #ff7f0e; stroke-width: 1.5"/>
    <path d="M 355.2 173.337902 
L 370.08 173.337902 
" clip-path="url(#pbe0518fc02)" style="fill: none; stroke: #ff7f0e; stroke-width: 1.5"/>
    <path d="M 370.08 173.337749 
L 384.96 173.337749 
" clip-path="url(#pbe0518fc02)" style="fill: none; stroke: #ff7f0e; stroke-width: 1.5"/>
    <path d="M 384.96 173.338057 
L 399.84 173.338057 
" clip-path="url(#pbe0518fc02)" style="fill: none; stroke: #ff7f0e; stroke-width: 1.5"/>
    <path d="M 399.84 173.338041 
L 414.72 173.338041 
" clip-path="url(#pbe0518fc02)" style="fill: none; stroke: #ff7f0e; stroke-width: 1.5"/>
   </g>
   <g id="LineCollection_4">
    <path d="M 65.04 173.338718 
L 65.04 173.338718 
" clip-path="url(#pbe0518fc02)" style="fill: none; stroke: #ff7f0e; stroke-width: 1.5"/>
    <path d="M 79.92 173.338718 
L 79.92 173.338718 
" clip-path="url(#pbe0518fc02)" style="fill: none; stroke: #ff7f0e; stroke-width: 1.5"/>
    <path d="M 94.8 173.338718 
L 94.8 173.338718 
" clip-path="url(#pbe0518fc02)" style="fill: none; stroke: #ff7f0e; stroke-width: 1.5"/>
    <path d="M 109.68 173.338718 
L 109.68 173.338718 
" clip-path="url(#pbe0518fc02)" style="fill: none; stroke: #ff7f0e; stroke-width: 1.5"/>
    <path d="M 124.56 263.587482 
L 124.56 83.227974 
" clip-path="url(#pbe0518fc02)" style="fill: none; stroke: #ff7f0e; stroke-width: 1.5"/>
    <path d="M 139.44 289.113349 
L 139.44 56.57731 
" clip-path="url(#pbe0518fc02)" style="fill: none; stroke: #ff7f0e; stroke-width: 1.5"/>
    <path d="M 154.32 277.080587 
L 154.32 71.069147 
" clip-path="url(#pbe0518fc02)" style="fill: none; stroke: #ff7f0e; stroke-width: 1.5"/>
    <path d="M 169.2 267.813967 
L 169.2 79.611426 
" clip-path="url(#pbe0518fc02)" style="fill: none; stroke: #ff7f0e; stroke-width: 1.5"/>
    <path d="M 184.08 263.807025 
L 184.08 82.573337 
" clip-path="url(#pbe0518fc02)" style="fill: none; stroke: #ff7f0e; stroke-width: 1.5"/>
    <path d="M 198.96 255.245346 
L 198.96 91.903352 
" clip-path="url(#pbe0518fc02)" style="fill: none; stroke: #ff7f0e; stroke-width: 1.5"/>
    <path d="M 213.84 242.219005 
L 213.84 104.616872 
" clip-path="url(#pbe0518fc02)" style="fill: none; stroke: #ff7f0e; stroke-width: 1.5"/>
    <path d="M 228.72 233.067795 
L 228.72 113.530131 
" clip-path="url(#pbe0518fc02)" style="fill: none; stroke: #ff7f0e; stroke-width: 1.5"/>
    <path d="M 243.6 225.68953 
L 243.6 120.898712 
" clip-path="url(#pbe0518fc02)" style="fill: none; stroke: #ff7f0e; stroke-width: 1.5"/>
    <path d="M 258.48 219.098655 
L 258.48 127.483265 
" clip-path="url(#pbe0518fc02)" style="fill: none; stroke: #ff7f0e; stroke-width: 1.5"/>
    <path d="M 273.36 212.806215 
L 273.36 133.788546 
" clip-path="url(#pbe0518fc02)" style="fill: none; stroke: #ff7f0e; stroke-width: 1.5"/>
    <path d="M 288.24 206.824541 
L 288.24 139.796044 
" clip-path="url(#pbe0518fc02)" style="fill: none; stroke: #ff7f0e; stroke-width: 1.5"/>
    <path d="M 303.12 201.256107 
L 303.12 145.384866 
" clip-path="url(#pbe0518fc02)" style="fill: none; stroke: #ff7f0e; stroke-width: 1.5"/>
    <path d="M 318 196.149048 
L 318 150.514376 
" clip-path="url(#pbe0518fc02)" style="fill: none; stroke: #ff7f0e; stroke-width: 1.5"/>
    <path d="M 332.88 191.506863 
L 332.88 155.165505 
" clip-path="url(#pbe0518fc02)" style="fill: none; stroke: #ff7f0e; stroke-width: 1.5"/>
    <path d="M 347.76 187.409662 
L 347.76 159.265147 
" clip-path="url(#pbe0518fc02)" style="fill: none; stroke: #ff7f0e; stroke-width: 1.5"/>
    <path d="M 362.64 184.033972 
L 362.64 162.641831 
" clip-path="url(#pbe0518fc02)" style="fill: none; stroke: #ff7f0e; stroke-width: 1.5"/>
    <path d="M 377.52 181.310853 
L 377.52 165.364646 
" clip-path="url(#pbe0518fc02)" style="fill: none; stroke: #ff7f0e; stroke-width: 1.5"/>
    <path d="M 392.4 178.893651 
L 392.4 167.782464 
" clip-path="url(#pbe0518fc02)" style="fill: none; stroke: #ff7f0e; stroke-width: 1.5"/>
    <path d="M 407.28 177.021159 
L 407.28 169.654923 
" clip-path="url(#pbe0518fc02)" style="fill: none; stroke: #ff7f0e; stroke-width: 1.5"/>
   </g>
   <g id="line2d_39">
    <path d="M 57.6 173.338718 
L 414.72 173.338718 
" clip-path="url(#pbe0518fc02)" style="fill: none; stroke: #ff7f0e; stroke-width: 0.5; stroke-linecap: square"/>
   </g>
   <g id="LineCollection_5">
    <path d="M 57.6 173.338718 
L 72.48 173.338718 
" clip-path="url(#pbe0518fc02)" style="fill: none; stroke: #2ca02c; stroke-width: 1.5"/>
    <path d="M 72.48 173.338718 
L 87.36 173.338718 
" clip-path="url(#pbe0518fc02)" style="fill: none; stroke: #2ca02c; stroke-width: 1.5"/>
    <path d="M 87.36 173.338718 
L 102.24 173.338718 
" clip-path="url(#pbe0518fc02)" style="fill: none; stroke: #2ca02c; stroke-width: 1.5"/>
    <path d="M 102.24 173.338718 
L 117.12 173.338718 
" clip-path="url(#pbe0518fc02)" style="fill: none; stroke: #2ca02c; stroke-width: 1.5"/>
    <path d="M 117.12 153.241894 
L 132 153.241894 
" clip-path="url(#pbe0518fc02)" style="fill: none; stroke: #2ca02c; stroke-width: 1.5"/>
    <path d="M 132 164.019387 
L 146.88 164.019387 
" clip-path="url(#pbe0518fc02)" style="fill: none; stroke: #2ca02c; stroke-width: 1.5"/>
    <path d="M 146.88 198.185648 
L 161.76 198.185648 
" clip-path="url(#pbe0518fc02)" style="fill: none; stroke: #2ca02c; stroke-width: 1.5"/>
    <path d="M 161.76 182.293714 
L 176.64 182.293714 
" clip-path="url(#pbe0518fc02)" style="fill: none; stroke: #2ca02c; stroke-width: 1.5"/>
    <path d="M 176.64 176.130222 
L 191.52 176.130222 
" clip-path="url(#pbe0518fc02)" style="fill: none; stroke: #2ca02c; stroke-width: 1.5"/>
    <path d="M 191.52 180.450823 
L 206.4 180.450823 
" clip-path="url(#pbe0518fc02)" style="fill: none; stroke: #2ca02c; stroke-width: 1.5"/>
    <path d="M 206.4 171.952944 
L 221.28 171.952944 
" clip-path="url(#pbe0518fc02)" style="fill: none; stroke: #2ca02c; stroke-width: 1.5"/>
    <path d="M 221.28 169.018054 
L 236.16 169.018054 
" clip-path="url(#pbe0518fc02)" style="fill: none; stroke: #2ca02c; stroke-width: 1.5"/>
    <path d="M 236.16 169.127306 
L 251.04 169.127306 
" clip-path="url(#pbe0518fc02)" style="fill: none; stroke: #2ca02c; stroke-width: 1.5"/>
    <path d="M 251.04 170.147385 
L 265.92 170.147385 
" clip-path="url(#pbe0518fc02)" style="fill: none; stroke: #2ca02c; stroke-width: 1.5"/>
    <path d="M 265.92 171.430441 
L 280.8 171.430441 
" clip-path="url(#pbe0518fc02)" style="fill: none; stroke: #2ca02c; stroke-width: 1.5"/>
    <path d="M 280.8 172.508997 
L 295.68 172.508997 
" clip-path="url(#pbe0518fc02)" style="fill: none; stroke: #2ca02c; stroke-width: 1.5"/>
    <path d="M 295.68 173.311741 
L 310.56 173.311741 
" clip-path="url(#pbe0518fc02)" style="fill: none; stroke: #2ca02c; stroke-width: 1.5"/>
    <path d="M 310.56 173.67513 
L 325.44 173.67513 
" clip-path="url(#pbe0518fc02)" style="fill: none; stroke: #2ca02c; stroke-width: 1.5"/>
    <path d="M 325.44 173.729175 
L 340.32 173.729175 
" clip-path="url(#pbe0518fc02)" style="fill: none; stroke: #2ca02c; stroke-width: 1.5"/>
    <path d="M 340.32 173.65319 
L 355.2 173.65319 
" clip-path="url(#pbe0518fc02)" style="fill: none; stroke: #2ca02c; stroke-width: 1.5"/>
    <path d="M 355.2 173.518909 
L 370.08 173.518909 
" clip-path="url(#pbe0518fc02)" style="fill: none; stroke: #2ca02c; stroke-width: 1.5"/>
    <path d="M 370.08 173.417036 
L 384.96 173.417036 
" clip-path="url(#pbe0518fc02)" style="fill: none; stroke: #2ca02c; stroke-width: 1.5"/>
    <path d="M 384.96 173.364435 
L 399.84 173.364435 
" clip-path="url(#pbe0518fc02)" style="fill: none; stroke: #2ca02c; stroke-width: 1.5"/>
    <path d="M 399.84 173.342312 
L 414.72 173.342312 
" clip-path="url(#pbe0518fc02)" style="fill: none; stroke: #2ca02c; stroke-width: 1.5"/>
   </g>
   <g id="LineCollection_6">
    <path d="M 65.04 173.338718 
L 65.04 173.338718 
" clip-path="url(#pbe0518fc02)" style="fill: none; stroke: #2ca02c; stroke-width: 1.5"/>
    <path d="M 79.92 173.338718 
L 79.92 173.338718 
" clip-path="url(#pbe0518fc02)" style="fill: none; stroke: #2ca02c; stroke-width: 1.5"/>
    <path d="M 94.8 173.338718 
L 94.8 173.338718 
" clip-path="url(#pbe0518fc02)" style="fill: none; stroke: #2ca02c; stroke-width: 1.5"/>
    <path d="M 109.68 173.338718 
L 109.68 173.338718 
" clip-path="url(#pbe0518fc02)" style="fill: none; stroke: #2ca02c; stroke-width: 1.5"/>
    <path d="M 124.56 243.421648 
L 124.56 63.062141 
" clip-path="url(#pbe0518fc02)" style="fill: none; stroke: #2ca02c; stroke-width: 1.5"/>
    <path d="M 139.44 280.287407 
L 139.44 47.751368 
" clip-path="url(#pbe0518fc02)" style="fill: none; stroke: #2ca02c; stroke-width: 1.5"/>
    <path d="M 154.32 301.191368 
L 154.32 95.179928 
" clip-path="url(#pbe0518fc02)" style="fill: none; stroke: #2ca02c; stroke-width: 1.5"/>
    <path d="M 169.2 276.394984 
L 169.2 88.192443 
" clip-path="url(#pbe0518fc02)" style="fill: none; stroke: #2ca02c; stroke-width: 1.5"/>
    <path d="M 184.08 266.747066 
L 184.08 85.513378 
" clip-path="url(#pbe0518fc02)" style="fill: none; stroke: #2ca02c; stroke-width: 1.5"/>
    <path d="M 198.96 262.12182 
L 198.96 98.779826 
" clip-path="url(#pbe0518fc02)" style="fill: none; stroke: #2ca02c; stroke-width: 1.5"/>
    <path d="M 213.84 240.75401 
L 213.84 103.151877 
" clip-path="url(#pbe0518fc02)" style="fill: none; stroke: #2ca02c; stroke-width: 1.5"/>
    <path d="M 228.72 228.786886 
L 228.72 109.249222 
" clip-path="url(#pbe0518fc02)" style="fill: none; stroke: #2ca02c; stroke-width: 1.5"/>
    <path d="M 243.6 221.522715 
L 243.6 116.731897 
" clip-path="url(#pbe0518fc02)" style="fill: none; stroke: #2ca02c; stroke-width: 1.5"/>
    <path d="M 258.48 215.95508 
L 258.48 124.33969 
" clip-path="url(#pbe0518fc02)" style="fill: none; stroke: #2ca02c; stroke-width: 1.5"/>
    <path d="M 273.36 210.939275 
L 273.36 131.921607 
" clip-path="url(#pbe0518fc02)" style="fill: none; stroke: #2ca02c; stroke-width: 1.5"/>
    <path d="M 288.24 206.023246 
L 288.24 138.994749 
" clip-path="url(#pbe0518fc02)" style="fill: none; stroke: #2ca02c; stroke-width: 1.5"/>
    <path d="M 303.12 201.247361 
L 303.12 145.37612 
" clip-path="url(#pbe0518fc02)" style="fill: none; stroke: #2ca02c; stroke-width: 1.5"/>
    <path d="M 318 196.492466 
L 318 150.857794 
" clip-path="url(#pbe0518fc02)" style="fill: none; stroke: #2ca02c; stroke-width: 1.5"/>
    <path d="M 332.88 191.899854 
L 332.88 155.558496 
" clip-path="url(#pbe0518fc02)" style="fill: none; stroke: #2ca02c; stroke-width: 1.5"/>
    <path d="M 347.76 187.725448 
L 347.76 159.580933 
" clip-path="url(#pbe0518fc02)" style="fill: none; stroke: #2ca02c; stroke-width: 1.5"/>
    <path d="M 362.64 184.21498 
L 362.64 162.822839 
" clip-path="url(#pbe0518fc02)" style="fill: none; stroke: #2ca02c; stroke-width: 1.5"/>
    <path d="M 377.52 181.390139 
L 377.52 165.443932 
" clip-path="url(#pbe0518fc02)" style="fill: none; stroke: #2ca02c; stroke-width: 1.5"/>
    <path d="M 392.4 178.920029 
L 392.4 167.808842 
" clip-path="url(#pbe0518fc02)" style="fill: none; stroke: #2ca02c; stroke-width: 1.5"/>
    <path d="M 407.28 177.02543 
L 407.28 169.659194 
" clip-path="url(#pbe0518fc02)" style="fill: none; stroke: #2ca02c; stroke-width: 1.5"/>
   </g>
   <g id="line2d_40">
    <path d="M 57.6 173.338718 
L 414.72 173.338718 
" clip-path="url(#pbe0518fc02)" style="fill: none; stroke: #2ca02c; stroke-width: 0.5; stroke-linecap: square"/>
   </g>
   <g id="line2d_41">
    <defs>
     <path id="m87a496164f" d="M 0 2 
C 0.530406 2 1.03916 1.789267 1.414214 1.414214 
C 1.789267 1.03916 2 0.530406 2 0 
C 2 -0.530406 1.789267 -1.03916 1.414214 -1.414214 
C 1.03916 -1.789267 0.530406 -2 0 -2 
C -0.530406 -2 -1.03916 -1.789267 -1.414214 -1.414214 
C -1.789267 -1.03916 -2 -0.530406 -2 0 
C -2 0.530406 -1.789267 1.03916 -1.414214 1.414214 
C -1.03916 1.789267 -0.530406 2 0 2 
z
" style="stroke: #1f77b4"/>
    </defs>
    <g clip-path="url(#pbe0518fc02)">
     <use xlink:href="#m87a496164f" x="65.04" y="173.338718" style="fill: #1f77b4; stroke: #1f77b4"/>
     <use xlink:href="#m87a496164f" x="79.92" y="173.338718" style="fill: #1f77b4; stroke: #1f77b4"/>
     <use xlink:href="#m87a496164f" x="94.8" y="173.338718" style="fill: #1f77b4; stroke: #1f77b4"/>
     <use xlink:href="#m87a496164f" x="109.68" y="173.338718" style="fill: #1f77b4; stroke: #1f77b4"/>
     <use xlink:href="#m87a496164f" x="124.56" y="201.547093" style="fill: #1f77b4; stroke: #1f77b4"/>
     <use xlink:href="#m87a496164f" x="139.44" y="154.828581" style="fill: #1f77b4; stroke: #1f77b4"/>
     <use xlink:href="#m87a496164f" x="154.32" y="166.028876" style="fill: #1f77b4; stroke: #1f77b4"/>
     <use xlink:href="#m87a496164f" x="169.2" y="168.54577" style="fill: #1f77b4; stroke: #1f77b4"/>
     <use xlink:href="#m87a496164f" x="184.08" y="162.77302" style="fill: #1f77b4; stroke: #1f77b4"/>
     <use xlink:href="#m87a496164f" x="198.96" y="172.648494" style="fill: #1f77b4; stroke: #1f77b4"/>
     <use xlink:href="#m87a496164f" x="213.84" y="176.857997" style="fill: #1f77b4; stroke: #1f77b4"/>
     <use xlink:href="#m87a496164f" x="228.72" y="177.650038" style="fill: #1f77b4; stroke: #1f77b4"/>
     <use xlink:href="#m87a496164f" x="243.6" y="177.04463" style="fill: #1f77b4; stroke: #1f77b4"/>
     <use xlink:href="#m87a496164f" x="258.48" y="175.707025" style="fill: #1f77b4; stroke: #1f77b4"/>
     <use xlink:href="#m87a496164f" x="273.36" y="174.370153" style="fill: #1f77b4; stroke: #1f77b4"/>
     <use xlink:href="#m87a496164f" x="288.24" y="173.314272" style="fill: #1f77b4; stroke: #1f77b4"/>
     <use xlink:href="#m87a496164f" x="303.12" y="172.811382" style="fill: #1f77b4; stroke: #1f77b4"/>
     <use xlink:href="#m87a496164f" x="318" y="172.753826" style="fill: #1f77b4; stroke: #1f77b4"/>
     <use xlink:href="#m87a496164f" x="332.88" y="172.89254" style="fill: #1f77b4; stroke: #1f77b4"/>
     <use xlink:href="#m87a496164f" x="347.76" y="173.096315" style="fill: #1f77b4; stroke: #1f77b4"/>
     <use xlink:href="#m87a496164f" x="362.64" y="173.241067" style="fill: #1f77b4; stroke: #1f77b4"/>
     <use xlink:href="#m87a496164f" x="377.52" y="173.309856" style="fill: #1f77b4; stroke: #1f77b4"/>
     <use xlink:href="#m87a496164f" x="392.4" y="173.334135" style="fill: #1f77b4; stroke: #1f77b4"/>
     <use xlink:href="#m87a496164f" x="407.28" y="173.339007" style="fill: #1f77b4; stroke: #1f77b4"/>
    </g>
   </g>
   <g id="line2d_42">
    <defs>
     <path id="mce1a804ccd" d="M 0 2 
C 0.530406 2 1.03916 1.789267 1.414214 1.414214 
C 1.789267 1.03916 2 0.530406 2 0 
C 2 -0.530406 1.789267 -1.03916 1.414214 -1.414214 
C 1.03916 -1.789267 0.530406 -2 0 -2 
C -0.530406 -2 -1.03916 -1.789267 -1.414214 -1.414214 
C -1.789267 -1.03916 -2 -0.530406 -2 0 
C -2 0.530406 -1.789267 1.03916 -1.414214 1.414214 
C -1.03916 1.789267 -0.530406 2 0 2 
z
" style="stroke: #ff7f0e"/>
    </defs>
    <g clip-path="url(#pbe0518fc02)">
     <use xlink:href="#mce1a804ccd" x="65.04" y="173.338718" style="fill: #ff7f0e; stroke: #ff7f0e"/>
     <use xlink:href="#mce1a804ccd" x="79.92" y="173.338718" style="fill: #ff7f0e; stroke: #ff7f0e"/>
     <use xlink:href="#mce1a804ccd" x="94.8" y="173.338718" style="fill: #ff7f0e; stroke: #ff7f0e"/>
     <use xlink:href="#mce1a804ccd" x="109.68" y="173.338718" style="fill: #ff7f0e; stroke: #ff7f0e"/>
     <use xlink:href="#mce1a804ccd" x="124.56" y="173.407728" style="fill: #ff7f0e; stroke: #ff7f0e"/>
     <use xlink:href="#mce1a804ccd" x="139.44" y="172.845329" style="fill: #ff7f0e; stroke: #ff7f0e"/>
     <use xlink:href="#mce1a804ccd" x="154.32" y="174.074867" style="fill: #ff7f0e; stroke: #ff7f0e"/>
     <use xlink:href="#mce1a804ccd" x="169.2" y="173.712697" style="fill: #ff7f0e; stroke: #ff7f0e"/>
     <use xlink:href="#mce1a804ccd" x="184.08" y="173.190181" style="fill: #ff7f0e; stroke: #ff7f0e"/>
     <use xlink:href="#mce1a804ccd" x="198.96" y="173.574349" style="fill: #ff7f0e; stroke: #ff7f0e"/>
     <use xlink:href="#mce1a804ccd" x="213.84" y="173.417938" style="fill: #ff7f0e; stroke: #ff7f0e"/>
     <use xlink:href="#mce1a804ccd" x="228.72" y="173.298963" style="fill: #ff7f0e; stroke: #ff7f0e"/>
     <use xlink:href="#mce1a804ccd" x="243.6" y="173.294121" style="fill: #ff7f0e; stroke: #ff7f0e"/>
     <use xlink:href="#mce1a804ccd" x="258.48" y="173.29096" style="fill: #ff7f0e; stroke: #ff7f0e"/>
     <use xlink:href="#mce1a804ccd" x="273.36" y="173.29738" style="fill: #ff7f0e; stroke: #ff7f0e"/>
     <use xlink:href="#mce1a804ccd" x="288.24" y="173.310293" style="fill: #ff7f0e; stroke: #ff7f0e"/>
     <use xlink:href="#mce1a804ccd" x="303.12" y="173.320486" style="fill: #ff7f0e; stroke: #ff7f0e"/>
     <use xlink:href="#mce1a804ccd" x="318" y="173.331712" style="fill: #ff7f0e; stroke: #ff7f0e"/>
     <use xlink:href="#mce1a804ccd" x="332.88" y="173.336184" style="fill: #ff7f0e; stroke: #ff7f0e"/>
     <use xlink:href="#mce1a804ccd" x="347.76" y="173.337404" style="fill: #ff7f0e; stroke: #ff7f0e"/>
     <use xlink:href="#mce1a804ccd" x="362.64" y="173.337902" style="fill: #ff7f0e; stroke: #ff7f0e"/>
     <use xlink:href="#mce1a804ccd" x="377.52" y="173.337749" style="fill: #ff7f0e; stroke: #ff7f0e"/>
     <use xlink:href="#mce1a804ccd" x="392.4" y="173.338057" style="fill: #ff7f0e; stroke: #ff7f0e"/>
     <use xlink:href="#mce1a804ccd" x="407.28" y="173.338041" style="fill: #ff7f0e; stroke: #ff7f0e"/>
    </g>
   </g>
   <g id="line2d_43">
    <defs>
     <path id="m996f5c5405" d="M 0 2 
C 0.530406 2 1.03916 1.789267 1.414214 1.414214 
C 1.789267 1.03916 2 0.530406 2 0 
C 2 -0.530406 1.789267 -1.03916 1.414214 -1.414214 
C 1.03916 -1.789267 0.530406 -2 0 -2 
C -0.530406 -2 -1.03916 -1.789267 -1.414214 -1.414214 
C -1.789267 -1.03916 -2 -0.530406 -2 0 
C -2 0.530406 -1.789267 1.03916 -1.414214 1.414214 
C -1.03916 1.789267 -0.530406 2 0 2 
z
" style="stroke: #2ca02c"/>
    </defs>
    <g clip-path="url(#pbe0518fc02)">
     <use xlink:href="#m996f5c5405" x="65.04" y="173.338718" style="fill: #2ca02c; stroke: #2ca02c"/>
     <use xlink:href="#m996f5c5405" x="79.92" y="173.338718" style="fill: #2ca02c; stroke: #2ca02c"/>
     <use xlink:href="#m996f5c5405" x="94.8" y="173.338718" style="fill: #2ca02c; stroke: #2ca02c"/>
     <use xlink:href="#m996f5c5405" x="109.68" y="173.338718" style="fill: #2ca02c; stroke: #2ca02c"/>
     <use xlink:href="#m996f5c5405" x="124.56" y="153.241894" style="fill: #2ca02c; stroke: #2ca02c"/>
     <use xlink:href="#m996f5c5405" x="139.44" y="164.019387" style="fill: #2ca02c; stroke: #2ca02c"/>
     <use xlink:href="#m996f5c5405" x="154.32" y="198.185648" style="fill: #2ca02c; stroke: #2ca02c"/>
     <use xlink:href="#m996f5c5405" x="169.2" y="182.293714" style="fill: #2ca02c; stroke: #2ca02c"/>
     <use xlink:href="#m996f5c5405" x="184.08" y="176.130222" style="fill: #2ca02c; stroke: #2ca02c"/>
     <use xlink:href="#m996f5c5405" x="198.96" y="180.450823" style="fill: #2ca02c; stroke: #2ca02c"/>
     <use xlink:href="#m996f5c5405" x="213.84" y="171.952944" style="fill: #2ca02c; stroke: #2ca02c"/>
     <use xlink:href="#m996f5c5405" x="228.72" y="169.018054" style="fill: #2ca02c; stroke: #2ca02c"/>
     <use xlink:href="#m996f5c5405" x="243.6" y="169.127306" style="fill: #2ca02c; stroke: #2ca02c"/>
     <use xlink:href="#m996f5c5405" x="258.48" y="170.147385" style="fill: #2ca02c; stroke: #2ca02c"/>
     <use xlink:href="#m996f5c5405" x="273.36" y="171.430441" style="fill: #2ca02c; stroke: #2ca02c"/>
     <use xlink:href="#m996f5c5405" x="288.24" y="172.508997" style="fill: #2ca02c; stroke: #2ca02c"/>
     <use xlink:href="#m996f5c5405" x="303.12" y="173.311741" style="fill: #2ca02c; stroke: #2ca02c"/>
     <use xlink:href="#m996f5c5405" x="318" y="173.67513" style="fill: #2ca02c; stroke: #2ca02c"/>
     <use xlink:href="#m996f5c5405" x="332.88" y="173.729175" style="fill: #2ca02c; stroke: #2ca02c"/>
     <use xlink:href="#m996f5c5405" x="347.76" y="173.65319" style="fill: #2ca02c; stroke: #2ca02c"/>
     <use xlink:href="#m996f5c5405" x="362.64" y="173.518909" style="fill: #2ca02c; stroke: #2ca02c"/>
     <use xlink:href="#m996f5c5405" x="377.52" y="173.417036" style="fill: #2ca02c; stroke: #2ca02c"/>
     <use xlink:href="#m996f5c5405" x="392.4" y="173.364435" style="fill: #2ca02c; stroke: #2ca02c"/>
     <use xlink:href="#m996f5c5405" x="407.28" y="173.342312" style="fill: #2ca02c; stroke: #2ca02c"/>
    </g>
   </g>
   <g id="patch_3">
    <path d="M 57.6 307.584 
L 57.6 41.472 
" style="fill: none; stroke: #000000; stroke-width: 0.8; stroke-linejoin: miter; stroke-linecap: square"/>
   </g>
   <g id="patch_4">
    <path d="M 414.72 307.584 
L 414.72 41.472 
" style="fill: none; stroke: #000000; stroke-width: 0.8; stroke-linejoin: miter; stroke-linecap: square"/>
   </g>
   <g id="patch_5">
    <path d="M 57.6 307.584 
L 414.72 307.584 
" style="fill: none; stroke: #000000; stroke-width: 0.8; stroke-linejoin: miter; stroke-linecap: square"/>
   </g>
   <g id="patch_6">
    <path d="M 57.6 41.472 
L 414.72 41.472 
" style="fill: none; stroke: #000000; stroke-width: 0.8; stroke-linejoin: miter; stroke-linecap: square"/>
   </g>
   <g id="text_16">
    <!-- Standard -->
    <g transform="translate(212.748039 35.472) scale(0.12 -0.12)">
     <defs>
      <path id="CMR17-53" d="M 2803 4351 
C 2803 4467 2797 4473 2758 4473 
C 2720 4473 2707 4447 2682 4390 
L 2490 3965 
C 2246 4320 1875 4480 1472 4480 
C 819 4480 294 3958 294 3301 
C 294 3101 339 2817 557 2546 
C 794 2250 1018 2198 1530 2063 
C 1722 2011 2042 1927 2106 1901 
C 2470 1747 2662 1360 2662 999 
C 2662 534 2336 38 1779 38 
C 1094 38 454 425 410 1328 
C 403 1431 397 1437 352 1437 
C 301 1437 294 1431 294 1302 
L 294 0 
C 294 -116 301 -122 339 -122 
C 384 -122 397 -90 486 109 
C 493 128 493 141 614 386 
C 934 -39 1472 -128 1779 -128 
C 2477 -128 2970 457 2970 1141 
C 2970 1476 2848 1734 2778 1850 
C 2509 2263 2221 2340 1914 2417 
C 1869 2437 1856 2437 1498 2527 
C 1152 2617 1005 2662 845 2836 
C 666 3036 602 3243 602 3449 
C 602 3868 934 4326 1478 4326 
C 2157 4326 2579 3842 2675 3036 
C 2694 2920 2701 2914 2746 2914 
C 2803 2914 2803 2933 2803 3043 
L 2803 4351 
z
" transform="scale(0.015625)"/>
     </defs>
     <use xlink:href="#CMR17-53" transform="scale(0.996264)"/>
     <use xlink:href="#CMR17-74" transform="translate(50.89537 0) scale(0.996264)"/>
     <use xlink:href="#CMR17-61" transform="translate(86.176138 0) scale(0.996264)"/>
     <use xlink:href="#CMR17-6e" transform="translate(131.866615 0) scale(0.996264)"/>
     <use xlink:href="#CMR17-64" transform="translate(182.761984 0) scale(0.996264)"/>
     <use xlink:href="#CMR17-61" transform="translate(233.657354 0) scale(0.996264)"/>
     <use xlink:href="#CMR17-72" transform="translate(279.347831 0) scale(0.996264)"/>
     <use xlink:href="#CMR17-64" transform="translate(314.628599 0) scale(0.996264)"/>
    </g>
   </g>
   <g id="legend_1">
    <g id="patch_7">
     <path d="M 303.629089 91.283535 
L 407.72 91.283535 
Q 409.72 91.283535 409.72 89.283535 
L 409.72 48.472 
Q 409.72 46.472 407.72 46.472 
L 303.629089 46.472 
Q 301.629089 46.472 301.629089 48.472 
L 301.629089 89.283535 
Q 301.629089 91.283535 303.629089 91.283535 
z
" style="fill: #ffffff; opacity: 0.8; stroke: #cccccc; stroke-linejoin: miter"/>
    </g>
    <g id="LineCollection_7">
     <path d="M 310.629089 53.972 
L 320.629089 53.972 
" style="fill: none; stroke: #1f77b4; stroke-width: 1.5"/>
    </g>
    <g id="LineCollection_8">
     <path d="M 315.629089 58.972 
L 315.629089 48.972 
" style="fill: none; stroke: #1f77b4; stroke-width: 1.5"/>
    </g>
    <g id="line2d_44"/>
    <g id="line2d_45">
     <g>
      <use xlink:href="#m87a496164f" x="315.629089" y="53.972" style="fill: #1f77b4; stroke: #1f77b4"/>
     </g>
    </g>
    <g id="text_17">
     <!-- bias=-0.1; res=0 -->
     <g transform="translate(333.629089 57.472) scale(0.1 -0.1)">
      <defs>
       <path id="CMR17-62" d="M 960 4416 
L 198 4345 
L 198 4179 
C 576 4179 634 4141 634 3843 
L 634 -13 
L 749 -13 
L 934 445 
C 1120 141 1395 -64 1766 -64 
C 2406 -64 3053 503 3053 1382 
C 3053 2209 2477 2816 1830 2816 
C 1434 2816 1152 2603 960 2351 
L 960 4416 
z
M 973 2022 
C 973 2138 973 2157 1062 2293 
C 1312 2681 1670 2713 1792 2713 
C 1984 2713 2643 2610 2643 1388 
C 2643 109 1888 38 1734 38 
C 1536 38 1248 115 1043 490 
C 973 613 973 626 973 742 
L 973 2022 
z
" transform="scale(0.015625)"/>
       <path id="CMR17-3d" d="M 4115 2048 
C 4211 2048 4307 2048 4307 2156 
C 4307 2272 4198 2272 4090 2272 
L 512 2272 
C 403 2272 294 2272 294 2156 
C 294 2048 390 2048 486 2048 
L 4115 2048 
z
M 4090 927 
C 4198 927 4307 927 4307 1043 
C 4307 1152 4211 1152 4115 1152 
L 486 1152 
C 390 1152 294 1152 294 1043 
C 294 927 403 927 512 927 
L 4090 927 
z
" transform="scale(0.015625)"/>
       <path id="CMR17-2e" d="M 1062 262 
C 1062 422 934 524 800 524 
C 672 524 538 422 538 262 
C 538 102 666 0 800 0 
C 928 0 1062 102 1062 262 
z
" transform="scale(0.015625)"/>
       <path id="CMR17-3b" d="M 1062 2489 
C 1062 2649 934 2752 800 2752 
C 672 2752 538 2649 538 2489 
C 538 2329 666 2227 800 2227 
C 928 2227 1062 2329 1062 2489 
z
M 979 -69 
C 979 -469 851 -795 634 -1095 
C 595 -1140 595 -1152 595 -1159 
C 595 -1191 621 -1216 646 -1216 
C 678 -1216 1082 -782 1082 -57 
C 1082 192 1062 524 800 524 
C 659 524 538 428 538 262 
C 538 96 659 0 800 0 
C 864 0 934 19 979 64 
L 979 -69 
z
" transform="scale(0.015625)"/>
      </defs>
      <use xlink:href="#CMR17-62" transform="scale(0.996264)"/>
      <use xlink:href="#CMR17-69" transform="translate(50.89537 0) scale(0.996264)"/>
      <use xlink:href="#CMR17-61" transform="translate(75.766428 0) scale(0.996264)"/>
      <use xlink:href="#CMR17-73" transform="translate(121.456905 0) scale(0.996264)"/>
      <use xlink:href="#CMR17-3d" transform="translate(157.258243 0) scale(0.996264)"/>
      <use xlink:href="#CMR17-2d" transform="translate(228.973031 0) scale(0.996264)"/>
      <use xlink:href="#CMR17-30" transform="translate(259.048998 0) scale(0.996264)"/>
      <use xlink:href="#CMR17-2e" transform="translate(304.739475 0) scale(0.996264)"/>
      <use xlink:href="#CMR17-31" transform="translate(329.610533 0) scale(0.996264)"/>
      <use xlink:href="#CMR17-3b" transform="translate(375.30101 0) scale(0.996264)"/>
      <use xlink:href="#CMR17-72" transform="translate(430.248035 0) scale(0.996264)"/>
      <use xlink:href="#CMR17-65" transform="translate(465.528803 0) scale(0.996264)"/>
      <use xlink:href="#CMR17-73" transform="translate(506.014464 0) scale(0.996264)"/>
      <use xlink:href="#CMR17-3d" transform="translate(541.815801 0) scale(0.996264)"/>
      <use xlink:href="#CMR17-30" transform="translate(613.53059 0) scale(0.996264)"/>
     </g>
    </g>
    <g id="LineCollection_9">
     <path d="M 310.629089 67.909178 
L 320.629089 67.909178 
" style="fill: none; stroke: #ff7f0e; stroke-width: 1.5"/>
    </g>
    <g id="LineCollection_10">
     <path d="M 315.629089 72.909178 
L 315.629089 62.909178 
" style="fill: none; stroke: #ff7f0e; stroke-width: 1.5"/>
    </g>
    <g id="line2d_46"/>
    <g id="line2d_47">
     <g>
      <use xlink:href="#mce1a804ccd" x="315.629089" y="67.909178" style="fill: #ff7f0e; stroke: #ff7f0e"/>
     </g>
    </g>
    <g id="text_18">
     <!-- bias=0.0; res=0 -->
     <g transform="translate(333.629089 71.409178) scale(0.1 -0.1)">
      <use xlink:href="#CMR17-62" transform="scale(0.996264)"/>
      <use xlink:href="#CMR17-69" transform="translate(50.89537 0) scale(0.996264)"/>
      <use xlink:href="#CMR17-61" transform="translate(75.766428 0) scale(0.996264)"/>
      <use xlink:href="#CMR17-73" transform="translate(121.456905 0) scale(0.996264)"/>
      <use xlink:href="#CMR17-3d" transform="translate(157.258243 0) scale(0.996264)"/>
      <use xlink:href="#CMR17-30" transform="translate(228.973031 0) scale(0.996264)"/>
      <use xlink:href="#CMR17-2e" transform="translate(274.663509 0) scale(0.996264)"/>
      <use xlink:href="#CMR17-30" transform="translate(299.534567 0) scale(0.996264)"/>
      <use xlink:href="#CMR17-3b" transform="translate(345.225044 0) scale(0.996264)"/>
      <use xlink:href="#CMR17-72" transform="translate(400.172069 0) scale(0.996264)"/>
      <use xlink:href="#CMR17-65" transform="translate(435.452837 0) scale(0.996264)"/>
      <use xlink:href="#CMR17-73" transform="translate(475.938497 0) scale(0.996264)"/>
      <use xlink:href="#CMR17-3d" transform="translate(511.739835 0) scale(0.996264)"/>
      <use xlink:href="#CMR17-30" transform="translate(583.454623 0) scale(0.996264)"/>
     </g>
    </g>
    <g id="LineCollection_11">
     <path d="M 310.629089 81.846357 
L 320.629089 81.846357 
" style="fill: none; stroke: #2ca02c; stroke-width: 1.5"/>
    </g>
    <g id="LineCollection_12">
     <path d="M 315.629089 86.846357 
L 315.629089 76.846357 
" style="fill: none; stroke: #2ca02c; stroke-width: 1.5"/>
    </g>
    <g id="line2d_48"/>
    <g id="line2d_49">
     <g>
      <use xlink:href="#m996f5c5405" x="315.629089" y="81.846357" style="fill: #2ca02c; stroke: #2ca02c"/>
     </g>
    </g>
    <g id="text_19">
     <!-- bias=0.1; res=0 -->
     <g transform="translate(333.629089 85.346357) scale(0.1 -0.1)">
      <use xlink:href="#CMR17-62" transform="scale(0.996264)"/>
      <use xlink:href="#CMR17-69" transform="translate(50.89537 0) scale(0.996264)"/>
      <use xlink:href="#CMR17-61" transform="translate(75.766428 0) scale(0.996264)"/>
      <use xlink:href="#CMR17-73" transform="translate(121.456905 0) scale(0.996264)"/>
      <use xlink:href="#CMR17-3d" transform="translate(157.258243 0) scale(0.996264)"/>
      <use xlink:href="#CMR17-30" transform="translate(228.973031 0) scale(0.996264)"/>
      <use xlink:href="#CMR17-2e" transform="translate(274.663509 0) scale(0.996264)"/>
      <use xlink:href="#CMR17-31" transform="translate(299.534567 0) scale(0.996264)"/>
      <use xlink:href="#CMR17-3b" transform="translate(345.225044 0) scale(0.996264)"/>
      <use xlink:href="#CMR17-72" transform="translate(400.172069 0) scale(0.996264)"/>
      <use xlink:href="#CMR17-65" transform="translate(435.452837 0) scale(0.996264)"/>
      <use xlink:href="#CMR17-73" transform="translate(475.938497 0) scale(0.996264)"/>
      <use xlink:href="#CMR17-3d" transform="translate(511.739835 0) scale(0.996264)"/>
      <use xlink:href="#CMR17-30" transform="translate(583.454623 0) scale(0.996264)"/>
     </g>
    </g>
   </g>
  </g>
 </g>
 <defs>
  <clipPath id="pbe0518fc02">
   <rect x="57.6" y="41.472" width="357.12" height="266.112"/>
  </clipPath>
 </defs>
</svg>
