<?xml version="1.0" encoding="utf-8" standalone="no"?>
<!DOCTYPE svg PUBLIC "-//W3C//DTD SVG 1.1//EN"
  "http://www.w3.org/Graphics/SVG/1.1/DTD/svg11.dtd">
<svg xmlns:xlink="http://www.w3.org/1999/xlink" width="288pt" height="288pt" viewBox="0 0 288 288" xmlns="http://www.w3.org/2000/svg" version="1.1">
 <metadata>
  <rdf:RDF xmlns:dc="http://purl.org/dc/elements/1.1/" xmlns:cc="http://creativecommons.org/ns#" xmlns:rdf="http://www.w3.org/1999/02/22-rdf-syntax-ns#">
   <cc:Work>
    <dc:type rdf:resource="http://purl.org/dc/dcmitype/StillImage"/>
    <dc:date>2023-08-17T15:19:10.558558</dc:date>
    <dc:format>image/svg+xml</dc:format>
    <dc:creator>
     <cc:Agent>
      <dc:title>Matplotlib v3.7.1, https://matplotlib.org/</dc:title>
     </cc:Agent>
    </dc:creator>
   </cc:Work>
  </rdf:RDF>
 </metadata>
 <defs>
  <style type="text/css">*{stroke-linejoin: round; stroke-linecap: butt}</style>
 </defs>
 <g id="figure_1">
  <g id="patch_1">
   <path d="M 0 288
L 288 288
L 288 0
L 0 0
z
" style="fill: #ffffff"/>
  </g>
  <g id="axes_1">
   <g id="patch_2">
    <path d="M 55.894451 247.381683
L 275.967433 247.381683
L 275.967433 25.10218
L 55.894451 25.10218
z
" style="fill: #ffffff"/>
   </g>
   <g id="PolyCollection_1">
    <path d="M 65.897768 17.013575
L 65.897768 40.599143
L 67.918641 40.672894
L 69.939513 40.75636
L 71.960385 40.849268
L 73.981257 40.951363
L 76.002129 41.062411
L 78.023002 41.182194
L 80.043874 41.310517
L 82.064746 41.447198
L 84.085618 41.592077
L 86.10649 41.745011
L 88.127363 41.905878
L 90.148235 42.074576
L 92.169107 42.251023
L 94.189979 42.435163
L 96.210851 42.626964
L 98.231724 42.826427
L 100.252596 43.033583
L 102.273468 43.248508
L 104.29434 43.471324
L 106.315212 43.702214
L 108.336085 43.941438
L 110.356957 44.189352
L 112.377829 44.446442
L 114.398701 44.713366
L 116.419573 44.991017
L 118.440446 45.280618
L 120.461318 45.583854
L 122.48219 45.903082
L 124.503062 46.241617
L 126.523934 46.604139
L 128.544807 46.997189
L 130.565679 47.429563
L 132.586551 47.912104
L 134.607423 48.455993
L 136.628295 49.069127
L 138.649168 49.752395
L 140.67004 50.499163
L 142.690912 51.298546
L 144.711784 52.139349
L 146.732656 53.012264
L 148.753529 53.910346
L 150.774401 54.828673
L 152.795273 55.763839
L 154.816145 56.71351
L 156.837017 57.676094
L 158.85789 58.650526
L 160.878762 59.636106
L 162.899634 60.632405
L 164.920506 61.639194
L 166.941378 62.656397
L 168.96225 63.684064
L 170.983123 64.722344
L 173.003995 65.771481
L 175.024867 66.831798
L 177.045739 67.903696
L 179.066611 68.987656
L 181.087484 70.084237
L 183.108356 71.194083
L 185.129228 72.317928
L 187.1501 73.456605
L 189.170972 74.611059
L 191.191845 75.782358
L 193.212717 76.971709
L 195.233589 78.18048
L 197.254461 79.410219
L 199.275333 80.662681
L 201.296206 81.939858
L 203.317078 83.244016
L 205.33795 84.577734
L 207.358822 85.943949
L 209.379694 87.346013
L 211.400567 88.787755
L 213.421439 90.273552
L 215.442311 91.808416
L 217.463183 93.398087
L 219.484055 95.049149
L 221.504928 96.769162
L 223.5258 98.566824
L 225.546672 100.452152
L 227.567544 102.436718
L 229.588416 104.533927
L 231.609289 106.759376
L 233.630161 109.131308
L 235.651033 111.671218
L 237.671905 114.40467
L 239.692777 117.362436
L 241.71365 120.582127
L 243.734522 124.110615
L 245.755394 128.007738
L 247.776266 132.352229
L 249.797138 137.251663
L 251.818011 142.860196
L 253.838883 149.412788
L 255.859755 157.298498
L 257.880627 167.242674
L 259.901499 180.878003
L 261.922372 203.514439
L 263.943244 66573.743792
L 265.964116 66573.743792
L 265.964116 105.456699
L 265.964116 105.456699
L 263.943244 103.091753
L 261.922372 100.852648
L 259.901499 98.727803
L 257.880627 96.706705
L 255.859755 94.779882
L 253.838883 92.938868
L 251.818011 91.176162
L 249.797138 89.485181
L 247.776266 87.860201
L 245.755394 86.29629
L 243.734522 84.789232
L 241.71365 83.335449
L 239.692777 81.931915
L 237.671905 80.576073
L 235.651033 79.26575
L 233.630161 77.999084
L 231.609289 76.774453
L 229.588416 75.59041
L 227.567544 74.445639
L 225.546672 73.33891
L 223.5258 72.269047
L 221.504928 71.234903
L 219.484055 70.235349
L 217.463183 69.26926
L 215.442311 68.335508
L 213.421439 67.432965
L 211.400567 66.560499
L 209.379694 65.716983
L 207.358822 64.90129
L 205.33795 64.112306
L 203.317078 63.348927
L 201.296206 62.610068
L 199.275333 61.894664
L 197.254461 61.201674
L 195.233589 60.530086
L 193.212717 59.878914
L 191.191845 59.247203
L 189.170972 58.63403
L 187.1501 58.038503
L 185.129228 57.45976
L 183.108356 56.89697
L 181.087484 56.349331
L 179.066611 55.816065
L 177.045739 55.29642
L 175.024867 54.789663
L 173.003995 54.295074
L 170.983123 53.811945
L 168.96225 53.339567
L 166.941378 52.877222
L 164.920506 52.424168
L 162.899634 51.979622
L 160.878762 51.542737
L 158.85789 51.112561
L 156.837017 50.687994
L 154.816145 50.267712
L 152.795273 49.850062
L 150.774401 49.432914
L 148.753529 49.013425
L 146.732656 48.587718
L 144.711784 48.150434
L 142.690912 47.694218
L 140.67004 47.209387
L 138.649168 46.684393
L 136.628295 46.108026
L 134.607423 45.473353
L 132.586551 44.780985
L 130.565679 44.038566
L 128.544807 43.257042
L 126.523934 42.447043
L 124.503062 41.617173
L 122.48219 40.773794
L 120.461318 39.921432
L 118.440446 39.06326
L 116.419573 38.201509
L 114.398701 37.337758
L 112.377829 36.473138
L 110.356957 35.608462
L 108.336085 34.744327
L 106.315212 33.88117
L 104.29434 33.019311
L 102.273468 32.158991
L 100.252596 31.300384
L 98.231724 30.443621
L 96.210851 29.588794
L 94.189979 28.73597
L 92.169107 27.885196
L 90.148235 27.0365
L 88.127363 26.189898
L 86.10649 25.345398
L 84.085618 24.502999
L 82.064746 23.662693
L 80.043874 22.824469
L 78.023002 21.988311
L 76.002129 21.1542
L 73.981257 20.322116
L 71.960385 19.492036
L 69.939513 18.663936
L 67.918641 17.837791
L 65.897768 17.013575
z
" clip-path="url(#p58ad08746f)" style="fill: #ff0000; fill-opacity: 0.3; stroke: #ff0000; stroke-opacity: 0.3"/>
   </g>
   <g id="PolyCollection_2">
    <path d="M 66.8981 17.421323
L 66.8981 40.634417
L 68.898764 40.712179
L 70.899427 40.79933
L 72.900091 40.895614
L 74.900754 41.000793
L 76.901418 41.114648
L 78.902081 41.236976
L 80.902745 41.367595
L 82.903408 41.506336
L 84.904071 41.653052
L 86.904735 41.807612
L 88.905398 41.969905
L 90.906062 42.139839
L 92.906725 42.317345
L 94.907389 42.502376
L 96.908052 42.694912
L 98.908716 42.894964
L 100.909379 43.102577
L 102.910043 43.317837
L 104.910706 43.54088
L 106.91137 43.771905
L 108.912033 44.01119
L 110.912697 44.259113
L 112.91336 44.516188
L 114.914024 44.783106
L 116.914687 45.060809
L 118.915351 45.350578
L 120.916014 45.654186
L 122.916677 45.974102
L 124.917341 46.313796
L 126.918004 46.678146
L 128.918668 47.073914
L 130.919331 47.510059
L 132.919995 47.997345
L 134.920658 48.546377
L 136.921322 49.163937
L 138.921985 49.849717
L 140.922649 50.596448
L 142.923312 51.393328
L 144.923976 52.229635
L 146.924639 53.096591
L 148.925303 53.987673
L 150.925966 54.898261
L 152.92663 55.825148
L 154.927293 56.766128
L 156.927957 57.719695
L 158.92862 58.684836
L 160.929284 59.660884
L 162.929947 60.64743
L 164.93061 61.644254
L 166.931274 62.651285
L 168.931937 63.668571
L 170.932601 64.696256
L 172.933264 65.734575
L 174.933928 66.783838
L 176.934591 67.844433
L 178.935255 68.916822
L 180.935918 70.001542
L 182.936582 71.099213
L 184.937245 72.210539
L 186.937909 73.33632
L 188.938572 74.477461
L 190.939236 75.634985
L 192.939899 76.810045
L 194.940563 78.003948
L 196.941226 79.218168
L 198.94189 80.454378
L 200.942553 81.714472
L 202.943216 83.0006
L 204.94388 84.315206
L 206.944543 85.66107
L 208.945207 87.041359
L 210.94587 88.459687
L 212.946534 89.920176
L 214.947197 91.427539
L 216.947861 92.987167
L 218.948524 94.605231
L 220.949188 96.288809
L 222.949851 98.046022
L 224.950515 99.886212
L 226.951178 101.820144
L 228.951842 103.860256
L 230.952505 106.020981
L 232.953169 108.319141
L 234.953832 110.774473
L 236.954496 113.410331
L 238.955159 116.254651
L 240.955822 119.34131
L 242.956486 122.712117
L 244.957149 126.419806
L 246.957813 130.532723
L 248.958476 135.142496
L 250.95914 140.377288
L 252.959803 146.426333
L 254.960467 153.589655
L 256.96113 162.392151
L 258.961794 173.898173
L 260.962457 190.893286
L 262.963121 227.055776
L 264.963784 66573.743792
L 264.963784 104.269553
L 264.963784 104.269553
L 262.963121 101.990812
L 260.962457 99.829769
L 258.961794 97.775687
L 256.96113 95.818844
L 254.960467 93.950503
L 252.959803 92.162875
L 250.95914 90.449082
L 248.958476 88.803102
L 246.957813 87.219712
L 244.957149 85.694421
L 242.956486 84.223395
L 240.955822 82.803382
L 238.955159 81.431628
L 236.954496 80.105799
L 234.953832 78.823904
L 232.953169 77.584226
L 230.952505 76.385253
L 228.951842 75.22563
L 226.951178 74.10411
L 224.950515 73.019519
L 222.949851 71.970726
L 220.949188 70.956625
L 218.948524 69.976123
L 216.947861 69.028126
L 214.947197 68.111542
L 212.946534 67.225273
L 210.94587 66.368224
L 208.945207 65.539299
L 206.944543 64.737409
L 204.94388 63.961472
L 202.943216 63.210421
L 200.942553 62.483208
L 198.94189 61.778804
L 196.941226 61.096202
L 194.940563 60.434423
L 192.939899 59.792517
L 190.939236 59.169561
L 188.938572 58.564663
L 186.937909 57.976961
L 184.937245 57.405622
L 182.936582 56.849843
L 180.935918 56.308847
L 178.935255 55.781882
L 176.934591 55.26822
L 174.933928 54.76715
L 172.933264 54.277975
L 170.932601 53.800008
L 168.931937 53.33256
L 166.931274 52.874934
L 164.93061 52.426411
L 162.929947 51.986232
L 160.929284 51.553573
L 158.92862 51.127516
L 156.927957 50.706997
L 154.927293 50.290742
L 152.92663 49.877168
L 150.925966 49.464241
L 148.925303 49.049261
L 146.924639 48.628561
L 144.923976 48.197092
L 142.923312 47.747935
L 140.922649 47.27194
L 138.921985 46.758044
L 136.921322 46.195123
L 134.920658 45.575616
L 132.919995 44.898942
L 130.919331 44.171633
L 128.918668 43.404064
L 126.918004 42.606789
L 124.917341 41.788575
L 122.916677 40.95601
L 120.916014 40.113815
L 118.915351 39.265322
L 116.914687 38.412874
L 114.914024 37.558136
L 112.91336 36.702296
L 110.912697 35.846216
L 108.912033 34.990523
L 106.91137 34.135679
L 104.910706 33.282025
L 102.910043 32.429814
L 100.909379 31.579235
L 98.908716 30.730425
L 96.908052 29.883486
L 94.907389 29.03849
L 92.906725 28.195489
L 90.906062 27.354516
L 88.905398 26.515591
L 86.904735 25.678724
L 84.904071 24.843918
L 82.903408 24.011167
L 80.902745 23.180461
L 78.902081 22.351787
L 76.901418 21.525128
L 74.900754 20.700465
L 72.900091 19.877776
L 70.899427 19.057038
L 68.898764 18.238229
L 66.8981 17.421323
z
" clip-path="url(#p58ad08746f)" style="fill: #6495ed; fill-opacity: 0.5"/>
   </g>
   <g id="matplotlib.axis_1">
    <g id="xtick_1">
     <g id="line2d_1">
      <defs>
       <path id="m19aae6ff05" d="M 0 0
L 0 3.5
" style="stroke: #000000; stroke-width: 0.8"/>
      </defs>
      <g>
       <use xlink:href="#m19aae6ff05" x="61.5485" y="247.381683" style="stroke: #000000; stroke-width: 0.8"/>
      </g>
     </g>
     <g id="text_1">
      <!-- $\mathdefault{10^{-1}}$ -->
      <g transform="translate(51.468213 261.300182) scale(0.1 -0.1)">
       <defs>
        <path id="CMR17-31" d="M 1702 4083
C 1702 4217 1696 4224 1606 4224
C 1357 3927 979 3833 621 3820
C 602 3820 570 3820 563 3808
C 557 3795 557 3782 557 3648
C 755 3648 1088 3686 1344 3839
L 1344 467
C 1344 243 1331 166 781 166
L 589 166
L 589 0
C 896 6 1216 12 1523 12
C 1830 12 2150 6 2458 0
L 2458 166
L 2266 166
C 1715 166 1702 236 1702 467
L 1702 4083
z
" transform="scale(0.015625)"/>
        <path id="CMR17-30" d="M 2688 2038
C 2688 2430 2682 3099 2413 3613
C 2176 4063 1798 4224 1466 4224
C 1158 4224 768 4082 525 3620
C 269 3137 243 2539 243 2038
C 243 1671 250 1112 448 623
C 723 -39 1216 -128 1466 -128
C 1760 -128 2208 -7 2470 604
C 2662 1048 2688 1568 2688 2038
z
M 1466 -26
C 1056 -26 813 328 723 816
C 653 1196 653 1749 653 2109
C 653 2604 653 3015 736 3407
C 858 3954 1216 4121 1466 4121
C 1728 4121 2067 3947 2189 3420
C 2272 3054 2278 2623 2278 2109
C 2278 1691 2278 1176 2202 797
C 2067 96 1690 -26 1466 -26
z
" transform="scale(0.015625)"/>
        <path id="CMSY10-0" d="M 4218 1472
C 4326 1472 4442 1472 4442 1600
C 4442 1728 4326 1728 4218 1728
L 755 1728
C 646 1728 531 1728 531 1600
C 531 1472 646 1472 755 1472
L 4218 1472
z
" transform="scale(0.015625)"/>
       </defs>
       <use xlink:href="#CMR17-31" transform="scale(0.996264)"/>
       <use xlink:href="#CMR17-30" transform="translate(45.690477 0) scale(0.996264)"/>
       <use xlink:href="#CMSY10-0" transform="translate(91.380954 36.153639) scale(0.697382)"/>
       <use xlink:href="#CMR17-31" transform="translate(145.621947 36.153639) scale(0.697382)"/>
      </g>
     </g>
    </g>
    <g id="xtick_2">
     <g id="line2d_2">
      <g>
       <use xlink:href="#m19aae6ff05" x="131.136795" y="247.381683" style="stroke: #000000; stroke-width: 0.8"/>
      </g>
     </g>
     <g id="text_2">
      <!-- $\mathdefault{10^{0}}$ -->
      <g transform="translate(124.169841 261.300182) scale(0.1 -0.1)">
       <use xlink:href="#CMR17-31" transform="scale(0.996264)"/>
       <use xlink:href="#CMR17-30" transform="translate(45.690477 0) scale(0.996264)"/>
       <use xlink:href="#CMR17-30" transform="translate(91.380954 36.153639) scale(0.697382)"/>
      </g>
     </g>
    </g>
    <g id="xtick_3">
     <g id="line2d_3">
      <g>
       <use xlink:href="#m19aae6ff05" x="200.72509" y="247.381683" style="stroke: #000000; stroke-width: 0.8"/>
      </g>
     </g>
     <g id="text_3">
      <!-- $\mathdefault{10^{1}}$ -->
      <g transform="translate(193.758136 261.300182) scale(0.1 -0.1)">
       <use xlink:href="#CMR17-31" transform="scale(0.996264)"/>
       <use xlink:href="#CMR17-30" transform="translate(45.690477 0) scale(0.996264)"/>
       <use xlink:href="#CMR17-31" transform="translate(91.380954 36.153639) scale(0.697382)"/>
      </g>
     </g>
    </g>
    <g id="xtick_4">
     <g id="line2d_4">
      <g>
       <use xlink:href="#m19aae6ff05" x="270.313384" y="247.381683" style="stroke: #000000; stroke-width: 0.8"/>
      </g>
     </g>
     <g id="text_4">
      <!-- $\mathdefault{10^{2}}$ -->
      <g transform="translate(263.34643 261.300182) scale(0.1 -0.1)">
       <defs>
        <path id="CMR17-32" d="M 2669 990
L 2554 990
C 2490 537 2438 460 2413 422
C 2381 371 1920 371 1830 371
L 602 371
C 832 620 1280 1073 1824 1596
C 2214 1966 2669 2400 2669 3033
C 2669 3788 2067 4224 1395 4224
C 691 4224 262 3603 262 3027
C 262 2777 448 2745 525 2745
C 589 2745 781 2783 781 3007
C 781 3206 614 3264 525 3264
C 486 3264 448 3257 422 3244
C 544 3788 915 4057 1306 4057
C 1862 4057 2227 3616 2227 3033
C 2227 2477 1901 1998 1536 1583
L 262 147
L 262 0
L 2515 0
L 2669 990
z
" transform="scale(0.015625)"/>
       </defs>
       <use xlink:href="#CMR17-31" transform="scale(0.996264)"/>
       <use xlink:href="#CMR17-30" transform="translate(45.690477 0) scale(0.996264)"/>
       <use xlink:href="#CMR17-32" transform="translate(91.380954 36.153639) scale(0.697382)"/>
      </g>
     </g>
    </g>
    <g id="xtick_5">
     <g id="line2d_5">
      <defs>
       <path id="m4e5558f05a" d="M 0 0
L 0 2
" style="stroke: #000000; stroke-width: 0.6"/>
      </defs>
      <g>
       <use xlink:href="#m4e5558f05a" x="58.364314" y="247.381683" style="stroke: #000000; stroke-width: 0.6"/>
      </g>
     </g>
    </g>
    <g id="xtick_6">
     <g id="line2d_6">
      <g>
       <use xlink:href="#m4e5558f05a" x="82.496664" y="247.381683" style="stroke: #000000; stroke-width: 0.6"/>
      </g>
     </g>
    </g>
    <g id="xtick_7">
     <g id="line2d_7">
      <g>
       <use xlink:href="#m4e5558f05a" x="94.750555" y="247.381683" style="stroke: #000000; stroke-width: 0.6"/>
      </g>
     </g>
    </g>
    <g id="xtick_8">
     <g id="line2d_8">
      <g>
       <use xlink:href="#m4e5558f05a" x="103.444828" y="247.381683" style="stroke: #000000; stroke-width: 0.6"/>
      </g>
     </g>
    </g>
    <g id="xtick_9">
     <g id="line2d_9">
      <g>
       <use xlink:href="#m4e5558f05a" x="110.188631" y="247.381683" style="stroke: #000000; stroke-width: 0.6"/>
      </g>
     </g>
    </g>
    <g id="xtick_10">
     <g id="line2d_10">
      <g>
       <use xlink:href="#m4e5558f05a" x="115.698719" y="247.381683" style="stroke: #000000; stroke-width: 0.6"/>
      </g>
     </g>
    </g>
    <g id="xtick_11">
     <g id="line2d_11">
      <g>
       <use xlink:href="#m4e5558f05a" x="120.357432" y="247.381683" style="stroke: #000000; stroke-width: 0.6"/>
      </g>
     </g>
    </g>
    <g id="xtick_12">
     <g id="line2d_12">
      <g>
       <use xlink:href="#m4e5558f05a" x="124.392992" y="247.381683" style="stroke: #000000; stroke-width: 0.6"/>
      </g>
     </g>
    </g>
    <g id="xtick_13">
     <g id="line2d_13">
      <g>
       <use xlink:href="#m4e5558f05a" x="127.952609" y="247.381683" style="stroke: #000000; stroke-width: 0.6"/>
      </g>
     </g>
    </g>
    <g id="xtick_14">
     <g id="line2d_14">
      <g>
       <use xlink:href="#m4e5558f05a" x="152.084959" y="247.381683" style="stroke: #000000; stroke-width: 0.6"/>
      </g>
     </g>
    </g>
    <g id="xtick_15">
     <g id="line2d_15">
      <g>
       <use xlink:href="#m4e5558f05a" x="164.338849" y="247.381683" style="stroke: #000000; stroke-width: 0.6"/>
      </g>
     </g>
    </g>
    <g id="xtick_16">
     <g id="line2d_16">
      <g>
       <use xlink:href="#m4e5558f05a" x="173.033123" y="247.381683" style="stroke: #000000; stroke-width: 0.6"/>
      </g>
     </g>
    </g>
    <g id="xtick_17">
     <g id="line2d_17">
      <g>
       <use xlink:href="#m4e5558f05a" x="179.776926" y="247.381683" style="stroke: #000000; stroke-width: 0.6"/>
      </g>
     </g>
    </g>
    <g id="xtick_18">
     <g id="line2d_18">
      <g>
       <use xlink:href="#m4e5558f05a" x="185.287013" y="247.381683" style="stroke: #000000; stroke-width: 0.6"/>
      </g>
     </g>
    </g>
    <g id="xtick_19">
     <g id="line2d_19">
      <g>
       <use xlink:href="#m4e5558f05a" x="189.945726" y="247.381683" style="stroke: #000000; stroke-width: 0.6"/>
      </g>
     </g>
    </g>
    <g id="xtick_20">
     <g id="line2d_20">
      <g>
       <use xlink:href="#m4e5558f05a" x="193.981287" y="247.381683" style="stroke: #000000; stroke-width: 0.6"/>
      </g>
     </g>
    </g>
    <g id="xtick_21">
     <g id="line2d_21">
      <g>
       <use xlink:href="#m4e5558f05a" x="197.540904" y="247.381683" style="stroke: #000000; stroke-width: 0.6"/>
      </g>
     </g>
    </g>
    <g id="xtick_22">
     <g id="line2d_22">
      <g>
       <use xlink:href="#m4e5558f05a" x="221.673254" y="247.381683" style="stroke: #000000; stroke-width: 0.6"/>
      </g>
     </g>
    </g>
    <g id="xtick_23">
     <g id="line2d_23">
      <g>
       <use xlink:href="#m4e5558f05a" x="233.927144" y="247.381683" style="stroke: #000000; stroke-width: 0.6"/>
      </g>
     </g>
    </g>
    <g id="xtick_24">
     <g id="line2d_24">
      <g>
       <use xlink:href="#m4e5558f05a" x="242.621418" y="247.381683" style="stroke: #000000; stroke-width: 0.6"/>
      </g>
     </g>
    </g>
    <g id="xtick_25">
     <g id="line2d_25">
      <g>
       <use xlink:href="#m4e5558f05a" x="249.36522" y="247.381683" style="stroke: #000000; stroke-width: 0.6"/>
      </g>
     </g>
    </g>
    <g id="xtick_26">
     <g id="line2d_26">
      <g>
       <use xlink:href="#m4e5558f05a" x="254.875308" y="247.381683" style="stroke: #000000; stroke-width: 0.6"/>
      </g>
     </g>
    </g>
    <g id="xtick_27">
     <g id="line2d_27">
      <g>
       <use xlink:href="#m4e5558f05a" x="259.534021" y="247.381683" style="stroke: #000000; stroke-width: 0.6"/>
      </g>
     </g>
    </g>
    <g id="xtick_28">
     <g id="line2d_28">
      <g>
       <use xlink:href="#m4e5558f05a" x="263.569582" y="247.381683" style="stroke: #000000; stroke-width: 0.6"/>
      </g>
     </g>
    </g>
    <g id="xtick_29">
     <g id="line2d_29">
      <g>
       <use xlink:href="#m4e5558f05a" x="267.129199" y="247.381683" style="stroke: #000000; stroke-width: 0.6"/>
      </g>
     </g>
    </g>
    <g id="text_5">
     <!-- Energy [TeV] -->
     <g transform="translate(136.928541 274.70934) scale(0.1 -0.1)">
      <defs>
       <path id="CMR17-45" d="M 3885 1614
L 3770 1614
C 3629 676 3546 166 2419 166
L 1530 166
C 1274 166 1261 198 1261 415
L 1261 2176
L 1862 2176
C 2464 2176 2522 1959 2522 1429
L 2637 1429
L 2637 3086
L 2522 3086
C 2522 2558 2464 2342 1862 2342
L 1261 2342
L 1261 3924
C 1261 4141 1274 4172 1530 4172
L 2406 4172
C 3398 4172 3514 3778 3603 2933
L 3718 2933
L 3565 4339
L 326 4339
L 326 4172
C 768 4172 838 4172 838 3886
L 838 453
C 838 166 768 166 326 166
L 326 0
L 3654 0
L 3885 1614
z
" transform="scale(0.015625)"/>
       <path id="CMR17-6e" d="M 2656 1954
C 2656 2282 2592 2816 1837 2816
C 1331 2816 1069 2424 973 2166
L 966 2166
L 966 2816
L 211 2745
L 211 2578
C 589 2578 646 2540 646 2231
L 646 443
C 646 198 621 166 211 166
L 211 0
C 365 12 646 12 813 12
C 979 12 1267 12 1421 0
L 1421 166
C 1011 166 986 192 986 443
L 986 1678
C 986 2269 1344 2713 1792 2713
C 2266 2713 2317 2289 2317 1980
L 2317 443
C 2317 198 2291 166 1882 166
L 1882 0
C 2035 12 2317 12 2483 12
C 2650 12 2938 12 3091 0
L 3091 166
C 2682 166 2656 192 2656 443
L 2656 1954
z
" transform="scale(0.015625)"/>
       <path id="CMR17-65" d="M 2438 1503
C 2464 1529 2464 1542 2464 1606
C 2464 2251 2118 2816 1389 2816
C 710 2816 173 2175 173 1394
C 173 554 781 -64 1459 -64
C 2176 -64 2458 619 2458 755
C 2458 800 2419 800 2406 800
C 2362 800 2355 787 2330 709
C 2189 270 1837 51 1504 51
C 1229 51 954 206 781 490
C 582 819 582 1200 582 1503
L 2438 1503
z
M 589 1600
C 634 2511 1126 2713 1382 2713
C 1818 2713 2112 2308 2118 1600
L 589 1600
z
" transform="scale(0.015625)"/>
       <path id="CMR17-72" d="M 960 1517
C 960 2134 1222 2713 1702 2713
C 1747 2713 1792 2707 1837 2687
C 1837 2687 1696 2642 1696 2475
C 1696 2321 1818 2257 1914 2257
C 1990 2257 2131 2302 2131 2482
C 2131 2687 1926 2816 1709 2816
C 1222 2816 1011 2340 947 2115
L 941 2115
L 941 2816
L 198 2745
L 198 2578
C 576 2578 634 2540 634 2231
L 634 443
C 634 198 608 166 198 166
L 198 0
C 352 12 646 12 813 12
C 998 12 1325 12 1498 0
L 1498 166
C 1037 166 960 166 960 455
L 960 1517
z
" transform="scale(0.015625)"/>
       <path id="CMR17-67" d="M 710 1165
C 832 1068 1043 960 1299 960
C 1805 960 2240 1359 2240 1895
C 2240 2063 2189 2321 1997 2521
C 2176 2713 2438 2777 2586 2777
C 2611 2777 2650 2777 2682 2758
C 2656 2751 2598 2726 2598 2623
C 2598 2540 2656 2483 2739 2483
C 2835 2483 2886 2547 2886 2630
C 2886 2751 2790 2880 2586 2880
C 2330 2880 2106 2758 1926 2591
C 1734 2764 1504 2828 1299 2828
C 794 2828 358 2431 358 1895
C 358 1527 570 1294 634 1230
C 442 1004 442 742 442 710
C 442 544 506 300 723 166
C 390 82 128 -184 128 -517
C 128 -996 736 -1344 1466 -1344
C 2170 -1344 2803 -1009 2803 -510
C 2803 384 1856 384 1363 384
C 1216 384 954 384 922 390
C 723 422 589 601 589 825
C 589 883 589 1024 710 1165
z
M 1299 1068
C 736 1068 736 1766 736 1895
C 736 2024 736 2719 1299 2719
C 1862 2719 1862 2024 1862 1895
C 1862 1766 1862 1068 1299 1068
z
M 1466 -1236
C 826 -1236 384 -883 384 -517
C 384 -311 493 -118 634 -11
C 794 102 858 102 1293 102
C 1818 102 2547 102 2547 -517
C 2547 -883 2106 -1236 1466 -1236
z
" transform="scale(0.015625)"/>
       <path id="CMR17-79" d="M 2496 2183
C 2656 2579 2944 2585 3034 2585
L 3034 2752
C 2912 2745 2752 2739 2630 2739
C 2496 2739 2285 2739 2157 2752
L 2157 2585
C 2400 2566 2406 2384 2406 2332
C 2406 2268 2394 2235 2362 2158
L 1664 409
L 902 2300
C 870 2378 870 2423 870 2430
C 870 2572 1018 2585 1171 2585
L 1171 2752
C 1018 2739 742 2739 582 2739
C 410 2739 205 2739 64 2752
L 64 2585
C 410 2585 448 2553 531 2345
L 1485 -31
C 1197 -795 1030 -1242 627 -1242
C 557 -1242 397 -1223 282 -1106
C 429 -1093 493 -1002 493 -892
C 493 -782 416 -685 288 -685
C 147 -685 77 -782 77 -899
C 77 -1158 339 -1344 627 -1344
C 998 -1344 1229 -983 1357 -659
L 2496 2183
z
" transform="scale(0.015625)"/>
       <path id="CMR17-5b" d="M 1504 -1600
L 1504 -1376
L 902 -1376
L 902 4575
L 1504 4575
L 1504 4800
L 678 4800
L 678 -1600
L 1504 -1600
z
" transform="scale(0.015625)"/>
       <path id="CMR17-54" d="M 3981 4332
L 288 4332
L 179 2924
L 294 2924
C 378 3981 467 4166 1453 4166
C 1568 4166 1754 4166 1805 4159
C 1926 4140 1926 4064 1926 3917
L 1926 465
C 1926 236 1907 166 1376 166
L 1197 166
L 1197 0
C 1504 6 1824 12 2138 12
C 2451 12 2771 6 3078 0
L 3078 166
L 2899 166
C 2368 166 2349 236 2349 465
L 2349 3917
C 2349 4057 2349 4134 2464 4159
C 2515 4166 2701 4166 2816 4166
C 3795 4166 3891 3981 3974 2924
L 4090 2924
L 3981 4332
z
" transform="scale(0.015625)"/>
       <path id="CMR17-56" d="M 3776 3762
C 3834 3903 3936 4179 4365 4185
L 4365 4352
C 4218 4339 4051 4339 3891 4339
C 3738 4339 3475 4339 3328 4352
L 3328 4185
C 3648 4166 3661 3942 3661 3903
C 3661 3833 3642 3788 3622 3737
L 2362 448
L 1043 3903
C 1024 3948 1011 3980 1011 4012
C 1011 4185 1267 4185 1402 4185
L 1402 4352
C 1197 4339 896 4339 685 4339
C 518 4339 218 4339 64 4352
L 64 4185
C 435 4185 506 4160 582 3955
L 2106 -26
C 2138 -116 2144 -128 2214 -128
C 2285 -128 2291 -116 2323 -26
L 3776 3762
z
" transform="scale(0.015625)"/>
       <path id="CMR17-5d" d="M 915 4800
L 90 4800
L 90 4575
L 691 4575
L 691 -1376
L 90 -1376
L 90 -1600
L 915 -1600
L 915 4800
z
" transform="scale(0.015625)"/>
      </defs>
      <use xlink:href="#CMR17-45" transform="scale(0.996264)"/>
      <use xlink:href="#CMR17-6e" transform="translate(62.586301 0) scale(0.996264)"/>
      <use xlink:href="#CMR17-65" transform="translate(113.48167 0) scale(0.996264)"/>
      <use xlink:href="#CMR17-72" transform="translate(153.967331 0) scale(0.996264)"/>
      <use xlink:href="#CMR17-67" transform="translate(189.248099 0) scale(0.996264)"/>
      <use xlink:href="#CMR17-79" transform="translate(234.938576 0) scale(0.996264)"/>
      <use xlink:href="#CMR17-5b" transform="translate(313.307458 0) scale(0.996264)"/>
      <use xlink:href="#CMR17-54" transform="translate(338.178516 0) scale(0.996264)"/>
      <use xlink:href="#CMR17-65" transform="translate(396.881142 0) scale(0.996264)"/>
      <use xlink:href="#CMR17-56" transform="translate(437.366802 0) scale(0.996264)"/>
      <use xlink:href="#CMR17-5d" transform="translate(506.439232 0) scale(0.996264)"/>
     </g>
    </g>
   </g>
   <g id="matplotlib.axis_2">
    <g id="ytick_1">
     <g id="line2d_30">
      <defs>
       <path id="m20a0ea4aa1" d="M 0 0
L -3.5 0
" style="stroke: #000000; stroke-width: 0.8"/>
      </defs>
      <g>
       <use xlink:href="#m20a0ea4aa1" x="55.894451" y="247.381683" style="stroke: #000000; stroke-width: 0.8"/>
      </g>
     </g>
     <g id="text_6">
      <!-- $\mathdefault{10^{-15}}$ -->
      <g transform="translate(24.76264 250.840932) scale(0.1 -0.1)">
       <defs>
        <path id="CMR17-35" d="M 730 3750
C 794 3724 1056 3641 1325 3641
C 1920 3641 2246 3961 2432 4140
C 2432 4191 2432 4224 2394 4224
C 2387 4224 2374 4224 2323 4198
C 2099 4102 1837 4032 1517 4032
C 1325 4032 1037 4055 723 4191
C 653 4224 640 4224 634 4224
C 602 4224 595 4217 595 4090
L 595 2231
C 595 2113 595 2080 659 2080
C 691 2080 704 2093 736 2139
C 941 2435 1222 2560 1542 2560
C 1766 2560 2246 2415 2246 1293
C 2246 1087 2246 716 2054 422
C 1894 159 1645 25 1370 25
C 947 25 518 319 403 812
C 429 806 480 793 506 793
C 589 793 749 838 749 1036
C 749 1209 627 1280 506 1280
C 358 1280 262 1190 262 1011
C 262 454 704 -128 1382 -128
C 2042 -128 2669 441 2669 1267
C 2669 2054 2170 2662 1549 2662
C 1222 2662 947 2540 730 2304
L 730 3750
z
" transform="scale(0.015625)"/>
       </defs>
       <use xlink:href="#CMR17-31" transform="scale(0.996264)"/>
       <use xlink:href="#CMR17-30" transform="translate(45.690477 0) scale(0.996264)"/>
       <use xlink:href="#CMSY10-0" transform="translate(91.380954 36.153639) scale(0.697382)"/>
       <use xlink:href="#CMR17-31" transform="translate(145.621947 36.153639) scale(0.697382)"/>
       <use xlink:href="#CMR17-35" transform="translate(177.605129 36.153639) scale(0.697382)"/>
      </g>
     </g>
    </g>
    <g id="ytick_2">
     <g id="line2d_31">
      <g>
       <use xlink:href="#m20a0ea4aa1" x="55.894451" y="180.045275" style="stroke: #000000; stroke-width: 0.8"/>
      </g>
     </g>
     <g id="text_7">
      <!-- $\mathdefault{10^{-14}}$ -->
      <g transform="translate(24.76264 183.504524) scale(0.1 -0.1)">
       <defs>
        <path id="CMR17-34" d="M 2150 4147
C 2150 4281 2144 4288 2029 4288
L 128 1254
L 128 1088
L 1779 1088
L 1779 460
C 1779 230 1766 166 1318 166
L 1197 166
L 1197 0
C 1402 12 1747 12 1965 12
C 2182 12 2528 12 2733 0
L 2733 166
L 2611 166
C 2163 166 2150 230 2150 460
L 2150 1088
L 2803 1088
L 2803 1254
L 2150 1254
L 2150 4147
z
M 1798 3723
L 1798 1254
L 256 1254
L 1798 3723
z
" transform="scale(0.015625)"/>
       </defs>
       <use xlink:href="#CMR17-31" transform="scale(0.996264)"/>
       <use xlink:href="#CMR17-30" transform="translate(45.690477 0) scale(0.996264)"/>
       <use xlink:href="#CMSY10-0" transform="translate(91.380954 36.153639) scale(0.697382)"/>
       <use xlink:href="#CMR17-31" transform="translate(145.621947 36.153639) scale(0.697382)"/>
       <use xlink:href="#CMR17-34" transform="translate(177.605129 36.153639) scale(0.697382)"/>
      </g>
     </g>
    </g>
    <g id="ytick_3">
     <g id="line2d_32">
      <g>
       <use xlink:href="#m20a0ea4aa1" x="55.894451" y="112.708867" style="stroke: #000000; stroke-width: 0.8"/>
      </g>
     </g>
     <g id="text_8">
      <!-- $\mathdefault{10^{-13}}$ -->
      <g transform="translate(24.76264 116.168116) scale(0.1 -0.1)">
       <defs>
        <path id="CMR17-33" d="M 1414 2176
C 1984 2176 2234 1673 2234 1094
C 2234 322 1824 25 1453 25
C 1114 25 563 193 390 691
C 422 678 454 678 486 678
C 640 678 755 780 755 947
C 755 1132 614 1216 486 1216
C 378 1216 211 1164 211 927
C 211 335 787 -128 1466 -128
C 2176 -128 2720 432 2720 1087
C 2720 1718 2208 2176 1600 2246
C 2086 2347 2554 2776 2554 3353
C 2554 3856 2048 4224 1472 4224
C 890 4224 378 3862 378 3347
C 378 3123 544 3084 627 3084
C 762 3084 877 3167 877 3334
C 877 3500 762 3584 627 3584
C 602 3584 570 3584 544 3571
C 730 3999 1235 4076 1459 4076
C 1683 4076 2106 3966 2106 3347
C 2106 3167 2080 2851 1862 2574
C 1670 2329 1453 2316 1242 2297
C 1210 2297 1062 2284 1037 2284
C 992 2278 966 2272 966 2227
C 966 2182 973 2176 1101 2176
L 1414 2176
z
" transform="scale(0.015625)"/>
       </defs>
       <use xlink:href="#CMR17-31" transform="scale(0.996264)"/>
       <use xlink:href="#CMR17-30" transform="translate(45.690477 0) scale(0.996264)"/>
       <use xlink:href="#CMSY10-0" transform="translate(91.380954 36.153639) scale(0.697382)"/>
       <use xlink:href="#CMR17-31" transform="translate(145.621947 36.153639) scale(0.697382)"/>
       <use xlink:href="#CMR17-33" transform="translate(177.605129 36.153639) scale(0.697382)"/>
      </g>
     </g>
    </g>
    <g id="ytick_4">
     <g id="line2d_33">
      <g>
       <use xlink:href="#m20a0ea4aa1" x="55.894451" y="45.372458" style="stroke: #000000; stroke-width: 0.8"/>
      </g>
     </g>
     <g id="text_9">
      <!-- $\mathdefault{10^{-12}}$ -->
      <g transform="translate(24.76264 48.831708) scale(0.1 -0.1)">
       <use xlink:href="#CMR17-31" transform="scale(0.996264)"/>
       <use xlink:href="#CMR17-30" transform="translate(45.690477 0) scale(0.996264)"/>
       <use xlink:href="#CMSY10-0" transform="translate(91.380954 36.153639) scale(0.697382)"/>
       <use xlink:href="#CMR17-31" transform="translate(145.621947 36.153639) scale(0.697382)"/>
       <use xlink:href="#CMR17-32" transform="translate(177.605129 36.153639) scale(0.697382)"/>
      </g>
     </g>
    </g>
    <g id="ytick_5">
     <g id="line2d_34">
      <defs>
       <path id="m703429542e" d="M 0 0
L -2 0
" style="stroke: #000000; stroke-width: 0.6"/>
      </defs>
      <g>
       <use xlink:href="#m703429542e" x="55.894451" y="227.111405" style="stroke: #000000; stroke-width: 0.6"/>
      </g>
     </g>
    </g>
    <g id="ytick_6">
     <g id="line2d_35">
      <g>
       <use xlink:href="#m703429542e" x="55.894451" y="215.254052" style="stroke: #000000; stroke-width: 0.6"/>
      </g>
     </g>
    </g>
    <g id="ytick_7">
     <g id="line2d_36">
      <g>
       <use xlink:href="#m703429542e" x="55.894451" y="206.841126" style="stroke: #000000; stroke-width: 0.6"/>
      </g>
     </g>
    </g>
    <g id="ytick_8">
     <g id="line2d_37">
      <g>
       <use xlink:href="#m703429542e" x="55.894451" y="200.315554" style="stroke: #000000; stroke-width: 0.6"/>
      </g>
     </g>
    </g>
    <g id="ytick_9">
     <g id="line2d_38">
      <g>
       <use xlink:href="#m703429542e" x="55.894451" y="194.983773" style="stroke: #000000; stroke-width: 0.6"/>
      </g>
     </g>
    </g>
    <g id="ytick_10">
     <g id="line2d_39">
      <g>
       <use xlink:href="#m703429542e" x="55.894451" y="190.475817" style="stroke: #000000; stroke-width: 0.6"/>
      </g>
     </g>
    </g>
    <g id="ytick_11">
     <g id="line2d_40">
      <g>
       <use xlink:href="#m703429542e" x="55.894451" y="186.570847" style="stroke: #000000; stroke-width: 0.6"/>
      </g>
     </g>
    </g>
    <g id="ytick_12">
     <g id="line2d_41">
      <g>
       <use xlink:href="#m703429542e" x="55.894451" y="183.12642" style="stroke: #000000; stroke-width: 0.6"/>
      </g>
     </g>
    </g>
    <g id="ytick_13">
     <g id="line2d_42">
      <g>
       <use xlink:href="#m703429542e" x="55.894451" y="159.774996" style="stroke: #000000; stroke-width: 0.6"/>
      </g>
     </g>
    </g>
    <g id="ytick_14">
     <g id="line2d_43">
      <g>
       <use xlink:href="#m703429542e" x="55.894451" y="147.917643" style="stroke: #000000; stroke-width: 0.6"/>
      </g>
     </g>
    </g>
    <g id="ytick_15">
     <g id="line2d_44">
      <g>
       <use xlink:href="#m703429542e" x="55.894451" y="139.504718" style="stroke: #000000; stroke-width: 0.6"/>
      </g>
     </g>
    </g>
    <g id="ytick_16">
     <g id="line2d_45">
      <g>
       <use xlink:href="#m703429542e" x="55.894451" y="132.979145" style="stroke: #000000; stroke-width: 0.6"/>
      </g>
     </g>
    </g>
    <g id="ytick_17">
     <g id="line2d_46">
      <g>
       <use xlink:href="#m703429542e" x="55.894451" y="127.647365" style="stroke: #000000; stroke-width: 0.6"/>
      </g>
     </g>
    </g>
    <g id="ytick_18">
     <g id="line2d_47">
      <g>
       <use xlink:href="#m703429542e" x="55.894451" y="123.139408" style="stroke: #000000; stroke-width: 0.6"/>
      </g>
     </g>
    </g>
    <g id="ytick_19">
     <g id="line2d_48">
      <g>
       <use xlink:href="#m703429542e" x="55.894451" y="119.234439" style="stroke: #000000; stroke-width: 0.6"/>
      </g>
     </g>
    </g>
    <g id="ytick_20">
     <g id="line2d_49">
      <g>
       <use xlink:href="#m703429542e" x="55.894451" y="115.790012" style="stroke: #000000; stroke-width: 0.6"/>
      </g>
     </g>
    </g>
    <g id="ytick_21">
     <g id="line2d_50">
      <g>
       <use xlink:href="#m703429542e" x="55.894451" y="92.438588" style="stroke: #000000; stroke-width: 0.6"/>
      </g>
     </g>
    </g>
    <g id="ytick_22">
     <g id="line2d_51">
      <g>
       <use xlink:href="#m703429542e" x="55.894451" y="80.581235" style="stroke: #000000; stroke-width: 0.6"/>
      </g>
     </g>
    </g>
    <g id="ytick_23">
     <g id="line2d_52">
      <g>
       <use xlink:href="#m703429542e" x="55.894451" y="72.168309" style="stroke: #000000; stroke-width: 0.6"/>
      </g>
     </g>
    </g>
    <g id="ytick_24">
     <g id="line2d_53">
      <g>
       <use xlink:href="#m703429542e" x="55.894451" y="65.642737" style="stroke: #000000; stroke-width: 0.6"/>
      </g>
     </g>
    </g>
    <g id="ytick_25">
     <g id="line2d_54">
      <g>
       <use xlink:href="#m703429542e" x="55.894451" y="60.310956" style="stroke: #000000; stroke-width: 0.6"/>
      </g>
     </g>
    </g>
    <g id="ytick_26">
     <g id="line2d_55">
      <g>
       <use xlink:href="#m703429542e" x="55.894451" y="55.803" style="stroke: #000000; stroke-width: 0.6"/>
      </g>
     </g>
    </g>
    <g id="ytick_27">
     <g id="line2d_56">
      <g>
       <use xlink:href="#m703429542e" x="55.894451" y="51.898031" style="stroke: #000000; stroke-width: 0.6"/>
      </g>
     </g>
    </g>
    <g id="ytick_28">
     <g id="line2d_57">
      <g>
       <use xlink:href="#m703429542e" x="55.894451" y="48.453604" style="stroke: #000000; stroke-width: 0.6"/>
      </g>
     </g>
    </g>
    <g id="ytick_29">
     <g id="line2d_58">
      <g>
       <use xlink:href="#m703429542e" x="55.894451" y="25.10218" style="stroke: #000000; stroke-width: 0.6"/>
      </g>
     </g>
    </g>
    <g id="text_10">
     <!-- e2 * dnde [TeV / (cm2 s)] -->
     <g transform="translate(18.27198 193.001381) rotate(-90) scale(0.1 -0.1)">
      <defs>
       <path id="CMR17-2a" d="M 1517 3324
L 2323 2727
C 2394 2670 2406 2670 2438 2670
C 2528 2670 2573 2747 2573 2804
C 2573 2875 2534 2901 2464 2939
L 1562 3420
L 2464 3908
C 2541 3953 2573 3966 2573 4036
C 2573 4171 2438 4171 2400 4171
L 1517 3516
L 1600 4671
C 1587 4748 1536 4800 1466 4800
C 1389 4800 1338 4735 1338 4678
L 1414 3516
L 608 4113
C 538 4171 525 4171 493 4171
C 403 4171 358 4094 358 4036
C 358 3966 397 3940 467 3901
L 1370 3420
L 467 2933
C 390 2888 358 2875 358 2804
C 358 2670 493 2670 531 2670
L 1414 3324
L 1331 2163
C 1338 2105 1382 2041 1466 2041
C 1542 2041 1594 2099 1594 2169
L 1587 2265
L 1517 3324
z
" transform="scale(0.015625)"/>
       <path id="CMR17-64" d="M 1869 4345
L 1869 4179
C 2246 4179 2304 4141 2304 3843
L 2304 2371
C 2278 2403 2016 2816 1498 2816
C 845 2816 211 2228 211 1376
C 211 529 806 -64 1434 -64
C 1978 -64 2259 361 2291 406
L 2291 -64
L 3066 -13
L 3066 154
C 2688 154 2630 193 2630 503
L 2630 4416
L 1869 4345
z
M 2291 762
C 2291 568 2176 393 2029 264
C 1811 70 1594 38 1472 38
C 1286 38 621 135 621 1369
C 621 2636 1363 2713 1530 2713
C 1824 2713 2061 2545 2208 2313
C 2291 2177 2291 2157 2291 2041
L 2291 762
z
" transform="scale(0.015625)"/>
       <path id="CMR17-2f" d="M 2605 4575
C 2637 4658 2637 4671 2637 4684
C 2637 4761 2579 4800 2528 4800
C 2451 4800 2426 4748 2400 4671
L 326 -1376
C 294 -1460 294 -1472 294 -1485
C 294 -1562 352 -1600 403 -1600
C 480 -1600 506 -1549 531 -1472
L 2605 4575
z
" transform="scale(0.015625)"/>
       <path id="CMR17-28" d="M 1958 -1562
C 1958 -1556 1958 -1543 1939 -1524
C 1645 -1223 858 -403 858 1596
C 858 3595 1632 4408 1946 4729
C 1946 4735 1958 4748 1958 4767
C 1958 4787 1939 4800 1914 4800
C 1843 4800 1299 4325 986 3620
C 666 2909 576 2218 576 1603
C 576 1141 621 360 1005 -467
C 1312 -1133 1837 -1600 1914 -1600
C 1946 -1600 1958 -1588 1958 -1562
z
" transform="scale(0.015625)"/>
       <path id="CMR17-63" d="M 2234 2240
C 2112 2240 1933 2240 1933 2015
C 1933 1836 2080 1785 2163 1785
C 2208 1785 2394 1804 2394 2028
C 2394 2476 1958 2816 1466 2816
C 787 2816 211 2201 211 1379
C 211 521 813 -64 1466 -64
C 2259 -64 2458 676 2458 747
C 2458 773 2451 792 2406 792
C 2362 792 2355 786 2330 702
C 2163 180 1798 51 1523 51
C 1114 51 621 431 621 1385
C 621 2358 1094 2700 1472 2700
C 1722 2700 2093 2582 2234 2240
z
" transform="scale(0.015625)"/>
       <path id="CMR17-6d" d="M 4326 1954
C 4326 2276 4269 2816 3507 2816
C 3072 2816 2771 2520 2656 2173
L 2650 2173
C 2573 2700 2195 2816 1837 2816
C 1331 2816 1069 2424 973 2166
L 966 2166
L 966 2816
L 211 2745
L 211 2578
C 589 2578 646 2540 646 2231
L 646 443
C 646 198 621 166 211 166
L 211 0
C 365 12 646 12 813 12
C 979 12 1267 12 1421 0
L 1421 166
C 1011 166 986 192 986 443
L 986 1678
C 986 2269 1344 2713 1792 2713
C 2266 2713 2317 2289 2317 1980
L 2317 443
C 2317 198 2291 166 1882 166
L 1882 0
C 2035 12 2317 12 2483 12
C 2650 12 2938 12 3091 0
L 3091 166
C 2682 166 2656 192 2656 443
L 2656 1678
C 2656 2269 3014 2713 3462 2713
C 3936 2713 3987 2289 3987 1980
L 3987 443
C 3987 198 3962 166 3552 166
L 3552 0
C 3706 12 3987 12 4154 12
C 4320 12 4608 12 4762 0
L 4762 166
C 4352 166 4326 192 4326 443
L 4326 1954
z
" transform="scale(0.015625)"/>
       <path id="CMR17-73" d="M 1978 2688
C 1978 2803 1971 2809 1933 2809
C 1907 2809 1901 2803 1824 2707
C 1805 2681 1747 2617 1728 2592
C 1523 2809 1235 2816 1126 2816
C 416 2816 160 2444 160 2073
C 160 1497 813 1363 998 1324
C 1402 1241 1542 1216 1677 1100
C 1760 1024 1901 883 1901 652
C 1901 384 1747 38 1158 38
C 602 38 403 460 288 1024
C 269 1113 269 1120 218 1120
C 166 1120 160 1113 160 985
L 160 64
C 160 -52 166 -58 205 -58
C 237 -58 243 -52 275 0
C 314 57 410 211 448 275
C 576 102 800 -64 1158 -64
C 1792 -64 2131 281 2131 780
C 2131 1107 1958 1280 1875 1356
C 1683 1555 1459 1600 1190 1651
C 838 1728 390 1817 390 2208
C 390 2374 480 2726 1126 2726
C 1811 2726 1850 2086 1862 1881
C 1869 1849 1901 1843 1920 1843
C 1978 1843 1978 1862 1978 1971
L 1978 2688
z
" transform="scale(0.015625)"/>
       <path id="CMR17-29" d="M 1683 1596
C 1683 2057 1638 2839 1254 3665
C 947 4332 422 4800 346 4800
C 326 4800 301 4793 301 4761
C 301 4748 307 4742 314 4729
C 621 4408 1402 3595 1402 1603
C 1402 -396 627 -1210 314 -1530
C 307 -1543 301 -1549 301 -1562
C 301 -1594 326 -1600 346 -1600
C 416 -1600 960 -1127 1274 -422
C 1594 289 1683 981 1683 1596
z
" transform="scale(0.015625)"/>
      </defs>
      <use xlink:href="#CMR17-65" transform="scale(0.996264)"/>
      <use xlink:href="#CMR17-32" transform="translate(40.48566 0) scale(0.996264)"/>
      <use xlink:href="#CMR17-2a" transform="translate(116.252104 0) scale(0.996264)"/>
      <use xlink:href="#CMR17-64" transform="translate(192.018547 0) scale(0.996264)"/>
      <use xlink:href="#CMR17-6e" transform="translate(242.913917 0) scale(0.996264)"/>
      <use xlink:href="#CMR17-64" transform="translate(293.809287 0) scale(0.996264)"/>
      <use xlink:href="#CMR17-65" transform="translate(344.704657 0) scale(0.996264)"/>
      <use xlink:href="#CMR17-5b" transform="translate(415.266284 0) scale(0.996264)"/>
      <use xlink:href="#CMR17-54" transform="translate(440.137342 0) scale(0.996264)"/>
      <use xlink:href="#CMR17-65" transform="translate(498.839967 0) scale(0.996264)"/>
      <use xlink:href="#CMR17-56" transform="translate(539.325628 0) scale(0.996264)"/>
      <use xlink:href="#CMR17-2f" transform="translate(638.474024 0) scale(0.996264)"/>
      <use xlink:href="#CMR17-28" transform="translate(714.240467 0) scale(0.996264)"/>
      <use xlink:href="#CMR17-63" transform="translate(749.521235 0) scale(0.996264)"/>
      <use xlink:href="#CMR17-6d" transform="translate(790.006896 0) scale(0.996264)"/>
      <use xlink:href="#CMR17-32" transform="translate(866.926485 0) scale(0.996264)"/>
      <use xlink:href="#CMR17-73" transform="translate(942.692929 0) scale(0.996264)"/>
      <use xlink:href="#CMR17-29" transform="translate(978.494266 0) scale(0.996264)"/>
      <use xlink:href="#CMR17-5d" transform="translate(1013.775034 0) scale(0.996264)"/>
     </g>
    </g>
   </g>
   <g id="line2d_59">
    <path d="M 66.8981 26.78266
L 68.898764 27.367418
L 70.899427 27.952449
L 72.900091 28.537771
L 74.900754 29.123404
L 76.901418 29.709369
L 78.902081 30.295689
L 80.902745 30.882389
L 82.903408 31.469494
L 84.904071 32.057033
L 86.904735 32.645034
L 88.905398 33.233529
L 90.906062 33.822553
L 92.906725 34.412142
L 94.907389 35.002333
L 96.908052 35.593169
L 98.908716 36.184693
L 100.909379 36.776953
L 102.910043 37.369999
L 104.910706 37.963884
L 106.91137 38.558667
L 108.912033 39.154408
L 110.912697 39.751173
L 112.91336 40.349033
L 114.914024 40.948061
L 116.914687 41.548339
L 118.915351 42.149952
L 120.916014 42.752991
L 122.916677 43.357553
L 124.917341 43.963743
L 126.918004 44.571672
L 128.918668 45.18146
L 130.919331 45.793233
L 132.919995 46.407128
L 134.920658 47.023289
L 136.921322 47.641872
L 138.921985 48.263043
L 140.922649 48.886978
L 142.923312 49.513866
L 144.923976 50.143911
L 146.924639 50.777327
L 148.925303 51.414347
L 150.925966 52.055215
L 152.92663 52.700196
L 154.927293 53.349571
L 156.927957 54.003641
L 158.92862 54.662728
L 160.929284 55.327173
L 162.929947 55.997345
L 164.93061 56.673636
L 166.931274 57.356463
L 168.931937 58.046274
L 170.932601 58.743548
L 172.933264 59.448795
L 174.933928 60.162561
L 176.934591 60.885428
L 178.935255 61.61802
L 180.935918 62.361002
L 182.936582 63.115085
L 184.937245 63.88103
L 186.937909 64.659647
L 188.938572 65.451805
L 190.939236 66.258429
L 192.939899 67.08051
L 194.940563 67.919106
L 196.941226 68.775347
L 198.94189 69.650441
L 200.942553 70.545678
L 202.943216 71.462437
L 204.94388 72.402189
L 206.944543 73.36651
L 208.945207 74.357081
L 210.94587 75.375698
L 212.946534 76.424281
L 214.947197 77.50488
L 216.947861 78.619687
L 218.948524 79.771042
L 220.949188 80.961448
L 222.949851 82.193577
L 224.950515 83.470284
L 226.951178 84.79462
L 228.951842 86.169845
L 230.952505 87.599442
L 232.953169 89.087132
L 234.953832 90.636891
L 236.954496 92.252967
L 238.955159 93.939898
L 240.955822 95.702534
L 242.956486 97.546056
L 244.957149 99.476
L 246.957813 101.49828
L 248.958476 103.619217
L 250.95914 105.845561
L 252.959803 108.184528
L 254.960467 110.643825
L 256.96113 113.231686
L 258.961794 115.956913
L 260.962457 118.828904
L 262.963121 121.857706
L 264.963784 125.054049
" clip-path="url(#p58ad08746f)" style="fill: none; stroke: #000000; stroke-linecap: square"/>
   </g>
   <g id="line2d_60">
    <path d="M 66.8981 26.78266
L 68.898764 27.367418
L 70.899427 27.952449
L 72.900091 28.537771
L 74.900754 29.123404
L 76.901418 29.709369
L 78.902081 30.295689
L 80.902745 30.882389
L 82.903408 31.469494
L 84.904071 32.057033
L 86.904735 32.645034
L 88.905398 33.233529
L 90.906062 33.822553
L 92.906725 34.412142
L 94.907389 35.002333
L 96.908052 35.593169
L 98.908716 36.184693
L 100.909379 36.776953
L 102.910043 37.369999
L 104.910706 37.963884
L 106.91137 38.558667
L 108.912033 39.154408
L 110.912697 39.751173
L 112.91336 40.349033
L 114.914024 40.948061
L 116.914687 41.548339
L 118.915351 42.149952
L 120.916014 42.752991
L 122.916677 43.357553
L 124.917341 43.963743
L 126.918004 44.571672
L 128.918668 45.18146
L 130.919331 45.793233
L 132.919995 46.407128
L 134.920658 47.023289
L 136.921322 47.641872
L 138.921985 48.263043
L 140.922649 48.886978
L 142.923312 49.513866
L 144.923976 50.143911
L 146.924639 50.777327
L 148.925303 51.414347
L 150.925966 52.055215
L 152.92663 52.700196
L 154.927293 53.349571
L 156.927957 54.003641
L 158.92862 54.662728
L 160.929284 55.327173
L 162.929947 55.997345
L 164.93061 56.673636
L 166.931274 57.356463
L 168.931937 58.046274
L 170.932601 58.743548
L 172.933264 59.448795
L 174.933928 60.162561
L 176.934591 60.885428
L 178.935255 61.61802
L 180.935918 62.361002
L 182.936582 63.115085
L 184.937245 63.88103
L 186.937909 64.659647
L 188.938572 65.451805
L 190.939236 66.258429
L 192.939899 67.08051
L 194.940563 67.919106
L 196.941226 68.775347
L 198.94189 69.650441
L 200.942553 70.545678
L 202.943216 71.462437
L 204.94388 72.402189
L 206.944543 73.36651
L 208.945207 74.357081
L 210.94587 75.375698
L 212.946534 76.424281
L 214.947197 77.50488
L 216.947861 78.619687
L 218.948524 79.771042
L 220.949188 80.961448
L 222.949851 82.193577
L 224.950515 83.470284
L 226.951178 84.79462
L 228.951842 86.169845
L 230.952505 87.599442
L 232.953169 89.087132
L 234.953832 90.636891
L 236.954496 92.252967
L 238.955159 93.939898
L 240.955822 95.702534
L 242.956486 97.546056
L 244.957149 99.476
L 246.957813 101.49828
L 248.958476 103.619217
L 250.95914 105.845561
L 252.959803 108.184528
L 254.960467 110.643825
L 256.96113 113.231686
L 258.961794 115.956913
L 260.962457 118.828904
L 262.963121 121.857706
L 264.963784 125.054049
" clip-path="url(#p58ad08746f)" style="fill: none; stroke-dasharray: 7.4,3.2; stroke-dashoffset: 0; stroke: #191970; stroke-opacity: 0.95; stroke-width: 2"/>
   </g>
   <g id="line2d_61">
    <path d="M 66.8981 26.629196
L 68.898764 27.217403
L 70.899427 27.805878
L 72.900091 28.394641
L 74.900754 28.983711
L 76.901418 29.573109
L 78.902081 30.162857
L 80.902745 30.752979
L 82.903408 31.343502
L 84.904071 31.934452
L 86.904735 32.525859
L 88.905398 33.117754
L 90.906062 33.71017
L 92.906725 34.303143
L 94.907389 34.896711
L 96.908052 35.490915
L 98.908716 36.085798
L 100.909379 36.681407
L 102.910043 37.277792
L 104.910706 37.875005
L 106.91137 38.473104
L 108.912033 39.072148
L 110.912697 39.672203
L 112.91336 40.273338
L 114.914024 40.875627
L 116.914687 41.479148
L 118.915351 42.083987
L 120.916014 42.690232
L 122.916677 43.297981
L 124.917341 43.907337
L 126.918004 44.518409
L 128.918668 45.131314
L 130.919331 45.746179
L 132.919995 46.363137
L 134.920658 46.982332
L 136.921322 47.603917
L 138.921985 48.228055
L 140.922649 48.85492
L 142.923312 49.484701
L 144.923976 50.117596
L 146.924639 50.753818
L 148.925303 51.393596
L 150.925966 52.037171
L 152.92663 52.684805
L 154.927293 53.336775
L 156.927957 53.993378
L 158.92862 54.654931
L 160.929284 55.321773
L 162.929947 55.994265
L 164.93061 56.672795
L 166.931274 57.357775
L 168.931937 58.049647
L 170.932601 58.748883
L 172.933264 59.455987
L 174.933928 60.171497
L 176.934591 60.895989
L 178.935255 61.630076
L 180.935918 62.374417
L 182.936582 63.129712
L 184.937245 63.896712
L 186.937909 64.676217
L 188.938572 65.469083
L 190.939236 66.276225
L 192.939899 67.09862
L 194.940563 67.937312
L 196.941226 68.793415
L 198.94189 69.668122
L 200.942553 70.562707
L 202.943216 71.478528
L 204.94388 72.41704
L 206.944543 73.379796
L 208.945207 74.368455
L 210.94587 75.38479
L 212.946534 76.430694
L 214.947197 77.508192
L 216.947861 78.619446
L 218.948524 79.766766
L 220.949188 80.95262
L 222.949851 82.179646
L 224.950515 83.450661
L 226.951178 84.768677
L 228.951842 86.136909
L 230.952505 87.558795
L 232.953169 89.038007
L 234.953832 90.578467
L 236.954496 92.184369
L 238.955159 93.86019
L 240.955822 95.610716
L 242.956486 97.441059
L 244.957149 99.356683
L 246.957813 101.363424
L 248.958476 103.467517
L 250.95914 105.675627
L 252.959803 107.99487
L 254.960467 110.432855
L 256.96113 112.997706
L 258.961794 115.698107
L 260.962457 118.543335
L 262.963121 121.543302
L 264.963784 124.708597
" clip-path="url(#p58ad08746f)" style="fill: none; stroke: #c71585; stroke-width: 1.5; stroke-linecap: square"/>
   </g>
   <g id="patch_3">
    <path d="M 55.894451 247.381683
L 55.894451 25.10218
" style="fill: none; stroke: #000000; stroke-width: 0.8; stroke-linejoin: miter; stroke-linecap: square"/>
   </g>
   <g id="patch_4">
    <path d="M 275.967433 247.381683
L 275.967433 25.10218
" style="fill: none; stroke: #000000; stroke-width: 0.8; stroke-linejoin: miter; stroke-linecap: square"/>
   </g>
   <g id="patch_5">
    <path d="M 55.894451 247.381683
L 275.967433 247.381683
" style="fill: none; stroke: #000000; stroke-width: 0.8; stroke-linejoin: miter; stroke-linecap: square"/>
   </g>
   <g id="patch_6">
    <path d="M 55.894451 25.10218
L 275.967433 25.10218
" style="fill: none; stroke: #000000; stroke-width: 0.8; stroke-linejoin: miter; stroke-linecap: square"/>
   </g>
   <g id="text_11">
    <!-- sys = -10% -->
    <g transform="translate(141.966199 19.10218) scale(0.12 -0.12)">
     <defs>
      <path id="CMR17-3d" d="M 4115 2048
C 4211 2048 4307 2048 4307 2156
C 4307 2272 4198 2272 4090 2272
L 512 2272
C 403 2272 294 2272 294 2156
C 294 2048 390 2048 486 2048
L 4115 2048
z
M 4090 927
C 4198 927 4307 927 4307 1043
C 4307 1152 4211 1152 4115 1152
L 486 1152
C 390 1152 294 1152 294 1043
C 294 927 403 927 512 927
L 4090 927
z
" transform="scale(0.015625)"/>
      <path id="CMR17-2d" d="M 1632 1254
L 1632 1536
L 26 1536
L 26 1254
L 1632 1254
z
" transform="scale(0.015625)"/>
     </defs>
     <use xlink:href="#CMR17-73" transform="scale(0.996264)"/>
     <use xlink:href="#CMR17-79" transform="translate(35.801338 0) scale(0.996264)"/>
     <use xlink:href="#CMR17-73" transform="translate(84.094253 0) scale(0.996264)"/>
     <use xlink:href="#CMR17-3d" transform="translate(149.971557 0) scale(0.996264)"/>
     <use xlink:href="#CMR17-2d" transform="translate(251.762312 0) scale(0.996264)"/>
     <use xlink:href="#CMR17-31" transform="translate(281.838279 0) scale(0.996264)"/>
     <use xlink:href="#CMR17-30" transform="translate(327.528756 0) scale(0.996264)"/>
    </g>
   </g>
   <g id="legend_1">
    <g id="patch_7">
     <path d="M 62.894451 242.381683
L 195.738682 242.381683
Q 197.738682 242.381683 197.738682 240.381683
L 197.738682 185.63297
Q 197.738682 183.63297 195.738682 183.63297
L 62.894451 183.63297
Q 60.894451 183.63297 60.894451 185.63297
L 60.894451 240.381683
Q 60.894451 242.381683 62.894451 242.381683
z
" style="fill: #ffffff; opacity: 0.8; stroke: #cccccc; stroke-linejoin: miter"/>
    </g>
    <g id="line2d_62">
     <path d="M 64.894451 191.13297
L 74.894451 191.13297
L 84.894451 191.13297
" style="fill: none; stroke: #000000; stroke-linecap: square"/>
    </g>
    <g id="text_12">
     <!-- Input -->
     <g transform="translate(92.894451 194.63297) scale(0.1 -0.1)">
      <defs>
       <path id="CMR17-49" d="M 1261 3898
C 1261 4185 1338 4185 1798 4185
L 1798 4352
C 1594 4339 1267 4339 1050 4339
C 832 4339 506 4339 301 4352
L 301 4185
C 762 4185 838 4185 838 3898
L 838 453
C 838 166 762 166 301 166
L 301 0
C 506 12 832 12 1050 12
C 1267 12 1594 12 1798 0
L 1798 166
C 1338 166 1261 166 1261 453
L 1261 3898
z
" transform="scale(0.015625)"/>
       <path id="CMR17-70" d="M 1408 -1114
C 998 -1114 973 -1088 973 -834
L 973 380
C 1158 109 1427 -64 1766 -64
C 2406 -64 3053 503 3053 1382
C 3053 2196 2496 2816 1837 2816
C 1453 2816 1139 2603 960 2345
L 960 2816
L 198 2745
L 198 2577
C 576 2577 634 2539 634 2228
L 634 -834
C 634 -1081 608 -1114 198 -1114
L 198 -1280
C 352 -1268 634 -1268 800 -1268
C 966 -1268 1254 -1268 1408 -1280
L 1408 -1114
z
M 973 2015
C 973 2106 973 2241 1222 2481
C 1254 2506 1472 2700 1792 2700
C 2259 2700 2643 2112 2643 1376
C 2643 639 2234 38 1728 38
C 1498 38 1248 148 1056 451
C 973 594 973 632 973 736
L 973 2015
z
" transform="scale(0.015625)"/>
       <path id="CMR17-75" d="M 1882 2745
L 1882 2579
C 2259 2579 2317 2540 2317 2229
L 2317 1053
C 2317 510 2029 38 1555 38
C 1030 38 986 355 986 691
L 986 2816
L 211 2745
L 211 2579
C 467 2579 640 2579 646 2320
L 646 1079
C 646 646 646 368 813 187
C 896 103 1056 -64 1517 -64
C 2061 -64 2272 400 2323 536
L 2330 536
L 2330 -64
L 3091 -13
L 3091 154
C 2714 154 2656 193 2656 503
L 2656 2816
L 1882 2745
z
" transform="scale(0.015625)"/>
       <path id="CMR17-74" d="M 966 2585
L 1862 2585
L 1862 2752
L 966 2752
L 966 3968
L 851 3968
C 838 3292 614 2700 70 2687
L 70 2585
L 627 2585
L 627 778
C 627 655 627 -64 1370 -64
C 1747 -64 1965 308 1965 784
L 1965 1151
L 1850 1151
L 1850 790
C 1850 347 1677 51 1408 51
C 1222 51 966 179 966 765
L 966 2585
z
" transform="scale(0.015625)"/>
      </defs>
      <use xlink:href="#CMR17-49" transform="scale(0.996264)"/>
      <use xlink:href="#CMR17-6e" transform="translate(32.638409 0) scale(0.996264)"/>
      <use xlink:href="#CMR17-70" transform="translate(83.533779 0) scale(0.996264)"/>
      <use xlink:href="#CMR17-75" transform="translate(134.429149 0) scale(0.996264)"/>
      <use xlink:href="#CMR17-74" transform="translate(185.324519 0) scale(0.996264)"/>
     </g>
    </g>
    <g id="line2d_63">
     <path d="M 64.894451 205.070148
L 74.894451 205.070148
L 84.894451 205.070148
" style="fill: none; stroke-dasharray: 7.4,3.2; stroke-dashoffset: 0; stroke: #191970; stroke-opacity: 0.95; stroke-width: 2"/>
    </g>
    <g id="text_13">
     <!-- Best Fit with Nuisance -->
     <g transform="translate(92.894451 208.570148) scale(0.1 -0.1)">
      <defs>
       <path id="CMR17-42" d="M 333 4352
L 333 4185
C 774 4185 845 4185 845 3897
L 845 451
C 845 166 774 166 333 166
L 333 0
L 2534 0
C 3354 0 3885 578 3885 1155
C 3885 1726 3360 2214 2675 2259
C 3290 2380 3718 2790 3718 3276
C 3718 3808 3194 4352 2368 4352
L 333 4352
z
M 1248 2304
L 1248 3936
C 1248 4153 1261 4185 1517 4185
L 2336 4185
C 2970 4185 3251 3673 3251 3276
C 3251 2790 2861 2304 2170 2304
L 1248 2304
z
M 1517 166
C 1261 166 1248 198 1248 413
L 1248 2201
L 2432 2201
C 3091 2201 3411 1624 3411 1161
C 3411 698 3046 166 2349 166
L 1517 166
z
" transform="scale(0.015625)"/>
       <path id="CMR17-46" d="M 3482 4339
L 326 4339
L 326 4172
C 768 4172 838 4172 838 3883
L 838 450
C 838 166 768 166 326 166
L 326 0
C 512 12 870 12 1069 12
C 1331 12 1638 12 1901 0
L 1901 166
L 1760 166
C 1274 166 1261 229 1261 456
L 1261 2073
L 1837 2073
C 2432 2073 2490 1865 2490 1334
L 2605 1334
L 2605 2991
L 2490 2991
C 2490 2451 2432 2240 1837 2240
L 1261 2240
L 1261 3922
C 1261 4140 1274 4172 1530 4172
L 2355 4172
C 3322 4172 3430 3774 3520 2920
L 3635 2920
L 3482 4339
z
" transform="scale(0.015625)"/>
       <path id="CMR17-69" d="M 992 3961
C 992 4102 877 4224 730 4224
C 589 4224 467 4108 467 3961
C 467 3820 582 3699 730 3699
C 870 3699 992 3814 992 3961
z
M 243 2745
L 243 2579
C 602 2579 653 2540 653 2231
L 653 443
C 653 198 627 166 218 166
L 218 0
C 371 12 646 12 806 12
C 960 12 1222 12 1370 0
L 1370 166
C 992 166 979 205 979 436
L 979 2816
L 243 2745
z
" transform="scale(0.015625)"/>
       <path id="CMR17-77" d="M 3725 2186
C 3853 2566 4109 2579 4205 2585
L 4205 2752
C 4077 2745 3949 2739 3821 2739
C 3699 2739 3424 2739 3315 2752
L 3315 2585
C 3514 2572 3622 2456 3622 2296
C 3622 2251 3610 2193 3597 2148
L 2995 398
L 2342 2296
C 2330 2341 2310 2392 2310 2418
C 2310 2585 2528 2585 2630 2585
L 2630 2752
C 2483 2739 2214 2739 2061 2739
C 1901 2739 1734 2739 1587 2752
L 1587 2585
C 1939 2585 1939 2572 2074 2167
L 1485 443
L 851 2302
C 819 2386 819 2399 819 2418
C 819 2585 1037 2585 1139 2585
L 1139 2752
C 986 2739 717 2739 557 2739
C 416 2739 198 2739 64 2752
L 64 2585
C 346 2585 416 2566 486 2353
L 1274 38
C 1299 -45 1318 -64 1370 -64
C 1414 -64 1440 -52 1472 44
L 2131 1987
L 2797 44
C 2829 -52 2854 -64 2899 -64
C 2950 -64 2970 -45 2995 38
L 3725 2186
z
" transform="scale(0.015625)"/>
       <path id="CMR17-68" d="M 2656 1954
C 2656 2282 2592 2816 1837 2816
C 1312 2816 1056 2392 979 2179
L 973 2179
L 973 4416
L 211 4345
L 211 4179
C 589 4179 646 4141 646 3843
L 646 443
C 646 198 621 166 211 166
L 211 0
C 365 12 646 12 813 12
C 979 12 1267 12 1421 0
L 1421 166
C 1011 166 986 192 986 443
L 986 1678
C 986 2269 1344 2713 1792 2713
C 2266 2713 2317 2289 2317 1980
L 2317 443
C 2317 198 2291 166 1882 166
L 1882 0
C 2035 12 2317 12 2483 12
C 2650 12 2938 12 3091 0
L 3091 166
C 2682 166 2656 192 2656 443
L 2656 1954
z
" transform="scale(0.015625)"/>
       <path id="CMR17-4e" d="M 1312 4275
C 1267 4345 1261 4352 1139 4352
L 326 4352
L 326 4185
L 448 4185
C 704 4185 819 4153 838 4147
L 838 624
C 838 465 838 166 326 166
L 326 0
C 474 12 742 12 902 12
C 1062 12 1331 12 1478 0
L 1478 166
C 966 166 966 465 966 624
L 966 4057
C 1011 4019 1011 4007 1056 3943
L 3430 76
C 3475 0 3494 0 3526 0
C 3590 0 3590 19 3590 140
L 3590 3726
C 3590 3885 3590 4185 4102 4185
L 4102 4352
C 3955 4339 3686 4339 3526 4339
C 3366 4339 3098 4339 2950 4352
L 2950 4185
C 3462 4185 3462 3885 3462 3726
L 3462 777
L 1312 4275
z
" transform="scale(0.015625)"/>
       <path id="CMR17-61" d="M 2304 1656
C 2304 2048 2304 2275 2035 2534
C 1798 2751 1523 2816 1306 2816
C 800 2816 435 2408 435 1977
C 435 1740 627 1728 666 1728
C 749 1728 896 1779 896 1958
C 896 2118 774 2188 666 2188
C 640 2188 608 2182 589 2176
C 723 2594 1069 2713 1293 2713
C 1613 2713 1965 2421 1965 1875
L 1965 1632
C 1587 1619 1133 1568 774 1373
C 371 1147 256 822 256 576
C 256 77 832 -64 1171 -64
C 1523 -64 1850 135 1990 505
C 2003 219 2182 -39 2464 -39
C 2598 -39 2938 51 2938 563
L 2938 926
L 2822 926
L 2822 557
C 2822 161 2650 109 2566 109
C 2304 109 2304 446 2304 732
L 2304 1656
z
M 1965 887
C 1965 323 1568 38 1216 38
C 896 38 646 278 646 576
C 646 771 730 1114 1101 1322
C 1408 1497 1760 1523 1965 1536
L 1965 887
z
" transform="scale(0.015625)"/>
      </defs>
      <use xlink:href="#CMR17-42" transform="scale(0.996264)"/>
      <use xlink:href="#CMR17-65" transform="translate(65.188754 0) scale(0.996264)"/>
      <use xlink:href="#CMR17-73" transform="translate(105.674415 0) scale(0.996264)"/>
      <use xlink:href="#CMR17-74" transform="translate(141.475753 0) scale(0.996264)"/>
      <use xlink:href="#CMR17-46" transform="translate(206.832487 0) scale(0.996264)"/>
      <use xlink:href="#CMR17-69" transform="translate(266.816333 0) scale(0.996264)"/>
      <use xlink:href="#CMR17-74" transform="translate(291.687392 0) scale(0.996264)"/>
      <use xlink:href="#CMR17-77" transform="translate(357.044126 0) scale(0.996264)"/>
      <use xlink:href="#CMR17-69" transform="translate(423.554006 0) scale(0.996264)"/>
      <use xlink:href="#CMR17-74" transform="translate(448.425065 0) scale(0.996264)"/>
      <use xlink:href="#CMR17-68" transform="translate(483.705833 0) scale(0.996264)"/>
      <use xlink:href="#CMR17-4e" transform="translate(564.677169 0) scale(0.996264)"/>
      <use xlink:href="#CMR17-75" transform="translate(633.749599 0) scale(0.996264)"/>
      <use xlink:href="#CMR17-69" transform="translate(684.644968 0) scale(0.996264)"/>
      <use xlink:href="#CMR17-73" transform="translate(709.516027 0) scale(0.996264)"/>
      <use xlink:href="#CMR17-61" transform="translate(745.317365 0) scale(0.996264)"/>
      <use xlink:href="#CMR17-6e" transform="translate(791.007842 0) scale(0.996264)"/>
      <use xlink:href="#CMR17-63" transform="translate(841.903211 0) scale(0.996264)"/>
      <use xlink:href="#CMR17-65" transform="translate(882.388872 0) scale(0.996264)"/>
     </g>
    </g>
    <g id="patch_8">
     <path d="M 64.894451 222.507327
L 84.894451 222.507327
L 84.894451 215.507327
L 64.894451 215.507327
z
" style="fill: #6495ed; fill-opacity: 0.5"/>
    </g>
    <g id="text_14">
     <!-- 1$\,\sigma_{tot}$ -->
     <g transform="translate(92.894451 222.507327) scale(0.1 -0.1)">
      <defs>
       <path id="CMMI12-1b" d="M 3251 2406
C 3334 2406 3546 2406 3546 2611
C 3546 2752 3424 2752 3309 2752
L 1894 2752
C 934 2752 243 1685 243 932
C 243 389 595 -64 1171 -64
C 1926 -64 2752 746 2752 1704
C 2752 1953 2694 2195 2541 2406
L 3251 2406
z
M 1178 64
C 851 64 614 312 614 753
C 614 1136 845 2406 1786 2406
C 2061 2406 2368 2272 2368 1780
C 2368 1557 2266 1021 2042 651
C 1811 274 1466 64 1178 64
z
" transform="scale(0.015625)"/>
       <path id="CMMI12-74" d="M 1286 2566
L 1875 2566
C 1997 2566 2061 2566 2061 2681
C 2061 2752 2022 2752 1894 2752
L 1331 2752
L 1568 3664
C 1594 3752 1594 3764 1594 3808
C 1594 3910 1510 3968 1427 3968
C 1376 3968 1229 3948 1178 3746
L 928 2752
L 326 2752
C 198 2752 141 2752 141 2630
C 141 2566 186 2566 307 2566
L 877 2566
L 454 881
C 403 657 384 593 384 510
C 384 210 595 -64 954 -64
C 1600 -64 1946 868 1946 913
C 1946 951 1920 970 1882 970
C 1869 970 1843 970 1830 944
C 1824 938 1818 932 1773 830
C 1638 510 1344 64 973 64
C 781 64 768 223 768 364
C 768 370 768 491 787 568
L 1286 2566
z
" transform="scale(0.015625)"/>
       <path id="CMMI12-6f" d="M 2918 1755
C 2918 2362 2522 2816 1939 2816
C 1094 2816 262 1896 262 996
C 262 389 659 -64 1242 -64
C 2093 -64 2918 855 2918 1755
z
M 1248 64
C 928 64 691 319 691 766
C 691 1060 845 1711 1024 2030
C 1312 2522 1670 2687 1933 2687
C 2246 2687 2490 2432 2490 1985
C 2490 1730 2355 1047 2112 657
C 1850 230 1498 64 1248 64
z
" transform="scale(0.015625)"/>
      </defs>
      <use xlink:href="#CMR17-31" transform="scale(0.996264)"/>
      <use xlink:href="#CMMI12-1b" transform="translate(62.294882 0) scale(0.996264)"/>
      <use xlink:href="#CMMI12-74" transform="translate(117.740343 -14.943915) scale(0.697382)"/>
      <use xlink:href="#CMMI12-6f" transform="translate(142.398653 -14.943915) scale(0.697382)"/>
      <use xlink:href="#CMMI12-74" transform="translate(175.225214 -14.943915) scale(0.697382)"/>
     </g>
    </g>
    <g id="line2d_64">
     <path d="M 64.894451 232.944505
L 74.894451 232.944505
L 84.894451 232.944505
" style="fill: none; stroke: #c71585; stroke-width: 1.5; stroke-linecap: square"/>
    </g>
    <g id="text_15">
     <!-- Best Fit -->
     <g transform="translate(92.894451 236.444505) scale(0.1 -0.1)">
      <use xlink:href="#CMR17-42" transform="scale(0.996264)"/>
      <use xlink:href="#CMR17-65" transform="translate(65.188754 0) scale(0.996264)"/>
      <use xlink:href="#CMR17-73" transform="translate(105.674415 0) scale(0.996264)"/>
      <use xlink:href="#CMR17-74" transform="translate(141.475753 0) scale(0.996264)"/>
      <use xlink:href="#CMR17-46" transform="translate(206.832487 0) scale(0.996264)"/>
      <use xlink:href="#CMR17-69" transform="translate(266.816333 0) scale(0.996264)"/>
      <use xlink:href="#CMR17-74" transform="translate(291.687392 0) scale(0.996264)"/>
     </g>
    </g>
   </g>
  </g>
 </g>
 <defs>
  <clipPath id="p58ad08746f">
   <rect x="55.894451" y="25.10218" width="220.072982" height="222.279503"/>
  </clipPath>
 </defs>
</svg>
