<?xml version="1.0" encoding="utf-8" standalone="no"?>
<!DOCTYPE svg PUBLIC "-//W3C//DTD SVG 1.1//EN"
  "http://www.w3.org/Graphics/SVG/1.1/DTD/svg11.dtd">
<svg xmlns:xlink="http://www.w3.org/1999/xlink" width="288pt" height="288pt" viewBox="0 0 288 288" xmlns="http://www.w3.org/2000/svg" version="1.1">
 <metadata>
  <rdf:RDF xmlns:dc="http://purl.org/dc/elements/1.1/" xmlns:cc="http://creativecommons.org/ns#" xmlns:rdf="http://www.w3.org/1999/02/22-rdf-syntax-ns#">
   <cc:Work>
    <dc:type rdf:resource="http://purl.org/dc/dcmitype/StillImage"/>
    <dc:date>2023-08-15T13:20:34.628747</dc:date>
    <dc:format>image/svg+xml</dc:format>
    <dc:creator>
     <cc:Agent>
      <dc:title>Matplotlib v3.7.1, https://matplotlib.org/</dc:title>
     </cc:Agent>
    </dc:creator>
   </cc:Work>
  </rdf:RDF>
 </metadata>
 <defs>
  <style type="text/css">*{stroke-linejoin: round; stroke-linecap: butt}</style>
 </defs>
 <g id="figure_1">
  <g id="patch_1">
   <path d="M 0 288 
L 288 288 
L 288 0 
L 0 0 
z
" style="fill: #ffffff"/>
  </g>
  <g id="axes_1">
   <g id="patch_2">
    <path d="M 55.894451 247.381683 
L 275.967433 247.381683 
L 275.967433 25.10218 
L 55.894451 25.10218 
z
" style="fill: #ffffff"/>
   </g>
   <g id="PolyCollection_1">
    <path d="M 65.897768 14.86967 
L 65.897768 43.078607 
L 67.918641 42.991951 
L 69.939513 42.921362 
L 71.960385 42.866187 
L 73.981257 42.82582 
L 76.002129 42.799702 
L 78.023002 42.787315 
L 80.043874 42.78818 
L 82.064746 42.801858 
L 84.085618 42.827944 
L 86.10649 42.866066 
L 88.127363 42.915889 
L 90.148235 42.977108 
L 92.169107 43.049452 
L 94.189979 43.132684 
L 96.210851 43.2266 
L 98.231724 43.331036 
L 100.252596 43.445865 
L 102.273468 43.571008 
L 104.29434 43.706438 
L 106.315212 43.852187 
L 108.336085 44.008366 
L 110.356957 44.175181 
L 112.377829 44.352965 
L 114.398701 44.542218 
L 116.419573 44.743674 
L 118.440446 44.958398 
L 120.461318 45.187944 
L 122.48219 45.434595 
L 124.503062 45.701752 
L 126.523934 45.994557 
L 128.544807 46.320812 
L 130.565679 46.692155 
L 132.586551 47.124798 
L 134.607423 47.63778 
L 136.628295 48.246168 
L 138.649168 48.952012 
L 140.67004 49.742798 
L 142.690912 50.599482 
L 144.711784 51.504632 
L 146.732656 52.445394 
L 148.753529 53.41313 
L 150.774401 54.402222 
L 152.795273 55.409036 
L 154.816145 56.431219 
L 156.837017 57.467245 
L 158.85789 58.516135 
L 160.878762 59.577285 
L 162.899634 60.650351 
L 164.920506 61.735178 
L 166.941378 62.831753 
L 168.96225 63.940174 
L 170.983123 65.060629 
L 173.003995 66.193387 
L 175.024867 67.338785 
L 177.045739 68.497224 
L 179.066611 69.669174 
L 181.087484 70.855168 
L 183.108356 72.055809 
L 185.129228 73.271773 
L 187.1501 74.503821 
L 189.170972 75.752802 
L 191.191845 77.019671 
L 193.212717 78.305498 
L 195.233589 79.61149 
L 197.254461 80.939005 
L 199.275333 82.289583 
L 201.296206 83.664969 
L 203.317078 85.06715 
L 205.33795 86.498391 
L 207.358822 87.961284 
L 209.379694 89.458801 
L 211.400567 90.994355 
L 213.421439 92.57188 
L 215.442311 94.195912 
L 217.463183 95.871697 
L 219.484055 97.60531 
L 221.504928 99.403805 
L 223.5258 101.275383 
L 225.546672 103.229607 
L 227.567544 105.277654 
L 229.588416 107.432639 
L 231.609289 109.710013 
L 233.630161 112.128077 
L 235.651033 114.708661 
L 237.671905 117.478042 
L 239.692777 120.468212 
L 241.71365 123.718698 
L 243.734522 127.279271 
L 245.755394 131.214109 
L 247.776266 135.608525 
L 249.797138 140.580401 
L 251.818011 146.300958 
L 253.838883 153.035774 
L 255.859755 161.235602 
L 257.880627 171.773394 
L 259.901499 186.751074 
L 261.922372 214.242105 
L 263.943244 66573.743792 
L 265.964116 66573.743792 
L 265.964116 104.518194 
L 265.964116 104.518194 
L 263.943244 102.086087 
L 261.922372 99.776141 
L 259.901499 97.577446 
L 257.880627 95.480274 
L 255.859755 93.476029 
L 253.838883 91.55719 
L 251.818011 89.717236 
L 249.797138 87.950556 
L 247.776266 86.25236 
L 245.755394 84.618569 
L 243.734522 83.045722 
L 241.71365 81.530861 
L 239.692777 80.071442 
L 237.671905 78.665244 
L 235.651033 77.310291 
L 233.630161 76.004784 
L 231.609289 74.747053 
L 229.588416 73.535509 
L 227.567544 72.368618 
L 225.546672 71.244876 
L 223.5258 70.162798 
L 221.504928 69.120911 
L 219.484055 68.117748 
L 217.463183 67.151849 
L 215.442311 66.221766 
L 213.421439 65.326065 
L 211.400567 64.463332 
L 209.379694 63.632175 
L 207.358822 62.831231 
L 205.33795 62.059172 
L 203.317078 61.314703 
L 201.296206 60.59657 
L 199.275333 59.903562 
L 197.254461 59.234508 
L 195.233589 58.588285 
L 193.212717 57.963812 
L 191.191845 57.360056 
L 189.170972 56.776026 
L 187.1501 56.210776 
L 185.129228 55.663401 
L 183.108356 55.133037 
L 181.087484 54.618858 
L 179.066611 54.120072 
L 177.045739 53.635919 
L 175.024867 53.165669 
L 173.003995 52.708611 
L 170.983123 52.264053 
L 168.96225 51.831311 
L 166.941378 51.4097 
L 164.920506 50.998523 
L 162.899634 50.597047 
L 160.878762 50.204488 
L 158.85789 49.819969 
L 156.837017 49.442471 
L 154.816145 49.070763 
L 152.795273 48.703282 
L 150.774401 48.337957 
L 148.753529 47.971927 
L 146.732656 47.601088 
L 144.711784 47.219385 
L 142.690912 46.817776 
L 140.67004 46.383034 
L 138.649168 45.897384 
L 136.628295 45.341467 
L 134.607423 44.702481 
L 132.586551 43.982213 
L 130.565679 43.195496 
L 128.544807 42.361155 
L 126.523934 41.495214 
L 124.503062 40.609146 
L 122.48219 39.710609 
L 120.461318 38.804623 
L 118.440446 37.89449 
L 116.419573 36.982415 
L 114.398701 36.069892 
L 112.377829 35.157949 
L 110.356957 34.247302 
L 108.336085 33.338456 
L 106.315212 32.431766 
L 104.29434 31.527483 
L 102.273468 30.625781 
L 100.252596 29.726781 
L 98.231724 28.830561 
L 96.210851 27.937171 
L 94.189979 27.046638 
L 92.169107 26.158969 
L 90.148235 25.274161 
L 88.127363 24.3922 
L 86.10649 23.513065 
L 84.085618 22.636728 
L 82.064746 21.763158 
L 80.043874 20.89232 
L 78.023002 20.024176 
L 76.002129 19.158688 
L 73.981257 18.295817 
L 71.960385 17.43552 
L 69.939513 16.577758 
L 67.918641 15.722488 
L 65.897768 14.86967 
z
" clip-path="url(#p4f9629f040)" style="fill: #ff0000; fill-opacity: 0.3; stroke: #ff0000; stroke-opacity: 0.3"/>
   </g>
   <g id="PolyCollection_2">
    <path d="M 66.8981 15.291511 
L 66.8981 43.033661 
L 68.898764 42.955751 
L 70.899427 42.89327 
L 72.900091 42.84561 
L 74.900754 42.812202 
L 76.901418 42.792524 
L 78.902081 42.786089 
L 80.902745 42.792452 
L 82.903408 42.8112 
L 84.904071 42.841953 
L 86.904735 42.884366 
L 88.905398 42.938125 
L 90.906062 43.002947 
L 92.906725 43.078581 
L 94.907389 43.16481 
L 96.908052 43.261449 
L 98.908716 43.368351 
L 100.909379 43.485408 
L 102.910043 43.612559 
L 104.910706 43.749794 
L 106.91137 43.897168 
L 108.912033 44.054813 
L 110.912697 44.222961 
L 112.91336 44.401975 
L 114.914024 44.592395 
L 116.914687 44.795004 
L 118.915351 45.010939 
L 120.916014 45.241849 
L 122.916677 45.490159 
L 124.917341 45.759478 
L 126.918004 46.055249 
L 128.918668 46.385691 
L 130.919331 46.762918 
L 132.919995 47.203403 
L 134.920658 47.725592 
L 136.921322 48.342634 
L 138.921985 49.054208 
L 140.922649 49.846675 
L 142.923312 50.701394 
L 144.923976 51.601918 
L 146.924639 52.536276 
L 148.925303 53.496434 
L 150.925966 54.477154 
L 152.92663 55.475031 
L 154.927293 56.487852 
L 156.927957 57.514174 
L 158.92862 58.553071 
L 160.929284 59.603968 
L 162.929947 60.666537 
L 164.93061 61.740632 
L 166.931274 62.826241 
L 168.931937 63.923459 
L 170.932601 65.032469 
L 172.933264 66.153529 
L 174.933928 67.286965 
L 176.934591 68.433164 
L 178.935255 69.592577 
L 180.935918 70.765719 
L 182.936582 71.953168 
L 184.937245 73.155578 
L 186.937909 74.373675 
L 188.938572 75.608278 
L 190.939236 76.860299 
L 192.939899 78.130762 
L 194.940563 79.420821 
L 196.941226 80.731771 
L 198.94189 82.065078 
L 200.942553 83.422402 
L 202.943216 84.805627 
L 204.94388 86.2169 
L 206.944543 87.658673 
L 208.945207 89.133749 
L 210.94587 90.645345 
L 212.946534 92.19716 
L 214.947197 93.793452 
L 216.947861 95.439135 
L 218.948524 97.139893 
L 220.949188 98.902304 
L 222.949851 100.734008 
L 224.950515 102.64389 
L 226.951178 104.642312 
L 228.951842 106.741397 
L 230.952505 108.955386 
L 232.953169 111.301086 
L 234.953832 113.798464 
L 236.954496 116.471428 
L 238.955159 119.348905 
L 240.955822 122.466363 
L 242.956486 125.86803 
L 244.957149 129.610249 
L 246.957813 133.766777 
L 248.958476 138.437549 
L 250.95914 143.764076 
L 252.959803 149.958531 
L 254.960467 157.364415 
L 256.96113 166.601434 
L 258.961794 178.991007 
L 260.962457 198.358717 
L 262.963121 253.711386 
L 264.963784 66573.743792 
L 264.963784 103.298301 
L 264.963784 103.298301 
L 262.963121 100.951209 
L 260.962457 98.718513 
L 258.961794 96.590181 
L 256.96113 94.557297 
L 254.960467 92.612009 
L 252.959803 90.747466 
L 250.95914 88.95774 
L 248.958476 87.23774 
L 246.957813 85.583122 
L 244.957149 83.990187 
L 242.956486 82.455782 
L 240.955822 80.977207 
L 238.955159 79.552121 
L 236.954496 78.178465 
L 234.953832 76.854391 
L 232.953169 75.578203 
L 230.952505 74.34831 
L 228.951842 73.163192 
L 226.951178 72.021372 
L 224.950515 70.921397 
L 222.949851 69.86183 
L 220.949188 68.841243 
L 218.948524 67.858215 
L 216.947861 66.911333 
L 214.947197 65.999194 
L 212.946534 65.120412 
L 210.94587 64.273617 
L 208.945207 63.457468 
L 206.944543 62.670648 
L 204.94388 61.911875 
L 202.943216 61.1799 
L 200.942553 60.473514 
L 198.94189 59.791548 
L 196.941226 59.132876 
L 194.940563 58.496413 
L 192.939899 57.881118 
L 190.939236 57.285993 
L 188.938572 56.710084 
L 186.937909 56.152477 
L 184.937245 55.612298 
L 182.936582 55.088714 
L 180.935918 54.580924 
L 178.935255 54.088165 
L 176.934591 53.609701 
L 174.933928 53.144823 
L 172.933264 52.692844 
L 170.932601 52.253093 
L 168.931937 51.824906 
L 166.931274 51.407619 
L 164.93061 51.000554 
L 162.929947 50.603002 
L 160.929284 50.2142 
L 158.92862 49.833302 
L 156.927957 49.459324 
L 154.927293 49.091081 
L 152.92663 48.727077 
L 150.925966 48.365339 
L 148.925303 48.003158 
L 146.924639 47.636671 
L 144.923976 47.260212 
L 142.923312 46.865354 
L 140.922649 46.439758 
L 138.921985 45.966644 
L 136.921322 45.427058 
L 134.920658 44.80708 
L 132.919995 44.106132 
L 130.919331 43.337128 
L 128.918668 42.518305 
L 126.918004 41.66595 
L 124.917341 40.79201 
L 122.916677 39.904563 
L 120.916014 39.008928 
L 118.915351 38.108614 
L 116.914687 37.205963 
L 114.914024 36.302565 
L 112.91336 35.399512 
L 110.912697 34.497569 
L 108.912033 33.597271 
L 106.91137 32.698999 
L 104.910706 31.803023 
L 102.910043 30.909531 
L 100.909379 30.018654 
L 98.908716 29.130482 
L 96.908052 28.245069 
L 94.907389 27.362449 
L 92.906725 26.482636 
L 90.906062 25.605629 
L 88.905398 24.731419 
L 86.904735 23.859987 
L 84.904071 22.991309 
L 82.903408 22.125356 
L 80.902745 21.262094 
L 78.902081 20.40149 
L 76.901418 19.543505 
L 74.900754 18.688102 
L 72.900091 17.83524 
L 70.899427 16.984882 
L 68.898764 16.136985 
L 66.8981 15.291511 
z
" clip-path="url(#p4f9629f040)" style="fill: #6495ed; fill-opacity: 0.5"/>
   </g>
   <g id="matplotlib.axis_1">
    <g id="xtick_1">
     <g id="line2d_1">
      <defs>
       <path id="mc80a1fd98c" d="M 0 0 
L 0 3.5 
" style="stroke: #000000; stroke-width: 0.8"/>
      </defs>
      <g>
       <use xlink:href="#mc80a1fd98c" x="61.5485" y="247.381683" style="stroke: #000000; stroke-width: 0.8"/>
      </g>
     </g>
     <g id="text_1">
      <!-- $\mathdefault{10^{-1}}$ -->
      <g transform="translate(51.468213 261.300182) scale(0.1 -0.1)">
       <defs>
        <path id="CMR17-31" d="M 1702 4083 
C 1702 4217 1696 4224 1606 4224 
C 1357 3927 979 3833 621 3820 
C 602 3820 570 3820 563 3808 
C 557 3795 557 3782 557 3648 
C 755 3648 1088 3686 1344 3839 
L 1344 467 
C 1344 243 1331 166 781 166 
L 589 166 
L 589 0 
C 896 6 1216 12 1523 12 
C 1830 12 2150 6 2458 0 
L 2458 166 
L 2266 166 
C 1715 166 1702 236 1702 467 
L 1702 4083 
z
" transform="scale(0.015625)"/>
        <path id="CMR17-30" d="M 2688 2038 
C 2688 2430 2682 3099 2413 3613 
C 2176 4063 1798 4224 1466 4224 
C 1158 4224 768 4082 525 3620 
C 269 3137 243 2539 243 2038 
C 243 1671 250 1112 448 623 
C 723 -39 1216 -128 1466 -128 
C 1760 -128 2208 -7 2470 604 
C 2662 1048 2688 1568 2688 2038 
z
M 1466 -26 
C 1056 -26 813 328 723 816 
C 653 1196 653 1749 653 2109 
C 653 2604 653 3015 736 3407 
C 858 3954 1216 4121 1466 4121 
C 1728 4121 2067 3947 2189 3420 
C 2272 3054 2278 2623 2278 2109 
C 2278 1691 2278 1176 2202 797 
C 2067 96 1690 -26 1466 -26 
z
" transform="scale(0.015625)"/>
        <path id="CMSY10-0" d="M 4218 1472 
C 4326 1472 4442 1472 4442 1600 
C 4442 1728 4326 1728 4218 1728 
L 755 1728 
C 646 1728 531 1728 531 1600 
C 531 1472 646 1472 755 1472 
L 4218 1472 
z
" transform="scale(0.015625)"/>
       </defs>
       <use xlink:href="#CMR17-31" transform="scale(0.996264)"/>
       <use xlink:href="#CMR17-30" transform="translate(45.690477 0) scale(0.996264)"/>
       <use xlink:href="#CMSY10-0" transform="translate(91.380954 36.153639) scale(0.697382)"/>
       <use xlink:href="#CMR17-31" transform="translate(145.621947 36.153639) scale(0.697382)"/>
      </g>
     </g>
    </g>
    <g id="xtick_2">
     <g id="line2d_2">
      <g>
       <use xlink:href="#mc80a1fd98c" x="131.136795" y="247.381683" style="stroke: #000000; stroke-width: 0.8"/>
      </g>
     </g>
     <g id="text_2">
      <!-- $\mathdefault{10^{0}}$ -->
      <g transform="translate(124.169841 261.300182) scale(0.1 -0.1)">
       <use xlink:href="#CMR17-31" transform="scale(0.996264)"/>
       <use xlink:href="#CMR17-30" transform="translate(45.690477 0) scale(0.996264)"/>
       <use xlink:href="#CMR17-30" transform="translate(91.380954 36.153639) scale(0.697382)"/>
      </g>
     </g>
    </g>
    <g id="xtick_3">
     <g id="line2d_3">
      <g>
       <use xlink:href="#mc80a1fd98c" x="200.72509" y="247.381683" style="stroke: #000000; stroke-width: 0.8"/>
      </g>
     </g>
     <g id="text_3">
      <!-- $\mathdefault{10^{1}}$ -->
      <g transform="translate(193.758136 261.300182) scale(0.1 -0.1)">
       <use xlink:href="#CMR17-31" transform="scale(0.996264)"/>
       <use xlink:href="#CMR17-30" transform="translate(45.690477 0) scale(0.996264)"/>
       <use xlink:href="#CMR17-31" transform="translate(91.380954 36.153639) scale(0.697382)"/>
      </g>
     </g>
    </g>
    <g id="xtick_4">
     <g id="line2d_4">
      <g>
       <use xlink:href="#mc80a1fd98c" x="270.313384" y="247.381683" style="stroke: #000000; stroke-width: 0.8"/>
      </g>
     </g>
     <g id="text_4">
      <!-- $\mathdefault{10^{2}}$ -->
      <g transform="translate(263.34643 261.300182) scale(0.1 -0.1)">
       <defs>
        <path id="CMR17-32" d="M 2669 990 
L 2554 990 
C 2490 537 2438 460 2413 422 
C 2381 371 1920 371 1830 371 
L 602 371 
C 832 620 1280 1073 1824 1596 
C 2214 1966 2669 2400 2669 3033 
C 2669 3788 2067 4224 1395 4224 
C 691 4224 262 3603 262 3027 
C 262 2777 448 2745 525 2745 
C 589 2745 781 2783 781 3007 
C 781 3206 614 3264 525 3264 
C 486 3264 448 3257 422 3244 
C 544 3788 915 4057 1306 4057 
C 1862 4057 2227 3616 2227 3033 
C 2227 2477 1901 1998 1536 1583 
L 262 147 
L 262 0 
L 2515 0 
L 2669 990 
z
" transform="scale(0.015625)"/>
       </defs>
       <use xlink:href="#CMR17-31" transform="scale(0.996264)"/>
       <use xlink:href="#CMR17-30" transform="translate(45.690477 0) scale(0.996264)"/>
       <use xlink:href="#CMR17-32" transform="translate(91.380954 36.153639) scale(0.697382)"/>
      </g>
     </g>
    </g>
    <g id="xtick_5">
     <g id="line2d_5">
      <defs>
       <path id="m2cc99cec70" d="M 0 0 
L 0 2 
" style="stroke: #000000; stroke-width: 0.6"/>
      </defs>
      <g>
       <use xlink:href="#m2cc99cec70" x="58.364314" y="247.381683" style="stroke: #000000; stroke-width: 0.6"/>
      </g>
     </g>
    </g>
    <g id="xtick_6">
     <g id="line2d_6">
      <g>
       <use xlink:href="#m2cc99cec70" x="82.496664" y="247.381683" style="stroke: #000000; stroke-width: 0.6"/>
      </g>
     </g>
    </g>
    <g id="xtick_7">
     <g id="line2d_7">
      <g>
       <use xlink:href="#m2cc99cec70" x="94.750555" y="247.381683" style="stroke: #000000; stroke-width: 0.6"/>
      </g>
     </g>
    </g>
    <g id="xtick_8">
     <g id="line2d_8">
      <g>
       <use xlink:href="#m2cc99cec70" x="103.444828" y="247.381683" style="stroke: #000000; stroke-width: 0.6"/>
      </g>
     </g>
    </g>
    <g id="xtick_9">
     <g id="line2d_9">
      <g>
       <use xlink:href="#m2cc99cec70" x="110.188631" y="247.381683" style="stroke: #000000; stroke-width: 0.6"/>
      </g>
     </g>
    </g>
    <g id="xtick_10">
     <g id="line2d_10">
      <g>
       <use xlink:href="#m2cc99cec70" x="115.698719" y="247.381683" style="stroke: #000000; stroke-width: 0.6"/>
      </g>
     </g>
    </g>
    <g id="xtick_11">
     <g id="line2d_11">
      <g>
       <use xlink:href="#m2cc99cec70" x="120.357432" y="247.381683" style="stroke: #000000; stroke-width: 0.6"/>
      </g>
     </g>
    </g>
    <g id="xtick_12">
     <g id="line2d_12">
      <g>
       <use xlink:href="#m2cc99cec70" x="124.392992" y="247.381683" style="stroke: #000000; stroke-width: 0.6"/>
      </g>
     </g>
    </g>
    <g id="xtick_13">
     <g id="line2d_13">
      <g>
       <use xlink:href="#m2cc99cec70" x="127.952609" y="247.381683" style="stroke: #000000; stroke-width: 0.6"/>
      </g>
     </g>
    </g>
    <g id="xtick_14">
     <g id="line2d_14">
      <g>
       <use xlink:href="#m2cc99cec70" x="152.084959" y="247.381683" style="stroke: #000000; stroke-width: 0.6"/>
      </g>
     </g>
    </g>
    <g id="xtick_15">
     <g id="line2d_15">
      <g>
       <use xlink:href="#m2cc99cec70" x="164.338849" y="247.381683" style="stroke: #000000; stroke-width: 0.6"/>
      </g>
     </g>
    </g>
    <g id="xtick_16">
     <g id="line2d_16">
      <g>
       <use xlink:href="#m2cc99cec70" x="173.033123" y="247.381683" style="stroke: #000000; stroke-width: 0.6"/>
      </g>
     </g>
    </g>
    <g id="xtick_17">
     <g id="line2d_17">
      <g>
       <use xlink:href="#m2cc99cec70" x="179.776926" y="247.381683" style="stroke: #000000; stroke-width: 0.6"/>
      </g>
     </g>
    </g>
    <g id="xtick_18">
     <g id="line2d_18">
      <g>
       <use xlink:href="#m2cc99cec70" x="185.287013" y="247.381683" style="stroke: #000000; stroke-width: 0.6"/>
      </g>
     </g>
    </g>
    <g id="xtick_19">
     <g id="line2d_19">
      <g>
       <use xlink:href="#m2cc99cec70" x="189.945726" y="247.381683" style="stroke: #000000; stroke-width: 0.6"/>
      </g>
     </g>
    </g>
    <g id="xtick_20">
     <g id="line2d_20">
      <g>
       <use xlink:href="#m2cc99cec70" x="193.981287" y="247.381683" style="stroke: #000000; stroke-width: 0.6"/>
      </g>
     </g>
    </g>
    <g id="xtick_21">
     <g id="line2d_21">
      <g>
       <use xlink:href="#m2cc99cec70" x="197.540904" y="247.381683" style="stroke: #000000; stroke-width: 0.6"/>
      </g>
     </g>
    </g>
    <g id="xtick_22">
     <g id="line2d_22">
      <g>
       <use xlink:href="#m2cc99cec70" x="221.673254" y="247.381683" style="stroke: #000000; stroke-width: 0.6"/>
      </g>
     </g>
    </g>
    <g id="xtick_23">
     <g id="line2d_23">
      <g>
       <use xlink:href="#m2cc99cec70" x="233.927144" y="247.381683" style="stroke: #000000; stroke-width: 0.6"/>
      </g>
     </g>
    </g>
    <g id="xtick_24">
     <g id="line2d_24">
      <g>
       <use xlink:href="#m2cc99cec70" x="242.621418" y="247.381683" style="stroke: #000000; stroke-width: 0.6"/>
      </g>
     </g>
    </g>
    <g id="xtick_25">
     <g id="line2d_25">
      <g>
       <use xlink:href="#m2cc99cec70" x="249.36522" y="247.381683" style="stroke: #000000; stroke-width: 0.6"/>
      </g>
     </g>
    </g>
    <g id="xtick_26">
     <g id="line2d_26">
      <g>
       <use xlink:href="#m2cc99cec70" x="254.875308" y="247.381683" style="stroke: #000000; stroke-width: 0.6"/>
      </g>
     </g>
    </g>
    <g id="xtick_27">
     <g id="line2d_27">
      <g>
       <use xlink:href="#m2cc99cec70" x="259.534021" y="247.381683" style="stroke: #000000; stroke-width: 0.6"/>
      </g>
     </g>
    </g>
    <g id="xtick_28">
     <g id="line2d_28">
      <g>
       <use xlink:href="#m2cc99cec70" x="263.569582" y="247.381683" style="stroke: #000000; stroke-width: 0.6"/>
      </g>
     </g>
    </g>
    <g id="xtick_29">
     <g id="line2d_29">
      <g>
       <use xlink:href="#m2cc99cec70" x="267.129199" y="247.381683" style="stroke: #000000; stroke-width: 0.6"/>
      </g>
     </g>
    </g>
    <g id="text_5">
     <!-- Energy [TeV] -->
     <g transform="translate(136.928541 274.70934) scale(0.1 -0.1)">
      <defs>
       <path id="CMR17-45" d="M 3885 1614 
L 3770 1614 
C 3629 676 3546 166 2419 166 
L 1530 166 
C 1274 166 1261 198 1261 415 
L 1261 2176 
L 1862 2176 
C 2464 2176 2522 1959 2522 1429 
L 2637 1429 
L 2637 3086 
L 2522 3086 
C 2522 2558 2464 2342 1862 2342 
L 1261 2342 
L 1261 3924 
C 1261 4141 1274 4172 1530 4172 
L 2406 4172 
C 3398 4172 3514 3778 3603 2933 
L 3718 2933 
L 3565 4339 
L 326 4339 
L 326 4172 
C 768 4172 838 4172 838 3886 
L 838 453 
C 838 166 768 166 326 166 
L 326 0 
L 3654 0 
L 3885 1614 
z
" transform="scale(0.015625)"/>
       <path id="CMR17-6e" d="M 2656 1954 
C 2656 2282 2592 2816 1837 2816 
C 1331 2816 1069 2424 973 2166 
L 966 2166 
L 966 2816 
L 211 2745 
L 211 2578 
C 589 2578 646 2540 646 2231 
L 646 443 
C 646 198 621 166 211 166 
L 211 0 
C 365 12 646 12 813 12 
C 979 12 1267 12 1421 0 
L 1421 166 
C 1011 166 986 192 986 443 
L 986 1678 
C 986 2269 1344 2713 1792 2713 
C 2266 2713 2317 2289 2317 1980 
L 2317 443 
C 2317 198 2291 166 1882 166 
L 1882 0 
C 2035 12 2317 12 2483 12 
C 2650 12 2938 12 3091 0 
L 3091 166 
C 2682 166 2656 192 2656 443 
L 2656 1954 
z
" transform="scale(0.015625)"/>
       <path id="CMR17-65" d="M 2438 1503 
C 2464 1529 2464 1542 2464 1606 
C 2464 2251 2118 2816 1389 2816 
C 710 2816 173 2175 173 1394 
C 173 554 781 -64 1459 -64 
C 2176 -64 2458 619 2458 755 
C 2458 800 2419 800 2406 800 
C 2362 800 2355 787 2330 709 
C 2189 270 1837 51 1504 51 
C 1229 51 954 206 781 490 
C 582 819 582 1200 582 1503 
L 2438 1503 
z
M 589 1600 
C 634 2511 1126 2713 1382 2713 
C 1818 2713 2112 2308 2118 1600 
L 589 1600 
z
" transform="scale(0.015625)"/>
       <path id="CMR17-72" d="M 960 1517 
C 960 2134 1222 2713 1702 2713 
C 1747 2713 1792 2707 1837 2687 
C 1837 2687 1696 2642 1696 2475 
C 1696 2321 1818 2257 1914 2257 
C 1990 2257 2131 2302 2131 2482 
C 2131 2687 1926 2816 1709 2816 
C 1222 2816 1011 2340 947 2115 
L 941 2115 
L 941 2816 
L 198 2745 
L 198 2578 
C 576 2578 634 2540 634 2231 
L 634 443 
C 634 198 608 166 198 166 
L 198 0 
C 352 12 646 12 813 12 
C 998 12 1325 12 1498 0 
L 1498 166 
C 1037 166 960 166 960 455 
L 960 1517 
z
" transform="scale(0.015625)"/>
       <path id="CMR17-67" d="M 710 1165 
C 832 1068 1043 960 1299 960 
C 1805 960 2240 1359 2240 1895 
C 2240 2063 2189 2321 1997 2521 
C 2176 2713 2438 2777 2586 2777 
C 2611 2777 2650 2777 2682 2758 
C 2656 2751 2598 2726 2598 2623 
C 2598 2540 2656 2483 2739 2483 
C 2835 2483 2886 2547 2886 2630 
C 2886 2751 2790 2880 2586 2880 
C 2330 2880 2106 2758 1926 2591 
C 1734 2764 1504 2828 1299 2828 
C 794 2828 358 2431 358 1895 
C 358 1527 570 1294 634 1230 
C 442 1004 442 742 442 710 
C 442 544 506 300 723 166 
C 390 82 128 -184 128 -517 
C 128 -996 736 -1344 1466 -1344 
C 2170 -1344 2803 -1009 2803 -510 
C 2803 384 1856 384 1363 384 
C 1216 384 954 384 922 390 
C 723 422 589 601 589 825 
C 589 883 589 1024 710 1165 
z
M 1299 1068 
C 736 1068 736 1766 736 1895 
C 736 2024 736 2719 1299 2719 
C 1862 2719 1862 2024 1862 1895 
C 1862 1766 1862 1068 1299 1068 
z
M 1466 -1236 
C 826 -1236 384 -883 384 -517 
C 384 -311 493 -118 634 -11 
C 794 102 858 102 1293 102 
C 1818 102 2547 102 2547 -517 
C 2547 -883 2106 -1236 1466 -1236 
z
" transform="scale(0.015625)"/>
       <path id="CMR17-79" d="M 2496 2183 
C 2656 2579 2944 2585 3034 2585 
L 3034 2752 
C 2912 2745 2752 2739 2630 2739 
C 2496 2739 2285 2739 2157 2752 
L 2157 2585 
C 2400 2566 2406 2384 2406 2332 
C 2406 2268 2394 2235 2362 2158 
L 1664 409 
L 902 2300 
C 870 2378 870 2423 870 2430 
C 870 2572 1018 2585 1171 2585 
L 1171 2752 
C 1018 2739 742 2739 582 2739 
C 410 2739 205 2739 64 2752 
L 64 2585 
C 410 2585 448 2553 531 2345 
L 1485 -31 
C 1197 -795 1030 -1242 627 -1242 
C 557 -1242 397 -1223 282 -1106 
C 429 -1093 493 -1002 493 -892 
C 493 -782 416 -685 288 -685 
C 147 -685 77 -782 77 -899 
C 77 -1158 339 -1344 627 -1344 
C 998 -1344 1229 -983 1357 -659 
L 2496 2183 
z
" transform="scale(0.015625)"/>
       <path id="CMR17-5b" d="M 1504 -1600 
L 1504 -1376 
L 902 -1376 
L 902 4575 
L 1504 4575 
L 1504 4800 
L 678 4800 
L 678 -1600 
L 1504 -1600 
z
" transform="scale(0.015625)"/>
       <path id="CMR17-54" d="M 3981 4332 
L 288 4332 
L 179 2924 
L 294 2924 
C 378 3981 467 4166 1453 4166 
C 1568 4166 1754 4166 1805 4159 
C 1926 4140 1926 4064 1926 3917 
L 1926 465 
C 1926 236 1907 166 1376 166 
L 1197 166 
L 1197 0 
C 1504 6 1824 12 2138 12 
C 2451 12 2771 6 3078 0 
L 3078 166 
L 2899 166 
C 2368 166 2349 236 2349 465 
L 2349 3917 
C 2349 4057 2349 4134 2464 4159 
C 2515 4166 2701 4166 2816 4166 
C 3795 4166 3891 3981 3974 2924 
L 4090 2924 
L 3981 4332 
z
" transform="scale(0.015625)"/>
       <path id="CMR17-56" d="M 3776 3762 
C 3834 3903 3936 4179 4365 4185 
L 4365 4352 
C 4218 4339 4051 4339 3891 4339 
C 3738 4339 3475 4339 3328 4352 
L 3328 4185 
C 3648 4166 3661 3942 3661 3903 
C 3661 3833 3642 3788 3622 3737 
L 2362 448 
L 1043 3903 
C 1024 3948 1011 3980 1011 4012 
C 1011 4185 1267 4185 1402 4185 
L 1402 4352 
C 1197 4339 896 4339 685 4339 
C 518 4339 218 4339 64 4352 
L 64 4185 
C 435 4185 506 4160 582 3955 
L 2106 -26 
C 2138 -116 2144 -128 2214 -128 
C 2285 -128 2291 -116 2323 -26 
L 3776 3762 
z
" transform="scale(0.015625)"/>
       <path id="CMR17-5d" d="M 915 4800 
L 90 4800 
L 90 4575 
L 691 4575 
L 691 -1376 
L 90 -1376 
L 90 -1600 
L 915 -1600 
L 915 4800 
z
" transform="scale(0.015625)"/>
      </defs>
      <use xlink:href="#CMR17-45" transform="scale(0.996264)"/>
      <use xlink:href="#CMR17-6e" transform="translate(62.586301 0) scale(0.996264)"/>
      <use xlink:href="#CMR17-65" transform="translate(113.48167 0) scale(0.996264)"/>
      <use xlink:href="#CMR17-72" transform="translate(153.967331 0) scale(0.996264)"/>
      <use xlink:href="#CMR17-67" transform="translate(189.248099 0) scale(0.996264)"/>
      <use xlink:href="#CMR17-79" transform="translate(234.938576 0) scale(0.996264)"/>
      <use xlink:href="#CMR17-5b" transform="translate(313.307458 0) scale(0.996264)"/>
      <use xlink:href="#CMR17-54" transform="translate(338.178516 0) scale(0.996264)"/>
      <use xlink:href="#CMR17-65" transform="translate(396.881142 0) scale(0.996264)"/>
      <use xlink:href="#CMR17-56" transform="translate(437.366802 0) scale(0.996264)"/>
      <use xlink:href="#CMR17-5d" transform="translate(506.439232 0) scale(0.996264)"/>
     </g>
    </g>
   </g>
   <g id="matplotlib.axis_2">
    <g id="ytick_1">
     <g id="line2d_30">
      <defs>
       <path id="m75a2a75514" d="M 0 0 
L -3.5 0 
" style="stroke: #000000; stroke-width: 0.8"/>
      </defs>
      <g>
       <use xlink:href="#m75a2a75514" x="55.894451" y="247.381683" style="stroke: #000000; stroke-width: 0.8"/>
      </g>
     </g>
     <g id="text_6">
      <!-- $\mathdefault{10^{-15}}$ -->
      <g transform="translate(24.76264 250.840932) scale(0.1 -0.1)">
       <defs>
        <path id="CMR17-35" d="M 730 3750 
C 794 3724 1056 3641 1325 3641 
C 1920 3641 2246 3961 2432 4140 
C 2432 4191 2432 4224 2394 4224 
C 2387 4224 2374 4224 2323 4198 
C 2099 4102 1837 4032 1517 4032 
C 1325 4032 1037 4055 723 4191 
C 653 4224 640 4224 634 4224 
C 602 4224 595 4217 595 4090 
L 595 2231 
C 595 2113 595 2080 659 2080 
C 691 2080 704 2093 736 2139 
C 941 2435 1222 2560 1542 2560 
C 1766 2560 2246 2415 2246 1293 
C 2246 1087 2246 716 2054 422 
C 1894 159 1645 25 1370 25 
C 947 25 518 319 403 812 
C 429 806 480 793 506 793 
C 589 793 749 838 749 1036 
C 749 1209 627 1280 506 1280 
C 358 1280 262 1190 262 1011 
C 262 454 704 -128 1382 -128 
C 2042 -128 2669 441 2669 1267 
C 2669 2054 2170 2662 1549 2662 
C 1222 2662 947 2540 730 2304 
L 730 3750 
z
" transform="scale(0.015625)"/>
       </defs>
       <use xlink:href="#CMR17-31" transform="scale(0.996264)"/>
       <use xlink:href="#CMR17-30" transform="translate(45.690477 0) scale(0.996264)"/>
       <use xlink:href="#CMSY10-0" transform="translate(91.380954 36.153639) scale(0.697382)"/>
       <use xlink:href="#CMR17-31" transform="translate(145.621947 36.153639) scale(0.697382)"/>
       <use xlink:href="#CMR17-35" transform="translate(177.605129 36.153639) scale(0.697382)"/>
      </g>
     </g>
    </g>
    <g id="ytick_2">
     <g id="line2d_31">
      <g>
       <use xlink:href="#m75a2a75514" x="55.894451" y="180.045275" style="stroke: #000000; stroke-width: 0.8"/>
      </g>
     </g>
     <g id="text_7">
      <!-- $\mathdefault{10^{-14}}$ -->
      <g transform="translate(24.76264 183.504524) scale(0.1 -0.1)">
       <defs>
        <path id="CMR17-34" d="M 2150 4147 
C 2150 4281 2144 4288 2029 4288 
L 128 1254 
L 128 1088 
L 1779 1088 
L 1779 460 
C 1779 230 1766 166 1318 166 
L 1197 166 
L 1197 0 
C 1402 12 1747 12 1965 12 
C 2182 12 2528 12 2733 0 
L 2733 166 
L 2611 166 
C 2163 166 2150 230 2150 460 
L 2150 1088 
L 2803 1088 
L 2803 1254 
L 2150 1254 
L 2150 4147 
z
M 1798 3723 
L 1798 1254 
L 256 1254 
L 1798 3723 
z
" transform="scale(0.015625)"/>
       </defs>
       <use xlink:href="#CMR17-31" transform="scale(0.996264)"/>
       <use xlink:href="#CMR17-30" transform="translate(45.690477 0) scale(0.996264)"/>
       <use xlink:href="#CMSY10-0" transform="translate(91.380954 36.153639) scale(0.697382)"/>
       <use xlink:href="#CMR17-31" transform="translate(145.621947 36.153639) scale(0.697382)"/>
       <use xlink:href="#CMR17-34" transform="translate(177.605129 36.153639) scale(0.697382)"/>
      </g>
     </g>
    </g>
    <g id="ytick_3">
     <g id="line2d_32">
      <g>
       <use xlink:href="#m75a2a75514" x="55.894451" y="112.708867" style="stroke: #000000; stroke-width: 0.8"/>
      </g>
     </g>
     <g id="text_8">
      <!-- $\mathdefault{10^{-13}}$ -->
      <g transform="translate(24.76264 116.168116) scale(0.1 -0.1)">
       <defs>
        <path id="CMR17-33" d="M 1414 2176 
C 1984 2176 2234 1673 2234 1094 
C 2234 322 1824 25 1453 25 
C 1114 25 563 193 390 691 
C 422 678 454 678 486 678 
C 640 678 755 780 755 947 
C 755 1132 614 1216 486 1216 
C 378 1216 211 1164 211 927 
C 211 335 787 -128 1466 -128 
C 2176 -128 2720 432 2720 1087 
C 2720 1718 2208 2176 1600 2246 
C 2086 2347 2554 2776 2554 3353 
C 2554 3856 2048 4224 1472 4224 
C 890 4224 378 3862 378 3347 
C 378 3123 544 3084 627 3084 
C 762 3084 877 3167 877 3334 
C 877 3500 762 3584 627 3584 
C 602 3584 570 3584 544 3571 
C 730 3999 1235 4076 1459 4076 
C 1683 4076 2106 3966 2106 3347 
C 2106 3167 2080 2851 1862 2574 
C 1670 2329 1453 2316 1242 2297 
C 1210 2297 1062 2284 1037 2284 
C 992 2278 966 2272 966 2227 
C 966 2182 973 2176 1101 2176 
L 1414 2176 
z
" transform="scale(0.015625)"/>
       </defs>
       <use xlink:href="#CMR17-31" transform="scale(0.996264)"/>
       <use xlink:href="#CMR17-30" transform="translate(45.690477 0) scale(0.996264)"/>
       <use xlink:href="#CMSY10-0" transform="translate(91.380954 36.153639) scale(0.697382)"/>
       <use xlink:href="#CMR17-31" transform="translate(145.621947 36.153639) scale(0.697382)"/>
       <use xlink:href="#CMR17-33" transform="translate(177.605129 36.153639) scale(0.697382)"/>
      </g>
     </g>
    </g>
    <g id="ytick_4">
     <g id="line2d_33">
      <g>
       <use xlink:href="#m75a2a75514" x="55.894451" y="45.372458" style="stroke: #000000; stroke-width: 0.8"/>
      </g>
     </g>
     <g id="text_9">
      <!-- $\mathdefault{10^{-12}}$ -->
      <g transform="translate(24.76264 48.831708) scale(0.1 -0.1)">
       <use xlink:href="#CMR17-31" transform="scale(0.996264)"/>
       <use xlink:href="#CMR17-30" transform="translate(45.690477 0) scale(0.996264)"/>
       <use xlink:href="#CMSY10-0" transform="translate(91.380954 36.153639) scale(0.697382)"/>
       <use xlink:href="#CMR17-31" transform="translate(145.621947 36.153639) scale(0.697382)"/>
       <use xlink:href="#CMR17-32" transform="translate(177.605129 36.153639) scale(0.697382)"/>
      </g>
     </g>
    </g>
    <g id="ytick_5">
     <g id="line2d_34">
      <defs>
       <path id="m990869fcd4" d="M 0 0 
L -2 0 
" style="stroke: #000000; stroke-width: 0.6"/>
      </defs>
      <g>
       <use xlink:href="#m990869fcd4" x="55.894451" y="227.111405" style="stroke: #000000; stroke-width: 0.6"/>
      </g>
     </g>
    </g>
    <g id="ytick_6">
     <g id="line2d_35">
      <g>
       <use xlink:href="#m990869fcd4" x="55.894451" y="215.254052" style="stroke: #000000; stroke-width: 0.6"/>
      </g>
     </g>
    </g>
    <g id="ytick_7">
     <g id="line2d_36">
      <g>
       <use xlink:href="#m990869fcd4" x="55.894451" y="206.841126" style="stroke: #000000; stroke-width: 0.6"/>
      </g>
     </g>
    </g>
    <g id="ytick_8">
     <g id="line2d_37">
      <g>
       <use xlink:href="#m990869fcd4" x="55.894451" y="200.315554" style="stroke: #000000; stroke-width: 0.6"/>
      </g>
     </g>
    </g>
    <g id="ytick_9">
     <g id="line2d_38">
      <g>
       <use xlink:href="#m990869fcd4" x="55.894451" y="194.983773" style="stroke: #000000; stroke-width: 0.6"/>
      </g>
     </g>
    </g>
    <g id="ytick_10">
     <g id="line2d_39">
      <g>
       <use xlink:href="#m990869fcd4" x="55.894451" y="190.475817" style="stroke: #000000; stroke-width: 0.6"/>
      </g>
     </g>
    </g>
    <g id="ytick_11">
     <g id="line2d_40">
      <g>
       <use xlink:href="#m990869fcd4" x="55.894451" y="186.570847" style="stroke: #000000; stroke-width: 0.6"/>
      </g>
     </g>
    </g>
    <g id="ytick_12">
     <g id="line2d_41">
      <g>
       <use xlink:href="#m990869fcd4" x="55.894451" y="183.12642" style="stroke: #000000; stroke-width: 0.6"/>
      </g>
     </g>
    </g>
    <g id="ytick_13">
     <g id="line2d_42">
      <g>
       <use xlink:href="#m990869fcd4" x="55.894451" y="159.774996" style="stroke: #000000; stroke-width: 0.6"/>
      </g>
     </g>
    </g>
    <g id="ytick_14">
     <g id="line2d_43">
      <g>
       <use xlink:href="#m990869fcd4" x="55.894451" y="147.917643" style="stroke: #000000; stroke-width: 0.6"/>
      </g>
     </g>
    </g>
    <g id="ytick_15">
     <g id="line2d_44">
      <g>
       <use xlink:href="#m990869fcd4" x="55.894451" y="139.504718" style="stroke: #000000; stroke-width: 0.6"/>
      </g>
     </g>
    </g>
    <g id="ytick_16">
     <g id="line2d_45">
      <g>
       <use xlink:href="#m990869fcd4" x="55.894451" y="132.979145" style="stroke: #000000; stroke-width: 0.6"/>
      </g>
     </g>
    </g>
    <g id="ytick_17">
     <g id="line2d_46">
      <g>
       <use xlink:href="#m990869fcd4" x="55.894451" y="127.647365" style="stroke: #000000; stroke-width: 0.6"/>
      </g>
     </g>
    </g>
    <g id="ytick_18">
     <g id="line2d_47">
      <g>
       <use xlink:href="#m990869fcd4" x="55.894451" y="123.139408" style="stroke: #000000; stroke-width: 0.6"/>
      </g>
     </g>
    </g>
    <g id="ytick_19">
     <g id="line2d_48">
      <g>
       <use xlink:href="#m990869fcd4" x="55.894451" y="119.234439" style="stroke: #000000; stroke-width: 0.6"/>
      </g>
     </g>
    </g>
    <g id="ytick_20">
     <g id="line2d_49">
      <g>
       <use xlink:href="#m990869fcd4" x="55.894451" y="115.790012" style="stroke: #000000; stroke-width: 0.6"/>
      </g>
     </g>
    </g>
    <g id="ytick_21">
     <g id="line2d_50">
      <g>
       <use xlink:href="#m990869fcd4" x="55.894451" y="92.438588" style="stroke: #000000; stroke-width: 0.6"/>
      </g>
     </g>
    </g>
    <g id="ytick_22">
     <g id="line2d_51">
      <g>
       <use xlink:href="#m990869fcd4" x="55.894451" y="80.581235" style="stroke: #000000; stroke-width: 0.6"/>
      </g>
     </g>
    </g>
    <g id="ytick_23">
     <g id="line2d_52">
      <g>
       <use xlink:href="#m990869fcd4" x="55.894451" y="72.168309" style="stroke: #000000; stroke-width: 0.6"/>
      </g>
     </g>
    </g>
    <g id="ytick_24">
     <g id="line2d_53">
      <g>
       <use xlink:href="#m990869fcd4" x="55.894451" y="65.642737" style="stroke: #000000; stroke-width: 0.6"/>
      </g>
     </g>
    </g>
    <g id="ytick_25">
     <g id="line2d_54">
      <g>
       <use xlink:href="#m990869fcd4" x="55.894451" y="60.310956" style="stroke: #000000; stroke-width: 0.6"/>
      </g>
     </g>
    </g>
    <g id="ytick_26">
     <g id="line2d_55">
      <g>
       <use xlink:href="#m990869fcd4" x="55.894451" y="55.803" style="stroke: #000000; stroke-width: 0.6"/>
      </g>
     </g>
    </g>
    <g id="ytick_27">
     <g id="line2d_56">
      <g>
       <use xlink:href="#m990869fcd4" x="55.894451" y="51.898031" style="stroke: #000000; stroke-width: 0.6"/>
      </g>
     </g>
    </g>
    <g id="ytick_28">
     <g id="line2d_57">
      <g>
       <use xlink:href="#m990869fcd4" x="55.894451" y="48.453604" style="stroke: #000000; stroke-width: 0.6"/>
      </g>
     </g>
    </g>
    <g id="ytick_29">
     <g id="line2d_58">
      <g>
       <use xlink:href="#m990869fcd4" x="55.894451" y="25.10218" style="stroke: #000000; stroke-width: 0.6"/>
      </g>
     </g>
    </g>
    <g id="text_10">
     <!-- e2 * dnde [TeV / (cm2 s)] -->
     <g transform="translate(18.27198 193.001381) rotate(-90) scale(0.1 -0.1)">
      <defs>
       <path id="CMR17-2a" d="M 1517 3324 
L 2323 2727 
C 2394 2670 2406 2670 2438 2670 
C 2528 2670 2573 2747 2573 2804 
C 2573 2875 2534 2901 2464 2939 
L 1562 3420 
L 2464 3908 
C 2541 3953 2573 3966 2573 4036 
C 2573 4171 2438 4171 2400 4171 
L 1517 3516 
L 1600 4671 
C 1587 4748 1536 4800 1466 4800 
C 1389 4800 1338 4735 1338 4678 
L 1414 3516 
L 608 4113 
C 538 4171 525 4171 493 4171 
C 403 4171 358 4094 358 4036 
C 358 3966 397 3940 467 3901 
L 1370 3420 
L 467 2933 
C 390 2888 358 2875 358 2804 
C 358 2670 493 2670 531 2670 
L 1414 3324 
L 1331 2163 
C 1338 2105 1382 2041 1466 2041 
C 1542 2041 1594 2099 1594 2169 
L 1587 2265 
L 1517 3324 
z
" transform="scale(0.015625)"/>
       <path id="CMR17-64" d="M 1869 4345 
L 1869 4179 
C 2246 4179 2304 4141 2304 3843 
L 2304 2371 
C 2278 2403 2016 2816 1498 2816 
C 845 2816 211 2228 211 1376 
C 211 529 806 -64 1434 -64 
C 1978 -64 2259 361 2291 406 
L 2291 -64 
L 3066 -13 
L 3066 154 
C 2688 154 2630 193 2630 503 
L 2630 4416 
L 1869 4345 
z
M 2291 762 
C 2291 568 2176 393 2029 264 
C 1811 70 1594 38 1472 38 
C 1286 38 621 135 621 1369 
C 621 2636 1363 2713 1530 2713 
C 1824 2713 2061 2545 2208 2313 
C 2291 2177 2291 2157 2291 2041 
L 2291 762 
z
" transform="scale(0.015625)"/>
       <path id="CMR17-2f" d="M 2605 4575 
C 2637 4658 2637 4671 2637 4684 
C 2637 4761 2579 4800 2528 4800 
C 2451 4800 2426 4748 2400 4671 
L 326 -1376 
C 294 -1460 294 -1472 294 -1485 
C 294 -1562 352 -1600 403 -1600 
C 480 -1600 506 -1549 531 -1472 
L 2605 4575 
z
" transform="scale(0.015625)"/>
       <path id="CMR17-28" d="M 1958 -1562 
C 1958 -1556 1958 -1543 1939 -1524 
C 1645 -1223 858 -403 858 1596 
C 858 3595 1632 4408 1946 4729 
C 1946 4735 1958 4748 1958 4767 
C 1958 4787 1939 4800 1914 4800 
C 1843 4800 1299 4325 986 3620 
C 666 2909 576 2218 576 1603 
C 576 1141 621 360 1005 -467 
C 1312 -1133 1837 -1600 1914 -1600 
C 1946 -1600 1958 -1588 1958 -1562 
z
" transform="scale(0.015625)"/>
       <path id="CMR17-63" d="M 2234 2240 
C 2112 2240 1933 2240 1933 2015 
C 1933 1836 2080 1785 2163 1785 
C 2208 1785 2394 1804 2394 2028 
C 2394 2476 1958 2816 1466 2816 
C 787 2816 211 2201 211 1379 
C 211 521 813 -64 1466 -64 
C 2259 -64 2458 676 2458 747 
C 2458 773 2451 792 2406 792 
C 2362 792 2355 786 2330 702 
C 2163 180 1798 51 1523 51 
C 1114 51 621 431 621 1385 
C 621 2358 1094 2700 1472 2700 
C 1722 2700 2093 2582 2234 2240 
z
" transform="scale(0.015625)"/>
       <path id="CMR17-6d" d="M 4326 1954 
C 4326 2276 4269 2816 3507 2816 
C 3072 2816 2771 2520 2656 2173 
L 2650 2173 
C 2573 2700 2195 2816 1837 2816 
C 1331 2816 1069 2424 973 2166 
L 966 2166 
L 966 2816 
L 211 2745 
L 211 2578 
C 589 2578 646 2540 646 2231 
L 646 443 
C 646 198 621 166 211 166 
L 211 0 
C 365 12 646 12 813 12 
C 979 12 1267 12 1421 0 
L 1421 166 
C 1011 166 986 192 986 443 
L 986 1678 
C 986 2269 1344 2713 1792 2713 
C 2266 2713 2317 2289 2317 1980 
L 2317 443 
C 2317 198 2291 166 1882 166 
L 1882 0 
C 2035 12 2317 12 2483 12 
C 2650 12 2938 12 3091 0 
L 3091 166 
C 2682 166 2656 192 2656 443 
L 2656 1678 
C 2656 2269 3014 2713 3462 2713 
C 3936 2713 3987 2289 3987 1980 
L 3987 443 
C 3987 198 3962 166 3552 166 
L 3552 0 
C 3706 12 3987 12 4154 12 
C 4320 12 4608 12 4762 0 
L 4762 166 
C 4352 166 4326 192 4326 443 
L 4326 1954 
z
" transform="scale(0.015625)"/>
       <path id="CMR17-73" d="M 1978 2688 
C 1978 2803 1971 2809 1933 2809 
C 1907 2809 1901 2803 1824 2707 
C 1805 2681 1747 2617 1728 2592 
C 1523 2809 1235 2816 1126 2816 
C 416 2816 160 2444 160 2073 
C 160 1497 813 1363 998 1324 
C 1402 1241 1542 1216 1677 1100 
C 1760 1024 1901 883 1901 652 
C 1901 384 1747 38 1158 38 
C 602 38 403 460 288 1024 
C 269 1113 269 1120 218 1120 
C 166 1120 160 1113 160 985 
L 160 64 
C 160 -52 166 -58 205 -58 
C 237 -58 243 -52 275 0 
C 314 57 410 211 448 275 
C 576 102 800 -64 1158 -64 
C 1792 -64 2131 281 2131 780 
C 2131 1107 1958 1280 1875 1356 
C 1683 1555 1459 1600 1190 1651 
C 838 1728 390 1817 390 2208 
C 390 2374 480 2726 1126 2726 
C 1811 2726 1850 2086 1862 1881 
C 1869 1849 1901 1843 1920 1843 
C 1978 1843 1978 1862 1978 1971 
L 1978 2688 
z
" transform="scale(0.015625)"/>
       <path id="CMR17-29" d="M 1683 1596 
C 1683 2057 1638 2839 1254 3665 
C 947 4332 422 4800 346 4800 
C 326 4800 301 4793 301 4761 
C 301 4748 307 4742 314 4729 
C 621 4408 1402 3595 1402 1603 
C 1402 -396 627 -1210 314 -1530 
C 307 -1543 301 -1549 301 -1562 
C 301 -1594 326 -1600 346 -1600 
C 416 -1600 960 -1127 1274 -422 
C 1594 289 1683 981 1683 1596 
z
" transform="scale(0.015625)"/>
      </defs>
      <use xlink:href="#CMR17-65" transform="scale(0.996264)"/>
      <use xlink:href="#CMR17-32" transform="translate(40.48566 0) scale(0.996264)"/>
      <use xlink:href="#CMR17-2a" transform="translate(116.252104 0) scale(0.996264)"/>
      <use xlink:href="#CMR17-64" transform="translate(192.018547 0) scale(0.996264)"/>
      <use xlink:href="#CMR17-6e" transform="translate(242.913917 0) scale(0.996264)"/>
      <use xlink:href="#CMR17-64" transform="translate(293.809287 0) scale(0.996264)"/>
      <use xlink:href="#CMR17-65" transform="translate(344.704657 0) scale(0.996264)"/>
      <use xlink:href="#CMR17-5b" transform="translate(415.266284 0) scale(0.996264)"/>
      <use xlink:href="#CMR17-54" transform="translate(440.137342 0) scale(0.996264)"/>
      <use xlink:href="#CMR17-65" transform="translate(498.839967 0) scale(0.996264)"/>
      <use xlink:href="#CMR17-56" transform="translate(539.325628 0) scale(0.996264)"/>
      <use xlink:href="#CMR17-2f" transform="translate(638.474024 0) scale(0.996264)"/>
      <use xlink:href="#CMR17-28" transform="translate(714.240467 0) scale(0.996264)"/>
      <use xlink:href="#CMR17-63" transform="translate(749.521235 0) scale(0.996264)"/>
      <use xlink:href="#CMR17-6d" transform="translate(790.006896 0) scale(0.996264)"/>
      <use xlink:href="#CMR17-32" transform="translate(866.926485 0) scale(0.996264)"/>
      <use xlink:href="#CMR17-73" transform="translate(942.692929 0) scale(0.996264)"/>
      <use xlink:href="#CMR17-29" transform="translate(978.494266 0) scale(0.996264)"/>
      <use xlink:href="#CMR17-5d" transform="translate(1013.775034 0) scale(0.996264)"/>
     </g>
    </g>
   </g>
   <g id="line2d_59">
    <path d="M 66.8981 25.989314 
L 68.898764 26.574072 
L 70.899427 27.159103 
L 72.900091 27.744424 
L 74.900754 28.330057 
L 76.901418 28.916023 
L 78.902081 29.502343 
L 80.902745 30.089043 
L 82.903408 30.676148 
L 84.904071 31.263687 
L 86.904735 31.851688 
L 88.905398 32.440183 
L 90.906062 33.029207 
L 92.906725 33.618796 
L 94.907389 34.208987 
L 96.908052 34.799823 
L 98.908716 35.391347 
L 100.909379 35.983607 
L 102.910043 36.576653 
L 104.910706 37.170538 
L 106.91137 37.76532 
L 108.912033 38.361062 
L 110.912697 38.957827 
L 112.91336 39.555687 
L 114.914024 40.154715 
L 116.914687 40.754993 
L 118.915351 41.356606 
L 120.916014 41.959644 
L 122.916677 42.564207 
L 124.917341 43.170397 
L 126.918004 43.778326 
L 128.918668 44.388114 
L 130.919331 44.999887 
L 132.919995 45.613782 
L 134.920658 46.229943 
L 136.921322 46.848526 
L 138.921985 47.469696 
L 140.922649 48.093631 
L 142.923312 48.72052 
L 144.923976 49.350565 
L 146.924639 49.983981 
L 148.925303 50.621 
L 150.925966 51.261869 
L 152.92663 51.90685 
L 154.927293 52.556225 
L 156.927957 53.210295 
L 158.92862 53.869381 
L 160.929284 54.533827 
L 162.929947 55.203999 
L 164.93061 55.88029 
L 166.931274 56.563117 
L 168.931937 57.252928 
L 170.932601 57.950202 
L 172.933264 58.655449 
L 174.933928 59.369214 
L 176.934591 60.092082 
L 178.935255 60.824674 
L 180.935918 61.567656 
L 182.936582 62.321739 
L 184.937245 63.087684 
L 186.937909 63.866301 
L 188.938572 64.658458 
L 190.939236 65.465083 
L 192.939899 66.287164 
L 194.940563 67.12576 
L 196.941226 67.982001 
L 198.94189 68.857095 
L 200.942553 69.752332 
L 202.943216 70.66909 
L 204.94388 71.608843 
L 206.944543 72.573164 
L 208.945207 73.563735 
L 210.94587 74.582352 
L 212.946534 75.630935 
L 214.947197 76.711534 
L 216.947861 77.82634 
L 218.948524 78.977696 
L 220.949188 80.168102 
L 222.949851 81.400231 
L 224.950515 82.676938 
L 226.951178 84.001274 
L 228.951842 85.376499 
L 230.952505 86.806096 
L 232.953169 88.293786 
L 234.953832 89.843545 
L 236.954496 91.45962 
L 238.955159 93.146552 
L 240.955822 94.909188 
L 242.956486 96.75271 
L 244.957149 98.682654 
L 246.957813 100.704934 
L 248.958476 102.825871 
L 250.95914 105.052215 
L 252.959803 107.391182 
L 254.960467 109.850478 
L 256.96113 112.43834 
L 258.961794 115.163566 
L 260.962457 118.035558 
L 262.963121 121.064359 
L 264.963784 124.260703 
" clip-path="url(#p4f9629f040)" style="fill: none; stroke: #000000; stroke-linecap: square"/>
   </g>
   <g id="line2d_60">
    <path d="M 66.8981 25.989314 
L 68.898764 26.574072 
L 70.899427 27.159103 
L 72.900091 27.744424 
L 74.900754 28.330057 
L 76.901418 28.916023 
L 78.902081 29.502343 
L 80.902745 30.089043 
L 82.903408 30.676148 
L 84.904071 31.263687 
L 86.904735 31.851688 
L 88.905398 32.440183 
L 90.906062 33.029207 
L 92.906725 33.618796 
L 94.907389 34.208987 
L 96.908052 34.799823 
L 98.908716 35.391347 
L 100.909379 35.983607 
L 102.910043 36.576653 
L 104.910706 37.170538 
L 106.91137 37.76532 
L 108.912033 38.361062 
L 110.912697 38.957827 
L 112.91336 39.555687 
L 114.914024 40.154715 
L 116.914687 40.754993 
L 118.915351 41.356606 
L 120.916014 41.959644 
L 122.916677 42.564207 
L 124.917341 43.170397 
L 126.918004 43.778326 
L 128.918668 44.388114 
L 130.919331 44.999887 
L 132.919995 45.613782 
L 134.920658 46.229943 
L 136.921322 46.848526 
L 138.921985 47.469696 
L 140.922649 48.093631 
L 142.923312 48.72052 
L 144.923976 49.350565 
L 146.924639 49.983981 
L 148.925303 50.621 
L 150.925966 51.261869 
L 152.92663 51.90685 
L 154.927293 52.556225 
L 156.927957 53.210295 
L 158.92862 53.869381 
L 160.929284 54.533827 
L 162.929947 55.203999 
L 164.93061 55.88029 
L 166.931274 56.563117 
L 168.931937 57.252928 
L 170.932601 57.950202 
L 172.933264 58.655449 
L 174.933928 59.369214 
L 176.934591 60.092082 
L 178.935255 60.824674 
L 180.935918 61.567656 
L 182.936582 62.321739 
L 184.937245 63.087684 
L 186.937909 63.866301 
L 188.938572 64.658458 
L 190.939236 65.465083 
L 192.939899 66.287164 
L 194.940563 67.12576 
L 196.941226 67.982001 
L 198.94189 68.857095 
L 200.942553 69.752332 
L 202.943216 70.66909 
L 204.94388 71.608843 
L 206.944543 72.573164 
L 208.945207 73.563735 
L 210.94587 74.582352 
L 212.946534 75.630935 
L 214.947197 76.711534 
L 216.947861 77.82634 
L 218.948524 78.977696 
L 220.949188 80.168102 
L 222.949851 81.400231 
L 224.950515 82.676938 
L 226.951178 84.001274 
L 228.951842 85.376499 
L 230.952505 86.806096 
L 232.953169 88.293786 
L 234.953832 89.843545 
L 236.954496 91.45962 
L 238.955159 93.146552 
L 240.955822 94.909188 
L 242.956486 96.75271 
L 244.957149 98.682654 
L 246.957813 100.704934 
L 248.958476 102.825871 
L 250.95914 105.052215 
L 252.959803 107.391182 
L 254.960467 109.850478 
L 256.96113 112.43834 
L 258.961794 115.163566 
L 260.962457 118.035558 
L 262.963121 121.064359 
L 264.963784 124.260703 
" clip-path="url(#p4f9629f040)" style="fill: none; stroke-dasharray: 7.4,3.2; stroke-dashoffset: 0; stroke: #191970; stroke-opacity: 0.95; stroke-width: 2"/>
   </g>
   <g id="line2d_61">
    <path d="M 66.8981 25.834475 
L 68.898764 26.422741 
L 70.899427 27.011276 
L 72.900091 27.600098 
L 74.900754 28.189227 
L 76.901418 28.778683 
L 78.902081 29.36849 
L 80.902745 29.95867 
L 82.903408 30.549251 
L 84.904071 31.140259 
L 86.904735 31.731723 
L 88.905398 32.323674 
L 90.906062 32.916147 
L 92.906725 33.509176 
L 94.907389 34.1028 
L 96.908052 34.697059 
L 98.908716 35.291997 
L 100.909379 35.88766 
L 102.910043 36.484099 
L 104.910706 37.081365 
L 106.91137 37.679517 
L 108.912033 38.278613 
L 110.912697 38.87872 
L 112.91336 39.479905 
L 114.914024 40.082243 
L 116.914687 40.685814 
L 118.915351 41.2907 
L 120.916014 41.896993 
L 122.916677 42.504788 
L 124.917341 43.114188 
L 126.918004 43.725304 
L 128.918668 44.338251 
L 130.919331 44.953157 
L 132.919995 45.570155 
L 134.920658 46.189388 
L 136.921322 46.811009 
L 138.921985 47.435182 
L 140.922649 48.062081 
L 142.923312 48.691892 
L 144.923976 49.324816 
L 146.924639 49.961064 
L 148.925303 50.600866 
L 150.925966 51.244463 
L 152.92663 51.892115 
L 154.927293 52.544101 
L 156.927957 53.200716 
L 158.92862 53.862278 
L 160.929284 54.529125 
L 162.929947 55.201619 
L 164.93061 55.880146 
L 166.931274 56.565119 
L 168.931937 57.256979 
L 170.932601 57.956199 
L 172.933264 58.66328 
L 174.933928 59.378762 
L 176.934591 60.103219 
L 178.935255 60.837266 
L 180.935918 61.581558 
L 182.936582 62.336798 
L 184.937245 63.103734 
L 186.937909 63.883167 
L 188.938572 64.675952 
L 190.939236 65.483003 
L 192.939899 66.305296 
L 194.940563 67.143875 
L 196.941226 67.999854 
L 198.94189 68.874423 
L 200.942553 69.768856 
L 202.943216 70.684512 
L 204.94388 71.622843 
L 206.944543 72.5854 
L 208.945207 73.573843 
L 210.94587 74.589943 
L 212.946534 75.635592 
L 214.947197 76.712813 
L 216.947861 77.823766 
L 218.948524 78.970761 
L 220.949188 80.156264 
L 222.949851 81.38291 
L 224.950515 82.653515 
L 226.951178 83.971088 
L 228.951842 85.338843 
L 230.952505 86.760216 
L 232.953169 88.238874 
L 234.953832 89.778739 
L 236.954496 91.384 
L 238.955159 93.059132 
L 240.955822 94.808918 
L 242.956486 96.638467 
L 244.957149 98.553237 
L 246.957813 100.559062 
L 248.958476 102.662173 
L 250.95914 104.869227 
L 252.959803 107.18734 
L 254.960467 109.624112 
L 256.96113 112.187663 
L 258.961794 114.886671 
L 260.962457 117.730406 
L 262.963121 120.728774 
L 264.963784 123.892356 
" clip-path="url(#p4f9629f040)" style="fill: none; stroke: #c71585; stroke-width: 1.5; stroke-linecap: square"/>
   </g>
   <g id="patch_3">
    <path d="M 55.894451 247.381683 
L 55.894451 25.10218 
" style="fill: none; stroke: #000000; stroke-width: 0.8; stroke-linejoin: miter; stroke-linecap: square"/>
   </g>
   <g id="patch_4">
    <path d="M 275.967433 247.381683 
L 275.967433 25.10218 
" style="fill: none; stroke: #000000; stroke-width: 0.8; stroke-linejoin: miter; stroke-linecap: square"/>
   </g>
   <g id="patch_5">
    <path d="M 55.894451 247.381683 
L 275.967433 247.381683 
" style="fill: none; stroke: #000000; stroke-width: 0.8; stroke-linejoin: miter; stroke-linecap: square"/>
   </g>
   <g id="patch_6">
    <path d="M 55.894451 25.10218 
L 275.967433 25.10218 
" style="fill: none; stroke: #000000; stroke-width: 0.8; stroke-linejoin: miter; stroke-linecap: square"/>
   </g>
   <g id="text_11">
    <!-- sys = -10% -->
    <g transform="translate(141.966199 19.10218) scale(0.12 -0.12)">
     <defs>
      <path id="CMR17-3d" d="M 4115 2048 
C 4211 2048 4307 2048 4307 2156 
C 4307 2272 4198 2272 4090 2272 
L 512 2272 
C 403 2272 294 2272 294 2156 
C 294 2048 390 2048 486 2048 
L 4115 2048 
z
M 4090 927 
C 4198 927 4307 927 4307 1043 
C 4307 1152 4211 1152 4115 1152 
L 486 1152 
C 390 1152 294 1152 294 1043 
C 294 927 403 927 512 927 
L 4090 927 
z
" transform="scale(0.015625)"/>
      <path id="CMR17-2d" d="M 1632 1254 
L 1632 1536 
L 26 1536 
L 26 1254 
L 1632 1254 
z
" transform="scale(0.015625)"/>
     </defs>
     <use xlink:href="#CMR17-73" transform="scale(0.996264)"/>
     <use xlink:href="#CMR17-79" transform="translate(35.801338 0) scale(0.996264)"/>
     <use xlink:href="#CMR17-73" transform="translate(84.094253 0) scale(0.996264)"/>
     <use xlink:href="#CMR17-3d" transform="translate(149.971557 0) scale(0.996264)"/>
     <use xlink:href="#CMR17-2d" transform="translate(251.762312 0) scale(0.996264)"/>
     <use xlink:href="#CMR17-31" transform="translate(281.838279 0) scale(0.996264)"/>
     <use xlink:href="#CMR17-30" transform="translate(327.528756 0) scale(0.996264)"/>
    </g>
   </g>
   <g id="legend_1">
    <g id="patch_7">
     <path d="M 62.894451 242.381683 
L 195.738682 242.381683 
Q 197.738682 242.381683 197.738682 240.381683 
L 197.738682 185.63297 
Q 197.738682 183.63297 195.738682 183.63297 
L 62.894451 183.63297 
Q 60.894451 183.63297 60.894451 185.63297 
L 60.894451 240.381683 
Q 60.894451 242.381683 62.894451 242.381683 
z
" style="fill: #ffffff; opacity: 0.8; stroke: #cccccc; stroke-linejoin: miter"/>
    </g>
    <g id="line2d_62">
     <path d="M 64.894451 191.13297 
L 74.894451 191.13297 
L 84.894451 191.13297 
" style="fill: none; stroke: #000000; stroke-linecap: square"/>
    </g>
    <g id="text_12">
     <!-- Input -->
     <g transform="translate(92.894451 194.63297) scale(0.1 -0.1)">
      <defs>
       <path id="CMR17-49" d="M 1261 3898 
C 1261 4185 1338 4185 1798 4185 
L 1798 4352 
C 1594 4339 1267 4339 1050 4339 
C 832 4339 506 4339 301 4352 
L 301 4185 
C 762 4185 838 4185 838 3898 
L 838 453 
C 838 166 762 166 301 166 
L 301 0 
C 506 12 832 12 1050 12 
C 1267 12 1594 12 1798 0 
L 1798 166 
C 1338 166 1261 166 1261 453 
L 1261 3898 
z
" transform="scale(0.015625)"/>
       <path id="CMR17-70" d="M 1408 -1114 
C 998 -1114 973 -1088 973 -834 
L 973 380 
C 1158 109 1427 -64 1766 -64 
C 2406 -64 3053 503 3053 1382 
C 3053 2196 2496 2816 1837 2816 
C 1453 2816 1139 2603 960 2345 
L 960 2816 
L 198 2745 
L 198 2577 
C 576 2577 634 2539 634 2228 
L 634 -834 
C 634 -1081 608 -1114 198 -1114 
L 198 -1280 
C 352 -1268 634 -1268 800 -1268 
C 966 -1268 1254 -1268 1408 -1280 
L 1408 -1114 
z
M 973 2015 
C 973 2106 973 2241 1222 2481 
C 1254 2506 1472 2700 1792 2700 
C 2259 2700 2643 2112 2643 1376 
C 2643 639 2234 38 1728 38 
C 1498 38 1248 148 1056 451 
C 973 594 973 632 973 736 
L 973 2015 
z
" transform="scale(0.015625)"/>
       <path id="CMR17-75" d="M 1882 2745 
L 1882 2579 
C 2259 2579 2317 2540 2317 2229 
L 2317 1053 
C 2317 510 2029 38 1555 38 
C 1030 38 986 355 986 691 
L 986 2816 
L 211 2745 
L 211 2579 
C 467 2579 640 2579 646 2320 
L 646 1079 
C 646 646 646 368 813 187 
C 896 103 1056 -64 1517 -64 
C 2061 -64 2272 400 2323 536 
L 2330 536 
L 2330 -64 
L 3091 -13 
L 3091 154 
C 2714 154 2656 193 2656 503 
L 2656 2816 
L 1882 2745 
z
" transform="scale(0.015625)"/>
       <path id="CMR17-74" d="M 966 2585 
L 1862 2585 
L 1862 2752 
L 966 2752 
L 966 3968 
L 851 3968 
C 838 3292 614 2700 70 2687 
L 70 2585 
L 627 2585 
L 627 778 
C 627 655 627 -64 1370 -64 
C 1747 -64 1965 308 1965 784 
L 1965 1151 
L 1850 1151 
L 1850 790 
C 1850 347 1677 51 1408 51 
C 1222 51 966 179 966 765 
L 966 2585 
z
" transform="scale(0.015625)"/>
      </defs>
      <use xlink:href="#CMR17-49" transform="scale(0.996264)"/>
      <use xlink:href="#CMR17-6e" transform="translate(32.638409 0) scale(0.996264)"/>
      <use xlink:href="#CMR17-70" transform="translate(83.533779 0) scale(0.996264)"/>
      <use xlink:href="#CMR17-75" transform="translate(134.429149 0) scale(0.996264)"/>
      <use xlink:href="#CMR17-74" transform="translate(185.324519 0) scale(0.996264)"/>
     </g>
    </g>
    <g id="line2d_63">
     <path d="M 64.894451 205.070148 
L 74.894451 205.070148 
L 84.894451 205.070148 
" style="fill: none; stroke-dasharray: 7.4,3.2; stroke-dashoffset: 0; stroke: #191970; stroke-opacity: 0.95; stroke-width: 2"/>
    </g>
    <g id="text_13">
     <!-- Best Fit with Nuisance -->
     <g transform="translate(92.894451 208.570148) scale(0.1 -0.1)">
      <defs>
       <path id="CMR17-42" d="M 333 4352 
L 333 4185 
C 774 4185 845 4185 845 3897 
L 845 451 
C 845 166 774 166 333 166 
L 333 0 
L 2534 0 
C 3354 0 3885 578 3885 1155 
C 3885 1726 3360 2214 2675 2259 
C 3290 2380 3718 2790 3718 3276 
C 3718 3808 3194 4352 2368 4352 
L 333 4352 
z
M 1248 2304 
L 1248 3936 
C 1248 4153 1261 4185 1517 4185 
L 2336 4185 
C 2970 4185 3251 3673 3251 3276 
C 3251 2790 2861 2304 2170 2304 
L 1248 2304 
z
M 1517 166 
C 1261 166 1248 198 1248 413 
L 1248 2201 
L 2432 2201 
C 3091 2201 3411 1624 3411 1161 
C 3411 698 3046 166 2349 166 
L 1517 166 
z
" transform="scale(0.015625)"/>
       <path id="CMR17-46" d="M 3482 4339 
L 326 4339 
L 326 4172 
C 768 4172 838 4172 838 3883 
L 838 450 
C 838 166 768 166 326 166 
L 326 0 
C 512 12 870 12 1069 12 
C 1331 12 1638 12 1901 0 
L 1901 166 
L 1760 166 
C 1274 166 1261 229 1261 456 
L 1261 2073 
L 1837 2073 
C 2432 2073 2490 1865 2490 1334 
L 2605 1334 
L 2605 2991 
L 2490 2991 
C 2490 2451 2432 2240 1837 2240 
L 1261 2240 
L 1261 3922 
C 1261 4140 1274 4172 1530 4172 
L 2355 4172 
C 3322 4172 3430 3774 3520 2920 
L 3635 2920 
L 3482 4339 
z
" transform="scale(0.015625)"/>
       <path id="CMR17-69" d="M 992 3961 
C 992 4102 877 4224 730 4224 
C 589 4224 467 4108 467 3961 
C 467 3820 582 3699 730 3699 
C 870 3699 992 3814 992 3961 
z
M 243 2745 
L 243 2579 
C 602 2579 653 2540 653 2231 
L 653 443 
C 653 198 627 166 218 166 
L 218 0 
C 371 12 646 12 806 12 
C 960 12 1222 12 1370 0 
L 1370 166 
C 992 166 979 205 979 436 
L 979 2816 
L 243 2745 
z
" transform="scale(0.015625)"/>
       <path id="CMR17-77" d="M 3725 2186 
C 3853 2566 4109 2579 4205 2585 
L 4205 2752 
C 4077 2745 3949 2739 3821 2739 
C 3699 2739 3424 2739 3315 2752 
L 3315 2585 
C 3514 2572 3622 2456 3622 2296 
C 3622 2251 3610 2193 3597 2148 
L 2995 398 
L 2342 2296 
C 2330 2341 2310 2392 2310 2418 
C 2310 2585 2528 2585 2630 2585 
L 2630 2752 
C 2483 2739 2214 2739 2061 2739 
C 1901 2739 1734 2739 1587 2752 
L 1587 2585 
C 1939 2585 1939 2572 2074 2167 
L 1485 443 
L 851 2302 
C 819 2386 819 2399 819 2418 
C 819 2585 1037 2585 1139 2585 
L 1139 2752 
C 986 2739 717 2739 557 2739 
C 416 2739 198 2739 64 2752 
L 64 2585 
C 346 2585 416 2566 486 2353 
L 1274 38 
C 1299 -45 1318 -64 1370 -64 
C 1414 -64 1440 -52 1472 44 
L 2131 1987 
L 2797 44 
C 2829 -52 2854 -64 2899 -64 
C 2950 -64 2970 -45 2995 38 
L 3725 2186 
z
" transform="scale(0.015625)"/>
       <path id="CMR17-68" d="M 2656 1954 
C 2656 2282 2592 2816 1837 2816 
C 1312 2816 1056 2392 979 2179 
L 973 2179 
L 973 4416 
L 211 4345 
L 211 4179 
C 589 4179 646 4141 646 3843 
L 646 443 
C 646 198 621 166 211 166 
L 211 0 
C 365 12 646 12 813 12 
C 979 12 1267 12 1421 0 
L 1421 166 
C 1011 166 986 192 986 443 
L 986 1678 
C 986 2269 1344 2713 1792 2713 
C 2266 2713 2317 2289 2317 1980 
L 2317 443 
C 2317 198 2291 166 1882 166 
L 1882 0 
C 2035 12 2317 12 2483 12 
C 2650 12 2938 12 3091 0 
L 3091 166 
C 2682 166 2656 192 2656 443 
L 2656 1954 
z
" transform="scale(0.015625)"/>
       <path id="CMR17-4e" d="M 1312 4275 
C 1267 4345 1261 4352 1139 4352 
L 326 4352 
L 326 4185 
L 448 4185 
C 704 4185 819 4153 838 4147 
L 838 624 
C 838 465 838 166 326 166 
L 326 0 
C 474 12 742 12 902 12 
C 1062 12 1331 12 1478 0 
L 1478 166 
C 966 166 966 465 966 624 
L 966 4057 
C 1011 4019 1011 4007 1056 3943 
L 3430 76 
C 3475 0 3494 0 3526 0 
C 3590 0 3590 19 3590 140 
L 3590 3726 
C 3590 3885 3590 4185 4102 4185 
L 4102 4352 
C 3955 4339 3686 4339 3526 4339 
C 3366 4339 3098 4339 2950 4352 
L 2950 4185 
C 3462 4185 3462 3885 3462 3726 
L 3462 777 
L 1312 4275 
z
" transform="scale(0.015625)"/>
       <path id="CMR17-61" d="M 2304 1656 
C 2304 2048 2304 2275 2035 2534 
C 1798 2751 1523 2816 1306 2816 
C 800 2816 435 2408 435 1977 
C 435 1740 627 1728 666 1728 
C 749 1728 896 1779 896 1958 
C 896 2118 774 2188 666 2188 
C 640 2188 608 2182 589 2176 
C 723 2594 1069 2713 1293 2713 
C 1613 2713 1965 2421 1965 1875 
L 1965 1632 
C 1587 1619 1133 1568 774 1373 
C 371 1147 256 822 256 576 
C 256 77 832 -64 1171 -64 
C 1523 -64 1850 135 1990 505 
C 2003 219 2182 -39 2464 -39 
C 2598 -39 2938 51 2938 563 
L 2938 926 
L 2822 926 
L 2822 557 
C 2822 161 2650 109 2566 109 
C 2304 109 2304 446 2304 732 
L 2304 1656 
z
M 1965 887 
C 1965 323 1568 38 1216 38 
C 896 38 646 278 646 576 
C 646 771 730 1114 1101 1322 
C 1408 1497 1760 1523 1965 1536 
L 1965 887 
z
" transform="scale(0.015625)"/>
      </defs>
      <use xlink:href="#CMR17-42" transform="scale(0.996264)"/>
      <use xlink:href="#CMR17-65" transform="translate(65.188754 0) scale(0.996264)"/>
      <use xlink:href="#CMR17-73" transform="translate(105.674415 0) scale(0.996264)"/>
      <use xlink:href="#CMR17-74" transform="translate(141.475753 0) scale(0.996264)"/>
      <use xlink:href="#CMR17-46" transform="translate(206.832487 0) scale(0.996264)"/>
      <use xlink:href="#CMR17-69" transform="translate(266.816333 0) scale(0.996264)"/>
      <use xlink:href="#CMR17-74" transform="translate(291.687392 0) scale(0.996264)"/>
      <use xlink:href="#CMR17-77" transform="translate(357.044126 0) scale(0.996264)"/>
      <use xlink:href="#CMR17-69" transform="translate(423.554006 0) scale(0.996264)"/>
      <use xlink:href="#CMR17-74" transform="translate(448.425065 0) scale(0.996264)"/>
      <use xlink:href="#CMR17-68" transform="translate(483.705833 0) scale(0.996264)"/>
      <use xlink:href="#CMR17-4e" transform="translate(564.677169 0) scale(0.996264)"/>
      <use xlink:href="#CMR17-75" transform="translate(633.749599 0) scale(0.996264)"/>
      <use xlink:href="#CMR17-69" transform="translate(684.644968 0) scale(0.996264)"/>
      <use xlink:href="#CMR17-73" transform="translate(709.516027 0) scale(0.996264)"/>
      <use xlink:href="#CMR17-61" transform="translate(745.317365 0) scale(0.996264)"/>
      <use xlink:href="#CMR17-6e" transform="translate(791.007842 0) scale(0.996264)"/>
      <use xlink:href="#CMR17-63" transform="translate(841.903211 0) scale(0.996264)"/>
      <use xlink:href="#CMR17-65" transform="translate(882.388872 0) scale(0.996264)"/>
     </g>
    </g>
    <g id="patch_8">
     <path d="M 64.894451 222.507327 
L 84.894451 222.507327 
L 84.894451 215.507327 
L 64.894451 215.507327 
z
" style="fill: #6495ed; fill-opacity: 0.5"/>
    </g>
    <g id="text_14">
     <!-- 1$\,\sigma_{tot}$ -->
     <g transform="translate(92.894451 222.507327) scale(0.1 -0.1)">
      <defs>
       <path id="CMMI12-1b" d="M 3251 2406 
C 3334 2406 3546 2406 3546 2611 
C 3546 2752 3424 2752 3309 2752 
L 1894 2752 
C 934 2752 243 1685 243 932 
C 243 389 595 -64 1171 -64 
C 1926 -64 2752 746 2752 1704 
C 2752 1953 2694 2195 2541 2406 
L 3251 2406 
z
M 1178 64 
C 851 64 614 312 614 753 
C 614 1136 845 2406 1786 2406 
C 2061 2406 2368 2272 2368 1780 
C 2368 1557 2266 1021 2042 651 
C 1811 274 1466 64 1178 64 
z
" transform="scale(0.015625)"/>
       <path id="CMMI12-74" d="M 1286 2566 
L 1875 2566 
C 1997 2566 2061 2566 2061 2681 
C 2061 2752 2022 2752 1894 2752 
L 1331 2752 
L 1568 3664 
C 1594 3752 1594 3764 1594 3808 
C 1594 3910 1510 3968 1427 3968 
C 1376 3968 1229 3948 1178 3746 
L 928 2752 
L 326 2752 
C 198 2752 141 2752 141 2630 
C 141 2566 186 2566 307 2566 
L 877 2566 
L 454 881 
C 403 657 384 593 384 510 
C 384 210 595 -64 954 -64 
C 1600 -64 1946 868 1946 913 
C 1946 951 1920 970 1882 970 
C 1869 970 1843 970 1830 944 
C 1824 938 1818 932 1773 830 
C 1638 510 1344 64 973 64 
C 781 64 768 223 768 364 
C 768 370 768 491 787 568 
L 1286 2566 
z
" transform="scale(0.015625)"/>
       <path id="CMMI12-6f" d="M 2918 1755 
C 2918 2362 2522 2816 1939 2816 
C 1094 2816 262 1896 262 996 
C 262 389 659 -64 1242 -64 
C 2093 -64 2918 855 2918 1755 
z
M 1248 64 
C 928 64 691 319 691 766 
C 691 1060 845 1711 1024 2030 
C 1312 2522 1670 2687 1933 2687 
C 2246 2687 2490 2432 2490 1985 
C 2490 1730 2355 1047 2112 657 
C 1850 230 1498 64 1248 64 
z
" transform="scale(0.015625)"/>
      </defs>
      <use xlink:href="#CMR17-31" transform="scale(0.996264)"/>
      <use xlink:href="#CMMI12-1b" transform="translate(62.294882 0) scale(0.996264)"/>
      <use xlink:href="#CMMI12-74" transform="translate(117.740343 -14.943915) scale(0.697382)"/>
      <use xlink:href="#CMMI12-6f" transform="translate(142.398653 -14.943915) scale(0.697382)"/>
      <use xlink:href="#CMMI12-74" transform="translate(175.225214 -14.943915) scale(0.697382)"/>
     </g>
    </g>
    <g id="line2d_64">
     <path d="M 64.894451 232.944505 
L 74.894451 232.944505 
L 84.894451 232.944505 
" style="fill: none; stroke: #c71585; stroke-width: 1.5; stroke-linecap: square"/>
    </g>
    <g id="text_15">
     <!-- Best Fit -->
     <g transform="translate(92.894451 236.444505) scale(0.1 -0.1)">
      <use xlink:href="#CMR17-42" transform="scale(0.996264)"/>
      <use xlink:href="#CMR17-65" transform="translate(65.188754 0) scale(0.996264)"/>
      <use xlink:href="#CMR17-73" transform="translate(105.674415 0) scale(0.996264)"/>
      <use xlink:href="#CMR17-74" transform="translate(141.475753 0) scale(0.996264)"/>
      <use xlink:href="#CMR17-46" transform="translate(206.832487 0) scale(0.996264)"/>
      <use xlink:href="#CMR17-69" transform="translate(266.816333 0) scale(0.996264)"/>
      <use xlink:href="#CMR17-74" transform="translate(291.687392 0) scale(0.996264)"/>
     </g>
    </g>
   </g>
  </g>
 </g>
 <defs>
  <clipPath id="p4f9629f040">
   <rect x="55.894451" y="25.10218" width="220.072982" height="222.279503"/>
  </clipPath>
 </defs>
</svg>
