<?xml version="1.0" encoding="utf-8" standalone="no"?>
<!DOCTYPE svg PUBLIC "-//W3C//DTD SVG 1.1//EN"
  "http://www.w3.org/Graphics/SVG/1.1/DTD/svg11.dtd">
<svg xmlns:xlink="http://www.w3.org/1999/xlink" width="460.8pt" height="345.6pt" viewBox="0 0 460.8 345.6" xmlns="http://www.w3.org/2000/svg" version="1.1">
 <metadata>
  <rdf:RDF xmlns:dc="http://purl.org/dc/elements/1.1/" xmlns:cc="http://creativecommons.org/ns#" xmlns:rdf="http://www.w3.org/1999/02/22-rdf-syntax-ns#">
   <cc:Work>
    <dc:type rdf:resource="http://purl.org/dc/dcmitype/StillImage"/>
    <dc:date>2023-03-24T12:53:44.210043</dc:date>
    <dc:format>image/svg+xml</dc:format>
    <dc:creator>
     <cc:Agent>
      <dc:title>Matplotlib v3.6.3, https://matplotlib.org/</dc:title>
     </cc:Agent>
    </dc:creator>
   </cc:Work>
  </rdf:RDF>
 </metadata>
 <defs>
  <style type="text/css">*{stroke-linejoin: round; stroke-linecap: butt}</style>
 </defs>
 <g id="figure_1">
  <g id="patch_1">
   <path d="M 0 345.6 
L 460.8 345.6 
L 460.8 0 
L 0 0 
z
" style="fill: #ffffff"/>
  </g>
  <g id="axes_1">
   <g id="patch_2">
    <path d="M 48.49 77.128 
L 440.98302 77.128 
L 440.98302 25.44 
L 48.49 25.44 
z
" style="fill: #ffffff"/>
   </g>
   <g id="matplotlib.axis_1">
    <g id="xtick_1">
     <g id="line2d_1">
      <defs>
       <path id="m2efbdf436b" d="M 0 0 
L 0 3.5 
" style="stroke: #000000; stroke-width: 0.8"/>
      </defs>
      <g>
       <use xlink:href="#m2efbdf436b" x="48.49" y="77.128" style="stroke: #000000; stroke-width: 0.8"/>
      </g>
     </g>
     <g id="text_1">
      <!-- $\mathdefault{10^{-1}}$ -->
      <g transform="translate(36.74 91.726437) scale(0.1 -0.1)">
       <defs>
        <path id="DejaVuSans-31" d="M 794 531 
L 1825 531 
L 1825 4091 
L 703 3866 
L 703 4441 
L 1819 4666 
L 2450 4666 
L 2450 531 
L 3481 531 
L 3481 0 
L 794 0 
L 794 531 
z
" transform="scale(0.015625)"/>
        <path id="DejaVuSans-30" d="M 2034 4250 
Q 1547 4250 1301 3770 
Q 1056 3291 1056 2328 
Q 1056 1369 1301 889 
Q 1547 409 2034 409 
Q 2525 409 2770 889 
Q 3016 1369 3016 2328 
Q 3016 3291 2770 3770 
Q 2525 4250 2034 4250 
z
M 2034 4750 
Q 2819 4750 3233 4129 
Q 3647 3509 3647 2328 
Q 3647 1150 3233 529 
Q 2819 -91 2034 -91 
Q 1250 -91 836 529 
Q 422 1150 422 2328 
Q 422 3509 836 4129 
Q 1250 4750 2034 4750 
z
" transform="scale(0.015625)"/>
        <path id="DejaVuSans-2212" d="M 678 2272 
L 4684 2272 
L 4684 1741 
L 678 1741 
L 678 2272 
z
" transform="scale(0.015625)"/>
       </defs>
       <use xlink:href="#DejaVuSans-31" transform="translate(0 0.684375)"/>
       <use xlink:href="#DejaVuSans-30" transform="translate(63.623047 0.684375)"/>
       <use xlink:href="#DejaVuSans-2212" transform="translate(128.203125 38.965625) scale(0.7)"/>
       <use xlink:href="#DejaVuSans-31" transform="translate(186.855469 38.965625) scale(0.7)"/>
      </g>
     </g>
    </g>
    <g id="xtick_2">
     <g id="line2d_2">
      <g>
       <use xlink:href="#m2efbdf436b" x="244.73651" y="77.128" style="stroke: #000000; stroke-width: 0.8"/>
      </g>
     </g>
     <g id="text_2">
      <!-- $\mathdefault{10^{0}}$ -->
      <g transform="translate(235.93651 91.726437) scale(0.1 -0.1)">
       <use xlink:href="#DejaVuSans-31" transform="translate(0 0.765625)"/>
       <use xlink:href="#DejaVuSans-30" transform="translate(63.623047 0.765625)"/>
       <use xlink:href="#DejaVuSans-30" transform="translate(128.203125 39.046875) scale(0.7)"/>
      </g>
     </g>
    </g>
    <g id="xtick_3">
     <g id="line2d_3">
      <g>
       <use xlink:href="#m2efbdf436b" x="440.98302" y="77.128" style="stroke: #000000; stroke-width: 0.8"/>
      </g>
     </g>
     <g id="text_3">
      <!-- $\mathdefault{10^{1}}$ -->
      <g transform="translate(432.18302 91.726437) scale(0.1 -0.1)">
       <use xlink:href="#DejaVuSans-31" transform="translate(0 0.684375)"/>
       <use xlink:href="#DejaVuSans-30" transform="translate(63.623047 0.684375)"/>
       <use xlink:href="#DejaVuSans-31" transform="translate(128.203125 38.965625) scale(0.7)"/>
      </g>
     </g>
    </g>
    <g id="xtick_4">
     <g id="line2d_4">
      <defs>
       <path id="m79526eab9e" d="M 0 0 
L 0 2 
" style="stroke: #000000; stroke-width: 0.6"/>
      </defs>
      <g>
       <use xlink:href="#m79526eab9e" x="107.566086" y="77.128" style="stroke: #000000; stroke-width: 0.6"/>
      </g>
     </g>
    </g>
    <g id="xtick_5">
     <g id="line2d_5">
      <g>
       <use xlink:href="#m79526eab9e" x="142.123381" y="77.128" style="stroke: #000000; stroke-width: 0.6"/>
      </g>
     </g>
    </g>
    <g id="xtick_6">
     <g id="line2d_6">
      <g>
       <use xlink:href="#m79526eab9e" x="166.642172" y="77.128" style="stroke: #000000; stroke-width: 0.6"/>
      </g>
     </g>
    </g>
    <g id="xtick_7">
     <g id="line2d_7">
      <g>
       <use xlink:href="#m79526eab9e" x="185.660424" y="77.128" style="stroke: #000000; stroke-width: 0.6"/>
      </g>
     </g>
    </g>
    <g id="xtick_8">
     <g id="line2d_8">
      <g>
       <use xlink:href="#m79526eab9e" x="201.199467" y="77.128" style="stroke: #000000; stroke-width: 0.6"/>
      </g>
     </g>
    </g>
    <g id="xtick_9">
     <g id="line2d_9">
      <g>
       <use xlink:href="#m79526eab9e" x="214.337541" y="77.128" style="stroke: #000000; stroke-width: 0.6"/>
      </g>
     </g>
    </g>
    <g id="xtick_10">
     <g id="line2d_10">
      <g>
       <use xlink:href="#m79526eab9e" x="225.718258" y="77.128" style="stroke: #000000; stroke-width: 0.6"/>
      </g>
     </g>
    </g>
    <g id="xtick_11">
     <g id="line2d_11">
      <g>
       <use xlink:href="#m79526eab9e" x="235.756762" y="77.128" style="stroke: #000000; stroke-width: 0.6"/>
      </g>
     </g>
    </g>
    <g id="xtick_12">
     <g id="line2d_12">
      <g>
       <use xlink:href="#m79526eab9e" x="303.812596" y="77.128" style="stroke: #000000; stroke-width: 0.6"/>
      </g>
     </g>
    </g>
    <g id="xtick_13">
     <g id="line2d_13">
      <g>
       <use xlink:href="#m79526eab9e" x="338.369891" y="77.128" style="stroke: #000000; stroke-width: 0.6"/>
      </g>
     </g>
    </g>
    <g id="xtick_14">
     <g id="line2d_14">
      <g>
       <use xlink:href="#m79526eab9e" x="362.888682" y="77.128" style="stroke: #000000; stroke-width: 0.6"/>
      </g>
     </g>
    </g>
    <g id="xtick_15">
     <g id="line2d_15">
      <g>
       <use xlink:href="#m79526eab9e" x="381.906934" y="77.128" style="stroke: #000000; stroke-width: 0.6"/>
      </g>
     </g>
    </g>
    <g id="xtick_16">
     <g id="line2d_16">
      <g>
       <use xlink:href="#m79526eab9e" x="397.445978" y="77.128" style="stroke: #000000; stroke-width: 0.6"/>
      </g>
     </g>
    </g>
    <g id="xtick_17">
     <g id="line2d_17">
      <g>
       <use xlink:href="#m79526eab9e" x="410.584051" y="77.128" style="stroke: #000000; stroke-width: 0.6"/>
      </g>
     </g>
    </g>
    <g id="xtick_18">
     <g id="line2d_18">
      <g>
       <use xlink:href="#m79526eab9e" x="421.964769" y="77.128" style="stroke: #000000; stroke-width: 0.6"/>
      </g>
     </g>
    </g>
    <g id="xtick_19">
     <g id="line2d_19">
      <g>
       <use xlink:href="#m79526eab9e" x="432.003273" y="77.128" style="stroke: #000000; stroke-width: 0.6"/>
      </g>
     </g>
    </g>
    <g id="text_4">
     <!-- True Energy [TeV] -->
     <g transform="translate(200.832604 105.404562) scale(0.1 -0.1)">
      <defs>
       <path id="DejaVuSans-54" d="M -19 4666 
L 3928 4666 
L 3928 4134 
L 2272 4134 
L 2272 0 
L 1638 0 
L 1638 4134 
L -19 4134 
L -19 4666 
z
" transform="scale(0.015625)"/>
       <path id="DejaVuSans-72" d="M 2631 2963 
Q 2534 3019 2420 3045 
Q 2306 3072 2169 3072 
Q 1681 3072 1420 2755 
Q 1159 2438 1159 1844 
L 1159 0 
L 581 0 
L 581 3500 
L 1159 3500 
L 1159 2956 
Q 1341 3275 1631 3429 
Q 1922 3584 2338 3584 
Q 2397 3584 2469 3576 
Q 2541 3569 2628 3553 
L 2631 2963 
z
" transform="scale(0.015625)"/>
       <path id="DejaVuSans-75" d="M 544 1381 
L 544 3500 
L 1119 3500 
L 1119 1403 
Q 1119 906 1312 657 
Q 1506 409 1894 409 
Q 2359 409 2629 706 
Q 2900 1003 2900 1516 
L 2900 3500 
L 3475 3500 
L 3475 0 
L 2900 0 
L 2900 538 
Q 2691 219 2414 64 
Q 2138 -91 1772 -91 
Q 1169 -91 856 284 
Q 544 659 544 1381 
z
M 1991 3584 
L 1991 3584 
z
" transform="scale(0.015625)"/>
       <path id="DejaVuSans-65" d="M 3597 1894 
L 3597 1613 
L 953 1613 
Q 991 1019 1311 708 
Q 1631 397 2203 397 
Q 2534 397 2845 478 
Q 3156 559 3463 722 
L 3463 178 
Q 3153 47 2828 -22 
Q 2503 -91 2169 -91 
Q 1331 -91 842 396 
Q 353 884 353 1716 
Q 353 2575 817 3079 
Q 1281 3584 2069 3584 
Q 2775 3584 3186 3129 
Q 3597 2675 3597 1894 
z
M 3022 2063 
Q 3016 2534 2758 2815 
Q 2500 3097 2075 3097 
Q 1594 3097 1305 2825 
Q 1016 2553 972 2059 
L 3022 2063 
z
" transform="scale(0.015625)"/>
       <path id="DejaVuSans-20" transform="scale(0.015625)"/>
       <path id="DejaVuSans-45" d="M 628 4666 
L 3578 4666 
L 3578 4134 
L 1259 4134 
L 1259 2753 
L 3481 2753 
L 3481 2222 
L 1259 2222 
L 1259 531 
L 3634 531 
L 3634 0 
L 628 0 
L 628 4666 
z
" transform="scale(0.015625)"/>
       <path id="DejaVuSans-6e" d="M 3513 2113 
L 3513 0 
L 2938 0 
L 2938 2094 
Q 2938 2591 2744 2837 
Q 2550 3084 2163 3084 
Q 1697 3084 1428 2787 
Q 1159 2491 1159 1978 
L 1159 0 
L 581 0 
L 581 3500 
L 1159 3500 
L 1159 2956 
Q 1366 3272 1645 3428 
Q 1925 3584 2291 3584 
Q 2894 3584 3203 3211 
Q 3513 2838 3513 2113 
z
" transform="scale(0.015625)"/>
       <path id="DejaVuSans-67" d="M 2906 1791 
Q 2906 2416 2648 2759 
Q 2391 3103 1925 3103 
Q 1463 3103 1205 2759 
Q 947 2416 947 1791 
Q 947 1169 1205 825 
Q 1463 481 1925 481 
Q 2391 481 2648 825 
Q 2906 1169 2906 1791 
z
M 3481 434 
Q 3481 -459 3084 -895 
Q 2688 -1331 1869 -1331 
Q 1566 -1331 1297 -1286 
Q 1028 -1241 775 -1147 
L 775 -588 
Q 1028 -725 1275 -790 
Q 1522 -856 1778 -856 
Q 2344 -856 2625 -561 
Q 2906 -266 2906 331 
L 2906 616 
Q 2728 306 2450 153 
Q 2172 0 1784 0 
Q 1141 0 747 490 
Q 353 981 353 1791 
Q 353 2603 747 3093 
Q 1141 3584 1784 3584 
Q 2172 3584 2450 3431 
Q 2728 3278 2906 2969 
L 2906 3500 
L 3481 3500 
L 3481 434 
z
" transform="scale(0.015625)"/>
       <path id="DejaVuSans-79" d="M 2059 -325 
Q 1816 -950 1584 -1140 
Q 1353 -1331 966 -1331 
L 506 -1331 
L 506 -850 
L 844 -850 
Q 1081 -850 1212 -737 
Q 1344 -625 1503 -206 
L 1606 56 
L 191 3500 
L 800 3500 
L 1894 763 
L 2988 3500 
L 3597 3500 
L 2059 -325 
z
" transform="scale(0.015625)"/>
       <path id="DejaVuSans-5b" d="M 550 4863 
L 1875 4863 
L 1875 4416 
L 1125 4416 
L 1125 -397 
L 1875 -397 
L 1875 -844 
L 550 -844 
L 550 4863 
z
" transform="scale(0.015625)"/>
       <path id="DejaVuSans-56" d="M 1831 0 
L 50 4666 
L 709 4666 
L 2188 738 
L 3669 4666 
L 4325 4666 
L 2547 0 
L 1831 0 
z
" transform="scale(0.015625)"/>
       <path id="DejaVuSans-5d" d="M 1947 4863 
L 1947 -844 
L 622 -844 
L 622 -397 
L 1369 -397 
L 1369 4416 
L 622 4416 
L 622 4863 
L 1947 4863 
z
" transform="scale(0.015625)"/>
      </defs>
      <use xlink:href="#DejaVuSans-54"/>
      <use xlink:href="#DejaVuSans-72" x="46.333984"/>
      <use xlink:href="#DejaVuSans-75" x="87.447266"/>
      <use xlink:href="#DejaVuSans-65" x="150.826172"/>
      <use xlink:href="#DejaVuSans-20" x="212.349609"/>
      <use xlink:href="#DejaVuSans-45" x="244.136719"/>
      <use xlink:href="#DejaVuSans-6e" x="307.320312"/>
      <use xlink:href="#DejaVuSans-65" x="370.699219"/>
      <use xlink:href="#DejaVuSans-72" x="432.222656"/>
      <use xlink:href="#DejaVuSans-67" x="471.585938"/>
      <use xlink:href="#DejaVuSans-79" x="535.0625"/>
      <use xlink:href="#DejaVuSans-20" x="594.242188"/>
      <use xlink:href="#DejaVuSans-5b" x="626.029297"/>
      <use xlink:href="#DejaVuSans-54" x="665.042969"/>
      <use xlink:href="#DejaVuSans-65" x="709.126953"/>
      <use xlink:href="#DejaVuSans-56" x="770.650391"/>
      <use xlink:href="#DejaVuSans-5d" x="839.058594"/>
     </g>
    </g>
   </g>
   <g id="matplotlib.axis_2">
    <g id="ytick_1">
     <g id="line2d_20">
      <defs>
       <path id="mf5aba6ab39" d="M 0 0 
L -3.5 0 
" style="stroke: #000000; stroke-width: 0.8"/>
      </defs>
      <g>
       <use xlink:href="#mf5aba6ab39" x="48.49" y="74.778545" style="stroke: #000000; stroke-width: 0.8"/>
      </g>
     </g>
     <g id="text_5">
      <!-- 0 -->
      <g transform="translate(35.1275 78.577764) scale(0.1 -0.1)">
       <use xlink:href="#DejaVuSans-30"/>
      </g>
     </g>
    </g>
    <g id="ytick_2">
     <g id="line2d_21">
      <g>
       <use xlink:href="#mf5aba6ab39" x="48.49" y="27.789455" style="stroke: #000000; stroke-width: 0.8"/>
      </g>
     </g>
     <g id="text_6">
      <!-- 1 -->
      <g transform="translate(35.1275 31.588673) scale(0.1 -0.1)">
       <use xlink:href="#DejaVuSans-31"/>
      </g>
     </g>
    </g>
   </g>
   <g id="line2d_22">
    <path d="M 48.49 74.778545 
L 257.874352 74.778545 
L 260.337697 37.599051 
L 262.801043 64.968949 
L 265.264388 74.778545 
L 461.8 74.778545 
L 461.8 74.778545 
" clip-path="url(#p6a22efe466)" style="fill: none; stroke: #1f77b4; stroke-width: 1.5; stroke-linecap: square"/>
   </g>
   <g id="line2d_23">
    <path d="M 48.49 74.778545 
L 267.727733 74.778545 
L 270.191078 27.789455 
L 272.654424 74.778545 
L 461.8 74.778545 
L 461.8 74.778545 
" clip-path="url(#p6a22efe466)" style="fill: none; stroke: #ff7f0e; stroke-width: 1.5; stroke-linecap: square"/>
   </g>
   <g id="line2d_24">
    <path d="M 48.49 74.778545 
L 275.117769 74.778545 
L 277.581114 28.134522 
L 280.04446 74.433478 
L 282.507805 74.778545 
L 461.8 74.778545 
L 461.8 74.778545 
" clip-path="url(#p6a22efe466)" style="fill: none; stroke: #2ca02c; stroke-width: 1.5; stroke-linecap: square"/>
   </g>
   <g id="line2d_25">
    <path d="M 48.49 74.778545 
L 282.507805 74.778545 
L 284.97115 39.302269 
L 287.434496 63.265731 
L 289.897841 74.778545 
L 461.8 74.778545 
L 461.8 74.778545 
" clip-path="url(#p6a22efe466)" style="fill: none; stroke: #d62728; stroke-width: 1.5; stroke-linecap: square"/>
   </g>
   <g id="patch_3">
    <path d="M 48.49 77.128 
L 48.49 25.44 
" style="fill: none; stroke: #000000; stroke-width: 0.8; stroke-linejoin: miter; stroke-linecap: square"/>
   </g>
   <g id="patch_4">
    <path d="M 440.98302 77.128 
L 440.98302 25.44 
" style="fill: none; stroke: #000000; stroke-width: 0.8; stroke-linejoin: miter; stroke-linecap: square"/>
   </g>
   <g id="patch_5">
    <path d="M 48.49 77.128 
L 440.98302 77.128 
" style="fill: none; stroke: #000000; stroke-width: 0.8; stroke-linejoin: miter; stroke-linecap: square"/>
   </g>
   <g id="patch_6">
    <path d="M 48.49 25.44 
L 440.98302 25.44 
" style="fill: none; stroke: #000000; stroke-width: 0.8; stroke-linejoin: miter; stroke-linecap: square"/>
   </g>
   <g id="text_7">
    <!-- Gaussian -->
    <g transform="translate(217.210573 19.44) scale(0.12 -0.12)">
     <defs>
      <path id="DejaVuSans-47" d="M 3809 666 
L 3809 1919 
L 2778 1919 
L 2778 2438 
L 4434 2438 
L 4434 434 
Q 4069 175 3628 42 
Q 3188 -91 2688 -91 
Q 1594 -91 976 548 
Q 359 1188 359 2328 
Q 359 3472 976 4111 
Q 1594 4750 2688 4750 
Q 3144 4750 3555 4637 
Q 3966 4525 4313 4306 
L 4313 3634 
Q 3963 3931 3569 4081 
Q 3175 4231 2741 4231 
Q 1884 4231 1454 3753 
Q 1025 3275 1025 2328 
Q 1025 1384 1454 906 
Q 1884 428 2741 428 
Q 3075 428 3337 486 
Q 3600 544 3809 666 
z
" transform="scale(0.015625)"/>
      <path id="DejaVuSans-61" d="M 2194 1759 
Q 1497 1759 1228 1600 
Q 959 1441 959 1056 
Q 959 750 1161 570 
Q 1363 391 1709 391 
Q 2188 391 2477 730 
Q 2766 1069 2766 1631 
L 2766 1759 
L 2194 1759 
z
M 3341 1997 
L 3341 0 
L 2766 0 
L 2766 531 
Q 2569 213 2275 61 
Q 1981 -91 1556 -91 
Q 1019 -91 701 211 
Q 384 513 384 1019 
Q 384 1609 779 1909 
Q 1175 2209 1959 2209 
L 2766 2209 
L 2766 2266 
Q 2766 2663 2505 2880 
Q 2244 3097 1772 3097 
Q 1472 3097 1187 3025 
Q 903 2953 641 2809 
L 641 3341 
Q 956 3463 1253 3523 
Q 1550 3584 1831 3584 
Q 2591 3584 2966 3190 
Q 3341 2797 3341 1997 
z
" transform="scale(0.015625)"/>
      <path id="DejaVuSans-73" d="M 2834 3397 
L 2834 2853 
Q 2591 2978 2328 3040 
Q 2066 3103 1784 3103 
Q 1356 3103 1142 2972 
Q 928 2841 928 2578 
Q 928 2378 1081 2264 
Q 1234 2150 1697 2047 
L 1894 2003 
Q 2506 1872 2764 1633 
Q 3022 1394 3022 966 
Q 3022 478 2636 193 
Q 2250 -91 1575 -91 
Q 1294 -91 989 -36 
Q 684 19 347 128 
L 347 722 
Q 666 556 975 473 
Q 1284 391 1588 391 
Q 1994 391 2212 530 
Q 2431 669 2431 922 
Q 2431 1156 2273 1281 
Q 2116 1406 1581 1522 
L 1381 1569 
Q 847 1681 609 1914 
Q 372 2147 372 2553 
Q 372 3047 722 3315 
Q 1072 3584 1716 3584 
Q 2034 3584 2315 3537 
Q 2597 3491 2834 3397 
z
" transform="scale(0.015625)"/>
      <path id="DejaVuSans-69" d="M 603 3500 
L 1178 3500 
L 1178 0 
L 603 0 
L 603 3500 
z
M 603 4863 
L 1178 4863 
L 1178 4134 
L 603 4134 
L 603 4863 
z
" transform="scale(0.015625)"/>
     </defs>
     <use xlink:href="#DejaVuSans-47"/>
     <use xlink:href="#DejaVuSans-61" x="77.490234"/>
     <use xlink:href="#DejaVuSans-75" x="138.769531"/>
     <use xlink:href="#DejaVuSans-73" x="202.148438"/>
     <use xlink:href="#DejaVuSans-73" x="254.248047"/>
     <use xlink:href="#DejaVuSans-69" x="306.347656"/>
     <use xlink:href="#DejaVuSans-61" x="334.130859"/>
     <use xlink:href="#DejaVuSans-6e" x="395.410156"/>
    </g>
   </g>
   <g id="legend_1">
    <g id="patch_7">
     <path d="M 55.49 82.14025 
L 135.844688 82.14025 
Q 137.844688 82.14025 137.844688 80.14025 
L 137.844688 22.42775 
Q 137.844688 20.42775 135.844688 20.42775 
L 55.49 20.42775 
Q 53.49 20.42775 53.49 22.42775 
L 53.49 80.14025 
Q 53.49 82.14025 55.49 82.14025 
z
" style="fill: #ffffff; opacity: 0.8; stroke: #cccccc; stroke-linejoin: miter"/>
    </g>
    <g id="line2d_26">
     <path d="M 57.49 28.526187 
L 67.49 28.526187 
L 77.49 28.526187 
" style="fill: none; stroke: #1f77b4; stroke-width: 1.5; stroke-linecap: square"/>
    </g>
    <g id="text_8">
     <!-- bias=-0.1 -->
     <g transform="translate(85.49 32.026187) scale(0.1 -0.1)">
      <defs>
       <path id="DejaVuSans-62" d="M 3116 1747 
Q 3116 2381 2855 2742 
Q 2594 3103 2138 3103 
Q 1681 3103 1420 2742 
Q 1159 2381 1159 1747 
Q 1159 1113 1420 752 
Q 1681 391 2138 391 
Q 2594 391 2855 752 
Q 3116 1113 3116 1747 
z
M 1159 2969 
Q 1341 3281 1617 3432 
Q 1894 3584 2278 3584 
Q 2916 3584 3314 3078 
Q 3713 2572 3713 1747 
Q 3713 922 3314 415 
Q 2916 -91 2278 -91 
Q 1894 -91 1617 61 
Q 1341 213 1159 525 
L 1159 0 
L 581 0 
L 581 4863 
L 1159 4863 
L 1159 2969 
z
" transform="scale(0.015625)"/>
       <path id="DejaVuSans-3d" d="M 678 2906 
L 4684 2906 
L 4684 2381 
L 678 2381 
L 678 2906 
z
M 678 1631 
L 4684 1631 
L 4684 1100 
L 678 1100 
L 678 1631 
z
" transform="scale(0.015625)"/>
       <path id="DejaVuSans-2d" d="M 313 2009 
L 1997 2009 
L 1997 1497 
L 313 1497 
L 313 2009 
z
" transform="scale(0.015625)"/>
       <path id="DejaVuSans-2e" d="M 684 794 
L 1344 794 
L 1344 0 
L 684 0 
L 684 794 
z
" transform="scale(0.015625)"/>
      </defs>
      <use xlink:href="#DejaVuSans-62"/>
      <use xlink:href="#DejaVuSans-69" x="63.476562"/>
      <use xlink:href="#DejaVuSans-61" x="91.259766"/>
      <use xlink:href="#DejaVuSans-73" x="152.539062"/>
      <use xlink:href="#DejaVuSans-3d" x="204.638672"/>
      <use xlink:href="#DejaVuSans-2d" x="288.427734"/>
      <use xlink:href="#DejaVuSans-30" x="324.511719"/>
      <use xlink:href="#DejaVuSans-2e" x="388.134766"/>
      <use xlink:href="#DejaVuSans-31" x="419.921875"/>
     </g>
    </g>
    <g id="line2d_27">
     <path d="M 57.49 43.204312 
L 67.49 43.204312 
L 77.49 43.204312 
" style="fill: none; stroke: #ff7f0e; stroke-width: 1.5; stroke-linecap: square"/>
    </g>
    <g id="text_9">
     <!-- bias=0.0 -->
     <g transform="translate(85.49 46.704312) scale(0.1 -0.1)">
      <use xlink:href="#DejaVuSans-62"/>
      <use xlink:href="#DejaVuSans-69" x="63.476562"/>
      <use xlink:href="#DejaVuSans-61" x="91.259766"/>
      <use xlink:href="#DejaVuSans-73" x="152.539062"/>
      <use xlink:href="#DejaVuSans-3d" x="204.638672"/>
      <use xlink:href="#DejaVuSans-30" x="288.427734"/>
      <use xlink:href="#DejaVuSans-2e" x="352.050781"/>
      <use xlink:href="#DejaVuSans-30" x="383.837891"/>
     </g>
    </g>
    <g id="line2d_28">
     <path d="M 57.49 57.882437 
L 67.49 57.882437 
L 77.49 57.882437 
" style="fill: none; stroke: #2ca02c; stroke-width: 1.5; stroke-linecap: square"/>
    </g>
    <g id="text_10">
     <!-- bias=0.1 -->
     <g transform="translate(85.49 61.382437) scale(0.1 -0.1)">
      <use xlink:href="#DejaVuSans-62"/>
      <use xlink:href="#DejaVuSans-69" x="63.476562"/>
      <use xlink:href="#DejaVuSans-61" x="91.259766"/>
      <use xlink:href="#DejaVuSans-73" x="152.539062"/>
      <use xlink:href="#DejaVuSans-3d" x="204.638672"/>
      <use xlink:href="#DejaVuSans-30" x="288.427734"/>
      <use xlink:href="#DejaVuSans-2e" x="352.050781"/>
      <use xlink:href="#DejaVuSans-31" x="383.837891"/>
     </g>
    </g>
    <g id="line2d_29">
     <path d="M 57.49 72.560562 
L 67.49 72.560562 
L 77.49 72.560562 
" style="fill: none; stroke: #d62728; stroke-width: 1.5; stroke-linecap: square"/>
    </g>
    <g id="text_11">
     <!-- bias=0.2 -->
     <g transform="translate(85.49 76.060562) scale(0.1 -0.1)">
      <defs>
       <path id="DejaVuSans-32" d="M 1228 531 
L 3431 531 
L 3431 0 
L 469 0 
L 469 531 
Q 828 903 1448 1529 
Q 2069 2156 2228 2338 
Q 2531 2678 2651 2914 
Q 2772 3150 2772 3378 
Q 2772 3750 2511 3984 
Q 2250 4219 1831 4219 
Q 1534 4219 1204 4116 
Q 875 4013 500 3803 
L 500 4441 
Q 881 4594 1212 4672 
Q 1544 4750 1819 4750 
Q 2544 4750 2975 4387 
Q 3406 4025 3406 3419 
Q 3406 3131 3298 2873 
Q 3191 2616 2906 2266 
Q 2828 2175 2409 1742 
Q 1991 1309 1228 531 
z
" transform="scale(0.015625)"/>
      </defs>
      <use xlink:href="#DejaVuSans-62"/>
      <use xlink:href="#DejaVuSans-69" x="63.476562"/>
      <use xlink:href="#DejaVuSans-61" x="91.259766"/>
      <use xlink:href="#DejaVuSans-73" x="152.539062"/>
      <use xlink:href="#DejaVuSans-3d" x="204.638672"/>
      <use xlink:href="#DejaVuSans-30" x="288.427734"/>
      <use xlink:href="#DejaVuSans-2e" x="352.050781"/>
      <use xlink:href="#DejaVuSans-32" x="383.837891"/>
     </g>
    </g>
   </g>
  </g>
  <g id="axes_2">
   <g id="patch_8">
    <path d="M 48.49 188.728 
L 440.98302 188.728 
L 440.98302 137.04 
L 48.49 137.04 
z
" style="fill: #ffffff"/>
   </g>
   <g id="matplotlib.axis_3">
    <g id="xtick_20">
     <g id="line2d_30">
      <g>
       <use xlink:href="#m2efbdf436b" x="48.49" y="188.728" style="stroke: #000000; stroke-width: 0.8"/>
      </g>
     </g>
     <g id="text_12">
      <!-- $\mathdefault{10^{-1}}$ -->
      <g transform="translate(36.74 203.326437) scale(0.1 -0.1)">
       <use xlink:href="#DejaVuSans-31" transform="translate(0 0.684375)"/>
       <use xlink:href="#DejaVuSans-30" transform="translate(63.623047 0.684375)"/>
       <use xlink:href="#DejaVuSans-2212" transform="translate(128.203125 38.965625) scale(0.7)"/>
       <use xlink:href="#DejaVuSans-31" transform="translate(186.855469 38.965625) scale(0.7)"/>
      </g>
     </g>
    </g>
    <g id="xtick_21">
     <g id="line2d_31">
      <g>
       <use xlink:href="#m2efbdf436b" x="244.73651" y="188.728" style="stroke: #000000; stroke-width: 0.8"/>
      </g>
     </g>
     <g id="text_13">
      <!-- $\mathdefault{10^{0}}$ -->
      <g transform="translate(235.93651 203.326437) scale(0.1 -0.1)">
       <use xlink:href="#DejaVuSans-31" transform="translate(0 0.765625)"/>
       <use xlink:href="#DejaVuSans-30" transform="translate(63.623047 0.765625)"/>
       <use xlink:href="#DejaVuSans-30" transform="translate(128.203125 39.046875) scale(0.7)"/>
      </g>
     </g>
    </g>
    <g id="xtick_22">
     <g id="line2d_32">
      <g>
       <use xlink:href="#m2efbdf436b" x="440.98302" y="188.728" style="stroke: #000000; stroke-width: 0.8"/>
      </g>
     </g>
     <g id="text_14">
      <!-- $\mathdefault{10^{1}}$ -->
      <g transform="translate(432.18302 203.326437) scale(0.1 -0.1)">
       <use xlink:href="#DejaVuSans-31" transform="translate(0 0.684375)"/>
       <use xlink:href="#DejaVuSans-30" transform="translate(63.623047 0.684375)"/>
       <use xlink:href="#DejaVuSans-31" transform="translate(128.203125 38.965625) scale(0.7)"/>
      </g>
     </g>
    </g>
    <g id="xtick_23">
     <g id="line2d_33">
      <g>
       <use xlink:href="#m79526eab9e" x="107.566086" y="188.728" style="stroke: #000000; stroke-width: 0.6"/>
      </g>
     </g>
    </g>
    <g id="xtick_24">
     <g id="line2d_34">
      <g>
       <use xlink:href="#m79526eab9e" x="142.123381" y="188.728" style="stroke: #000000; stroke-width: 0.6"/>
      </g>
     </g>
    </g>
    <g id="xtick_25">
     <g id="line2d_35">
      <g>
       <use xlink:href="#m79526eab9e" x="166.642172" y="188.728" style="stroke: #000000; stroke-width: 0.6"/>
      </g>
     </g>
    </g>
    <g id="xtick_26">
     <g id="line2d_36">
      <g>
       <use xlink:href="#m79526eab9e" x="185.660424" y="188.728" style="stroke: #000000; stroke-width: 0.6"/>
      </g>
     </g>
    </g>
    <g id="xtick_27">
     <g id="line2d_37">
      <g>
       <use xlink:href="#m79526eab9e" x="201.199467" y="188.728" style="stroke: #000000; stroke-width: 0.6"/>
      </g>
     </g>
    </g>
    <g id="xtick_28">
     <g id="line2d_38">
      <g>
       <use xlink:href="#m79526eab9e" x="214.337541" y="188.728" style="stroke: #000000; stroke-width: 0.6"/>
      </g>
     </g>
    </g>
    <g id="xtick_29">
     <g id="line2d_39">
      <g>
       <use xlink:href="#m79526eab9e" x="225.718258" y="188.728" style="stroke: #000000; stroke-width: 0.6"/>
      </g>
     </g>
    </g>
    <g id="xtick_30">
     <g id="line2d_40">
      <g>
       <use xlink:href="#m79526eab9e" x="235.756762" y="188.728" style="stroke: #000000; stroke-width: 0.6"/>
      </g>
     </g>
    </g>
    <g id="xtick_31">
     <g id="line2d_41">
      <g>
       <use xlink:href="#m79526eab9e" x="303.812596" y="188.728" style="stroke: #000000; stroke-width: 0.6"/>
      </g>
     </g>
    </g>
    <g id="xtick_32">
     <g id="line2d_42">
      <g>
       <use xlink:href="#m79526eab9e" x="338.369891" y="188.728" style="stroke: #000000; stroke-width: 0.6"/>
      </g>
     </g>
    </g>
    <g id="xtick_33">
     <g id="line2d_43">
      <g>
       <use xlink:href="#m79526eab9e" x="362.888682" y="188.728" style="stroke: #000000; stroke-width: 0.6"/>
      </g>
     </g>
    </g>
    <g id="xtick_34">
     <g id="line2d_44">
      <g>
       <use xlink:href="#m79526eab9e" x="381.906934" y="188.728" style="stroke: #000000; stroke-width: 0.6"/>
      </g>
     </g>
    </g>
    <g id="xtick_35">
     <g id="line2d_45">
      <g>
       <use xlink:href="#m79526eab9e" x="397.445978" y="188.728" style="stroke: #000000; stroke-width: 0.6"/>
      </g>
     </g>
    </g>
    <g id="xtick_36">
     <g id="line2d_46">
      <g>
       <use xlink:href="#m79526eab9e" x="410.584051" y="188.728" style="stroke: #000000; stroke-width: 0.6"/>
      </g>
     </g>
    </g>
    <g id="xtick_37">
     <g id="line2d_47">
      <g>
       <use xlink:href="#m79526eab9e" x="421.964769" y="188.728" style="stroke: #000000; stroke-width: 0.6"/>
      </g>
     </g>
    </g>
    <g id="xtick_38">
     <g id="line2d_48">
      <g>
       <use xlink:href="#m79526eab9e" x="432.003273" y="188.728" style="stroke: #000000; stroke-width: 0.6"/>
      </g>
     </g>
    </g>
    <g id="text_15">
     <!-- True Energy [TeV] -->
     <g transform="translate(200.832604 217.004562) scale(0.1 -0.1)">
      <use xlink:href="#DejaVuSans-54"/>
      <use xlink:href="#DejaVuSans-72" x="46.333984"/>
      <use xlink:href="#DejaVuSans-75" x="87.447266"/>
      <use xlink:href="#DejaVuSans-65" x="150.826172"/>
      <use xlink:href="#DejaVuSans-20" x="212.349609"/>
      <use xlink:href="#DejaVuSans-45" x="244.136719"/>
      <use xlink:href="#DejaVuSans-6e" x="307.320312"/>
      <use xlink:href="#DejaVuSans-65" x="370.699219"/>
      <use xlink:href="#DejaVuSans-72" x="432.222656"/>
      <use xlink:href="#DejaVuSans-67" x="471.585938"/>
      <use xlink:href="#DejaVuSans-79" x="535.0625"/>
      <use xlink:href="#DejaVuSans-20" x="594.242188"/>
      <use xlink:href="#DejaVuSans-5b" x="626.029297"/>
      <use xlink:href="#DejaVuSans-54" x="665.042969"/>
      <use xlink:href="#DejaVuSans-65" x="709.126953"/>
      <use xlink:href="#DejaVuSans-56" x="770.650391"/>
      <use xlink:href="#DejaVuSans-5d" x="839.058594"/>
     </g>
    </g>
   </g>
   <g id="matplotlib.axis_4">
    <g id="ytick_3">
     <g id="line2d_49">
      <g>
       <use xlink:href="#mf5aba6ab39" x="48.49" y="186.378545" style="stroke: #000000; stroke-width: 0.8"/>
      </g>
     </g>
     <g id="text_16">
      <!-- 0.00 -->
      <g transform="translate(19.224375 190.177764) scale(0.1 -0.1)">
       <use xlink:href="#DejaVuSans-30"/>
       <use xlink:href="#DejaVuSans-2e" x="63.623047"/>
       <use xlink:href="#DejaVuSans-30" x="95.410156"/>
       <use xlink:href="#DejaVuSans-30" x="159.033203"/>
      </g>
     </g>
    </g>
    <g id="ytick_4">
     <g id="line2d_50">
      <g>
       <use xlink:href="#mf5aba6ab39" x="48.49" y="159.587848" style="stroke: #000000; stroke-width: 0.8"/>
      </g>
     </g>
     <g id="text_17">
      <!-- 0.25 -->
      <g transform="translate(19.224375 163.387066) scale(0.1 -0.1)">
       <defs>
        <path id="DejaVuSans-35" d="M 691 4666 
L 3169 4666 
L 3169 4134 
L 1269 4134 
L 1269 2991 
Q 1406 3038 1543 3061 
Q 1681 3084 1819 3084 
Q 2600 3084 3056 2656 
Q 3513 2228 3513 1497 
Q 3513 744 3044 326 
Q 2575 -91 1722 -91 
Q 1428 -91 1123 -41 
Q 819 9 494 109 
L 494 744 
Q 775 591 1075 516 
Q 1375 441 1709 441 
Q 2250 441 2565 725 
Q 2881 1009 2881 1497 
Q 2881 1984 2565 2268 
Q 2250 2553 1709 2553 
Q 1456 2553 1204 2497 
Q 953 2441 691 2322 
L 691 4666 
z
" transform="scale(0.015625)"/>
       </defs>
       <use xlink:href="#DejaVuSans-30"/>
       <use xlink:href="#DejaVuSans-2e" x="63.623047"/>
       <use xlink:href="#DejaVuSans-32" x="95.410156"/>
       <use xlink:href="#DejaVuSans-35" x="159.033203"/>
      </g>
     </g>
    </g>
   </g>
   <g id="line2d_51">
    <path d="M 48.49 186.378545 
L 183.973992 186.356849 
L 186.437338 186.080759 
L 191.364028 186.007915 
L 208.607446 186.007915 
L 211.070791 183.206906 
L 213.534136 182.467875 
L 233.240899 182.467875 
L 235.704244 168.903102 
L 238.167589 165.324115 
L 257.874352 165.324115 
L 260.337697 144.803659 
L 262.801043 139.389455 
L 282.507805 139.389455 
L 284.97115 164.279871 
L 287.434496 170.847065 
L 307.141258 170.847065 
L 309.604604 179.123147 
L 312.067949 181.306744 
L 331.774711 181.306744 
L 334.238057 183.518509 
L 336.701402 184.10207 
L 356.408165 184.10207 
L 358.87151 185.383582 
L 361.334855 185.721701 
L 381.041618 185.721701 
L 383.504963 186.191547 
L 385.968308 186.315514 
L 461.8 186.378545 
L 461.8 186.378545 
" clip-path="url(#p22ab39fac7)" style="fill: none; stroke: #1f77b4; stroke-width: 1.5; stroke-linecap: square"/>
   </g>
   <g id="line2d_52">
    <path d="M 48.49 186.378545 
L 193.827374 186.356849 
L 196.290719 186.007915 
L 218.460827 186.007915 
L 220.924172 182.467875 
L 243.09428 182.467875 
L 245.557625 165.324115 
L 267.727733 165.324115 
L 270.191078 139.389455 
L 292.361186 139.389455 
L 294.824532 170.847065 
L 316.994639 170.847065 
L 319.457985 181.306744 
L 341.628093 181.306744 
L 344.091438 184.10207 
L 366.261546 184.10207 
L 368.724891 185.721701 
L 390.894999 185.721701 
L 393.358344 186.315514 
L 461.8 186.378545 
L 461.8 186.378545 
" clip-path="url(#p22ab39fac7)" style="fill: none; stroke: #ff7f0e; stroke-width: 1.5; stroke-linecap: square"/>
   </g>
   <g id="line2d_53">
    <path d="M 48.49 186.378545 
L 201.21741 186.356849 
L 203.680755 186.010477 
L 225.850863 186.007915 
L 228.314208 182.493872 
L 240.630935 182.467875 
L 250.484316 182.467875 
L 252.947661 165.450011 
L 255.411007 165.324115 
L 275.117769 165.324115 
L 277.581114 139.579908 
L 280.04446 139.389455 
L 299.751222 139.389455 
L 302.214568 170.616053 
L 304.677913 170.847065 
L 324.384675 170.847065 
L 326.848021 181.229932 
L 331.774711 181.306744 
L 349.018129 181.306744 
L 351.481474 184.081543 
L 366.261546 184.10207 
L 373.651582 184.10207 
L 376.114927 185.709807 
L 398.285035 185.721701 
L 400.74838 186.311153 
L 461.8 186.378545 
L 461.8 186.378545 
" clip-path="url(#p22ab39fac7)" style="fill: none; stroke: #2ca02c; stroke-width: 1.5; stroke-linecap: square"/>
   </g>
   <g id="line2d_54">
    <path d="M 48.49 186.378545 
L 208.607446 186.356849 
L 211.070791 186.093407 
L 215.997482 186.007915 
L 233.240899 186.007915 
L 235.704244 183.335222 
L 238.167589 182.467875 
L 257.874352 182.467875 
L 260.337697 169.524514 
L 262.801043 165.324115 
L 282.507805 165.324115 
L 284.97115 145.743715 
L 287.434496 139.389455 
L 307.141258 139.389455 
L 309.604604 163.139624 
L 312.067949 170.847065 
L 331.774711 170.847065 
L 334.238057 178.744014 
L 336.701402 181.306744 
L 356.408165 181.306744 
L 358.87151 183.417186 
L 361.334855 184.10207 
L 381.041618 184.10207 
L 383.504963 185.324875 
L 385.968308 185.721701 
L 405.675071 185.721701 
L 408.138416 186.170023 
L 410.601762 186.315514 
L 461.8 186.378545 
L 461.8 186.378545 
" clip-path="url(#p22ab39fac7)" style="fill: none; stroke: #d62728; stroke-width: 1.5; stroke-linecap: square"/>
   </g>
   <g id="line2d_55">
    <path d="M 48.49 186.378545 
L 193.827374 186.356849 
L 196.290719 186.007915 
L 218.460827 186.007915 
L 220.924172 182.467875 
L 243.09428 182.467875 
L 245.557625 165.324115 
L 267.727733 165.324115 
L 270.191078 139.389455 
L 292.361186 139.389455 
L 294.824532 170.847065 
L 316.994639 170.847065 
L 319.457985 181.306744 
L 341.628093 181.306744 
L 344.091438 184.10207 
L 366.261546 184.10207 
L 368.724891 185.721701 
L 390.894999 185.721701 
L 393.358344 186.315514 
L 461.8 186.378545 
L 461.8 186.378545 
" clip-path="url(#p22ab39fac7)" style="fill: none; stroke: #9467bd; stroke-width: 1.5; stroke-linecap: square"/>
   </g>
   <g id="patch_9">
    <path d="M 48.49 188.728 
L 48.49 137.04 
" style="fill: none; stroke: #000000; stroke-width: 0.8; stroke-linejoin: miter; stroke-linecap: square"/>
   </g>
   <g id="patch_10">
    <path d="M 440.98302 188.728 
L 440.98302 137.04 
" style="fill: none; stroke: #000000; stroke-width: 0.8; stroke-linejoin: miter; stroke-linecap: square"/>
   </g>
   <g id="patch_11">
    <path d="M 48.49 188.728 
L 440.98302 188.728 
" style="fill: none; stroke: #000000; stroke-width: 0.8; stroke-linejoin: miter; stroke-linecap: square"/>
   </g>
   <g id="patch_12">
    <path d="M 48.49 137.04 
L 440.98302 137.04 
" style="fill: none; stroke: #000000; stroke-width: 0.8; stroke-linejoin: miter; stroke-linecap: square"/>
   </g>
   <g id="text_18">
    <!-- Convolved -->
    <g transform="translate(213.13151 131.04) scale(0.12 -0.12)">
     <defs>
      <path id="DejaVuSans-43" d="M 4122 4306 
L 4122 3641 
Q 3803 3938 3442 4084 
Q 3081 4231 2675 4231 
Q 1875 4231 1450 3742 
Q 1025 3253 1025 2328 
Q 1025 1406 1450 917 
Q 1875 428 2675 428 
Q 3081 428 3442 575 
Q 3803 722 4122 1019 
L 4122 359 
Q 3791 134 3420 21 
Q 3050 -91 2638 -91 
Q 1578 -91 968 557 
Q 359 1206 359 2328 
Q 359 3453 968 4101 
Q 1578 4750 2638 4750 
Q 3056 4750 3426 4639 
Q 3797 4528 4122 4306 
z
" transform="scale(0.015625)"/>
      <path id="DejaVuSans-6f" d="M 1959 3097 
Q 1497 3097 1228 2736 
Q 959 2375 959 1747 
Q 959 1119 1226 758 
Q 1494 397 1959 397 
Q 2419 397 2687 759 
Q 2956 1122 2956 1747 
Q 2956 2369 2687 2733 
Q 2419 3097 1959 3097 
z
M 1959 3584 
Q 2709 3584 3137 3096 
Q 3566 2609 3566 1747 
Q 3566 888 3137 398 
Q 2709 -91 1959 -91 
Q 1206 -91 779 398 
Q 353 888 353 1747 
Q 353 2609 779 3096 
Q 1206 3584 1959 3584 
z
" transform="scale(0.015625)"/>
      <path id="DejaVuSans-76" d="M 191 3500 
L 800 3500 
L 1894 563 
L 2988 3500 
L 3597 3500 
L 2284 0 
L 1503 0 
L 191 3500 
z
" transform="scale(0.015625)"/>
      <path id="DejaVuSans-6c" d="M 603 4863 
L 1178 4863 
L 1178 0 
L 603 0 
L 603 4863 
z
" transform="scale(0.015625)"/>
      <path id="DejaVuSans-64" d="M 2906 2969 
L 2906 4863 
L 3481 4863 
L 3481 0 
L 2906 0 
L 2906 525 
Q 2725 213 2448 61 
Q 2172 -91 1784 -91 
Q 1150 -91 751 415 
Q 353 922 353 1747 
Q 353 2572 751 3078 
Q 1150 3584 1784 3584 
Q 2172 3584 2448 3432 
Q 2725 3281 2906 2969 
z
M 947 1747 
Q 947 1113 1208 752 
Q 1469 391 1925 391 
Q 2381 391 2643 752 
Q 2906 1113 2906 1747 
Q 2906 2381 2643 2742 
Q 2381 3103 1925 3103 
Q 1469 3103 1208 2742 
Q 947 2381 947 1747 
z
" transform="scale(0.015625)"/>
     </defs>
     <use xlink:href="#DejaVuSans-43"/>
     <use xlink:href="#DejaVuSans-6f" x="69.824219"/>
     <use xlink:href="#DejaVuSans-6e" x="131.005859"/>
     <use xlink:href="#DejaVuSans-76" x="194.384766"/>
     <use xlink:href="#DejaVuSans-6f" x="253.564453"/>
     <use xlink:href="#DejaVuSans-6c" x="314.746094"/>
     <use xlink:href="#DejaVuSans-76" x="342.529297"/>
     <use xlink:href="#DejaVuSans-65" x="401.708984"/>
     <use xlink:href="#DejaVuSans-64" x="463.232422"/>
    </g>
   </g>
   <g id="legend_2">
    <g id="patch_13">
     <path d="M 55.49 201.079312 
L 135.844688 201.079312 
Q 137.844688 201.079312 137.844688 199.079312 
L 137.844688 126.688687 
Q 137.844688 124.688687 135.844688 124.688687 
L 55.49 124.688687 
Q 53.49 124.688687 53.49 126.688687 
L 53.49 199.079312 
Q 53.49 201.079312 55.49 201.079312 
z
" style="fill: #ffffff; opacity: 0.8; stroke: #cccccc; stroke-linejoin: miter"/>
    </g>
    <g id="line2d_56">
     <path d="M 57.49 132.787125 
L 67.49 132.787125 
L 77.49 132.787125 
" style="fill: none; stroke: #1f77b4; stroke-width: 1.5; stroke-linecap: square"/>
    </g>
    <g id="text_19">
     <!-- bias=-0.1 -->
     <g transform="translate(85.49 136.287125) scale(0.1 -0.1)">
      <use xlink:href="#DejaVuSans-62"/>
      <use xlink:href="#DejaVuSans-69" x="63.476562"/>
      <use xlink:href="#DejaVuSans-61" x="91.259766"/>
      <use xlink:href="#DejaVuSans-73" x="152.539062"/>
      <use xlink:href="#DejaVuSans-3d" x="204.638672"/>
      <use xlink:href="#DejaVuSans-2d" x="288.427734"/>
      <use xlink:href="#DejaVuSans-30" x="324.511719"/>
      <use xlink:href="#DejaVuSans-2e" x="388.134766"/>
      <use xlink:href="#DejaVuSans-31" x="419.921875"/>
     </g>
    </g>
    <g id="line2d_57">
     <path d="M 57.49 147.46525 
L 67.49 147.46525 
L 77.49 147.46525 
" style="fill: none; stroke: #ff7f0e; stroke-width: 1.5; stroke-linecap: square"/>
    </g>
    <g id="text_20">
     <!-- bias=0.0 -->
     <g transform="translate(85.49 150.96525) scale(0.1 -0.1)">
      <use xlink:href="#DejaVuSans-62"/>
      <use xlink:href="#DejaVuSans-69" x="63.476562"/>
      <use xlink:href="#DejaVuSans-61" x="91.259766"/>
      <use xlink:href="#DejaVuSans-73" x="152.539062"/>
      <use xlink:href="#DejaVuSans-3d" x="204.638672"/>
      <use xlink:href="#DejaVuSans-30" x="288.427734"/>
      <use xlink:href="#DejaVuSans-2e" x="352.050781"/>
      <use xlink:href="#DejaVuSans-30" x="383.837891"/>
     </g>
    </g>
    <g id="line2d_58">
     <path d="M 57.49 162.143375 
L 67.49 162.143375 
L 77.49 162.143375 
" style="fill: none; stroke: #2ca02c; stroke-width: 1.5; stroke-linecap: square"/>
    </g>
    <g id="text_21">
     <!-- bias=0.1 -->
     <g transform="translate(85.49 165.643375) scale(0.1 -0.1)">
      <use xlink:href="#DejaVuSans-62"/>
      <use xlink:href="#DejaVuSans-69" x="63.476562"/>
      <use xlink:href="#DejaVuSans-61" x="91.259766"/>
      <use xlink:href="#DejaVuSans-73" x="152.539062"/>
      <use xlink:href="#DejaVuSans-3d" x="204.638672"/>
      <use xlink:href="#DejaVuSans-30" x="288.427734"/>
      <use xlink:href="#DejaVuSans-2e" x="352.050781"/>
      <use xlink:href="#DejaVuSans-31" x="383.837891"/>
     </g>
    </g>
    <g id="line2d_59">
     <path d="M 57.49 176.8215 
L 67.49 176.8215 
L 77.49 176.8215 
" style="fill: none; stroke: #d62728; stroke-width: 1.5; stroke-linecap: square"/>
    </g>
    <g id="text_22">
     <!-- bias=0.2 -->
     <g transform="translate(85.49 180.3215) scale(0.1 -0.1)">
      <use xlink:href="#DejaVuSans-62"/>
      <use xlink:href="#DejaVuSans-69" x="63.476562"/>
      <use xlink:href="#DejaVuSans-61" x="91.259766"/>
      <use xlink:href="#DejaVuSans-73" x="152.539062"/>
      <use xlink:href="#DejaVuSans-3d" x="204.638672"/>
      <use xlink:href="#DejaVuSans-30" x="288.427734"/>
      <use xlink:href="#DejaVuSans-2e" x="352.050781"/>
      <use xlink:href="#DejaVuSans-32" x="383.837891"/>
     </g>
    </g>
    <g id="line2d_60">
     <path d="M 57.49 191.499625 
L 67.49 191.499625 
L 77.49 191.499625 
" style="fill: none; stroke: #9467bd; stroke-width: 1.5; stroke-linecap: square"/>
    </g>
    <g id="text_23">
     <!-- data -->
     <g transform="translate(85.49 194.999625) scale(0.1 -0.1)">
      <defs>
       <path id="DejaVuSans-74" d="M 1172 4494 
L 1172 3500 
L 2356 3500 
L 2356 3053 
L 1172 3053 
L 1172 1153 
Q 1172 725 1289 603 
Q 1406 481 1766 481 
L 2356 481 
L 2356 0 
L 1766 0 
Q 1100 0 847 248 
Q 594 497 594 1153 
L 594 3053 
L 172 3053 
L 172 3500 
L 594 3500 
L 594 4494 
L 1172 4494 
z
" transform="scale(0.015625)"/>
      </defs>
      <use xlink:href="#DejaVuSans-64"/>
      <use xlink:href="#DejaVuSans-61" x="63.476562"/>
      <use xlink:href="#DejaVuSans-74" x="124.755859"/>
      <use xlink:href="#DejaVuSans-61" x="163.964844"/>
     </g>
    </g>
   </g>
  </g>
  <g id="axes_3">
   <g id="patch_14">
    <path d="M 48.49 300.328 
L 440.98302 300.328 
L 440.98302 248.64 
L 48.49 248.64 
z
" style="fill: #ffffff"/>
   </g>
   <g id="matplotlib.axis_5">
    <g id="xtick_39">
     <g id="line2d_61">
      <g>
       <use xlink:href="#m2efbdf436b" x="48.49" y="300.328" style="stroke: #000000; stroke-width: 0.8"/>
      </g>
     </g>
     <g id="text_24">
      <!-- $\mathdefault{10^{-1}}$ -->
      <g transform="translate(36.74 314.926437) scale(0.1 -0.1)">
       <use xlink:href="#DejaVuSans-31" transform="translate(0 0.684375)"/>
       <use xlink:href="#DejaVuSans-30" transform="translate(63.623047 0.684375)"/>
       <use xlink:href="#DejaVuSans-2212" transform="translate(128.203125 38.965625) scale(0.7)"/>
       <use xlink:href="#DejaVuSans-31" transform="translate(186.855469 38.965625) scale(0.7)"/>
      </g>
     </g>
    </g>
    <g id="xtick_40">
     <g id="line2d_62">
      <g>
       <use xlink:href="#m2efbdf436b" x="244.73651" y="300.328" style="stroke: #000000; stroke-width: 0.8"/>
      </g>
     </g>
     <g id="text_25">
      <!-- $\mathdefault{10^{0}}$ -->
      <g transform="translate(235.93651 314.926437) scale(0.1 -0.1)">
       <use xlink:href="#DejaVuSans-31" transform="translate(0 0.765625)"/>
       <use xlink:href="#DejaVuSans-30" transform="translate(63.623047 0.765625)"/>
       <use xlink:href="#DejaVuSans-30" transform="translate(128.203125 39.046875) scale(0.7)"/>
      </g>
     </g>
    </g>
    <g id="xtick_41">
     <g id="line2d_63">
      <g>
       <use xlink:href="#m2efbdf436b" x="440.98302" y="300.328" style="stroke: #000000; stroke-width: 0.8"/>
      </g>
     </g>
     <g id="text_26">
      <!-- $\mathdefault{10^{1}}$ -->
      <g transform="translate(432.18302 314.926437) scale(0.1 -0.1)">
       <use xlink:href="#DejaVuSans-31" transform="translate(0 0.684375)"/>
       <use xlink:href="#DejaVuSans-30" transform="translate(63.623047 0.684375)"/>
       <use xlink:href="#DejaVuSans-31" transform="translate(128.203125 38.965625) scale(0.7)"/>
      </g>
     </g>
    </g>
    <g id="xtick_42">
     <g id="line2d_64">
      <g>
       <use xlink:href="#m79526eab9e" x="107.566086" y="300.328" style="stroke: #000000; stroke-width: 0.6"/>
      </g>
     </g>
    </g>
    <g id="xtick_43">
     <g id="line2d_65">
      <g>
       <use xlink:href="#m79526eab9e" x="142.123381" y="300.328" style="stroke: #000000; stroke-width: 0.6"/>
      </g>
     </g>
    </g>
    <g id="xtick_44">
     <g id="line2d_66">
      <g>
       <use xlink:href="#m79526eab9e" x="166.642172" y="300.328" style="stroke: #000000; stroke-width: 0.6"/>
      </g>
     </g>
    </g>
    <g id="xtick_45">
     <g id="line2d_67">
      <g>
       <use xlink:href="#m79526eab9e" x="185.660424" y="300.328" style="stroke: #000000; stroke-width: 0.6"/>
      </g>
     </g>
    </g>
    <g id="xtick_46">
     <g id="line2d_68">
      <g>
       <use xlink:href="#m79526eab9e" x="201.199467" y="300.328" style="stroke: #000000; stroke-width: 0.6"/>
      </g>
     </g>
    </g>
    <g id="xtick_47">
     <g id="line2d_69">
      <g>
       <use xlink:href="#m79526eab9e" x="214.337541" y="300.328" style="stroke: #000000; stroke-width: 0.6"/>
      </g>
     </g>
    </g>
    <g id="xtick_48">
     <g id="line2d_70">
      <g>
       <use xlink:href="#m79526eab9e" x="225.718258" y="300.328" style="stroke: #000000; stroke-width: 0.6"/>
      </g>
     </g>
    </g>
    <g id="xtick_49">
     <g id="line2d_71">
      <g>
       <use xlink:href="#m79526eab9e" x="235.756762" y="300.328" style="stroke: #000000; stroke-width: 0.6"/>
      </g>
     </g>
    </g>
    <g id="xtick_50">
     <g id="line2d_72">
      <g>
       <use xlink:href="#m79526eab9e" x="303.812596" y="300.328" style="stroke: #000000; stroke-width: 0.6"/>
      </g>
     </g>
    </g>
    <g id="xtick_51">
     <g id="line2d_73">
      <g>
       <use xlink:href="#m79526eab9e" x="338.369891" y="300.328" style="stroke: #000000; stroke-width: 0.6"/>
      </g>
     </g>
    </g>
    <g id="xtick_52">
     <g id="line2d_74">
      <g>
       <use xlink:href="#m79526eab9e" x="362.888682" y="300.328" style="stroke: #000000; stroke-width: 0.6"/>
      </g>
     </g>
    </g>
    <g id="xtick_53">
     <g id="line2d_75">
      <g>
       <use xlink:href="#m79526eab9e" x="381.906934" y="300.328" style="stroke: #000000; stroke-width: 0.6"/>
      </g>
     </g>
    </g>
    <g id="xtick_54">
     <g id="line2d_76">
      <g>
       <use xlink:href="#m79526eab9e" x="397.445978" y="300.328" style="stroke: #000000; stroke-width: 0.6"/>
      </g>
     </g>
    </g>
    <g id="xtick_55">
     <g id="line2d_77">
      <g>
       <use xlink:href="#m79526eab9e" x="410.584051" y="300.328" style="stroke: #000000; stroke-width: 0.6"/>
      </g>
     </g>
    </g>
    <g id="xtick_56">
     <g id="line2d_78">
      <g>
       <use xlink:href="#m79526eab9e" x="421.964769" y="300.328" style="stroke: #000000; stroke-width: 0.6"/>
      </g>
     </g>
    </g>
    <g id="xtick_57">
     <g id="line2d_79">
      <g>
       <use xlink:href="#m79526eab9e" x="432.003273" y="300.328" style="stroke: #000000; stroke-width: 0.6"/>
      </g>
     </g>
    </g>
    <g id="text_27">
     <!-- True Energy [TeV] -->
     <g transform="translate(200.832604 328.604562) scale(0.1 -0.1)">
      <use xlink:href="#DejaVuSans-54"/>
      <use xlink:href="#DejaVuSans-72" x="46.333984"/>
      <use xlink:href="#DejaVuSans-75" x="87.447266"/>
      <use xlink:href="#DejaVuSans-65" x="150.826172"/>
      <use xlink:href="#DejaVuSans-20" x="212.349609"/>
      <use xlink:href="#DejaVuSans-45" x="244.136719"/>
      <use xlink:href="#DejaVuSans-6e" x="307.320312"/>
      <use xlink:href="#DejaVuSans-65" x="370.699219"/>
      <use xlink:href="#DejaVuSans-72" x="432.222656"/>
      <use xlink:href="#DejaVuSans-67" x="471.585938"/>
      <use xlink:href="#DejaVuSans-79" x="535.0625"/>
      <use xlink:href="#DejaVuSans-20" x="594.242188"/>
      <use xlink:href="#DejaVuSans-5b" x="626.029297"/>
      <use xlink:href="#DejaVuSans-54" x="665.042969"/>
      <use xlink:href="#DejaVuSans-65" x="709.126953"/>
      <use xlink:href="#DejaVuSans-56" x="770.650391"/>
      <use xlink:href="#DejaVuSans-5d" x="839.058594"/>
     </g>
    </g>
   </g>
   <g id="matplotlib.axis_6">
    <g id="ytick_5">
     <g id="line2d_80">
      <g>
       <use xlink:href="#mf5aba6ab39" x="48.49" y="294.492998" style="stroke: #000000; stroke-width: 0.8"/>
      </g>
     </g>
     <g id="text_28">
      <!-- −0.25 -->
      <g transform="translate(10.844687 298.292217) scale(0.1 -0.1)">
       <use xlink:href="#DejaVuSans-2212"/>
       <use xlink:href="#DejaVuSans-30" x="83.789062"/>
       <use xlink:href="#DejaVuSans-2e" x="147.412109"/>
       <use xlink:href="#DejaVuSans-32" x="179.199219"/>
       <use xlink:href="#DejaVuSans-35" x="242.822266"/>
      </g>
     </g>
    </g>
    <g id="ytick_6">
     <g id="line2d_81">
      <g>
       <use xlink:href="#mf5aba6ab39" x="48.49" y="274.484" style="stroke: #000000; stroke-width: 0.8"/>
      </g>
     </g>
     <g id="text_29">
      <!-- 0.00 -->
      <g transform="translate(19.224375 278.283219) scale(0.1 -0.1)">
       <use xlink:href="#DejaVuSans-30"/>
       <use xlink:href="#DejaVuSans-2e" x="63.623047"/>
       <use xlink:href="#DejaVuSans-30" x="95.410156"/>
       <use xlink:href="#DejaVuSans-30" x="159.033203"/>
      </g>
     </g>
    </g>
    <g id="ytick_7">
     <g id="line2d_82">
      <g>
       <use xlink:href="#mf5aba6ab39" x="48.49" y="254.475002" style="stroke: #000000; stroke-width: 0.8"/>
      </g>
     </g>
     <g id="text_30">
      <!-- 0.25 -->
      <g transform="translate(19.224375 258.27422) scale(0.1 -0.1)">
       <use xlink:href="#DejaVuSans-30"/>
       <use xlink:href="#DejaVuSans-2e" x="63.623047"/>
       <use xlink:href="#DejaVuSans-32" x="95.410156"/>
       <use xlink:href="#DejaVuSans-35" x="159.033203"/>
      </g>
     </g>
    </g>
   </g>
   <g id="line2d_83">
    <path d="M 48.49 274.484 
L 183.973992 274.484 
L 186.437338 274.690201 
L 193.827374 274.744606 
L 196.290719 274.484 
L 208.607446 274.484 
L 211.070791 276.575972 
L 213.534136 277.127927 
L 218.460827 277.127927 
L 220.924172 274.484 
L 233.240899 274.484 
L 235.704244 284.615036 
L 238.167589 287.288052 
L 243.09428 287.288052 
L 245.557625 274.484 
L 257.874352 274.484 
L 260.337697 289.809982 
L 262.801043 293.853655 
L 267.727733 293.853655 
L 270.191078 274.484 
L 282.507805 274.484 
L 284.97115 255.894253 
L 287.434496 250.989455 
L 292.361186 250.989455 
L 294.824532 274.484 
L 307.141258 274.484 
L 309.604604 268.302895 
L 312.067949 266.672046 
L 316.994639 266.672046 
L 319.457985 274.484 
L 331.774711 274.484 
L 334.238057 272.832113 
L 336.701402 272.396272 
L 341.628093 272.396272 
L 344.091438 274.484 
L 356.408165 274.484 
L 358.87151 273.526886 
L 361.334855 273.274357 
L 366.261546 273.274357 
L 368.724891 274.484 
L 381.041618 274.484 
L 383.504963 274.133089 
L 388.431654 274.040503 
L 390.894999 274.040503 
L 393.358344 274.484 
L 461.8 274.484 
L 461.8 274.484 
" clip-path="url(#pd94148ea47)" style="fill: none; stroke: #1f77b4; stroke-width: 1.5; stroke-linecap: square"/>
   </g>
   <g id="line2d_84">
    <path d="M 48.49 274.484 
L 461.8 274.484 
L 461.8 274.484 
" clip-path="url(#pd94148ea47)" style="fill: none; stroke: #ff7f0e; stroke-width: 1.5; stroke-linecap: square"/>
   </g>
   <g id="line2d_85">
    <path d="M 48.49 274.484 
L 193.827374 274.484 
L 196.290719 274.223394 
L 201.21741 274.223394 
L 203.680755 274.482086 
L 218.460827 274.484 
L 220.924172 271.840073 
L 225.850863 271.840073 
L 228.314208 274.464584 
L 243.09428 274.484 
L 245.557625 261.679948 
L 250.484316 261.679948 
L 252.947661 274.389973 
L 257.874352 274.484 
L 267.727733 274.484 
L 270.191078 255.114345 
L 275.117769 255.114345 
L 277.581114 274.341758 
L 280.04446 274.484 
L 292.361186 274.484 
L 294.824532 297.978545 
L 299.751222 297.978545 
L 302.214568 274.656534 
L 304.677913 274.484 
L 316.994639 274.484 
L 319.457985 282.295954 
L 324.384675 282.295954 
L 326.848021 274.541368 
L 331.774711 274.484 
L 341.628093 274.484 
L 344.091438 276.571728 
L 349.018129 276.571728 
L 351.481474 274.499331 
L 366.261546 274.484 
L 368.724891 275.693643 
L 373.651582 275.693643 
L 376.114927 274.492883 
L 390.894999 274.484 
L 393.358344 274.927497 
L 398.285035 274.927497 
L 400.74838 274.487257 
L 461.8 274.484 
L 461.8 274.484 
" clip-path="url(#pd94148ea47)" style="fill: none; stroke: #2ca02c; stroke-width: 1.5; stroke-linecap: square"/>
   </g>
   <g id="line2d_86">
    <path d="M 48.49 274.484 
L 193.827374 274.484 
L 196.290719 274.223394 
L 208.607446 274.223394 
L 211.070791 274.420149 
L 215.997482 274.484 
L 218.460827 274.484 
L 220.924172 271.840073 
L 233.240899 271.840073 
L 235.704244 273.83621 
L 238.167589 274.484 
L 243.09428 274.484 
L 245.557625 261.679948 
L 257.874352 261.679948 
L 260.337697 271.346874 
L 262.801043 274.484 
L 267.727733 274.484 
L 270.191078 255.114345 
L 282.507805 255.114345 
L 284.97115 269.738234 
L 287.434496 274.484 
L 292.361186 274.484 
L 294.824532 297.978545 
L 307.141258 297.978545 
L 309.604604 280.240407 
L 312.067949 274.484 
L 316.994639 274.484 
L 319.457985 282.295954 
L 331.774711 282.295954 
L 334.238057 276.39801 
L 336.701402 274.484 
L 341.628093 274.484 
L 344.091438 276.571728 
L 356.408165 276.571728 
L 358.87151 274.995515 
L 361.334855 274.484 
L 366.261546 274.484 
L 368.724891 275.693643 
L 381.041618 275.693643 
L 383.504963 274.780375 
L 385.968308 274.484 
L 390.894999 274.484 
L 393.358344 274.927497 
L 405.675071 274.927497 
L 408.138416 274.592661 
L 413.065107 274.484 
L 461.8 274.484 
L 461.8 274.484 
" clip-path="url(#pd94148ea47)" style="fill: none; stroke: #d62728; stroke-width: 1.5; stroke-linecap: square"/>
   </g>
   <g id="patch_15">
    <path d="M 48.49 300.328 
L 48.49 248.64 
" style="fill: none; stroke: #000000; stroke-width: 0.8; stroke-linejoin: miter; stroke-linecap: square"/>
   </g>
   <g id="patch_16">
    <path d="M 440.98302 300.328 
L 440.98302 248.64 
" style="fill: none; stroke: #000000; stroke-width: 0.8; stroke-linejoin: miter; stroke-linecap: square"/>
   </g>
   <g id="patch_17">
    <path d="M 48.49 300.328 
L 440.98302 300.328 
" style="fill: none; stroke: #000000; stroke-width: 0.8; stroke-linejoin: miter; stroke-linecap: square"/>
   </g>
   <g id="patch_18">
    <path d="M 48.49 248.64 
L 440.98302 248.64 
" style="fill: none; stroke: #000000; stroke-width: 0.8; stroke-linejoin: miter; stroke-linecap: square"/>
   </g>
   <g id="text_31">
    <!-- Abs. Difference -->
    <g transform="translate(198.863698 242.64) scale(0.12 -0.12)">
     <defs>
      <path id="DejaVuSans-41" d="M 2188 4044 
L 1331 1722 
L 3047 1722 
L 2188 4044 
z
M 1831 4666 
L 2547 4666 
L 4325 0 
L 3669 0 
L 3244 1197 
L 1141 1197 
L 716 0 
L 50 0 
L 1831 4666 
z
" transform="scale(0.015625)"/>
      <path id="DejaVuSans-44" d="M 1259 4147 
L 1259 519 
L 2022 519 
Q 2988 519 3436 956 
Q 3884 1394 3884 2338 
Q 3884 3275 3436 3711 
Q 2988 4147 2022 4147 
L 1259 4147 
z
M 628 4666 
L 1925 4666 
Q 3281 4666 3915 4102 
Q 4550 3538 4550 2338 
Q 4550 1131 3912 565 
Q 3275 0 1925 0 
L 628 0 
L 628 4666 
z
" transform="scale(0.015625)"/>
      <path id="DejaVuSans-66" d="M 2375 4863 
L 2375 4384 
L 1825 4384 
Q 1516 4384 1395 4259 
Q 1275 4134 1275 3809 
L 1275 3500 
L 2222 3500 
L 2222 3053 
L 1275 3053 
L 1275 0 
L 697 0 
L 697 3053 
L 147 3053 
L 147 3500 
L 697 3500 
L 697 3744 
Q 697 4328 969 4595 
Q 1241 4863 1831 4863 
L 2375 4863 
z
" transform="scale(0.015625)"/>
      <path id="DejaVuSans-63" d="M 3122 3366 
L 3122 2828 
Q 2878 2963 2633 3030 
Q 2388 3097 2138 3097 
Q 1578 3097 1268 2742 
Q 959 2388 959 1747 
Q 959 1106 1268 751 
Q 1578 397 2138 397 
Q 2388 397 2633 464 
Q 2878 531 3122 666 
L 3122 134 
Q 2881 22 2623 -34 
Q 2366 -91 2075 -91 
Q 1284 -91 818 406 
Q 353 903 353 1747 
Q 353 2603 823 3093 
Q 1294 3584 2113 3584 
Q 2378 3584 2631 3529 
Q 2884 3475 3122 3366 
z
" transform="scale(0.015625)"/>
     </defs>
     <use xlink:href="#DejaVuSans-41"/>
     <use xlink:href="#DejaVuSans-62" x="68.408203"/>
     <use xlink:href="#DejaVuSans-73" x="131.884766"/>
     <use xlink:href="#DejaVuSans-2e" x="183.984375"/>
     <use xlink:href="#DejaVuSans-20" x="215.771484"/>
     <use xlink:href="#DejaVuSans-44" x="247.558594"/>
     <use xlink:href="#DejaVuSans-69" x="324.560547"/>
     <use xlink:href="#DejaVuSans-66" x="352.34375"/>
     <use xlink:href="#DejaVuSans-66" x="387.548828"/>
     <use xlink:href="#DejaVuSans-65" x="422.753906"/>
     <use xlink:href="#DejaVuSans-72" x="484.277344"/>
     <use xlink:href="#DejaVuSans-65" x="523.140625"/>
     <use xlink:href="#DejaVuSans-6e" x="584.664062"/>
     <use xlink:href="#DejaVuSans-63" x="648.042969"/>
     <use xlink:href="#DejaVuSans-65" x="703.023438"/>
    </g>
   </g>
   <g id="legend_3">
    <g id="patch_19">
     <path d="M 55.49 305.34025 
L 135.844688 305.34025 
Q 137.844688 305.34025 137.844688 303.34025 
L 137.844688 245.62775 
Q 137.844688 243.62775 135.844688 243.62775 
L 55.49 243.62775 
Q 53.49 243.62775 53.49 245.62775 
L 53.49 303.34025 
Q 53.49 305.34025 55.49 305.34025 
z
" style="fill: #ffffff; opacity: 0.8; stroke: #cccccc; stroke-linejoin: miter"/>
    </g>
    <g id="line2d_87">
     <path d="M 57.49 251.726187 
L 67.49 251.726187 
L 77.49 251.726187 
" style="fill: none; stroke: #1f77b4; stroke-width: 1.5; stroke-linecap: square"/>
    </g>
    <g id="text_32">
     <!-- bias=-0.1 -->
     <g transform="translate(85.49 255.226187) scale(0.1 -0.1)">
      <use xlink:href="#DejaVuSans-62"/>
      <use xlink:href="#DejaVuSans-69" x="63.476562"/>
      <use xlink:href="#DejaVuSans-61" x="91.259766"/>
      <use xlink:href="#DejaVuSans-73" x="152.539062"/>
      <use xlink:href="#DejaVuSans-3d" x="204.638672"/>
      <use xlink:href="#DejaVuSans-2d" x="288.427734"/>
      <use xlink:href="#DejaVuSans-30" x="324.511719"/>
      <use xlink:href="#DejaVuSans-2e" x="388.134766"/>
      <use xlink:href="#DejaVuSans-31" x="419.921875"/>
     </g>
    </g>
    <g id="line2d_88">
     <path d="M 57.49 266.404312 
L 67.49 266.404312 
L 77.49 266.404312 
" style="fill: none; stroke: #ff7f0e; stroke-width: 1.5; stroke-linecap: square"/>
    </g>
    <g id="text_33">
     <!-- bias=0.0 -->
     <g transform="translate(85.49 269.904312) scale(0.1 -0.1)">
      <use xlink:href="#DejaVuSans-62"/>
      <use xlink:href="#DejaVuSans-69" x="63.476562"/>
      <use xlink:href="#DejaVuSans-61" x="91.259766"/>
      <use xlink:href="#DejaVuSans-73" x="152.539062"/>
      <use xlink:href="#DejaVuSans-3d" x="204.638672"/>
      <use xlink:href="#DejaVuSans-30" x="288.427734"/>
      <use xlink:href="#DejaVuSans-2e" x="352.050781"/>
      <use xlink:href="#DejaVuSans-30" x="383.837891"/>
     </g>
    </g>
    <g id="line2d_89">
     <path d="M 57.49 281.082437 
L 67.49 281.082437 
L 77.49 281.082437 
" style="fill: none; stroke: #2ca02c; stroke-width: 1.5; stroke-linecap: square"/>
    </g>
    <g id="text_34">
     <!-- bias=0.1 -->
     <g transform="translate(85.49 284.582437) scale(0.1 -0.1)">
      <use xlink:href="#DejaVuSans-62"/>
      <use xlink:href="#DejaVuSans-69" x="63.476562"/>
      <use xlink:href="#DejaVuSans-61" x="91.259766"/>
      <use xlink:href="#DejaVuSans-73" x="152.539062"/>
      <use xlink:href="#DejaVuSans-3d" x="204.638672"/>
      <use xlink:href="#DejaVuSans-30" x="288.427734"/>
      <use xlink:href="#DejaVuSans-2e" x="352.050781"/>
      <use xlink:href="#DejaVuSans-31" x="383.837891"/>
     </g>
    </g>
    <g id="line2d_90">
     <path d="M 57.49 295.760562 
L 67.49 295.760562 
L 77.49 295.760562 
" style="fill: none; stroke: #d62728; stroke-width: 1.5; stroke-linecap: square"/>
    </g>
    <g id="text_35">
     <!-- bias=0.2 -->
     <g transform="translate(85.49 299.260562) scale(0.1 -0.1)">
      <use xlink:href="#DejaVuSans-62"/>
      <use xlink:href="#DejaVuSans-69" x="63.476562"/>
      <use xlink:href="#DejaVuSans-61" x="91.259766"/>
      <use xlink:href="#DejaVuSans-73" x="152.539062"/>
      <use xlink:href="#DejaVuSans-3d" x="204.638672"/>
      <use xlink:href="#DejaVuSans-30" x="288.427734"/>
      <use xlink:href="#DejaVuSans-2e" x="352.050781"/>
      <use xlink:href="#DejaVuSans-32" x="383.837891"/>
     </g>
    </g>
   </g>
  </g>
 </g>
 <defs>
  <clipPath id="p6a22efe466">
   <rect x="48.49" y="25.44" width="392.49302" height="51.688"/>
  </clipPath>
  <clipPath id="p22ab39fac7">
   <rect x="48.49" y="137.04" width="392.49302" height="51.688"/>
  </clipPath>
  <clipPath id="pd94148ea47">
   <rect x="48.49" y="248.64" width="392.49302" height="51.688"/>
  </clipPath>
 </defs>
</svg>
