<?xml version="1.0" encoding="utf-8" standalone="no"?>
<!DOCTYPE svg PUBLIC "-//W3C//DTD SVG 1.1//EN"
  "http://www.w3.org/Graphics/SVG/1.1/DTD/svg11.dtd">
<svg xmlns:xlink="http://www.w3.org/1999/xlink" width="864pt" height="288pt" viewBox="0 0 864 288" xmlns="http://www.w3.org/2000/svg" version="1.1">
 <metadata>
  <rdf:RDF xmlns:dc="http://purl.org/dc/elements/1.1/" xmlns:cc="http://creativecommons.org/ns#" xmlns:rdf="http://www.w3.org/1999/02/22-rdf-syntax-ns#">
   <cc:Work>
    <dc:type rdf:resource="http://purl.org/dc/dcmitype/StillImage"/>
    <dc:date>2023-03-24T13:07:40.744563</dc:date>
    <dc:format>image/svg+xml</dc:format>
    <dc:creator>
     <cc:Agent>
      <dc:title>Matplotlib v3.6.3, https://matplotlib.org/</dc:title>
     </cc:Agent>
    </dc:creator>
   </cc:Work>
  </rdf:RDF>
 </metadata>
 <defs>
  <style type="text/css">*{stroke-linejoin: round; stroke-linecap: butt}</style>
 </defs>
 <g id="figure_1">
  <g id="patch_1">
   <path d="M 0 288 
L 864 288 
L 864 0 
L 0 0 
z
" style="fill: #ffffff"/>
  </g>
  <g id="axes_1">
   <g id="patch_2">
    <path d="M 60.221389 242.728 
L 299.709163 242.728 
L 299.709163 25.44 
L 60.221389 25.44 
z
" style="fill: #ffffff"/>
   </g>
   <g id="PolyCollection_1">
    <path d="M 71.107197 71.387328 
L 71.107197 98.217743 
L 73.30635 98.814928 
L 75.505503 99.414139 
L 77.704657 100.015392 
L 79.90381 100.618709 
L 82.102963 101.224114 
L 84.302116 101.831633 
L 86.501269 102.441299 
L 88.700422 103.053143 
L 90.899575 103.667205 
L 93.098728 104.283527 
L 95.297881 104.902155 
L 97.497035 105.523143 
L 99.696188 106.146548 
L 101.895341 106.772435 
L 104.094494 107.400875 
L 106.293647 108.031948 
L 108.4928 108.665741 
L 110.691953 109.302351 
L 112.891106 109.941886 
L 115.090259 110.584465 
L 117.289413 111.230219 
L 119.488566 111.879294 
L 121.687719 112.531852 
L 123.886872 113.188071 
L 126.086025 113.84815 
L 128.285178 114.512309 
L 130.484331 115.18079 
L 132.683484 115.853862 
L 134.882637 116.531822 
L 137.081791 117.214999 
L 139.280944 117.903755 
L 141.480097 118.598488 
L 143.67925 119.299637 
L 145.878403 120.007679 
L 148.077556 120.723139 
L 150.276709 121.44658 
L 152.475862 122.178613 
L 154.675015 122.919889 
L 156.874169 123.671096 
L 159.073322 124.432954 
L 161.272475 125.206205 
L 163.471628 125.991596 
L 165.670781 126.789871 
L 167.869934 127.60174 
L 170.069087 128.427868 
L 172.26824 129.268843 
L 174.467393 130.125153 
L 176.666547 130.997169 
L 178.8657 131.885123 
L 181.064853 132.789098 
L 183.264006 133.709024 
L 185.463159 134.644679 
L 187.662312 135.595706 
L 189.861465 136.561624 
L 192.060618 137.541851 
L 194.259771 138.53573 
L 196.458925 139.542552 
L 198.658078 140.561576 
L 200.857231 141.592054 
L 203.056384 142.633243 
L 205.255537 143.684421 
L 207.45469 144.744897 
L 209.653843 145.814017 
L 211.852996 146.891167 
L 214.052149 147.975778 
L 216.251302 149.067325 
L 218.450456 150.165324 
L 220.649609 151.269335 
L 222.848762 152.378956 
L 225.047915 153.493822 
L 227.247068 154.613602 
L 229.446221 155.737996 
L 231.645374 156.866733 
L 233.844527 157.999569 
L 236.04368 159.136281 
L 238.242834 160.27667 
L 240.441987 161.420555 
L 242.64114 162.567774 
L 244.840293 163.71818 
L 247.039446 164.871639 
L 249.238599 166.028032 
L 251.437752 167.187251 
L 253.636905 168.349197 
L 255.836058 169.513781 
L 258.035212 170.680926 
L 260.234365 171.850557 
L 262.433518 173.022611 
L 264.632671 174.197028 
L 266.831824 175.373755 
L 269.030977 176.552746 
L 271.23013 177.733957 
L 273.429283 178.91735 
L 275.628436 180.102891 
L 277.82759 181.290549 
L 280.026743 182.480296 
L 282.225896 183.672109 
L 284.425049 184.865966 
L 286.624202 186.061848 
L 288.823355 187.25974 
L 288.823355 159.968758 
L 288.823355 159.968758 
L 286.624202 159.273184 
L 284.425049 158.577772 
L 282.225896 157.882497 
L 280.026743 157.187332 
L 277.82759 156.492245 
L 275.628436 155.797205 
L 273.429283 155.102175 
L 271.23013 154.407117 
L 269.030977 153.711988 
L 266.831824 153.016743 
L 264.632671 152.32133 
L 262.433518 151.625696 
L 260.234365 150.92978 
L 258.035212 150.233516 
L 255.836058 149.536834 
L 253.636905 148.839654 
L 251.437752 148.141891 
L 249.238599 147.443449 
L 247.039446 146.744226 
L 244.840293 146.044107 
L 242.64114 145.342966 
L 240.441987 144.640667 
L 238.242834 143.937056 
L 236.04368 143.231965 
L 233.844527 142.52521 
L 231.645374 141.816587 
L 229.446221 141.105869 
L 227.247068 140.392807 
L 225.047915 139.677127 
L 222.848762 138.958526 
L 220.649609 138.236667 
L 218.450456 137.511184 
L 216.251302 136.781671 
L 214.052149 136.047683 
L 211.852996 135.308736 
L 209.653843 134.564301 
L 207.45469 133.813806 
L 205.255537 133.056637 
L 203.056384 132.292135 
L 200.857231 131.519608 
L 198.658078 130.738333 
L 196.458925 129.947565 
L 194.259771 129.146554 
L 192.060618 128.334558 
L 189.861465 127.510867 
L 187.662312 126.674823 
L 185.463159 125.825843 
L 183.264006 124.963447 
L 181.064853 124.087275 
L 178.8657 123.197106 
L 176.666547 122.29287 
L 174.467393 121.374651 
L 172.26824 120.44268 
L 170.069087 119.497327 
L 167.869934 118.539084 
L 165.670781 117.568538 
L 163.471628 116.586354 
L 161.272475 115.593246 
L 159.073322 114.589956 
L 156.874169 113.577235 
L 154.675015 112.555825 
L 152.475862 111.526449 
L 150.276709 110.489796 
L 148.077556 109.44652 
L 145.878403 108.397232 
L 143.67925 107.342502 
L 141.480097 106.282854 
L 139.280944 105.218769 
L 137.081791 104.150689 
L 134.882637 103.079016 
L 132.683484 102.004114 
L 130.484331 100.926317 
L 128.285178 99.845924 
L 126.086025 98.76321 
L 123.886872 97.67842 
L 121.687719 96.591779 
L 119.488566 95.50349 
L 117.289413 94.413735 
L 115.090259 93.322682 
L 112.891106 92.230481 
L 110.691953 91.13727 
L 108.4928 90.043173 
L 106.293647 88.948302 
L 104.094494 87.852762 
L 101.895341 86.756645 
L 99.696188 85.660037 
L 97.497035 84.563016 
L 95.297881 83.465654 
L 93.098728 82.368014 
L 90.899575 81.270158 
L 88.700422 80.172138 
L 86.501269 79.074006 
L 84.302116 77.975806 
L 82.102963 76.877582 
L 79.90381 75.779371 
L 77.704657 74.681208 
L 75.505503 73.583127 
L 73.30635 72.485158 
L 71.107197 71.387328 
z
" clip-path="url(#p9274ede225)" style="fill: #db7093; fill-opacity: 0.5"/>
   </g>
   <g id="PolyCollection_2">
    <path d="M 71.107197 50.62614 
L 71.107197 78.391182 
L 73.30635 79.399609 
L 75.505503 80.410327 
L 77.704657 81.423353 
L 79.90381 82.438707 
L 82.102963 83.456412 
L 84.302116 84.476496 
L 86.501269 85.498989 
L 88.700422 86.523926 
L 90.899575 87.551347 
L 93.098728 88.581297 
L 95.297881 89.613825 
L 97.497035 90.64899 
L 99.696188 91.686853 
L 101.895341 92.727487 
L 104.094494 93.77097 
L 106.293647 94.817392 
L 108.4928 95.866851 
L 110.691953 96.919458 
L 112.891106 97.975336 
L 115.090259 99.034623 
L 117.289413 100.097474 
L 119.488566 101.164059 
L 121.687719 102.234571 
L 123.886872 103.309224 
L 126.086025 104.388256 
L 128.285178 105.471937 
L 130.484331 106.560562 
L 132.683484 107.654467 
L 134.882637 108.754021 
L 137.081791 109.859638 
L 139.280944 110.971779 
L 141.480097 112.090953 
L 143.67925 113.217724 
L 145.878403 114.352713 
L 148.077556 115.4966 
L 150.276709 116.650127 
L 152.475862 117.814091 
L 154.675015 118.989344 
L 156.874169 120.176786 
L 159.073322 121.377344 
L 161.272475 122.591965 
L 163.471628 123.821581 
L 165.670781 125.067087 
L 167.869934 126.329306 
L 170.069087 127.608951 
L 172.26824 128.906594 
L 174.467393 130.222631 
L 176.666547 131.557265 
L 178.8657 132.910489 
L 181.064853 134.28209 
L 183.264006 135.671659 
L 185.463159 137.078616 
L 187.662312 138.50224 
L 189.861465 139.941704 
L 192.060618 141.396109 
L 194.259771 142.86452 
L 196.458925 144.345994 
L 198.658078 145.839601 
L 200.857231 147.344447 
L 203.056384 148.859681 
L 205.255537 150.384509 
L 207.45469 151.918194 
L 209.653843 153.460059 
L 211.852996 155.009486 
L 214.052149 156.565915 
L 216.251302 158.128838 
L 218.450456 159.697799 
L 220.649609 161.272387 
L 222.848762 162.852232 
L 225.047915 164.437004 
L 227.247068 166.026407 
L 229.446221 167.620175 
L 231.645374 169.21807 
L 233.844527 170.819879 
L 236.04368 172.425413 
L 238.242834 174.0345 
L 240.441987 175.646987 
L 242.64114 177.262738 
L 244.840293 178.881629 
L 247.039446 180.503551 
L 249.238599 182.128406 
L 251.437752 183.756105 
L 253.636905 185.386569 
L 255.836058 187.019729 
L 258.035212 188.65552 
L 260.234365 190.293887 
L 262.433518 191.934779 
L 264.632671 193.578152 
L 266.831824 195.223967 
L 269.030977 196.872189 
L 271.23013 198.522787 
L 273.429283 200.175735 
L 275.628436 201.831009 
L 277.82759 203.488589 
L 280.026743 205.148459 
L 282.225896 206.810604 
L 284.425049 208.475012 
L 286.624202 210.141674 
L 288.823355 211.810583 
L 288.823355 181.827934 
L 288.823355 181.827934 
L 286.624202 180.708543 
L 284.425049 179.589469 
L 282.225896 178.470691 
L 280.026743 177.352186 
L 277.82759 176.233931 
L 275.628436 175.1159 
L 273.429283 173.998062 
L 271.23013 172.880388 
L 269.030977 171.762842 
L 266.831824 170.645388 
L 264.632671 169.527983 
L 262.433518 168.410582 
L 260.234365 167.293138 
L 258.035212 166.175594 
L 255.836058 165.057892 
L 253.636905 163.939967 
L 251.437752 162.821746 
L 249.238599 161.703151 
L 247.039446 160.584094 
L 244.840293 159.46448 
L 242.64114 158.344201 
L 240.441987 157.223142 
L 238.242834 156.101171 
L 236.04368 154.978146 
L 233.844527 153.853905 
L 231.645374 152.728274 
L 229.446221 151.601054 
L 227.247068 150.472027 
L 225.047915 149.34095 
L 222.848762 148.207552 
L 220.649609 147.071531 
L 218.450456 145.932551 
L 216.251302 144.79024 
L 214.052149 143.644181 
L 211.852996 142.493913 
L 209.653843 141.338926 
L 207.45469 140.178656 
L 205.255537 139.01248 
L 203.056384 137.839719 
L 200.857231 136.659633 
L 198.658078 135.471425 
L 196.458925 134.274241 
L 194.259771 133.067185 
L 192.060618 131.849326 
L 189.861465 130.619718 
L 187.662312 129.377424 
L 185.463159 128.121545 
L 183.264006 126.851253 
L 181.064853 125.565824 
L 178.8657 124.264679 
L 176.666547 122.947409 
L 174.467393 121.613799 
L 172.26824 120.263843 
L 170.069087 118.897743 
L 167.869934 117.515898 
L 165.670781 116.118879 
L 163.471628 114.7074 
L 161.272475 113.282285 
L 159.073322 111.844431 
L 156.874169 110.394772 
L 154.675015 108.934254 
L 152.475862 107.46381 
L 150.276709 105.98434 
L 148.077556 104.496698 
L 145.878403 103.001686 
L 143.67925 101.500047 
L 141.480097 99.992464 
L 139.280944 98.479563 
L 137.081791 96.961911 
L 134.882637 95.440021 
L 132.683484 93.914358 
L 130.484331 92.38534 
L 128.285178 90.853343 
L 126.086025 89.318703 
L 123.886872 87.781726 
L 121.687719 86.242683 
L 119.488566 84.70182 
L 117.289413 83.159355 
L 115.090259 81.615489 
L 112.891106 80.070397 
L 110.691953 78.524242 
L 108.4928 76.977167 
L 106.293647 75.429304 
L 104.094494 73.88077 
L 101.895341 72.331673 
L 99.696188 70.782108 
L 97.497035 69.232164 
L 95.297881 67.68192 
L 93.098728 66.131448 
L 90.899575 64.580814 
L 88.700422 63.030078 
L 86.501269 61.479294 
L 84.302116 59.928512 
L 82.102963 58.377777 
L 79.90381 56.827131 
L 77.704657 55.276611 
L 75.505503 53.726252 
L 73.30635 52.176085 
L 71.107197 50.62614 
z
" clip-path="url(#p9274ede225)" style="fill: #db7093; fill-opacity: 0.5"/>
   </g>
   <g id="PolyCollection_3">
    <path d="M 71.107197 35.316727 
L 71.107197 64.654855 
L 73.30635 65.968649 
L 75.505503 67.285113 
L 77.704657 68.604259 
L 79.90381 69.926104 
L 82.102963 71.250668 
L 84.302116 72.577975 
L 86.501269 73.908054 
L 88.700422 75.240937 
L 90.899575 76.576664 
L 93.098728 77.915278 
L 95.297881 79.256831 
L 97.497035 80.60138 
L 99.696188 81.948991 
L 101.895341 83.299739 
L 104.094494 84.653709 
L 106.293647 86.010995 
L 108.4928 87.371705 
L 110.691953 88.735962 
L 112.891106 90.103902 
L 115.090259 91.475679 
L 117.289413 92.851467 
L 119.488566 94.231464 
L 121.687719 95.615889 
L 123.886872 97.004992 
L 126.086025 98.399054 
L 128.285178 99.798392 
L 130.484331 101.203364 
L 132.683484 102.614372 
L 134.882637 104.031871 
L 137.081791 105.45637 
L 139.280944 106.888443 
L 141.480097 108.328731 
L 143.67925 109.777953 
L 145.878403 111.236903 
L 148.077556 112.706461 
L 150.276709 114.187589 
L 152.475862 115.681331 
L 154.675015 117.188801 
L 156.874169 118.711173 
L 159.073322 120.249653 
L 161.272475 121.805452 
L 163.471628 123.37974 
L 165.670781 124.973599 
L 167.869934 126.587972 
L 170.069087 128.223606 
L 172.26824 129.881009 
L 174.467393 131.560411 
L 176.666547 133.261754 
L 178.8657 134.984693 
L 181.064853 136.728618 
L 183.264006 138.492697 
L 185.463159 140.275925 
L 187.662312 142.077177 
L 189.861465 143.895262 
L 192.060618 145.728967 
L 194.259771 147.577094 
L 196.458925 149.438493 
L 198.658078 151.312074 
L 200.857231 153.196828 
L 203.056384 155.091825 
L 205.255537 156.996219 
L 207.45469 158.909248 
L 209.653843 160.830224 
L 211.852996 162.758535 
L 214.052149 164.693634 
L 216.251302 166.635032 
L 218.450456 168.582299 
L 220.649609 170.535049 
L 222.848762 172.492943 
L 225.047915 174.455679 
L 227.247068 176.422987 
L 229.446221 178.394632 
L 231.645374 180.370402 
L 233.844527 182.350111 
L 236.04368 184.333592 
L 238.242834 186.320699 
L 240.441987 188.3113 
L 242.64114 190.305281 
L 244.840293 192.302538 
L 247.039446 194.302981 
L 249.238599 196.306529 
L 251.437752 198.313111 
L 253.636905 200.322664 
L 255.836058 202.335135 
L 258.035212 204.350473 
L 260.234365 206.368639 
L 262.433518 208.389594 
L 264.632671 210.413309 
L 266.831824 212.439756 
L 269.030977 214.468913 
L 271.23013 216.500761 
L 273.429283 218.535286 
L 275.628436 220.572476 
L 277.82759 222.612322 
L 280.026743 224.654818 
L 282.225896 226.699961 
L 284.425049 228.747749 
L 286.624202 230.798186 
L 288.823355 232.851273 
L 288.823355 199.650346 
L 288.823355 199.650346 
L 286.624202 198.206557 
L 284.425049 196.763244 
L 282.225896 195.320393 
L 280.026743 193.877985 
L 277.82759 192.436002 
L 275.628436 190.994422 
L 273.429283 189.553221 
L 271.23013 188.112375 
L 269.030977 186.671854 
L 266.831824 185.231628 
L 264.632671 183.791663 
L 262.433518 182.351921 
L 260.234365 180.912361 
L 258.035212 179.472937 
L 255.836058 178.0336 
L 253.636905 176.594293 
L 251.437752 175.154957 
L 249.238599 173.715522 
L 247.039446 172.275915 
L 244.840293 170.836053 
L 242.64114 169.395844 
L 240.441987 167.955186 
L 238.242834 166.513966 
L 236.04368 165.072057 
L 233.844527 163.629321 
L 231.645374 162.185599 
L 229.446221 160.740717 
L 227.247068 159.29448 
L 225.047915 157.846668 
L 222.848762 156.397035 
L 220.649609 154.945307 
L 218.450456 153.491174 
L 216.251302 152.034289 
L 214.052149 150.57426 
L 211.852996 149.11065 
L 209.653843 147.642965 
L 207.45469 146.170653 
L 205.255537 144.693094 
L 203.056384 143.209599 
L 200.857231 141.719398 
L 198.658078 140.221642 
L 196.458925 138.715399 
L 194.259771 137.199653 
L 192.060618 135.673313 
L 189.861465 134.135225 
L 187.662312 132.584189 
L 185.463159 131.01899 
L 183.264006 129.438435 
L 181.064853 127.841396 
L 178.8657 126.226867 
L 176.666547 124.594016 
L 174.467393 122.942232 
L 172.26824 121.27117 
L 170.069087 119.58077 
L 167.869934 117.871265 
L 165.670781 116.143162 
L 163.471628 114.39721 
L 161.272475 112.634351 
L 159.073322 110.85567 
L 156.874169 109.062339 
L 154.675015 107.255571 
L 152.475862 105.436575 
L 150.276709 103.606526 
L 148.077556 101.766543 
L 145.878403 99.917672 
L 143.67925 98.060881 
L 141.480097 96.197051 
L 139.280944 94.326984 
L 137.081791 92.451401 
L 134.882637 90.57095 
L 132.683484 88.686208 
L 130.484331 86.797692 
L 128.285178 84.905863 
L 126.086025 83.011129 
L 123.886872 81.113854 
L 121.687719 79.214363 
L 119.488566 77.312945 
L 117.289413 75.409856 
L 115.090259 73.505325 
L 112.891106 71.599559 
L 110.691953 69.692739 
L 108.4928 67.785029 
L 106.293647 65.876576 
L 104.094494 63.967512 
L 101.895341 62.057954 
L 99.696188 60.14801 
L 97.497035 58.237774 
L 95.297881 56.327334 
L 93.098728 54.416766 
L 90.899575 52.506141 
L 88.700422 50.595523 
L 86.501269 48.68497 
L 84.302116 46.774533 
L 82.102963 44.86426 
L 79.90381 42.954194 
L 77.704657 41.044374 
L 75.505503 39.134835 
L 73.30635 37.22561 
L 71.107197 35.316727 
z
" clip-path="url(#p9274ede225)" style="fill: #db7093; fill-opacity: 0.5"/>
   </g>
   <g id="matplotlib.axis_1">
    <g id="xtick_1">
     <g id="line2d_1">
      <defs>
       <path id="md8522b68c2" d="M 0 0 
L 0 3.5 
" style="stroke: #000000; stroke-width: 0.8"/>
      </defs>
      <g>
       <use xlink:href="#md8522b68c2" x="65.226853" y="242.728" style="stroke: #000000; stroke-width: 0.8"/>
      </g>
     </g>
     <g id="text_1">
      <!-- $\mathdefault{10^{-1}}$ -->
      <g transform="translate(53.476853 257.326437) scale(0.1 -0.1)">
       <defs>
        <path id="DejaVuSans-31" d="M 794 531 
L 1825 531 
L 1825 4091 
L 703 3866 
L 703 4441 
L 1819 4666 
L 2450 4666 
L 2450 531 
L 3481 531 
L 3481 0 
L 794 0 
L 794 531 
z
" transform="scale(0.015625)"/>
        <path id="DejaVuSans-30" d="M 2034 4250 
Q 1547 4250 1301 3770 
Q 1056 3291 1056 2328 
Q 1056 1369 1301 889 
Q 1547 409 2034 409 
Q 2525 409 2770 889 
Q 3016 1369 3016 2328 
Q 3016 3291 2770 3770 
Q 2525 4250 2034 4250 
z
M 2034 4750 
Q 2819 4750 3233 4129 
Q 3647 3509 3647 2328 
Q 3647 1150 3233 529 
Q 2819 -91 2034 -91 
Q 1250 -91 836 529 
Q 422 1150 422 2328 
Q 422 3509 836 4129 
Q 1250 4750 2034 4750 
z
" transform="scale(0.015625)"/>
        <path id="DejaVuSans-2212" d="M 678 2272 
L 4684 2272 
L 4684 1741 
L 678 1741 
L 678 2272 
z
" transform="scale(0.015625)"/>
       </defs>
       <use xlink:href="#DejaVuSans-31" transform="translate(0 0.684375)"/>
       <use xlink:href="#DejaVuSans-30" transform="translate(63.623047 0.684375)"/>
       <use xlink:href="#DejaVuSans-2212" transform="translate(128.203125 38.965625) scale(0.7)"/>
       <use xlink:href="#DejaVuSans-31" transform="translate(186.855469 38.965625) scale(0.7)"/>
      </g>
     </g>
    </g>
    <g id="xtick_2">
     <g id="line2d_2">
      <g>
       <use xlink:href="#md8522b68c2" x="141.719135" y="242.728" style="stroke: #000000; stroke-width: 0.8"/>
      </g>
     </g>
     <g id="text_2">
      <!-- $\mathdefault{10^{0}}$ -->
      <g transform="translate(132.919135 257.326437) scale(0.1 -0.1)">
       <use xlink:href="#DejaVuSans-31" transform="translate(0 0.765625)"/>
       <use xlink:href="#DejaVuSans-30" transform="translate(63.623047 0.765625)"/>
       <use xlink:href="#DejaVuSans-30" transform="translate(128.203125 39.046875) scale(0.7)"/>
      </g>
     </g>
    </g>
    <g id="xtick_3">
     <g id="line2d_3">
      <g>
       <use xlink:href="#md8522b68c2" x="218.211417" y="242.728" style="stroke: #000000; stroke-width: 0.8"/>
      </g>
     </g>
     <g id="text_3">
      <!-- $\mathdefault{10^{1}}$ -->
      <g transform="translate(209.411417 257.326437) scale(0.1 -0.1)">
       <use xlink:href="#DejaVuSans-31" transform="translate(0 0.684375)"/>
       <use xlink:href="#DejaVuSans-30" transform="translate(63.623047 0.684375)"/>
       <use xlink:href="#DejaVuSans-31" transform="translate(128.203125 38.965625) scale(0.7)"/>
      </g>
     </g>
    </g>
    <g id="xtick_4">
     <g id="line2d_4">
      <g>
       <use xlink:href="#md8522b68c2" x="294.703699" y="242.728" style="stroke: #000000; stroke-width: 0.8"/>
      </g>
     </g>
     <g id="text_4">
      <!-- $\mathdefault{10^{2}}$ -->
      <g transform="translate(285.903699 257.326437) scale(0.1 -0.1)">
       <defs>
        <path id="DejaVuSans-32" d="M 1228 531 
L 3431 531 
L 3431 0 
L 469 0 
L 469 531 
Q 828 903 1448 1529 
Q 2069 2156 2228 2338 
Q 2531 2678 2651 2914 
Q 2772 3150 2772 3378 
Q 2772 3750 2511 3984 
Q 2250 4219 1831 4219 
Q 1534 4219 1204 4116 
Q 875 4013 500 3803 
L 500 4441 
Q 881 4594 1212 4672 
Q 1544 4750 1819 4750 
Q 2544 4750 2975 4387 
Q 3406 4025 3406 3419 
Q 3406 3131 3298 2873 
Q 3191 2616 2906 2266 
Q 2828 2175 2409 1742 
Q 1991 1309 1228 531 
z
" transform="scale(0.015625)"/>
       </defs>
       <use xlink:href="#DejaVuSans-31" transform="translate(0 0.765625)"/>
       <use xlink:href="#DejaVuSans-30" transform="translate(63.623047 0.765625)"/>
       <use xlink:href="#DejaVuSans-32" transform="translate(128.203125 39.046875) scale(0.7)"/>
      </g>
     </g>
    </g>
    <g id="xtick_5">
     <g id="line2d_5">
      <defs>
       <path id="m10524425e2" d="M 0 0 
L 0 2 
" style="stroke: #000000; stroke-width: 0.6"/>
      </defs>
      <g>
       <use xlink:href="#m10524425e2" x="61.726758" y="242.728" style="stroke: #000000; stroke-width: 0.6"/>
      </g>
     </g>
    </g>
    <g id="xtick_6">
     <g id="line2d_6">
      <g>
       <use xlink:href="#m10524425e2" x="88.253324" y="242.728" style="stroke: #000000; stroke-width: 0.6"/>
      </g>
     </g>
    </g>
    <g id="xtick_7">
     <g id="line2d_7">
      <g>
       <use xlink:href="#m10524425e2" x="101.722947" y="242.728" style="stroke: #000000; stroke-width: 0.6"/>
      </g>
     </g>
    </g>
    <g id="xtick_8">
     <g id="line2d_8">
      <g>
       <use xlink:href="#m10524425e2" x="111.279796" y="242.728" style="stroke: #000000; stroke-width: 0.6"/>
      </g>
     </g>
    </g>
    <g id="xtick_9">
     <g id="line2d_9">
      <g>
       <use xlink:href="#m10524425e2" x="118.692664" y="242.728" style="stroke: #000000; stroke-width: 0.6"/>
      </g>
     </g>
    </g>
    <g id="xtick_10">
     <g id="line2d_10">
      <g>
       <use xlink:href="#m10524425e2" x="124.749418" y="242.728" style="stroke: #000000; stroke-width: 0.6"/>
      </g>
     </g>
    </g>
    <g id="xtick_11">
     <g id="line2d_11">
      <g>
       <use xlink:href="#m10524425e2" x="129.870331" y="242.728" style="stroke: #000000; stroke-width: 0.6"/>
      </g>
     </g>
    </g>
    <g id="xtick_12">
     <g id="line2d_12">
      <g>
       <use xlink:href="#m10524425e2" x="134.306267" y="242.728" style="stroke: #000000; stroke-width: 0.6"/>
      </g>
     </g>
    </g>
    <g id="xtick_13">
     <g id="line2d_13">
      <g>
       <use xlink:href="#m10524425e2" x="138.21904" y="242.728" style="stroke: #000000; stroke-width: 0.6"/>
      </g>
     </g>
    </g>
    <g id="xtick_14">
     <g id="line2d_14">
      <g>
       <use xlink:href="#m10524425e2" x="164.745606" y="242.728" style="stroke: #000000; stroke-width: 0.6"/>
      </g>
     </g>
    </g>
    <g id="xtick_15">
     <g id="line2d_15">
      <g>
       <use xlink:href="#m10524425e2" x="178.215229" y="242.728" style="stroke: #000000; stroke-width: 0.6"/>
      </g>
     </g>
    </g>
    <g id="xtick_16">
     <g id="line2d_16">
      <g>
       <use xlink:href="#m10524425e2" x="187.772078" y="242.728" style="stroke: #000000; stroke-width: 0.6"/>
      </g>
     </g>
    </g>
    <g id="xtick_17">
     <g id="line2d_17">
      <g>
       <use xlink:href="#m10524425e2" x="195.184946" y="242.728" style="stroke: #000000; stroke-width: 0.6"/>
      </g>
     </g>
    </g>
    <g id="xtick_18">
     <g id="line2d_18">
      <g>
       <use xlink:href="#m10524425e2" x="201.2417" y="242.728" style="stroke: #000000; stroke-width: 0.6"/>
      </g>
     </g>
    </g>
    <g id="xtick_19">
     <g id="line2d_19">
      <g>
       <use xlink:href="#m10524425e2" x="206.362613" y="242.728" style="stroke: #000000; stroke-width: 0.6"/>
      </g>
     </g>
    </g>
    <g id="xtick_20">
     <g id="line2d_20">
      <g>
       <use xlink:href="#m10524425e2" x="210.798549" y="242.728" style="stroke: #000000; stroke-width: 0.6"/>
      </g>
     </g>
    </g>
    <g id="xtick_21">
     <g id="line2d_21">
      <g>
       <use xlink:href="#m10524425e2" x="214.711322" y="242.728" style="stroke: #000000; stroke-width: 0.6"/>
      </g>
     </g>
    </g>
    <g id="xtick_22">
     <g id="line2d_22">
      <g>
       <use xlink:href="#m10524425e2" x="241.237889" y="242.728" style="stroke: #000000; stroke-width: 0.6"/>
      </g>
     </g>
    </g>
    <g id="xtick_23">
     <g id="line2d_23">
      <g>
       <use xlink:href="#m10524425e2" x="254.707511" y="242.728" style="stroke: #000000; stroke-width: 0.6"/>
      </g>
     </g>
    </g>
    <g id="xtick_24">
     <g id="line2d_24">
      <g>
       <use xlink:href="#m10524425e2" x="264.26436" y="242.728" style="stroke: #000000; stroke-width: 0.6"/>
      </g>
     </g>
    </g>
    <g id="xtick_25">
     <g id="line2d_25">
      <g>
       <use xlink:href="#m10524425e2" x="271.677228" y="242.728" style="stroke: #000000; stroke-width: 0.6"/>
      </g>
     </g>
    </g>
    <g id="xtick_26">
     <g id="line2d_26">
      <g>
       <use xlink:href="#m10524425e2" x="277.733982" y="242.728" style="stroke: #000000; stroke-width: 0.6"/>
      </g>
     </g>
    </g>
    <g id="xtick_27">
     <g id="line2d_27">
      <g>
       <use xlink:href="#m10524425e2" x="282.854895" y="242.728" style="stroke: #000000; stroke-width: 0.6"/>
      </g>
     </g>
    </g>
    <g id="xtick_28">
     <g id="line2d_28">
      <g>
       <use xlink:href="#m10524425e2" x="287.290831" y="242.728" style="stroke: #000000; stroke-width: 0.6"/>
      </g>
     </g>
    </g>
    <g id="xtick_29">
     <g id="line2d_29">
      <g>
       <use xlink:href="#m10524425e2" x="291.203604" y="242.728" style="stroke: #000000; stroke-width: 0.6"/>
      </g>
     </g>
    </g>
   </g>
   <g id="matplotlib.axis_2">
    <g id="ytick_1">
     <g id="line2d_30">
      <defs>
       <path id="m78f4c083f0" d="M 0 0 
L -3.5 0 
" style="stroke: #000000; stroke-width: 0.8"/>
      </defs>
      <g>
       <use xlink:href="#m78f4c083f0" x="60.221389" y="106.06581" style="stroke: #000000; stroke-width: 0.8"/>
      </g>
     </g>
     <g id="text_5">
      <!-- $\mathdefault{10^{-12}}$ -->
      <g transform="translate(25.321389 109.865029) scale(0.1 -0.1)">
       <use xlink:href="#DejaVuSans-31" transform="translate(0 0.765625)"/>
       <use xlink:href="#DejaVuSans-30" transform="translate(63.623047 0.765625)"/>
       <use xlink:href="#DejaVuSans-2212" transform="translate(128.203125 39.046875) scale(0.7)"/>
       <use xlink:href="#DejaVuSans-31" transform="translate(186.855469 39.046875) scale(0.7)"/>
       <use xlink:href="#DejaVuSans-32" transform="translate(231.391602 39.046875) scale(0.7)"/>
      </g>
     </g>
    </g>
    <g id="ytick_2">
     <g id="line2d_31">
      <defs>
       <path id="m5aefebe53b" d="M 0 0 
L -2 0 
" style="stroke: #000000; stroke-width: 0.6"/>
      </defs>
      <g>
       <use xlink:href="#m5aefebe53b" x="60.221389" y="213.665972" style="stroke: #000000; stroke-width: 0.6"/>
      </g>
     </g>
    </g>
    <g id="ytick_3">
     <g id="line2d_32">
      <g>
       <use xlink:href="#m5aefebe53b" x="60.221389" y="186.558302" style="stroke: #000000; stroke-width: 0.6"/>
      </g>
     </g>
    </g>
    <g id="ytick_4">
     <g id="line2d_33">
      <g>
       <use xlink:href="#m5aefebe53b" x="60.221389" y="167.325104" style="stroke: #000000; stroke-width: 0.6"/>
      </g>
     </g>
    </g>
    <g id="ytick_5">
     <g id="line2d_34">
      <g>
       <use xlink:href="#m5aefebe53b" x="60.221389" y="152.406677" style="stroke: #000000; stroke-width: 0.6"/>
      </g>
     </g>
    </g>
    <g id="ytick_6">
     <g id="line2d_35">
      <g>
       <use xlink:href="#m5aefebe53b" x="60.221389" y="140.217435" style="stroke: #000000; stroke-width: 0.6"/>
      </g>
     </g>
    </g>
    <g id="ytick_7">
     <g id="line2d_36">
      <g>
       <use xlink:href="#m5aefebe53b" x="60.221389" y="129.911577" style="stroke: #000000; stroke-width: 0.6"/>
      </g>
     </g>
    </g>
    <g id="ytick_8">
     <g id="line2d_37">
      <g>
       <use xlink:href="#m5aefebe53b" x="60.221389" y="120.984237" style="stroke: #000000; stroke-width: 0.6"/>
      </g>
     </g>
    </g>
    <g id="ytick_9">
     <g id="line2d_38">
      <g>
       <use xlink:href="#m5aefebe53b" x="60.221389" y="113.109765" style="stroke: #000000; stroke-width: 0.6"/>
      </g>
     </g>
    </g>
    <g id="ytick_10">
     <g id="line2d_39">
      <g>
       <use xlink:href="#m5aefebe53b" x="60.221389" y="59.724943" style="stroke: #000000; stroke-width: 0.6"/>
      </g>
     </g>
    </g>
    <g id="ytick_11">
     <g id="line2d_40">
      <g>
       <use xlink:href="#m5aefebe53b" x="60.221389" y="32.617273" style="stroke: #000000; stroke-width: 0.6"/>
      </g>
     </g>
    </g>
    <g id="text_6">
     <!-- e2 * dnde [TeV / (cm2 s)] -->
     <g transform="translate(19.241702 196.563688) rotate(-90) scale(0.1 -0.1)">
      <defs>
       <path id="DejaVuSans-65" d="M 3597 1894 
L 3597 1613 
L 953 1613 
Q 991 1019 1311 708 
Q 1631 397 2203 397 
Q 2534 397 2845 478 
Q 3156 559 3463 722 
L 3463 178 
Q 3153 47 2828 -22 
Q 2503 -91 2169 -91 
Q 1331 -91 842 396 
Q 353 884 353 1716 
Q 353 2575 817 3079 
Q 1281 3584 2069 3584 
Q 2775 3584 3186 3129 
Q 3597 2675 3597 1894 
z
M 3022 2063 
Q 3016 2534 2758 2815 
Q 2500 3097 2075 3097 
Q 1594 3097 1305 2825 
Q 1016 2553 972 2059 
L 3022 2063 
z
" transform="scale(0.015625)"/>
       <path id="DejaVuSans-20" transform="scale(0.015625)"/>
       <path id="DejaVuSans-2a" d="M 3009 3897 
L 1888 3291 
L 3009 2681 
L 2828 2375 
L 1778 3009 
L 1778 1831 
L 1422 1831 
L 1422 3009 
L 372 2375 
L 191 2681 
L 1313 3291 
L 191 3897 
L 372 4206 
L 1422 3572 
L 1422 4750 
L 1778 4750 
L 1778 3572 
L 2828 4206 
L 3009 3897 
z
" transform="scale(0.015625)"/>
       <path id="DejaVuSans-64" d="M 2906 2969 
L 2906 4863 
L 3481 4863 
L 3481 0 
L 2906 0 
L 2906 525 
Q 2725 213 2448 61 
Q 2172 -91 1784 -91 
Q 1150 -91 751 415 
Q 353 922 353 1747 
Q 353 2572 751 3078 
Q 1150 3584 1784 3584 
Q 2172 3584 2448 3432 
Q 2725 3281 2906 2969 
z
M 947 1747 
Q 947 1113 1208 752 
Q 1469 391 1925 391 
Q 2381 391 2643 752 
Q 2906 1113 2906 1747 
Q 2906 2381 2643 2742 
Q 2381 3103 1925 3103 
Q 1469 3103 1208 2742 
Q 947 2381 947 1747 
z
" transform="scale(0.015625)"/>
       <path id="DejaVuSans-6e" d="M 3513 2113 
L 3513 0 
L 2938 0 
L 2938 2094 
Q 2938 2591 2744 2837 
Q 2550 3084 2163 3084 
Q 1697 3084 1428 2787 
Q 1159 2491 1159 1978 
L 1159 0 
L 581 0 
L 581 3500 
L 1159 3500 
L 1159 2956 
Q 1366 3272 1645 3428 
Q 1925 3584 2291 3584 
Q 2894 3584 3203 3211 
Q 3513 2838 3513 2113 
z
" transform="scale(0.015625)"/>
       <path id="DejaVuSans-5b" d="M 550 4863 
L 1875 4863 
L 1875 4416 
L 1125 4416 
L 1125 -397 
L 1875 -397 
L 1875 -844 
L 550 -844 
L 550 4863 
z
" transform="scale(0.015625)"/>
       <path id="DejaVuSans-54" d="M -19 4666 
L 3928 4666 
L 3928 4134 
L 2272 4134 
L 2272 0 
L 1638 0 
L 1638 4134 
L -19 4134 
L -19 4666 
z
" transform="scale(0.015625)"/>
       <path id="DejaVuSans-56" d="M 1831 0 
L 50 4666 
L 709 4666 
L 2188 738 
L 3669 4666 
L 4325 4666 
L 2547 0 
L 1831 0 
z
" transform="scale(0.015625)"/>
       <path id="DejaVuSans-2f" d="M 1625 4666 
L 2156 4666 
L 531 -594 
L 0 -594 
L 1625 4666 
z
" transform="scale(0.015625)"/>
       <path id="DejaVuSans-28" d="M 1984 4856 
Q 1566 4138 1362 3434 
Q 1159 2731 1159 2009 
Q 1159 1288 1364 580 
Q 1569 -128 1984 -844 
L 1484 -844 
Q 1016 -109 783 600 
Q 550 1309 550 2009 
Q 550 2706 781 3412 
Q 1013 4119 1484 4856 
L 1984 4856 
z
" transform="scale(0.015625)"/>
       <path id="DejaVuSans-63" d="M 3122 3366 
L 3122 2828 
Q 2878 2963 2633 3030 
Q 2388 3097 2138 3097 
Q 1578 3097 1268 2742 
Q 959 2388 959 1747 
Q 959 1106 1268 751 
Q 1578 397 2138 397 
Q 2388 397 2633 464 
Q 2878 531 3122 666 
L 3122 134 
Q 2881 22 2623 -34 
Q 2366 -91 2075 -91 
Q 1284 -91 818 406 
Q 353 903 353 1747 
Q 353 2603 823 3093 
Q 1294 3584 2113 3584 
Q 2378 3584 2631 3529 
Q 2884 3475 3122 3366 
z
" transform="scale(0.015625)"/>
       <path id="DejaVuSans-6d" d="M 3328 2828 
Q 3544 3216 3844 3400 
Q 4144 3584 4550 3584 
Q 5097 3584 5394 3201 
Q 5691 2819 5691 2113 
L 5691 0 
L 5113 0 
L 5113 2094 
Q 5113 2597 4934 2840 
Q 4756 3084 4391 3084 
Q 3944 3084 3684 2787 
Q 3425 2491 3425 1978 
L 3425 0 
L 2847 0 
L 2847 2094 
Q 2847 2600 2669 2842 
Q 2491 3084 2119 3084 
Q 1678 3084 1418 2786 
Q 1159 2488 1159 1978 
L 1159 0 
L 581 0 
L 581 3500 
L 1159 3500 
L 1159 2956 
Q 1356 3278 1631 3431 
Q 1906 3584 2284 3584 
Q 2666 3584 2933 3390 
Q 3200 3197 3328 2828 
z
" transform="scale(0.015625)"/>
       <path id="DejaVuSans-73" d="M 2834 3397 
L 2834 2853 
Q 2591 2978 2328 3040 
Q 2066 3103 1784 3103 
Q 1356 3103 1142 2972 
Q 928 2841 928 2578 
Q 928 2378 1081 2264 
Q 1234 2150 1697 2047 
L 1894 2003 
Q 2506 1872 2764 1633 
Q 3022 1394 3022 966 
Q 3022 478 2636 193 
Q 2250 -91 1575 -91 
Q 1294 -91 989 -36 
Q 684 19 347 128 
L 347 722 
Q 666 556 975 473 
Q 1284 391 1588 391 
Q 1994 391 2212 530 
Q 2431 669 2431 922 
Q 2431 1156 2273 1281 
Q 2116 1406 1581 1522 
L 1381 1569 
Q 847 1681 609 1914 
Q 372 2147 372 2553 
Q 372 3047 722 3315 
Q 1072 3584 1716 3584 
Q 2034 3584 2315 3537 
Q 2597 3491 2834 3397 
z
" transform="scale(0.015625)"/>
       <path id="DejaVuSans-29" d="M 513 4856 
L 1013 4856 
Q 1481 4119 1714 3412 
Q 1947 2706 1947 2009 
Q 1947 1309 1714 600 
Q 1481 -109 1013 -844 
L 513 -844 
Q 928 -128 1133 580 
Q 1338 1288 1338 2009 
Q 1338 2731 1133 3434 
Q 928 4138 513 4856 
z
" transform="scale(0.015625)"/>
       <path id="DejaVuSans-5d" d="M 1947 4863 
L 1947 -844 
L 622 -844 
L 622 -397 
L 1369 -397 
L 1369 4416 
L 622 4416 
L 622 4863 
L 1947 4863 
z
" transform="scale(0.015625)"/>
      </defs>
      <use xlink:href="#DejaVuSans-65"/>
      <use xlink:href="#DejaVuSans-32" x="61.523438"/>
      <use xlink:href="#DejaVuSans-20" x="125.146484"/>
      <use xlink:href="#DejaVuSans-2a" x="156.933594"/>
      <use xlink:href="#DejaVuSans-20" x="206.933594"/>
      <use xlink:href="#DejaVuSans-64" x="238.720703"/>
      <use xlink:href="#DejaVuSans-6e" x="302.197266"/>
      <use xlink:href="#DejaVuSans-64" x="365.576172"/>
      <use xlink:href="#DejaVuSans-65" x="429.052734"/>
      <use xlink:href="#DejaVuSans-20" x="490.576172"/>
      <use xlink:href="#DejaVuSans-5b" x="522.363281"/>
      <use xlink:href="#DejaVuSans-54" x="561.376953"/>
      <use xlink:href="#DejaVuSans-65" x="605.460938"/>
      <use xlink:href="#DejaVuSans-56" x="666.984375"/>
      <use xlink:href="#DejaVuSans-20" x="735.392578"/>
      <use xlink:href="#DejaVuSans-2f" x="767.179688"/>
      <use xlink:href="#DejaVuSans-20" x="800.871094"/>
      <use xlink:href="#DejaVuSans-28" x="832.658203"/>
      <use xlink:href="#DejaVuSans-63" x="871.671875"/>
      <use xlink:href="#DejaVuSans-6d" x="926.652344"/>
      <use xlink:href="#DejaVuSans-32" x="1024.064453"/>
      <use xlink:href="#DejaVuSans-20" x="1087.6875"/>
      <use xlink:href="#DejaVuSans-73" x="1119.474609"/>
      <use xlink:href="#DejaVuSans-29" x="1171.574219"/>
      <use xlink:href="#DejaVuSans-5d" x="1210.587891"/>
     </g>
    </g>
   </g>
   <g id="line2d_41">
    <path d="M 71.107197 83.46553 
L 73.30635 84.362154 
L 75.505503 85.258777 
L 77.704657 86.155401 
L 79.90381 87.052025 
L 82.102963 87.948648 
L 84.302116 88.845272 
L 86.501269 89.741895 
L 88.700422 90.638519 
L 90.899575 91.535143 
L 93.098728 92.431766 
L 95.297881 93.32839 
L 97.497035 94.225013 
L 99.696188 95.121637 
L 101.895341 96.01826 
L 104.094494 96.914884 
L 106.293647 97.811508 
L 108.4928 98.708131 
L 110.691953 99.604755 
L 112.891106 100.501378 
L 115.090259 101.398002 
L 117.289413 102.294626 
L 119.488566 103.191249 
L 121.687719 104.087873 
L 123.886872 104.984496 
L 126.086025 105.88112 
L 128.285178 106.777743 
L 130.484331 107.674367 
L 132.683484 108.570991 
L 134.882637 109.467614 
L 137.081791 110.364238 
L 139.280944 111.260861 
L 141.480097 112.157485 
L 143.67925 113.054109 
L 145.878403 113.950732 
L 148.077556 114.847356 
L 150.276709 115.743979 
L 152.475862 116.640603 
L 154.675015 117.537226 
L 156.874169 118.43385 
L 159.073322 119.330474 
L 161.272475 120.227097 
L 163.471628 121.123721 
L 165.670781 122.020344 
L 167.869934 122.916968 
L 170.069087 123.813592 
L 172.26824 124.710215 
L 174.467393 125.606839 
L 176.666547 126.503462 
L 178.8657 127.400086 
L 181.064853 128.296709 
L 183.264006 129.193333 
L 185.463159 130.089957 
L 187.662312 130.98658 
L 189.861465 131.883204 
L 192.060618 132.779827 
L 194.259771 133.676451 
L 196.458925 134.573075 
L 198.658078 135.469698 
L 200.857231 136.366322 
L 203.056384 137.262945 
L 205.255537 138.159569 
L 207.45469 139.056192 
L 209.653843 139.952816 
L 211.852996 140.84944 
L 214.052149 141.746063 
L 216.251302 142.642687 
L 218.450456 143.53931 
L 220.649609 144.435934 
L 222.848762 145.332558 
L 225.047915 146.229181 
L 227.247068 147.125805 
L 229.446221 148.022428 
L 231.645374 148.919052 
L 233.844527 149.815675 
L 236.04368 150.712299 
L 238.242834 151.608923 
L 240.441987 152.505546 
L 242.64114 153.40217 
L 244.840293 154.298793 
L 247.039446 155.195417 
L 249.238599 156.092041 
L 251.437752 156.988664 
L 253.636905 157.885288 
L 255.836058 158.781911 
L 258.035212 159.678535 
L 260.234365 160.575158 
L 262.433518 161.471782 
L 264.632671 162.368406 
L 266.831824 163.265029 
L 269.030977 164.161653 
L 271.23013 165.058276 
L 273.429283 165.9549 
L 275.628436 166.851524 
L 277.82759 167.748147 
L 280.026743 168.644771 
L 282.225896 169.541394 
L 284.425049 170.438018 
L 286.624202 171.334642 
L 288.823355 172.231265 
" clip-path="url(#p9274ede225)" style="fill: none; stroke: #c71585; stroke-opacity: 0.95; stroke-width: 2; stroke-linecap: square"/>
   </g>
   <g id="line2d_42">
    <path d="M 71.107197 63.077556 
L 73.30635 64.411645 
L 75.505503 65.745735 
L 77.704657 67.079824 
L 79.90381 68.413913 
L 82.102963 69.748002 
L 84.302116 71.082091 
L 86.501269 72.41618 
L 88.700422 73.750269 
L 90.899575 75.084358 
L 93.098728 76.418447 
L 95.297881 77.752536 
L 97.497035 79.086625 
L 99.696188 80.420714 
L 101.895341 81.754804 
L 104.094494 83.088893 
L 106.293647 84.422982 
L 108.4928 85.757071 
L 110.691953 87.09116 
L 112.891106 88.425249 
L 115.090259 89.759338 
L 117.289413 91.093427 
L 119.488566 92.427516 
L 121.687719 93.761605 
L 123.886872 95.095694 
L 126.086025 96.429783 
L 128.285178 97.763873 
L 130.484331 99.097962 
L 132.683484 100.432051 
L 134.882637 101.76614 
L 137.081791 103.100229 
L 139.280944 104.434318 
L 141.480097 105.768407 
L 143.67925 107.102496 
L 145.878403 108.436585 
L 148.077556 109.770674 
L 150.276709 111.104763 
L 152.475862 112.438853 
L 154.675015 113.772942 
L 156.874169 115.107031 
L 159.073322 116.44112 
L 161.272475 117.775209 
L 163.471628 119.109298 
L 165.670781 120.443387 
L 167.869934 121.777476 
L 170.069087 123.111565 
L 172.26824 124.445654 
L 174.467393 125.779743 
L 176.666547 127.113832 
L 178.8657 128.447922 
L 181.064853 129.782011 
L 183.264006 131.1161 
L 185.463159 132.450189 
L 187.662312 133.784278 
L 189.861465 135.118367 
L 192.060618 136.452456 
L 194.259771 137.786545 
L 196.458925 139.120634 
L 198.658078 140.454723 
L 200.857231 141.788812 
L 203.056384 143.122901 
L 205.255537 144.456991 
L 207.45469 145.79108 
L 209.653843 147.125169 
L 211.852996 148.459258 
L 214.052149 149.793347 
L 216.251302 151.127436 
L 218.450456 152.461525 
L 220.649609 153.795614 
L 222.848762 155.129703 
L 225.047915 156.463792 
L 227.247068 157.797881 
L 229.446221 159.13197 
L 231.645374 160.46606 
L 233.844527 161.800149 
L 236.04368 163.134238 
L 238.242834 164.468327 
L 240.441987 165.802416 
L 242.64114 167.136505 
L 244.840293 168.470594 
L 247.039446 169.804683 
L 249.238599 171.138772 
L 251.437752 172.472861 
L 253.636905 173.80695 
L 255.836058 175.14104 
L 258.035212 176.475129 
L 260.234365 177.809218 
L 262.433518 179.143307 
L 264.632671 180.477396 
L 266.831824 181.811485 
L 269.030977 183.145574 
L 271.23013 184.479663 
L 273.429283 185.813752 
L 275.628436 187.147841 
L 277.82759 188.48193 
L 280.026743 189.816019 
L 282.225896 191.150109 
L 284.425049 192.484198 
L 286.624202 193.818287 
L 288.823355 195.152376 
" clip-path="url(#p9274ede225)" style="fill: none; stroke: #c71585; stroke-opacity: 0.95; stroke-width: 2; stroke-linecap: square"/>
   </g>
   <g id="line2d_43">
    <path d="M 71.107197 48.389244 
L 73.30635 50.064208 
L 75.505503 51.739172 
L 77.704657 53.414136 
L 79.90381 55.0891 
L 82.102963 56.764064 
L 84.302116 58.439027 
L 86.501269 60.113991 
L 88.700422 61.788955 
L 90.899575 63.463919 
L 93.098728 65.138883 
L 95.297881 66.813847 
L 97.497035 68.488811 
L 99.696188 70.163775 
L 101.895341 71.838739 
L 104.094494 73.513703 
L 106.293647 75.188667 
L 108.4928 76.863631 
L 110.691953 78.538595 
L 112.891106 80.213559 
L 115.090259 81.888523 
L 117.289413 83.563487 
L 119.488566 85.238451 
L 121.687719 86.913415 
L 123.886872 88.588379 
L 126.086025 90.263343 
L 128.285178 91.938307 
L 130.484331 93.613271 
L 132.683484 95.288234 
L 134.882637 96.963198 
L 137.081791 98.638162 
L 139.280944 100.313126 
L 141.480097 101.98809 
L 143.67925 103.663054 
L 145.878403 105.338018 
L 148.077556 107.012982 
L 150.276709 108.687946 
L 152.475862 110.36291 
L 154.675015 112.037874 
L 156.874169 113.712838 
L 159.073322 115.387802 
L 161.272475 117.062766 
L 163.471628 118.73773 
L 165.670781 120.412694 
L 167.869934 122.087658 
L 170.069087 123.762622 
L 172.26824 125.437586 
L 174.467393 127.11255 
L 176.666547 128.787514 
L 178.8657 130.462478 
L 181.064853 132.137442 
L 183.264006 133.812405 
L 185.463159 135.487369 
L 187.662312 137.162333 
L 189.861465 138.837297 
L 192.060618 140.512261 
L 194.259771 142.187225 
L 196.458925 143.862189 
L 198.658078 145.537153 
L 200.857231 147.212117 
L 203.056384 148.887081 
L 205.255537 150.562045 
L 207.45469 152.237009 
L 209.653843 153.911973 
L 211.852996 155.586937 
L 214.052149 157.261901 
L 216.251302 158.936865 
L 218.450456 160.611829 
L 220.649609 162.286793 
L 222.848762 163.961757 
L 225.047915 165.636721 
L 227.247068 167.311685 
L 229.446221 168.986649 
L 231.645374 170.661613 
L 233.844527 172.336576 
L 236.04368 174.01154 
L 238.242834 175.686504 
L 240.441987 177.361468 
L 242.64114 179.036432 
L 244.840293 180.711396 
L 247.039446 182.38636 
L 249.238599 184.061324 
L 251.437752 185.736288 
L 253.636905 187.411252 
L 255.836058 189.086216 
L 258.035212 190.76118 
L 260.234365 192.436144 
L 262.433518 194.111108 
L 264.632671 195.786072 
L 266.831824 197.461036 
L 269.030977 199.136 
L 271.23013 200.810964 
L 273.429283 202.485928 
L 275.628436 204.160892 
L 277.82759 205.835856 
L 280.026743 207.51082 
L 282.225896 209.185783 
L 284.425049 210.860747 
L 286.624202 212.535711 
L 288.823355 214.210675 
" clip-path="url(#p9274ede225)" style="fill: none; stroke: #c71585; stroke-opacity: 0.95; stroke-width: 2; stroke-linecap: square"/>
   </g>
   <g id="patch_3">
    <path d="M 60.221389 242.728 
L 60.221389 25.44 
" style="fill: none; stroke: #000000; stroke-width: 0.8; stroke-linejoin: miter; stroke-linecap: square"/>
   </g>
   <g id="patch_4">
    <path d="M 299.709163 242.728 
L 299.709163 25.44 
" style="fill: none; stroke: #000000; stroke-width: 0.8; stroke-linejoin: miter; stroke-linecap: square"/>
   </g>
   <g id="patch_5">
    <path d="M 60.221389 242.728 
L 299.709163 242.728 
" style="fill: none; stroke: #000000; stroke-width: 0.8; stroke-linejoin: miter; stroke-linecap: square"/>
   </g>
   <g id="patch_6">
    <path d="M 60.221389 25.44 
L 299.709163 25.44 
" style="fill: none; stroke: #000000; stroke-width: 0.8; stroke-linejoin: miter; stroke-linecap: square"/>
   </g>
   <g id="text_7">
    <!-- bias=0.1; res=0 -->
    <g transform="translate(131.194651 19.44) scale(0.12 -0.12)">
     <defs>
      <path id="DejaVuSans-62" d="M 3116 1747 
Q 3116 2381 2855 2742 
Q 2594 3103 2138 3103 
Q 1681 3103 1420 2742 
Q 1159 2381 1159 1747 
Q 1159 1113 1420 752 
Q 1681 391 2138 391 
Q 2594 391 2855 752 
Q 3116 1113 3116 1747 
z
M 1159 2969 
Q 1341 3281 1617 3432 
Q 1894 3584 2278 3584 
Q 2916 3584 3314 3078 
Q 3713 2572 3713 1747 
Q 3713 922 3314 415 
Q 2916 -91 2278 -91 
Q 1894 -91 1617 61 
Q 1341 213 1159 525 
L 1159 0 
L 581 0 
L 581 4863 
L 1159 4863 
L 1159 2969 
z
" transform="scale(0.015625)"/>
      <path id="DejaVuSans-69" d="M 603 3500 
L 1178 3500 
L 1178 0 
L 603 0 
L 603 3500 
z
M 603 4863 
L 1178 4863 
L 1178 4134 
L 603 4134 
L 603 4863 
z
" transform="scale(0.015625)"/>
      <path id="DejaVuSans-61" d="M 2194 1759 
Q 1497 1759 1228 1600 
Q 959 1441 959 1056 
Q 959 750 1161 570 
Q 1363 391 1709 391 
Q 2188 391 2477 730 
Q 2766 1069 2766 1631 
L 2766 1759 
L 2194 1759 
z
M 3341 1997 
L 3341 0 
L 2766 0 
L 2766 531 
Q 2569 213 2275 61 
Q 1981 -91 1556 -91 
Q 1019 -91 701 211 
Q 384 513 384 1019 
Q 384 1609 779 1909 
Q 1175 2209 1959 2209 
L 2766 2209 
L 2766 2266 
Q 2766 2663 2505 2880 
Q 2244 3097 1772 3097 
Q 1472 3097 1187 3025 
Q 903 2953 641 2809 
L 641 3341 
Q 956 3463 1253 3523 
Q 1550 3584 1831 3584 
Q 2591 3584 2966 3190 
Q 3341 2797 3341 1997 
z
" transform="scale(0.015625)"/>
      <path id="DejaVuSans-3d" d="M 678 2906 
L 4684 2906 
L 4684 2381 
L 678 2381 
L 678 2906 
z
M 678 1631 
L 4684 1631 
L 4684 1100 
L 678 1100 
L 678 1631 
z
" transform="scale(0.015625)"/>
      <path id="DejaVuSans-2e" d="M 684 794 
L 1344 794 
L 1344 0 
L 684 0 
L 684 794 
z
" transform="scale(0.015625)"/>
      <path id="DejaVuSans-3b" d="M 750 3309 
L 1409 3309 
L 1409 2516 
L 750 2516 
L 750 3309 
z
M 750 794 
L 1409 794 
L 1409 256 
L 897 -744 
L 494 -744 
L 750 256 
L 750 794 
z
" transform="scale(0.015625)"/>
      <path id="DejaVuSans-72" d="M 2631 2963 
Q 2534 3019 2420 3045 
Q 2306 3072 2169 3072 
Q 1681 3072 1420 2755 
Q 1159 2438 1159 1844 
L 1159 0 
L 581 0 
L 581 3500 
L 1159 3500 
L 1159 2956 
Q 1341 3275 1631 3429 
Q 1922 3584 2338 3584 
Q 2397 3584 2469 3576 
Q 2541 3569 2628 3553 
L 2631 2963 
z
" transform="scale(0.015625)"/>
     </defs>
     <use xlink:href="#DejaVuSans-62"/>
     <use xlink:href="#DejaVuSans-69" x="63.476562"/>
     <use xlink:href="#DejaVuSans-61" x="91.259766"/>
     <use xlink:href="#DejaVuSans-73" x="152.539062"/>
     <use xlink:href="#DejaVuSans-3d" x="204.638672"/>
     <use xlink:href="#DejaVuSans-30" x="288.427734"/>
     <use xlink:href="#DejaVuSans-2e" x="352.050781"/>
     <use xlink:href="#DejaVuSans-31" x="383.837891"/>
     <use xlink:href="#DejaVuSans-3b" x="447.460938"/>
     <use xlink:href="#DejaVuSans-20" x="481.152344"/>
     <use xlink:href="#DejaVuSans-72" x="512.939453"/>
     <use xlink:href="#DejaVuSans-65" x="551.802734"/>
     <use xlink:href="#DejaVuSans-73" x="613.326172"/>
     <use xlink:href="#DejaVuSans-3d" x="665.425781"/>
     <use xlink:href="#DejaVuSans-30" x="749.214844"/>
    </g>
   </g>
  </g>
  <g id="axes_2">
   <g id="patch_7">
    <path d="M 332.984308 242.728 
L 572.472082 242.728 
L 572.472082 25.44 
L 332.984308 25.44 
z
" style="fill: #ffffff"/>
   </g>
   <g id="PolyCollection_4">
    <path d="M 343.870116 60.209567 
L 343.870116 87.747747 
L 346.069269 88.558376 
L 348.268422 89.371197 
L 350.467575 90.186228 
L 352.666728 91.003489 
L 354.865881 91.823003 
L 357.065034 92.644797 
L 359.264188 93.468901 
L 361.463341 94.295349 
L 363.662494 95.12418 
L 365.861647 95.955436 
L 368.0608 96.789166 
L 370.259953 97.625425 
L 372.459106 98.464272 
L 374.658259 99.305776 
L 376.857412 100.150012 
L 379.056565 100.997063 
L 381.255719 101.847023 
L 383.454872 102.699996 
L 385.654025 103.556097 
L 387.853178 104.415455 
L 390.052331 105.278213 
L 392.251484 106.144531 
L 394.450637 107.014585 
L 396.64979 107.888574 
L 398.848943 108.766717 
L 401.048097 109.649258 
L 403.24725 110.536471 
L 405.446403 111.428658 
L 407.645556 112.326156 
L 409.844709 113.22934 
L 412.043862 114.138623 
L 414.243015 115.054464 
L 416.442168 115.977371 
L 418.641321 116.9079 
L 420.840475 117.84666 
L 423.039628 118.794313 
L 425.238781 119.751574 
L 427.437934 120.719209 
L 429.637087 121.698027 
L 431.83624 122.68887 
L 434.035393 123.692602 
L 436.234546 124.710089 
L 438.433699 125.742177 
L 440.632853 126.78966 
L 442.832006 127.853257 
L 445.031159 128.933577 
L 447.230312 130.031091 
L 449.429465 131.146108 
L 451.628618 132.278757 
L 453.827771 133.42898 
L 456.026924 134.596538 
L 458.226077 135.78102 
L 460.425231 136.981868 
L 462.624384 138.198403 
L 464.823537 139.429855 
L 467.02269 140.675396 
L 469.221843 141.934164 
L 471.420996 143.205292 
L 473.620149 144.487928 
L 475.819302 145.781247 
L 478.018455 147.084467 
L 480.217609 148.396854 
L 482.416762 149.717722 
L 484.615915 151.046443 
L 486.815068 152.38244 
L 489.014221 153.725187 
L 491.213374 155.074207 
L 493.412527 156.429068 
L 495.61168 157.789381 
L 497.810833 159.154796 
L 500.009987 160.524995 
L 502.20914 161.899696 
L 504.408293 163.278643 
L 506.607446 164.661607 
L 508.806599 166.048381 
L 511.005752 167.438782 
L 513.204905 168.832643 
L 515.404058 170.229814 
L 517.603211 171.630162 
L 519.802365 173.033566 
L 522.001518 174.439917 
L 524.200671 175.849119 
L 526.399824 177.261084 
L 528.598977 178.675734 
L 530.79813 180.092997 
L 532.997283 181.512811 
L 535.196436 182.935119 
L 537.395589 184.359871 
L 539.594743 185.787022 
L 541.793896 187.21653 
L 543.993049 188.648361 
L 546.192202 190.082482 
L 548.391355 191.518867 
L 550.590508 192.957489 
L 552.789661 194.398329 
L 554.988814 195.841367 
L 557.187967 197.286588 
L 559.387121 198.733978 
L 561.586274 200.183527 
L 561.586274 171.26067 
L 561.586274 171.26067 
L 559.387121 170.343337 
L 557.187967 169.426262 
L 554.988814 168.509422 
L 552.789661 167.592792 
L 550.590508 166.676346 
L 548.391355 165.760055 
L 546.192202 164.843886 
L 543.993049 163.927806 
L 541.793896 163.011776 
L 539.594743 162.095755 
L 537.395589 161.179699 
L 535.196436 160.263557 
L 532.997283 159.347276 
L 530.79813 158.430796 
L 528.598977 157.514053 
L 526.399824 156.596976 
L 524.200671 155.679486 
L 522.001518 154.761497 
L 519.802365 153.842915 
L 517.603211 152.923634 
L 515.404058 152.003541 
L 513.204905 151.082508 
L 511.005752 150.160394 
L 508.806599 149.237045 
L 506.607446 148.312287 
L 504.408293 147.385932 
L 502.20914 146.457766 
L 500.009987 145.527557 
L 497.810833 144.595044 
L 495.61168 143.659937 
L 493.412527 142.721918 
L 491.213374 141.78063 
L 489.014221 140.835681 
L 486.815068 139.886634 
L 484.615915 138.933009 
L 482.416762 137.974277 
L 480.217609 137.009858 
L 478.018455 136.039119 
L 475.819302 135.061375 
L 473.620149 134.075886 
L 471.420996 133.081869 
L 469.221843 132.078497 
L 467.02269 131.064915 
L 464.823537 130.040255 
L 462.624384 129.003655 
L 460.425231 127.954284 
L 458.226077 126.891371 
L 456.026924 125.814236 
L 453.827771 124.722321 
L 451.628618 123.615214 
L 449.429465 122.492675 
L 447.230312 121.354647 
L 445.031159 120.20126 
L 442.832006 119.032823 
L 440.632853 117.849806 
L 438.433699 116.65282 
L 436.234546 115.442583 
L 434.035393 114.219893 
L 431.83624 112.985597 
L 429.637087 111.740561 
L 427.437934 110.485651 
L 425.238781 109.221713 
L 423.039628 107.949556 
L 420.840475 106.669949 
L 418.641321 105.38361 
L 416.442168 104.091204 
L 414.243015 102.793343 
L 412.043862 101.490587 
L 409.844709 100.183445 
L 407.645556 98.872381 
L 405.446403 97.557813 
L 403.24725 96.24012 
L 401.048097 94.919642 
L 398.848943 93.596687 
L 396.64979 92.271533 
L 394.450637 90.944428 
L 392.251484 89.615599 
L 390.052331 88.285248 
L 387.853178 86.953557 
L 385.654025 85.620694 
L 383.454872 84.286806 
L 381.255719 82.952029 
L 379.056565 81.616485 
L 376.857412 80.280285 
L 374.658259 78.94353 
L 372.459106 77.60631 
L 370.259953 76.268708 
L 368.0608 74.930801 
L 365.861647 73.592656 
L 363.662494 72.254336 
L 361.463341 70.915898 
L 359.264188 69.577395 
L 357.065034 68.238873 
L 354.865881 66.900378 
L 352.666728 65.561947 
L 350.467575 64.223619 
L 348.268422 62.885426 
L 346.069269 61.547399 
L 343.870116 60.209567 
z
" clip-path="url(#pdf0638b3c4)" style="fill: #6495ed; fill-opacity: 0.6"/>
   </g>
   <g id="PolyCollection_5">
    <path d="M 343.870116 49.197558 
L 343.870116 80.589276 
L 346.069269 81.526101 
L 348.268422 82.465997 
L 350.467575 83.408969 
L 352.666728 84.355026 
L 354.865881 85.30418 
L 357.065034 86.256448 
L 359.264188 87.211851 
L 361.463341 88.170416 
L 363.662494 89.132175 
L 365.861647 90.097164 
L 368.0608 91.06543 
L 370.259953 92.037024 
L 372.459106 93.012006 
L 374.658259 93.990445 
L 376.857412 94.972421 
L 379.056565 95.958026 
L 381.255719 96.947363 
L 383.454872 97.940551 
L 385.654025 98.937724 
L 387.853178 99.939036 
L 390.052331 100.944661 
L 392.251484 101.954796 
L 394.450637 102.969668 
L 396.64979 103.98953 
L 398.848943 105.014674 
L 401.048097 106.045429 
L 403.24725 107.082169 
L 405.446403 108.125321 
L 407.645556 109.175368 
L 409.844709 110.23286 
L 412.043862 111.298418 
L 414.243015 112.372747 
L 416.442168 113.456639 
L 418.641321 114.550986 
L 420.840475 115.656783 
L 423.039628 116.775133 
L 425.238781 117.907245 
L 427.437934 119.054427 
L 429.637087 120.218075 
L 431.83624 121.399639 
L 434.035393 122.60059 
L 436.234546 123.822368 
L 438.433699 125.066311 
L 440.632853 126.333591 
L 442.832006 127.625136 
L 445.031159 128.941566 
L 447.230312 130.283147 
L 449.429465 131.649771 
L 451.628618 133.040961 
L 453.827771 134.455913 
L 456.026924 135.893549 
L 458.226077 137.352591 
L 460.425231 138.831634 
L 462.624384 140.329213 
L 464.823537 141.843864 
L 467.02269 143.374164 
L 469.221843 144.918766 
L 471.420996 146.476416 
L 473.620149 148.045968 
L 475.819302 149.626381 
L 478.018455 151.21672 
L 480.217609 152.816153 
L 482.416762 154.423937 
L 484.615915 156.039418 
L 486.815068 157.662017 
L 489.014221 159.291224 
L 491.213374 160.926589 
L 493.412527 162.567717 
L 495.61168 164.214259 
L 497.810833 165.865909 
L 500.009987 167.522399 
L 502.20914 169.18349 
L 504.408293 170.848974 
L 506.607446 172.518667 
L 508.806599 174.192407 
L 511.005752 175.870052 
L 513.204905 177.551477 
L 515.404058 179.236572 
L 517.603211 180.92524 
L 519.802365 182.617398 
L 522.001518 184.312971 
L 524.200671 186.011896 
L 526.399824 187.714118 
L 528.598977 189.419588 
L 530.79813 191.128266 
L 532.997283 192.840118 
L 535.196436 194.555116 
L 537.395589 196.273235 
L 539.594743 197.994457 
L 541.793896 199.718768 
L 543.993049 201.446158 
L 546.192202 203.176619 
L 548.391355 204.910149 
L 550.590508 206.646748 
L 552.789661 208.386418 
L 554.988814 210.129164 
L 557.187967 211.874996 
L 559.387121 213.623923 
L 561.586274 215.375958 
L 561.586274 179.66412 
L 561.586274 179.66412 
L 559.387121 178.575898 
L 557.187967 177.488277 
L 554.988814 176.401244 
L 552.789661 175.314783 
L 550.590508 174.228877 
L 548.391355 173.143507 
L 546.192202 172.058651 
L 543.993049 170.974286 
L 541.793896 169.890387 
L 539.594743 168.806925 
L 537.395589 167.723867 
L 535.196436 166.64118 
L 532.997283 165.558825 
L 530.79813 164.476758 
L 528.598977 163.394933 
L 526.399824 162.313296 
L 524.200671 161.23179 
L 522.001518 160.15035 
L 519.802365 159.068903 
L 517.603211 157.987371 
L 515.404058 156.905664 
L 513.204905 155.823683 
L 511.005752 154.741317 
L 508.806599 153.658442 
L 506.607446 152.574921 
L 504.408293 151.490598 
L 502.20914 150.405298 
L 500.009987 149.318827 
L 497.810833 148.230965 
L 495.61168 147.141463 
L 493.412527 146.050041 
L 491.213374 144.956383 
L 489.014221 143.860133 
L 486.815068 142.760885 
L 484.615915 141.658182 
L 482.416762 140.551506 
L 480.217609 139.440269 
L 478.018455 138.32381 
L 475.819302 137.201382 
L 473.620149 136.072144 
L 471.420996 134.935156 
L 469.221843 133.789374 
L 467.02269 132.633643 
L 464.823537 131.466708 
L 462.624384 130.287216 
L 460.425231 129.093742 
L 458.226077 127.884819 
L 456.026924 126.658977 
L 453.827771 125.414811 
L 451.628618 124.15104 
L 449.429465 122.866586 
L 447.230312 121.560642 
L 445.031159 120.232732 
L 442.832006 118.882748 
L 440.632853 117.510955 
L 438.433699 116.117975 
L 436.234546 114.704737 
L 434.035393 113.272413 
L 431.83624 111.822346 
L 429.637087 110.355976 
L 427.437934 108.874777 
L 425.238781 107.380203 
L 423.039628 105.873653 
L 420.840475 104.356441 
L 418.641321 102.829779 
L 416.442168 101.294775 
L 414.243015 99.75243 
L 412.043862 98.203641 
L 409.844709 96.649207 
L 407.645556 95.089841 
L 405.446403 93.52617 
L 403.24725 91.958751 
L 401.048097 90.388077 
L 398.848943 88.814582 
L 396.64979 87.23865 
L 394.450637 85.660619 
L 392.251484 84.080792 
L 390.052331 82.499432 
L 387.853178 80.916776 
L 385.654025 79.333034 
L 383.454872 77.748391 
L 381.255719 76.163014 
L 379.056565 74.57705 
L 376.857412 72.990631 
L 374.658259 71.403875 
L 372.459106 69.816888 
L 370.259953 68.229765 
L 368.0608 66.64259 
L 365.861647 65.05544 
L 363.662494 63.468384 
L 361.463341 61.881484 
L 359.264188 60.294794 
L 357.065034 58.708367 
L 354.865881 57.122247 
L 352.666728 55.536475 
L 350.467575 53.951088 
L 348.268422 52.36612 
L 346.069269 50.781601 
L 343.870116 49.197558 
z
" clip-path="url(#pdf0638b3c4)" style="fill: #6495ed; fill-opacity: 0.6"/>
   </g>
   <g id="PolyCollection_6">
    <path d="M 343.870116 37.603134 
L 343.870116 69.538033 
L 346.069269 70.71347 
L 348.268422 71.892292 
L 350.467575 73.074505 
L 352.666728 74.260116 
L 354.865881 75.449139 
L 357.065034 76.641591 
L 359.264188 77.837496 
L 361.463341 79.036882 
L 363.662494 80.239785 
L 365.861647 81.446249 
L 368.0608 82.656322 
L 370.259953 83.870065 
L 372.459106 85.087547 
L 374.658259 86.308847 
L 376.857412 87.534059 
L 379.056565 88.763289 
L 381.255719 89.996658 
L 383.454872 91.234306 
L 385.654025 92.476393 
L 387.853178 93.7231 
L 390.052331 94.974636 
L 392.251484 96.231238 
L 394.450637 97.493176 
L 396.64979 98.760761 
L 398.848943 100.034344 
L 401.048097 101.314328 
L 403.24725 102.601174 
L 405.446403 103.895403 
L 407.645556 105.197615 
L 409.844709 106.50849 
L 412.043862 107.828798 
L 414.243015 109.159416 
L 416.442168 110.501328 
L 418.641321 111.855641 
L 420.840475 113.223581 
L 423.039628 114.6065 
L 425.238781 116.00586 
L 427.437934 117.423222 
L 429.637087 118.860205 
L 431.83624 120.318444 
L 434.035393 121.799521 
L 436.234546 123.304892 
L 438.433699 124.835794 
L 440.632853 126.393166 
L 442.832006 127.977576 
L 445.031159 129.589173 
L 447.230312 131.227677 
L 449.429465 132.8924 
L 451.628618 134.582304 
L 453.827771 136.296074 
L 456.026924 138.032208 
L 458.226077 139.789099 
L 460.425231 141.565111 
L 462.624384 143.358639 
L 464.823537 145.168149 
L 467.02269 146.99221 
L 469.221843 148.829511 
L 471.420996 150.678859 
L 473.620149 152.539188 
L 475.819302 154.409546 
L 478.018455 156.289092 
L 480.217609 158.177082 
L 482.416762 160.072862 
L 484.615915 161.975859 
L 486.815068 163.885569 
L 489.014221 165.801551 
L 491.213374 167.723418 
L 493.412527 169.650832 
L 495.61168 171.583495 
L 497.810833 173.521147 
L 500.009987 175.463561 
L 502.20914 177.410537 
L 504.408293 179.3619 
L 506.607446 181.317497 
L 508.806599 183.277193 
L 511.005752 185.240872 
L 513.204905 187.208433 
L 515.404058 189.179786 
L 517.603211 191.154855 
L 519.802365 193.133573 
L 522.001518 195.115885 
L 524.200671 197.101743 
L 526.399824 199.091105 
L 528.598977 201.083938 
L 530.79813 203.080216 
L 532.997283 205.079916 
L 535.196436 207.083023 
L 537.395589 209.089525 
L 539.594743 211.099415 
L 541.793896 213.112689 
L 543.993049 215.129349 
L 546.192202 217.149398 
L 548.391355 219.172843 
L 550.590508 221.199696 
L 552.789661 223.229969 
L 554.988814 225.263677 
L 557.187967 227.30084 
L 559.387121 229.341478 
L 561.586274 231.385615 
L 561.586274 192.996451 
L 561.586274 192.996451 
L 559.387121 191.657524 
L 557.187967 190.319293 
L 554.988814 188.981747 
L 552.789661 187.644874 
L 550.590508 186.308659 
L 548.391355 184.973088 
L 546.192202 183.638142 
L 543.993049 182.303803 
L 541.793896 180.970048 
L 539.594743 179.636855 
L 537.395589 178.304196 
L 535.196436 176.972042 
L 532.997283 175.64036 
L 530.79813 174.309115 
L 528.598977 172.978266 
L 526.399824 171.647768 
L 524.200671 170.317571 
L 522.001518 168.987621 
L 519.802365 167.657856 
L 517.603211 166.328208 
L 515.404058 164.9986 
L 513.204905 163.668947 
L 511.005752 162.339155 
L 508.806599 161.009117 
L 506.607446 159.678714 
L 504.408293 158.347814 
L 502.20914 157.016266 
L 500.009987 155.683903 
L 497.810833 154.350534 
L 495.61168 153.015947 
L 493.412527 151.6799 
L 491.213374 150.34212 
L 489.014221 149.002299 
L 486.815068 147.660086 
L 484.615915 146.315084 
L 482.416762 144.96684 
L 480.217609 143.614842 
L 478.018455 142.258506 
L 475.819302 140.89717 
L 473.620149 139.530083 
L 471.420996 138.156395 
L 469.221843 136.775148 
L 467.02269 135.385267 
L 464.823537 133.985556 
L 462.624384 132.574697 
L 460.425231 131.151253 
L 458.226077 129.713688 
L 456.026924 128.260392 
L 453.827771 126.789725 
L 451.628618 125.300077 
L 449.429465 123.789945 
L 447.230312 122.258011 
L 445.031159 120.703235 
L 442.832006 119.12493 
L 440.632853 117.522815 
L 438.433699 115.897039 
L 436.234546 114.248171 
L 434.035393 112.577149 
L 431.83624 110.885216 
L 429.637087 109.173826 
L 427.437934 107.444566 
L 425.238781 105.699074 
L 423.039628 103.938973 
L 420.840475 102.165827 
L 418.641321 100.381104 
L 416.442168 98.586161 
L 414.243015 96.78223 
L 412.043862 94.970424 
L 409.844709 93.151736 
L 407.645556 91.327046 
L 405.446403 89.497136 
L 403.24725 87.662695 
L 401.048097 85.824328 
L 398.848943 83.982569 
L 396.64979 82.137889 
L 394.450637 80.2907 
L 392.251484 78.441367 
L 390.052331 76.59021 
L 387.853178 74.737513 
L 385.654025 72.883527 
L 383.454872 71.028472 
L 381.255719 69.172546 
L 379.056565 67.315924 
L 376.857412 65.458759 
L 374.658259 63.60119 
L 372.459106 61.74334 
L 370.259953 59.885319 
L 368.0608 58.027226 
L 365.861647 56.169148 
L 363.662494 54.311163 
L 361.463341 52.453343 
L 359.264188 50.595752 
L 357.065034 48.738445 
L 354.865881 46.881475 
L 352.666728 45.024887 
L 350.467575 43.168724 
L 348.268422 41.313022 
L 346.069269 39.457815 
L 343.870116 37.603134 
z
" clip-path="url(#pdf0638b3c4)" style="fill: #6495ed; fill-opacity: 0.6"/>
   </g>
   <g id="matplotlib.axis_3">
    <g id="xtick_30">
     <g id="line2d_44">
      <g>
       <use xlink:href="#md8522b68c2" x="337.989772" y="242.728" style="stroke: #000000; stroke-width: 0.8"/>
      </g>
     </g>
     <g id="text_8">
      <!-- $\mathdefault{10^{-1}}$ -->
      <g transform="translate(326.239772 257.326437) scale(0.1 -0.1)">
       <use xlink:href="#DejaVuSans-31" transform="translate(0 0.684375)"/>
       <use xlink:href="#DejaVuSans-30" transform="translate(63.623047 0.684375)"/>
       <use xlink:href="#DejaVuSans-2212" transform="translate(128.203125 38.965625) scale(0.7)"/>
       <use xlink:href="#DejaVuSans-31" transform="translate(186.855469 38.965625) scale(0.7)"/>
      </g>
     </g>
    </g>
    <g id="xtick_31">
     <g id="line2d_45">
      <g>
       <use xlink:href="#md8522b68c2" x="414.482054" y="242.728" style="stroke: #000000; stroke-width: 0.8"/>
      </g>
     </g>
     <g id="text_9">
      <!-- $\mathdefault{10^{0}}$ -->
      <g transform="translate(405.682054 257.326437) scale(0.1 -0.1)">
       <use xlink:href="#DejaVuSans-31" transform="translate(0 0.765625)"/>
       <use xlink:href="#DejaVuSans-30" transform="translate(63.623047 0.765625)"/>
       <use xlink:href="#DejaVuSans-30" transform="translate(128.203125 39.046875) scale(0.7)"/>
      </g>
     </g>
    </g>
    <g id="xtick_32">
     <g id="line2d_46">
      <g>
       <use xlink:href="#md8522b68c2" x="490.974336" y="242.728" style="stroke: #000000; stroke-width: 0.8"/>
      </g>
     </g>
     <g id="text_10">
      <!-- $\mathdefault{10^{1}}$ -->
      <g transform="translate(482.174336 257.326437) scale(0.1 -0.1)">
       <use xlink:href="#DejaVuSans-31" transform="translate(0 0.684375)"/>
       <use xlink:href="#DejaVuSans-30" transform="translate(63.623047 0.684375)"/>
       <use xlink:href="#DejaVuSans-31" transform="translate(128.203125 38.965625) scale(0.7)"/>
      </g>
     </g>
    </g>
    <g id="xtick_33">
     <g id="line2d_47">
      <g>
       <use xlink:href="#md8522b68c2" x="567.466618" y="242.728" style="stroke: #000000; stroke-width: 0.8"/>
      </g>
     </g>
     <g id="text_11">
      <!-- $\mathdefault{10^{2}}$ -->
      <g transform="translate(558.666618 257.326437) scale(0.1 -0.1)">
       <use xlink:href="#DejaVuSans-31" transform="translate(0 0.765625)"/>
       <use xlink:href="#DejaVuSans-30" transform="translate(63.623047 0.765625)"/>
       <use xlink:href="#DejaVuSans-32" transform="translate(128.203125 39.046875) scale(0.7)"/>
      </g>
     </g>
    </g>
    <g id="xtick_34">
     <g id="line2d_48">
      <g>
       <use xlink:href="#m10524425e2" x="334.489677" y="242.728" style="stroke: #000000; stroke-width: 0.6"/>
      </g>
     </g>
    </g>
    <g id="xtick_35">
     <g id="line2d_49">
      <g>
       <use xlink:href="#m10524425e2" x="361.016243" y="242.728" style="stroke: #000000; stroke-width: 0.6"/>
      </g>
     </g>
    </g>
    <g id="xtick_36">
     <g id="line2d_50">
      <g>
       <use xlink:href="#m10524425e2" x="374.485865" y="242.728" style="stroke: #000000; stroke-width: 0.6"/>
      </g>
     </g>
    </g>
    <g id="xtick_37">
     <g id="line2d_51">
      <g>
       <use xlink:href="#m10524425e2" x="384.042714" y="242.728" style="stroke: #000000; stroke-width: 0.6"/>
      </g>
     </g>
    </g>
    <g id="xtick_38">
     <g id="line2d_52">
      <g>
       <use xlink:href="#m10524425e2" x="391.455582" y="242.728" style="stroke: #000000; stroke-width: 0.6"/>
      </g>
     </g>
    </g>
    <g id="xtick_39">
     <g id="line2d_53">
      <g>
       <use xlink:href="#m10524425e2" x="397.512337" y="242.728" style="stroke: #000000; stroke-width: 0.6"/>
      </g>
     </g>
    </g>
    <g id="xtick_40">
     <g id="line2d_54">
      <g>
       <use xlink:href="#m10524425e2" x="402.633249" y="242.728" style="stroke: #000000; stroke-width: 0.6"/>
      </g>
     </g>
    </g>
    <g id="xtick_41">
     <g id="line2d_55">
      <g>
       <use xlink:href="#m10524425e2" x="407.069186" y="242.728" style="stroke: #000000; stroke-width: 0.6"/>
      </g>
     </g>
    </g>
    <g id="xtick_42">
     <g id="line2d_56">
      <g>
       <use xlink:href="#m10524425e2" x="410.981959" y="242.728" style="stroke: #000000; stroke-width: 0.6"/>
      </g>
     </g>
    </g>
    <g id="xtick_43">
     <g id="line2d_57">
      <g>
       <use xlink:href="#m10524425e2" x="437.508525" y="242.728" style="stroke: #000000; stroke-width: 0.6"/>
      </g>
     </g>
    </g>
    <g id="xtick_44">
     <g id="line2d_58">
      <g>
       <use xlink:href="#m10524425e2" x="450.978147" y="242.728" style="stroke: #000000; stroke-width: 0.6"/>
      </g>
     </g>
    </g>
    <g id="xtick_45">
     <g id="line2d_59">
      <g>
       <use xlink:href="#m10524425e2" x="460.534996" y="242.728" style="stroke: #000000; stroke-width: 0.6"/>
      </g>
     </g>
    </g>
    <g id="xtick_46">
     <g id="line2d_60">
      <g>
       <use xlink:href="#m10524425e2" x="467.947864" y="242.728" style="stroke: #000000; stroke-width: 0.6"/>
      </g>
     </g>
    </g>
    <g id="xtick_47">
     <g id="line2d_61">
      <g>
       <use xlink:href="#m10524425e2" x="474.004619" y="242.728" style="stroke: #000000; stroke-width: 0.6"/>
      </g>
     </g>
    </g>
    <g id="xtick_48">
     <g id="line2d_62">
      <g>
       <use xlink:href="#m10524425e2" x="479.125531" y="242.728" style="stroke: #000000; stroke-width: 0.6"/>
      </g>
     </g>
    </g>
    <g id="xtick_49">
     <g id="line2d_63">
      <g>
       <use xlink:href="#m10524425e2" x="483.561468" y="242.728" style="stroke: #000000; stroke-width: 0.6"/>
      </g>
     </g>
    </g>
    <g id="xtick_50">
     <g id="line2d_64">
      <g>
       <use xlink:href="#m10524425e2" x="487.474241" y="242.728" style="stroke: #000000; stroke-width: 0.6"/>
      </g>
     </g>
    </g>
    <g id="xtick_51">
     <g id="line2d_65">
      <g>
       <use xlink:href="#m10524425e2" x="514.000807" y="242.728" style="stroke: #000000; stroke-width: 0.6"/>
      </g>
     </g>
    </g>
    <g id="xtick_52">
     <g id="line2d_66">
      <g>
       <use xlink:href="#m10524425e2" x="527.470429" y="242.728" style="stroke: #000000; stroke-width: 0.6"/>
      </g>
     </g>
    </g>
    <g id="xtick_53">
     <g id="line2d_67">
      <g>
       <use xlink:href="#m10524425e2" x="537.027278" y="242.728" style="stroke: #000000; stroke-width: 0.6"/>
      </g>
     </g>
    </g>
    <g id="xtick_54">
     <g id="line2d_68">
      <g>
       <use xlink:href="#m10524425e2" x="544.440146" y="242.728" style="stroke: #000000; stroke-width: 0.6"/>
      </g>
     </g>
    </g>
    <g id="xtick_55">
     <g id="line2d_69">
      <g>
       <use xlink:href="#m10524425e2" x="550.496901" y="242.728" style="stroke: #000000; stroke-width: 0.6"/>
      </g>
     </g>
    </g>
    <g id="xtick_56">
     <g id="line2d_70">
      <g>
       <use xlink:href="#m10524425e2" x="555.617813" y="242.728" style="stroke: #000000; stroke-width: 0.6"/>
      </g>
     </g>
    </g>
    <g id="xtick_57">
     <g id="line2d_71">
      <g>
       <use xlink:href="#m10524425e2" x="560.05375" y="242.728" style="stroke: #000000; stroke-width: 0.6"/>
      </g>
     </g>
    </g>
    <g id="xtick_58">
     <g id="line2d_72">
      <g>
       <use xlink:href="#m10524425e2" x="563.966523" y="242.728" style="stroke: #000000; stroke-width: 0.6"/>
      </g>
     </g>
    </g>
    <g id="text_12">
     <!-- Energy [TeV] -->
     <g transform="translate(421.030538 271.004562) scale(0.1 -0.1)">
      <defs>
       <path id="DejaVuSans-45" d="M 628 4666 
L 3578 4666 
L 3578 4134 
L 1259 4134 
L 1259 2753 
L 3481 2753 
L 3481 2222 
L 1259 2222 
L 1259 531 
L 3634 531 
L 3634 0 
L 628 0 
L 628 4666 
z
" transform="scale(0.015625)"/>
       <path id="DejaVuSans-67" d="M 2906 1791 
Q 2906 2416 2648 2759 
Q 2391 3103 1925 3103 
Q 1463 3103 1205 2759 
Q 947 2416 947 1791 
Q 947 1169 1205 825 
Q 1463 481 1925 481 
Q 2391 481 2648 825 
Q 2906 1169 2906 1791 
z
M 3481 434 
Q 3481 -459 3084 -895 
Q 2688 -1331 1869 -1331 
Q 1566 -1331 1297 -1286 
Q 1028 -1241 775 -1147 
L 775 -588 
Q 1028 -725 1275 -790 
Q 1522 -856 1778 -856 
Q 2344 -856 2625 -561 
Q 2906 -266 2906 331 
L 2906 616 
Q 2728 306 2450 153 
Q 2172 0 1784 0 
Q 1141 0 747 490 
Q 353 981 353 1791 
Q 353 2603 747 3093 
Q 1141 3584 1784 3584 
Q 2172 3584 2450 3431 
Q 2728 3278 2906 2969 
L 2906 3500 
L 3481 3500 
L 3481 434 
z
" transform="scale(0.015625)"/>
       <path id="DejaVuSans-79" d="M 2059 -325 
Q 1816 -950 1584 -1140 
Q 1353 -1331 966 -1331 
L 506 -1331 
L 506 -850 
L 844 -850 
Q 1081 -850 1212 -737 
Q 1344 -625 1503 -206 
L 1606 56 
L 191 3500 
L 800 3500 
L 1894 763 
L 2988 3500 
L 3597 3500 
L 2059 -325 
z
" transform="scale(0.015625)"/>
      </defs>
      <use xlink:href="#DejaVuSans-45"/>
      <use xlink:href="#DejaVuSans-6e" x="63.183594"/>
      <use xlink:href="#DejaVuSans-65" x="126.5625"/>
      <use xlink:href="#DejaVuSans-72" x="188.085938"/>
      <use xlink:href="#DejaVuSans-67" x="227.449219"/>
      <use xlink:href="#DejaVuSans-79" x="290.925781"/>
      <use xlink:href="#DejaVuSans-20" x="350.105469"/>
      <use xlink:href="#DejaVuSans-5b" x="381.892578"/>
      <use xlink:href="#DejaVuSans-54" x="420.90625"/>
      <use xlink:href="#DejaVuSans-65" x="464.990234"/>
      <use xlink:href="#DejaVuSans-56" x="526.513672"/>
      <use xlink:href="#DejaVuSans-5d" x="594.921875"/>
     </g>
    </g>
   </g>
   <g id="matplotlib.axis_4">
    <g id="ytick_12">
     <g id="line2d_73">
      <g>
       <use xlink:href="#m78f4c083f0" x="332.984308" y="106.06581" style="stroke: #000000; stroke-width: 0.8"/>
      </g>
     </g>
    </g>
    <g id="ytick_13">
     <g id="line2d_74">
      <g>
       <use xlink:href="#m5aefebe53b" x="332.984308" y="213.665972" style="stroke: #000000; stroke-width: 0.6"/>
      </g>
     </g>
    </g>
    <g id="ytick_14">
     <g id="line2d_75">
      <g>
       <use xlink:href="#m5aefebe53b" x="332.984308" y="186.558302" style="stroke: #000000; stroke-width: 0.6"/>
      </g>
     </g>
    </g>
    <g id="ytick_15">
     <g id="line2d_76">
      <g>
       <use xlink:href="#m5aefebe53b" x="332.984308" y="167.325104" style="stroke: #000000; stroke-width: 0.6"/>
      </g>
     </g>
    </g>
    <g id="ytick_16">
     <g id="line2d_77">
      <g>
       <use xlink:href="#m5aefebe53b" x="332.984308" y="152.406677" style="stroke: #000000; stroke-width: 0.6"/>
      </g>
     </g>
    </g>
    <g id="ytick_17">
     <g id="line2d_78">
      <g>
       <use xlink:href="#m5aefebe53b" x="332.984308" y="140.217435" style="stroke: #000000; stroke-width: 0.6"/>
      </g>
     </g>
    </g>
    <g id="ytick_18">
     <g id="line2d_79">
      <g>
       <use xlink:href="#m5aefebe53b" x="332.984308" y="129.911577" style="stroke: #000000; stroke-width: 0.6"/>
      </g>
     </g>
    </g>
    <g id="ytick_19">
     <g id="line2d_80">
      <g>
       <use xlink:href="#m5aefebe53b" x="332.984308" y="120.984237" style="stroke: #000000; stroke-width: 0.6"/>
      </g>
     </g>
    </g>
    <g id="ytick_20">
     <g id="line2d_81">
      <g>
       <use xlink:href="#m5aefebe53b" x="332.984308" y="113.109765" style="stroke: #000000; stroke-width: 0.6"/>
      </g>
     </g>
    </g>
    <g id="ytick_21">
     <g id="line2d_82">
      <g>
       <use xlink:href="#m5aefebe53b" x="332.984308" y="59.724943" style="stroke: #000000; stroke-width: 0.6"/>
      </g>
     </g>
    </g>
    <g id="ytick_22">
     <g id="line2d_83">
      <g>
       <use xlink:href="#m5aefebe53b" x="332.984308" y="32.617273" style="stroke: #000000; stroke-width: 0.6"/>
      </g>
     </g>
    </g>
    <g id="text_13">
     <!-- e2 * dnde [TeV / (cm2 s)] -->
     <g transform="translate(323.40462 196.563688) rotate(-90) scale(0.1 -0.1)">
      <use xlink:href="#DejaVuSans-65"/>
      <use xlink:href="#DejaVuSans-32" x="61.523438"/>
      <use xlink:href="#DejaVuSans-20" x="125.146484"/>
      <use xlink:href="#DejaVuSans-2a" x="156.933594"/>
      <use xlink:href="#DejaVuSans-20" x="206.933594"/>
      <use xlink:href="#DejaVuSans-64" x="238.720703"/>
      <use xlink:href="#DejaVuSans-6e" x="302.197266"/>
      <use xlink:href="#DejaVuSans-64" x="365.576172"/>
      <use xlink:href="#DejaVuSans-65" x="429.052734"/>
      <use xlink:href="#DejaVuSans-20" x="490.576172"/>
      <use xlink:href="#DejaVuSans-5b" x="522.363281"/>
      <use xlink:href="#DejaVuSans-54" x="561.376953"/>
      <use xlink:href="#DejaVuSans-65" x="605.460938"/>
      <use xlink:href="#DejaVuSans-56" x="666.984375"/>
      <use xlink:href="#DejaVuSans-20" x="735.392578"/>
      <use xlink:href="#DejaVuSans-2f" x="767.179688"/>
      <use xlink:href="#DejaVuSans-20" x="800.871094"/>
      <use xlink:href="#DejaVuSans-28" x="832.658203"/>
      <use xlink:href="#DejaVuSans-63" x="871.671875"/>
      <use xlink:href="#DejaVuSans-6d" x="926.652344"/>
      <use xlink:href="#DejaVuSans-32" x="1024.064453"/>
      <use xlink:href="#DejaVuSans-20" x="1087.6875"/>
      <use xlink:href="#DejaVuSans-73" x="1119.474609"/>
      <use xlink:href="#DejaVuSans-29" x="1171.574219"/>
      <use xlink:href="#DejaVuSans-5d" x="1210.587891"/>
     </g>
    </g>
   </g>
   <g id="line2d_84">
    <path d="M 343.870116 72.570681 
L 346.069269 73.697948 
L 348.268422 74.825215 
L 350.467575 75.952481 
L 352.666728 77.079748 
L 354.865881 78.207015 
L 357.065034 79.334281 
L 359.264188 80.461548 
L 361.463341 81.588815 
L 363.662494 82.716081 
L 365.861647 83.843348 
L 368.0608 84.970615 
L 370.259953 86.097882 
L 372.459106 87.225148 
L 374.658259 88.352415 
L 376.857412 89.479682 
L 379.056565 90.606948 
L 381.255719 91.734215 
L 383.454872 92.861482 
L 385.654025 93.988748 
L 387.853178 95.116015 
L 390.052331 96.243282 
L 392.251484 97.370549 
L 394.450637 98.497815 
L 396.64979 99.625082 
L 398.848943 100.752349 
L 401.048097 101.879615 
L 403.24725 103.006882 
L 405.446403 104.134149 
L 407.645556 105.261415 
L 409.844709 106.388682 
L 412.043862 107.515949 
L 414.243015 108.643216 
L 416.442168 109.770482 
L 418.641321 110.897749 
L 420.840475 112.025016 
L 423.039628 113.152282 
L 425.238781 114.279549 
L 427.437934 115.406816 
L 429.637087 116.534082 
L 431.83624 117.661349 
L 434.035393 118.788616 
L 436.234546 119.915883 
L 438.433699 121.043149 
L 440.632853 122.170416 
L 442.832006 123.297683 
L 445.031159 124.424949 
L 447.230312 125.552216 
L 449.429465 126.679483 
L 451.628618 127.806749 
L 453.827771 128.934016 
L 456.026924 130.061283 
L 458.226077 131.18855 
L 460.425231 132.315816 
L 462.624384 133.443083 
L 464.823537 134.57035 
L 467.02269 135.697616 
L 469.221843 136.824883 
L 471.420996 137.95215 
L 473.620149 139.079416 
L 475.819302 140.206683 
L 478.018455 141.33395 
L 480.217609 142.461217 
L 482.416762 143.588483 
L 484.615915 144.71575 
L 486.815068 145.843017 
L 489.014221 146.970283 
L 491.213374 148.09755 
L 493.412527 149.224817 
L 495.61168 150.352083 
L 497.810833 151.47935 
L 500.009987 152.606617 
L 502.20914 153.733883 
L 504.408293 154.86115 
L 506.607446 155.988417 
L 508.806599 157.115684 
L 511.005752 158.24295 
L 513.204905 159.370217 
L 515.404058 160.497484 
L 517.603211 161.62475 
L 519.802365 162.752017 
L 522.001518 163.879284 
L 524.200671 165.00655 
L 526.399824 166.133817 
L 528.598977 167.261084 
L 530.79813 168.388351 
L 532.997283 169.515617 
L 535.196436 170.642884 
L 537.395589 171.770151 
L 539.594743 172.897417 
L 541.793896 174.024684 
L 543.993049 175.151951 
L 546.192202 176.279217 
L 548.391355 177.406484 
L 550.590508 178.533751 
L 552.789661 179.661018 
L 554.988814 180.788284 
L 557.187967 181.915551 
L 559.387121 183.042818 
L 561.586274 184.170084 
" clip-path="url(#pdf0638b3c4)" style="fill: none; stroke: #191970; stroke-opacity: 0.95; stroke-width: 2; stroke-linecap: square"/>
   </g>
   <g id="line2d_85">
    <path d="M 343.870116 63.067623 
L 346.069269 64.401924 
L 348.268422 65.736224 
L 350.467575 67.070525 
L 352.666728 68.404825 
L 354.865881 69.739126 
L 357.065034 71.073426 
L 359.264188 72.407727 
L 361.463341 73.742027 
L 363.662494 75.076328 
L 365.861647 76.410628 
L 368.0608 77.744928 
L 370.259953 79.079229 
L 372.459106 80.413529 
L 374.658259 81.74783 
L 376.857412 83.08213 
L 379.056565 84.416431 
L 381.255719 85.750731 
L 383.454872 87.085032 
L 385.654025 88.419332 
L 387.853178 89.753633 
L 390.052331 91.087933 
L 392.251484 92.422233 
L 394.450637 93.756534 
L 396.64979 95.090834 
L 398.848943 96.425135 
L 401.048097 97.759435 
L 403.24725 99.093736 
L 405.446403 100.428036 
L 407.645556 101.762337 
L 409.844709 103.096637 
L 412.043862 104.430938 
L 414.243015 105.765238 
L 416.442168 107.099539 
L 418.641321 108.433839 
L 420.840475 109.768139 
L 423.039628 111.10244 
L 425.238781 112.43674 
L 427.437934 113.771041 
L 429.637087 115.105341 
L 431.83624 116.439642 
L 434.035393 117.773942 
L 436.234546 119.108243 
L 438.433699 120.442543 
L 440.632853 121.776844 
L 442.832006 123.111144 
L 445.031159 124.445444 
L 447.230312 125.779745 
L 449.429465 127.114045 
L 451.628618 128.448346 
L 453.827771 129.782646 
L 456.026924 131.116947 
L 458.226077 132.451247 
L 460.425231 133.785548 
L 462.624384 135.119848 
L 464.823537 136.454149 
L 467.02269 137.788449 
L 469.221843 139.12275 
L 471.420996 140.45705 
L 473.620149 141.79135 
L 475.819302 143.125651 
L 478.018455 144.459951 
L 480.217609 145.794252 
L 482.416762 147.128552 
L 484.615915 148.462853 
L 486.815068 149.797153 
L 489.014221 151.131454 
L 491.213374 152.465754 
L 493.412527 153.800055 
L 495.61168 155.134355 
L 497.810833 156.468655 
L 500.009987 157.802956 
L 502.20914 159.137256 
L 504.408293 160.471557 
L 506.607446 161.805857 
L 508.806599 163.140158 
L 511.005752 164.474458 
L 513.204905 165.808759 
L 515.404058 167.143059 
L 517.603211 168.47736 
L 519.802365 169.81166 
L 522.001518 171.145961 
L 524.200671 172.480261 
L 526.399824 173.814561 
L 528.598977 175.148862 
L 530.79813 176.483162 
L 532.997283 177.817463 
L 535.196436 179.151763 
L 537.395589 180.486064 
L 539.594743 181.820364 
L 541.793896 183.154665 
L 543.993049 184.488965 
L 546.192202 185.823266 
L 548.391355 187.157566 
L 550.590508 188.491866 
L 552.789661 189.826167 
L 554.988814 191.160467 
L 557.187967 192.494768 
L 559.387121 193.829068 
L 561.586274 195.163369 
" clip-path="url(#pdf0638b3c4)" style="fill: none; stroke: #191970; stroke-opacity: 0.95; stroke-width: 2; stroke-linecap: square"/>
   </g>
   <g id="line2d_86">
    <path d="M 343.870116 51.681652 
L 346.069269 53.275501 
L 348.268422 54.869349 
L 350.467575 56.463198 
L 352.666728 58.057046 
L 354.865881 59.650895 
L 357.065034 61.244743 
L 359.264188 62.838592 
L 361.463341 64.43244 
L 363.662494 66.026289 
L 365.861647 67.620137 
L 368.0608 69.213986 
L 370.259953 70.807834 
L 372.459106 72.401683 
L 374.658259 73.995531 
L 376.857412 75.589379 
L 379.056565 77.183228 
L 381.255719 78.777076 
L 383.454872 80.370925 
L 385.654025 81.964773 
L 387.853178 83.558622 
L 390.052331 85.15247 
L 392.251484 86.746319 
L 394.450637 88.340167 
L 396.64979 89.934016 
L 398.848943 91.527864 
L 401.048097 93.121713 
L 403.24725 94.715561 
L 405.446403 96.30941 
L 407.645556 97.903258 
L 409.844709 99.497106 
L 412.043862 101.090955 
L 414.243015 102.684803 
L 416.442168 104.278652 
L 418.641321 105.8725 
L 420.840475 107.466349 
L 423.039628 109.060197 
L 425.238781 110.654046 
L 427.437934 112.247894 
L 429.637087 113.841743 
L 431.83624 115.435591 
L 434.035393 117.02944 
L 436.234546 118.623288 
L 438.433699 120.217136 
L 440.632853 121.810985 
L 442.832006 123.404833 
L 445.031159 124.998682 
L 447.230312 126.59253 
L 449.429465 128.186379 
L 451.628618 129.780227 
L 453.827771 131.374076 
L 456.026924 132.967924 
L 458.226077 134.561773 
L 460.425231 136.155621 
L 462.624384 137.74947 
L 464.823537 139.343318 
L 467.02269 140.937167 
L 469.221843 142.531015 
L 471.420996 144.124863 
L 473.620149 145.718712 
L 475.819302 147.31256 
L 478.018455 148.906409 
L 480.217609 150.500257 
L 482.416762 152.094106 
L 484.615915 153.687954 
L 486.815068 155.281803 
L 489.014221 156.875651 
L 491.213374 158.4695 
L 493.412527 160.063348 
L 495.61168 161.657197 
L 497.810833 163.251045 
L 500.009987 164.844894 
L 502.20914 166.438742 
L 504.408293 168.03259 
L 506.607446 169.626439 
L 508.806599 171.220287 
L 511.005752 172.814136 
L 513.204905 174.407984 
L 515.404058 176.001833 
L 517.603211 177.595681 
L 519.802365 179.18953 
L 522.001518 180.783378 
L 524.200671 182.377227 
L 526.399824 183.971075 
L 528.598977 185.564924 
L 530.79813 187.158772 
L 532.997283 188.75262 
L 535.196436 190.346469 
L 537.395589 191.940317 
L 539.594743 193.534166 
L 541.793896 195.128014 
L 543.993049 196.721863 
L 546.192202 198.315711 
L 548.391355 199.90956 
L 550.590508 201.503408 
L 552.789661 203.097257 
L 554.988814 204.691105 
L 557.187967 206.284954 
L 559.387121 207.878802 
L 561.586274 209.472651 
" clip-path="url(#pdf0638b3c4)" style="fill: none; stroke: #191970; stroke-opacity: 0.95; stroke-width: 2; stroke-linecap: square"/>
   </g>
   <g id="patch_8">
    <path d="M 332.984308 242.728 
L 332.984308 25.44 
" style="fill: none; stroke: #000000; stroke-width: 0.8; stroke-linejoin: miter; stroke-linecap: square"/>
   </g>
   <g id="patch_9">
    <path d="M 572.472082 242.728 
L 572.472082 25.44 
" style="fill: none; stroke: #000000; stroke-width: 0.8; stroke-linejoin: miter; stroke-linecap: square"/>
   </g>
   <g id="patch_10">
    <path d="M 332.984308 242.728 
L 572.472082 242.728 
" style="fill: none; stroke: #000000; stroke-width: 0.8; stroke-linejoin: miter; stroke-linecap: square"/>
   </g>
   <g id="patch_11">
    <path d="M 332.984308 25.44 
L 572.472082 25.44 
" style="fill: none; stroke: #000000; stroke-width: 0.8; stroke-linejoin: miter; stroke-linecap: square"/>
   </g>
  </g>
  <g id="axes_3">
   <g id="patch_12">
    <path d="M 605.747226 242.728 
L 845.235 242.728 
L 845.235 25.44 
L 605.747226 25.44 
z
" style="fill: #ffffff"/>
   </g>
   <g id="matplotlib.axis_5">
    <g id="xtick_59">
     <g id="line2d_87">
      <g>
       <use xlink:href="#md8522b68c2" x="605.747226" y="242.728" style="stroke: #000000; stroke-width: 0.8"/>
      </g>
     </g>
     <g id="text_14">
      <!-- 0.0 -->
      <g transform="translate(597.795664 257.326437) scale(0.1 -0.1)">
       <use xlink:href="#DejaVuSans-30"/>
       <use xlink:href="#DejaVuSans-2e" x="63.623047"/>
       <use xlink:href="#DejaVuSans-30" x="95.410156"/>
      </g>
     </g>
    </g>
    <g id="xtick_60">
     <g id="line2d_88">
      <g>
       <use xlink:href="#md8522b68c2" x="653.644781" y="242.728" style="stroke: #000000; stroke-width: 0.8"/>
      </g>
     </g>
     <g id="text_15">
      <!-- 0.2 -->
      <g transform="translate(645.693219 257.326437) scale(0.1 -0.1)">
       <use xlink:href="#DejaVuSans-30"/>
       <use xlink:href="#DejaVuSans-2e" x="63.623047"/>
       <use xlink:href="#DejaVuSans-32" x="95.410156"/>
      </g>
     </g>
    </g>
    <g id="xtick_61">
     <g id="line2d_89">
      <g>
       <use xlink:href="#md8522b68c2" x="701.542336" y="242.728" style="stroke: #000000; stroke-width: 0.8"/>
      </g>
     </g>
     <g id="text_16">
      <!-- 0.4 -->
      <g transform="translate(693.590773 257.326437) scale(0.1 -0.1)">
       <defs>
        <path id="DejaVuSans-34" d="M 2419 4116 
L 825 1625 
L 2419 1625 
L 2419 4116 
z
M 2253 4666 
L 3047 4666 
L 3047 1625 
L 3713 1625 
L 3713 1100 
L 3047 1100 
L 3047 0 
L 2419 0 
L 2419 1100 
L 313 1100 
L 313 1709 
L 2253 4666 
z
" transform="scale(0.015625)"/>
       </defs>
       <use xlink:href="#DejaVuSans-30"/>
       <use xlink:href="#DejaVuSans-2e" x="63.623047"/>
       <use xlink:href="#DejaVuSans-34" x="95.410156"/>
      </g>
     </g>
    </g>
    <g id="xtick_62">
     <g id="line2d_90">
      <g>
       <use xlink:href="#md8522b68c2" x="749.439891" y="242.728" style="stroke: #000000; stroke-width: 0.8"/>
      </g>
     </g>
     <g id="text_17">
      <!-- 0.6 -->
      <g transform="translate(741.488328 257.326437) scale(0.1 -0.1)">
       <defs>
        <path id="DejaVuSans-36" d="M 2113 2584 
Q 1688 2584 1439 2293 
Q 1191 2003 1191 1497 
Q 1191 994 1439 701 
Q 1688 409 2113 409 
Q 2538 409 2786 701 
Q 3034 994 3034 1497 
Q 3034 2003 2786 2293 
Q 2538 2584 2113 2584 
z
M 3366 4563 
L 3366 3988 
Q 3128 4100 2886 4159 
Q 2644 4219 2406 4219 
Q 1781 4219 1451 3797 
Q 1122 3375 1075 2522 
Q 1259 2794 1537 2939 
Q 1816 3084 2150 3084 
Q 2853 3084 3261 2657 
Q 3669 2231 3669 1497 
Q 3669 778 3244 343 
Q 2819 -91 2113 -91 
Q 1303 -91 875 529 
Q 447 1150 447 2328 
Q 447 3434 972 4092 
Q 1497 4750 2381 4750 
Q 2619 4750 2861 4703 
Q 3103 4656 3366 4563 
z
" transform="scale(0.015625)"/>
       </defs>
       <use xlink:href="#DejaVuSans-30"/>
       <use xlink:href="#DejaVuSans-2e" x="63.623047"/>
       <use xlink:href="#DejaVuSans-36" x="95.410156"/>
      </g>
     </g>
    </g>
    <g id="xtick_63">
     <g id="line2d_91">
      <g>
       <use xlink:href="#md8522b68c2" x="797.337445" y="242.728" style="stroke: #000000; stroke-width: 0.8"/>
      </g>
     </g>
     <g id="text_18">
      <!-- 0.8 -->
      <g transform="translate(789.385883 257.326437) scale(0.1 -0.1)">
       <defs>
        <path id="DejaVuSans-38" d="M 2034 2216 
Q 1584 2216 1326 1975 
Q 1069 1734 1069 1313 
Q 1069 891 1326 650 
Q 1584 409 2034 409 
Q 2484 409 2743 651 
Q 3003 894 3003 1313 
Q 3003 1734 2745 1975 
Q 2488 2216 2034 2216 
z
M 1403 2484 
Q 997 2584 770 2862 
Q 544 3141 544 3541 
Q 544 4100 942 4425 
Q 1341 4750 2034 4750 
Q 2731 4750 3128 4425 
Q 3525 4100 3525 3541 
Q 3525 3141 3298 2862 
Q 3072 2584 2669 2484 
Q 3125 2378 3379 2068 
Q 3634 1759 3634 1313 
Q 3634 634 3220 271 
Q 2806 -91 2034 -91 
Q 1263 -91 848 271 
Q 434 634 434 1313 
Q 434 1759 690 2068 
Q 947 2378 1403 2484 
z
M 1172 3481 
Q 1172 3119 1398 2916 
Q 1625 2713 2034 2713 
Q 2441 2713 2670 2916 
Q 2900 3119 2900 3481 
Q 2900 3844 2670 4047 
Q 2441 4250 2034 4250 
Q 1625 4250 1398 4047 
Q 1172 3844 1172 3481 
z
" transform="scale(0.015625)"/>
       </defs>
       <use xlink:href="#DejaVuSans-30"/>
       <use xlink:href="#DejaVuSans-2e" x="63.623047"/>
       <use xlink:href="#DejaVuSans-38" x="95.410156"/>
      </g>
     </g>
    </g>
    <g id="xtick_64">
     <g id="line2d_92">
      <g>
       <use xlink:href="#md8522b68c2" x="845.235" y="242.728" style="stroke: #000000; stroke-width: 0.8"/>
      </g>
     </g>
     <g id="text_19">
      <!-- 1.0 -->
      <g transform="translate(837.283437 257.326437) scale(0.1 -0.1)">
       <use xlink:href="#DejaVuSans-31"/>
       <use xlink:href="#DejaVuSans-2e" x="63.623047"/>
       <use xlink:href="#DejaVuSans-30" x="95.410156"/>
      </g>
     </g>
    </g>
   </g>
   <g id="matplotlib.axis_6">
    <g id="ytick_23">
     <g id="line2d_93">
      <g>
       <use xlink:href="#m78f4c083f0" x="605.747226" y="106.06581" style="stroke: #000000; stroke-width: 0.8"/>
      </g>
     </g>
    </g>
    <g id="ytick_24">
     <g id="line2d_94">
      <g>
       <use xlink:href="#m5aefebe53b" x="605.747226" y="213.665972" style="stroke: #000000; stroke-width: 0.6"/>
      </g>
     </g>
    </g>
    <g id="ytick_25">
     <g id="line2d_95">
      <g>
       <use xlink:href="#m5aefebe53b" x="605.747226" y="186.558302" style="stroke: #000000; stroke-width: 0.6"/>
      </g>
     </g>
    </g>
    <g id="ytick_26">
     <g id="line2d_96">
      <g>
       <use xlink:href="#m5aefebe53b" x="605.747226" y="167.325104" style="stroke: #000000; stroke-width: 0.6"/>
      </g>
     </g>
    </g>
    <g id="ytick_27">
     <g id="line2d_97">
      <g>
       <use xlink:href="#m5aefebe53b" x="605.747226" y="152.406677" style="stroke: #000000; stroke-width: 0.6"/>
      </g>
     </g>
    </g>
    <g id="ytick_28">
     <g id="line2d_98">
      <g>
       <use xlink:href="#m5aefebe53b" x="605.747226" y="140.217435" style="stroke: #000000; stroke-width: 0.6"/>
      </g>
     </g>
    </g>
    <g id="ytick_29">
     <g id="line2d_99">
      <g>
       <use xlink:href="#m5aefebe53b" x="605.747226" y="129.911577" style="stroke: #000000; stroke-width: 0.6"/>
      </g>
     </g>
    </g>
    <g id="ytick_30">
     <g id="line2d_100">
      <g>
       <use xlink:href="#m5aefebe53b" x="605.747226" y="120.984237" style="stroke: #000000; stroke-width: 0.6"/>
      </g>
     </g>
    </g>
    <g id="ytick_31">
     <g id="line2d_101">
      <g>
       <use xlink:href="#m5aefebe53b" x="605.747226" y="113.109765" style="stroke: #000000; stroke-width: 0.6"/>
      </g>
     </g>
    </g>
    <g id="ytick_32">
     <g id="line2d_102">
      <g>
       <use xlink:href="#m5aefebe53b" x="605.747226" y="59.724943" style="stroke: #000000; stroke-width: 0.6"/>
      </g>
     </g>
    </g>
    <g id="ytick_33">
     <g id="line2d_103">
      <g>
       <use xlink:href="#m5aefebe53b" x="605.747226" y="32.617273" style="stroke: #000000; stroke-width: 0.6"/>
      </g>
     </g>
    </g>
   </g>
   <g id="patch_13">
    <path d="M 605.747226 242.728 
L 605.747226 25.44 
" style="fill: none; stroke: #000000; stroke-width: 0.8; stroke-linejoin: miter; stroke-linecap: square"/>
   </g>
   <g id="patch_14">
    <path d="M 845.235 242.728 
L 845.235 25.44 
" style="fill: none; stroke: #000000; stroke-width: 0.8; stroke-linejoin: miter; stroke-linecap: square"/>
   </g>
   <g id="patch_15">
    <path d="M 605.747226 242.728 
L 845.235 242.728 
" style="fill: none; stroke: #000000; stroke-width: 0.8; stroke-linejoin: miter; stroke-linecap: square"/>
   </g>
   <g id="patch_16">
    <path d="M 605.747226 25.44 
L 845.235 25.44 
" style="fill: none; stroke: #000000; stroke-width: 0.8; stroke-linejoin: miter; stroke-linecap: square"/>
   </g>
  </g>
 </g>
 <defs>
  <clipPath id="p9274ede225">
   <rect x="60.221389" y="25.44" width="239.487774" height="217.288"/>
  </clipPath>
  <clipPath id="pdf0638b3c4">
   <rect x="332.984308" y="25.44" width="239.487774" height="217.288"/>
  </clipPath>
 </defs>
</svg>
