<?xml version="1.0" encoding="utf-8" standalone="no"?>
<!DOCTYPE svg PUBLIC "-//W3C//DTD SVG 1.1//EN"
  "http://www.w3.org/Graphics/SVG/1.1/DTD/svg11.dtd">
<svg xmlns:xlink="http://www.w3.org/1999/xlink" width="432pt" height="288pt" viewBox="0 0 432 288" xmlns="http://www.w3.org/2000/svg" version="1.1">
 <metadata>
  <rdf:RDF xmlns:dc="http://purl.org/dc/elements/1.1/" xmlns:cc="http://creativecommons.org/ns#" xmlns:rdf="http://www.w3.org/1999/02/22-rdf-syntax-ns#">
   <cc:Work>
    <dc:type rdf:resource="http://purl.org/dc/dcmitype/StillImage"/>
    <dc:date>2023-03-18T18:06:02.178894</dc:date>
    <dc:format>image/svg+xml</dc:format>
    <dc:creator>
     <cc:Agent>
      <dc:title>Matplotlib v3.6.3, https://matplotlib.org/</dc:title>
     </cc:Agent>
    </dc:creator>
   </cc:Work>
  </rdf:RDF>
 </metadata>
 <defs>
  <style type="text/css">*{stroke-linejoin: round; stroke-linecap: butt}</style>
 </defs>
 <g id="figure_1">
  <g id="patch_1">
   <path d="M 0 288 
L 432 288 
L 432 0 
L 0 0 
z
" style="fill: #ffffff"/>
  </g>
  <g id="axes_1">
   <g id="patch_2">
    <path d="M 60.221389 242.728 
L 421.2 242.728 
L 421.2 10.8 
L 60.221389 10.8 
z
" style="fill: #ffffff"/>
   </g>
   <g id="PolyCollection_1">
    <path d="M 78.238969 63.949767 
L 78.238969 96.429513 
L 81.457892 96.910723 
L 84.676815 97.398806 
L 87.895737 97.893828 
L 91.11466 98.395878 
L 94.333582 98.905069 
L 97.552505 99.421543 
L 100.771428 99.945477 
L 103.99035 100.477086 
L 107.209273 101.016631 
L 110.428196 101.564426 
L 113.647118 102.120848 
L 116.866041 102.68635 
L 120.084963 103.26147 
L 123.303886 103.846855 
L 126.522809 104.443275 
L 129.741731 105.051654 
L 132.960654 105.673091 
L 136.179577 106.308904 
L 139.398499 106.960662 
L 142.617422 107.630236 
L 145.836344 108.319842 
L 149.055267 109.032093 
L 152.27419 109.770032 
L 155.493112 110.537149 
L 158.712035 111.337359 
L 161.930958 112.174909 
L 165.14988 113.054205 
L 168.368803 113.979528 
L 171.587726 114.954658 
L 174.806648 115.982457 
L 178.025571 117.064497 
L 181.244493 118.200829 
L 184.463416 119.38998 
L 187.682339 120.629163 
L 190.901261 121.914645 
L 194.120184 123.242167 
L 197.339107 124.607322 
L 200.558029 126.005843 
L 203.776952 127.433793 
L 206.995874 128.887648 
L 210.214797 130.364338 
L 213.43372 131.861221 
L 216.652642 133.376056 
L 219.871565 134.906952 
L 223.090488 136.452318 
L 226.30941 138.010824 
L 229.528333 139.581354 
L 232.747255 141.162976 
L 235.966178 142.754908 
L 239.185101 144.356499 
L 242.404023 145.967201 
L 245.622946 147.586556 
L 248.841869 149.214184 
L 252.060791 150.849766 
L 255.279714 152.493038 
L 258.498636 154.143781 
L 261.717559 155.801818 
L 264.936482 157.467003 
L 268.155404 159.13922 
L 271.374327 160.818381 
L 274.59325 162.504418 
L 277.812172 164.197283 
L 281.031095 165.896946 
L 284.250017 167.603393 
L 287.46894 169.316623 
L 290.687863 171.036647 
L 293.906785 172.763491 
L 297.125708 174.497187 
L 300.344631 176.23778 
L 303.563553 177.985324 
L 306.782476 179.739878 
L 310.001398 181.501514 
L 313.220321 183.270307 
L 316.439244 185.046344 
L 319.658166 186.829714 
L 322.877089 188.620517 
L 326.096012 190.418857 
L 329.314934 192.224846 
L 332.533857 194.038602 
L 335.752779 195.860249 
L 338.971702 197.689919 
L 342.190625 199.527748 
L 345.409547 201.373881 
L 348.62847 203.228468 
L 351.847393 205.091665 
L 355.066315 206.963637 
L 358.285238 208.844554 
L 361.50416 210.734594 
L 364.723083 212.633942 
L 367.942006 214.542791 
L 371.160928 216.461341 
L 374.379851 218.389801 
L 377.598774 220.328387 
L 380.817696 222.277324 
L 384.036619 224.236847 
L 387.255542 226.2072 
L 390.474464 228.188635 
L 393.693387 230.181417 
L 396.912309 232.185818 
L 396.912309 157.431481 
L 396.912309 157.431481 
L 393.693387 156.684639 
L 390.474464 155.939241 
L 387.255542 155.195294 
L 384.036619 154.452807 
L 380.817696 153.711788 
L 377.598774 152.972243 
L 374.379851 152.234181 
L 371.160928 151.497607 
L 367.942006 150.76253 
L 364.723083 150.028953 
L 361.50416 149.296884 
L 358.285238 148.566328 
L 355.066315 147.837289 
L 351.847393 147.10977 
L 348.62847 146.383776 
L 345.409547 145.659309 
L 342.190625 144.936369 
L 338.971702 144.214958 
L 335.752779 143.495076 
L 332.533857 142.77672 
L 329.314934 142.059886 
L 326.096012 141.344572 
L 322.877089 140.630769 
L 319.658166 139.91847 
L 316.439244 139.207664 
L 313.220321 138.498338 
L 310.001398 137.790475 
L 306.782476 137.084059 
L 303.563553 136.379065 
L 300.344631 135.675468 
L 297.125708 134.973238 
L 293.906785 134.272338 
L 290.687863 133.572727 
L 287.46894 132.874357 
L 284.250017 132.177173 
L 281.031095 131.481112 
L 277.812172 130.7861 
L 274.59325 130.092052 
L 271.374327 129.398873 
L 268.155404 128.706449 
L 264.936482 128.014652 
L 261.717559 127.323334 
L 258.498636 126.632322 
L 255.279714 125.94142 
L 252.060791 125.250396 
L 248.841869 124.558984 
L 245.622946 123.866873 
L 242.404023 123.173702 
L 239.185101 122.479046 
L 235.966178 121.782408 
L 232.747255 121.083206 
L 229.528333 120.38075 
L 226.30941 119.674226 
L 223.090488 118.962672 
L 219.871565 118.244944 
L 216.652642 117.519682 
L 213.43372 116.785274 
L 210.214797 116.039804 
L 206.995874 115.281009 
L 203.776952 114.506232 
L 200.558029 113.712382 
L 197.339107 112.895924 
L 194.120184 112.052905 
L 190.901261 111.179047 
L 187.682339 110.269935 
L 184.463416 109.321302 
L 181.244493 108.32941 
L 178.025571 107.291467 
L 174.806648 106.206 
L 171.587726 105.07306 
L 168.368803 103.894219 
L 165.14988 102.672343 
L 161.930958 101.41122 
L 158.712035 100.115137 
L 155.493112 98.788509 
L 152.27419 97.435595 
L 149.055267 96.060323 
L 145.836344 94.666199 
L 142.617422 93.256283 
L 139.398499 91.833205 
L 136.179577 90.399203 
L 132.960654 88.956171 
L 129.741731 87.505704 
L 126.522809 86.049145 
L 123.303886 84.587625 
L 120.084963 83.122095 
L 116.866041 81.653362 
L 113.647118 80.182105 
L 110.428196 78.708902 
L 107.209273 77.234244 
L 103.99035 75.758551 
L 100.771428 74.282182 
L 97.552505 72.805443 
L 94.333582 71.328599 
L 91.11466 69.851877 
L 87.895737 68.375474 
L 84.676815 66.89956 
L 81.457892 65.424281 
L 78.238969 63.949767 
z
" clip-path="url(#pf8944312ba)" style="fill: #6495ed; fill-opacity: 0.6"/>
   </g>
   <g id="PolyCollection_2">
    <path d="M 78.238969 69.466931 
L 78.238969 88.381451 
L 81.457892 89.244141 
L 84.676815 90.109235 
L 87.895737 90.976828 
L 91.11466 91.847022 
L 94.333582 92.71993 
L 97.552505 93.595672 
L 100.771428 94.474379 
L 103.99035 95.356196 
L 107.209273 96.241277 
L 110.428196 97.129791 
L 113.647118 98.021922 
L 116.866041 98.91787 
L 120.084963 99.817849 
L 123.303886 100.722094 
L 126.522809 101.630856 
L 129.741731 102.544409 
L 132.960654 103.463046 
L 136.179577 104.38708 
L 139.398499 105.316848 
L 142.617422 106.252708 
L 145.836344 107.19504 
L 149.055267 108.144243 
L 152.27419 109.100735 
L 155.493112 110.06495 
L 158.712035 111.037333 
L 161.930958 112.018336 
L 165.14988 113.008413 
L 168.368803 114.008011 
L 171.587726 115.017562 
L 174.806648 116.037476 
L 178.025571 117.068127 
L 181.244493 118.109847 
L 184.463416 119.162916 
L 187.682339 120.227551 
L 190.901261 121.3039 
L 194.120184 122.39204 
L 197.339107 123.49197 
L 200.558029 124.603614 
L 203.776952 125.726821 
L 206.995874 126.861373 
L 210.214797 128.006991 
L 213.43372 129.163341 
L 216.652642 130.330048 
L 219.871565 131.506703 
L 223.090488 132.692873 
L 226.30941 133.888111 
L 229.528333 135.091963 
L 232.747255 136.303978 
L 235.966178 137.523709 
L 239.185101 138.750724 
L 242.404023 139.984604 
L 245.622946 141.224951 
L 248.841869 142.471384 
L 252.060791 143.723548 
L 255.279714 144.981104 
L 258.498636 146.24374 
L 261.717559 147.511163 
L 264.936482 148.783099 
L 268.155404 150.059298 
L 271.374327 151.339526 
L 274.59325 152.623567 
L 277.812172 153.911222 
L 281.031095 155.202308 
L 284.250017 156.496657 
L 287.46894 157.794112 
L 290.687863 159.094531 
L 293.906785 160.397782 
L 297.125708 161.703744 
L 300.344631 163.012307 
L 303.563553 164.323367 
L 306.782476 165.636831 
L 310.001398 166.952611 
L 313.220321 168.270629 
L 316.439244 169.590811 
L 319.658166 170.91309 
L 322.877089 172.237404 
L 326.096012 173.563695 
L 329.314934 174.891912 
L 332.533857 176.222005 
L 335.752779 177.553931 
L 338.971702 178.887649 
L 342.190625 180.22312 
L 345.409547 181.560312 
L 348.62847 182.899191 
L 351.847393 184.239729 
L 355.066315 185.5819 
L 358.285238 186.925678 
L 361.50416 188.271042 
L 364.723083 189.61797 
L 367.942006 190.966446 
L 371.160928 192.316451 
L 374.379851 193.66797 
L 377.598774 195.020989 
L 380.817696 196.375496 
L 384.036619 197.73148 
L 387.255542 199.08893 
L 390.474464 200.447837 
L 393.693387 201.808194 
L 396.912309 203.169994 
L 396.912309 172.144313 
L 396.912309 172.144313 
L 393.693387 171.236558 
L 390.474464 170.328959 
L 387.255542 169.421502 
L 384.036619 168.514175 
L 380.817696 167.606962 
L 377.598774 166.699849 
L 374.379851 165.792818 
L 371.160928 164.885851 
L 367.942006 163.978931 
L 364.723083 163.072035 
L 361.50416 162.165143 
L 358.285238 161.258231 
L 355.066315 160.351274 
L 351.847393 159.444245 
L 348.62847 158.537116 
L 345.409547 157.629854 
L 342.190625 156.722427 
L 338.971702 155.814799 
L 335.752779 154.906931 
L 332.533857 153.998782 
L 329.314934 153.090307 
L 326.096012 152.181458 
L 322.877089 151.272183 
L 319.658166 150.362426 
L 316.439244 149.452126 
L 313.220321 148.541218 
L 310.001398 147.629632 
L 306.782476 146.71729 
L 303.563553 145.80411 
L 300.344631 144.890003 
L 297.125708 143.974872 
L 293.906785 143.058611 
L 290.687863 142.141106 
L 287.46894 141.222234 
L 284.250017 140.301861 
L 281.031095 139.37984 
L 277.812172 138.456016 
L 274.59325 137.530215 
L 271.374327 136.602253 
L 268.155404 135.671929 
L 264.936482 134.739026 
L 261.717559 133.803307 
L 258.498636 132.864519 
L 255.279714 131.922388 
L 252.060791 130.976619 
L 248.841869 130.026898 
L 245.622946 129.072885 
L 242.404023 128.114222 
L 239.185101 127.15053 
L 235.966178 126.181406 
L 232.747255 125.206432 
L 229.528333 124.225174 
L 226.30941 123.237185 
L 223.090488 122.242012 
L 219.871565 121.239201 
L 216.652642 120.228304 
L 213.43372 119.208888 
L 210.214797 118.180542 
L 206.995874 117.142891 
L 203.776952 116.095601 
L 200.558029 115.038392 
L 197.339107 113.971046 
L 194.120184 112.893413 
L 190.901261 111.805416 
L 187.682339 110.707054 
L 184.463416 109.598404 
L 181.244493 108.479613 
L 178.025571 107.350901 
L 174.806648 106.212546 
L 171.587726 105.064881 
L 168.368803 103.908282 
L 165.14988 102.743157 
L 161.930958 101.56994 
L 158.712035 100.38908 
L 155.493112 99.201029 
L 152.27419 98.006242 
L 149.055267 96.805164 
L 145.836344 95.598232 
L 142.617422 94.385862 
L 139.398499 93.168457 
L 136.179577 91.946397 
L 132.960654 90.720042 
L 129.741731 89.489729 
L 126.522809 88.255775 
L 123.303886 87.018474 
L 120.084963 85.7781 
L 116.866041 84.534907 
L 113.647118 83.289132 
L 110.428196 82.040992 
L 107.209273 80.790688 
L 103.99035 79.538406 
L 100.771428 78.284317 
L 97.552505 77.028579 
L 94.333582 75.771338 
L 91.11466 74.512728 
L 87.895737 73.252872 
L 84.676815 71.991885 
L 81.457892 70.729873 
L 78.238969 69.466931 
z
" clip-path="url(#pf8944312ba)" style="fill: #db7093; fill-opacity: 0.6"/>
   </g>
   <g id="matplotlib.axis_1">
    <g id="xtick_1">
     <g id="line2d_1">
      <defs>
       <path id="ma37429d295" d="M 0 0 
L 0 3.5 
" style="stroke: #000000; stroke-width: 0.8"/>
      </defs>
      <g>
       <use xlink:href="#ma37429d295" x="123.966605" y="242.728" style="stroke: #000000; stroke-width: 0.8"/>
      </g>
     </g>
     <g id="text_1">
      <!-- $\mathdefault{10^{0}}$ -->
      <g transform="translate(115.166605 257.326437) scale(0.1 -0.1)">
       <defs>
        <path id="DejaVuSans-31" d="M 794 531 
L 1825 531 
L 1825 4091 
L 703 3866 
L 703 4441 
L 1819 4666 
L 2450 4666 
L 2450 531 
L 3481 531 
L 3481 0 
L 794 0 
L 794 531 
z
" transform="scale(0.015625)"/>
        <path id="DejaVuSans-30" d="M 2034 4250 
Q 1547 4250 1301 3770 
Q 1056 3291 1056 2328 
Q 1056 1369 1301 889 
Q 1547 409 2034 409 
Q 2525 409 2770 889 
Q 3016 1369 3016 2328 
Q 3016 3291 2770 3770 
Q 2525 4250 2034 4250 
z
M 2034 4750 
Q 2819 4750 3233 4129 
Q 3647 3509 3647 2328 
Q 3647 1150 3233 529 
Q 2819 -91 2034 -91 
Q 1250 -91 836 529 
Q 422 1150 422 2328 
Q 422 3509 836 4129 
Q 1250 4750 2034 4750 
z
" transform="scale(0.015625)"/>
       </defs>
       <use xlink:href="#DejaVuSans-31" transform="translate(0 0.765625)"/>
       <use xlink:href="#DejaVuSans-30" transform="translate(63.623047 0.765625)"/>
       <use xlink:href="#DejaVuSans-30" transform="translate(128.203125 39.046875) scale(0.7)"/>
      </g>
     </g>
    </g>
    <g id="xtick_2">
     <g id="line2d_2">
      <g>
       <use xlink:href="#ma37429d295" x="275.445317" y="242.728" style="stroke: #000000; stroke-width: 0.8"/>
      </g>
     </g>
     <g id="text_2">
      <!-- $\mathdefault{10^{1}}$ -->
      <g transform="translate(266.645317 257.326437) scale(0.1 -0.1)">
       <use xlink:href="#DejaVuSans-31" transform="translate(0 0.684375)"/>
       <use xlink:href="#DejaVuSans-30" transform="translate(63.623047 0.684375)"/>
       <use xlink:href="#DejaVuSans-31" transform="translate(128.203125 38.965625) scale(0.7)"/>
      </g>
     </g>
    </g>
    <g id="xtick_3">
     <g id="line2d_3">
      <defs>
       <path id="mb726351082" d="M 0 0 
L 0 2 
" style="stroke: #000000; stroke-width: 0.6"/>
      </defs>
      <g>
       <use xlink:href="#mb726351082" x="63.687166" y="242.728" style="stroke: #000000; stroke-width: 0.6"/>
      </g>
     </g>
    </g>
    <g id="xtick_4">
     <g id="line2d_4">
      <g>
       <use xlink:href="#mb726351082" x="78.36697" y="242.728" style="stroke: #000000; stroke-width: 0.6"/>
      </g>
     </g>
    </g>
    <g id="xtick_5">
     <g id="line2d_5">
      <g>
       <use xlink:href="#mb726351082" x="90.361243" y="242.728" style="stroke: #000000; stroke-width: 0.6"/>
      </g>
     </g>
    </g>
    <g id="xtick_6">
     <g id="line2d_6">
      <g>
       <use xlink:href="#mb726351082" x="100.502256" y="242.728" style="stroke: #000000; stroke-width: 0.6"/>
      </g>
     </g>
    </g>
    <g id="xtick_7">
     <g id="line2d_7">
      <g>
       <use xlink:href="#mb726351082" x="109.286802" y="242.728" style="stroke: #000000; stroke-width: 0.6"/>
      </g>
     </g>
    </g>
    <g id="xtick_8">
     <g id="line2d_8">
      <g>
       <use xlink:href="#mb726351082" x="117.03532" y="242.728" style="stroke: #000000; stroke-width: 0.6"/>
      </g>
     </g>
    </g>
    <g id="xtick_9">
     <g id="line2d_9">
      <g>
       <use xlink:href="#mb726351082" x="169.566241" y="242.728" style="stroke: #000000; stroke-width: 0.6"/>
      </g>
     </g>
    </g>
    <g id="xtick_10">
     <g id="line2d_10">
      <g>
       <use xlink:href="#mb726351082" x="196.240319" y="242.728" style="stroke: #000000; stroke-width: 0.6"/>
      </g>
     </g>
    </g>
    <g id="xtick_11">
     <g id="line2d_11">
      <g>
       <use xlink:href="#mb726351082" x="215.165877" y="242.728" style="stroke: #000000; stroke-width: 0.6"/>
      </g>
     </g>
    </g>
    <g id="xtick_12">
     <g id="line2d_12">
      <g>
       <use xlink:href="#mb726351082" x="229.845681" y="242.728" style="stroke: #000000; stroke-width: 0.6"/>
      </g>
     </g>
    </g>
    <g id="xtick_13">
     <g id="line2d_13">
      <g>
       <use xlink:href="#mb726351082" x="241.839955" y="242.728" style="stroke: #000000; stroke-width: 0.6"/>
      </g>
     </g>
    </g>
    <g id="xtick_14">
     <g id="line2d_14">
      <g>
       <use xlink:href="#mb726351082" x="251.980968" y="242.728" style="stroke: #000000; stroke-width: 0.6"/>
      </g>
     </g>
    </g>
    <g id="xtick_15">
     <g id="line2d_15">
      <g>
       <use xlink:href="#mb726351082" x="260.765513" y="242.728" style="stroke: #000000; stroke-width: 0.6"/>
      </g>
     </g>
    </g>
    <g id="xtick_16">
     <g id="line2d_16">
      <g>
       <use xlink:href="#mb726351082" x="268.514032" y="242.728" style="stroke: #000000; stroke-width: 0.6"/>
      </g>
     </g>
    </g>
    <g id="xtick_17">
     <g id="line2d_17">
      <g>
       <use xlink:href="#mb726351082" x="321.044953" y="242.728" style="stroke: #000000; stroke-width: 0.6"/>
      </g>
     </g>
    </g>
    <g id="xtick_18">
     <g id="line2d_18">
      <g>
       <use xlink:href="#mb726351082" x="347.71903" y="242.728" style="stroke: #000000; stroke-width: 0.6"/>
      </g>
     </g>
    </g>
    <g id="xtick_19">
     <g id="line2d_19">
      <g>
       <use xlink:href="#mb726351082" x="366.644589" y="242.728" style="stroke: #000000; stroke-width: 0.6"/>
      </g>
     </g>
    </g>
    <g id="xtick_20">
     <g id="line2d_20">
      <g>
       <use xlink:href="#mb726351082" x="381.324393" y="242.728" style="stroke: #000000; stroke-width: 0.6"/>
      </g>
     </g>
    </g>
    <g id="xtick_21">
     <g id="line2d_21">
      <g>
       <use xlink:href="#mb726351082" x="393.318666" y="242.728" style="stroke: #000000; stroke-width: 0.6"/>
      </g>
     </g>
    </g>
    <g id="xtick_22">
     <g id="line2d_22">
      <g>
       <use xlink:href="#mb726351082" x="403.45968" y="242.728" style="stroke: #000000; stroke-width: 0.6"/>
      </g>
     </g>
    </g>
    <g id="xtick_23">
     <g id="line2d_23">
      <g>
       <use xlink:href="#mb726351082" x="412.244225" y="242.728" style="stroke: #000000; stroke-width: 0.6"/>
      </g>
     </g>
    </g>
    <g id="xtick_24">
     <g id="line2d_24">
      <g>
       <use xlink:href="#mb726351082" x="419.992743" y="242.728" style="stroke: #000000; stroke-width: 0.6"/>
      </g>
     </g>
    </g>
    <g id="text_3">
     <!-- Energy [TeV] -->
     <g transform="translate(209.013038 271.004562) scale(0.1 -0.1)">
      <defs>
       <path id="DejaVuSans-45" d="M 628 4666 
L 3578 4666 
L 3578 4134 
L 1259 4134 
L 1259 2753 
L 3481 2753 
L 3481 2222 
L 1259 2222 
L 1259 531 
L 3634 531 
L 3634 0 
L 628 0 
L 628 4666 
z
" transform="scale(0.015625)"/>
       <path id="DejaVuSans-6e" d="M 3513 2113 
L 3513 0 
L 2938 0 
L 2938 2094 
Q 2938 2591 2744 2837 
Q 2550 3084 2163 3084 
Q 1697 3084 1428 2787 
Q 1159 2491 1159 1978 
L 1159 0 
L 581 0 
L 581 3500 
L 1159 3500 
L 1159 2956 
Q 1366 3272 1645 3428 
Q 1925 3584 2291 3584 
Q 2894 3584 3203 3211 
Q 3513 2838 3513 2113 
z
" transform="scale(0.015625)"/>
       <path id="DejaVuSans-65" d="M 3597 1894 
L 3597 1613 
L 953 1613 
Q 991 1019 1311 708 
Q 1631 397 2203 397 
Q 2534 397 2845 478 
Q 3156 559 3463 722 
L 3463 178 
Q 3153 47 2828 -22 
Q 2503 -91 2169 -91 
Q 1331 -91 842 396 
Q 353 884 353 1716 
Q 353 2575 817 3079 
Q 1281 3584 2069 3584 
Q 2775 3584 3186 3129 
Q 3597 2675 3597 1894 
z
M 3022 2063 
Q 3016 2534 2758 2815 
Q 2500 3097 2075 3097 
Q 1594 3097 1305 2825 
Q 1016 2553 972 2059 
L 3022 2063 
z
" transform="scale(0.015625)"/>
       <path id="DejaVuSans-72" d="M 2631 2963 
Q 2534 3019 2420 3045 
Q 2306 3072 2169 3072 
Q 1681 3072 1420 2755 
Q 1159 2438 1159 1844 
L 1159 0 
L 581 0 
L 581 3500 
L 1159 3500 
L 1159 2956 
Q 1341 3275 1631 3429 
Q 1922 3584 2338 3584 
Q 2397 3584 2469 3576 
Q 2541 3569 2628 3553 
L 2631 2963 
z
" transform="scale(0.015625)"/>
       <path id="DejaVuSans-67" d="M 2906 1791 
Q 2906 2416 2648 2759 
Q 2391 3103 1925 3103 
Q 1463 3103 1205 2759 
Q 947 2416 947 1791 
Q 947 1169 1205 825 
Q 1463 481 1925 481 
Q 2391 481 2648 825 
Q 2906 1169 2906 1791 
z
M 3481 434 
Q 3481 -459 3084 -895 
Q 2688 -1331 1869 -1331 
Q 1566 -1331 1297 -1286 
Q 1028 -1241 775 -1147 
L 775 -588 
Q 1028 -725 1275 -790 
Q 1522 -856 1778 -856 
Q 2344 -856 2625 -561 
Q 2906 -266 2906 331 
L 2906 616 
Q 2728 306 2450 153 
Q 2172 0 1784 0 
Q 1141 0 747 490 
Q 353 981 353 1791 
Q 353 2603 747 3093 
Q 1141 3584 1784 3584 
Q 2172 3584 2450 3431 
Q 2728 3278 2906 2969 
L 2906 3500 
L 3481 3500 
L 3481 434 
z
" transform="scale(0.015625)"/>
       <path id="DejaVuSans-79" d="M 2059 -325 
Q 1816 -950 1584 -1140 
Q 1353 -1331 966 -1331 
L 506 -1331 
L 506 -850 
L 844 -850 
Q 1081 -850 1212 -737 
Q 1344 -625 1503 -206 
L 1606 56 
L 191 3500 
L 800 3500 
L 1894 763 
L 2988 3500 
L 3597 3500 
L 2059 -325 
z
" transform="scale(0.015625)"/>
       <path id="DejaVuSans-20" transform="scale(0.015625)"/>
       <path id="DejaVuSans-5b" d="M 550 4863 
L 1875 4863 
L 1875 4416 
L 1125 4416 
L 1125 -397 
L 1875 -397 
L 1875 -844 
L 550 -844 
L 550 4863 
z
" transform="scale(0.015625)"/>
       <path id="DejaVuSans-54" d="M -19 4666 
L 3928 4666 
L 3928 4134 
L 2272 4134 
L 2272 0 
L 1638 0 
L 1638 4134 
L -19 4134 
L -19 4666 
z
" transform="scale(0.015625)"/>
       <path id="DejaVuSans-56" d="M 1831 0 
L 50 4666 
L 709 4666 
L 2188 738 
L 3669 4666 
L 4325 4666 
L 2547 0 
L 1831 0 
z
" transform="scale(0.015625)"/>
       <path id="DejaVuSans-5d" d="M 1947 4863 
L 1947 -844 
L 622 -844 
L 622 -397 
L 1369 -397 
L 1369 4416 
L 622 4416 
L 622 4863 
L 1947 4863 
z
" transform="scale(0.015625)"/>
      </defs>
      <use xlink:href="#DejaVuSans-45"/>
      <use xlink:href="#DejaVuSans-6e" x="63.183594"/>
      <use xlink:href="#DejaVuSans-65" x="126.5625"/>
      <use xlink:href="#DejaVuSans-72" x="188.085938"/>
      <use xlink:href="#DejaVuSans-67" x="227.449219"/>
      <use xlink:href="#DejaVuSans-79" x="290.925781"/>
      <use xlink:href="#DejaVuSans-20" x="350.105469"/>
      <use xlink:href="#DejaVuSans-5b" x="381.892578"/>
      <use xlink:href="#DejaVuSans-54" x="420.90625"/>
      <use xlink:href="#DejaVuSans-65" x="464.990234"/>
      <use xlink:href="#DejaVuSans-56" x="526.513672"/>
      <use xlink:href="#DejaVuSans-5d" x="594.921875"/>
     </g>
    </g>
   </g>
   <g id="matplotlib.axis_2">
    <g id="ytick_1">
     <g id="line2d_25">
      <defs>
       <path id="m684516abee" d="M 0 0 
L -3.5 0 
" style="stroke: #000000; stroke-width: 0.8"/>
      </defs>
      <g>
       <use xlink:href="#m684516abee" x="60.221389" y="93.944644" style="stroke: #000000; stroke-width: 0.8"/>
      </g>
     </g>
     <g id="text_4">
      <!-- $\mathdefault{10^{-12}}$ -->
      <g transform="translate(25.321389 97.743862) scale(0.1 -0.1)">
       <defs>
        <path id="DejaVuSans-2212" d="M 678 2272 
L 4684 2272 
L 4684 1741 
L 678 1741 
L 678 2272 
z
" transform="scale(0.015625)"/>
        <path id="DejaVuSans-32" d="M 1228 531 
L 3431 531 
L 3431 0 
L 469 0 
L 469 531 
Q 828 903 1448 1529 
Q 2069 2156 2228 2338 
Q 2531 2678 2651 2914 
Q 2772 3150 2772 3378 
Q 2772 3750 2511 3984 
Q 2250 4219 1831 4219 
Q 1534 4219 1204 4116 
Q 875 4013 500 3803 
L 500 4441 
Q 881 4594 1212 4672 
Q 1544 4750 1819 4750 
Q 2544 4750 2975 4387 
Q 3406 4025 3406 3419 
Q 3406 3131 3298 2873 
Q 3191 2616 2906 2266 
Q 2828 2175 2409 1742 
Q 1991 1309 1228 531 
z
" transform="scale(0.015625)"/>
       </defs>
       <use xlink:href="#DejaVuSans-31" transform="translate(0 0.765625)"/>
       <use xlink:href="#DejaVuSans-30" transform="translate(63.623047 0.765625)"/>
       <use xlink:href="#DejaVuSans-2212" transform="translate(128.203125 39.046875) scale(0.7)"/>
       <use xlink:href="#DejaVuSans-31" transform="translate(186.855469 39.046875) scale(0.7)"/>
       <use xlink:href="#DejaVuSans-32" transform="translate(231.391602 39.046875) scale(0.7)"/>
      </g>
     </g>
    </g>
    <g id="ytick_2">
     <g id="line2d_26">
      <defs>
       <path id="m8b13153a3c" d="M 0 0 
L -2 0 
" style="stroke: #000000; stroke-width: 0.6"/>
      </defs>
      <g>
       <use xlink:href="#m8b13153a3c" x="60.221389" y="212.674918" style="stroke: #000000; stroke-width: 0.6"/>
      </g>
     </g>
    </g>
    <g id="ytick_3">
     <g id="line2d_27">
      <g>
       <use xlink:href="#m8b13153a3c" x="60.221389" y="182.763243" style="stroke: #000000; stroke-width: 0.6"/>
      </g>
     </g>
    </g>
    <g id="ytick_4">
     <g id="line2d_28">
      <g>
       <use xlink:href="#m8b13153a3c" x="60.221389" y="161.540572" style="stroke: #000000; stroke-width: 0.6"/>
      </g>
     </g>
    </g>
    <g id="ytick_5">
     <g id="line2d_29">
      <g>
       <use xlink:href="#m8b13153a3c" x="60.221389" y="145.07899" style="stroke: #000000; stroke-width: 0.6"/>
      </g>
     </g>
    </g>
    <g id="ytick_6">
     <g id="line2d_30">
      <g>
       <use xlink:href="#m8b13153a3c" x="60.221389" y="131.628897" style="stroke: #000000; stroke-width: 0.6"/>
      </g>
     </g>
    </g>
    <g id="ytick_7">
     <g id="line2d_31">
      <g>
       <use xlink:href="#m8b13153a3c" x="60.221389" y="120.257006" style="stroke: #000000; stroke-width: 0.6"/>
      </g>
     </g>
    </g>
    <g id="ytick_8">
     <g id="line2d_32">
      <g>
       <use xlink:href="#m8b13153a3c" x="60.221389" y="110.406226" style="stroke: #000000; stroke-width: 0.6"/>
      </g>
     </g>
    </g>
    <g id="ytick_9">
     <g id="line2d_33">
      <g>
       <use xlink:href="#m8b13153a3c" x="60.221389" y="101.717222" style="stroke: #000000; stroke-width: 0.6"/>
      </g>
     </g>
    </g>
    <g id="ytick_10">
     <g id="line2d_34">
      <g>
       <use xlink:href="#m8b13153a3c" x="60.221389" y="42.810298" style="stroke: #000000; stroke-width: 0.6"/>
      </g>
     </g>
    </g>
    <g id="ytick_11">
     <g id="line2d_35">
      <g>
       <use xlink:href="#m8b13153a3c" x="60.221389" y="12.898623" style="stroke: #000000; stroke-width: 0.6"/>
      </g>
     </g>
    </g>
    <g id="text_5">
     <!-- e2 * dnde [TeV / (cm2 s)] -->
     <g transform="translate(19.241702 189.243688) rotate(-90) scale(0.1 -0.1)">
      <defs>
       <path id="DejaVuSans-2a" d="M 3009 3897 
L 1888 3291 
L 3009 2681 
L 2828 2375 
L 1778 3009 
L 1778 1831 
L 1422 1831 
L 1422 3009 
L 372 2375 
L 191 2681 
L 1313 3291 
L 191 3897 
L 372 4206 
L 1422 3572 
L 1422 4750 
L 1778 4750 
L 1778 3572 
L 2828 4206 
L 3009 3897 
z
" transform="scale(0.015625)"/>
       <path id="DejaVuSans-64" d="M 2906 2969 
L 2906 4863 
L 3481 4863 
L 3481 0 
L 2906 0 
L 2906 525 
Q 2725 213 2448 61 
Q 2172 -91 1784 -91 
Q 1150 -91 751 415 
Q 353 922 353 1747 
Q 353 2572 751 3078 
Q 1150 3584 1784 3584 
Q 2172 3584 2448 3432 
Q 2725 3281 2906 2969 
z
M 947 1747 
Q 947 1113 1208 752 
Q 1469 391 1925 391 
Q 2381 391 2643 752 
Q 2906 1113 2906 1747 
Q 2906 2381 2643 2742 
Q 2381 3103 1925 3103 
Q 1469 3103 1208 2742 
Q 947 2381 947 1747 
z
" transform="scale(0.015625)"/>
       <path id="DejaVuSans-2f" d="M 1625 4666 
L 2156 4666 
L 531 -594 
L 0 -594 
L 1625 4666 
z
" transform="scale(0.015625)"/>
       <path id="DejaVuSans-28" d="M 1984 4856 
Q 1566 4138 1362 3434 
Q 1159 2731 1159 2009 
Q 1159 1288 1364 580 
Q 1569 -128 1984 -844 
L 1484 -844 
Q 1016 -109 783 600 
Q 550 1309 550 2009 
Q 550 2706 781 3412 
Q 1013 4119 1484 4856 
L 1984 4856 
z
" transform="scale(0.015625)"/>
       <path id="DejaVuSans-63" d="M 3122 3366 
L 3122 2828 
Q 2878 2963 2633 3030 
Q 2388 3097 2138 3097 
Q 1578 3097 1268 2742 
Q 959 2388 959 1747 
Q 959 1106 1268 751 
Q 1578 397 2138 397 
Q 2388 397 2633 464 
Q 2878 531 3122 666 
L 3122 134 
Q 2881 22 2623 -34 
Q 2366 -91 2075 -91 
Q 1284 -91 818 406 
Q 353 903 353 1747 
Q 353 2603 823 3093 
Q 1294 3584 2113 3584 
Q 2378 3584 2631 3529 
Q 2884 3475 3122 3366 
z
" transform="scale(0.015625)"/>
       <path id="DejaVuSans-6d" d="M 3328 2828 
Q 3544 3216 3844 3400 
Q 4144 3584 4550 3584 
Q 5097 3584 5394 3201 
Q 5691 2819 5691 2113 
L 5691 0 
L 5113 0 
L 5113 2094 
Q 5113 2597 4934 2840 
Q 4756 3084 4391 3084 
Q 3944 3084 3684 2787 
Q 3425 2491 3425 1978 
L 3425 0 
L 2847 0 
L 2847 2094 
Q 2847 2600 2669 2842 
Q 2491 3084 2119 3084 
Q 1678 3084 1418 2786 
Q 1159 2488 1159 1978 
L 1159 0 
L 581 0 
L 581 3500 
L 1159 3500 
L 1159 2956 
Q 1356 3278 1631 3431 
Q 1906 3584 2284 3584 
Q 2666 3584 2933 3390 
Q 3200 3197 3328 2828 
z
" transform="scale(0.015625)"/>
       <path id="DejaVuSans-73" d="M 2834 3397 
L 2834 2853 
Q 2591 2978 2328 3040 
Q 2066 3103 1784 3103 
Q 1356 3103 1142 2972 
Q 928 2841 928 2578 
Q 928 2378 1081 2264 
Q 1234 2150 1697 2047 
L 1894 2003 
Q 2506 1872 2764 1633 
Q 3022 1394 3022 966 
Q 3022 478 2636 193 
Q 2250 -91 1575 -91 
Q 1294 -91 989 -36 
Q 684 19 347 128 
L 347 722 
Q 666 556 975 473 
Q 1284 391 1588 391 
Q 1994 391 2212 530 
Q 2431 669 2431 922 
Q 2431 1156 2273 1281 
Q 2116 1406 1581 1522 
L 1381 1569 
Q 847 1681 609 1914 
Q 372 2147 372 2553 
Q 372 3047 722 3315 
Q 1072 3584 1716 3584 
Q 2034 3584 2315 3537 
Q 2597 3491 2834 3397 
z
" transform="scale(0.015625)"/>
       <path id="DejaVuSans-29" d="M 513 4856 
L 1013 4856 
Q 1481 4119 1714 3412 
Q 1947 2706 1947 2009 
Q 1947 1309 1714 600 
Q 1481 -109 1013 -844 
L 513 -844 
Q 928 -128 1133 580 
Q 1338 1288 1338 2009 
Q 1338 2731 1133 3434 
Q 928 4138 513 4856 
z
" transform="scale(0.015625)"/>
      </defs>
      <use xlink:href="#DejaVuSans-65"/>
      <use xlink:href="#DejaVuSans-32" x="61.523438"/>
      <use xlink:href="#DejaVuSans-20" x="125.146484"/>
      <use xlink:href="#DejaVuSans-2a" x="156.933594"/>
      <use xlink:href="#DejaVuSans-20" x="206.933594"/>
      <use xlink:href="#DejaVuSans-64" x="238.720703"/>
      <use xlink:href="#DejaVuSans-6e" x="302.197266"/>
      <use xlink:href="#DejaVuSans-64" x="365.576172"/>
      <use xlink:href="#DejaVuSans-65" x="429.052734"/>
      <use xlink:href="#DejaVuSans-20" x="490.576172"/>
      <use xlink:href="#DejaVuSans-5b" x="522.363281"/>
      <use xlink:href="#DejaVuSans-54" x="561.376953"/>
      <use xlink:href="#DejaVuSans-65" x="605.460938"/>
      <use xlink:href="#DejaVuSans-56" x="666.984375"/>
      <use xlink:href="#DejaVuSans-20" x="735.392578"/>
      <use xlink:href="#DejaVuSans-2f" x="767.179688"/>
      <use xlink:href="#DejaVuSans-20" x="800.871094"/>
      <use xlink:href="#DejaVuSans-28" x="832.658203"/>
      <use xlink:href="#DejaVuSans-63" x="871.671875"/>
      <use xlink:href="#DejaVuSans-6d" x="926.652344"/>
      <use xlink:href="#DejaVuSans-32" x="1024.064453"/>
      <use xlink:href="#DejaVuSans-20" x="1087.6875"/>
      <use xlink:href="#DejaVuSans-73" x="1119.474609"/>
      <use xlink:href="#DejaVuSans-29" x="1171.574219"/>
      <use xlink:href="#DejaVuSans-5d" x="1210.587891"/>
     </g>
    </g>
   </g>
   <g id="line2d_36">
    <path d="M 78.238969 78.561279 
L 81.457892 79.644166 
L 84.676815 80.727053 
L 87.895737 81.80994 
L 91.11466 82.892827 
L 94.333582 83.975714 
L 97.552505 85.058601 
L 100.771428 86.141488 
L 103.99035 87.224375 
L 107.209273 88.307262 
L 110.428196 89.390149 
L 113.647118 90.473035 
L 116.866041 91.555922 
L 120.084963 92.638809 
L 123.303886 93.721696 
L 126.522809 94.804583 
L 129.741731 95.88747 
L 132.960654 96.970357 
L 136.179577 98.053244 
L 139.398499 99.136131 
L 142.617422 100.219018 
L 145.836344 101.301905 
L 149.055267 102.384792 
L 152.27419 103.467679 
L 155.493112 104.550566 
L 158.712035 105.633453 
L 161.930958 106.71634 
L 165.14988 107.799227 
L 168.368803 108.882114 
L 171.587726 109.965001 
L 174.806648 111.047888 
L 178.025571 112.130775 
L 181.244493 113.213662 
L 184.463416 114.296549 
L 187.682339 115.379435 
L 190.901261 116.462322 
L 194.120184 117.545209 
L 197.339107 118.628096 
L 200.558029 119.710983 
L 203.776952 120.79387 
L 206.995874 121.876757 
L 210.214797 122.959644 
L 213.43372 124.042531 
L 216.652642 125.125418 
L 219.871565 126.208305 
L 223.090488 127.291192 
L 226.30941 128.374079 
L 229.528333 129.456966 
L 232.747255 130.539853 
L 235.966178 131.62274 
L 239.185101 132.705627 
L 242.404023 133.788514 
L 245.622946 134.871401 
L 248.841869 135.954288 
L 252.060791 137.037175 
L 255.279714 138.120062 
L 258.498636 139.202949 
L 261.717559 140.285835 
L 264.936482 141.368722 
L 268.155404 142.451609 
L 271.374327 143.534496 
L 274.59325 144.617383 
L 277.812172 145.70027 
L 281.031095 146.783157 
L 284.250017 147.866044 
L 287.46894 148.948931 
L 290.687863 150.031818 
L 293.906785 151.114705 
L 297.125708 152.197592 
L 300.344631 153.280479 
L 303.563553 154.363366 
L 306.782476 155.446253 
L 310.001398 156.52914 
L 313.220321 157.612027 
L 316.439244 158.694914 
L 319.658166 159.777801 
L 322.877089 160.860688 
L 326.096012 161.943575 
L 329.314934 163.026462 
L 332.533857 164.109349 
L 335.752779 165.192235 
L 338.971702 166.275122 
L 342.190625 167.358009 
L 345.409547 168.440896 
L 348.62847 169.523783 
L 351.847393 170.60667 
L 355.066315 171.689557 
L 358.285238 172.772444 
L 361.50416 173.855331 
L 364.723083 174.938218 
L 367.942006 176.021105 
L 371.160928 177.103992 
L 374.379851 178.186879 
L 377.598774 179.269766 
L 380.817696 180.352653 
L 384.036619 181.43554 
L 387.255542 182.518427 
L 390.474464 183.601314 
L 393.693387 184.684201 
L 396.912309 185.767088 
" clip-path="url(#pf8944312ba)" style="fill: none; stroke: #ff8c00; stroke-width: 1.5; stroke-linecap: square"/>
   </g>
   <g id="LineCollection_1">
    <path clip-path="url(#pf8944312ba)" style="fill: none; stroke: #000080; stroke-width: 1.5"/>
    <path clip-path="url(#pf8944312ba)" style="fill: none; stroke: #000080; stroke-width: 1.5"/>
    <path clip-path="url(#pf8944312ba)" style="fill: none; stroke: #000080; stroke-width: 1.5"/>
    <path clip-path="url(#pf8944312ba)" style="fill: none; stroke: #000080; stroke-width: 1.5"/>
    <path clip-path="url(#pf8944312ba)" style="fill: none; stroke: #000080; stroke-width: 1.5"/>
    <path d="M 82.899619 289 
L 82.899619 21.342182 
" clip-path="url(#pf8944312ba)" style="fill: none; stroke: #000080; stroke-width: 1.5"/>
    <path d="M 101.834458 120.969865 
L 101.834458 56.922649 
" clip-path="url(#pf8944312ba)" style="fill: none; stroke: #000080; stroke-width: 1.5"/>
    <path d="M 120.769297 108.07042 
L 120.769297 76.816078 
" clip-path="url(#pf8944312ba)" style="fill: none; stroke: #000080; stroke-width: 1.5"/>
    <path d="M 139.704136 111.644551 
L 139.704136 84.836562 
" clip-path="url(#pf8944312ba)" style="fill: none; stroke: #000080; stroke-width: 1.5"/>
    <path d="M 158.638975 118.197998 
L 158.638975 91.269198 
" clip-path="url(#pf8944312ba)" style="fill: none; stroke: #000080; stroke-width: 1.5"/>
    <path d="M 177.573814 125.174958 
L 177.573814 97.262184 
" clip-path="url(#pf8944312ba)" style="fill: none; stroke: #000080; stroke-width: 1.5"/>
    <path d="M 196.508653 132.680754 
L 196.508653 102.848896 
" clip-path="url(#pf8944312ba)" style="fill: none; stroke: #000080; stroke-width: 1.5"/>
    <path d="M 215.443492 140.695012 
L 215.443492 108.140873 
" clip-path="url(#pf8944312ba)" style="fill: none; stroke: #000080; stroke-width: 1.5"/>
    <path d="M 234.378331 148.821267 
L 234.378331 113.405849 
" clip-path="url(#pf8944312ba)" style="fill: none; stroke: #000080; stroke-width: 1.5"/>
    <path d="M 253.313169 157.639092 
L 253.313169 118.292329 
" clip-path="url(#pf8944312ba)" style="fill: none; stroke: #000080; stroke-width: 1.5"/>
    <path d="M 272.248008 167.23082 
L 272.248008 122.855681 
" clip-path="url(#pf8944312ba)" style="fill: none; stroke: #000080; stroke-width: 1.5"/>
    <path d="M 291.182847 177.399628 
L 291.182847 127.230813 
" clip-path="url(#pf8944312ba)" style="fill: none; stroke: #000080; stroke-width: 1.5"/>
    <path d="M 310.117686 188.711946 
L 310.117686 131.144105 
" clip-path="url(#pf8944312ba)" style="fill: none; stroke: #000080; stroke-width: 1.5"/>
    <path d="M 329.052525 201.517986 
L 329.052525 134.736182 
" clip-path="url(#pf8944312ba)" style="fill: none; stroke: #000080; stroke-width: 1.5"/>
    <path d="M 347.987364 215.44429 
L 347.987364 138.406064 
" clip-path="url(#pf8944312ba)" style="fill: none; stroke: #000080; stroke-width: 1.5"/>
    <path d="M 366.922203 231.774581 
L 366.922203 141.456634 
" clip-path="url(#pf8944312ba)" style="fill: none; stroke: #000080; stroke-width: 1.5"/>
    <path d="M 385.857042 253.6738 
L 385.857042 143.921329 
" clip-path="url(#pf8944312ba)" style="fill: none; stroke: #000080; stroke-width: 1.5"/>
    <path d="M 404.791881 289 
L 404.791881 144.740773 
" clip-path="url(#pf8944312ba)" style="fill: none; stroke: #000080; stroke-width: 1.5"/>
    <path clip-path="url(#pf8944312ba)" style="fill: none; stroke: #000080; stroke-width: 1.5"/>
   </g>
   <g id="LineCollection_2">
    <path clip-path="url(#pf8944312ba)" style="fill: none; stroke: #dc143c; stroke-width: 1.5"/>
    <path clip-path="url(#pf8944312ba)" style="fill: none; stroke: #dc143c; stroke-width: 1.5"/>
    <path clip-path="url(#pf8944312ba)" style="fill: none; stroke: #dc143c; stroke-width: 1.5"/>
    <path clip-path="url(#pf8944312ba)" style="fill: none; stroke: #dc143c; stroke-width: 1.5"/>
    <path clip-path="url(#pf8944312ba)" style="fill: none; stroke: #dc143c; stroke-width: 1.5"/>
    <path d="M 76.629508 289 
L 76.629508 21.342182 
" clip-path="url(#pf8944312ba)" style="fill: none; stroke: #dc143c; stroke-width: 1.5"/>
    <path d="M 95.564347 120.969865 
L 95.564347 56.922649 
" clip-path="url(#pf8944312ba)" style="fill: none; stroke: #dc143c; stroke-width: 1.5"/>
    <path d="M 114.499186 108.07042 
L 114.499186 76.816078 
" clip-path="url(#pf8944312ba)" style="fill: none; stroke: #dc143c; stroke-width: 1.5"/>
    <path d="M 133.434025 111.644551 
L 133.434025 84.836562 
" clip-path="url(#pf8944312ba)" style="fill: none; stroke: #dc143c; stroke-width: 1.5"/>
    <path d="M 152.368864 118.197998 
L 152.368864 91.269198 
" clip-path="url(#pf8944312ba)" style="fill: none; stroke: #dc143c; stroke-width: 1.5"/>
    <path d="M 171.303703 125.174958 
L 171.303703 97.262184 
" clip-path="url(#pf8944312ba)" style="fill: none; stroke: #dc143c; stroke-width: 1.5"/>
    <path d="M 190.238542 132.680754 
L 190.238542 102.848896 
" clip-path="url(#pf8944312ba)" style="fill: none; stroke: #dc143c; stroke-width: 1.5"/>
    <path d="M 209.173381 140.695012 
L 209.173381 108.140873 
" clip-path="url(#pf8944312ba)" style="fill: none; stroke: #dc143c; stroke-width: 1.5"/>
    <path d="M 228.10822 148.821267 
L 228.10822 113.405849 
" clip-path="url(#pf8944312ba)" style="fill: none; stroke: #dc143c; stroke-width: 1.5"/>
    <path d="M 247.043059 157.639092 
L 247.043059 118.292329 
" clip-path="url(#pf8944312ba)" style="fill: none; stroke: #dc143c; stroke-width: 1.5"/>
    <path d="M 265.977898 167.23082 
L 265.977898 122.855681 
" clip-path="url(#pf8944312ba)" style="fill: none; stroke: #dc143c; stroke-width: 1.5"/>
    <path d="M 284.912737 177.399628 
L 284.912737 127.230813 
" clip-path="url(#pf8944312ba)" style="fill: none; stroke: #dc143c; stroke-width: 1.5"/>
    <path d="M 303.847576 188.711946 
L 303.847576 131.144105 
" clip-path="url(#pf8944312ba)" style="fill: none; stroke: #dc143c; stroke-width: 1.5"/>
    <path d="M 322.782415 201.517986 
L 322.782415 134.736182 
" clip-path="url(#pf8944312ba)" style="fill: none; stroke: #dc143c; stroke-width: 1.5"/>
    <path d="M 341.717254 215.44429 
L 341.717254 138.406064 
" clip-path="url(#pf8944312ba)" style="fill: none; stroke: #dc143c; stroke-width: 1.5"/>
    <path d="M 360.652093 231.774581 
L 360.652093 141.456634 
" clip-path="url(#pf8944312ba)" style="fill: none; stroke: #dc143c; stroke-width: 1.5"/>
    <path d="M 379.586932 253.6738 
L 379.586932 143.921329 
" clip-path="url(#pf8944312ba)" style="fill: none; stroke: #dc143c; stroke-width: 1.5"/>
    <path d="M 398.521771 289 
L 398.521771 144.740773 
" clip-path="url(#pf8944312ba)" style="fill: none; stroke: #dc143c; stroke-width: 1.5"/>
    <path clip-path="url(#pf8944312ba)" style="fill: none; stroke: #dc143c; stroke-width: 1.5"/>
   </g>
   <g id="line2d_37">
    <defs>
     <path id="m20a0ba314f" d="M -3 3 
L 3 -3 
M -3 -3 
L 3 3 
" style="stroke: #000080"/>
    </defs>
    <g clip-path="url(#pf8944312ba)">
     <use xlink:href="#m20a0ba314f" x="82.899619" y="74.61567" style="fill: #000080; stroke: #000080"/>
     <use xlink:href="#m20a0ba314f" x="101.834458" y="82.203555" style="fill: #000080; stroke: #000080"/>
     <use xlink:href="#m20a0ba314f" x="120.769297" y="90.800308" style="fill: #000080; stroke: #000080"/>
     <use xlink:href="#m20a0ba314f" x="139.704136" y="97.029468" style="fill: #000080; stroke: #000080"/>
     <use xlink:href="#m20a0ba314f" x="158.638975" y="103.511629" style="fill: #000080; stroke: #000080"/>
     <use xlink:href="#m20a0ba314f" x="177.573814" y="109.906205" style="fill: #000080; stroke: #000080"/>
     <use xlink:href="#m20a0ba314f" x="196.508653" y="116.267052" style="fill: #000080; stroke: #000080"/>
     <use xlink:href="#m20a0ba314f" x="215.443492" y="122.63662" style="fill: #000080; stroke: #000080"/>
     <use xlink:href="#m20a0ba314f" x="234.378331" y="129.008421" style="fill: #000080; stroke: #000080"/>
     <use xlink:href="#m20a0ba314f" x="253.313169" y="135.37297" style="fill: #000080; stroke: #000080"/>
     <use xlink:href="#m20a0ba314f" x="272.248008" y="141.755787" style="fill: #000080; stroke: #000080"/>
     <use xlink:href="#m20a0ba314f" x="291.182847" y="148.130234" style="fill: #000080; stroke: #000080"/>
     <use xlink:href="#m20a0ba314f" x="310.117686" y="154.449552" style="fill: #000080; stroke: #000080"/>
     <use xlink:href="#m20a0ba314f" x="329.052525" y="160.815019" style="fill: #000080; stroke: #000080"/>
     <use xlink:href="#m20a0ba314f" x="347.987364" y="167.295194" style="fill: #000080; stroke: #000080"/>
     <use xlink:href="#m20a0ba314f" x="366.922203" y="173.579345" style="fill: #000080; stroke: #000080"/>
     <use xlink:href="#m20a0ba314f" x="385.857042" y="180.031342" style="fill: #000080; stroke: #000080"/>
     <use xlink:href="#m20a0ba314f" x="404.791881" y="186.314042" style="fill: #000080; stroke: #000080"/>
    </g>
   </g>
   <g id="line2d_38">
    <defs>
     <path id="m033d9ba99a" d="M -3 3 
L 3 -3 
M -3 -3 
L 3 3 
" style="stroke: #dc143c"/>
    </defs>
    <g clip-path="url(#pf8944312ba)">
     <use xlink:href="#m033d9ba99a" x="76.629508" y="74.61567" style="fill: #dc143c; stroke: #dc143c"/>
     <use xlink:href="#m033d9ba99a" x="95.564347" y="82.203555" style="fill: #dc143c; stroke: #dc143c"/>
     <use xlink:href="#m033d9ba99a" x="114.499186" y="90.800308" style="fill: #dc143c; stroke: #dc143c"/>
     <use xlink:href="#m033d9ba99a" x="133.434025" y="97.029468" style="fill: #dc143c; stroke: #dc143c"/>
     <use xlink:href="#m033d9ba99a" x="152.368864" y="103.511629" style="fill: #dc143c; stroke: #dc143c"/>
     <use xlink:href="#m033d9ba99a" x="171.303703" y="109.906205" style="fill: #dc143c; stroke: #dc143c"/>
     <use xlink:href="#m033d9ba99a" x="190.238542" y="116.267052" style="fill: #dc143c; stroke: #dc143c"/>
     <use xlink:href="#m033d9ba99a" x="209.173381" y="122.63662" style="fill: #dc143c; stroke: #dc143c"/>
     <use xlink:href="#m033d9ba99a" x="228.10822" y="129.008421" style="fill: #dc143c; stroke: #dc143c"/>
     <use xlink:href="#m033d9ba99a" x="247.043059" y="135.37297" style="fill: #dc143c; stroke: #dc143c"/>
     <use xlink:href="#m033d9ba99a" x="265.977898" y="141.755787" style="fill: #dc143c; stroke: #dc143c"/>
     <use xlink:href="#m033d9ba99a" x="284.912737" y="148.130234" style="fill: #dc143c; stroke: #dc143c"/>
     <use xlink:href="#m033d9ba99a" x="303.847576" y="154.449552" style="fill: #dc143c; stroke: #dc143c"/>
     <use xlink:href="#m033d9ba99a" x="322.782415" y="160.815019" style="fill: #dc143c; stroke: #dc143c"/>
     <use xlink:href="#m033d9ba99a" x="341.717254" y="167.295194" style="fill: #dc143c; stroke: #dc143c"/>
     <use xlink:href="#m033d9ba99a" x="360.652093" y="173.579345" style="fill: #dc143c; stroke: #dc143c"/>
     <use xlink:href="#m033d9ba99a" x="379.586932" y="180.031342" style="fill: #dc143c; stroke: #dc143c"/>
     <use xlink:href="#m033d9ba99a" x="398.521771" y="186.314042" style="fill: #dc143c; stroke: #dc143c"/>
    </g>
   </g>
   <g id="patch_3">
    <path d="M 60.221389 242.728 
L 60.221389 10.8 
" style="fill: none; stroke: #000000; stroke-width: 0.8; stroke-linejoin: miter; stroke-linecap: square"/>
   </g>
   <g id="patch_4">
    <path d="M 421.2 242.728 
L 421.2 10.8 
" style="fill: none; stroke: #000000; stroke-width: 0.8; stroke-linejoin: miter; stroke-linecap: square"/>
   </g>
   <g id="patch_5">
    <path d="M 60.221389 242.728 
L 421.2 242.728 
" style="fill: none; stroke: #000000; stroke-width: 0.8; stroke-linejoin: miter; stroke-linecap: square"/>
   </g>
   <g id="patch_6">
    <path d="M 60.221389 10.8 
L 421.2 10.8 
" style="fill: none; stroke: #000000; stroke-width: 0.8; stroke-linejoin: miter; stroke-linecap: square"/>
   </g>
   <g id="legend_1">
    <g id="patch_7">
     <path d="M 286.809375 92.190625 
L 414.2 92.190625 
Q 416.2 92.190625 416.2 90.190625 
L 416.2 17.8 
Q 416.2 15.8 414.2 15.8 
L 286.809375 15.8 
Q 284.809375 15.8 284.809375 17.8 
L 284.809375 90.190625 
Q 284.809375 92.190625 286.809375 92.190625 
z
" style="fill: #ffffff; opacity: 0.8; stroke: #cccccc; stroke-linejoin: miter"/>
    </g>
    <g id="patch_8">
     <path d="M 288.809375 27.398438 
L 308.809375 27.398438 
L 308.809375 20.398438 
L 288.809375 20.398438 
z
" style="fill: #6495ed; fill-opacity: 0.6"/>
    </g>
    <g id="text_6">
     <!-- $1\sigma$ Nuisance -->
     <g transform="translate(316.809375 27.398438) scale(0.1 -0.1)">
      <defs>
       <path id="DejaVuSans-Oblique-3c3" d="M 2219 3044 
Q 1744 3044 1422 2700 
Q 1081 2341 969 1747 
Q 844 1119 1044 756 
Q 1241 397 1706 397 
Q 2166 397 2503 759 
Q 2844 1122 2966 1747 
Q 3075 2319 2881 2700 
Q 2700 3044 2219 3044 
z
M 2309 3503 
L 4219 3500 
L 4106 2925 
L 3463 2925 
Q 3706 2438 3575 1747 
Q 3406 888 2884 400 
Q 2359 -91 1609 -91 
Q 856 -91 525 400 
Q 194 888 363 1747 
Q 528 2609 1050 3097 
Q 1484 3503 2309 3503 
z
" transform="scale(0.015625)"/>
       <path id="DejaVuSans-4e" d="M 628 4666 
L 1478 4666 
L 3547 763 
L 3547 4666 
L 4159 4666 
L 4159 0 
L 3309 0 
L 1241 3903 
L 1241 0 
L 628 0 
L 628 4666 
z
" transform="scale(0.015625)"/>
       <path id="DejaVuSans-75" d="M 544 1381 
L 544 3500 
L 1119 3500 
L 1119 1403 
Q 1119 906 1312 657 
Q 1506 409 1894 409 
Q 2359 409 2629 706 
Q 2900 1003 2900 1516 
L 2900 3500 
L 3475 3500 
L 3475 0 
L 2900 0 
L 2900 538 
Q 2691 219 2414 64 
Q 2138 -91 1772 -91 
Q 1169 -91 856 284 
Q 544 659 544 1381 
z
M 1991 3584 
L 1991 3584 
z
" transform="scale(0.015625)"/>
       <path id="DejaVuSans-69" d="M 603 3500 
L 1178 3500 
L 1178 0 
L 603 0 
L 603 3500 
z
M 603 4863 
L 1178 4863 
L 1178 4134 
L 603 4134 
L 603 4863 
z
" transform="scale(0.015625)"/>
       <path id="DejaVuSans-61" d="M 2194 1759 
Q 1497 1759 1228 1600 
Q 959 1441 959 1056 
Q 959 750 1161 570 
Q 1363 391 1709 391 
Q 2188 391 2477 730 
Q 2766 1069 2766 1631 
L 2766 1759 
L 2194 1759 
z
M 3341 1997 
L 3341 0 
L 2766 0 
L 2766 531 
Q 2569 213 2275 61 
Q 1981 -91 1556 -91 
Q 1019 -91 701 211 
Q 384 513 384 1019 
Q 384 1609 779 1909 
Q 1175 2209 1959 2209 
L 2766 2209 
L 2766 2266 
Q 2766 2663 2505 2880 
Q 2244 3097 1772 3097 
Q 1472 3097 1187 3025 
Q 903 2953 641 2809 
L 641 3341 
Q 956 3463 1253 3523 
Q 1550 3584 1831 3584 
Q 2591 3584 2966 3190 
Q 3341 2797 3341 1997 
z
" transform="scale(0.015625)"/>
      </defs>
      <use xlink:href="#DejaVuSans-31" transform="translate(0 0.015625)"/>
      <use xlink:href="#DejaVuSans-Oblique-3c3" transform="translate(63.623047 0.015625)"/>
      <use xlink:href="#DejaVuSans-20" transform="translate(127.001953 0.015625)"/>
      <use xlink:href="#DejaVuSans-4e" transform="translate(158.789062 0.015625)"/>
      <use xlink:href="#DejaVuSans-75" transform="translate(233.59375 0.015625)"/>
      <use xlink:href="#DejaVuSans-69" transform="translate(296.972656 0.015625)"/>
      <use xlink:href="#DejaVuSans-73" transform="translate(324.755859 0.015625)"/>
      <use xlink:href="#DejaVuSans-61" transform="translate(376.855469 0.015625)"/>
      <use xlink:href="#DejaVuSans-6e" transform="translate(438.134766 0.015625)"/>
      <use xlink:href="#DejaVuSans-63" transform="translate(501.513672 0.015625)"/>
      <use xlink:href="#DejaVuSans-65" transform="translate(556.494141 0.015625)"/>
     </g>
    </g>
    <g id="patch_9">
     <path d="M 288.809375 42.076563 
L 308.809375 42.076563 
L 308.809375 35.076563 
L 288.809375 35.076563 
z
" style="fill: #db7093; fill-opacity: 0.6"/>
    </g>
    <g id="text_7">
     <!-- $1\sigma$ Standard -->
     <g transform="translate(316.809375 42.076563) scale(0.1 -0.1)">
      <defs>
       <path id="DejaVuSans-53" d="M 3425 4513 
L 3425 3897 
Q 3066 4069 2747 4153 
Q 2428 4238 2131 4238 
Q 1616 4238 1336 4038 
Q 1056 3838 1056 3469 
Q 1056 3159 1242 3001 
Q 1428 2844 1947 2747 
L 2328 2669 
Q 3034 2534 3370 2195 
Q 3706 1856 3706 1288 
Q 3706 609 3251 259 
Q 2797 -91 1919 -91 
Q 1588 -91 1214 -16 
Q 841 59 441 206 
L 441 856 
Q 825 641 1194 531 
Q 1563 422 1919 422 
Q 2459 422 2753 634 
Q 3047 847 3047 1241 
Q 3047 1584 2836 1778 
Q 2625 1972 2144 2069 
L 1759 2144 
Q 1053 2284 737 2584 
Q 422 2884 422 3419 
Q 422 4038 858 4394 
Q 1294 4750 2059 4750 
Q 2388 4750 2728 4690 
Q 3069 4631 3425 4513 
z
" transform="scale(0.015625)"/>
       <path id="DejaVuSans-74" d="M 1172 4494 
L 1172 3500 
L 2356 3500 
L 2356 3053 
L 1172 3053 
L 1172 1153 
Q 1172 725 1289 603 
Q 1406 481 1766 481 
L 2356 481 
L 2356 0 
L 1766 0 
Q 1100 0 847 248 
Q 594 497 594 1153 
L 594 3053 
L 172 3053 
L 172 3500 
L 594 3500 
L 594 4494 
L 1172 4494 
z
" transform="scale(0.015625)"/>
      </defs>
      <use xlink:href="#DejaVuSans-31" transform="translate(0 0.015625)"/>
      <use xlink:href="#DejaVuSans-Oblique-3c3" transform="translate(63.623047 0.015625)"/>
      <use xlink:href="#DejaVuSans-20" transform="translate(127.001953 0.015625)"/>
      <use xlink:href="#DejaVuSans-53" transform="translate(158.789062 0.015625)"/>
      <use xlink:href="#DejaVuSans-74" transform="translate(222.265625 0.015625)"/>
      <use xlink:href="#DejaVuSans-61" transform="translate(261.474609 0.015625)"/>
      <use xlink:href="#DejaVuSans-6e" transform="translate(322.753906 0.015625)"/>
      <use xlink:href="#DejaVuSans-64" transform="translate(386.132812 0.015625)"/>
      <use xlink:href="#DejaVuSans-61" transform="translate(449.609375 0.015625)"/>
      <use xlink:href="#DejaVuSans-72" transform="translate(510.888672 0.015625)"/>
      <use xlink:href="#DejaVuSans-64" transform="translate(552.001953 0.015625)"/>
     </g>
    </g>
    <g id="line2d_39">
     <path d="M 288.809375 53.254688 
L 298.809375 53.254688 
L 308.809375 53.254688 
" style="fill: none; stroke: #ff8c00; stroke-width: 1.5; stroke-linecap: square"/>
    </g>
    <g id="text_8">
     <!-- Input -->
     <g transform="translate(316.809375 56.754688) scale(0.1 -0.1)">
      <defs>
       <path id="DejaVuSans-49" d="M 628 4666 
L 1259 4666 
L 1259 0 
L 628 0 
L 628 4666 
z
" transform="scale(0.015625)"/>
       <path id="DejaVuSans-70" d="M 1159 525 
L 1159 -1331 
L 581 -1331 
L 581 3500 
L 1159 3500 
L 1159 2969 
Q 1341 3281 1617 3432 
Q 1894 3584 2278 3584 
Q 2916 3584 3314 3078 
Q 3713 2572 3713 1747 
Q 3713 922 3314 415 
Q 2916 -91 2278 -91 
Q 1894 -91 1617 61 
Q 1341 213 1159 525 
z
M 3116 1747 
Q 3116 2381 2855 2742 
Q 2594 3103 2138 3103 
Q 1681 3103 1420 2742 
Q 1159 2381 1159 1747 
Q 1159 1113 1420 752 
Q 1681 391 2138 391 
Q 2594 391 2855 752 
Q 3116 1113 3116 1747 
z
" transform="scale(0.015625)"/>
      </defs>
      <use xlink:href="#DejaVuSans-49"/>
      <use xlink:href="#DejaVuSans-6e" x="29.492188"/>
      <use xlink:href="#DejaVuSans-70" x="92.871094"/>
      <use xlink:href="#DejaVuSans-75" x="156.347656"/>
      <use xlink:href="#DejaVuSans-74" x="219.726562"/>
     </g>
    </g>
    <g id="LineCollection_3">
     <path d="M 298.809375 72.932813 
L 298.809375 62.932813 
" style="fill: none; stroke: #000080; stroke-width: 1.5"/>
    </g>
    <g id="line2d_40"/>
    <g id="line2d_41">
     <g>
      <use xlink:href="#m20a0ba314f" x="298.809375" y="67.932813" style="fill: #000080; stroke: #000080"/>
     </g>
    </g>
    <g id="text_9">
     <!-- Fluxpoint Standard -->
     <g transform="translate(316.809375 71.432813) scale(0.1 -0.1)">
      <defs>
       <path id="DejaVuSans-46" d="M 628 4666 
L 3309 4666 
L 3309 4134 
L 1259 4134 
L 1259 2759 
L 3109 2759 
L 3109 2228 
L 1259 2228 
L 1259 0 
L 628 0 
L 628 4666 
z
" transform="scale(0.015625)"/>
       <path id="DejaVuSans-6c" d="M 603 4863 
L 1178 4863 
L 1178 0 
L 603 0 
L 603 4863 
z
" transform="scale(0.015625)"/>
       <path id="DejaVuSans-78" d="M 3513 3500 
L 2247 1797 
L 3578 0 
L 2900 0 
L 1881 1375 
L 863 0 
L 184 0 
L 1544 1831 
L 300 3500 
L 978 3500 
L 1906 2253 
L 2834 3500 
L 3513 3500 
z
" transform="scale(0.015625)"/>
       <path id="DejaVuSans-6f" d="M 1959 3097 
Q 1497 3097 1228 2736 
Q 959 2375 959 1747 
Q 959 1119 1226 758 
Q 1494 397 1959 397 
Q 2419 397 2687 759 
Q 2956 1122 2956 1747 
Q 2956 2369 2687 2733 
Q 2419 3097 1959 3097 
z
M 1959 3584 
Q 2709 3584 3137 3096 
Q 3566 2609 3566 1747 
Q 3566 888 3137 398 
Q 2709 -91 1959 -91 
Q 1206 -91 779 398 
Q 353 888 353 1747 
Q 353 2609 779 3096 
Q 1206 3584 1959 3584 
z
" transform="scale(0.015625)"/>
      </defs>
      <use xlink:href="#DejaVuSans-46"/>
      <use xlink:href="#DejaVuSans-6c" x="57.519531"/>
      <use xlink:href="#DejaVuSans-75" x="85.302734"/>
      <use xlink:href="#DejaVuSans-78" x="148.681641"/>
      <use xlink:href="#DejaVuSans-70" x="207.861328"/>
      <use xlink:href="#DejaVuSans-6f" x="271.337891"/>
      <use xlink:href="#DejaVuSans-69" x="332.519531"/>
      <use xlink:href="#DejaVuSans-6e" x="360.302734"/>
      <use xlink:href="#DejaVuSans-74" x="423.681641"/>
      <use xlink:href="#DejaVuSans-20" x="462.890625"/>
      <use xlink:href="#DejaVuSans-53" x="494.677734"/>
      <use xlink:href="#DejaVuSans-74" x="558.154297"/>
      <use xlink:href="#DejaVuSans-61" x="597.363281"/>
      <use xlink:href="#DejaVuSans-6e" x="658.642578"/>
      <use xlink:href="#DejaVuSans-64" x="722.021484"/>
      <use xlink:href="#DejaVuSans-61" x="785.498047"/>
      <use xlink:href="#DejaVuSans-72" x="846.777344"/>
      <use xlink:href="#DejaVuSans-64" x="886.140625"/>
     </g>
    </g>
    <g id="LineCollection_4">
     <path d="M 298.809375 87.610938 
L 298.809375 77.610938 
" style="fill: none; stroke: #dc143c; stroke-width: 1.5"/>
    </g>
    <g id="line2d_42"/>
    <g id="line2d_43">
     <g>
      <use xlink:href="#m033d9ba99a" x="298.809375" y="82.610938" style="fill: #dc143c; stroke: #dc143c"/>
     </g>
    </g>
    <g id="text_10">
     <!-- Fluxpoint Nuisance -->
     <g transform="translate(316.809375 86.110938) scale(0.1 -0.1)">
      <use xlink:href="#DejaVuSans-46"/>
      <use xlink:href="#DejaVuSans-6c" x="57.519531"/>
      <use xlink:href="#DejaVuSans-75" x="85.302734"/>
      <use xlink:href="#DejaVuSans-78" x="148.681641"/>
      <use xlink:href="#DejaVuSans-70" x="207.861328"/>
      <use xlink:href="#DejaVuSans-6f" x="271.337891"/>
      <use xlink:href="#DejaVuSans-69" x="332.519531"/>
      <use xlink:href="#DejaVuSans-6e" x="360.302734"/>
      <use xlink:href="#DejaVuSans-74" x="423.681641"/>
      <use xlink:href="#DejaVuSans-20" x="462.890625"/>
      <use xlink:href="#DejaVuSans-4e" x="494.677734"/>
      <use xlink:href="#DejaVuSans-75" x="569.482422"/>
      <use xlink:href="#DejaVuSans-69" x="632.861328"/>
      <use xlink:href="#DejaVuSans-73" x="660.644531"/>
      <use xlink:href="#DejaVuSans-61" x="712.744141"/>
      <use xlink:href="#DejaVuSans-6e" x="774.023438"/>
      <use xlink:href="#DejaVuSans-63" x="837.402344"/>
      <use xlink:href="#DejaVuSans-65" x="892.382812"/>
     </g>
    </g>
   </g>
  </g>
 </g>
 <defs>
  <clipPath id="pf8944312ba">
   <rect x="60.221389" y="10.8" width="360.978611" height="231.928"/>
  </clipPath>
 </defs>
</svg>
