<?xml version="1.0" encoding="utf-8" standalone="no"?>
<!DOCTYPE svg PUBLIC "-//W3C//DTD SVG 1.1//EN"
  "http://www.w3.org/Graphics/SVG/1.1/DTD/svg11.dtd">
<svg xmlns:xlink="http://www.w3.org/1999/xlink" width="432pt" height="288pt" viewBox="0 0 432 288" xmlns="http://www.w3.org/2000/svg" version="1.1">
 <metadata>
  <rdf:RDF xmlns:dc="http://purl.org/dc/elements/1.1/" xmlns:cc="http://creativecommons.org/ns#" xmlns:rdf="http://www.w3.org/1999/02/22-rdf-syntax-ns#">
   <cc:Work>
    <dc:type rdf:resource="http://purl.org/dc/dcmitype/StillImage"/>
    <dc:date>2023-03-16T17:46:12.767187</dc:date>
    <dc:format>image/svg+xml</dc:format>
    <dc:creator>
     <cc:Agent>
      <dc:title>Matplotlib v3.6.3, https://matplotlib.org/</dc:title>
     </cc:Agent>
    </dc:creator>
   </cc:Work>
  </rdf:RDF>
 </metadata>
 <defs>
  <style type="text/css">*{stroke-linejoin: round; stroke-linecap: butt}</style>
 </defs>
 <g id="figure_1">
  <g id="patch_1">
   <path d="M 0 288 
L 432 288 
L 432 0 
L 0 0 
z
" style="fill: #ffffff"/>
  </g>
  <g id="axes_1">
   <g id="patch_2">
    <path d="M 60.221389 242.728 
L 421.2 242.728 
L 421.2 10.8 
L 60.221389 10.8 
z
" style="fill: #ffffff"/>
   </g>
   <g id="PolyCollection_1">
    <path d="M 78.238969 82.112204 
L 78.238969 105.501893 
L 81.457892 106.185139 
L 84.676815 106.872953 
L 87.895737 107.56547 
L 91.11466 108.262841 
L 94.333582 108.965247 
L 97.552505 109.672892 
L 100.771428 110.386014 
L 103.99035 111.104887 
L 107.209273 111.829825 
L 110.428196 112.561194 
L 113.647118 113.299413 
L 116.866041 114.044965 
L 120.084963 114.798408 
L 123.303886 115.560384 
L 126.522809 116.331633 
L 129.741731 117.113004 
L 132.960654 117.905472 
L 136.179577 118.710148 
L 139.398499 119.528297 
L 142.617422 120.361342 
L 145.836344 121.210871 
L 149.055267 122.078632 
L 152.27419 122.96651 
L 155.493112 123.876493 
L 158.712035 124.810607 
L 161.930958 125.770832 
L 165.14988 126.758994 
L 168.368803 127.776642 
L 171.587726 128.824928 
L 174.806648 129.904505 
L 178.025571 131.015467 
L 181.244493 132.15734 
L 184.463416 133.329124 
L 187.682339 134.529388 
L 190.901261 135.756383 
L 194.120184 137.008166 
L 197.339107 138.282716 
L 200.558029 139.578023 
L 203.776952 140.892165 
L 206.995874 142.223345 
L 210.214797 143.569922 
L 213.43372 144.930418 
L 216.652642 146.303519 
L 219.871565 147.688064 
L 223.090488 149.083035 
L 226.30941 150.487542 
L 229.528333 151.900813 
L 232.747255 153.322175 
L 235.966178 154.751043 
L 239.185101 156.186911 
L 242.404023 157.629339 
L 245.622946 159.077946 
L 248.841869 160.532402 
L 252.060791 161.992419 
L 255.279714 163.457749 
L 258.498636 164.928176 
L 261.717559 166.403513 
L 264.936482 167.8836 
L 268.155404 169.368296 
L 271.374327 170.857481 
L 274.59325 172.351053 
L 277.812172 173.848924 
L 281.031095 175.35102 
L 284.250017 176.857278 
L 287.46894 178.367645 
L 290.687863 179.882081 
L 293.906785 181.400551 
L 297.125708 182.923029 
L 300.344631 184.449496 
L 303.563553 185.97994 
L 306.782476 187.514354 
L 310.001398 189.052736 
L 313.220321 190.595089 
L 316.439244 192.141423 
L 319.658166 193.691748 
L 322.877089 195.246082 
L 326.096012 196.804444 
L 329.314934 198.366857 
L 332.533857 199.93335 
L 335.752779 201.50395 
L 338.971702 203.078692 
L 342.190625 204.657612 
L 345.409547 206.240747 
L 348.62847 207.828139 
L 351.847393 209.419833 
L 355.066315 211.015875 
L 358.285238 212.616313 
L 361.50416 214.221201 
L 364.723083 215.830591 
L 367.942006 217.444541 
L 371.160928 219.06311 
L 374.379851 220.686358 
L 377.598774 222.31435 
L 380.817696 223.947153 
L 384.036619 225.584834 
L 387.255542 227.227466 
L 390.474464 228.875123 
L 393.693387 230.527881 
L 396.912309 232.185818 
L 396.912309 178.678181 
L 396.912309 178.678181 
L 393.693387 177.850489 
L 390.474464 177.023681 
L 387.255542 176.197758 
L 384.036619 175.37272 
L 380.817696 174.548569 
L 377.598774 173.725305 
L 374.379851 172.902927 
L 371.160928 172.081436 
L 367.942006 171.260829 
L 364.723083 170.441105 
L 361.50416 169.622262 
L 358.285238 168.804296 
L 355.066315 167.987205 
L 351.847393 167.170984 
L 348.62847 166.355628 
L 345.409547 165.54113 
L 342.190625 164.727483 
L 338.971702 163.914679 
L 335.752779 163.102709 
L 332.533857 162.291561 
L 329.314934 161.481223 
L 326.096012 160.671682 
L 322.877089 159.86292 
L 319.658166 159.054921 
L 316.439244 158.247664 
L 313.220321 157.441127 
L 310.001398 156.635283 
L 306.782476 155.830106 
L 303.563553 155.025563 
L 300.344631 154.221619 
L 297.125708 153.418233 
L 293.906785 152.615362 
L 290.687863 151.812955 
L 287.46894 151.010956 
L 284.250017 150.209304 
L 281.031095 149.407928 
L 277.812172 148.606749 
L 274.59325 147.805679 
L 271.374327 147.004619 
L 268.155404 146.203457 
L 264.936482 145.402068 
L 261.717559 144.600308 
L 258.498636 143.798019 
L 255.279714 142.995017 
L 252.060791 142.191096 
L 248.841869 141.386023 
L 245.622946 140.579531 
L 242.404023 139.771316 
L 239.185101 138.96103 
L 235.966178 138.148279 
L 232.747255 137.332606 
L 229.528333 136.513493 
L 226.30941 135.690342 
L 223.090488 134.862468 
L 219.871565 134.029085 
L 216.652642 133.189295 
L 213.43372 132.342069 
L 210.214797 131.486238 
L 206.995874 130.620479 
L 203.776952 129.743305 
L 200.558029 128.853068 
L 197.339107 127.947967 
L 194.120184 127.026071 
L 190.901261 126.085369 
L 187.682339 125.123834 
L 184.463416 124.13952 
L 181.244493 123.130674 
L 178.025571 122.095864 
L 174.806648 121.034089 
L 171.587726 119.944874 
L 168.368803 118.828313 
L 165.14988 117.685061 
L 161.930958 116.51627 
L 158.712035 115.323491 
L 155.493112 114.108555 
L 152.27419 112.873443 
L 149.055267 111.620188 
L 145.836344 110.350782 
L 142.617422 109.067115 
L 139.398499 107.770942 
L 136.179577 106.463859 
L 132.960654 105.147296 
L 129.741731 103.822527 
L 126.522809 102.490674 
L 123.303886 101.152719 
L 120.084963 99.809525 
L 116.866041 98.461842 
L 113.647118 97.110325 
L 110.428196 95.755545 
L 107.209273 94.398 
L 103.99035 93.038123 
L 100.771428 91.676294 
L 97.552505 90.312847 
L 94.333582 88.94807 
L 91.11466 87.582221 
L 87.895737 86.215523 
L 84.676815 84.848174 
L 81.457892 83.48035 
L 78.238969 82.112204 
z
" clip-path="url(#p63b35de5dc)" style="fill: #4682b4; fill-opacity: 0.95"/>
   </g>
   <g id="PolyCollection_2">
    <path d="M 78.238969 80.942123 
L 78.238969 97.894788 
L 81.457892 98.906192 
L 84.676815 99.920037 
L 87.895737 100.936425 
L 91.11466 101.955466 
L 94.333582 102.977283 
L 97.552505 104.002009 
L 100.771428 105.02979 
L 103.99035 106.060786 
L 107.209273 107.095171 
L 110.428196 108.133133 
L 113.647118 109.174881 
L 116.866041 110.22064 
L 120.084963 111.270655 
L 123.303886 112.325194 
L 126.522809 113.384544 
L 129.741731 114.44902 
L 132.960654 115.518957 
L 136.179577 116.594717 
L 139.398499 117.676687 
L 142.617422 118.765277 
L 145.836344 119.86092 
L 149.055267 120.964069 
L 152.27419 122.075193 
L 155.493112 123.194773 
L 158.712035 124.323295 
L 161.930958 125.461241 
L 165.14988 126.609082 
L 168.368803 127.767264 
L 171.587726 128.936201 
L 174.806648 130.116257 
L 178.025571 131.30774 
L 181.244493 132.51089 
L 184.463416 133.725867 
L 187.682339 134.95275 
L 190.901261 136.19153 
L 194.120184 137.442113 
L 197.339107 138.704322 
L 200.558029 139.977904 
L 203.776952 141.262539 
L 206.995874 142.557852 
L 210.214797 143.863423 
L 213.43372 145.178799 
L 216.652642 146.503508 
L 219.871565 147.837064 
L 223.090488 149.178984 
L 226.30941 150.528787 
L 229.528333 151.886007 
L 232.747255 153.250195 
L 235.966178 154.620922 
L 239.185101 155.997783 
L 242.404023 157.380394 
L 245.622946 158.768401 
L 248.841869 160.16147 
L 252.060791 161.559294 
L 255.279714 162.961588 
L 258.498636 164.368089 
L 261.717559 165.778556 
L 264.936482 167.192767 
L 268.155404 168.610518 
L 271.374327 170.031623 
L 274.59325 171.45591 
L 277.812172 172.883223 
L 281.031095 174.313418 
L 284.250017 175.746365 
L 287.46894 177.181944 
L 290.687863 178.620044 
L 293.906785 180.060565 
L 297.125708 181.503415 
L 300.344631 182.94851 
L 303.563553 184.395773 
L 306.782476 185.845134 
L 310.001398 187.296528 
L 313.220321 188.749895 
L 316.439244 190.205182 
L 319.658166 191.662339 
L 322.877089 193.121321 
L 326.096012 194.582087 
L 329.314934 196.044598 
L 332.533857 197.50882 
L 335.752779 198.974722 
L 338.971702 200.442274 
L 342.190625 201.911451 
L 345.409547 203.382227 
L 348.62847 204.854583 
L 351.847393 206.328497 
L 355.066315 207.803953 
L 358.285238 209.280934 
L 361.50416 210.759425 
L 364.723083 212.239415 
L 367.942006 213.72089 
L 371.160928 215.203842 
L 374.379851 216.688261 
L 377.598774 218.174139 
L 380.817696 219.66147 
L 384.036619 221.150249 
L 387.255542 222.640469 
L 390.474464 224.132128 
L 393.693387 225.625222 
L 396.912309 227.11975 
L 396.912309 196.77764 
L 396.912309 196.77764 
L 393.693387 195.722425 
L 390.474464 194.667429 
L 387.255542 193.612642 
L 384.036619 192.558054 
L 380.817696 191.503656 
L 377.598774 190.449435 
L 374.379851 189.395379 
L 371.160928 188.341477 
L 367.942006 187.287712 
L 364.723083 186.234072 
L 361.50416 185.180538 
L 358.285238 184.127095 
L 355.066315 183.073724 
L 351.847393 182.020404 
L 348.62847 180.967115 
L 345.409547 179.913832 
L 342.190625 178.860532 
L 338.971702 177.807187 
L 335.752779 176.753769 
L 332.533857 175.700247 
L 329.314934 174.646587 
L 326.096012 173.592753 
L 322.877089 172.538706 
L 319.658166 171.484403 
L 316.439244 170.429799 
L 313.220321 169.374845 
L 310.001398 168.319487 
L 306.782476 167.263668 
L 303.563553 166.207323 
L 300.344631 165.150386 
L 297.125708 164.092782 
L 293.906785 163.03443 
L 290.687863 161.975243 
L 287.46894 160.915126 
L 284.250017 159.853975 
L 281.031095 158.791678 
L 277.812172 157.728111 
L 274.59325 156.663141 
L 271.374327 155.596621 
L 268.155404 154.528392 
L 264.936482 153.458281 
L 261.717559 152.386098 
L 258.498636 151.311638 
L 255.279714 150.234676 
L 252.060791 149.154969 
L 248.841869 148.072253 
L 245.622946 146.98624 
L 242.404023 145.89662 
L 239.185101 144.803061 
L 235.966178 143.705203 
L 232.747255 142.602664 
L 229.528333 141.495035 
L 226.30941 140.381888 
L 223.090488 139.262771 
L 219.871565 138.137216 
L 216.652642 137.004744 
L 213.43372 135.864869 
L 210.214797 134.717105 
L 206.995874 133.560978 
L 203.776952 132.396035 
L 200.558029 131.221856 
L 197.339107 130.038065 
L 194.120184 128.844341 
L 190.901261 127.640432 
L 187.682339 126.426161 
L 184.463416 125.201432 
L 181.244493 123.966237 
L 178.025571 122.720655 
L 174.806648 121.464848 
L 171.587726 120.199053 
L 168.368803 118.92358 
L 165.14988 117.638795 
L 161.930958 116.345109 
L 158.712035 115.042972 
L 155.493112 113.732854 
L 152.27419 112.415238 
L 149.055267 111.090611 
L 145.836344 109.759456 
L 142.617422 108.422241 
L 139.398499 107.079423 
L 136.179577 105.731434 
L 132.960654 104.378687 
L 129.741731 103.02157 
L 126.522809 101.660445 
L 123.303886 100.295652 
L 120.084963 98.927504 
L 116.866041 97.556293 
L 113.647118 96.182288 
L 110.428196 94.805735 
L 107.209273 93.426863 
L 103.99035 92.045881 
L 100.771428 90.662982 
L 97.552505 89.278342 
L 94.333582 87.892122 
L 91.11466 86.504472 
L 87.895737 85.115526 
L 84.676815 83.725412 
L 81.457892 82.334242 
L 78.238969 80.942123 
z
" clip-path="url(#p63b35de5dc)" style="fill: #ff0000; fill-opacity: 0.6"/>
   </g>
   <g id="matplotlib.axis_1">
    <g id="xtick_1">
     <g id="line2d_1">
      <defs>
       <path id="m3fdf0aa5d9" d="M 0 0 
L 0 3.5 
" style="stroke: #000000; stroke-width: 0.8"/>
      </defs>
      <g>
       <use xlink:href="#m3fdf0aa5d9" x="123.966605" y="242.728" style="stroke: #000000; stroke-width: 0.8"/>
      </g>
     </g>
     <g id="text_1">
      <!-- $\mathdefault{10^{0}}$ -->
      <g transform="translate(115.166605 257.326437) scale(0.1 -0.1)">
       <defs>
        <path id="DejaVuSans-31" d="M 794 531 
L 1825 531 
L 1825 4091 
L 703 3866 
L 703 4441 
L 1819 4666 
L 2450 4666 
L 2450 531 
L 3481 531 
L 3481 0 
L 794 0 
L 794 531 
z
" transform="scale(0.015625)"/>
        <path id="DejaVuSans-30" d="M 2034 4250 
Q 1547 4250 1301 3770 
Q 1056 3291 1056 2328 
Q 1056 1369 1301 889 
Q 1547 409 2034 409 
Q 2525 409 2770 889 
Q 3016 1369 3016 2328 
Q 3016 3291 2770 3770 
Q 2525 4250 2034 4250 
z
M 2034 4750 
Q 2819 4750 3233 4129 
Q 3647 3509 3647 2328 
Q 3647 1150 3233 529 
Q 2819 -91 2034 -91 
Q 1250 -91 836 529 
Q 422 1150 422 2328 
Q 422 3509 836 4129 
Q 1250 4750 2034 4750 
z
" transform="scale(0.015625)"/>
       </defs>
       <use xlink:href="#DejaVuSans-31" transform="translate(0 0.765625)"/>
       <use xlink:href="#DejaVuSans-30" transform="translate(63.623047 0.765625)"/>
       <use xlink:href="#DejaVuSans-30" transform="translate(128.203125 39.046875) scale(0.7)"/>
      </g>
     </g>
    </g>
    <g id="xtick_2">
     <g id="line2d_2">
      <g>
       <use xlink:href="#m3fdf0aa5d9" x="275.445317" y="242.728" style="stroke: #000000; stroke-width: 0.8"/>
      </g>
     </g>
     <g id="text_2">
      <!-- $\mathdefault{10^{1}}$ -->
      <g transform="translate(266.645317 257.326437) scale(0.1 -0.1)">
       <use xlink:href="#DejaVuSans-31" transform="translate(0 0.684375)"/>
       <use xlink:href="#DejaVuSans-30" transform="translate(63.623047 0.684375)"/>
       <use xlink:href="#DejaVuSans-31" transform="translate(128.203125 38.965625) scale(0.7)"/>
      </g>
     </g>
    </g>
    <g id="xtick_3">
     <g id="line2d_3">
      <defs>
       <path id="mdbbed6b1c2" d="M 0 0 
L 0 2 
" style="stroke: #000000; stroke-width: 0.6"/>
      </defs>
      <g>
       <use xlink:href="#mdbbed6b1c2" x="63.687166" y="242.728" style="stroke: #000000; stroke-width: 0.6"/>
      </g>
     </g>
    </g>
    <g id="xtick_4">
     <g id="line2d_4">
      <g>
       <use xlink:href="#mdbbed6b1c2" x="78.36697" y="242.728" style="stroke: #000000; stroke-width: 0.6"/>
      </g>
     </g>
    </g>
    <g id="xtick_5">
     <g id="line2d_5">
      <g>
       <use xlink:href="#mdbbed6b1c2" x="90.361243" y="242.728" style="stroke: #000000; stroke-width: 0.6"/>
      </g>
     </g>
    </g>
    <g id="xtick_6">
     <g id="line2d_6">
      <g>
       <use xlink:href="#mdbbed6b1c2" x="100.502256" y="242.728" style="stroke: #000000; stroke-width: 0.6"/>
      </g>
     </g>
    </g>
    <g id="xtick_7">
     <g id="line2d_7">
      <g>
       <use xlink:href="#mdbbed6b1c2" x="109.286802" y="242.728" style="stroke: #000000; stroke-width: 0.6"/>
      </g>
     </g>
    </g>
    <g id="xtick_8">
     <g id="line2d_8">
      <g>
       <use xlink:href="#mdbbed6b1c2" x="117.03532" y="242.728" style="stroke: #000000; stroke-width: 0.6"/>
      </g>
     </g>
    </g>
    <g id="xtick_9">
     <g id="line2d_9">
      <g>
       <use xlink:href="#mdbbed6b1c2" x="169.566241" y="242.728" style="stroke: #000000; stroke-width: 0.6"/>
      </g>
     </g>
    </g>
    <g id="xtick_10">
     <g id="line2d_10">
      <g>
       <use xlink:href="#mdbbed6b1c2" x="196.240319" y="242.728" style="stroke: #000000; stroke-width: 0.6"/>
      </g>
     </g>
    </g>
    <g id="xtick_11">
     <g id="line2d_11">
      <g>
       <use xlink:href="#mdbbed6b1c2" x="215.165877" y="242.728" style="stroke: #000000; stroke-width: 0.6"/>
      </g>
     </g>
    </g>
    <g id="xtick_12">
     <g id="line2d_12">
      <g>
       <use xlink:href="#mdbbed6b1c2" x="229.845681" y="242.728" style="stroke: #000000; stroke-width: 0.6"/>
      </g>
     </g>
    </g>
    <g id="xtick_13">
     <g id="line2d_13">
      <g>
       <use xlink:href="#mdbbed6b1c2" x="241.839955" y="242.728" style="stroke: #000000; stroke-width: 0.6"/>
      </g>
     </g>
    </g>
    <g id="xtick_14">
     <g id="line2d_14">
      <g>
       <use xlink:href="#mdbbed6b1c2" x="251.980968" y="242.728" style="stroke: #000000; stroke-width: 0.6"/>
      </g>
     </g>
    </g>
    <g id="xtick_15">
     <g id="line2d_15">
      <g>
       <use xlink:href="#mdbbed6b1c2" x="260.765513" y="242.728" style="stroke: #000000; stroke-width: 0.6"/>
      </g>
     </g>
    </g>
    <g id="xtick_16">
     <g id="line2d_16">
      <g>
       <use xlink:href="#mdbbed6b1c2" x="268.514032" y="242.728" style="stroke: #000000; stroke-width: 0.6"/>
      </g>
     </g>
    </g>
    <g id="xtick_17">
     <g id="line2d_17">
      <g>
       <use xlink:href="#mdbbed6b1c2" x="321.044953" y="242.728" style="stroke: #000000; stroke-width: 0.6"/>
      </g>
     </g>
    </g>
    <g id="xtick_18">
     <g id="line2d_18">
      <g>
       <use xlink:href="#mdbbed6b1c2" x="347.71903" y="242.728" style="stroke: #000000; stroke-width: 0.6"/>
      </g>
     </g>
    </g>
    <g id="xtick_19">
     <g id="line2d_19">
      <g>
       <use xlink:href="#mdbbed6b1c2" x="366.644589" y="242.728" style="stroke: #000000; stroke-width: 0.6"/>
      </g>
     </g>
    </g>
    <g id="xtick_20">
     <g id="line2d_20">
      <g>
       <use xlink:href="#mdbbed6b1c2" x="381.324393" y="242.728" style="stroke: #000000; stroke-width: 0.6"/>
      </g>
     </g>
    </g>
    <g id="xtick_21">
     <g id="line2d_21">
      <g>
       <use xlink:href="#mdbbed6b1c2" x="393.318666" y="242.728" style="stroke: #000000; stroke-width: 0.6"/>
      </g>
     </g>
    </g>
    <g id="xtick_22">
     <g id="line2d_22">
      <g>
       <use xlink:href="#mdbbed6b1c2" x="403.45968" y="242.728" style="stroke: #000000; stroke-width: 0.6"/>
      </g>
     </g>
    </g>
    <g id="xtick_23">
     <g id="line2d_23">
      <g>
       <use xlink:href="#mdbbed6b1c2" x="412.244225" y="242.728" style="stroke: #000000; stroke-width: 0.6"/>
      </g>
     </g>
    </g>
    <g id="xtick_24">
     <g id="line2d_24">
      <g>
       <use xlink:href="#mdbbed6b1c2" x="419.992743" y="242.728" style="stroke: #000000; stroke-width: 0.6"/>
      </g>
     </g>
    </g>
    <g id="text_3">
     <!-- Energy [TeV] -->
     <g transform="translate(209.013038 271.004562) scale(0.1 -0.1)">
      <defs>
       <path id="DejaVuSans-45" d="M 628 4666 
L 3578 4666 
L 3578 4134 
L 1259 4134 
L 1259 2753 
L 3481 2753 
L 3481 2222 
L 1259 2222 
L 1259 531 
L 3634 531 
L 3634 0 
L 628 0 
L 628 4666 
z
" transform="scale(0.015625)"/>
       <path id="DejaVuSans-6e" d="M 3513 2113 
L 3513 0 
L 2938 0 
L 2938 2094 
Q 2938 2591 2744 2837 
Q 2550 3084 2163 3084 
Q 1697 3084 1428 2787 
Q 1159 2491 1159 1978 
L 1159 0 
L 581 0 
L 581 3500 
L 1159 3500 
L 1159 2956 
Q 1366 3272 1645 3428 
Q 1925 3584 2291 3584 
Q 2894 3584 3203 3211 
Q 3513 2838 3513 2113 
z
" transform="scale(0.015625)"/>
       <path id="DejaVuSans-65" d="M 3597 1894 
L 3597 1613 
L 953 1613 
Q 991 1019 1311 708 
Q 1631 397 2203 397 
Q 2534 397 2845 478 
Q 3156 559 3463 722 
L 3463 178 
Q 3153 47 2828 -22 
Q 2503 -91 2169 -91 
Q 1331 -91 842 396 
Q 353 884 353 1716 
Q 353 2575 817 3079 
Q 1281 3584 2069 3584 
Q 2775 3584 3186 3129 
Q 3597 2675 3597 1894 
z
M 3022 2063 
Q 3016 2534 2758 2815 
Q 2500 3097 2075 3097 
Q 1594 3097 1305 2825 
Q 1016 2553 972 2059 
L 3022 2063 
z
" transform="scale(0.015625)"/>
       <path id="DejaVuSans-72" d="M 2631 2963 
Q 2534 3019 2420 3045 
Q 2306 3072 2169 3072 
Q 1681 3072 1420 2755 
Q 1159 2438 1159 1844 
L 1159 0 
L 581 0 
L 581 3500 
L 1159 3500 
L 1159 2956 
Q 1341 3275 1631 3429 
Q 1922 3584 2338 3584 
Q 2397 3584 2469 3576 
Q 2541 3569 2628 3553 
L 2631 2963 
z
" transform="scale(0.015625)"/>
       <path id="DejaVuSans-67" d="M 2906 1791 
Q 2906 2416 2648 2759 
Q 2391 3103 1925 3103 
Q 1463 3103 1205 2759 
Q 947 2416 947 1791 
Q 947 1169 1205 825 
Q 1463 481 1925 481 
Q 2391 481 2648 825 
Q 2906 1169 2906 1791 
z
M 3481 434 
Q 3481 -459 3084 -895 
Q 2688 -1331 1869 -1331 
Q 1566 -1331 1297 -1286 
Q 1028 -1241 775 -1147 
L 775 -588 
Q 1028 -725 1275 -790 
Q 1522 -856 1778 -856 
Q 2344 -856 2625 -561 
Q 2906 -266 2906 331 
L 2906 616 
Q 2728 306 2450 153 
Q 2172 0 1784 0 
Q 1141 0 747 490 
Q 353 981 353 1791 
Q 353 2603 747 3093 
Q 1141 3584 1784 3584 
Q 2172 3584 2450 3431 
Q 2728 3278 2906 2969 
L 2906 3500 
L 3481 3500 
L 3481 434 
z
" transform="scale(0.015625)"/>
       <path id="DejaVuSans-79" d="M 2059 -325 
Q 1816 -950 1584 -1140 
Q 1353 -1331 966 -1331 
L 506 -1331 
L 506 -850 
L 844 -850 
Q 1081 -850 1212 -737 
Q 1344 -625 1503 -206 
L 1606 56 
L 191 3500 
L 800 3500 
L 1894 763 
L 2988 3500 
L 3597 3500 
L 2059 -325 
z
" transform="scale(0.015625)"/>
       <path id="DejaVuSans-20" transform="scale(0.015625)"/>
       <path id="DejaVuSans-5b" d="M 550 4863 
L 1875 4863 
L 1875 4416 
L 1125 4416 
L 1125 -397 
L 1875 -397 
L 1875 -844 
L 550 -844 
L 550 4863 
z
" transform="scale(0.015625)"/>
       <path id="DejaVuSans-54" d="M -19 4666 
L 3928 4666 
L 3928 4134 
L 2272 4134 
L 2272 0 
L 1638 0 
L 1638 4134 
L -19 4134 
L -19 4666 
z
" transform="scale(0.015625)"/>
       <path id="DejaVuSans-56" d="M 1831 0 
L 50 4666 
L 709 4666 
L 2188 738 
L 3669 4666 
L 4325 4666 
L 2547 0 
L 1831 0 
z
" transform="scale(0.015625)"/>
       <path id="DejaVuSans-5d" d="M 1947 4863 
L 1947 -844 
L 622 -844 
L 622 -397 
L 1369 -397 
L 1369 4416 
L 622 4416 
L 622 4863 
L 1947 4863 
z
" transform="scale(0.015625)"/>
      </defs>
      <use xlink:href="#DejaVuSans-45"/>
      <use xlink:href="#DejaVuSans-6e" x="63.183594"/>
      <use xlink:href="#DejaVuSans-65" x="126.5625"/>
      <use xlink:href="#DejaVuSans-72" x="188.085938"/>
      <use xlink:href="#DejaVuSans-67" x="227.449219"/>
      <use xlink:href="#DejaVuSans-79" x="290.925781"/>
      <use xlink:href="#DejaVuSans-20" x="350.105469"/>
      <use xlink:href="#DejaVuSans-5b" x="381.892578"/>
      <use xlink:href="#DejaVuSans-54" x="420.90625"/>
      <use xlink:href="#DejaVuSans-65" x="464.990234"/>
      <use xlink:href="#DejaVuSans-56" x="526.513672"/>
      <use xlink:href="#DejaVuSans-5d" x="594.921875"/>
     </g>
    </g>
   </g>
   <g id="matplotlib.axis_2">
    <g id="ytick_1">
     <g id="line2d_25">
      <defs>
       <path id="m67045bdff0" d="M 0 0 
L -3.5 0 
" style="stroke: #000000; stroke-width: 0.8"/>
      </defs>
      <g>
       <use xlink:href="#m67045bdff0" x="60.221389" y="110.146898" style="stroke: #000000; stroke-width: 0.8"/>
      </g>
     </g>
     <g id="text_4">
      <!-- $\mathdefault{10^{-12}}$ -->
      <g transform="translate(25.321389 113.946116) scale(0.1 -0.1)">
       <defs>
        <path id="DejaVuSans-2212" d="M 678 2272 
L 4684 2272 
L 4684 1741 
L 678 1741 
L 678 2272 
z
" transform="scale(0.015625)"/>
        <path id="DejaVuSans-32" d="M 1228 531 
L 3431 531 
L 3431 0 
L 469 0 
L 469 531 
Q 828 903 1448 1529 
Q 2069 2156 2228 2338 
Q 2531 2678 2651 2914 
Q 2772 3150 2772 3378 
Q 2772 3750 2511 3984 
Q 2250 4219 1831 4219 
Q 1534 4219 1204 4116 
Q 875 4013 500 3803 
L 500 4441 
Q 881 4594 1212 4672 
Q 1544 4750 1819 4750 
Q 2544 4750 2975 4387 
Q 3406 4025 3406 3419 
Q 3406 3131 3298 2873 
Q 3191 2616 2906 2266 
Q 2828 2175 2409 1742 
Q 1991 1309 1228 531 
z
" transform="scale(0.015625)"/>
       </defs>
       <use xlink:href="#DejaVuSans-31" transform="translate(0 0.765625)"/>
       <use xlink:href="#DejaVuSans-30" transform="translate(63.623047 0.765625)"/>
       <use xlink:href="#DejaVuSans-2212" transform="translate(128.203125 39.046875) scale(0.7)"/>
       <use xlink:href="#DejaVuSans-31" transform="translate(186.855469 39.046875) scale(0.7)"/>
       <use xlink:href="#DejaVuSans-32" transform="translate(231.391602 39.046875) scale(0.7)"/>
      </g>
     </g>
    </g>
    <g id="ytick_2">
     <g id="line2d_26">
      <defs>
       <path id="m4f27b33827" d="M 0 0 
L -2 0 
" style="stroke: #000000; stroke-width: 0.6"/>
      </defs>
      <g>
       <use xlink:href="#m4f27b33827" x="60.221389" y="216.679745" style="stroke: #000000; stroke-width: 0.6"/>
      </g>
     </g>
    </g>
    <g id="ytick_3">
     <g id="line2d_27">
      <g>
       <use xlink:href="#m4f27b33827" x="60.221389" y="189.840963" style="stroke: #000000; stroke-width: 0.6"/>
      </g>
     </g>
    </g>
    <g id="ytick_4">
     <g id="line2d_28">
      <g>
       <use xlink:href="#m4f27b33827" x="60.221389" y="170.798545" style="stroke: #000000; stroke-width: 0.6"/>
      </g>
     </g>
    </g>
    <g id="ytick_5">
     <g id="line2d_29">
      <g>
       <use xlink:href="#m4f27b33827" x="60.221389" y="156.028097" style="stroke: #000000; stroke-width: 0.6"/>
      </g>
     </g>
    </g>
    <g id="ytick_6">
     <g id="line2d_30">
      <g>
       <use xlink:href="#m4f27b33827" x="60.221389" y="143.959763" style="stroke: #000000; stroke-width: 0.6"/>
      </g>
     </g>
    </g>
    <g id="ytick_7">
     <g id="line2d_31">
      <g>
       <use xlink:href="#m4f27b33827" x="60.221389" y="133.756132" style="stroke: #000000; stroke-width: 0.6"/>
      </g>
     </g>
    </g>
    <g id="ytick_8">
     <g id="line2d_32">
      <g>
       <use xlink:href="#m4f27b33827" x="60.221389" y="124.917345" style="stroke: #000000; stroke-width: 0.6"/>
      </g>
     </g>
    </g>
    <g id="ytick_9">
     <g id="line2d_33">
      <g>
       <use xlink:href="#m4f27b33827" x="60.221389" y="117.120982" style="stroke: #000000; stroke-width: 0.6"/>
      </g>
     </g>
    </g>
    <g id="ytick_10">
     <g id="line2d_34">
      <g>
       <use xlink:href="#m4f27b33827" x="60.221389" y="64.265698" style="stroke: #000000; stroke-width: 0.6"/>
      </g>
     </g>
    </g>
    <g id="ytick_11">
     <g id="line2d_35">
      <g>
       <use xlink:href="#m4f27b33827" x="60.221389" y="37.426916" style="stroke: #000000; stroke-width: 0.6"/>
      </g>
     </g>
    </g>
    <g id="ytick_12">
     <g id="line2d_36">
      <g>
       <use xlink:href="#m4f27b33827" x="60.221389" y="18.384498" style="stroke: #000000; stroke-width: 0.6"/>
      </g>
     </g>
    </g>
    <g id="text_5">
     <!-- e2 * dnde [TeV / (cm2 s)] -->
     <g transform="translate(19.241702 189.243688) rotate(-90) scale(0.1 -0.1)">
      <defs>
       <path id="DejaVuSans-2a" d="M 3009 3897 
L 1888 3291 
L 3009 2681 
L 2828 2375 
L 1778 3009 
L 1778 1831 
L 1422 1831 
L 1422 3009 
L 372 2375 
L 191 2681 
L 1313 3291 
L 191 3897 
L 372 4206 
L 1422 3572 
L 1422 4750 
L 1778 4750 
L 1778 3572 
L 2828 4206 
L 3009 3897 
z
" transform="scale(0.015625)"/>
       <path id="DejaVuSans-64" d="M 2906 2969 
L 2906 4863 
L 3481 4863 
L 3481 0 
L 2906 0 
L 2906 525 
Q 2725 213 2448 61 
Q 2172 -91 1784 -91 
Q 1150 -91 751 415 
Q 353 922 353 1747 
Q 353 2572 751 3078 
Q 1150 3584 1784 3584 
Q 2172 3584 2448 3432 
Q 2725 3281 2906 2969 
z
M 947 1747 
Q 947 1113 1208 752 
Q 1469 391 1925 391 
Q 2381 391 2643 752 
Q 2906 1113 2906 1747 
Q 2906 2381 2643 2742 
Q 2381 3103 1925 3103 
Q 1469 3103 1208 2742 
Q 947 2381 947 1747 
z
" transform="scale(0.015625)"/>
       <path id="DejaVuSans-2f" d="M 1625 4666 
L 2156 4666 
L 531 -594 
L 0 -594 
L 1625 4666 
z
" transform="scale(0.015625)"/>
       <path id="DejaVuSans-28" d="M 1984 4856 
Q 1566 4138 1362 3434 
Q 1159 2731 1159 2009 
Q 1159 1288 1364 580 
Q 1569 -128 1984 -844 
L 1484 -844 
Q 1016 -109 783 600 
Q 550 1309 550 2009 
Q 550 2706 781 3412 
Q 1013 4119 1484 4856 
L 1984 4856 
z
" transform="scale(0.015625)"/>
       <path id="DejaVuSans-63" d="M 3122 3366 
L 3122 2828 
Q 2878 2963 2633 3030 
Q 2388 3097 2138 3097 
Q 1578 3097 1268 2742 
Q 959 2388 959 1747 
Q 959 1106 1268 751 
Q 1578 397 2138 397 
Q 2388 397 2633 464 
Q 2878 531 3122 666 
L 3122 134 
Q 2881 22 2623 -34 
Q 2366 -91 2075 -91 
Q 1284 -91 818 406 
Q 353 903 353 1747 
Q 353 2603 823 3093 
Q 1294 3584 2113 3584 
Q 2378 3584 2631 3529 
Q 2884 3475 3122 3366 
z
" transform="scale(0.015625)"/>
       <path id="DejaVuSans-6d" d="M 3328 2828 
Q 3544 3216 3844 3400 
Q 4144 3584 4550 3584 
Q 5097 3584 5394 3201 
Q 5691 2819 5691 2113 
L 5691 0 
L 5113 0 
L 5113 2094 
Q 5113 2597 4934 2840 
Q 4756 3084 4391 3084 
Q 3944 3084 3684 2787 
Q 3425 2491 3425 1978 
L 3425 0 
L 2847 0 
L 2847 2094 
Q 2847 2600 2669 2842 
Q 2491 3084 2119 3084 
Q 1678 3084 1418 2786 
Q 1159 2488 1159 1978 
L 1159 0 
L 581 0 
L 581 3500 
L 1159 3500 
L 1159 2956 
Q 1356 3278 1631 3431 
Q 1906 3584 2284 3584 
Q 2666 3584 2933 3390 
Q 3200 3197 3328 2828 
z
" transform="scale(0.015625)"/>
       <path id="DejaVuSans-73" d="M 2834 3397 
L 2834 2853 
Q 2591 2978 2328 3040 
Q 2066 3103 1784 3103 
Q 1356 3103 1142 2972 
Q 928 2841 928 2578 
Q 928 2378 1081 2264 
Q 1234 2150 1697 2047 
L 1894 2003 
Q 2506 1872 2764 1633 
Q 3022 1394 3022 966 
Q 3022 478 2636 193 
Q 2250 -91 1575 -91 
Q 1294 -91 989 -36 
Q 684 19 347 128 
L 347 722 
Q 666 556 975 473 
Q 1284 391 1588 391 
Q 1994 391 2212 530 
Q 2431 669 2431 922 
Q 2431 1156 2273 1281 
Q 2116 1406 1581 1522 
L 1381 1569 
Q 847 1681 609 1914 
Q 372 2147 372 2553 
Q 372 3047 722 3315 
Q 1072 3584 1716 3584 
Q 2034 3584 2315 3537 
Q 2597 3491 2834 3397 
z
" transform="scale(0.015625)"/>
       <path id="DejaVuSans-29" d="M 513 4856 
L 1013 4856 
Q 1481 4119 1714 3412 
Q 1947 2706 1947 2009 
Q 1947 1309 1714 600 
Q 1481 -109 1013 -844 
L 513 -844 
Q 928 -128 1133 580 
Q 1338 1288 1338 2009 
Q 1338 2731 1133 3434 
Q 928 4138 513 4856 
z
" transform="scale(0.015625)"/>
      </defs>
      <use xlink:href="#DejaVuSans-65"/>
      <use xlink:href="#DejaVuSans-32" x="61.523438"/>
      <use xlink:href="#DejaVuSans-20" x="125.146484"/>
      <use xlink:href="#DejaVuSans-2a" x="156.933594"/>
      <use xlink:href="#DejaVuSans-20" x="206.933594"/>
      <use xlink:href="#DejaVuSans-64" x="238.720703"/>
      <use xlink:href="#DejaVuSans-6e" x="302.197266"/>
      <use xlink:href="#DejaVuSans-64" x="365.576172"/>
      <use xlink:href="#DejaVuSans-65" x="429.052734"/>
      <use xlink:href="#DejaVuSans-20" x="490.576172"/>
      <use xlink:href="#DejaVuSans-5b" x="522.363281"/>
      <use xlink:href="#DejaVuSans-54" x="561.376953"/>
      <use xlink:href="#DejaVuSans-65" x="605.460938"/>
      <use xlink:href="#DejaVuSans-56" x="666.984375"/>
      <use xlink:href="#DejaVuSans-20" x="735.392578"/>
      <use xlink:href="#DejaVuSans-2f" x="767.179688"/>
      <use xlink:href="#DejaVuSans-20" x="800.871094"/>
      <use xlink:href="#DejaVuSans-28" x="832.658203"/>
      <use xlink:href="#DejaVuSans-63" x="871.671875"/>
      <use xlink:href="#DejaVuSans-6d" x="926.652344"/>
      <use xlink:href="#DejaVuSans-32" x="1024.064453"/>
      <use xlink:href="#DejaVuSans-20" x="1087.6875"/>
      <use xlink:href="#DejaVuSans-73" x="1119.474609"/>
      <use xlink:href="#DejaVuSans-29" x="1171.574219"/>
      <use xlink:href="#DejaVuSans-5d" x="1210.587891"/>
     </g>
    </g>
   </g>
   <g id="line2d_37">
    <path d="M 78.238969 96.343901 
L 81.457892 97.31554 
L 84.676815 98.28718 
L 87.895737 99.258819 
L 91.11466 100.230459 
L 94.333582 101.202098 
L 97.552505 102.173738 
L 100.771428 103.145377 
L 103.99035 104.117017 
L 107.209273 105.088656 
L 110.428196 106.060296 
L 113.647118 107.031936 
L 116.866041 108.003575 
L 120.084963 108.975215 
L 123.303886 109.946854 
L 126.522809 110.918494 
L 129.741731 111.890133 
L 132.960654 112.861773 
L 136.179577 113.833412 
L 139.398499 114.805052 
L 142.617422 115.776691 
L 145.836344 116.748331 
L 149.055267 117.719971 
L 152.27419 118.69161 
L 155.493112 119.66325 
L 158.712035 120.634889 
L 161.930958 121.606529 
L 165.14988 122.578168 
L 168.368803 123.549808 
L 171.587726 124.521447 
L 174.806648 125.493087 
L 178.025571 126.464727 
L 181.244493 127.436366 
L 184.463416 128.408006 
L 187.682339 129.379645 
L 190.901261 130.351285 
L 194.120184 131.322924 
L 197.339107 132.294564 
L 200.558029 133.266203 
L 203.776952 134.237843 
L 206.995874 135.209482 
L 210.214797 136.181122 
L 213.43372 137.152762 
L 216.652642 138.124401 
L 219.871565 139.096041 
L 223.090488 140.06768 
L 226.30941 141.03932 
L 229.528333 142.010959 
L 232.747255 142.982599 
L 235.966178 143.954238 
L 239.185101 144.925878 
L 242.404023 145.897517 
L 245.622946 146.869157 
L 248.841869 147.840797 
L 252.060791 148.812436 
L 255.279714 149.784076 
L 258.498636 150.755715 
L 261.717559 151.727355 
L 264.936482 152.698994 
L 268.155404 153.670634 
L 271.374327 154.642273 
L 274.59325 155.613913 
L 277.812172 156.585553 
L 281.031095 157.557192 
L 284.250017 158.528832 
L 287.46894 159.500471 
L 290.687863 160.472111 
L 293.906785 161.44375 
L 297.125708 162.41539 
L 300.344631 163.387029 
L 303.563553 164.358669 
L 306.782476 165.330308 
L 310.001398 166.301948 
L 313.220321 167.273588 
L 316.439244 168.245227 
L 319.658166 169.216867 
L 322.877089 170.188506 
L 326.096012 171.160146 
L 329.314934 172.131785 
L 332.533857 173.103425 
L 335.752779 174.075064 
L 338.971702 175.046704 
L 342.190625 176.018343 
L 345.409547 176.989983 
L 348.62847 177.961623 
L 351.847393 178.933262 
L 355.066315 179.904902 
L 358.285238 180.876541 
L 361.50416 181.848181 
L 364.723083 182.81982 
L 367.942006 183.79146 
L 371.160928 184.763099 
L 374.379851 185.734739 
L 377.598774 186.706379 
L 380.817696 187.678018 
L 384.036619 188.649658 
L 387.255542 189.621297 
L 390.474464 190.592937 
L 393.693387 191.564576 
L 396.912309 192.536216 
" clip-path="url(#p63b35de5dc)" style="fill: none; stroke-dasharray: 1.5,2.475; stroke-dashoffset: 0; stroke: #000000; stroke-width: 1.5"/>
   </g>
   <g id="LineCollection_1">
    <path clip-path="url(#p63b35de5dc)" style="fill: none; stroke: #8b0000; stroke-width: 1.5"/>
    <path clip-path="url(#p63b35de5dc)" style="fill: none; stroke: #8b0000; stroke-width: 1.5"/>
    <path clip-path="url(#p63b35de5dc)" style="fill: none; stroke: #8b0000; stroke-width: 1.5"/>
    <path clip-path="url(#p63b35de5dc)" style="fill: none; stroke: #8b0000; stroke-width: 1.5"/>
    <path clip-path="url(#p63b35de5dc)" style="fill: none; stroke: #8b0000; stroke-width: 1.5"/>
    <path d="M 82.899619 289 
L 82.899619 21.342182 
" clip-path="url(#p63b35de5dc)" style="fill: none; stroke: #8b0000; stroke-width: 1.5"/>
    <path d="M 101.834458 116.700203 
L 101.834458 59.227555 
" clip-path="url(#p63b35de5dc)" style="fill: none; stroke: #8b0000; stroke-width: 1.5"/>
    <path d="M 120.769297 106.829748 
L 120.769297 78.789191 
" clip-path="url(#p63b35de5dc)" style="fill: none; stroke: #8b0000; stroke-width: 1.5"/>
    <path d="M 139.704136 121.652167 
L 139.704136 97.6078 
" clip-path="url(#p63b35de5dc)" style="fill: none; stroke: #8b0000; stroke-width: 1.5"/>
    <path d="M 158.638975 132.850393 
L 158.638975 108.722141 
" clip-path="url(#p63b35de5dc)" style="fill: none; stroke: #8b0000; stroke-width: 1.5"/>
    <path d="M 177.573814 140.765895 
L 177.573814 115.747795 
" clip-path="url(#p63b35de5dc)" style="fill: none; stroke: #8b0000; stroke-width: 1.5"/>
    <path d="M 196.508653 149.139899 
L 196.508653 122.38354 
" clip-path="url(#p63b35de5dc)" style="fill: none; stroke: #8b0000; stroke-width: 1.5"/>
    <path d="M 215.443492 156.607836 
L 215.443492 127.404292 
" clip-path="url(#p63b35de5dc)" style="fill: none; stroke: #8b0000; stroke-width: 1.5"/>
    <path d="M 234.378331 165.556928 
L 234.378331 133.82521 
" clip-path="url(#p63b35de5dc)" style="fill: none; stroke: #8b0000; stroke-width: 1.5"/>
    <path d="M 253.313169 173.951285 
L 253.313169 138.699747 
" clip-path="url(#p63b35de5dc)" style="fill: none; stroke: #8b0000; stroke-width: 1.5"/>
    <path d="M 272.248008 181.395356 
L 272.248008 141.621924 
" clip-path="url(#p63b35de5dc)" style="fill: none; stroke: #8b0000; stroke-width: 1.5"/>
    <path d="M 291.182847 190.905178 
L 291.182847 145.923926 
" clip-path="url(#p63b35de5dc)" style="fill: none; stroke: #8b0000; stroke-width: 1.5"/>
    <path d="M 310.117686 201.654889 
L 310.117686 150.033789 
" clip-path="url(#p63b35de5dc)" style="fill: none; stroke: #8b0000; stroke-width: 1.5"/>
    <path d="M 329.052525 213.631278 
L 329.052525 153.758272 
" clip-path="url(#p63b35de5dc)" style="fill: none; stroke: #8b0000; stroke-width: 1.5"/>
    <path d="M 347.987364 226.184113 
L 347.987364 157.135422 
" clip-path="url(#p63b35de5dc)" style="fill: none; stroke: #8b0000; stroke-width: 1.5"/>
    <path d="M 366.922203 241.363438 
L 366.922203 160.329232 
" clip-path="url(#p63b35de5dc)" style="fill: none; stroke: #8b0000; stroke-width: 1.5"/>
    <path d="M 385.857042 261.131454 
L 385.857042 162.674585 
" clip-path="url(#p63b35de5dc)" style="fill: none; stroke: #8b0000; stroke-width: 1.5"/>
    <path d="M 404.791881 289 
L 404.791881 164.787909 
" clip-path="url(#p63b35de5dc)" style="fill: none; stroke: #8b0000; stroke-width: 1.5"/>
    <path clip-path="url(#p63b35de5dc)" style="fill: none; stroke: #8b0000; stroke-width: 1.5"/>
   </g>
   <g id="LineCollection_2">
    <path clip-path="url(#p63b35de5dc)" style="fill: none; stroke: #006400; stroke-width: 1.5"/>
    <path clip-path="url(#p63b35de5dc)" style="fill: none; stroke: #006400; stroke-width: 1.5"/>
    <path clip-path="url(#p63b35de5dc)" style="fill: none; stroke: #006400; stroke-width: 1.5"/>
    <path clip-path="url(#p63b35de5dc)" style="fill: none; stroke: #006400; stroke-width: 1.5"/>
    <path clip-path="url(#p63b35de5dc)" style="fill: none; stroke: #006400; stroke-width: 1.5"/>
    <path d="M 76.629508 289 
L 76.629508 21.342182 
" clip-path="url(#p63b35de5dc)" style="fill: none; stroke: #006400; stroke-width: 1.5"/>
    <path d="M 95.564347 116.700203 
L 95.564347 59.227555 
" clip-path="url(#p63b35de5dc)" style="fill: none; stroke: #006400; stroke-width: 1.5"/>
    <path d="M 114.499186 106.829748 
L 114.499186 78.789191 
" clip-path="url(#p63b35de5dc)" style="fill: none; stroke: #006400; stroke-width: 1.5"/>
    <path d="M 133.434025 121.652167 
L 133.434025 97.6078 
" clip-path="url(#p63b35de5dc)" style="fill: none; stroke: #006400; stroke-width: 1.5"/>
    <path d="M 152.368864 132.850393 
L 152.368864 108.722141 
" clip-path="url(#p63b35de5dc)" style="fill: none; stroke: #006400; stroke-width: 1.5"/>
    <path d="M 171.303703 169.965684 
L 171.303703 101.273111 
" clip-path="url(#p63b35de5dc)" style="fill: none; stroke: #006400; stroke-width: 1.5"/>
    <path d="M 190.238542 149.139899 
L 190.238542 122.38354 
" clip-path="url(#p63b35de5dc)" style="fill: none; stroke: #006400; stroke-width: 1.5"/>
    <path d="M 209.173381 156.607836 
L 209.173381 127.404292 
" clip-path="url(#p63b35de5dc)" style="fill: none; stroke: #006400; stroke-width: 1.5"/>
    <path d="M 228.10822 165.556928 
L 228.10822 133.82521 
" clip-path="url(#p63b35de5dc)" style="fill: none; stroke: #006400; stroke-width: 1.5"/>
    <path d="M 247.043059 173.951285 
L 247.043059 138.699747 
" clip-path="url(#p63b35de5dc)" style="fill: none; stroke: #006400; stroke-width: 1.5"/>
    <path d="M 265.977898 181.395356 
L 265.977898 141.621924 
" clip-path="url(#p63b35de5dc)" style="fill: none; stroke: #006400; stroke-width: 1.5"/>
    <path d="M 284.912737 190.905178 
L 284.912737 145.923926 
" clip-path="url(#p63b35de5dc)" style="fill: none; stroke: #006400; stroke-width: 1.5"/>
    <path d="M 303.847576 201.654889 
L 303.847576 150.033789 
" clip-path="url(#p63b35de5dc)" style="fill: none; stroke: #006400; stroke-width: 1.5"/>
    <path d="M 322.782415 213.631278 
L 322.782415 153.758272 
" clip-path="url(#p63b35de5dc)" style="fill: none; stroke: #006400; stroke-width: 1.5"/>
    <path d="M 341.717254 226.184113 
L 341.717254 157.135422 
" clip-path="url(#p63b35de5dc)" style="fill: none; stroke: #006400; stroke-width: 1.5"/>
    <path d="M 360.652093 241.363438 
L 360.652093 160.329232 
" clip-path="url(#p63b35de5dc)" style="fill: none; stroke: #006400; stroke-width: 1.5"/>
    <path d="M 379.586932 261.131454 
L 379.586932 162.674585 
" clip-path="url(#p63b35de5dc)" style="fill: none; stroke: #006400; stroke-width: 1.5"/>
    <path d="M 398.521771 289 
L 398.521771 164.787909 
" clip-path="url(#p63b35de5dc)" style="fill: none; stroke: #006400; stroke-width: 1.5"/>
    <path clip-path="url(#p63b35de5dc)" style="fill: none; stroke: #006400; stroke-width: 1.5"/>
   </g>
   <g id="line2d_38">
    <defs>
     <path id="m3c9ba30072" d="M 0 3 
C 0.795609 3 1.55874 2.683901 2.12132 2.12132 
C 2.683901 1.55874 3 0.795609 3 0 
C 3 -0.795609 2.683901 -1.55874 2.12132 -2.12132 
C 1.55874 -2.683901 0.795609 -3 0 -3 
C -0.795609 -3 -1.55874 -2.683901 -2.12132 -2.12132 
C -2.683901 -1.55874 -3 -0.795609 -3 0 
C -3 0.795609 -2.683901 1.55874 -2.12132 2.12132 
C -1.55874 2.683901 -0.795609 3 0 3 
z
" style="stroke: #8b0000"/>
    </defs>
    <g clip-path="url(#p63b35de5dc)">
     <use xlink:href="#m3c9ba30072" x="82.899619" y="69.155698" style="fill: #8b0000; stroke: #8b0000"/>
     <use xlink:href="#m3c9ba30072" x="101.834458" y="81.912819" style="fill: #8b0000; stroke: #8b0000"/>
     <use xlink:href="#m3c9ba30072" x="120.769297" y="91.33562" style="fill: #8b0000; stroke: #8b0000"/>
     <use xlink:href="#m3c9ba30072" x="139.704136" y="108.544173" style="fill: #8b0000; stroke: #8b0000"/>
     <use xlink:href="#m3c9ba30072" x="158.638975" y="119.692909" style="fill: #8b0000; stroke: #8b0000"/>
     <use xlink:href="#m3c9ba30072" x="177.573814" y="127.081836" style="fill: #8b0000; stroke: #8b0000"/>
     <use xlink:href="#m3c9ba30072" x="196.508653" y="134.418893" style="fill: #8b0000; stroke: #8b0000"/>
     <use xlink:href="#m3c9ba30072" x="215.443492" y="140.408418" style="fill: #8b0000; stroke: #8b0000"/>
     <use xlink:href="#m3c9ba30072" x="234.378331" y="147.807539" style="fill: #8b0000; stroke: #8b0000"/>
     <use xlink:href="#m3c9ba30072" x="253.313169" y="154.006039" style="fill: #8b0000; stroke: #8b0000"/>
     <use xlink:href="#m3c9ba30072" x="272.248008" y="158.565173" style="fill: #8b0000; stroke: #8b0000"/>
     <use xlink:href="#m3c9ba30072" x="291.182847" y="164.665" style="fill: #8b0000; stroke: #8b0000"/>
     <use xlink:href="#m3c9ba30072" x="310.117686" y="170.934747" style="fill: #8b0000; stroke: #8b0000"/>
     <use xlink:href="#m3c9ba30072" x="329.052525" y="177.144101" style="fill: #8b0000; stroke: #8b0000"/>
     <use xlink:href="#m3c9ba30072" x="347.987364" y="183.037115" style="fill: #8b0000; stroke: #8b0000"/>
     <use xlink:href="#m3c9ba30072" x="366.922203" y="189.150728" style="fill: #8b0000; stroke: #8b0000"/>
     <use xlink:href="#m3c9ba30072" x="385.857042" y="195.071161" style="fill: #8b0000; stroke: #8b0000"/>
     <use xlink:href="#m3c9ba30072" x="404.791881" y="202.097177" style="fill: #8b0000; stroke: #8b0000"/>
    </g>
   </g>
   <g id="line2d_39">
    <defs>
     <path id="mf096cf7d7a" d="M 0 3 
C 0.795609 3 1.55874 2.683901 2.12132 2.12132 
C 2.683901 1.55874 3 0.795609 3 0 
C 3 -0.795609 2.683901 -1.55874 2.12132 -2.12132 
C 1.55874 -2.683901 0.795609 -3 0 -3 
C -0.795609 -3 -1.55874 -2.683901 -2.12132 -2.12132 
C -2.683901 -1.55874 -3 -0.795609 -3 0 
C -3 0.795609 -2.683901 1.55874 -2.12132 2.12132 
C -1.55874 2.683901 -0.795609 3 0 3 
z
" style="stroke: #006400"/>
    </defs>
    <g clip-path="url(#p63b35de5dc)">
     <use xlink:href="#mf096cf7d7a" x="76.629508" y="69.155698" style="fill: #006400; stroke: #006400"/>
     <use xlink:href="#mf096cf7d7a" x="95.564347" y="81.912819" style="fill: #006400; stroke: #006400"/>
     <use xlink:href="#mf096cf7d7a" x="114.499186" y="91.33562" style="fill: #006400; stroke: #006400"/>
     <use xlink:href="#mf096cf7d7a" x="133.434025" y="108.544173" style="fill: #006400; stroke: #006400"/>
     <use xlink:href="#mf096cf7d7a" x="152.368864" y="119.692909" style="fill: #006400; stroke: #006400"/>
     <use xlink:href="#mf096cf7d7a" x="171.303703" y="127.081836" style="fill: #006400; stroke: #006400"/>
     <use xlink:href="#mf096cf7d7a" x="190.238542" y="134.418893" style="fill: #006400; stroke: #006400"/>
     <use xlink:href="#mf096cf7d7a" x="209.173381" y="140.408418" style="fill: #006400; stroke: #006400"/>
     <use xlink:href="#mf096cf7d7a" x="228.10822" y="147.807539" style="fill: #006400; stroke: #006400"/>
     <use xlink:href="#mf096cf7d7a" x="247.043059" y="154.006039" style="fill: #006400; stroke: #006400"/>
     <use xlink:href="#mf096cf7d7a" x="265.977898" y="158.565173" style="fill: #006400; stroke: #006400"/>
     <use xlink:href="#mf096cf7d7a" x="284.912737" y="164.665" style="fill: #006400; stroke: #006400"/>
     <use xlink:href="#mf096cf7d7a" x="303.847576" y="170.934747" style="fill: #006400; stroke: #006400"/>
     <use xlink:href="#mf096cf7d7a" x="322.782415" y="177.144101" style="fill: #006400; stroke: #006400"/>
     <use xlink:href="#mf096cf7d7a" x="341.717254" y="183.037115" style="fill: #006400; stroke: #006400"/>
     <use xlink:href="#mf096cf7d7a" x="360.652093" y="189.150728" style="fill: #006400; stroke: #006400"/>
     <use xlink:href="#mf096cf7d7a" x="379.586932" y="195.071161" style="fill: #006400; stroke: #006400"/>
     <use xlink:href="#mf096cf7d7a" x="398.521771" y="202.097177" style="fill: #006400; stroke: #006400"/>
    </g>
   </g>
   <g id="patch_3">
    <path d="M 60.221389 242.728 
L 60.221389 10.8 
" style="fill: none; stroke: #000000; stroke-width: 0.8; stroke-linejoin: miter; stroke-linecap: square"/>
   </g>
   <g id="patch_4">
    <path d="M 421.2 242.728 
L 421.2 10.8 
" style="fill: none; stroke: #000000; stroke-width: 0.8; stroke-linejoin: miter; stroke-linecap: square"/>
   </g>
   <g id="patch_5">
    <path d="M 60.221389 242.728 
L 421.2 242.728 
" style="fill: none; stroke: #000000; stroke-width: 0.8; stroke-linejoin: miter; stroke-linecap: square"/>
   </g>
   <g id="patch_6">
    <path d="M 60.221389 10.8 
L 421.2 10.8 
" style="fill: none; stroke: #000000; stroke-width: 0.8; stroke-linejoin: miter; stroke-linecap: square"/>
   </g>
   <g id="legend_1">
    <g id="patch_7">
     <path d="M 320.3 62.834375 
L 414.2 62.834375 
Q 416.2 62.834375 416.2 60.834375 
L 416.2 17.8 
Q 416.2 15.8 414.2 15.8 
L 320.3 15.8 
Q 318.3 15.8 318.3 17.8 
L 318.3 60.834375 
Q 318.3 62.834375 320.3 62.834375 
z
" style="fill: #ffffff; opacity: 0.8; stroke: #cccccc; stroke-linejoin: miter"/>
    </g>
    <g id="patch_8">
     <path d="M 322.3 27.398438 
L 342.3 27.398438 
L 342.3 20.398438 
L 322.3 20.398438 
z
" style="fill: #4682b4; fill-opacity: 0.95"/>
    </g>
    <g id="text_6">
     <!-- $1\sigma$ Nuisance -->
     <g transform="translate(350.3 27.398438) scale(0.1 -0.1)">
      <defs>
       <path id="DejaVuSans-Oblique-3c3" d="M 2219 3044 
Q 1744 3044 1422 2700 
Q 1081 2341 969 1747 
Q 844 1119 1044 756 
Q 1241 397 1706 397 
Q 2166 397 2503 759 
Q 2844 1122 2966 1747 
Q 3075 2319 2881 2700 
Q 2700 3044 2219 3044 
z
M 2309 3503 
L 4219 3500 
L 4106 2925 
L 3463 2925 
Q 3706 2438 3575 1747 
Q 3406 888 2884 400 
Q 2359 -91 1609 -91 
Q 856 -91 525 400 
Q 194 888 363 1747 
Q 528 2609 1050 3097 
Q 1484 3503 2309 3503 
z
" transform="scale(0.015625)"/>
       <path id="DejaVuSans-4e" d="M 628 4666 
L 1478 4666 
L 3547 763 
L 3547 4666 
L 4159 4666 
L 4159 0 
L 3309 0 
L 1241 3903 
L 1241 0 
L 628 0 
L 628 4666 
z
" transform="scale(0.015625)"/>
       <path id="DejaVuSans-75" d="M 544 1381 
L 544 3500 
L 1119 3500 
L 1119 1403 
Q 1119 906 1312 657 
Q 1506 409 1894 409 
Q 2359 409 2629 706 
Q 2900 1003 2900 1516 
L 2900 3500 
L 3475 3500 
L 3475 0 
L 2900 0 
L 2900 538 
Q 2691 219 2414 64 
Q 2138 -91 1772 -91 
Q 1169 -91 856 284 
Q 544 659 544 1381 
z
M 1991 3584 
L 1991 3584 
z
" transform="scale(0.015625)"/>
       <path id="DejaVuSans-69" d="M 603 3500 
L 1178 3500 
L 1178 0 
L 603 0 
L 603 3500 
z
M 603 4863 
L 1178 4863 
L 1178 4134 
L 603 4134 
L 603 4863 
z
" transform="scale(0.015625)"/>
       <path id="DejaVuSans-61" d="M 2194 1759 
Q 1497 1759 1228 1600 
Q 959 1441 959 1056 
Q 959 750 1161 570 
Q 1363 391 1709 391 
Q 2188 391 2477 730 
Q 2766 1069 2766 1631 
L 2766 1759 
L 2194 1759 
z
M 3341 1997 
L 3341 0 
L 2766 0 
L 2766 531 
Q 2569 213 2275 61 
Q 1981 -91 1556 -91 
Q 1019 -91 701 211 
Q 384 513 384 1019 
Q 384 1609 779 1909 
Q 1175 2209 1959 2209 
L 2766 2209 
L 2766 2266 
Q 2766 2663 2505 2880 
Q 2244 3097 1772 3097 
Q 1472 3097 1187 3025 
Q 903 2953 641 2809 
L 641 3341 
Q 956 3463 1253 3523 
Q 1550 3584 1831 3584 
Q 2591 3584 2966 3190 
Q 3341 2797 3341 1997 
z
" transform="scale(0.015625)"/>
      </defs>
      <use xlink:href="#DejaVuSans-31" transform="translate(0 0.015625)"/>
      <use xlink:href="#DejaVuSans-Oblique-3c3" transform="translate(63.623047 0.015625)"/>
      <use xlink:href="#DejaVuSans-20" transform="translate(127.001953 0.015625)"/>
      <use xlink:href="#DejaVuSans-4e" transform="translate(158.789062 0.015625)"/>
      <use xlink:href="#DejaVuSans-75" transform="translate(233.59375 0.015625)"/>
      <use xlink:href="#DejaVuSans-69" transform="translate(296.972656 0.015625)"/>
      <use xlink:href="#DejaVuSans-73" transform="translate(324.755859 0.015625)"/>
      <use xlink:href="#DejaVuSans-61" transform="translate(376.855469 0.015625)"/>
      <use xlink:href="#DejaVuSans-6e" transform="translate(438.134766 0.015625)"/>
      <use xlink:href="#DejaVuSans-63" transform="translate(501.513672 0.015625)"/>
      <use xlink:href="#DejaVuSans-65" transform="translate(556.494141 0.015625)"/>
     </g>
    </g>
    <g id="patch_9">
     <path d="M 322.3 42.076562 
L 342.3 42.076562 
L 342.3 35.076562 
L 322.3 35.076562 
z
" style="fill: #ff0000; fill-opacity: 0.6"/>
    </g>
    <g id="text_7">
     <!-- $1\sigma$ Standard -->
     <g transform="translate(350.3 42.076562) scale(0.1 -0.1)">
      <defs>
       <path id="DejaVuSans-53" d="M 3425 4513 
L 3425 3897 
Q 3066 4069 2747 4153 
Q 2428 4238 2131 4238 
Q 1616 4238 1336 4038 
Q 1056 3838 1056 3469 
Q 1056 3159 1242 3001 
Q 1428 2844 1947 2747 
L 2328 2669 
Q 3034 2534 3370 2195 
Q 3706 1856 3706 1288 
Q 3706 609 3251 259 
Q 2797 -91 1919 -91 
Q 1588 -91 1214 -16 
Q 841 59 441 206 
L 441 856 
Q 825 641 1194 531 
Q 1563 422 1919 422 
Q 2459 422 2753 634 
Q 3047 847 3047 1241 
Q 3047 1584 2836 1778 
Q 2625 1972 2144 2069 
L 1759 2144 
Q 1053 2284 737 2584 
Q 422 2884 422 3419 
Q 422 4038 858 4394 
Q 1294 4750 2059 4750 
Q 2388 4750 2728 4690 
Q 3069 4631 3425 4513 
z
" transform="scale(0.015625)"/>
       <path id="DejaVuSans-74" d="M 1172 4494 
L 1172 3500 
L 2356 3500 
L 2356 3053 
L 1172 3053 
L 1172 1153 
Q 1172 725 1289 603 
Q 1406 481 1766 481 
L 2356 481 
L 2356 0 
L 1766 0 
Q 1100 0 847 248 
Q 594 497 594 1153 
L 594 3053 
L 172 3053 
L 172 3500 
L 594 3500 
L 594 4494 
L 1172 4494 
z
" transform="scale(0.015625)"/>
      </defs>
      <use xlink:href="#DejaVuSans-31" transform="translate(0 0.015625)"/>
      <use xlink:href="#DejaVuSans-Oblique-3c3" transform="translate(63.623047 0.015625)"/>
      <use xlink:href="#DejaVuSans-20" transform="translate(127.001953 0.015625)"/>
      <use xlink:href="#DejaVuSans-53" transform="translate(158.789062 0.015625)"/>
      <use xlink:href="#DejaVuSans-74" transform="translate(222.265625 0.015625)"/>
      <use xlink:href="#DejaVuSans-61" transform="translate(261.474609 0.015625)"/>
      <use xlink:href="#DejaVuSans-6e" transform="translate(322.753906 0.015625)"/>
      <use xlink:href="#DejaVuSans-64" transform="translate(386.132812 0.015625)"/>
      <use xlink:href="#DejaVuSans-61" transform="translate(449.609375 0.015625)"/>
      <use xlink:href="#DejaVuSans-72" transform="translate(510.888672 0.015625)"/>
      <use xlink:href="#DejaVuSans-64" transform="translate(552.001953 0.015625)"/>
     </g>
    </g>
    <g id="line2d_40">
     <path d="M 322.3 53.254687 
L 332.3 53.254687 
L 342.3 53.254687 
" style="fill: none; stroke-dasharray: 1.5,2.475; stroke-dashoffset: 0; stroke: #000000; stroke-width: 1.5"/>
    </g>
    <g id="text_8">
     <!-- Input -->
     <g transform="translate(350.3 56.754687) scale(0.1 -0.1)">
      <defs>
       <path id="DejaVuSans-49" d="M 628 4666 
L 1259 4666 
L 1259 0 
L 628 0 
L 628 4666 
z
" transform="scale(0.015625)"/>
       <path id="DejaVuSans-70" d="M 1159 525 
L 1159 -1331 
L 581 -1331 
L 581 3500 
L 1159 3500 
L 1159 2969 
Q 1341 3281 1617 3432 
Q 1894 3584 2278 3584 
Q 2916 3584 3314 3078 
Q 3713 2572 3713 1747 
Q 3713 922 3314 415 
Q 2916 -91 2278 -91 
Q 1894 -91 1617 61 
Q 1341 213 1159 525 
z
M 3116 1747 
Q 3116 2381 2855 2742 
Q 2594 3103 2138 3103 
Q 1681 3103 1420 2742 
Q 1159 2381 1159 1747 
Q 1159 1113 1420 752 
Q 1681 391 2138 391 
Q 2594 391 2855 752 
Q 3116 1113 3116 1747 
z
" transform="scale(0.015625)"/>
      </defs>
      <use xlink:href="#DejaVuSans-49"/>
      <use xlink:href="#DejaVuSans-6e" x="29.492188"/>
      <use xlink:href="#DejaVuSans-70" x="92.871094"/>
      <use xlink:href="#DejaVuSans-75" x="156.347656"/>
      <use xlink:href="#DejaVuSans-74" x="219.726562"/>
     </g>
    </g>
   </g>
  </g>
 </g>
 <defs>
  <clipPath id="p63b35de5dc">
   <rect x="60.221389" y="10.8" width="360.978611" height="231.928"/>
  </clipPath>
 </defs>
</svg>
