<?xml version="1.0" encoding="utf-8" standalone="no"?>
<!DOCTYPE svg PUBLIC "-//W3C//DTD SVG 1.1//EN"
  "http://www.w3.org/Graphics/SVG/1.1/DTD/svg11.dtd">
<svg xmlns:xlink="http://www.w3.org/1999/xlink" width="576pt" height="168pt" viewBox="0 0 576 168" xmlns="http://www.w3.org/2000/svg" version="1.1">
 <metadata>
  <rdf:RDF xmlns:dc="http://purl.org/dc/elements/1.1/" xmlns:cc="http://creativecommons.org/ns#" xmlns:rdf="http://www.w3.org/1999/02/22-rdf-syntax-ns#">
   <cc:Work>
    <dc:type rdf:resource="http://purl.org/dc/dcmitype/StillImage"/>
    <dc:date>2023-03-20T13:47:59.749460</dc:date>
    <dc:format>image/svg+xml</dc:format>
    <dc:creator>
     <cc:Agent>
      <dc:title>Matplotlib v3.6.3, https://matplotlib.org/</dc:title>
     </cc:Agent>
    </dc:creator>
   </cc:Work>
  </rdf:RDF>
 </metadata>
 <defs>
  <style type="text/css">*{stroke-linejoin: round; stroke-linecap: butt}</style>
 </defs>
 <g id="figure_1">
  <g id="patch_1">
   <path d="M 0 168 
L 576 168 
L 576 0 
L 0 0 
z
" style="fill: #ffffff"/>
  </g>
  <g id="axes_1">
   <g id="patch_2">
    <path d="M 24.19 126.04 
L 279.405 126.04 
L 279.405 25.44 
L 24.19 25.44 
z
" style="fill: #ffffff"/>
   </g>
   <g id="patch_3">
    <path d="M 34.380632 126.04 
L 41.174387 126.04 
L 41.174387 121.249524 
L 34.380632 121.249524 
z
" clip-path="url(#p3ca880a87c)" style="fill: #4682b4"/>
   </g>
   <g id="patch_4">
    <path d="M 41.174387 126.04 
L 47.968142 126.04 
L 47.968142 126.04 
L 41.174387 126.04 
z
" clip-path="url(#p3ca880a87c)" style="fill: #4682b4"/>
   </g>
   <g id="patch_5">
    <path d="M 47.968142 126.04 
L 54.761897 126.04 
L 54.761897 126.04 
L 47.968142 126.04 
z
" clip-path="url(#p3ca880a87c)" style="fill: #4682b4"/>
   </g>
   <g id="patch_6">
    <path d="M 54.761897 126.04 
L 61.555652 126.04 
L 61.555652 126.04 
L 54.761897 126.04 
z
" clip-path="url(#p3ca880a87c)" style="fill: #4682b4"/>
   </g>
   <g id="patch_7">
    <path d="M 61.555652 126.04 
L 68.349407 126.04 
L 68.349407 121.249524 
L 61.555652 121.249524 
z
" clip-path="url(#p3ca880a87c)" style="fill: #4682b4"/>
   </g>
   <g id="patch_8">
    <path d="M 68.349407 126.04 
L 75.143162 126.04 
L 75.143162 121.249524 
L 68.349407 121.249524 
z
" clip-path="url(#p3ca880a87c)" style="fill: #4682b4"/>
   </g>
   <g id="patch_9">
    <path d="M 75.143162 126.04 
L 81.936916 126.04 
L 81.936916 102.087619 
L 75.143162 102.087619 
z
" clip-path="url(#p3ca880a87c)" style="fill: #4682b4"/>
   </g>
   <g id="patch_10">
    <path d="M 81.936916 126.04 
L 88.730671 126.04 
L 88.730671 111.668571 
L 81.936916 111.668571 
z
" clip-path="url(#p3ca880a87c)" style="fill: #4682b4"/>
   </g>
   <g id="patch_11">
    <path d="M 88.730671 126.04 
L 95.524426 126.04 
L 95.524426 111.668571 
L 88.730671 111.668571 
z
" clip-path="url(#p3ca880a87c)" style="fill: #4682b4"/>
   </g>
   <g id="patch_12">
    <path d="M 95.524426 126.04 
L 102.318181 126.04 
L 102.318181 92.506667 
L 95.524426 92.506667 
z
" clip-path="url(#p3ca880a87c)" style="fill: #4682b4"/>
   </g>
   <g id="patch_13">
    <path d="M 102.318181 126.04 
L 109.111936 126.04 
L 109.111936 111.668571 
L 102.318181 111.668571 
z
" clip-path="url(#p3ca880a87c)" style="fill: #4682b4"/>
   </g>
   <g id="patch_14">
    <path d="M 109.111936 126.04 
L 115.905691 126.04 
L 115.905691 82.925714 
L 109.111936 82.925714 
z
" clip-path="url(#p3ca880a87c)" style="fill: #4682b4"/>
   </g>
   <g id="patch_15">
    <path d="M 115.905691 126.04 
L 122.699446 126.04 
L 122.699446 87.71619 
L 115.905691 87.71619 
z
" clip-path="url(#p3ca880a87c)" style="fill: #4682b4"/>
   </g>
   <g id="patch_16">
    <path d="M 122.699446 126.04 
L 129.493201 126.04 
L 129.493201 63.76381 
L 122.699446 63.76381 
z
" clip-path="url(#p3ca880a87c)" style="fill: #4682b4"/>
   </g>
   <g id="patch_17">
    <path d="M 129.493201 126.04 
L 136.286956 126.04 
L 136.286956 68.554286 
L 129.493201 68.554286 
z
" clip-path="url(#p3ca880a87c)" style="fill: #4682b4"/>
   </g>
   <g id="patch_18">
    <path d="M 136.286956 126.04 
L 143.08071 126.04 
L 143.08071 44.601905 
L 136.286956 44.601905 
z
" clip-path="url(#p3ca880a87c)" style="fill: #4682b4"/>
   </g>
   <g id="patch_19">
    <path d="M 143.08071 126.04 
L 149.874465 126.04 
L 149.874465 78.135238 
L 143.08071 78.135238 
z
" clip-path="url(#p3ca880a87c)" style="fill: #4682b4"/>
   </g>
   <g id="patch_20">
    <path d="M 149.874465 126.04 
L 156.66822 126.04 
L 156.66822 44.601905 
L 149.874465 44.601905 
z
" clip-path="url(#p3ca880a87c)" style="fill: #4682b4"/>
   </g>
   <g id="patch_21">
    <path d="M 156.66822 126.04 
L 163.461975 126.04 
L 163.461975 78.135238 
L 156.66822 78.135238 
z
" clip-path="url(#p3ca880a87c)" style="fill: #4682b4"/>
   </g>
   <g id="patch_22">
    <path d="M 163.461975 126.04 
L 170.25573 126.04 
L 170.25573 30.230476 
L 163.461975 30.230476 
z
" clip-path="url(#p3ca880a87c)" style="fill: #4682b4"/>
   </g>
   <g id="patch_23">
    <path d="M 170.25573 126.04 
L 177.049485 126.04 
L 177.049485 92.506667 
L 170.25573 92.506667 
z
" clip-path="url(#p3ca880a87c)" style="fill: #4682b4"/>
   </g>
   <g id="patch_24">
    <path d="M 177.049485 126.04 
L 183.84324 126.04 
L 183.84324 73.344762 
L 177.049485 73.344762 
z
" clip-path="url(#p3ca880a87c)" style="fill: #4682b4"/>
   </g>
   <g id="patch_25">
    <path d="M 183.84324 126.04 
L 190.636995 126.04 
L 190.636995 82.925714 
L 183.84324 82.925714 
z
" clip-path="url(#p3ca880a87c)" style="fill: #4682b4"/>
   </g>
   <g id="patch_26">
    <path d="M 190.636995 126.04 
L 197.430749 126.04 
L 197.430749 82.925714 
L 190.636995 82.925714 
z
" clip-path="url(#p3ca880a87c)" style="fill: #4682b4"/>
   </g>
   <g id="patch_27">
    <path d="M 197.430749 126.04 
L 204.224504 126.04 
L 204.224504 111.668571 
L 197.430749 111.668571 
z
" clip-path="url(#p3ca880a87c)" style="fill: #4682b4"/>
   </g>
   <g id="patch_28">
    <path d="M 204.224504 126.04 
L 211.018259 126.04 
L 211.018259 111.668571 
L 204.224504 111.668571 
z
" clip-path="url(#p3ca880a87c)" style="fill: #4682b4"/>
   </g>
   <g id="patch_29">
    <path d="M 211.018259 126.04 
L 217.812014 126.04 
L 217.812014 97.297143 
L 211.018259 97.297143 
z
" clip-path="url(#p3ca880a87c)" style="fill: #4682b4"/>
   </g>
   <g id="patch_30">
    <path d="M 217.812014 126.04 
L 224.605769 126.04 
L 224.605769 97.297143 
L 217.812014 97.297143 
z
" clip-path="url(#p3ca880a87c)" style="fill: #4682b4"/>
   </g>
   <g id="patch_31">
    <path d="M 224.605769 126.04 
L 231.399524 126.04 
L 231.399524 111.668571 
L 224.605769 111.668571 
z
" clip-path="url(#p3ca880a87c)" style="fill: #4682b4"/>
   </g>
   <g id="patch_32">
    <path d="M 231.399524 126.04 
L 238.193279 126.04 
L 238.193279 111.668571 
L 231.399524 111.668571 
z
" clip-path="url(#p3ca880a87c)" style="fill: #4682b4"/>
   </g>
   <g id="matplotlib.axis_1">
    <g id="xtick_1">
     <g id="line2d_1">
      <defs>
       <path id="m83ce1bdaff" d="M 0 0 
L 0 3.5 
" style="stroke: #000000; stroke-width: 0.8"/>
      </defs>
      <g>
       <use xlink:href="#m83ce1bdaff" x="34.957251" y="126.04" style="stroke: #000000; stroke-width: 0.8"/>
      </g>
     </g>
     <g id="text_1">
      <!-- −0.3 -->
      <g transform="translate(22.815845 140.638438) scale(0.1 -0.1)">
       <defs>
        <path id="DejaVuSans-2212" d="M 678 2272 
L 4684 2272 
L 4684 1741 
L 678 1741 
L 678 2272 
z
" transform="scale(0.015625)"/>
        <path id="DejaVuSans-30" d="M 2034 4250 
Q 1547 4250 1301 3770 
Q 1056 3291 1056 2328 
Q 1056 1369 1301 889 
Q 1547 409 2034 409 
Q 2525 409 2770 889 
Q 3016 1369 3016 2328 
Q 3016 3291 2770 3770 
Q 2525 4250 2034 4250 
z
M 2034 4750 
Q 2819 4750 3233 4129 
Q 3647 3509 3647 2328 
Q 3647 1150 3233 529 
Q 2819 -91 2034 -91 
Q 1250 -91 836 529 
Q 422 1150 422 2328 
Q 422 3509 836 4129 
Q 1250 4750 2034 4750 
z
" transform="scale(0.015625)"/>
        <path id="DejaVuSans-2e" d="M 684 794 
L 1344 794 
L 1344 0 
L 684 0 
L 684 794 
z
" transform="scale(0.015625)"/>
        <path id="DejaVuSans-33" d="M 2597 2516 
Q 3050 2419 3304 2112 
Q 3559 1806 3559 1356 
Q 3559 666 3084 287 
Q 2609 -91 1734 -91 
Q 1441 -91 1130 -33 
Q 819 25 488 141 
L 488 750 
Q 750 597 1062 519 
Q 1375 441 1716 441 
Q 2309 441 2620 675 
Q 2931 909 2931 1356 
Q 2931 1769 2642 2001 
Q 2353 2234 1838 2234 
L 1294 2234 
L 1294 2753 
L 1863 2753 
Q 2328 2753 2575 2939 
Q 2822 3125 2822 3475 
Q 2822 3834 2567 4026 
Q 2313 4219 1838 4219 
Q 1578 4219 1281 4162 
Q 984 4106 628 3988 
L 628 4550 
Q 988 4650 1302 4700 
Q 1616 4750 1894 4750 
Q 2613 4750 3031 4423 
Q 3450 4097 3450 3541 
Q 3450 3153 3228 2886 
Q 3006 2619 2597 2516 
z
" transform="scale(0.015625)"/>
       </defs>
       <use xlink:href="#DejaVuSans-2212"/>
       <use xlink:href="#DejaVuSans-30" x="83.789062"/>
       <use xlink:href="#DejaVuSans-2e" x="147.412109"/>
       <use xlink:href="#DejaVuSans-33" x="179.199219"/>
      </g>
     </g>
    </g>
    <g id="xtick_2">
     <g id="line2d_2">
      <g>
       <use xlink:href="#m83ce1bdaff" x="73.904001" y="126.04" style="stroke: #000000; stroke-width: 0.8"/>
      </g>
     </g>
     <g id="text_2">
      <!-- −0.2 -->
      <g transform="translate(61.762595 140.638438) scale(0.1 -0.1)">
       <defs>
        <path id="DejaVuSans-32" d="M 1228 531 
L 3431 531 
L 3431 0 
L 469 0 
L 469 531 
Q 828 903 1448 1529 
Q 2069 2156 2228 2338 
Q 2531 2678 2651 2914 
Q 2772 3150 2772 3378 
Q 2772 3750 2511 3984 
Q 2250 4219 1831 4219 
Q 1534 4219 1204 4116 
Q 875 4013 500 3803 
L 500 4441 
Q 881 4594 1212 4672 
Q 1544 4750 1819 4750 
Q 2544 4750 2975 4387 
Q 3406 4025 3406 3419 
Q 3406 3131 3298 2873 
Q 3191 2616 2906 2266 
Q 2828 2175 2409 1742 
Q 1991 1309 1228 531 
z
" transform="scale(0.015625)"/>
       </defs>
       <use xlink:href="#DejaVuSans-2212"/>
       <use xlink:href="#DejaVuSans-30" x="83.789062"/>
       <use xlink:href="#DejaVuSans-2e" x="147.412109"/>
       <use xlink:href="#DejaVuSans-32" x="179.199219"/>
      </g>
     </g>
    </g>
    <g id="xtick_3">
     <g id="line2d_3">
      <g>
       <use xlink:href="#m83ce1bdaff" x="112.85075" y="126.04" style="stroke: #000000; stroke-width: 0.8"/>
      </g>
     </g>
     <g id="text_3">
      <!-- −0.1 -->
      <g transform="translate(100.709344 140.638438) scale(0.1 -0.1)">
       <defs>
        <path id="DejaVuSans-31" d="M 794 531 
L 1825 531 
L 1825 4091 
L 703 3866 
L 703 4441 
L 1819 4666 
L 2450 4666 
L 2450 531 
L 3481 531 
L 3481 0 
L 794 0 
L 794 531 
z
" transform="scale(0.015625)"/>
       </defs>
       <use xlink:href="#DejaVuSans-2212"/>
       <use xlink:href="#DejaVuSans-30" x="83.789062"/>
       <use xlink:href="#DejaVuSans-2e" x="147.412109"/>
       <use xlink:href="#DejaVuSans-31" x="179.199219"/>
      </g>
     </g>
    </g>
    <g id="xtick_4">
     <g id="line2d_4">
      <g>
       <use xlink:href="#m83ce1bdaff" x="151.7975" y="126.04" style="stroke: #000000; stroke-width: 0.8"/>
      </g>
     </g>
     <g id="text_4">
      <!-- 0.0 -->
      <g transform="translate(143.845937 140.638438) scale(0.1 -0.1)">
       <use xlink:href="#DejaVuSans-30"/>
       <use xlink:href="#DejaVuSans-2e" x="63.623047"/>
       <use xlink:href="#DejaVuSans-30" x="95.410156"/>
      </g>
     </g>
    </g>
    <g id="xtick_5">
     <g id="line2d_5">
      <g>
       <use xlink:href="#m83ce1bdaff" x="190.74425" y="126.04" style="stroke: #000000; stroke-width: 0.8"/>
      </g>
     </g>
     <g id="text_5">
      <!-- 0.1 -->
      <g transform="translate(182.792687 140.638438) scale(0.1 -0.1)">
       <use xlink:href="#DejaVuSans-30"/>
       <use xlink:href="#DejaVuSans-2e" x="63.623047"/>
       <use xlink:href="#DejaVuSans-31" x="95.410156"/>
      </g>
     </g>
    </g>
    <g id="xtick_6">
     <g id="line2d_6">
      <g>
       <use xlink:href="#m83ce1bdaff" x="229.690999" y="126.04" style="stroke: #000000; stroke-width: 0.8"/>
      </g>
     </g>
     <g id="text_6">
      <!-- 0.2 -->
      <g transform="translate(221.739437 140.638438) scale(0.1 -0.1)">
       <use xlink:href="#DejaVuSans-30"/>
       <use xlink:href="#DejaVuSans-2e" x="63.623047"/>
       <use xlink:href="#DejaVuSans-32" x="95.410156"/>
      </g>
     </g>
    </g>
    <g id="xtick_7">
     <g id="line2d_7">
      <g>
       <use xlink:href="#m83ce1bdaff" x="268.637749" y="126.04" style="stroke: #000000; stroke-width: 0.8"/>
      </g>
     </g>
     <g id="text_7">
      <!-- 0.3 -->
      <g transform="translate(260.686186 140.638438) scale(0.1 -0.1)">
       <use xlink:href="#DejaVuSans-30"/>
       <use xlink:href="#DejaVuSans-2e" x="63.623047"/>
       <use xlink:href="#DejaVuSans-33" x="95.410156"/>
      </g>
     </g>
    </g>
    <g id="text_8">
     <!-- Systematic on Bias -->
     <g transform="translate(104.095156 154.316563) scale(0.1 -0.1)">
      <defs>
       <path id="DejaVuSans-53" d="M 3425 4513 
L 3425 3897 
Q 3066 4069 2747 4153 
Q 2428 4238 2131 4238 
Q 1616 4238 1336 4038 
Q 1056 3838 1056 3469 
Q 1056 3159 1242 3001 
Q 1428 2844 1947 2747 
L 2328 2669 
Q 3034 2534 3370 2195 
Q 3706 1856 3706 1288 
Q 3706 609 3251 259 
Q 2797 -91 1919 -91 
Q 1588 -91 1214 -16 
Q 841 59 441 206 
L 441 856 
Q 825 641 1194 531 
Q 1563 422 1919 422 
Q 2459 422 2753 634 
Q 3047 847 3047 1241 
Q 3047 1584 2836 1778 
Q 2625 1972 2144 2069 
L 1759 2144 
Q 1053 2284 737 2584 
Q 422 2884 422 3419 
Q 422 4038 858 4394 
Q 1294 4750 2059 4750 
Q 2388 4750 2728 4690 
Q 3069 4631 3425 4513 
z
" transform="scale(0.015625)"/>
       <path id="DejaVuSans-79" d="M 2059 -325 
Q 1816 -950 1584 -1140 
Q 1353 -1331 966 -1331 
L 506 -1331 
L 506 -850 
L 844 -850 
Q 1081 -850 1212 -737 
Q 1344 -625 1503 -206 
L 1606 56 
L 191 3500 
L 800 3500 
L 1894 763 
L 2988 3500 
L 3597 3500 
L 2059 -325 
z
" transform="scale(0.015625)"/>
       <path id="DejaVuSans-73" d="M 2834 3397 
L 2834 2853 
Q 2591 2978 2328 3040 
Q 2066 3103 1784 3103 
Q 1356 3103 1142 2972 
Q 928 2841 928 2578 
Q 928 2378 1081 2264 
Q 1234 2150 1697 2047 
L 1894 2003 
Q 2506 1872 2764 1633 
Q 3022 1394 3022 966 
Q 3022 478 2636 193 
Q 2250 -91 1575 -91 
Q 1294 -91 989 -36 
Q 684 19 347 128 
L 347 722 
Q 666 556 975 473 
Q 1284 391 1588 391 
Q 1994 391 2212 530 
Q 2431 669 2431 922 
Q 2431 1156 2273 1281 
Q 2116 1406 1581 1522 
L 1381 1569 
Q 847 1681 609 1914 
Q 372 2147 372 2553 
Q 372 3047 722 3315 
Q 1072 3584 1716 3584 
Q 2034 3584 2315 3537 
Q 2597 3491 2834 3397 
z
" transform="scale(0.015625)"/>
       <path id="DejaVuSans-74" d="M 1172 4494 
L 1172 3500 
L 2356 3500 
L 2356 3053 
L 1172 3053 
L 1172 1153 
Q 1172 725 1289 603 
Q 1406 481 1766 481 
L 2356 481 
L 2356 0 
L 1766 0 
Q 1100 0 847 248 
Q 594 497 594 1153 
L 594 3053 
L 172 3053 
L 172 3500 
L 594 3500 
L 594 4494 
L 1172 4494 
z
" transform="scale(0.015625)"/>
       <path id="DejaVuSans-65" d="M 3597 1894 
L 3597 1613 
L 953 1613 
Q 991 1019 1311 708 
Q 1631 397 2203 397 
Q 2534 397 2845 478 
Q 3156 559 3463 722 
L 3463 178 
Q 3153 47 2828 -22 
Q 2503 -91 2169 -91 
Q 1331 -91 842 396 
Q 353 884 353 1716 
Q 353 2575 817 3079 
Q 1281 3584 2069 3584 
Q 2775 3584 3186 3129 
Q 3597 2675 3597 1894 
z
M 3022 2063 
Q 3016 2534 2758 2815 
Q 2500 3097 2075 3097 
Q 1594 3097 1305 2825 
Q 1016 2553 972 2059 
L 3022 2063 
z
" transform="scale(0.015625)"/>
       <path id="DejaVuSans-6d" d="M 3328 2828 
Q 3544 3216 3844 3400 
Q 4144 3584 4550 3584 
Q 5097 3584 5394 3201 
Q 5691 2819 5691 2113 
L 5691 0 
L 5113 0 
L 5113 2094 
Q 5113 2597 4934 2840 
Q 4756 3084 4391 3084 
Q 3944 3084 3684 2787 
Q 3425 2491 3425 1978 
L 3425 0 
L 2847 0 
L 2847 2094 
Q 2847 2600 2669 2842 
Q 2491 3084 2119 3084 
Q 1678 3084 1418 2786 
Q 1159 2488 1159 1978 
L 1159 0 
L 581 0 
L 581 3500 
L 1159 3500 
L 1159 2956 
Q 1356 3278 1631 3431 
Q 1906 3584 2284 3584 
Q 2666 3584 2933 3390 
Q 3200 3197 3328 2828 
z
" transform="scale(0.015625)"/>
       <path id="DejaVuSans-61" d="M 2194 1759 
Q 1497 1759 1228 1600 
Q 959 1441 959 1056 
Q 959 750 1161 570 
Q 1363 391 1709 391 
Q 2188 391 2477 730 
Q 2766 1069 2766 1631 
L 2766 1759 
L 2194 1759 
z
M 3341 1997 
L 3341 0 
L 2766 0 
L 2766 531 
Q 2569 213 2275 61 
Q 1981 -91 1556 -91 
Q 1019 -91 701 211 
Q 384 513 384 1019 
Q 384 1609 779 1909 
Q 1175 2209 1959 2209 
L 2766 2209 
L 2766 2266 
Q 2766 2663 2505 2880 
Q 2244 3097 1772 3097 
Q 1472 3097 1187 3025 
Q 903 2953 641 2809 
L 641 3341 
Q 956 3463 1253 3523 
Q 1550 3584 1831 3584 
Q 2591 3584 2966 3190 
Q 3341 2797 3341 1997 
z
" transform="scale(0.015625)"/>
       <path id="DejaVuSans-69" d="M 603 3500 
L 1178 3500 
L 1178 0 
L 603 0 
L 603 3500 
z
M 603 4863 
L 1178 4863 
L 1178 4134 
L 603 4134 
L 603 4863 
z
" transform="scale(0.015625)"/>
       <path id="DejaVuSans-63" d="M 3122 3366 
L 3122 2828 
Q 2878 2963 2633 3030 
Q 2388 3097 2138 3097 
Q 1578 3097 1268 2742 
Q 959 2388 959 1747 
Q 959 1106 1268 751 
Q 1578 397 2138 397 
Q 2388 397 2633 464 
Q 2878 531 3122 666 
L 3122 134 
Q 2881 22 2623 -34 
Q 2366 -91 2075 -91 
Q 1284 -91 818 406 
Q 353 903 353 1747 
Q 353 2603 823 3093 
Q 1294 3584 2113 3584 
Q 2378 3584 2631 3529 
Q 2884 3475 3122 3366 
z
" transform="scale(0.015625)"/>
       <path id="DejaVuSans-20" transform="scale(0.015625)"/>
       <path id="DejaVuSans-6f" d="M 1959 3097 
Q 1497 3097 1228 2736 
Q 959 2375 959 1747 
Q 959 1119 1226 758 
Q 1494 397 1959 397 
Q 2419 397 2687 759 
Q 2956 1122 2956 1747 
Q 2956 2369 2687 2733 
Q 2419 3097 1959 3097 
z
M 1959 3584 
Q 2709 3584 3137 3096 
Q 3566 2609 3566 1747 
Q 3566 888 3137 398 
Q 2709 -91 1959 -91 
Q 1206 -91 779 398 
Q 353 888 353 1747 
Q 353 2609 779 3096 
Q 1206 3584 1959 3584 
z
" transform="scale(0.015625)"/>
       <path id="DejaVuSans-6e" d="M 3513 2113 
L 3513 0 
L 2938 0 
L 2938 2094 
Q 2938 2591 2744 2837 
Q 2550 3084 2163 3084 
Q 1697 3084 1428 2787 
Q 1159 2491 1159 1978 
L 1159 0 
L 581 0 
L 581 3500 
L 1159 3500 
L 1159 2956 
Q 1366 3272 1645 3428 
Q 1925 3584 2291 3584 
Q 2894 3584 3203 3211 
Q 3513 2838 3513 2113 
z
" transform="scale(0.015625)"/>
       <path id="DejaVuSans-42" d="M 1259 2228 
L 1259 519 
L 2272 519 
Q 2781 519 3026 730 
Q 3272 941 3272 1375 
Q 3272 1813 3026 2020 
Q 2781 2228 2272 2228 
L 1259 2228 
z
M 1259 4147 
L 1259 2741 
L 2194 2741 
Q 2656 2741 2882 2914 
Q 3109 3088 3109 3444 
Q 3109 3797 2882 3972 
Q 2656 4147 2194 4147 
L 1259 4147 
z
M 628 4666 
L 2241 4666 
Q 2963 4666 3353 4366 
Q 3744 4066 3744 3513 
Q 3744 3084 3544 2831 
Q 3344 2578 2956 2516 
Q 3422 2416 3680 2098 
Q 3938 1781 3938 1306 
Q 3938 681 3513 340 
Q 3088 0 2303 0 
L 628 0 
L 628 4666 
z
" transform="scale(0.015625)"/>
      </defs>
      <use xlink:href="#DejaVuSans-53"/>
      <use xlink:href="#DejaVuSans-79" x="63.476562"/>
      <use xlink:href="#DejaVuSans-73" x="122.65625"/>
      <use xlink:href="#DejaVuSans-74" x="174.755859"/>
      <use xlink:href="#DejaVuSans-65" x="213.964844"/>
      <use xlink:href="#DejaVuSans-6d" x="275.488281"/>
      <use xlink:href="#DejaVuSans-61" x="372.900391"/>
      <use xlink:href="#DejaVuSans-74" x="434.179688"/>
      <use xlink:href="#DejaVuSans-69" x="473.388672"/>
      <use xlink:href="#DejaVuSans-63" x="501.171875"/>
      <use xlink:href="#DejaVuSans-20" x="556.152344"/>
      <use xlink:href="#DejaVuSans-6f" x="587.939453"/>
      <use xlink:href="#DejaVuSans-6e" x="649.121094"/>
      <use xlink:href="#DejaVuSans-20" x="712.5"/>
      <use xlink:href="#DejaVuSans-42" x="744.287109"/>
      <use xlink:href="#DejaVuSans-69" x="812.890625"/>
      <use xlink:href="#DejaVuSans-61" x="840.673828"/>
      <use xlink:href="#DejaVuSans-73" x="901.953125"/>
     </g>
    </g>
   </g>
   <g id="matplotlib.axis_2">
    <g id="ytick_1">
     <g id="line2d_8">
      <defs>
       <path id="mb6a6106c6f" d="M 0 0 
L -3.5 0 
" style="stroke: #000000; stroke-width: 0.8"/>
      </defs>
      <g>
       <use xlink:href="#mb6a6106c6f" x="24.19" y="126.04" style="stroke: #000000; stroke-width: 0.8"/>
      </g>
     </g>
     <g id="text_9">
      <!-- 0 -->
      <g transform="translate(10.8275 129.839219) scale(0.1 -0.1)">
       <use xlink:href="#DejaVuSans-30"/>
      </g>
     </g>
    </g>
    <g id="ytick_2">
     <g id="line2d_9">
      <g>
       <use xlink:href="#mb6a6106c6f" x="24.19" y="92.614545" style="stroke: #000000; stroke-width: 0.8"/>
      </g>
     </g>
     <g id="text_10">
      <!-- 2 -->
      <g transform="translate(10.8275 96.413763) scale(0.1 -0.1)">
       <use xlink:href="#DejaVuSans-32"/>
      </g>
     </g>
    </g>
    <g id="ytick_3">
     <g id="line2d_10">
      <g>
       <use xlink:href="#mb6a6106c6f" x="24.19" y="59.189089" style="stroke: #000000; stroke-width: 0.8"/>
      </g>
     </g>
     <g id="text_11">
      <!-- 4 -->
      <g transform="translate(10.8275 62.988308) scale(0.1 -0.1)">
       <defs>
        <path id="DejaVuSans-34" d="M 2419 4116 
L 825 1625 
L 2419 1625 
L 2419 4116 
z
M 2253 4666 
L 3047 4666 
L 3047 1625 
L 3713 1625 
L 3713 1100 
L 3047 1100 
L 3047 0 
L 2419 0 
L 2419 1100 
L 313 1100 
L 313 1709 
L 2253 4666 
z
" transform="scale(0.015625)"/>
       </defs>
       <use xlink:href="#DejaVuSans-34"/>
      </g>
     </g>
    </g>
    <g id="ytick_4">
     <g id="line2d_11">
      <g>
       <use xlink:href="#mb6a6106c6f" x="24.19" y="25.763634" style="stroke: #000000; stroke-width: 0.8"/>
      </g>
     </g>
     <g id="text_12">
      <!-- 6 -->
      <g transform="translate(10.8275 29.562853) scale(0.1 -0.1)">
       <defs>
        <path id="DejaVuSans-36" d="M 2113 2584 
Q 1688 2584 1439 2293 
Q 1191 2003 1191 1497 
Q 1191 994 1439 701 
Q 1688 409 2113 409 
Q 2538 409 2786 701 
Q 3034 994 3034 1497 
Q 3034 2003 2786 2293 
Q 2538 2584 2113 2584 
z
M 3366 4563 
L 3366 3988 
Q 3128 4100 2886 4159 
Q 2644 4219 2406 4219 
Q 1781 4219 1451 3797 
Q 1122 3375 1075 2522 
Q 1259 2794 1537 2939 
Q 1816 3084 2150 3084 
Q 2853 3084 3261 2657 
Q 3669 2231 3669 1497 
Q 3669 778 3244 343 
Q 2819 -91 2113 -91 
Q 1303 -91 875 529 
Q 447 1150 447 2328 
Q 447 3434 972 4092 
Q 1497 4750 2381 4750 
Q 2619 4750 2861 4703 
Q 3103 4656 3366 4563 
z
" transform="scale(0.015625)"/>
       </defs>
       <use xlink:href="#DejaVuSans-36"/>
      </g>
     </g>
    </g>
   </g>
   <g id="line2d_12">
    <path d="M 34.380632 125.331573 
L 41.174387 124.859461 
L 47.968142 124.131682 
L 54.761897 123.047691 
L 61.555652 121.488577 
L 68.349407 119.32458 
L 75.143162 116.428651 
L 81.936916 112.696166 
L 88.730671 108.069419 
L 95.524426 102.563748 
L 102.318181 96.290438 
L 109.111936 89.470623 
L 115.905691 82.434656 
L 122.699446 75.603257 
L 129.493201 69.450022 
L 136.286956 64.449011 
L 143.08071 61.015053 
L 149.874465 59.447089 
L 156.66822 59.88523 
L 163.461975 62.290102 
L 170.25573 66.448681 
L 177.049485 72.005434 
L 183.84324 78.512441 
L 190.636995 85.488725 
L 197.430749 92.477934 
L 204.224504 99.09501 
L 211.018259 105.055794 
L 217.812014 110.187702 
L 224.605769 114.423452 
L 231.399524 117.782528 
L 238.193279 120.346199 
" clip-path="url(#p3ca880a87c)" style="fill: none; stroke: #ff0000; stroke-width: 2; stroke-linecap: square"/>
   </g>
   <g id="patch_33">
    <path d="M 24.19 126.04 
L 24.19 25.44 
" style="fill: none; stroke: #000000; stroke-width: 0.8; stroke-linejoin: miter; stroke-linecap: square"/>
   </g>
   <g id="patch_34">
    <path d="M 279.405 126.04 
L 279.405 25.44 
" style="fill: none; stroke: #000000; stroke-width: 0.8; stroke-linejoin: miter; stroke-linecap: square"/>
   </g>
   <g id="patch_35">
    <path d="M 24.19 126.04 
L 279.405 126.04 
" style="fill: none; stroke: #000000; stroke-width: 0.8; stroke-linejoin: miter; stroke-linecap: square"/>
   </g>
   <g id="patch_36">
    <path d="M 24.19 25.44 
L 279.405 25.44 
" style="fill: none; stroke: #000000; stroke-width: 0.8; stroke-linejoin: miter; stroke-linecap: square"/>
   </g>
   <g id="legend_1">
    <g id="patch_37">
     <path d="M 175.505 48.138438 
L 272.405 48.138438 
Q 274.405 48.138438 274.405 46.138438 
L 274.405 32.44 
Q 274.405 30.44 272.405 30.44 
L 175.505 30.44 
Q 173.505 30.44 173.505 32.44 
L 173.505 46.138438 
Q 173.505 48.138438 175.505 48.138438 
z
" style="fill: #ffffff; opacity: 0.8; stroke: #cccccc; stroke-linejoin: miter"/>
    </g>
    <g id="line2d_13">
     <path d="M 177.505 38.538438 
L 187.505 38.538438 
L 197.505 38.538438 
" style="fill: none; stroke: #ff0000; stroke-width: 2; stroke-linecap: square"/>
    </g>
    <g id="text_13">
     <!-- $\mu = 0; \sigma = 0.1$ -->
     <g transform="translate(205.505 42.038438) scale(0.1 -0.1)">
      <defs>
       <path id="DejaVuSans-Oblique-3bc" d="M -84 -1331 
L 856 3500 
L 1434 3500 
L 1009 1322 
Q 997 1256 987 1175 
Q 978 1094 978 1013 
Q 978 722 1161 565 
Q 1344 409 1684 409 
Q 2147 409 2431 671 
Q 2716 934 2816 1459 
L 3213 3500 
L 3788 3500 
L 3266 809 
Q 3253 750 3248 706 
Q 3244 663 3244 628 
Q 3244 531 3283 486 
Q 3322 441 3406 441 
Q 3438 441 3492 456 
Q 3547 472 3647 513 
L 3559 50 
Q 3422 -19 3297 -55 
Q 3172 -91 3053 -91 
Q 2847 -91 2730 40 
Q 2613 172 2613 403 
Q 2438 153 2195 31 
Q 1953 -91 1625 -91 
Q 1334 -91 1117 43 
Q 900 178 831 397 
L 494 -1331 
L -84 -1331 
z
" transform="scale(0.015625)"/>
       <path id="DejaVuSans-3d" d="M 678 2906 
L 4684 2906 
L 4684 2381 
L 678 2381 
L 678 2906 
z
M 678 1631 
L 4684 1631 
L 4684 1100 
L 678 1100 
L 678 1631 
z
" transform="scale(0.015625)"/>
       <path id="DejaVuSans-3b" d="M 750 3309 
L 1409 3309 
L 1409 2516 
L 750 2516 
L 750 3309 
z
M 750 794 
L 1409 794 
L 1409 256 
L 897 -744 
L 494 -744 
L 750 256 
L 750 794 
z
" transform="scale(0.015625)"/>
       <path id="DejaVuSans-Oblique-3c3" d="M 2219 3044 
Q 1744 3044 1422 2700 
Q 1081 2341 969 1747 
Q 844 1119 1044 756 
Q 1241 397 1706 397 
Q 2166 397 2503 759 
Q 2844 1122 2966 1747 
Q 3075 2319 2881 2700 
Q 2700 3044 2219 3044 
z
M 2309 3503 
L 4219 3500 
L 4106 2925 
L 3463 2925 
Q 3706 2438 3575 1747 
Q 3406 888 2884 400 
Q 2359 -91 1609 -91 
Q 856 -91 525 400 
Q 194 888 363 1747 
Q 528 2609 1050 3097 
Q 1484 3503 2309 3503 
z
" transform="scale(0.015625)"/>
      </defs>
      <use xlink:href="#DejaVuSans-Oblique-3bc" transform="translate(0 0.78125)"/>
      <use xlink:href="#DejaVuSans-3d" transform="translate(83.105469 0.78125)"/>
      <use xlink:href="#DejaVuSans-30" transform="translate(186.376953 0.78125)"/>
      <use xlink:href="#DejaVuSans-3b" transform="translate(250 0.78125)"/>
      <use xlink:href="#DejaVuSans-Oblique-3c3" transform="translate(303.173828 0.78125)"/>
      <use xlink:href="#DejaVuSans-3d" transform="translate(386.035156 0.78125)"/>
      <use xlink:href="#DejaVuSans-30" transform="translate(489.306641 0.78125)"/>
      <use xlink:href="#DejaVuSans-2e" transform="translate(552.929688 0.78125)"/>
      <use xlink:href="#DejaVuSans-31" transform="translate(584.716797 0.78125)"/>
     </g>
    </g>
   </g>
  </g>
  <g id="axes_2">
   <g id="patch_38">
    <path d="M 309.985 126.04 
L 565.2 126.04 
L 565.2 25.44 
L 309.985 25.44 
z
" style="fill: #ffffff"/>
   </g>
   <g id="patch_39">
    <path d="M 321.585682 126.04 
L 329.31947 126.04 
L 329.31947 126.04 
L 321.585682 126.04 
z
" clip-path="url(#p9db95f9015)" style="fill: #4682b4"/>
   </g>
   <g id="patch_40">
    <path d="M 329.31947 126.04 
L 337.053258 126.04 
L 337.053258 126.04 
L 329.31947 126.04 
z
" clip-path="url(#p9db95f9015)" style="fill: #4682b4"/>
   </g>
   <g id="patch_41">
    <path d="M 337.053258 126.04 
L 344.787045 126.04 
L 344.787045 126.04 
L 337.053258 126.04 
z
" clip-path="url(#p9db95f9015)" style="fill: #4682b4"/>
   </g>
   <g id="patch_42">
    <path d="M 344.787045 126.04 
L 352.520833 126.04 
L 352.520833 126.04 
L 344.787045 126.04 
z
" clip-path="url(#p9db95f9015)" style="fill: #4682b4"/>
   </g>
   <g id="patch_43">
    <path d="M 352.520833 126.04 
L 360.254621 126.04 
L 360.254621 126.04 
L 352.520833 126.04 
z
" clip-path="url(#p9db95f9015)" style="fill: #4682b4"/>
   </g>
   <g id="patch_44">
    <path d="M 360.254621 126.04 
L 367.988409 126.04 
L 367.988409 126.04 
L 360.254621 126.04 
z
" clip-path="url(#p9db95f9015)" style="fill: #4682b4"/>
   </g>
   <g id="patch_45">
    <path d="M 367.988409 126.04 
L 375.722197 126.04 
L 375.722197 126.04 
L 367.988409 126.04 
z
" clip-path="url(#p9db95f9015)" style="fill: #4682b4"/>
   </g>
   <g id="patch_46">
    <path d="M 375.722197 126.04 
L 383.455985 126.04 
L 383.455985 126.04 
L 375.722197 126.04 
z
" clip-path="url(#p9db95f9015)" style="fill: #4682b4"/>
   </g>
   <g id="patch_47">
    <path d="M 383.455985 126.04 
L 391.189773 126.04 
L 391.189773 126.04 
L 383.455985 126.04 
z
" clip-path="url(#p9db95f9015)" style="fill: #4682b4"/>
   </g>
   <g id="patch_48">
    <path d="M 391.189773 126.04 
L 398.923561 126.04 
L 398.923561 126.04 
L 391.189773 126.04 
z
" clip-path="url(#p9db95f9015)" style="fill: #4682b4"/>
   </g>
   <g id="patch_49">
    <path d="M 398.923561 126.04 
L 406.657348 126.04 
L 406.657348 126.04 
L 398.923561 126.04 
z
" clip-path="url(#p9db95f9015)" style="fill: #4682b4"/>
   </g>
   <g id="patch_50">
    <path d="M 406.657348 126.04 
L 414.391136 126.04 
L 414.391136 126.04 
L 406.657348 126.04 
z
" clip-path="url(#p9db95f9015)" style="fill: #4682b4"/>
   </g>
   <g id="patch_51">
    <path d="M 414.391136 126.04 
L 422.124924 126.04 
L 422.124924 126.04 
L 414.391136 126.04 
z
" clip-path="url(#p9db95f9015)" style="fill: #4682b4"/>
   </g>
   <g id="patch_52">
    <path d="M 422.124924 126.04 
L 429.858712 126.04 
L 429.858712 126.04 
L 422.124924 126.04 
z
" clip-path="url(#p9db95f9015)" style="fill: #4682b4"/>
   </g>
   <g id="patch_53">
    <path d="M 429.858712 126.04 
L 437.5925 126.04 
L 437.5925 126.04 
L 429.858712 126.04 
z
" clip-path="url(#p9db95f9015)" style="fill: #4682b4"/>
   </g>
   <g id="patch_54">
    <path d="M 437.5925 126.04 
L 445.326288 126.04 
L 445.326288 30.230476 
L 437.5925 30.230476 
z
" clip-path="url(#p9db95f9015)" style="fill: #4682b4"/>
   </g>
   <g id="patch_55">
    <path d="M 445.326288 126.04 
L 453.060076 126.04 
L 453.060076 126.04 
L 445.326288 126.04 
z
" clip-path="url(#p9db95f9015)" style="fill: #4682b4"/>
   </g>
   <g id="patch_56">
    <path d="M 453.060076 126.04 
L 460.793864 126.04 
L 460.793864 126.04 
L 453.060076 126.04 
z
" clip-path="url(#p9db95f9015)" style="fill: #4682b4"/>
   </g>
   <g id="patch_57">
    <path d="M 460.793864 126.04 
L 468.527652 126.04 
L 468.527652 126.04 
L 460.793864 126.04 
z
" clip-path="url(#p9db95f9015)" style="fill: #4682b4"/>
   </g>
   <g id="patch_58">
    <path d="M 468.527652 126.04 
L 476.261439 126.04 
L 476.261439 126.04 
L 468.527652 126.04 
z
" clip-path="url(#p9db95f9015)" style="fill: #4682b4"/>
   </g>
   <g id="patch_59">
    <path d="M 476.261439 126.04 
L 483.995227 126.04 
L 483.995227 126.04 
L 476.261439 126.04 
z
" clip-path="url(#p9db95f9015)" style="fill: #4682b4"/>
   </g>
   <g id="patch_60">
    <path d="M 483.995227 126.04 
L 491.729015 126.04 
L 491.729015 126.04 
L 483.995227 126.04 
z
" clip-path="url(#p9db95f9015)" style="fill: #4682b4"/>
   </g>
   <g id="patch_61">
    <path d="M 491.729015 126.04 
L 499.462803 126.04 
L 499.462803 126.04 
L 491.729015 126.04 
z
" clip-path="url(#p9db95f9015)" style="fill: #4682b4"/>
   </g>
   <g id="patch_62">
    <path d="M 499.462803 126.04 
L 507.196591 126.04 
L 507.196591 126.04 
L 499.462803 126.04 
z
" clip-path="url(#p9db95f9015)" style="fill: #4682b4"/>
   </g>
   <g id="patch_63">
    <path d="M 507.196591 126.04 
L 514.930379 126.04 
L 514.930379 126.04 
L 507.196591 126.04 
z
" clip-path="url(#p9db95f9015)" style="fill: #4682b4"/>
   </g>
   <g id="patch_64">
    <path d="M 514.930379 126.04 
L 522.664167 126.04 
L 522.664167 126.04 
L 514.930379 126.04 
z
" clip-path="url(#p9db95f9015)" style="fill: #4682b4"/>
   </g>
   <g id="patch_65">
    <path d="M 522.664167 126.04 
L 530.397955 126.04 
L 530.397955 126.04 
L 522.664167 126.04 
z
" clip-path="url(#p9db95f9015)" style="fill: #4682b4"/>
   </g>
   <g id="patch_66">
    <path d="M 530.397955 126.04 
L 538.131742 126.04 
L 538.131742 126.04 
L 530.397955 126.04 
z
" clip-path="url(#p9db95f9015)" style="fill: #4682b4"/>
   </g>
   <g id="patch_67">
    <path d="M 538.131742 126.04 
L 545.86553 126.04 
L 545.86553 126.04 
L 538.131742 126.04 
z
" clip-path="url(#p9db95f9015)" style="fill: #4682b4"/>
   </g>
   <g id="patch_68">
    <path d="M 545.86553 126.04 
L 553.599318 126.04 
L 553.599318 126.04 
L 545.86553 126.04 
z
" clip-path="url(#p9db95f9015)" style="fill: #4682b4"/>
   </g>
   <g id="matplotlib.axis_3">
    <g id="xtick_8">
     <g id="line2d_14">
      <g>
       <use xlink:href="#m83ce1bdaff" x="344.787045" y="126.04" style="stroke: #000000; stroke-width: 0.8"/>
      </g>
     </g>
     <g id="text_14">
      <!-- −0.4 -->
      <g transform="translate(332.645639 140.638438) scale(0.1 -0.1)">
       <use xlink:href="#DejaVuSans-2212"/>
       <use xlink:href="#DejaVuSans-30" x="83.789062"/>
       <use xlink:href="#DejaVuSans-2e" x="147.412109"/>
       <use xlink:href="#DejaVuSans-34" x="179.199219"/>
      </g>
     </g>
    </g>
    <g id="xtick_9">
     <g id="line2d_15">
      <g>
       <use xlink:href="#m83ce1bdaff" x="391.189773" y="126.04" style="stroke: #000000; stroke-width: 0.8"/>
      </g>
     </g>
     <g id="text_15">
      <!-- −0.2 -->
      <g transform="translate(379.048366 140.638438) scale(0.1 -0.1)">
       <use xlink:href="#DejaVuSans-2212"/>
       <use xlink:href="#DejaVuSans-30" x="83.789062"/>
       <use xlink:href="#DejaVuSans-2e" x="147.412109"/>
       <use xlink:href="#DejaVuSans-32" x="179.199219"/>
      </g>
     </g>
    </g>
    <g id="xtick_10">
     <g id="line2d_16">
      <g>
       <use xlink:href="#m83ce1bdaff" x="437.5925" y="126.04" style="stroke: #000000; stroke-width: 0.8"/>
      </g>
     </g>
     <g id="text_16">
      <!-- 0.0 -->
      <g transform="translate(429.640937 140.638438) scale(0.1 -0.1)">
       <use xlink:href="#DejaVuSans-30"/>
       <use xlink:href="#DejaVuSans-2e" x="63.623047"/>
       <use xlink:href="#DejaVuSans-30" x="95.410156"/>
      </g>
     </g>
    </g>
    <g id="xtick_11">
     <g id="line2d_17">
      <g>
       <use xlink:href="#m83ce1bdaff" x="483.995227" y="126.04" style="stroke: #000000; stroke-width: 0.8"/>
      </g>
     </g>
     <g id="text_17">
      <!-- 0.2 -->
      <g transform="translate(476.043665 140.638438) scale(0.1 -0.1)">
       <use xlink:href="#DejaVuSans-30"/>
       <use xlink:href="#DejaVuSans-2e" x="63.623047"/>
       <use xlink:href="#DejaVuSans-32" x="95.410156"/>
      </g>
     </g>
    </g>
    <g id="xtick_12">
     <g id="line2d_18">
      <g>
       <use xlink:href="#m83ce1bdaff" x="530.397955" y="126.04" style="stroke: #000000; stroke-width: 0.8"/>
      </g>
     </g>
     <g id="text_18">
      <!-- 0.4 -->
      <g transform="translate(522.446392 140.638438) scale(0.1 -0.1)">
       <use xlink:href="#DejaVuSans-30"/>
       <use xlink:href="#DejaVuSans-2e" x="63.623047"/>
       <use xlink:href="#DejaVuSans-34" x="95.410156"/>
      </g>
     </g>
    </g>
    <g id="text_19">
     <!-- Systematic on Resolution [%] -->
     <g transform="translate(364.012031 154.316563) scale(0.1 -0.1)">
      <defs>
       <path id="DejaVuSans-52" d="M 2841 2188 
Q 3044 2119 3236 1894 
Q 3428 1669 3622 1275 
L 4263 0 
L 3584 0 
L 2988 1197 
Q 2756 1666 2539 1819 
Q 2322 1972 1947 1972 
L 1259 1972 
L 1259 0 
L 628 0 
L 628 4666 
L 2053 4666 
Q 2853 4666 3247 4331 
Q 3641 3997 3641 3322 
Q 3641 2881 3436 2590 
Q 3231 2300 2841 2188 
z
M 1259 4147 
L 1259 2491 
L 2053 2491 
Q 2509 2491 2742 2702 
Q 2975 2913 2975 3322 
Q 2975 3731 2742 3939 
Q 2509 4147 2053 4147 
L 1259 4147 
z
" transform="scale(0.015625)"/>
       <path id="DejaVuSans-6c" d="M 603 4863 
L 1178 4863 
L 1178 0 
L 603 0 
L 603 4863 
z
" transform="scale(0.015625)"/>
       <path id="DejaVuSans-75" d="M 544 1381 
L 544 3500 
L 1119 3500 
L 1119 1403 
Q 1119 906 1312 657 
Q 1506 409 1894 409 
Q 2359 409 2629 706 
Q 2900 1003 2900 1516 
L 2900 3500 
L 3475 3500 
L 3475 0 
L 2900 0 
L 2900 538 
Q 2691 219 2414 64 
Q 2138 -91 1772 -91 
Q 1169 -91 856 284 
Q 544 659 544 1381 
z
M 1991 3584 
L 1991 3584 
z
" transform="scale(0.015625)"/>
       <path id="DejaVuSans-5b" d="M 550 4863 
L 1875 4863 
L 1875 4416 
L 1125 4416 
L 1125 -397 
L 1875 -397 
L 1875 -844 
L 550 -844 
L 550 4863 
z
" transform="scale(0.015625)"/>
       <path id="DejaVuSans-25" d="M 4653 2053 
Q 4381 2053 4226 1822 
Q 4072 1591 4072 1178 
Q 4072 772 4226 539 
Q 4381 306 4653 306 
Q 4919 306 5073 539 
Q 5228 772 5228 1178 
Q 5228 1588 5073 1820 
Q 4919 2053 4653 2053 
z
M 4653 2450 
Q 5147 2450 5437 2106 
Q 5728 1763 5728 1178 
Q 5728 594 5436 251 
Q 5144 -91 4653 -91 
Q 4153 -91 3862 251 
Q 3572 594 3572 1178 
Q 3572 1766 3864 2108 
Q 4156 2450 4653 2450 
z
M 1428 4353 
Q 1159 4353 1004 4120 
Q 850 3888 850 3481 
Q 850 3069 1003 2837 
Q 1156 2606 1428 2606 
Q 1700 2606 1854 2837 
Q 2009 3069 2009 3481 
Q 2009 3884 1853 4118 
Q 1697 4353 1428 4353 
z
M 4250 4750 
L 4750 4750 
L 1831 -91 
L 1331 -91 
L 4250 4750 
z
M 1428 4750 
Q 1922 4750 2215 4408 
Q 2509 4066 2509 3481 
Q 2509 2891 2217 2550 
Q 1925 2209 1428 2209 
Q 931 2209 642 2551 
Q 353 2894 353 3481 
Q 353 4063 643 4406 
Q 934 4750 1428 4750 
z
" transform="scale(0.015625)"/>
       <path id="DejaVuSans-5d" d="M 1947 4863 
L 1947 -844 
L 622 -844 
L 622 -397 
L 1369 -397 
L 1369 4416 
L 622 4416 
L 622 4863 
L 1947 4863 
z
" transform="scale(0.015625)"/>
      </defs>
      <use xlink:href="#DejaVuSans-53"/>
      <use xlink:href="#DejaVuSans-79" x="63.476562"/>
      <use xlink:href="#DejaVuSans-73" x="122.65625"/>
      <use xlink:href="#DejaVuSans-74" x="174.755859"/>
      <use xlink:href="#DejaVuSans-65" x="213.964844"/>
      <use xlink:href="#DejaVuSans-6d" x="275.488281"/>
      <use xlink:href="#DejaVuSans-61" x="372.900391"/>
      <use xlink:href="#DejaVuSans-74" x="434.179688"/>
      <use xlink:href="#DejaVuSans-69" x="473.388672"/>
      <use xlink:href="#DejaVuSans-63" x="501.171875"/>
      <use xlink:href="#DejaVuSans-20" x="556.152344"/>
      <use xlink:href="#DejaVuSans-6f" x="587.939453"/>
      <use xlink:href="#DejaVuSans-6e" x="649.121094"/>
      <use xlink:href="#DejaVuSans-20" x="712.5"/>
      <use xlink:href="#DejaVuSans-52" x="744.287109"/>
      <use xlink:href="#DejaVuSans-65" x="809.269531"/>
      <use xlink:href="#DejaVuSans-73" x="870.792969"/>
      <use xlink:href="#DejaVuSans-6f" x="922.892578"/>
      <use xlink:href="#DejaVuSans-6c" x="984.074219"/>
      <use xlink:href="#DejaVuSans-75" x="1011.857422"/>
      <use xlink:href="#DejaVuSans-74" x="1075.236328"/>
      <use xlink:href="#DejaVuSans-69" x="1114.445312"/>
      <use xlink:href="#DejaVuSans-6f" x="1142.228516"/>
      <use xlink:href="#DejaVuSans-6e" x="1203.410156"/>
      <use xlink:href="#DejaVuSans-20" x="1266.789062"/>
      <use xlink:href="#DejaVuSans-5b" x="1298.576172"/>
      <use xlink:href="#DejaVuSans-25" x="1337.589844"/>
      <use xlink:href="#DejaVuSans-5d" x="1432.609375"/>
     </g>
    </g>
   </g>
   <g id="matplotlib.axis_4">
    <g id="ytick_5">
     <g id="line2d_19">
      <g>
       <use xlink:href="#mb6a6106c6f" x="309.985" y="126.04" style="stroke: #000000; stroke-width: 0.8"/>
      </g>
     </g>
     <g id="text_20">
      <!-- 0 -->
      <g transform="translate(296.6225 129.839219) scale(0.1 -0.1)">
       <use xlink:href="#DejaVuSans-30"/>
      </g>
     </g>
    </g>
    <g id="ytick_6">
     <g id="line2d_20">
      <g>
       <use xlink:href="#mb6a6106c6f" x="309.985" y="94.103492" style="stroke: #000000; stroke-width: 0.8"/>
      </g>
     </g>
     <g id="text_21">
      <!-- 10 -->
      <g transform="translate(290.26 97.902711) scale(0.1 -0.1)">
       <use xlink:href="#DejaVuSans-31"/>
       <use xlink:href="#DejaVuSans-30" x="63.623047"/>
      </g>
     </g>
    </g>
    <g id="ytick_7">
     <g id="line2d_21">
      <g>
       <use xlink:href="#mb6a6106c6f" x="309.985" y="62.166984" style="stroke: #000000; stroke-width: 0.8"/>
      </g>
     </g>
     <g id="text_22">
      <!-- 20 -->
      <g transform="translate(290.26 65.966203) scale(0.1 -0.1)">
       <use xlink:href="#DejaVuSans-32"/>
       <use xlink:href="#DejaVuSans-30" x="63.623047"/>
      </g>
     </g>
    </g>
    <g id="ytick_8">
     <g id="line2d_22">
      <g>
       <use xlink:href="#mb6a6106c6f" x="309.985" y="30.230476" style="stroke: #000000; stroke-width: 0.8"/>
      </g>
     </g>
     <g id="text_23">
      <!-- 30 -->
      <g transform="translate(290.26 34.029695) scale(0.1 -0.1)">
       <use xlink:href="#DejaVuSans-33"/>
       <use xlink:href="#DejaVuSans-30" x="63.623047"/>
      </g>
     </g>
    </g>
   </g>
   <g id="line2d_23">
    <path clip-path="url(#p9db95f9015)" style="fill: none; stroke: #ff0000; stroke-width: 2; stroke-linecap: square"/>
   </g>
   <g id="patch_69">
    <path d="M 309.985 126.04 
L 309.985 25.44 
" style="fill: none; stroke: #000000; stroke-width: 0.8; stroke-linejoin: miter; stroke-linecap: square"/>
   </g>
   <g id="patch_70">
    <path d="M 565.2 126.04 
L 565.2 25.44 
" style="fill: none; stroke: #000000; stroke-width: 0.8; stroke-linejoin: miter; stroke-linecap: square"/>
   </g>
   <g id="patch_71">
    <path d="M 309.985 126.04 
L 565.2 126.04 
" style="fill: none; stroke: #000000; stroke-width: 0.8; stroke-linejoin: miter; stroke-linecap: square"/>
   </g>
   <g id="patch_72">
    <path d="M 309.985 25.44 
L 565.2 25.44 
" style="fill: none; stroke: #000000; stroke-width: 0.8; stroke-linejoin: miter; stroke-linecap: square"/>
   </g>
   <g id="text_24">
    <!-- N = 200 -->
    <g transform="translate(412.809687 19.44) scale(0.12 -0.12)">
     <defs>
      <path id="DejaVuSans-4e" d="M 628 4666 
L 1478 4666 
L 3547 763 
L 3547 4666 
L 4159 4666 
L 4159 0 
L 3309 0 
L 1241 3903 
L 1241 0 
L 628 0 
L 628 4666 
z
" transform="scale(0.015625)"/>
     </defs>
     <use xlink:href="#DejaVuSans-4e"/>
     <use xlink:href="#DejaVuSans-20" x="74.804688"/>
     <use xlink:href="#DejaVuSans-3d" x="106.591797"/>
     <use xlink:href="#DejaVuSans-20" x="190.380859"/>
     <use xlink:href="#DejaVuSans-32" x="222.167969"/>
     <use xlink:href="#DejaVuSans-30" x="285.791016"/>
     <use xlink:href="#DejaVuSans-30" x="349.414062"/>
    </g>
   </g>
   <g id="legend_2">
    <g id="patch_73">
     <path d="M 461.3 48.138438 
L 558.2 48.138438 
Q 560.2 48.138438 560.2 46.138438 
L 560.2 32.44 
Q 560.2 30.44 558.2 30.44 
L 461.3 30.44 
Q 459.3 30.44 459.3 32.44 
L 459.3 46.138438 
Q 459.3 48.138438 461.3 48.138438 
z
" style="fill: #ffffff; opacity: 0.8; stroke: #cccccc; stroke-linejoin: miter"/>
    </g>
    <g id="line2d_24">
     <path d="M 463.3 38.538438 
L 473.3 38.538438 
L 483.3 38.538438 
" style="fill: none; stroke: #ff0000; stroke-width: 2; stroke-linecap: square"/>
    </g>
    <g id="text_25">
     <!-- $\mu = 0; \sigma = 0.0$ -->
     <g transform="translate(491.3 42.038438) scale(0.1 -0.1)">
      <use xlink:href="#DejaVuSans-Oblique-3bc" transform="translate(0 0.78125)"/>
      <use xlink:href="#DejaVuSans-3d" transform="translate(83.105469 0.78125)"/>
      <use xlink:href="#DejaVuSans-30" transform="translate(186.376953 0.78125)"/>
      <use xlink:href="#DejaVuSans-3b" transform="translate(250 0.78125)"/>
      <use xlink:href="#DejaVuSans-Oblique-3c3" transform="translate(303.173828 0.78125)"/>
      <use xlink:href="#DejaVuSans-3d" transform="translate(386.035156 0.78125)"/>
      <use xlink:href="#DejaVuSans-30" transform="translate(489.306641 0.78125)"/>
      <use xlink:href="#DejaVuSans-2e" transform="translate(552.929688 0.78125)"/>
      <use xlink:href="#DejaVuSans-30" transform="translate(584.716797 0.78125)"/>
     </g>
    </g>
   </g>
  </g>
 </g>
 <defs>
  <clipPath id="p3ca880a87c">
   <rect x="24.19" y="25.44" width="255.215" height="100.6"/>
  </clipPath>
  <clipPath id="p9db95f9015">
   <rect x="309.985" y="25.44" width="255.215" height="100.6"/>
  </clipPath>
 </defs>
</svg>
