<?xml version="1.0" encoding="utf-8" standalone="no"?>
<!DOCTYPE svg PUBLIC "-//W3C//DTD SVG 1.1//EN"
  "http://www.w3.org/Graphics/SVG/1.1/DTD/svg11.dtd">
<svg xmlns:xlink="http://www.w3.org/1999/xlink" width="360pt" height="360pt" viewBox="0 0 360 360" xmlns="http://www.w3.org/2000/svg" version="1.1">
 <metadata>
  <rdf:RDF xmlns:dc="http://purl.org/dc/elements/1.1/" xmlns:cc="http://creativecommons.org/ns#" xmlns:rdf="http://www.w3.org/1999/02/22-rdf-syntax-ns#">
   <cc:Work>
    <dc:type rdf:resource="http://purl.org/dc/dcmitype/StillImage"/>
    <dc:date>2023-03-20T13:48:27.748693</dc:date>
    <dc:format>image/svg+xml</dc:format>
    <dc:creator>
     <cc:Agent>
      <dc:title>Matplotlib v3.6.3, https://matplotlib.org/</dc:title>
     </cc:Agent>
    </dc:creator>
   </cc:Work>
  </rdf:RDF>
 </metadata>
 <defs>
  <style type="text/css">*{stroke-linejoin: round; stroke-linecap: butt}</style>
 </defs>
 <g id="figure_1">
  <g id="patch_1">
   <path d="M 0 360 
L 360 360 
L 360 0 
L 0 0 
z
" style="fill: #ffffff"/>
  </g>
  <g id="axes_1">
   <g id="patch_2">
    <path d="M 77.371281 188.244174 
L 349.2 188.244174 
L 349.2 25.44 
L 77.371281 25.44 
z
" style="fill: #ffffff"/>
   </g>
   <g id="PolyCollection_1">
    <path d="M 90.950518 32.84019 
L 90.950518 54.345501 
L 93.39729 55.234707 
L 95.844063 56.127042 
L 98.290835 57.022632 
L 100.737607 57.921616 
L 103.18438 58.824144 
L 105.631152 59.730385 
L 108.077924 60.640522 
L 110.524697 61.554757 
L 112.971469 62.473311 
L 115.418241 63.39643 
L 117.865014 64.324379 
L 120.311786 65.257453 
L 122.758558 66.195973 
L 125.205331 67.140292 
L 127.652103 68.090793 
L 130.098875 69.047897 
L 132.545648 70.012057 
L 134.99242 70.983768 
L 137.439192 71.963561 
L 139.885965 72.952005 
L 142.332737 73.949705 
L 144.77951 74.957304 
L 147.226282 75.975469 
L 149.673054 77.004893 
L 152.119827 78.046281 
L 154.566599 79.100339 
L 157.013371 80.167761 
L 159.460144 81.249208 
L 161.906916 82.345296 
L 164.353688 83.45657 
L 166.800461 84.583489 
L 169.247233 85.726407 
L 171.694005 86.885558 
L 174.140778 88.061046 
L 176.58755 89.252843 
L 179.034322 90.460788 
L 181.481095 91.684593 
L 183.927867 92.923857 
L 186.374639 94.178083 
L 188.821412 95.446692 
L 191.268184 96.729047 
L 193.714956 98.02447 
L 196.161729 99.33226 
L 198.608501 100.65171 
L 201.055273 101.982119 
L 203.502046 103.322803 
L 205.948818 104.673106 
L 208.39559 106.032401 
L 210.842363 107.400097 
L 213.289135 108.775641 
L 215.735907 110.158519 
L 218.18268 111.548254 
L 220.629452 112.944406 
L 223.076224 114.346571 
L 225.522997 115.754379 
L 227.969769 117.167491 
L 230.416541 118.585598 
L 232.863314 120.008418 
L 235.310086 121.435694 
L 237.756859 122.867191 
L 240.203631 124.302697 
L 242.650403 125.742017 
L 245.097176 127.184976 
L 247.543948 128.631413 
L 249.99072 130.081181 
L 252.437493 131.534149 
L 254.884265 132.990194 
L 257.331037 134.449208 
L 259.77781 135.911089 
L 262.224582 137.375748 
L 264.671354 138.8431 
L 267.118127 140.313071 
L 269.564899 141.785592 
L 272.011671 143.2606 
L 274.458444 144.738039 
L 276.905216 146.217858 
L 279.351988 147.700009 
L 281.798761 149.18445 
L 284.245533 150.671144 
L 286.692305 152.160054 
L 289.139078 153.651151 
L 291.58585 155.144405 
L 294.032622 156.639792 
L 296.479395 158.13729 
L 298.926167 159.636877 
L 301.372939 161.138537 
L 303.819712 162.642254 
L 306.266484 164.148014 
L 308.713256 165.655806 
L 311.160029 167.165619 
L 313.606801 168.677445 
L 316.053573 170.191277 
L 318.500346 171.707111 
L 320.947118 173.224941 
L 323.39389 174.744765 
L 325.840663 176.266581 
L 328.287435 177.790389 
L 330.734208 179.31619 
L 333.18098 180.843984 
L 333.18098 141.712509 
L 333.18098 141.712509 
L 330.734208 140.758751 
L 328.287435 139.805342 
L 325.840663 138.852271 
L 323.39389 137.899528 
L 320.947118 136.947101 
L 318.500346 135.994978 
L 316.053573 135.043145 
L 313.606801 134.091588 
L 311.160029 133.140291 
L 308.713256 132.189238 
L 306.266484 131.23841 
L 303.819712 130.287789 
L 301.372939 129.337352 
L 298.926167 128.387078 
L 296.479395 127.436941 
L 294.032622 126.486916 
L 291.58585 125.536975 
L 289.139078 124.587086 
L 286.692305 123.637216 
L 284.245533 122.687329 
L 281.798761 121.737387 
L 279.351988 120.787347 
L 276.905216 119.837164 
L 274.458444 118.886788 
L 272.011671 117.936166 
L 269.564899 116.98524 
L 267.118127 116.033946 
L 264.671354 115.082216 
L 262.224582 114.129975 
L 259.77781 113.177142 
L 257.331037 112.223627 
L 254.884265 111.269335 
L 252.437493 110.31416 
L 249.99072 109.357987 
L 247.543948 108.400689 
L 245.097176 107.442128 
L 242.650403 106.482155 
L 240.203631 105.520604 
L 237.756859 104.557295 
L 235.310086 103.592028 
L 232.863314 102.624588 
L 230.416541 101.654735 
L 227.969769 100.68221 
L 225.522997 99.706726 
L 223.076224 98.727972 
L 220.629452 97.745604 
L 218.18268 96.75925 
L 215.735907 95.768502 
L 213.289135 94.772919 
L 210.842363 93.77202 
L 208.39559 92.765289 
L 205.948818 91.752171 
L 203.502046 90.732071 
L 201.055273 89.704363 
L 198.608501 88.668387 
L 196.161729 87.623458 
L 193.714956 86.568873 
L 191.268184 85.503925 
L 188.821412 84.42791 
L 186.374639 83.340149 
L 183.927867 82.240005 
L 181.481095 81.126899 
L 179.034322 80.000332 
L 176.58755 78.859901 
L 174.140778 77.705321 
L 171.694005 76.53643 
L 169.247233 75.353198 
L 166.800461 74.15573 
L 164.353688 72.944262 
L 161.906916 71.719146 
L 159.460144 70.480843 
L 157.013371 69.229899 
L 154.566599 67.966929 
L 152.119827 66.692598 
L 149.673054 65.407598 
L 147.226282 64.112638 
L 144.77951 62.808425 
L 142.332737 61.495652 
L 139.885965 60.174989 
L 137.439192 58.847081 
L 134.99242 57.512534 
L 132.545648 56.17192 
L 130.098875 54.825773 
L 127.652103 53.474589 
L 125.205331 52.118826 
L 122.758558 50.758906 
L 120.311786 49.395215 
L 117.865014 48.02811 
L 115.418241 46.657916 
L 112.971469 45.284929 
L 110.524697 43.909421 
L 108.077924 42.531639 
L 105.631152 41.151809 
L 103.18438 39.770137 
L 100.737607 38.386812 
L 98.290835 37.002004 
L 95.844063 35.615871 
L 93.39729 34.228556 
L 90.950518 32.84019 
z
" clip-path="url(#p486f2b813c)" style="fill: #6495ed; fill-opacity: 0.6"/>
   </g>
   <g id="PolyCollection_2">
    <path d="M 90.950518 33.596286 
L 90.950518 53.379692 
L 93.39729 54.318145 
L 95.844063 55.259194 
L 98.290835 56.202943 
L 100.737607 57.149506 
L 103.18438 58.099009 
L 105.631152 59.051584 
L 108.077924 60.007378 
L 110.524697 60.966549 
L 112.971469 61.929268 
L 115.418241 62.895722 
L 117.865014 63.866111 
L 120.311786 64.840652 
L 122.758558 65.819582 
L 125.205331 66.803152 
L 127.652103 67.791636 
L 130.098875 68.785328 
L 132.545648 69.784541 
L 134.99242 70.78961 
L 137.439192 71.800892 
L 139.885965 72.818764 
L 142.332737 73.843624 
L 144.77951 74.875887 
L 147.226282 75.915983 
L 149.673054 76.964358 
L 152.119827 78.02146 
L 154.566599 79.087746 
L 157.013371 80.163663 
L 159.460144 81.24965 
L 161.906916 82.346123 
L 164.353688 83.453471 
L 166.800461 84.572042 
L 169.247233 85.702136 
L 171.694005 86.843998 
L 174.140778 87.997807 
L 176.58755 89.163673 
L 179.034322 90.341632 
L 181.481095 91.531646 
L 183.927867 92.733605 
L 186.374639 93.947326 
L 188.821412 95.172565 
L 191.268184 96.409021 
L 193.714956 97.656343 
L 196.161729 98.914144 
L 198.608501 100.182006 
L 201.055273 101.45949 
L 203.502046 102.746147 
L 205.948818 104.041524 
L 208.39559 105.345168 
L 210.842363 106.656638 
L 213.289135 107.975502 
L 215.735907 109.301345 
L 218.18268 110.63377 
L 220.629452 111.9724 
L 223.076224 113.31688 
L 225.522997 114.666873 
L 227.969769 116.022068 
L 230.416541 117.382171 
L 232.863314 118.746909 
L 235.310086 120.11603 
L 237.756859 121.489299 
L 240.203631 122.866499 
L 242.650403 124.247429 
L 245.097176 125.631903 
L 247.543948 127.019751 
L 249.99072 128.410814 
L 252.437493 129.804947 
L 254.884265 131.202016 
L 257.331037 132.601897 
L 259.77781 134.004476 
L 262.224582 135.409648 
L 264.671354 136.817316 
L 267.118127 138.227392 
L 269.564899 139.639792 
L 272.011671 141.054441 
L 274.458444 142.471269 
L 276.905216 143.890212 
L 279.351988 145.31121 
L 281.798761 146.734209 
L 284.245533 148.159157 
L 286.692305 149.586009 
L 289.139078 151.014722 
L 291.58585 152.445256 
L 294.032622 153.877575 
L 296.479395 155.311645 
L 298.926167 156.747435 
L 301.372939 158.184918 
L 303.819712 159.624066 
L 306.266484 161.064857 
L 308.713256 162.507267 
L 311.160029 163.951279 
L 313.606801 165.396872 
L 316.053573 166.84403 
L 318.500346 168.292738 
L 320.947118 169.742983 
L 323.39389 171.194751 
L 325.840663 172.648032 
L 328.287435 174.102816 
L 330.734208 175.559094 
L 333.18098 177.016857 
L 333.18098 144.125328 
L 333.18098 144.125328 
L 330.734208 143.143133 
L 328.287435 142.161084 
L 325.840663 141.179168 
L 323.39389 140.197369 
L 320.947118 139.215672 
L 318.500346 138.23406 
L 316.053573 137.252517 
L 313.606801 136.271023 
L 311.160029 135.289557 
L 308.713256 134.308098 
L 306.266484 133.326624 
L 303.819712 132.345109 
L 301.372939 131.363526 
L 298.926167 130.381848 
L 296.479395 129.400044 
L 294.032622 128.418082 
L 291.58585 127.435925 
L 289.139078 126.453537 
L 286.692305 125.470878 
L 284.245533 124.487903 
L 281.798761 123.504567 
L 279.351988 122.520818 
L 276.905216 121.536604 
L 274.458444 120.551865 
L 272.011671 119.566538 
L 269.564899 118.580557 
L 267.118127 117.593847 
L 264.671354 116.60633 
L 262.224582 115.617921 
L 259.77781 114.628527 
L 257.331037 113.638049 
L 254.884265 112.646379 
L 252.437493 111.653399 
L 249.99072 110.658985 
L 247.543948 109.662999 
L 245.097176 108.665293 
L 242.650403 107.665706 
L 240.203631 106.664066 
L 237.756859 105.660185 
L 235.310086 104.65386 
L 232.863314 103.644872 
L 230.416541 102.632983 
L 227.969769 101.61794 
L 225.522997 100.599468 
L 223.076224 99.577273 
L 220.629452 98.551039 
L 218.18268 97.520431 
L 215.735907 96.48509 
L 213.289135 95.444639 
L 210.842363 94.398679 
L 208.39559 93.346794 
L 205.948818 92.288552 
L 203.502046 91.22351 
L 201.055273 90.151214 
L 198.608501 89.07121 
L 196.161729 87.983048 
L 193.714956 86.886289 
L 191.268184 85.780516 
L 188.821412 84.665338 
L 186.374639 83.540406 
L 183.927867 82.405418 
L 181.481095 81.260129 
L 179.034322 80.104357 
L 176.58755 78.937991 
L 174.140778 77.760993 
L 171.694005 76.5734 
L 169.247233 75.375321 
L 166.800461 74.166936 
L 164.353688 72.94849 
L 161.906916 71.720282 
L 159.460144 70.482664 
L 157.013371 69.236021 
L 154.566599 67.980774 
L 152.119827 66.717358 
L 149.673054 65.446226 
L 147.226282 64.167831 
L 144.77951 62.882626 
L 142.332737 61.591054 
L 139.885965 60.293549 
L 137.439192 58.990528 
L 134.99242 57.682387 
L 132.545648 56.369507 
L 130.098875 55.052244 
L 127.652103 53.730937 
L 125.205331 52.405899 
L 122.758558 51.077427 
L 120.311786 49.745795 
L 117.865014 48.411258 
L 115.418241 47.074052 
L 112.971469 45.734398 
L 110.524697 44.392499 
L 108.077924 43.048543 
L 105.631152 41.702703 
L 103.18438 40.355139 
L 100.737607 39.006001 
L 98.290835 37.655425 
L 95.844063 36.303537 
L 93.39729 34.950455 
L 90.950518 33.596286 
z
" clip-path="url(#p486f2b813c)" style="fill: #db7093; fill-opacity: 0.6"/>
   </g>
   <g id="matplotlib.axis_1">
    <g id="xtick_1">
     <g id="line2d_1">
      <defs>
       <path id="mc8a2e32b9c" d="M 0 0 
L 0 3.5 
" style="stroke: #000000; stroke-width: 0.8"/>
      </defs>
      <g>
       <use xlink:href="#mc8a2e32b9c" x="125.709078" y="188.244174" style="stroke: #000000; stroke-width: 0.8"/>
      </g>
     </g>
    </g>
    <g id="xtick_2">
     <g id="line2d_2">
      <g>
       <use xlink:href="#mc8a2e32b9c" x="240.851306" y="188.244174" style="stroke: #000000; stroke-width: 0.8"/>
      </g>
     </g>
    </g>
    <g id="xtick_3">
     <g id="line2d_3">
      <defs>
       <path id="md034bf7a21" d="M 0 0 
L 0 2 
" style="stroke: #000000; stroke-width: 0.6"/>
      </defs>
      <g>
       <use xlink:href="#md034bf7a21" x="79.889379" y="188.244174" style="stroke: #000000; stroke-width: 0.6"/>
      </g>
     </g>
    </g>
    <g id="xtick_4">
     <g id="line2d_4">
      <g>
       <use xlink:href="#md034bf7a21" x="91.047814" y="188.244174" style="stroke: #000000; stroke-width: 0.6"/>
      </g>
     </g>
    </g>
    <g id="xtick_5">
     <g id="line2d_5">
      <g>
       <use xlink:href="#md034bf7a21" x="100.164919" y="188.244174" style="stroke: #000000; stroke-width: 0.6"/>
      </g>
     </g>
    </g>
    <g id="xtick_6">
     <g id="line2d_6">
      <g>
       <use xlink:href="#md034bf7a21" x="107.873321" y="188.244174" style="stroke: #000000; stroke-width: 0.6"/>
      </g>
     </g>
    </g>
    <g id="xtick_7">
     <g id="line2d_7">
      <g>
       <use xlink:href="#md034bf7a21" x="114.550643" y="188.244174" style="stroke: #000000; stroke-width: 0.6"/>
      </g>
     </g>
    </g>
    <g id="xtick_8">
     <g id="line2d_8">
      <g>
       <use xlink:href="#md034bf7a21" x="120.440459" y="188.244174" style="stroke: #000000; stroke-width: 0.6"/>
      </g>
     </g>
    </g>
    <g id="xtick_9">
     <g id="line2d_9">
      <g>
       <use xlink:href="#md034bf7a21" x="160.370342" y="188.244174" style="stroke: #000000; stroke-width: 0.6"/>
      </g>
     </g>
    </g>
    <g id="xtick_10">
     <g id="line2d_10">
      <g>
       <use xlink:href="#md034bf7a21" x="180.645882" y="188.244174" style="stroke: #000000; stroke-width: 0.6"/>
      </g>
     </g>
    </g>
    <g id="xtick_11">
     <g id="line2d_11">
      <g>
       <use xlink:href="#md034bf7a21" x="195.031607" y="188.244174" style="stroke: #000000; stroke-width: 0.6"/>
      </g>
     </g>
    </g>
    <g id="xtick_12">
     <g id="line2d_12">
      <g>
       <use xlink:href="#md034bf7a21" x="206.190042" y="188.244174" style="stroke: #000000; stroke-width: 0.6"/>
      </g>
     </g>
    </g>
    <g id="xtick_13">
     <g id="line2d_13">
      <g>
       <use xlink:href="#md034bf7a21" x="215.307147" y="188.244174" style="stroke: #000000; stroke-width: 0.6"/>
      </g>
     </g>
    </g>
    <g id="xtick_14">
     <g id="line2d_14">
      <g>
       <use xlink:href="#md034bf7a21" x="223.015549" y="188.244174" style="stroke: #000000; stroke-width: 0.6"/>
      </g>
     </g>
    </g>
    <g id="xtick_15">
     <g id="line2d_15">
      <g>
       <use xlink:href="#md034bf7a21" x="229.692871" y="188.244174" style="stroke: #000000; stroke-width: 0.6"/>
      </g>
     </g>
    </g>
    <g id="xtick_16">
     <g id="line2d_16">
      <g>
       <use xlink:href="#md034bf7a21" x="235.582686" y="188.244174" style="stroke: #000000; stroke-width: 0.6"/>
      </g>
     </g>
    </g>
    <g id="xtick_17">
     <g id="line2d_17">
      <g>
       <use xlink:href="#md034bf7a21" x="275.51257" y="188.244174" style="stroke: #000000; stroke-width: 0.6"/>
      </g>
     </g>
    </g>
    <g id="xtick_18">
     <g id="line2d_18">
      <g>
       <use xlink:href="#md034bf7a21" x="295.78811" y="188.244174" style="stroke: #000000; stroke-width: 0.6"/>
      </g>
     </g>
    </g>
    <g id="xtick_19">
     <g id="line2d_19">
      <g>
       <use xlink:href="#md034bf7a21" x="310.173835" y="188.244174" style="stroke: #000000; stroke-width: 0.6"/>
      </g>
     </g>
    </g>
    <g id="xtick_20">
     <g id="line2d_20">
      <g>
       <use xlink:href="#md034bf7a21" x="321.332269" y="188.244174" style="stroke: #000000; stroke-width: 0.6"/>
      </g>
     </g>
    </g>
    <g id="xtick_21">
     <g id="line2d_21">
      <g>
       <use xlink:href="#md034bf7a21" x="330.449374" y="188.244174" style="stroke: #000000; stroke-width: 0.6"/>
      </g>
     </g>
    </g>
    <g id="xtick_22">
     <g id="line2d_22">
      <g>
       <use xlink:href="#md034bf7a21" x="338.157777" y="188.244174" style="stroke: #000000; stroke-width: 0.6"/>
      </g>
     </g>
    </g>
    <g id="xtick_23">
     <g id="line2d_23">
      <g>
       <use xlink:href="#md034bf7a21" x="344.835099" y="188.244174" style="stroke: #000000; stroke-width: 0.6"/>
      </g>
     </g>
    </g>
   </g>
   <g id="matplotlib.axis_2">
    <g id="ytick_1">
     <g id="line2d_24">
      <defs>
       <path id="mba9d36347e" d="M 0 0 
L -3.5 0 
" style="stroke: #000000; stroke-width: 0.8"/>
      </defs>
      <g>
       <use xlink:href="#mba9d36347e" x="77.371281" y="59.701191" style="stroke: #000000; stroke-width: 0.8"/>
      </g>
     </g>
     <g id="text_1">
      <!-- $\mathdefault{10^{-12}}$ -->
      <g transform="translate(42.471281 63.50041) scale(0.1 -0.1)">
       <defs>
        <path id="DejaVuSans-31" d="M 794 531 
L 1825 531 
L 1825 4091 
L 703 3866 
L 703 4441 
L 1819 4666 
L 2450 4666 
L 2450 531 
L 3481 531 
L 3481 0 
L 794 0 
L 794 531 
z
" transform="scale(0.015625)"/>
        <path id="DejaVuSans-30" d="M 2034 4250 
Q 1547 4250 1301 3770 
Q 1056 3291 1056 2328 
Q 1056 1369 1301 889 
Q 1547 409 2034 409 
Q 2525 409 2770 889 
Q 3016 1369 3016 2328 
Q 3016 3291 2770 3770 
Q 2525 4250 2034 4250 
z
M 2034 4750 
Q 2819 4750 3233 4129 
Q 3647 3509 3647 2328 
Q 3647 1150 3233 529 
Q 2819 -91 2034 -91 
Q 1250 -91 836 529 
Q 422 1150 422 2328 
Q 422 3509 836 4129 
Q 1250 4750 2034 4750 
z
" transform="scale(0.015625)"/>
        <path id="DejaVuSans-2212" d="M 678 2272 
L 4684 2272 
L 4684 1741 
L 678 1741 
L 678 2272 
z
" transform="scale(0.015625)"/>
        <path id="DejaVuSans-32" d="M 1228 531 
L 3431 531 
L 3431 0 
L 469 0 
L 469 531 
Q 828 903 1448 1529 
Q 2069 2156 2228 2338 
Q 2531 2678 2651 2914 
Q 2772 3150 2772 3378 
Q 2772 3750 2511 3984 
Q 2250 4219 1831 4219 
Q 1534 4219 1204 4116 
Q 875 4013 500 3803 
L 500 4441 
Q 881 4594 1212 4672 
Q 1544 4750 1819 4750 
Q 2544 4750 2975 4387 
Q 3406 4025 3406 3419 
Q 3406 3131 3298 2873 
Q 3191 2616 2906 2266 
Q 2828 2175 2409 1742 
Q 1991 1309 1228 531 
z
" transform="scale(0.015625)"/>
       </defs>
       <use xlink:href="#DejaVuSans-31" transform="translate(0 0.765625)"/>
       <use xlink:href="#DejaVuSans-30" transform="translate(63.623047 0.765625)"/>
       <use xlink:href="#DejaVuSans-2212" transform="translate(128.203125 39.046875) scale(0.7)"/>
       <use xlink:href="#DejaVuSans-31" transform="translate(186.855469 39.046875) scale(0.7)"/>
       <use xlink:href="#DejaVuSans-32" transform="translate(231.391602 39.046875) scale(0.7)"/>
      </g>
     </g>
    </g>
    <g id="ytick_2">
     <g id="line2d_25">
      <defs>
       <path id="mc609a52b96" d="M 0 0 
L -2 0 
" style="stroke: #000000; stroke-width: 0.6"/>
      </defs>
      <g>
       <use xlink:href="#mc609a52b96" x="77.371281" y="187.567664" style="stroke: #000000; stroke-width: 0.6"/>
      </g>
     </g>
     <g id="text_2">
      <!-- $\mathdefault{2\times10^{-13}}$ -->
      <g transform="translate(25.371281 191.366883) scale(0.1 -0.1)">
       <defs>
        <path id="DejaVuSans-d7" d="M 4488 3438 
L 3059 2003 
L 4488 575 
L 4116 197 
L 2681 1631 
L 1247 197 
L 878 575 
L 2303 2003 
L 878 3438 
L 1247 3816 
L 2681 2381 
L 4116 3816 
L 4488 3438 
z
" transform="scale(0.015625)"/>
        <path id="DejaVuSans-33" d="M 2597 2516 
Q 3050 2419 3304 2112 
Q 3559 1806 3559 1356 
Q 3559 666 3084 287 
Q 2609 -91 1734 -91 
Q 1441 -91 1130 -33 
Q 819 25 488 141 
L 488 750 
Q 750 597 1062 519 
Q 1375 441 1716 441 
Q 2309 441 2620 675 
Q 2931 909 2931 1356 
Q 2931 1769 2642 2001 
Q 2353 2234 1838 2234 
L 1294 2234 
L 1294 2753 
L 1863 2753 
Q 2328 2753 2575 2939 
Q 2822 3125 2822 3475 
Q 2822 3834 2567 4026 
Q 2313 4219 1838 4219 
Q 1578 4219 1281 4162 
Q 984 4106 628 3988 
L 628 4550 
Q 988 4650 1302 4700 
Q 1616 4750 1894 4750 
Q 2613 4750 3031 4423 
Q 3450 4097 3450 3541 
Q 3450 3153 3228 2886 
Q 3006 2619 2597 2516 
z
" transform="scale(0.015625)"/>
       </defs>
       <use xlink:href="#DejaVuSans-32" transform="translate(0 0.765625)"/>
       <use xlink:href="#DejaVuSans-d7" transform="translate(83.105469 0.765625)"/>
       <use xlink:href="#DejaVuSans-31" transform="translate(186.376953 0.765625)"/>
       <use xlink:href="#DejaVuSans-30" transform="translate(250 0.765625)"/>
       <use xlink:href="#DejaVuSans-2212" transform="translate(314.580078 39.046875) scale(0.7)"/>
       <use xlink:href="#DejaVuSans-31" transform="translate(373.232422 39.046875) scale(0.7)"/>
       <use xlink:href="#DejaVuSans-33" transform="translate(417.768555 39.046875) scale(0.7)"/>
      </g>
     </g>
    </g>
    <g id="ytick_3">
     <g id="line2d_26">
      <g>
       <use xlink:href="#mc609a52b96" x="77.371281" y="155.35431" style="stroke: #000000; stroke-width: 0.6"/>
      </g>
     </g>
     <g id="text_3">
      <!-- $\mathdefault{3\times10^{-13}}$ -->
      <g transform="translate(25.371281 159.153529) scale(0.1 -0.1)">
       <use xlink:href="#DejaVuSans-33" transform="translate(0 0.765625)"/>
       <use xlink:href="#DejaVuSans-d7" transform="translate(83.105469 0.765625)"/>
       <use xlink:href="#DejaVuSans-31" transform="translate(186.376953 0.765625)"/>
       <use xlink:href="#DejaVuSans-30" transform="translate(250 0.765625)"/>
       <use xlink:href="#DejaVuSans-2212" transform="translate(314.580078 39.046875) scale(0.7)"/>
       <use xlink:href="#DejaVuSans-31" transform="translate(373.232422 39.046875) scale(0.7)"/>
       <use xlink:href="#DejaVuSans-33" transform="translate(417.768555 39.046875) scale(0.7)"/>
      </g>
     </g>
    </g>
    <g id="ytick_4">
     <g id="line2d_27">
      <g>
       <use xlink:href="#mc609a52b96" x="77.371281" y="132.498572" style="stroke: #000000; stroke-width: 0.6"/>
      </g>
     </g>
     <g id="text_4">
      <!-- $\mathdefault{4\times10^{-13}}$ -->
      <g transform="translate(25.371281 136.297791) scale(0.1 -0.1)">
       <defs>
        <path id="DejaVuSans-34" d="M 2419 4116 
L 825 1625 
L 2419 1625 
L 2419 4116 
z
M 2253 4666 
L 3047 4666 
L 3047 1625 
L 3713 1625 
L 3713 1100 
L 3047 1100 
L 3047 0 
L 2419 0 
L 2419 1100 
L 313 1100 
L 313 1709 
L 2253 4666 
z
" transform="scale(0.015625)"/>
       </defs>
       <use xlink:href="#DejaVuSans-34" transform="translate(0 0.765625)"/>
       <use xlink:href="#DejaVuSans-d7" transform="translate(83.105469 0.765625)"/>
       <use xlink:href="#DejaVuSans-31" transform="translate(186.376953 0.765625)"/>
       <use xlink:href="#DejaVuSans-30" transform="translate(250 0.765625)"/>
       <use xlink:href="#DejaVuSans-2212" transform="translate(314.580078 39.046875) scale(0.7)"/>
       <use xlink:href="#DejaVuSans-31" transform="translate(373.232422 39.046875) scale(0.7)"/>
       <use xlink:href="#DejaVuSans-33" transform="translate(417.768555 39.046875) scale(0.7)"/>
      </g>
     </g>
    </g>
    <g id="ytick_5">
     <g id="line2d_28">
      <g>
       <use xlink:href="#mc609a52b96" x="77.371281" y="114.770284" style="stroke: #000000; stroke-width: 0.6"/>
      </g>
     </g>
    </g>
    <g id="ytick_6">
     <g id="line2d_29">
      <g>
       <use xlink:href="#mc609a52b96" x="77.371281" y="100.285218" style="stroke: #000000; stroke-width: 0.6"/>
      </g>
     </g>
     <g id="text_5">
      <!-- $\mathdefault{6\times10^{-13}}$ -->
      <g transform="translate(25.371281 104.084436) scale(0.1 -0.1)">
       <defs>
        <path id="DejaVuSans-36" d="M 2113 2584 
Q 1688 2584 1439 2293 
Q 1191 2003 1191 1497 
Q 1191 994 1439 701 
Q 1688 409 2113 409 
Q 2538 409 2786 701 
Q 3034 994 3034 1497 
Q 3034 2003 2786 2293 
Q 2538 2584 2113 2584 
z
M 3366 4563 
L 3366 3988 
Q 3128 4100 2886 4159 
Q 2644 4219 2406 4219 
Q 1781 4219 1451 3797 
Q 1122 3375 1075 2522 
Q 1259 2794 1537 2939 
Q 1816 3084 2150 3084 
Q 2853 3084 3261 2657 
Q 3669 2231 3669 1497 
Q 3669 778 3244 343 
Q 2819 -91 2113 -91 
Q 1303 -91 875 529 
Q 447 1150 447 2328 
Q 447 3434 972 4092 
Q 1497 4750 2381 4750 
Q 2619 4750 2861 4703 
Q 3103 4656 3366 4563 
z
" transform="scale(0.015625)"/>
       </defs>
       <use xlink:href="#DejaVuSans-36" transform="translate(0 0.765625)"/>
       <use xlink:href="#DejaVuSans-d7" transform="translate(83.105469 0.765625)"/>
       <use xlink:href="#DejaVuSans-31" transform="translate(186.376953 0.765625)"/>
       <use xlink:href="#DejaVuSans-30" transform="translate(250 0.765625)"/>
       <use xlink:href="#DejaVuSans-2212" transform="translate(314.580078 39.046875) scale(0.7)"/>
       <use xlink:href="#DejaVuSans-31" transform="translate(373.232422 39.046875) scale(0.7)"/>
       <use xlink:href="#DejaVuSans-33" transform="translate(417.768555 39.046875) scale(0.7)"/>
      </g>
     </g>
    </g>
    <g id="ytick_7">
     <g id="line2d_30">
      <g>
       <use xlink:href="#mc609a52b96" x="77.371281" y="88.038269" style="stroke: #000000; stroke-width: 0.6"/>
      </g>
     </g>
    </g>
    <g id="ytick_8">
     <g id="line2d_31">
      <g>
       <use xlink:href="#mc609a52b96" x="77.371281" y="77.429479" style="stroke: #000000; stroke-width: 0.6"/>
      </g>
     </g>
    </g>
    <g id="ytick_9">
     <g id="line2d_32">
      <g>
       <use xlink:href="#mc609a52b96" x="77.371281" y="68.071863" style="stroke: #000000; stroke-width: 0.6"/>
      </g>
     </g>
    </g>
    <g id="text_6">
     <!-- e2 * dnde [TeV / (cm2 s)] -->
     <g transform="translate(19.291593 169.321775) rotate(-90) scale(0.1 -0.1)">
      <defs>
       <path id="DejaVuSans-65" d="M 3597 1894 
L 3597 1613 
L 953 1613 
Q 991 1019 1311 708 
Q 1631 397 2203 397 
Q 2534 397 2845 478 
Q 3156 559 3463 722 
L 3463 178 
Q 3153 47 2828 -22 
Q 2503 -91 2169 -91 
Q 1331 -91 842 396 
Q 353 884 353 1716 
Q 353 2575 817 3079 
Q 1281 3584 2069 3584 
Q 2775 3584 3186 3129 
Q 3597 2675 3597 1894 
z
M 3022 2063 
Q 3016 2534 2758 2815 
Q 2500 3097 2075 3097 
Q 1594 3097 1305 2825 
Q 1016 2553 972 2059 
L 3022 2063 
z
" transform="scale(0.015625)"/>
       <path id="DejaVuSans-20" transform="scale(0.015625)"/>
       <path id="DejaVuSans-2a" d="M 3009 3897 
L 1888 3291 
L 3009 2681 
L 2828 2375 
L 1778 3009 
L 1778 1831 
L 1422 1831 
L 1422 3009 
L 372 2375 
L 191 2681 
L 1313 3291 
L 191 3897 
L 372 4206 
L 1422 3572 
L 1422 4750 
L 1778 4750 
L 1778 3572 
L 2828 4206 
L 3009 3897 
z
" transform="scale(0.015625)"/>
       <path id="DejaVuSans-64" d="M 2906 2969 
L 2906 4863 
L 3481 4863 
L 3481 0 
L 2906 0 
L 2906 525 
Q 2725 213 2448 61 
Q 2172 -91 1784 -91 
Q 1150 -91 751 415 
Q 353 922 353 1747 
Q 353 2572 751 3078 
Q 1150 3584 1784 3584 
Q 2172 3584 2448 3432 
Q 2725 3281 2906 2969 
z
M 947 1747 
Q 947 1113 1208 752 
Q 1469 391 1925 391 
Q 2381 391 2643 752 
Q 2906 1113 2906 1747 
Q 2906 2381 2643 2742 
Q 2381 3103 1925 3103 
Q 1469 3103 1208 2742 
Q 947 2381 947 1747 
z
" transform="scale(0.015625)"/>
       <path id="DejaVuSans-6e" d="M 3513 2113 
L 3513 0 
L 2938 0 
L 2938 2094 
Q 2938 2591 2744 2837 
Q 2550 3084 2163 3084 
Q 1697 3084 1428 2787 
Q 1159 2491 1159 1978 
L 1159 0 
L 581 0 
L 581 3500 
L 1159 3500 
L 1159 2956 
Q 1366 3272 1645 3428 
Q 1925 3584 2291 3584 
Q 2894 3584 3203 3211 
Q 3513 2838 3513 2113 
z
" transform="scale(0.015625)"/>
       <path id="DejaVuSans-5b" d="M 550 4863 
L 1875 4863 
L 1875 4416 
L 1125 4416 
L 1125 -397 
L 1875 -397 
L 1875 -844 
L 550 -844 
L 550 4863 
z
" transform="scale(0.015625)"/>
       <path id="DejaVuSans-54" d="M -19 4666 
L 3928 4666 
L 3928 4134 
L 2272 4134 
L 2272 0 
L 1638 0 
L 1638 4134 
L -19 4134 
L -19 4666 
z
" transform="scale(0.015625)"/>
       <path id="DejaVuSans-56" d="M 1831 0 
L 50 4666 
L 709 4666 
L 2188 738 
L 3669 4666 
L 4325 4666 
L 2547 0 
L 1831 0 
z
" transform="scale(0.015625)"/>
       <path id="DejaVuSans-2f" d="M 1625 4666 
L 2156 4666 
L 531 -594 
L 0 -594 
L 1625 4666 
z
" transform="scale(0.015625)"/>
       <path id="DejaVuSans-28" d="M 1984 4856 
Q 1566 4138 1362 3434 
Q 1159 2731 1159 2009 
Q 1159 1288 1364 580 
Q 1569 -128 1984 -844 
L 1484 -844 
Q 1016 -109 783 600 
Q 550 1309 550 2009 
Q 550 2706 781 3412 
Q 1013 4119 1484 4856 
L 1984 4856 
z
" transform="scale(0.015625)"/>
       <path id="DejaVuSans-63" d="M 3122 3366 
L 3122 2828 
Q 2878 2963 2633 3030 
Q 2388 3097 2138 3097 
Q 1578 3097 1268 2742 
Q 959 2388 959 1747 
Q 959 1106 1268 751 
Q 1578 397 2138 397 
Q 2388 397 2633 464 
Q 2878 531 3122 666 
L 3122 134 
Q 2881 22 2623 -34 
Q 2366 -91 2075 -91 
Q 1284 -91 818 406 
Q 353 903 353 1747 
Q 353 2603 823 3093 
Q 1294 3584 2113 3584 
Q 2378 3584 2631 3529 
Q 2884 3475 3122 3366 
z
" transform="scale(0.015625)"/>
       <path id="DejaVuSans-6d" d="M 3328 2828 
Q 3544 3216 3844 3400 
Q 4144 3584 4550 3584 
Q 5097 3584 5394 3201 
Q 5691 2819 5691 2113 
L 5691 0 
L 5113 0 
L 5113 2094 
Q 5113 2597 4934 2840 
Q 4756 3084 4391 3084 
Q 3944 3084 3684 2787 
Q 3425 2491 3425 1978 
L 3425 0 
L 2847 0 
L 2847 2094 
Q 2847 2600 2669 2842 
Q 2491 3084 2119 3084 
Q 1678 3084 1418 2786 
Q 1159 2488 1159 1978 
L 1159 0 
L 581 0 
L 581 3500 
L 1159 3500 
L 1159 2956 
Q 1356 3278 1631 3431 
Q 1906 3584 2284 3584 
Q 2666 3584 2933 3390 
Q 3200 3197 3328 2828 
z
" transform="scale(0.015625)"/>
       <path id="DejaVuSans-73" d="M 2834 3397 
L 2834 2853 
Q 2591 2978 2328 3040 
Q 2066 3103 1784 3103 
Q 1356 3103 1142 2972 
Q 928 2841 928 2578 
Q 928 2378 1081 2264 
Q 1234 2150 1697 2047 
L 1894 2003 
Q 2506 1872 2764 1633 
Q 3022 1394 3022 966 
Q 3022 478 2636 193 
Q 2250 -91 1575 -91 
Q 1294 -91 989 -36 
Q 684 19 347 128 
L 347 722 
Q 666 556 975 473 
Q 1284 391 1588 391 
Q 1994 391 2212 530 
Q 2431 669 2431 922 
Q 2431 1156 2273 1281 
Q 2116 1406 1581 1522 
L 1381 1569 
Q 847 1681 609 1914 
Q 372 2147 372 2553 
Q 372 3047 722 3315 
Q 1072 3584 1716 3584 
Q 2034 3584 2315 3537 
Q 2597 3491 2834 3397 
z
" transform="scale(0.015625)"/>
       <path id="DejaVuSans-29" d="M 513 4856 
L 1013 4856 
Q 1481 4119 1714 3412 
Q 1947 2706 1947 2009 
Q 1947 1309 1714 600 
Q 1481 -109 1013 -844 
L 513 -844 
Q 928 -128 1133 580 
Q 1338 1288 1338 2009 
Q 1338 2731 1133 3434 
Q 928 4138 513 4856 
z
" transform="scale(0.015625)"/>
       <path id="DejaVuSans-5d" d="M 1947 4863 
L 1947 -844 
L 622 -844 
L 622 -397 
L 1369 -397 
L 1369 4416 
L 622 4416 
L 622 4863 
L 1947 4863 
z
" transform="scale(0.015625)"/>
      </defs>
      <use xlink:href="#DejaVuSans-65"/>
      <use xlink:href="#DejaVuSans-32" x="61.523438"/>
      <use xlink:href="#DejaVuSans-20" x="125.146484"/>
      <use xlink:href="#DejaVuSans-2a" x="156.933594"/>
      <use xlink:href="#DejaVuSans-20" x="206.933594"/>
      <use xlink:href="#DejaVuSans-64" x="238.720703"/>
      <use xlink:href="#DejaVuSans-6e" x="302.197266"/>
      <use xlink:href="#DejaVuSans-64" x="365.576172"/>
      <use xlink:href="#DejaVuSans-65" x="429.052734"/>
      <use xlink:href="#DejaVuSans-20" x="490.576172"/>
      <use xlink:href="#DejaVuSans-5b" x="522.363281"/>
      <use xlink:href="#DejaVuSans-54" x="561.376953"/>
      <use xlink:href="#DejaVuSans-65" x="605.460938"/>
      <use xlink:href="#DejaVuSans-56" x="666.984375"/>
      <use xlink:href="#DejaVuSans-20" x="735.392578"/>
      <use xlink:href="#DejaVuSans-2f" x="767.179688"/>
      <use xlink:href="#DejaVuSans-20" x="800.871094"/>
      <use xlink:href="#DejaVuSans-28" x="832.658203"/>
      <use xlink:href="#DejaVuSans-63" x="871.671875"/>
      <use xlink:href="#DejaVuSans-6d" x="926.652344"/>
      <use xlink:href="#DejaVuSans-32" x="1024.064453"/>
      <use xlink:href="#DejaVuSans-20" x="1087.6875"/>
      <use xlink:href="#DejaVuSans-73" x="1119.474609"/>
      <use xlink:href="#DejaVuSans-29" x="1171.574219"/>
      <use xlink:href="#DejaVuSans-5d" x="1210.587891"/>
     </g>
    </g>
   </g>
   <g id="LineCollection_1">
    <path d="M 89.727132 58.984357 
L 89.727132 32.48012 
" clip-path="url(#p486f2b813c)" style="fill: none; stroke: #006400; stroke-width: 1.5"/>
    <path d="M 104.11991 63.377473 
L 104.11991 41.096367 
" clip-path="url(#p486f2b813c)" style="fill: none; stroke: #006400; stroke-width: 1.5"/>
    <path d="M 118.512689 67.899104 
L 118.512689 49.592216 
" clip-path="url(#p486f2b813c)" style="fill: none; stroke: #006400; stroke-width: 1.5"/>
    <path d="M 132.905467 72.622046 
L 132.905467 57.890772 
" clip-path="url(#p486f2b813c)" style="fill: none; stroke: #006400; stroke-width: 1.5"/>
    <path d="M 147.298246 77.70303 
L 147.298246 65.832276 
" clip-path="url(#p486f2b813c)" style="fill: none; stroke: #006400; stroke-width: 1.5"/>
    <path d="M 161.691024 83.428671 
L 161.691024 73.128109 
" clip-path="url(#p486f2b813c)" style="fill: none; stroke: #006400; stroke-width: 1.5"/>
    <path d="M 176.083803 90.083987 
L 176.083803 79.492232 
" clip-path="url(#p486f2b813c)" style="fill: none; stroke: #006400; stroke-width: 1.5"/>
    <path d="M 190.476581 97.604337 
L 190.476581 84.989239 
" clip-path="url(#p486f2b813c)" style="fill: none; stroke: #006400; stroke-width: 1.5"/>
    <path d="M 204.86936 105.667824 
L 204.86936 89.941943 
" clip-path="url(#p486f2b813c)" style="fill: none; stroke: #006400; stroke-width: 1.5"/>
    <path d="M 219.262138 114.026456 
L 219.262138 94.600247 
" clip-path="url(#p486f2b813c)" style="fill: none; stroke: #006400; stroke-width: 1.5"/>
    <path d="M 233.654917 122.554533 
L 233.654917 99.092784 
" clip-path="url(#p486f2b813c)" style="fill: none; stroke: #006400; stroke-width: 1.5"/>
    <path d="M 248.047695 131.194515 
L 248.047695 103.481104 
" clip-path="url(#p486f2b813c)" style="fill: none; stroke: #006400; stroke-width: 1.5"/>
    <path d="M 262.440474 139.921278 
L 262.440474 107.795502 
" clip-path="url(#p486f2b813c)" style="fill: none; stroke: #006400; stroke-width: 1.5"/>
    <path d="M 276.833252 148.725705 
L 276.833252 112.051521 
" clip-path="url(#p486f2b813c)" style="fill: none; stroke: #006400; stroke-width: 1.5"/>
    <path d="M 291.226031 157.607419 
L 291.226031 116.257357 
" clip-path="url(#p486f2b813c)" style="fill: none; stroke: #006400; stroke-width: 1.5"/>
    <path d="M 305.618809 166.571468 
L 305.618809 120.417335 
" clip-path="url(#p486f2b813c)" style="fill: none; stroke: #006400; stroke-width: 1.5"/>
    <path d="M 320.011588 175.626801 
L 320.011588 124.533653 
" clip-path="url(#p486f2b813c)" style="fill: none; stroke: #006400; stroke-width: 1.5"/>
    <path d="M 334.404366 184.785615 
L 334.404366 128.607299 
" clip-path="url(#p486f2b813c)" style="fill: none; stroke: #006400; stroke-width: 1.5"/>
   </g>
   <g id="line2d_33">
    <path d="M 90.950518 42.867412 
L 93.39729 44.039387 
L 95.844063 45.211363 
L 98.290835 46.383338 
L 100.737607 47.555313 
L 103.18438 48.727289 
L 105.631152 49.899264 
L 108.077924 51.071239 
L 110.524697 52.243215 
L 112.971469 53.41519 
L 115.418241 54.587166 
L 117.865014 55.759141 
L 120.311786 56.931116 
L 122.758558 58.103092 
L 125.205331 59.275067 
L 127.652103 60.447042 
L 130.098875 61.619018 
L 132.545648 62.790993 
L 134.99242 63.962969 
L 137.439192 65.134944 
L 139.885965 66.306919 
L 142.332737 67.478895 
L 144.77951 68.65087 
L 147.226282 69.822845 
L 149.673054 70.994821 
L 152.119827 72.166796 
L 154.566599 73.338771 
L 157.013371 74.510747 
L 159.460144 75.682722 
L 161.906916 76.854698 
L 164.353688 78.026673 
L 166.800461 79.198648 
L 169.247233 80.370624 
L 171.694005 81.542599 
L 174.140778 82.714574 
L 176.58755 83.88655 
L 179.034322 85.058525 
L 181.481095 86.230501 
L 183.927867 87.402476 
L 186.374639 88.574451 
L 188.821412 89.746427 
L 191.268184 90.918402 
L 193.714956 92.090377 
L 196.161729 93.262353 
L 198.608501 94.434328 
L 201.055273 95.606304 
L 203.502046 96.778279 
L 205.948818 97.950254 
L 208.39559 99.12223 
L 210.842363 100.294205 
L 213.289135 101.46618 
L 215.735907 102.638156 
L 218.18268 103.810131 
L 220.629452 104.982106 
L 223.076224 106.154082 
L 225.522997 107.326057 
L 227.969769 108.498033 
L 230.416541 109.670008 
L 232.863314 110.841983 
L 235.310086 112.013959 
L 237.756859 113.185934 
L 240.203631 114.357909 
L 242.650403 115.529885 
L 245.097176 116.70186 
L 247.543948 117.873836 
L 249.99072 119.045811 
L 252.437493 120.217786 
L 254.884265 121.389762 
L 257.331037 122.561737 
L 259.77781 123.733712 
L 262.224582 124.905688 
L 264.671354 126.077663 
L 267.118127 127.249639 
L 269.564899 128.421614 
L 272.011671 129.593589 
L 274.458444 130.765565 
L 276.905216 131.93754 
L 279.351988 133.109515 
L 281.798761 134.281491 
L 284.245533 135.453466 
L 286.692305 136.625441 
L 289.139078 137.797417 
L 291.58585 138.969392 
L 294.032622 140.141368 
L 296.479395 141.313343 
L 298.926167 142.485318 
L 301.372939 143.657294 
L 303.819712 144.829269 
L 306.266484 146.001244 
L 308.713256 147.17322 
L 311.160029 148.345195 
L 313.606801 149.517171 
L 316.053573 150.689146 
L 318.500346 151.861121 
L 320.947118 153.033097 
L 323.39389 154.205072 
L 325.840663 155.377047 
L 328.287435 156.549023 
L 330.734208 157.720998 
L 333.18098 158.892974 
" clip-path="url(#p486f2b813c)" style="fill: none; stroke: #000080; stroke-width: 1.5; stroke-linecap: square"/>
   </g>
   <g id="line2d_34">
    <path d="M 90.950518 42.873788 
L 93.39729 44.045578 
L 95.844063 45.217367 
L 98.290835 46.389157 
L 100.737607 47.560947 
L 103.18438 48.732736 
L 105.631152 49.904526 
L 108.077924 51.076316 
L 110.524697 52.248106 
L 112.971469 53.419895 
L 115.418241 54.591685 
L 117.865014 55.763475 
L 120.311786 56.935264 
L 122.758558 58.107054 
L 125.205331 59.278844 
L 127.652103 60.450634 
L 130.098875 61.622423 
L 132.545648 62.794213 
L 134.99242 63.966003 
L 137.439192 65.137792 
L 139.885965 66.309582 
L 142.332737 67.481372 
L 144.77951 68.653162 
L 147.226282 69.824951 
L 149.673054 70.996741 
L 152.119827 72.168531 
L 154.566599 73.34032 
L 157.013371 74.51211 
L 159.460144 75.6839 
L 161.906916 76.85569 
L 164.353688 78.027479 
L 166.800461 79.199269 
L 169.247233 80.371059 
L 171.694005 81.542848 
L 174.140778 82.714638 
L 176.58755 83.886428 
L 179.034322 85.058218 
L 181.481095 86.230007 
L 183.927867 87.401797 
L 186.374639 88.573587 
L 188.821412 89.745376 
L 191.268184 90.917166 
L 193.714956 92.088956 
L 196.161729 93.260746 
L 198.608501 94.432535 
L 201.055273 95.604325 
L 203.502046 96.776115 
L 205.948818 97.947904 
L 208.39559 99.119694 
L 210.842363 100.291484 
L 213.289135 101.463273 
L 215.735907 102.635063 
L 218.18268 103.806853 
L 220.629452 104.978643 
L 223.076224 106.150432 
L 225.522997 107.322222 
L 227.969769 108.494012 
L 230.416541 109.665801 
L 232.863314 110.837591 
L 235.310086 112.009381 
L 237.756859 113.181171 
L 240.203631 114.35296 
L 242.650403 115.52475 
L 245.097176 116.69654 
L 247.543948 117.868329 
L 249.99072 119.040119 
L 252.437493 120.211909 
L 254.884265 121.383699 
L 257.331037 122.555488 
L 259.77781 123.727278 
L 262.224582 124.899068 
L 264.671354 126.070857 
L 267.118127 127.242647 
L 269.564899 128.414437 
L 272.011671 129.586227 
L 274.458444 130.758016 
L 276.905216 131.929806 
L 279.351988 133.101596 
L 281.798761 134.273385 
L 284.245533 135.445175 
L 286.692305 136.616965 
L 289.139078 137.788755 
L 291.58585 138.960544 
L 294.032622 140.132334 
L 296.479395 141.304124 
L 298.926167 142.475913 
L 301.372939 143.647703 
L 303.819712 144.819493 
L 306.266484 145.991283 
L 308.713256 147.163072 
L 311.160029 148.334862 
L 313.606801 149.506652 
L 316.053573 150.678441 
L 318.500346 151.850231 
L 320.947118 153.022021 
L 323.39389 154.19381 
L 325.840663 155.3656 
L 328.287435 156.53739 
L 330.734208 157.70918 
L 333.18098 158.880969 
" clip-path="url(#p486f2b813c)" style="fill: none; stroke: #dc143c; stroke-width: 1.5; stroke-linecap: square"/>
   </g>
   <g id="line2d_35">
    <path d="M 90.950518 43.134089 
L 93.39729 44.300303 
L 95.844063 45.466517 
L 98.290835 46.632731 
L 100.737607 47.798946 
L 103.18438 48.96516 
L 105.631152 50.131374 
L 108.077924 51.297588 
L 110.524697 52.463803 
L 112.971469 53.630017 
L 115.418241 54.796231 
L 117.865014 55.962445 
L 120.311786 57.12866 
L 122.758558 58.294874 
L 125.205331 59.461088 
L 127.652103 60.627302 
L 130.098875 61.793517 
L 132.545648 62.959731 
L 134.99242 64.125945 
L 137.439192 65.292159 
L 139.885965 66.458373 
L 142.332737 67.624588 
L 144.77951 68.790802 
L 147.226282 69.957016 
L 149.673054 71.12323 
L 152.119827 72.289445 
L 154.566599 73.455659 
L 157.013371 74.621873 
L 159.460144 75.788087 
L 161.906916 76.954302 
L 164.353688 78.120516 
L 166.800461 79.28673 
L 169.247233 80.452944 
L 171.694005 81.619158 
L 174.140778 82.785373 
L 176.58755 83.951587 
L 179.034322 85.117801 
L 181.481095 86.284015 
L 183.927867 87.45023 
L 186.374639 88.616444 
L 188.821412 89.782658 
L 191.268184 90.948872 
L 193.714956 92.115087 
L 196.161729 93.281301 
L 198.608501 94.447515 
L 201.055273 95.613729 
L 203.502046 96.779944 
L 205.948818 97.946158 
L 208.39559 99.112372 
L 210.842363 100.278586 
L 213.289135 101.4448 
L 215.735907 102.611015 
L 218.18268 103.777229 
L 220.629452 104.943443 
L 223.076224 106.109657 
L 225.522997 107.275872 
L 227.969769 108.442086 
L 230.416541 109.6083 
L 232.863314 110.774514 
L 235.310086 111.940729 
L 237.756859 113.106943 
L 240.203631 114.273157 
L 242.650403 115.439371 
L 245.097176 116.605586 
L 247.543948 117.7718 
L 249.99072 118.938014 
L 252.437493 120.104228 
L 254.884265 121.270442 
L 257.331037 122.436657 
L 259.77781 123.602871 
L 262.224582 124.769085 
L 264.671354 125.935299 
L 267.118127 127.101514 
L 269.564899 128.267728 
L 272.011671 129.433942 
L 274.458444 130.600156 
L 276.905216 131.766371 
L 279.351988 132.932585 
L 281.798761 134.098799 
L 284.245533 135.265013 
L 286.692305 136.431228 
L 289.139078 137.597442 
L 291.58585 138.763656 
L 294.032622 139.92987 
L 296.479395 141.096084 
L 298.926167 142.262299 
L 301.372939 143.428513 
L 303.819712 144.594727 
L 306.266484 145.760941 
L 308.713256 146.927156 
L 311.160029 148.09337 
L 313.606801 149.259584 
L 316.053573 150.425798 
L 318.500346 151.592013 
L 320.947118 152.758227 
L 323.39389 153.924441 
L 325.840663 155.090655 
L 328.287435 156.25687 
L 330.734208 157.423084 
L 333.18098 158.589298 
" clip-path="url(#p486f2b813c)" style="fill: none; stroke-dasharray: 1.5,2.475; stroke-dashoffset: 0; stroke: #ff8c00; stroke-width: 1.5"/>
   </g>
   <g id="line2d_36">
    <path d="M 89.727132 44.632082 
L 104.11991 51.458376 
L 118.512689 58.219524 
L 132.905467 64.915462 
L 147.298246 71.54615 
L 161.691024 78.111571 
L 176.083803 84.611733 
L 190.476581 91.046665 
L 204.86936 97.41642 
L 219.262138 103.721075 
L 233.654917 109.960726 
L 248.047695 116.135496 
L 262.440474 122.245525 
L 276.833252 128.290979 
L 291.226031 134.272043 
L 305.618809 140.188924 
L 320.011588 146.041847 
L 334.404366 151.831061 
" clip-path="url(#p486f2b813c)" style="fill: none; stroke: #006400; stroke-width: 1.5; stroke-linecap: square"/>
   </g>
   <g id="patch_3">
    <path d="M 77.371281 188.244174 
L 77.371281 25.44 
" style="fill: none; stroke: #000000; stroke-width: 0.8; stroke-linejoin: miter; stroke-linecap: square"/>
   </g>
   <g id="patch_4">
    <path d="M 349.2 188.244174 
L 349.2 25.44 
" style="fill: none; stroke: #000000; stroke-width: 0.8; stroke-linejoin: miter; stroke-linecap: square"/>
   </g>
   <g id="patch_5">
    <path d="M 77.371281 188.244174 
L 349.2 188.244174 
" style="fill: none; stroke: #000000; stroke-width: 0.8; stroke-linejoin: miter; stroke-linecap: square"/>
   </g>
   <g id="patch_6">
    <path d="M 77.371281 25.44 
L 349.2 25.44 
" style="fill: none; stroke: #000000; stroke-width: 0.8; stroke-linejoin: miter; stroke-linecap: square"/>
   </g>
   <g id="text_7">
    <!-- N = 200 (p = 11.6%) -->
    <g transform="translate(150.20314 19.44) scale(0.12 -0.12)">
     <defs>
      <path id="DejaVuSans-4e" d="M 628 4666 
L 1478 4666 
L 3547 763 
L 3547 4666 
L 4159 4666 
L 4159 0 
L 3309 0 
L 1241 3903 
L 1241 0 
L 628 0 
L 628 4666 
z
" transform="scale(0.015625)"/>
      <path id="DejaVuSans-3d" d="M 678 2906 
L 4684 2906 
L 4684 2381 
L 678 2381 
L 678 2906 
z
M 678 1631 
L 4684 1631 
L 4684 1100 
L 678 1100 
L 678 1631 
z
" transform="scale(0.015625)"/>
      <path id="DejaVuSans-70" d="M 1159 525 
L 1159 -1331 
L 581 -1331 
L 581 3500 
L 1159 3500 
L 1159 2969 
Q 1341 3281 1617 3432 
Q 1894 3584 2278 3584 
Q 2916 3584 3314 3078 
Q 3713 2572 3713 1747 
Q 3713 922 3314 415 
Q 2916 -91 2278 -91 
Q 1894 -91 1617 61 
Q 1341 213 1159 525 
z
M 3116 1747 
Q 3116 2381 2855 2742 
Q 2594 3103 2138 3103 
Q 1681 3103 1420 2742 
Q 1159 2381 1159 1747 
Q 1159 1113 1420 752 
Q 1681 391 2138 391 
Q 2594 391 2855 752 
Q 3116 1113 3116 1747 
z
" transform="scale(0.015625)"/>
      <path id="DejaVuSans-2e" d="M 684 794 
L 1344 794 
L 1344 0 
L 684 0 
L 684 794 
z
" transform="scale(0.015625)"/>
      <path id="DejaVuSans-25" d="M 4653 2053 
Q 4381 2053 4226 1822 
Q 4072 1591 4072 1178 
Q 4072 772 4226 539 
Q 4381 306 4653 306 
Q 4919 306 5073 539 
Q 5228 772 5228 1178 
Q 5228 1588 5073 1820 
Q 4919 2053 4653 2053 
z
M 4653 2450 
Q 5147 2450 5437 2106 
Q 5728 1763 5728 1178 
Q 5728 594 5436 251 
Q 5144 -91 4653 -91 
Q 4153 -91 3862 251 
Q 3572 594 3572 1178 
Q 3572 1766 3864 2108 
Q 4156 2450 4653 2450 
z
M 1428 4353 
Q 1159 4353 1004 4120 
Q 850 3888 850 3481 
Q 850 3069 1003 2837 
Q 1156 2606 1428 2606 
Q 1700 2606 1854 2837 
Q 2009 3069 2009 3481 
Q 2009 3884 1853 4118 
Q 1697 4353 1428 4353 
z
M 4250 4750 
L 4750 4750 
L 1831 -91 
L 1331 -91 
L 4250 4750 
z
M 1428 4750 
Q 1922 4750 2215 4408 
Q 2509 4066 2509 3481 
Q 2509 2891 2217 2550 
Q 1925 2209 1428 2209 
Q 931 2209 642 2551 
Q 353 2894 353 3481 
Q 353 4063 643 4406 
Q 934 4750 1428 4750 
z
" transform="scale(0.015625)"/>
     </defs>
     <use xlink:href="#DejaVuSans-4e"/>
     <use xlink:href="#DejaVuSans-20" x="74.804688"/>
     <use xlink:href="#DejaVuSans-3d" x="106.591797"/>
     <use xlink:href="#DejaVuSans-20" x="190.380859"/>
     <use xlink:href="#DejaVuSans-32" x="222.167969"/>
     <use xlink:href="#DejaVuSans-30" x="285.791016"/>
     <use xlink:href="#DejaVuSans-30" x="349.414062"/>
     <use xlink:href="#DejaVuSans-20" x="413.037109"/>
     <use xlink:href="#DejaVuSans-28" x="444.824219"/>
     <use xlink:href="#DejaVuSans-70" x="483.837891"/>
     <use xlink:href="#DejaVuSans-20" x="547.314453"/>
     <use xlink:href="#DejaVuSans-3d" x="579.101562"/>
     <use xlink:href="#DejaVuSans-20" x="662.890625"/>
     <use xlink:href="#DejaVuSans-31" x="694.677734"/>
     <use xlink:href="#DejaVuSans-31" x="758.300781"/>
     <use xlink:href="#DejaVuSans-2e" x="821.923828"/>
     <use xlink:href="#DejaVuSans-36" x="853.710938"/>
     <use xlink:href="#DejaVuSans-25" x="917.333984"/>
     <use xlink:href="#DejaVuSans-29" x="1012.353516"/>
    </g>
   </g>
   <g id="legend_1">
    <g id="patch_7">
     <path d="M 248.3 92.172813 
L 342.2 92.172813 
Q 344.2 92.172813 344.2 90.172813 
L 344.2 32.44 
Q 344.2 30.44 342.2 30.44 
L 248.3 30.44 
Q 246.3 30.44 246.3 32.44 
L 246.3 90.172813 
Q 246.3 92.172813 248.3 92.172813 
z
" style="fill: #ffffff; opacity: 0.8; stroke: #cccccc; stroke-linejoin: miter"/>
    </g>
    <g id="patch_8">
     <path d="M 250.3 42.038438 
L 270.3 42.038438 
L 270.3 35.038438 
L 250.3 35.038438 
z
" style="fill: #6495ed; fill-opacity: 0.6"/>
    </g>
    <g id="text_8">
     <!-- $1\sigma$ Nuisance -->
     <g transform="translate(278.3 42.038438) scale(0.1 -0.1)">
      <defs>
       <path id="DejaVuSans-Oblique-3c3" d="M 2219 3044 
Q 1744 3044 1422 2700 
Q 1081 2341 969 1747 
Q 844 1119 1044 756 
Q 1241 397 1706 397 
Q 2166 397 2503 759 
Q 2844 1122 2966 1747 
Q 3075 2319 2881 2700 
Q 2700 3044 2219 3044 
z
M 2309 3503 
L 4219 3500 
L 4106 2925 
L 3463 2925 
Q 3706 2438 3575 1747 
Q 3406 888 2884 400 
Q 2359 -91 1609 -91 
Q 856 -91 525 400 
Q 194 888 363 1747 
Q 528 2609 1050 3097 
Q 1484 3503 2309 3503 
z
" transform="scale(0.015625)"/>
       <path id="DejaVuSans-75" d="M 544 1381 
L 544 3500 
L 1119 3500 
L 1119 1403 
Q 1119 906 1312 657 
Q 1506 409 1894 409 
Q 2359 409 2629 706 
Q 2900 1003 2900 1516 
L 2900 3500 
L 3475 3500 
L 3475 0 
L 2900 0 
L 2900 538 
Q 2691 219 2414 64 
Q 2138 -91 1772 -91 
Q 1169 -91 856 284 
Q 544 659 544 1381 
z
M 1991 3584 
L 1991 3584 
z
" transform="scale(0.015625)"/>
       <path id="DejaVuSans-69" d="M 603 3500 
L 1178 3500 
L 1178 0 
L 603 0 
L 603 3500 
z
M 603 4863 
L 1178 4863 
L 1178 4134 
L 603 4134 
L 603 4863 
z
" transform="scale(0.015625)"/>
       <path id="DejaVuSans-61" d="M 2194 1759 
Q 1497 1759 1228 1600 
Q 959 1441 959 1056 
Q 959 750 1161 570 
Q 1363 391 1709 391 
Q 2188 391 2477 730 
Q 2766 1069 2766 1631 
L 2766 1759 
L 2194 1759 
z
M 3341 1997 
L 3341 0 
L 2766 0 
L 2766 531 
Q 2569 213 2275 61 
Q 1981 -91 1556 -91 
Q 1019 -91 701 211 
Q 384 513 384 1019 
Q 384 1609 779 1909 
Q 1175 2209 1959 2209 
L 2766 2209 
L 2766 2266 
Q 2766 2663 2505 2880 
Q 2244 3097 1772 3097 
Q 1472 3097 1187 3025 
Q 903 2953 641 2809 
L 641 3341 
Q 956 3463 1253 3523 
Q 1550 3584 1831 3584 
Q 2591 3584 2966 3190 
Q 3341 2797 3341 1997 
z
" transform="scale(0.015625)"/>
      </defs>
      <use xlink:href="#DejaVuSans-31" transform="translate(0 0.015625)"/>
      <use xlink:href="#DejaVuSans-Oblique-3c3" transform="translate(63.623047 0.015625)"/>
      <use xlink:href="#DejaVuSans-20" transform="translate(127.001953 0.015625)"/>
      <use xlink:href="#DejaVuSans-4e" transform="translate(158.789062 0.015625)"/>
      <use xlink:href="#DejaVuSans-75" transform="translate(233.59375 0.015625)"/>
      <use xlink:href="#DejaVuSans-69" transform="translate(296.972656 0.015625)"/>
      <use xlink:href="#DejaVuSans-73" transform="translate(324.755859 0.015625)"/>
      <use xlink:href="#DejaVuSans-61" transform="translate(376.855469 0.015625)"/>
      <use xlink:href="#DejaVuSans-6e" transform="translate(438.134766 0.015625)"/>
      <use xlink:href="#DejaVuSans-63" transform="translate(501.513672 0.015625)"/>
      <use xlink:href="#DejaVuSans-65" transform="translate(556.494141 0.015625)"/>
     </g>
    </g>
    <g id="patch_9">
     <path d="M 250.3 56.716563 
L 270.3 56.716563 
L 270.3 49.716563 
L 250.3 49.716563 
z
" style="fill: #db7093; fill-opacity: 0.6"/>
    </g>
    <g id="text_9">
     <!-- $1\sigma$ Standard -->
     <g transform="translate(278.3 56.716563) scale(0.1 -0.1)">
      <defs>
       <path id="DejaVuSans-53" d="M 3425 4513 
L 3425 3897 
Q 3066 4069 2747 4153 
Q 2428 4238 2131 4238 
Q 1616 4238 1336 4038 
Q 1056 3838 1056 3469 
Q 1056 3159 1242 3001 
Q 1428 2844 1947 2747 
L 2328 2669 
Q 3034 2534 3370 2195 
Q 3706 1856 3706 1288 
Q 3706 609 3251 259 
Q 2797 -91 1919 -91 
Q 1588 -91 1214 -16 
Q 841 59 441 206 
L 441 856 
Q 825 641 1194 531 
Q 1563 422 1919 422 
Q 2459 422 2753 634 
Q 3047 847 3047 1241 
Q 3047 1584 2836 1778 
Q 2625 1972 2144 2069 
L 1759 2144 
Q 1053 2284 737 2584 
Q 422 2884 422 3419 
Q 422 4038 858 4394 
Q 1294 4750 2059 4750 
Q 2388 4750 2728 4690 
Q 3069 4631 3425 4513 
z
" transform="scale(0.015625)"/>
       <path id="DejaVuSans-74" d="M 1172 4494 
L 1172 3500 
L 2356 3500 
L 2356 3053 
L 1172 3053 
L 1172 1153 
Q 1172 725 1289 603 
Q 1406 481 1766 481 
L 2356 481 
L 2356 0 
L 1766 0 
Q 1100 0 847 248 
Q 594 497 594 1153 
L 594 3053 
L 172 3053 
L 172 3500 
L 594 3500 
L 594 4494 
L 1172 4494 
z
" transform="scale(0.015625)"/>
       <path id="DejaVuSans-72" d="M 2631 2963 
Q 2534 3019 2420 3045 
Q 2306 3072 2169 3072 
Q 1681 3072 1420 2755 
Q 1159 2438 1159 1844 
L 1159 0 
L 581 0 
L 581 3500 
L 1159 3500 
L 1159 2956 
Q 1341 3275 1631 3429 
Q 1922 3584 2338 3584 
Q 2397 3584 2469 3576 
Q 2541 3569 2628 3553 
L 2631 2963 
z
" transform="scale(0.015625)"/>
      </defs>
      <use xlink:href="#DejaVuSans-31" transform="translate(0 0.015625)"/>
      <use xlink:href="#DejaVuSans-Oblique-3c3" transform="translate(63.623047 0.015625)"/>
      <use xlink:href="#DejaVuSans-20" transform="translate(127.001953 0.015625)"/>
      <use xlink:href="#DejaVuSans-53" transform="translate(158.789062 0.015625)"/>
      <use xlink:href="#DejaVuSans-74" transform="translate(222.265625 0.015625)"/>
      <use xlink:href="#DejaVuSans-61" transform="translate(261.474609 0.015625)"/>
      <use xlink:href="#DejaVuSans-6e" transform="translate(322.753906 0.015625)"/>
      <use xlink:href="#DejaVuSans-64" transform="translate(386.132812 0.015625)"/>
      <use xlink:href="#DejaVuSans-61" transform="translate(449.609375 0.015625)"/>
      <use xlink:href="#DejaVuSans-72" transform="translate(510.888672 0.015625)"/>
      <use xlink:href="#DejaVuSans-64" transform="translate(552.001953 0.015625)"/>
     </g>
    </g>
    <g id="line2d_37">
     <path d="M 250.3 67.894688 
L 260.3 67.894688 
L 270.3 67.894688 
" style="fill: none; stroke-dasharray: 1.5,2.475; stroke-dashoffset: 0; stroke: #ff8c00; stroke-width: 1.5"/>
    </g>
    <g id="text_10">
     <!-- Input -->
     <g transform="translate(278.3 71.394688) scale(0.1 -0.1)">
      <defs>
       <path id="DejaVuSans-49" d="M 628 4666 
L 1259 4666 
L 1259 0 
L 628 0 
L 628 4666 
z
" transform="scale(0.015625)"/>
      </defs>
      <use xlink:href="#DejaVuSans-49"/>
      <use xlink:href="#DejaVuSans-6e" x="29.492188"/>
      <use xlink:href="#DejaVuSans-70" x="92.871094"/>
      <use xlink:href="#DejaVuSans-75" x="156.347656"/>
      <use xlink:href="#DejaVuSans-74" x="219.726562"/>
     </g>
    </g>
    <g id="LineCollection_2">
     <path d="M 260.3 87.572813 
L 260.3 77.572813 
" style="fill: none; stroke: #006400; stroke-width: 1.5"/>
    </g>
    <g id="line2d_38">
     <path d="M 250.3 82.572813 
L 270.3 82.572813 
" style="fill: none; stroke: #006400; stroke-width: 1.5; stroke-linecap: square"/>
    </g>
    <g id="line2d_39"/>
    <g id="text_11">
     <!-- $\mu$, $\sigma$ -->
     <g transform="translate(278.3 86.072813) scale(0.1 -0.1)">
      <defs>
       <path id="DejaVuSans-Oblique-3bc" d="M -84 -1331 
L 856 3500 
L 1434 3500 
L 1009 1322 
Q 997 1256 987 1175 
Q 978 1094 978 1013 
Q 978 722 1161 565 
Q 1344 409 1684 409 
Q 2147 409 2431 671 
Q 2716 934 2816 1459 
L 3213 3500 
L 3788 3500 
L 3266 809 
Q 3253 750 3248 706 
Q 3244 663 3244 628 
Q 3244 531 3283 486 
Q 3322 441 3406 441 
Q 3438 441 3492 456 
Q 3547 472 3647 513 
L 3559 50 
Q 3422 -19 3297 -55 
Q 3172 -91 3053 -91 
Q 2847 -91 2730 40 
Q 2613 172 2613 403 
Q 2438 153 2195 31 
Q 1953 -91 1625 -91 
Q 1334 -91 1117 43 
Q 900 178 831 397 
L 494 -1331 
L -84 -1331 
z
" transform="scale(0.015625)"/>
       <path id="DejaVuSans-2c" d="M 750 794 
L 1409 794 
L 1409 256 
L 897 -744 
L 494 -744 
L 750 256 
L 750 794 
z
" transform="scale(0.015625)"/>
      </defs>
      <use xlink:href="#DejaVuSans-Oblique-3bc" transform="translate(0 0.265625)"/>
      <use xlink:href="#DejaVuSans-2c" transform="translate(63.623047 0.265625)"/>
      <use xlink:href="#DejaVuSans-20" transform="translate(95.410156 0.265625)"/>
      <use xlink:href="#DejaVuSans-Oblique-3c3" transform="translate(127.197266 0.265625)"/>
     </g>
    </g>
   </g>
  </g>
  <g id="axes_2">
   <g id="patch_10">
    <path d="M 77.371281 314.728 
L 349.2 314.728 
L 349.2 206.191884 
L 77.371281 206.191884 
z
" style="fill: #ffffff"/>
   </g>
   <g id="matplotlib.axis_3">
    <g id="xtick_24">
     <g id="line2d_40">
      <g>
       <use xlink:href="#mc8a2e32b9c" x="125.709078" y="314.728" style="stroke: #000000; stroke-width: 0.8"/>
      </g>
     </g>
     <g id="text_12">
      <!-- $\mathdefault{10^{0}}$ -->
      <g transform="translate(116.909078 329.326437) scale(0.1 -0.1)">
       <use xlink:href="#DejaVuSans-31" transform="translate(0 0.765625)"/>
       <use xlink:href="#DejaVuSans-30" transform="translate(63.623047 0.765625)"/>
       <use xlink:href="#DejaVuSans-30" transform="translate(128.203125 39.046875) scale(0.7)"/>
      </g>
     </g>
    </g>
    <g id="xtick_25">
     <g id="line2d_41">
      <g>
       <use xlink:href="#mc8a2e32b9c" x="240.851306" y="314.728" style="stroke: #000000; stroke-width: 0.8"/>
      </g>
     </g>
     <g id="text_13">
      <!-- $\mathdefault{10^{1}}$ -->
      <g transform="translate(232.051306 329.326437) scale(0.1 -0.1)">
       <use xlink:href="#DejaVuSans-31" transform="translate(0 0.684375)"/>
       <use xlink:href="#DejaVuSans-30" transform="translate(63.623047 0.684375)"/>
       <use xlink:href="#DejaVuSans-31" transform="translate(128.203125 38.965625) scale(0.7)"/>
      </g>
     </g>
    </g>
    <g id="xtick_26">
     <g id="line2d_42">
      <g>
       <use xlink:href="#md034bf7a21" x="79.889379" y="314.728" style="stroke: #000000; stroke-width: 0.6"/>
      </g>
     </g>
    </g>
    <g id="xtick_27">
     <g id="line2d_43">
      <g>
       <use xlink:href="#md034bf7a21" x="91.047814" y="314.728" style="stroke: #000000; stroke-width: 0.6"/>
      </g>
     </g>
    </g>
    <g id="xtick_28">
     <g id="line2d_44">
      <g>
       <use xlink:href="#md034bf7a21" x="100.164919" y="314.728" style="stroke: #000000; stroke-width: 0.6"/>
      </g>
     </g>
    </g>
    <g id="xtick_29">
     <g id="line2d_45">
      <g>
       <use xlink:href="#md034bf7a21" x="107.873321" y="314.728" style="stroke: #000000; stroke-width: 0.6"/>
      </g>
     </g>
    </g>
    <g id="xtick_30">
     <g id="line2d_46">
      <g>
       <use xlink:href="#md034bf7a21" x="114.550643" y="314.728" style="stroke: #000000; stroke-width: 0.6"/>
      </g>
     </g>
    </g>
    <g id="xtick_31">
     <g id="line2d_47">
      <g>
       <use xlink:href="#md034bf7a21" x="120.440459" y="314.728" style="stroke: #000000; stroke-width: 0.6"/>
      </g>
     </g>
    </g>
    <g id="xtick_32">
     <g id="line2d_48">
      <g>
       <use xlink:href="#md034bf7a21" x="160.370342" y="314.728" style="stroke: #000000; stroke-width: 0.6"/>
      </g>
     </g>
    </g>
    <g id="xtick_33">
     <g id="line2d_49">
      <g>
       <use xlink:href="#md034bf7a21" x="180.645882" y="314.728" style="stroke: #000000; stroke-width: 0.6"/>
      </g>
     </g>
    </g>
    <g id="xtick_34">
     <g id="line2d_50">
      <g>
       <use xlink:href="#md034bf7a21" x="195.031607" y="314.728" style="stroke: #000000; stroke-width: 0.6"/>
      </g>
     </g>
    </g>
    <g id="xtick_35">
     <g id="line2d_51">
      <g>
       <use xlink:href="#md034bf7a21" x="206.190042" y="314.728" style="stroke: #000000; stroke-width: 0.6"/>
      </g>
     </g>
    </g>
    <g id="xtick_36">
     <g id="line2d_52">
      <g>
       <use xlink:href="#md034bf7a21" x="215.307147" y="314.728" style="stroke: #000000; stroke-width: 0.6"/>
      </g>
     </g>
    </g>
    <g id="xtick_37">
     <g id="line2d_53">
      <g>
       <use xlink:href="#md034bf7a21" x="223.015549" y="314.728" style="stroke: #000000; stroke-width: 0.6"/>
      </g>
     </g>
    </g>
    <g id="xtick_38">
     <g id="line2d_54">
      <g>
       <use xlink:href="#md034bf7a21" x="229.692871" y="314.728" style="stroke: #000000; stroke-width: 0.6"/>
      </g>
     </g>
    </g>
    <g id="xtick_39">
     <g id="line2d_55">
      <g>
       <use xlink:href="#md034bf7a21" x="235.582686" y="314.728" style="stroke: #000000; stroke-width: 0.6"/>
      </g>
     </g>
    </g>
    <g id="xtick_40">
     <g id="line2d_56">
      <g>
       <use xlink:href="#md034bf7a21" x="275.51257" y="314.728" style="stroke: #000000; stroke-width: 0.6"/>
      </g>
     </g>
    </g>
    <g id="xtick_41">
     <g id="line2d_57">
      <g>
       <use xlink:href="#md034bf7a21" x="295.78811" y="314.728" style="stroke: #000000; stroke-width: 0.6"/>
      </g>
     </g>
    </g>
    <g id="xtick_42">
     <g id="line2d_58">
      <g>
       <use xlink:href="#md034bf7a21" x="310.173835" y="314.728" style="stroke: #000000; stroke-width: 0.6"/>
      </g>
     </g>
    </g>
    <g id="xtick_43">
     <g id="line2d_59">
      <g>
       <use xlink:href="#md034bf7a21" x="321.332269" y="314.728" style="stroke: #000000; stroke-width: 0.6"/>
      </g>
     </g>
    </g>
    <g id="xtick_44">
     <g id="line2d_60">
      <g>
       <use xlink:href="#md034bf7a21" x="330.449374" y="314.728" style="stroke: #000000; stroke-width: 0.6"/>
      </g>
     </g>
    </g>
    <g id="xtick_45">
     <g id="line2d_61">
      <g>
       <use xlink:href="#md034bf7a21" x="338.157777" y="314.728" style="stroke: #000000; stroke-width: 0.6"/>
      </g>
     </g>
    </g>
    <g id="xtick_46">
     <g id="line2d_62">
      <g>
       <use xlink:href="#md034bf7a21" x="344.835099" y="314.728" style="stroke: #000000; stroke-width: 0.6"/>
      </g>
     </g>
    </g>
    <g id="text_14">
     <!-- Energy [TeV] -->
     <g transform="translate(181.587984 343.004563) scale(0.1 -0.1)">
      <defs>
       <path id="DejaVuSans-45" d="M 628 4666 
L 3578 4666 
L 3578 4134 
L 1259 4134 
L 1259 2753 
L 3481 2753 
L 3481 2222 
L 1259 2222 
L 1259 531 
L 3634 531 
L 3634 0 
L 628 0 
L 628 4666 
z
" transform="scale(0.015625)"/>
       <path id="DejaVuSans-67" d="M 2906 1791 
Q 2906 2416 2648 2759 
Q 2391 3103 1925 3103 
Q 1463 3103 1205 2759 
Q 947 2416 947 1791 
Q 947 1169 1205 825 
Q 1463 481 1925 481 
Q 2391 481 2648 825 
Q 2906 1169 2906 1791 
z
M 3481 434 
Q 3481 -459 3084 -895 
Q 2688 -1331 1869 -1331 
Q 1566 -1331 1297 -1286 
Q 1028 -1241 775 -1147 
L 775 -588 
Q 1028 -725 1275 -790 
Q 1522 -856 1778 -856 
Q 2344 -856 2625 -561 
Q 2906 -266 2906 331 
L 2906 616 
Q 2728 306 2450 153 
Q 2172 0 1784 0 
Q 1141 0 747 490 
Q 353 981 353 1791 
Q 353 2603 747 3093 
Q 1141 3584 1784 3584 
Q 2172 3584 2450 3431 
Q 2728 3278 2906 2969 
L 2906 3500 
L 3481 3500 
L 3481 434 
z
" transform="scale(0.015625)"/>
       <path id="DejaVuSans-79" d="M 2059 -325 
Q 1816 -950 1584 -1140 
Q 1353 -1331 966 -1331 
L 506 -1331 
L 506 -850 
L 844 -850 
Q 1081 -850 1212 -737 
Q 1344 -625 1503 -206 
L 1606 56 
L 191 3500 
L 800 3500 
L 1894 763 
L 2988 3500 
L 3597 3500 
L 2059 -325 
z
" transform="scale(0.015625)"/>
      </defs>
      <use xlink:href="#DejaVuSans-45"/>
      <use xlink:href="#DejaVuSans-6e" x="63.183594"/>
      <use xlink:href="#DejaVuSans-65" x="126.5625"/>
      <use xlink:href="#DejaVuSans-72" x="188.085938"/>
      <use xlink:href="#DejaVuSans-67" x="227.449219"/>
      <use xlink:href="#DejaVuSans-79" x="290.925781"/>
      <use xlink:href="#DejaVuSans-20" x="350.105469"/>
      <use xlink:href="#DejaVuSans-5b" x="381.892578"/>
      <use xlink:href="#DejaVuSans-54" x="420.90625"/>
      <use xlink:href="#DejaVuSans-65" x="464.990234"/>
      <use xlink:href="#DejaVuSans-56" x="526.513672"/>
      <use xlink:href="#DejaVuSans-5d" x="594.921875"/>
     </g>
    </g>
   </g>
   <g id="matplotlib.axis_4">
    <g id="ytick_10">
     <g id="line2d_63">
      <g>
       <use xlink:href="#mba9d36347e" x="77.371281" y="292.554354" style="stroke: #000000; stroke-width: 0.8"/>
      </g>
     </g>
     <g id="text_15">
      <!-- 0.4 -->
      <g transform="translate(54.468156 296.353573) scale(0.1 -0.1)">
       <use xlink:href="#DejaVuSans-30"/>
       <use xlink:href="#DejaVuSans-2e" x="63.623047"/>
       <use xlink:href="#DejaVuSans-34" x="95.410156"/>
      </g>
     </g>
    </g>
    <g id="ytick_11">
     <g id="line2d_64">
      <g>
       <use xlink:href="#mba9d36347e" x="77.371281" y="254.796222" style="stroke: #000000; stroke-width: 0.8"/>
      </g>
     </g>
     <g id="text_16">
      <!-- 0.6 -->
      <g transform="translate(54.468156 258.595441) scale(0.1 -0.1)">
       <use xlink:href="#DejaVuSans-30"/>
       <use xlink:href="#DejaVuSans-2e" x="63.623047"/>
       <use xlink:href="#DejaVuSans-36" x="95.410156"/>
      </g>
     </g>
    </g>
    <g id="ytick_12">
     <g id="line2d_65">
      <g>
       <use xlink:href="#mba9d36347e" x="77.371281" y="217.038091" style="stroke: #000000; stroke-width: 0.8"/>
      </g>
     </g>
     <g id="text_17">
      <!-- 0.8 -->
      <g transform="translate(54.468156 220.83731) scale(0.1 -0.1)">
       <defs>
        <path id="DejaVuSans-38" d="M 2034 2216 
Q 1584 2216 1326 1975 
Q 1069 1734 1069 1313 
Q 1069 891 1326 650 
Q 1584 409 2034 409 
Q 2484 409 2743 651 
Q 3003 894 3003 1313 
Q 3003 1734 2745 1975 
Q 2488 2216 2034 2216 
z
M 1403 2484 
Q 997 2584 770 2862 
Q 544 3141 544 3541 
Q 544 4100 942 4425 
Q 1341 4750 2034 4750 
Q 2731 4750 3128 4425 
Q 3525 4100 3525 3541 
Q 3525 3141 3298 2862 
Q 3072 2584 2669 2484 
Q 3125 2378 3379 2068 
Q 3634 1759 3634 1313 
Q 3634 634 3220 271 
Q 2806 -91 2034 -91 
Q 1263 -91 848 271 
Q 434 634 434 1313 
Q 434 1759 690 2068 
Q 947 2378 1403 2484 
z
M 1172 3481 
Q 1172 3119 1398 2916 
Q 1625 2713 2034 2713 
Q 2441 2713 2670 2916 
Q 2900 3119 2900 3481 
Q 2900 3844 2670 4047 
Q 2441 4250 2034 4250 
Q 1625 4250 1398 4047 
Q 1172 3844 1172 3481 
z
" transform="scale(0.015625)"/>
       </defs>
       <use xlink:href="#DejaVuSans-30"/>
       <use xlink:href="#DejaVuSans-2e" x="63.623047"/>
       <use xlink:href="#DejaVuSans-38" x="95.410156"/>
      </g>
     </g>
    </g>
    <g id="text_18">
     <!-- Coverage -->
     <g transform="translate(48.388468 284.416973) rotate(-90) scale(0.1 -0.1)">
      <defs>
       <path id="DejaVuSans-43" d="M 4122 4306 
L 4122 3641 
Q 3803 3938 3442 4084 
Q 3081 4231 2675 4231 
Q 1875 4231 1450 3742 
Q 1025 3253 1025 2328 
Q 1025 1406 1450 917 
Q 1875 428 2675 428 
Q 3081 428 3442 575 
Q 3803 722 4122 1019 
L 4122 359 
Q 3791 134 3420 21 
Q 3050 -91 2638 -91 
Q 1578 -91 968 557 
Q 359 1206 359 2328 
Q 359 3453 968 4101 
Q 1578 4750 2638 4750 
Q 3056 4750 3426 4639 
Q 3797 4528 4122 4306 
z
" transform="scale(0.015625)"/>
       <path id="DejaVuSans-6f" d="M 1959 3097 
Q 1497 3097 1228 2736 
Q 959 2375 959 1747 
Q 959 1119 1226 758 
Q 1494 397 1959 397 
Q 2419 397 2687 759 
Q 2956 1122 2956 1747 
Q 2956 2369 2687 2733 
Q 2419 3097 1959 3097 
z
M 1959 3584 
Q 2709 3584 3137 3096 
Q 3566 2609 3566 1747 
Q 3566 888 3137 398 
Q 2709 -91 1959 -91 
Q 1206 -91 779 398 
Q 353 888 353 1747 
Q 353 2609 779 3096 
Q 1206 3584 1959 3584 
z
" transform="scale(0.015625)"/>
       <path id="DejaVuSans-76" d="M 191 3500 
L 800 3500 
L 1894 563 
L 2988 3500 
L 3597 3500 
L 2284 0 
L 1503 0 
L 191 3500 
z
" transform="scale(0.015625)"/>
      </defs>
      <use xlink:href="#DejaVuSans-43"/>
      <use xlink:href="#DejaVuSans-6f" x="69.824219"/>
      <use xlink:href="#DejaVuSans-76" x="131.005859"/>
      <use xlink:href="#DejaVuSans-65" x="190.185547"/>
      <use xlink:href="#DejaVuSans-72" x="251.708984"/>
      <use xlink:href="#DejaVuSans-61" x="292.822266"/>
      <use xlink:href="#DejaVuSans-67" x="354.101562"/>
      <use xlink:href="#DejaVuSans-65" x="417.578125"/>
     </g>
    </g>
   </g>
   <g id="LineCollection_3">
    <path d="M 89.727132 293.747334 
L 89.727132 249.827429 
" clip-path="url(#p1172a8b9e6)" style="fill: none; stroke: #dc143c; stroke-width: 1.5"/>
    <path d="M 104.11991 292.803381 
L 104.11991 248.883475 
" clip-path="url(#p1172a8b9e6)" style="fill: none; stroke: #dc143c; stroke-width: 1.5"/>
    <path d="M 118.512689 288.083615 
L 118.512689 244.163709 
" clip-path="url(#p1172a8b9e6)" style="fill: none; stroke: #dc143c; stroke-width: 1.5"/>
    <path d="M 132.905467 280.531988 
L 132.905467 236.612083 
" clip-path="url(#p1172a8b9e6)" style="fill: none; stroke: #dc143c; stroke-width: 1.5"/>
    <path d="M 147.298246 266.372689 
L 147.298246 222.452783 
" clip-path="url(#p1172a8b9e6)" style="fill: none; stroke: #dc143c; stroke-width: 1.5"/>
    <path d="M 161.691024 255.04525 
L 161.691024 211.125344 
" clip-path="url(#p1172a8b9e6)" style="fill: none; stroke: #dc143c; stroke-width: 1.5"/>
    <path d="M 176.083803 257.877109 
L 176.083803 213.957204 
" clip-path="url(#p1172a8b9e6)" style="fill: none; stroke: #dc143c; stroke-width: 1.5"/>
    <path d="M 190.476581 278.644082 
L 190.476581 234.724176 
" clip-path="url(#p1172a8b9e6)" style="fill: none; stroke: #dc143c; stroke-width: 1.5"/>
    <path d="M 204.86936 288.083615 
L 204.86936 244.163709 
" clip-path="url(#p1172a8b9e6)" style="fill: none; stroke: #dc143c; stroke-width: 1.5"/>
    <path d="M 219.262138 303.186867 
L 219.262138 259.266961 
" clip-path="url(#p1172a8b9e6)" style="fill: none; stroke: #dc143c; stroke-width: 1.5"/>
    <path d="M 233.654917 305.074774 
L 233.654917 261.154868 
" clip-path="url(#p1172a8b9e6)" style="fill: none; stroke: #dc143c; stroke-width: 1.5"/>
    <path d="M 248.047695 308.850587 
L 248.047695 264.930681 
" clip-path="url(#p1172a8b9e6)" style="fill: none; stroke: #dc143c; stroke-width: 1.5"/>
    <path d="M 262.440474 309.79454 
L 262.440474 265.874634 
" clip-path="url(#p1172a8b9e6)" style="fill: none; stroke: #dc143c; stroke-width: 1.5"/>
    <path d="M 276.833252 309.79454 
L 276.833252 265.874634 
" clip-path="url(#p1172a8b9e6)" style="fill: none; stroke: #dc143c; stroke-width: 1.5"/>
    <path d="M 291.226031 309.79454 
L 291.226031 265.874634 
" clip-path="url(#p1172a8b9e6)" style="fill: none; stroke: #dc143c; stroke-width: 1.5"/>
    <path d="M 305.618809 307.906634 
L 305.618809 263.986728 
" clip-path="url(#p1172a8b9e6)" style="fill: none; stroke: #dc143c; stroke-width: 1.5"/>
    <path d="M 320.011588 307.906634 
L 320.011588 263.986728 
" clip-path="url(#p1172a8b9e6)" style="fill: none; stroke: #dc143c; stroke-width: 1.5"/>
    <path d="M 334.404366 306.96268 
L 334.404366 263.042775 
" clip-path="url(#p1172a8b9e6)" style="fill: none; stroke: #dc143c; stroke-width: 1.5"/>
   </g>
   <g id="LineCollection_4">
    <path d="M 92.166915 289.027568 
L 92.166915 245.107662 
" clip-path="url(#p1172a8b9e6)" style="fill: none; stroke: #000080; stroke-width: 1.5"/>
    <path d="M 106.559693 286.195708 
L 106.559693 242.275802 
" clip-path="url(#p1172a8b9e6)" style="fill: none; stroke: #000080; stroke-width: 1.5"/>
    <path d="M 120.952472 285.251755 
L 120.952472 241.331849 
" clip-path="url(#p1172a8b9e6)" style="fill: none; stroke: #000080; stroke-width: 1.5"/>
    <path d="M 135.34525 276.756175 
L 135.34525 232.836269 
" clip-path="url(#p1172a8b9e6)" style="fill: none; stroke: #000080; stroke-width: 1.5"/>
    <path d="M 149.738029 266.372689 
L 149.738029 222.452783 
" clip-path="url(#p1172a8b9e6)" style="fill: none; stroke: #000080; stroke-width: 1.5"/>
    <path d="M 164.130807 255.04525 
L 164.130807 211.125344 
" clip-path="url(#p1172a8b9e6)" style="fill: none; stroke: #000080; stroke-width: 1.5"/>
    <path d="M 178.523586 256.933156 
L 178.523586 213.01325 
" clip-path="url(#p1172a8b9e6)" style="fill: none; stroke: #000080; stroke-width: 1.5"/>
    <path d="M 192.916364 272.036409 
L 192.916364 228.116503 
" clip-path="url(#p1172a8b9e6)" style="fill: none; stroke: #000080; stroke-width: 1.5"/>
    <path d="M 207.309143 282.419895 
L 207.309143 238.499989 
" clip-path="url(#p1172a8b9e6)" style="fill: none; stroke: #000080; stroke-width: 1.5"/>
    <path d="M 221.701921 291.859428 
L 221.701921 247.939522 
" clip-path="url(#p1172a8b9e6)" style="fill: none; stroke: #000080; stroke-width: 1.5"/>
    <path d="M 236.0947 297.523147 
L 236.0947 253.603242 
" clip-path="url(#p1172a8b9e6)" style="fill: none; stroke: #000080; stroke-width: 1.5"/>
    <path d="M 250.487478 299.411054 
L 250.487478 255.491148 
" clip-path="url(#p1172a8b9e6)" style="fill: none; stroke: #000080; stroke-width: 1.5"/>
    <path d="M 264.880257 300.355007 
L 264.880257 256.435102 
" clip-path="url(#p1172a8b9e6)" style="fill: none; stroke: #000080; stroke-width: 1.5"/>
    <path d="M 279.273035 298.467101 
L 279.273035 254.547195 
" clip-path="url(#p1172a8b9e6)" style="fill: none; stroke: #000080; stroke-width: 1.5"/>
    <path d="M 293.665814 300.355007 
L 293.665814 256.435102 
" clip-path="url(#p1172a8b9e6)" style="fill: none; stroke: #000080; stroke-width: 1.5"/>
    <path d="M 308.058592 301.298961 
L 308.058592 257.379055 
" clip-path="url(#p1172a8b9e6)" style="fill: none; stroke: #000080; stroke-width: 1.5"/>
    <path d="M 322.451371 301.298961 
L 322.451371 257.379055 
" clip-path="url(#p1172a8b9e6)" style="fill: none; stroke: #000080; stroke-width: 1.5"/>
    <path d="M 336.844149 301.298961 
L 336.844149 257.379055 
" clip-path="url(#p1172a8b9e6)" style="fill: none; stroke: #000080; stroke-width: 1.5"/>
   </g>
   <g id="line2d_66">
    <path d="M 89.727132 239.69297 
L 104.11991 239.69297 
L 118.512689 239.69297 
L 132.905467 239.69297 
L 147.298246 239.69297 
L 161.691024 239.69297 
L 176.083803 239.69297 
L 190.476581 239.69297 
L 204.86936 239.69297 
L 219.262138 239.69297 
L 233.654917 239.69297 
L 248.047695 239.69297 
L 262.440474 239.69297 
L 276.833252 239.69297 
L 291.226031 239.69297 
L 305.618809 239.69297 
L 320.011588 239.69297 
L 334.404366 239.69297 
" clip-path="url(#p1172a8b9e6)" style="fill: none; stroke-dasharray: 1.5,2.475; stroke-dashoffset: 0; stroke: #ff8c00; stroke-width: 1.5"/>
   </g>
   <g id="line2d_67">
    <path d="M 89.727132 271.787381 
L 104.11991 270.843428 
L 118.512689 266.123662 
L 132.905467 258.572035 
L 147.298246 244.412736 
L 161.691024 233.085297 
L 176.083803 235.917157 
L 190.476581 256.684129 
L 204.86936 266.123662 
L 219.262138 281.226914 
L 233.654917 283.114821 
L 248.047695 286.890634 
L 262.440474 287.834587 
L 276.833252 287.834587 
L 291.226031 287.834587 
L 305.618809 285.946681 
L 320.011588 285.946681 
L 334.404366 285.002727 
" clip-path="url(#p1172a8b9e6)" style="fill: none; stroke: #dc143c; stroke-width: 1.5; stroke-linecap: square"/>
   </g>
   <g id="line2d_68">
    <path d="M 92.166915 267.067615 
L 106.559693 264.235755 
L 120.952472 263.291802 
L 135.34525 254.796222 
L 149.738029 244.412736 
L 164.130807 233.085297 
L 178.523586 234.973203 
L 192.916364 250.076456 
L 207.309143 260.459942 
L 221.701921 269.899475 
L 236.0947 275.563195 
L 250.487478 277.451101 
L 264.880257 278.395054 
L 279.273035 276.507148 
L 293.665814 278.395054 
L 308.058592 279.339008 
L 322.451371 279.339008 
L 336.844149 279.339008 
" clip-path="url(#p1172a8b9e6)" style="fill: none; stroke: #000080; stroke-width: 1.5; stroke-linecap: square"/>
   </g>
   <g id="patch_11">
    <path d="M 77.371281 314.728 
L 77.371281 206.191884 
" style="fill: none; stroke: #000000; stroke-width: 0.8; stroke-linejoin: miter; stroke-linecap: square"/>
   </g>
   <g id="patch_12">
    <path d="M 349.2 314.728 
L 349.2 206.191884 
" style="fill: none; stroke: #000000; stroke-width: 0.8; stroke-linejoin: miter; stroke-linecap: square"/>
   </g>
   <g id="patch_13">
    <path d="M 77.371281 314.728 
L 349.2 314.728 
" style="fill: none; stroke: #000000; stroke-width: 0.8; stroke-linejoin: miter; stroke-linecap: square"/>
   </g>
   <g id="patch_14">
    <path d="M 77.371281 206.191884 
L 349.2 206.191884 
" style="fill: none; stroke: #000000; stroke-width: 0.8; stroke-linejoin: miter; stroke-linecap: square"/>
   </g>
   <g id="legend_2">
    <g id="patch_15">
     <path d="M 84.371281 309.728 
L 258.968156 309.728 
Q 260.968156 309.728 260.968156 307.728 
L 260.968156 279.37175 
Q 260.968156 277.37175 258.968156 277.37175 
L 84.371281 277.37175 
Q 82.371281 277.37175 82.371281 279.37175 
L 82.371281 307.728 
Q 82.371281 309.728 84.371281 309.728 
z
" style="fill: #ffffff; opacity: 0.8; stroke: #cccccc; stroke-linejoin: miter"/>
    </g>
    <g id="line2d_69">
     <path d="M 86.371281 285.470188 
L 96.371281 285.470188 
L 106.371281 285.470188 
" style="fill: none; stroke-dasharray: 1.5,2.475; stroke-dashoffset: 0; stroke: #ff8c00; stroke-width: 1.5"/>
    </g>
    <g id="text_19">
     <!-- 68 % -->
     <g transform="translate(114.371281 288.970188) scale(0.1 -0.1)">
      <use xlink:href="#DejaVuSans-36"/>
      <use xlink:href="#DejaVuSans-38" x="63.623047"/>
      <use xlink:href="#DejaVuSans-20" x="127.246094"/>
      <use xlink:href="#DejaVuSans-25" x="159.033203"/>
     </g>
    </g>
    <g id="LineCollection_5">
     <path d="M 96.371281 305.148313 
L 96.371281 295.148313 
" style="fill: none; stroke: #dc143c; stroke-width: 1.5"/>
    </g>
    <g id="line2d_70">
     <path d="M 86.371281 300.148313 
L 106.371281 300.148313 
" style="fill: none; stroke: #dc143c; stroke-width: 1.5; stroke-linecap: square"/>
    </g>
    <g id="line2d_71"/>
    <g id="text_20">
     <!-- Standard  -->
     <g transform="translate(114.371281 303.648313) scale(0.1 -0.1)">
      <use xlink:href="#DejaVuSans-53"/>
      <use xlink:href="#DejaVuSans-74" x="63.476562"/>
      <use xlink:href="#DejaVuSans-61" x="102.685547"/>
      <use xlink:href="#DejaVuSans-6e" x="163.964844"/>
      <use xlink:href="#DejaVuSans-64" x="227.34375"/>
      <use xlink:href="#DejaVuSans-61" x="290.820312"/>
      <use xlink:href="#DejaVuSans-72" x="352.099609"/>
      <use xlink:href="#DejaVuSans-64" x="391.462891"/>
      <use xlink:href="#DejaVuSans-20" x="454.939453"/>
     </g>
    </g>
    <g id="LineCollection_6">
     <path d="M 193.044718 290.470188 
L 193.044718 280.470188 
" style="fill: none; stroke: #000080; stroke-width: 1.5"/>
    </g>
    <g id="line2d_72">
     <path d="M 183.044718 285.470188 
L 203.044718 285.470188 
" style="fill: none; stroke: #000080; stroke-width: 1.5; stroke-linecap: square"/>
    </g>
    <g id="line2d_73"/>
    <g id="text_21">
     <!-- Nuisance -->
     <g transform="translate(211.044718 288.970188) scale(0.1 -0.1)">
      <use xlink:href="#DejaVuSans-4e"/>
      <use xlink:href="#DejaVuSans-75" x="74.804688"/>
      <use xlink:href="#DejaVuSans-69" x="138.183594"/>
      <use xlink:href="#DejaVuSans-73" x="165.966797"/>
      <use xlink:href="#DejaVuSans-61" x="218.066406"/>
      <use xlink:href="#DejaVuSans-6e" x="279.345703"/>
      <use xlink:href="#DejaVuSans-63" x="342.724609"/>
      <use xlink:href="#DejaVuSans-65" x="397.705078"/>
     </g>
    </g>
   </g>
  </g>
 </g>
 <defs>
  <clipPath id="p486f2b813c">
   <rect x="77.371281" y="25.44" width="271.828719" height="162.804174"/>
  </clipPath>
  <clipPath id="p1172a8b9e6">
   <rect x="77.371281" y="206.191884" width="271.828719" height="108.536116"/>
  </clipPath>
 </defs>
</svg>
