<?xml version="1.0" encoding="utf-8" standalone="no"?>
<!DOCTYPE svg PUBLIC "-//W3C//DTD SVG 1.1//EN"
  "http://www.w3.org/Graphics/SVG/1.1/DTD/svg11.dtd">
<svg xmlns:xlink="http://www.w3.org/1999/xlink" width="360pt" height="288pt" viewBox="0 0 360 288" xmlns="http://www.w3.org/2000/svg" version="1.1">
 <metadata>
  <rdf:RDF xmlns:dc="http://purl.org/dc/elements/1.1/" xmlns:cc="http://creativecommons.org/ns#" xmlns:rdf="http://www.w3.org/1999/02/22-rdf-syntax-ns#">
   <cc:Work>
    <dc:type rdf:resource="http://purl.org/dc/dcmitype/StillImage"/>
    <dc:date>2023-03-24T14:49:15.789370</dc:date>
    <dc:format>image/svg+xml</dc:format>
    <dc:creator>
     <cc:Agent>
      <dc:title>Matplotlib v3.6.3, https://matplotlib.org/</dc:title>
     </cc:Agent>
    </dc:creator>
   </cc:Work>
  </rdf:RDF>
 </metadata>
 <defs>
  <style type="text/css">*{stroke-linejoin: round; stroke-linecap: butt}</style>
 </defs>
 <g id="figure_1">
  <g id="patch_1">
   <path d="M 0 288 
L 360 288 
L 360 0 
L 0 0 
z
" style="fill: #ffffff"/>
  </g>
  <g id="axes_1">
   <g id="patch_2">
    <path d="M 60.221389 242.728 
L 346.019943 242.728 
L 346.019943 10.8 
L 60.221389 10.8 
z
" style="fill: #ffffff"/>
   </g>
   <g id="PolyCollection_1">
    <path d="M 73.212233 21.342182 
L 73.212233 62.874441 
L 75.836645 64.195547 
L 78.461058 65.520771 
L 81.085471 66.850173 
L 83.709884 68.183818 
L 86.334297 69.521775 
L 88.958709 70.864119 
L 91.583122 72.210931 
L 94.207535 73.562296 
L 96.831948 74.918308 
L 99.456361 76.279065 
L 102.080773 77.644672 
L 104.705186 79.015243 
L 107.329599 80.390898 
L 109.954012 81.771764 
L 112.578425 83.157976 
L 115.202837 84.54968 
L 117.82725 85.947028 
L 120.451663 87.350181 
L 123.076076 88.75931 
L 125.700489 90.174595 
L 128.324901 91.596227 
L 130.949314 93.024405 
L 133.573727 94.459338 
L 136.19814 95.901246 
L 138.822553 97.350358 
L 141.446965 98.806912 
L 144.071378 100.271158 
L 146.695791 101.743352 
L 149.320204 103.223759 
L 151.944616 104.712653 
L 154.569029 106.210314 
L 157.193442 107.717028 
L 159.817855 109.233083 
L 162.442268 110.758772 
L 165.06668 112.294389 
L 167.691093 113.840226 
L 170.315506 115.396571 
L 172.939919 116.963708 
L 175.564332 118.541912 
L 178.188744 120.131445 
L 180.813157 121.732559 
L 183.43757 123.345486 
L 186.061983 124.970439 
L 188.686396 126.607609 
L 191.310808 128.257164 
L 193.935221 129.919242 
L 196.559634 131.593953 
L 199.184047 133.281377 
L 201.80846 134.98156 
L 204.432872 136.694518 
L 207.057285 138.420231 
L 209.681698 140.15865 
L 212.306111 141.90969 
L 214.930524 143.67324 
L 217.554936 145.449155 
L 220.179349 147.237267 
L 222.803762 149.037383 
L 225.428175 150.849285 
L 228.052588 152.672739 
L 230.677 154.507494 
L 233.301413 156.353285 
L 235.925826 158.209834 
L 238.550239 160.07686 
L 241.174651 161.954071 
L 243.799064 163.841176 
L 246.423477 165.737882 
L 249.04789 167.643897 
L 251.672303 169.55893 
L 254.296715 171.482697 
L 256.921128 173.414919 
L 259.545541 175.355324 
L 262.169954 177.303647 
L 264.794367 179.259631 
L 267.418779 181.22303 
L 270.043192 183.193606 
L 272.667605 185.171131 
L 275.292018 187.155387 
L 277.916431 189.146164 
L 280.540843 191.143265 
L 283.165256 193.146502 
L 285.789669 195.155693 
L 288.414082 197.170671 
L 291.038495 199.191275 
L 293.662907 201.217352 
L 296.28732 203.248759 
L 298.911733 205.285363 
L 301.536146 207.327035 
L 304.160559 209.373657 
L 306.784971 211.425117 
L 309.409384 213.48131 
L 312.033797 215.542137 
L 314.65821 217.607508 
L 317.282622 219.677337 
L 319.907035 221.751543 
L 322.531448 223.830052 
L 325.155861 225.912796 
L 327.780274 227.99971 
L 330.404686 230.090736 
L 333.029099 232.185818 
L 333.029099 189.955503 
L 333.029099 189.955503 
L 330.404686 188.487854 
L 327.780274 187.019456 
L 325.155861 185.550235 
L 322.531448 184.080119 
L 319.907035 182.609025 
L 317.282622 181.136871 
L 314.65821 179.663567 
L 312.033797 178.189018 
L 309.409384 176.713125 
L 306.784971 175.235782 
L 304.160559 173.756878 
L 301.536146 172.276295 
L 298.911733 170.793908 
L 296.28732 169.309586 
L 293.662907 167.82319 
L 291.038495 166.334575 
L 288.414082 164.843585 
L 285.789669 163.350059 
L 283.165256 161.853826 
L 280.540843 160.354705 
L 277.916431 158.852508 
L 275.292018 157.347037 
L 272.667605 155.838084 
L 270.043192 154.325432 
L 267.418779 152.808856 
L 264.794367 151.288118 
L 262.169954 149.762974 
L 259.545541 148.233169 
L 256.921128 146.698439 
L 254.296715 145.158514 
L 251.672303 143.613115 
L 249.04789 142.061957 
L 246.423477 140.50475 
L 243.799064 138.941197 
L 241.174651 137.371004 
L 238.550239 135.79387 
L 235.925826 134.2095 
L 233.301413 132.6176 
L 230.677 131.017882 
L 228.052588 129.410067 
L 225.428175 127.793887 
L 222.803762 126.169088 
L 220.179349 124.53543 
L 217.554936 122.892698 
L 214.930524 121.240694 
L 212.306111 119.579247 
L 209.681698 117.908214 
L 207.057285 116.227481 
L 204.432872 114.536963 
L 201.80846 112.836609 
L 199.184047 111.126401 
L 196.559634 109.406354 
L 193.935221 107.676515 
L 191.310808 105.936963 
L 188.686396 104.187811 
L 186.061983 102.429199 
L 183.43757 100.661294 
L 180.813157 98.88429 
L 178.188744 97.098402 
L 175.564332 95.303867 
L 172.939919 93.500936 
L 170.315506 91.689877 
L 167.691093 89.870968 
L 165.06668 88.044495 
L 162.442268 86.210752 
L 159.817855 84.370035 
L 157.193442 82.522642 
L 154.569029 80.668871 
L 151.944616 78.809016 
L 149.320204 76.943369 
L 146.695791 75.072215 
L 144.071378 73.195834 
L 141.446965 71.314499 
L 138.822553 69.428472 
L 136.19814 67.53801 
L 133.573727 65.64336 
L 130.949314 63.744757 
L 128.324901 61.84243 
L 125.700489 59.936597 
L 123.076076 58.027466 
L 120.451663 56.115237 
L 117.82725 54.2001 
L 115.202837 52.282234 
L 112.578425 50.361813 
L 109.954012 48.438999 
L 107.329599 46.513948 
L 104.705186 44.586807 
L 102.080773 42.657715 
L 99.456361 40.726804 
L 96.831948 38.794201 
L 94.207535 36.860023 
L 91.583122 34.924382 
L 88.958709 32.987385 
L 86.334297 31.049133 
L 83.709884 29.109719 
L 81.085471 27.169235 
L 78.461058 25.227764 
L 75.836645 23.285388 
L 73.212233 21.342182 
z
" clip-path="url(#pa3a409ac2e)" style="fill: #008000; fill-opacity: 0.5"/>
   </g>
   <g id="PolyCollection_2">
    <path d="M 73.212233 23.646935 
L 73.212233 59.087699 
L 75.836645 60.37852 
L 78.461058 61.672267 
L 81.085471 62.968963 
L 83.709884 64.268632 
L 86.334297 65.571304 
L 88.958709 66.877015 
L 91.583122 68.185804 
L 94.207535 69.497714 
L 96.831948 70.812798 
L 99.456361 72.131113 
L 102.080773 73.452722 
L 104.705186 74.777699 
L 107.329599 76.106124 
L 109.954012 77.438089 
L 112.578425 78.773694 
L 115.202837 80.113053 
L 117.82725 81.456294 
L 120.451663 82.803557 
L 123.076076 84.155 
L 125.700489 85.510801 
L 128.324901 86.871154 
L 130.949314 88.236281 
L 133.573727 89.606427 
L 136.19814 90.981866 
L 138.822553 92.362904 
L 141.446965 93.749883 
L 144.071378 95.143184 
L 146.695791 96.543234 
L 149.320204 97.950508 
L 151.944616 99.365534 
L 154.569029 100.788902 
L 157.193442 102.221265 
L 159.817855 103.663342 
L 162.442268 105.115931 
L 165.06668 106.579901 
L 167.691093 108.056199 
L 170.315506 109.545847 
L 172.939919 111.049936 
L 175.564332 112.569613 
L 178.188744 114.106068 
L 180.813157 115.660506 
L 183.43757 117.234121 
L 186.061983 118.828055 
L 188.686396 120.443357 
L 191.310808 122.080935 
L 193.935221 123.741516 
L 196.559634 125.425602 
L 199.184047 127.133447 
L 201.80846 128.865036 
L 204.432872 130.620093 
L 207.057285 132.39809 
L 209.681698 134.19828 
L 212.306111 136.01974 
L 214.930524 137.861409 
L 217.554936 139.722139 
L 220.179349 141.600733 
L 222.803762 143.495986 
L 225.428175 145.406711 
L 228.052588 147.331765 
L 230.677 149.270066 
L 233.301413 151.220597 
L 235.925826 153.18242 
L 238.550239 155.154671 
L 241.174651 157.136564 
L 243.799064 159.127382 
L 246.423477 161.126481 
L 249.04789 163.133278 
L 251.672303 165.147248 
L 254.296715 167.167923 
L 256.921128 169.19488 
L 259.545541 171.227743 
L 262.169954 173.266172 
L 264.794367 175.309865 
L 267.418779 177.358551 
L 270.043192 179.411987 
L 272.667605 181.469956 
L 275.292018 183.532264 
L 277.916431 185.598734 
L 280.540843 187.669212 
L 283.165256 189.743558 
L 285.789669 191.821645 
L 288.414082 193.903363 
L 291.038495 195.98861 
L 293.662907 198.077296 
L 296.28732 200.169341 
L 298.911733 202.264675 
L 301.536146 204.363232 
L 304.160559 206.464957 
L 306.784971 208.569799 
L 309.409384 210.677714 
L 312.033797 212.788663 
L 314.65821 214.902612 
L 317.282622 217.019531 
L 319.907035 219.139396 
L 322.531448 221.262184 
L 325.155861 223.387878 
L 327.780274 225.516462 
L 330.404686 227.647925 
L 333.029099 229.782257 
L 333.029099 191.481389 
L 333.029099 191.481389 
L 330.404686 190.048875 
L 327.780274 188.616765 
L 325.155861 187.185035 
L 322.531448 185.753655 
L 319.907035 184.322596 
L 317.282622 182.891822 
L 314.65821 181.461299 
L 312.033797 180.030985 
L 309.409384 178.600837 
L 306.784971 177.170807 
L 304.160559 175.740842 
L 301.536146 174.310886 
L 298.911733 172.880875 
L 296.28732 171.450739 
L 293.662907 170.020405 
L 291.038495 168.589787 
L 288.414082 167.158796 
L 285.789669 165.727329 
L 283.165256 164.295277 
L 280.540843 162.862516 
L 277.916431 161.428911 
L 275.292018 159.994313 
L 272.667605 158.558557 
L 270.043192 157.121459 
L 267.418779 155.682816 
L 264.794367 154.242402 
L 262.169954 152.799966 
L 259.545541 151.355231 
L 256.921128 149.907886 
L 254.296715 148.457586 
L 251.672303 147.003947 
L 249.04789 145.546541 
L 246.423477 144.084892 
L 243.799064 142.61847 
L 241.174651 141.146689 
L 238.550239 139.668896 
L 235.925826 138.184374 
L 233.301413 136.692328 
L 230.677 135.191893 
L 228.052588 133.682125 
L 225.428175 132.162006 
L 222.803762 130.630449 
L 220.179349 129.086307 
L 217.554936 127.528393 
L 214.930524 125.955498 
L 212.306111 124.366423 
L 209.681698 122.760019 
L 207.057285 121.135224 
L 204.432872 119.491112 
L 201.80846 117.826936 
L 199.184047 116.142168 
L 196.559634 114.436531 
L 193.935221 112.71001 
L 191.310808 110.962859 
L 188.686396 109.195582 
L 186.061983 107.408905 
L 183.43757 105.603738 
L 180.813157 103.781132 
L 178.188744 101.942231 
L 175.564332 100.088229 
L 172.939919 98.220334 
L 170.315506 96.33974 
L 167.691093 94.447597 
L 165.06668 92.544997 
L 162.442268 90.632967 
L 159.817855 88.712458 
L 157.193442 86.784343 
L 154.569029 84.849423 
L 151.944616 82.908424 
L 149.320204 80.962003 
L 146.695791 79.010754 
L 144.071378 77.055212 
L 141.446965 75.095858 
L 138.822553 73.133125 
L 136.19814 71.1674 
L 133.573727 69.199032 
L 130.949314 67.228335 
L 128.324901 65.255591 
L 125.700489 63.281052 
L 123.076076 61.304946 
L 120.451663 59.32748 
L 117.82725 57.348837 
L 115.202837 55.369185 
L 112.578425 53.388675 
L 109.954012 51.407444 
L 107.329599 49.425615 
L 104.705186 47.443301 
L 102.080773 45.460602 
L 99.456361 43.477612 
L 96.831948 41.494415 
L 94.207535 39.511086 
L 91.583122 37.527696 
L 88.958709 35.544307 
L 86.334297 33.560979 
L 83.709884 31.577763 
L 81.085471 29.594709 
L 78.461058 27.611859 
L 75.836645 25.629256 
L 73.212233 23.646935 
z
" clip-path="url(#pa3a409ac2e)" style="fill: #ffb6c1; fill-opacity: 0.9"/>
   </g>
   <g id="matplotlib.axis_1">
    <g id="xtick_1">
     <g id="line2d_1">
      <defs>
       <path id="m4185588171" d="M 0 0 
L 0 3.5 
" style="stroke: #000000; stroke-width: 0.8"/>
      </defs>
      <g>
       <use xlink:href="#m4185588171" x="66.194781" y="242.728" style="stroke: #000000; stroke-width: 0.8"/>
      </g>
     </g>
     <g id="text_1">
      <!-- $\mathdefault{10^{-1}}$ -->
      <g transform="translate(54.444781 257.326437) scale(0.1 -0.1)">
       <defs>
        <path id="DejaVuSans-31" d="M 794 531 
L 1825 531 
L 1825 4091 
L 703 3866 
L 703 4441 
L 1819 4666 
L 2450 4666 
L 2450 531 
L 3481 531 
L 3481 0 
L 794 0 
L 794 531 
z
" transform="scale(0.015625)"/>
        <path id="DejaVuSans-30" d="M 2034 4250 
Q 1547 4250 1301 3770 
Q 1056 3291 1056 2328 
Q 1056 1369 1301 889 
Q 1547 409 2034 409 
Q 2525 409 2770 889 
Q 3016 1369 3016 2328 
Q 3016 3291 2770 3770 
Q 2525 4250 2034 4250 
z
M 2034 4750 
Q 2819 4750 3233 4129 
Q 3647 3509 3647 2328 
Q 3647 1150 3233 529 
Q 2819 -91 2034 -91 
Q 1250 -91 836 529 
Q 422 1150 422 2328 
Q 422 3509 836 4129 
Q 1250 4750 2034 4750 
z
" transform="scale(0.015625)"/>
        <path id="DejaVuSans-2212" d="M 678 2272 
L 4684 2272 
L 4684 1741 
L 678 1741 
L 678 2272 
z
" transform="scale(0.015625)"/>
       </defs>
       <use xlink:href="#DejaVuSans-31" transform="translate(0 0.684375)"/>
       <use xlink:href="#DejaVuSans-30" transform="translate(63.623047 0.684375)"/>
       <use xlink:href="#DejaVuSans-2212" transform="translate(128.203125 38.965625) scale(0.7)"/>
       <use xlink:href="#DejaVuSans-31" transform="translate(186.855469 38.965625) scale(0.7)"/>
      </g>
     </g>
    </g>
    <g id="xtick_2">
     <g id="line2d_2">
      <g>
       <use xlink:href="#m4185588171" x="157.478704" y="242.728" style="stroke: #000000; stroke-width: 0.8"/>
      </g>
     </g>
     <g id="text_2">
      <!-- $\mathdefault{10^{0}}$ -->
      <g transform="translate(148.678704 257.326437) scale(0.1 -0.1)">
       <use xlink:href="#DejaVuSans-31" transform="translate(0 0.765625)"/>
       <use xlink:href="#DejaVuSans-30" transform="translate(63.623047 0.765625)"/>
       <use xlink:href="#DejaVuSans-30" transform="translate(128.203125 39.046875) scale(0.7)"/>
      </g>
     </g>
    </g>
    <g id="xtick_3">
     <g id="line2d_3">
      <g>
       <use xlink:href="#m4185588171" x="248.762628" y="242.728" style="stroke: #000000; stroke-width: 0.8"/>
      </g>
     </g>
     <g id="text_3">
      <!-- $\mathdefault{10^{1}}$ -->
      <g transform="translate(239.962628 257.326437) scale(0.1 -0.1)">
       <use xlink:href="#DejaVuSans-31" transform="translate(0 0.684375)"/>
       <use xlink:href="#DejaVuSans-30" transform="translate(63.623047 0.684375)"/>
       <use xlink:href="#DejaVuSans-31" transform="translate(128.203125 38.965625) scale(0.7)"/>
      </g>
     </g>
    </g>
    <g id="xtick_4">
     <g id="line2d_4">
      <g>
       <use xlink:href="#m4185588171" x="340.046551" y="242.728" style="stroke: #000000; stroke-width: 0.8"/>
      </g>
     </g>
     <g id="text_4">
      <!-- $\mathdefault{10^{2}}$ -->
      <g transform="translate(331.246551 257.326437) scale(0.1 -0.1)">
       <defs>
        <path id="DejaVuSans-32" d="M 1228 531 
L 3431 531 
L 3431 0 
L 469 0 
L 469 531 
Q 828 903 1448 1529 
Q 2069 2156 2228 2338 
Q 2531 2678 2651 2914 
Q 2772 3150 2772 3378 
Q 2772 3750 2511 3984 
Q 2250 4219 1831 4219 
Q 1534 4219 1204 4116 
Q 875 4013 500 3803 
L 500 4441 
Q 881 4594 1212 4672 
Q 1544 4750 1819 4750 
Q 2544 4750 2975 4387 
Q 3406 4025 3406 3419 
Q 3406 3131 3298 2873 
Q 3191 2616 2906 2266 
Q 2828 2175 2409 1742 
Q 1991 1309 1228 531 
z
" transform="scale(0.015625)"/>
       </defs>
       <use xlink:href="#DejaVuSans-31" transform="translate(0 0.765625)"/>
       <use xlink:href="#DejaVuSans-30" transform="translate(63.623047 0.765625)"/>
       <use xlink:href="#DejaVuSans-32" transform="translate(128.203125 39.046875) scale(0.7)"/>
      </g>
     </g>
    </g>
    <g id="xtick_5">
     <g id="line2d_5">
      <defs>
       <path id="m1f854f8e7d" d="M 0 0 
L 0 2 
" style="stroke: #000000; stroke-width: 0.6"/>
      </defs>
      <g>
       <use xlink:href="#m1f854f8e7d" x="62.017858" y="242.728" style="stroke: #000000; stroke-width: 0.6"/>
      </g>
     </g>
    </g>
    <g id="xtick_6">
     <g id="line2d_6">
      <g>
       <use xlink:href="#m1f854f8e7d" x="93.67398" y="242.728" style="stroke: #000000; stroke-width: 0.6"/>
      </g>
     </g>
    </g>
    <g id="xtick_7">
     <g id="line2d_7">
      <g>
       <use xlink:href="#m1f854f8e7d" x="109.748281" y="242.728" style="stroke: #000000; stroke-width: 0.6"/>
      </g>
     </g>
    </g>
    <g id="xtick_8">
     <g id="line2d_8">
      <g>
       <use xlink:href="#m1f854f8e7d" x="121.153179" y="242.728" style="stroke: #000000; stroke-width: 0.6"/>
      </g>
     </g>
    </g>
    <g id="xtick_9">
     <g id="line2d_9">
      <g>
       <use xlink:href="#m1f854f8e7d" x="129.999505" y="242.728" style="stroke: #000000; stroke-width: 0.6"/>
      </g>
     </g>
    </g>
    <g id="xtick_10">
     <g id="line2d_10">
      <g>
       <use xlink:href="#m1f854f8e7d" x="137.22748" y="242.728" style="stroke: #000000; stroke-width: 0.6"/>
      </g>
     </g>
    </g>
    <g id="xtick_11">
     <g id="line2d_11">
      <g>
       <use xlink:href="#m1f854f8e7d" x="143.338646" y="242.728" style="stroke: #000000; stroke-width: 0.6"/>
      </g>
     </g>
    </g>
    <g id="xtick_12">
     <g id="line2d_12">
      <g>
       <use xlink:href="#m1f854f8e7d" x="148.632378" y="242.728" style="stroke: #000000; stroke-width: 0.6"/>
      </g>
     </g>
    </g>
    <g id="xtick_13">
     <g id="line2d_13">
      <g>
       <use xlink:href="#m1f854f8e7d" x="153.301781" y="242.728" style="stroke: #000000; stroke-width: 0.6"/>
      </g>
     </g>
    </g>
    <g id="xtick_14">
     <g id="line2d_14">
      <g>
       <use xlink:href="#m1f854f8e7d" x="184.957903" y="242.728" style="stroke: #000000; stroke-width: 0.6"/>
      </g>
     </g>
    </g>
    <g id="xtick_15">
     <g id="line2d_15">
      <g>
       <use xlink:href="#m1f854f8e7d" x="201.032204" y="242.728" style="stroke: #000000; stroke-width: 0.6"/>
      </g>
     </g>
    </g>
    <g id="xtick_16">
     <g id="line2d_16">
      <g>
       <use xlink:href="#m1f854f8e7d" x="212.437102" y="242.728" style="stroke: #000000; stroke-width: 0.6"/>
      </g>
     </g>
    </g>
    <g id="xtick_17">
     <g id="line2d_17">
      <g>
       <use xlink:href="#m1f854f8e7d" x="221.283429" y="242.728" style="stroke: #000000; stroke-width: 0.6"/>
      </g>
     </g>
    </g>
    <g id="xtick_18">
     <g id="line2d_18">
      <g>
       <use xlink:href="#m1f854f8e7d" x="228.511403" y="242.728" style="stroke: #000000; stroke-width: 0.6"/>
      </g>
     </g>
    </g>
    <g id="xtick_19">
     <g id="line2d_19">
      <g>
       <use xlink:href="#m1f854f8e7d" x="234.622569" y="242.728" style="stroke: #000000; stroke-width: 0.6"/>
      </g>
     </g>
    </g>
    <g id="xtick_20">
     <g id="line2d_20">
      <g>
       <use xlink:href="#m1f854f8e7d" x="239.916301" y="242.728" style="stroke: #000000; stroke-width: 0.6"/>
      </g>
     </g>
    </g>
    <g id="xtick_21">
     <g id="line2d_21">
      <g>
       <use xlink:href="#m1f854f8e7d" x="244.585704" y="242.728" style="stroke: #000000; stroke-width: 0.6"/>
      </g>
     </g>
    </g>
    <g id="xtick_22">
     <g id="line2d_22">
      <g>
       <use xlink:href="#m1f854f8e7d" x="276.241827" y="242.728" style="stroke: #000000; stroke-width: 0.6"/>
      </g>
     </g>
    </g>
    <g id="xtick_23">
     <g id="line2d_23">
      <g>
       <use xlink:href="#m1f854f8e7d" x="292.316128" y="242.728" style="stroke: #000000; stroke-width: 0.6"/>
      </g>
     </g>
    </g>
    <g id="xtick_24">
     <g id="line2d_24">
      <g>
       <use xlink:href="#m1f854f8e7d" x="303.721026" y="242.728" style="stroke: #000000; stroke-width: 0.6"/>
      </g>
     </g>
    </g>
    <g id="xtick_25">
     <g id="line2d_25">
      <g>
       <use xlink:href="#m1f854f8e7d" x="312.567352" y="242.728" style="stroke: #000000; stroke-width: 0.6"/>
      </g>
     </g>
    </g>
    <g id="xtick_26">
     <g id="line2d_26">
      <g>
       <use xlink:href="#m1f854f8e7d" x="319.795327" y="242.728" style="stroke: #000000; stroke-width: 0.6"/>
      </g>
     </g>
    </g>
    <g id="xtick_27">
     <g id="line2d_27">
      <g>
       <use xlink:href="#m1f854f8e7d" x="325.906492" y="242.728" style="stroke: #000000; stroke-width: 0.6"/>
      </g>
     </g>
    </g>
    <g id="xtick_28">
     <g id="line2d_28">
      <g>
       <use xlink:href="#m1f854f8e7d" x="331.200225" y="242.728" style="stroke: #000000; stroke-width: 0.6"/>
      </g>
     </g>
    </g>
    <g id="xtick_29">
     <g id="line2d_29">
      <g>
       <use xlink:href="#m1f854f8e7d" x="335.869628" y="242.728" style="stroke: #000000; stroke-width: 0.6"/>
      </g>
     </g>
    </g>
    <g id="text_5">
     <!-- Energy [TeV] -->
     <g transform="translate(171.42301 271.004562) scale(0.1 -0.1)">
      <defs>
       <path id="DejaVuSans-45" d="M 628 4666 
L 3578 4666 
L 3578 4134 
L 1259 4134 
L 1259 2753 
L 3481 2753 
L 3481 2222 
L 1259 2222 
L 1259 531 
L 3634 531 
L 3634 0 
L 628 0 
L 628 4666 
z
" transform="scale(0.015625)"/>
       <path id="DejaVuSans-6e" d="M 3513 2113 
L 3513 0 
L 2938 0 
L 2938 2094 
Q 2938 2591 2744 2837 
Q 2550 3084 2163 3084 
Q 1697 3084 1428 2787 
Q 1159 2491 1159 1978 
L 1159 0 
L 581 0 
L 581 3500 
L 1159 3500 
L 1159 2956 
Q 1366 3272 1645 3428 
Q 1925 3584 2291 3584 
Q 2894 3584 3203 3211 
Q 3513 2838 3513 2113 
z
" transform="scale(0.015625)"/>
       <path id="DejaVuSans-65" d="M 3597 1894 
L 3597 1613 
L 953 1613 
Q 991 1019 1311 708 
Q 1631 397 2203 397 
Q 2534 397 2845 478 
Q 3156 559 3463 722 
L 3463 178 
Q 3153 47 2828 -22 
Q 2503 -91 2169 -91 
Q 1331 -91 842 396 
Q 353 884 353 1716 
Q 353 2575 817 3079 
Q 1281 3584 2069 3584 
Q 2775 3584 3186 3129 
Q 3597 2675 3597 1894 
z
M 3022 2063 
Q 3016 2534 2758 2815 
Q 2500 3097 2075 3097 
Q 1594 3097 1305 2825 
Q 1016 2553 972 2059 
L 3022 2063 
z
" transform="scale(0.015625)"/>
       <path id="DejaVuSans-72" d="M 2631 2963 
Q 2534 3019 2420 3045 
Q 2306 3072 2169 3072 
Q 1681 3072 1420 2755 
Q 1159 2438 1159 1844 
L 1159 0 
L 581 0 
L 581 3500 
L 1159 3500 
L 1159 2956 
Q 1341 3275 1631 3429 
Q 1922 3584 2338 3584 
Q 2397 3584 2469 3576 
Q 2541 3569 2628 3553 
L 2631 2963 
z
" transform="scale(0.015625)"/>
       <path id="DejaVuSans-67" d="M 2906 1791 
Q 2906 2416 2648 2759 
Q 2391 3103 1925 3103 
Q 1463 3103 1205 2759 
Q 947 2416 947 1791 
Q 947 1169 1205 825 
Q 1463 481 1925 481 
Q 2391 481 2648 825 
Q 2906 1169 2906 1791 
z
M 3481 434 
Q 3481 -459 3084 -895 
Q 2688 -1331 1869 -1331 
Q 1566 -1331 1297 -1286 
Q 1028 -1241 775 -1147 
L 775 -588 
Q 1028 -725 1275 -790 
Q 1522 -856 1778 -856 
Q 2344 -856 2625 -561 
Q 2906 -266 2906 331 
L 2906 616 
Q 2728 306 2450 153 
Q 2172 0 1784 0 
Q 1141 0 747 490 
Q 353 981 353 1791 
Q 353 2603 747 3093 
Q 1141 3584 1784 3584 
Q 2172 3584 2450 3431 
Q 2728 3278 2906 2969 
L 2906 3500 
L 3481 3500 
L 3481 434 
z
" transform="scale(0.015625)"/>
       <path id="DejaVuSans-79" d="M 2059 -325 
Q 1816 -950 1584 -1140 
Q 1353 -1331 966 -1331 
L 506 -1331 
L 506 -850 
L 844 -850 
Q 1081 -850 1212 -737 
Q 1344 -625 1503 -206 
L 1606 56 
L 191 3500 
L 800 3500 
L 1894 763 
L 2988 3500 
L 3597 3500 
L 2059 -325 
z
" transform="scale(0.015625)"/>
       <path id="DejaVuSans-20" transform="scale(0.015625)"/>
       <path id="DejaVuSans-5b" d="M 550 4863 
L 1875 4863 
L 1875 4416 
L 1125 4416 
L 1125 -397 
L 1875 -397 
L 1875 -844 
L 550 -844 
L 550 4863 
z
" transform="scale(0.015625)"/>
       <path id="DejaVuSans-54" d="M -19 4666 
L 3928 4666 
L 3928 4134 
L 2272 4134 
L 2272 0 
L 1638 0 
L 1638 4134 
L -19 4134 
L -19 4666 
z
" transform="scale(0.015625)"/>
       <path id="DejaVuSans-56" d="M 1831 0 
L 50 4666 
L 709 4666 
L 2188 738 
L 3669 4666 
L 4325 4666 
L 2547 0 
L 1831 0 
z
" transform="scale(0.015625)"/>
       <path id="DejaVuSans-5d" d="M 1947 4863 
L 1947 -844 
L 622 -844 
L 622 -397 
L 1369 -397 
L 1369 4416 
L 622 4416 
L 622 4863 
L 1947 4863 
z
" transform="scale(0.015625)"/>
      </defs>
      <use xlink:href="#DejaVuSans-45"/>
      <use xlink:href="#DejaVuSans-6e" x="63.183594"/>
      <use xlink:href="#DejaVuSans-65" x="126.5625"/>
      <use xlink:href="#DejaVuSans-72" x="188.085938"/>
      <use xlink:href="#DejaVuSans-67" x="227.449219"/>
      <use xlink:href="#DejaVuSans-79" x="290.925781"/>
      <use xlink:href="#DejaVuSans-20" x="350.105469"/>
      <use xlink:href="#DejaVuSans-5b" x="381.892578"/>
      <use xlink:href="#DejaVuSans-54" x="420.90625"/>
      <use xlink:href="#DejaVuSans-65" x="464.990234"/>
      <use xlink:href="#DejaVuSans-56" x="526.513672"/>
      <use xlink:href="#DejaVuSans-5d" x="594.921875"/>
     </g>
    </g>
   </g>
   <g id="matplotlib.axis_2">
    <g id="ytick_1">
     <g id="line2d_30">
      <defs>
       <path id="m0d803cb188" d="M 0 0 
L -3.5 0 
" style="stroke: #000000; stroke-width: 0.8"/>
      </defs>
      <g>
       <use xlink:href="#m0d803cb188" x="60.221389" y="94.600631" style="stroke: #000000; stroke-width: 0.8"/>
      </g>
     </g>
     <g id="text_6">
      <!-- $\mathdefault{10^{-12}}$ -->
      <g transform="translate(25.321389 98.39985) scale(0.1 -0.1)">
       <use xlink:href="#DejaVuSans-31" transform="translate(0 0.765625)"/>
       <use xlink:href="#DejaVuSans-30" transform="translate(63.623047 0.765625)"/>
       <use xlink:href="#DejaVuSans-2212" transform="translate(128.203125 39.046875) scale(0.7)"/>
       <use xlink:href="#DejaVuSans-31" transform="translate(186.855469 39.046875) scale(0.7)"/>
       <use xlink:href="#DejaVuSans-32" transform="translate(231.391602 39.046875) scale(0.7)"/>
      </g>
     </g>
    </g>
    <g id="ytick_2">
     <g id="line2d_31">
      <defs>
       <path id="me3d9fa287a" d="M 0 0 
L -2 0 
" style="stroke: #000000; stroke-width: 0.6"/>
      </defs>
      <g>
       <use xlink:href="#me3d9fa287a" x="60.221389" y="231.966564" style="stroke: #000000; stroke-width: 0.6"/>
      </g>
     </g>
    </g>
    <g id="ytick_3">
     <g id="line2d_32">
      <g>
       <use xlink:href="#me3d9fa287a" x="60.221389" y="197.360014" style="stroke: #000000; stroke-width: 0.6"/>
      </g>
     </g>
    </g>
    <g id="ytick_4">
     <g id="line2d_33">
      <g>
       <use xlink:href="#me3d9fa287a" x="60.221389" y="172.806277" style="stroke: #000000; stroke-width: 0.6"/>
      </g>
     </g>
    </g>
    <g id="ytick_5">
     <g id="line2d_34">
      <g>
       <use xlink:href="#me3d9fa287a" x="60.221389" y="153.760918" style="stroke: #000000; stroke-width: 0.6"/>
      </g>
     </g>
    </g>
    <g id="ytick_6">
     <g id="line2d_35">
      <g>
       <use xlink:href="#me3d9fa287a" x="60.221389" y="138.199727" style="stroke: #000000; stroke-width: 0.6"/>
      </g>
     </g>
    </g>
    <g id="ytick_7">
     <g id="line2d_36">
      <g>
       <use xlink:href="#me3d9fa287a" x="60.221389" y="125.042928" style="stroke: #000000; stroke-width: 0.6"/>
      </g>
     </g>
    </g>
    <g id="ytick_8">
     <g id="line2d_37">
      <g>
       <use xlink:href="#me3d9fa287a" x="60.221389" y="113.64599" style="stroke: #000000; stroke-width: 0.6"/>
      </g>
     </g>
    </g>
    <g id="ytick_9">
     <g id="line2d_38">
      <g>
       <use xlink:href="#me3d9fa287a" x="60.221389" y="103.593178" style="stroke: #000000; stroke-width: 0.6"/>
      </g>
     </g>
    </g>
    <g id="ytick_10">
     <g id="line2d_39">
      <g>
       <use xlink:href="#me3d9fa287a" x="60.221389" y="35.440344" style="stroke: #000000; stroke-width: 0.6"/>
      </g>
     </g>
    </g>
    <g id="text_7">
     <!-- e2 * dnde [TeV / (cm2 s)] -->
     <g transform="translate(19.241702 189.243688) rotate(-90) scale(0.1 -0.1)">
      <defs>
       <path id="DejaVuSans-2a" d="M 3009 3897 
L 1888 3291 
L 3009 2681 
L 2828 2375 
L 1778 3009 
L 1778 1831 
L 1422 1831 
L 1422 3009 
L 372 2375 
L 191 2681 
L 1313 3291 
L 191 3897 
L 372 4206 
L 1422 3572 
L 1422 4750 
L 1778 4750 
L 1778 3572 
L 2828 4206 
L 3009 3897 
z
" transform="scale(0.015625)"/>
       <path id="DejaVuSans-64" d="M 2906 2969 
L 2906 4863 
L 3481 4863 
L 3481 0 
L 2906 0 
L 2906 525 
Q 2725 213 2448 61 
Q 2172 -91 1784 -91 
Q 1150 -91 751 415 
Q 353 922 353 1747 
Q 353 2572 751 3078 
Q 1150 3584 1784 3584 
Q 2172 3584 2448 3432 
Q 2725 3281 2906 2969 
z
M 947 1747 
Q 947 1113 1208 752 
Q 1469 391 1925 391 
Q 2381 391 2643 752 
Q 2906 1113 2906 1747 
Q 2906 2381 2643 2742 
Q 2381 3103 1925 3103 
Q 1469 3103 1208 2742 
Q 947 2381 947 1747 
z
" transform="scale(0.015625)"/>
       <path id="DejaVuSans-2f" d="M 1625 4666 
L 2156 4666 
L 531 -594 
L 0 -594 
L 1625 4666 
z
" transform="scale(0.015625)"/>
       <path id="DejaVuSans-28" d="M 1984 4856 
Q 1566 4138 1362 3434 
Q 1159 2731 1159 2009 
Q 1159 1288 1364 580 
Q 1569 -128 1984 -844 
L 1484 -844 
Q 1016 -109 783 600 
Q 550 1309 550 2009 
Q 550 2706 781 3412 
Q 1013 4119 1484 4856 
L 1984 4856 
z
" transform="scale(0.015625)"/>
       <path id="DejaVuSans-63" d="M 3122 3366 
L 3122 2828 
Q 2878 2963 2633 3030 
Q 2388 3097 2138 3097 
Q 1578 3097 1268 2742 
Q 959 2388 959 1747 
Q 959 1106 1268 751 
Q 1578 397 2138 397 
Q 2388 397 2633 464 
Q 2878 531 3122 666 
L 3122 134 
Q 2881 22 2623 -34 
Q 2366 -91 2075 -91 
Q 1284 -91 818 406 
Q 353 903 353 1747 
Q 353 2603 823 3093 
Q 1294 3584 2113 3584 
Q 2378 3584 2631 3529 
Q 2884 3475 3122 3366 
z
" transform="scale(0.015625)"/>
       <path id="DejaVuSans-6d" d="M 3328 2828 
Q 3544 3216 3844 3400 
Q 4144 3584 4550 3584 
Q 5097 3584 5394 3201 
Q 5691 2819 5691 2113 
L 5691 0 
L 5113 0 
L 5113 2094 
Q 5113 2597 4934 2840 
Q 4756 3084 4391 3084 
Q 3944 3084 3684 2787 
Q 3425 2491 3425 1978 
L 3425 0 
L 2847 0 
L 2847 2094 
Q 2847 2600 2669 2842 
Q 2491 3084 2119 3084 
Q 1678 3084 1418 2786 
Q 1159 2488 1159 1978 
L 1159 0 
L 581 0 
L 581 3500 
L 1159 3500 
L 1159 2956 
Q 1356 3278 1631 3431 
Q 1906 3584 2284 3584 
Q 2666 3584 2933 3390 
Q 3200 3197 3328 2828 
z
" transform="scale(0.015625)"/>
       <path id="DejaVuSans-73" d="M 2834 3397 
L 2834 2853 
Q 2591 2978 2328 3040 
Q 2066 3103 1784 3103 
Q 1356 3103 1142 2972 
Q 928 2841 928 2578 
Q 928 2378 1081 2264 
Q 1234 2150 1697 2047 
L 1894 2003 
Q 2506 1872 2764 1633 
Q 3022 1394 3022 966 
Q 3022 478 2636 193 
Q 2250 -91 1575 -91 
Q 1294 -91 989 -36 
Q 684 19 347 128 
L 347 722 
Q 666 556 975 473 
Q 1284 391 1588 391 
Q 1994 391 2212 530 
Q 2431 669 2431 922 
Q 2431 1156 2273 1281 
Q 2116 1406 1581 1522 
L 1381 1569 
Q 847 1681 609 1914 
Q 372 2147 372 2553 
Q 372 3047 722 3315 
Q 1072 3584 1716 3584 
Q 2034 3584 2315 3537 
Q 2597 3491 2834 3397 
z
" transform="scale(0.015625)"/>
       <path id="DejaVuSans-29" d="M 513 4856 
L 1013 4856 
Q 1481 4119 1714 3412 
Q 1947 2706 1947 2009 
Q 1947 1309 1714 600 
Q 1481 -109 1013 -844 
L 513 -844 
Q 928 -128 1133 580 
Q 1338 1288 1338 2009 
Q 1338 2731 1133 3434 
Q 928 4138 513 4856 
z
" transform="scale(0.015625)"/>
      </defs>
      <use xlink:href="#DejaVuSans-65"/>
      <use xlink:href="#DejaVuSans-32" x="61.523438"/>
      <use xlink:href="#DejaVuSans-20" x="125.146484"/>
      <use xlink:href="#DejaVuSans-2a" x="156.933594"/>
      <use xlink:href="#DejaVuSans-20" x="206.933594"/>
      <use xlink:href="#DejaVuSans-64" x="238.720703"/>
      <use xlink:href="#DejaVuSans-6e" x="302.197266"/>
      <use xlink:href="#DejaVuSans-64" x="365.576172"/>
      <use xlink:href="#DejaVuSans-65" x="429.052734"/>
      <use xlink:href="#DejaVuSans-20" x="490.576172"/>
      <use xlink:href="#DejaVuSans-5b" x="522.363281"/>
      <use xlink:href="#DejaVuSans-54" x="561.376953"/>
      <use xlink:href="#DejaVuSans-65" x="605.460938"/>
      <use xlink:href="#DejaVuSans-56" x="666.984375"/>
      <use xlink:href="#DejaVuSans-20" x="735.392578"/>
      <use xlink:href="#DejaVuSans-2f" x="767.179688"/>
      <use xlink:href="#DejaVuSans-20" x="800.871094"/>
      <use xlink:href="#DejaVuSans-28" x="832.658203"/>
      <use xlink:href="#DejaVuSans-63" x="871.671875"/>
      <use xlink:href="#DejaVuSans-6d" x="926.652344"/>
      <use xlink:href="#DejaVuSans-32" x="1024.064453"/>
      <use xlink:href="#DejaVuSans-20" x="1087.6875"/>
      <use xlink:href="#DejaVuSans-73" x="1119.474609"/>
      <use xlink:href="#DejaVuSans-29" x="1171.574219"/>
      <use xlink:href="#DejaVuSans-5d" x="1210.587891"/>
     </g>
    </g>
   </g>
   <g id="line2d_40">
    <path d="M 73.212233 40.175152 
L 75.836645 41.87019 
L 78.461058 43.565229 
L 81.085471 45.260267 
L 83.709884 46.955306 
L 86.334297 48.650345 
L 88.958709 50.345383 
L 91.583122 52.040422 
L 94.207535 53.735461 
L 96.831948 55.430499 
L 99.456361 57.125538 
L 102.080773 58.820577 
L 104.705186 60.515615 
L 107.329599 62.210654 
L 109.954012 63.905693 
L 112.578425 65.600731 
L 115.202837 67.29577 
L 117.82725 68.990808 
L 120.451663 70.685847 
L 123.076076 72.380886 
L 125.700489 74.075924 
L 128.324901 75.770963 
L 130.949314 77.466002 
L 133.573727 79.16104 
L 136.19814 80.856079 
L 138.822553 82.551118 
L 141.446965 84.246156 
L 144.071378 85.941195 
L 146.695791 87.636234 
L 149.320204 89.331272 
L 151.944616 91.026311 
L 154.569029 92.721349 
L 157.193442 94.416388 
L 159.817855 96.111427 
L 162.442268 97.806465 
L 165.06668 99.501504 
L 167.691093 101.196543 
L 170.315506 102.891581 
L 172.939919 104.58662 
L 175.564332 106.281659 
L 178.188744 107.976697 
L 180.813157 109.671736 
L 183.43757 111.366775 
L 186.061983 113.061813 
L 188.686396 114.756852 
L 191.310808 116.45189 
L 193.935221 118.146929 
L 196.559634 119.841968 
L 199.184047 121.537006 
L 201.80846 123.232045 
L 204.432872 124.927084 
L 207.057285 126.622122 
L 209.681698 128.317161 
L 212.306111 130.0122 
L 214.930524 131.707238 
L 217.554936 133.402277 
L 220.179349 135.097316 
L 222.803762 136.792354 
L 225.428175 138.487393 
L 228.052588 140.182431 
L 230.677 141.87747 
L 233.301413 143.572509 
L 235.925826 145.267547 
L 238.550239 146.962586 
L 241.174651 148.657625 
L 243.799064 150.352663 
L 246.423477 152.047702 
L 249.04789 153.742741 
L 251.672303 155.437779 
L 254.296715 157.132818 
L 256.921128 158.827857 
L 259.545541 160.522895 
L 262.169954 162.217934 
L 264.794367 163.912972 
L 267.418779 165.608011 
L 270.043192 167.30305 
L 272.667605 168.998088 
L 275.292018 170.693127 
L 277.916431 172.388166 
L 280.540843 174.083204 
L 283.165256 175.778243 
L 285.789669 177.473282 
L 288.414082 179.16832 
L 291.038495 180.863359 
L 293.662907 182.558398 
L 296.28732 184.253436 
L 298.911733 185.948475 
L 301.536146 187.643513 
L 304.160559 189.338552 
L 306.784971 191.033591 
L 309.409384 192.728629 
L 312.033797 194.423668 
L 314.65821 196.118707 
L 317.282622 197.813745 
L 319.907035 199.508784 
L 322.531448 201.203823 
L 325.155861 202.898861 
L 327.780274 204.5939 
L 330.404686 206.288939 
L 333.029099 207.983977 
" clip-path="url(#pa3a409ac2e)" style="fill: none; stroke-dasharray: 7.4,3.2; stroke-dashoffset: 0; stroke: #000000; stroke-width: 2"/>
   </g>
   <g id="line2d_41">
    <path d="M 73.212233 39.6066 
L 75.836645 41.312442 
L 78.461058 43.018284 
L 81.085471 44.724127 
L 83.709884 46.429969 
L 86.334297 48.135811 
L 88.958709 49.841654 
L 91.583122 51.547496 
L 94.207535 53.253338 
L 96.831948 54.959181 
L 99.456361 56.665023 
L 102.080773 58.370865 
L 104.705186 60.076708 
L 107.329599 61.78255 
L 109.954012 63.488393 
L 112.578425 65.194235 
L 115.202837 66.900077 
L 117.82725 68.60592 
L 120.451663 70.311762 
L 123.076076 72.017604 
L 125.700489 73.723447 
L 128.324901 75.429289 
L 130.949314 77.135131 
L 133.573727 78.840974 
L 136.19814 80.546816 
L 138.822553 82.252658 
L 141.446965 83.958501 
L 144.071378 85.664343 
L 146.695791 87.370186 
L 149.320204 89.076028 
L 151.944616 90.78187 
L 154.569029 92.487713 
L 157.193442 94.193555 
L 159.817855 95.899397 
L 162.442268 97.60524 
L 165.06668 99.311082 
L 167.691093 101.016924 
L 170.315506 102.722767 
L 172.939919 104.428609 
L 175.564332 106.134451 
L 178.188744 107.840294 
L 180.813157 109.546136 
L 183.43757 111.251979 
L 186.061983 112.957821 
L 188.686396 114.663663 
L 191.310808 116.369506 
L 193.935221 118.075348 
L 196.559634 119.78119 
L 199.184047 121.487033 
L 201.80846 123.192875 
L 204.432872 124.898717 
L 207.057285 126.60456 
L 209.681698 128.310402 
L 212.306111 130.016244 
L 214.930524 131.722087 
L 217.554936 133.427929 
L 220.179349 135.133772 
L 222.803762 136.839614 
L 225.428175 138.545456 
L 228.052588 140.251299 
L 230.677 141.957141 
L 233.301413 143.662983 
L 235.925826 145.368826 
L 238.550239 147.074668 
L 241.174651 148.78051 
L 243.799064 150.486353 
L 246.423477 152.192195 
L 249.04789 153.898037 
L 251.672303 155.60388 
L 254.296715 157.309722 
L 256.921128 159.015565 
L 259.545541 160.721407 
L 262.169954 162.427249 
L 264.794367 164.133092 
L 267.418779 165.838934 
L 270.043192 167.544776 
L 272.667605 169.250619 
L 275.292018 170.956461 
L 277.916431 172.662303 
L 280.540843 174.368146 
L 283.165256 176.073988 
L 285.789669 177.77983 
L 288.414082 179.485673 
L 291.038495 181.191515 
L 293.662907 182.897358 
L 296.28732 184.6032 
L 298.911733 186.309042 
L 301.536146 188.014885 
L 304.160559 189.720727 
L 306.784971 191.426569 
L 309.409384 193.132412 
L 312.033797 194.838254 
L 314.65821 196.544096 
L 317.282622 198.249939 
L 319.907035 199.955781 
L 322.531448 201.661623 
L 325.155861 203.367466 
L 327.780274 205.073308 
L 330.404686 206.779151 
L 333.029099 208.484993 
" clip-path="url(#pa3a409ac2e)" style="fill: none; stroke-dasharray: 7.4,3.2; stroke-dashoffset: 0; stroke: #008000; stroke-opacity: 0.95; stroke-width: 2"/>
   </g>
   <g id="line2d_42">
    <path d="M 73.212233 39.540834 
L 75.836645 41.247504 
L 78.461058 42.954174 
L 81.085471 44.660844 
L 83.709884 46.367514 
L 86.334297 48.074185 
L 88.958709 49.780855 
L 91.583122 51.487525 
L 94.207535 53.194195 
L 96.831948 54.900865 
L 99.456361 56.607535 
L 102.080773 58.314205 
L 104.705186 60.020875 
L 107.329599 61.727546 
L 109.954012 63.434216 
L 112.578425 65.140886 
L 115.202837 66.847556 
L 117.82725 68.554226 
L 120.451663 70.260896 
L 123.076076 71.967566 
L 125.700489 73.674236 
L 128.324901 75.380906 
L 130.949314 77.087577 
L 133.573727 78.794247 
L 136.19814 80.500917 
L 138.822553 82.207587 
L 141.446965 83.914257 
L 144.071378 85.620927 
L 146.695791 87.327597 
L 149.320204 89.034267 
L 151.944616 90.740937 
L 154.569029 92.447608 
L 157.193442 94.154278 
L 159.817855 95.860948 
L 162.442268 97.567618 
L 165.06668 99.274288 
L 167.691093 100.980958 
L 170.315506 102.687628 
L 172.939919 104.394298 
L 175.564332 106.100968 
L 178.188744 107.807639 
L 180.813157 109.514309 
L 183.43757 111.220979 
L 186.061983 112.927649 
L 188.686396 114.634319 
L 191.310808 116.340989 
L 193.935221 118.047659 
L 196.559634 119.754329 
L 199.184047 121.461 
L 201.80846 123.16767 
L 204.432872 124.87434 
L 207.057285 126.58101 
L 209.681698 128.28768 
L 212.306111 129.99435 
L 214.930524 131.70102 
L 217.554936 133.40769 
L 220.179349 135.11436 
L 222.803762 136.821031 
L 225.428175 138.527701 
L 228.052588 140.234371 
L 230.677 141.941041 
L 233.301413 143.647711 
L 235.925826 145.354381 
L 238.550239 147.061051 
L 241.174651 148.767721 
L 243.799064 150.474391 
L 246.423477 152.181062 
L 249.04789 153.887732 
L 251.672303 155.594402 
L 254.296715 157.301072 
L 256.921128 159.007742 
L 259.545541 160.714412 
L 262.169954 162.421082 
L 264.794367 164.127752 
L 267.418779 165.834422 
L 270.043192 167.541093 
L 272.667605 169.247763 
L 275.292018 170.954433 
L 277.916431 172.661103 
L 280.540843 174.367773 
L 283.165256 176.074443 
L 285.789669 177.781113 
L 288.414082 179.487783 
L 291.038495 181.194454 
L 293.662907 182.901124 
L 296.28732 184.607794 
L 298.911733 186.314464 
L 301.536146 188.021134 
L 304.160559 189.727804 
L 306.784971 191.434474 
L 309.409384 193.141144 
L 312.033797 194.847814 
L 314.65821 196.554485 
L 317.282622 198.261155 
L 319.907035 199.967825 
L 322.531448 201.674495 
L 325.155861 203.381165 
L 327.780274 205.087835 
L 330.404686 206.794505 
L 333.029099 208.501175 
" clip-path="url(#pa3a409ac2e)" style="fill: none; stroke: #dc143c; stroke-width: 1.5; stroke-linecap: square"/>
   </g>
   <g id="patch_3">
    <path d="M 60.221389 242.728 
L 60.221389 10.8 
" style="fill: none; stroke: #000000; stroke-width: 0.8; stroke-linejoin: miter; stroke-linecap: square"/>
   </g>
   <g id="patch_4">
    <path d="M 346.019943 242.728 
L 346.019943 10.8 
" style="fill: none; stroke: #000000; stroke-width: 0.8; stroke-linejoin: miter; stroke-linecap: square"/>
   </g>
   <g id="patch_5">
    <path d="M 60.221389 242.728 
L 346.019943 242.728 
" style="fill: none; stroke: #000000; stroke-width: 0.8; stroke-linejoin: miter; stroke-linecap: square"/>
   </g>
   <g id="patch_6">
    <path d="M 60.221389 10.8 
L 346.019943 10.8 
" style="fill: none; stroke: #000000; stroke-width: 0.8; stroke-linejoin: miter; stroke-linecap: square"/>
   </g>
   <g id="legend_1">
    <g id="patch_7">
     <path d="M 67.221389 237.728 
L 209.762014 237.728 
Q 211.762014 237.728 211.762014 235.728 
L 211.762014 163.337375 
Q 211.762014 161.337375 209.762014 161.337375 
L 67.221389 161.337375 
Q 65.221389 161.337375 65.221389 163.337375 
L 65.221389 235.728 
Q 65.221389 237.728 67.221389 237.728 
z
" style="fill: #ffffff; opacity: 0.8; stroke: #cccccc; stroke-linejoin: miter"/>
    </g>
    <g id="line2d_43">
     <path d="M 69.221389 169.435812 
L 79.221389 169.435812 
L 89.221389 169.435812 
" style="fill: none; stroke-dasharray: 7.4,3.2; stroke-dashoffset: 0; stroke: #000000; stroke-width: 2"/>
    </g>
    <g id="text_8">
     <!-- Input -->
     <g transform="translate(97.221389 172.935812) scale(0.1 -0.1)">
      <defs>
       <path id="DejaVuSans-49" d="M 628 4666 
L 1259 4666 
L 1259 0 
L 628 0 
L 628 4666 
z
" transform="scale(0.015625)"/>
       <path id="DejaVuSans-70" d="M 1159 525 
L 1159 -1331 
L 581 -1331 
L 581 3500 
L 1159 3500 
L 1159 2969 
Q 1341 3281 1617 3432 
Q 1894 3584 2278 3584 
Q 2916 3584 3314 3078 
Q 3713 2572 3713 1747 
Q 3713 922 3314 415 
Q 2916 -91 2278 -91 
Q 1894 -91 1617 61 
Q 1341 213 1159 525 
z
M 3116 1747 
Q 3116 2381 2855 2742 
Q 2594 3103 2138 3103 
Q 1681 3103 1420 2742 
Q 1159 2381 1159 1747 
Q 1159 1113 1420 752 
Q 1681 391 2138 391 
Q 2594 391 2855 752 
Q 3116 1113 3116 1747 
z
" transform="scale(0.015625)"/>
       <path id="DejaVuSans-75" d="M 544 1381 
L 544 3500 
L 1119 3500 
L 1119 1403 
Q 1119 906 1312 657 
Q 1506 409 1894 409 
Q 2359 409 2629 706 
Q 2900 1003 2900 1516 
L 2900 3500 
L 3475 3500 
L 3475 0 
L 2900 0 
L 2900 538 
Q 2691 219 2414 64 
Q 2138 -91 1772 -91 
Q 1169 -91 856 284 
Q 544 659 544 1381 
z
M 1991 3584 
L 1991 3584 
z
" transform="scale(0.015625)"/>
       <path id="DejaVuSans-74" d="M 1172 4494 
L 1172 3500 
L 2356 3500 
L 2356 3053 
L 1172 3053 
L 1172 1153 
Q 1172 725 1289 603 
Q 1406 481 1766 481 
L 2356 481 
L 2356 0 
L 1766 0 
Q 1100 0 847 248 
Q 594 497 594 1153 
L 594 3053 
L 172 3053 
L 172 3500 
L 594 3500 
L 594 4494 
L 1172 4494 
z
" transform="scale(0.015625)"/>
      </defs>
      <use xlink:href="#DejaVuSans-49"/>
      <use xlink:href="#DejaVuSans-6e" x="29.492188"/>
      <use xlink:href="#DejaVuSans-70" x="92.871094"/>
      <use xlink:href="#DejaVuSans-75" x="156.347656"/>
      <use xlink:href="#DejaVuSans-74" x="219.726562"/>
     </g>
    </g>
    <g id="line2d_44">
     <path d="M 69.221389 184.113937 
L 79.221389 184.113937 
L 89.221389 184.113937 
" style="fill: none; stroke-dasharray: 7.4,3.2; stroke-dashoffset: 0; stroke: #008000; stroke-opacity: 0.95; stroke-width: 2"/>
    </g>
    <g id="text_9">
     <!-- Best Fit with Nuisance -->
     <g transform="translate(97.221389 187.613937) scale(0.1 -0.1)">
      <defs>
       <path id="DejaVuSans-42" d="M 1259 2228 
L 1259 519 
L 2272 519 
Q 2781 519 3026 730 
Q 3272 941 3272 1375 
Q 3272 1813 3026 2020 
Q 2781 2228 2272 2228 
L 1259 2228 
z
M 1259 4147 
L 1259 2741 
L 2194 2741 
Q 2656 2741 2882 2914 
Q 3109 3088 3109 3444 
Q 3109 3797 2882 3972 
Q 2656 4147 2194 4147 
L 1259 4147 
z
M 628 4666 
L 2241 4666 
Q 2963 4666 3353 4366 
Q 3744 4066 3744 3513 
Q 3744 3084 3544 2831 
Q 3344 2578 2956 2516 
Q 3422 2416 3680 2098 
Q 3938 1781 3938 1306 
Q 3938 681 3513 340 
Q 3088 0 2303 0 
L 628 0 
L 628 4666 
z
" transform="scale(0.015625)"/>
       <path id="DejaVuSans-46" d="M 628 4666 
L 3309 4666 
L 3309 4134 
L 1259 4134 
L 1259 2759 
L 3109 2759 
L 3109 2228 
L 1259 2228 
L 1259 0 
L 628 0 
L 628 4666 
z
" transform="scale(0.015625)"/>
       <path id="DejaVuSans-69" d="M 603 3500 
L 1178 3500 
L 1178 0 
L 603 0 
L 603 3500 
z
M 603 4863 
L 1178 4863 
L 1178 4134 
L 603 4134 
L 603 4863 
z
" transform="scale(0.015625)"/>
       <path id="DejaVuSans-77" d="M 269 3500 
L 844 3500 
L 1563 769 
L 2278 3500 
L 2956 3500 
L 3675 769 
L 4391 3500 
L 4966 3500 
L 4050 0 
L 3372 0 
L 2619 2869 
L 1863 0 
L 1184 0 
L 269 3500 
z
" transform="scale(0.015625)"/>
       <path id="DejaVuSans-68" d="M 3513 2113 
L 3513 0 
L 2938 0 
L 2938 2094 
Q 2938 2591 2744 2837 
Q 2550 3084 2163 3084 
Q 1697 3084 1428 2787 
Q 1159 2491 1159 1978 
L 1159 0 
L 581 0 
L 581 4863 
L 1159 4863 
L 1159 2956 
Q 1366 3272 1645 3428 
Q 1925 3584 2291 3584 
Q 2894 3584 3203 3211 
Q 3513 2838 3513 2113 
z
" transform="scale(0.015625)"/>
       <path id="DejaVuSans-4e" d="M 628 4666 
L 1478 4666 
L 3547 763 
L 3547 4666 
L 4159 4666 
L 4159 0 
L 3309 0 
L 1241 3903 
L 1241 0 
L 628 0 
L 628 4666 
z
" transform="scale(0.015625)"/>
       <path id="DejaVuSans-61" d="M 2194 1759 
Q 1497 1759 1228 1600 
Q 959 1441 959 1056 
Q 959 750 1161 570 
Q 1363 391 1709 391 
Q 2188 391 2477 730 
Q 2766 1069 2766 1631 
L 2766 1759 
L 2194 1759 
z
M 3341 1997 
L 3341 0 
L 2766 0 
L 2766 531 
Q 2569 213 2275 61 
Q 1981 -91 1556 -91 
Q 1019 -91 701 211 
Q 384 513 384 1019 
Q 384 1609 779 1909 
Q 1175 2209 1959 2209 
L 2766 2209 
L 2766 2266 
Q 2766 2663 2505 2880 
Q 2244 3097 1772 3097 
Q 1472 3097 1187 3025 
Q 903 2953 641 2809 
L 641 3341 
Q 956 3463 1253 3523 
Q 1550 3584 1831 3584 
Q 2591 3584 2966 3190 
Q 3341 2797 3341 1997 
z
" transform="scale(0.015625)"/>
      </defs>
      <use xlink:href="#DejaVuSans-42"/>
      <use xlink:href="#DejaVuSans-65" x="68.603516"/>
      <use xlink:href="#DejaVuSans-73" x="130.126953"/>
      <use xlink:href="#DejaVuSans-74" x="182.226562"/>
      <use xlink:href="#DejaVuSans-20" x="221.435547"/>
      <use xlink:href="#DejaVuSans-46" x="253.222656"/>
      <use xlink:href="#DejaVuSans-69" x="303.492188"/>
      <use xlink:href="#DejaVuSans-74" x="331.275391"/>
      <use xlink:href="#DejaVuSans-20" x="370.484375"/>
      <use xlink:href="#DejaVuSans-77" x="402.271484"/>
      <use xlink:href="#DejaVuSans-69" x="484.058594"/>
      <use xlink:href="#DejaVuSans-74" x="511.841797"/>
      <use xlink:href="#DejaVuSans-68" x="551.050781"/>
      <use xlink:href="#DejaVuSans-20" x="614.429688"/>
      <use xlink:href="#DejaVuSans-4e" x="646.216797"/>
      <use xlink:href="#DejaVuSans-75" x="721.021484"/>
      <use xlink:href="#DejaVuSans-69" x="784.400391"/>
      <use xlink:href="#DejaVuSans-73" x="812.183594"/>
      <use xlink:href="#DejaVuSans-61" x="864.283203"/>
      <use xlink:href="#DejaVuSans-6e" x="925.5625"/>
      <use xlink:href="#DejaVuSans-63" x="988.941406"/>
      <use xlink:href="#DejaVuSans-65" x="1043.921875"/>
     </g>
    </g>
    <g id="patch_8">
     <path d="M 69.221389 202.292062 
L 89.221389 202.292062 
L 89.221389 195.292062 
L 69.221389 195.292062 
z
" style="fill: #008000; fill-opacity: 0.5"/>
    </g>
    <g id="text_10">
     <!-- 1$\,\sigma_{tot}$ -->
     <g transform="translate(97.221389 202.292062) scale(0.1 -0.1)">
      <defs>
       <path id="DejaVuSans-Oblique-3c3" d="M 2219 3044 
Q 1744 3044 1422 2700 
Q 1081 2341 969 1747 
Q 844 1119 1044 756 
Q 1241 397 1706 397 
Q 2166 397 2503 759 
Q 2844 1122 2966 1747 
Q 3075 2319 2881 2700 
Q 2700 3044 2219 3044 
z
M 2309 3503 
L 4219 3500 
L 4106 2925 
L 3463 2925 
Q 3706 2438 3575 1747 
Q 3406 888 2884 400 
Q 2359 -91 1609 -91 
Q 856 -91 525 400 
Q 194 888 363 1747 
Q 528 2609 1050 3097 
Q 1484 3503 2309 3503 
z
" transform="scale(0.015625)"/>
       <path id="DejaVuSans-Oblique-74" d="M 2706 3500 
L 2619 3053 
L 1472 3053 
L 1100 1153 
Q 1081 1047 1072 975 
Q 1063 903 1063 863 
Q 1063 663 1183 572 
Q 1303 481 1569 481 
L 2150 481 
L 2053 0 
L 1503 0 
Q 991 0 739 200 
Q 488 400 488 806 
Q 488 878 497 964 
Q 506 1050 525 1153 
L 897 3053 
L 409 3053 
L 500 3500 
L 978 3500 
L 1172 4494 
L 1747 4494 
L 1556 3500 
L 2706 3500 
z
" transform="scale(0.015625)"/>
       <path id="DejaVuSans-Oblique-6f" d="M 1625 -91 
Q 1009 -91 651 289 
Q 294 669 294 1325 
Q 294 1706 417 2101 
Q 541 2497 738 2766 
Q 1047 3184 1428 3384 
Q 1809 3584 2291 3584 
Q 2888 3584 3255 3212 
Q 3622 2841 3622 2241 
Q 3622 1825 3500 1412 
Q 3378 1000 3181 728 
Q 2875 309 2494 109 
Q 2113 -91 1625 -91 
z
M 891 1344 
Q 891 869 1089 633 
Q 1288 397 1691 397 
Q 2269 397 2648 901 
Q 3028 1406 3028 2181 
Q 3028 2634 2825 2865 
Q 2622 3097 2228 3097 
Q 1903 3097 1650 2945 
Q 1397 2794 1197 2484 
Q 1050 2253 970 1956 
Q 891 1659 891 1344 
z
" transform="scale(0.015625)"/>
      </defs>
      <use xlink:href="#DejaVuSans-31" transform="translate(0 0.09375)"/>
      <use xlink:href="#DejaVuSans-Oblique-3c3" transform="translate(79.858723 0.09375)"/>
      <use xlink:href="#DejaVuSans-Oblique-74" transform="translate(143.237629 -16.3125) scale(0.7)"/>
      <use xlink:href="#DejaVuSans-Oblique-6f" transform="translate(170.683918 -16.3125) scale(0.7)"/>
      <use xlink:href="#DejaVuSans-Oblique-74" transform="translate(213.511067 -16.3125) scale(0.7)"/>
     </g>
    </g>
    <g id="line2d_45">
     <path d="M 69.221389 213.470187 
L 79.221389 213.470187 
L 89.221389 213.470187 
" style="fill: none; stroke: #dc143c; stroke-width: 1.5; stroke-linecap: square"/>
    </g>
    <g id="text_11">
     <!-- Best Fit -->
     <g transform="translate(97.221389 216.970187) scale(0.1 -0.1)">
      <use xlink:href="#DejaVuSans-42"/>
      <use xlink:href="#DejaVuSans-65" x="68.603516"/>
      <use xlink:href="#DejaVuSans-73" x="130.126953"/>
      <use xlink:href="#DejaVuSans-74" x="182.226562"/>
      <use xlink:href="#DejaVuSans-20" x="221.435547"/>
      <use xlink:href="#DejaVuSans-46" x="253.222656"/>
      <use xlink:href="#DejaVuSans-69" x="303.492188"/>
      <use xlink:href="#DejaVuSans-74" x="331.275391"/>
     </g>
    </g>
    <g id="patch_9">
     <path d="M 69.221389 231.648312 
L 89.221389 231.648312 
L 89.221389 224.648312 
L 69.221389 224.648312 
z
" style="fill: #ffb6c1; fill-opacity: 0.9"/>
    </g>
    <g id="text_12">
     <!-- 1$\,\sigma_{stat}$ -->
     <g transform="translate(97.221389 231.648312) scale(0.1 -0.1)">
      <defs>
       <path id="DejaVuSans-Oblique-73" d="M 3200 3397 
L 3091 2853 
Q 2863 2978 2609 3040 
Q 2356 3103 2088 3103 
Q 1634 3103 1373 2948 
Q 1113 2794 1113 2528 
Q 1113 2219 1719 2053 
Q 1766 2041 1788 2034 
L 1972 1978 
Q 2547 1819 2739 1644 
Q 2931 1469 2931 1166 
Q 2931 609 2489 259 
Q 2047 -91 1331 -91 
Q 1053 -91 747 -37 
Q 441 16 72 128 
L 184 722 
Q 500 559 806 475 
Q 1113 391 1394 391 
Q 1816 391 2080 572 
Q 2344 753 2344 1031 
Q 2344 1331 1650 1516 
L 1591 1531 
L 1394 1581 
Q 956 1697 753 1886 
Q 550 2075 550 2369 
Q 550 2928 970 3256 
Q 1391 3584 2113 3584 
Q 2397 3584 2667 3537 
Q 2938 3491 3200 3397 
z
" transform="scale(0.015625)"/>
       <path id="DejaVuSans-Oblique-61" d="M 3438 1997 
L 3047 0 
L 2472 0 
L 2578 531 
Q 2325 219 2001 64 
Q 1678 -91 1281 -91 
Q 834 -91 548 182 
Q 263 456 263 884 
Q 263 1497 752 1853 
Q 1241 2209 2100 2209 
L 2900 2209 
L 2931 2363 
Q 2938 2388 2941 2417 
Q 2944 2447 2944 2509 
Q 2944 2788 2717 2942 
Q 2491 3097 2081 3097 
Q 1800 3097 1504 3025 
Q 1209 2953 897 2809 
L 997 3341 
Q 1322 3463 1633 3523 
Q 1944 3584 2234 3584 
Q 2853 3584 3176 3315 
Q 3500 3047 3500 2534 
Q 3500 2431 3484 2292 
Q 3469 2153 3438 1997 
z
M 2816 1759 
L 2241 1759 
Q 1534 1759 1195 1570 
Q 856 1381 856 984 
Q 856 709 1029 553 
Q 1203 397 1509 397 
Q 1978 397 2328 733 
Q 2678 1069 2791 1631 
L 2816 1759 
z
" transform="scale(0.015625)"/>
      </defs>
      <use xlink:href="#DejaVuSans-31" transform="translate(0 0.09375)"/>
      <use xlink:href="#DejaVuSans-Oblique-3c3" transform="translate(79.858723 0.09375)"/>
      <use xlink:href="#DejaVuSans-Oblique-73" transform="translate(143.237629 -16.3125) scale(0.7)"/>
      <use xlink:href="#DejaVuSans-Oblique-74" transform="translate(179.707356 -16.3125) scale(0.7)"/>
      <use xlink:href="#DejaVuSans-Oblique-61" transform="translate(207.153645 -16.3125) scale(0.7)"/>
      <use xlink:href="#DejaVuSans-Oblique-74" transform="translate(250.049153 -16.3125) scale(0.7)"/>
     </g>
    </g>
   </g>
  </g>
 </g>
 <defs>
  <clipPath id="pa3a409ac2e">
   <rect x="60.221389" y="10.8" width="285.798553" height="231.928"/>
  </clipPath>
 </defs>
</svg>
