<?xml version="1.0" encoding="utf-8" standalone="no"?>
<!DOCTYPE svg PUBLIC "-//W3C//DTD SVG 1.1//EN"
  "http://www.w3.org/Graphics/SVG/1.1/DTD/svg11.dtd">
<svg xmlns:xlink="http://www.w3.org/1999/xlink" width="360pt" height="216pt" viewBox="0 0 360 216" xmlns="http://www.w3.org/2000/svg" version="1.1">
 <metadata>
  <rdf:RDF xmlns:dc="http://purl.org/dc/elements/1.1/" xmlns:cc="http://creativecommons.org/ns#" xmlns:rdf="http://www.w3.org/1999/02/22-rdf-syntax-ns#">
   <cc:Work>
    <dc:type rdf:resource="http://purl.org/dc/dcmitype/StillImage"/>
    <dc:date>2023-01-31T16:19:25.545741</dc:date>
    <dc:format>image/svg+xml</dc:format>
    <dc:creator>
     <cc:Agent>
      <dc:title>Matplotlib v3.6.2, https://matplotlib.org/</dc:title>
     </cc:Agent>
    </dc:creator>
   </cc:Work>
  </rdf:RDF>
 </metadata>
 <defs>
  <style type="text/css">*{stroke-linejoin: round; stroke-linecap: butt}</style>
 </defs>
 <g id="figure_1">
  <g id="patch_1">
   <path d="M 0 216 
L 360 216 
L 360 0 
L 0 0 
z
" style="fill: #ffffff"/>
  </g>
  <g id="axes_1">
   <g id="patch_2">
    <path d="M 60.221389 170.728 
L 349.2 170.728 
L 349.2 10.8 
L 60.221389 10.8 
z
" style="fill: #ffffff"/>
   </g>
   <g id="PolyCollection_1">
    <path d="M 74.645222 52.235583 
L 74.645222 72.756392 
L 77.222106 73.48897 
L 79.798989 74.224142 
L 82.375873 74.96197 
L 84.952756 75.702517 
L 87.529639 76.445851 
L 90.106523 77.192039 
L 92.683406 77.941151 
L 95.26029 78.693258 
L 97.837173 79.448435 
L 100.414056 80.206757 
L 102.99094 80.9683 
L 105.567823 81.733143 
L 108.144707 82.501364 
L 110.72159 83.273045 
L 113.298473 84.048266 
L 115.875357 84.827109 
L 118.45224 85.609656 
L 121.029124 86.395988 
L 123.606007 87.186189 
L 126.18289 87.980338 
L 128.759774 88.778516 
L 131.336657 89.580801 
L 133.913541 90.387271 
L 136.490424 91.197999 
L 139.067307 92.013058 
L 141.644191 92.832516 
L 144.221074 93.656439 
L 146.797958 94.484889 
L 149.374841 95.317922 
L 151.951724 96.155591 
L 154.528608 96.997942 
L 157.105491 97.845018 
L 159.682375 98.696854 
L 162.259258 99.55348 
L 164.836141 100.41492 
L 167.413025 101.281189 
L 169.989908 102.152298 
L 172.566792 103.028251 
L 175.143675 103.909044 
L 177.720558 104.794667 
L 180.297442 105.685102 
L 182.874325 106.580327 
L 185.451209 107.480311 
L 188.028092 108.385019 
L 190.604975 109.294408 
L 193.181859 110.208433 
L 195.758742 111.127039 
L 198.335626 112.050171 
L 200.912509 112.977766 
L 203.489392 113.909759 
L 206.066276 114.846082 
L 208.643159 115.786662 
L 211.220042 116.731424 
L 213.796926 117.680292 
L 216.373809 118.633187 
L 218.950693 119.590029 
L 221.527576 120.550737 
L 224.104459 121.515229 
L 226.681343 122.483424 
L 229.258226 123.455239 
L 231.83511 124.430592 
L 234.411993 125.409402 
L 236.988876 126.39159 
L 239.56576 127.377076 
L 242.142643 128.365781 
L 244.719527 129.357629 
L 247.29641 130.352545 
L 249.873293 131.350456 
L 252.450177 132.351289 
L 255.02706 133.354974 
L 257.603944 134.361444 
L 260.180827 135.370633 
L 262.75771 136.382476 
L 265.334594 137.396911 
L 267.911477 138.413879 
L 270.488361 139.433321 
L 273.065244 140.455182 
L 275.642127 141.479407 
L 278.219011 142.505945 
L 280.795894 143.534745 
L 283.372778 144.565761 
L 285.949661 145.598945 
L 288.526544 146.634253 
L 291.103428 147.671643 
L 293.680311 148.711075 
L 296.257195 149.752509 
L 298.834078 150.795909 
L 301.410961 151.841238 
L 303.987845 152.888463 
L 306.564728 153.937551 
L 309.141612 154.988472 
L 311.718495 156.041195 
L 314.295378 157.095694 
L 316.872262 158.15194 
L 319.449145 159.209909 
L 322.026029 160.269577 
L 324.602912 161.330919 
L 327.179795 162.393916 
L 329.756679 163.458545 
L 329.756679 135.888075 
L 329.756679 135.888075 
L 327.179795 135.135174 
L 324.602912 134.381868 
L 322.026029 133.628133 
L 319.449145 132.873943 
L 316.872262 132.119271 
L 314.295378 131.364089 
L 311.718495 130.608368 
L 309.141612 129.852076 
L 306.564728 129.095183 
L 303.987845 128.337655 
L 301.410961 127.579457 
L 298.834078 126.820555 
L 296.257195 126.060909 
L 293.680311 125.300483 
L 291.103428 124.539234 
L 288.526544 123.777121 
L 285.949661 123.014101 
L 283.372778 122.250128 
L 280.795894 121.485155 
L 278.219011 120.719132 
L 275.642127 119.95201 
L 273.065244 119.183735 
L 270.488361 118.414254 
L 267.911477 117.643508 
L 265.334594 116.871441 
L 262.75771 116.097991 
L 260.180827 115.323097 
L 257.603944 114.546693 
L 255.02706 113.768715 
L 252.450177 112.989092 
L 249.873293 112.207757 
L 247.29641 111.424635 
L 244.719527 110.639655 
L 242.142643 109.852739 
L 239.56576 109.063812 
L 236.988876 108.272795 
L 234.411993 107.479608 
L 231.83511 106.684171 
L 229.258226 105.886401 
L 226.681343 105.086215 
L 224.104459 104.283531 
L 221.527576 103.478266 
L 218.950693 102.670336 
L 216.373809 101.859657 
L 213.796926 101.046149 
L 211.220042 100.229729 
L 208.643159 99.410319 
L 206.066276 98.58784 
L 203.489392 97.762216 
L 200.912509 96.933375 
L 198.335626 96.101248 
L 195.758742 95.265768 
L 193.181859 94.426872 
L 190.604975 93.584504 
L 188.028092 92.738609 
L 185.451209 91.889142 
L 182.874325 91.036058 
L 180.297442 90.179323 
L 177.720558 89.318906 
L 175.143675 88.454783 
L 172.566792 87.586937 
L 169.989908 86.715358 
L 167.413025 85.840043 
L 164.836141 84.960994 
L 162.259258 84.078223 
L 159.682375 83.191745 
L 157.105491 82.301585 
L 154.528608 81.407772 
L 151.951724 80.510343 
L 149.374841 79.609339 
L 146.797958 78.704809 
L 144.221074 77.796804 
L 141.644191 76.885383 
L 139.067307 75.970608 
L 136.490424 75.052545 
L 133.913541 74.131263 
L 131.336657 73.206835 
L 128.759774 72.279337 
L 126.18289 71.348846 
L 123.606007 70.415443 
L 121.029124 69.479207 
L 118.45224 68.540223 
L 115.875357 67.598571 
L 113.298473 66.654336 
L 110.72159 65.707601 
L 108.144707 64.758449 
L 105.567823 63.806963 
L 102.99094 62.853224 
L 100.414056 61.897313 
L 97.837173 60.939311 
L 95.26029 59.979296 
L 92.683406 59.017345 
L 90.106523 58.053532 
L 87.529639 57.087933 
L 84.952756 56.120618 
L 82.375873 55.151659 
L 79.798989 54.181122 
L 77.222106 53.209076 
L 74.645222 52.235583 
z
" clip-path="url(#p4885661f95)" style="fill: #008000; fill-opacity: 0.5"/>
   </g>
   <g id="PolyCollection_2">
    <path d="M 74.645222 54.677656 
L 74.645222 69.470893 
L 77.222106 70.170132 
L 79.798989 70.871313 
L 82.375873 71.574513 
L 84.952756 72.279818 
L 87.529639 72.987322 
L 90.106523 73.697124 
L 92.683406 74.409334 
L 95.26029 75.12407 
L 97.837173 75.84146 
L 100.414056 76.561644 
L 102.99094 77.284771 
L 105.567823 78.011004 
L 108.144707 78.740518 
L 110.72159 79.473504 
L 113.298473 80.210164 
L 115.875357 80.950717 
L 118.45224 81.695399 
L 121.029124 82.444459 
L 123.606007 83.198162 
L 126.18289 83.956791 
L 128.759774 84.720641 
L 131.336657 85.490022 
L 133.913541 86.265255 
L 136.490424 87.046671 
L 139.067307 87.834605 
L 141.644191 88.629395 
L 144.221074 89.431375 
L 146.797958 90.240871 
L 149.374841 91.058193 
L 151.951724 91.883629 
L 154.528608 92.717438 
L 157.105491 93.559843 
L 159.682375 94.411025 
L 162.259258 95.271118 
L 164.836141 96.140203 
L 167.413025 97.018306 
L 169.989908 97.9054 
L 172.566792 98.801402 
L 175.143675 99.706177 
L 177.720558 100.619543 
L 180.297442 101.541277 
L 182.874325 102.471117 
L 185.451209 103.408776 
L 188.028092 104.353942 
L 190.604975 105.306291 
L 193.181859 106.265487 
L 195.758742 107.231193 
L 198.335626 108.203073 
L 200.912509 109.180798 
L 203.489392 110.164045 
L 206.066276 111.152506 
L 208.643159 112.145885 
L 211.220042 113.143902 
L 213.796926 114.14629 
L 216.373809 115.1528 
L 218.950693 116.163197 
L 221.527576 117.177264 
L 224.104459 118.194797 
L 226.681343 119.215607 
L 229.258226 120.239518 
L 231.83511 121.266369 
L 234.411993 122.29601 
L 236.988876 123.328301 
L 239.56576 124.363116 
L 242.142643 125.400335 
L 244.719527 126.43985 
L 247.29641 127.48156 
L 249.873293 128.525374 
L 252.450177 129.571205 
L 255.02706 130.618976 
L 257.603944 131.668613 
L 260.180827 132.72005 
L 262.75771 133.773226 
L 265.334594 134.828082 
L 267.911477 135.884568 
L 270.488361 136.942635 
L 273.065244 138.002239 
L 275.642127 139.063338 
L 278.219011 140.125894 
L 280.795894 141.189873 
L 283.372778 142.255242 
L 285.949661 143.321972 
L 288.526544 144.390036 
L 291.103428 145.459408 
L 293.680311 146.530066 
L 296.257195 147.601988 
L 298.834078 148.675154 
L 301.410961 149.749546 
L 303.987845 150.825149 
L 306.564728 151.901947 
L 309.141612 152.979925 
L 311.718495 154.059073 
L 314.295378 155.139378 
L 316.872262 156.22083 
L 319.449145 157.303419 
L 322.026029 158.387138 
L 324.602912 159.471977 
L 327.179795 160.557932 
L 329.756679 161.644996 
L 329.756679 137.058134 
L 329.756679 137.058134 
L 327.179795 136.326365 
L 324.602912 135.594702 
L 322.026029 134.863137 
L 319.449145 134.131659 
L 316.872262 133.400254 
L 314.295378 132.668913 
L 311.718495 131.93762 
L 309.141612 131.206362 
L 306.564728 130.475123 
L 303.987845 129.743888 
L 301.410961 129.012639 
L 298.834078 128.281357 
L 296.257195 127.550023 
L 293.680311 126.818616 
L 291.103428 126.087112 
L 288.526544 125.355487 
L 285.949661 124.623714 
L 283.372778 123.891767 
L 280.795894 123.159613 
L 278.219011 122.427222 
L 275.642127 121.694557 
L 273.065244 120.961582 
L 270.488361 120.228255 
L 267.911477 119.494533 
L 265.334594 118.760369 
L 262.75771 118.025712 
L 260.180827 117.290508 
L 257.603944 116.554697 
L 255.02706 115.818216 
L 252.450177 115.080995 
L 249.873293 114.342959 
L 247.29641 113.604029 
L 244.719527 112.864117 
L 242.142643 112.123128 
L 239.56576 111.380961 
L 236.988876 110.637504 
L 234.411993 109.892637 
L 231.83511 109.146231 
L 229.258226 108.398146 
L 226.681343 107.648231 
L 224.104459 106.89632 
L 221.527576 106.142239 
L 218.950693 105.385796 
L 216.373809 104.626786 
L 213.796926 103.864991 
L 211.220042 103.100174 
L 208.643159 102.332085 
L 206.066276 101.560458 
L 203.489392 100.78501 
L 200.912509 100.005445 
L 198.335626 99.221452 
L 195.758742 98.43271 
L 193.181859 97.638888 
L 190.604975 96.83965 
L 188.028092 96.034656 
L 185.451209 95.223573 
L 182.874325 94.406074 
L 180.297442 93.581847 
L 177.720558 92.750604 
L 175.143675 91.912085 
L 172.566792 91.066065 
L 169.989908 90.212362 
L 167.413025 89.35084 
L 164.836141 88.481418 
L 162.259258 87.604067 
L 159.682375 86.718814 
L 157.105491 85.82574 
L 154.528608 84.924979 
L 151.951724 84.016712 
L 149.374841 83.101163 
L 146.797958 82.17859 
L 144.221074 81.249283 
L 141.644191 80.313552 
L 139.067307 79.371722 
L 136.490424 78.42413 
L 133.913541 77.471112 
L 131.336657 76.513006 
L 128.759774 75.550143 
L 126.18289 74.582845 
L 123.606007 73.611422 
L 121.029124 72.636171 
L 118.45224 71.657374 
L 115.875357 70.675299 
L 113.298473 69.690197 
L 110.72159 68.702302 
L 108.144707 67.711837 
L 105.567823 66.719005 
L 102.99094 65.723996 
L 100.414056 64.72699 
L 97.837173 63.728148 
L 95.26029 62.727623 
L 92.683406 61.725556 
L 90.106523 60.722077 
L 87.529639 59.717305 
L 84.952756 58.711351 
L 82.375873 57.704318 
L 79.798989 56.696301 
L 77.222106 55.687387 
L 74.645222 54.677656 
z
" clip-path="url(#p4885661f95)" style="fill: #ff0000; fill-opacity: 0.6"/>
   </g>
   <g id="matplotlib.axis_1">
    <g id="xtick_1">
     <g id="line2d_1">
      <defs>
       <path id="mfdacdf998e" d="M 0 0 
L 0 3.5 
" style="stroke: #000000; stroke-width: 0.8"/>
      </defs>
      <g>
       <use xlink:href="#mfdacdf998e" x="111.252125" y="170.728" style="stroke: #000000; stroke-width: 0.8"/>
      </g>
     </g>
     <g id="text_1">
      <!-- $\mathdefault{10^{0}}$ -->
      <g transform="translate(102.452125 185.326437) scale(0.1 -0.1)">
       <defs>
        <path id="DejaVuSans-31" d="M 794 531 
L 1825 531 
L 1825 4091 
L 703 3866 
L 703 4441 
L 1819 4666 
L 2450 4666 
L 2450 531 
L 3481 531 
L 3481 0 
L 794 0 
L 794 531 
z
" transform="scale(0.015625)"/>
        <path id="DejaVuSans-30" d="M 2034 4250 
Q 1547 4250 1301 3770 
Q 1056 3291 1056 2328 
Q 1056 1369 1301 889 
Q 1547 409 2034 409 
Q 2525 409 2770 889 
Q 3016 1369 3016 2328 
Q 3016 3291 2770 3770 
Q 2525 4250 2034 4250 
z
M 2034 4750 
Q 2819 4750 3233 4129 
Q 3647 3509 3647 2328 
Q 3647 1150 3233 529 
Q 2819 -91 2034 -91 
Q 1250 -91 836 529 
Q 422 1150 422 2328 
Q 422 3509 836 4129 
Q 1250 4750 2034 4750 
z
" transform="scale(0.015625)"/>
       </defs>
       <use xlink:href="#DejaVuSans-31" transform="translate(0 0.765625)"/>
       <use xlink:href="#DejaVuSans-30" transform="translate(63.623047 0.765625)"/>
       <use xlink:href="#DejaVuSans-30" transform="translate(128.203125 39.046875) scale(0.7)"/>
      </g>
     </g>
    </g>
    <g id="xtick_2">
     <g id="line2d_2">
      <g>
       <use xlink:href="#mfdacdf998e" x="232.517226" y="170.728" style="stroke: #000000; stroke-width: 0.8"/>
      </g>
     </g>
     <g id="text_2">
      <!-- $\mathdefault{10^{1}}$ -->
      <g transform="translate(223.717226 185.326437) scale(0.1 -0.1)">
       <use xlink:href="#DejaVuSans-31" transform="translate(0 0.684375)"/>
       <use xlink:href="#DejaVuSans-30" transform="translate(63.623047 0.684375)"/>
       <use xlink:href="#DejaVuSans-31" transform="translate(128.203125 38.965625) scale(0.7)"/>
      </g>
     </g>
    </g>
    <g id="xtick_3">
     <g id="line2d_3">
      <defs>
       <path id="m0965a7c076" d="M 0 0 
L 0 2 
" style="stroke: #000000; stroke-width: 0.6"/>
      </defs>
      <g>
       <use xlink:href="#m0965a7c076" x="62.995889" y="170.728" style="stroke: #000000; stroke-width: 0.6"/>
      </g>
     </g>
    </g>
    <g id="xtick_4">
     <g id="line2d_4">
      <g>
       <use xlink:href="#m0965a7c076" x="74.747692" y="170.728" style="stroke: #000000; stroke-width: 0.6"/>
      </g>
     </g>
    </g>
    <g id="xtick_5">
     <g id="line2d_5">
      <g>
       <use xlink:href="#m0965a7c076" x="84.349614" y="170.728" style="stroke: #000000; stroke-width: 0.6"/>
      </g>
     </g>
    </g>
    <g id="xtick_6">
     <g id="line2d_6">
      <g>
       <use xlink:href="#m0965a7c076" x="92.467923" y="170.728" style="stroke: #000000; stroke-width: 0.6"/>
      </g>
     </g>
    </g>
    <g id="xtick_7">
     <g id="line2d_7">
      <g>
       <use xlink:href="#m0965a7c076" x="99.500322" y="170.728" style="stroke: #000000; stroke-width: 0.6"/>
      </g>
     </g>
    </g>
    <g id="xtick_8">
     <g id="line2d_8">
      <g>
       <use xlink:href="#m0965a7c076" x="105.703338" y="170.728" style="stroke: #000000; stroke-width: 0.6"/>
      </g>
     </g>
    </g>
    <g id="xtick_9">
     <g id="line2d_9">
      <g>
       <use xlink:href="#m0965a7c076" x="147.756558" y="170.728" style="stroke: #000000; stroke-width: 0.6"/>
      </g>
     </g>
    </g>
    <g id="xtick_10">
     <g id="line2d_10">
      <g>
       <use xlink:href="#m0965a7c076" x="169.110282" y="170.728" style="stroke: #000000; stroke-width: 0.6"/>
      </g>
     </g>
    </g>
    <g id="xtick_11">
     <g id="line2d_11">
      <g>
       <use xlink:href="#m0965a7c076" x="184.260991" y="170.728" style="stroke: #000000; stroke-width: 0.6"/>
      </g>
     </g>
    </g>
    <g id="xtick_12">
     <g id="line2d_12">
      <g>
       <use xlink:href="#m0965a7c076" x="196.012793" y="170.728" style="stroke: #000000; stroke-width: 0.6"/>
      </g>
     </g>
    </g>
    <g id="xtick_13">
     <g id="line2d_13">
      <g>
       <use xlink:href="#m0965a7c076" x="205.614715" y="170.728" style="stroke: #000000; stroke-width: 0.6"/>
      </g>
     </g>
    </g>
    <g id="xtick_14">
     <g id="line2d_14">
      <g>
       <use xlink:href="#m0965a7c076" x="213.733024" y="170.728" style="stroke: #000000; stroke-width: 0.6"/>
      </g>
     </g>
    </g>
    <g id="xtick_15">
     <g id="line2d_15">
      <g>
       <use xlink:href="#m0965a7c076" x="220.765423" y="170.728" style="stroke: #000000; stroke-width: 0.6"/>
      </g>
     </g>
    </g>
    <g id="xtick_16">
     <g id="line2d_16">
      <g>
       <use xlink:href="#m0965a7c076" x="226.968439" y="170.728" style="stroke: #000000; stroke-width: 0.6"/>
      </g>
     </g>
    </g>
    <g id="xtick_17">
     <g id="line2d_17">
      <g>
       <use xlink:href="#m0965a7c076" x="269.021659" y="170.728" style="stroke: #000000; stroke-width: 0.6"/>
      </g>
     </g>
    </g>
    <g id="xtick_18">
     <g id="line2d_18">
      <g>
       <use xlink:href="#m0965a7c076" x="290.375383" y="170.728" style="stroke: #000000; stroke-width: 0.6"/>
      </g>
     </g>
    </g>
    <g id="xtick_19">
     <g id="line2d_19">
      <g>
       <use xlink:href="#m0965a7c076" x="305.526092" y="170.728" style="stroke: #000000; stroke-width: 0.6"/>
      </g>
     </g>
    </g>
    <g id="xtick_20">
     <g id="line2d_20">
      <g>
       <use xlink:href="#m0965a7c076" x="317.277894" y="170.728" style="stroke: #000000; stroke-width: 0.6"/>
      </g>
     </g>
    </g>
    <g id="xtick_21">
     <g id="line2d_21">
      <g>
       <use xlink:href="#m0965a7c076" x="326.879816" y="170.728" style="stroke: #000000; stroke-width: 0.6"/>
      </g>
     </g>
    </g>
    <g id="xtick_22">
     <g id="line2d_22">
      <g>
       <use xlink:href="#m0965a7c076" x="334.998125" y="170.728" style="stroke: #000000; stroke-width: 0.6"/>
      </g>
     </g>
    </g>
    <g id="xtick_23">
     <g id="line2d_23">
      <g>
       <use xlink:href="#m0965a7c076" x="342.030524" y="170.728" style="stroke: #000000; stroke-width: 0.6"/>
      </g>
     </g>
    </g>
    <g id="xtick_24">
     <g id="line2d_24">
      <g>
       <use xlink:href="#m0965a7c076" x="348.23354" y="170.728" style="stroke: #000000; stroke-width: 0.6"/>
      </g>
     </g>
    </g>
    <g id="text_3">
     <!-- Energy [TeV] -->
     <g transform="translate(173.013038 199.004562) scale(0.1 -0.1)">
      <defs>
       <path id="DejaVuSans-45" d="M 628 4666 
L 3578 4666 
L 3578 4134 
L 1259 4134 
L 1259 2753 
L 3481 2753 
L 3481 2222 
L 1259 2222 
L 1259 531 
L 3634 531 
L 3634 0 
L 628 0 
L 628 4666 
z
" transform="scale(0.015625)"/>
       <path id="DejaVuSans-6e" d="M 3513 2113 
L 3513 0 
L 2938 0 
L 2938 2094 
Q 2938 2591 2744 2837 
Q 2550 3084 2163 3084 
Q 1697 3084 1428 2787 
Q 1159 2491 1159 1978 
L 1159 0 
L 581 0 
L 581 3500 
L 1159 3500 
L 1159 2956 
Q 1366 3272 1645 3428 
Q 1925 3584 2291 3584 
Q 2894 3584 3203 3211 
Q 3513 2838 3513 2113 
z
" transform="scale(0.015625)"/>
       <path id="DejaVuSans-65" d="M 3597 1894 
L 3597 1613 
L 953 1613 
Q 991 1019 1311 708 
Q 1631 397 2203 397 
Q 2534 397 2845 478 
Q 3156 559 3463 722 
L 3463 178 
Q 3153 47 2828 -22 
Q 2503 -91 2169 -91 
Q 1331 -91 842 396 
Q 353 884 353 1716 
Q 353 2575 817 3079 
Q 1281 3584 2069 3584 
Q 2775 3584 3186 3129 
Q 3597 2675 3597 1894 
z
M 3022 2063 
Q 3016 2534 2758 2815 
Q 2500 3097 2075 3097 
Q 1594 3097 1305 2825 
Q 1016 2553 972 2059 
L 3022 2063 
z
" transform="scale(0.015625)"/>
       <path id="DejaVuSans-72" d="M 2631 2963 
Q 2534 3019 2420 3045 
Q 2306 3072 2169 3072 
Q 1681 3072 1420 2755 
Q 1159 2438 1159 1844 
L 1159 0 
L 581 0 
L 581 3500 
L 1159 3500 
L 1159 2956 
Q 1341 3275 1631 3429 
Q 1922 3584 2338 3584 
Q 2397 3584 2469 3576 
Q 2541 3569 2628 3553 
L 2631 2963 
z
" transform="scale(0.015625)"/>
       <path id="DejaVuSans-67" d="M 2906 1791 
Q 2906 2416 2648 2759 
Q 2391 3103 1925 3103 
Q 1463 3103 1205 2759 
Q 947 2416 947 1791 
Q 947 1169 1205 825 
Q 1463 481 1925 481 
Q 2391 481 2648 825 
Q 2906 1169 2906 1791 
z
M 3481 434 
Q 3481 -459 3084 -895 
Q 2688 -1331 1869 -1331 
Q 1566 -1331 1297 -1286 
Q 1028 -1241 775 -1147 
L 775 -588 
Q 1028 -725 1275 -790 
Q 1522 -856 1778 -856 
Q 2344 -856 2625 -561 
Q 2906 -266 2906 331 
L 2906 616 
Q 2728 306 2450 153 
Q 2172 0 1784 0 
Q 1141 0 747 490 
Q 353 981 353 1791 
Q 353 2603 747 3093 
Q 1141 3584 1784 3584 
Q 2172 3584 2450 3431 
Q 2728 3278 2906 2969 
L 2906 3500 
L 3481 3500 
L 3481 434 
z
" transform="scale(0.015625)"/>
       <path id="DejaVuSans-79" d="M 2059 -325 
Q 1816 -950 1584 -1140 
Q 1353 -1331 966 -1331 
L 506 -1331 
L 506 -850 
L 844 -850 
Q 1081 -850 1212 -737 
Q 1344 -625 1503 -206 
L 1606 56 
L 191 3500 
L 800 3500 
L 1894 763 
L 2988 3500 
L 3597 3500 
L 2059 -325 
z
" transform="scale(0.015625)"/>
       <path id="DejaVuSans-20" transform="scale(0.015625)"/>
       <path id="DejaVuSans-5b" d="M 550 4863 
L 1875 4863 
L 1875 4416 
L 1125 4416 
L 1125 -397 
L 1875 -397 
L 1875 -844 
L 550 -844 
L 550 4863 
z
" transform="scale(0.015625)"/>
       <path id="DejaVuSans-54" d="M -19 4666 
L 3928 4666 
L 3928 4134 
L 2272 4134 
L 2272 0 
L 1638 0 
L 1638 4134 
L -19 4134 
L -19 4666 
z
" transform="scale(0.015625)"/>
       <path id="DejaVuSans-56" d="M 1831 0 
L 50 4666 
L 709 4666 
L 2188 738 
L 3669 4666 
L 4325 4666 
L 2547 0 
L 1831 0 
z
" transform="scale(0.015625)"/>
       <path id="DejaVuSans-5d" d="M 1947 4863 
L 1947 -844 
L 622 -844 
L 622 -397 
L 1369 -397 
L 1369 4416 
L 622 4416 
L 622 4863 
L 1947 4863 
z
" transform="scale(0.015625)"/>
      </defs>
      <use xlink:href="#DejaVuSans-45"/>
      <use xlink:href="#DejaVuSans-6e" x="63.183594"/>
      <use xlink:href="#DejaVuSans-65" x="126.5625"/>
      <use xlink:href="#DejaVuSans-72" x="188.085938"/>
      <use xlink:href="#DejaVuSans-67" x="227.449219"/>
      <use xlink:href="#DejaVuSans-79" x="290.925781"/>
      <use xlink:href="#DejaVuSans-20" x="350.105469"/>
      <use xlink:href="#DejaVuSans-5b" x="381.892578"/>
      <use xlink:href="#DejaVuSans-54" x="420.90625"/>
      <use xlink:href="#DejaVuSans-65" x="464.990234"/>
      <use xlink:href="#DejaVuSans-56" x="526.513672"/>
      <use xlink:href="#DejaVuSans-5d" x="594.921875"/>
     </g>
    </g>
   </g>
   <g id="matplotlib.axis_2">
    <g id="ytick_1">
     <g id="line2d_25">
      <defs>
       <path id="m0561962499" d="M 0 0 
L -3.5 0 
" style="stroke: #000000; stroke-width: 0.8"/>
      </defs>
      <g>
       <use xlink:href="#m0561962499" x="60.221389" y="74.024357" style="stroke: #000000; stroke-width: 0.8"/>
      </g>
     </g>
     <g id="text_4">
      <!-- $\mathdefault{10^{-12}}$ -->
      <g transform="translate(25.321389 77.823575) scale(0.1 -0.1)">
       <defs>
        <path id="DejaVuSans-2212" d="M 678 2272 
L 4684 2272 
L 4684 1741 
L 678 1741 
L 678 2272 
z
" transform="scale(0.015625)"/>
        <path id="DejaVuSans-32" d="M 1228 531 
L 3431 531 
L 3431 0 
L 469 0 
L 469 531 
Q 828 903 1448 1529 
Q 2069 2156 2228 2338 
Q 2531 2678 2651 2914 
Q 2772 3150 2772 3378 
Q 2772 3750 2511 3984 
Q 2250 4219 1831 4219 
Q 1534 4219 1204 4116 
Q 875 4013 500 3803 
L 500 4441 
Q 881 4594 1212 4672 
Q 1544 4750 1819 4750 
Q 2544 4750 2975 4387 
Q 3406 4025 3406 3419 
Q 3406 3131 3298 2873 
Q 3191 2616 2906 2266 
Q 2828 2175 2409 1742 
Q 1991 1309 1228 531 
z
" transform="scale(0.015625)"/>
       </defs>
       <use xlink:href="#DejaVuSans-31" transform="translate(0 0.765625)"/>
       <use xlink:href="#DejaVuSans-30" transform="translate(63.623047 0.765625)"/>
       <use xlink:href="#DejaVuSans-2212" transform="translate(128.203125 39.046875) scale(0.7)"/>
       <use xlink:href="#DejaVuSans-31" transform="translate(186.855469 39.046875) scale(0.7)"/>
       <use xlink:href="#DejaVuSans-32" transform="translate(231.391602 39.046875) scale(0.7)"/>
      </g>
     </g>
    </g>
    <g id="ytick_2">
     <g id="line2d_26">
      <defs>
       <path id="m946d46f4e6" d="M 0 0 
L -2 0 
" style="stroke: #000000; stroke-width: 0.6"/>
      </defs>
      <g>
       <use xlink:href="#m946d46f4e6" x="60.221389" y="169.79516" style="stroke: #000000; stroke-width: 0.6"/>
      </g>
     </g>
    </g>
    <g id="ytick_3">
     <g id="line2d_27">
      <g>
       <use xlink:href="#m946d46f4e6" x="60.221389" y="145.667656" style="stroke: #000000; stroke-width: 0.6"/>
      </g>
     </g>
    </g>
    <g id="ytick_4">
     <g id="line2d_28">
      <g>
       <use xlink:href="#m946d46f4e6" x="60.221389" y="128.54892" style="stroke: #000000; stroke-width: 0.6"/>
      </g>
     </g>
    </g>
    <g id="ytick_5">
     <g id="line2d_29">
      <g>
       <use xlink:href="#m946d46f4e6" x="60.221389" y="115.270597" style="stroke: #000000; stroke-width: 0.6"/>
      </g>
     </g>
    </g>
    <g id="ytick_6">
     <g id="line2d_30">
      <g>
       <use xlink:href="#m946d46f4e6" x="60.221389" y="104.421416" style="stroke: #000000; stroke-width: 0.6"/>
      </g>
     </g>
    </g>
    <g id="ytick_7">
     <g id="line2d_31">
      <g>
       <use xlink:href="#m946d46f4e6" x="60.221389" y="95.248565" style="stroke: #000000; stroke-width: 0.6"/>
      </g>
     </g>
    </g>
    <g id="ytick_8">
     <g id="line2d_32">
      <g>
       <use xlink:href="#m946d46f4e6" x="60.221389" y="87.30268" style="stroke: #000000; stroke-width: 0.6"/>
      </g>
     </g>
    </g>
    <g id="ytick_9">
     <g id="line2d_33">
      <g>
       <use xlink:href="#m946d46f4e6" x="60.221389" y="80.293913" style="stroke: #000000; stroke-width: 0.6"/>
      </g>
     </g>
    </g>
    <g id="ytick_10">
     <g id="line2d_34">
      <g>
       <use xlink:href="#m946d46f4e6" x="60.221389" y="32.778117" style="stroke: #000000; stroke-width: 0.6"/>
      </g>
     </g>
    </g>
    <g id="text_5">
     <!-- e2 * dnde [TeV / (cm2 s)] -->
     <g transform="translate(19.241702 153.243688) rotate(-90) scale(0.1 -0.1)">
      <defs>
       <path id="DejaVuSans-2a" d="M 3009 3897 
L 1888 3291 
L 3009 2681 
L 2828 2375 
L 1778 3009 
L 1778 1831 
L 1422 1831 
L 1422 3009 
L 372 2375 
L 191 2681 
L 1313 3291 
L 191 3897 
L 372 4206 
L 1422 3572 
L 1422 4750 
L 1778 4750 
L 1778 3572 
L 2828 4206 
L 3009 3897 
z
" transform="scale(0.015625)"/>
       <path id="DejaVuSans-64" d="M 2906 2969 
L 2906 4863 
L 3481 4863 
L 3481 0 
L 2906 0 
L 2906 525 
Q 2725 213 2448 61 
Q 2172 -91 1784 -91 
Q 1150 -91 751 415 
Q 353 922 353 1747 
Q 353 2572 751 3078 
Q 1150 3584 1784 3584 
Q 2172 3584 2448 3432 
Q 2725 3281 2906 2969 
z
M 947 1747 
Q 947 1113 1208 752 
Q 1469 391 1925 391 
Q 2381 391 2643 752 
Q 2906 1113 2906 1747 
Q 2906 2381 2643 2742 
Q 2381 3103 1925 3103 
Q 1469 3103 1208 2742 
Q 947 2381 947 1747 
z
" transform="scale(0.015625)"/>
       <path id="DejaVuSans-2f" d="M 1625 4666 
L 2156 4666 
L 531 -594 
L 0 -594 
L 1625 4666 
z
" transform="scale(0.015625)"/>
       <path id="DejaVuSans-28" d="M 1984 4856 
Q 1566 4138 1362 3434 
Q 1159 2731 1159 2009 
Q 1159 1288 1364 580 
Q 1569 -128 1984 -844 
L 1484 -844 
Q 1016 -109 783 600 
Q 550 1309 550 2009 
Q 550 2706 781 3412 
Q 1013 4119 1484 4856 
L 1984 4856 
z
" transform="scale(0.015625)"/>
       <path id="DejaVuSans-63" d="M 3122 3366 
L 3122 2828 
Q 2878 2963 2633 3030 
Q 2388 3097 2138 3097 
Q 1578 3097 1268 2742 
Q 959 2388 959 1747 
Q 959 1106 1268 751 
Q 1578 397 2138 397 
Q 2388 397 2633 464 
Q 2878 531 3122 666 
L 3122 134 
Q 2881 22 2623 -34 
Q 2366 -91 2075 -91 
Q 1284 -91 818 406 
Q 353 903 353 1747 
Q 353 2603 823 3093 
Q 1294 3584 2113 3584 
Q 2378 3584 2631 3529 
Q 2884 3475 3122 3366 
z
" transform="scale(0.015625)"/>
       <path id="DejaVuSans-6d" d="M 3328 2828 
Q 3544 3216 3844 3400 
Q 4144 3584 4550 3584 
Q 5097 3584 5394 3201 
Q 5691 2819 5691 2113 
L 5691 0 
L 5113 0 
L 5113 2094 
Q 5113 2597 4934 2840 
Q 4756 3084 4391 3084 
Q 3944 3084 3684 2787 
Q 3425 2491 3425 1978 
L 3425 0 
L 2847 0 
L 2847 2094 
Q 2847 2600 2669 2842 
Q 2491 3084 2119 3084 
Q 1678 3084 1418 2786 
Q 1159 2488 1159 1978 
L 1159 0 
L 581 0 
L 581 3500 
L 1159 3500 
L 1159 2956 
Q 1356 3278 1631 3431 
Q 1906 3584 2284 3584 
Q 2666 3584 2933 3390 
Q 3200 3197 3328 2828 
z
" transform="scale(0.015625)"/>
       <path id="DejaVuSans-73" d="M 2834 3397 
L 2834 2853 
Q 2591 2978 2328 3040 
Q 2066 3103 1784 3103 
Q 1356 3103 1142 2972 
Q 928 2841 928 2578 
Q 928 2378 1081 2264 
Q 1234 2150 1697 2047 
L 1894 2003 
Q 2506 1872 2764 1633 
Q 3022 1394 3022 966 
Q 3022 478 2636 193 
Q 2250 -91 1575 -91 
Q 1294 -91 989 -36 
Q 684 19 347 128 
L 347 722 
Q 666 556 975 473 
Q 1284 391 1588 391 
Q 1994 391 2212 530 
Q 2431 669 2431 922 
Q 2431 1156 2273 1281 
Q 2116 1406 1581 1522 
L 1381 1569 
Q 847 1681 609 1914 
Q 372 2147 372 2553 
Q 372 3047 722 3315 
Q 1072 3584 1716 3584 
Q 2034 3584 2315 3537 
Q 2597 3491 2834 3397 
z
" transform="scale(0.015625)"/>
       <path id="DejaVuSans-29" d="M 513 4856 
L 1013 4856 
Q 1481 4119 1714 3412 
Q 1947 2706 1947 2009 
Q 1947 1309 1714 600 
Q 1481 -109 1013 -844 
L 513 -844 
Q 928 -128 1133 580 
Q 1338 1288 1338 2009 
Q 1338 2731 1133 3434 
Q 928 4138 513 4856 
z
" transform="scale(0.015625)"/>
      </defs>
      <use xlink:href="#DejaVuSans-65"/>
      <use xlink:href="#DejaVuSans-32" x="61.523438"/>
      <use xlink:href="#DejaVuSans-20" x="125.146484"/>
      <use xlink:href="#DejaVuSans-2a" x="156.933594"/>
      <use xlink:href="#DejaVuSans-20" x="206.933594"/>
      <use xlink:href="#DejaVuSans-64" x="238.720703"/>
      <use xlink:href="#DejaVuSans-6e" x="302.197266"/>
      <use xlink:href="#DejaVuSans-64" x="365.576172"/>
      <use xlink:href="#DejaVuSans-65" x="429.052734"/>
      <use xlink:href="#DejaVuSans-20" x="490.576172"/>
      <use xlink:href="#DejaVuSans-5b" x="522.363281"/>
      <use xlink:href="#DejaVuSans-54" x="561.376953"/>
      <use xlink:href="#DejaVuSans-65" x="605.460938"/>
      <use xlink:href="#DejaVuSans-56" x="666.984375"/>
      <use xlink:href="#DejaVuSans-20" x="735.392578"/>
      <use xlink:href="#DejaVuSans-2f" x="767.179688"/>
      <use xlink:href="#DejaVuSans-20" x="800.871094"/>
      <use xlink:href="#DejaVuSans-28" x="832.658203"/>
      <use xlink:href="#DejaVuSans-63" x="871.671875"/>
      <use xlink:href="#DejaVuSans-6d" x="926.652344"/>
      <use xlink:href="#DejaVuSans-32" x="1024.064453"/>
      <use xlink:href="#DejaVuSans-20" x="1087.6875"/>
      <use xlink:href="#DejaVuSans-73" x="1119.474609"/>
      <use xlink:href="#DejaVuSans-29" x="1171.574219"/>
      <use xlink:href="#DejaVuSans-5d" x="1210.587891"/>
     </g>
    </g>
   </g>
   <g id="line2d_35">
    <path d="M 74.645222 61.615751 
L 77.222106 62.489234 
L 79.798989 63.362718 
L 82.375873 64.236202 
L 84.952756 65.109685 
L 87.529639 65.983169 
L 90.106523 66.856652 
L 92.683406 67.730136 
L 95.26029 68.60362 
L 97.837173 69.477103 
L 100.414056 70.350587 
L 102.99094 71.224071 
L 105.567823 72.097554 
L 108.144707 72.971038 
L 110.72159 73.844522 
L 113.298473 74.718005 
L 115.875357 75.591489 
L 118.45224 76.464973 
L 121.029124 77.338456 
L 123.606007 78.21194 
L 126.18289 79.085424 
L 128.759774 79.958907 
L 131.336657 80.832391 
L 133.913541 81.705875 
L 136.490424 82.579358 
L 139.067307 83.452842 
L 141.644191 84.326326 
L 144.221074 85.199809 
L 146.797958 86.073293 
L 149.374841 86.946776 
L 151.951724 87.82026 
L 154.528608 88.693744 
L 157.105491 89.567227 
L 159.682375 90.440711 
L 162.259258 91.314195 
L 164.836141 92.187678 
L 167.413025 93.061162 
L 169.989908 93.934646 
L 172.566792 94.808129 
L 175.143675 95.681613 
L 177.720558 96.555097 
L 180.297442 97.42858 
L 182.874325 98.302064 
L 185.451209 99.175548 
L 188.028092 100.049031 
L 190.604975 100.922515 
L 193.181859 101.795999 
L 195.758742 102.669482 
L 198.335626 103.542966 
L 200.912509 104.41645 
L 203.489392 105.289933 
L 206.066276 106.163417 
L 208.643159 107.0369 
L 211.220042 107.910384 
L 213.796926 108.783868 
L 216.373809 109.657351 
L 218.950693 110.530835 
L 221.527576 111.404319 
L 224.104459 112.277802 
L 226.681343 113.151286 
L 229.258226 114.02477 
L 231.83511 114.898253 
L 234.411993 115.771737 
L 236.988876 116.645221 
L 239.56576 117.518704 
L 242.142643 118.392188 
L 244.719527 119.265672 
L 247.29641 120.139155 
L 249.873293 121.012639 
L 252.450177 121.886123 
L 255.02706 122.759606 
L 257.603944 123.63309 
L 260.180827 124.506574 
L 262.75771 125.380057 
L 265.334594 126.253541 
L 267.911477 127.127024 
L 270.488361 128.000508 
L 273.065244 128.873992 
L 275.642127 129.747475 
L 278.219011 130.620959 
L 280.795894 131.494443 
L 283.372778 132.367926 
L 285.949661 133.24141 
L 288.526544 134.114894 
L 291.103428 134.988377 
L 293.680311 135.861861 
L 296.257195 136.735345 
L 298.834078 137.608828 
L 301.410961 138.482312 
L 303.987845 139.355796 
L 306.564728 140.229279 
L 309.141612 141.102763 
L 311.718495 141.976247 
L 314.295378 142.84973 
L 316.872262 143.723214 
L 319.449145 144.596698 
L 322.026029 145.470181 
L 324.602912 146.343665 
L 327.179795 147.217148 
L 329.756679 148.090632 
" clip-path="url(#p4885661f95)" style="fill: none; stroke-dasharray: 1.5,2.475; stroke-dashoffset: 0; stroke: #000000; stroke-width: 1.5"/>
   </g>
   <g id="LineCollection_1">
    <path clip-path="url(#p4885661f95)" style="fill: none; stroke: #8b0000; stroke-width: 1.5"/>
    <path clip-path="url(#p4885661f95)" style="fill: none; stroke: #8b0000; stroke-width: 1.5"/>
    <path clip-path="url(#p4885661f95)" style="fill: none; stroke: #8b0000; stroke-width: 1.5"/>
    <path clip-path="url(#p4885661f95)" style="fill: none; stroke: #8b0000; stroke-width: 1.5"/>
    <path clip-path="url(#p4885661f95)" style="fill: none; stroke: #8b0000; stroke-width: 1.5"/>
    <path d="M 78.376269 217 
L 78.376269 18.213854 
" clip-path="url(#p4885661f95)" style="fill: none; stroke: #8b0000; stroke-width: 1.5"/>
    <path d="M 93.534407 97.585323 
L 93.534407 45.92565 
" clip-path="url(#p4885661f95)" style="fill: none; stroke: #8b0000; stroke-width: 1.5"/>
    <path d="M 108.692544 85.387522 
L 108.692544 60.174124 
" clip-path="url(#p4885661f95)" style="fill: none; stroke: #8b0000; stroke-width: 1.5"/>
    <path d="M 123.850682 88.382382 
L 123.850682 66.758279 
" clip-path="url(#p4885661f95)" style="fill: none; stroke: #8b0000; stroke-width: 1.5"/>
    <path d="M 139.008819 93.57802 
L 139.008819 71.856471 
" clip-path="url(#p4885661f95)" style="fill: none; stroke: #8b0000; stroke-width: 1.5"/>
    <path d="M 154.166957 99.185895 
L 154.166957 76.670699 
" clip-path="url(#p4885661f95)" style="fill: none; stroke: #8b0000; stroke-width: 1.5"/>
    <path d="M 169.325095 105.247649 
L 169.325095 81.184356 
" clip-path="url(#p4885661f95)" style="fill: none; stroke: #8b0000; stroke-width: 1.5"/>
    <path d="M 184.483232 111.712455 
L 184.483232 85.453272 
" clip-path="url(#p4885661f95)" style="fill: none; stroke: #8b0000; stroke-width: 1.5"/>
    <path d="M 199.64137 118.266016 
L 199.64137 89.698477 
" clip-path="url(#p4885661f95)" style="fill: none; stroke: #8b0000; stroke-width: 1.5"/>
    <path d="M 214.799508 125.382827 
L 214.799508 93.644489 
" clip-path="url(#p4885661f95)" style="fill: none; stroke: #8b0000; stroke-width: 1.5"/>
    <path d="M 229.957645 133.109489 
L 229.957645 97.314933 
" clip-path="url(#p4885661f95)" style="fill: none; stroke: #8b0000; stroke-width: 1.5"/>
    <path d="M 245.115783 141.307737 
L 245.115783 100.840629 
" clip-path="url(#p4885661f95)" style="fill: none; stroke: #8b0000; stroke-width: 1.5"/>
    <path d="M 260.27392 150.473136 
L 260.27392 104.038087 
" clip-path="url(#p4885661f95)" style="fill: none; stroke: #8b0000; stroke-width: 1.5"/>
    <path d="M 275.432058 160.806136 
L 275.432058 106.939257 
" clip-path="url(#p4885661f95)" style="fill: none; stroke: #8b0000; stroke-width: 1.5"/>
    <path d="M 290.590196 171.951786 
L 290.590196 109.810064 
" clip-path="url(#p4885661f95)" style="fill: none; stroke: #8b0000; stroke-width: 1.5"/>
    <path d="M 305.748333 185.191175 
L 305.748333 112.340601 
" clip-path="url(#p4885661f95)" style="fill: none; stroke: #8b0000; stroke-width: 1.5"/>
    <path d="M 320.906471 202.788373 
L 320.906471 114.262572 
" clip-path="url(#p4885661f95)" style="fill: none; stroke: #8b0000; stroke-width: 1.5"/>
    <path d="M 336.064609 217 
L 336.064609 114.994138 
" clip-path="url(#p4885661f95)" style="fill: none; stroke: #8b0000; stroke-width: 1.5"/>
    <path clip-path="url(#p4885661f95)" style="fill: none; stroke: #8b0000; stroke-width: 1.5"/>
   </g>
   <g id="LineCollection_2">
    <path clip-path="url(#p4885661f95)" style="fill: none; stroke: #006400; stroke-width: 1.5"/>
    <path clip-path="url(#p4885661f95)" style="fill: none; stroke: #006400; stroke-width: 1.5"/>
    <path clip-path="url(#p4885661f95)" style="fill: none; stroke: #006400; stroke-width: 1.5"/>
    <path clip-path="url(#p4885661f95)" style="fill: none; stroke: #006400; stroke-width: 1.5"/>
    <path clip-path="url(#p4885661f95)" style="fill: none; stroke: #006400; stroke-width: 1.5"/>
    <path d="M 73.356781 217 
L 73.356781 18.069455 
" clip-path="url(#p4885661f95)" style="fill: none; stroke: #006400; stroke-width: 1.5"/>
    <path d="M 88.514918 98.897355 
L 88.514918 45.383457 
" clip-path="url(#p4885661f95)" style="fill: none; stroke: #006400; stroke-width: 1.5"/>
    <path d="M 103.673056 87.313597 
L 103.673056 58.946237 
" clip-path="url(#p4885661f95)" style="fill: none; stroke: #006400; stroke-width: 1.5"/>
    <path d="M 118.831194 90.50779 
L 118.831194 65.323935 
" clip-path="url(#p4885661f95)" style="fill: none; stroke: #006400; stroke-width: 1.5"/>
    <path d="M 133.989331 95.677262 
L 133.989331 70.441592 
" clip-path="url(#p4885661f95)" style="fill: none; stroke: #006400; stroke-width: 1.5"/>
    <path d="M 149.147469 101.198483 
L 149.147469 75.330383 
" clip-path="url(#p4885661f95)" style="fill: none; stroke: #006400; stroke-width: 1.5"/>
    <path d="M 164.305607 107.137675 
L 164.305607 79.955574 
" clip-path="url(#p4885661f95)" style="fill: none; stroke: #006400; stroke-width: 1.5"/>
    <path d="M 179.463744 113.475853 
L 179.463744 84.346037 
" clip-path="url(#p4885661f95)" style="fill: none; stroke: #006400; stroke-width: 1.5"/>
    <path d="M 194.621882 119.903756 
L 194.621882 88.707271 
" clip-path="url(#p4885661f95)" style="fill: none; stroke: #006400; stroke-width: 1.5"/>
    <path d="M 209.780019 126.912822 
L 209.780019 92.7649 
" clip-path="url(#p4885661f95)" style="fill: none; stroke: #006400; stroke-width: 1.5"/>
    <path d="M 224.938157 134.550768 
L 224.938157 96.539721 
" clip-path="url(#p4885661f95)" style="fill: none; stroke: #006400; stroke-width: 1.5"/>
    <path d="M 240.096295 142.670113 
L 240.096295 100.162215 
" clip-path="url(#p4885661f95)" style="fill: none; stroke: #006400; stroke-width: 1.5"/>
    <path d="M 255.254432 151.764771 
L 255.254432 103.455438 
" clip-path="url(#p4885661f95)" style="fill: none; stroke: #006400; stroke-width: 1.5"/>
    <path d="M 270.41257 162.045532 
L 270.41257 106.445236 
" clip-path="url(#p4885661f95)" style="fill: none; stroke: #006400; stroke-width: 1.5"/>
    <path d="M 285.570708 173.166081 
L 285.570708 109.388534 
" clip-path="url(#p4885661f95)" style="fill: none; stroke: #006400; stroke-width: 1.5"/>
    <path d="M 300.728845 186.414348 
L 300.728845 111.98575 
" clip-path="url(#p4885661f95)" style="fill: none; stroke: #006400; stroke-width: 1.5"/>
    <path d="M 315.886983 204.093759 
L 315.886983 113.971642 
" clip-path="url(#p4885661f95)" style="fill: none; stroke: #006400; stroke-width: 1.5"/>
    <path d="M 331.04512 217 
L 331.04512 114.768209 
" clip-path="url(#p4885661f95)" style="fill: none; stroke: #006400; stroke-width: 1.5"/>
    <path clip-path="url(#p4885661f95)" style="fill: none; stroke: #006400; stroke-width: 1.5"/>
   </g>
   <g id="line2d_36">
    <defs>
     <path id="mf5ac0d9f0b" d="M 0 3 
C 0.795609 3 1.55874 2.683901 2.12132 2.12132 
C 2.683901 1.55874 3 0.795609 3 0 
C 3 -0.795609 2.683901 -1.55874 2.12132 -2.12132 
C 1.55874 -2.683901 0.795609 -3 0 -3 
C -0.795609 -3 -1.55874 -2.683901 -2.12132 -2.12132 
C -2.683901 -1.55874 -3 -0.795609 -3 0 
C -3 0.795609 -2.683901 1.55874 -2.12132 2.12132 
C -1.55874 2.683901 -0.795609 3 0 3 
z
" style="stroke: #8b0000"/>
    </defs>
    <g clip-path="url(#p4885661f95)">
     <use xlink:href="#mf5ac0d9f0b" x="78.376269" y="61.179182" style="fill: #8b0000; stroke: #8b0000"/>
     <use xlink:href="#mf5ac0d9f0b" x="93.534407" y="66.317148" style="fill: #8b0000; stroke: #8b0000"/>
     <use xlink:href="#mf5ac0d9f0b" x="108.692544" y="71.455287" style="fill: #8b0000; stroke: #8b0000"/>
     <use xlink:href="#mf5ac0d9f0b" x="123.850682" y="76.593426" style="fill: #8b0000; stroke: #8b0000"/>
     <use xlink:href="#mf5ac0d9f0b" x="139.008819" y="81.731565" style="fill: #8b0000; stroke: #8b0000"/>
     <use xlink:href="#mf5ac0d9f0b" x="154.166957" y="86.869704" style="fill: #8b0000; stroke: #8b0000"/>
     <use xlink:href="#mf5ac0d9f0b" x="169.325095" y="92.007844" style="fill: #8b0000; stroke: #8b0000"/>
     <use xlink:href="#mf5ac0d9f0b" x="184.483232" y="97.145983" style="fill: #8b0000; stroke: #8b0000"/>
     <use xlink:href="#mf5ac0d9f0b" x="199.64137" y="102.284122" style="fill: #8b0000; stroke: #8b0000"/>
     <use xlink:href="#mf5ac0d9f0b" x="214.799508" y="107.422255" style="fill: #8b0000; stroke: #8b0000"/>
     <use xlink:href="#mf5ac0d9f0b" x="229.957645" y="112.560394" style="fill: #8b0000; stroke: #8b0000"/>
     <use xlink:href="#mf5ac0d9f0b" x="245.115783" y="117.698519" style="fill: #8b0000; stroke: #8b0000"/>
     <use xlink:href="#mf5ac0d9f0b" x="260.27392" y="122.836651" style="fill: #8b0000; stroke: #8b0000"/>
     <use xlink:href="#mf5ac0d9f0b" x="275.432058" y="127.974813" style="fill: #8b0000; stroke: #8b0000"/>
     <use xlink:href="#mf5ac0d9f0b" x="290.590196" y="133.112957" style="fill: #8b0000; stroke: #8b0000"/>
     <use xlink:href="#mf5ac0d9f0b" x="305.748333" y="138.251096" style="fill: #8b0000; stroke: #8b0000"/>
     <use xlink:href="#mf5ac0d9f0b" x="320.906471" y="143.389205" style="fill: #8b0000; stroke: #8b0000"/>
     <use xlink:href="#mf5ac0d9f0b" x="336.064609" y="148.527301" style="fill: #8b0000; stroke: #8b0000"/>
    </g>
   </g>
   <g id="line2d_37">
    <defs>
     <path id="m3e3ef6ee6b" d="M 0 3 
C 0.795609 3 1.55874 2.683901 2.12132 2.12132 
C 2.683901 1.55874 3 0.795609 3 0 
C 3 -0.795609 2.683901 -1.55874 2.12132 -2.12132 
C 1.55874 -2.683901 0.795609 -3 0 -3 
C -0.795609 -3 -1.55874 -2.683901 -2.12132 -2.12132 
C -2.683901 -1.55874 -3 -0.795609 -3 0 
C -3 0.795609 -2.683901 1.55874 -2.12132 2.12132 
C -1.55874 2.683901 -0.795609 3 0 3 
z
" style="stroke: #006400"/>
    </defs>
    <g clip-path="url(#p4885661f95)">
     <use xlink:href="#m3e3ef6ee6b" x="73.356781" y="61.178924" style="fill: #006400; stroke: #006400"/>
     <use xlink:href="#m3e3ef6ee6b" x="88.514918" y="66.317148" style="fill: #006400; stroke: #006400"/>
     <use xlink:href="#m3e3ef6ee6b" x="103.673056" y="71.455287" style="fill: #006400; stroke: #006400"/>
     <use xlink:href="#m3e3ef6ee6b" x="118.831194" y="76.593408" style="fill: #006400; stroke: #006400"/>
     <use xlink:href="#m3e3ef6ee6b" x="133.989331" y="81.731565" style="fill: #006400; stroke: #006400"/>
     <use xlink:href="#m3e3ef6ee6b" x="149.147469" y="86.869704" style="fill: #006400; stroke: #006400"/>
     <use xlink:href="#m3e3ef6ee6b" x="164.305607" y="92.007844" style="fill: #006400; stroke: #006400"/>
     <use xlink:href="#m3e3ef6ee6b" x="179.463744" y="97.145976" style="fill: #006400; stroke: #006400"/>
     <use xlink:href="#m3e3ef6ee6b" x="194.621882" y="102.284122" style="fill: #006400; stroke: #006400"/>
     <use xlink:href="#m3e3ef6ee6b" x="209.780019" y="107.422239" style="fill: #006400; stroke: #006400"/>
     <use xlink:href="#m3e3ef6ee6b" x="224.938157" y="112.5604" style="fill: #006400; stroke: #006400"/>
     <use xlink:href="#m3e3ef6ee6b" x="240.096295" y="117.698539" style="fill: #006400; stroke: #006400"/>
     <use xlink:href="#m3e3ef6ee6b" x="255.254432" y="122.836651" style="fill: #006400; stroke: #006400"/>
     <use xlink:href="#m3e3ef6ee6b" x="270.41257" y="127.974817" style="fill: #006400; stroke: #006400"/>
     <use xlink:href="#m3e3ef6ee6b" x="285.570708" y="133.112957" style="fill: #006400; stroke: #006400"/>
     <use xlink:href="#m3e3ef6ee6b" x="300.728845" y="138.251096" style="fill: #006400; stroke: #006400"/>
     <use xlink:href="#m3e3ef6ee6b" x="315.886983" y="143.389228" style="fill: #006400; stroke: #006400"/>
     <use xlink:href="#m3e3ef6ee6b" x="331.04512" y="148.527374" style="fill: #006400; stroke: #006400"/>
    </g>
   </g>
   <g id="patch_3">
    <path d="M 60.221389 170.728 
L 60.221389 10.8 
" style="fill: none; stroke: #000000; stroke-width: 0.8; stroke-linejoin: miter; stroke-linecap: square"/>
   </g>
   <g id="patch_4">
    <path d="M 349.2 170.728 
L 349.2 10.8 
" style="fill: none; stroke: #000000; stroke-width: 0.8; stroke-linejoin: miter; stroke-linecap: square"/>
   </g>
   <g id="patch_5">
    <path d="M 60.221389 170.728 
L 349.2 170.728 
" style="fill: none; stroke: #000000; stroke-width: 0.8; stroke-linejoin: miter; stroke-linecap: square"/>
   </g>
   <g id="patch_6">
    <path d="M 60.221389 10.8 
L 349.2 10.8 
" style="fill: none; stroke: #000000; stroke-width: 0.8; stroke-linejoin: miter; stroke-linecap: square"/>
   </g>
   <g id="legend_1">
    <g id="patch_7">
     <path d="M 248.3 62.834375 
L 342.2 62.834375 
Q 344.2 62.834375 344.2 60.834375 
L 344.2 17.8 
Q 344.2 15.8 342.2 15.8 
L 248.3 15.8 
Q 246.3 15.8 246.3 17.8 
L 246.3 60.834375 
Q 246.3 62.834375 248.3 62.834375 
z
" style="fill: #ffffff; opacity: 0.8; stroke: #cccccc; stroke-linejoin: miter"/>
    </g>
    <g id="patch_8">
     <path d="M 250.3 27.398438 
L 270.3 27.398438 
L 270.3 20.398438 
L 250.3 20.398438 
z
" style="fill: #008000; fill-opacity: 0.5"/>
    </g>
    <g id="text_6">
     <!-- $1\sigma$ Nuisance -->
     <g transform="translate(278.3 27.398438) scale(0.1 -0.1)">
      <defs>
       <path id="DejaVuSans-Oblique-3c3" d="M 2219 3044 
Q 1744 3044 1422 2700 
Q 1081 2341 969 1747 
Q 844 1119 1044 756 
Q 1241 397 1706 397 
Q 2166 397 2503 759 
Q 2844 1122 2966 1747 
Q 3075 2319 2881 2700 
Q 2700 3044 2219 3044 
z
M 2309 3503 
L 4219 3500 
L 4106 2925 
L 3463 2925 
Q 3706 2438 3575 1747 
Q 3406 888 2884 400 
Q 2359 -91 1609 -91 
Q 856 -91 525 400 
Q 194 888 363 1747 
Q 528 2609 1050 3097 
Q 1484 3503 2309 3503 
z
" transform="scale(0.015625)"/>
       <path id="DejaVuSans-4e" d="M 628 4666 
L 1478 4666 
L 3547 763 
L 3547 4666 
L 4159 4666 
L 4159 0 
L 3309 0 
L 1241 3903 
L 1241 0 
L 628 0 
L 628 4666 
z
" transform="scale(0.015625)"/>
       <path id="DejaVuSans-75" d="M 544 1381 
L 544 3500 
L 1119 3500 
L 1119 1403 
Q 1119 906 1312 657 
Q 1506 409 1894 409 
Q 2359 409 2629 706 
Q 2900 1003 2900 1516 
L 2900 3500 
L 3475 3500 
L 3475 0 
L 2900 0 
L 2900 538 
Q 2691 219 2414 64 
Q 2138 -91 1772 -91 
Q 1169 -91 856 284 
Q 544 659 544 1381 
z
M 1991 3584 
L 1991 3584 
z
" transform="scale(0.015625)"/>
       <path id="DejaVuSans-69" d="M 603 3500 
L 1178 3500 
L 1178 0 
L 603 0 
L 603 3500 
z
M 603 4863 
L 1178 4863 
L 1178 4134 
L 603 4134 
L 603 4863 
z
" transform="scale(0.015625)"/>
       <path id="DejaVuSans-61" d="M 2194 1759 
Q 1497 1759 1228 1600 
Q 959 1441 959 1056 
Q 959 750 1161 570 
Q 1363 391 1709 391 
Q 2188 391 2477 730 
Q 2766 1069 2766 1631 
L 2766 1759 
L 2194 1759 
z
M 3341 1997 
L 3341 0 
L 2766 0 
L 2766 531 
Q 2569 213 2275 61 
Q 1981 -91 1556 -91 
Q 1019 -91 701 211 
Q 384 513 384 1019 
Q 384 1609 779 1909 
Q 1175 2209 1959 2209 
L 2766 2209 
L 2766 2266 
Q 2766 2663 2505 2880 
Q 2244 3097 1772 3097 
Q 1472 3097 1187 3025 
Q 903 2953 641 2809 
L 641 3341 
Q 956 3463 1253 3523 
Q 1550 3584 1831 3584 
Q 2591 3584 2966 3190 
Q 3341 2797 3341 1997 
z
" transform="scale(0.015625)"/>
      </defs>
      <use xlink:href="#DejaVuSans-31" transform="translate(0 0.015625)"/>
      <use xlink:href="#DejaVuSans-Oblique-3c3" transform="translate(63.623047 0.015625)"/>
      <use xlink:href="#DejaVuSans-20" transform="translate(127.001953 0.015625)"/>
      <use xlink:href="#DejaVuSans-4e" transform="translate(158.789062 0.015625)"/>
      <use xlink:href="#DejaVuSans-75" transform="translate(233.59375 0.015625)"/>
      <use xlink:href="#DejaVuSans-69" transform="translate(296.972656 0.015625)"/>
      <use xlink:href="#DejaVuSans-73" transform="translate(324.755859 0.015625)"/>
      <use xlink:href="#DejaVuSans-61" transform="translate(376.855469 0.015625)"/>
      <use xlink:href="#DejaVuSans-6e" transform="translate(438.134766 0.015625)"/>
      <use xlink:href="#DejaVuSans-63" transform="translate(501.513672 0.015625)"/>
      <use xlink:href="#DejaVuSans-65" transform="translate(556.494141 0.015625)"/>
     </g>
    </g>
    <g id="patch_9">
     <path d="M 250.3 42.076563 
L 270.3 42.076563 
L 270.3 35.076563 
L 250.3 35.076563 
z
" style="fill: #ff0000; fill-opacity: 0.6"/>
    </g>
    <g id="text_7">
     <!-- $1\sigma$ Standard -->
     <g transform="translate(278.3 42.076563) scale(0.1 -0.1)">
      <defs>
       <path id="DejaVuSans-53" d="M 3425 4513 
L 3425 3897 
Q 3066 4069 2747 4153 
Q 2428 4238 2131 4238 
Q 1616 4238 1336 4038 
Q 1056 3838 1056 3469 
Q 1056 3159 1242 3001 
Q 1428 2844 1947 2747 
L 2328 2669 
Q 3034 2534 3370 2195 
Q 3706 1856 3706 1288 
Q 3706 609 3251 259 
Q 2797 -91 1919 -91 
Q 1588 -91 1214 -16 
Q 841 59 441 206 
L 441 856 
Q 825 641 1194 531 
Q 1563 422 1919 422 
Q 2459 422 2753 634 
Q 3047 847 3047 1241 
Q 3047 1584 2836 1778 
Q 2625 1972 2144 2069 
L 1759 2144 
Q 1053 2284 737 2584 
Q 422 2884 422 3419 
Q 422 4038 858 4394 
Q 1294 4750 2059 4750 
Q 2388 4750 2728 4690 
Q 3069 4631 3425 4513 
z
" transform="scale(0.015625)"/>
       <path id="DejaVuSans-74" d="M 1172 4494 
L 1172 3500 
L 2356 3500 
L 2356 3053 
L 1172 3053 
L 1172 1153 
Q 1172 725 1289 603 
Q 1406 481 1766 481 
L 2356 481 
L 2356 0 
L 1766 0 
Q 1100 0 847 248 
Q 594 497 594 1153 
L 594 3053 
L 172 3053 
L 172 3500 
L 594 3500 
L 594 4494 
L 1172 4494 
z
" transform="scale(0.015625)"/>
      </defs>
      <use xlink:href="#DejaVuSans-31" transform="translate(0 0.015625)"/>
      <use xlink:href="#DejaVuSans-Oblique-3c3" transform="translate(63.623047 0.015625)"/>
      <use xlink:href="#DejaVuSans-20" transform="translate(127.001953 0.015625)"/>
      <use xlink:href="#DejaVuSans-53" transform="translate(158.789062 0.015625)"/>
      <use xlink:href="#DejaVuSans-74" transform="translate(222.265625 0.015625)"/>
      <use xlink:href="#DejaVuSans-61" transform="translate(261.474609 0.015625)"/>
      <use xlink:href="#DejaVuSans-6e" transform="translate(322.753906 0.015625)"/>
      <use xlink:href="#DejaVuSans-64" transform="translate(386.132812 0.015625)"/>
      <use xlink:href="#DejaVuSans-61" transform="translate(449.609375 0.015625)"/>
      <use xlink:href="#DejaVuSans-72" transform="translate(510.888672 0.015625)"/>
      <use xlink:href="#DejaVuSans-64" transform="translate(552.001953 0.015625)"/>
     </g>
    </g>
    <g id="line2d_38">
     <path d="M 250.3 53.254688 
L 260.3 53.254688 
L 270.3 53.254688 
" style="fill: none; stroke-dasharray: 1.5,2.475; stroke-dashoffset: 0; stroke: #000000; stroke-width: 1.5"/>
    </g>
    <g id="text_8">
     <!-- Input -->
     <g transform="translate(278.3 56.754688) scale(0.1 -0.1)">
      <defs>
       <path id="DejaVuSans-49" d="M 628 4666 
L 1259 4666 
L 1259 0 
L 628 0 
L 628 4666 
z
" transform="scale(0.015625)"/>
       <path id="DejaVuSans-70" d="M 1159 525 
L 1159 -1331 
L 581 -1331 
L 581 3500 
L 1159 3500 
L 1159 2969 
Q 1341 3281 1617 3432 
Q 1894 3584 2278 3584 
Q 2916 3584 3314 3078 
Q 3713 2572 3713 1747 
Q 3713 922 3314 415 
Q 2916 -91 2278 -91 
Q 1894 -91 1617 61 
Q 1341 213 1159 525 
z
M 3116 1747 
Q 3116 2381 2855 2742 
Q 2594 3103 2138 3103 
Q 1681 3103 1420 2742 
Q 1159 2381 1159 1747 
Q 1159 1113 1420 752 
Q 1681 391 2138 391 
Q 2594 391 2855 752 
Q 3116 1113 3116 1747 
z
" transform="scale(0.015625)"/>
      </defs>
      <use xlink:href="#DejaVuSans-49"/>
      <use xlink:href="#DejaVuSans-6e" x="29.492188"/>
      <use xlink:href="#DejaVuSans-70" x="92.871094"/>
      <use xlink:href="#DejaVuSans-75" x="156.347656"/>
      <use xlink:href="#DejaVuSans-74" x="219.726562"/>
     </g>
    </g>
   </g>
  </g>
 </g>
 <defs>
  <clipPath id="p4885661f95">
   <rect x="60.221389" y="10.8" width="288.978611" height="159.928"/>
  </clipPath>
 </defs>
</svg>
