<?xml version="1.0" encoding="utf-8" standalone="no"?>
<!DOCTYPE svg PUBLIC "-//W3C//DTD SVG 1.1//EN"
  "http://www.w3.org/Graphics/SVG/1.1/DTD/svg11.dtd">
<svg xmlns:xlink="http://www.w3.org/1999/xlink" width="288pt" height="168pt" viewBox="0 0 288 168" xmlns="http://www.w3.org/2000/svg" version="1.1">
 <metadata>
  <rdf:RDF xmlns:dc="http://purl.org/dc/elements/1.1/" xmlns:cc="http://creativecommons.org/ns#" xmlns:rdf="http://www.w3.org/1999/02/22-rdf-syntax-ns#">
   <cc:Work>
    <dc:type rdf:resource="http://purl.org/dc/dcmitype/StillImage"/>
    <dc:date>2023-03-23T17:20:07.474684</dc:date>
    <dc:format>image/svg+xml</dc:format>
    <dc:creator>
     <cc:Agent>
      <dc:title>Matplotlib v3.6.3, https://matplotlib.org/</dc:title>
     </cc:Agent>
    </dc:creator>
   </cc:Work>
  </rdf:RDF>
 </metadata>
 <defs>
  <style type="text/css">*{stroke-linejoin: round; stroke-linecap: butt}</style>
 </defs>
 <g id="figure_1">
  <g id="patch_1">
   <path d="M 0 168 
L 288 168 
L 288 0 
L 0 0 
z
" style="fill: #ffffff"/>
  </g>
  <g id="axes_1">
   <g id="patch_2">
    <path d="M 24.19 126.04 
L 277.2 126.04 
L 277.2 25.44 
L 24.19 25.44 
z
" style="fill: #ffffff"/>
   </g>
   <g id="patch_3">
    <path d="M 55.827338 126.04 
L 61.098116 126.04 
L 61.098116 124.827221 
L 55.827338 124.827221 
z
" clip-path="url(#p0680605304)" style="fill: #4682b4"/>
   </g>
   <g id="patch_4">
    <path d="M 61.098116 126.04 
L 66.368893 126.04 
L 66.368893 126.04 
L 61.098116 126.04 
z
" clip-path="url(#p0680605304)" style="fill: #4682b4"/>
   </g>
   <g id="patch_5">
    <path d="M 66.368893 126.04 
L 71.639671 126.04 
L 71.639671 124.827221 
L 66.368893 124.827221 
z
" clip-path="url(#p0680605304)" style="fill: #4682b4"/>
   </g>
   <g id="patch_6">
    <path d="M 71.639671 126.04 
L 76.910449 126.04 
L 76.910449 124.827221 
L 71.639671 124.827221 
z
" clip-path="url(#p0680605304)" style="fill: #4682b4"/>
   </g>
   <g id="patch_7">
    <path d="M 76.910449 126.04 
L 82.181226 126.04 
L 82.181226 121.188885 
L 76.910449 121.188885 
z
" clip-path="url(#p0680605304)" style="fill: #4682b4"/>
   </g>
   <g id="patch_8">
    <path d="M 82.181226 126.04 
L 87.452004 126.04 
L 87.452004 123.614442 
L 82.181226 123.614442 
z
" clip-path="url(#p0680605304)" style="fill: #4682b4"/>
   </g>
   <g id="patch_9">
    <path d="M 87.452004 126.04 
L 92.722782 126.04 
L 92.722782 118.763327 
L 87.452004 118.763327 
z
" clip-path="url(#p0680605304)" style="fill: #4682b4"/>
   </g>
   <g id="patch_10">
    <path d="M 92.722782 126.04 
L 97.993559 126.04 
L 97.993559 109.061097 
L 92.722782 109.061097 
z
" clip-path="url(#p0680605304)" style="fill: #4682b4"/>
   </g>
   <g id="patch_11">
    <path d="M 97.993559 126.04 
L 103.264337 126.04 
L 103.264337 106.635539 
L 97.993559 106.635539 
z
" clip-path="url(#p0680605304)" style="fill: #4682b4"/>
   </g>
   <g id="patch_12">
    <path d="M 103.264337 126.04 
L 108.535115 126.04 
L 108.535115 90.869415 
L 103.264337 90.869415 
z
" clip-path="url(#p0680605304)" style="fill: #4682b4"/>
   </g>
   <g id="patch_13">
    <path d="M 108.535115 126.04 
L 113.805892 126.04 
L 113.805892 95.72053 
L 108.535115 95.72053 
z
" clip-path="url(#p0680605304)" style="fill: #4682b4"/>
   </g>
   <g id="patch_14">
    <path d="M 113.805892 126.04 
L 119.07667 126.04 
L 119.07667 87.231079 
L 113.805892 87.231079 
z
" clip-path="url(#p0680605304)" style="fill: #4682b4"/>
   </g>
   <g id="patch_15">
    <path d="M 119.07667 126.04 
L 124.347448 126.04 
L 124.347448 65.401061 
L 119.07667 65.401061 
z
" clip-path="url(#p0680605304)" style="fill: #4682b4"/>
   </g>
   <g id="patch_16">
    <path d="M 124.347448 126.04 
L 129.618225 126.04 
L 129.618225 47.209379 
L 124.347448 47.209379 
z
" clip-path="url(#p0680605304)" style="fill: #4682b4"/>
   </g>
   <g id="patch_17">
    <path d="M 129.618225 126.04 
L 134.889003 126.04 
L 134.889003 44.783822 
L 129.618225 44.783822 
z
" clip-path="url(#p0680605304)" style="fill: #4682b4"/>
   </g>
   <g id="patch_18">
    <path d="M 134.889003 126.04 
L 140.159781 126.04 
L 140.159781 50.847715 
L 134.889003 50.847715 
z
" clip-path="url(#p0680605304)" style="fill: #4682b4"/>
   </g>
   <g id="patch_19">
    <path d="M 140.159781 126.04 
L 145.430558 126.04 
L 145.430558 30.230476 
L 140.159781 30.230476 
z
" clip-path="url(#p0680605304)" style="fill: #4682b4"/>
   </g>
   <g id="patch_20">
    <path d="M 145.430558 126.04 
L 150.701336 126.04 
L 150.701336 52.060494 
L 145.430558 52.060494 
z
" clip-path="url(#p0680605304)" style="fill: #4682b4"/>
   </g>
   <g id="patch_21">
    <path d="M 150.701336 126.04 
L 155.972114 126.04 
L 155.972114 44.783822 
L 150.701336 44.783822 
z
" clip-path="url(#p0680605304)" style="fill: #4682b4"/>
   </g>
   <g id="patch_22">
    <path d="M 155.972114 126.04 
L 161.242891 126.04 
L 161.242891 54.486052 
L 155.972114 54.486052 
z
" clip-path="url(#p0680605304)" style="fill: #4682b4"/>
   </g>
   <g id="patch_23">
    <path d="M 161.242891 126.04 
L 166.513669 126.04 
L 166.513669 38.719928 
L 161.242891 38.719928 
z
" clip-path="url(#p0680605304)" style="fill: #4682b4"/>
   </g>
   <g id="patch_24">
    <path d="M 166.513669 126.04 
L 171.784447 126.04 
L 171.784447 43.571043 
L 166.513669 43.571043 
z
" clip-path="url(#p0680605304)" style="fill: #4682b4"/>
   </g>
   <g id="patch_25">
    <path d="M 171.784447 126.04 
L 177.055224 126.04 
L 177.055224 58.124388 
L 171.784447 58.124388 
z
" clip-path="url(#p0680605304)" style="fill: #4682b4"/>
   </g>
   <g id="patch_26">
    <path d="M 177.055224 126.04 
L 182.326002 126.04 
L 182.326002 77.528849 
L 177.055224 77.528849 
z
" clip-path="url(#p0680605304)" style="fill: #4682b4"/>
   </g>
   <g id="patch_27">
    <path d="M 182.326002 126.04 
L 187.59678 126.04 
L 187.59678 79.954406 
L 182.326002 79.954406 
z
" clip-path="url(#p0680605304)" style="fill: #4682b4"/>
   </g>
   <g id="patch_28">
    <path d="M 187.59678 126.04 
L 192.867557 126.04 
L 192.867557 92.082194 
L 187.59678 92.082194 
z
" clip-path="url(#p0680605304)" style="fill: #4682b4"/>
   </g>
   <g id="patch_29">
    <path d="M 192.867557 126.04 
L 198.138335 126.04 
L 198.138335 101.784424 
L 192.867557 101.784424 
z
" clip-path="url(#p0680605304)" style="fill: #4682b4"/>
   </g>
   <g id="patch_30">
    <path d="M 198.138335 126.04 
L 203.409113 126.04 
L 203.409113 111.486655 
L 198.138335 111.486655 
z
" clip-path="url(#p0680605304)" style="fill: #4682b4"/>
   </g>
   <g id="patch_31">
    <path d="M 203.409113 126.04 
L 208.67989 126.04 
L 208.67989 119.976106 
L 203.409113 119.976106 
z
" clip-path="url(#p0680605304)" style="fill: #4682b4"/>
   </g>
   <g id="patch_32">
    <path d="M 208.67989 126.04 
L 213.950668 126.04 
L 213.950668 121.188885 
L 208.67989 121.188885 
z
" clip-path="url(#p0680605304)" style="fill: #4682b4"/>
   </g>
   <g id="patch_33">
    <path d="M 213.950668 126.04 
L 219.221446 126.04 
L 219.221446 116.33777 
L 213.950668 116.33777 
z
" clip-path="url(#p0680605304)" style="fill: #4682b4"/>
   </g>
   <g id="patch_34">
    <path d="M 219.221446 126.04 
L 224.492223 126.04 
L 224.492223 118.763327 
L 219.221446 118.763327 
z
" clip-path="url(#p0680605304)" style="fill: #4682b4"/>
   </g>
   <g id="patch_35">
    <path d="M 224.492223 126.04 
L 229.763001 126.04 
L 229.763001 126.04 
L 224.492223 126.04 
z
" clip-path="url(#p0680605304)" style="fill: #4682b4"/>
   </g>
   <g id="patch_36">
    <path d="M 229.763001 126.04 
L 235.033779 126.04 
L 235.033779 126.04 
L 229.763001 126.04 
z
" clip-path="url(#p0680605304)" style="fill: #4682b4"/>
   </g>
   <g id="patch_37">
    <path d="M 235.033779 126.04 
L 240.304556 126.04 
L 240.304556 126.04 
L 235.033779 126.04 
z
" clip-path="url(#p0680605304)" style="fill: #4682b4"/>
   </g>
   <g id="patch_38">
    <path d="M 240.304556 126.04 
L 245.575334 126.04 
L 245.575334 126.04 
L 240.304556 126.04 
z
" clip-path="url(#p0680605304)" style="fill: #4682b4"/>
   </g>
   <g id="patch_39">
    <path d="M 245.575334 126.04 
L 250.846112 126.04 
L 250.846112 124.827221 
L 245.575334 124.827221 
z
" clip-path="url(#p0680605304)" style="fill: #4682b4"/>
   </g>
   <g id="patch_40">
    <path d="M 250.846112 126.04 
L 256.116889 126.04 
L 256.116889 126.04 
L 250.846112 126.04 
z
" clip-path="url(#p0680605304)" style="fill: #4682b4"/>
   </g>
   <g id="patch_41">
    <path d="M 256.116889 126.04 
L 261.387667 126.04 
L 261.387667 126.04 
L 256.116889 126.04 
z
" clip-path="url(#p0680605304)" style="fill: #4682b4"/>
   </g>
   <g id="patch_42">
    <path d="M 261.387667 126.04 
L 266.658445 126.04 
L 266.658445 124.827221 
L 261.387667 124.827221 
z
" clip-path="url(#p0680605304)" style="fill: #4682b4"/>
   </g>
   <g id="matplotlib.axis_1">
    <g id="xtick_1">
     <g id="line2d_1">
      <defs>
       <path id="m2099a7cf5e" d="M 0 0 
L 0 3.5 
" style="stroke: #000000; stroke-width: 0.8"/>
      </defs>
      <g>
       <use xlink:href="#m2099a7cf5e" x="40.053551" y="126.04" style="stroke: #000000; stroke-width: 0.8"/>
      </g>
     </g>
     <g id="text_1">
      <!-- −0.4 -->
      <g transform="translate(27.912145 140.638438) scale(0.1 -0.1)">
       <defs>
        <path id="DejaVuSans-2212" d="M 678 2272 
L 4684 2272 
L 4684 1741 
L 678 1741 
L 678 2272 
z
" transform="scale(0.015625)"/>
        <path id="DejaVuSans-30" d="M 2034 4250 
Q 1547 4250 1301 3770 
Q 1056 3291 1056 2328 
Q 1056 1369 1301 889 
Q 1547 409 2034 409 
Q 2525 409 2770 889 
Q 3016 1369 3016 2328 
Q 3016 3291 2770 3770 
Q 2525 4250 2034 4250 
z
M 2034 4750 
Q 2819 4750 3233 4129 
Q 3647 3509 3647 2328 
Q 3647 1150 3233 529 
Q 2819 -91 2034 -91 
Q 1250 -91 836 529 
Q 422 1150 422 2328 
Q 422 3509 836 4129 
Q 1250 4750 2034 4750 
z
" transform="scale(0.015625)"/>
        <path id="DejaVuSans-2e" d="M 684 794 
L 1344 794 
L 1344 0 
L 684 0 
L 684 794 
z
" transform="scale(0.015625)"/>
        <path id="DejaVuSans-34" d="M 2419 4116 
L 825 1625 
L 2419 1625 
L 2419 4116 
z
M 2253 4666 
L 3047 4666 
L 3047 1625 
L 3713 1625 
L 3713 1100 
L 3047 1100 
L 3047 0 
L 2419 0 
L 2419 1100 
L 313 1100 
L 313 1709 
L 2253 4666 
z
" transform="scale(0.015625)"/>
       </defs>
       <use xlink:href="#DejaVuSans-2212"/>
       <use xlink:href="#DejaVuSans-30" x="83.789062"/>
       <use xlink:href="#DejaVuSans-2e" x="147.412109"/>
       <use xlink:href="#DejaVuSans-34" x="179.199219"/>
      </g>
     </g>
    </g>
    <g id="xtick_2">
     <g id="line2d_2">
      <g>
       <use xlink:href="#m2099a7cf5e" x="95.374276" y="126.04" style="stroke: #000000; stroke-width: 0.8"/>
      </g>
     </g>
     <g id="text_2">
      <!-- −0.2 -->
      <g transform="translate(83.232869 140.638438) scale(0.1 -0.1)">
       <defs>
        <path id="DejaVuSans-32" d="M 1228 531 
L 3431 531 
L 3431 0 
L 469 0 
L 469 531 
Q 828 903 1448 1529 
Q 2069 2156 2228 2338 
Q 2531 2678 2651 2914 
Q 2772 3150 2772 3378 
Q 2772 3750 2511 3984 
Q 2250 4219 1831 4219 
Q 1534 4219 1204 4116 
Q 875 4013 500 3803 
L 500 4441 
Q 881 4594 1212 4672 
Q 1544 4750 1819 4750 
Q 2544 4750 2975 4387 
Q 3406 4025 3406 3419 
Q 3406 3131 3298 2873 
Q 3191 2616 2906 2266 
Q 2828 2175 2409 1742 
Q 1991 1309 1228 531 
z
" transform="scale(0.015625)"/>
       </defs>
       <use xlink:href="#DejaVuSans-2212"/>
       <use xlink:href="#DejaVuSans-30" x="83.789062"/>
       <use xlink:href="#DejaVuSans-2e" x="147.412109"/>
       <use xlink:href="#DejaVuSans-32" x="179.199219"/>
      </g>
     </g>
    </g>
    <g id="xtick_3">
     <g id="line2d_3">
      <g>
       <use xlink:href="#m2099a7cf5e" x="150.695" y="126.04" style="stroke: #000000; stroke-width: 0.8"/>
      </g>
     </g>
     <g id="text_3">
      <!-- 0.0 -->
      <g transform="translate(142.743437 140.638438) scale(0.1 -0.1)">
       <use xlink:href="#DejaVuSans-30"/>
       <use xlink:href="#DejaVuSans-2e" x="63.623047"/>
       <use xlink:href="#DejaVuSans-30" x="95.410156"/>
      </g>
     </g>
    </g>
    <g id="xtick_4">
     <g id="line2d_4">
      <g>
       <use xlink:href="#m2099a7cf5e" x="206.015724" y="126.04" style="stroke: #000000; stroke-width: 0.8"/>
      </g>
     </g>
     <g id="text_4">
      <!-- 0.2 -->
      <g transform="translate(198.064162 140.638438) scale(0.1 -0.1)">
       <use xlink:href="#DejaVuSans-30"/>
       <use xlink:href="#DejaVuSans-2e" x="63.623047"/>
       <use xlink:href="#DejaVuSans-32" x="95.410156"/>
      </g>
     </g>
    </g>
    <g id="xtick_5">
     <g id="line2d_5">
      <g>
       <use xlink:href="#m2099a7cf5e" x="261.336449" y="126.04" style="stroke: #000000; stroke-width: 0.8"/>
      </g>
     </g>
     <g id="text_5">
      <!-- 0.4 -->
      <g transform="translate(253.384886 140.638438) scale(0.1 -0.1)">
       <use xlink:href="#DejaVuSans-30"/>
       <use xlink:href="#DejaVuSans-2e" x="63.623047"/>
       <use xlink:href="#DejaVuSans-34" x="95.410156"/>
      </g>
     </g>
    </g>
    <g id="text_6">
     <!-- Systematic [%] -->
     <g transform="translate(112.645781 154.316563) scale(0.1 -0.1)">
      <defs>
       <path id="DejaVuSans-53" d="M 3425 4513 
L 3425 3897 
Q 3066 4069 2747 4153 
Q 2428 4238 2131 4238 
Q 1616 4238 1336 4038 
Q 1056 3838 1056 3469 
Q 1056 3159 1242 3001 
Q 1428 2844 1947 2747 
L 2328 2669 
Q 3034 2534 3370 2195 
Q 3706 1856 3706 1288 
Q 3706 609 3251 259 
Q 2797 -91 1919 -91 
Q 1588 -91 1214 -16 
Q 841 59 441 206 
L 441 856 
Q 825 641 1194 531 
Q 1563 422 1919 422 
Q 2459 422 2753 634 
Q 3047 847 3047 1241 
Q 3047 1584 2836 1778 
Q 2625 1972 2144 2069 
L 1759 2144 
Q 1053 2284 737 2584 
Q 422 2884 422 3419 
Q 422 4038 858 4394 
Q 1294 4750 2059 4750 
Q 2388 4750 2728 4690 
Q 3069 4631 3425 4513 
z
" transform="scale(0.015625)"/>
       <path id="DejaVuSans-79" d="M 2059 -325 
Q 1816 -950 1584 -1140 
Q 1353 -1331 966 -1331 
L 506 -1331 
L 506 -850 
L 844 -850 
Q 1081 -850 1212 -737 
Q 1344 -625 1503 -206 
L 1606 56 
L 191 3500 
L 800 3500 
L 1894 763 
L 2988 3500 
L 3597 3500 
L 2059 -325 
z
" transform="scale(0.015625)"/>
       <path id="DejaVuSans-73" d="M 2834 3397 
L 2834 2853 
Q 2591 2978 2328 3040 
Q 2066 3103 1784 3103 
Q 1356 3103 1142 2972 
Q 928 2841 928 2578 
Q 928 2378 1081 2264 
Q 1234 2150 1697 2047 
L 1894 2003 
Q 2506 1872 2764 1633 
Q 3022 1394 3022 966 
Q 3022 478 2636 193 
Q 2250 -91 1575 -91 
Q 1294 -91 989 -36 
Q 684 19 347 128 
L 347 722 
Q 666 556 975 473 
Q 1284 391 1588 391 
Q 1994 391 2212 530 
Q 2431 669 2431 922 
Q 2431 1156 2273 1281 
Q 2116 1406 1581 1522 
L 1381 1569 
Q 847 1681 609 1914 
Q 372 2147 372 2553 
Q 372 3047 722 3315 
Q 1072 3584 1716 3584 
Q 2034 3584 2315 3537 
Q 2597 3491 2834 3397 
z
" transform="scale(0.015625)"/>
       <path id="DejaVuSans-74" d="M 1172 4494 
L 1172 3500 
L 2356 3500 
L 2356 3053 
L 1172 3053 
L 1172 1153 
Q 1172 725 1289 603 
Q 1406 481 1766 481 
L 2356 481 
L 2356 0 
L 1766 0 
Q 1100 0 847 248 
Q 594 497 594 1153 
L 594 3053 
L 172 3053 
L 172 3500 
L 594 3500 
L 594 4494 
L 1172 4494 
z
" transform="scale(0.015625)"/>
       <path id="DejaVuSans-65" d="M 3597 1894 
L 3597 1613 
L 953 1613 
Q 991 1019 1311 708 
Q 1631 397 2203 397 
Q 2534 397 2845 478 
Q 3156 559 3463 722 
L 3463 178 
Q 3153 47 2828 -22 
Q 2503 -91 2169 -91 
Q 1331 -91 842 396 
Q 353 884 353 1716 
Q 353 2575 817 3079 
Q 1281 3584 2069 3584 
Q 2775 3584 3186 3129 
Q 3597 2675 3597 1894 
z
M 3022 2063 
Q 3016 2534 2758 2815 
Q 2500 3097 2075 3097 
Q 1594 3097 1305 2825 
Q 1016 2553 972 2059 
L 3022 2063 
z
" transform="scale(0.015625)"/>
       <path id="DejaVuSans-6d" d="M 3328 2828 
Q 3544 3216 3844 3400 
Q 4144 3584 4550 3584 
Q 5097 3584 5394 3201 
Q 5691 2819 5691 2113 
L 5691 0 
L 5113 0 
L 5113 2094 
Q 5113 2597 4934 2840 
Q 4756 3084 4391 3084 
Q 3944 3084 3684 2787 
Q 3425 2491 3425 1978 
L 3425 0 
L 2847 0 
L 2847 2094 
Q 2847 2600 2669 2842 
Q 2491 3084 2119 3084 
Q 1678 3084 1418 2786 
Q 1159 2488 1159 1978 
L 1159 0 
L 581 0 
L 581 3500 
L 1159 3500 
L 1159 2956 
Q 1356 3278 1631 3431 
Q 1906 3584 2284 3584 
Q 2666 3584 2933 3390 
Q 3200 3197 3328 2828 
z
" transform="scale(0.015625)"/>
       <path id="DejaVuSans-61" d="M 2194 1759 
Q 1497 1759 1228 1600 
Q 959 1441 959 1056 
Q 959 750 1161 570 
Q 1363 391 1709 391 
Q 2188 391 2477 730 
Q 2766 1069 2766 1631 
L 2766 1759 
L 2194 1759 
z
M 3341 1997 
L 3341 0 
L 2766 0 
L 2766 531 
Q 2569 213 2275 61 
Q 1981 -91 1556 -91 
Q 1019 -91 701 211 
Q 384 513 384 1019 
Q 384 1609 779 1909 
Q 1175 2209 1959 2209 
L 2766 2209 
L 2766 2266 
Q 2766 2663 2505 2880 
Q 2244 3097 1772 3097 
Q 1472 3097 1187 3025 
Q 903 2953 641 2809 
L 641 3341 
Q 956 3463 1253 3523 
Q 1550 3584 1831 3584 
Q 2591 3584 2966 3190 
Q 3341 2797 3341 1997 
z
" transform="scale(0.015625)"/>
       <path id="DejaVuSans-69" d="M 603 3500 
L 1178 3500 
L 1178 0 
L 603 0 
L 603 3500 
z
M 603 4863 
L 1178 4863 
L 1178 4134 
L 603 4134 
L 603 4863 
z
" transform="scale(0.015625)"/>
       <path id="DejaVuSans-63" d="M 3122 3366 
L 3122 2828 
Q 2878 2963 2633 3030 
Q 2388 3097 2138 3097 
Q 1578 3097 1268 2742 
Q 959 2388 959 1747 
Q 959 1106 1268 751 
Q 1578 397 2138 397 
Q 2388 397 2633 464 
Q 2878 531 3122 666 
L 3122 134 
Q 2881 22 2623 -34 
Q 2366 -91 2075 -91 
Q 1284 -91 818 406 
Q 353 903 353 1747 
Q 353 2603 823 3093 
Q 1294 3584 2113 3584 
Q 2378 3584 2631 3529 
Q 2884 3475 3122 3366 
z
" transform="scale(0.015625)"/>
       <path id="DejaVuSans-20" transform="scale(0.015625)"/>
       <path id="DejaVuSans-5b" d="M 550 4863 
L 1875 4863 
L 1875 4416 
L 1125 4416 
L 1125 -397 
L 1875 -397 
L 1875 -844 
L 550 -844 
L 550 4863 
z
" transform="scale(0.015625)"/>
       <path id="DejaVuSans-25" d="M 4653 2053 
Q 4381 2053 4226 1822 
Q 4072 1591 4072 1178 
Q 4072 772 4226 539 
Q 4381 306 4653 306 
Q 4919 306 5073 539 
Q 5228 772 5228 1178 
Q 5228 1588 5073 1820 
Q 4919 2053 4653 2053 
z
M 4653 2450 
Q 5147 2450 5437 2106 
Q 5728 1763 5728 1178 
Q 5728 594 5436 251 
Q 5144 -91 4653 -91 
Q 4153 -91 3862 251 
Q 3572 594 3572 1178 
Q 3572 1766 3864 2108 
Q 4156 2450 4653 2450 
z
M 1428 4353 
Q 1159 4353 1004 4120 
Q 850 3888 850 3481 
Q 850 3069 1003 2837 
Q 1156 2606 1428 2606 
Q 1700 2606 1854 2837 
Q 2009 3069 2009 3481 
Q 2009 3884 1853 4118 
Q 1697 4353 1428 4353 
z
M 4250 4750 
L 4750 4750 
L 1831 -91 
L 1331 -91 
L 4250 4750 
z
M 1428 4750 
Q 1922 4750 2215 4408 
Q 2509 4066 2509 3481 
Q 2509 2891 2217 2550 
Q 1925 2209 1428 2209 
Q 931 2209 642 2551 
Q 353 2894 353 3481 
Q 353 4063 643 4406 
Q 934 4750 1428 4750 
z
" transform="scale(0.015625)"/>
       <path id="DejaVuSans-5d" d="M 1947 4863 
L 1947 -844 
L 622 -844 
L 622 -397 
L 1369 -397 
L 1369 4416 
L 622 4416 
L 622 4863 
L 1947 4863 
z
" transform="scale(0.015625)"/>
      </defs>
      <use xlink:href="#DejaVuSans-53"/>
      <use xlink:href="#DejaVuSans-79" x="63.476562"/>
      <use xlink:href="#DejaVuSans-73" x="122.65625"/>
      <use xlink:href="#DejaVuSans-74" x="174.755859"/>
      <use xlink:href="#DejaVuSans-65" x="213.964844"/>
      <use xlink:href="#DejaVuSans-6d" x="275.488281"/>
      <use xlink:href="#DejaVuSans-61" x="372.900391"/>
      <use xlink:href="#DejaVuSans-74" x="434.179688"/>
      <use xlink:href="#DejaVuSans-69" x="473.388672"/>
      <use xlink:href="#DejaVuSans-63" x="501.171875"/>
      <use xlink:href="#DejaVuSans-20" x="556.152344"/>
      <use xlink:href="#DejaVuSans-5b" x="587.939453"/>
      <use xlink:href="#DejaVuSans-25" x="626.953125"/>
      <use xlink:href="#DejaVuSans-5d" x="721.972656"/>
     </g>
    </g>
   </g>
   <g id="matplotlib.axis_2">
    <g id="ytick_1">
     <g id="line2d_6">
      <defs>
       <path id="m16152111f1" d="M 0 0 
L -3.5 0 
" style="stroke: #000000; stroke-width: 0.8"/>
      </defs>
      <g>
       <use xlink:href="#m16152111f1" x="24.19" y="126.04" style="stroke: #000000; stroke-width: 0.8"/>
      </g>
     </g>
     <g id="text_7">
      <!-- 0 -->
      <g transform="translate(10.8275 129.839219) scale(0.1 -0.1)">
       <use xlink:href="#DejaVuSans-30"/>
      </g>
     </g>
    </g>
    <g id="ytick_2">
     <g id="line2d_7">
      <g>
       <use xlink:href="#m16152111f1" x="24.19" y="102.930081" style="stroke: #000000; stroke-width: 0.8"/>
      </g>
     </g>
     <g id="text_8">
      <!-- 1 -->
      <g transform="translate(10.8275 106.7293) scale(0.1 -0.1)">
       <defs>
        <path id="DejaVuSans-31" d="M 794 531 
L 1825 531 
L 1825 4091 
L 703 3866 
L 703 4441 
L 1819 4666 
L 2450 4666 
L 2450 531 
L 3481 531 
L 3481 0 
L 794 0 
L 794 531 
z
" transform="scale(0.015625)"/>
       </defs>
       <use xlink:href="#DejaVuSans-31"/>
      </g>
     </g>
    </g>
    <g id="ytick_3">
     <g id="line2d_8">
      <g>
       <use xlink:href="#m16152111f1" x="24.19" y="79.820162" style="stroke: #000000; stroke-width: 0.8"/>
      </g>
     </g>
     <g id="text_9">
      <!-- 2 -->
      <g transform="translate(10.8275 83.619381) scale(0.1 -0.1)">
       <use xlink:href="#DejaVuSans-32"/>
      </g>
     </g>
    </g>
    <g id="ytick_4">
     <g id="line2d_9">
      <g>
       <use xlink:href="#m16152111f1" x="24.19" y="56.710243" style="stroke: #000000; stroke-width: 0.8"/>
      </g>
     </g>
     <g id="text_10">
      <!-- 3 -->
      <g transform="translate(10.8275 60.509461) scale(0.1 -0.1)">
       <defs>
        <path id="DejaVuSans-33" d="M 2597 2516 
Q 3050 2419 3304 2112 
Q 3559 1806 3559 1356 
Q 3559 666 3084 287 
Q 2609 -91 1734 -91 
Q 1441 -91 1130 -33 
Q 819 25 488 141 
L 488 750 
Q 750 597 1062 519 
Q 1375 441 1716 441 
Q 2309 441 2620 675 
Q 2931 909 2931 1356 
Q 2931 1769 2642 2001 
Q 2353 2234 1838 2234 
L 1294 2234 
L 1294 2753 
L 1863 2753 
Q 2328 2753 2575 2939 
Q 2822 3125 2822 3475 
Q 2822 3834 2567 4026 
Q 2313 4219 1838 4219 
Q 1578 4219 1281 4162 
Q 984 4106 628 3988 
L 628 4550 
Q 988 4650 1302 4700 
Q 1616 4750 1894 4750 
Q 2613 4750 3031 4423 
Q 3450 4097 3450 3541 
Q 3450 3153 3228 2886 
Q 3006 2619 2597 2516 
z
" transform="scale(0.015625)"/>
       </defs>
       <use xlink:href="#DejaVuSans-33"/>
      </g>
     </g>
    </g>
    <g id="ytick_5">
     <g id="line2d_10">
      <g>
       <use xlink:href="#m16152111f1" x="24.19" y="33.600324" style="stroke: #000000; stroke-width: 0.8"/>
      </g>
     </g>
     <g id="text_11">
      <!-- 4 -->
      <g transform="translate(10.8275 37.399542) scale(0.1 -0.1)">
       <use xlink:href="#DejaVuSans-34"/>
      </g>
     </g>
    </g>
   </g>
   <g id="line2d_11">
    <path d="M 55.827338 125.782729 
L 61.098116 125.554334 
L 66.368893 125.155871 
L 71.639671 124.487885 
L 76.910449 123.412379 
L 82.181226 121.75025 
L 87.452004 119.286455 
L 92.722782 115.786736 
L 97.993559 111.02854 
L 103.264337 104.845935 
L 108.535115 97.184004 
L 113.805892 88.153161 
L 119.07667 78.069838 
L 124.347448 67.468751 
L 129.618225 57.075072 
L 134.889003 47.732639 
L 140.159781 40.29528 
L 145.430558 35.499542 
L 150.701336 33.844764 
L 155.972114 35.507446 
L 161.242891 40.310249 
L 166.513669 47.753144 
L 171.784447 57.09915 
L 177.055224 67.494311 
L 182.326002 78.094958 
L 187.59678 88.176306 
L 192.867557 97.20415 
L 198.138335 104.862581 
L 203.409113 111.041639 
L 208.67989 115.796578 
L 213.950668 119.293526 
L 219.221446 121.755116 
L 224.492223 123.415589 
L 229.763001 124.489916 
L 235.033779 125.157105 
L 240.304556 125.555054 
L 245.575334 125.783133 
L 250.846112 125.908794 
L 256.116889 125.975371 
L 261.387667 126.0093 
L 266.658445 126.025937 
" clip-path="url(#p0680605304)" style="fill: none; stroke: #ff0000; stroke-width: 2; stroke-linecap: square"/>
   </g>
   <g id="patch_43">
    <path d="M 24.19 126.04 
L 24.19 25.44 
" style="fill: none; stroke: #000000; stroke-width: 0.8; stroke-linejoin: miter; stroke-linecap: square"/>
   </g>
   <g id="patch_44">
    <path d="M 277.2 126.04 
L 277.2 25.44 
" style="fill: none; stroke: #000000; stroke-width: 0.8; stroke-linejoin: miter; stroke-linecap: square"/>
   </g>
   <g id="patch_45">
    <path d="M 24.19 126.04 
L 277.2 126.04 
" style="fill: none; stroke: #000000; stroke-width: 0.8; stroke-linejoin: miter; stroke-linecap: square"/>
   </g>
   <g id="patch_46">
    <path d="M 24.19 25.44 
L 277.2 25.44 
" style="fill: none; stroke: #000000; stroke-width: 0.8; stroke-linejoin: miter; stroke-linecap: square"/>
   </g>
   <g id="text_12">
    <!-- N = 1000 -->
    <g transform="translate(122.094687 19.44) scale(0.12 -0.12)">
     <defs>
      <path id="DejaVuSans-4e" d="M 628 4666 
L 1478 4666 
L 3547 763 
L 3547 4666 
L 4159 4666 
L 4159 0 
L 3309 0 
L 1241 3903 
L 1241 0 
L 628 0 
L 628 4666 
z
" transform="scale(0.015625)"/>
      <path id="DejaVuSans-3d" d="M 678 2906 
L 4684 2906 
L 4684 2381 
L 678 2381 
L 678 2906 
z
M 678 1631 
L 4684 1631 
L 4684 1100 
L 678 1100 
L 678 1631 
z
" transform="scale(0.015625)"/>
     </defs>
     <use xlink:href="#DejaVuSans-4e"/>
     <use xlink:href="#DejaVuSans-20" x="74.804688"/>
     <use xlink:href="#DejaVuSans-3d" x="106.591797"/>
     <use xlink:href="#DejaVuSans-20" x="190.380859"/>
     <use xlink:href="#DejaVuSans-31" x="222.167969"/>
     <use xlink:href="#DejaVuSans-30" x="285.791016"/>
     <use xlink:href="#DejaVuSans-30" x="349.414062"/>
     <use xlink:href="#DejaVuSans-30" x="413.037109"/>
    </g>
   </g>
   <g id="legend_1">
    <g id="patch_47">
     <path d="M 173.3 48.138438 
L 270.2 48.138438 
Q 272.2 48.138438 272.2 46.138438 
L 272.2 32.44 
Q 272.2 30.44 270.2 30.44 
L 173.3 30.44 
Q 171.3 30.44 171.3 32.44 
L 171.3 46.138438 
Q 171.3 48.138438 173.3 48.138438 
z
" style="fill: #ffffff; opacity: 0.8; stroke: #cccccc; stroke-linejoin: miter"/>
    </g>
    <g id="line2d_12">
     <path d="M 175.3 38.538438 
L 185.3 38.538438 
L 195.3 38.538438 
" style="fill: none; stroke: #ff0000; stroke-width: 2; stroke-linecap: square"/>
    </g>
    <g id="text_13">
     <!-- $\mu = 0; \sigma = 0.1$ -->
     <g transform="translate(203.3 42.038438) scale(0.1 -0.1)">
      <defs>
       <path id="DejaVuSans-Oblique-3bc" d="M -84 -1331 
L 856 3500 
L 1434 3500 
L 1009 1322 
Q 997 1256 987 1175 
Q 978 1094 978 1013 
Q 978 722 1161 565 
Q 1344 409 1684 409 
Q 2147 409 2431 671 
Q 2716 934 2816 1459 
L 3213 3500 
L 3788 3500 
L 3266 809 
Q 3253 750 3248 706 
Q 3244 663 3244 628 
Q 3244 531 3283 486 
Q 3322 441 3406 441 
Q 3438 441 3492 456 
Q 3547 472 3647 513 
L 3559 50 
Q 3422 -19 3297 -55 
Q 3172 -91 3053 -91 
Q 2847 -91 2730 40 
Q 2613 172 2613 403 
Q 2438 153 2195 31 
Q 1953 -91 1625 -91 
Q 1334 -91 1117 43 
Q 900 178 831 397 
L 494 -1331 
L -84 -1331 
z
" transform="scale(0.015625)"/>
       <path id="DejaVuSans-3b" d="M 750 3309 
L 1409 3309 
L 1409 2516 
L 750 2516 
L 750 3309 
z
M 750 794 
L 1409 794 
L 1409 256 
L 897 -744 
L 494 -744 
L 750 256 
L 750 794 
z
" transform="scale(0.015625)"/>
       <path id="DejaVuSans-Oblique-3c3" d="M 2219 3044 
Q 1744 3044 1422 2700 
Q 1081 2341 969 1747 
Q 844 1119 1044 756 
Q 1241 397 1706 397 
Q 2166 397 2503 759 
Q 2844 1122 2966 1747 
Q 3075 2319 2881 2700 
Q 2700 3044 2219 3044 
z
M 2309 3503 
L 4219 3500 
L 4106 2925 
L 3463 2925 
Q 3706 2438 3575 1747 
Q 3406 888 2884 400 
Q 2359 -91 1609 -91 
Q 856 -91 525 400 
Q 194 888 363 1747 
Q 528 2609 1050 3097 
Q 1484 3503 2309 3503 
z
" transform="scale(0.015625)"/>
      </defs>
      <use xlink:href="#DejaVuSans-Oblique-3bc" transform="translate(0 0.78125)"/>
      <use xlink:href="#DejaVuSans-3d" transform="translate(83.105469 0.78125)"/>
      <use xlink:href="#DejaVuSans-30" transform="translate(186.376953 0.78125)"/>
      <use xlink:href="#DejaVuSans-3b" transform="translate(250 0.78125)"/>
      <use xlink:href="#DejaVuSans-Oblique-3c3" transform="translate(303.173828 0.78125)"/>
      <use xlink:href="#DejaVuSans-3d" transform="translate(386.035156 0.78125)"/>
      <use xlink:href="#DejaVuSans-30" transform="translate(489.306641 0.78125)"/>
      <use xlink:href="#DejaVuSans-2e" transform="translate(552.929688 0.78125)"/>
      <use xlink:href="#DejaVuSans-31" transform="translate(584.716797 0.78125)"/>
     </g>
    </g>
   </g>
  </g>
 </g>
 <defs>
  <clipPath id="p0680605304">
   <rect x="24.19" y="25.44" width="253.01" height="100.6"/>
  </clipPath>
 </defs>
</svg>
