<?xml version="1.0" encoding="utf-8" standalone="no"?>
<!DOCTYPE svg PUBLIC "-//W3C//DTD SVG 1.1//EN"
  "http://www.w3.org/Graphics/SVG/1.1/DTD/svg11.dtd">
<svg xmlns:xlink="http://www.w3.org/1999/xlink" width="360pt" height="360pt" viewBox="0 0 360 360" xmlns="http://www.w3.org/2000/svg" version="1.1">
 <metadata>
  <rdf:RDF xmlns:dc="http://purl.org/dc/elements/1.1/" xmlns:cc="http://creativecommons.org/ns#" xmlns:rdf="http://www.w3.org/1999/02/22-rdf-syntax-ns#">
   <cc:Work>
    <dc:type rdf:resource="http://purl.org/dc/dcmitype/StillImage"/>
    <dc:date>2023-02-09T15:13:33.494802</dc:date>
    <dc:format>image/svg+xml</dc:format>
    <dc:creator>
     <cc:Agent>
      <dc:title>Matplotlib v3.6.2, https://matplotlib.org/</dc:title>
     </cc:Agent>
    </dc:creator>
   </cc:Work>
  </rdf:RDF>
 </metadata>
 <defs>
  <style type="text/css">*{stroke-linejoin: round; stroke-linecap: butt}</style>
 </defs>
 <g id="figure_1">
  <g id="patch_1">
   <path d="M 0 360 
L 360 360 
L 360 0 
L 0 0 
z
" style="fill: #ffffff"/>
  </g>
  <g id="axes_1">
   <g id="patch_2">
    <path d="M 77.371281 190.4328 
L 349.2 190.4328 
L 349.2 25.44 
L 77.371281 25.44 
z
" style="fill: #ffffff"/>
   </g>
   <g id="PolyCollection_1">
    <path d="M 90.962717 32.939673 
L 90.962717 60.613705 
L 93.433887 61.601647 
L 95.905057 62.593088 
L 98.376227 63.58811 
L 100.847398 64.5868 
L 103.318568 65.589247 
L 105.789738 66.595544 
L 108.260908 67.605783 
L 110.732078 68.620063 
L 113.203248 69.638483 
L 115.674419 70.661143 
L 118.145589 71.688147 
L 120.616759 72.719602 
L 123.087929 73.755612 
L 125.559099 74.796288 
L 128.03027 75.841738 
L 130.50144 76.892073 
L 132.97261 77.947402 
L 135.44378 79.007838 
L 137.91495 80.073489 
L 140.38612 81.144466 
L 142.857291 82.220875 
L 145.328461 83.302824 
L 147.799631 84.390415 
L 150.270801 85.483749 
L 152.741971 86.582924 
L 155.213141 87.688032 
L 157.684312 88.799162 
L 160.155482 89.916395 
L 162.626652 91.03981 
L 165.097822 92.169476 
L 167.568992 93.305457 
L 170.040162 94.44781 
L 172.511333 95.596582 
L 174.982503 96.751813 
L 177.453673 97.913536 
L 179.924843 99.081773 
L 182.396013 100.256536 
L 184.867183 101.437832 
L 187.338354 102.625654 
L 189.809524 103.81999 
L 192.280694 105.020816 
L 194.751864 106.228102 
L 197.223034 107.441805 
L 199.694205 108.661879 
L 202.165375 109.888267 
L 204.636545 111.120905 
L 207.107715 112.359723 
L 209.578885 113.604643 
L 212.050055 114.855582 
L 214.521226 116.112453 
L 216.992396 117.375162 
L 219.463566 118.643613 
L 221.934736 119.917704 
L 224.405906 121.197331 
L 226.877076 122.48239 
L 229.348247 123.772771 
L 231.819417 125.068366 
L 234.290587 126.369064 
L 236.761757 127.674755 
L 239.232927 128.985328 
L 241.704097 130.300674 
L 244.175268 131.620682 
L 246.646438 132.945244 
L 249.117608 134.274253 
L 251.588778 135.607605 
L 254.059948 136.945195 
L 256.531119 138.286922 
L 259.002289 139.632688 
L 261.473459 140.982394 
L 263.944629 142.335948 
L 266.415799 143.693257 
L 268.886969 145.054232 
L 271.35814 146.418787 
L 273.82931 147.786838 
L 276.30048 149.158303 
L 278.77165 150.533106 
L 281.24282 151.911171 
L 283.71399 153.292424 
L 286.185161 154.676796 
L 288.656331 156.064219 
L 291.127501 157.45463 
L 293.598671 158.847964 
L 296.069841 160.244164 
L 298.541011 161.643172 
L 301.012182 163.044932 
L 303.483352 164.449393 
L 305.954522 165.856504 
L 308.425692 167.266218 
L 310.896862 168.678488 
L 313.368032 170.093272 
L 315.839203 171.510526 
L 318.310373 172.930211 
L 320.781543 174.35229 
L 323.252713 175.776727 
L 325.723883 177.203486 
L 328.195054 178.632536 
L 330.666224 180.063846 
L 333.137394 181.497385 
L 335.608564 182.933127 
L 335.608564 145.752046 
L 335.608564 145.752046 
L 333.137394 144.736696 
L 330.666224 143.7208 
L 328.195054 142.704326 
L 325.723883 141.687238 
L 323.252713 140.669499 
L 320.781543 139.651073 
L 318.310373 138.63192 
L 315.839203 137.611998 
L 313.368032 136.591264 
L 310.896862 135.569674 
L 308.425692 134.547181 
L 305.954522 133.523737 
L 303.483352 132.499292 
L 301.012182 131.473793 
L 298.541011 130.447186 
L 296.069841 129.419414 
L 293.598671 128.390417 
L 291.127501 127.360136 
L 288.656331 126.328505 
L 286.185161 125.29546 
L 283.71399 124.260932 
L 281.24282 123.224849 
L 278.77165 122.187138 
L 276.30048 121.147724 
L 273.82931 120.106527 
L 271.35814 119.063465 
L 268.886969 118.018455 
L 266.415799 116.971411 
L 263.944629 115.922241 
L 261.473459 114.870856 
L 259.002289 113.817159 
L 256.531119 112.761054 
L 254.059948 111.702442 
L 251.588778 110.641221 
L 249.117608 109.577288 
L 246.646438 108.510535 
L 244.175268 107.440856 
L 241.704097 106.368142 
L 239.232927 105.292282 
L 236.761757 104.213165 
L 234.290587 103.130679 
L 231.819417 102.044712 
L 229.348247 100.95515 
L 226.877076 99.861882 
L 224.405906 98.764798 
L 221.934736 97.663788 
L 219.463566 96.558745 
L 216.992396 95.449563 
L 214.521226 94.336141 
L 212.050055 93.21838 
L 209.578885 92.096186 
L 207.107715 90.969471 
L 204.636545 89.838151 
L 202.165375 88.702146 
L 199.694205 87.561387 
L 197.223034 86.415809 
L 194.751864 85.265355 
L 192.280694 84.109976 
L 189.809524 82.949631 
L 187.338354 81.784289 
L 184.867183 80.613927 
L 182.396013 79.43853 
L 179.924843 78.258094 
L 177.453673 77.072624 
L 174.982503 75.882132 
L 172.511333 74.686643 
L 170.040162 73.486188 
L 167.568992 72.280807 
L 165.097822 71.070548 
L 162.626652 69.85547 
L 160.155482 68.635635 
L 157.684312 67.411115 
L 155.213141 66.181988 
L 152.741971 64.948337 
L 150.270801 63.710252 
L 147.799631 62.467826 
L 145.328461 61.221158 
L 142.857291 59.970349 
L 140.38612 58.715505 
L 137.91495 57.456732 
L 135.44378 56.19414 
L 132.97261 54.927841 
L 130.50144 53.657945 
L 128.03027 52.384565 
L 125.559099 51.107814 
L 123.087929 49.827803 
L 120.616759 48.544644 
L 118.145589 47.258448 
L 115.674419 45.969323 
L 113.203248 44.677377 
L 110.732078 43.382717 
L 108.260908 42.085445 
L 105.789738 40.785663 
L 103.318568 39.483472 
L 100.847398 38.178967 
L 98.376227 36.872244 
L 95.905057 35.563395 
L 93.433887 34.252509 
L 90.962717 32.939673 
z
" clip-path="url(#p7b18370b91)" style="fill: #008000; fill-opacity: 0.5"/>
   </g>
   <g id="PolyCollection_2">
    <path d="M 90.962717 36.233015 
L 90.962717 56.182931 
L 93.433887 57.125913 
L 95.905057 58.071513 
L 98.376227 59.019837 
L 100.847398 59.971 
L 103.318568 60.925128 
L 105.789738 61.882356 
L 108.260908 62.84283 
L 110.732078 63.806712 
L 113.203248 64.774172 
L 115.674419 65.7454 
L 118.145589 66.720597 
L 120.616759 67.699983 
L 123.087929 68.683794 
L 125.559099 69.672286 
L 128.03027 70.665734 
L 130.50144 71.664432 
L 132.97261 72.668697 
L 135.44378 73.678867 
L 137.91495 74.695299 
L 140.38612 75.718373 
L 142.857291 76.748489 
L 145.328461 77.786063 
L 147.799631 78.83153 
L 150.270801 79.885335 
L 152.741971 80.947929 
L 155.213141 82.01977 
L 157.684312 83.101307 
L 160.155482 84.19298 
L 162.626652 85.295207 
L 165.097822 86.408376 
L 167.568992 87.532837 
L 170.040162 88.668891 
L 172.511333 89.816781 
L 174.982503 90.976688 
L 177.453673 92.148721 
L 179.924843 93.332917 
L 182.396013 94.529237 
L 184.867183 95.737571 
L 187.338354 96.957735 
L 189.809524 98.189486 
L 192.280694 99.43252 
L 194.751864 100.686487 
L 197.223034 101.950999 
L 199.694205 103.225635 
L 202.165375 104.509956 
L 204.636545 105.803512 
L 207.107715 107.105848 
L 209.578885 108.416509 
L 212.050055 109.735052 
L 214.521226 111.061043 
L 216.992396 112.394066 
L 219.463566 113.733721 
L 221.934736 115.079629 
L 224.405906 116.431433 
L 226.877076 117.788795 
L 229.348247 119.151401 
L 231.819417 120.518955 
L 234.290587 121.891183 
L 236.761757 123.26783 
L 239.232927 124.648661 
L 241.704097 126.033455 
L 244.175268 127.422011 
L 246.646438 128.814142 
L 249.117608 130.209676 
L 251.588778 131.608452 
L 254.059948 133.010325 
L 256.531119 134.415159 
L 259.002289 135.822829 
L 261.473459 137.23322 
L 263.944629 138.646226 
L 266.415799 140.061749 
L 268.886969 141.4797 
L 271.35814 142.899995 
L 273.82931 144.322557 
L 276.30048 145.747317 
L 278.77165 147.174209 
L 281.24282 148.603172 
L 283.71399 150.034152 
L 286.185161 151.467098 
L 288.656331 152.901963 
L 291.127501 154.338702 
L 293.598671 155.777277 
L 296.069841 157.21765 
L 298.541011 158.659788 
L 301.012182 160.103659 
L 303.483352 161.549235 
L 305.954522 162.996489 
L 308.425692 164.445397 
L 310.896862 165.895937 
L 313.368032 167.348089 
L 315.839203 168.801833 
L 318.310373 170.257154 
L 320.781543 171.714035 
L 323.252713 173.172463 
L 325.723883 174.632426 
L 328.195054 176.09391 
L 330.666224 177.556908 
L 333.137394 179.021408 
L 335.608564 180.487404 
L 335.608564 147.329968 
L 335.608564 147.329968 
L 333.137394 146.343116 
L 330.666224 145.356408 
L 328.195054 144.369832 
L 325.723883 143.383372 
L 323.252713 142.397012 
L 320.781543 141.410737 
L 318.310373 140.424527 
L 315.839203 139.438364 
L 313.368032 138.452228 
L 310.896862 137.466096 
L 308.425692 136.479946 
L 305.954522 135.493752 
L 303.483352 134.507487 
L 301.012182 133.521123 
L 298.541011 132.534628 
L 296.069841 131.547971 
L 293.598671 130.561115 
L 291.127501 129.574022 
L 288.656331 128.586653 
L 286.185161 127.598962 
L 283.71399 126.610902 
L 281.24282 125.622423 
L 278.77165 124.633471 
L 276.30048 123.643986 
L 273.82931 122.653904 
L 271.35814 121.663158 
L 268.886969 120.671674 
L 266.415799 119.679372 
L 263.944629 118.686165 
L 261.473459 117.691961 
L 259.002289 116.696659 
L 256.531119 115.70015 
L 254.059948 114.702316 
L 251.588778 113.703031 
L 249.117608 112.702156 
L 246.646438 111.699542 
L 244.175268 110.695027 
L 241.704097 109.688437 
L 239.232927 108.679582 
L 236.761757 107.668258 
L 234.290587 106.654244 
L 231.819417 105.637302 
L 229.348247 104.617175 
L 226.877076 103.593588 
L 224.405906 102.566243 
L 221.934736 101.534824 
L 219.463566 100.498992 
L 216.992396 99.458388 
L 214.521226 98.412632 
L 212.050055 97.361323 
L 209.578885 96.304043 
L 207.107715 95.240359 
L 204.636545 94.169824 
L 202.165375 93.091984 
L 199.694205 92.006383 
L 197.223034 90.91257 
L 194.751864 89.810104 
L 192.280694 88.698565 
L 189.809524 87.577565 
L 187.338354 86.446752 
L 184.867183 85.305823 
L 182.396013 84.154533 
L 179.924843 82.992699 
L 177.453673 81.820211 
L 174.982503 80.63703 
L 172.511333 79.443192 
L 170.040162 78.238807 
L 167.568992 77.024056 
L 165.097822 75.799182 
L 162.626652 74.564487 
L 160.155482 73.320321 
L 157.684312 72.067072 
L 155.213141 70.805161 
L 152.741971 69.535025 
L 150.270801 68.257117 
L 147.799631 66.971894 
L 145.328461 65.679808 
L 142.857291 64.381307 
L 140.38612 63.076824 
L 137.91495 61.766779 
L 135.44378 60.451571 
L 132.97261 59.131582 
L 130.50144 57.807172 
L 128.03027 56.478679 
L 125.559099 55.146422 
L 123.087929 53.810696 
L 120.616759 52.471779 
L 118.145589 51.129927 
L 115.674419 49.78538 
L 113.203248 48.438359 
L 110.732078 47.089068 
L 108.260908 45.737697 
L 105.789738 44.384421 
L 103.318568 43.029402 
L 100.847398 41.672789 
L 98.376227 40.314722 
L 95.905057 38.955326 
L 93.433887 37.594721 
L 90.962717 36.233015 
z
" clip-path="url(#p7b18370b91)" style="fill: #ff0000; fill-opacity: 0.6"/>
   </g>
   <g id="matplotlib.axis_1">
    <g id="xtick_1">
     <g id="line2d_1">
      <defs>
       <path id="m6d1c948ef3" d="M 0 0 
L 0 3.5 
" style="stroke: #000000; stroke-width: 0.8"/>
      </defs>
      <g>
       <use xlink:href="#m6d1c948ef3" x="126.06787" y="190.4328" style="stroke: #000000; stroke-width: 0.8"/>
      </g>
     </g>
    </g>
    <g id="xtick_2">
     <g id="line2d_2">
      <g>
       <use xlink:href="#m6d1c948ef3" x="242.358231" y="190.4328" style="stroke: #000000; stroke-width: 0.8"/>
      </g>
     </g>
    </g>
    <g id="xtick_3">
     <g id="line2d_3">
      <defs>
       <path id="m754d06b002" d="M 0 0 
L 0 2 
" style="stroke: #000000; stroke-width: 0.6"/>
      </defs>
      <g>
       <use xlink:href="#m754d06b002" x="79.791282" y="190.4328" style="stroke: #000000; stroke-width: 0.6"/>
      </g>
     </g>
    </g>
    <g id="xtick_4">
     <g id="line2d_4">
      <g>
       <use xlink:href="#m754d06b002" x="91.060983" y="190.4328" style="stroke: #000000; stroke-width: 0.6"/>
      </g>
     </g>
    </g>
    <g id="xtick_5">
     <g id="line2d_5">
      <g>
       <use xlink:href="#m754d06b002" x="100.268998" y="190.4328" style="stroke: #000000; stroke-width: 0.6"/>
      </g>
     </g>
    </g>
    <g id="xtick_6">
     <g id="line2d_6">
      <g>
       <use xlink:href="#m754d06b002" x="108.054265" y="190.4328" style="stroke: #000000; stroke-width: 0.6"/>
      </g>
     </g>
    </g>
    <g id="xtick_7">
     <g id="line2d_7">
      <g>
       <use xlink:href="#m754d06b002" x="114.798169" y="190.4328" style="stroke: #000000; stroke-width: 0.6"/>
      </g>
     </g>
    </g>
    <g id="xtick_8">
     <g id="line2d_8">
      <g>
       <use xlink:href="#m754d06b002" x="120.746715" y="190.4328" style="stroke: #000000; stroke-width: 0.6"/>
      </g>
     </g>
    </g>
    <g id="xtick_9">
     <g id="line2d_9">
      <g>
       <use xlink:href="#m754d06b002" x="161.074757" y="190.4328" style="stroke: #000000; stroke-width: 0.6"/>
      </g>
     </g>
    </g>
    <g id="xtick_10">
     <g id="line2d_10">
      <g>
       <use xlink:href="#m754d06b002" x="181.552473" y="190.4328" style="stroke: #000000; stroke-width: 0.6"/>
      </g>
     </g>
    </g>
    <g id="xtick_11">
     <g id="line2d_11">
      <g>
       <use xlink:href="#m754d06b002" x="196.081643" y="190.4328" style="stroke: #000000; stroke-width: 0.6"/>
      </g>
     </g>
    </g>
    <g id="xtick_12">
     <g id="line2d_12">
      <g>
       <use xlink:href="#m754d06b002" x="207.351344" y="190.4328" style="stroke: #000000; stroke-width: 0.6"/>
      </g>
     </g>
    </g>
    <g id="xtick_13">
     <g id="line2d_13">
      <g>
       <use xlink:href="#m754d06b002" x="216.55936" y="190.4328" style="stroke: #000000; stroke-width: 0.6"/>
      </g>
     </g>
    </g>
    <g id="xtick_14">
     <g id="line2d_14">
      <g>
       <use xlink:href="#m754d06b002" x="224.344626" y="190.4328" style="stroke: #000000; stroke-width: 0.6"/>
      </g>
     </g>
    </g>
    <g id="xtick_15">
     <g id="line2d_15">
      <g>
       <use xlink:href="#m754d06b002" x="231.08853" y="190.4328" style="stroke: #000000; stroke-width: 0.6"/>
      </g>
     </g>
    </g>
    <g id="xtick_16">
     <g id="line2d_16">
      <g>
       <use xlink:href="#m754d06b002" x="237.037076" y="190.4328" style="stroke: #000000; stroke-width: 0.6"/>
      </g>
     </g>
    </g>
    <g id="xtick_17">
     <g id="line2d_17">
      <g>
       <use xlink:href="#m754d06b002" x="277.365118" y="190.4328" style="stroke: #000000; stroke-width: 0.6"/>
      </g>
     </g>
    </g>
    <g id="xtick_18">
     <g id="line2d_18">
      <g>
       <use xlink:href="#m754d06b002" x="297.842834" y="190.4328" style="stroke: #000000; stroke-width: 0.6"/>
      </g>
     </g>
    </g>
    <g id="xtick_19">
     <g id="line2d_19">
      <g>
       <use xlink:href="#m754d06b002" x="312.372005" y="190.4328" style="stroke: #000000; stroke-width: 0.6"/>
      </g>
     </g>
    </g>
    <g id="xtick_20">
     <g id="line2d_20">
      <g>
       <use xlink:href="#m754d06b002" x="323.641705" y="190.4328" style="stroke: #000000; stroke-width: 0.6"/>
      </g>
     </g>
    </g>
    <g id="xtick_21">
     <g id="line2d_21">
      <g>
       <use xlink:href="#m754d06b002" x="332.849721" y="190.4328" style="stroke: #000000; stroke-width: 0.6"/>
      </g>
     </g>
    </g>
    <g id="xtick_22">
     <g id="line2d_22">
      <g>
       <use xlink:href="#m754d06b002" x="340.634987" y="190.4328" style="stroke: #000000; stroke-width: 0.6"/>
      </g>
     </g>
    </g>
    <g id="xtick_23">
     <g id="line2d_23">
      <g>
       <use xlink:href="#m754d06b002" x="347.378891" y="190.4328" style="stroke: #000000; stroke-width: 0.6"/>
      </g>
     </g>
    </g>
   </g>
   <g id="matplotlib.axis_2">
    <g id="ytick_1">
     <g id="line2d_24">
      <defs>
       <path id="m65d1571909" d="M 0 0 
L -3.5 0 
" style="stroke: #000000; stroke-width: 0.8"/>
      </defs>
      <g>
       <use xlink:href="#m65d1571909" x="77.371281" y="62.323656" style="stroke: #000000; stroke-width: 0.8"/>
      </g>
     </g>
     <g id="text_1">
      <!-- $\mathdefault{10^{-12}}$ -->
      <g transform="translate(42.471281 66.122875) scale(0.1 -0.1)">
       <defs>
        <path id="DejaVuSans-31" d="M 794 531 
L 1825 531 
L 1825 4091 
L 703 3866 
L 703 4441 
L 1819 4666 
L 2450 4666 
L 2450 531 
L 3481 531 
L 3481 0 
L 794 0 
L 794 531 
z
" transform="scale(0.015625)"/>
        <path id="DejaVuSans-30" d="M 2034 4250 
Q 1547 4250 1301 3770 
Q 1056 3291 1056 2328 
Q 1056 1369 1301 889 
Q 1547 409 2034 409 
Q 2525 409 2770 889 
Q 3016 1369 3016 2328 
Q 3016 3291 2770 3770 
Q 2525 4250 2034 4250 
z
M 2034 4750 
Q 2819 4750 3233 4129 
Q 3647 3509 3647 2328 
Q 3647 1150 3233 529 
Q 2819 -91 2034 -91 
Q 1250 -91 836 529 
Q 422 1150 422 2328 
Q 422 3509 836 4129 
Q 1250 4750 2034 4750 
z
" transform="scale(0.015625)"/>
        <path id="DejaVuSans-2212" d="M 678 2272 
L 4684 2272 
L 4684 1741 
L 678 1741 
L 678 2272 
z
" transform="scale(0.015625)"/>
        <path id="DejaVuSans-32" d="M 1228 531 
L 3431 531 
L 3431 0 
L 469 0 
L 469 531 
Q 828 903 1448 1529 
Q 2069 2156 2228 2338 
Q 2531 2678 2651 2914 
Q 2772 3150 2772 3378 
Q 2772 3750 2511 3984 
Q 2250 4219 1831 4219 
Q 1534 4219 1204 4116 
Q 875 4013 500 3803 
L 500 4441 
Q 881 4594 1212 4672 
Q 1544 4750 1819 4750 
Q 2544 4750 2975 4387 
Q 3406 4025 3406 3419 
Q 3406 3131 3298 2873 
Q 3191 2616 2906 2266 
Q 2828 2175 2409 1742 
Q 1991 1309 1228 531 
z
" transform="scale(0.015625)"/>
       </defs>
       <use xlink:href="#DejaVuSans-31" transform="translate(0 0.765625)"/>
       <use xlink:href="#DejaVuSans-30" transform="translate(63.623047 0.765625)"/>
       <use xlink:href="#DejaVuSans-2212" transform="translate(128.203125 39.046875) scale(0.7)"/>
       <use xlink:href="#DejaVuSans-31" transform="translate(186.855469 39.046875) scale(0.7)"/>
       <use xlink:href="#DejaVuSans-32" transform="translate(231.391602 39.046875) scale(0.7)"/>
      </g>
     </g>
    </g>
    <g id="ytick_2">
     <g id="line2d_25">
      <defs>
       <path id="m553aad020f" d="M 0 0 
L -2 0 
" style="stroke: #000000; stroke-width: 0.6"/>
      </defs>
      <g>
       <use xlink:href="#m553aad020f" x="77.371281" y="158.940628" style="stroke: #000000; stroke-width: 0.6"/>
      </g>
     </g>
     <g id="text_2">
      <!-- $\mathdefault{3\times10^{-13}}$ -->
      <g transform="translate(25.371281 162.739847) scale(0.1 -0.1)">
       <defs>
        <path id="DejaVuSans-33" d="M 2597 2516 
Q 3050 2419 3304 2112 
Q 3559 1806 3559 1356 
Q 3559 666 3084 287 
Q 2609 -91 1734 -91 
Q 1441 -91 1130 -33 
Q 819 25 488 141 
L 488 750 
Q 750 597 1062 519 
Q 1375 441 1716 441 
Q 2309 441 2620 675 
Q 2931 909 2931 1356 
Q 2931 1769 2642 2001 
Q 2353 2234 1838 2234 
L 1294 2234 
L 1294 2753 
L 1863 2753 
Q 2328 2753 2575 2939 
Q 2822 3125 2822 3475 
Q 2822 3834 2567 4026 
Q 2313 4219 1838 4219 
Q 1578 4219 1281 4162 
Q 984 4106 628 3988 
L 628 4550 
Q 988 4650 1302 4700 
Q 1616 4750 1894 4750 
Q 2613 4750 3031 4423 
Q 3450 4097 3450 3541 
Q 3450 3153 3228 2886 
Q 3006 2619 2597 2516 
z
" transform="scale(0.015625)"/>
        <path id="DejaVuSans-d7" d="M 4488 3438 
L 3059 2003 
L 4488 575 
L 4116 197 
L 2681 1631 
L 1247 197 
L 878 575 
L 2303 2003 
L 878 3438 
L 1247 3816 
L 2681 2381 
L 4116 3816 
L 4488 3438 
z
" transform="scale(0.015625)"/>
       </defs>
       <use xlink:href="#DejaVuSans-33" transform="translate(0 0.765625)"/>
       <use xlink:href="#DejaVuSans-d7" transform="translate(83.105469 0.765625)"/>
       <use xlink:href="#DejaVuSans-31" transform="translate(186.376953 0.765625)"/>
       <use xlink:href="#DejaVuSans-30" transform="translate(250 0.765625)"/>
       <use xlink:href="#DejaVuSans-2212" transform="translate(314.580078 39.046875) scale(0.7)"/>
       <use xlink:href="#DejaVuSans-31" transform="translate(373.232422 39.046875) scale(0.7)"/>
       <use xlink:href="#DejaVuSans-33" transform="translate(417.768555 39.046875) scale(0.7)"/>
      </g>
     </g>
    </g>
    <g id="ytick_3">
     <g id="line2d_26">
      <g>
       <use xlink:href="#m553aad020f" x="77.371281" y="135.854583" style="stroke: #000000; stroke-width: 0.6"/>
      </g>
     </g>
     <g id="text_3">
      <!-- $\mathdefault{4\times10^{-13}}$ -->
      <g transform="translate(25.371281 139.653801) scale(0.1 -0.1)">
       <defs>
        <path id="DejaVuSans-34" d="M 2419 4116 
L 825 1625 
L 2419 1625 
L 2419 4116 
z
M 2253 4666 
L 3047 4666 
L 3047 1625 
L 3713 1625 
L 3713 1100 
L 3047 1100 
L 3047 0 
L 2419 0 
L 2419 1100 
L 313 1100 
L 313 1709 
L 2253 4666 
z
" transform="scale(0.015625)"/>
       </defs>
       <use xlink:href="#DejaVuSans-34" transform="translate(0 0.765625)"/>
       <use xlink:href="#DejaVuSans-d7" transform="translate(83.105469 0.765625)"/>
       <use xlink:href="#DejaVuSans-31" transform="translate(186.376953 0.765625)"/>
       <use xlink:href="#DejaVuSans-30" transform="translate(250 0.765625)"/>
       <use xlink:href="#DejaVuSans-2212" transform="translate(314.580078 39.046875) scale(0.7)"/>
       <use xlink:href="#DejaVuSans-31" transform="translate(373.232422 39.046875) scale(0.7)"/>
       <use xlink:href="#DejaVuSans-33" transform="translate(417.768555 39.046875) scale(0.7)"/>
      </g>
     </g>
    </g>
    <g id="ytick_4">
     <g id="line2d_27">
      <g>
       <use xlink:href="#m553aad020f" x="77.371281" y="117.947655" style="stroke: #000000; stroke-width: 0.6"/>
      </g>
     </g>
    </g>
    <g id="ytick_5">
     <g id="line2d_28">
      <g>
       <use xlink:href="#m553aad020f" x="77.371281" y="103.316629" style="stroke: #000000; stroke-width: 0.6"/>
      </g>
     </g>
     <g id="text_4">
      <!-- $\mathdefault{6\times10^{-13}}$ -->
      <g transform="translate(25.371281 107.115848) scale(0.1 -0.1)">
       <defs>
        <path id="DejaVuSans-36" d="M 2113 2584 
Q 1688 2584 1439 2293 
Q 1191 2003 1191 1497 
Q 1191 994 1439 701 
Q 1688 409 2113 409 
Q 2538 409 2786 701 
Q 3034 994 3034 1497 
Q 3034 2003 2786 2293 
Q 2538 2584 2113 2584 
z
M 3366 4563 
L 3366 3988 
Q 3128 4100 2886 4159 
Q 2644 4219 2406 4219 
Q 1781 4219 1451 3797 
Q 1122 3375 1075 2522 
Q 1259 2794 1537 2939 
Q 1816 3084 2150 3084 
Q 2853 3084 3261 2657 
Q 3669 2231 3669 1497 
Q 3669 778 3244 343 
Q 2819 -91 2113 -91 
Q 1303 -91 875 529 
Q 447 1150 447 2328 
Q 447 3434 972 4092 
Q 1497 4750 2381 4750 
Q 2619 4750 2861 4703 
Q 3103 4656 3366 4563 
z
" transform="scale(0.015625)"/>
       </defs>
       <use xlink:href="#DejaVuSans-36" transform="translate(0 0.765625)"/>
       <use xlink:href="#DejaVuSans-d7" transform="translate(83.105469 0.765625)"/>
       <use xlink:href="#DejaVuSans-31" transform="translate(186.376953 0.765625)"/>
       <use xlink:href="#DejaVuSans-30" transform="translate(250 0.765625)"/>
       <use xlink:href="#DejaVuSans-2212" transform="translate(314.580078 39.046875) scale(0.7)"/>
       <use xlink:href="#DejaVuSans-31" transform="translate(373.232422 39.046875) scale(0.7)"/>
       <use xlink:href="#DejaVuSans-33" transform="translate(417.768555 39.046875) scale(0.7)"/>
      </g>
     </g>
    </g>
    <g id="ytick_6">
     <g id="line2d_29">
      <g>
       <use xlink:href="#m553aad020f" x="77.371281" y="90.946273" style="stroke: #000000; stroke-width: 0.6"/>
      </g>
     </g>
    </g>
    <g id="ytick_7">
     <g id="line2d_30">
      <g>
       <use xlink:href="#m553aad020f" x="77.371281" y="80.230584" style="stroke: #000000; stroke-width: 0.6"/>
      </g>
     </g>
    </g>
    <g id="ytick_8">
     <g id="line2d_31">
      <g>
       <use xlink:href="#m553aad020f" x="77.371281" y="70.778676" style="stroke: #000000; stroke-width: 0.6"/>
      </g>
     </g>
    </g>
    <g id="text_5">
     <!-- e2 * dnde [TeV / (cm2 s)] -->
     <g transform="translate(19.291593 170.416088) rotate(-90) scale(0.1 -0.1)">
      <defs>
       <path id="DejaVuSans-65" d="M 3597 1894 
L 3597 1613 
L 953 1613 
Q 991 1019 1311 708 
Q 1631 397 2203 397 
Q 2534 397 2845 478 
Q 3156 559 3463 722 
L 3463 178 
Q 3153 47 2828 -22 
Q 2503 -91 2169 -91 
Q 1331 -91 842 396 
Q 353 884 353 1716 
Q 353 2575 817 3079 
Q 1281 3584 2069 3584 
Q 2775 3584 3186 3129 
Q 3597 2675 3597 1894 
z
M 3022 2063 
Q 3016 2534 2758 2815 
Q 2500 3097 2075 3097 
Q 1594 3097 1305 2825 
Q 1016 2553 972 2059 
L 3022 2063 
z
" transform="scale(0.015625)"/>
       <path id="DejaVuSans-20" transform="scale(0.015625)"/>
       <path id="DejaVuSans-2a" d="M 3009 3897 
L 1888 3291 
L 3009 2681 
L 2828 2375 
L 1778 3009 
L 1778 1831 
L 1422 1831 
L 1422 3009 
L 372 2375 
L 191 2681 
L 1313 3291 
L 191 3897 
L 372 4206 
L 1422 3572 
L 1422 4750 
L 1778 4750 
L 1778 3572 
L 2828 4206 
L 3009 3897 
z
" transform="scale(0.015625)"/>
       <path id="DejaVuSans-64" d="M 2906 2969 
L 2906 4863 
L 3481 4863 
L 3481 0 
L 2906 0 
L 2906 525 
Q 2725 213 2448 61 
Q 2172 -91 1784 -91 
Q 1150 -91 751 415 
Q 353 922 353 1747 
Q 353 2572 751 3078 
Q 1150 3584 1784 3584 
Q 2172 3584 2448 3432 
Q 2725 3281 2906 2969 
z
M 947 1747 
Q 947 1113 1208 752 
Q 1469 391 1925 391 
Q 2381 391 2643 752 
Q 2906 1113 2906 1747 
Q 2906 2381 2643 2742 
Q 2381 3103 1925 3103 
Q 1469 3103 1208 2742 
Q 947 2381 947 1747 
z
" transform="scale(0.015625)"/>
       <path id="DejaVuSans-6e" d="M 3513 2113 
L 3513 0 
L 2938 0 
L 2938 2094 
Q 2938 2591 2744 2837 
Q 2550 3084 2163 3084 
Q 1697 3084 1428 2787 
Q 1159 2491 1159 1978 
L 1159 0 
L 581 0 
L 581 3500 
L 1159 3500 
L 1159 2956 
Q 1366 3272 1645 3428 
Q 1925 3584 2291 3584 
Q 2894 3584 3203 3211 
Q 3513 2838 3513 2113 
z
" transform="scale(0.015625)"/>
       <path id="DejaVuSans-5b" d="M 550 4863 
L 1875 4863 
L 1875 4416 
L 1125 4416 
L 1125 -397 
L 1875 -397 
L 1875 -844 
L 550 -844 
L 550 4863 
z
" transform="scale(0.015625)"/>
       <path id="DejaVuSans-54" d="M -19 4666 
L 3928 4666 
L 3928 4134 
L 2272 4134 
L 2272 0 
L 1638 0 
L 1638 4134 
L -19 4134 
L -19 4666 
z
" transform="scale(0.015625)"/>
       <path id="DejaVuSans-56" d="M 1831 0 
L 50 4666 
L 709 4666 
L 2188 738 
L 3669 4666 
L 4325 4666 
L 2547 0 
L 1831 0 
z
" transform="scale(0.015625)"/>
       <path id="DejaVuSans-2f" d="M 1625 4666 
L 2156 4666 
L 531 -594 
L 0 -594 
L 1625 4666 
z
" transform="scale(0.015625)"/>
       <path id="DejaVuSans-28" d="M 1984 4856 
Q 1566 4138 1362 3434 
Q 1159 2731 1159 2009 
Q 1159 1288 1364 580 
Q 1569 -128 1984 -844 
L 1484 -844 
Q 1016 -109 783 600 
Q 550 1309 550 2009 
Q 550 2706 781 3412 
Q 1013 4119 1484 4856 
L 1984 4856 
z
" transform="scale(0.015625)"/>
       <path id="DejaVuSans-63" d="M 3122 3366 
L 3122 2828 
Q 2878 2963 2633 3030 
Q 2388 3097 2138 3097 
Q 1578 3097 1268 2742 
Q 959 2388 959 1747 
Q 959 1106 1268 751 
Q 1578 397 2138 397 
Q 2388 397 2633 464 
Q 2878 531 3122 666 
L 3122 134 
Q 2881 22 2623 -34 
Q 2366 -91 2075 -91 
Q 1284 -91 818 406 
Q 353 903 353 1747 
Q 353 2603 823 3093 
Q 1294 3584 2113 3584 
Q 2378 3584 2631 3529 
Q 2884 3475 3122 3366 
z
" transform="scale(0.015625)"/>
       <path id="DejaVuSans-6d" d="M 3328 2828 
Q 3544 3216 3844 3400 
Q 4144 3584 4550 3584 
Q 5097 3584 5394 3201 
Q 5691 2819 5691 2113 
L 5691 0 
L 5113 0 
L 5113 2094 
Q 5113 2597 4934 2840 
Q 4756 3084 4391 3084 
Q 3944 3084 3684 2787 
Q 3425 2491 3425 1978 
L 3425 0 
L 2847 0 
L 2847 2094 
Q 2847 2600 2669 2842 
Q 2491 3084 2119 3084 
Q 1678 3084 1418 2786 
Q 1159 2488 1159 1978 
L 1159 0 
L 581 0 
L 581 3500 
L 1159 3500 
L 1159 2956 
Q 1356 3278 1631 3431 
Q 1906 3584 2284 3584 
Q 2666 3584 2933 3390 
Q 3200 3197 3328 2828 
z
" transform="scale(0.015625)"/>
       <path id="DejaVuSans-73" d="M 2834 3397 
L 2834 2853 
Q 2591 2978 2328 3040 
Q 2066 3103 1784 3103 
Q 1356 3103 1142 2972 
Q 928 2841 928 2578 
Q 928 2378 1081 2264 
Q 1234 2150 1697 2047 
L 1894 2003 
Q 2506 1872 2764 1633 
Q 3022 1394 3022 966 
Q 3022 478 2636 193 
Q 2250 -91 1575 -91 
Q 1294 -91 989 -36 
Q 684 19 347 128 
L 347 722 
Q 666 556 975 473 
Q 1284 391 1588 391 
Q 1994 391 2212 530 
Q 2431 669 2431 922 
Q 2431 1156 2273 1281 
Q 2116 1406 1581 1522 
L 1381 1569 
Q 847 1681 609 1914 
Q 372 2147 372 2553 
Q 372 3047 722 3315 
Q 1072 3584 1716 3584 
Q 2034 3584 2315 3537 
Q 2597 3491 2834 3397 
z
" transform="scale(0.015625)"/>
       <path id="DejaVuSans-29" d="M 513 4856 
L 1013 4856 
Q 1481 4119 1714 3412 
Q 1947 2706 1947 2009 
Q 1947 1309 1714 600 
Q 1481 -109 1013 -844 
L 513 -844 
Q 928 -128 1133 580 
Q 1338 1288 1338 2009 
Q 1338 2731 1133 3434 
Q 928 4138 513 4856 
z
" transform="scale(0.015625)"/>
       <path id="DejaVuSans-5d" d="M 1947 4863 
L 1947 -844 
L 622 -844 
L 622 -397 
L 1369 -397 
L 1369 4416 
L 622 4416 
L 622 4863 
L 1947 4863 
z
" transform="scale(0.015625)"/>
      </defs>
      <use xlink:href="#DejaVuSans-65"/>
      <use xlink:href="#DejaVuSans-32" x="61.523438"/>
      <use xlink:href="#DejaVuSans-20" x="125.146484"/>
      <use xlink:href="#DejaVuSans-2a" x="156.933594"/>
      <use xlink:href="#DejaVuSans-20" x="206.933594"/>
      <use xlink:href="#DejaVuSans-64" x="238.720703"/>
      <use xlink:href="#DejaVuSans-6e" x="302.197266"/>
      <use xlink:href="#DejaVuSans-64" x="365.576172"/>
      <use xlink:href="#DejaVuSans-65" x="429.052734"/>
      <use xlink:href="#DejaVuSans-20" x="490.576172"/>
      <use xlink:href="#DejaVuSans-5b" x="522.363281"/>
      <use xlink:href="#DejaVuSans-54" x="561.376953"/>
      <use xlink:href="#DejaVuSans-65" x="605.460938"/>
      <use xlink:href="#DejaVuSans-56" x="666.984375"/>
      <use xlink:href="#DejaVuSans-20" x="735.392578"/>
      <use xlink:href="#DejaVuSans-2f" x="767.179688"/>
      <use xlink:href="#DejaVuSans-20" x="800.871094"/>
      <use xlink:href="#DejaVuSans-28" x="832.658203"/>
      <use xlink:href="#DejaVuSans-63" x="871.671875"/>
      <use xlink:href="#DejaVuSans-6d" x="926.652344"/>
      <use xlink:href="#DejaVuSans-32" x="1024.064453"/>
      <use xlink:href="#DejaVuSans-20" x="1087.6875"/>
      <use xlink:href="#DejaVuSans-73" x="1119.474609"/>
      <use xlink:href="#DejaVuSans-29" x="1171.574219"/>
      <use xlink:href="#DejaVuSans-5d" x="1210.587891"/>
     </g>
    </g>
   </g>
   <g id="LineCollection_1">
    <path d="M 89.727132 60.381071 
L 89.727132 34.224604 
" clip-path="url(#p7b18370b91)" style="fill: none; stroke: #00008b; stroke-opacity: 0.7; stroke-width: 1.5"/>
    <path d="M 104.263427 66.123071 
L 104.263427 41.686947 
" clip-path="url(#p7b18370b91)" style="fill: none; stroke: #00008b; stroke-opacity: 0.7; stroke-width: 1.5"/>
    <path d="M 118.799722 71.987248 
L 118.799722 49.031414 
" clip-path="url(#p7b18370b91)" style="fill: none; stroke: #00008b; stroke-opacity: 0.7; stroke-width: 1.5"/>
    <path d="M 133.336017 77.992838 
L 133.336017 56.237723 
" clip-path="url(#p7b18370b91)" style="fill: none; stroke: #00008b; stroke-opacity: 0.7; stroke-width: 1.5"/>
    <path d="M 147.872312 84.159505 
L 147.872312 63.285363 
" clip-path="url(#p7b18370b91)" style="fill: none; stroke: #00008b; stroke-opacity: 0.7; stroke-width: 1.5"/>
    <path d="M 162.408608 90.504425 
L 162.408608 70.1565 
" clip-path="url(#p7b18370b91)" style="fill: none; stroke: #00008b; stroke-opacity: 0.7; stroke-width: 1.5"/>
    <path d="M 176.944903 97.038785 
L 176.944903 76.839474 
" clip-path="url(#p7b18370b91)" style="fill: none; stroke: #00008b; stroke-opacity: 0.7; stroke-width: 1.5"/>
    <path d="M 191.481198 103.764952 
L 191.481198 83.331618 
" clip-path="url(#p7b18370b91)" style="fill: none; stroke: #00008b; stroke-opacity: 0.7; stroke-width: 1.5"/>
    <path d="M 206.017493 110.6757 
L 206.017493 89.640032 
" clip-path="url(#p7b18370b91)" style="fill: none; stroke: #00008b; stroke-opacity: 0.7; stroke-width: 1.5"/>
    <path d="M 220.553788 117.755901 
L 220.553788 95.779888 
" clip-path="url(#p7b18370b91)" style="fill: none; stroke: #00008b; stroke-opacity: 0.7; stroke-width: 1.5"/>
    <path d="M 235.090083 124.985816 
L 235.090083 101.771139 
" clip-path="url(#p7b18370b91)" style="fill: none; stroke: #00008b; stroke-opacity: 0.7; stroke-width: 1.5"/>
    <path d="M 249.626378 132.344504 
L 249.626378 107.635106 
" clip-path="url(#p7b18370b91)" style="fill: none; stroke: #00008b; stroke-opacity: 0.7; stroke-width: 1.5"/>
    <path d="M 264.162673 139.812349 
L 264.162673 113.39196 
" clip-path="url(#p7b18370b91)" style="fill: none; stroke: #00008b; stroke-opacity: 0.7; stroke-width: 1.5"/>
    <path d="M 278.698969 147.372411 
L 278.698969 119.05937 
" clip-path="url(#p7b18370b91)" style="fill: none; stroke: #00008b; stroke-opacity: 0.7; stroke-width: 1.5"/>
    <path d="M 293.235264 155.010869 
L 293.235264 124.652064 
" clip-path="url(#p7b18370b91)" style="fill: none; stroke: #00008b; stroke-opacity: 0.7; stroke-width: 1.5"/>
    <path d="M 307.771559 162.716914 
L 307.771559 130.181943 
" clip-path="url(#p7b18370b91)" style="fill: none; stroke: #00008b; stroke-opacity: 0.7; stroke-width: 1.5"/>
    <path d="M 322.307854 170.482399 
L 322.307854 135.658445 
" clip-path="url(#p7b18370b91)" style="fill: none; stroke: #00008b; stroke-opacity: 0.7; stroke-width: 1.5"/>
    <path d="M 336.844149 178.301412 
L 336.844149 141.08897 
" clip-path="url(#p7b18370b91)" style="fill: none; stroke: #00008b; stroke-opacity: 0.7; stroke-width: 1.5"/>
   </g>
   <g id="line2d_32">
    <path d="M 90.962717 45.589615 
L 93.433887 46.76758 
L 95.905057 47.945546 
L 98.376227 49.123512 
L 100.847398 50.301477 
L 103.318568 51.479443 
L 105.789738 52.657409 
L 108.260908 53.835374 
L 110.732078 55.01334 
L 113.203248 56.191305 
L 115.674419 57.369271 
L 118.145589 58.547237 
L 120.616759 59.725202 
L 123.087929 60.903168 
L 125.559099 62.081134 
L 128.03027 63.259099 
L 130.50144 64.437065 
L 132.97261 65.615031 
L 135.44378 66.792996 
L 137.91495 67.970962 
L 140.38612 69.148928 
L 142.857291 70.326893 
L 145.328461 71.504859 
L 147.799631 72.682824 
L 150.270801 73.86079 
L 152.741971 75.038756 
L 155.213141 76.216721 
L 157.684312 77.394687 
L 160.155482 78.572653 
L 162.626652 79.750618 
L 165.097822 80.928584 
L 167.568992 82.10655 
L 170.040162 83.284515 
L 172.511333 84.462481 
L 174.982503 85.640446 
L 177.453673 86.818412 
L 179.924843 87.996378 
L 182.396013 89.174343 
L 184.867183 90.352309 
L 187.338354 91.530275 
L 189.809524 92.70824 
L 192.280694 93.886206 
L 194.751864 95.064172 
L 197.223034 96.242137 
L 199.694205 97.420103 
L 202.165375 98.598069 
L 204.636545 99.776034 
L 207.107715 100.954 
L 209.578885 102.131965 
L 212.050055 103.309931 
L 214.521226 104.487897 
L 216.992396 105.665862 
L 219.463566 106.843828 
L 221.934736 108.021794 
L 224.405906 109.199759 
L 226.877076 110.377725 
L 229.348247 111.555691 
L 231.819417 112.733656 
L 234.290587 113.911622 
L 236.761757 115.089587 
L 239.232927 116.267553 
L 241.704097 117.445519 
L 244.175268 118.623484 
L 246.646438 119.80145 
L 249.117608 120.979416 
L 251.588778 122.157381 
L 254.059948 123.335347 
L 256.531119 124.513313 
L 259.002289 125.691278 
L 261.473459 126.869244 
L 263.944629 128.047209 
L 266.415799 129.225175 
L 268.886969 130.403141 
L 271.35814 131.581106 
L 273.82931 132.759072 
L 276.30048 133.937038 
L 278.77165 135.115003 
L 281.24282 136.292969 
L 283.71399 137.470935 
L 286.185161 138.6489 
L 288.656331 139.826866 
L 291.127501 141.004832 
L 293.598671 142.182797 
L 296.069841 143.360763 
L 298.541011 144.538728 
L 301.012182 145.716694 
L 303.483352 146.89466 
L 305.954522 148.072625 
L 308.425692 149.250591 
L 310.896862 150.428557 
L 313.368032 151.606522 
L 315.839203 152.784488 
L 318.310373 153.962454 
L 320.781543 155.140419 
L 323.252713 156.318385 
L 325.723883 157.49635 
L 328.195054 158.674316 
L 330.666224 159.852282 
L 333.137394 161.030247 
L 335.608564 162.208213 
" clip-path="url(#p7b18370b91)" style="fill: none; stroke: #008000; stroke-width: 1.5; stroke-linecap: square"/>
   </g>
   <g id="line2d_33">
    <path d="M 90.962717 45.589615 
L 93.433887 46.76758 
L 95.905057 47.945546 
L 98.376227 49.123512 
L 100.847398 50.301477 
L 103.318568 51.479443 
L 105.789738 52.657409 
L 108.260908 53.835374 
L 110.732078 55.01334 
L 113.203248 56.191305 
L 115.674419 57.369271 
L 118.145589 58.547237 
L 120.616759 59.725202 
L 123.087929 60.903168 
L 125.559099 62.081134 
L 128.03027 63.259099 
L 130.50144 64.437065 
L 132.97261 65.615031 
L 135.44378 66.792996 
L 137.91495 67.970962 
L 140.38612 69.148928 
L 142.857291 70.326893 
L 145.328461 71.504859 
L 147.799631 72.682824 
L 150.270801 73.86079 
L 152.741971 75.038756 
L 155.213141 76.216721 
L 157.684312 77.394687 
L 160.155482 78.572653 
L 162.626652 79.750618 
L 165.097822 80.928584 
L 167.568992 82.10655 
L 170.040162 83.284515 
L 172.511333 84.462481 
L 174.982503 85.640446 
L 177.453673 86.818412 
L 179.924843 87.996378 
L 182.396013 89.174343 
L 184.867183 90.352309 
L 187.338354 91.530275 
L 189.809524 92.70824 
L 192.280694 93.886206 
L 194.751864 95.064172 
L 197.223034 96.242137 
L 199.694205 97.420103 
L 202.165375 98.598069 
L 204.636545 99.776034 
L 207.107715 100.954 
L 209.578885 102.131965 
L 212.050055 103.309931 
L 214.521226 104.487897 
L 216.992396 105.665862 
L 219.463566 106.843828 
L 221.934736 108.021794 
L 224.405906 109.199759 
L 226.877076 110.377725 
L 229.348247 111.555691 
L 231.819417 112.733656 
L 234.290587 113.911622 
L 236.761757 115.089587 
L 239.232927 116.267553 
L 241.704097 117.445519 
L 244.175268 118.623484 
L 246.646438 119.80145 
L 249.117608 120.979416 
L 251.588778 122.157381 
L 254.059948 123.335347 
L 256.531119 124.513313 
L 259.002289 125.691278 
L 261.473459 126.869244 
L 263.944629 128.047209 
L 266.415799 129.225175 
L 268.886969 130.403141 
L 271.35814 131.581106 
L 273.82931 132.759072 
L 276.30048 133.937038 
L 278.77165 135.115003 
L 281.24282 136.292969 
L 283.71399 137.470935 
L 286.185161 138.6489 
L 288.656331 139.826866 
L 291.127501 141.004832 
L 293.598671 142.182797 
L 296.069841 143.360763 
L 298.541011 144.538728 
L 301.012182 145.716694 
L 303.483352 146.89466 
L 305.954522 148.072625 
L 308.425692 149.250591 
L 310.896862 150.428557 
L 313.368032 151.606522 
L 315.839203 152.784488 
L 318.310373 153.962454 
L 320.781543 155.140419 
L 323.252713 156.318385 
L 325.723883 157.49635 
L 328.195054 158.674316 
L 330.666224 159.852282 
L 333.137394 161.030247 
L 335.608564 162.208213 
" clip-path="url(#p7b18370b91)" style="fill: none; stroke: #ff0000; stroke-width: 1.5; stroke-linecap: square"/>
   </g>
   <g id="line2d_34">
    <path d="M 90.962717 45.589615 
L 93.433887 46.76758 
L 95.905057 47.945546 
L 98.376227 49.123512 
L 100.847398 50.301477 
L 103.318568 51.479443 
L 105.789738 52.657409 
L 108.260908 53.835374 
L 110.732078 55.01334 
L 113.203248 56.191305 
L 115.674419 57.369271 
L 118.145589 58.547237 
L 120.616759 59.725202 
L 123.087929 60.903168 
L 125.559099 62.081134 
L 128.03027 63.259099 
L 130.50144 64.437065 
L 132.97261 65.615031 
L 135.44378 66.792996 
L 137.91495 67.970962 
L 140.38612 69.148928 
L 142.857291 70.326893 
L 145.328461 71.504859 
L 147.799631 72.682824 
L 150.270801 73.86079 
L 152.741971 75.038756 
L 155.213141 76.216721 
L 157.684312 77.394687 
L 160.155482 78.572653 
L 162.626652 79.750618 
L 165.097822 80.928584 
L 167.568992 82.10655 
L 170.040162 83.284515 
L 172.511333 84.462481 
L 174.982503 85.640446 
L 177.453673 86.818412 
L 179.924843 87.996378 
L 182.396013 89.174343 
L 184.867183 90.352309 
L 187.338354 91.530275 
L 189.809524 92.70824 
L 192.280694 93.886206 
L 194.751864 95.064172 
L 197.223034 96.242137 
L 199.694205 97.420103 
L 202.165375 98.598069 
L 204.636545 99.776034 
L 207.107715 100.954 
L 209.578885 102.131965 
L 212.050055 103.309931 
L 214.521226 104.487897 
L 216.992396 105.665862 
L 219.463566 106.843828 
L 221.934736 108.021794 
L 224.405906 109.199759 
L 226.877076 110.377725 
L 229.348247 111.555691 
L 231.819417 112.733656 
L 234.290587 113.911622 
L 236.761757 115.089587 
L 239.232927 116.267553 
L 241.704097 117.445519 
L 244.175268 118.623484 
L 246.646438 119.80145 
L 249.117608 120.979416 
L 251.588778 122.157381 
L 254.059948 123.335347 
L 256.531119 124.513313 
L 259.002289 125.691278 
L 261.473459 126.869244 
L 263.944629 128.047209 
L 266.415799 129.225175 
L 268.886969 130.403141 
L 271.35814 131.581106 
L 273.82931 132.759072 
L 276.30048 133.937038 
L 278.77165 135.115003 
L 281.24282 136.292969 
L 283.71399 137.470935 
L 286.185161 138.6489 
L 288.656331 139.826866 
L 291.127501 141.004832 
L 293.598671 142.182797 
L 296.069841 143.360763 
L 298.541011 144.538728 
L 301.012182 145.716694 
L 303.483352 146.89466 
L 305.954522 148.072625 
L 308.425692 149.250591 
L 310.896862 150.428557 
L 313.368032 151.606522 
L 315.839203 152.784488 
L 318.310373 153.962454 
L 320.781543 155.140419 
L 323.252713 156.318385 
L 325.723883 157.49635 
L 328.195054 158.674316 
L 330.666224 159.852282 
L 333.137394 161.030247 
L 335.608564 162.208213 
" clip-path="url(#p7b18370b91)" style="fill: none; stroke-dasharray: 1.5,2.475; stroke-dashoffset: 0; stroke: #000000; stroke-width: 1.5"/>
   </g>
   <g id="line2d_35">
    <path d="M 89.727132 46.24183 
L 104.263427 52.978463 
L 118.799722 59.691273 
L 133.336017 66.380309 
L 147.872312 73.045619 
L 162.408608 79.687251 
L 176.944903 86.305255 
L 191.481198 92.899677 
L 206.017493 99.470566 
L 220.553788 106.017968 
L 235.090083 112.541931 
L 249.626378 119.042501 
L 264.162673 125.519724 
L 278.698969 131.973648 
L 293.235264 138.404316 
L 307.771559 144.811776 
L 322.307854 151.196071 
L 336.844149 157.557247 
" clip-path="url(#p7b18370b91)" style="fill: none; stroke: #00008b; stroke-opacity: 0.7; stroke-width: 1.5; stroke-linecap: square"/>
   </g>
   <g id="patch_3">
    <path d="M 77.371281 190.4328 
L 77.371281 25.44 
" style="fill: none; stroke: #000000; stroke-width: 0.8; stroke-linejoin: miter; stroke-linecap: square"/>
   </g>
   <g id="patch_4">
    <path d="M 349.2 190.4328 
L 349.2 25.44 
" style="fill: none; stroke: #000000; stroke-width: 0.8; stroke-linejoin: miter; stroke-linecap: square"/>
   </g>
   <g id="patch_5">
    <path d="M 77.371281 190.4328 
L 349.2 190.4328 
" style="fill: none; stroke: #000000; stroke-width: 0.8; stroke-linejoin: miter; stroke-linecap: square"/>
   </g>
   <g id="patch_6">
    <path d="M 77.371281 25.44 
L 349.2 25.44 
" style="fill: none; stroke: #000000; stroke-width: 0.8; stroke-linejoin: miter; stroke-linecap: square"/>
   </g>
   <g id="text_6">
    <!-- N = 1000 -->
    <g transform="translate(184.685328 19.44) scale(0.12 -0.12)">
     <defs>
      <path id="DejaVuSans-4e" d="M 628 4666 
L 1478 4666 
L 3547 763 
L 3547 4666 
L 4159 4666 
L 4159 0 
L 3309 0 
L 1241 3903 
L 1241 0 
L 628 0 
L 628 4666 
z
" transform="scale(0.015625)"/>
      <path id="DejaVuSans-3d" d="M 678 2906 
L 4684 2906 
L 4684 2381 
L 678 2381 
L 678 2906 
z
M 678 1631 
L 4684 1631 
L 4684 1100 
L 678 1100 
L 678 1631 
z
" transform="scale(0.015625)"/>
     </defs>
     <use xlink:href="#DejaVuSans-4e"/>
     <use xlink:href="#DejaVuSans-20" x="74.804688"/>
     <use xlink:href="#DejaVuSans-3d" x="106.591797"/>
     <use xlink:href="#DejaVuSans-20" x="190.380859"/>
     <use xlink:href="#DejaVuSans-31" x="222.167969"/>
     <use xlink:href="#DejaVuSans-30" x="285.791016"/>
     <use xlink:href="#DejaVuSans-30" x="349.414062"/>
     <use xlink:href="#DejaVuSans-30" x="413.037109"/>
    </g>
   </g>
   <g id="legend_1">
    <g id="patch_7">
     <path d="M 241.165625 92.1525 
L 342.2 92.1525 
Q 344.2 92.1525 344.2 90.1525 
L 344.2 32.44 
Q 344.2 30.44 342.2 30.44 
L 241.165625 30.44 
Q 239.165625 30.44 239.165625 32.44 
L 239.165625 90.1525 
Q 239.165625 92.1525 241.165625 92.1525 
z
" style="fill: #ffffff; opacity: 0.8; stroke: #cccccc; stroke-linejoin: miter"/>
    </g>
    <g id="patch_8">
     <path d="M 243.165625 42.038438 
L 263.165625 42.038438 
L 263.165625 35.038438 
L 243.165625 35.038438 
z
" style="fill: #008000; fill-opacity: 0.5"/>
    </g>
    <g id="text_7">
     <!-- $1\sigma$ Standard -->
     <g transform="translate(271.165625 42.038438) scale(0.1 -0.1)">
      <defs>
       <path id="DejaVuSans-Oblique-3c3" d="M 2219 3044 
Q 1744 3044 1422 2700 
Q 1081 2341 969 1747 
Q 844 1119 1044 756 
Q 1241 397 1706 397 
Q 2166 397 2503 759 
Q 2844 1122 2966 1747 
Q 3075 2319 2881 2700 
Q 2700 3044 2219 3044 
z
M 2309 3503 
L 4219 3500 
L 4106 2925 
L 3463 2925 
Q 3706 2438 3575 1747 
Q 3406 888 2884 400 
Q 2359 -91 1609 -91 
Q 856 -91 525 400 
Q 194 888 363 1747 
Q 528 2609 1050 3097 
Q 1484 3503 2309 3503 
z
" transform="scale(0.015625)"/>
       <path id="DejaVuSans-53" d="M 3425 4513 
L 3425 3897 
Q 3066 4069 2747 4153 
Q 2428 4238 2131 4238 
Q 1616 4238 1336 4038 
Q 1056 3838 1056 3469 
Q 1056 3159 1242 3001 
Q 1428 2844 1947 2747 
L 2328 2669 
Q 3034 2534 3370 2195 
Q 3706 1856 3706 1288 
Q 3706 609 3251 259 
Q 2797 -91 1919 -91 
Q 1588 -91 1214 -16 
Q 841 59 441 206 
L 441 856 
Q 825 641 1194 531 
Q 1563 422 1919 422 
Q 2459 422 2753 634 
Q 3047 847 3047 1241 
Q 3047 1584 2836 1778 
Q 2625 1972 2144 2069 
L 1759 2144 
Q 1053 2284 737 2584 
Q 422 2884 422 3419 
Q 422 4038 858 4394 
Q 1294 4750 2059 4750 
Q 2388 4750 2728 4690 
Q 3069 4631 3425 4513 
z
" transform="scale(0.015625)"/>
       <path id="DejaVuSans-74" d="M 1172 4494 
L 1172 3500 
L 2356 3500 
L 2356 3053 
L 1172 3053 
L 1172 1153 
Q 1172 725 1289 603 
Q 1406 481 1766 481 
L 2356 481 
L 2356 0 
L 1766 0 
Q 1100 0 847 248 
Q 594 497 594 1153 
L 594 3053 
L 172 3053 
L 172 3500 
L 594 3500 
L 594 4494 
L 1172 4494 
z
" transform="scale(0.015625)"/>
       <path id="DejaVuSans-61" d="M 2194 1759 
Q 1497 1759 1228 1600 
Q 959 1441 959 1056 
Q 959 750 1161 570 
Q 1363 391 1709 391 
Q 2188 391 2477 730 
Q 2766 1069 2766 1631 
L 2766 1759 
L 2194 1759 
z
M 3341 1997 
L 3341 0 
L 2766 0 
L 2766 531 
Q 2569 213 2275 61 
Q 1981 -91 1556 -91 
Q 1019 -91 701 211 
Q 384 513 384 1019 
Q 384 1609 779 1909 
Q 1175 2209 1959 2209 
L 2766 2209 
L 2766 2266 
Q 2766 2663 2505 2880 
Q 2244 3097 1772 3097 
Q 1472 3097 1187 3025 
Q 903 2953 641 2809 
L 641 3341 
Q 956 3463 1253 3523 
Q 1550 3584 1831 3584 
Q 2591 3584 2966 3190 
Q 3341 2797 3341 1997 
z
" transform="scale(0.015625)"/>
       <path id="DejaVuSans-72" d="M 2631 2963 
Q 2534 3019 2420 3045 
Q 2306 3072 2169 3072 
Q 1681 3072 1420 2755 
Q 1159 2438 1159 1844 
L 1159 0 
L 581 0 
L 581 3500 
L 1159 3500 
L 1159 2956 
Q 1341 3275 1631 3429 
Q 1922 3584 2338 3584 
Q 2397 3584 2469 3576 
Q 2541 3569 2628 3553 
L 2631 2963 
z
" transform="scale(0.015625)"/>
      </defs>
      <use xlink:href="#DejaVuSans-31" transform="translate(0 0.015625)"/>
      <use xlink:href="#DejaVuSans-Oblique-3c3" transform="translate(63.623047 0.015625)"/>
      <use xlink:href="#DejaVuSans-20" transform="translate(127.001953 0.015625)"/>
      <use xlink:href="#DejaVuSans-53" transform="translate(158.789062 0.015625)"/>
      <use xlink:href="#DejaVuSans-74" transform="translate(222.265625 0.015625)"/>
      <use xlink:href="#DejaVuSans-61" transform="translate(261.474609 0.015625)"/>
      <use xlink:href="#DejaVuSans-6e" transform="translate(322.753906 0.015625)"/>
      <use xlink:href="#DejaVuSans-64" transform="translate(386.132812 0.015625)"/>
      <use xlink:href="#DejaVuSans-61" transform="translate(449.609375 0.015625)"/>
      <use xlink:href="#DejaVuSans-72" transform="translate(510.888672 0.015625)"/>
      <use xlink:href="#DejaVuSans-64" transform="translate(552.001953 0.015625)"/>
     </g>
    </g>
    <g id="patch_9">
     <path d="M 243.165625 56.716563 
L 263.165625 56.716563 
L 263.165625 49.716563 
L 243.165625 49.716563 
z
" style="fill: #ff0000; fill-opacity: 0.6"/>
    </g>
    <g id="text_8">
     <!-- $1\sigma$ Nuisance -->
     <g transform="translate(271.165625 56.716563) scale(0.1 -0.1)">
      <defs>
       <path id="DejaVuSans-75" d="M 544 1381 
L 544 3500 
L 1119 3500 
L 1119 1403 
Q 1119 906 1312 657 
Q 1506 409 1894 409 
Q 2359 409 2629 706 
Q 2900 1003 2900 1516 
L 2900 3500 
L 3475 3500 
L 3475 0 
L 2900 0 
L 2900 538 
Q 2691 219 2414 64 
Q 2138 -91 1772 -91 
Q 1169 -91 856 284 
Q 544 659 544 1381 
z
M 1991 3584 
L 1991 3584 
z
" transform="scale(0.015625)"/>
       <path id="DejaVuSans-69" d="M 603 3500 
L 1178 3500 
L 1178 0 
L 603 0 
L 603 3500 
z
M 603 4863 
L 1178 4863 
L 1178 4134 
L 603 4134 
L 603 4863 
z
" transform="scale(0.015625)"/>
      </defs>
      <use xlink:href="#DejaVuSans-31" transform="translate(0 0.015625)"/>
      <use xlink:href="#DejaVuSans-Oblique-3c3" transform="translate(63.623047 0.015625)"/>
      <use xlink:href="#DejaVuSans-20" transform="translate(127.001953 0.015625)"/>
      <use xlink:href="#DejaVuSans-4e" transform="translate(158.789062 0.015625)"/>
      <use xlink:href="#DejaVuSans-75" transform="translate(233.59375 0.015625)"/>
      <use xlink:href="#DejaVuSans-69" transform="translate(296.972656 0.015625)"/>
      <use xlink:href="#DejaVuSans-73" transform="translate(324.755859 0.015625)"/>
      <use xlink:href="#DejaVuSans-61" transform="translate(376.855469 0.015625)"/>
      <use xlink:href="#DejaVuSans-6e" transform="translate(438.134766 0.015625)"/>
      <use xlink:href="#DejaVuSans-63" transform="translate(501.513672 0.015625)"/>
      <use xlink:href="#DejaVuSans-65" transform="translate(556.494141 0.015625)"/>
     </g>
    </g>
    <g id="line2d_36">
     <path d="M 243.165625 67.894688 
L 253.165625 67.894688 
L 263.165625 67.894688 
" style="fill: none; stroke-dasharray: 1.5,2.475; stroke-dashoffset: 0; stroke: #000000; stroke-width: 1.5"/>
    </g>
    <g id="text_9">
     <!-- Input -->
     <g transform="translate(271.165625 71.394688) scale(0.1 -0.1)">
      <defs>
       <path id="DejaVuSans-49" d="M 628 4666 
L 1259 4666 
L 1259 0 
L 628 0 
L 628 4666 
z
" transform="scale(0.015625)"/>
       <path id="DejaVuSans-70" d="M 1159 525 
L 1159 -1331 
L 581 -1331 
L 581 3500 
L 1159 3500 
L 1159 2969 
Q 1341 3281 1617 3432 
Q 1894 3584 2278 3584 
Q 2916 3584 3314 3078 
Q 3713 2572 3713 1747 
Q 3713 922 3314 415 
Q 2916 -91 2278 -91 
Q 1894 -91 1617 61 
Q 1341 213 1159 525 
z
M 3116 1747 
Q 3116 2381 2855 2742 
Q 2594 3103 2138 3103 
Q 1681 3103 1420 2742 
Q 1159 2381 1159 1747 
Q 1159 1113 1420 752 
Q 1681 391 2138 391 
Q 2594 391 2855 752 
Q 3116 1113 3116 1747 
z
" transform="scale(0.015625)"/>
      </defs>
      <use xlink:href="#DejaVuSans-49"/>
      <use xlink:href="#DejaVuSans-6e" x="29.492188"/>
      <use xlink:href="#DejaVuSans-70" x="92.871094"/>
      <use xlink:href="#DejaVuSans-75" x="156.347656"/>
      <use xlink:href="#DejaVuSans-74" x="219.726562"/>
     </g>
    </g>
    <g id="LineCollection_2">
     <path d="M 253.165625 87.572813 
L 253.165625 77.572813 
" style="fill: none; stroke: #00008b; stroke-opacity: 0.7; stroke-width: 1.5"/>
    </g>
    <g id="line2d_37">
     <path d="M 243.165625 82.572813 
L 263.165625 82.572813 
" style="fill: none; stroke: #00008b; stroke-opacity: 0.7; stroke-width: 1.5; stroke-linecap: square"/>
    </g>
    <g id="line2d_38"/>
    <g id="text_10">
     <!-- Mean and Std -->
     <g transform="translate(271.165625 86.072813) scale(0.1 -0.1)">
      <defs>
       <path id="DejaVuSans-4d" d="M 628 4666 
L 1569 4666 
L 2759 1491 
L 3956 4666 
L 4897 4666 
L 4897 0 
L 4281 0 
L 4281 4097 
L 3078 897 
L 2444 897 
L 1241 4097 
L 1241 0 
L 628 0 
L 628 4666 
z
" transform="scale(0.015625)"/>
      </defs>
      <use xlink:href="#DejaVuSans-4d"/>
      <use xlink:href="#DejaVuSans-65" x="86.279297"/>
      <use xlink:href="#DejaVuSans-61" x="147.802734"/>
      <use xlink:href="#DejaVuSans-6e" x="209.082031"/>
      <use xlink:href="#DejaVuSans-20" x="272.460938"/>
      <use xlink:href="#DejaVuSans-61" x="304.248047"/>
      <use xlink:href="#DejaVuSans-6e" x="365.527344"/>
      <use xlink:href="#DejaVuSans-64" x="428.90625"/>
      <use xlink:href="#DejaVuSans-20" x="492.382812"/>
      <use xlink:href="#DejaVuSans-53" x="524.169922"/>
      <use xlink:href="#DejaVuSans-74" x="587.646484"/>
      <use xlink:href="#DejaVuSans-64" x="626.855469"/>
     </g>
    </g>
   </g>
  </g>
  <g id="axes_2">
   <g id="patch_10">
    <path d="M 77.371281 314.728 
L 349.2 314.728 
L 349.2 204.7328 
L 77.371281 204.7328 
z
" style="fill: #ffffff"/>
   </g>
   <g id="matplotlib.axis_3">
    <g id="xtick_24">
     <g id="line2d_39">
      <g>
       <use xlink:href="#m6d1c948ef3" x="126.06787" y="314.728" style="stroke: #000000; stroke-width: 0.8"/>
      </g>
     </g>
     <g id="text_11">
      <!-- $\mathdefault{10^{0}}$ -->
      <g transform="translate(117.26787 329.326438) scale(0.1 -0.1)">
       <use xlink:href="#DejaVuSans-31" transform="translate(0 0.765625)"/>
       <use xlink:href="#DejaVuSans-30" transform="translate(63.623047 0.765625)"/>
       <use xlink:href="#DejaVuSans-30" transform="translate(128.203125 39.046875) scale(0.7)"/>
      </g>
     </g>
    </g>
    <g id="xtick_25">
     <g id="line2d_40">
      <g>
       <use xlink:href="#m6d1c948ef3" x="242.358231" y="314.728" style="stroke: #000000; stroke-width: 0.8"/>
      </g>
     </g>
     <g id="text_12">
      <!-- $\mathdefault{10^{1}}$ -->
      <g transform="translate(233.558231 329.326438) scale(0.1 -0.1)">
       <use xlink:href="#DejaVuSans-31" transform="translate(0 0.684375)"/>
       <use xlink:href="#DejaVuSans-30" transform="translate(63.623047 0.684375)"/>
       <use xlink:href="#DejaVuSans-31" transform="translate(128.203125 38.965625) scale(0.7)"/>
      </g>
     </g>
    </g>
    <g id="xtick_26">
     <g id="line2d_41">
      <g>
       <use xlink:href="#m754d06b002" x="79.791282" y="314.728" style="stroke: #000000; stroke-width: 0.6"/>
      </g>
     </g>
    </g>
    <g id="xtick_27">
     <g id="line2d_42">
      <g>
       <use xlink:href="#m754d06b002" x="91.060983" y="314.728" style="stroke: #000000; stroke-width: 0.6"/>
      </g>
     </g>
    </g>
    <g id="xtick_28">
     <g id="line2d_43">
      <g>
       <use xlink:href="#m754d06b002" x="100.268998" y="314.728" style="stroke: #000000; stroke-width: 0.6"/>
      </g>
     </g>
    </g>
    <g id="xtick_29">
     <g id="line2d_44">
      <g>
       <use xlink:href="#m754d06b002" x="108.054265" y="314.728" style="stroke: #000000; stroke-width: 0.6"/>
      </g>
     </g>
    </g>
    <g id="xtick_30">
     <g id="line2d_45">
      <g>
       <use xlink:href="#m754d06b002" x="114.798169" y="314.728" style="stroke: #000000; stroke-width: 0.6"/>
      </g>
     </g>
    </g>
    <g id="xtick_31">
     <g id="line2d_46">
      <g>
       <use xlink:href="#m754d06b002" x="120.746715" y="314.728" style="stroke: #000000; stroke-width: 0.6"/>
      </g>
     </g>
    </g>
    <g id="xtick_32">
     <g id="line2d_47">
      <g>
       <use xlink:href="#m754d06b002" x="161.074757" y="314.728" style="stroke: #000000; stroke-width: 0.6"/>
      </g>
     </g>
    </g>
    <g id="xtick_33">
     <g id="line2d_48">
      <g>
       <use xlink:href="#m754d06b002" x="181.552473" y="314.728" style="stroke: #000000; stroke-width: 0.6"/>
      </g>
     </g>
    </g>
    <g id="xtick_34">
     <g id="line2d_49">
      <g>
       <use xlink:href="#m754d06b002" x="196.081643" y="314.728" style="stroke: #000000; stroke-width: 0.6"/>
      </g>
     </g>
    </g>
    <g id="xtick_35">
     <g id="line2d_50">
      <g>
       <use xlink:href="#m754d06b002" x="207.351344" y="314.728" style="stroke: #000000; stroke-width: 0.6"/>
      </g>
     </g>
    </g>
    <g id="xtick_36">
     <g id="line2d_51">
      <g>
       <use xlink:href="#m754d06b002" x="216.55936" y="314.728" style="stroke: #000000; stroke-width: 0.6"/>
      </g>
     </g>
    </g>
    <g id="xtick_37">
     <g id="line2d_52">
      <g>
       <use xlink:href="#m754d06b002" x="224.344626" y="314.728" style="stroke: #000000; stroke-width: 0.6"/>
      </g>
     </g>
    </g>
    <g id="xtick_38">
     <g id="line2d_53">
      <g>
       <use xlink:href="#m754d06b002" x="231.08853" y="314.728" style="stroke: #000000; stroke-width: 0.6"/>
      </g>
     </g>
    </g>
    <g id="xtick_39">
     <g id="line2d_54">
      <g>
       <use xlink:href="#m754d06b002" x="237.037076" y="314.728" style="stroke: #000000; stroke-width: 0.6"/>
      </g>
     </g>
    </g>
    <g id="xtick_40">
     <g id="line2d_55">
      <g>
       <use xlink:href="#m754d06b002" x="277.365118" y="314.728" style="stroke: #000000; stroke-width: 0.6"/>
      </g>
     </g>
    </g>
    <g id="xtick_41">
     <g id="line2d_56">
      <g>
       <use xlink:href="#m754d06b002" x="297.842834" y="314.728" style="stroke: #000000; stroke-width: 0.6"/>
      </g>
     </g>
    </g>
    <g id="xtick_42">
     <g id="line2d_57">
      <g>
       <use xlink:href="#m754d06b002" x="312.372005" y="314.728" style="stroke: #000000; stroke-width: 0.6"/>
      </g>
     </g>
    </g>
    <g id="xtick_43">
     <g id="line2d_58">
      <g>
       <use xlink:href="#m754d06b002" x="323.641705" y="314.728" style="stroke: #000000; stroke-width: 0.6"/>
      </g>
     </g>
    </g>
    <g id="xtick_44">
     <g id="line2d_59">
      <g>
       <use xlink:href="#m754d06b002" x="332.849721" y="314.728" style="stroke: #000000; stroke-width: 0.6"/>
      </g>
     </g>
    </g>
    <g id="xtick_45">
     <g id="line2d_60">
      <g>
       <use xlink:href="#m754d06b002" x="340.634987" y="314.728" style="stroke: #000000; stroke-width: 0.6"/>
      </g>
     </g>
    </g>
    <g id="xtick_46">
     <g id="line2d_61">
      <g>
       <use xlink:href="#m754d06b002" x="347.378891" y="314.728" style="stroke: #000000; stroke-width: 0.6"/>
      </g>
     </g>
    </g>
    <g id="text_13">
     <!-- Energy [TeV] -->
     <g transform="translate(181.587984 343.004563) scale(0.1 -0.1)">
      <defs>
       <path id="DejaVuSans-45" d="M 628 4666 
L 3578 4666 
L 3578 4134 
L 1259 4134 
L 1259 2753 
L 3481 2753 
L 3481 2222 
L 1259 2222 
L 1259 531 
L 3634 531 
L 3634 0 
L 628 0 
L 628 4666 
z
" transform="scale(0.015625)"/>
       <path id="DejaVuSans-67" d="M 2906 1791 
Q 2906 2416 2648 2759 
Q 2391 3103 1925 3103 
Q 1463 3103 1205 2759 
Q 947 2416 947 1791 
Q 947 1169 1205 825 
Q 1463 481 1925 481 
Q 2391 481 2648 825 
Q 2906 1169 2906 1791 
z
M 3481 434 
Q 3481 -459 3084 -895 
Q 2688 -1331 1869 -1331 
Q 1566 -1331 1297 -1286 
Q 1028 -1241 775 -1147 
L 775 -588 
Q 1028 -725 1275 -790 
Q 1522 -856 1778 -856 
Q 2344 -856 2625 -561 
Q 2906 -266 2906 331 
L 2906 616 
Q 2728 306 2450 153 
Q 2172 0 1784 0 
Q 1141 0 747 490 
Q 353 981 353 1791 
Q 353 2603 747 3093 
Q 1141 3584 1784 3584 
Q 2172 3584 2450 3431 
Q 2728 3278 2906 2969 
L 2906 3500 
L 3481 3500 
L 3481 434 
z
" transform="scale(0.015625)"/>
       <path id="DejaVuSans-79" d="M 2059 -325 
Q 1816 -950 1584 -1140 
Q 1353 -1331 966 -1331 
L 506 -1331 
L 506 -850 
L 844 -850 
Q 1081 -850 1212 -737 
Q 1344 -625 1503 -206 
L 1606 56 
L 191 3500 
L 800 3500 
L 1894 763 
L 2988 3500 
L 3597 3500 
L 2059 -325 
z
" transform="scale(0.015625)"/>
      </defs>
      <use xlink:href="#DejaVuSans-45"/>
      <use xlink:href="#DejaVuSans-6e" x="63.183594"/>
      <use xlink:href="#DejaVuSans-65" x="126.5625"/>
      <use xlink:href="#DejaVuSans-72" x="188.085938"/>
      <use xlink:href="#DejaVuSans-67" x="227.449219"/>
      <use xlink:href="#DejaVuSans-79" x="290.925781"/>
      <use xlink:href="#DejaVuSans-20" x="350.105469"/>
      <use xlink:href="#DejaVuSans-5b" x="381.892578"/>
      <use xlink:href="#DejaVuSans-54" x="420.90625"/>
      <use xlink:href="#DejaVuSans-65" x="464.990234"/>
      <use xlink:href="#DejaVuSans-56" x="526.513672"/>
      <use xlink:href="#DejaVuSans-5d" x="594.921875"/>
     </g>
    </g>
   </g>
   <g id="matplotlib.axis_4">
    <g id="ytick_9">
     <g id="line2d_62">
      <g>
       <use xlink:href="#m65d1571909" x="77.371281" y="314.062394" style="stroke: #000000; stroke-width: 0.8"/>
      </g>
     </g>
     <g id="text_14">
      <!-- 0.4 -->
      <g transform="translate(54.468156 317.861613) scale(0.1 -0.1)">
       <defs>
        <path id="DejaVuSans-2e" d="M 684 794 
L 1344 794 
L 1344 0 
L 684 0 
L 684 794 
z
" transform="scale(0.015625)"/>
       </defs>
       <use xlink:href="#DejaVuSans-30"/>
       <use xlink:href="#DejaVuSans-2e" x="63.623047"/>
       <use xlink:href="#DejaVuSans-34" x="95.410156"/>
      </g>
     </g>
    </g>
    <g id="ytick_10">
     <g id="line2d_63">
      <g>
       <use xlink:href="#m65d1571909" x="77.371281" y="283.103993" style="stroke: #000000; stroke-width: 0.8"/>
      </g>
     </g>
     <g id="text_15">
      <!-- 0.5 -->
      <g transform="translate(54.468156 286.903212) scale(0.1 -0.1)">
       <defs>
        <path id="DejaVuSans-35" d="M 691 4666 
L 3169 4666 
L 3169 4134 
L 1269 4134 
L 1269 2991 
Q 1406 3038 1543 3061 
Q 1681 3084 1819 3084 
Q 2600 3084 3056 2656 
Q 3513 2228 3513 1497 
Q 3513 744 3044 326 
Q 2575 -91 1722 -91 
Q 1428 -91 1123 -41 
Q 819 9 494 109 
L 494 744 
Q 775 591 1075 516 
Q 1375 441 1709 441 
Q 2250 441 2565 725 
Q 2881 1009 2881 1497 
Q 2881 1984 2565 2268 
Q 2250 2553 1709 2553 
Q 1456 2553 1204 2497 
Q 953 2441 691 2322 
L 691 4666 
z
" transform="scale(0.015625)"/>
       </defs>
       <use xlink:href="#DejaVuSans-30"/>
       <use xlink:href="#DejaVuSans-2e" x="63.623047"/>
       <use xlink:href="#DejaVuSans-35" x="95.410156"/>
      </g>
     </g>
    </g>
    <g id="ytick_11">
     <g id="line2d_64">
      <g>
       <use xlink:href="#m65d1571909" x="77.371281" y="252.145592" style="stroke: #000000; stroke-width: 0.8"/>
      </g>
     </g>
     <g id="text_16">
      <!-- 0.6 -->
      <g transform="translate(54.468156 255.94481) scale(0.1 -0.1)">
       <use xlink:href="#DejaVuSans-30"/>
       <use xlink:href="#DejaVuSans-2e" x="63.623047"/>
       <use xlink:href="#DejaVuSans-36" x="95.410156"/>
      </g>
     </g>
    </g>
    <g id="ytick_12">
     <g id="line2d_65">
      <g>
       <use xlink:href="#m65d1571909" x="77.371281" y="221.18719" style="stroke: #000000; stroke-width: 0.8"/>
      </g>
     </g>
     <g id="text_17">
      <!-- 0.7 -->
      <g transform="translate(54.468156 224.986409) scale(0.1 -0.1)">
       <defs>
        <path id="DejaVuSans-37" d="M 525 4666 
L 3525 4666 
L 3525 4397 
L 1831 0 
L 1172 0 
L 2766 4134 
L 525 4134 
L 525 4666 
z
" transform="scale(0.015625)"/>
       </defs>
       <use xlink:href="#DejaVuSans-30"/>
       <use xlink:href="#DejaVuSans-2e" x="63.623047"/>
       <use xlink:href="#DejaVuSans-37" x="95.410156"/>
      </g>
     </g>
    </g>
    <g id="text_18">
     <!-- Coverage -->
     <g transform="translate(48.388468 283.687431) rotate(-90) scale(0.1 -0.1)">
      <defs>
       <path id="DejaVuSans-43" d="M 4122 4306 
L 4122 3641 
Q 3803 3938 3442 4084 
Q 3081 4231 2675 4231 
Q 1875 4231 1450 3742 
Q 1025 3253 1025 2328 
Q 1025 1406 1450 917 
Q 1875 428 2675 428 
Q 3081 428 3442 575 
Q 3803 722 4122 1019 
L 4122 359 
Q 3791 134 3420 21 
Q 3050 -91 2638 -91 
Q 1578 -91 968 557 
Q 359 1206 359 2328 
Q 359 3453 968 4101 
Q 1578 4750 2638 4750 
Q 3056 4750 3426 4639 
Q 3797 4528 4122 4306 
z
" transform="scale(0.015625)"/>
       <path id="DejaVuSans-6f" d="M 1959 3097 
Q 1497 3097 1228 2736 
Q 959 2375 959 1747 
Q 959 1119 1226 758 
Q 1494 397 1959 397 
Q 2419 397 2687 759 
Q 2956 1122 2956 1747 
Q 2956 2369 2687 2733 
Q 2419 3097 1959 3097 
z
M 1959 3584 
Q 2709 3584 3137 3096 
Q 3566 2609 3566 1747 
Q 3566 888 3137 398 
Q 2709 -91 1959 -91 
Q 1206 -91 779 398 
Q 353 888 353 1747 
Q 353 2609 779 3096 
Q 1206 3584 1959 3584 
z
" transform="scale(0.015625)"/>
       <path id="DejaVuSans-76" d="M 191 3500 
L 800 3500 
L 1894 563 
L 2988 3500 
L 3597 3500 
L 2284 0 
L 1503 0 
L 191 3500 
z
" transform="scale(0.015625)"/>
      </defs>
      <use xlink:href="#DejaVuSans-43"/>
      <use xlink:href="#DejaVuSans-6f" x="69.824219"/>
      <use xlink:href="#DejaVuSans-76" x="131.005859"/>
      <use xlink:href="#DejaVuSans-65" x="190.185547"/>
      <use xlink:href="#DejaVuSans-72" x="251.708984"/>
      <use xlink:href="#DejaVuSans-61" x="292.822266"/>
      <use xlink:href="#DejaVuSans-67" x="354.101562"/>
      <use xlink:href="#DejaVuSans-65" x="417.578125"/>
     </g>
    </g>
   </g>
   <g id="line2d_66">
    <path d="M 89.727132 258.027688 
L 104.263427 265.767288 
L 118.799722 273.197305 
L 133.336017 281.865657 
L 147.872312 288.366921 
L 162.408608 298.583194 
L 176.944903 309.728218 
L 191.481198 308.180298 
L 206.017493 300.131114 
L 220.553788 287.747753 
L 235.090083 279.079401 
L 249.626378 270.101464 
L 264.162673 261.742696 
L 278.698969 255.551016 
L 293.235264 250.597672 
L 307.771559 246.882663 
L 322.307854 243.477239 
L 336.844149 242.858071 
" clip-path="url(#pf8f11ef772)" style="fill: none; stroke: #ff0000; stroke-width: 1.5; stroke-linecap: square"/>
   </g>
   <g id="line2d_67">
    <path d="M 89.727132 212.518838 
L 104.263427 209.732582 
L 118.799722 210.042166 
L 133.336017 211.590086 
L 147.872312 209.732582 
L 162.408608 209.732582 
L 176.944903 212.209254 
L 191.481198 212.209254 
L 206.017493 215.614678 
L 220.553788 214.685926 
L 235.090083 218.710518 
L 249.626378 219.63927 
L 264.162673 221.496774 
L 278.698969 223.354278 
L 293.235264 223.663862 
L 307.771559 226.140535 
L 322.307854 229.236375 
L 336.844149 229.545959 
" clip-path="url(#pf8f11ef772)" style="fill: none; stroke: #008000; stroke-width: 1.5; stroke-linecap: square"/>
   </g>
   <g id="line2d_68">
    <path d="M 89.727132 227.378871 
L 104.263427 227.378871 
L 118.799722 227.378871 
L 133.336017 227.378871 
L 147.872312 227.378871 
L 162.408608 227.378871 
L 176.944903 227.378871 
L 191.481198 227.378871 
L 206.017493 227.378871 
L 220.553788 227.378871 
L 235.090083 227.378871 
L 249.626378 227.378871 
L 264.162673 227.378871 
L 278.698969 227.378871 
L 293.235264 227.378871 
L 307.771559 227.378871 
L 322.307854 227.378871 
L 336.844149 227.378871 
" clip-path="url(#pf8f11ef772)" style="fill: none; stroke-dasharray: 1.5,2.475; stroke-dashoffset: 0; stroke: #008000; stroke-width: 1.5"/>
   </g>
   <g id="patch_11">
    <path d="M 77.371281 314.728 
L 77.371281 204.7328 
" style="fill: none; stroke: #000000; stroke-width: 0.8; stroke-linejoin: miter; stroke-linecap: square"/>
   </g>
   <g id="patch_12">
    <path d="M 349.2 314.728 
L 349.2 204.7328 
" style="fill: none; stroke: #000000; stroke-width: 0.8; stroke-linejoin: miter; stroke-linecap: square"/>
   </g>
   <g id="patch_13">
    <path d="M 77.371281 314.728 
L 349.2 314.728 
" style="fill: none; stroke: #000000; stroke-width: 0.8; stroke-linejoin: miter; stroke-linecap: square"/>
   </g>
   <g id="patch_14">
    <path d="M 77.371281 204.7328 
L 349.2 204.7328 
" style="fill: none; stroke: #000000; stroke-width: 0.8; stroke-linejoin: miter; stroke-linecap: square"/>
   </g>
   <g id="legend_2">
    <g id="patch_15">
     <path d="M 84.371281 275.908525 
L 235.699406 275.908525 
Q 237.699406 275.908525 237.699406 273.908525 
L 237.699406 245.552275 
Q 237.699406 243.552275 235.699406 243.552275 
L 84.371281 243.552275 
Q 82.371281 243.552275 82.371281 245.552275 
L 82.371281 273.908525 
Q 82.371281 275.908525 84.371281 275.908525 
z
" style="fill: #ffffff; opacity: 0.8; stroke: #cccccc; stroke-linejoin: miter"/>
    </g>
    <g id="line2d_69">
     <path d="M 86.371281 251.650713 
L 96.371281 251.650713 
L 106.371281 251.650713 
" style="fill: none; stroke: #ff0000; stroke-width: 1.5; stroke-linecap: square"/>
    </g>
    <g id="text_19">
     <!-- Standard -->
     <g transform="translate(114.371281 255.150713) scale(0.1 -0.1)">
      <use xlink:href="#DejaVuSans-53"/>
      <use xlink:href="#DejaVuSans-74" x="63.476562"/>
      <use xlink:href="#DejaVuSans-61" x="102.685547"/>
      <use xlink:href="#DejaVuSans-6e" x="163.964844"/>
      <use xlink:href="#DejaVuSans-64" x="227.34375"/>
      <use xlink:href="#DejaVuSans-61" x="290.820312"/>
      <use xlink:href="#DejaVuSans-72" x="352.099609"/>
      <use xlink:href="#DejaVuSans-64" x="391.462891"/>
     </g>
    </g>
    <g id="line2d_70">
     <path d="M 86.371281 266.328838 
L 96.371281 266.328838 
L 106.371281 266.328838 
" style="fill: none; stroke: #008000; stroke-width: 1.5; stroke-linecap: square"/>
    </g>
    <g id="text_20">
     <!-- Nuisance -->
     <g transform="translate(114.371281 269.828838) scale(0.1 -0.1)">
      <use xlink:href="#DejaVuSans-4e"/>
      <use xlink:href="#DejaVuSans-75" x="74.804688"/>
      <use xlink:href="#DejaVuSans-69" x="138.183594"/>
      <use xlink:href="#DejaVuSans-73" x="165.966797"/>
      <use xlink:href="#DejaVuSans-61" x="218.066406"/>
      <use xlink:href="#DejaVuSans-6e" x="279.345703"/>
      <use xlink:href="#DejaVuSans-63" x="342.724609"/>
      <use xlink:href="#DejaVuSans-65" x="397.705078"/>
     </g>
    </g>
    <g id="line2d_71">
     <path d="M 180.294718 251.650713 
L 190.294718 251.650713 
L 200.294718 251.650713 
" style="fill: none; stroke-dasharray: 1.5,2.475; stroke-dashoffset: 0; stroke: #008000; stroke-width: 1.5"/>
    </g>
    <g id="text_21">
     <!-- 68 % -->
     <g transform="translate(208.294718 255.150713) scale(0.1 -0.1)">
      <defs>
       <path id="DejaVuSans-38" d="M 2034 2216 
Q 1584 2216 1326 1975 
Q 1069 1734 1069 1313 
Q 1069 891 1326 650 
Q 1584 409 2034 409 
Q 2484 409 2743 651 
Q 3003 894 3003 1313 
Q 3003 1734 2745 1975 
Q 2488 2216 2034 2216 
z
M 1403 2484 
Q 997 2584 770 2862 
Q 544 3141 544 3541 
Q 544 4100 942 4425 
Q 1341 4750 2034 4750 
Q 2731 4750 3128 4425 
Q 3525 4100 3525 3541 
Q 3525 3141 3298 2862 
Q 3072 2584 2669 2484 
Q 3125 2378 3379 2068 
Q 3634 1759 3634 1313 
Q 3634 634 3220 271 
Q 2806 -91 2034 -91 
Q 1263 -91 848 271 
Q 434 634 434 1313 
Q 434 1759 690 2068 
Q 947 2378 1403 2484 
z
M 1172 3481 
Q 1172 3119 1398 2916 
Q 1625 2713 2034 2713 
Q 2441 2713 2670 2916 
Q 2900 3119 2900 3481 
Q 2900 3844 2670 4047 
Q 2441 4250 2034 4250 
Q 1625 4250 1398 4047 
Q 1172 3844 1172 3481 
z
" transform="scale(0.015625)"/>
       <path id="DejaVuSans-25" d="M 4653 2053 
Q 4381 2053 4226 1822 
Q 4072 1591 4072 1178 
Q 4072 772 4226 539 
Q 4381 306 4653 306 
Q 4919 306 5073 539 
Q 5228 772 5228 1178 
Q 5228 1588 5073 1820 
Q 4919 2053 4653 2053 
z
M 4653 2450 
Q 5147 2450 5437 2106 
Q 5728 1763 5728 1178 
Q 5728 594 5436 251 
Q 5144 -91 4653 -91 
Q 4153 -91 3862 251 
Q 3572 594 3572 1178 
Q 3572 1766 3864 2108 
Q 4156 2450 4653 2450 
z
M 1428 4353 
Q 1159 4353 1004 4120 
Q 850 3888 850 3481 
Q 850 3069 1003 2837 
Q 1156 2606 1428 2606 
Q 1700 2606 1854 2837 
Q 2009 3069 2009 3481 
Q 2009 3884 1853 4118 
Q 1697 4353 1428 4353 
z
M 4250 4750 
L 4750 4750 
L 1831 -91 
L 1331 -91 
L 4250 4750 
z
M 1428 4750 
Q 1922 4750 2215 4408 
Q 2509 4066 2509 3481 
Q 2509 2891 2217 2550 
Q 1925 2209 1428 2209 
Q 931 2209 642 2551 
Q 353 2894 353 3481 
Q 353 4063 643 4406 
Q 934 4750 1428 4750 
z
" transform="scale(0.015625)"/>
      </defs>
      <use xlink:href="#DejaVuSans-36"/>
      <use xlink:href="#DejaVuSans-38" x="63.623047"/>
      <use xlink:href="#DejaVuSans-20" x="127.246094"/>
      <use xlink:href="#DejaVuSans-25" x="159.033203"/>
     </g>
    </g>
   </g>
  </g>
 </g>
 <defs>
  <clipPath id="p7b18370b91">
   <rect x="77.371281" y="25.44" width="271.828719" height="164.9928"/>
  </clipPath>
  <clipPath id="pf8f11ef772">
   <rect x="77.371281" y="204.7328" width="271.828719" height="109.9952"/>
  </clipPath>
 </defs>
</svg>
