<?xml version="1.0" encoding="utf-8" standalone="no"?>
<!DOCTYPE svg PUBLIC "-//W3C//DTD SVG 1.1//EN"
  "http://www.w3.org/Graphics/SVG/1.1/DTD/svg11.dtd">
<svg xmlns:xlink="http://www.w3.org/1999/xlink" width="360pt" height="360pt" viewBox="0 0 360 360" xmlns="http://www.w3.org/2000/svg" version="1.1">
 <metadata>
  <rdf:RDF xmlns:dc="http://purl.org/dc/elements/1.1/" xmlns:cc="http://creativecommons.org/ns#" xmlns:rdf="http://www.w3.org/1999/02/22-rdf-syntax-ns#">
   <cc:Work>
    <dc:type rdf:resource="http://purl.org/dc/dcmitype/StillImage"/>
    <dc:date>2023-03-23T17:18:51.206479</dc:date>
    <dc:format>image/svg+xml</dc:format>
    <dc:creator>
     <cc:Agent>
      <dc:title>Matplotlib v3.6.3, https://matplotlib.org/</dc:title>
     </cc:Agent>
    </dc:creator>
   </cc:Work>
  </rdf:RDF>
 </metadata>
 <defs>
  <style type="text/css">*{stroke-linejoin: round; stroke-linecap: butt}</style>
 </defs>
 <g id="figure_1">
  <g id="patch_1">
   <path d="M 0 360 
L 360 360 
L 360 0 
L 0 0 
z
" style="fill: #ffffff"/>
  </g>
  <g id="axes_1">
   <g id="patch_2">
    <path d="M 77.371281 189.911328 
L 349.2 189.911328 
L 349.2 25.44 
L 77.371281 25.44 
z
" style="fill: #ffffff"/>
   </g>
   <g id="PolyCollection_1">
    <path d="M 90.962717 32.915969 
L 90.962717 60.417303 
L 93.433887 61.403112 
L 95.905057 62.392403 
L 98.376227 63.385259 
L 100.847398 64.381766 
L 103.318568 65.382013 
L 105.789738 66.386091 
L 108.260908 67.394094 
L 110.732078 68.40612 
L 113.203248 69.422267 
L 115.674419 70.442636 
L 118.145589 71.467331 
L 120.616759 72.496456 
L 123.087929 73.530119 
L 125.559099 74.568428 
L 128.03027 75.611492 
L 130.50144 76.659421 
L 132.97261 77.712325 
L 135.44378 78.770315 
L 137.91495 79.833502 
L 140.38612 80.901994 
L 142.857291 81.975899 
L 145.328461 83.055324 
L 147.799631 84.140371 
L 150.270801 85.231142 
L 152.741971 86.327734 
L 155.213141 87.430239 
L 157.684312 88.538745 
L 160.155482 89.653337 
L 162.626652 90.774089 
L 165.097822 91.901075 
L 167.568992 93.034355 
L 170.040162 94.173988 
L 172.511333 95.320021 
L 174.982503 96.472495 
L 177.453673 97.63144 
L 179.924843 98.79688 
L 182.396013 99.968828 
L 184.867183 101.147289 
L 187.338354 102.332258 
L 189.809524 103.523721 
L 192.280694 104.721656 
L 194.751864 105.92603 
L 197.223034 107.136804 
L 199.694205 108.353928 
L 202.165375 109.577347 
L 204.636545 110.806997 
L 207.107715 112.042807 
L 209.578885 113.284701 
L 212.050055 114.532594 
L 214.521226 115.786398 
L 216.992396 117.046022 
L 219.463566 118.311367 
L 221.934736 119.582333 
L 224.405906 120.858816 
L 226.877076 122.14071 
L 229.348247 123.427907 
L 231.819417 124.720298 
L 234.290587 126.017773 
L 236.761757 127.320222 
L 239.232927 128.627533 
L 241.704097 129.939597 
L 244.175268 131.256305 
L 246.646438 132.577548 
L 249.117608 133.903219 
L 251.588778 135.233214 
L 254.059948 136.567429 
L 256.531119 137.905763 
L 259.002289 139.248118 
L 261.473459 140.594395 
L 263.944629 141.944503 
L 266.415799 143.298348 
L 268.886969 144.655842 
L 271.35814 146.0169 
L 273.82931 147.381437 
L 276.30048 148.749373 
L 278.77165 150.12063 
L 281.24282 151.495133 
L 283.71399 152.872809 
L 286.185161 154.25359 
L 288.656331 155.637407 
L 291.127501 157.024196 
L 293.598671 158.413896 
L 296.069841 159.806447 
L 298.541011 161.201791 
L 301.012182 162.599876 
L 303.483352 164.000648 
L 305.954522 165.404058 
L 308.425692 166.810057 
L 310.896862 168.218601 
L 313.368032 169.629646 
L 315.839203 171.04315 
L 318.310373 172.459074 
L 320.781543 173.877381 
L 323.252713 175.298033 
L 325.723883 176.720999 
L 328.195054 178.146243 
L 330.666224 179.573738 
L 333.137394 181.003452 
L 335.608564 182.435358 
L 335.608564 145.465763 
L 335.608564 145.465763 
L 333.137394 144.452479 
L 330.666224 143.438655 
L 328.195054 142.424259 
L 325.723883 141.409256 
L 323.252713 140.393609 
L 320.781543 139.377281 
L 318.310373 138.360232 
L 315.839203 137.342422 
L 313.368032 136.323807 
L 310.896862 135.304345 
L 308.425692 134.283987 
L 305.954522 133.262686 
L 303.483352 132.240392 
L 301.012182 131.217054 
L 298.541011 130.192615 
L 296.069841 129.167021 
L 293.598671 128.140212 
L 291.127501 127.112128 
L 288.656331 126.082705 
L 286.185161 125.051878 
L 283.71399 124.019577 
L 281.24282 122.985734 
L 278.77165 121.950273 
L 276.30048 120.91312 
L 273.82931 119.874196 
L 271.35814 118.83342 
L 268.886969 117.790708 
L 266.415799 116.745973 
L 263.944629 115.699126 
L 261.473459 114.650077 
L 259.002289 113.598729 
L 256.531119 112.544987 
L 254.059948 111.488751 
L 251.588778 110.42992 
L 249.117608 109.368391 
L 246.646438 108.304057 
L 244.175268 107.236812 
L 241.704097 106.166546 
L 239.232927 105.093149 
L 236.761757 104.01651 
L 234.290587 102.936516 
L 231.819417 101.853057 
L 229.348247 100.766019 
L 226.877076 99.67529 
L 224.405906 98.58076 
L 221.934736 97.48232 
L 219.463566 96.379861 
L 216.992396 95.273279 
L 214.521226 94.162473 
L 212.050055 93.047343 
L 209.578885 91.927796 
L 207.107715 90.803743 
L 204.636545 89.675099 
L 202.165375 88.541786 
L 199.694205 87.403734 
L 197.223034 86.260878 
L 194.751864 85.113161 
L 192.280694 83.960534 
L 189.809524 82.802956 
L 187.338354 81.640396 
L 184.867183 80.472829 
L 182.396013 79.300244 
L 179.924843 78.122634 
L 177.453673 76.940004 
L 174.982503 75.752369 
L 172.511333 74.55975 
L 170.040162 73.36218 
L 167.568992 72.159699 
L 165.097822 70.952356 
L 162.626652 69.740207 
L 160.155482 68.523318 
L 157.684312 67.301759 
L 155.213141 66.075607 
L 152.741971 64.844948 
L 150.270801 63.609869 
L 147.799631 62.370466 
L 145.328461 61.126835 
L 142.857291 59.87908 
L 140.38612 58.627304 
L 137.91495 57.371616 
L 135.44378 56.112124 
L 132.97261 54.848939 
L 130.50144 53.582174 
L 128.03027 52.31194 
L 125.559099 51.03835 
L 123.087929 49.761515 
L 120.616759 48.481548 
L 118.145589 47.198557 
L 115.674419 45.912653 
L 113.203248 44.623943 
L 110.732078 43.332531 
L 108.260908 42.038523 
L 105.789738 40.742018 
L 103.318568 39.443118 
L 100.847398 38.141918 
L 98.376227 36.838512 
L 95.905057 35.532994 
L 93.433887 34.22545 
L 90.962717 32.915969 
z
" clip-path="url(#pcb94c4e71b)" style="fill: #008000; fill-opacity: 0.5"/>
   </g>
   <g id="PolyCollection_2">
    <path d="M 90.962717 36.191657 
L 90.962717 56.029917 
L 93.433887 56.970973 
L 95.905057 57.91463 
L 98.376227 58.860996 
L 100.847398 59.810184 
L 103.318568 60.762319 
L 105.789738 61.717536 
L 108.260908 62.67598 
L 110.732078 63.637811 
L 113.203248 64.6032 
L 115.674419 65.572333 
L 118.145589 66.545412 
L 120.616759 67.522656 
L 123.087929 68.5043 
L 125.559099 69.490597 
L 128.03027 70.481822 
L 130.50144 71.478269 
L 132.97261 72.480253 
L 135.44378 73.488109 
L 137.91495 74.502195 
L 140.38612 75.52289 
L 142.857291 76.550591 
L 145.328461 77.585716 
L 147.799631 78.628696 
L 150.270801 79.679977 
L 152.741971 80.740011 
L 155.213141 81.809253 
L 157.684312 82.888154 
L 160.155482 83.977152 
L 162.626652 85.076665 
L 165.097822 86.187084 
L 167.568992 87.308756 
L 170.040162 88.441984 
L 172.511333 89.587012 
L 174.982503 90.74402 
L 177.453673 91.913119 
L 179.924843 93.094344 
L 182.396013 94.287658 
L 184.867183 95.492949 
L 187.338354 96.710036 
L 189.809524 97.938672 
L 192.280694 99.178556 
L 194.751864 100.429337 
L 197.223034 101.690626 
L 199.694205 102.962003 
L 202.165375 104.243029 
L 204.636545 105.533254 
L 207.107715 106.832222 
L 209.578885 108.139482 
L 212.050055 109.454588 
L 214.521226 110.777109 
L 216.992396 112.106628 
L 219.463566 113.442747 
L 221.934736 114.785089 
L 224.405906 116.133297 
L 226.877076 117.487034 
L 229.348247 118.845986 
L 231.819417 120.20986 
L 234.290587 121.578382 
L 236.761757 122.9513 
L 239.232927 124.328376 
L 241.704097 125.709395 
L 244.175268 127.094153 
L 246.646438 128.482467 
L 249.117608 129.874162 
L 251.588778 131.269083 
L 254.059948 132.667081 
L 256.531119 134.068024 
L 259.002289 135.471787 
L 261.473459 136.878255 
L 263.944629 138.287323 
L 266.415799 139.698895 
L 268.886969 141.11288 
L 271.35814 142.529196 
L 273.82931 143.947768 
L 276.30048 145.368524 
L 278.77165 146.791401 
L 281.24282 148.21634 
L 283.71399 149.643284 
L 286.185161 151.072184 
L 288.656331 152.502992 
L 291.127501 153.935666 
L 293.598671 155.370167 
L 296.069841 156.806457 
L 298.541011 158.244503 
L 301.012182 159.684275 
L 303.483352 161.125743 
L 305.954522 162.568882 
L 308.425692 164.013667 
L 310.896862 165.460078 
L 313.368032 166.908093 
L 315.839203 168.357694 
L 318.310373 169.808865 
L 320.781543 171.26159 
L 323.252713 172.715856 
L 325.723883 174.17165 
L 328.195054 175.628961 
L 330.666224 177.087778 
L 333.137394 178.548094 
L 335.608564 180.009899 
L 335.608564 147.027169 
L 335.608564 147.027169 
L 333.137394 146.042251 
L 330.666224 145.057479 
L 328.195054 144.07284 
L 325.723883 143.088319 
L 323.252713 142.1039 
L 320.781543 141.119567 
L 318.310373 140.135302 
L 315.839203 139.151086 
L 313.368032 138.166899 
L 310.896862 137.182719 
L 308.425692 136.198523 
L 305.954522 135.214286 
L 303.483352 134.229982 
L 301.012182 133.245582 
L 298.541011 132.261056 
L 296.069841 131.276371 
L 293.598671 130.291491 
L 291.127501 129.306379 
L 288.656331 128.320995 
L 286.185161 127.335295 
L 283.71399 126.349232 
L 281.24282 125.362756 
L 278.77165 124.375812 
L 276.30048 123.388343 
L 273.82931 122.400284 
L 271.35814 121.411569 
L 268.886969 120.422123 
L 266.415799 119.431868 
L 263.944629 118.440718 
L 261.473459 117.448581 
L 259.002289 116.455356 
L 256.531119 115.460936 
L 254.059948 114.465204 
L 251.588778 113.468032 
L 249.117608 112.469284 
L 246.646438 111.468812 
L 244.175268 110.466454 
L 241.704097 109.462037 
L 239.232927 108.455372 
L 236.761757 107.446256 
L 234.290587 106.43447 
L 231.819417 105.419776 
L 229.348247 104.401919 
L 226.877076 103.380623 
L 224.405906 102.355593 
L 221.934736 101.326514 
L 219.463566 100.293048 
L 216.992396 99.254837 
L 214.521226 98.2115 
L 212.050055 97.16264 
L 209.578885 96.107839 
L 207.107715 95.046663 
L 204.636545 93.978667 
L 202.165375 92.903398 
L 199.694205 91.820399 
L 197.223034 90.72922 
L 194.751864 89.629421 
L 192.280694 88.520581 
L 189.809524 87.402311 
L 187.338354 86.27426 
L 184.867183 85.136125 
L 182.396013 83.98766 
L 179.924843 82.828683 
L 177.453673 81.659083 
L 174.982503 80.478822 
L 172.511333 79.287935 
L 170.040162 78.086534 
L 167.568992 76.874799 
L 165.097822 75.652974 
L 162.626652 74.421362 
L 160.155482 73.180311 
L 157.684312 71.930212 
L 155.213141 70.671484 
L 152.741971 69.404566 
L 150.270801 68.129909 
L 147.799631 66.847969 
L 145.328461 65.5592 
L 142.857291 64.264048 
L 140.38612 62.962945 
L 137.91495 61.65631 
L 135.44378 60.344543 
L 132.97261 59.028022 
L 130.50144 57.707107 
L 128.03027 56.382136 
L 125.559099 55.053424 
L 123.087929 53.721269 
L 120.616759 52.385944 
L 118.145589 51.047706 
L 115.674419 49.706793 
L 113.203248 48.363425 
L 110.732078 47.017805 
L 108.260908 45.670122 
L 105.789738 44.32055 
L 103.318568 42.96925 
L 100.847398 41.616371 
L 98.376227 40.26205 
L 95.905057 38.906414 
L 93.433887 37.54958 
L 90.962717 36.191657 
z
" clip-path="url(#pcb94c4e71b)" style="fill: #ff0000; fill-opacity: 0.6"/>
   </g>
   <g id="matplotlib.axis_1">
    <g id="xtick_1">
     <g id="line2d_1">
      <defs>
       <path id="me711583a02" d="M 0 0 
L 0 3.5 
" style="stroke: #000000; stroke-width: 0.8"/>
      </defs>
      <g>
       <use xlink:href="#me711583a02" x="126.06787" y="189.911328" style="stroke: #000000; stroke-width: 0.8"/>
      </g>
     </g>
    </g>
    <g id="xtick_2">
     <g id="line2d_2">
      <g>
       <use xlink:href="#me711583a02" x="242.358231" y="189.911328" style="stroke: #000000; stroke-width: 0.8"/>
      </g>
     </g>
    </g>
    <g id="xtick_3">
     <g id="line2d_3">
      <defs>
       <path id="m5f60818715" d="M 0 0 
L 0 2 
" style="stroke: #000000; stroke-width: 0.6"/>
      </defs>
      <g>
       <use xlink:href="#m5f60818715" x="79.791282" y="189.911328" style="stroke: #000000; stroke-width: 0.6"/>
      </g>
     </g>
    </g>
    <g id="xtick_4">
     <g id="line2d_4">
      <g>
       <use xlink:href="#m5f60818715" x="91.060983" y="189.911328" style="stroke: #000000; stroke-width: 0.6"/>
      </g>
     </g>
    </g>
    <g id="xtick_5">
     <g id="line2d_5">
      <g>
       <use xlink:href="#m5f60818715" x="100.268998" y="189.911328" style="stroke: #000000; stroke-width: 0.6"/>
      </g>
     </g>
    </g>
    <g id="xtick_6">
     <g id="line2d_6">
      <g>
       <use xlink:href="#m5f60818715" x="108.054265" y="189.911328" style="stroke: #000000; stroke-width: 0.6"/>
      </g>
     </g>
    </g>
    <g id="xtick_7">
     <g id="line2d_7">
      <g>
       <use xlink:href="#m5f60818715" x="114.798169" y="189.911328" style="stroke: #000000; stroke-width: 0.6"/>
      </g>
     </g>
    </g>
    <g id="xtick_8">
     <g id="line2d_8">
      <g>
       <use xlink:href="#m5f60818715" x="120.746715" y="189.911328" style="stroke: #000000; stroke-width: 0.6"/>
      </g>
     </g>
    </g>
    <g id="xtick_9">
     <g id="line2d_9">
      <g>
       <use xlink:href="#m5f60818715" x="161.074757" y="189.911328" style="stroke: #000000; stroke-width: 0.6"/>
      </g>
     </g>
    </g>
    <g id="xtick_10">
     <g id="line2d_10">
      <g>
       <use xlink:href="#m5f60818715" x="181.552473" y="189.911328" style="stroke: #000000; stroke-width: 0.6"/>
      </g>
     </g>
    </g>
    <g id="xtick_11">
     <g id="line2d_11">
      <g>
       <use xlink:href="#m5f60818715" x="196.081643" y="189.911328" style="stroke: #000000; stroke-width: 0.6"/>
      </g>
     </g>
    </g>
    <g id="xtick_12">
     <g id="line2d_12">
      <g>
       <use xlink:href="#m5f60818715" x="207.351344" y="189.911328" style="stroke: #000000; stroke-width: 0.6"/>
      </g>
     </g>
    </g>
    <g id="xtick_13">
     <g id="line2d_13">
      <g>
       <use xlink:href="#m5f60818715" x="216.55936" y="189.911328" style="stroke: #000000; stroke-width: 0.6"/>
      </g>
     </g>
    </g>
    <g id="xtick_14">
     <g id="line2d_14">
      <g>
       <use xlink:href="#m5f60818715" x="224.344626" y="189.911328" style="stroke: #000000; stroke-width: 0.6"/>
      </g>
     </g>
    </g>
    <g id="xtick_15">
     <g id="line2d_15">
      <g>
       <use xlink:href="#m5f60818715" x="231.08853" y="189.911328" style="stroke: #000000; stroke-width: 0.6"/>
      </g>
     </g>
    </g>
    <g id="xtick_16">
     <g id="line2d_16">
      <g>
       <use xlink:href="#m5f60818715" x="237.037076" y="189.911328" style="stroke: #000000; stroke-width: 0.6"/>
      </g>
     </g>
    </g>
    <g id="xtick_17">
     <g id="line2d_17">
      <g>
       <use xlink:href="#m5f60818715" x="277.365118" y="189.911328" style="stroke: #000000; stroke-width: 0.6"/>
      </g>
     </g>
    </g>
    <g id="xtick_18">
     <g id="line2d_18">
      <g>
       <use xlink:href="#m5f60818715" x="297.842834" y="189.911328" style="stroke: #000000; stroke-width: 0.6"/>
      </g>
     </g>
    </g>
    <g id="xtick_19">
     <g id="line2d_19">
      <g>
       <use xlink:href="#m5f60818715" x="312.372005" y="189.911328" style="stroke: #000000; stroke-width: 0.6"/>
      </g>
     </g>
    </g>
    <g id="xtick_20">
     <g id="line2d_20">
      <g>
       <use xlink:href="#m5f60818715" x="323.641705" y="189.911328" style="stroke: #000000; stroke-width: 0.6"/>
      </g>
     </g>
    </g>
    <g id="xtick_21">
     <g id="line2d_21">
      <g>
       <use xlink:href="#m5f60818715" x="332.849721" y="189.911328" style="stroke: #000000; stroke-width: 0.6"/>
      </g>
     </g>
    </g>
    <g id="xtick_22">
     <g id="line2d_22">
      <g>
       <use xlink:href="#m5f60818715" x="340.634987" y="189.911328" style="stroke: #000000; stroke-width: 0.6"/>
      </g>
     </g>
    </g>
    <g id="xtick_23">
     <g id="line2d_23">
      <g>
       <use xlink:href="#m5f60818715" x="347.378891" y="189.911328" style="stroke: #000000; stroke-width: 0.6"/>
      </g>
     </g>
    </g>
   </g>
   <g id="matplotlib.axis_2">
    <g id="ytick_1">
     <g id="line2d_24">
      <defs>
       <path id="m560726ceb4" d="M 0 0 
L -3.5 0 
" style="stroke: #000000; stroke-width: 0.8"/>
      </defs>
      <g>
       <use xlink:href="#m560726ceb4" x="77.371281" y="62.368944" style="stroke: #000000; stroke-width: 0.8"/>
      </g>
     </g>
     <g id="text_1">
      <!-- $\mathdefault{10^{-12}}$ -->
      <g transform="translate(42.471281 66.168163) scale(0.1 -0.1)">
       <defs>
        <path id="DejaVuSans-31" d="M 794 531 
L 1825 531 
L 1825 4091 
L 703 3866 
L 703 4441 
L 1819 4666 
L 2450 4666 
L 2450 531 
L 3481 531 
L 3481 0 
L 794 0 
L 794 531 
z
" transform="scale(0.015625)"/>
        <path id="DejaVuSans-30" d="M 2034 4250 
Q 1547 4250 1301 3770 
Q 1056 3291 1056 2328 
Q 1056 1369 1301 889 
Q 1547 409 2034 409 
Q 2525 409 2770 889 
Q 3016 1369 3016 2328 
Q 3016 3291 2770 3770 
Q 2525 4250 2034 4250 
z
M 2034 4750 
Q 2819 4750 3233 4129 
Q 3647 3509 3647 2328 
Q 3647 1150 3233 529 
Q 2819 -91 2034 -91 
Q 1250 -91 836 529 
Q 422 1150 422 2328 
Q 422 3509 836 4129 
Q 1250 4750 2034 4750 
z
" transform="scale(0.015625)"/>
        <path id="DejaVuSans-2212" d="M 678 2272 
L 4684 2272 
L 4684 1741 
L 678 1741 
L 678 2272 
z
" transform="scale(0.015625)"/>
        <path id="DejaVuSans-32" d="M 1228 531 
L 3431 531 
L 3431 0 
L 469 0 
L 469 531 
Q 828 903 1448 1529 
Q 2069 2156 2228 2338 
Q 2531 2678 2651 2914 
Q 2772 3150 2772 3378 
Q 2772 3750 2511 3984 
Q 2250 4219 1831 4219 
Q 1534 4219 1204 4116 
Q 875 4013 500 3803 
L 500 4441 
Q 881 4594 1212 4672 
Q 1544 4750 1819 4750 
Q 2544 4750 2975 4387 
Q 3406 4025 3406 3419 
Q 3406 3131 3298 2873 
Q 3191 2616 2906 2266 
Q 2828 2175 2409 1742 
Q 1991 1309 1228 531 
z
" transform="scale(0.015625)"/>
       </defs>
       <use xlink:href="#DejaVuSans-31" transform="translate(0 0.765625)"/>
       <use xlink:href="#DejaVuSans-30" transform="translate(63.623047 0.765625)"/>
       <use xlink:href="#DejaVuSans-2212" transform="translate(128.203125 39.046875) scale(0.7)"/>
       <use xlink:href="#DejaVuSans-31" transform="translate(186.855469 39.046875) scale(0.7)"/>
       <use xlink:href="#DejaVuSans-32" transform="translate(231.391602 39.046875) scale(0.7)"/>
      </g>
     </g>
    </g>
    <g id="ytick_2">
     <g id="line2d_25">
      <defs>
       <path id="m9f65ed2ebb" d="M 0 0 
L -2 0 
" style="stroke: #000000; stroke-width: 0.6"/>
      </defs>
      <g>
       <use xlink:href="#m9f65ed2ebb" x="77.371281" y="158.287287" style="stroke: #000000; stroke-width: 0.6"/>
      </g>
     </g>
     <g id="text_2">
      <!-- $\mathdefault{3\times10^{-13}}$ -->
      <g transform="translate(25.371281 162.086506) scale(0.1 -0.1)">
       <defs>
        <path id="DejaVuSans-33" d="M 2597 2516 
Q 3050 2419 3304 2112 
Q 3559 1806 3559 1356 
Q 3559 666 3084 287 
Q 2609 -91 1734 -91 
Q 1441 -91 1130 -33 
Q 819 25 488 141 
L 488 750 
Q 750 597 1062 519 
Q 1375 441 1716 441 
Q 2309 441 2620 675 
Q 2931 909 2931 1356 
Q 2931 1769 2642 2001 
Q 2353 2234 1838 2234 
L 1294 2234 
L 1294 2753 
L 1863 2753 
Q 2328 2753 2575 2939 
Q 2822 3125 2822 3475 
Q 2822 3834 2567 4026 
Q 2313 4219 1838 4219 
Q 1578 4219 1281 4162 
Q 984 4106 628 3988 
L 628 4550 
Q 988 4650 1302 4700 
Q 1616 4750 1894 4750 
Q 2613 4750 3031 4423 
Q 3450 4097 3450 3541 
Q 3450 3153 3228 2886 
Q 3006 2619 2597 2516 
z
" transform="scale(0.015625)"/>
        <path id="DejaVuSans-d7" d="M 4488 3438 
L 3059 2003 
L 4488 575 
L 4116 197 
L 2681 1631 
L 1247 197 
L 878 575 
L 2303 2003 
L 878 3438 
L 1247 3816 
L 2681 2381 
L 4116 3816 
L 4488 3438 
z
" transform="scale(0.015625)"/>
       </defs>
       <use xlink:href="#DejaVuSans-33" transform="translate(0 0.765625)"/>
       <use xlink:href="#DejaVuSans-d7" transform="translate(83.105469 0.765625)"/>
       <use xlink:href="#DejaVuSans-31" transform="translate(186.376953 0.765625)"/>
       <use xlink:href="#DejaVuSans-30" transform="translate(250 0.765625)"/>
       <use xlink:href="#DejaVuSans-2212" transform="translate(314.580078 39.046875) scale(0.7)"/>
       <use xlink:href="#DejaVuSans-31" transform="translate(373.232422 39.046875) scale(0.7)"/>
       <use xlink:href="#DejaVuSans-33" transform="translate(417.768555 39.046875) scale(0.7)"/>
      </g>
     </g>
    </g>
    <g id="ytick_3">
     <g id="line2d_26">
      <g>
       <use xlink:href="#m9f65ed2ebb" x="77.371281" y="135.368175" style="stroke: #000000; stroke-width: 0.6"/>
      </g>
     </g>
     <g id="text_3">
      <!-- $\mathdefault{4\times10^{-13}}$ -->
      <g transform="translate(25.371281 139.167394) scale(0.1 -0.1)">
       <defs>
        <path id="DejaVuSans-34" d="M 2419 4116 
L 825 1625 
L 2419 1625 
L 2419 4116 
z
M 2253 4666 
L 3047 4666 
L 3047 1625 
L 3713 1625 
L 3713 1100 
L 3047 1100 
L 3047 0 
L 2419 0 
L 2419 1100 
L 313 1100 
L 313 1709 
L 2253 4666 
z
" transform="scale(0.015625)"/>
       </defs>
       <use xlink:href="#DejaVuSans-34" transform="translate(0 0.765625)"/>
       <use xlink:href="#DejaVuSans-d7" transform="translate(83.105469 0.765625)"/>
       <use xlink:href="#DejaVuSans-31" transform="translate(186.376953 0.765625)"/>
       <use xlink:href="#DejaVuSans-30" transform="translate(250 0.765625)"/>
       <use xlink:href="#DejaVuSans-2212" transform="translate(314.580078 39.046875) scale(0.7)"/>
       <use xlink:href="#DejaVuSans-31" transform="translate(373.232422 39.046875) scale(0.7)"/>
       <use xlink:href="#DejaVuSans-33" transform="translate(417.768555 39.046875) scale(0.7)"/>
      </g>
     </g>
    </g>
    <g id="ytick_4">
     <g id="line2d_27">
      <g>
       <use xlink:href="#m9f65ed2ebb" x="77.371281" y="117.590731" style="stroke: #000000; stroke-width: 0.6"/>
      </g>
     </g>
    </g>
    <g id="ytick_5">
     <g id="line2d_28">
      <g>
       <use xlink:href="#m9f65ed2ebb" x="77.371281" y="103.065501" style="stroke: #000000; stroke-width: 0.6"/>
      </g>
     </g>
     <g id="text_4">
      <!-- $\mathdefault{6\times10^{-13}}$ -->
      <g transform="translate(25.371281 106.86472) scale(0.1 -0.1)">
       <defs>
        <path id="DejaVuSans-36" d="M 2113 2584 
Q 1688 2584 1439 2293 
Q 1191 2003 1191 1497 
Q 1191 994 1439 701 
Q 1688 409 2113 409 
Q 2538 409 2786 701 
Q 3034 994 3034 1497 
Q 3034 2003 2786 2293 
Q 2538 2584 2113 2584 
z
M 3366 4563 
L 3366 3988 
Q 3128 4100 2886 4159 
Q 2644 4219 2406 4219 
Q 1781 4219 1451 3797 
Q 1122 3375 1075 2522 
Q 1259 2794 1537 2939 
Q 1816 3084 2150 3084 
Q 2853 3084 3261 2657 
Q 3669 2231 3669 1497 
Q 3669 778 3244 343 
Q 2819 -91 2113 -91 
Q 1303 -91 875 529 
Q 447 1150 447 2328 
Q 447 3434 972 4092 
Q 1497 4750 2381 4750 
Q 2619 4750 2861 4703 
Q 3103 4656 3366 4563 
z
" transform="scale(0.015625)"/>
       </defs>
       <use xlink:href="#DejaVuSans-36" transform="translate(0 0.765625)"/>
       <use xlink:href="#DejaVuSans-d7" transform="translate(83.105469 0.765625)"/>
       <use xlink:href="#DejaVuSans-31" transform="translate(186.376953 0.765625)"/>
       <use xlink:href="#DejaVuSans-30" transform="translate(250 0.765625)"/>
       <use xlink:href="#DejaVuSans-2212" transform="translate(314.580078 39.046875) scale(0.7)"/>
       <use xlink:href="#DejaVuSans-31" transform="translate(373.232422 39.046875) scale(0.7)"/>
       <use xlink:href="#DejaVuSans-33" transform="translate(417.768555 39.046875) scale(0.7)"/>
      </g>
     </g>
    </g>
    <g id="ytick_6">
     <g id="line2d_29">
      <g>
       <use xlink:href="#m9f65ed2ebb" x="77.371281" y="90.784594" style="stroke: #000000; stroke-width: 0.6"/>
      </g>
     </g>
    </g>
    <g id="ytick_7">
     <g id="line2d_30">
      <g>
       <use xlink:href="#m9f65ed2ebb" x="77.371281" y="80.146389" style="stroke: #000000; stroke-width: 0.6"/>
      </g>
     </g>
    </g>
    <g id="ytick_8">
     <g id="line2d_31">
      <g>
       <use xlink:href="#m9f65ed2ebb" x="77.371281" y="70.762826" style="stroke: #000000; stroke-width: 0.6"/>
      </g>
     </g>
    </g>
    <g id="text_5">
     <!-- e2 * dnde [TeV / (cm2 s)] -->
     <g transform="translate(19.291593 170.155351) rotate(-90) scale(0.1 -0.1)">
      <defs>
       <path id="DejaVuSans-65" d="M 3597 1894 
L 3597 1613 
L 953 1613 
Q 991 1019 1311 708 
Q 1631 397 2203 397 
Q 2534 397 2845 478 
Q 3156 559 3463 722 
L 3463 178 
Q 3153 47 2828 -22 
Q 2503 -91 2169 -91 
Q 1331 -91 842 396 
Q 353 884 353 1716 
Q 353 2575 817 3079 
Q 1281 3584 2069 3584 
Q 2775 3584 3186 3129 
Q 3597 2675 3597 1894 
z
M 3022 2063 
Q 3016 2534 2758 2815 
Q 2500 3097 2075 3097 
Q 1594 3097 1305 2825 
Q 1016 2553 972 2059 
L 3022 2063 
z
" transform="scale(0.015625)"/>
       <path id="DejaVuSans-20" transform="scale(0.015625)"/>
       <path id="DejaVuSans-2a" d="M 3009 3897 
L 1888 3291 
L 3009 2681 
L 2828 2375 
L 1778 3009 
L 1778 1831 
L 1422 1831 
L 1422 3009 
L 372 2375 
L 191 2681 
L 1313 3291 
L 191 3897 
L 372 4206 
L 1422 3572 
L 1422 4750 
L 1778 4750 
L 1778 3572 
L 2828 4206 
L 3009 3897 
z
" transform="scale(0.015625)"/>
       <path id="DejaVuSans-64" d="M 2906 2969 
L 2906 4863 
L 3481 4863 
L 3481 0 
L 2906 0 
L 2906 525 
Q 2725 213 2448 61 
Q 2172 -91 1784 -91 
Q 1150 -91 751 415 
Q 353 922 353 1747 
Q 353 2572 751 3078 
Q 1150 3584 1784 3584 
Q 2172 3584 2448 3432 
Q 2725 3281 2906 2969 
z
M 947 1747 
Q 947 1113 1208 752 
Q 1469 391 1925 391 
Q 2381 391 2643 752 
Q 2906 1113 2906 1747 
Q 2906 2381 2643 2742 
Q 2381 3103 1925 3103 
Q 1469 3103 1208 2742 
Q 947 2381 947 1747 
z
" transform="scale(0.015625)"/>
       <path id="DejaVuSans-6e" d="M 3513 2113 
L 3513 0 
L 2938 0 
L 2938 2094 
Q 2938 2591 2744 2837 
Q 2550 3084 2163 3084 
Q 1697 3084 1428 2787 
Q 1159 2491 1159 1978 
L 1159 0 
L 581 0 
L 581 3500 
L 1159 3500 
L 1159 2956 
Q 1366 3272 1645 3428 
Q 1925 3584 2291 3584 
Q 2894 3584 3203 3211 
Q 3513 2838 3513 2113 
z
" transform="scale(0.015625)"/>
       <path id="DejaVuSans-5b" d="M 550 4863 
L 1875 4863 
L 1875 4416 
L 1125 4416 
L 1125 -397 
L 1875 -397 
L 1875 -844 
L 550 -844 
L 550 4863 
z
" transform="scale(0.015625)"/>
       <path id="DejaVuSans-54" d="M -19 4666 
L 3928 4666 
L 3928 4134 
L 2272 4134 
L 2272 0 
L 1638 0 
L 1638 4134 
L -19 4134 
L -19 4666 
z
" transform="scale(0.015625)"/>
       <path id="DejaVuSans-56" d="M 1831 0 
L 50 4666 
L 709 4666 
L 2188 738 
L 3669 4666 
L 4325 4666 
L 2547 0 
L 1831 0 
z
" transform="scale(0.015625)"/>
       <path id="DejaVuSans-2f" d="M 1625 4666 
L 2156 4666 
L 531 -594 
L 0 -594 
L 1625 4666 
z
" transform="scale(0.015625)"/>
       <path id="DejaVuSans-28" d="M 1984 4856 
Q 1566 4138 1362 3434 
Q 1159 2731 1159 2009 
Q 1159 1288 1364 580 
Q 1569 -128 1984 -844 
L 1484 -844 
Q 1016 -109 783 600 
Q 550 1309 550 2009 
Q 550 2706 781 3412 
Q 1013 4119 1484 4856 
L 1984 4856 
z
" transform="scale(0.015625)"/>
       <path id="DejaVuSans-63" d="M 3122 3366 
L 3122 2828 
Q 2878 2963 2633 3030 
Q 2388 3097 2138 3097 
Q 1578 3097 1268 2742 
Q 959 2388 959 1747 
Q 959 1106 1268 751 
Q 1578 397 2138 397 
Q 2388 397 2633 464 
Q 2878 531 3122 666 
L 3122 134 
Q 2881 22 2623 -34 
Q 2366 -91 2075 -91 
Q 1284 -91 818 406 
Q 353 903 353 1747 
Q 353 2603 823 3093 
Q 1294 3584 2113 3584 
Q 2378 3584 2631 3529 
Q 2884 3475 3122 3366 
z
" transform="scale(0.015625)"/>
       <path id="DejaVuSans-6d" d="M 3328 2828 
Q 3544 3216 3844 3400 
Q 4144 3584 4550 3584 
Q 5097 3584 5394 3201 
Q 5691 2819 5691 2113 
L 5691 0 
L 5113 0 
L 5113 2094 
Q 5113 2597 4934 2840 
Q 4756 3084 4391 3084 
Q 3944 3084 3684 2787 
Q 3425 2491 3425 1978 
L 3425 0 
L 2847 0 
L 2847 2094 
Q 2847 2600 2669 2842 
Q 2491 3084 2119 3084 
Q 1678 3084 1418 2786 
Q 1159 2488 1159 1978 
L 1159 0 
L 581 0 
L 581 3500 
L 1159 3500 
L 1159 2956 
Q 1356 3278 1631 3431 
Q 1906 3584 2284 3584 
Q 2666 3584 2933 3390 
Q 3200 3197 3328 2828 
z
" transform="scale(0.015625)"/>
       <path id="DejaVuSans-73" d="M 2834 3397 
L 2834 2853 
Q 2591 2978 2328 3040 
Q 2066 3103 1784 3103 
Q 1356 3103 1142 2972 
Q 928 2841 928 2578 
Q 928 2378 1081 2264 
Q 1234 2150 1697 2047 
L 1894 2003 
Q 2506 1872 2764 1633 
Q 3022 1394 3022 966 
Q 3022 478 2636 193 
Q 2250 -91 1575 -91 
Q 1294 -91 989 -36 
Q 684 19 347 128 
L 347 722 
Q 666 556 975 473 
Q 1284 391 1588 391 
Q 1994 391 2212 530 
Q 2431 669 2431 922 
Q 2431 1156 2273 1281 
Q 2116 1406 1581 1522 
L 1381 1569 
Q 847 1681 609 1914 
Q 372 2147 372 2553 
Q 372 3047 722 3315 
Q 1072 3584 1716 3584 
Q 2034 3584 2315 3537 
Q 2597 3491 2834 3397 
z
" transform="scale(0.015625)"/>
       <path id="DejaVuSans-29" d="M 513 4856 
L 1013 4856 
Q 1481 4119 1714 3412 
Q 1947 2706 1947 2009 
Q 1947 1309 1714 600 
Q 1481 -109 1013 -844 
L 513 -844 
Q 928 -128 1133 580 
Q 1338 1288 1338 2009 
Q 1338 2731 1133 3434 
Q 928 4138 513 4856 
z
" transform="scale(0.015625)"/>
       <path id="DejaVuSans-5d" d="M 1947 4863 
L 1947 -844 
L 622 -844 
L 622 -397 
L 1369 -397 
L 1369 4416 
L 622 4416 
L 622 4863 
L 1947 4863 
z
" transform="scale(0.015625)"/>
      </defs>
      <use xlink:href="#DejaVuSans-65"/>
      <use xlink:href="#DejaVuSans-32" x="61.523438"/>
      <use xlink:href="#DejaVuSans-20" x="125.146484"/>
      <use xlink:href="#DejaVuSans-2a" x="156.933594"/>
      <use xlink:href="#DejaVuSans-20" x="206.933594"/>
      <use xlink:href="#DejaVuSans-64" x="238.720703"/>
      <use xlink:href="#DejaVuSans-6e" x="302.197266"/>
      <use xlink:href="#DejaVuSans-64" x="365.576172"/>
      <use xlink:href="#DejaVuSans-65" x="429.052734"/>
      <use xlink:href="#DejaVuSans-20" x="490.576172"/>
      <use xlink:href="#DejaVuSans-5b" x="522.363281"/>
      <use xlink:href="#DejaVuSans-54" x="561.376953"/>
      <use xlink:href="#DejaVuSans-65" x="605.460938"/>
      <use xlink:href="#DejaVuSans-56" x="666.984375"/>
      <use xlink:href="#DejaVuSans-20" x="735.392578"/>
      <use xlink:href="#DejaVuSans-2f" x="767.179688"/>
      <use xlink:href="#DejaVuSans-20" x="800.871094"/>
      <use xlink:href="#DejaVuSans-28" x="832.658203"/>
      <use xlink:href="#DejaVuSans-63" x="871.671875"/>
      <use xlink:href="#DejaVuSans-6d" x="926.652344"/>
      <use xlink:href="#DejaVuSans-32" x="1024.064453"/>
      <use xlink:href="#DejaVuSans-20" x="1087.6875"/>
      <use xlink:href="#DejaVuSans-73" x="1119.474609"/>
      <use xlink:href="#DejaVuSans-29" x="1171.574219"/>
      <use xlink:href="#DejaVuSans-5d" x="1210.587891"/>
     </g>
    </g>
   </g>
   <g id="LineCollection_1">
    <path d="M 89.727132 60.440405 
L 89.727132 34.473074 
" clip-path="url(#pcb94c4e71b)" style="fill: none; stroke: #00008b; stroke-opacity: 0.7; stroke-width: 1.5"/>
    <path d="M 104.263427 66.140886 
L 104.263427 41.881458 
" clip-path="url(#pcb94c4e71b)" style="fill: none; stroke: #00008b; stroke-opacity: 0.7; stroke-width: 1.5"/>
    <path d="M 118.799722 71.962659 
L 118.799722 49.172817 
" clip-path="url(#pcb94c4e71b)" style="fill: none; stroke: #00008b; stroke-opacity: 0.7; stroke-width: 1.5"/>
    <path d="M 133.336017 77.924823 
L 133.336017 56.327018 
" clip-path="url(#pcb94c4e71b)" style="fill: none; stroke: #00008b; stroke-opacity: 0.7; stroke-width: 1.5"/>
    <path d="M 147.872312 84.0469 
L 147.872312 63.323697 
" clip-path="url(#pcb94c4e71b)" style="fill: none; stroke: #00008b; stroke-opacity: 0.7; stroke-width: 1.5"/>
    <path d="M 162.408608 90.345941 
L 162.408608 70.14515 
" clip-path="url(#pcb94c4e71b)" style="fill: none; stroke: #00008b; stroke-opacity: 0.7; stroke-width: 1.5"/>
    <path d="M 176.944903 96.833051 
L 176.944903 76.7798 
" clip-path="url(#pcb94c4e71b)" style="fill: none; stroke: #00008b; stroke-opacity: 0.7; stroke-width: 1.5"/>
    <path d="M 191.481198 103.510582 
L 191.481198 83.224999 
" clip-path="url(#pcb94c4e71b)" style="fill: none; stroke: #00008b; stroke-opacity: 0.7; stroke-width: 1.5"/>
    <path d="M 206.017493 110.371359 
L 206.017493 89.487798 
" clip-path="url(#pcb94c4e71b)" style="fill: none; stroke: #00008b; stroke-opacity: 0.7; stroke-width: 1.5"/>
    <path d="M 220.553788 117.400364 
L 220.553788 95.583257 
" clip-path="url(#pcb94c4e71b)" style="fill: none; stroke: #00008b; stroke-opacity: 0.7; stroke-width: 1.5"/>
    <path d="M 235.090083 124.577999 
L 235.090083 101.531186 
" clip-path="url(#pcb94c4e71b)" style="fill: none; stroke: #00008b; stroke-opacity: 0.7; stroke-width: 1.5"/>
    <path d="M 249.626378 131.883478 
L 249.626378 107.352751 
" clip-path="url(#pcb94c4e71b)" style="fill: none; stroke: #00008b; stroke-opacity: 0.7; stroke-width: 1.5"/>
    <path d="M 264.162673 139.297323 
L 264.162673 113.067978 
" clip-path="url(#pcb94c4e71b)" style="fill: none; stroke: #00008b; stroke-opacity: 0.7; stroke-width: 1.5"/>
    <path d="M 278.698969 146.802719 
L 278.698969 118.694408 
" clip-path="url(#pcb94c4e71b)" style="fill: none; stroke: #00008b; stroke-opacity: 0.7; stroke-width: 1.5"/>
    <path d="M 293.235264 154.385944 
L 293.235264 124.246661 
" clip-path="url(#pcb94c4e71b)" style="fill: none; stroke: #00008b; stroke-opacity: 0.7; stroke-width: 1.5"/>
    <path d="M 307.771559 162.036268 
L 307.771559 129.736554 
" clip-path="url(#pcb94c4e71b)" style="fill: none; stroke: #00008b; stroke-opacity: 0.7; stroke-width: 1.5"/>
    <path d="M 322.307854 169.745601 
L 322.307854 135.173456 
" clip-path="url(#pcb94c4e71b)" style="fill: none; stroke: #00008b; stroke-opacity: 0.7; stroke-width: 1.5"/>
    <path d="M 336.844149 177.508075 
L 336.844149 140.564713 
" clip-path="url(#pcb94c4e71b)" style="fill: none; stroke: #00008b; stroke-opacity: 0.7; stroke-width: 1.5"/>
   </g>
   <g id="line2d_32">
    <path d="M 90.962717 45.485805 
L 93.433887 46.660949 
L 95.905057 47.836093 
L 98.376227 49.011237 
L 100.847398 50.186382 
L 103.318568 51.361526 
L 105.789738 52.53667 
L 108.260908 53.711815 
L 110.732078 54.886959 
L 113.203248 56.062103 
L 115.674419 57.237247 
L 118.145589 58.412392 
L 120.616759 59.587536 
L 123.087929 60.76268 
L 125.559099 61.937824 
L 128.03027 63.112969 
L 130.50144 64.288113 
L 132.97261 65.463257 
L 135.44378 66.638401 
L 137.91495 67.813546 
L 140.38612 68.98869 
L 142.857291 70.163834 
L 145.328461 71.338979 
L 147.799631 72.514123 
L 150.270801 73.689267 
L 152.741971 74.864411 
L 155.213141 76.039556 
L 157.684312 77.2147 
L 160.155482 78.389844 
L 162.626652 79.564988 
L 165.097822 80.740133 
L 167.568992 81.915277 
L 170.040162 83.090421 
L 172.511333 84.265565 
L 174.982503 85.44071 
L 177.453673 86.615854 
L 179.924843 87.790998 
L 182.396013 88.966142 
L 184.867183 90.141287 
L 187.338354 91.316431 
L 189.809524 92.491575 
L 192.280694 93.66672 
L 194.751864 94.841864 
L 197.223034 96.017008 
L 199.694205 97.192152 
L 202.165375 98.367297 
L 204.636545 99.542441 
L 207.107715 100.717585 
L 209.578885 101.892729 
L 212.050055 103.067874 
L 214.521226 104.243018 
L 216.992396 105.418162 
L 219.463566 106.593306 
L 221.934736 107.768451 
L 224.405906 108.943595 
L 226.877076 110.118739 
L 229.348247 111.293884 
L 231.819417 112.469028 
L 234.290587 113.644172 
L 236.761757 114.819316 
L 239.232927 115.994461 
L 241.704097 117.169605 
L 244.175268 118.344749 
L 246.646438 119.519893 
L 249.117608 120.695038 
L 251.588778 121.870182 
L 254.059948 123.045326 
L 256.531119 124.22047 
L 259.002289 125.395615 
L 261.473459 126.570759 
L 263.944629 127.745903 
L 266.415799 128.921047 
L 268.886969 130.096192 
L 271.35814 131.271336 
L 273.82931 132.44648 
L 276.30048 133.621625 
L 278.77165 134.796769 
L 281.24282 135.971913 
L 283.71399 137.147057 
L 286.185161 138.322202 
L 288.656331 139.497346 
L 291.127501 140.67249 
L 293.598671 141.847634 
L 296.069841 143.022779 
L 298.541011 144.197923 
L 301.012182 145.373067 
L 303.483352 146.548211 
L 305.954522 147.723356 
L 308.425692 148.8985 
L 310.896862 150.073644 
L 313.368032 151.248789 
L 315.839203 152.423933 
L 318.310373 153.599077 
L 320.781543 154.774221 
L 323.252713 155.949366 
L 325.723883 157.12451 
L 328.195054 158.299654 
L 330.666224 159.474798 
L 333.137394 160.649943 
L 335.608564 161.825087 
" clip-path="url(#pcb94c4e71b)" style="fill: none; stroke: #008000; stroke-width: 1.5; stroke-linecap: square"/>
   </g>
   <g id="line2d_33">
    <path d="M 90.962717 45.494883 
L 93.433887 46.669921 
L 95.905057 47.84496 
L 98.376227 49.019999 
L 100.847398 50.195038 
L 103.318568 51.370077 
L 105.789738 52.545115 
L 108.260908 53.720154 
L 110.732078 54.895193 
L 113.203248 56.070232 
L 115.674419 57.245271 
L 118.145589 58.42031 
L 120.616759 59.595348 
L 123.087929 60.770387 
L 125.559099 61.945426 
L 128.03027 63.120465 
L 130.50144 64.295504 
L 132.97261 65.470542 
L 135.44378 66.645581 
L 137.91495 67.82062 
L 140.38612 68.995659 
L 142.857291 70.170698 
L 145.328461 71.345736 
L 147.799631 72.520775 
L 150.270801 73.695814 
L 152.741971 74.870853 
L 155.213141 76.045892 
L 157.684312 77.22093 
L 160.155482 78.395969 
L 162.626652 79.571008 
L 165.097822 80.746047 
L 167.568992 81.921086 
L 170.040162 83.096125 
L 172.511333 84.271163 
L 174.982503 85.446202 
L 177.453673 86.621241 
L 179.924843 87.79628 
L 182.396013 88.971319 
L 184.867183 90.146357 
L 187.338354 91.321396 
L 189.809524 92.496435 
L 192.280694 93.671474 
L 194.751864 94.846513 
L 197.223034 96.021551 
L 199.694205 97.19659 
L 202.165375 98.371629 
L 204.636545 99.546668 
L 207.107715 100.721707 
L 209.578885 101.896746 
L 212.050055 103.071784 
L 214.521226 104.246823 
L 216.992396 105.421862 
L 219.463566 106.596901 
L 221.934736 107.77194 
L 224.405906 108.946978 
L 226.877076 110.122017 
L 229.348247 111.297056 
L 231.819417 112.472095 
L 234.290587 113.647134 
L 236.761757 114.822172 
L 239.232927 115.997211 
L 241.704097 117.17225 
L 244.175268 118.347289 
L 246.646438 119.522328 
L 249.117608 120.697366 
L 251.588778 121.872405 
L 254.059948 123.047444 
L 256.531119 124.222483 
L 259.002289 125.397522 
L 261.473459 126.572561 
L 263.944629 127.747599 
L 266.415799 128.922638 
L 268.886969 130.097677 
L 271.35814 131.272716 
L 273.82931 132.447755 
L 276.30048 133.622793 
L 278.77165 134.797832 
L 281.24282 135.972871 
L 283.71399 137.14791 
L 286.185161 138.322949 
L 288.656331 139.497987 
L 291.127501 140.673026 
L 293.598671 141.848065 
L 296.069841 143.023104 
L 298.541011 144.198143 
L 301.012182 145.373181 
L 303.483352 146.54822 
L 305.954522 147.723259 
L 308.425692 148.898298 
L 310.896862 150.073337 
L 313.368032 151.248376 
L 315.839203 152.423414 
L 318.310373 153.598453 
L 320.781543 154.773492 
L 323.252713 155.948531 
L 325.723883 157.12357 
L 328.195054 158.298608 
L 330.666224 159.473647 
L 333.137394 160.648686 
L 335.608564 161.823725 
" clip-path="url(#pcb94c4e71b)" style="fill: none; stroke: #ff0000; stroke-width: 1.5; stroke-linecap: square"/>
   </g>
   <g id="line2d_34">
    <path d="M 90.962717 45.755905 
L 93.433887 46.925353 
L 95.905057 48.094801 
L 98.376227 49.264249 
L 100.847398 50.433697 
L 103.318568 51.603145 
L 105.789738 52.772592 
L 108.260908 53.94204 
L 110.732078 55.111488 
L 113.203248 56.280936 
L 115.674419 57.450384 
L 118.145589 58.619832 
L 120.616759 59.78928 
L 123.087929 60.958728 
L 125.559099 62.128175 
L 128.03027 63.297623 
L 130.50144 64.467071 
L 132.97261 65.636519 
L 135.44378 66.805967 
L 137.91495 67.975415 
L 140.38612 69.144863 
L 142.857291 70.314311 
L 145.328461 71.483758 
L 147.799631 72.653206 
L 150.270801 73.822654 
L 152.741971 74.992102 
L 155.213141 76.16155 
L 157.684312 77.330998 
L 160.155482 78.500446 
L 162.626652 79.669894 
L 165.097822 80.839341 
L 167.568992 82.008789 
L 170.040162 83.178237 
L 172.511333 84.347685 
L 174.982503 85.517133 
L 177.453673 86.686581 
L 179.924843 87.856029 
L 182.396013 89.025477 
L 184.867183 90.194924 
L 187.338354 91.364372 
L 189.809524 92.53382 
L 192.280694 93.703268 
L 194.751864 94.872716 
L 197.223034 96.042164 
L 199.694205 97.211612 
L 202.165375 98.38106 
L 204.636545 99.550507 
L 207.107715 100.719955 
L 209.578885 101.889403 
L 212.050055 103.058851 
L 214.521226 104.228299 
L 216.992396 105.397747 
L 219.463566 106.567195 
L 221.934736 107.736643 
L 224.405906 108.90609 
L 226.877076 110.075538 
L 229.348247 111.244986 
L 231.819417 112.414434 
L 234.290587 113.583882 
L 236.761757 114.75333 
L 239.232927 115.922778 
L 241.704097 117.092226 
L 244.175268 118.261673 
L 246.646438 119.431121 
L 249.117608 120.600569 
L 251.588778 121.770017 
L 254.059948 122.939465 
L 256.531119 124.108913 
L 259.002289 125.278361 
L 261.473459 126.447809 
L 263.944629 127.617256 
L 266.415799 128.786704 
L 268.886969 129.956152 
L 271.35814 131.1256 
L 273.82931 132.295048 
L 276.30048 133.464496 
L 278.77165 134.633944 
L 281.24282 135.803392 
L 283.71399 136.972839 
L 286.185161 138.142287 
L 288.656331 139.311735 
L 291.127501 140.481183 
L 293.598671 141.650631 
L 296.069841 142.820079 
L 298.541011 143.989527 
L 301.012182 145.158975 
L 303.483352 146.328422 
L 305.954522 147.49787 
L 308.425692 148.667318 
L 310.896862 149.836766 
L 313.368032 151.006214 
L 315.839203 152.175662 
L 318.310373 153.34511 
L 320.781543 154.514557 
L 323.252713 155.684005 
L 325.723883 156.853453 
L 328.195054 158.022901 
L 330.666224 159.192349 
L 333.137394 160.361797 
L 335.608564 161.531245 
" clip-path="url(#pcb94c4e71b)" style="fill: none; stroke-dasharray: 1.5,2.475; stroke-dashoffset: 0; stroke: #000000; stroke-width: 1.5"/>
   </g>
   <g id="line2d_35">
    <path d="M 89.727132 46.403405 
L 104.263427 53.091325 
L 118.799722 59.755595 
L 133.336017 66.396263 
L 147.872312 73.013377 
L 162.408608 79.606985 
L 176.944903 86.177134 
L 191.481198 92.723873 
L 206.017493 99.247248 
L 220.553788 105.747307 
L 235.090083 112.224095 
L 249.626378 118.67766 
L 264.162673 125.108047 
L 278.698969 131.515303 
L 293.235264 137.899472 
L 307.771559 144.2606 
L 322.307854 150.598731 
L 336.844149 156.913909 
" clip-path="url(#pcb94c4e71b)" style="fill: none; stroke: #00008b; stroke-opacity: 0.7; stroke-width: 1.5; stroke-linecap: square"/>
   </g>
   <g id="patch_3">
    <path d="M 77.371281 189.911328 
L 77.371281 25.44 
" style="fill: none; stroke: #000000; stroke-width: 0.8; stroke-linejoin: miter; stroke-linecap: square"/>
   </g>
   <g id="patch_4">
    <path d="M 349.2 189.911328 
L 349.2 25.44 
" style="fill: none; stroke: #000000; stroke-width: 0.8; stroke-linejoin: miter; stroke-linecap: square"/>
   </g>
   <g id="patch_5">
    <path d="M 77.371281 189.911328 
L 349.2 189.911328 
" style="fill: none; stroke: #000000; stroke-width: 0.8; stroke-linejoin: miter; stroke-linecap: square"/>
   </g>
   <g id="patch_6">
    <path d="M 77.371281 25.44 
L 349.2 25.44 
" style="fill: none; stroke: #000000; stroke-width: 0.8; stroke-linejoin: miter; stroke-linecap: square"/>
   </g>
   <g id="text_6">
    <!-- N = 1000 -->
    <g transform="translate(184.685328 19.44) scale(0.12 -0.12)">
     <defs>
      <path id="DejaVuSans-4e" d="M 628 4666 
L 1478 4666 
L 3547 763 
L 3547 4666 
L 4159 4666 
L 4159 0 
L 3309 0 
L 1241 3903 
L 1241 0 
L 628 0 
L 628 4666 
z
" transform="scale(0.015625)"/>
      <path id="DejaVuSans-3d" d="M 678 2906 
L 4684 2906 
L 4684 2381 
L 678 2381 
L 678 2906 
z
M 678 1631 
L 4684 1631 
L 4684 1100 
L 678 1100 
L 678 1631 
z
" transform="scale(0.015625)"/>
     </defs>
     <use xlink:href="#DejaVuSans-4e"/>
     <use xlink:href="#DejaVuSans-20" x="74.804688"/>
     <use xlink:href="#DejaVuSans-3d" x="106.591797"/>
     <use xlink:href="#DejaVuSans-20" x="190.380859"/>
     <use xlink:href="#DejaVuSans-31" x="222.167969"/>
     <use xlink:href="#DejaVuSans-30" x="285.791016"/>
     <use xlink:href="#DejaVuSans-30" x="349.414062"/>
     <use xlink:href="#DejaVuSans-30" x="413.037109"/>
    </g>
   </g>
   <g id="legend_1">
    <g id="patch_7">
     <path d="M 241.165625 92.1525 
L 342.2 92.1525 
Q 344.2 92.1525 344.2 90.1525 
L 344.2 32.44 
Q 344.2 30.44 342.2 30.44 
L 241.165625 30.44 
Q 239.165625 30.44 239.165625 32.44 
L 239.165625 90.1525 
Q 239.165625 92.1525 241.165625 92.1525 
z
" style="fill: #ffffff; opacity: 0.8; stroke: #cccccc; stroke-linejoin: miter"/>
    </g>
    <g id="patch_8">
     <path d="M 243.165625 42.038438 
L 263.165625 42.038438 
L 263.165625 35.038438 
L 243.165625 35.038438 
z
" style="fill: #008000; fill-opacity: 0.5"/>
    </g>
    <g id="text_7">
     <!-- $1\sigma$ Standard -->
     <g transform="translate(271.165625 42.038438) scale(0.1 -0.1)">
      <defs>
       <path id="DejaVuSans-Oblique-3c3" d="M 2219 3044 
Q 1744 3044 1422 2700 
Q 1081 2341 969 1747 
Q 844 1119 1044 756 
Q 1241 397 1706 397 
Q 2166 397 2503 759 
Q 2844 1122 2966 1747 
Q 3075 2319 2881 2700 
Q 2700 3044 2219 3044 
z
M 2309 3503 
L 4219 3500 
L 4106 2925 
L 3463 2925 
Q 3706 2438 3575 1747 
Q 3406 888 2884 400 
Q 2359 -91 1609 -91 
Q 856 -91 525 400 
Q 194 888 363 1747 
Q 528 2609 1050 3097 
Q 1484 3503 2309 3503 
z
" transform="scale(0.015625)"/>
       <path id="DejaVuSans-53" d="M 3425 4513 
L 3425 3897 
Q 3066 4069 2747 4153 
Q 2428 4238 2131 4238 
Q 1616 4238 1336 4038 
Q 1056 3838 1056 3469 
Q 1056 3159 1242 3001 
Q 1428 2844 1947 2747 
L 2328 2669 
Q 3034 2534 3370 2195 
Q 3706 1856 3706 1288 
Q 3706 609 3251 259 
Q 2797 -91 1919 -91 
Q 1588 -91 1214 -16 
Q 841 59 441 206 
L 441 856 
Q 825 641 1194 531 
Q 1563 422 1919 422 
Q 2459 422 2753 634 
Q 3047 847 3047 1241 
Q 3047 1584 2836 1778 
Q 2625 1972 2144 2069 
L 1759 2144 
Q 1053 2284 737 2584 
Q 422 2884 422 3419 
Q 422 4038 858 4394 
Q 1294 4750 2059 4750 
Q 2388 4750 2728 4690 
Q 3069 4631 3425 4513 
z
" transform="scale(0.015625)"/>
       <path id="DejaVuSans-74" d="M 1172 4494 
L 1172 3500 
L 2356 3500 
L 2356 3053 
L 1172 3053 
L 1172 1153 
Q 1172 725 1289 603 
Q 1406 481 1766 481 
L 2356 481 
L 2356 0 
L 1766 0 
Q 1100 0 847 248 
Q 594 497 594 1153 
L 594 3053 
L 172 3053 
L 172 3500 
L 594 3500 
L 594 4494 
L 1172 4494 
z
" transform="scale(0.015625)"/>
       <path id="DejaVuSans-61" d="M 2194 1759 
Q 1497 1759 1228 1600 
Q 959 1441 959 1056 
Q 959 750 1161 570 
Q 1363 391 1709 391 
Q 2188 391 2477 730 
Q 2766 1069 2766 1631 
L 2766 1759 
L 2194 1759 
z
M 3341 1997 
L 3341 0 
L 2766 0 
L 2766 531 
Q 2569 213 2275 61 
Q 1981 -91 1556 -91 
Q 1019 -91 701 211 
Q 384 513 384 1019 
Q 384 1609 779 1909 
Q 1175 2209 1959 2209 
L 2766 2209 
L 2766 2266 
Q 2766 2663 2505 2880 
Q 2244 3097 1772 3097 
Q 1472 3097 1187 3025 
Q 903 2953 641 2809 
L 641 3341 
Q 956 3463 1253 3523 
Q 1550 3584 1831 3584 
Q 2591 3584 2966 3190 
Q 3341 2797 3341 1997 
z
" transform="scale(0.015625)"/>
       <path id="DejaVuSans-72" d="M 2631 2963 
Q 2534 3019 2420 3045 
Q 2306 3072 2169 3072 
Q 1681 3072 1420 2755 
Q 1159 2438 1159 1844 
L 1159 0 
L 581 0 
L 581 3500 
L 1159 3500 
L 1159 2956 
Q 1341 3275 1631 3429 
Q 1922 3584 2338 3584 
Q 2397 3584 2469 3576 
Q 2541 3569 2628 3553 
L 2631 2963 
z
" transform="scale(0.015625)"/>
      </defs>
      <use xlink:href="#DejaVuSans-31" transform="translate(0 0.015625)"/>
      <use xlink:href="#DejaVuSans-Oblique-3c3" transform="translate(63.623047 0.015625)"/>
      <use xlink:href="#DejaVuSans-20" transform="translate(127.001953 0.015625)"/>
      <use xlink:href="#DejaVuSans-53" transform="translate(158.789062 0.015625)"/>
      <use xlink:href="#DejaVuSans-74" transform="translate(222.265625 0.015625)"/>
      <use xlink:href="#DejaVuSans-61" transform="translate(261.474609 0.015625)"/>
      <use xlink:href="#DejaVuSans-6e" transform="translate(322.753906 0.015625)"/>
      <use xlink:href="#DejaVuSans-64" transform="translate(386.132812 0.015625)"/>
      <use xlink:href="#DejaVuSans-61" transform="translate(449.609375 0.015625)"/>
      <use xlink:href="#DejaVuSans-72" transform="translate(510.888672 0.015625)"/>
      <use xlink:href="#DejaVuSans-64" transform="translate(552.001953 0.015625)"/>
     </g>
    </g>
    <g id="patch_9">
     <path d="M 243.165625 56.716563 
L 263.165625 56.716563 
L 263.165625 49.716563 
L 243.165625 49.716563 
z
" style="fill: #ff0000; fill-opacity: 0.6"/>
    </g>
    <g id="text_8">
     <!-- $1\sigma$ Nuisance -->
     <g transform="translate(271.165625 56.716563) scale(0.1 -0.1)">
      <defs>
       <path id="DejaVuSans-75" d="M 544 1381 
L 544 3500 
L 1119 3500 
L 1119 1403 
Q 1119 906 1312 657 
Q 1506 409 1894 409 
Q 2359 409 2629 706 
Q 2900 1003 2900 1516 
L 2900 3500 
L 3475 3500 
L 3475 0 
L 2900 0 
L 2900 538 
Q 2691 219 2414 64 
Q 2138 -91 1772 -91 
Q 1169 -91 856 284 
Q 544 659 544 1381 
z
M 1991 3584 
L 1991 3584 
z
" transform="scale(0.015625)"/>
       <path id="DejaVuSans-69" d="M 603 3500 
L 1178 3500 
L 1178 0 
L 603 0 
L 603 3500 
z
M 603 4863 
L 1178 4863 
L 1178 4134 
L 603 4134 
L 603 4863 
z
" transform="scale(0.015625)"/>
      </defs>
      <use xlink:href="#DejaVuSans-31" transform="translate(0 0.015625)"/>
      <use xlink:href="#DejaVuSans-Oblique-3c3" transform="translate(63.623047 0.015625)"/>
      <use xlink:href="#DejaVuSans-20" transform="translate(127.001953 0.015625)"/>
      <use xlink:href="#DejaVuSans-4e" transform="translate(158.789062 0.015625)"/>
      <use xlink:href="#DejaVuSans-75" transform="translate(233.59375 0.015625)"/>
      <use xlink:href="#DejaVuSans-69" transform="translate(296.972656 0.015625)"/>
      <use xlink:href="#DejaVuSans-73" transform="translate(324.755859 0.015625)"/>
      <use xlink:href="#DejaVuSans-61" transform="translate(376.855469 0.015625)"/>
      <use xlink:href="#DejaVuSans-6e" transform="translate(438.134766 0.015625)"/>
      <use xlink:href="#DejaVuSans-63" transform="translate(501.513672 0.015625)"/>
      <use xlink:href="#DejaVuSans-65" transform="translate(556.494141 0.015625)"/>
     </g>
    </g>
    <g id="line2d_36">
     <path d="M 243.165625 67.894688 
L 253.165625 67.894688 
L 263.165625 67.894688 
" style="fill: none; stroke-dasharray: 1.5,2.475; stroke-dashoffset: 0; stroke: #000000; stroke-width: 1.5"/>
    </g>
    <g id="text_9">
     <!-- Input -->
     <g transform="translate(271.165625 71.394688) scale(0.1 -0.1)">
      <defs>
       <path id="DejaVuSans-49" d="M 628 4666 
L 1259 4666 
L 1259 0 
L 628 0 
L 628 4666 
z
" transform="scale(0.015625)"/>
       <path id="DejaVuSans-70" d="M 1159 525 
L 1159 -1331 
L 581 -1331 
L 581 3500 
L 1159 3500 
L 1159 2969 
Q 1341 3281 1617 3432 
Q 1894 3584 2278 3584 
Q 2916 3584 3314 3078 
Q 3713 2572 3713 1747 
Q 3713 922 3314 415 
Q 2916 -91 2278 -91 
Q 1894 -91 1617 61 
Q 1341 213 1159 525 
z
M 3116 1747 
Q 3116 2381 2855 2742 
Q 2594 3103 2138 3103 
Q 1681 3103 1420 2742 
Q 1159 2381 1159 1747 
Q 1159 1113 1420 752 
Q 1681 391 2138 391 
Q 2594 391 2855 752 
Q 3116 1113 3116 1747 
z
" transform="scale(0.015625)"/>
      </defs>
      <use xlink:href="#DejaVuSans-49"/>
      <use xlink:href="#DejaVuSans-6e" x="29.492188"/>
      <use xlink:href="#DejaVuSans-70" x="92.871094"/>
      <use xlink:href="#DejaVuSans-75" x="156.347656"/>
      <use xlink:href="#DejaVuSans-74" x="219.726562"/>
     </g>
    </g>
    <g id="LineCollection_2">
     <path d="M 253.165625 87.572813 
L 253.165625 77.572813 
" style="fill: none; stroke: #00008b; stroke-opacity: 0.7; stroke-width: 1.5"/>
    </g>
    <g id="line2d_37">
     <path d="M 243.165625 82.572813 
L 263.165625 82.572813 
" style="fill: none; stroke: #00008b; stroke-opacity: 0.7; stroke-width: 1.5; stroke-linecap: square"/>
    </g>
    <g id="line2d_38"/>
    <g id="text_10">
     <!-- Mean and Std -->
     <g transform="translate(271.165625 86.072813) scale(0.1 -0.1)">
      <defs>
       <path id="DejaVuSans-4d" d="M 628 4666 
L 1569 4666 
L 2759 1491 
L 3956 4666 
L 4897 4666 
L 4897 0 
L 4281 0 
L 4281 4097 
L 3078 897 
L 2444 897 
L 1241 4097 
L 1241 0 
L 628 0 
L 628 4666 
z
" transform="scale(0.015625)"/>
      </defs>
      <use xlink:href="#DejaVuSans-4d"/>
      <use xlink:href="#DejaVuSans-65" x="86.279297"/>
      <use xlink:href="#DejaVuSans-61" x="147.802734"/>
      <use xlink:href="#DejaVuSans-6e" x="209.082031"/>
      <use xlink:href="#DejaVuSans-20" x="272.460938"/>
      <use xlink:href="#DejaVuSans-61" x="304.248047"/>
      <use xlink:href="#DejaVuSans-6e" x="365.527344"/>
      <use xlink:href="#DejaVuSans-64" x="428.90625"/>
      <use xlink:href="#DejaVuSans-20" x="492.382812"/>
      <use xlink:href="#DejaVuSans-53" x="524.169922"/>
      <use xlink:href="#DejaVuSans-74" x="587.646484"/>
      <use xlink:href="#DejaVuSans-64" x="626.855469"/>
     </g>
    </g>
   </g>
  </g>
  <g id="axes_2">
   <g id="patch_10">
    <path d="M 77.371281 314.728 
L 349.2 314.728 
L 349.2 205.080448 
L 77.371281 205.080448 
z
" style="fill: #ffffff"/>
   </g>
   <g id="matplotlib.axis_3">
    <g id="xtick_24">
     <g id="line2d_39">
      <g>
       <use xlink:href="#me711583a02" x="126.06787" y="314.728" style="stroke: #000000; stroke-width: 0.8"/>
      </g>
     </g>
     <g id="text_11">
      <!-- $\mathdefault{10^{0}}$ -->
      <g transform="translate(117.26787 329.326437) scale(0.1 -0.1)">
       <use xlink:href="#DejaVuSans-31" transform="translate(0 0.765625)"/>
       <use xlink:href="#DejaVuSans-30" transform="translate(63.623047 0.765625)"/>
       <use xlink:href="#DejaVuSans-30" transform="translate(128.203125 39.046875) scale(0.7)"/>
      </g>
     </g>
    </g>
    <g id="xtick_25">
     <g id="line2d_40">
      <g>
       <use xlink:href="#me711583a02" x="242.358231" y="314.728" style="stroke: #000000; stroke-width: 0.8"/>
      </g>
     </g>
     <g id="text_12">
      <!-- $\mathdefault{10^{1}}$ -->
      <g transform="translate(233.558231 329.326437) scale(0.1 -0.1)">
       <use xlink:href="#DejaVuSans-31" transform="translate(0 0.684375)"/>
       <use xlink:href="#DejaVuSans-30" transform="translate(63.623047 0.684375)"/>
       <use xlink:href="#DejaVuSans-31" transform="translate(128.203125 38.965625) scale(0.7)"/>
      </g>
     </g>
    </g>
    <g id="xtick_26">
     <g id="line2d_41">
      <g>
       <use xlink:href="#m5f60818715" x="79.791282" y="314.728" style="stroke: #000000; stroke-width: 0.6"/>
      </g>
     </g>
    </g>
    <g id="xtick_27">
     <g id="line2d_42">
      <g>
       <use xlink:href="#m5f60818715" x="91.060983" y="314.728" style="stroke: #000000; stroke-width: 0.6"/>
      </g>
     </g>
    </g>
    <g id="xtick_28">
     <g id="line2d_43">
      <g>
       <use xlink:href="#m5f60818715" x="100.268998" y="314.728" style="stroke: #000000; stroke-width: 0.6"/>
      </g>
     </g>
    </g>
    <g id="xtick_29">
     <g id="line2d_44">
      <g>
       <use xlink:href="#m5f60818715" x="108.054265" y="314.728" style="stroke: #000000; stroke-width: 0.6"/>
      </g>
     </g>
    </g>
    <g id="xtick_30">
     <g id="line2d_45">
      <g>
       <use xlink:href="#m5f60818715" x="114.798169" y="314.728" style="stroke: #000000; stroke-width: 0.6"/>
      </g>
     </g>
    </g>
    <g id="xtick_31">
     <g id="line2d_46">
      <g>
       <use xlink:href="#m5f60818715" x="120.746715" y="314.728" style="stroke: #000000; stroke-width: 0.6"/>
      </g>
     </g>
    </g>
    <g id="xtick_32">
     <g id="line2d_47">
      <g>
       <use xlink:href="#m5f60818715" x="161.074757" y="314.728" style="stroke: #000000; stroke-width: 0.6"/>
      </g>
     </g>
    </g>
    <g id="xtick_33">
     <g id="line2d_48">
      <g>
       <use xlink:href="#m5f60818715" x="181.552473" y="314.728" style="stroke: #000000; stroke-width: 0.6"/>
      </g>
     </g>
    </g>
    <g id="xtick_34">
     <g id="line2d_49">
      <g>
       <use xlink:href="#m5f60818715" x="196.081643" y="314.728" style="stroke: #000000; stroke-width: 0.6"/>
      </g>
     </g>
    </g>
    <g id="xtick_35">
     <g id="line2d_50">
      <g>
       <use xlink:href="#m5f60818715" x="207.351344" y="314.728" style="stroke: #000000; stroke-width: 0.6"/>
      </g>
     </g>
    </g>
    <g id="xtick_36">
     <g id="line2d_51">
      <g>
       <use xlink:href="#m5f60818715" x="216.55936" y="314.728" style="stroke: #000000; stroke-width: 0.6"/>
      </g>
     </g>
    </g>
    <g id="xtick_37">
     <g id="line2d_52">
      <g>
       <use xlink:href="#m5f60818715" x="224.344626" y="314.728" style="stroke: #000000; stroke-width: 0.6"/>
      </g>
     </g>
    </g>
    <g id="xtick_38">
     <g id="line2d_53">
      <g>
       <use xlink:href="#m5f60818715" x="231.08853" y="314.728" style="stroke: #000000; stroke-width: 0.6"/>
      </g>
     </g>
    </g>
    <g id="xtick_39">
     <g id="line2d_54">
      <g>
       <use xlink:href="#m5f60818715" x="237.037076" y="314.728" style="stroke: #000000; stroke-width: 0.6"/>
      </g>
     </g>
    </g>
    <g id="xtick_40">
     <g id="line2d_55">
      <g>
       <use xlink:href="#m5f60818715" x="277.365118" y="314.728" style="stroke: #000000; stroke-width: 0.6"/>
      </g>
     </g>
    </g>
    <g id="xtick_41">
     <g id="line2d_56">
      <g>
       <use xlink:href="#m5f60818715" x="297.842834" y="314.728" style="stroke: #000000; stroke-width: 0.6"/>
      </g>
     </g>
    </g>
    <g id="xtick_42">
     <g id="line2d_57">
      <g>
       <use xlink:href="#m5f60818715" x="312.372005" y="314.728" style="stroke: #000000; stroke-width: 0.6"/>
      </g>
     </g>
    </g>
    <g id="xtick_43">
     <g id="line2d_58">
      <g>
       <use xlink:href="#m5f60818715" x="323.641705" y="314.728" style="stroke: #000000; stroke-width: 0.6"/>
      </g>
     </g>
    </g>
    <g id="xtick_44">
     <g id="line2d_59">
      <g>
       <use xlink:href="#m5f60818715" x="332.849721" y="314.728" style="stroke: #000000; stroke-width: 0.6"/>
      </g>
     </g>
    </g>
    <g id="xtick_45">
     <g id="line2d_60">
      <g>
       <use xlink:href="#m5f60818715" x="340.634987" y="314.728" style="stroke: #000000; stroke-width: 0.6"/>
      </g>
     </g>
    </g>
    <g id="xtick_46">
     <g id="line2d_61">
      <g>
       <use xlink:href="#m5f60818715" x="347.378891" y="314.728" style="stroke: #000000; stroke-width: 0.6"/>
      </g>
     </g>
    </g>
    <g id="text_13">
     <!-- Energy [TeV] -->
     <g transform="translate(181.587984 343.004563) scale(0.1 -0.1)">
      <defs>
       <path id="DejaVuSans-45" d="M 628 4666 
L 3578 4666 
L 3578 4134 
L 1259 4134 
L 1259 2753 
L 3481 2753 
L 3481 2222 
L 1259 2222 
L 1259 531 
L 3634 531 
L 3634 0 
L 628 0 
L 628 4666 
z
" transform="scale(0.015625)"/>
       <path id="DejaVuSans-67" d="M 2906 1791 
Q 2906 2416 2648 2759 
Q 2391 3103 1925 3103 
Q 1463 3103 1205 2759 
Q 947 2416 947 1791 
Q 947 1169 1205 825 
Q 1463 481 1925 481 
Q 2391 481 2648 825 
Q 2906 1169 2906 1791 
z
M 3481 434 
Q 3481 -459 3084 -895 
Q 2688 -1331 1869 -1331 
Q 1566 -1331 1297 -1286 
Q 1028 -1241 775 -1147 
L 775 -588 
Q 1028 -725 1275 -790 
Q 1522 -856 1778 -856 
Q 2344 -856 2625 -561 
Q 2906 -266 2906 331 
L 2906 616 
Q 2728 306 2450 153 
Q 2172 0 1784 0 
Q 1141 0 747 490 
Q 353 981 353 1791 
Q 353 2603 747 3093 
Q 1141 3584 1784 3584 
Q 2172 3584 2450 3431 
Q 2728 3278 2906 2969 
L 2906 3500 
L 3481 3500 
L 3481 434 
z
" transform="scale(0.015625)"/>
       <path id="DejaVuSans-79" d="M 2059 -325 
Q 1816 -950 1584 -1140 
Q 1353 -1331 966 -1331 
L 506 -1331 
L 506 -850 
L 844 -850 
Q 1081 -850 1212 -737 
Q 1344 -625 1503 -206 
L 1606 56 
L 191 3500 
L 800 3500 
L 1894 763 
L 2988 3500 
L 3597 3500 
L 2059 -325 
z
" transform="scale(0.015625)"/>
      </defs>
      <use xlink:href="#DejaVuSans-45"/>
      <use xlink:href="#DejaVuSans-6e" x="63.183594"/>
      <use xlink:href="#DejaVuSans-65" x="126.5625"/>
      <use xlink:href="#DejaVuSans-72" x="188.085938"/>
      <use xlink:href="#DejaVuSans-67" x="227.449219"/>
      <use xlink:href="#DejaVuSans-79" x="290.925781"/>
      <use xlink:href="#DejaVuSans-20" x="350.105469"/>
      <use xlink:href="#DejaVuSans-5b" x="381.892578"/>
      <use xlink:href="#DejaVuSans-54" x="420.90625"/>
      <use xlink:href="#DejaVuSans-65" x="464.990234"/>
      <use xlink:href="#DejaVuSans-56" x="526.513672"/>
      <use xlink:href="#DejaVuSans-5d" x="594.921875"/>
     </g>
    </g>
   </g>
   <g id="matplotlib.axis_4">
    <g id="ytick_9">
     <g id="line2d_62">
      <g>
       <use xlink:href="#m560726ceb4" x="77.371281" y="301.375535" style="stroke: #000000; stroke-width: 0.8"/>
      </g>
     </g>
     <g id="text_14">
      <!-- 0.4 -->
      <g transform="translate(54.468156 305.174754) scale(0.1 -0.1)">
       <defs>
        <path id="DejaVuSans-2e" d="M 684 794 
L 1344 794 
L 1344 0 
L 684 0 
L 684 794 
z
" transform="scale(0.015625)"/>
       </defs>
       <use xlink:href="#DejaVuSans-30"/>
       <use xlink:href="#DejaVuSans-2e" x="63.623047"/>
       <use xlink:href="#DejaVuSans-34" x="95.410156"/>
      </g>
     </g>
    </g>
    <g id="ytick_10">
     <g id="line2d_63">
      <g>
       <use xlink:href="#m560726ceb4" x="77.371281" y="278.142308" style="stroke: #000000; stroke-width: 0.8"/>
      </g>
     </g>
     <g id="text_15">
      <!-- 0.5 -->
      <g transform="translate(54.468156 281.941527) scale(0.1 -0.1)">
       <defs>
        <path id="DejaVuSans-35" d="M 691 4666 
L 3169 4666 
L 3169 4134 
L 1269 4134 
L 1269 2991 
Q 1406 3038 1543 3061 
Q 1681 3084 1819 3084 
Q 2600 3084 3056 2656 
Q 3513 2228 3513 1497 
Q 3513 744 3044 326 
Q 2575 -91 1722 -91 
Q 1428 -91 1123 -41 
Q 819 9 494 109 
L 494 744 
Q 775 591 1075 516 
Q 1375 441 1709 441 
Q 2250 441 2565 725 
Q 2881 1009 2881 1497 
Q 2881 1984 2565 2268 
Q 2250 2553 1709 2553 
Q 1456 2553 1204 2497 
Q 953 2441 691 2322 
L 691 4666 
z
" transform="scale(0.015625)"/>
       </defs>
       <use xlink:href="#DejaVuSans-30"/>
       <use xlink:href="#DejaVuSans-2e" x="63.623047"/>
       <use xlink:href="#DejaVuSans-35" x="95.410156"/>
      </g>
     </g>
    </g>
    <g id="ytick_11">
     <g id="line2d_64">
      <g>
       <use xlink:href="#m560726ceb4" x="77.371281" y="254.90908" style="stroke: #000000; stroke-width: 0.8"/>
      </g>
     </g>
     <g id="text_16">
      <!-- 0.6 -->
      <g transform="translate(54.468156 258.708299) scale(0.1 -0.1)">
       <use xlink:href="#DejaVuSans-30"/>
       <use xlink:href="#DejaVuSans-2e" x="63.623047"/>
       <use xlink:href="#DejaVuSans-36" x="95.410156"/>
      </g>
     </g>
    </g>
    <g id="ytick_12">
     <g id="line2d_65">
      <g>
       <use xlink:href="#m560726ceb4" x="77.371281" y="231.675852" style="stroke: #000000; stroke-width: 0.8"/>
      </g>
     </g>
     <g id="text_17">
      <!-- 0.7 -->
      <g transform="translate(54.468156 235.475071) scale(0.1 -0.1)">
       <defs>
        <path id="DejaVuSans-37" d="M 525 4666 
L 3525 4666 
L 3525 4397 
L 1831 0 
L 1172 0 
L 2766 4134 
L 525 4134 
L 525 4666 
z
" transform="scale(0.015625)"/>
       </defs>
       <use xlink:href="#DejaVuSans-30"/>
       <use xlink:href="#DejaVuSans-2e" x="63.623047"/>
       <use xlink:href="#DejaVuSans-37" x="95.410156"/>
      </g>
     </g>
    </g>
    <g id="ytick_13">
     <g id="line2d_66">
      <g>
       <use xlink:href="#m560726ceb4" x="77.371281" y="208.442625" style="stroke: #000000; stroke-width: 0.8"/>
      </g>
     </g>
     <g id="text_18">
      <!-- 0.8 -->
      <g transform="translate(54.468156 212.241843) scale(0.1 -0.1)">
       <defs>
        <path id="DejaVuSans-38" d="M 2034 2216 
Q 1584 2216 1326 1975 
Q 1069 1734 1069 1313 
Q 1069 891 1326 650 
Q 1584 409 2034 409 
Q 2484 409 2743 651 
Q 3003 894 3003 1313 
Q 3003 1734 2745 1975 
Q 2488 2216 2034 2216 
z
M 1403 2484 
Q 997 2584 770 2862 
Q 544 3141 544 3541 
Q 544 4100 942 4425 
Q 1341 4750 2034 4750 
Q 2731 4750 3128 4425 
Q 3525 4100 3525 3541 
Q 3525 3141 3298 2862 
Q 3072 2584 2669 2484 
Q 3125 2378 3379 2068 
Q 3634 1759 3634 1313 
Q 3634 634 3220 271 
Q 2806 -91 2034 -91 
Q 1263 -91 848 271 
Q 434 634 434 1313 
Q 434 1759 690 2068 
Q 947 2378 1403 2484 
z
M 1172 3481 
Q 1172 3119 1398 2916 
Q 1625 2713 2034 2713 
Q 2441 2713 2670 2916 
Q 2900 3119 2900 3481 
Q 2900 3844 2670 4047 
Q 2441 4250 2034 4250 
Q 1625 4250 1398 4047 
Q 1172 3844 1172 3481 
z
" transform="scale(0.015625)"/>
       </defs>
       <use xlink:href="#DejaVuSans-30"/>
       <use xlink:href="#DejaVuSans-2e" x="63.623047"/>
       <use xlink:href="#DejaVuSans-38" x="95.410156"/>
      </g>
     </g>
    </g>
    <g id="text_19">
     <!-- Coverage -->
     <g transform="translate(48.388468 283.861255) rotate(-90) scale(0.1 -0.1)">
      <defs>
       <path id="DejaVuSans-43" d="M 4122 4306 
L 4122 3641 
Q 3803 3938 3442 4084 
Q 3081 4231 2675 4231 
Q 1875 4231 1450 3742 
Q 1025 3253 1025 2328 
Q 1025 1406 1450 917 
Q 1875 428 2675 428 
Q 3081 428 3442 575 
Q 3803 722 4122 1019 
L 4122 359 
Q 3791 134 3420 21 
Q 3050 -91 2638 -91 
Q 1578 -91 968 557 
Q 359 1206 359 2328 
Q 359 3453 968 4101 
Q 1578 4750 2638 4750 
Q 3056 4750 3426 4639 
Q 3797 4528 4122 4306 
z
" transform="scale(0.015625)"/>
       <path id="DejaVuSans-6f" d="M 1959 3097 
Q 1497 3097 1228 2736 
Q 959 2375 959 1747 
Q 959 1119 1226 758 
Q 1494 397 1959 397 
Q 2419 397 2687 759 
Q 2956 1122 2956 1747 
Q 2956 2369 2687 2733 
Q 2419 3097 1959 3097 
z
M 1959 3584 
Q 2709 3584 3137 3096 
Q 3566 2609 3566 1747 
Q 3566 888 3137 398 
Q 2709 -91 1959 -91 
Q 1206 -91 779 398 
Q 353 888 353 1747 
Q 353 2609 779 3096 
Q 1206 3584 1959 3584 
z
" transform="scale(0.015625)"/>
       <path id="DejaVuSans-76" d="M 191 3500 
L 800 3500 
L 1894 563 
L 2988 3500 
L 3597 3500 
L 2284 0 
L 1503 0 
L 191 3500 
z
" transform="scale(0.015625)"/>
      </defs>
      <use xlink:href="#DejaVuSans-43"/>
      <use xlink:href="#DejaVuSans-6f" x="69.824219"/>
      <use xlink:href="#DejaVuSans-76" x="131.005859"/>
      <use xlink:href="#DejaVuSans-65" x="190.185547"/>
      <use xlink:href="#DejaVuSans-72" x="251.708984"/>
      <use xlink:href="#DejaVuSans-61" x="292.822266"/>
      <use xlink:href="#DejaVuSans-67" x="354.101562"/>
      <use xlink:href="#DejaVuSans-65" x="417.578125"/>
     </g>
    </g>
   </g>
   <g id="LineCollection_3">
    <path d="M 89.727132 271.409195 
L 89.727132 247.237592 
" clip-path="url(#p15a44cf12a)" style="fill: none; stroke: #ff0000; stroke-width: 1.5"/>
    <path d="M 104.263427 277.914498 
L 104.263427 253.742896 
" clip-path="url(#p15a44cf12a)" style="fill: none; stroke: #ff0000; stroke-width: 1.5"/>
    <path d="M 118.799722 282.793476 
L 118.799722 258.621874 
" clip-path="url(#p15a44cf12a)" style="fill: none; stroke: #ff0000; stroke-width: 1.5"/>
    <path d="M 133.336017 289.29878 
L 133.336017 265.127177 
" clip-path="url(#p15a44cf12a)" style="fill: none; stroke: #ff0000; stroke-width: 1.5"/>
    <path d="M 147.872312 293.945426 
L 147.872312 269.773823 
" clip-path="url(#p15a44cf12a)" style="fill: none; stroke: #ff0000; stroke-width: 1.5"/>
    <path d="M 162.408608 302.774052 
L 162.408608 278.602449 
" clip-path="url(#p15a44cf12a)" style="fill: none; stroke: #ff0000; stroke-width: 1.5"/>
    <path d="M 176.944903 309.74402 
L 176.944903 285.572418 
" clip-path="url(#p15a44cf12a)" style="fill: none; stroke: #ff0000; stroke-width: 1.5"/>
    <path d="M 191.481198 309.047024 
L 191.481198 284.875421 
" clip-path="url(#p15a44cf12a)" style="fill: none; stroke: #ff0000; stroke-width: 1.5"/>
    <path d="M 206.017493 303.006384 
L 206.017493 278.834782 
" clip-path="url(#p15a44cf12a)" style="fill: none; stroke: #ff0000; stroke-width: 1.5"/>
    <path d="M 220.553788 294.177758 
L 220.553788 270.006155 
" clip-path="url(#p15a44cf12a)" style="fill: none; stroke: #ff0000; stroke-width: 1.5"/>
    <path d="M 235.090083 287.20779 
L 235.090083 263.036187 
" clip-path="url(#p15a44cf12a)" style="fill: none; stroke: #ff0000; stroke-width: 1.5"/>
    <path d="M 249.626378 279.540824 
L 249.626378 255.369222 
" clip-path="url(#p15a44cf12a)" style="fill: none; stroke: #ff0000; stroke-width: 1.5"/>
    <path d="M 264.162673 273.267853 
L 264.162673 249.09625 
" clip-path="url(#p15a44cf12a)" style="fill: none; stroke: #ff0000; stroke-width: 1.5"/>
    <path d="M 278.698969 270.94453 
L 278.698969 246.772927 
" clip-path="url(#p15a44cf12a)" style="fill: none; stroke: #ff0000; stroke-width: 1.5"/>
    <path d="M 293.235264 266.530217 
L 293.235264 242.358614 
" clip-path="url(#p15a44cf12a)" style="fill: none; stroke: #ff0000; stroke-width: 1.5"/>
    <path d="M 307.771559 262.8129 
L 307.771559 238.641298 
" clip-path="url(#p15a44cf12a)" style="fill: none; stroke: #ff0000; stroke-width: 1.5"/>
    <path d="M 322.307854 261.186574 
L 322.307854 237.014972 
" clip-path="url(#p15a44cf12a)" style="fill: none; stroke: #ff0000; stroke-width: 1.5"/>
    <path d="M 336.844149 259.560249 
L 336.844149 235.388646 
" clip-path="url(#p15a44cf12a)" style="fill: none; stroke: #ff0000; stroke-width: 1.5"/>
   </g>
   <g id="LineCollection_4">
    <path d="M 89.727132 237.953347 
L 89.727132 213.781744 
" clip-path="url(#p15a44cf12a)" style="fill: none; stroke: #008000; stroke-width: 1.5"/>
    <path d="M 104.263427 235.862356 
L 104.263427 211.690754 
" clip-path="url(#p15a44cf12a)" style="fill: none; stroke: #008000; stroke-width: 1.5"/>
    <path d="M 118.799722 234.23603 
L 118.799722 210.064428 
" clip-path="url(#p15a44cf12a)" style="fill: none; stroke: #008000; stroke-width: 1.5"/>
    <path d="M 133.336017 235.862356 
L 133.336017 211.690754 
" clip-path="url(#p15a44cf12a)" style="fill: none; stroke: #008000; stroke-width: 1.5"/>
    <path d="M 147.872312 235.397692 
L 147.872312 211.226089 
" clip-path="url(#p15a44cf12a)" style="fill: none; stroke: #008000; stroke-width: 1.5"/>
    <path d="M 162.408608 235.397692 
L 162.408608 211.226089 
" clip-path="url(#p15a44cf12a)" style="fill: none; stroke: #008000; stroke-width: 1.5"/>
    <path d="M 176.944903 236.094689 
L 176.944903 211.923086 
" clip-path="url(#p15a44cf12a)" style="fill: none; stroke: #008000; stroke-width: 1.5"/>
    <path d="M 191.481198 237.024018 
L 191.481198 212.852415 
" clip-path="url(#p15a44cf12a)" style="fill: none; stroke: #008000; stroke-width: 1.5"/>
    <path d="M 206.017493 239.34734 
L 206.017493 215.175738 
" clip-path="url(#p15a44cf12a)" style="fill: none; stroke: #008000; stroke-width: 1.5"/>
    <path d="M 220.553788 239.34734 
L 220.553788 215.175738 
" clip-path="url(#p15a44cf12a)" style="fill: none; stroke: #008000; stroke-width: 1.5"/>
    <path d="M 235.090083 242.135328 
L 235.090083 217.963725 
" clip-path="url(#p15a44cf12a)" style="fill: none; stroke: #008000; stroke-width: 1.5"/>
    <path d="M 249.626378 243.064657 
L 249.626378 218.893054 
" clip-path="url(#p15a44cf12a)" style="fill: none; stroke: #008000; stroke-width: 1.5"/>
    <path d="M 264.162673 243.529321 
L 264.162673 219.357719 
" clip-path="url(#p15a44cf12a)" style="fill: none; stroke: #008000; stroke-width: 1.5"/>
    <path d="M 278.698969 245.155647 
L 278.698969 220.984045 
" clip-path="url(#p15a44cf12a)" style="fill: none; stroke: #008000; stroke-width: 1.5"/>
    <path d="M 293.235264 246.084976 
L 293.235264 221.913374 
" clip-path="url(#p15a44cf12a)" style="fill: none; stroke: #008000; stroke-width: 1.5"/>
    <path d="M 307.771559 248.175967 
L 307.771559 224.004364 
" clip-path="url(#p15a44cf12a)" style="fill: none; stroke: #008000; stroke-width: 1.5"/>
    <path d="M 322.307854 249.105296 
L 322.307854 224.933693 
" clip-path="url(#p15a44cf12a)" style="fill: none; stroke: #008000; stroke-width: 1.5"/>
    <path d="M 336.844149 249.802293 
L 336.844149 225.63069 
" clip-path="url(#p15a44cf12a)" style="fill: none; stroke: #008000; stroke-width: 1.5"/>
   </g>
   <g id="line2d_67">
    <path d="M 89.727132 236.322498 
L 104.263427 236.322498 
L 118.799722 236.322498 
L 133.336017 236.322498 
L 147.872312 236.322498 
L 162.408608 236.322498 
L 176.944903 236.322498 
L 191.481198 236.322498 
L 206.017493 236.322498 
L 220.553788 236.322498 
L 235.090083 236.322498 
L 249.626378 236.322498 
L 264.162673 236.322498 
L 278.698969 236.322498 
L 293.235264 236.322498 
L 307.771559 236.322498 
L 322.307854 236.322498 
L 336.844149 236.322498 
" clip-path="url(#p15a44cf12a)" style="fill: none; stroke-dasharray: 1.5,2.475; stroke-dashoffset: 0; stroke: #008000; stroke-width: 1.5"/>
   </g>
   <g id="line2d_68">
    <path d="M 89.727132 259.323393 
L 104.263427 265.828697 
L 118.799722 270.707675 
L 133.336017 277.212979 
L 147.872312 281.859624 
L 162.408608 290.688251 
L 176.944903 297.658219 
L 191.481198 296.961222 
L 206.017493 290.920583 
L 220.553788 282.091956 
L 235.090083 275.121988 
L 249.626378 267.455023 
L 264.162673 261.182052 
L 278.698969 258.858729 
L 293.235264 254.444416 
L 307.771559 250.727099 
L 322.307854 249.100773 
L 336.844149 247.474447 
" clip-path="url(#p15a44cf12a)" style="fill: none; stroke: #ff0000; stroke-width: 1.5; stroke-linecap: square"/>
   </g>
   <g id="line2d_69">
    <path d="M 89.727132 225.867545 
L 104.263427 223.776555 
L 118.799722 222.150229 
L 133.336017 223.776555 
L 147.872312 223.31189 
L 162.408608 223.31189 
L 176.944903 224.008887 
L 191.481198 224.938216 
L 206.017493 227.261539 
L 220.553788 227.261539 
L 235.090083 230.049526 
L 249.626378 230.978856 
L 264.162673 231.44352 
L 278.698969 233.069846 
L 293.235264 233.999175 
L 307.771559 236.090166 
L 322.307854 237.019495 
L 336.844149 237.716492 
" clip-path="url(#p15a44cf12a)" style="fill: none; stroke: #008000; stroke-width: 1.5; stroke-linecap: square"/>
   </g>
   <g id="patch_11">
    <path d="M 77.371281 314.728 
L 77.371281 205.080448 
" style="fill: none; stroke: #000000; stroke-width: 0.8; stroke-linejoin: miter; stroke-linecap: square"/>
   </g>
   <g id="patch_12">
    <path d="M 349.2 314.728 
L 349.2 205.080448 
" style="fill: none; stroke: #000000; stroke-width: 0.8; stroke-linejoin: miter; stroke-linecap: square"/>
   </g>
   <g id="patch_13">
    <path d="M 77.371281 314.728 
L 349.2 314.728 
" style="fill: none; stroke: #000000; stroke-width: 0.8; stroke-linejoin: miter; stroke-linecap: square"/>
   </g>
   <g id="patch_14">
    <path d="M 77.371281 205.080448 
L 349.2 205.080448 
" style="fill: none; stroke: #000000; stroke-width: 0.8; stroke-linejoin: miter; stroke-linecap: square"/>
   </g>
   <g id="legend_2">
    <g id="patch_15">
     <path d="M 170.78125 309.728 
L 342.2 309.728 
Q 344.2 309.728 344.2 307.728 
L 344.2 279.37175 
Q 344.2 277.37175 342.2 277.37175 
L 170.78125 277.37175 
Q 168.78125 277.37175 168.78125 279.37175 
L 168.78125 307.728 
Q 168.78125 309.728 170.78125 309.728 
z
" style="fill: #ffffff; opacity: 0.8; stroke: #cccccc; stroke-linejoin: miter"/>
    </g>
    <g id="line2d_70">
     <path d="M 172.78125 285.470188 
L 182.78125 285.470188 
L 192.78125 285.470188 
" style="fill: none; stroke-dasharray: 1.5,2.475; stroke-dashoffset: 0; stroke: #008000; stroke-width: 1.5"/>
    </g>
    <g id="text_20">
     <!-- 68 % -->
     <g transform="translate(200.78125 288.970188) scale(0.1 -0.1)">
      <defs>
       <path id="DejaVuSans-25" d="M 4653 2053 
Q 4381 2053 4226 1822 
Q 4072 1591 4072 1178 
Q 4072 772 4226 539 
Q 4381 306 4653 306 
Q 4919 306 5073 539 
Q 5228 772 5228 1178 
Q 5228 1588 5073 1820 
Q 4919 2053 4653 2053 
z
M 4653 2450 
Q 5147 2450 5437 2106 
Q 5728 1763 5728 1178 
Q 5728 594 5436 251 
Q 5144 -91 4653 -91 
Q 4153 -91 3862 251 
Q 3572 594 3572 1178 
Q 3572 1766 3864 2108 
Q 4156 2450 4653 2450 
z
M 1428 4353 
Q 1159 4353 1004 4120 
Q 850 3888 850 3481 
Q 850 3069 1003 2837 
Q 1156 2606 1428 2606 
Q 1700 2606 1854 2837 
Q 2009 3069 2009 3481 
Q 2009 3884 1853 4118 
Q 1697 4353 1428 4353 
z
M 4250 4750 
L 4750 4750 
L 1831 -91 
L 1331 -91 
L 4250 4750 
z
M 1428 4750 
Q 1922 4750 2215 4408 
Q 2509 4066 2509 3481 
Q 2509 2891 2217 2550 
Q 1925 2209 1428 2209 
Q 931 2209 642 2551 
Q 353 2894 353 3481 
Q 353 4063 643 4406 
Q 934 4750 1428 4750 
z
" transform="scale(0.015625)"/>
      </defs>
      <use xlink:href="#DejaVuSans-36"/>
      <use xlink:href="#DejaVuSans-38" x="63.623047"/>
      <use xlink:href="#DejaVuSans-20" x="127.246094"/>
      <use xlink:href="#DejaVuSans-25" x="159.033203"/>
     </g>
    </g>
    <g id="LineCollection_5">
     <path d="M 182.78125 305.148313 
L 182.78125 295.148313 
" style="fill: none; stroke: #ff0000; stroke-width: 1.5"/>
    </g>
    <g id="line2d_71">
     <path d="M 172.78125 300.148313 
L 192.78125 300.148313 
" style="fill: none; stroke: #ff0000; stroke-width: 1.5; stroke-linecap: square"/>
    </g>
    <g id="line2d_72"/>
    <g id="text_21">
     <!-- Standard -->
     <g transform="translate(200.78125 303.648313) scale(0.1 -0.1)">
      <use xlink:href="#DejaVuSans-53"/>
      <use xlink:href="#DejaVuSans-74" x="63.476562"/>
      <use xlink:href="#DejaVuSans-61" x="102.685547"/>
      <use xlink:href="#DejaVuSans-6e" x="163.964844"/>
      <use xlink:href="#DejaVuSans-64" x="227.34375"/>
      <use xlink:href="#DejaVuSans-61" x="290.820312"/>
      <use xlink:href="#DejaVuSans-72" x="352.099609"/>
      <use xlink:href="#DejaVuSans-64" x="391.462891"/>
     </g>
    </g>
    <g id="LineCollection_6">
     <path d="M 276.276562 290.470188 
L 276.276562 280.470188 
" style="fill: none; stroke: #008000; stroke-width: 1.5"/>
    </g>
    <g id="line2d_73">
     <path d="M 266.276562 285.470188 
L 286.276562 285.470188 
" style="fill: none; stroke: #008000; stroke-width: 1.5; stroke-linecap: square"/>
    </g>
    <g id="line2d_74"/>
    <g id="text_22">
     <!-- Nuisance -->
     <g transform="translate(294.276562 288.970188) scale(0.1 -0.1)">
      <use xlink:href="#DejaVuSans-4e"/>
      <use xlink:href="#DejaVuSans-75" x="74.804688"/>
      <use xlink:href="#DejaVuSans-69" x="138.183594"/>
      <use xlink:href="#DejaVuSans-73" x="165.966797"/>
      <use xlink:href="#DejaVuSans-61" x="218.066406"/>
      <use xlink:href="#DejaVuSans-6e" x="279.345703"/>
      <use xlink:href="#DejaVuSans-63" x="342.724609"/>
      <use xlink:href="#DejaVuSans-65" x="397.705078"/>
     </g>
    </g>
   </g>
  </g>
 </g>
 <defs>
  <clipPath id="pcb94c4e71b">
   <rect x="77.371281" y="25.44" width="271.828719" height="164.471328"/>
  </clipPath>
  <clipPath id="p15a44cf12a">
   <rect x="77.371281" y="205.080448" width="271.828719" height="109.647552"/>
  </clipPath>
 </defs>
</svg>
