<?xml version="1.0" encoding="utf-8" standalone="no"?>
<!DOCTYPE svg PUBLIC "-//W3C//DTD SVG 1.1//EN"
  "http://www.w3.org/Graphics/SVG/1.1/DTD/svg11.dtd">
<svg xmlns:xlink="http://www.w3.org/1999/xlink" width="360pt" height="360pt" viewBox="0 0 360 360" xmlns="http://www.w3.org/2000/svg" version="1.1">
 <metadata>
  <rdf:RDF xmlns:dc="http://purl.org/dc/elements/1.1/" xmlns:cc="http://creativecommons.org/ns#" xmlns:rdf="http://www.w3.org/1999/02/22-rdf-syntax-ns#">
   <cc:Work>
    <dc:type rdf:resource="http://purl.org/dc/dcmitype/StillImage"/>
    <dc:date>2023-02-09T15:15:04.536441</dc:date>
    <dc:format>image/svg+xml</dc:format>
    <dc:creator>
     <cc:Agent>
      <dc:title>Matplotlib v3.6.2, https://matplotlib.org/</dc:title>
     </cc:Agent>
    </dc:creator>
   </cc:Work>
  </rdf:RDF>
 </metadata>
 <defs>
  <style type="text/css">*{stroke-linejoin: round; stroke-linecap: butt}</style>
 </defs>
 <g id="figure_1">
  <g id="patch_1">
   <path d="M 0 360 
L 360 360 
L 360 0 
L 0 0 
z
" style="fill: #ffffff"/>
  </g>
  <g id="axes_1">
   <g id="patch_2">
    <path d="M 60.221389 190.4328 
L 349.2 190.4328 
L 349.2 25.44 
L 60.221389 25.44 
z
" style="fill: #ffffff"/>
   </g>
   <g id="PolyCollection_1">
    <path d="M 74.645222 70.111942 
L 74.645222 90.927631 
L 77.222106 91.670736 
L 79.798989 92.416471 
L 82.375873 93.164901 
L 84.952756 93.91609 
L 87.529639 94.670105 
L 90.106523 95.427015 
L 92.683406 96.186891 
L 95.26029 96.949806 
L 97.837173 97.715835 
L 100.414056 98.485053 
L 102.99094 99.25754 
L 105.567823 100.033373 
L 108.144707 100.812633 
L 110.72159 101.595402 
L 113.298473 102.381763 
L 115.875357 103.171797 
L 118.45224 103.965589 
L 121.029124 104.763221 
L 123.606007 105.564776 
L 126.18289 106.370337 
L 128.759774 107.179984 
L 131.336657 107.993798 
L 133.913541 108.811856 
L 136.490424 109.634233 
L 139.067307 110.461004 
L 141.644191 111.292238 
L 144.221074 112.128 
L 146.797958 112.968354 
L 149.374841 113.813358 
L 151.951724 114.663063 
L 154.528608 115.517519 
L 157.105491 116.376767 
L 159.682375 117.240844 
L 162.259258 118.109779 
L 164.836141 118.983597 
L 167.413025 119.862314 
L 169.989908 120.74594 
L 172.566792 121.63448 
L 175.143675 122.52793 
L 177.720558 123.426278 
L 180.297442 124.329508 
L 182.874325 125.237597 
L 185.451209 126.150513 
L 188.028092 127.068221 
L 190.604975 127.990679 
L 193.181859 128.917837 
L 195.758742 129.849643 
L 198.335626 130.78604 
L 200.912509 131.726964 
L 203.489392 132.67235 
L 206.066276 133.622127 
L 208.643159 134.576222 
L 211.220042 135.53456 
L 213.796926 136.497063 
L 216.373809 137.463651 
L 218.950693 138.434242 
L 221.527576 139.408755 
L 224.104459 140.387106 
L 226.681343 141.369213 
L 229.258226 142.354993 
L 231.83511 143.344361 
L 234.411993 144.337237 
L 236.988876 145.333538 
L 239.56576 146.333185 
L 242.142643 147.336097 
L 244.719527 148.342198 
L 247.29641 149.35141 
L 249.873293 150.36366 
L 252.450177 151.378874 
L 255.02706 152.396982 
L 257.603944 153.417915 
L 260.180827 154.441605 
L 262.75771 155.467988 
L 265.334594 156.497 
L 267.911477 157.528581 
L 270.488361 158.562672 
L 273.065244 159.599216 
L 275.642127 160.638159 
L 278.219011 161.679448 
L 280.795894 162.723032 
L 283.372778 163.768862 
L 285.949661 164.816893 
L 288.526544 165.867078 
L 291.103428 166.919375 
L 293.680311 167.973743 
L 296.257195 169.030142 
L 298.834078 170.088535 
L 301.410961 171.148885 
L 303.987845 172.211158 
L 306.564728 173.275321 
L 309.141612 174.341343 
L 311.718495 175.409193 
L 314.295378 176.478844 
L 316.872262 177.550269 
L 319.449145 178.62344 
L 322.026029 179.698334 
L 324.602912 180.774928 
L 327.179795 181.8532 
L 329.756679 182.933127 
L 329.756679 154.966483 
L 329.756679 154.966483 
L 327.179795 154.202762 
L 324.602912 153.438632 
L 322.026029 152.674066 
L 319.449145 151.909039 
L 316.872262 151.143523 
L 314.295378 150.377489 
L 311.718495 149.610908 
L 309.141612 148.843749 
L 306.564728 148.07598 
L 303.987845 147.307566 
L 301.410961 146.538474 
L 298.834078 145.768666 
L 296.257195 144.998105 
L 293.680311 144.226751 
L 291.103428 143.454564 
L 288.526544 142.6815 
L 285.949661 141.907516 
L 283.372778 141.132565 
L 280.795894 140.356599 
L 278.219011 139.579569 
L 275.642127 138.801424 
L 273.065244 138.022109 
L 270.488361 137.24157 
L 267.911477 136.45975 
L 265.334594 135.676588 
L 262.75771 134.892024 
L 260.180827 134.105995 
L 257.603944 133.318435 
L 255.02706 132.529277 
L 252.450177 131.738452 
L 249.873293 130.945889 
L 247.29641 130.151515 
L 244.719527 129.355254 
L 242.142643 128.557031 
L 239.56576 127.756768 
L 236.988876 126.954384 
L 234.411993 126.1498 
L 231.83511 125.342932 
L 229.258226 124.533698 
L 226.681343 123.722014 
L 224.104459 122.907796 
L 221.527576 122.090959 
L 218.950693 121.271419 
L 216.373809 120.449092 
L 213.796926 119.623894 
L 211.220042 118.795743 
L 208.643159 117.964558 
L 206.066276 117.13026 
L 203.489392 116.292772 
L 200.912509 115.452022 
L 198.335626 114.607937 
L 195.758742 113.760451 
L 193.181859 112.909501 
L 190.604975 112.055028 
L 188.028092 111.196979 
L 185.451209 110.335305 
L 182.874325 109.469963 
L 180.297442 108.600917 
L 177.720558 107.728135 
L 175.143675 106.851595 
L 172.566792 105.971279 
L 169.989908 105.087176 
L 167.413025 104.199283 
L 164.836141 103.307603 
L 162.259258 102.412146 
L 159.682375 101.51293 
L 157.105491 100.609979 
L 154.528608 99.703322 
L 151.951724 98.792998 
L 149.374841 97.879047 
L 146.797958 96.961519 
L 144.221074 96.040467 
L 141.644191 95.115949 
L 139.067307 94.188029 
L 136.490424 93.256773 
L 133.913541 92.322253 
L 131.336657 91.384541 
L 128.759774 90.443716 
L 126.18289 89.499854 
L 123.606007 88.553038 
L 121.029124 87.603349 
L 118.45224 86.650872 
L 115.875357 85.695689 
L 113.298473 84.737886 
L 110.72159 83.777547 
L 108.144707 82.814756 
L 105.567823 81.849597 
L 102.99094 80.882153 
L 100.414056 79.912507 
L 97.837173 78.940739 
L 95.26029 77.966929 
L 92.683406 76.991154 
L 90.106523 76.013492 
L 87.529639 75.034018 
L 84.952756 74.052803 
L 82.375873 73.06992 
L 79.798989 72.085438 
L 77.222106 71.099423 
L 74.645222 70.111942 
z
" clip-path="url(#pf99813b722)" style="fill: #008000; fill-opacity: 0.5"/>
   </g>
   <g id="PolyCollection_2">
    <path d="M 74.645222 72.589109 
L 74.645222 87.594918 
L 77.222106 88.304204 
L 79.798989 89.01546 
L 82.375873 89.728765 
L 84.952756 90.444205 
L 87.529639 91.161875 
L 90.106523 91.881877 
L 92.683406 92.604321 
L 95.26029 93.329328 
L 97.837173 94.057027 
L 100.414056 94.787559 
L 102.99094 95.521077 
L 105.567823 96.257745 
L 108.144707 96.997743 
L 110.72159 97.741261 
L 113.298473 98.488506 
L 115.875357 99.239701 
L 118.45224 99.995084 
L 121.029124 100.754907 
L 123.606007 101.519441 
L 126.18289 102.288971 
L 128.759774 103.063797 
L 131.336657 103.844234 
L 133.913541 104.630607 
L 136.490424 105.423251 
L 139.067307 106.222507 
L 141.644191 107.028718 
L 144.221074 107.842222 
L 146.797958 108.66335 
L 149.374841 109.492417 
L 151.951724 110.329714 
L 154.528608 111.175504 
L 157.105491 112.030014 
L 159.682375 112.893427 
L 162.259258 113.765879 
L 164.836141 114.647452 
L 167.413025 115.538174 
L 169.989908 116.438015 
L 172.566792 117.346892 
L 175.143675 118.264668 
L 177.720558 119.191159 
L 180.297442 120.126137 
L 182.874325 121.069339 
L 185.451209 122.020471 
L 188.028092 122.979219 
L 190.604975 123.945253 
L 193.181859 124.918232 
L 195.758742 125.897815 
L 198.335626 126.883661 
L 200.912509 127.875434 
L 203.489392 128.87281 
L 206.066276 129.875475 
L 208.643159 130.883129 
L 211.220042 131.895486 
L 213.796926 132.912278 
L 216.373809 133.933251 
L 218.950693 134.958167 
L 221.527576 135.986806 
L 224.104459 137.01896 
L 226.681343 138.054439 
L 229.258226 139.093064 
L 231.83511 140.13467 
L 234.411993 141.179106 
L 236.988876 142.226231 
L 239.56576 143.275915 
L 242.142643 144.328038 
L 244.719527 145.382491 
L 247.29641 146.43917 
L 249.873293 147.497983 
L 252.450177 148.558842 
L 255.02706 149.621669 
L 257.603944 150.686389 
L 260.180827 151.752935 
L 262.75771 152.821244 
L 265.334594 153.891258 
L 267.911477 154.962926 
L 270.488361 156.036196 
L 273.065244 157.111026 
L 275.642127 158.187372 
L 278.219011 159.265197 
L 280.795894 160.344464 
L 283.372778 161.425143 
L 285.949661 162.507201 
L 288.526544 163.590613 
L 291.103428 164.675351 
L 293.680311 165.761394 
L 296.257195 166.848718 
L 298.834078 167.937305 
L 301.410961 169.027136 
L 303.987845 170.118195 
L 306.564728 171.210466 
L 309.141612 172.303935 
L 311.718495 173.398589 
L 314.295378 174.494417 
L 316.872262 175.591409 
L 319.449145 176.689555 
L 322.026029 177.788846 
L 324.602912 178.889274 
L 327.179795 179.990834 
L 329.756679 181.093518 
L 329.756679 156.153355 
L 329.756679 156.153355 
L 327.179795 155.41107 
L 324.602912 154.668894 
L 322.026029 153.926817 
L 319.449145 153.184827 
L 316.872262 152.442913 
L 314.295378 151.701062 
L 311.718495 150.959261 
L 309.141612 150.217495 
L 306.564728 149.475749 
L 303.987845 148.734006 
L 301.410961 147.992249 
L 298.834078 147.25046 
L 296.257195 146.508617 
L 293.680311 145.766699 
L 291.103428 145.024684 
L 288.526544 144.282546 
L 285.949661 143.540258 
L 283.372778 142.797793 
L 280.795894 142.055119 
L 278.219011 141.312203 
L 275.642127 140.569011 
L 273.065244 139.825503 
L 270.488361 139.081638 
L 267.911477 138.337373 
L 265.334594 137.59266 
L 262.75771 136.847446 
L 260.180827 136.101677 
L 257.603944 135.355293 
L 255.02706 134.608229 
L 252.450177 133.860414 
L 249.873293 133.111774 
L 247.29641 132.362226 
L 244.719527 131.611681 
L 242.142643 130.860045 
L 239.56576 130.107213 
L 236.988876 129.353072 
L 234.411993 128.597502 
L 231.83511 127.840371 
L 229.258226 127.081537 
L 226.681343 126.320845 
L 224.104459 125.55813 
L 221.527576 124.793213 
L 218.950693 124.0259 
L 216.373809 123.255984 
L 213.796926 122.483242 
L 211.220042 121.707435 
L 208.643159 120.928309 
L 206.066276 120.145594 
L 203.489392 119.359003 
L 200.912509 118.568236 
L 198.335626 117.772978 
L 195.758742 116.972902 
L 193.181859 116.167673 
L 190.604975 115.35695 
L 188.028092 114.540389 
L 185.451209 113.717651 
L 182.874325 112.888405 
L 180.297442 112.052334 
L 177.720558 111.209147 
L 175.143675 110.358579 
L 172.566792 109.500402 
L 169.989908 108.634431 
L 167.413025 107.76053 
L 164.836141 106.878615 
L 162.259258 105.988657 
L 159.682375 105.090683 
L 157.105491 104.184776 
L 154.528608 103.271071 
L 151.951724 102.349753 
L 149.374841 101.421047 
L 146.797958 100.485218 
L 144.221074 99.542557 
L 141.644191 98.59338 
L 139.067307 97.638017 
L 136.490424 96.676808 
L 133.913541 95.710096 
L 131.336657 94.738223 
L 128.759774 93.761524 
L 126.18289 92.780326 
L 123.606007 91.794943 
L 121.029124 90.805678 
L 118.45224 89.812817 
L 115.875357 88.81663 
L 113.298473 87.817372 
L 110.72159 86.815283 
L 108.144707 85.810584 
L 105.567823 84.803486 
L 102.99094 83.79418 
L 100.414056 82.782846 
L 97.837173 81.769652 
L 95.26029 80.75475 
L 92.683406 79.738284 
L 90.106523 78.720385 
L 87.529639 77.701175 
L 84.952756 76.680766 
L 82.375873 75.659263 
L 79.798989 74.636761 
L 77.222106 73.613349 
L 74.645222 72.589109 
z
" clip-path="url(#pf99813b722)" style="fill: #ff0000; fill-opacity: 0.6"/>
   </g>
   <g id="matplotlib.axis_1">
    <g id="xtick_1">
     <g id="line2d_1">
      <defs>
       <path id="m3fb8a313ad" d="M 0 0 
L 0 3.5 
" style="stroke: #000000; stroke-width: 0.8"/>
      </defs>
      <g>
       <use xlink:href="#m3fb8a313ad" x="111.252125" y="190.4328" style="stroke: #000000; stroke-width: 0.8"/>
      </g>
     </g>
    </g>
    <g id="xtick_2">
     <g id="line2d_2">
      <g>
       <use xlink:href="#m3fb8a313ad" x="232.517226" y="190.4328" style="stroke: #000000; stroke-width: 0.8"/>
      </g>
     </g>
    </g>
    <g id="xtick_3">
     <g id="line2d_3">
      <defs>
       <path id="m55ceb1bc68" d="M 0 0 
L 0 2 
" style="stroke: #000000; stroke-width: 0.6"/>
      </defs>
      <g>
       <use xlink:href="#m55ceb1bc68" x="62.995889" y="190.4328" style="stroke: #000000; stroke-width: 0.6"/>
      </g>
     </g>
    </g>
    <g id="xtick_4">
     <g id="line2d_4">
      <g>
       <use xlink:href="#m55ceb1bc68" x="74.747692" y="190.4328" style="stroke: #000000; stroke-width: 0.6"/>
      </g>
     </g>
    </g>
    <g id="xtick_5">
     <g id="line2d_5">
      <g>
       <use xlink:href="#m55ceb1bc68" x="84.349614" y="190.4328" style="stroke: #000000; stroke-width: 0.6"/>
      </g>
     </g>
    </g>
    <g id="xtick_6">
     <g id="line2d_6">
      <g>
       <use xlink:href="#m55ceb1bc68" x="92.467923" y="190.4328" style="stroke: #000000; stroke-width: 0.6"/>
      </g>
     </g>
    </g>
    <g id="xtick_7">
     <g id="line2d_7">
      <g>
       <use xlink:href="#m55ceb1bc68" x="99.500322" y="190.4328" style="stroke: #000000; stroke-width: 0.6"/>
      </g>
     </g>
    </g>
    <g id="xtick_8">
     <g id="line2d_8">
      <g>
       <use xlink:href="#m55ceb1bc68" x="105.703338" y="190.4328" style="stroke: #000000; stroke-width: 0.6"/>
      </g>
     </g>
    </g>
    <g id="xtick_9">
     <g id="line2d_9">
      <g>
       <use xlink:href="#m55ceb1bc68" x="147.756558" y="190.4328" style="stroke: #000000; stroke-width: 0.6"/>
      </g>
     </g>
    </g>
    <g id="xtick_10">
     <g id="line2d_10">
      <g>
       <use xlink:href="#m55ceb1bc68" x="169.110282" y="190.4328" style="stroke: #000000; stroke-width: 0.6"/>
      </g>
     </g>
    </g>
    <g id="xtick_11">
     <g id="line2d_11">
      <g>
       <use xlink:href="#m55ceb1bc68" x="184.260991" y="190.4328" style="stroke: #000000; stroke-width: 0.6"/>
      </g>
     </g>
    </g>
    <g id="xtick_12">
     <g id="line2d_12">
      <g>
       <use xlink:href="#m55ceb1bc68" x="196.012793" y="190.4328" style="stroke: #000000; stroke-width: 0.6"/>
      </g>
     </g>
    </g>
    <g id="xtick_13">
     <g id="line2d_13">
      <g>
       <use xlink:href="#m55ceb1bc68" x="205.614715" y="190.4328" style="stroke: #000000; stroke-width: 0.6"/>
      </g>
     </g>
    </g>
    <g id="xtick_14">
     <g id="line2d_14">
      <g>
       <use xlink:href="#m55ceb1bc68" x="213.733024" y="190.4328" style="stroke: #000000; stroke-width: 0.6"/>
      </g>
     </g>
    </g>
    <g id="xtick_15">
     <g id="line2d_15">
      <g>
       <use xlink:href="#m55ceb1bc68" x="220.765423" y="190.4328" style="stroke: #000000; stroke-width: 0.6"/>
      </g>
     </g>
    </g>
    <g id="xtick_16">
     <g id="line2d_16">
      <g>
       <use xlink:href="#m55ceb1bc68" x="226.968439" y="190.4328" style="stroke: #000000; stroke-width: 0.6"/>
      </g>
     </g>
    </g>
    <g id="xtick_17">
     <g id="line2d_17">
      <g>
       <use xlink:href="#m55ceb1bc68" x="269.021659" y="190.4328" style="stroke: #000000; stroke-width: 0.6"/>
      </g>
     </g>
    </g>
    <g id="xtick_18">
     <g id="line2d_18">
      <g>
       <use xlink:href="#m55ceb1bc68" x="290.375383" y="190.4328" style="stroke: #000000; stroke-width: 0.6"/>
      </g>
     </g>
    </g>
    <g id="xtick_19">
     <g id="line2d_19">
      <g>
       <use xlink:href="#m55ceb1bc68" x="305.526092" y="190.4328" style="stroke: #000000; stroke-width: 0.6"/>
      </g>
     </g>
    </g>
    <g id="xtick_20">
     <g id="line2d_20">
      <g>
       <use xlink:href="#m55ceb1bc68" x="317.277894" y="190.4328" style="stroke: #000000; stroke-width: 0.6"/>
      </g>
     </g>
    </g>
    <g id="xtick_21">
     <g id="line2d_21">
      <g>
       <use xlink:href="#m55ceb1bc68" x="326.879816" y="190.4328" style="stroke: #000000; stroke-width: 0.6"/>
      </g>
     </g>
    </g>
    <g id="xtick_22">
     <g id="line2d_22">
      <g>
       <use xlink:href="#m55ceb1bc68" x="334.998125" y="190.4328" style="stroke: #000000; stroke-width: 0.6"/>
      </g>
     </g>
    </g>
    <g id="xtick_23">
     <g id="line2d_23">
      <g>
       <use xlink:href="#m55ceb1bc68" x="342.030524" y="190.4328" style="stroke: #000000; stroke-width: 0.6"/>
      </g>
     </g>
    </g>
    <g id="xtick_24">
     <g id="line2d_24">
      <g>
       <use xlink:href="#m55ceb1bc68" x="348.23354" y="190.4328" style="stroke: #000000; stroke-width: 0.6"/>
      </g>
     </g>
    </g>
   </g>
   <g id="matplotlib.axis_2">
    <g id="ytick_1">
     <g id="line2d_25">
      <defs>
       <path id="m3d423d3527" d="M 0 0 
L -3.5 0 
" style="stroke: #000000; stroke-width: 0.8"/>
      </defs>
      <g>
       <use xlink:href="#m3d423d3527" x="60.221389" y="92.213812" style="stroke: #000000; stroke-width: 0.8"/>
      </g>
     </g>
     <g id="text_1">
      <!-- $\mathdefault{10^{-12}}$ -->
      <g transform="translate(25.321389 96.013031) scale(0.1 -0.1)">
       <defs>
        <path id="DejaVuSans-31" d="M 794 531 
L 1825 531 
L 1825 4091 
L 703 3866 
L 703 4441 
L 1819 4666 
L 2450 4666 
L 2450 531 
L 3481 531 
L 3481 0 
L 794 0 
L 794 531 
z
" transform="scale(0.015625)"/>
        <path id="DejaVuSans-30" d="M 2034 4250 
Q 1547 4250 1301 3770 
Q 1056 3291 1056 2328 
Q 1056 1369 1301 889 
Q 1547 409 2034 409 
Q 2525 409 2770 889 
Q 3016 1369 3016 2328 
Q 3016 3291 2770 3770 
Q 2525 4250 2034 4250 
z
M 2034 4750 
Q 2819 4750 3233 4129 
Q 3647 3509 3647 2328 
Q 3647 1150 3233 529 
Q 2819 -91 2034 -91 
Q 1250 -91 836 529 
Q 422 1150 422 2328 
Q 422 3509 836 4129 
Q 1250 4750 2034 4750 
z
" transform="scale(0.015625)"/>
        <path id="DejaVuSans-2212" d="M 678 2272 
L 4684 2272 
L 4684 1741 
L 678 1741 
L 678 2272 
z
" transform="scale(0.015625)"/>
        <path id="DejaVuSans-32" d="M 1228 531 
L 3431 531 
L 3431 0 
L 469 0 
L 469 531 
Q 828 903 1448 1529 
Q 2069 2156 2228 2338 
Q 2531 2678 2651 2914 
Q 2772 3150 2772 3378 
Q 2772 3750 2511 3984 
Q 2250 4219 1831 4219 
Q 1534 4219 1204 4116 
Q 875 4013 500 3803 
L 500 4441 
Q 881 4594 1212 4672 
Q 1544 4750 1819 4750 
Q 2544 4750 2975 4387 
Q 3406 4025 3406 3419 
Q 3406 3131 3298 2873 
Q 3191 2616 2906 2266 
Q 2828 2175 2409 1742 
Q 1991 1309 1228 531 
z
" transform="scale(0.015625)"/>
       </defs>
       <use xlink:href="#DejaVuSans-31" transform="translate(0 0.765625)"/>
       <use xlink:href="#DejaVuSans-30" transform="translate(63.623047 0.765625)"/>
       <use xlink:href="#DejaVuSans-2212" transform="translate(128.203125 39.046875) scale(0.7)"/>
       <use xlink:href="#DejaVuSans-31" transform="translate(186.855469 39.046875) scale(0.7)"/>
       <use xlink:href="#DejaVuSans-32" transform="translate(231.391602 39.046875) scale(0.7)"/>
      </g>
     </g>
    </g>
    <g id="ytick_2">
     <g id="line2d_26">
      <defs>
       <path id="ma9050fe403" d="M 0 0 
L -2 0 
" style="stroke: #000000; stroke-width: 0.6"/>
      </defs>
      <g>
       <use xlink:href="#ma9050fe403" x="60.221389" y="189.360796" style="stroke: #000000; stroke-width: 0.6"/>
      </g>
     </g>
    </g>
    <g id="ytick_3">
     <g id="line2d_27">
      <g>
       <use xlink:href="#ma9050fe403" x="60.221389" y="164.886592" style="stroke: #000000; stroke-width: 0.6"/>
      </g>
     </g>
    </g>
    <g id="ytick_4">
     <g id="line2d_28">
      <g>
       <use xlink:href="#ma9050fe403" x="60.221389" y="147.521867" style="stroke: #000000; stroke-width: 0.6"/>
      </g>
     </g>
    </g>
    <g id="ytick_5">
     <g id="line2d_29">
      <g>
       <use xlink:href="#ma9050fe403" x="60.221389" y="134.052741" style="stroke: #000000; stroke-width: 0.6"/>
      </g>
     </g>
    </g>
    <g id="ytick_6">
     <g id="line2d_30">
      <g>
       <use xlink:href="#ma9050fe403" x="60.221389" y="123.047663" style="stroke: #000000; stroke-width: 0.6"/>
      </g>
     </g>
    </g>
    <g id="ytick_7">
     <g id="line2d_31">
      <g>
       <use xlink:href="#ma9050fe403" x="60.221389" y="113.743002" style="stroke: #000000; stroke-width: 0.6"/>
      </g>
     </g>
    </g>
    <g id="ytick_8">
     <g id="line2d_32">
      <g>
       <use xlink:href="#ma9050fe403" x="60.221389" y="105.682939" style="stroke: #000000; stroke-width: 0.6"/>
      </g>
     </g>
    </g>
    <g id="ytick_9">
     <g id="line2d_33">
      <g>
       <use xlink:href="#ma9050fe403" x="60.221389" y="98.573459" style="stroke: #000000; stroke-width: 0.6"/>
      </g>
     </g>
    </g>
    <g id="ytick_10">
     <g id="line2d_34">
      <g>
       <use xlink:href="#ma9050fe403" x="60.221389" y="50.374883" style="stroke: #000000; stroke-width: 0.6"/>
      </g>
     </g>
    </g>
    <g id="ytick_11">
     <g id="line2d_35">
      <g>
       <use xlink:href="#ma9050fe403" x="60.221389" y="25.900679" style="stroke: #000000; stroke-width: 0.6"/>
      </g>
     </g>
    </g>
    <g id="text_2">
     <!-- e2 * dnde [TeV / (cm2 s)] -->
     <g transform="translate(19.241702 170.416088) rotate(-90) scale(0.1 -0.1)">
      <defs>
       <path id="DejaVuSans-65" d="M 3597 1894 
L 3597 1613 
L 953 1613 
Q 991 1019 1311 708 
Q 1631 397 2203 397 
Q 2534 397 2845 478 
Q 3156 559 3463 722 
L 3463 178 
Q 3153 47 2828 -22 
Q 2503 -91 2169 -91 
Q 1331 -91 842 396 
Q 353 884 353 1716 
Q 353 2575 817 3079 
Q 1281 3584 2069 3584 
Q 2775 3584 3186 3129 
Q 3597 2675 3597 1894 
z
M 3022 2063 
Q 3016 2534 2758 2815 
Q 2500 3097 2075 3097 
Q 1594 3097 1305 2825 
Q 1016 2553 972 2059 
L 3022 2063 
z
" transform="scale(0.015625)"/>
       <path id="DejaVuSans-20" transform="scale(0.015625)"/>
       <path id="DejaVuSans-2a" d="M 3009 3897 
L 1888 3291 
L 3009 2681 
L 2828 2375 
L 1778 3009 
L 1778 1831 
L 1422 1831 
L 1422 3009 
L 372 2375 
L 191 2681 
L 1313 3291 
L 191 3897 
L 372 4206 
L 1422 3572 
L 1422 4750 
L 1778 4750 
L 1778 3572 
L 2828 4206 
L 3009 3897 
z
" transform="scale(0.015625)"/>
       <path id="DejaVuSans-64" d="M 2906 2969 
L 2906 4863 
L 3481 4863 
L 3481 0 
L 2906 0 
L 2906 525 
Q 2725 213 2448 61 
Q 2172 -91 1784 -91 
Q 1150 -91 751 415 
Q 353 922 353 1747 
Q 353 2572 751 3078 
Q 1150 3584 1784 3584 
Q 2172 3584 2448 3432 
Q 2725 3281 2906 2969 
z
M 947 1747 
Q 947 1113 1208 752 
Q 1469 391 1925 391 
Q 2381 391 2643 752 
Q 2906 1113 2906 1747 
Q 2906 2381 2643 2742 
Q 2381 3103 1925 3103 
Q 1469 3103 1208 2742 
Q 947 2381 947 1747 
z
" transform="scale(0.015625)"/>
       <path id="DejaVuSans-6e" d="M 3513 2113 
L 3513 0 
L 2938 0 
L 2938 2094 
Q 2938 2591 2744 2837 
Q 2550 3084 2163 3084 
Q 1697 3084 1428 2787 
Q 1159 2491 1159 1978 
L 1159 0 
L 581 0 
L 581 3500 
L 1159 3500 
L 1159 2956 
Q 1366 3272 1645 3428 
Q 1925 3584 2291 3584 
Q 2894 3584 3203 3211 
Q 3513 2838 3513 2113 
z
" transform="scale(0.015625)"/>
       <path id="DejaVuSans-5b" d="M 550 4863 
L 1875 4863 
L 1875 4416 
L 1125 4416 
L 1125 -397 
L 1875 -397 
L 1875 -844 
L 550 -844 
L 550 4863 
z
" transform="scale(0.015625)"/>
       <path id="DejaVuSans-54" d="M -19 4666 
L 3928 4666 
L 3928 4134 
L 2272 4134 
L 2272 0 
L 1638 0 
L 1638 4134 
L -19 4134 
L -19 4666 
z
" transform="scale(0.015625)"/>
       <path id="DejaVuSans-56" d="M 1831 0 
L 50 4666 
L 709 4666 
L 2188 738 
L 3669 4666 
L 4325 4666 
L 2547 0 
L 1831 0 
z
" transform="scale(0.015625)"/>
       <path id="DejaVuSans-2f" d="M 1625 4666 
L 2156 4666 
L 531 -594 
L 0 -594 
L 1625 4666 
z
" transform="scale(0.015625)"/>
       <path id="DejaVuSans-28" d="M 1984 4856 
Q 1566 4138 1362 3434 
Q 1159 2731 1159 2009 
Q 1159 1288 1364 580 
Q 1569 -128 1984 -844 
L 1484 -844 
Q 1016 -109 783 600 
Q 550 1309 550 2009 
Q 550 2706 781 3412 
Q 1013 4119 1484 4856 
L 1984 4856 
z
" transform="scale(0.015625)"/>
       <path id="DejaVuSans-63" d="M 3122 3366 
L 3122 2828 
Q 2878 2963 2633 3030 
Q 2388 3097 2138 3097 
Q 1578 3097 1268 2742 
Q 959 2388 959 1747 
Q 959 1106 1268 751 
Q 1578 397 2138 397 
Q 2388 397 2633 464 
Q 2878 531 3122 666 
L 3122 134 
Q 2881 22 2623 -34 
Q 2366 -91 2075 -91 
Q 1284 -91 818 406 
Q 353 903 353 1747 
Q 353 2603 823 3093 
Q 1294 3584 2113 3584 
Q 2378 3584 2631 3529 
Q 2884 3475 3122 3366 
z
" transform="scale(0.015625)"/>
       <path id="DejaVuSans-6d" d="M 3328 2828 
Q 3544 3216 3844 3400 
Q 4144 3584 4550 3584 
Q 5097 3584 5394 3201 
Q 5691 2819 5691 2113 
L 5691 0 
L 5113 0 
L 5113 2094 
Q 5113 2597 4934 2840 
Q 4756 3084 4391 3084 
Q 3944 3084 3684 2787 
Q 3425 2491 3425 1978 
L 3425 0 
L 2847 0 
L 2847 2094 
Q 2847 2600 2669 2842 
Q 2491 3084 2119 3084 
Q 1678 3084 1418 2786 
Q 1159 2488 1159 1978 
L 1159 0 
L 581 0 
L 581 3500 
L 1159 3500 
L 1159 2956 
Q 1356 3278 1631 3431 
Q 1906 3584 2284 3584 
Q 2666 3584 2933 3390 
Q 3200 3197 3328 2828 
z
" transform="scale(0.015625)"/>
       <path id="DejaVuSans-73" d="M 2834 3397 
L 2834 2853 
Q 2591 2978 2328 3040 
Q 2066 3103 1784 3103 
Q 1356 3103 1142 2972 
Q 928 2841 928 2578 
Q 928 2378 1081 2264 
Q 1234 2150 1697 2047 
L 1894 2003 
Q 2506 1872 2764 1633 
Q 3022 1394 3022 966 
Q 3022 478 2636 193 
Q 2250 -91 1575 -91 
Q 1294 -91 989 -36 
Q 684 19 347 128 
L 347 722 
Q 666 556 975 473 
Q 1284 391 1588 391 
Q 1994 391 2212 530 
Q 2431 669 2431 922 
Q 2431 1156 2273 1281 
Q 2116 1406 1581 1522 
L 1381 1569 
Q 847 1681 609 1914 
Q 372 2147 372 2553 
Q 372 3047 722 3315 
Q 1072 3584 1716 3584 
Q 2034 3584 2315 3537 
Q 2597 3491 2834 3397 
z
" transform="scale(0.015625)"/>
       <path id="DejaVuSans-29" d="M 513 4856 
L 1013 4856 
Q 1481 4119 1714 3412 
Q 1947 2706 1947 2009 
Q 1947 1309 1714 600 
Q 1481 -109 1013 -844 
L 513 -844 
Q 928 -128 1133 580 
Q 1338 1288 1338 2009 
Q 1338 2731 1133 3434 
Q 928 4138 513 4856 
z
" transform="scale(0.015625)"/>
       <path id="DejaVuSans-5d" d="M 1947 4863 
L 1947 -844 
L 622 -844 
L 622 -397 
L 1369 -397 
L 1369 4416 
L 622 4416 
L 622 4863 
L 1947 4863 
z
" transform="scale(0.015625)"/>
      </defs>
      <use xlink:href="#DejaVuSans-65"/>
      <use xlink:href="#DejaVuSans-32" x="61.523438"/>
      <use xlink:href="#DejaVuSans-20" x="125.146484"/>
      <use xlink:href="#DejaVuSans-2a" x="156.933594"/>
      <use xlink:href="#DejaVuSans-20" x="206.933594"/>
      <use xlink:href="#DejaVuSans-64" x="238.720703"/>
      <use xlink:href="#DejaVuSans-6e" x="302.197266"/>
      <use xlink:href="#DejaVuSans-64" x="365.576172"/>
      <use xlink:href="#DejaVuSans-65" x="429.052734"/>
      <use xlink:href="#DejaVuSans-20" x="490.576172"/>
      <use xlink:href="#DejaVuSans-5b" x="522.363281"/>
      <use xlink:href="#DejaVuSans-54" x="561.376953"/>
      <use xlink:href="#DejaVuSans-65" x="605.460938"/>
      <use xlink:href="#DejaVuSans-56" x="666.984375"/>
      <use xlink:href="#DejaVuSans-20" x="735.392578"/>
      <use xlink:href="#DejaVuSans-2f" x="767.179688"/>
      <use xlink:href="#DejaVuSans-20" x="800.871094"/>
      <use xlink:href="#DejaVuSans-28" x="832.658203"/>
      <use xlink:href="#DejaVuSans-63" x="871.671875"/>
      <use xlink:href="#DejaVuSans-6d" x="926.652344"/>
      <use xlink:href="#DejaVuSans-32" x="1024.064453"/>
      <use xlink:href="#DejaVuSans-20" x="1087.6875"/>
      <use xlink:href="#DejaVuSans-73" x="1119.474609"/>
      <use xlink:href="#DejaVuSans-29" x="1171.574219"/>
      <use xlink:href="#DejaVuSans-5d" x="1210.587891"/>
     </g>
    </g>
   </g>
   <g id="line2d_36">
    <path d="M 74.645222 79.6269 
L 77.222106 80.512935 
L 79.798989 81.398971 
L 82.375873 82.285006 
L 84.952756 83.171041 
L 87.529639 84.057076 
L 90.106523 84.943111 
L 92.683406 85.829147 
L 95.26029 86.715182 
L 97.837173 87.601217 
L 100.414056 88.487252 
L 102.99094 89.373287 
L 105.567823 90.259323 
L 108.144707 91.145358 
L 110.72159 92.031393 
L 113.298473 92.917428 
L 115.875357 93.803463 
L 118.45224 94.689499 
L 121.029124 95.575534 
L 123.606007 96.461569 
L 126.18289 97.347604 
L 128.759774 98.233639 
L 131.336657 99.119675 
L 133.913541 100.00571 
L 136.490424 100.891745 
L 139.067307 101.77778 
L 141.644191 102.663815 
L 144.221074 103.549851 
L 146.797958 104.435886 
L 149.374841 105.321921 
L 151.951724 106.207956 
L 154.528608 107.093991 
L 157.105491 107.980026 
L 159.682375 108.866062 
L 162.259258 109.752097 
L 164.836141 110.638132 
L 167.413025 111.524167 
L 169.989908 112.410202 
L 172.566792 113.296238 
L 175.143675 114.182273 
L 177.720558 115.068308 
L 180.297442 115.954343 
L 182.874325 116.840378 
L 185.451209 117.726414 
L 188.028092 118.612449 
L 190.604975 119.498484 
L 193.181859 120.384519 
L 195.758742 121.270554 
L 198.335626 122.15659 
L 200.912509 123.042625 
L 203.489392 123.92866 
L 206.066276 124.814695 
L 208.643159 125.70073 
L 211.220042 126.586766 
L 213.796926 127.472801 
L 216.373809 128.358836 
L 218.950693 129.244871 
L 221.527576 130.130906 
L 224.104459 131.016942 
L 226.681343 131.902977 
L 229.258226 132.789012 
L 231.83511 133.675047 
L 234.411993 134.561082 
L 236.988876 135.447117 
L 239.56576 136.333153 
L 242.142643 137.219188 
L 244.719527 138.105223 
L 247.29641 138.991258 
L 249.873293 139.877293 
L 252.450177 140.763329 
L 255.02706 141.649364 
L 257.603944 142.535399 
L 260.180827 143.421434 
L 262.75771 144.307469 
L 265.334594 145.193505 
L 267.911477 146.07954 
L 270.488361 146.965575 
L 273.065244 147.85161 
L 275.642127 148.737645 
L 278.219011 149.623681 
L 280.795894 150.509716 
L 283.372778 151.395751 
L 285.949661 152.281786 
L 288.526544 153.167821 
L 291.103428 154.053857 
L 293.680311 154.939892 
L 296.257195 155.825927 
L 298.834078 156.711962 
L 301.410961 157.597997 
L 303.987845 158.484033 
L 306.564728 159.370068 
L 309.141612 160.256103 
L 311.718495 161.142138 
L 314.295378 162.028173 
L 316.872262 162.914209 
L 319.449145 163.800244 
L 322.026029 164.686279 
L 324.602912 165.572314 
L 327.179795 166.458349 
L 329.756679 167.344384 
" clip-path="url(#pf99813b722)" style="fill: none; stroke-dasharray: 1.5,2.475; stroke-dashoffset: 0; stroke: #000000; stroke-width: 1.5"/>
   </g>
   <g id="LineCollection_1">
    <path clip-path="url(#pf99813b722)" style="fill: none; stroke: #006400; stroke-width: 1.5"/>
    <path clip-path="url(#pf99813b722)" style="fill: none; stroke: #006400; stroke-width: 1.5"/>
    <path clip-path="url(#pf99813b722)" style="fill: none; stroke: #006400; stroke-width: 1.5"/>
    <path clip-path="url(#pf99813b722)" style="fill: none; stroke: #006400; stroke-width: 1.5"/>
    <path clip-path="url(#pf99813b722)" style="fill: none; stroke: #006400; stroke-width: 1.5"/>
    <path d="M 73.356781 361 
L 73.356781 35.454865 
" clip-path="url(#pf99813b722)" style="fill: none; stroke: #006400; stroke-width: 1.5"/>
    <path d="M 88.514918 117.444223 
L 88.514918 63.161356 
" clip-path="url(#pf99813b722)" style="fill: none; stroke: #006400; stroke-width: 1.5"/>
    <path d="M 103.673056 105.694012 
L 103.673056 76.919027 
" clip-path="url(#pf99813b722)" style="fill: none; stroke: #006400; stroke-width: 1.5"/>
    <path d="M 118.831194 108.934104 
L 118.831194 83.38837 
" clip-path="url(#pf99813b722)" style="fill: none; stroke: #006400; stroke-width: 1.5"/>
    <path d="M 133.989331 114.17786 
L 133.989331 88.579564 
" clip-path="url(#pf99813b722)" style="fill: none; stroke: #006400; stroke-width: 1.5"/>
    <path d="M 149.147469 119.778417 
L 149.147469 93.538606 
" clip-path="url(#pf99813b722)" style="fill: none; stroke: #006400; stroke-width: 1.5"/>
    <path d="M 164.305607 125.802953 
L 164.305607 98.230259 
" clip-path="url(#pf99813b722)" style="fill: none; stroke: #006400; stroke-width: 1.5"/>
    <path d="M 179.463744 132.232207 
L 179.463744 102.68381 
" clip-path="url(#pf99813b722)" style="fill: none; stroke: #006400; stroke-width: 1.5"/>
    <path d="M 194.621882 138.752476 
L 194.621882 107.107713 
" clip-path="url(#pf99813b722)" style="fill: none; stroke: #006400; stroke-width: 1.5"/>
    <path d="M 209.780019 145.862259 
L 209.780019 111.223648 
" clip-path="url(#pf99813b722)" style="fill: none; stroke: #006400; stroke-width: 1.5"/>
    <path d="M 224.938157 153.609959 
L 224.938157 115.052712 
" clip-path="url(#pf99813b722)" style="fill: none; stroke: #006400; stroke-width: 1.5"/>
    <path d="M 240.096295 161.845976 
L 240.096295 118.727259 
" clip-path="url(#pf99813b722)" style="fill: none; stroke: #006400; stroke-width: 1.5"/>
    <path d="M 255.254432 171.071319 
L 255.254432 122.067803 
" clip-path="url(#pf99813b722)" style="fill: none; stroke: #006400; stroke-width: 1.5"/>
    <path d="M 270.41257 181.499809 
L 270.41257 125.100564 
" clip-path="url(#pf99813b722)" style="fill: none; stroke: #006400; stroke-width: 1.5"/>
    <path d="M 285.570708 192.780155 
L 285.570708 128.086156 
" clip-path="url(#pf99813b722)" style="fill: none; stroke: #006400; stroke-width: 1.5"/>
    <path d="M 300.728845 206.218794 
L 300.728845 130.720692 
" clip-path="url(#pf99813b722)" style="fill: none; stroke: #006400; stroke-width: 1.5"/>
    <path d="M 315.886983 224.152249 
L 315.886983 132.735121 
" clip-path="url(#pf99813b722)" style="fill: none; stroke: #006400; stroke-width: 1.5"/>
    <path d="M 331.04512 254.827607 
L 331.04512 133.543134 
" clip-path="url(#pf99813b722)" style="fill: none; stroke: #006400; stroke-width: 1.5"/>
    <path clip-path="url(#pf99813b722)" style="fill: none; stroke: #006400; stroke-width: 1.5"/>
   </g>
   <g id="LineCollection_2">
    <path clip-path="url(#pf99813b722)" style="fill: none; stroke: #8b0000; stroke-width: 1.5"/>
    <path clip-path="url(#pf99813b722)" style="fill: none; stroke: #8b0000; stroke-width: 1.5"/>
    <path clip-path="url(#pf99813b722)" style="fill: none; stroke: #8b0000; stroke-width: 1.5"/>
    <path clip-path="url(#pf99813b722)" style="fill: none; stroke: #8b0000; stroke-width: 1.5"/>
    <path clip-path="url(#pf99813b722)" style="fill: none; stroke: #8b0000; stroke-width: 1.5"/>
    <path d="M 75.926303 361 
L 75.926303 35.601339 
" clip-path="url(#pf99813b722)" style="fill: none; stroke: #8b0000; stroke-width: 1.5"/>
    <path d="M 91.084441 116.113339 
L 91.084441 63.71134 
" clip-path="url(#pf99813b722)" style="fill: none; stroke: #8b0000; stroke-width: 1.5"/>
    <path d="M 106.242579 103.740261 
L 106.242579 78.164558 
" clip-path="url(#pf99813b722)" style="fill: none; stroke: #8b0000; stroke-width: 1.5"/>
    <path d="M 121.400716 106.778155 
L 121.400716 84.843324 
" clip-path="url(#pf99813b722)" style="fill: none; stroke: #8b0000; stroke-width: 1.5"/>
    <path d="M 136.558854 112.048452 
L 136.558854 90.014775 
" clip-path="url(#pf99813b722)" style="fill: none; stroke: #8b0000; stroke-width: 1.5"/>
    <path d="M 151.716991 117.736909 
L 151.716991 94.898181 
" clip-path="url(#pf99813b722)" style="fill: none; stroke: #8b0000; stroke-width: 1.5"/>
    <path d="M 166.875129 123.885768 
L 166.875129 99.476697 
" clip-path="url(#pf99813b722)" style="fill: none; stroke: #8b0000; stroke-width: 1.5"/>
    <path d="M 182.033267 130.443471 
L 182.033267 103.806955 
" clip-path="url(#pf99813b722)" style="fill: none; stroke: #8b0000; stroke-width: 1.5"/>
    <path d="M 197.191404 137.091202 
L 197.191404 108.113162 
" clip-path="url(#pf99813b722)" style="fill: none; stroke: #8b0000; stroke-width: 1.5"/>
    <path d="M 212.349542 144.31028 
L 212.349542 112.115876 
" clip-path="url(#pf99813b722)" style="fill: none; stroke: #8b0000; stroke-width: 1.5"/>
    <path d="M 227.50768 152.14797 
L 227.50768 115.839063 
" clip-path="url(#pf99813b722)" style="fill: none; stroke: #8b0000; stroke-width: 1.5"/>
    <path d="M 242.665817 160.464023 
L 242.665817 119.415421 
" clip-path="url(#pf99813b722)" style="fill: none; stroke: #8b0000; stroke-width: 1.5"/>
    <path d="M 257.823955 169.761123 
L 257.823955 122.658826 
" clip-path="url(#pf99813b722)" style="fill: none; stroke: #8b0000; stroke-width: 1.5"/>
    <path d="M 272.982092 180.242604 
L 272.982092 125.601684 
" clip-path="url(#pf99813b722)" style="fill: none; stroke: #8b0000; stroke-width: 1.5"/>
    <path d="M 288.14023 191.548412 
L 288.14023 128.513743 
" clip-path="url(#pf99813b722)" style="fill: none; stroke: #8b0000; stroke-width: 1.5"/>
    <path d="M 303.298368 204.978045 
L 303.298368 131.080643 
" clip-path="url(#pf99813b722)" style="fill: none; stroke: #8b0000; stroke-width: 1.5"/>
    <path d="M 318.456505 222.828105 
L 318.456505 133.030232 
" clip-path="url(#pf99813b722)" style="fill: none; stroke: #8b0000; stroke-width: 1.5"/>
    <path d="M 333.614643 253.144646 
L 333.614643 133.772309 
" clip-path="url(#pf99813b722)" style="fill: none; stroke: #8b0000; stroke-width: 1.5"/>
    <path clip-path="url(#pf99813b722)" style="fill: none; stroke: #8b0000; stroke-width: 1.5"/>
   </g>
   <g id="LineCollection_3">
    <path clip-path="url(#pf99813b722)" style="fill: none; stroke: #1f77b4; stroke-width: 1.5"/>
    <path clip-path="url(#pf99813b722)" style="fill: none; stroke: #1f77b4; stroke-width: 1.5"/>
    <path clip-path="url(#pf99813b722)" style="fill: none; stroke: #1f77b4; stroke-width: 1.5"/>
    <path clip-path="url(#pf99813b722)" style="fill: none; stroke: #1f77b4; stroke-width: 1.5"/>
    <path clip-path="url(#pf99813b722)" style="fill: none; stroke: #1f77b4; stroke-width: 1.5"/>
    <path d="M 78.376269 361 
L 78.376269 32.939673 
" clip-path="url(#pf99813b722)" style="fill: none; stroke: #1f77b4; stroke-width: 1.5"/>
    <path d="M 93.534407 116.422102 
L 93.534407 61.799865 
" clip-path="url(#pf99813b722)" style="fill: none; stroke: #1f77b4; stroke-width: 1.5"/>
    <path d="M 108.692544 104.905528 
L 108.692544 75.96878 
" clip-path="url(#pf99813b722)" style="fill: none; stroke: #1f77b4; stroke-width: 1.5"/>
    <path d="M 123.850682 107.809515 
L 123.850682 82.562548 
" clip-path="url(#pf99813b722)" style="fill: none; stroke: #1f77b4; stroke-width: 1.5"/>
    <path d="M 139.008819 113.72711 
L 139.008819 87.439195 
" clip-path="url(#pf99813b722)" style="fill: none; stroke: #1f77b4; stroke-width: 1.5"/>
    <path d="M 154.166957 118.334485 
L 154.166957 92.40436 
" clip-path="url(#pf99813b722)" style="fill: none; stroke: #1f77b4; stroke-width: 1.5"/>
    <path d="M 169.325095 125.155483 
L 169.325095 97.072219 
" clip-path="url(#pf99813b722)" style="fill: none; stroke: #1f77b4; stroke-width: 1.5"/>
    <path d="M 184.483232 130.143834 
L 184.483232 102.042412 
" clip-path="url(#pf99813b722)" style="fill: none; stroke: #1f77b4; stroke-width: 1.5"/>
    <path d="M 199.64137 138.020585 
L 199.64137 105.600413 
" clip-path="url(#pf99813b722)" style="fill: none; stroke: #1f77b4; stroke-width: 1.5"/>
    <path d="M 214.799508 145.400306 
L 214.799508 109.98637 
" clip-path="url(#pf99813b722)" style="fill: none; stroke: #1f77b4; stroke-width: 1.5"/>
    <path d="M 229.957645 155.050964 
L 229.957645 114.328459 
" clip-path="url(#pf99813b722)" style="fill: none; stroke: #1f77b4; stroke-width: 1.5"/>
    <path d="M 245.115783 159.510273 
L 245.115783 117.856742 
" clip-path="url(#pf99813b722)" style="fill: none; stroke: #1f77b4; stroke-width: 1.5"/>
    <path d="M 260.27392 171.482247 
L 260.27392 122.283515 
" clip-path="url(#pf99813b722)" style="fill: none; stroke: #1f77b4; stroke-width: 1.5"/>
    <path d="M 275.432058 180.606535 
L 275.432058 124.516467 
" clip-path="url(#pf99813b722)" style="fill: none; stroke: #1f77b4; stroke-width: 1.5"/>
    <path d="M 290.590196 191.548939 
L 290.590196 127.821811 
" clip-path="url(#pf99813b722)" style="fill: none; stroke: #1f77b4; stroke-width: 1.5"/>
    <path d="M 305.748333 206.640782 
L 305.748333 128.245584 
" clip-path="url(#pf99813b722)" style="fill: none; stroke: #1f77b4; stroke-width: 1.5"/>
    <path d="M 320.906471 223.314517 
L 320.906471 131.576539 
" clip-path="url(#pf99813b722)" style="fill: none; stroke: #1f77b4; stroke-width: 1.5"/>
    <path d="M 336.064609 361 
L 336.064609 128.840054 
" clip-path="url(#pf99813b722)" style="fill: none; stroke: #1f77b4; stroke-width: 1.5"/>
    <path clip-path="url(#pf99813b722)" style="fill: none; stroke: #1f77b4; stroke-width: 1.5"/>
   </g>
   <g id="line2d_37">
    <defs>
     <path id="m118461a3af" d="M -3 3 
L 3 -3 
M -3 -3 
L 3 3 
" style="stroke: #006400"/>
    </defs>
    <g clip-path="url(#pf99813b722)">
     <use xlink:href="#m118461a3af" x="73.356781" y="79.183797" style="fill: #006400; stroke: #006400"/>
     <use xlink:href="#m118461a3af" x="88.514918" y="84.395854" style="fill: #006400; stroke: #006400"/>
     <use xlink:href="#m118461a3af" x="103.673056" y="89.607826" style="fill: #006400; stroke: #006400"/>
     <use xlink:href="#m118461a3af" x="118.831194" y="94.81978" style="fill: #006400; stroke: #006400"/>
     <use xlink:href="#m118461a3af" x="133.989331" y="100.03177" style="fill: #006400; stroke: #006400"/>
     <use xlink:href="#m118461a3af" x="149.147469" y="105.243741" style="fill: #006400; stroke: #006400"/>
     <use xlink:href="#m118461a3af" x="164.305607" y="110.455713" style="fill: #006400; stroke: #006400"/>
     <use xlink:href="#m118461a3af" x="179.463744" y="115.667678" style="fill: #006400; stroke: #006400"/>
     <use xlink:href="#m118461a3af" x="194.621882" y="120.879657" style="fill: #006400; stroke: #006400"/>
     <use xlink:href="#m118461a3af" x="209.780019" y="126.091606" style="fill: #006400; stroke: #006400"/>
     <use xlink:href="#m118461a3af" x="224.938157" y="131.3036" style="fill: #006400; stroke: #006400"/>
     <use xlink:href="#m118461a3af" x="240.096295" y="136.515572" style="fill: #006400; stroke: #006400"/>
     <use xlink:href="#m118461a3af" x="255.254432" y="141.727515" style="fill: #006400; stroke: #006400"/>
     <use xlink:href="#m118461a3af" x="270.41257" y="146.939515" style="fill: #006400; stroke: #006400"/>
     <use xlink:href="#m118461a3af" x="285.570708" y="152.151487" style="fill: #006400; stroke: #006400"/>
     <use xlink:href="#m118461a3af" x="300.728845" y="157.363459" style="fill: #006400; stroke: #006400"/>
     <use xlink:href="#m118461a3af" x="315.886983" y="162.575423" style="fill: #006400; stroke: #006400"/>
     <use xlink:href="#m118461a3af" x="331.04512" y="167.787402" style="fill: #006400; stroke: #006400"/>
    </g>
   </g>
   <g id="line2d_38">
    <defs>
     <path id="m039b600e91" d="M -3 3 
L 3 -3 
M -3 -3 
L 3 3 
" style="stroke: #8b0000"/>
    </defs>
    <g clip-path="url(#pf99813b722)">
     <use xlink:href="#m039b600e91" x="75.926303" y="79.184059" style="fill: #8b0000; stroke: #8b0000"/>
     <use xlink:href="#m039b600e91" x="91.084441" y="84.395854" style="fill: #8b0000; stroke: #8b0000"/>
     <use xlink:href="#m039b600e91" x="106.242579" y="89.607826" style="fill: #8b0000; stroke: #8b0000"/>
     <use xlink:href="#m039b600e91" x="121.400716" y="94.819798" style="fill: #8b0000; stroke: #8b0000"/>
     <use xlink:href="#m039b600e91" x="136.558854" y="100.03177" style="fill: #8b0000; stroke: #8b0000"/>
     <use xlink:href="#m039b600e91" x="151.716991" y="105.243741" style="fill: #8b0000; stroke: #8b0000"/>
     <use xlink:href="#m039b600e91" x="166.875129" y="110.455713" style="fill: #8b0000; stroke: #8b0000"/>
     <use xlink:href="#m039b600e91" x="182.033267" y="115.667685" style="fill: #8b0000; stroke: #8b0000"/>
     <use xlink:href="#m039b600e91" x="197.191404" y="120.879657" style="fill: #8b0000; stroke: #8b0000"/>
     <use xlink:href="#m039b600e91" x="212.349542" y="126.091623" style="fill: #8b0000; stroke: #8b0000"/>
     <use xlink:href="#m039b600e91" x="227.50768" y="131.303594" style="fill: #8b0000; stroke: #8b0000"/>
     <use xlink:href="#m039b600e91" x="242.665817" y="136.515552" style="fill: #8b0000; stroke: #8b0000"/>
     <use xlink:href="#m039b600e91" x="257.823955" y="141.727516" style="fill: #8b0000; stroke: #8b0000"/>
     <use xlink:href="#m039b600e91" x="272.982092" y="146.93951" style="fill: #8b0000; stroke: #8b0000"/>
     <use xlink:href="#m039b600e91" x="288.14023" y="152.151487" style="fill: #8b0000; stroke: #8b0000"/>
     <use xlink:href="#m039b600e91" x="303.298368" y="157.363459" style="fill: #8b0000; stroke: #8b0000"/>
     <use xlink:href="#m039b600e91" x="318.456505" y="162.5754" style="fill: #8b0000; stroke: #8b0000"/>
     <use xlink:href="#m039b600e91" x="333.614643" y="167.787328" style="fill: #8b0000; stroke: #8b0000"/>
    </g>
   </g>
   <g id="line2d_39">
    <path d="M 78.376269 75.86492 
L 93.534407 83.132311 
L 108.692544 88.719487 
L 123.850682 93.875544 
L 139.008819 99.16323 
L 154.166957 103.987598 
L 169.325095 109.495133 
L 184.483232 114.472329 
L 199.64137 119.659536 
L 214.799508 125.132568 
L 229.957645 131.318743 
L 245.115783 135.159604 
L 260.27392 142.003188 
L 275.432058 146.268058 
L 290.590196 151.639053 
L 305.748333 155.52122 
L 320.906471 161.474555 
L 336.064609 169.433184 
" clip-path="url(#pf99813b722)" style="fill: none; stroke: #1f77b4; stroke-width: 1.5; stroke-linecap: square"/>
   </g>
   <g id="patch_3">
    <path d="M 60.221389 190.4328 
L 60.221389 25.44 
" style="fill: none; stroke: #000000; stroke-width: 0.8; stroke-linejoin: miter; stroke-linecap: square"/>
   </g>
   <g id="patch_4">
    <path d="M 349.2 190.4328 
L 349.2 25.44 
" style="fill: none; stroke: #000000; stroke-width: 0.8; stroke-linejoin: miter; stroke-linecap: square"/>
   </g>
   <g id="patch_5">
    <path d="M 60.221389 190.4328 
L 349.2 190.4328 
" style="fill: none; stroke: #000000; stroke-width: 0.8; stroke-linejoin: miter; stroke-linecap: square"/>
   </g>
   <g id="patch_6">
    <path d="M 60.221389 25.44 
L 349.2 25.44 
" style="fill: none; stroke: #000000; stroke-width: 0.8; stroke-linejoin: miter; stroke-linecap: square"/>
   </g>
   <g id="text_3">
    <!-- N = 1000 -->
    <g transform="translate(176.110382 19.44) scale(0.12 -0.12)">
     <defs>
      <path id="DejaVuSans-4e" d="M 628 4666 
L 1478 4666 
L 3547 763 
L 3547 4666 
L 4159 4666 
L 4159 0 
L 3309 0 
L 1241 3903 
L 1241 0 
L 628 0 
L 628 4666 
z
" transform="scale(0.015625)"/>
      <path id="DejaVuSans-3d" d="M 678 2906 
L 4684 2906 
L 4684 2381 
L 678 2381 
L 678 2906 
z
M 678 1631 
L 4684 1631 
L 4684 1100 
L 678 1100 
L 678 1631 
z
" transform="scale(0.015625)"/>
     </defs>
     <use xlink:href="#DejaVuSans-4e"/>
     <use xlink:href="#DejaVuSans-20" x="74.804688"/>
     <use xlink:href="#DejaVuSans-3d" x="106.591797"/>
     <use xlink:href="#DejaVuSans-20" x="190.380859"/>
     <use xlink:href="#DejaVuSans-31" x="222.167969"/>
     <use xlink:href="#DejaVuSans-30" x="285.791016"/>
     <use xlink:href="#DejaVuSans-30" x="349.414062"/>
     <use xlink:href="#DejaVuSans-30" x="413.037109"/>
    </g>
   </g>
   <g id="legend_1">
    <g id="patch_7">
     <path d="M 209.6 92.172813 
L 342.2 92.172813 
Q 344.2 92.172813 344.2 90.172813 
L 344.2 32.44 
Q 344.2 30.44 342.2 30.44 
L 209.6 30.44 
Q 207.6 30.44 207.6 32.44 
L 207.6 90.172813 
Q 207.6 92.172813 209.6 92.172813 
z
" style="fill: #ffffff; opacity: 0.8; stroke: #cccccc; stroke-linejoin: miter"/>
    </g>
    <g id="line2d_40">
     <path d="M 211.6 38.538438 
L 221.6 38.538438 
L 231.6 38.538438 
" style="fill: none; stroke-dasharray: 1.5,2.475; stroke-dashoffset: 0; stroke: #000000; stroke-width: 1.5"/>
    </g>
    <g id="text_4">
     <!-- Input -->
     <g transform="translate(239.6 42.038438) scale(0.1 -0.1)">
      <defs>
       <path id="DejaVuSans-49" d="M 628 4666 
L 1259 4666 
L 1259 0 
L 628 0 
L 628 4666 
z
" transform="scale(0.015625)"/>
       <path id="DejaVuSans-70" d="M 1159 525 
L 1159 -1331 
L 581 -1331 
L 581 3500 
L 1159 3500 
L 1159 2969 
Q 1341 3281 1617 3432 
Q 1894 3584 2278 3584 
Q 2916 3584 3314 3078 
Q 3713 2572 3713 1747 
Q 3713 922 3314 415 
Q 2916 -91 2278 -91 
Q 1894 -91 1617 61 
Q 1341 213 1159 525 
z
M 3116 1747 
Q 3116 2381 2855 2742 
Q 2594 3103 2138 3103 
Q 1681 3103 1420 2742 
Q 1159 2381 1159 1747 
Q 1159 1113 1420 752 
Q 1681 391 2138 391 
Q 2594 391 2855 752 
Q 3116 1113 3116 1747 
z
" transform="scale(0.015625)"/>
       <path id="DejaVuSans-75" d="M 544 1381 
L 544 3500 
L 1119 3500 
L 1119 1403 
Q 1119 906 1312 657 
Q 1506 409 1894 409 
Q 2359 409 2629 706 
Q 2900 1003 2900 1516 
L 2900 3500 
L 3475 3500 
L 3475 0 
L 2900 0 
L 2900 538 
Q 2691 219 2414 64 
Q 2138 -91 1772 -91 
Q 1169 -91 856 284 
Q 544 659 544 1381 
z
M 1991 3584 
L 1991 3584 
z
" transform="scale(0.015625)"/>
       <path id="DejaVuSans-74" d="M 1172 4494 
L 1172 3500 
L 2356 3500 
L 2356 3053 
L 1172 3053 
L 1172 1153 
Q 1172 725 1289 603 
Q 1406 481 1766 481 
L 2356 481 
L 2356 0 
L 1766 0 
Q 1100 0 847 248 
Q 594 497 594 1153 
L 594 3053 
L 172 3053 
L 172 3500 
L 594 3500 
L 594 4494 
L 1172 4494 
z
" transform="scale(0.015625)"/>
      </defs>
      <use xlink:href="#DejaVuSans-49"/>
      <use xlink:href="#DejaVuSans-6e" x="29.492188"/>
      <use xlink:href="#DejaVuSans-70" x="92.871094"/>
      <use xlink:href="#DejaVuSans-75" x="156.347656"/>
      <use xlink:href="#DejaVuSans-74" x="219.726562"/>
     </g>
    </g>
    <g id="LineCollection_4">
     <path d="M 221.6 58.216563 
L 221.6 48.216563 
" style="fill: none; stroke: #006400; stroke-width: 1.5"/>
    </g>
    <g id="line2d_41"/>
    <g id="line2d_42">
     <g>
      <use xlink:href="#m118461a3af" x="221.6" y="53.216563" style="fill: #006400; stroke: #006400"/>
     </g>
    </g>
    <g id="text_5">
     <!-- Fluxpoints Nuisance -->
     <g transform="translate(239.6 56.716563) scale(0.1 -0.1)">
      <defs>
       <path id="DejaVuSans-46" d="M 628 4666 
L 3309 4666 
L 3309 4134 
L 1259 4134 
L 1259 2759 
L 3109 2759 
L 3109 2228 
L 1259 2228 
L 1259 0 
L 628 0 
L 628 4666 
z
" transform="scale(0.015625)"/>
       <path id="DejaVuSans-6c" d="M 603 4863 
L 1178 4863 
L 1178 0 
L 603 0 
L 603 4863 
z
" transform="scale(0.015625)"/>
       <path id="DejaVuSans-78" d="M 3513 3500 
L 2247 1797 
L 3578 0 
L 2900 0 
L 1881 1375 
L 863 0 
L 184 0 
L 1544 1831 
L 300 3500 
L 978 3500 
L 1906 2253 
L 2834 3500 
L 3513 3500 
z
" transform="scale(0.015625)"/>
       <path id="DejaVuSans-6f" d="M 1959 3097 
Q 1497 3097 1228 2736 
Q 959 2375 959 1747 
Q 959 1119 1226 758 
Q 1494 397 1959 397 
Q 2419 397 2687 759 
Q 2956 1122 2956 1747 
Q 2956 2369 2687 2733 
Q 2419 3097 1959 3097 
z
M 1959 3584 
Q 2709 3584 3137 3096 
Q 3566 2609 3566 1747 
Q 3566 888 3137 398 
Q 2709 -91 1959 -91 
Q 1206 -91 779 398 
Q 353 888 353 1747 
Q 353 2609 779 3096 
Q 1206 3584 1959 3584 
z
" transform="scale(0.015625)"/>
       <path id="DejaVuSans-69" d="M 603 3500 
L 1178 3500 
L 1178 0 
L 603 0 
L 603 3500 
z
M 603 4863 
L 1178 4863 
L 1178 4134 
L 603 4134 
L 603 4863 
z
" transform="scale(0.015625)"/>
       <path id="DejaVuSans-61" d="M 2194 1759 
Q 1497 1759 1228 1600 
Q 959 1441 959 1056 
Q 959 750 1161 570 
Q 1363 391 1709 391 
Q 2188 391 2477 730 
Q 2766 1069 2766 1631 
L 2766 1759 
L 2194 1759 
z
M 3341 1997 
L 3341 0 
L 2766 0 
L 2766 531 
Q 2569 213 2275 61 
Q 1981 -91 1556 -91 
Q 1019 -91 701 211 
Q 384 513 384 1019 
Q 384 1609 779 1909 
Q 1175 2209 1959 2209 
L 2766 2209 
L 2766 2266 
Q 2766 2663 2505 2880 
Q 2244 3097 1772 3097 
Q 1472 3097 1187 3025 
Q 903 2953 641 2809 
L 641 3341 
Q 956 3463 1253 3523 
Q 1550 3584 1831 3584 
Q 2591 3584 2966 3190 
Q 3341 2797 3341 1997 
z
" transform="scale(0.015625)"/>
      </defs>
      <use xlink:href="#DejaVuSans-46"/>
      <use xlink:href="#DejaVuSans-6c" x="57.519531"/>
      <use xlink:href="#DejaVuSans-75" x="85.302734"/>
      <use xlink:href="#DejaVuSans-78" x="148.681641"/>
      <use xlink:href="#DejaVuSans-70" x="207.861328"/>
      <use xlink:href="#DejaVuSans-6f" x="271.337891"/>
      <use xlink:href="#DejaVuSans-69" x="332.519531"/>
      <use xlink:href="#DejaVuSans-6e" x="360.302734"/>
      <use xlink:href="#DejaVuSans-74" x="423.681641"/>
      <use xlink:href="#DejaVuSans-73" x="462.890625"/>
      <use xlink:href="#DejaVuSans-20" x="514.990234"/>
      <use xlink:href="#DejaVuSans-4e" x="546.777344"/>
      <use xlink:href="#DejaVuSans-75" x="621.582031"/>
      <use xlink:href="#DejaVuSans-69" x="684.960938"/>
      <use xlink:href="#DejaVuSans-73" x="712.744141"/>
      <use xlink:href="#DejaVuSans-61" x="764.84375"/>
      <use xlink:href="#DejaVuSans-6e" x="826.123047"/>
      <use xlink:href="#DejaVuSans-63" x="889.501953"/>
      <use xlink:href="#DejaVuSans-65" x="944.482422"/>
     </g>
    </g>
    <g id="LineCollection_5">
     <path d="M 221.6 72.894688 
L 221.6 62.894688 
" style="fill: none; stroke: #8b0000; stroke-width: 1.5"/>
    </g>
    <g id="line2d_43"/>
    <g id="line2d_44">
     <g>
      <use xlink:href="#m039b600e91" x="221.6" y="67.894688" style="fill: #8b0000; stroke: #8b0000"/>
     </g>
    </g>
    <g id="text_6">
     <!-- Fluxpoints Standard -->
     <g transform="translate(239.6 71.394688) scale(0.1 -0.1)">
      <defs>
       <path id="DejaVuSans-53" d="M 3425 4513 
L 3425 3897 
Q 3066 4069 2747 4153 
Q 2428 4238 2131 4238 
Q 1616 4238 1336 4038 
Q 1056 3838 1056 3469 
Q 1056 3159 1242 3001 
Q 1428 2844 1947 2747 
L 2328 2669 
Q 3034 2534 3370 2195 
Q 3706 1856 3706 1288 
Q 3706 609 3251 259 
Q 2797 -91 1919 -91 
Q 1588 -91 1214 -16 
Q 841 59 441 206 
L 441 856 
Q 825 641 1194 531 
Q 1563 422 1919 422 
Q 2459 422 2753 634 
Q 3047 847 3047 1241 
Q 3047 1584 2836 1778 
Q 2625 1972 2144 2069 
L 1759 2144 
Q 1053 2284 737 2584 
Q 422 2884 422 3419 
Q 422 4038 858 4394 
Q 1294 4750 2059 4750 
Q 2388 4750 2728 4690 
Q 3069 4631 3425 4513 
z
" transform="scale(0.015625)"/>
       <path id="DejaVuSans-72" d="M 2631 2963 
Q 2534 3019 2420 3045 
Q 2306 3072 2169 3072 
Q 1681 3072 1420 2755 
Q 1159 2438 1159 1844 
L 1159 0 
L 581 0 
L 581 3500 
L 1159 3500 
L 1159 2956 
Q 1341 3275 1631 3429 
Q 1922 3584 2338 3584 
Q 2397 3584 2469 3576 
Q 2541 3569 2628 3553 
L 2631 2963 
z
" transform="scale(0.015625)"/>
      </defs>
      <use xlink:href="#DejaVuSans-46"/>
      <use xlink:href="#DejaVuSans-6c" x="57.519531"/>
      <use xlink:href="#DejaVuSans-75" x="85.302734"/>
      <use xlink:href="#DejaVuSans-78" x="148.681641"/>
      <use xlink:href="#DejaVuSans-70" x="207.861328"/>
      <use xlink:href="#DejaVuSans-6f" x="271.337891"/>
      <use xlink:href="#DejaVuSans-69" x="332.519531"/>
      <use xlink:href="#DejaVuSans-6e" x="360.302734"/>
      <use xlink:href="#DejaVuSans-74" x="423.681641"/>
      <use xlink:href="#DejaVuSans-73" x="462.890625"/>
      <use xlink:href="#DejaVuSans-20" x="514.990234"/>
      <use xlink:href="#DejaVuSans-53" x="546.777344"/>
      <use xlink:href="#DejaVuSans-74" x="610.253906"/>
      <use xlink:href="#DejaVuSans-61" x="649.462891"/>
      <use xlink:href="#DejaVuSans-6e" x="710.742188"/>
      <use xlink:href="#DejaVuSans-64" x="774.121094"/>
      <use xlink:href="#DejaVuSans-61" x="837.597656"/>
      <use xlink:href="#DejaVuSans-72" x="898.876953"/>
      <use xlink:href="#DejaVuSans-64" x="938.240234"/>
     </g>
    </g>
    <g id="LineCollection_6">
     <path d="M 221.6 87.572813 
L 221.6 77.572813 
" style="fill: none; stroke: #1f77b4; stroke-width: 1.5"/>
    </g>
    <g id="line2d_45">
     <path d="M 211.6 82.572813 
L 231.6 82.572813 
" style="fill: none; stroke: #1f77b4; stroke-width: 1.5; stroke-linecap: square"/>
    </g>
    <g id="line2d_46"/>
    <g id="text_7">
     <!-- $\mu$, $\sigma$ -->
     <g transform="translate(239.6 86.072813) scale(0.1 -0.1)">
      <defs>
       <path id="DejaVuSans-Oblique-3bc" d="M -84 -1331 
L 856 3500 
L 1434 3500 
L 1009 1322 
Q 997 1256 987 1175 
Q 978 1094 978 1013 
Q 978 722 1161 565 
Q 1344 409 1684 409 
Q 2147 409 2431 671 
Q 2716 934 2816 1459 
L 3213 3500 
L 3788 3500 
L 3266 809 
Q 3253 750 3248 706 
Q 3244 663 3244 628 
Q 3244 531 3283 486 
Q 3322 441 3406 441 
Q 3438 441 3492 456 
Q 3547 472 3647 513 
L 3559 50 
Q 3422 -19 3297 -55 
Q 3172 -91 3053 -91 
Q 2847 -91 2730 40 
Q 2613 172 2613 403 
Q 2438 153 2195 31 
Q 1953 -91 1625 -91 
Q 1334 -91 1117 43 
Q 900 178 831 397 
L 494 -1331 
L -84 -1331 
z
" transform="scale(0.015625)"/>
       <path id="DejaVuSans-2c" d="M 750 794 
L 1409 794 
L 1409 256 
L 897 -744 
L 494 -744 
L 750 256 
L 750 794 
z
" transform="scale(0.015625)"/>
       <path id="DejaVuSans-Oblique-3c3" d="M 2219 3044 
Q 1744 3044 1422 2700 
Q 1081 2341 969 1747 
Q 844 1119 1044 756 
Q 1241 397 1706 397 
Q 2166 397 2503 759 
Q 2844 1122 2966 1747 
Q 3075 2319 2881 2700 
Q 2700 3044 2219 3044 
z
M 2309 3503 
L 4219 3500 
L 4106 2925 
L 3463 2925 
Q 3706 2438 3575 1747 
Q 3406 888 2884 400 
Q 2359 -91 1609 -91 
Q 856 -91 525 400 
Q 194 888 363 1747 
Q 528 2609 1050 3097 
Q 1484 3503 2309 3503 
z
" transform="scale(0.015625)"/>
      </defs>
      <use xlink:href="#DejaVuSans-Oblique-3bc" transform="translate(0 0.265625)"/>
      <use xlink:href="#DejaVuSans-2c" transform="translate(63.623047 0.265625)"/>
      <use xlink:href="#DejaVuSans-20" transform="translate(95.410156 0.265625)"/>
      <use xlink:href="#DejaVuSans-Oblique-3c3" transform="translate(127.197266 0.265625)"/>
     </g>
    </g>
   </g>
  </g>
  <g id="axes_2">
   <g id="patch_8">
    <path d="M 60.221389 314.728 
L 349.2 314.728 
L 349.2 204.7328 
L 60.221389 204.7328 
z
" style="fill: #ffffff"/>
   </g>
   <g id="matplotlib.axis_3">
    <g id="xtick_25">
     <g id="line2d_47">
      <g>
       <use xlink:href="#m3fb8a313ad" x="111.252125" y="314.728" style="stroke: #000000; stroke-width: 0.8"/>
      </g>
     </g>
     <g id="text_8">
      <!-- $\mathdefault{10^{0}}$ -->
      <g transform="translate(102.452125 329.326438) scale(0.1 -0.1)">
       <use xlink:href="#DejaVuSans-31" transform="translate(0 0.765625)"/>
       <use xlink:href="#DejaVuSans-30" transform="translate(63.623047 0.765625)"/>
       <use xlink:href="#DejaVuSans-30" transform="translate(128.203125 39.046875) scale(0.7)"/>
      </g>
     </g>
    </g>
    <g id="xtick_26">
     <g id="line2d_48">
      <g>
       <use xlink:href="#m3fb8a313ad" x="232.517226" y="314.728" style="stroke: #000000; stroke-width: 0.8"/>
      </g>
     </g>
     <g id="text_9">
      <!-- $\mathdefault{10^{1}}$ -->
      <g transform="translate(223.717226 329.326438) scale(0.1 -0.1)">
       <use xlink:href="#DejaVuSans-31" transform="translate(0 0.684375)"/>
       <use xlink:href="#DejaVuSans-30" transform="translate(63.623047 0.684375)"/>
       <use xlink:href="#DejaVuSans-31" transform="translate(128.203125 38.965625) scale(0.7)"/>
      </g>
     </g>
    </g>
    <g id="xtick_27">
     <g id="line2d_49">
      <g>
       <use xlink:href="#m55ceb1bc68" x="62.995889" y="314.728" style="stroke: #000000; stroke-width: 0.6"/>
      </g>
     </g>
    </g>
    <g id="xtick_28">
     <g id="line2d_50">
      <g>
       <use xlink:href="#m55ceb1bc68" x="74.747692" y="314.728" style="stroke: #000000; stroke-width: 0.6"/>
      </g>
     </g>
    </g>
    <g id="xtick_29">
     <g id="line2d_51">
      <g>
       <use xlink:href="#m55ceb1bc68" x="84.349614" y="314.728" style="stroke: #000000; stroke-width: 0.6"/>
      </g>
     </g>
    </g>
    <g id="xtick_30">
     <g id="line2d_52">
      <g>
       <use xlink:href="#m55ceb1bc68" x="92.467923" y="314.728" style="stroke: #000000; stroke-width: 0.6"/>
      </g>
     </g>
    </g>
    <g id="xtick_31">
     <g id="line2d_53">
      <g>
       <use xlink:href="#m55ceb1bc68" x="99.500322" y="314.728" style="stroke: #000000; stroke-width: 0.6"/>
      </g>
     </g>
    </g>
    <g id="xtick_32">
     <g id="line2d_54">
      <g>
       <use xlink:href="#m55ceb1bc68" x="105.703338" y="314.728" style="stroke: #000000; stroke-width: 0.6"/>
      </g>
     </g>
    </g>
    <g id="xtick_33">
     <g id="line2d_55">
      <g>
       <use xlink:href="#m55ceb1bc68" x="147.756558" y="314.728" style="stroke: #000000; stroke-width: 0.6"/>
      </g>
     </g>
    </g>
    <g id="xtick_34">
     <g id="line2d_56">
      <g>
       <use xlink:href="#m55ceb1bc68" x="169.110282" y="314.728" style="stroke: #000000; stroke-width: 0.6"/>
      </g>
     </g>
    </g>
    <g id="xtick_35">
     <g id="line2d_57">
      <g>
       <use xlink:href="#m55ceb1bc68" x="184.260991" y="314.728" style="stroke: #000000; stroke-width: 0.6"/>
      </g>
     </g>
    </g>
    <g id="xtick_36">
     <g id="line2d_58">
      <g>
       <use xlink:href="#m55ceb1bc68" x="196.012793" y="314.728" style="stroke: #000000; stroke-width: 0.6"/>
      </g>
     </g>
    </g>
    <g id="xtick_37">
     <g id="line2d_59">
      <g>
       <use xlink:href="#m55ceb1bc68" x="205.614715" y="314.728" style="stroke: #000000; stroke-width: 0.6"/>
      </g>
     </g>
    </g>
    <g id="xtick_38">
     <g id="line2d_60">
      <g>
       <use xlink:href="#m55ceb1bc68" x="213.733024" y="314.728" style="stroke: #000000; stroke-width: 0.6"/>
      </g>
     </g>
    </g>
    <g id="xtick_39">
     <g id="line2d_61">
      <g>
       <use xlink:href="#m55ceb1bc68" x="220.765423" y="314.728" style="stroke: #000000; stroke-width: 0.6"/>
      </g>
     </g>
    </g>
    <g id="xtick_40">
     <g id="line2d_62">
      <g>
       <use xlink:href="#m55ceb1bc68" x="226.968439" y="314.728" style="stroke: #000000; stroke-width: 0.6"/>
      </g>
     </g>
    </g>
    <g id="xtick_41">
     <g id="line2d_63">
      <g>
       <use xlink:href="#m55ceb1bc68" x="269.021659" y="314.728" style="stroke: #000000; stroke-width: 0.6"/>
      </g>
     </g>
    </g>
    <g id="xtick_42">
     <g id="line2d_64">
      <g>
       <use xlink:href="#m55ceb1bc68" x="290.375383" y="314.728" style="stroke: #000000; stroke-width: 0.6"/>
      </g>
     </g>
    </g>
    <g id="xtick_43">
     <g id="line2d_65">
      <g>
       <use xlink:href="#m55ceb1bc68" x="305.526092" y="314.728" style="stroke: #000000; stroke-width: 0.6"/>
      </g>
     </g>
    </g>
    <g id="xtick_44">
     <g id="line2d_66">
      <g>
       <use xlink:href="#m55ceb1bc68" x="317.277894" y="314.728" style="stroke: #000000; stroke-width: 0.6"/>
      </g>
     </g>
    </g>
    <g id="xtick_45">
     <g id="line2d_67">
      <g>
       <use xlink:href="#m55ceb1bc68" x="326.879816" y="314.728" style="stroke: #000000; stroke-width: 0.6"/>
      </g>
     </g>
    </g>
    <g id="xtick_46">
     <g id="line2d_68">
      <g>
       <use xlink:href="#m55ceb1bc68" x="334.998125" y="314.728" style="stroke: #000000; stroke-width: 0.6"/>
      </g>
     </g>
    </g>
    <g id="xtick_47">
     <g id="line2d_69">
      <g>
       <use xlink:href="#m55ceb1bc68" x="342.030524" y="314.728" style="stroke: #000000; stroke-width: 0.6"/>
      </g>
     </g>
    </g>
    <g id="xtick_48">
     <g id="line2d_70">
      <g>
       <use xlink:href="#m55ceb1bc68" x="348.23354" y="314.728" style="stroke: #000000; stroke-width: 0.6"/>
      </g>
     </g>
    </g>
    <g id="text_10">
     <!-- Energy [TeV] -->
     <g transform="translate(173.013038 343.004563) scale(0.1 -0.1)">
      <defs>
       <path id="DejaVuSans-45" d="M 628 4666 
L 3578 4666 
L 3578 4134 
L 1259 4134 
L 1259 2753 
L 3481 2753 
L 3481 2222 
L 1259 2222 
L 1259 531 
L 3634 531 
L 3634 0 
L 628 0 
L 628 4666 
z
" transform="scale(0.015625)"/>
       <path id="DejaVuSans-67" d="M 2906 1791 
Q 2906 2416 2648 2759 
Q 2391 3103 1925 3103 
Q 1463 3103 1205 2759 
Q 947 2416 947 1791 
Q 947 1169 1205 825 
Q 1463 481 1925 481 
Q 2391 481 2648 825 
Q 2906 1169 2906 1791 
z
M 3481 434 
Q 3481 -459 3084 -895 
Q 2688 -1331 1869 -1331 
Q 1566 -1331 1297 -1286 
Q 1028 -1241 775 -1147 
L 775 -588 
Q 1028 -725 1275 -790 
Q 1522 -856 1778 -856 
Q 2344 -856 2625 -561 
Q 2906 -266 2906 331 
L 2906 616 
Q 2728 306 2450 153 
Q 2172 0 1784 0 
Q 1141 0 747 490 
Q 353 981 353 1791 
Q 353 2603 747 3093 
Q 1141 3584 1784 3584 
Q 2172 3584 2450 3431 
Q 2728 3278 2906 2969 
L 2906 3500 
L 3481 3500 
L 3481 434 
z
" transform="scale(0.015625)"/>
       <path id="DejaVuSans-79" d="M 2059 -325 
Q 1816 -950 1584 -1140 
Q 1353 -1331 966 -1331 
L 506 -1331 
L 506 -850 
L 844 -850 
Q 1081 -850 1212 -737 
Q 1344 -625 1503 -206 
L 1606 56 
L 191 3500 
L 800 3500 
L 1894 763 
L 2988 3500 
L 3597 3500 
L 2059 -325 
z
" transform="scale(0.015625)"/>
      </defs>
      <use xlink:href="#DejaVuSans-45"/>
      <use xlink:href="#DejaVuSans-6e" x="63.183594"/>
      <use xlink:href="#DejaVuSans-65" x="126.5625"/>
      <use xlink:href="#DejaVuSans-72" x="188.085938"/>
      <use xlink:href="#DejaVuSans-67" x="227.449219"/>
      <use xlink:href="#DejaVuSans-79" x="290.925781"/>
      <use xlink:href="#DejaVuSans-20" x="350.105469"/>
      <use xlink:href="#DejaVuSans-5b" x="381.892578"/>
      <use xlink:href="#DejaVuSans-54" x="420.90625"/>
      <use xlink:href="#DejaVuSans-65" x="464.990234"/>
      <use xlink:href="#DejaVuSans-56" x="526.513672"/>
      <use xlink:href="#DejaVuSans-5d" x="594.921875"/>
     </g>
    </g>
   </g>
   <g id="matplotlib.axis_4">
    <g id="ytick_12">
     <g id="line2d_71">
      <g>
       <use xlink:href="#m3d423d3527" x="60.221389" y="311.975311" style="stroke: #000000; stroke-width: 0.8"/>
      </g>
     </g>
     <g id="text_11">
      <!-- 0.62 -->
      <g transform="translate(30.955764 315.77453) scale(0.1 -0.1)">
       <defs>
        <path id="DejaVuSans-2e" d="M 684 794 
L 1344 794 
L 1344 0 
L 684 0 
L 684 794 
z
" transform="scale(0.015625)"/>
        <path id="DejaVuSans-36" d="M 2113 2584 
Q 1688 2584 1439 2293 
Q 1191 2003 1191 1497 
Q 1191 994 1439 701 
Q 1688 409 2113 409 
Q 2538 409 2786 701 
Q 3034 994 3034 1497 
Q 3034 2003 2786 2293 
Q 2538 2584 2113 2584 
z
M 3366 4563 
L 3366 3988 
Q 3128 4100 2886 4159 
Q 2644 4219 2406 4219 
Q 1781 4219 1451 3797 
Q 1122 3375 1075 2522 
Q 1259 2794 1537 2939 
Q 1816 3084 2150 3084 
Q 2853 3084 3261 2657 
Q 3669 2231 3669 1497 
Q 3669 778 3244 343 
Q 2819 -91 2113 -91 
Q 1303 -91 875 529 
Q 447 1150 447 2328 
Q 447 3434 972 4092 
Q 1497 4750 2381 4750 
Q 2619 4750 2861 4703 
Q 3103 4656 3366 4563 
z
" transform="scale(0.015625)"/>
       </defs>
       <use xlink:href="#DejaVuSans-30"/>
       <use xlink:href="#DejaVuSans-2e" x="63.623047"/>
       <use xlink:href="#DejaVuSans-36" x="95.410156"/>
       <use xlink:href="#DejaVuSans-32" x="159.033203"/>
      </g>
     </g>
    </g>
    <g id="ytick_13">
     <g id="line2d_72">
      <g>
       <use xlink:href="#m3d423d3527" x="60.221389" y="289.504382" style="stroke: #000000; stroke-width: 0.8"/>
      </g>
     </g>
     <g id="text_12">
      <!-- 0.64 -->
      <g transform="translate(30.955764 293.3036) scale(0.1 -0.1)">
       <defs>
        <path id="DejaVuSans-34" d="M 2419 4116 
L 825 1625 
L 2419 1625 
L 2419 4116 
z
M 2253 4666 
L 3047 4666 
L 3047 1625 
L 3713 1625 
L 3713 1100 
L 3047 1100 
L 3047 0 
L 2419 0 
L 2419 1100 
L 313 1100 
L 313 1709 
L 2253 4666 
z
" transform="scale(0.015625)"/>
       </defs>
       <use xlink:href="#DejaVuSans-30"/>
       <use xlink:href="#DejaVuSans-2e" x="63.623047"/>
       <use xlink:href="#DejaVuSans-36" x="95.410156"/>
       <use xlink:href="#DejaVuSans-34" x="159.033203"/>
      </g>
     </g>
    </g>
    <g id="ytick_14">
     <g id="line2d_73">
      <g>
       <use xlink:href="#m3d423d3527" x="60.221389" y="267.033452" style="stroke: #000000; stroke-width: 0.8"/>
      </g>
     </g>
     <g id="text_13">
      <!-- 0.66 -->
      <g transform="translate(30.955764 270.832671) scale(0.1 -0.1)">
       <use xlink:href="#DejaVuSans-30"/>
       <use xlink:href="#DejaVuSans-2e" x="63.623047"/>
       <use xlink:href="#DejaVuSans-36" x="95.410156"/>
       <use xlink:href="#DejaVuSans-36" x="159.033203"/>
      </g>
     </g>
    </g>
    <g id="ytick_15">
     <g id="line2d_74">
      <g>
       <use xlink:href="#m3d423d3527" x="60.221389" y="244.562523" style="stroke: #000000; stroke-width: 0.8"/>
      </g>
     </g>
     <g id="text_14">
      <!-- 0.68 -->
      <g transform="translate(30.955764 248.361741) scale(0.1 -0.1)">
       <defs>
        <path id="DejaVuSans-38" d="M 2034 2216 
Q 1584 2216 1326 1975 
Q 1069 1734 1069 1313 
Q 1069 891 1326 650 
Q 1584 409 2034 409 
Q 2484 409 2743 651 
Q 3003 894 3003 1313 
Q 3003 1734 2745 1975 
Q 2488 2216 2034 2216 
z
M 1403 2484 
Q 997 2584 770 2862 
Q 544 3141 544 3541 
Q 544 4100 942 4425 
Q 1341 4750 2034 4750 
Q 2731 4750 3128 4425 
Q 3525 4100 3525 3541 
Q 3525 3141 3298 2862 
Q 3072 2584 2669 2484 
Q 3125 2378 3379 2068 
Q 3634 1759 3634 1313 
Q 3634 634 3220 271 
Q 2806 -91 2034 -91 
Q 1263 -91 848 271 
Q 434 634 434 1313 
Q 434 1759 690 2068 
Q 947 2378 1403 2484 
z
M 1172 3481 
Q 1172 3119 1398 2916 
Q 1625 2713 2034 2713 
Q 2441 2713 2670 2916 
Q 2900 3119 2900 3481 
Q 2900 3844 2670 4047 
Q 2441 4250 2034 4250 
Q 1625 4250 1398 4047 
Q 1172 3844 1172 3481 
z
" transform="scale(0.015625)"/>
       </defs>
       <use xlink:href="#DejaVuSans-30"/>
       <use xlink:href="#DejaVuSans-2e" x="63.623047"/>
       <use xlink:href="#DejaVuSans-36" x="95.410156"/>
       <use xlink:href="#DejaVuSans-38" x="159.033203"/>
      </g>
     </g>
    </g>
    <g id="ytick_16">
     <g id="line2d_75">
      <g>
       <use xlink:href="#m3d423d3527" x="60.221389" y="222.091593" style="stroke: #000000; stroke-width: 0.8"/>
      </g>
     </g>
     <g id="text_15">
      <!-- 0.70 -->
      <g transform="translate(30.955764 225.890812) scale(0.1 -0.1)">
       <defs>
        <path id="DejaVuSans-37" d="M 525 4666 
L 3525 4666 
L 3525 4397 
L 1831 0 
L 1172 0 
L 2766 4134 
L 525 4134 
L 525 4666 
z
" transform="scale(0.015625)"/>
       </defs>
       <use xlink:href="#DejaVuSans-30"/>
       <use xlink:href="#DejaVuSans-2e" x="63.623047"/>
       <use xlink:href="#DejaVuSans-37" x="95.410156"/>
       <use xlink:href="#DejaVuSans-30" x="159.033203"/>
      </g>
     </g>
    </g>
    <g id="text_16">
     <!-- Coverage -->
     <g transform="translate(24.876077 283.687431) rotate(-90) scale(0.1 -0.1)">
      <defs>
       <path id="DejaVuSans-43" d="M 4122 4306 
L 4122 3641 
Q 3803 3938 3442 4084 
Q 3081 4231 2675 4231 
Q 1875 4231 1450 3742 
Q 1025 3253 1025 2328 
Q 1025 1406 1450 917 
Q 1875 428 2675 428 
Q 3081 428 3442 575 
Q 3803 722 4122 1019 
L 4122 359 
Q 3791 134 3420 21 
Q 3050 -91 2638 -91 
Q 1578 -91 968 557 
Q 359 1206 359 2328 
Q 359 3453 968 4101 
Q 1578 4750 2638 4750 
Q 3056 4750 3426 4639 
Q 3797 4528 4122 4306 
z
" transform="scale(0.015625)"/>
       <path id="DejaVuSans-76" d="M 191 3500 
L 800 3500 
L 1894 563 
L 2988 3500 
L 3597 3500 
L 2284 0 
L 1503 0 
L 191 3500 
z
" transform="scale(0.015625)"/>
      </defs>
      <use xlink:href="#DejaVuSans-43"/>
      <use xlink:href="#DejaVuSans-6f" x="69.824219"/>
      <use xlink:href="#DejaVuSans-76" x="131.005859"/>
      <use xlink:href="#DejaVuSans-65" x="190.185547"/>
      <use xlink:href="#DejaVuSans-72" x="251.708984"/>
      <use xlink:href="#DejaVuSans-61" x="292.822266"/>
      <use xlink:href="#DejaVuSans-67" x="354.101562"/>
      <use xlink:href="#DejaVuSans-65" x="417.578125"/>
     </g>
    </g>
   </g>
   <g id="line2d_76">
    <path d="M 73.356781 256.921534 
L 88.514918 286.133742 
L 103.673056 279.392463 
L 118.831194 301.863393 
L 133.989331 306.357579 
L 149.147469 306.357579 
L 164.305607 300.739846 
L 179.463744 262.539266 
L 194.621882 309.728218 
L 209.780019 272.651184 
L 224.938157 299.6163 
L 240.096295 253.550894 
L 255.254432 263.662813 
L 270.41257 267.033452 
L 285.570708 235.574151 
L 300.728845 263.662813 
L 315.886983 220.968047 
L 331.04512 264.786359 
" clip-path="url(#pef5a830416)" style="fill: none; stroke: #ff0000; stroke-width: 1.5; stroke-linecap: square"/>
   </g>
   <g id="line2d_77">
    <path d="M 73.356781 254.674441 
L 88.514918 259.168627 
L 103.673056 231.079965 
L 118.831194 218.720954 
L 133.989331 238.94479 
L 149.147469 242.31543 
L 164.305607 231.079965 
L 179.463744 209.732582 
L 194.621882 261.41572 
L 209.780019 233.327058 
L 224.938157 269.280545 
L 240.096295 234.450604 
L 255.254432 251.303801 
L 270.41257 250.180255 
L 285.570708 225.462232 
L 300.728845 253.550894 
L 315.886983 216.473861 
L 331.04512 260.292173 
" clip-path="url(#pef5a830416)" style="fill: none; stroke: #008000; stroke-width: 1.5; stroke-linecap: square"/>
   </g>
   <g id="line2d_78">
    <path d="M 73.356781 244.562523 
L 88.514918 244.562523 
L 103.673056 244.562523 
L 118.831194 244.562523 
L 133.989331 244.562523 
L 149.147469 244.562523 
L 164.305607 244.562523 
L 179.463744 244.562523 
L 194.621882 244.562523 
L 209.780019 244.562523 
L 224.938157 244.562523 
L 240.096295 244.562523 
L 255.254432 244.562523 
L 270.41257 244.562523 
L 285.570708 244.562523 
L 300.728845 244.562523 
L 315.886983 244.562523 
L 331.04512 244.562523 
" clip-path="url(#pef5a830416)" style="fill: none; stroke-dasharray: 1.5,2.475; stroke-dashoffset: 0; stroke: #008000; stroke-width: 1.5"/>
   </g>
   <g id="patch_9">
    <path d="M 60.221389 314.728 
L 60.221389 204.7328 
" style="fill: none; stroke: #000000; stroke-width: 0.8; stroke-linejoin: miter; stroke-linecap: square"/>
   </g>
   <g id="patch_10">
    <path d="M 349.2 314.728 
L 349.2 204.7328 
" style="fill: none; stroke: #000000; stroke-width: 0.8; stroke-linejoin: miter; stroke-linecap: square"/>
   </g>
   <g id="patch_11">
    <path d="M 60.221389 314.728 
L 349.2 314.728 
" style="fill: none; stroke: #000000; stroke-width: 0.8; stroke-linejoin: miter; stroke-linecap: square"/>
   </g>
   <g id="patch_12">
    <path d="M 60.221389 204.7328 
L 349.2 204.7328 
" style="fill: none; stroke: #000000; stroke-width: 0.8; stroke-linejoin: miter; stroke-linecap: square"/>
   </g>
   <g id="legend_2">
    <g id="patch_13">
     <path d="M 264.276563 309.728 
L 342.2 309.728 
Q 344.2 309.728 344.2 307.728 
L 344.2 264.693625 
Q 344.2 262.693625 342.2 262.693625 
L 264.276563 262.693625 
Q 262.276563 262.693625 262.276563 264.693625 
L 262.276563 307.728 
Q 262.276563 309.728 264.276563 309.728 
z
" style="fill: #ffffff; opacity: 0.8; stroke: #cccccc; stroke-linejoin: miter"/>
    </g>
    <g id="line2d_79">
     <path d="M 266.276563 270.792063 
L 276.276563 270.792063 
L 286.276563 270.792063 
" style="fill: none; stroke: #ff0000; stroke-width: 1.5; stroke-linecap: square"/>
    </g>
    <g id="text_17">
     <!-- Standard -->
     <g transform="translate(294.276563 274.292063) scale(0.1 -0.1)">
      <use xlink:href="#DejaVuSans-53"/>
      <use xlink:href="#DejaVuSans-74" x="63.476562"/>
      <use xlink:href="#DejaVuSans-61" x="102.685547"/>
      <use xlink:href="#DejaVuSans-6e" x="163.964844"/>
      <use xlink:href="#DejaVuSans-64" x="227.34375"/>
      <use xlink:href="#DejaVuSans-61" x="290.820312"/>
      <use xlink:href="#DejaVuSans-72" x="352.099609"/>
      <use xlink:href="#DejaVuSans-64" x="391.462891"/>
     </g>
    </g>
    <g id="line2d_80">
     <path d="M 266.276563 285.470188 
L 276.276563 285.470188 
L 286.276563 285.470188 
" style="fill: none; stroke: #008000; stroke-width: 1.5; stroke-linecap: square"/>
    </g>
    <g id="text_18">
     <!-- Nuisance -->
     <g transform="translate(294.276563 288.970188) scale(0.1 -0.1)">
      <use xlink:href="#DejaVuSans-4e"/>
      <use xlink:href="#DejaVuSans-75" x="74.804688"/>
      <use xlink:href="#DejaVuSans-69" x="138.183594"/>
      <use xlink:href="#DejaVuSans-73" x="165.966797"/>
      <use xlink:href="#DejaVuSans-61" x="218.066406"/>
      <use xlink:href="#DejaVuSans-6e" x="279.345703"/>
      <use xlink:href="#DejaVuSans-63" x="342.724609"/>
      <use xlink:href="#DejaVuSans-65" x="397.705078"/>
     </g>
    </g>
    <g id="line2d_81">
     <path d="M 266.276563 300.148313 
L 276.276563 300.148313 
L 286.276563 300.148313 
" style="fill: none; stroke-dasharray: 1.5,2.475; stroke-dashoffset: 0; stroke: #008000; stroke-width: 1.5"/>
    </g>
    <g id="text_19">
     <!-- 68 % -->
     <g transform="translate(294.276563 303.648313) scale(0.1 -0.1)">
      <defs>
       <path id="DejaVuSans-25" d="M 4653 2053 
Q 4381 2053 4226 1822 
Q 4072 1591 4072 1178 
Q 4072 772 4226 539 
Q 4381 306 4653 306 
Q 4919 306 5073 539 
Q 5228 772 5228 1178 
Q 5228 1588 5073 1820 
Q 4919 2053 4653 2053 
z
M 4653 2450 
Q 5147 2450 5437 2106 
Q 5728 1763 5728 1178 
Q 5728 594 5436 251 
Q 5144 -91 4653 -91 
Q 4153 -91 3862 251 
Q 3572 594 3572 1178 
Q 3572 1766 3864 2108 
Q 4156 2450 4653 2450 
z
M 1428 4353 
Q 1159 4353 1004 4120 
Q 850 3888 850 3481 
Q 850 3069 1003 2837 
Q 1156 2606 1428 2606 
Q 1700 2606 1854 2837 
Q 2009 3069 2009 3481 
Q 2009 3884 1853 4118 
Q 1697 4353 1428 4353 
z
M 4250 4750 
L 4750 4750 
L 1831 -91 
L 1331 -91 
L 4250 4750 
z
M 1428 4750 
Q 1922 4750 2215 4408 
Q 2509 4066 2509 3481 
Q 2509 2891 2217 2550 
Q 1925 2209 1428 2209 
Q 931 2209 642 2551 
Q 353 2894 353 3481 
Q 353 4063 643 4406 
Q 934 4750 1428 4750 
z
" transform="scale(0.015625)"/>
      </defs>
      <use xlink:href="#DejaVuSans-36"/>
      <use xlink:href="#DejaVuSans-38" x="63.623047"/>
      <use xlink:href="#DejaVuSans-20" x="127.246094"/>
      <use xlink:href="#DejaVuSans-25" x="159.033203"/>
     </g>
    </g>
   </g>
  </g>
 </g>
 <defs>
  <clipPath id="pf99813b722">
   <rect x="60.221389" y="25.44" width="288.978611" height="164.9928"/>
  </clipPath>
  <clipPath id="pef5a830416">
   <rect x="60.221389" y="204.7328" width="288.978611" height="109.9952"/>
  </clipPath>
 </defs>
</svg>
