<?xml version="1.0" encoding="utf-8" standalone="no"?>
<!DOCTYPE svg PUBLIC "-//W3C//DTD SVG 1.1//EN"
  "http://www.w3.org/Graphics/SVG/1.1/DTD/svg11.dtd">
<svg xmlns:xlink="http://www.w3.org/1999/xlink" width="360pt" height="216pt" viewBox="0 0 360 216" xmlns="http://www.w3.org/2000/svg" version="1.1">
 <metadata>
  <rdf:RDF xmlns:dc="http://purl.org/dc/elements/1.1/" xmlns:cc="http://creativecommons.org/ns#" xmlns:rdf="http://www.w3.org/1999/02/22-rdf-syntax-ns#">
   <cc:Work>
    <dc:type rdf:resource="http://purl.org/dc/dcmitype/StillImage"/>
    <dc:date>2023-02-09T17:44:36.269726</dc:date>
    <dc:format>image/svg+xml</dc:format>
    <dc:creator>
     <cc:Agent>
      <dc:title>Matplotlib v3.6.2, https://matplotlib.org/</dc:title>
     </cc:Agent>
    </dc:creator>
   </cc:Work>
  </rdf:RDF>
 </metadata>
 <defs>
  <style type="text/css">*{stroke-linejoin: round; stroke-linecap: butt}</style>
 </defs>
 <g id="figure_1">
  <g id="patch_1">
   <path d="M 0 216 
L 360 216 
L 360 0 
L 0 0 
z
" style="fill: #ffffff"/>
  </g>
  <g id="axes_1">
   <g id="patch_2">
    <path d="M 60.221389 170.728 
L 349.2 170.728 
L 349.2 10.8 
L 60.221389 10.8 
z
" style="fill: #ffffff"/>
   </g>
   <g id="PolyCollection_1">
    <path d="M 74.645222 53.193608 
L 74.645222 75.392527 
L 77.222106 76.085244 
L 79.798989 76.780903 
L 82.375873 77.479566 
L 84.952756 78.181299 
L 87.529639 78.88617 
L 90.106523 79.594247 
L 92.683406 80.3056 
L 95.26029 81.020302 
L 97.837173 81.738426 
L 100.414056 82.460047 
L 102.99094 83.185242 
L 105.567823 83.914086 
L 108.144707 84.646658 
L 110.72159 85.383036 
L 113.298473 86.1233 
L 115.875357 86.867527 
L 118.45224 87.615797 
L 121.029124 88.368188 
L 123.606007 89.124778 
L 126.18289 89.885642 
L 128.759774 90.650855 
L 131.336657 91.420491 
L 133.913541 92.19462 
L 136.490424 92.97331 
L 139.067307 93.756626 
L 141.644191 94.544631 
L 144.221074 95.337381 
L 146.797958 96.134932 
L 149.374841 96.937332 
L 151.951724 97.744625 
L 154.528608 98.556851 
L 157.105491 99.374045 
L 159.682375 100.196233 
L 162.259258 101.023439 
L 164.836141 101.855678 
L 167.413025 102.692962 
L 169.989908 103.535292 
L 172.566792 104.382668 
L 175.143675 105.23508 
L 177.720558 106.092514 
L 180.297442 106.954947 
L 182.874325 107.822354 
L 185.451209 108.694701 
L 188.028092 109.571951 
L 190.604975 110.454059 
L 193.181859 111.340978 
L 195.758742 112.232654 
L 198.335626 113.129031 
L 200.912509 114.030047 
L 203.489392 114.935638 
L 206.066276 115.845737 
L 208.643159 116.760273 
L 211.220042 117.679173 
L 213.796926 118.602364 
L 216.373809 119.529769 
L 218.950693 120.461311 
L 221.527576 121.396912 
L 224.104459 122.336493 
L 226.681343 123.279975 
L 229.258226 124.22728 
L 231.83511 125.178329 
L 234.411993 126.133044 
L 236.988876 127.091347 
L 239.56576 128.053164 
L 242.142643 129.018418 
L 244.719527 129.987035 
L 247.29641 130.958944 
L 249.873293 131.934073 
L 252.450177 132.912354 
L 255.02706 133.893718 
L 257.603944 134.8781 
L 260.180827 135.865437 
L 262.75771 136.855666 
L 265.334594 137.848727 
L 267.911477 138.844563 
L 270.488361 139.843116 
L 273.065244 140.844334 
L 275.642127 141.848163 
L 278.219011 142.854553 
L 280.795894 143.863457 
L 283.372778 144.874826 
L 285.949661 145.888618 
L 288.526544 146.904788 
L 291.103428 147.923297 
L 293.680311 148.944103 
L 296.257195 149.967171 
L 298.834078 150.992463 
L 301.410961 152.019947 
L 303.987845 153.049588 
L 306.564728 154.081356 
L 309.141612 155.115221 
L 311.718495 156.151156 
L 314.295378 157.189132 
L 316.872262 158.229125 
L 319.449145 159.271111 
L 322.026029 160.315067 
L 324.602912 161.360972 
L 327.179795 162.408804 
L 329.756679 163.458545 
L 329.756679 133.304341 
L 329.756679 133.304341 
L 327.179795 132.587892 
L 324.602912 131.87103 
L 322.026029 131.153729 
L 319.449145 130.435962 
L 316.872262 129.717701 
L 314.295378 128.998919 
L 311.718495 128.279584 
L 309.141612 127.559666 
L 306.564728 126.839133 
L 303.987845 126.11795 
L 301.410961 125.396083 
L 298.834078 124.673495 
L 296.257195 123.950149 
L 293.680311 123.226005 
L 291.103428 122.501022 
L 288.526544 121.775158 
L 285.949661 121.048369 
L 283.372778 120.320609 
L 280.795894 119.591832 
L 278.219011 118.861988 
L 275.642127 118.131026 
L 273.065244 117.398894 
L 270.488361 116.665537 
L 267.911477 115.930901 
L 265.334594 115.194925 
L 262.75771 114.457552 
L 260.180827 113.718718 
L 257.603944 112.978361 
L 255.02706 112.236416 
L 252.450177 111.492815 
L 249.873293 110.747489 
L 247.29641 110.000369 
L 244.719527 109.251381 
L 242.142643 108.500452 
L 239.56576 107.747507 
L 236.988876 106.99247 
L 234.411993 106.235263 
L 231.83511 105.475807 
L 229.258226 104.714023 
L 226.681343 103.94983 
L 224.104459 103.183148 
L 221.527576 102.413896 
L 218.950693 101.641994 
L 216.373809 100.867359 
L 213.796926 100.089914 
L 211.220042 99.309578 
L 208.643159 98.526275 
L 206.066276 97.739928 
L 203.489392 96.950463 
L 200.912509 96.157809 
L 198.335626 95.361897 
L 195.758742 94.562661 
L 193.181859 93.76004 
L 190.604975 92.953976 
L 188.028092 92.144414 
L 185.451209 91.331305 
L 182.874325 90.514606 
L 180.297442 89.694278 
L 177.720558 88.870287 
L 175.143675 88.042606 
L 172.566792 87.211213 
L 169.989908 86.376095 
L 167.413025 85.53724 
L 164.836141 84.694648 
L 162.259258 83.848321 
L 159.682375 82.998271 
L 157.105491 82.144513 
L 154.528608 81.28707 
L 151.951724 80.425971 
L 149.374841 79.561251 
L 146.797958 78.692948 
L 144.221074 77.821109 
L 141.644191 76.945783 
L 139.067307 76.067025 
L 136.490424 75.184895 
L 133.913541 74.299454 
L 131.336657 73.410769 
L 128.759774 72.51891 
L 126.18289 71.623948 
L 123.606007 70.725958 
L 121.029124 69.825016 
L 118.45224 68.9212 
L 115.875357 68.014589 
L 113.298473 67.105264 
L 110.72159 66.193305 
L 108.144707 65.278792 
L 105.567823 64.361807 
L 102.99094 63.44243 
L 100.414056 62.520741 
L 97.837173 61.59682 
L 95.26029 60.670745 
L 92.683406 59.742594 
L 90.106523 58.812442 
L 87.529639 57.880365 
L 84.952756 56.946435 
L 82.375873 56.010726 
L 79.798989 55.073306 
L 77.222106 54.134244 
L 74.645222 53.193608 
z
" clip-path="url(#p4b534e1f89)" style="fill: #008000; fill-opacity: 0.5"/>
   </g>
   <g id="PolyCollection_2">
    <path d="M 74.645222 56.010115 
L 74.645222 71.705622 
L 77.222106 72.361575 
L 79.798989 73.019662 
L 82.375873 73.679966 
L 84.952756 74.342575 
L 87.529639 75.007583 
L 90.106523 75.675095 
L 92.683406 76.345223 
L 95.26029 77.01809 
L 97.837173 77.693828 
L 100.414056 78.372579 
L 102.99094 79.0545 
L 105.567823 79.739758 
L 108.144707 80.428533 
L 110.72159 81.121022 
L 113.298473 81.817433 
L 115.875357 82.517993 
L 118.45224 83.222942 
L 121.029124 83.932539 
L 123.606007 84.647056 
L 126.18289 85.366782 
L 128.759774 86.092023 
L 131.336657 86.823095 
L 133.913541 87.56033 
L 136.490424 88.304066 
L 139.067307 89.054649 
L 141.644191 89.812427 
L 144.221074 90.577743 
L 146.797958 91.350933 
L 149.374841 92.132319 
L 151.951724 92.922199 
L 154.528608 93.720844 
L 157.105491 94.528489 
L 159.682375 95.345325 
L 162.259258 96.171497 
L 164.836141 97.007098 
L 167.413025 97.852164 
L 169.989908 98.706677 
L 172.566792 99.570561 
L 175.143675 100.443687 
L 177.720558 101.325878 
L 180.297442 102.216913 
L 182.874325 103.116531 
L 185.451209 104.024441 
L 188.028092 104.94033 
L 190.604975 105.863864 
L 193.181859 106.794703 
L 195.758742 107.732498 
L 198.335626 108.676903 
L 200.912509 109.627576 
L 203.489392 110.584185 
L 206.066276 111.546407 
L 208.643159 112.513933 
L 211.220042 113.486469 
L 213.796926 114.463737 
L 216.373809 115.445474 
L 218.950693 116.431433 
L 221.527576 117.421385 
L 224.104459 118.415115 
L 226.681343 119.412423 
L 229.258226 120.413123 
L 231.83511 121.417044 
L 234.411993 122.424027 
L 236.988876 123.433924 
L 239.56576 124.4466 
L 242.142643 125.46193 
L 244.719527 126.479798 
L 247.29641 127.500098 
L 249.873293 128.522732 
L 252.450177 129.547608 
L 255.02706 130.574645 
L 257.603944 131.603764 
L 260.180827 132.634896 
L 262.75771 133.667975 
L 265.334594 134.702942 
L 267.911477 135.73974 
L 270.488361 136.77832 
L 273.065244 137.818635 
L 275.642127 138.860642 
L 278.219011 139.904301 
L 280.795894 140.949575 
L 283.372778 141.996432 
L 285.949661 143.044841 
L 288.526544 144.094773 
L 291.103428 145.146203 
L 293.680311 146.199108 
L 296.257195 147.253464 
L 298.834078 148.309254 
L 301.410961 149.366459 
L 303.987845 150.425063 
L 306.564728 151.48505 
L 309.141612 152.546408 
L 311.718495 153.609124 
L 314.295378 154.673188 
L 316.872262 155.73859 
L 319.449145 156.805321 
L 322.026029 157.873374 
L 324.602912 158.942743 
L 327.179795 160.013421 
L 329.756679 161.085405 
L 329.756679 135.155594 
L 329.756679 135.155594 
L 327.179795 134.460426 
L 324.602912 133.765391 
L 322.026029 133.070477 
L 319.449145 132.375672 
L 316.872262 131.680965 
L 314.295378 130.986342 
L 311.718495 130.29179 
L 309.141612 129.597292 
L 306.564728 128.902834 
L 303.987845 128.208397 
L 301.410961 127.513964 
L 298.834078 126.819515 
L 296.257195 126.125028 
L 293.680311 125.430481 
L 291.103428 124.735849 
L 288.526544 124.041107 
L 285.949661 123.346227 
L 283.372778 122.651178 
L 280.795894 121.955928 
L 278.219011 121.260442 
L 275.642127 120.564683 
L 273.065244 119.868611 
L 270.488361 119.172183 
L 267.911477 118.475351 
L 265.334594 117.778065 
L 262.75771 117.080272 
L 260.180827 116.381913 
L 257.603944 115.682924 
L 255.02706 114.983237 
L 252.450177 114.282779 
L 249.873293 113.581469 
L 247.29641 112.879222 
L 244.719527 112.175944 
L 242.142643 111.471534 
L 239.56576 110.765884 
L 236.988876 110.058875 
L 234.411993 109.35038 
L 231.83511 108.64026 
L 229.258226 107.928366 
L 226.681343 107.214538 
L 224.104459 106.4986 
L 221.527576 105.780367 
L 218.950693 105.059636 
L 216.373809 104.33619 
L 213.796926 103.609798 
L 211.220042 102.880211 
L 208.643159 102.147166 
L 206.066276 101.410382 
L 203.489392 100.669565 
L 200.912509 99.924403 
L 198.335626 99.174574 
L 195.758742 98.419743 
L 193.181859 97.659568 
L 190.604975 96.893701 
L 188.028092 96.121794 
L 185.451209 95.343503 
L 182.874325 94.558498 
L 180.297442 93.766461 
L 177.720558 92.967103 
L 175.143675 92.160162 
L 172.566792 91.345416 
L 169.989908 90.522688 
L 167.413025 89.691848 
L 164.836141 88.852822 
L 162.259258 88.005591 
L 159.682375 87.150191 
L 157.105491 86.286715 
L 154.528608 85.415307 
L 151.951724 84.53616 
L 149.374841 83.64951 
L 146.797958 82.755626 
L 144.221074 81.85481 
L 141.644191 80.947381 
L 139.067307 80.033677 
L 136.490424 79.114042 
L 133.913541 78.188826 
L 131.336657 77.258375 
L 128.759774 76.323028 
L 126.18289 75.383117 
L 123.606007 74.438962 
L 121.029124 73.490868 
L 118.45224 72.539126 
L 115.875357 71.584011 
L 113.298473 70.625781 
L 110.72159 69.664679 
L 108.144707 68.700934 
L 105.567823 67.734755 
L 102.99094 66.766342 
L 100.414056 65.795876 
L 97.837173 64.823527 
L 95.26029 63.849453 
L 92.683406 62.873799 
L 90.106523 61.8967 
L 87.529639 60.91828 
L 84.952756 59.938656 
L 82.375873 58.957932 
L 79.798989 57.976208 
L 77.222106 56.993574 
L 74.645222 56.010115 
z
" clip-path="url(#p4b534e1f89)" style="fill: #ff0000; fill-opacity: 0.6"/>
   </g>
   <g id="matplotlib.axis_1">
    <g id="xtick_1">
     <g id="line2d_1">
      <defs>
       <path id="mefed6b3b06" d="M 0 0 
L 0 3.5 
" style="stroke: #000000; stroke-width: 0.8"/>
      </defs>
      <g>
       <use xlink:href="#mefed6b3b06" x="111.252125" y="170.728" style="stroke: #000000; stroke-width: 0.8"/>
      </g>
     </g>
     <g id="text_1">
      <!-- $\mathdefault{10^{0}}$ -->
      <g transform="translate(102.452125 185.326437) scale(0.1 -0.1)">
       <defs>
        <path id="DejaVuSans-31" d="M 794 531 
L 1825 531 
L 1825 4091 
L 703 3866 
L 703 4441 
L 1819 4666 
L 2450 4666 
L 2450 531 
L 3481 531 
L 3481 0 
L 794 0 
L 794 531 
z
" transform="scale(0.015625)"/>
        <path id="DejaVuSans-30" d="M 2034 4250 
Q 1547 4250 1301 3770 
Q 1056 3291 1056 2328 
Q 1056 1369 1301 889 
Q 1547 409 2034 409 
Q 2525 409 2770 889 
Q 3016 1369 3016 2328 
Q 3016 3291 2770 3770 
Q 2525 4250 2034 4250 
z
M 2034 4750 
Q 2819 4750 3233 4129 
Q 3647 3509 3647 2328 
Q 3647 1150 3233 529 
Q 2819 -91 2034 -91 
Q 1250 -91 836 529 
Q 422 1150 422 2328 
Q 422 3509 836 4129 
Q 1250 4750 2034 4750 
z
" transform="scale(0.015625)"/>
       </defs>
       <use xlink:href="#DejaVuSans-31" transform="translate(0 0.765625)"/>
       <use xlink:href="#DejaVuSans-30" transform="translate(63.623047 0.765625)"/>
       <use xlink:href="#DejaVuSans-30" transform="translate(128.203125 39.046875) scale(0.7)"/>
      </g>
     </g>
    </g>
    <g id="xtick_2">
     <g id="line2d_2">
      <g>
       <use xlink:href="#mefed6b3b06" x="232.517226" y="170.728" style="stroke: #000000; stroke-width: 0.8"/>
      </g>
     </g>
     <g id="text_2">
      <!-- $\mathdefault{10^{1}}$ -->
      <g transform="translate(223.717226 185.326437) scale(0.1 -0.1)">
       <use xlink:href="#DejaVuSans-31" transform="translate(0 0.684375)"/>
       <use xlink:href="#DejaVuSans-30" transform="translate(63.623047 0.684375)"/>
       <use xlink:href="#DejaVuSans-31" transform="translate(128.203125 38.965625) scale(0.7)"/>
      </g>
     </g>
    </g>
    <g id="xtick_3">
     <g id="line2d_3">
      <defs>
       <path id="m29276f3e4c" d="M 0 0 
L 0 2 
" style="stroke: #000000; stroke-width: 0.6"/>
      </defs>
      <g>
       <use xlink:href="#m29276f3e4c" x="62.995889" y="170.728" style="stroke: #000000; stroke-width: 0.6"/>
      </g>
     </g>
    </g>
    <g id="xtick_4">
     <g id="line2d_4">
      <g>
       <use xlink:href="#m29276f3e4c" x="74.747692" y="170.728" style="stroke: #000000; stroke-width: 0.6"/>
      </g>
     </g>
    </g>
    <g id="xtick_5">
     <g id="line2d_5">
      <g>
       <use xlink:href="#m29276f3e4c" x="84.349614" y="170.728" style="stroke: #000000; stroke-width: 0.6"/>
      </g>
     </g>
    </g>
    <g id="xtick_6">
     <g id="line2d_6">
      <g>
       <use xlink:href="#m29276f3e4c" x="92.467923" y="170.728" style="stroke: #000000; stroke-width: 0.6"/>
      </g>
     </g>
    </g>
    <g id="xtick_7">
     <g id="line2d_7">
      <g>
       <use xlink:href="#m29276f3e4c" x="99.500322" y="170.728" style="stroke: #000000; stroke-width: 0.6"/>
      </g>
     </g>
    </g>
    <g id="xtick_8">
     <g id="line2d_8">
      <g>
       <use xlink:href="#m29276f3e4c" x="105.703338" y="170.728" style="stroke: #000000; stroke-width: 0.6"/>
      </g>
     </g>
    </g>
    <g id="xtick_9">
     <g id="line2d_9">
      <g>
       <use xlink:href="#m29276f3e4c" x="147.756558" y="170.728" style="stroke: #000000; stroke-width: 0.6"/>
      </g>
     </g>
    </g>
    <g id="xtick_10">
     <g id="line2d_10">
      <g>
       <use xlink:href="#m29276f3e4c" x="169.110282" y="170.728" style="stroke: #000000; stroke-width: 0.6"/>
      </g>
     </g>
    </g>
    <g id="xtick_11">
     <g id="line2d_11">
      <g>
       <use xlink:href="#m29276f3e4c" x="184.260991" y="170.728" style="stroke: #000000; stroke-width: 0.6"/>
      </g>
     </g>
    </g>
    <g id="xtick_12">
     <g id="line2d_12">
      <g>
       <use xlink:href="#m29276f3e4c" x="196.012793" y="170.728" style="stroke: #000000; stroke-width: 0.6"/>
      </g>
     </g>
    </g>
    <g id="xtick_13">
     <g id="line2d_13">
      <g>
       <use xlink:href="#m29276f3e4c" x="205.614715" y="170.728" style="stroke: #000000; stroke-width: 0.6"/>
      </g>
     </g>
    </g>
    <g id="xtick_14">
     <g id="line2d_14">
      <g>
       <use xlink:href="#m29276f3e4c" x="213.733024" y="170.728" style="stroke: #000000; stroke-width: 0.6"/>
      </g>
     </g>
    </g>
    <g id="xtick_15">
     <g id="line2d_15">
      <g>
       <use xlink:href="#m29276f3e4c" x="220.765423" y="170.728" style="stroke: #000000; stroke-width: 0.6"/>
      </g>
     </g>
    </g>
    <g id="xtick_16">
     <g id="line2d_16">
      <g>
       <use xlink:href="#m29276f3e4c" x="226.968439" y="170.728" style="stroke: #000000; stroke-width: 0.6"/>
      </g>
     </g>
    </g>
    <g id="xtick_17">
     <g id="line2d_17">
      <g>
       <use xlink:href="#m29276f3e4c" x="269.021659" y="170.728" style="stroke: #000000; stroke-width: 0.6"/>
      </g>
     </g>
    </g>
    <g id="xtick_18">
     <g id="line2d_18">
      <g>
       <use xlink:href="#m29276f3e4c" x="290.375383" y="170.728" style="stroke: #000000; stroke-width: 0.6"/>
      </g>
     </g>
    </g>
    <g id="xtick_19">
     <g id="line2d_19">
      <g>
       <use xlink:href="#m29276f3e4c" x="305.526092" y="170.728" style="stroke: #000000; stroke-width: 0.6"/>
      </g>
     </g>
    </g>
    <g id="xtick_20">
     <g id="line2d_20">
      <g>
       <use xlink:href="#m29276f3e4c" x="317.277894" y="170.728" style="stroke: #000000; stroke-width: 0.6"/>
      </g>
     </g>
    </g>
    <g id="xtick_21">
     <g id="line2d_21">
      <g>
       <use xlink:href="#m29276f3e4c" x="326.879816" y="170.728" style="stroke: #000000; stroke-width: 0.6"/>
      </g>
     </g>
    </g>
    <g id="xtick_22">
     <g id="line2d_22">
      <g>
       <use xlink:href="#m29276f3e4c" x="334.998125" y="170.728" style="stroke: #000000; stroke-width: 0.6"/>
      </g>
     </g>
    </g>
    <g id="xtick_23">
     <g id="line2d_23">
      <g>
       <use xlink:href="#m29276f3e4c" x="342.030524" y="170.728" style="stroke: #000000; stroke-width: 0.6"/>
      </g>
     </g>
    </g>
    <g id="xtick_24">
     <g id="line2d_24">
      <g>
       <use xlink:href="#m29276f3e4c" x="348.23354" y="170.728" style="stroke: #000000; stroke-width: 0.6"/>
      </g>
     </g>
    </g>
    <g id="text_3">
     <!-- Energy [TeV] -->
     <g transform="translate(173.013038 199.004562) scale(0.1 -0.1)">
      <defs>
       <path id="DejaVuSans-45" d="M 628 4666 
L 3578 4666 
L 3578 4134 
L 1259 4134 
L 1259 2753 
L 3481 2753 
L 3481 2222 
L 1259 2222 
L 1259 531 
L 3634 531 
L 3634 0 
L 628 0 
L 628 4666 
z
" transform="scale(0.015625)"/>
       <path id="DejaVuSans-6e" d="M 3513 2113 
L 3513 0 
L 2938 0 
L 2938 2094 
Q 2938 2591 2744 2837 
Q 2550 3084 2163 3084 
Q 1697 3084 1428 2787 
Q 1159 2491 1159 1978 
L 1159 0 
L 581 0 
L 581 3500 
L 1159 3500 
L 1159 2956 
Q 1366 3272 1645 3428 
Q 1925 3584 2291 3584 
Q 2894 3584 3203 3211 
Q 3513 2838 3513 2113 
z
" transform="scale(0.015625)"/>
       <path id="DejaVuSans-65" d="M 3597 1894 
L 3597 1613 
L 953 1613 
Q 991 1019 1311 708 
Q 1631 397 2203 397 
Q 2534 397 2845 478 
Q 3156 559 3463 722 
L 3463 178 
Q 3153 47 2828 -22 
Q 2503 -91 2169 -91 
Q 1331 -91 842 396 
Q 353 884 353 1716 
Q 353 2575 817 3079 
Q 1281 3584 2069 3584 
Q 2775 3584 3186 3129 
Q 3597 2675 3597 1894 
z
M 3022 2063 
Q 3016 2534 2758 2815 
Q 2500 3097 2075 3097 
Q 1594 3097 1305 2825 
Q 1016 2553 972 2059 
L 3022 2063 
z
" transform="scale(0.015625)"/>
       <path id="DejaVuSans-72" d="M 2631 2963 
Q 2534 3019 2420 3045 
Q 2306 3072 2169 3072 
Q 1681 3072 1420 2755 
Q 1159 2438 1159 1844 
L 1159 0 
L 581 0 
L 581 3500 
L 1159 3500 
L 1159 2956 
Q 1341 3275 1631 3429 
Q 1922 3584 2338 3584 
Q 2397 3584 2469 3576 
Q 2541 3569 2628 3553 
L 2631 2963 
z
" transform="scale(0.015625)"/>
       <path id="DejaVuSans-67" d="M 2906 1791 
Q 2906 2416 2648 2759 
Q 2391 3103 1925 3103 
Q 1463 3103 1205 2759 
Q 947 2416 947 1791 
Q 947 1169 1205 825 
Q 1463 481 1925 481 
Q 2391 481 2648 825 
Q 2906 1169 2906 1791 
z
M 3481 434 
Q 3481 -459 3084 -895 
Q 2688 -1331 1869 -1331 
Q 1566 -1331 1297 -1286 
Q 1028 -1241 775 -1147 
L 775 -588 
Q 1028 -725 1275 -790 
Q 1522 -856 1778 -856 
Q 2344 -856 2625 -561 
Q 2906 -266 2906 331 
L 2906 616 
Q 2728 306 2450 153 
Q 2172 0 1784 0 
Q 1141 0 747 490 
Q 353 981 353 1791 
Q 353 2603 747 3093 
Q 1141 3584 1784 3584 
Q 2172 3584 2450 3431 
Q 2728 3278 2906 2969 
L 2906 3500 
L 3481 3500 
L 3481 434 
z
" transform="scale(0.015625)"/>
       <path id="DejaVuSans-79" d="M 2059 -325 
Q 1816 -950 1584 -1140 
Q 1353 -1331 966 -1331 
L 506 -1331 
L 506 -850 
L 844 -850 
Q 1081 -850 1212 -737 
Q 1344 -625 1503 -206 
L 1606 56 
L 191 3500 
L 800 3500 
L 1894 763 
L 2988 3500 
L 3597 3500 
L 2059 -325 
z
" transform="scale(0.015625)"/>
       <path id="DejaVuSans-20" transform="scale(0.015625)"/>
       <path id="DejaVuSans-5b" d="M 550 4863 
L 1875 4863 
L 1875 4416 
L 1125 4416 
L 1125 -397 
L 1875 -397 
L 1875 -844 
L 550 -844 
L 550 4863 
z
" transform="scale(0.015625)"/>
       <path id="DejaVuSans-54" d="M -19 4666 
L 3928 4666 
L 3928 4134 
L 2272 4134 
L 2272 0 
L 1638 0 
L 1638 4134 
L -19 4134 
L -19 4666 
z
" transform="scale(0.015625)"/>
       <path id="DejaVuSans-56" d="M 1831 0 
L 50 4666 
L 709 4666 
L 2188 738 
L 3669 4666 
L 4325 4666 
L 2547 0 
L 1831 0 
z
" transform="scale(0.015625)"/>
       <path id="DejaVuSans-5d" d="M 1947 4863 
L 1947 -844 
L 622 -844 
L 622 -397 
L 1369 -397 
L 1369 4416 
L 622 4416 
L 622 4863 
L 1947 4863 
z
" transform="scale(0.015625)"/>
      </defs>
      <use xlink:href="#DejaVuSans-45"/>
      <use xlink:href="#DejaVuSans-6e" x="63.183594"/>
      <use xlink:href="#DejaVuSans-65" x="126.5625"/>
      <use xlink:href="#DejaVuSans-72" x="188.085938"/>
      <use xlink:href="#DejaVuSans-67" x="227.449219"/>
      <use xlink:href="#DejaVuSans-79" x="290.925781"/>
      <use xlink:href="#DejaVuSans-20" x="350.105469"/>
      <use xlink:href="#DejaVuSans-5b" x="381.892578"/>
      <use xlink:href="#DejaVuSans-54" x="420.90625"/>
      <use xlink:href="#DejaVuSans-65" x="464.990234"/>
      <use xlink:href="#DejaVuSans-56" x="526.513672"/>
      <use xlink:href="#DejaVuSans-5d" x="594.921875"/>
     </g>
    </g>
   </g>
   <g id="matplotlib.axis_2">
    <g id="ytick_1">
     <g id="line2d_25">
      <defs>
       <path id="m778bec968e" d="M 0 0 
L -3.5 0 
" style="stroke: #000000; stroke-width: 0.8"/>
      </defs>
      <g>
       <use xlink:href="#m778bec968e" x="60.221389" y="68.286246" style="stroke: #000000; stroke-width: 0.8"/>
      </g>
     </g>
     <g id="text_4">
      <!-- $\mathdefault{10^{-12}}$ -->
      <g transform="translate(25.321389 72.085464) scale(0.1 -0.1)">
       <defs>
        <path id="DejaVuSans-2212" d="M 678 2272 
L 4684 2272 
L 4684 1741 
L 678 1741 
L 678 2272 
z
" transform="scale(0.015625)"/>
        <path id="DejaVuSans-32" d="M 1228 531 
L 3431 531 
L 3431 0 
L 469 0 
L 469 531 
Q 828 903 1448 1529 
Q 2069 2156 2228 2338 
Q 2531 2678 2651 2914 
Q 2772 3150 2772 3378 
Q 2772 3750 2511 3984 
Q 2250 4219 1831 4219 
Q 1534 4219 1204 4116 
Q 875 4013 500 3803 
L 500 4441 
Q 881 4594 1212 4672 
Q 1544 4750 1819 4750 
Q 2544 4750 2975 4387 
Q 3406 4025 3406 3419 
Q 3406 3131 3298 2873 
Q 3191 2616 2906 2266 
Q 2828 2175 2409 1742 
Q 1991 1309 1228 531 
z
" transform="scale(0.015625)"/>
       </defs>
       <use xlink:href="#DejaVuSans-31" transform="translate(0 0.765625)"/>
       <use xlink:href="#DejaVuSans-30" transform="translate(63.623047 0.765625)"/>
       <use xlink:href="#DejaVuSans-2212" transform="translate(128.203125 39.046875) scale(0.7)"/>
       <use xlink:href="#DejaVuSans-31" transform="translate(186.855469 39.046875) scale(0.7)"/>
       <use xlink:href="#DejaVuSans-32" transform="translate(231.391602 39.046875) scale(0.7)"/>
      </g>
     </g>
    </g>
    <g id="ytick_2">
     <g id="line2d_26">
      <defs>
       <path id="m86738ec0b5" d="M 0 0 
L -2 0 
" style="stroke: #000000; stroke-width: 0.6"/>
      </defs>
      <g>
       <use xlink:href="#m86738ec0b5" x="60.221389" y="160.227844" style="stroke: #000000; stroke-width: 0.6"/>
      </g>
     </g>
    </g>
    <g id="ytick_3">
     <g id="line2d_27">
      <g>
       <use xlink:href="#m86738ec0b5" x="60.221389" y="137.065031" style="stroke: #000000; stroke-width: 0.6"/>
      </g>
     </g>
    </g>
    <g id="ytick_4">
     <g id="line2d_28">
      <g>
       <use xlink:href="#m86738ec0b5" x="60.221389" y="120.630753" style="stroke: #000000; stroke-width: 0.6"/>
      </g>
     </g>
    </g>
    <g id="ytick_5">
     <g id="line2d_29">
      <g>
       <use xlink:href="#m86738ec0b5" x="60.221389" y="107.883337" style="stroke: #000000; stroke-width: 0.6"/>
      </g>
     </g>
    </g>
    <g id="ytick_6">
     <g id="line2d_30">
      <g>
       <use xlink:href="#m86738ec0b5" x="60.221389" y="97.46794" style="stroke: #000000; stroke-width: 0.6"/>
      </g>
     </g>
    </g>
    <g id="ytick_7">
     <g id="line2d_31">
      <g>
       <use xlink:href="#m86738ec0b5" x="60.221389" y="88.661847" style="stroke: #000000; stroke-width: 0.6"/>
      </g>
     </g>
    </g>
    <g id="ytick_8">
     <g id="line2d_32">
      <g>
       <use xlink:href="#m86738ec0b5" x="60.221389" y="81.033662" style="stroke: #000000; stroke-width: 0.6"/>
      </g>
     </g>
    </g>
    <g id="ytick_9">
     <g id="line2d_33">
      <g>
       <use xlink:href="#m86738ec0b5" x="60.221389" y="74.305126" style="stroke: #000000; stroke-width: 0.6"/>
      </g>
     </g>
    </g>
    <g id="ytick_10">
     <g id="line2d_34">
      <g>
       <use xlink:href="#m86738ec0b5" x="60.221389" y="28.689154" style="stroke: #000000; stroke-width: 0.6"/>
      </g>
     </g>
    </g>
    <g id="text_5">
     <!-- e2 * dnde [TeV / (cm2 s)] -->
     <g transform="translate(19.241702 153.243688) rotate(-90) scale(0.1 -0.1)">
      <defs>
       <path id="DejaVuSans-2a" d="M 3009 3897 
L 1888 3291 
L 3009 2681 
L 2828 2375 
L 1778 3009 
L 1778 1831 
L 1422 1831 
L 1422 3009 
L 372 2375 
L 191 2681 
L 1313 3291 
L 191 3897 
L 372 4206 
L 1422 3572 
L 1422 4750 
L 1778 4750 
L 1778 3572 
L 2828 4206 
L 3009 3897 
z
" transform="scale(0.015625)"/>
       <path id="DejaVuSans-64" d="M 2906 2969 
L 2906 4863 
L 3481 4863 
L 3481 0 
L 2906 0 
L 2906 525 
Q 2725 213 2448 61 
Q 2172 -91 1784 -91 
Q 1150 -91 751 415 
Q 353 922 353 1747 
Q 353 2572 751 3078 
Q 1150 3584 1784 3584 
Q 2172 3584 2448 3432 
Q 2725 3281 2906 2969 
z
M 947 1747 
Q 947 1113 1208 752 
Q 1469 391 1925 391 
Q 2381 391 2643 752 
Q 2906 1113 2906 1747 
Q 2906 2381 2643 2742 
Q 2381 3103 1925 3103 
Q 1469 3103 1208 2742 
Q 947 2381 947 1747 
z
" transform="scale(0.015625)"/>
       <path id="DejaVuSans-2f" d="M 1625 4666 
L 2156 4666 
L 531 -594 
L 0 -594 
L 1625 4666 
z
" transform="scale(0.015625)"/>
       <path id="DejaVuSans-28" d="M 1984 4856 
Q 1566 4138 1362 3434 
Q 1159 2731 1159 2009 
Q 1159 1288 1364 580 
Q 1569 -128 1984 -844 
L 1484 -844 
Q 1016 -109 783 600 
Q 550 1309 550 2009 
Q 550 2706 781 3412 
Q 1013 4119 1484 4856 
L 1984 4856 
z
" transform="scale(0.015625)"/>
       <path id="DejaVuSans-63" d="M 3122 3366 
L 3122 2828 
Q 2878 2963 2633 3030 
Q 2388 3097 2138 3097 
Q 1578 3097 1268 2742 
Q 959 2388 959 1747 
Q 959 1106 1268 751 
Q 1578 397 2138 397 
Q 2388 397 2633 464 
Q 2878 531 3122 666 
L 3122 134 
Q 2881 22 2623 -34 
Q 2366 -91 2075 -91 
Q 1284 -91 818 406 
Q 353 903 353 1747 
Q 353 2603 823 3093 
Q 1294 3584 2113 3584 
Q 2378 3584 2631 3529 
Q 2884 3475 3122 3366 
z
" transform="scale(0.015625)"/>
       <path id="DejaVuSans-6d" d="M 3328 2828 
Q 3544 3216 3844 3400 
Q 4144 3584 4550 3584 
Q 5097 3584 5394 3201 
Q 5691 2819 5691 2113 
L 5691 0 
L 5113 0 
L 5113 2094 
Q 5113 2597 4934 2840 
Q 4756 3084 4391 3084 
Q 3944 3084 3684 2787 
Q 3425 2491 3425 1978 
L 3425 0 
L 2847 0 
L 2847 2094 
Q 2847 2600 2669 2842 
Q 2491 3084 2119 3084 
Q 1678 3084 1418 2786 
Q 1159 2488 1159 1978 
L 1159 0 
L 581 0 
L 581 3500 
L 1159 3500 
L 1159 2956 
Q 1356 3278 1631 3431 
Q 1906 3584 2284 3584 
Q 2666 3584 2933 3390 
Q 3200 3197 3328 2828 
z
" transform="scale(0.015625)"/>
       <path id="DejaVuSans-73" d="M 2834 3397 
L 2834 2853 
Q 2591 2978 2328 3040 
Q 2066 3103 1784 3103 
Q 1356 3103 1142 2972 
Q 928 2841 928 2578 
Q 928 2378 1081 2264 
Q 1234 2150 1697 2047 
L 1894 2003 
Q 2506 1872 2764 1633 
Q 3022 1394 3022 966 
Q 3022 478 2636 193 
Q 2250 -91 1575 -91 
Q 1294 -91 989 -36 
Q 684 19 347 128 
L 347 722 
Q 666 556 975 473 
Q 1284 391 1588 391 
Q 1994 391 2212 530 
Q 2431 669 2431 922 
Q 2431 1156 2273 1281 
Q 2116 1406 1581 1522 
L 1381 1569 
Q 847 1681 609 1914 
Q 372 2147 372 2553 
Q 372 3047 722 3315 
Q 1072 3584 1716 3584 
Q 2034 3584 2315 3537 
Q 2597 3491 2834 3397 
z
" transform="scale(0.015625)"/>
       <path id="DejaVuSans-29" d="M 513 4856 
L 1013 4856 
Q 1481 4119 1714 3412 
Q 1947 2706 1947 2009 
Q 1947 1309 1714 600 
Q 1481 -109 1013 -844 
L 513 -844 
Q 928 -128 1133 580 
Q 1338 1288 1338 2009 
Q 1338 2731 1133 3434 
Q 928 4138 513 4856 
z
" transform="scale(0.015625)"/>
      </defs>
      <use xlink:href="#DejaVuSans-65"/>
      <use xlink:href="#DejaVuSans-32" x="61.523438"/>
      <use xlink:href="#DejaVuSans-20" x="125.146484"/>
      <use xlink:href="#DejaVuSans-2a" x="156.933594"/>
      <use xlink:href="#DejaVuSans-20" x="206.933594"/>
      <use xlink:href="#DejaVuSans-64" x="238.720703"/>
      <use xlink:href="#DejaVuSans-6e" x="302.197266"/>
      <use xlink:href="#DejaVuSans-64" x="365.576172"/>
      <use xlink:href="#DejaVuSans-65" x="429.052734"/>
      <use xlink:href="#DejaVuSans-20" x="490.576172"/>
      <use xlink:href="#DejaVuSans-5b" x="522.363281"/>
      <use xlink:href="#DejaVuSans-54" x="561.376953"/>
      <use xlink:href="#DejaVuSans-65" x="605.460938"/>
      <use xlink:href="#DejaVuSans-56" x="666.984375"/>
      <use xlink:href="#DejaVuSans-20" x="735.392578"/>
      <use xlink:href="#DejaVuSans-2f" x="767.179688"/>
      <use xlink:href="#DejaVuSans-20" x="800.871094"/>
      <use xlink:href="#DejaVuSans-28" x="832.658203"/>
      <use xlink:href="#DejaVuSans-63" x="871.671875"/>
      <use xlink:href="#DejaVuSans-6d" x="926.652344"/>
      <use xlink:href="#DejaVuSans-32" x="1024.064453"/>
      <use xlink:href="#DejaVuSans-20" x="1087.6875"/>
      <use xlink:href="#DejaVuSans-73" x="1119.474609"/>
      <use xlink:href="#DejaVuSans-29" x="1171.574219"/>
      <use xlink:href="#DejaVuSans-5d" x="1210.587891"/>
     </g>
    </g>
   </g>
   <g id="line2d_35">
    <path d="M 74.645222 56.373773 
L 77.222106 57.212332 
L 79.798989 58.050891 
L 82.375873 58.88945 
L 84.952756 59.72801 
L 87.529639 60.566569 
L 90.106523 61.405128 
L 92.683406 62.243687 
L 95.26029 63.082246 
L 97.837173 63.920805 
L 100.414056 64.759365 
L 102.99094 65.597924 
L 105.567823 66.436483 
L 108.144707 67.275042 
L 110.72159 68.113601 
L 113.298473 68.95216 
L 115.875357 69.790719 
L 118.45224 70.629279 
L 121.029124 71.467838 
L 123.606007 72.306397 
L 126.18289 73.144956 
L 128.759774 73.983515 
L 131.336657 74.822074 
L 133.913541 75.660633 
L 136.490424 76.499193 
L 139.067307 77.337752 
L 141.644191 78.176311 
L 144.221074 79.01487 
L 146.797958 79.853429 
L 149.374841 80.691988 
L 151.951724 81.530547 
L 154.528608 82.369107 
L 157.105491 83.207666 
L 159.682375 84.046225 
L 162.259258 84.884784 
L 164.836141 85.723343 
L 167.413025 86.561902 
L 169.989908 87.400462 
L 172.566792 88.239021 
L 175.143675 89.07758 
L 177.720558 89.916139 
L 180.297442 90.754698 
L 182.874325 91.593257 
L 185.451209 92.431816 
L 188.028092 93.270376 
L 190.604975 94.108935 
L 193.181859 94.947494 
L 195.758742 95.786053 
L 198.335626 96.624612 
L 200.912509 97.463171 
L 203.489392 98.30173 
L 206.066276 99.14029 
L 208.643159 99.978849 
L 211.220042 100.817408 
L 213.796926 101.655967 
L 216.373809 102.494526 
L 218.950693 103.333085 
L 221.527576 104.171644 
L 224.104459 105.010204 
L 226.681343 105.848763 
L 229.258226 106.687322 
L 231.83511 107.525881 
L 234.411993 108.36444 
L 236.988876 109.202999 
L 239.56576 110.041559 
L 242.142643 110.880118 
L 244.719527 111.718677 
L 247.29641 112.557236 
L 249.873293 113.395795 
L 252.450177 114.234354 
L 255.02706 115.072913 
L 257.603944 115.911473 
L 260.180827 116.750032 
L 262.75771 117.588591 
L 265.334594 118.42715 
L 267.911477 119.265709 
L 270.488361 120.104268 
L 273.065244 120.942827 
L 275.642127 121.781387 
L 278.219011 122.619946 
L 280.795894 123.458505 
L 283.372778 124.297064 
L 285.949661 125.135623 
L 288.526544 125.974182 
L 291.103428 126.812742 
L 293.680311 127.651301 
L 296.257195 128.48986 
L 298.834078 129.328419 
L 301.410961 130.166978 
L 303.987845 131.005537 
L 306.564728 131.844096 
L 309.141612 132.682656 
L 311.718495 133.521215 
L 314.295378 134.359774 
L 316.872262 135.198333 
L 319.449145 136.036892 
L 322.026029 136.875451 
L 324.602912 137.71401 
L 327.179795 138.55257 
L 329.756679 139.391129 
" clip-path="url(#p4b534e1f89)" style="fill: none; stroke-dasharray: 1.5,2.475; stroke-dashoffset: 0; stroke: #000000; stroke-width: 1.5"/>
   </g>
   <g id="LineCollection_1">
    <path clip-path="url(#p4b534e1f89)" style="fill: none; stroke: #8b0000; stroke-width: 1.5"/>
    <path clip-path="url(#p4b534e1f89)" style="fill: none; stroke: #8b0000; stroke-width: 1.5"/>
    <path clip-path="url(#p4b534e1f89)" style="fill: none; stroke: #8b0000; stroke-width: 1.5"/>
    <path clip-path="url(#p4b534e1f89)" style="fill: none; stroke: #8b0000; stroke-width: 1.5"/>
    <path clip-path="url(#p4b534e1f89)" style="fill: none; stroke: #8b0000; stroke-width: 1.5"/>
    <path d="M 78.376269 217 
L 78.376269 18.270329 
" clip-path="url(#p4b534e1f89)" style="fill: none; stroke: #8b0000; stroke-width: 1.5"/>
    <path d="M 93.534407 102.759513 
L 93.534407 46.457511 
" clip-path="url(#p4b534e1f89)" style="fill: none; stroke: #8b0000; stroke-width: 1.5"/>
    <path d="M 108.692544 87.992718 
L 108.692544 60.927546 
" clip-path="url(#p4b534e1f89)" style="fill: none; stroke: #8b0000; stroke-width: 1.5"/>
    <path d="M 123.850682 90.549414 
L 123.850682 67.396293 
" clip-path="url(#p4b534e1f89)" style="fill: none; stroke: #8b0000; stroke-width: 1.5"/>
    <path d="M 139.008819 95.528563 
L 139.008819 72.302235 
" clip-path="url(#p4b534e1f89)" style="fill: none; stroke: #8b0000; stroke-width: 1.5"/>
    <path d="M 154.166957 100.953472 
L 154.166957 76.913366 
" clip-path="url(#p4b534e1f89)" style="fill: none; stroke: #8b0000; stroke-width: 1.5"/>
    <path d="M 169.325095 106.866483 
L 169.325095 81.212343 
" clip-path="url(#p4b534e1f89)" style="fill: none; stroke: #8b0000; stroke-width: 1.5"/>
    <path d="M 184.483232 113.227809 
L 184.483232 85.254357 
" clip-path="url(#p4b534e1f89)" style="fill: none; stroke: #8b0000; stroke-width: 1.5"/>
    <path d="M 199.64137 119.647388 
L 199.64137 89.297791 
" clip-path="url(#p4b534e1f89)" style="fill: none; stroke: #8b0000; stroke-width: 1.5"/>
    <path d="M 214.799508 126.673459 
L 214.799508 93.03203 
" clip-path="url(#p4b534e1f89)" style="fill: none; stroke: #8b0000; stroke-width: 1.5"/>
    <path d="M 229.957645 134.41166 
L 229.957645 96.46421 
" clip-path="url(#p4b534e1f89)" style="fill: none; stroke: #8b0000; stroke-width: 1.5"/>
    <path d="M 245.115783 142.676764 
L 245.115783 99.762278 
" clip-path="url(#p4b534e1f89)" style="fill: none; stroke: #8b0000; stroke-width: 1.5"/>
    <path d="M 260.27392 152.023376 
L 260.27392 102.728521 
" clip-path="url(#p4b534e1f89)" style="fill: none; stroke: #8b0000; stroke-width: 1.5"/>
    <path d="M 275.432058 162.692423 
L 275.432058 105.40672 
" clip-path="url(#p4b534e1f89)" style="fill: none; stroke: #8b0000; stroke-width: 1.5"/>
    <path d="M 290.590196 174.282804 
L 290.590196 108.082099 
" clip-path="url(#p4b534e1f89)" style="fill: none; stroke: #8b0000; stroke-width: 1.5"/>
    <path d="M 305.748333 188.362316 
L 305.748333 110.424823 
" clip-path="url(#p4b534e1f89)" style="fill: none; stroke: #8b0000; stroke-width: 1.5"/>
    <path d="M 320.906471 207.93962 
L 320.906471 112.151084 
" clip-path="url(#p4b534e1f89)" style="fill: none; stroke: #8b0000; stroke-width: 1.5"/>
    <path d="M 336.064609 217 
L 336.064609 112.672694 
" clip-path="url(#p4b534e1f89)" style="fill: none; stroke: #8b0000; stroke-width: 1.5"/>
    <path clip-path="url(#p4b534e1f89)" style="fill: none; stroke: #8b0000; stroke-width: 1.5"/>
   </g>
   <g id="LineCollection_2">
    <path clip-path="url(#p4b534e1f89)" style="fill: none; stroke: #006400; stroke-width: 1.5"/>
    <path clip-path="url(#p4b534e1f89)" style="fill: none; stroke: #006400; stroke-width: 1.5"/>
    <path clip-path="url(#p4b534e1f89)" style="fill: none; stroke: #006400; stroke-width: 1.5"/>
    <path clip-path="url(#p4b534e1f89)" style="fill: none; stroke: #006400; stroke-width: 1.5"/>
    <path clip-path="url(#p4b534e1f89)" style="fill: none; stroke: #006400; stroke-width: 1.5"/>
    <path d="M 73.356781 217 
L 73.356781 18.069455 
" clip-path="url(#p4b534e1f89)" style="fill: none; stroke: #006400; stroke-width: 1.5"/>
    <path d="M 88.514918 103.924315 
L 88.514918 45.90821 
" clip-path="url(#p4b534e1f89)" style="fill: none; stroke: #006400; stroke-width: 1.5"/>
    <path d="M 103.673056 89.631981 
L 103.673056 59.771104 
" clip-path="url(#p4b534e1f89)" style="fill: none; stroke: #006400; stroke-width: 1.5"/>
    <path d="M 118.831194 92.364131 
L 118.831194 66.046634 
" clip-path="url(#p4b534e1f89)" style="fill: none; stroke: #006400; stroke-width: 1.5"/>
    <path d="M 133.989331 97.305103 
L 133.989331 70.969008 
" clip-path="url(#p4b534e1f89)" style="fill: none; stroke: #006400; stroke-width: 1.5"/>
    <path d="M 149.147469 102.654509 
L 149.147469 75.644385 
" clip-path="url(#p4b534e1f89)" style="fill: none; stroke: #006400; stroke-width: 1.5"/>
    <path d="M 164.305607 108.462853 
L 164.305607 80.042306 
" clip-path="url(#p4b534e1f89)" style="fill: none; stroke: #006400; stroke-width: 1.5"/>
    <path d="M 179.463744 114.713269 
L 179.463744 84.188035 
" clip-path="url(#p4b534e1f89)" style="fill: none; stroke: #006400; stroke-width: 1.5"/>
    <path d="M 194.621882 121.024035 
L 194.621882 88.33551 
" clip-path="url(#p4b534e1f89)" style="fill: none; stroke: #006400; stroke-width: 1.5"/>
    <path d="M 209.780019 127.962948 
L 209.780019 92.168611 
" clip-path="url(#p4b534e1f89)" style="fill: none; stroke: #006400; stroke-width: 1.5"/>
    <path d="M 224.938157 135.629851 
L 224.938157 95.693332 
" clip-path="url(#p4b534e1f89)" style="fill: none; stroke: #006400; stroke-width: 1.5"/>
    <path d="M 240.096295 143.827212 
L 240.096295 99.072159 
" clip-path="url(#p4b534e1f89)" style="fill: none; stroke: #006400; stroke-width: 1.5"/>
    <path d="M 255.254432 153.119856 
L 255.254432 102.120819 
" clip-path="url(#p4b534e1f89)" style="fill: none; stroke: #006400; stroke-width: 1.5"/>
    <path d="M 270.41257 163.755229 
L 270.41257 104.875197 
" clip-path="url(#p4b534e1f89)" style="fill: none; stroke: #006400; stroke-width: 1.5"/>
    <path d="M 285.570708 175.341193 
L 285.570708 107.612499 
" clip-path="url(#p4b534e1f89)" style="fill: none; stroke: #006400; stroke-width: 1.5"/>
    <path d="M 300.728845 189.453135 
L 300.728845 110.008812 
" clip-path="url(#p4b534e1f89)" style="fill: none; stroke: #006400; stroke-width: 1.5"/>
    <path d="M 315.886983 209.171211 
L 315.886983 111.789088 
" clip-path="url(#p4b534e1f89)" style="fill: none; stroke: #006400; stroke-width: 1.5"/>
    <path d="M 331.04512 217 
L 331.04512 112.372485 
" clip-path="url(#p4b534e1f89)" style="fill: none; stroke: #006400; stroke-width: 1.5"/>
    <path clip-path="url(#p4b534e1f89)" style="fill: none; stroke: #006400; stroke-width: 1.5"/>
   </g>
   <g id="line2d_36">
    <defs>
     <path id="mbab3d85436" d="M 0 3 
C 0.795609 3 1.55874 2.683901 2.12132 2.12132 
C 2.683901 1.55874 3 0.795609 3 0 
C 3 -0.795609 2.683901 -1.55874 2.12132 -2.12132 
C 1.55874 -2.683901 0.795609 -3 0 -3 
C -0.795609 -3 -1.55874 -2.683901 -2.12132 -2.12132 
C -2.683901 -1.55874 -3 -0.795609 -3 0 
C -3 0.795609 -2.683901 1.55874 -2.12132 2.12132 
C -1.55874 2.683901 -0.795609 3 0 3 
z
" style="stroke: #8b0000"/>
    </defs>
    <g clip-path="url(#p4b534e1f89)">
     <use xlink:href="#mbab3d85436" x="78.376269" y="62.98367" style="fill: #8b0000; stroke: #8b0000"/>
     <use xlink:href="#mbab3d85436" x="93.534407" y="67.936128" style="fill: #8b0000; stroke: #8b0000"/>
     <use xlink:href="#mbab3d85436" x="108.692544" y="72.872049" style="fill: #8b0000; stroke: #8b0000"/>
     <use xlink:href="#mbab3d85436" x="123.850682" y="77.807814" style="fill: #8b0000; stroke: #8b0000"/>
     <use xlink:href="#mbab3d85436" x="139.008819" y="82.743029" style="fill: #8b0000; stroke: #8b0000"/>
     <use xlink:href="#mbab3d85436" x="154.166957" y="87.678065" style="fill: #8b0000; stroke: #8b0000"/>
     <use xlink:href="#mbab3d85436" x="169.325095" y="92.611272" style="fill: #8b0000; stroke: #8b0000"/>
     <use xlink:href="#mbab3d85436" x="184.483232" y="97.545682" style="fill: #8b0000; stroke: #8b0000"/>
     <use xlink:href="#mbab3d85436" x="199.64137" y="102.480378" style="fill: #8b0000; stroke: #8b0000"/>
     <use xlink:href="#mbab3d85436" x="214.799508" y="107.41132" style="fill: #8b0000; stroke: #8b0000"/>
     <use xlink:href="#mbab3d85436" x="229.957645" y="112.343297" style="fill: #8b0000; stroke: #8b0000"/>
     <use xlink:href="#mbab3d85436" x="245.115783" y="117.281089" style="fill: #8b0000; stroke: #8b0000"/>
     <use xlink:href="#mbab3d85436" x="260.27392" y="122.216055" style="fill: #8b0000; stroke: #8b0000"/>
     <use xlink:href="#mbab3d85436" x="275.432058" y="127.151024" style="fill: #8b0000; stroke: #8b0000"/>
     <use xlink:href="#mbab3d85436" x="290.590196" y="132.085879" style="fill: #8b0000; stroke: #8b0000"/>
     <use xlink:href="#mbab3d85436" x="305.748333" y="137.020939" style="fill: #8b0000; stroke: #8b0000"/>
     <use xlink:href="#mbab3d85436" x="320.906471" y="141.956212" style="fill: #8b0000; stroke: #8b0000"/>
     <use xlink:href="#mbab3d85436" x="336.064609" y="146.883878" style="fill: #8b0000; stroke: #8b0000"/>
    </g>
   </g>
   <g id="line2d_37">
    <defs>
     <path id="m7ee9fbac01" d="M 0 3 
C 0.795609 3 1.55874 2.683901 2.12132 2.12132 
C 2.683901 1.55874 3 0.795609 3 0 
C 3 -0.795609 2.683901 -1.55874 2.12132 -2.12132 
C 1.55874 -2.683901 0.795609 -3 0 -3 
C -0.795609 -3 -1.55874 -2.683901 -2.12132 -2.12132 
C -2.683901 -1.55874 -3 -0.795609 -3 0 
C -3 0.795609 -2.683901 1.55874 -2.12132 2.12132 
C -1.55874 2.683901 -0.795609 3 0 3 
z
" style="stroke: #006400"/>
    </defs>
    <g clip-path="url(#p4b534e1f89)">
     <use xlink:href="#m7ee9fbac01" x="73.356781" y="62.920497" style="fill: #006400; stroke: #006400"/>
     <use xlink:href="#m7ee9fbac01" x="88.514918" y="67.847635" style="fill: #006400; stroke: #006400"/>
     <use xlink:href="#m7ee9fbac01" x="103.673056" y="72.772268" style="fill: #006400; stroke: #006400"/>
     <use xlink:href="#m7ee9fbac01" x="118.831194" y="77.703079" style="fill: #006400; stroke: #006400"/>
     <use xlink:href="#m7ee9fbac01" x="133.989331" y="82.632646" style="fill: #006400; stroke: #006400"/>
     <use xlink:href="#m7ee9fbac01" x="149.147469" y="87.567759" style="fill: #006400; stroke: #006400"/>
     <use xlink:href="#m7ee9fbac01" x="164.305607" y="92.503102" style="fill: #006400; stroke: #006400"/>
     <use xlink:href="#m7ee9fbac01" x="179.463744" y="97.435583" style="fill: #006400; stroke: #006400"/>
     <use xlink:href="#m7ee9fbac01" x="194.621882" y="102.372893" style="fill: #006400; stroke: #006400"/>
     <use xlink:href="#m7ee9fbac01" x="209.780019" y="107.306973" style="fill: #006400; stroke: #006400"/>
     <use xlink:href="#m7ee9fbac01" x="224.938157" y="112.240528" style="fill: #006400; stroke: #006400"/>
     <use xlink:href="#m7ee9fbac01" x="240.096295" y="117.174542" style="fill: #006400; stroke: #006400"/>
     <use xlink:href="#m7ee9fbac01" x="255.254432" y="122.108755" style="fill: #006400; stroke: #006400"/>
     <use xlink:href="#m7ee9fbac01" x="270.41257" y="127.04306" style="fill: #006400; stroke: #006400"/>
     <use xlink:href="#m7ee9fbac01" x="285.570708" y="131.977583" style="fill: #006400; stroke: #006400"/>
     <use xlink:href="#m7ee9fbac01" x="300.728845" y="136.908427" style="fill: #006400; stroke: #006400"/>
     <use xlink:href="#m7ee9fbac01" x="315.886983" y="141.842311" style="fill: #006400; stroke: #006400"/>
     <use xlink:href="#m7ee9fbac01" x="331.04512" y="146.776218" style="fill: #006400; stroke: #006400"/>
    </g>
   </g>
   <g id="patch_3">
    <path d="M 60.221389 170.728 
L 60.221389 10.8 
" style="fill: none; stroke: #000000; stroke-width: 0.8; stroke-linejoin: miter; stroke-linecap: square"/>
   </g>
   <g id="patch_4">
    <path d="M 349.2 170.728 
L 349.2 10.8 
" style="fill: none; stroke: #000000; stroke-width: 0.8; stroke-linejoin: miter; stroke-linecap: square"/>
   </g>
   <g id="patch_5">
    <path d="M 60.221389 170.728 
L 349.2 170.728 
" style="fill: none; stroke: #000000; stroke-width: 0.8; stroke-linejoin: miter; stroke-linecap: square"/>
   </g>
   <g id="patch_6">
    <path d="M 60.221389 10.8 
L 349.2 10.8 
" style="fill: none; stroke: #000000; stroke-width: 0.8; stroke-linejoin: miter; stroke-linecap: square"/>
   </g>
   <g id="legend_1">
    <g id="patch_7">
     <path d="M 248.3 62.834375 
L 342.2 62.834375 
Q 344.2 62.834375 344.2 60.834375 
L 344.2 17.8 
Q 344.2 15.8 342.2 15.8 
L 248.3 15.8 
Q 246.3 15.8 246.3 17.8 
L 246.3 60.834375 
Q 246.3 62.834375 248.3 62.834375 
z
" style="fill: #ffffff; opacity: 0.8; stroke: #cccccc; stroke-linejoin: miter"/>
    </g>
    <g id="patch_8">
     <path d="M 250.3 27.398438 
L 270.3 27.398438 
L 270.3 20.398438 
L 250.3 20.398438 
z
" style="fill: #008000; fill-opacity: 0.5"/>
    </g>
    <g id="text_6">
     <!-- $1\sigma$ Standard -->
     <g transform="translate(278.3 27.398438) scale(0.1 -0.1)">
      <defs>
       <path id="DejaVuSans-Oblique-3c3" d="M 2219 3044 
Q 1744 3044 1422 2700 
Q 1081 2341 969 1747 
Q 844 1119 1044 756 
Q 1241 397 1706 397 
Q 2166 397 2503 759 
Q 2844 1122 2966 1747 
Q 3075 2319 2881 2700 
Q 2700 3044 2219 3044 
z
M 2309 3503 
L 4219 3500 
L 4106 2925 
L 3463 2925 
Q 3706 2438 3575 1747 
Q 3406 888 2884 400 
Q 2359 -91 1609 -91 
Q 856 -91 525 400 
Q 194 888 363 1747 
Q 528 2609 1050 3097 
Q 1484 3503 2309 3503 
z
" transform="scale(0.015625)"/>
       <path id="DejaVuSans-53" d="M 3425 4513 
L 3425 3897 
Q 3066 4069 2747 4153 
Q 2428 4238 2131 4238 
Q 1616 4238 1336 4038 
Q 1056 3838 1056 3469 
Q 1056 3159 1242 3001 
Q 1428 2844 1947 2747 
L 2328 2669 
Q 3034 2534 3370 2195 
Q 3706 1856 3706 1288 
Q 3706 609 3251 259 
Q 2797 -91 1919 -91 
Q 1588 -91 1214 -16 
Q 841 59 441 206 
L 441 856 
Q 825 641 1194 531 
Q 1563 422 1919 422 
Q 2459 422 2753 634 
Q 3047 847 3047 1241 
Q 3047 1584 2836 1778 
Q 2625 1972 2144 2069 
L 1759 2144 
Q 1053 2284 737 2584 
Q 422 2884 422 3419 
Q 422 4038 858 4394 
Q 1294 4750 2059 4750 
Q 2388 4750 2728 4690 
Q 3069 4631 3425 4513 
z
" transform="scale(0.015625)"/>
       <path id="DejaVuSans-74" d="M 1172 4494 
L 1172 3500 
L 2356 3500 
L 2356 3053 
L 1172 3053 
L 1172 1153 
Q 1172 725 1289 603 
Q 1406 481 1766 481 
L 2356 481 
L 2356 0 
L 1766 0 
Q 1100 0 847 248 
Q 594 497 594 1153 
L 594 3053 
L 172 3053 
L 172 3500 
L 594 3500 
L 594 4494 
L 1172 4494 
z
" transform="scale(0.015625)"/>
       <path id="DejaVuSans-61" d="M 2194 1759 
Q 1497 1759 1228 1600 
Q 959 1441 959 1056 
Q 959 750 1161 570 
Q 1363 391 1709 391 
Q 2188 391 2477 730 
Q 2766 1069 2766 1631 
L 2766 1759 
L 2194 1759 
z
M 3341 1997 
L 3341 0 
L 2766 0 
L 2766 531 
Q 2569 213 2275 61 
Q 1981 -91 1556 -91 
Q 1019 -91 701 211 
Q 384 513 384 1019 
Q 384 1609 779 1909 
Q 1175 2209 1959 2209 
L 2766 2209 
L 2766 2266 
Q 2766 2663 2505 2880 
Q 2244 3097 1772 3097 
Q 1472 3097 1187 3025 
Q 903 2953 641 2809 
L 641 3341 
Q 956 3463 1253 3523 
Q 1550 3584 1831 3584 
Q 2591 3584 2966 3190 
Q 3341 2797 3341 1997 
z
" transform="scale(0.015625)"/>
      </defs>
      <use xlink:href="#DejaVuSans-31" transform="translate(0 0.015625)"/>
      <use xlink:href="#DejaVuSans-Oblique-3c3" transform="translate(63.623047 0.015625)"/>
      <use xlink:href="#DejaVuSans-20" transform="translate(127.001953 0.015625)"/>
      <use xlink:href="#DejaVuSans-53" transform="translate(158.789062 0.015625)"/>
      <use xlink:href="#DejaVuSans-74" transform="translate(222.265625 0.015625)"/>
      <use xlink:href="#DejaVuSans-61" transform="translate(261.474609 0.015625)"/>
      <use xlink:href="#DejaVuSans-6e" transform="translate(322.753906 0.015625)"/>
      <use xlink:href="#DejaVuSans-64" transform="translate(386.132812 0.015625)"/>
      <use xlink:href="#DejaVuSans-61" transform="translate(449.609375 0.015625)"/>
      <use xlink:href="#DejaVuSans-72" transform="translate(510.888672 0.015625)"/>
      <use xlink:href="#DejaVuSans-64" transform="translate(552.001953 0.015625)"/>
     </g>
    </g>
    <g id="patch_9">
     <path d="M 250.3 42.076563 
L 270.3 42.076563 
L 270.3 35.076563 
L 250.3 35.076563 
z
" style="fill: #ff0000; fill-opacity: 0.6"/>
    </g>
    <g id="text_7">
     <!-- $1\sigma$ Nuisance -->
     <g transform="translate(278.3 42.076563) scale(0.1 -0.1)">
      <defs>
       <path id="DejaVuSans-4e" d="M 628 4666 
L 1478 4666 
L 3547 763 
L 3547 4666 
L 4159 4666 
L 4159 0 
L 3309 0 
L 1241 3903 
L 1241 0 
L 628 0 
L 628 4666 
z
" transform="scale(0.015625)"/>
       <path id="DejaVuSans-75" d="M 544 1381 
L 544 3500 
L 1119 3500 
L 1119 1403 
Q 1119 906 1312 657 
Q 1506 409 1894 409 
Q 2359 409 2629 706 
Q 2900 1003 2900 1516 
L 2900 3500 
L 3475 3500 
L 3475 0 
L 2900 0 
L 2900 538 
Q 2691 219 2414 64 
Q 2138 -91 1772 -91 
Q 1169 -91 856 284 
Q 544 659 544 1381 
z
M 1991 3584 
L 1991 3584 
z
" transform="scale(0.015625)"/>
       <path id="DejaVuSans-69" d="M 603 3500 
L 1178 3500 
L 1178 0 
L 603 0 
L 603 3500 
z
M 603 4863 
L 1178 4863 
L 1178 4134 
L 603 4134 
L 603 4863 
z
" transform="scale(0.015625)"/>
      </defs>
      <use xlink:href="#DejaVuSans-31" transform="translate(0 0.015625)"/>
      <use xlink:href="#DejaVuSans-Oblique-3c3" transform="translate(63.623047 0.015625)"/>
      <use xlink:href="#DejaVuSans-20" transform="translate(127.001953 0.015625)"/>
      <use xlink:href="#DejaVuSans-4e" transform="translate(158.789062 0.015625)"/>
      <use xlink:href="#DejaVuSans-75" transform="translate(233.59375 0.015625)"/>
      <use xlink:href="#DejaVuSans-69" transform="translate(296.972656 0.015625)"/>
      <use xlink:href="#DejaVuSans-73" transform="translate(324.755859 0.015625)"/>
      <use xlink:href="#DejaVuSans-61" transform="translate(376.855469 0.015625)"/>
      <use xlink:href="#DejaVuSans-6e" transform="translate(438.134766 0.015625)"/>
      <use xlink:href="#DejaVuSans-63" transform="translate(501.513672 0.015625)"/>
      <use xlink:href="#DejaVuSans-65" transform="translate(556.494141 0.015625)"/>
     </g>
    </g>
    <g id="line2d_38">
     <path d="M 250.3 53.254688 
L 260.3 53.254688 
L 270.3 53.254688 
" style="fill: none; stroke-dasharray: 1.5,2.475; stroke-dashoffset: 0; stroke: #000000; stroke-width: 1.5"/>
    </g>
    <g id="text_8">
     <!-- Input -->
     <g transform="translate(278.3 56.754688) scale(0.1 -0.1)">
      <defs>
       <path id="DejaVuSans-49" d="M 628 4666 
L 1259 4666 
L 1259 0 
L 628 0 
L 628 4666 
z
" transform="scale(0.015625)"/>
       <path id="DejaVuSans-70" d="M 1159 525 
L 1159 -1331 
L 581 -1331 
L 581 3500 
L 1159 3500 
L 1159 2969 
Q 1341 3281 1617 3432 
Q 1894 3584 2278 3584 
Q 2916 3584 3314 3078 
Q 3713 2572 3713 1747 
Q 3713 922 3314 415 
Q 2916 -91 2278 -91 
Q 1894 -91 1617 61 
Q 1341 213 1159 525 
z
M 3116 1747 
Q 3116 2381 2855 2742 
Q 2594 3103 2138 3103 
Q 1681 3103 1420 2742 
Q 1159 2381 1159 1747 
Q 1159 1113 1420 752 
Q 1681 391 2138 391 
Q 2594 391 2855 752 
Q 3116 1113 3116 1747 
z
" transform="scale(0.015625)"/>
      </defs>
      <use xlink:href="#DejaVuSans-49"/>
      <use xlink:href="#DejaVuSans-6e" x="29.492188"/>
      <use xlink:href="#DejaVuSans-70" x="92.871094"/>
      <use xlink:href="#DejaVuSans-75" x="156.347656"/>
      <use xlink:href="#DejaVuSans-74" x="219.726562"/>
     </g>
    </g>
   </g>
  </g>
 </g>
 <defs>
  <clipPath id="p4b534e1f89">
   <rect x="60.221389" y="10.8" width="288.978611" height="159.928"/>
  </clipPath>
 </defs>
</svg>
