<?xml version="1.0" encoding="utf-8" standalone="no"?>
<!DOCTYPE svg PUBLIC "-//W3C//DTD SVG 1.1//EN"
  "http://www.w3.org/Graphics/SVG/1.1/DTD/svg11.dtd">
<svg xmlns:xlink="http://www.w3.org/1999/xlink" width="576pt" height="168pt" viewBox="0 0 576 168" xmlns="http://www.w3.org/2000/svg" version="1.1">
 <metadata>
  <rdf:RDF xmlns:dc="http://purl.org/dc/elements/1.1/" xmlns:cc="http://creativecommons.org/ns#" xmlns:rdf="http://www.w3.org/1999/02/22-rdf-syntax-ns#">
   <cc:Work>
    <dc:type rdf:resource="http://purl.org/dc/dcmitype/StillImage"/>
    <dc:date>2023-02-13T13:44:27.460885</dc:date>
    <dc:format>image/svg+xml</dc:format>
    <dc:creator>
     <cc:Agent>
      <dc:title>Matplotlib v3.6.2, https://matplotlib.org/</dc:title>
     </cc:Agent>
    </dc:creator>
   </cc:Work>
  </rdf:RDF>
 </metadata>
 <defs>
  <style type="text/css">*{stroke-linejoin: round; stroke-linecap: butt}</style>
 </defs>
 <g id="figure_1">
  <g id="patch_1">
   <path d="M 0 168 
L 576 168 
L 576 0 
L 0 0 
z
" style="fill: #ffffff"/>
  </g>
  <g id="axes_1">
   <g id="patch_2">
    <path d="M 30.58 126.04 
L 278.682023 126.04 
L 278.682023 25.44 
L 30.58 25.44 
z
" style="fill: #ffffff"/>
   </g>
   <g id="patch_3">
    <path d="M 84.937297 126.04 
L 91.087924 126.04 
L 91.087924 94.103492 
L 84.937297 94.103492 
z
" clip-path="url(#p4cde8f9166)" style="fill: #4682b4"/>
   </g>
   <g id="patch_4">
    <path d="M 91.087924 126.04 
L 97.23855 126.04 
L 97.23855 126.04 
L 91.087924 126.04 
z
" clip-path="url(#p4cde8f9166)" style="fill: #4682b4"/>
   </g>
   <g id="patch_5">
    <path d="M 97.23855 126.04 
L 103.389176 126.04 
L 103.389176 126.04 
L 97.23855 126.04 
z
" clip-path="url(#p4cde8f9166)" style="fill: #4682b4"/>
   </g>
   <g id="patch_6">
    <path d="M 103.389176 126.04 
L 109.539802 126.04 
L 109.539802 126.04 
L 103.389176 126.04 
z
" clip-path="url(#p4cde8f9166)" style="fill: #4682b4"/>
   </g>
   <g id="patch_7">
    <path d="M 109.539802 126.04 
L 115.690428 126.04 
L 115.690428 62.166984 
L 109.539802 62.166984 
z
" clip-path="url(#p4cde8f9166)" style="fill: #4682b4"/>
   </g>
   <g id="patch_8">
    <path d="M 115.690428 126.04 
L 121.841055 126.04 
L 121.841055 126.04 
L 115.690428 126.04 
z
" clip-path="url(#p4cde8f9166)" style="fill: #4682b4"/>
   </g>
   <g id="patch_9">
    <path d="M 121.841055 126.04 
L 127.991681 126.04 
L 127.991681 94.103492 
L 121.841055 94.103492 
z
" clip-path="url(#p4cde8f9166)" style="fill: #4682b4"/>
   </g>
   <g id="patch_10">
    <path d="M 127.991681 126.04 
L 134.142307 126.04 
L 134.142307 30.230476 
L 127.991681 30.230476 
z
" clip-path="url(#p4cde8f9166)" style="fill: #4682b4"/>
   </g>
   <g id="patch_11">
    <path d="M 134.142307 126.04 
L 140.292933 126.04 
L 140.292933 126.04 
L 134.142307 126.04 
z
" clip-path="url(#p4cde8f9166)" style="fill: #4682b4"/>
   </g>
   <g id="patch_12">
    <path d="M 140.292933 126.04 
L 146.44356 126.04 
L 146.44356 94.103492 
L 140.292933 94.103492 
z
" clip-path="url(#p4cde8f9166)" style="fill: #4682b4"/>
   </g>
   <g id="patch_13">
    <path d="M 146.44356 126.04 
L 152.594186 126.04 
L 152.594186 126.04 
L 146.44356 126.04 
z
" clip-path="url(#p4cde8f9166)" style="fill: #4682b4"/>
   </g>
   <g id="patch_14">
    <path d="M 152.594186 126.04 
L 158.744812 126.04 
L 158.744812 62.166984 
L 152.594186 62.166984 
z
" clip-path="url(#p4cde8f9166)" style="fill: #4682b4"/>
   </g>
   <g id="patch_15">
    <path d="M 158.744812 126.04 
L 164.895438 126.04 
L 164.895438 126.04 
L 158.744812 126.04 
z
" clip-path="url(#p4cde8f9166)" style="fill: #4682b4"/>
   </g>
   <g id="patch_16">
    <path d="M 164.895438 126.04 
L 171.046064 126.04 
L 171.046064 126.04 
L 164.895438 126.04 
z
" clip-path="url(#p4cde8f9166)" style="fill: #4682b4"/>
   </g>
   <g id="patch_17">
    <path d="M 171.046064 126.04 
L 177.196691 126.04 
L 177.196691 126.04 
L 171.046064 126.04 
z
" clip-path="url(#p4cde8f9166)" style="fill: #4682b4"/>
   </g>
   <g id="patch_18">
    <path d="M 177.196691 126.04 
L 183.347317 126.04 
L 183.347317 94.103492 
L 177.196691 94.103492 
z
" clip-path="url(#p4cde8f9166)" style="fill: #4682b4"/>
   </g>
   <g id="patch_19">
    <path d="M 183.347317 126.04 
L 189.497943 126.04 
L 189.497943 126.04 
L 183.347317 126.04 
z
" clip-path="url(#p4cde8f9166)" style="fill: #4682b4"/>
   </g>
   <g id="patch_20">
    <path d="M 189.497943 126.04 
L 195.648569 126.04 
L 195.648569 94.103492 
L 189.497943 94.103492 
z
" clip-path="url(#p4cde8f9166)" style="fill: #4682b4"/>
   </g>
   <g id="patch_21">
    <path d="M 195.648569 126.04 
L 201.799195 126.04 
L 201.799195 126.04 
L 195.648569 126.04 
z
" clip-path="url(#p4cde8f9166)" style="fill: #4682b4"/>
   </g>
   <g id="patch_22">
    <path d="M 201.799195 126.04 
L 207.949822 126.04 
L 207.949822 62.166984 
L 201.799195 62.166984 
z
" clip-path="url(#p4cde8f9166)" style="fill: #4682b4"/>
   </g>
   <g id="patch_23">
    <path d="M 207.949822 126.04 
L 214.100448 126.04 
L 214.100448 94.103492 
L 207.949822 94.103492 
z
" clip-path="url(#p4cde8f9166)" style="fill: #4682b4"/>
   </g>
   <g id="patch_24">
    <path d="M 214.100448 126.04 
L 220.251074 126.04 
L 220.251074 126.04 
L 214.100448 126.04 
z
" clip-path="url(#p4cde8f9166)" style="fill: #4682b4"/>
   </g>
   <g id="patch_25">
    <path d="M 220.251074 126.04 
L 226.4017 126.04 
L 226.4017 94.103492 
L 220.251074 94.103492 
z
" clip-path="url(#p4cde8f9166)" style="fill: #4682b4"/>
   </g>
   <g id="patch_26">
    <path d="M 226.4017 126.04 
L 232.552327 126.04 
L 232.552327 126.04 
L 226.4017 126.04 
z
" clip-path="url(#p4cde8f9166)" style="fill: #4682b4"/>
   </g>
   <g id="patch_27">
    <path d="M 232.552327 126.04 
L 238.702953 126.04 
L 238.702953 126.04 
L 232.552327 126.04 
z
" clip-path="url(#p4cde8f9166)" style="fill: #4682b4"/>
   </g>
   <g id="patch_28">
    <path d="M 238.702953 126.04 
L 244.853579 126.04 
L 244.853579 126.04 
L 238.702953 126.04 
z
" clip-path="url(#p4cde8f9166)" style="fill: #4682b4"/>
   </g>
   <g id="patch_29">
    <path d="M 244.853579 126.04 
L 251.004205 126.04 
L 251.004205 126.04 
L 244.853579 126.04 
z
" clip-path="url(#p4cde8f9166)" style="fill: #4682b4"/>
   </g>
   <g id="patch_30">
    <path d="M 251.004205 126.04 
L 257.154831 126.04 
L 257.154831 126.04 
L 251.004205 126.04 
z
" clip-path="url(#p4cde8f9166)" style="fill: #4682b4"/>
   </g>
   <g id="patch_31">
    <path d="M 257.154831 126.04 
L 263.305458 126.04 
L 263.305458 126.04 
L 257.154831 126.04 
z
" clip-path="url(#p4cde8f9166)" style="fill: #4682b4"/>
   </g>
   <g id="patch_32">
    <path d="M 263.305458 126.04 
L 269.456084 126.04 
L 269.456084 94.103492 
L 263.305458 94.103492 
z
" clip-path="url(#p4cde8f9166)" style="fill: #4682b4"/>
   </g>
   <g id="matplotlib.axis_1">
    <g id="xtick_1">
     <g id="line2d_1">
      <defs>
       <path id="m6caaadc51f" d="M 0 0 
L 0 3.5 
" style="stroke: #000000; stroke-width: 0.8"/>
      </defs>
      <g>
       <use xlink:href="#m6caaadc51f" x="30.737788" y="126.04" style="stroke: #000000; stroke-width: 0.8"/>
      </g>
     </g>
     <g id="text_1">
      <!-- −0.2 -->
      <g transform="translate(18.596382 140.638438) scale(0.1 -0.1)">
       <defs>
        <path id="DejaVuSans-2212" d="M 678 2272 
L 4684 2272 
L 4684 1741 
L 678 1741 
L 678 2272 
z
" transform="scale(0.015625)"/>
        <path id="DejaVuSans-30" d="M 2034 4250 
Q 1547 4250 1301 3770 
Q 1056 3291 1056 2328 
Q 1056 1369 1301 889 
Q 1547 409 2034 409 
Q 2525 409 2770 889 
Q 3016 1369 3016 2328 
Q 3016 3291 2770 3770 
Q 2525 4250 2034 4250 
z
M 2034 4750 
Q 2819 4750 3233 4129 
Q 3647 3509 3647 2328 
Q 3647 1150 3233 529 
Q 2819 -91 2034 -91 
Q 1250 -91 836 529 
Q 422 1150 422 2328 
Q 422 3509 836 4129 
Q 1250 4750 2034 4750 
z
" transform="scale(0.015625)"/>
        <path id="DejaVuSans-2e" d="M 684 794 
L 1344 794 
L 1344 0 
L 684 0 
L 684 794 
z
" transform="scale(0.015625)"/>
        <path id="DejaVuSans-32" d="M 1228 531 
L 3431 531 
L 3431 0 
L 469 0 
L 469 531 
Q 828 903 1448 1529 
Q 2069 2156 2228 2338 
Q 2531 2678 2651 2914 
Q 2772 3150 2772 3378 
Q 2772 3750 2511 3984 
Q 2250 4219 1831 4219 
Q 1534 4219 1204 4116 
Q 875 4013 500 3803 
L 500 4441 
Q 881 4594 1212 4672 
Q 1544 4750 1819 4750 
Q 2544 4750 2975 4387 
Q 3406 4025 3406 3419 
Q 3406 3131 3298 2873 
Q 3191 2616 2906 2266 
Q 2828 2175 2409 1742 
Q 1991 1309 1228 531 
z
" transform="scale(0.015625)"/>
       </defs>
       <use xlink:href="#DejaVuSans-2212"/>
       <use xlink:href="#DejaVuSans-30" x="83.789062"/>
       <use xlink:href="#DejaVuSans-2e" x="147.412109"/>
       <use xlink:href="#DejaVuSans-32" x="179.199219"/>
      </g>
     </g>
    </g>
    <g id="xtick_2">
     <g id="line2d_2">
      <g>
       <use xlink:href="#m6caaadc51f" x="92.6844" y="126.04" style="stroke: #000000; stroke-width: 0.8"/>
      </g>
     </g>
     <g id="text_2">
      <!-- −0.1 -->
      <g transform="translate(80.542994 140.638438) scale(0.1 -0.1)">
       <defs>
        <path id="DejaVuSans-31" d="M 794 531 
L 1825 531 
L 1825 4091 
L 703 3866 
L 703 4441 
L 1819 4666 
L 2450 4666 
L 2450 531 
L 3481 531 
L 3481 0 
L 794 0 
L 794 531 
z
" transform="scale(0.015625)"/>
       </defs>
       <use xlink:href="#DejaVuSans-2212"/>
       <use xlink:href="#DejaVuSans-30" x="83.789062"/>
       <use xlink:href="#DejaVuSans-2e" x="147.412109"/>
       <use xlink:href="#DejaVuSans-31" x="179.199219"/>
      </g>
     </g>
    </g>
    <g id="xtick_3">
     <g id="line2d_3">
      <g>
       <use xlink:href="#m6caaadc51f" x="154.631012" y="126.04" style="stroke: #000000; stroke-width: 0.8"/>
      </g>
     </g>
     <g id="text_3">
      <!-- 0.0 -->
      <g transform="translate(146.679449 140.638438) scale(0.1 -0.1)">
       <use xlink:href="#DejaVuSans-30"/>
       <use xlink:href="#DejaVuSans-2e" x="63.623047"/>
       <use xlink:href="#DejaVuSans-30" x="95.410156"/>
      </g>
     </g>
    </g>
    <g id="xtick_4">
     <g id="line2d_4">
      <g>
       <use xlink:href="#m6caaadc51f" x="216.577623" y="126.04" style="stroke: #000000; stroke-width: 0.8"/>
      </g>
     </g>
     <g id="text_4">
      <!-- 0.1 -->
      <g transform="translate(208.626061 140.638438) scale(0.1 -0.1)">
       <use xlink:href="#DejaVuSans-30"/>
       <use xlink:href="#DejaVuSans-2e" x="63.623047"/>
       <use xlink:href="#DejaVuSans-31" x="95.410156"/>
      </g>
     </g>
    </g>
    <g id="xtick_5">
     <g id="line2d_5">
      <g>
       <use xlink:href="#m6caaadc51f" x="278.524235" y="126.04" style="stroke: #000000; stroke-width: 0.8"/>
      </g>
     </g>
     <g id="text_5">
      <!-- 0.2 -->
      <g transform="translate(270.572672 140.638438) scale(0.1 -0.1)">
       <use xlink:href="#DejaVuSans-30"/>
       <use xlink:href="#DejaVuSans-2e" x="63.623047"/>
       <use xlink:href="#DejaVuSans-32" x="95.410156"/>
      </g>
     </g>
    </g>
    <g id="text_6">
     <!-- Systematic on Amplitude [%] -->
     <g transform="translate(81.552887 154.316563) scale(0.1 -0.1)">
      <defs>
       <path id="DejaVuSans-53" d="M 3425 4513 
L 3425 3897 
Q 3066 4069 2747 4153 
Q 2428 4238 2131 4238 
Q 1616 4238 1336 4038 
Q 1056 3838 1056 3469 
Q 1056 3159 1242 3001 
Q 1428 2844 1947 2747 
L 2328 2669 
Q 3034 2534 3370 2195 
Q 3706 1856 3706 1288 
Q 3706 609 3251 259 
Q 2797 -91 1919 -91 
Q 1588 -91 1214 -16 
Q 841 59 441 206 
L 441 856 
Q 825 641 1194 531 
Q 1563 422 1919 422 
Q 2459 422 2753 634 
Q 3047 847 3047 1241 
Q 3047 1584 2836 1778 
Q 2625 1972 2144 2069 
L 1759 2144 
Q 1053 2284 737 2584 
Q 422 2884 422 3419 
Q 422 4038 858 4394 
Q 1294 4750 2059 4750 
Q 2388 4750 2728 4690 
Q 3069 4631 3425 4513 
z
" transform="scale(0.015625)"/>
       <path id="DejaVuSans-79" d="M 2059 -325 
Q 1816 -950 1584 -1140 
Q 1353 -1331 966 -1331 
L 506 -1331 
L 506 -850 
L 844 -850 
Q 1081 -850 1212 -737 
Q 1344 -625 1503 -206 
L 1606 56 
L 191 3500 
L 800 3500 
L 1894 763 
L 2988 3500 
L 3597 3500 
L 2059 -325 
z
" transform="scale(0.015625)"/>
       <path id="DejaVuSans-73" d="M 2834 3397 
L 2834 2853 
Q 2591 2978 2328 3040 
Q 2066 3103 1784 3103 
Q 1356 3103 1142 2972 
Q 928 2841 928 2578 
Q 928 2378 1081 2264 
Q 1234 2150 1697 2047 
L 1894 2003 
Q 2506 1872 2764 1633 
Q 3022 1394 3022 966 
Q 3022 478 2636 193 
Q 2250 -91 1575 -91 
Q 1294 -91 989 -36 
Q 684 19 347 128 
L 347 722 
Q 666 556 975 473 
Q 1284 391 1588 391 
Q 1994 391 2212 530 
Q 2431 669 2431 922 
Q 2431 1156 2273 1281 
Q 2116 1406 1581 1522 
L 1381 1569 
Q 847 1681 609 1914 
Q 372 2147 372 2553 
Q 372 3047 722 3315 
Q 1072 3584 1716 3584 
Q 2034 3584 2315 3537 
Q 2597 3491 2834 3397 
z
" transform="scale(0.015625)"/>
       <path id="DejaVuSans-74" d="M 1172 4494 
L 1172 3500 
L 2356 3500 
L 2356 3053 
L 1172 3053 
L 1172 1153 
Q 1172 725 1289 603 
Q 1406 481 1766 481 
L 2356 481 
L 2356 0 
L 1766 0 
Q 1100 0 847 248 
Q 594 497 594 1153 
L 594 3053 
L 172 3053 
L 172 3500 
L 594 3500 
L 594 4494 
L 1172 4494 
z
" transform="scale(0.015625)"/>
       <path id="DejaVuSans-65" d="M 3597 1894 
L 3597 1613 
L 953 1613 
Q 991 1019 1311 708 
Q 1631 397 2203 397 
Q 2534 397 2845 478 
Q 3156 559 3463 722 
L 3463 178 
Q 3153 47 2828 -22 
Q 2503 -91 2169 -91 
Q 1331 -91 842 396 
Q 353 884 353 1716 
Q 353 2575 817 3079 
Q 1281 3584 2069 3584 
Q 2775 3584 3186 3129 
Q 3597 2675 3597 1894 
z
M 3022 2063 
Q 3016 2534 2758 2815 
Q 2500 3097 2075 3097 
Q 1594 3097 1305 2825 
Q 1016 2553 972 2059 
L 3022 2063 
z
" transform="scale(0.015625)"/>
       <path id="DejaVuSans-6d" d="M 3328 2828 
Q 3544 3216 3844 3400 
Q 4144 3584 4550 3584 
Q 5097 3584 5394 3201 
Q 5691 2819 5691 2113 
L 5691 0 
L 5113 0 
L 5113 2094 
Q 5113 2597 4934 2840 
Q 4756 3084 4391 3084 
Q 3944 3084 3684 2787 
Q 3425 2491 3425 1978 
L 3425 0 
L 2847 0 
L 2847 2094 
Q 2847 2600 2669 2842 
Q 2491 3084 2119 3084 
Q 1678 3084 1418 2786 
Q 1159 2488 1159 1978 
L 1159 0 
L 581 0 
L 581 3500 
L 1159 3500 
L 1159 2956 
Q 1356 3278 1631 3431 
Q 1906 3584 2284 3584 
Q 2666 3584 2933 3390 
Q 3200 3197 3328 2828 
z
" transform="scale(0.015625)"/>
       <path id="DejaVuSans-61" d="M 2194 1759 
Q 1497 1759 1228 1600 
Q 959 1441 959 1056 
Q 959 750 1161 570 
Q 1363 391 1709 391 
Q 2188 391 2477 730 
Q 2766 1069 2766 1631 
L 2766 1759 
L 2194 1759 
z
M 3341 1997 
L 3341 0 
L 2766 0 
L 2766 531 
Q 2569 213 2275 61 
Q 1981 -91 1556 -91 
Q 1019 -91 701 211 
Q 384 513 384 1019 
Q 384 1609 779 1909 
Q 1175 2209 1959 2209 
L 2766 2209 
L 2766 2266 
Q 2766 2663 2505 2880 
Q 2244 3097 1772 3097 
Q 1472 3097 1187 3025 
Q 903 2953 641 2809 
L 641 3341 
Q 956 3463 1253 3523 
Q 1550 3584 1831 3584 
Q 2591 3584 2966 3190 
Q 3341 2797 3341 1997 
z
" transform="scale(0.015625)"/>
       <path id="DejaVuSans-69" d="M 603 3500 
L 1178 3500 
L 1178 0 
L 603 0 
L 603 3500 
z
M 603 4863 
L 1178 4863 
L 1178 4134 
L 603 4134 
L 603 4863 
z
" transform="scale(0.015625)"/>
       <path id="DejaVuSans-63" d="M 3122 3366 
L 3122 2828 
Q 2878 2963 2633 3030 
Q 2388 3097 2138 3097 
Q 1578 3097 1268 2742 
Q 959 2388 959 1747 
Q 959 1106 1268 751 
Q 1578 397 2138 397 
Q 2388 397 2633 464 
Q 2878 531 3122 666 
L 3122 134 
Q 2881 22 2623 -34 
Q 2366 -91 2075 -91 
Q 1284 -91 818 406 
Q 353 903 353 1747 
Q 353 2603 823 3093 
Q 1294 3584 2113 3584 
Q 2378 3584 2631 3529 
Q 2884 3475 3122 3366 
z
" transform="scale(0.015625)"/>
       <path id="DejaVuSans-20" transform="scale(0.015625)"/>
       <path id="DejaVuSans-6f" d="M 1959 3097 
Q 1497 3097 1228 2736 
Q 959 2375 959 1747 
Q 959 1119 1226 758 
Q 1494 397 1959 397 
Q 2419 397 2687 759 
Q 2956 1122 2956 1747 
Q 2956 2369 2687 2733 
Q 2419 3097 1959 3097 
z
M 1959 3584 
Q 2709 3584 3137 3096 
Q 3566 2609 3566 1747 
Q 3566 888 3137 398 
Q 2709 -91 1959 -91 
Q 1206 -91 779 398 
Q 353 888 353 1747 
Q 353 2609 779 3096 
Q 1206 3584 1959 3584 
z
" transform="scale(0.015625)"/>
       <path id="DejaVuSans-6e" d="M 3513 2113 
L 3513 0 
L 2938 0 
L 2938 2094 
Q 2938 2591 2744 2837 
Q 2550 3084 2163 3084 
Q 1697 3084 1428 2787 
Q 1159 2491 1159 1978 
L 1159 0 
L 581 0 
L 581 3500 
L 1159 3500 
L 1159 2956 
Q 1366 3272 1645 3428 
Q 1925 3584 2291 3584 
Q 2894 3584 3203 3211 
Q 3513 2838 3513 2113 
z
" transform="scale(0.015625)"/>
       <path id="DejaVuSans-41" d="M 2188 4044 
L 1331 1722 
L 3047 1722 
L 2188 4044 
z
M 1831 4666 
L 2547 4666 
L 4325 0 
L 3669 0 
L 3244 1197 
L 1141 1197 
L 716 0 
L 50 0 
L 1831 4666 
z
" transform="scale(0.015625)"/>
       <path id="DejaVuSans-70" d="M 1159 525 
L 1159 -1331 
L 581 -1331 
L 581 3500 
L 1159 3500 
L 1159 2969 
Q 1341 3281 1617 3432 
Q 1894 3584 2278 3584 
Q 2916 3584 3314 3078 
Q 3713 2572 3713 1747 
Q 3713 922 3314 415 
Q 2916 -91 2278 -91 
Q 1894 -91 1617 61 
Q 1341 213 1159 525 
z
M 3116 1747 
Q 3116 2381 2855 2742 
Q 2594 3103 2138 3103 
Q 1681 3103 1420 2742 
Q 1159 2381 1159 1747 
Q 1159 1113 1420 752 
Q 1681 391 2138 391 
Q 2594 391 2855 752 
Q 3116 1113 3116 1747 
z
" transform="scale(0.015625)"/>
       <path id="DejaVuSans-6c" d="M 603 4863 
L 1178 4863 
L 1178 0 
L 603 0 
L 603 4863 
z
" transform="scale(0.015625)"/>
       <path id="DejaVuSans-75" d="M 544 1381 
L 544 3500 
L 1119 3500 
L 1119 1403 
Q 1119 906 1312 657 
Q 1506 409 1894 409 
Q 2359 409 2629 706 
Q 2900 1003 2900 1516 
L 2900 3500 
L 3475 3500 
L 3475 0 
L 2900 0 
L 2900 538 
Q 2691 219 2414 64 
Q 2138 -91 1772 -91 
Q 1169 -91 856 284 
Q 544 659 544 1381 
z
M 1991 3584 
L 1991 3584 
z
" transform="scale(0.015625)"/>
       <path id="DejaVuSans-64" d="M 2906 2969 
L 2906 4863 
L 3481 4863 
L 3481 0 
L 2906 0 
L 2906 525 
Q 2725 213 2448 61 
Q 2172 -91 1784 -91 
Q 1150 -91 751 415 
Q 353 922 353 1747 
Q 353 2572 751 3078 
Q 1150 3584 1784 3584 
Q 2172 3584 2448 3432 
Q 2725 3281 2906 2969 
z
M 947 1747 
Q 947 1113 1208 752 
Q 1469 391 1925 391 
Q 2381 391 2643 752 
Q 2906 1113 2906 1747 
Q 2906 2381 2643 2742 
Q 2381 3103 1925 3103 
Q 1469 3103 1208 2742 
Q 947 2381 947 1747 
z
" transform="scale(0.015625)"/>
       <path id="DejaVuSans-5b" d="M 550 4863 
L 1875 4863 
L 1875 4416 
L 1125 4416 
L 1125 -397 
L 1875 -397 
L 1875 -844 
L 550 -844 
L 550 4863 
z
" transform="scale(0.015625)"/>
       <path id="DejaVuSans-25" d="M 4653 2053 
Q 4381 2053 4226 1822 
Q 4072 1591 4072 1178 
Q 4072 772 4226 539 
Q 4381 306 4653 306 
Q 4919 306 5073 539 
Q 5228 772 5228 1178 
Q 5228 1588 5073 1820 
Q 4919 2053 4653 2053 
z
M 4653 2450 
Q 5147 2450 5437 2106 
Q 5728 1763 5728 1178 
Q 5728 594 5436 251 
Q 5144 -91 4653 -91 
Q 4153 -91 3862 251 
Q 3572 594 3572 1178 
Q 3572 1766 3864 2108 
Q 4156 2450 4653 2450 
z
M 1428 4353 
Q 1159 4353 1004 4120 
Q 850 3888 850 3481 
Q 850 3069 1003 2837 
Q 1156 2606 1428 2606 
Q 1700 2606 1854 2837 
Q 2009 3069 2009 3481 
Q 2009 3884 1853 4118 
Q 1697 4353 1428 4353 
z
M 4250 4750 
L 4750 4750 
L 1831 -91 
L 1331 -91 
L 4250 4750 
z
M 1428 4750 
Q 1922 4750 2215 4408 
Q 2509 4066 2509 3481 
Q 2509 2891 2217 2550 
Q 1925 2209 1428 2209 
Q 931 2209 642 2551 
Q 353 2894 353 3481 
Q 353 4063 643 4406 
Q 934 4750 1428 4750 
z
" transform="scale(0.015625)"/>
       <path id="DejaVuSans-5d" d="M 1947 4863 
L 1947 -844 
L 622 -844 
L 622 -397 
L 1369 -397 
L 1369 4416 
L 622 4416 
L 622 4863 
L 1947 4863 
z
" transform="scale(0.015625)"/>
      </defs>
      <use xlink:href="#DejaVuSans-53"/>
      <use xlink:href="#DejaVuSans-79" x="63.476562"/>
      <use xlink:href="#DejaVuSans-73" x="122.65625"/>
      <use xlink:href="#DejaVuSans-74" x="174.755859"/>
      <use xlink:href="#DejaVuSans-65" x="213.964844"/>
      <use xlink:href="#DejaVuSans-6d" x="275.488281"/>
      <use xlink:href="#DejaVuSans-61" x="372.900391"/>
      <use xlink:href="#DejaVuSans-74" x="434.179688"/>
      <use xlink:href="#DejaVuSans-69" x="473.388672"/>
      <use xlink:href="#DejaVuSans-63" x="501.171875"/>
      <use xlink:href="#DejaVuSans-20" x="556.152344"/>
      <use xlink:href="#DejaVuSans-6f" x="587.939453"/>
      <use xlink:href="#DejaVuSans-6e" x="649.121094"/>
      <use xlink:href="#DejaVuSans-20" x="712.5"/>
      <use xlink:href="#DejaVuSans-41" x="744.287109"/>
      <use xlink:href="#DejaVuSans-6d" x="812.695312"/>
      <use xlink:href="#DejaVuSans-70" x="910.107422"/>
      <use xlink:href="#DejaVuSans-6c" x="973.583984"/>
      <use xlink:href="#DejaVuSans-69" x="1001.367188"/>
      <use xlink:href="#DejaVuSans-74" x="1029.150391"/>
      <use xlink:href="#DejaVuSans-75" x="1068.359375"/>
      <use xlink:href="#DejaVuSans-64" x="1131.738281"/>
      <use xlink:href="#DejaVuSans-65" x="1195.214844"/>
      <use xlink:href="#DejaVuSans-20" x="1256.738281"/>
      <use xlink:href="#DejaVuSans-5b" x="1288.525391"/>
      <use xlink:href="#DejaVuSans-25" x="1327.539062"/>
      <use xlink:href="#DejaVuSans-5d" x="1422.558594"/>
     </g>
    </g>
   </g>
   <g id="matplotlib.axis_2">
    <g id="ytick_1">
     <g id="line2d_6">
      <defs>
       <path id="m0e0b29bfab" d="M 0 0 
L -3.5 0 
" style="stroke: #000000; stroke-width: 0.8"/>
      </defs>
      <g>
       <use xlink:href="#m0e0b29bfab" x="30.58" y="126.04" style="stroke: #000000; stroke-width: 0.8"/>
      </g>
     </g>
     <g id="text_7">
      <!-- 0 -->
      <g transform="translate(17.2175 129.839219) scale(0.1 -0.1)">
       <use xlink:href="#DejaVuSans-30"/>
      </g>
     </g>
    </g>
    <g id="ytick_2">
     <g id="line2d_7">
      <g>
       <use xlink:href="#m0e0b29bfab" x="30.58" y="99.086937" style="stroke: #000000; stroke-width: 0.8"/>
      </g>
     </g>
     <g id="text_8">
      <!-- 5 -->
      <g transform="translate(17.2175 102.886155) scale(0.1 -0.1)">
       <defs>
        <path id="DejaVuSans-35" d="M 691 4666 
L 3169 4666 
L 3169 4134 
L 1269 4134 
L 1269 2991 
Q 1406 3038 1543 3061 
Q 1681 3084 1819 3084 
Q 2600 3084 3056 2656 
Q 3513 2228 3513 1497 
Q 3513 744 3044 326 
Q 2575 -91 1722 -91 
Q 1428 -91 1123 -41 
Q 819 9 494 109 
L 494 744 
Q 775 591 1075 516 
Q 1375 441 1709 441 
Q 2250 441 2565 725 
Q 2881 1009 2881 1497 
Q 2881 1984 2565 2268 
Q 2250 2553 1709 2553 
Q 1456 2553 1204 2497 
Q 953 2441 691 2322 
L 691 4666 
z
" transform="scale(0.015625)"/>
       </defs>
       <use xlink:href="#DejaVuSans-35"/>
      </g>
     </g>
    </g>
    <g id="ytick_3">
     <g id="line2d_8">
      <g>
       <use xlink:href="#m0e0b29bfab" x="30.58" y="72.133873" style="stroke: #000000; stroke-width: 0.8"/>
      </g>
     </g>
     <g id="text_9">
      <!-- 10 -->
      <g transform="translate(10.855 75.933092) scale(0.1 -0.1)">
       <use xlink:href="#DejaVuSans-31"/>
       <use xlink:href="#DejaVuSans-30" x="63.623047"/>
      </g>
     </g>
    </g>
    <g id="ytick_4">
     <g id="line2d_9">
      <g>
       <use xlink:href="#m0e0b29bfab" x="30.58" y="45.18081" style="stroke: #000000; stroke-width: 0.8"/>
      </g>
     </g>
     <g id="text_10">
      <!-- 15 -->
      <g transform="translate(10.855 48.980029) scale(0.1 -0.1)">
       <use xlink:href="#DejaVuSans-31"/>
       <use xlink:href="#DejaVuSans-35" x="63.623047"/>
      </g>
     </g>
    </g>
   </g>
   <g id="line2d_10">
    <path d="M 84.937297 115.503298 
L 91.087924 113.825142 
L 97.23855 112.071612 
L 103.389176 110.282826 
L 109.539802 108.505858 
L 115.690428 106.792919 
L 121.841055 105.19896 
L 127.991681 103.778826 
L 134.142307 102.584165 
L 140.292933 101.660327 
L 146.44356 101.04351 
L 152.594186 100.758413 
L 158.744812 100.81659 
L 164.895438 101.215676 
L 171.046064 101.939547 
L 177.196691 102.959397 
L 183.347317 104.235645 
L 189.497943 105.720477 
L 195.648569 107.360815 
L 201.799195 109.101439 
L 207.949822 110.888025 
L 214.100448 112.669854 
L 220.251074 114.402031 
L 226.4017 116.04708 
L 232.552327 117.575881 
L 238.702953 118.96795 
L 244.853579 120.211149 
L 251.004205 121.300911 
L 257.154831 122.239149 
L 263.305458 123.032948 
L 269.456084 123.693204 
" clip-path="url(#p4cde8f9166)" style="fill: none; stroke: #ff0000; stroke-width: 2; stroke-linecap: square"/>
   </g>
   <g id="patch_33">
    <path d="M 30.58 126.04 
L 30.58 25.44 
" style="fill: none; stroke: #000000; stroke-width: 0.8; stroke-linejoin: miter; stroke-linecap: square"/>
   </g>
   <g id="patch_34">
    <path d="M 278.682023 126.04 
L 278.682023 25.44 
" style="fill: none; stroke: #000000; stroke-width: 0.8; stroke-linejoin: miter; stroke-linecap: square"/>
   </g>
   <g id="patch_35">
    <path d="M 30.58 126.04 
L 278.682023 126.04 
" style="fill: none; stroke: #000000; stroke-width: 0.8; stroke-linejoin: miter; stroke-linecap: square"/>
   </g>
   <g id="patch_36">
    <path d="M 30.58 25.44 
L 278.682023 25.44 
" style="fill: none; stroke: #000000; stroke-width: 0.8; stroke-linejoin: miter; stroke-linecap: square"/>
   </g>
   <g id="legend_1">
    <g id="patch_37">
     <path d="M 162.082023 48.138438 
L 271.682023 48.138438 
Q 273.682023 48.138438 273.682023 46.138438 
L 273.682023 32.44 
Q 273.682023 30.44 271.682023 30.44 
L 162.082023 30.44 
Q 160.082023 30.44 160.082023 32.44 
L 160.082023 46.138438 
Q 160.082023 48.138438 162.082023 48.138438 
z
" style="fill: #ffffff; opacity: 0.8; stroke: #cccccc; stroke-linejoin: miter"/>
    </g>
    <g id="line2d_11">
     <path d="M 164.082023 38.538438 
L 174.082023 38.538438 
L 184.082023 38.538438 
" style="fill: none; stroke: #ff0000; stroke-width: 2; stroke-linecap: square"/>
    </g>
    <g id="text_11">
     <!-- $\mu = 0; \sigma = 0.085$ -->
     <g transform="translate(192.082023 42.038438) scale(0.1 -0.1)">
      <defs>
       <path id="DejaVuSans-Oblique-3bc" d="M -84 -1331 
L 856 3500 
L 1434 3500 
L 1009 1322 
Q 997 1256 987 1175 
Q 978 1094 978 1013 
Q 978 722 1161 565 
Q 1344 409 1684 409 
Q 2147 409 2431 671 
Q 2716 934 2816 1459 
L 3213 3500 
L 3788 3500 
L 3266 809 
Q 3253 750 3248 706 
Q 3244 663 3244 628 
Q 3244 531 3283 486 
Q 3322 441 3406 441 
Q 3438 441 3492 456 
Q 3547 472 3647 513 
L 3559 50 
Q 3422 -19 3297 -55 
Q 3172 -91 3053 -91 
Q 2847 -91 2730 40 
Q 2613 172 2613 403 
Q 2438 153 2195 31 
Q 1953 -91 1625 -91 
Q 1334 -91 1117 43 
Q 900 178 831 397 
L 494 -1331 
L -84 -1331 
z
" transform="scale(0.015625)"/>
       <path id="DejaVuSans-3d" d="M 678 2906 
L 4684 2906 
L 4684 2381 
L 678 2381 
L 678 2906 
z
M 678 1631 
L 4684 1631 
L 4684 1100 
L 678 1100 
L 678 1631 
z
" transform="scale(0.015625)"/>
       <path id="DejaVuSans-3b" d="M 750 3309 
L 1409 3309 
L 1409 2516 
L 750 2516 
L 750 3309 
z
M 750 794 
L 1409 794 
L 1409 256 
L 897 -744 
L 494 -744 
L 750 256 
L 750 794 
z
" transform="scale(0.015625)"/>
       <path id="DejaVuSans-Oblique-3c3" d="M 2219 3044 
Q 1744 3044 1422 2700 
Q 1081 2341 969 1747 
Q 844 1119 1044 756 
Q 1241 397 1706 397 
Q 2166 397 2503 759 
Q 2844 1122 2966 1747 
Q 3075 2319 2881 2700 
Q 2700 3044 2219 3044 
z
M 2309 3503 
L 4219 3500 
L 4106 2925 
L 3463 2925 
Q 3706 2438 3575 1747 
Q 3406 888 2884 400 
Q 2359 -91 1609 -91 
Q 856 -91 525 400 
Q 194 888 363 1747 
Q 528 2609 1050 3097 
Q 1484 3503 2309 3503 
z
" transform="scale(0.015625)"/>
       <path id="DejaVuSans-38" d="M 2034 2216 
Q 1584 2216 1326 1975 
Q 1069 1734 1069 1313 
Q 1069 891 1326 650 
Q 1584 409 2034 409 
Q 2484 409 2743 651 
Q 3003 894 3003 1313 
Q 3003 1734 2745 1975 
Q 2488 2216 2034 2216 
z
M 1403 2484 
Q 997 2584 770 2862 
Q 544 3141 544 3541 
Q 544 4100 942 4425 
Q 1341 4750 2034 4750 
Q 2731 4750 3128 4425 
Q 3525 4100 3525 3541 
Q 3525 3141 3298 2862 
Q 3072 2584 2669 2484 
Q 3125 2378 3379 2068 
Q 3634 1759 3634 1313 
Q 3634 634 3220 271 
Q 2806 -91 2034 -91 
Q 1263 -91 848 271 
Q 434 634 434 1313 
Q 434 1759 690 2068 
Q 947 2378 1403 2484 
z
M 1172 3481 
Q 1172 3119 1398 2916 
Q 1625 2713 2034 2713 
Q 2441 2713 2670 2916 
Q 2900 3119 2900 3481 
Q 2900 3844 2670 4047 
Q 2441 4250 2034 4250 
Q 1625 4250 1398 4047 
Q 1172 3844 1172 3481 
z
" transform="scale(0.015625)"/>
      </defs>
      <use xlink:href="#DejaVuSans-Oblique-3bc" transform="translate(0 0.78125)"/>
      <use xlink:href="#DejaVuSans-3d" transform="translate(83.105469 0.78125)"/>
      <use xlink:href="#DejaVuSans-30" transform="translate(186.376953 0.78125)"/>
      <use xlink:href="#DejaVuSans-3b" transform="translate(250 0.78125)"/>
      <use xlink:href="#DejaVuSans-Oblique-3c3" transform="translate(303.173828 0.78125)"/>
      <use xlink:href="#DejaVuSans-3d" transform="translate(386.035156 0.78125)"/>
      <use xlink:href="#DejaVuSans-30" transform="translate(489.306641 0.78125)"/>
      <use xlink:href="#DejaVuSans-2e" transform="translate(552.929688 0.78125)"/>
      <use xlink:href="#DejaVuSans-30" transform="translate(584.716797 0.78125)"/>
      <use xlink:href="#DejaVuSans-38" transform="translate(648.339844 0.78125)"/>
      <use xlink:href="#DejaVuSans-35" transform="translate(711.962891 0.78125)"/>
     </g>
    </g>
   </g>
  </g>
  <g id="axes_2">
   <g id="patch_38">
    <path d="M 317.097977 126.04 
L 565.2 126.04 
L 565.2 25.44 
L 317.097977 25.44 
z
" style="fill: #ffffff"/>
   </g>
   <g id="patch_39">
    <path d="M 328.375342 126.04 
L 335.893585 126.04 
L 335.893585 78.135238 
L 328.375342 78.135238 
z
" clip-path="url(#p66104bfd04)" style="fill: #4682b4"/>
   </g>
   <g id="patch_40">
    <path d="M 335.893585 126.04 
L 343.411828 126.04 
L 343.411828 126.04 
L 335.893585 126.04 
z
" clip-path="url(#p66104bfd04)" style="fill: #4682b4"/>
   </g>
   <g id="patch_41">
    <path d="M 343.411828 126.04 
L 350.930071 126.04 
L 350.930071 126.04 
L 343.411828 126.04 
z
" clip-path="url(#p66104bfd04)" style="fill: #4682b4"/>
   </g>
   <g id="patch_42">
    <path d="M 350.930071 126.04 
L 358.448314 126.04 
L 358.448314 126.04 
L 350.930071 126.04 
z
" clip-path="url(#p66104bfd04)" style="fill: #4682b4"/>
   </g>
   <g id="patch_43">
    <path d="M 358.448314 126.04 
L 365.966557 126.04 
L 365.966557 78.135238 
L 358.448314 78.135238 
z
" clip-path="url(#p66104bfd04)" style="fill: #4682b4"/>
   </g>
   <g id="patch_44">
    <path d="M 365.966557 126.04 
L 373.4848 126.04 
L 373.4848 78.135238 
L 365.966557 78.135238 
z
" clip-path="url(#p66104bfd04)" style="fill: #4682b4"/>
   </g>
   <g id="patch_45">
    <path d="M 373.4848 126.04 
L 381.003043 126.04 
L 381.003043 78.135238 
L 373.4848 78.135238 
z
" clip-path="url(#p66104bfd04)" style="fill: #4682b4"/>
   </g>
   <g id="patch_46">
    <path d="M 381.003043 126.04 
L 388.521287 126.04 
L 388.521287 126.04 
L 381.003043 126.04 
z
" clip-path="url(#p66104bfd04)" style="fill: #4682b4"/>
   </g>
   <g id="patch_47">
    <path d="M 388.521287 126.04 
L 396.03953 126.04 
L 396.03953 78.135238 
L 388.521287 78.135238 
z
" clip-path="url(#p66104bfd04)" style="fill: #4682b4"/>
   </g>
   <g id="patch_48">
    <path d="M 396.03953 126.04 
L 403.557773 126.04 
L 403.557773 78.135238 
L 396.03953 78.135238 
z
" clip-path="url(#p66104bfd04)" style="fill: #4682b4"/>
   </g>
   <g id="patch_49">
    <path d="M 403.557773 126.04 
L 411.076016 126.04 
L 411.076016 126.04 
L 403.557773 126.04 
z
" clip-path="url(#p66104bfd04)" style="fill: #4682b4"/>
   </g>
   <g id="patch_50">
    <path d="M 411.076016 126.04 
L 418.594259 126.04 
L 418.594259 78.135238 
L 411.076016 78.135238 
z
" clip-path="url(#p66104bfd04)" style="fill: #4682b4"/>
   </g>
   <g id="patch_51">
    <path d="M 418.594259 126.04 
L 426.112502 126.04 
L 426.112502 78.135238 
L 418.594259 78.135238 
z
" clip-path="url(#p66104bfd04)" style="fill: #4682b4"/>
   </g>
   <g id="patch_52">
    <path d="M 426.112502 126.04 
L 433.630745 126.04 
L 433.630745 78.135238 
L 426.112502 78.135238 
z
" clip-path="url(#p66104bfd04)" style="fill: #4682b4"/>
   </g>
   <g id="patch_53">
    <path d="M 433.630745 126.04 
L 441.148988 126.04 
L 441.148988 126.04 
L 433.630745 126.04 
z
" clip-path="url(#p66104bfd04)" style="fill: #4682b4"/>
   </g>
   <g id="patch_54">
    <path d="M 441.148988 126.04 
L 448.667232 126.04 
L 448.667232 126.04 
L 441.148988 126.04 
z
" clip-path="url(#p66104bfd04)" style="fill: #4682b4"/>
   </g>
   <g id="patch_55">
    <path d="M 448.667232 126.04 
L 456.185475 126.04 
L 456.185475 78.135238 
L 448.667232 78.135238 
z
" clip-path="url(#p66104bfd04)" style="fill: #4682b4"/>
   </g>
   <g id="patch_56">
    <path d="M 456.185475 126.04 
L 463.703718 126.04 
L 463.703718 78.135238 
L 456.185475 78.135238 
z
" clip-path="url(#p66104bfd04)" style="fill: #4682b4"/>
   </g>
   <g id="patch_57">
    <path d="M 463.703718 126.04 
L 471.221961 126.04 
L 471.221961 126.04 
L 463.703718 126.04 
z
" clip-path="url(#p66104bfd04)" style="fill: #4682b4"/>
   </g>
   <g id="patch_58">
    <path d="M 471.221961 126.04 
L 478.740204 126.04 
L 478.740204 126.04 
L 471.221961 126.04 
z
" clip-path="url(#p66104bfd04)" style="fill: #4682b4"/>
   </g>
   <g id="patch_59">
    <path d="M 478.740204 126.04 
L 486.258447 126.04 
L 486.258447 78.135238 
L 478.740204 78.135238 
z
" clip-path="url(#p66104bfd04)" style="fill: #4682b4"/>
   </g>
   <g id="patch_60">
    <path d="M 486.258447 126.04 
L 493.77669 126.04 
L 493.77669 78.135238 
L 486.258447 78.135238 
z
" clip-path="url(#p66104bfd04)" style="fill: #4682b4"/>
   </g>
   <g id="patch_61">
    <path d="M 493.77669 126.04 
L 501.294933 126.04 
L 501.294933 126.04 
L 493.77669 126.04 
z
" clip-path="url(#p66104bfd04)" style="fill: #4682b4"/>
   </g>
   <g id="patch_62">
    <path d="M 501.294933 126.04 
L 508.813177 126.04 
L 508.813177 126.04 
L 501.294933 126.04 
z
" clip-path="url(#p66104bfd04)" style="fill: #4682b4"/>
   </g>
   <g id="patch_63">
    <path d="M 508.813177 126.04 
L 516.33142 126.04 
L 516.33142 78.135238 
L 508.813177 78.135238 
z
" clip-path="url(#p66104bfd04)" style="fill: #4682b4"/>
   </g>
   <g id="patch_64">
    <path d="M 516.33142 126.04 
L 523.849663 126.04 
L 523.849663 126.04 
L 516.33142 126.04 
z
" clip-path="url(#p66104bfd04)" style="fill: #4682b4"/>
   </g>
   <g id="patch_65">
    <path d="M 523.849663 126.04 
L 531.367906 126.04 
L 531.367906 78.135238 
L 523.849663 78.135238 
z
" clip-path="url(#p66104bfd04)" style="fill: #4682b4"/>
   </g>
   <g id="patch_66">
    <path d="M 531.367906 126.04 
L 538.886149 126.04 
L 538.886149 126.04 
L 531.367906 126.04 
z
" clip-path="url(#p66104bfd04)" style="fill: #4682b4"/>
   </g>
   <g id="patch_67">
    <path d="M 538.886149 126.04 
L 546.404392 126.04 
L 546.404392 126.04 
L 538.886149 126.04 
z
" clip-path="url(#p66104bfd04)" style="fill: #4682b4"/>
   </g>
   <g id="patch_68">
    <path d="M 546.404392 126.04 
L 553.922635 126.04 
L 553.922635 30.230476 
L 546.404392 30.230476 
z
" clip-path="url(#p66104bfd04)" style="fill: #4682b4"/>
   </g>
   <g id="matplotlib.axis_3">
    <g id="xtick_6">
     <g id="line2d_12">
      <g>
       <use xlink:href="#m6caaadc51f" x="346.114783" y="126.04" style="stroke: #000000; stroke-width: 0.8"/>
      </g>
     </g>
     <g id="text_12">
      <!-- −0.03 -->
      <g transform="translate(330.792127 140.638438) scale(0.1 -0.1)">
       <defs>
        <path id="DejaVuSans-33" d="M 2597 2516 
Q 3050 2419 3304 2112 
Q 3559 1806 3559 1356 
Q 3559 666 3084 287 
Q 2609 -91 1734 -91 
Q 1441 -91 1130 -33 
Q 819 25 488 141 
L 488 750 
Q 750 597 1062 519 
Q 1375 441 1716 441 
Q 2309 441 2620 675 
Q 2931 909 2931 1356 
Q 2931 1769 2642 2001 
Q 2353 2234 1838 2234 
L 1294 2234 
L 1294 2753 
L 1863 2753 
Q 2328 2753 2575 2939 
Q 2822 3125 2822 3475 
Q 2822 3834 2567 4026 
Q 2313 4219 1838 4219 
Q 1578 4219 1281 4162 
Q 984 4106 628 3988 
L 628 4550 
Q 988 4650 1302 4700 
Q 1616 4750 1894 4750 
Q 2613 4750 3031 4423 
Q 3450 4097 3450 3541 
Q 3450 3153 3228 2886 
Q 3006 2619 2597 2516 
z
" transform="scale(0.015625)"/>
       </defs>
       <use xlink:href="#DejaVuSans-2212"/>
       <use xlink:href="#DejaVuSans-30" x="83.789062"/>
       <use xlink:href="#DejaVuSans-2e" x="147.412109"/>
       <use xlink:href="#DejaVuSans-30" x="179.199219"/>
       <use xlink:href="#DejaVuSans-33" x="242.822266"/>
      </g>
     </g>
    </g>
    <g id="xtick_7">
     <g id="line2d_13">
      <g>
       <use xlink:href="#m6caaadc51f" x="383.599593" y="126.04" style="stroke: #000000; stroke-width: 0.8"/>
      </g>
     </g>
     <g id="text_13">
      <!-- −0.02 -->
      <g transform="translate(368.276937 140.638438) scale(0.1 -0.1)">
       <use xlink:href="#DejaVuSans-2212"/>
       <use xlink:href="#DejaVuSans-30" x="83.789062"/>
       <use xlink:href="#DejaVuSans-2e" x="147.412109"/>
       <use xlink:href="#DejaVuSans-30" x="179.199219"/>
       <use xlink:href="#DejaVuSans-32" x="242.822266"/>
      </g>
     </g>
    </g>
    <g id="xtick_8">
     <g id="line2d_14">
      <g>
       <use xlink:href="#m6caaadc51f" x="421.084404" y="126.04" style="stroke: #000000; stroke-width: 0.8"/>
      </g>
     </g>
     <g id="text_14">
      <!-- −0.01 -->
      <g transform="translate(405.761747 140.638438) scale(0.1 -0.1)">
       <use xlink:href="#DejaVuSans-2212"/>
       <use xlink:href="#DejaVuSans-30" x="83.789062"/>
       <use xlink:href="#DejaVuSans-2e" x="147.412109"/>
       <use xlink:href="#DejaVuSans-30" x="179.199219"/>
       <use xlink:href="#DejaVuSans-31" x="242.822266"/>
      </g>
     </g>
    </g>
    <g id="xtick_9">
     <g id="line2d_15">
      <g>
       <use xlink:href="#m6caaadc51f" x="458.569214" y="126.04" style="stroke: #000000; stroke-width: 0.8"/>
      </g>
     </g>
     <g id="text_15">
      <!-- 0.00 -->
      <g transform="translate(447.436402 140.638438) scale(0.1 -0.1)">
       <use xlink:href="#DejaVuSans-30"/>
       <use xlink:href="#DejaVuSans-2e" x="63.623047"/>
       <use xlink:href="#DejaVuSans-30" x="95.410156"/>
       <use xlink:href="#DejaVuSans-30" x="159.033203"/>
      </g>
     </g>
    </g>
    <g id="xtick_10">
     <g id="line2d_16">
      <g>
       <use xlink:href="#m6caaadc51f" x="496.054024" y="126.04" style="stroke: #000000; stroke-width: 0.8"/>
      </g>
     </g>
     <g id="text_16">
      <!-- 0.01 -->
      <g transform="translate(484.921212 140.638438) scale(0.1 -0.1)">
       <use xlink:href="#DejaVuSans-30"/>
       <use xlink:href="#DejaVuSans-2e" x="63.623047"/>
       <use xlink:href="#DejaVuSans-30" x="95.410156"/>
       <use xlink:href="#DejaVuSans-31" x="159.033203"/>
      </g>
     </g>
    </g>
    <g id="xtick_11">
     <g id="line2d_17">
      <g>
       <use xlink:href="#m6caaadc51f" x="533.538835" y="126.04" style="stroke: #000000; stroke-width: 0.8"/>
      </g>
     </g>
     <g id="text_17">
      <!-- 0.02 -->
      <g transform="translate(522.406022 140.638438) scale(0.1 -0.1)">
       <use xlink:href="#DejaVuSans-30"/>
       <use xlink:href="#DejaVuSans-2e" x="63.623047"/>
       <use xlink:href="#DejaVuSans-30" x="95.410156"/>
       <use xlink:href="#DejaVuSans-32" x="159.033203"/>
      </g>
     </g>
    </g>
    <g id="text_18">
     <!-- Systematic on Index [%] -->
     <g transform="translate(379.927113 154.316563) scale(0.1 -0.1)">
      <defs>
       <path id="DejaVuSans-49" d="M 628 4666 
L 1259 4666 
L 1259 0 
L 628 0 
L 628 4666 
z
" transform="scale(0.015625)"/>
       <path id="DejaVuSans-78" d="M 3513 3500 
L 2247 1797 
L 3578 0 
L 2900 0 
L 1881 1375 
L 863 0 
L 184 0 
L 1544 1831 
L 300 3500 
L 978 3500 
L 1906 2253 
L 2834 3500 
L 3513 3500 
z
" transform="scale(0.015625)"/>
      </defs>
      <use xlink:href="#DejaVuSans-53"/>
      <use xlink:href="#DejaVuSans-79" x="63.476562"/>
      <use xlink:href="#DejaVuSans-73" x="122.65625"/>
      <use xlink:href="#DejaVuSans-74" x="174.755859"/>
      <use xlink:href="#DejaVuSans-65" x="213.964844"/>
      <use xlink:href="#DejaVuSans-6d" x="275.488281"/>
      <use xlink:href="#DejaVuSans-61" x="372.900391"/>
      <use xlink:href="#DejaVuSans-74" x="434.179688"/>
      <use xlink:href="#DejaVuSans-69" x="473.388672"/>
      <use xlink:href="#DejaVuSans-63" x="501.171875"/>
      <use xlink:href="#DejaVuSans-20" x="556.152344"/>
      <use xlink:href="#DejaVuSans-6f" x="587.939453"/>
      <use xlink:href="#DejaVuSans-6e" x="649.121094"/>
      <use xlink:href="#DejaVuSans-20" x="712.5"/>
      <use xlink:href="#DejaVuSans-49" x="744.287109"/>
      <use xlink:href="#DejaVuSans-6e" x="773.779297"/>
      <use xlink:href="#DejaVuSans-64" x="837.158203"/>
      <use xlink:href="#DejaVuSans-65" x="900.634766"/>
      <use xlink:href="#DejaVuSans-78" x="960.408203"/>
      <use xlink:href="#DejaVuSans-20" x="1019.587891"/>
      <use xlink:href="#DejaVuSans-5b" x="1051.375"/>
      <use xlink:href="#DejaVuSans-25" x="1090.388672"/>
      <use xlink:href="#DejaVuSans-5d" x="1185.408203"/>
     </g>
    </g>
   </g>
   <g id="matplotlib.axis_4">
    <g id="ytick_5">
     <g id="line2d_18">
      <g>
       <use xlink:href="#m0e0b29bfab" x="317.097977" y="126.04" style="stroke: #000000; stroke-width: 0.8"/>
      </g>
     </g>
     <g id="text_19">
      <!-- 0 -->
      <g transform="translate(303.735477 129.839219) scale(0.1 -0.1)">
       <use xlink:href="#DejaVuSans-30"/>
      </g>
     </g>
    </g>
    <g id="ytick_6">
     <g id="line2d_19">
      <g>
       <use xlink:href="#m0e0b29bfab" x="317.097977" y="93.372293" style="stroke: #000000; stroke-width: 0.8"/>
      </g>
     </g>
     <g id="text_20">
      <!-- 20 -->
      <g transform="translate(297.372977 97.171512) scale(0.1 -0.1)">
       <use xlink:href="#DejaVuSans-32"/>
       <use xlink:href="#DejaVuSans-30" x="63.623047"/>
      </g>
     </g>
    </g>
    <g id="ytick_7">
     <g id="line2d_20">
      <g>
       <use xlink:href="#m0e0b29bfab" x="317.097977" y="60.704586" style="stroke: #000000; stroke-width: 0.8"/>
      </g>
     </g>
     <g id="text_21">
      <!-- 40 -->
      <g transform="translate(297.372977 64.503805) scale(0.1 -0.1)">
       <defs>
        <path id="DejaVuSans-34" d="M 2419 4116 
L 825 1625 
L 2419 1625 
L 2419 4116 
z
M 2253 4666 
L 3047 4666 
L 3047 1625 
L 3713 1625 
L 3713 1100 
L 3047 1100 
L 3047 0 
L 2419 0 
L 2419 1100 
L 313 1100 
L 313 1709 
L 2253 4666 
z
" transform="scale(0.015625)"/>
       </defs>
       <use xlink:href="#DejaVuSans-34"/>
       <use xlink:href="#DejaVuSans-30" x="63.623047"/>
      </g>
     </g>
    </g>
    <g id="ytick_8">
     <g id="line2d_21">
      <g>
       <use xlink:href="#m0e0b29bfab" x="317.097977" y="28.036879" style="stroke: #000000; stroke-width: 0.8"/>
      </g>
     </g>
     <g id="text_22">
      <!-- 60 -->
      <g transform="translate(297.372977 31.836098) scale(0.1 -0.1)">
       <defs>
        <path id="DejaVuSans-36" d="M 2113 2584 
Q 1688 2584 1439 2293 
Q 1191 2003 1191 1497 
Q 1191 994 1439 701 
Q 1688 409 2113 409 
Q 2538 409 2786 701 
Q 3034 994 3034 1497 
Q 3034 2003 2786 2293 
Q 2538 2584 2113 2584 
z
M 3366 4563 
L 3366 3988 
Q 3128 4100 2886 4159 
Q 2644 4219 2406 4219 
Q 1781 4219 1451 3797 
Q 1122 3375 1075 2522 
Q 1259 2794 1537 2939 
Q 1816 3084 2150 3084 
Q 2853 3084 3261 2657 
Q 3669 2231 3669 1497 
Q 3669 778 3244 343 
Q 2819 -91 2113 -91 
Q 1303 -91 875 529 
Q 447 1150 447 2328 
Q 447 3434 972 4092 
Q 1497 4750 2381 4750 
Q 2619 4750 2861 4703 
Q 3103 4656 3366 4563 
z
" transform="scale(0.015625)"/>
       </defs>
       <use xlink:href="#DejaVuSans-36"/>
       <use xlink:href="#DejaVuSans-30" x="63.623047"/>
      </g>
     </g>
    </g>
   </g>
   <g id="line2d_22">
    <path d="M 328.375342 123.063758 
L 335.893585 122.019803 
L 343.411828 120.705891 
L 350.930071 119.087969 
L 358.448314 117.13986 
L 365.966557 114.847753 
L 373.4848 112.214748 
L 381.003043 109.264938 
L 388.521287 106.046422 
L 396.03953 102.632652 
L 403.557773 99.1216 
L 411.076016 95.63244 
L 418.594259 92.299678 
L 426.112502 89.265042 
L 433.630745 86.667729 
L 441.148988 84.633926 
L 448.667232 83.26668 
L 456.185475 82.637257 
L 463.703718 82.778984 
L 471.221961 83.684329 
L 478.740204 85.305563 
L 486.258447 87.558925 
L 493.77669 90.331797 
L 501.294933 93.492016 
L 508.813177 96.898258 
L 516.33142 100.410375 
L 523.849663 103.89864 
L 531.367906 107.251087 
L 538.886149 110.378465 
L 546.404392 113.216626 
L 553.922635 115.726511 
" clip-path="url(#p66104bfd04)" style="fill: none; stroke: #ff0000; stroke-width: 2; stroke-linecap: square"/>
   </g>
   <g id="patch_69">
    <path d="M 317.097977 126.04 
L 317.097977 25.44 
" style="fill: none; stroke: #000000; stroke-width: 0.8; stroke-linejoin: miter; stroke-linecap: square"/>
   </g>
   <g id="patch_70">
    <path d="M 565.2 126.04 
L 565.2 25.44 
" style="fill: none; stroke: #000000; stroke-width: 0.8; stroke-linejoin: miter; stroke-linecap: square"/>
   </g>
   <g id="patch_71">
    <path d="M 317.097977 126.04 
L 565.2 126.04 
" style="fill: none; stroke: #000000; stroke-width: 0.8; stroke-linejoin: miter; stroke-linecap: square"/>
   </g>
   <g id="patch_72">
    <path d="M 317.097977 25.44 
L 565.2 25.44 
" style="fill: none; stroke: #000000; stroke-width: 0.8; stroke-linejoin: miter; stroke-linecap: square"/>
   </g>
   <g id="text_23">
    <!-- N = 17 -->
    <g transform="translate(420.183676 19.44) scale(0.12 -0.12)">
     <defs>
      <path id="DejaVuSans-4e" d="M 628 4666 
L 1478 4666 
L 3547 763 
L 3547 4666 
L 4159 4666 
L 4159 0 
L 3309 0 
L 1241 3903 
L 1241 0 
L 628 0 
L 628 4666 
z
" transform="scale(0.015625)"/>
      <path id="DejaVuSans-37" d="M 525 4666 
L 3525 4666 
L 3525 4397 
L 1831 0 
L 1172 0 
L 2766 4134 
L 525 4134 
L 525 4666 
z
" transform="scale(0.015625)"/>
     </defs>
     <use xlink:href="#DejaVuSans-4e"/>
     <use xlink:href="#DejaVuSans-20" x="74.804688"/>
     <use xlink:href="#DejaVuSans-3d" x="106.591797"/>
     <use xlink:href="#DejaVuSans-20" x="190.380859"/>
     <use xlink:href="#DejaVuSans-31" x="222.167969"/>
     <use xlink:href="#DejaVuSans-37" x="285.791016"/>
    </g>
   </g>
   <g id="legend_2">
    <g id="patch_73">
     <path d="M 324.097977 48.138438 
L 433.697977 48.138438 
Q 435.697977 48.138438 435.697977 46.138438 
L 435.697977 32.44 
Q 435.697977 30.44 433.697977 30.44 
L 324.097977 30.44 
Q 322.097977 30.44 322.097977 32.44 
L 322.097977 46.138438 
Q 322.097977 48.138438 324.097977 48.138438 
z
" style="fill: #ffffff; opacity: 0.8; stroke: #cccccc; stroke-linejoin: miter"/>
    </g>
    <g id="line2d_23">
     <path d="M 326.097977 38.538438 
L 336.097977 38.538438 
L 346.097977 38.538438 
" style="fill: none; stroke: #ff0000; stroke-width: 2; stroke-linecap: square"/>
    </g>
    <g id="text_24">
     <!-- $\mu = 0; \sigma = 0.015$ -->
     <g transform="translate(354.097977 42.038438) scale(0.1 -0.1)">
      <use xlink:href="#DejaVuSans-Oblique-3bc" transform="translate(0 0.78125)"/>
      <use xlink:href="#DejaVuSans-3d" transform="translate(83.105469 0.78125)"/>
      <use xlink:href="#DejaVuSans-30" transform="translate(186.376953 0.78125)"/>
      <use xlink:href="#DejaVuSans-3b" transform="translate(250 0.78125)"/>
      <use xlink:href="#DejaVuSans-Oblique-3c3" transform="translate(303.173828 0.78125)"/>
      <use xlink:href="#DejaVuSans-3d" transform="translate(386.035156 0.78125)"/>
      <use xlink:href="#DejaVuSans-30" transform="translate(489.306641 0.78125)"/>
      <use xlink:href="#DejaVuSans-2e" transform="translate(552.929688 0.78125)"/>
      <use xlink:href="#DejaVuSans-30" transform="translate(584.716797 0.78125)"/>
      <use xlink:href="#DejaVuSans-31" transform="translate(648.339844 0.78125)"/>
      <use xlink:href="#DejaVuSans-35" transform="translate(711.962891 0.78125)"/>
     </g>
    </g>
   </g>
  </g>
 </g>
 <defs>
  <clipPath id="p4cde8f9166">
   <rect x="30.58" y="25.44" width="248.102023" height="100.6"/>
  </clipPath>
  <clipPath id="p66104bfd04">
   <rect x="317.097977" y="25.44" width="248.102023" height="100.6"/>
  </clipPath>
 </defs>
</svg>
