<?xml version="1.0" encoding="utf-8" standalone="no"?>
<!DOCTYPE svg PUBLIC "-//W3C//DTD SVG 1.1//EN"
  "http://www.w3.org/Graphics/SVG/1.1/DTD/svg11.dtd">
<svg xmlns:xlink="http://www.w3.org/1999/xlink" width="360pt" height="360pt" viewBox="0 0 360 360" xmlns="http://www.w3.org/2000/svg" version="1.1">
 <metadata>
  <rdf:RDF xmlns:dc="http://purl.org/dc/elements/1.1/" xmlns:cc="http://creativecommons.org/ns#" xmlns:rdf="http://www.w3.org/1999/02/22-rdf-syntax-ns#">
   <cc:Work>
    <dc:type rdf:resource="http://purl.org/dc/dcmitype/StillImage"/>
    <dc:date>2023-02-13T13:44:29.365432</dc:date>
    <dc:format>image/svg+xml</dc:format>
    <dc:creator>
     <cc:Agent>
      <dc:title>Matplotlib v3.6.2, https://matplotlib.org/</dc:title>
     </cc:Agent>
    </dc:creator>
   </cc:Work>
  </rdf:RDF>
 </metadata>
 <defs>
  <style type="text/css">*{stroke-linejoin: round; stroke-linecap: butt}</style>
 </defs>
 <g id="figure_1">
  <g id="patch_1">
   <path d="M 0 360 
L 360 360 
L 360 0 
L 0 0 
z
" style="fill: #ffffff"/>
  </g>
  <g id="axes_1">
   <g id="patch_2">
    <path d="M 77.371281 189.421377 
L 349.2 189.421377 
L 349.2 25.44 
L 77.371281 25.44 
z
" style="fill: #ffffff"/>
   </g>
   <g id="PolyCollection_1">
    <path d="M 90.962717 32.893699 
L 90.962717 58.393855 
L 93.433887 59.370452 
L 95.905057 60.350676 
L 98.376227 61.33463 
L 100.847398 62.322422 
L 103.318568 63.314164 
L 105.789738 64.309971 
L 108.260908 65.309964 
L 110.732078 66.314268 
L 113.203248 67.323011 
L 115.674419 68.336326 
L 118.145589 69.354348 
L 120.616759 70.377219 
L 123.087929 71.405079 
L 125.559099 72.438077 
L 128.03027 73.476359 
L 130.50144 74.520075 
L 132.97261 75.569378 
L 135.44378 76.62442 
L 137.91495 77.685352 
L 140.38612 78.752326 
L 142.857291 79.825493 
L 145.328461 80.904999 
L 147.799631 81.990988 
L 150.270801 83.0836 
L 152.741971 84.182969 
L 155.213141 85.289221 
L 157.684312 86.402477 
L 160.155482 87.522846 
L 162.626652 88.650431 
L 165.097822 89.785322 
L 167.568992 90.927596 
L 170.040162 92.077322 
L 172.511333 93.234551 
L 174.982503 94.399323 
L 177.453673 95.571664 
L 179.924843 96.751584 
L 182.396013 97.93908 
L 184.867183 99.134134 
L 187.338354 100.336713 
L 189.809524 101.546771 
L 192.280694 102.764249 
L 194.751864 103.989073 
L 197.223034 105.221159 
L 199.694205 106.460411 
L 202.165375 107.706724 
L 204.636545 108.959982 
L 207.107715 110.220061 
L 209.578885 111.48683 
L 212.050055 112.760154 
L 214.521226 114.03989 
L 216.992396 115.325893 
L 219.463566 116.618013 
L 221.934736 117.916101 
L 224.405906 119.220003 
L 226.877076 120.529569 
L 229.348247 121.844645 
L 231.819417 123.165081 
L 234.290587 124.490728 
L 236.761757 125.821439 
L 239.232927 127.157068 
L 241.704097 128.497476 
L 244.175268 129.842523 
L 246.646438 131.192075 
L 249.117608 132.546002 
L 251.588778 133.904176 
L 254.059948 135.266477 
L 256.531119 136.632785 
L 259.002289 138.002986 
L 261.473459 139.376971 
L 263.944629 140.754634 
L 266.415799 142.135875 
L 268.886969 143.520596 
L 271.35814 144.908705 
L 273.82931 146.300113 
L 276.30048 147.694734 
L 278.77165 149.092489 
L 281.24282 150.493299 
L 283.71399 151.897092 
L 286.185161 153.303797 
L 288.656331 154.713347 
L 291.127501 156.12568 
L 293.598671 157.540734 
L 296.069841 158.958453 
L 298.541011 160.378783 
L 301.012182 161.801671 
L 303.483352 163.227069 
L 305.954522 164.654931 
L 308.425692 166.085213 
L 310.896862 167.517873 
L 313.368032 168.952872 
L 315.839203 170.390174 
L 318.310373 171.829743 
L 320.781543 173.271547 
L 323.252713 174.715554 
L 325.723883 176.161736 
L 328.195054 177.610064 
L 330.666224 179.060513 
L 333.137394 180.513059 
L 335.608564 181.967678 
L 335.608564 144.816454 
L 335.608564 144.816454 
L 333.137394 143.812994 
L 330.666224 142.809198 
L 328.195054 141.805039 
L 325.723883 140.800485 
L 323.252713 139.795505 
L 320.781543 138.790065 
L 318.310373 137.784131 
L 315.839203 136.777664 
L 313.368032 135.770628 
L 310.896862 134.762981 
L 308.425692 133.754681 
L 305.954522 132.745683 
L 303.483352 131.735942 
L 301.012182 130.725408 
L 298.541011 129.71403 
L 296.069841 128.701755 
L 293.598671 127.688526 
L 291.127501 126.674285 
L 288.656331 125.658969 
L 286.185161 124.642515 
L 283.71399 123.624854 
L 281.24282 122.605915 
L 278.77165 121.585626 
L 276.30048 120.563907 
L 273.82931 119.540679 
L 271.35814 118.515856 
L 268.886969 117.489351 
L 266.415799 116.46107 
L 263.944629 115.430917 
L 261.473459 114.398793 
L 259.002289 113.364593 
L 256.531119 112.328209 
L 254.059948 111.289527 
L 251.588778 110.248432 
L 249.117608 109.204802 
L 246.646438 108.158512 
L 244.175268 107.109432 
L 241.704097 106.057431 
L 239.232927 105.00237 
L 236.761757 103.944109 
L 234.290587 102.882506 
L 231.819417 101.817412 
L 229.348247 100.74868 
L 226.877076 99.676158 
L 224.405906 98.599693 
L 221.934736 97.519131 
L 219.463566 96.434319 
L 216.992396 95.345103 
L 214.521226 94.25133 
L 212.050055 93.152851 
L 209.578885 92.049519 
L 207.107715 90.941191 
L 204.636545 89.827728 
L 202.165375 88.709 
L 199.694205 87.584881 
L 197.223034 86.455256 
L 194.751864 85.320018 
L 192.280694 84.17907 
L 189.809524 83.032327 
L 187.338354 81.879717 
L 184.867183 80.721178 
L 182.396013 79.556665 
L 179.924843 78.386145 
L 177.453673 77.2096 
L 174.982503 76.027025 
L 172.511333 74.838432 
L 170.040162 73.643847 
L 167.568992 72.443309 
L 165.097822 71.236871 
L 162.626652 70.024601 
L 160.155482 68.806578 
L 157.684312 67.582892 
L 155.213141 66.353645 
L 152.741971 65.11895 
L 150.270801 63.878926 
L 147.799631 62.633701 
L 145.328461 61.383411 
L 142.857291 60.128196 
L 140.38612 58.868202 
L 137.91495 57.603576 
L 135.44378 56.33447 
L 132.97261 55.061037 
L 130.50144 53.783431 
L 128.03027 52.501807 
L 125.559099 51.216316 
L 123.087929 49.927112 
L 120.616759 48.634344 
L 118.145589 47.33816 
L 115.674419 46.038706 
L 113.203248 44.736123 
L 110.732078 43.430551 
L 108.260908 42.122123 
L 105.789738 40.810972 
L 103.318568 39.497225 
L 100.847398 38.181003 
L 98.376227 36.862428 
L 95.905057 35.541612 
L 93.433887 34.218667 
L 90.962717 32.893699 
z
" clip-path="url(#p58d91484dd)" style="fill: #008000; fill-opacity: 0.5"/>
   </g>
   <g id="PolyCollection_2">
    <path d="M 90.962717 35.277996 
L 90.962717 55.229183 
L 93.433887 56.172225 
L 95.905057 57.117885 
L 98.376227 58.06627 
L 100.847398 59.017494 
L 103.318568 59.971682 
L 105.789738 60.928971 
L 108.260908 61.889507 
L 110.732078 62.85345 
L 113.203248 63.820972 
L 115.674419 64.792261 
L 118.145589 65.767521 
L 120.616759 66.746969 
L 123.087929 67.730843 
L 125.559099 68.719398 
L 128.03027 69.712909 
L 130.50144 70.711671 
L 132.97261 71.716 
L 135.44378 72.726234 
L 137.91495 73.742731 
L 140.38612 74.76587 
L 142.857291 75.796051 
L 145.328461 76.833692 
L 147.799631 77.879226 
L 150.270801 78.933097 
L 152.741971 79.99576 
L 155.213141 81.067669 
L 157.684312 82.149275 
L 160.155482 83.241018 
L 162.626652 84.343315 
L 165.097822 85.456555 
L 167.568992 86.581087 
L 170.040162 87.717213 
L 172.511333 88.865177 
L 174.982503 90.025157 
L 177.453673 91.197265 
L 179.924843 92.381537 
L 182.396013 93.577933 
L 184.867183 94.786344 
L 187.338354 96.006586 
L 189.809524 97.238415 
L 192.280694 98.481529 
L 194.751864 99.735576 
L 197.223034 101.000168 
L 199.694205 102.274885 
L 202.165375 103.559288 
L 204.636545 104.852927 
L 207.107715 106.155345 
L 209.578885 107.466091 
L 212.050055 108.784717 
L 214.521226 110.110793 
L 216.992396 111.443901 
L 219.463566 112.783641 
L 221.934736 114.129635 
L 224.405906 115.481525 
L 226.877076 116.838974 
L 229.348247 118.201666 
L 231.819417 119.569307 
L 234.290587 120.941623 
L 236.761757 122.318358 
L 239.232927 123.699276 
L 241.704097 125.084159 
L 244.175268 126.472804 
L 246.646438 127.865024 
L 249.117608 129.260646 
L 251.588778 130.659512 
L 254.059948 132.061474 
L 256.531119 133.466397 
L 259.002289 134.874157 
L 261.473459 136.284638 
L 263.944629 137.697734 
L 266.415799 139.113347 
L 268.886969 140.531388 
L 271.35814 141.951774 
L 273.82931 143.374427 
L 276.30048 144.799277 
L 278.77165 146.22626 
L 281.24282 147.655315 
L 283.71399 149.086386 
L 286.185161 150.519423 
L 288.656331 151.954379 
L 291.127501 153.39121 
L 293.598671 154.829877 
L 296.069841 156.270342 
L 298.541011 157.712572 
L 301.012182 159.156535 
L 303.483352 160.602203 
L 305.954522 162.049549 
L 308.425692 163.498549 
L 310.896862 164.949182 
L 313.368032 166.401426 
L 315.839203 167.855263 
L 318.310373 169.310677 
L 320.781543 170.767651 
L 323.252713 172.226172 
L 325.723883 173.686227 
L 328.195054 175.147805 
L 330.666224 176.610895 
L 333.137394 178.075489 
L 335.608564 179.541578 
L 335.608564 146.38203 
L 335.608564 146.38203 
L 333.137394 145.395114 
L 330.666224 144.408344 
L 328.195054 143.421705 
L 325.723883 142.435181 
L 323.252713 141.448759 
L 320.781543 140.462421 
L 318.310373 139.476148 
L 315.839203 138.489923 
L 313.368032 137.503724 
L 310.896862 136.517529 
L 308.425692 135.531316 
L 305.954522 134.545059 
L 303.483352 133.558731 
L 301.012182 132.572304 
L 298.541011 131.585747 
L 296.069841 130.599026 
L 293.598671 129.612108 
L 291.127501 128.624952 
L 288.656331 127.637519 
L 286.185161 126.649765 
L 283.71399 125.661643 
L 281.24282 124.673101 
L 278.77165 123.684086 
L 276.30048 122.694537 
L 273.82931 121.704393 
L 271.35814 120.713584 
L 268.886969 119.722036 
L 266.415799 118.729671 
L 263.944629 117.7364 
L 261.473459 116.742133 
L 259.002289 115.746767 
L 256.531119 114.750195 
L 254.059948 113.752298 
L 251.588778 112.752949 
L 249.117608 111.75201 
L 246.646438 110.749332 
L 244.175268 109.744753 
L 241.704097 108.738099 
L 239.232927 107.72918 
L 236.761757 106.717791 
L 234.290587 105.703713 
L 231.819417 104.686706 
L 229.348247 103.666514 
L 226.877076 102.642861 
L 224.405906 101.615451 
L 221.934736 100.583966 
L 219.463566 99.548069 
L 216.992396 98.507398 
L 214.521226 97.461575 
L 212.050055 96.4102 
L 209.578885 95.352852 
L 207.107715 94.2891 
L 204.636545 93.218497 
L 202.165375 92.140588 
L 199.694205 91.054918 
L 197.223034 89.961035 
L 194.751864 88.858499 
L 192.280694 87.74689 
L 189.809524 86.625818 
L 187.338354 85.494933 
L 184.867183 84.353931 
L 182.396013 83.202567 
L 179.924843 82.04066 
L 177.453673 80.868097 
L 174.982503 79.68484 
L 172.511333 78.490926 
L 170.040162 77.286465 
L 167.568992 76.071636 
L 165.097822 74.846684 
L 162.626652 73.61191 
L 160.155482 72.367665 
L 157.684312 71.114337 
L 155.213141 69.852345 
L 152.741971 68.582128 
L 150.270801 67.304139 
L 147.799631 66.018834 
L 145.328461 64.726666 
L 142.857291 63.428082 
L 140.38612 62.123516 
L 137.91495 60.813387 
L 135.44378 59.498095 
L 132.97261 58.178022 
L 130.50144 56.853528 
L 128.03027 55.52495 
L 125.559099 54.192608 
L 123.087929 52.856797 
L 120.616759 51.517794 
L 118.145589 50.175857 
L 115.674419 48.831225 
L 113.203248 47.484117 
L 110.732078 46.13474 
L 108.260908 44.783283 
L 105.789738 43.429921 
L 103.318568 42.074816 
L 100.847398 40.718117 
L 98.376227 39.359962 
L 95.905057 38.00048 
L 93.433887 36.639788 
L 90.962717 35.277996 
z
" clip-path="url(#p58d91484dd)" style="fill: #ff0000; fill-opacity: 0.6"/>
   </g>
   <g id="matplotlib.axis_1">
    <g id="xtick_1">
     <g id="line2d_1">
      <defs>
       <path id="ma57ff12960" d="M 0 0 
L 0 3.5 
" style="stroke: #000000; stroke-width: 0.8"/>
      </defs>
      <g>
       <use xlink:href="#ma57ff12960" x="126.06787" y="189.421377" style="stroke: #000000; stroke-width: 0.8"/>
      </g>
     </g>
    </g>
    <g id="xtick_2">
     <g id="line2d_2">
      <g>
       <use xlink:href="#ma57ff12960" x="242.358231" y="189.421377" style="stroke: #000000; stroke-width: 0.8"/>
      </g>
     </g>
    </g>
    <g id="xtick_3">
     <g id="line2d_3">
      <defs>
       <path id="m82cb1700b4" d="M 0 0 
L 0 2 
" style="stroke: #000000; stroke-width: 0.6"/>
      </defs>
      <g>
       <use xlink:href="#m82cb1700b4" x="79.791282" y="189.421377" style="stroke: #000000; stroke-width: 0.6"/>
      </g>
     </g>
    </g>
    <g id="xtick_4">
     <g id="line2d_4">
      <g>
       <use xlink:href="#m82cb1700b4" x="91.060983" y="189.421377" style="stroke: #000000; stroke-width: 0.6"/>
      </g>
     </g>
    </g>
    <g id="xtick_5">
     <g id="line2d_5">
      <g>
       <use xlink:href="#m82cb1700b4" x="100.268998" y="189.421377" style="stroke: #000000; stroke-width: 0.6"/>
      </g>
     </g>
    </g>
    <g id="xtick_6">
     <g id="line2d_6">
      <g>
       <use xlink:href="#m82cb1700b4" x="108.054265" y="189.421377" style="stroke: #000000; stroke-width: 0.6"/>
      </g>
     </g>
    </g>
    <g id="xtick_7">
     <g id="line2d_7">
      <g>
       <use xlink:href="#m82cb1700b4" x="114.798169" y="189.421377" style="stroke: #000000; stroke-width: 0.6"/>
      </g>
     </g>
    </g>
    <g id="xtick_8">
     <g id="line2d_8">
      <g>
       <use xlink:href="#m82cb1700b4" x="120.746715" y="189.421377" style="stroke: #000000; stroke-width: 0.6"/>
      </g>
     </g>
    </g>
    <g id="xtick_9">
     <g id="line2d_9">
      <g>
       <use xlink:href="#m82cb1700b4" x="161.074757" y="189.421377" style="stroke: #000000; stroke-width: 0.6"/>
      </g>
     </g>
    </g>
    <g id="xtick_10">
     <g id="line2d_10">
      <g>
       <use xlink:href="#m82cb1700b4" x="181.552473" y="189.421377" style="stroke: #000000; stroke-width: 0.6"/>
      </g>
     </g>
    </g>
    <g id="xtick_11">
     <g id="line2d_11">
      <g>
       <use xlink:href="#m82cb1700b4" x="196.081643" y="189.421377" style="stroke: #000000; stroke-width: 0.6"/>
      </g>
     </g>
    </g>
    <g id="xtick_12">
     <g id="line2d_12">
      <g>
       <use xlink:href="#m82cb1700b4" x="207.351344" y="189.421377" style="stroke: #000000; stroke-width: 0.6"/>
      </g>
     </g>
    </g>
    <g id="xtick_13">
     <g id="line2d_13">
      <g>
       <use xlink:href="#m82cb1700b4" x="216.55936" y="189.421377" style="stroke: #000000; stroke-width: 0.6"/>
      </g>
     </g>
    </g>
    <g id="xtick_14">
     <g id="line2d_14">
      <g>
       <use xlink:href="#m82cb1700b4" x="224.344626" y="189.421377" style="stroke: #000000; stroke-width: 0.6"/>
      </g>
     </g>
    </g>
    <g id="xtick_15">
     <g id="line2d_15">
      <g>
       <use xlink:href="#m82cb1700b4" x="231.08853" y="189.421377" style="stroke: #000000; stroke-width: 0.6"/>
      </g>
     </g>
    </g>
    <g id="xtick_16">
     <g id="line2d_16">
      <g>
       <use xlink:href="#m82cb1700b4" x="237.037076" y="189.421377" style="stroke: #000000; stroke-width: 0.6"/>
      </g>
     </g>
    </g>
    <g id="xtick_17">
     <g id="line2d_17">
      <g>
       <use xlink:href="#m82cb1700b4" x="277.365118" y="189.421377" style="stroke: #000000; stroke-width: 0.6"/>
      </g>
     </g>
    </g>
    <g id="xtick_18">
     <g id="line2d_18">
      <g>
       <use xlink:href="#m82cb1700b4" x="297.842834" y="189.421377" style="stroke: #000000; stroke-width: 0.6"/>
      </g>
     </g>
    </g>
    <g id="xtick_19">
     <g id="line2d_19">
      <g>
       <use xlink:href="#m82cb1700b4" x="312.372005" y="189.421377" style="stroke: #000000; stroke-width: 0.6"/>
      </g>
     </g>
    </g>
    <g id="xtick_20">
     <g id="line2d_20">
      <g>
       <use xlink:href="#m82cb1700b4" x="323.641705" y="189.421377" style="stroke: #000000; stroke-width: 0.6"/>
      </g>
     </g>
    </g>
    <g id="xtick_21">
     <g id="line2d_21">
      <g>
       <use xlink:href="#m82cb1700b4" x="332.849721" y="189.421377" style="stroke: #000000; stroke-width: 0.6"/>
      </g>
     </g>
    </g>
    <g id="xtick_22">
     <g id="line2d_22">
      <g>
       <use xlink:href="#m82cb1700b4" x="340.634987" y="189.421377" style="stroke: #000000; stroke-width: 0.6"/>
      </g>
     </g>
    </g>
    <g id="xtick_23">
     <g id="line2d_23">
      <g>
       <use xlink:href="#m82cb1700b4" x="347.378891" y="189.421377" style="stroke: #000000; stroke-width: 0.6"/>
      </g>
     </g>
    </g>
   </g>
   <g id="matplotlib.axis_2">
    <g id="ytick_1">
     <g id="line2d_24">
      <defs>
       <path id="m8002f1fca1" d="M 0 0 
L -3.5 0 
" style="stroke: #000000; stroke-width: 0.8"/>
      </defs>
      <g>
       <use xlink:href="#m8002f1fca1" x="77.371281" y="61.3703" style="stroke: #000000; stroke-width: 0.8"/>
      </g>
     </g>
     <g id="text_1">
      <!-- $\mathdefault{10^{-12}}$ -->
      <g transform="translate(42.471281 65.169518) scale(0.1 -0.1)">
       <defs>
        <path id="DejaVuSans-31" d="M 794 531 
L 1825 531 
L 1825 4091 
L 703 3866 
L 703 4441 
L 1819 4666 
L 2450 4666 
L 2450 531 
L 3481 531 
L 3481 0 
L 794 0 
L 794 531 
z
" transform="scale(0.015625)"/>
        <path id="DejaVuSans-30" d="M 2034 4250 
Q 1547 4250 1301 3770 
Q 1056 3291 1056 2328 
Q 1056 1369 1301 889 
Q 1547 409 2034 409 
Q 2525 409 2770 889 
Q 3016 1369 3016 2328 
Q 3016 3291 2770 3770 
Q 2525 4250 2034 4250 
z
M 2034 4750 
Q 2819 4750 3233 4129 
Q 3647 3509 3647 2328 
Q 3647 1150 3233 529 
Q 2819 -91 2034 -91 
Q 1250 -91 836 529 
Q 422 1150 422 2328 
Q 422 3509 836 4129 
Q 1250 4750 2034 4750 
z
" transform="scale(0.015625)"/>
        <path id="DejaVuSans-2212" d="M 678 2272 
L 4684 2272 
L 4684 1741 
L 678 1741 
L 678 2272 
z
" transform="scale(0.015625)"/>
        <path id="DejaVuSans-32" d="M 1228 531 
L 3431 531 
L 3431 0 
L 469 0 
L 469 531 
Q 828 903 1448 1529 
Q 2069 2156 2228 2338 
Q 2531 2678 2651 2914 
Q 2772 3150 2772 3378 
Q 2772 3750 2511 3984 
Q 2250 4219 1831 4219 
Q 1534 4219 1204 4116 
Q 875 4013 500 3803 
L 500 4441 
Q 881 4594 1212 4672 
Q 1544 4750 1819 4750 
Q 2544 4750 2975 4387 
Q 3406 4025 3406 3419 
Q 3406 3131 3298 2873 
Q 3191 2616 2906 2266 
Q 2828 2175 2409 1742 
Q 1991 1309 1228 531 
z
" transform="scale(0.015625)"/>
       </defs>
       <use xlink:href="#DejaVuSans-31" transform="translate(0 0.765625)"/>
       <use xlink:href="#DejaVuSans-30" transform="translate(63.623047 0.765625)"/>
       <use xlink:href="#DejaVuSans-2212" transform="translate(128.203125 39.046875) scale(0.7)"/>
       <use xlink:href="#DejaVuSans-31" transform="translate(186.855469 39.046875) scale(0.7)"/>
       <use xlink:href="#DejaVuSans-32" transform="translate(231.391602 39.046875) scale(0.7)"/>
      </g>
     </g>
    </g>
    <g id="ytick_2">
     <g id="line2d_25">
      <defs>
       <path id="m41c96357e3" d="M 0 0 
L -2 0 
" style="stroke: #000000; stroke-width: 0.6"/>
      </defs>
      <g>
       <use xlink:href="#m41c96357e3" x="77.371281" y="157.993429" style="stroke: #000000; stroke-width: 0.6"/>
      </g>
     </g>
     <g id="text_2">
      <!-- $\mathdefault{3\times10^{-13}}$ -->
      <g transform="translate(25.371281 161.792648) scale(0.1 -0.1)">
       <defs>
        <path id="DejaVuSans-33" d="M 2597 2516 
Q 3050 2419 3304 2112 
Q 3559 1806 3559 1356 
Q 3559 666 3084 287 
Q 2609 -91 1734 -91 
Q 1441 -91 1130 -33 
Q 819 25 488 141 
L 488 750 
Q 750 597 1062 519 
Q 1375 441 1716 441 
Q 2309 441 2620 675 
Q 2931 909 2931 1356 
Q 2931 1769 2642 2001 
Q 2353 2234 1838 2234 
L 1294 2234 
L 1294 2753 
L 1863 2753 
Q 2328 2753 2575 2939 
Q 2822 3125 2822 3475 
Q 2822 3834 2567 4026 
Q 2313 4219 1838 4219 
Q 1578 4219 1281 4162 
Q 984 4106 628 3988 
L 628 4550 
Q 988 4650 1302 4700 
Q 1616 4750 1894 4750 
Q 2613 4750 3031 4423 
Q 3450 4097 3450 3541 
Q 3450 3153 3228 2886 
Q 3006 2619 2597 2516 
z
" transform="scale(0.015625)"/>
        <path id="DejaVuSans-d7" d="M 4488 3438 
L 3059 2003 
L 4488 575 
L 4116 197 
L 2681 1631 
L 1247 197 
L 878 575 
L 2303 2003 
L 878 3438 
L 1247 3816 
L 2681 2381 
L 4116 3816 
L 4488 3438 
z
" transform="scale(0.015625)"/>
       </defs>
       <use xlink:href="#DejaVuSans-33" transform="translate(0 0.765625)"/>
       <use xlink:href="#DejaVuSans-d7" transform="translate(83.105469 0.765625)"/>
       <use xlink:href="#DejaVuSans-31" transform="translate(186.376953 0.765625)"/>
       <use xlink:href="#DejaVuSans-30" transform="translate(250 0.765625)"/>
       <use xlink:href="#DejaVuSans-2212" transform="translate(314.580078 39.046875) scale(0.7)"/>
       <use xlink:href="#DejaVuSans-31" transform="translate(373.232422 39.046875) scale(0.7)"/>
       <use xlink:href="#DejaVuSans-33" transform="translate(417.768555 39.046875) scale(0.7)"/>
      </g>
     </g>
    </g>
    <g id="ytick_3">
     <g id="line2d_26">
      <g>
       <use xlink:href="#m41c96357e3" x="77.371281" y="134.905913" style="stroke: #000000; stroke-width: 0.6"/>
      </g>
     </g>
     <g id="text_3">
      <!-- $\mathdefault{4\times10^{-13}}$ -->
      <g transform="translate(25.371281 138.705131) scale(0.1 -0.1)">
       <defs>
        <path id="DejaVuSans-34" d="M 2419 4116 
L 825 1625 
L 2419 1625 
L 2419 4116 
z
M 2253 4666 
L 3047 4666 
L 3047 1625 
L 3713 1625 
L 3713 1100 
L 3047 1100 
L 3047 0 
L 2419 0 
L 2419 1100 
L 313 1100 
L 313 1709 
L 2253 4666 
z
" transform="scale(0.015625)"/>
       </defs>
       <use xlink:href="#DejaVuSans-34" transform="translate(0 0.765625)"/>
       <use xlink:href="#DejaVuSans-d7" transform="translate(83.105469 0.765625)"/>
       <use xlink:href="#DejaVuSans-31" transform="translate(186.376953 0.765625)"/>
       <use xlink:href="#DejaVuSans-30" transform="translate(250 0.765625)"/>
       <use xlink:href="#DejaVuSans-2212" transform="translate(314.580078 39.046875) scale(0.7)"/>
       <use xlink:href="#DejaVuSans-31" transform="translate(373.232422 39.046875) scale(0.7)"/>
       <use xlink:href="#DejaVuSans-33" transform="translate(417.768555 39.046875) scale(0.7)"/>
      </g>
     </g>
    </g>
    <g id="ytick_4">
     <g id="line2d_27">
      <g>
       <use xlink:href="#m41c96357e3" x="77.371281" y="116.997843" style="stroke: #000000; stroke-width: 0.6"/>
      </g>
     </g>
    </g>
    <g id="ytick_5">
     <g id="line2d_28">
      <g>
       <use xlink:href="#m41c96357e3" x="77.371281" y="102.365885" style="stroke: #000000; stroke-width: 0.6"/>
      </g>
     </g>
     <g id="text_4">
      <!-- $\mathdefault{6\times10^{-13}}$ -->
      <g transform="translate(25.371281 106.165104) scale(0.1 -0.1)">
       <defs>
        <path id="DejaVuSans-36" d="M 2113 2584 
Q 1688 2584 1439 2293 
Q 1191 2003 1191 1497 
Q 1191 994 1439 701 
Q 1688 409 2113 409 
Q 2538 409 2786 701 
Q 3034 994 3034 1497 
Q 3034 2003 2786 2293 
Q 2538 2584 2113 2584 
z
M 3366 4563 
L 3366 3988 
Q 3128 4100 2886 4159 
Q 2644 4219 2406 4219 
Q 1781 4219 1451 3797 
Q 1122 3375 1075 2522 
Q 1259 2794 1537 2939 
Q 1816 3084 2150 3084 
Q 2853 3084 3261 2657 
Q 3669 2231 3669 1497 
Q 3669 778 3244 343 
Q 2819 -91 2113 -91 
Q 1303 -91 875 529 
Q 447 1150 447 2328 
Q 447 3434 972 4092 
Q 1497 4750 2381 4750 
Q 2619 4750 2861 4703 
Q 3103 4656 3366 4563 
z
" transform="scale(0.015625)"/>
       </defs>
       <use xlink:href="#DejaVuSans-36" transform="translate(0 0.765625)"/>
       <use xlink:href="#DejaVuSans-d7" transform="translate(83.105469 0.765625)"/>
       <use xlink:href="#DejaVuSans-31" transform="translate(186.376953 0.765625)"/>
       <use xlink:href="#DejaVuSans-30" transform="translate(250 0.765625)"/>
       <use xlink:href="#DejaVuSans-2212" transform="translate(314.580078 39.046875) scale(0.7)"/>
       <use xlink:href="#DejaVuSans-31" transform="translate(373.232422 39.046875) scale(0.7)"/>
       <use xlink:href="#DejaVuSans-33" transform="translate(417.768555 39.046875) scale(0.7)"/>
      </g>
     </g>
    </g>
    <g id="ytick_6">
     <g id="line2d_29">
      <g>
       <use xlink:href="#m41c96357e3" x="77.371281" y="89.994741" style="stroke: #000000; stroke-width: 0.6"/>
      </g>
     </g>
    </g>
    <g id="ytick_7">
     <g id="line2d_30">
      <g>
       <use xlink:href="#m41c96357e3" x="77.371281" y="79.278369" style="stroke: #000000; stroke-width: 0.6"/>
      </g>
     </g>
    </g>
    <g id="ytick_8">
     <g id="line2d_31">
      <g>
       <use xlink:href="#m41c96357e3" x="77.371281" y="69.825858" style="stroke: #000000; stroke-width: 0.6"/>
      </g>
     </g>
    </g>
    <g id="text_5">
     <!-- e2 * dnde [TeV / (cm2 s)] -->
     <g transform="translate(19.291593 169.910376) rotate(-90) scale(0.1 -0.1)">
      <defs>
       <path id="DejaVuSans-65" d="M 3597 1894 
L 3597 1613 
L 953 1613 
Q 991 1019 1311 708 
Q 1631 397 2203 397 
Q 2534 397 2845 478 
Q 3156 559 3463 722 
L 3463 178 
Q 3153 47 2828 -22 
Q 2503 -91 2169 -91 
Q 1331 -91 842 396 
Q 353 884 353 1716 
Q 353 2575 817 3079 
Q 1281 3584 2069 3584 
Q 2775 3584 3186 3129 
Q 3597 2675 3597 1894 
z
M 3022 2063 
Q 3016 2534 2758 2815 
Q 2500 3097 2075 3097 
Q 1594 3097 1305 2825 
Q 1016 2553 972 2059 
L 3022 2063 
z
" transform="scale(0.015625)"/>
       <path id="DejaVuSans-20" transform="scale(0.015625)"/>
       <path id="DejaVuSans-2a" d="M 3009 3897 
L 1888 3291 
L 3009 2681 
L 2828 2375 
L 1778 3009 
L 1778 1831 
L 1422 1831 
L 1422 3009 
L 372 2375 
L 191 2681 
L 1313 3291 
L 191 3897 
L 372 4206 
L 1422 3572 
L 1422 4750 
L 1778 4750 
L 1778 3572 
L 2828 4206 
L 3009 3897 
z
" transform="scale(0.015625)"/>
       <path id="DejaVuSans-64" d="M 2906 2969 
L 2906 4863 
L 3481 4863 
L 3481 0 
L 2906 0 
L 2906 525 
Q 2725 213 2448 61 
Q 2172 -91 1784 -91 
Q 1150 -91 751 415 
Q 353 922 353 1747 
Q 353 2572 751 3078 
Q 1150 3584 1784 3584 
Q 2172 3584 2448 3432 
Q 2725 3281 2906 2969 
z
M 947 1747 
Q 947 1113 1208 752 
Q 1469 391 1925 391 
Q 2381 391 2643 752 
Q 2906 1113 2906 1747 
Q 2906 2381 2643 2742 
Q 2381 3103 1925 3103 
Q 1469 3103 1208 2742 
Q 947 2381 947 1747 
z
" transform="scale(0.015625)"/>
       <path id="DejaVuSans-6e" d="M 3513 2113 
L 3513 0 
L 2938 0 
L 2938 2094 
Q 2938 2591 2744 2837 
Q 2550 3084 2163 3084 
Q 1697 3084 1428 2787 
Q 1159 2491 1159 1978 
L 1159 0 
L 581 0 
L 581 3500 
L 1159 3500 
L 1159 2956 
Q 1366 3272 1645 3428 
Q 1925 3584 2291 3584 
Q 2894 3584 3203 3211 
Q 3513 2838 3513 2113 
z
" transform="scale(0.015625)"/>
       <path id="DejaVuSans-5b" d="M 550 4863 
L 1875 4863 
L 1875 4416 
L 1125 4416 
L 1125 -397 
L 1875 -397 
L 1875 -844 
L 550 -844 
L 550 4863 
z
" transform="scale(0.015625)"/>
       <path id="DejaVuSans-54" d="M -19 4666 
L 3928 4666 
L 3928 4134 
L 2272 4134 
L 2272 0 
L 1638 0 
L 1638 4134 
L -19 4134 
L -19 4666 
z
" transform="scale(0.015625)"/>
       <path id="DejaVuSans-56" d="M 1831 0 
L 50 4666 
L 709 4666 
L 2188 738 
L 3669 4666 
L 4325 4666 
L 2547 0 
L 1831 0 
z
" transform="scale(0.015625)"/>
       <path id="DejaVuSans-2f" d="M 1625 4666 
L 2156 4666 
L 531 -594 
L 0 -594 
L 1625 4666 
z
" transform="scale(0.015625)"/>
       <path id="DejaVuSans-28" d="M 1984 4856 
Q 1566 4138 1362 3434 
Q 1159 2731 1159 2009 
Q 1159 1288 1364 580 
Q 1569 -128 1984 -844 
L 1484 -844 
Q 1016 -109 783 600 
Q 550 1309 550 2009 
Q 550 2706 781 3412 
Q 1013 4119 1484 4856 
L 1984 4856 
z
" transform="scale(0.015625)"/>
       <path id="DejaVuSans-63" d="M 3122 3366 
L 3122 2828 
Q 2878 2963 2633 3030 
Q 2388 3097 2138 3097 
Q 1578 3097 1268 2742 
Q 959 2388 959 1747 
Q 959 1106 1268 751 
Q 1578 397 2138 397 
Q 2388 397 2633 464 
Q 2878 531 3122 666 
L 3122 134 
Q 2881 22 2623 -34 
Q 2366 -91 2075 -91 
Q 1284 -91 818 406 
Q 353 903 353 1747 
Q 353 2603 823 3093 
Q 1294 3584 2113 3584 
Q 2378 3584 2631 3529 
Q 2884 3475 3122 3366 
z
" transform="scale(0.015625)"/>
       <path id="DejaVuSans-6d" d="M 3328 2828 
Q 3544 3216 3844 3400 
Q 4144 3584 4550 3584 
Q 5097 3584 5394 3201 
Q 5691 2819 5691 2113 
L 5691 0 
L 5113 0 
L 5113 2094 
Q 5113 2597 4934 2840 
Q 4756 3084 4391 3084 
Q 3944 3084 3684 2787 
Q 3425 2491 3425 1978 
L 3425 0 
L 2847 0 
L 2847 2094 
Q 2847 2600 2669 2842 
Q 2491 3084 2119 3084 
Q 1678 3084 1418 2786 
Q 1159 2488 1159 1978 
L 1159 0 
L 581 0 
L 581 3500 
L 1159 3500 
L 1159 2956 
Q 1356 3278 1631 3431 
Q 1906 3584 2284 3584 
Q 2666 3584 2933 3390 
Q 3200 3197 3328 2828 
z
" transform="scale(0.015625)"/>
       <path id="DejaVuSans-73" d="M 2834 3397 
L 2834 2853 
Q 2591 2978 2328 3040 
Q 2066 3103 1784 3103 
Q 1356 3103 1142 2972 
Q 928 2841 928 2578 
Q 928 2378 1081 2264 
Q 1234 2150 1697 2047 
L 1894 2003 
Q 2506 1872 2764 1633 
Q 3022 1394 3022 966 
Q 3022 478 2636 193 
Q 2250 -91 1575 -91 
Q 1294 -91 989 -36 
Q 684 19 347 128 
L 347 722 
Q 666 556 975 473 
Q 1284 391 1588 391 
Q 1994 391 2212 530 
Q 2431 669 2431 922 
Q 2431 1156 2273 1281 
Q 2116 1406 1581 1522 
L 1381 1569 
Q 847 1681 609 1914 
Q 372 2147 372 2553 
Q 372 3047 722 3315 
Q 1072 3584 1716 3584 
Q 2034 3584 2315 3537 
Q 2597 3491 2834 3397 
z
" transform="scale(0.015625)"/>
       <path id="DejaVuSans-29" d="M 513 4856 
L 1013 4856 
Q 1481 4119 1714 3412 
Q 1947 2706 1947 2009 
Q 1947 1309 1714 600 
Q 1481 -109 1013 -844 
L 513 -844 
Q 928 -128 1133 580 
Q 1338 1288 1338 2009 
Q 1338 2731 1133 3434 
Q 928 4138 513 4856 
z
" transform="scale(0.015625)"/>
       <path id="DejaVuSans-5d" d="M 1947 4863 
L 1947 -844 
L 622 -844 
L 622 -397 
L 1369 -397 
L 1369 4416 
L 622 4416 
L 622 4863 
L 1947 4863 
z
" transform="scale(0.015625)"/>
      </defs>
      <use xlink:href="#DejaVuSans-65"/>
      <use xlink:href="#DejaVuSans-32" x="61.523438"/>
      <use xlink:href="#DejaVuSans-20" x="125.146484"/>
      <use xlink:href="#DejaVuSans-2a" x="156.933594"/>
      <use xlink:href="#DejaVuSans-20" x="206.933594"/>
      <use xlink:href="#DejaVuSans-64" x="238.720703"/>
      <use xlink:href="#DejaVuSans-6e" x="302.197266"/>
      <use xlink:href="#DejaVuSans-64" x="365.576172"/>
      <use xlink:href="#DejaVuSans-65" x="429.052734"/>
      <use xlink:href="#DejaVuSans-20" x="490.576172"/>
      <use xlink:href="#DejaVuSans-5b" x="522.363281"/>
      <use xlink:href="#DejaVuSans-54" x="561.376953"/>
      <use xlink:href="#DejaVuSans-65" x="605.460938"/>
      <use xlink:href="#DejaVuSans-56" x="666.984375"/>
      <use xlink:href="#DejaVuSans-20" x="735.392578"/>
      <use xlink:href="#DejaVuSans-2f" x="767.179688"/>
      <use xlink:href="#DejaVuSans-20" x="800.871094"/>
      <use xlink:href="#DejaVuSans-28" x="832.658203"/>
      <use xlink:href="#DejaVuSans-63" x="871.671875"/>
      <use xlink:href="#DejaVuSans-6d" x="926.652344"/>
      <use xlink:href="#DejaVuSans-32" x="1024.064453"/>
      <use xlink:href="#DejaVuSans-20" x="1087.6875"/>
      <use xlink:href="#DejaVuSans-73" x="1119.474609"/>
      <use xlink:href="#DejaVuSans-29" x="1171.574219"/>
      <use xlink:href="#DejaVuSans-5d" x="1210.587891"/>
     </g>
    </g>
   </g>
   <g id="LineCollection_1">
    <path d="M 89.727132 57.873962 
L 89.727132 37.289745 
" clip-path="url(#p58d91484dd)" style="fill: none; stroke: #00008b; stroke-opacity: 0.7; stroke-width: 1.5"/>
    <path d="M 104.263427 63.37517 
L 104.263427 44.372694 
" clip-path="url(#p58d91484dd)" style="fill: none; stroke: #00008b; stroke-opacity: 0.7; stroke-width: 1.5"/>
    <path d="M 118.799722 68.959694 
L 118.799722 51.366677 
" clip-path="url(#p58d91484dd)" style="fill: none; stroke: #00008b; stroke-opacity: 0.7; stroke-width: 1.5"/>
    <path d="M 133.336017 74.648765 
L 133.336017 58.250162 
" clip-path="url(#p58d91484dd)" style="fill: none; stroke: #00008b; stroke-opacity: 0.7; stroke-width: 1.5"/>
    <path d="M 147.872312 80.46731 
L 147.872312 64.998075 
" clip-path="url(#p58d91484dd)" style="fill: none; stroke: #00008b; stroke-opacity: 0.7; stroke-width: 1.5"/>
    <path d="M 162.408608 86.441322 
L 162.408608 71.584435 
" clip-path="url(#p58d91484dd)" style="fill: none; stroke: #00008b; stroke-opacity: 0.7; stroke-width: 1.5"/>
    <path d="M 176.944903 92.592998 
L 176.944903 77.987222 
" clip-path="url(#p58d91484dd)" style="fill: none; stroke: #00008b; stroke-opacity: 0.7; stroke-width: 1.5"/>
    <path d="M 191.481198 98.934936 
L 191.481198 84.194181 
" clip-path="url(#p58d91484dd)" style="fill: none; stroke: #00008b; stroke-opacity: 0.7; stroke-width: 1.5"/>
    <path d="M 206.017493 105.466407 
L 206.017493 90.206553 
" clip-path="url(#p58d91484dd)" style="fill: none; stroke: #00008b; stroke-opacity: 0.7; stroke-width: 1.5"/>
    <path d="M 220.553788 112.174189 
L 220.553788 96.038256 
" clip-path="url(#p58d91484dd)" style="fill: none; stroke: #00008b; stroke-opacity: 0.7; stroke-width: 1.5"/>
    <path d="M 235.090083 119.0373 
L 235.090083 101.711151 
" clip-path="url(#p58d91484dd)" style="fill: none; stroke: #00008b; stroke-opacity: 0.7; stroke-width: 1.5"/>
    <path d="M 249.626378 126.032625 
L 249.626378 107.249429 
" clip-path="url(#p58d91484dd)" style="fill: none; stroke: #00008b; stroke-opacity: 0.7; stroke-width: 1.5"/>
    <path d="M 264.162673 133.138952 
L 264.162673 112.675584 
" clip-path="url(#p58d91484dd)" style="fill: none; stroke: #00008b; stroke-opacity: 0.7; stroke-width: 1.5"/>
    <path d="M 278.698969 140.338866 
L 278.698969 118.008532 
" clip-path="url(#p58d91484dd)" style="fill: none; stroke: #00008b; stroke-opacity: 0.7; stroke-width: 1.5"/>
    <path d="M 293.235264 147.619099 
L 293.235264 123.263274 
" clip-path="url(#p58d91484dd)" style="fill: none; stroke: #00008b; stroke-opacity: 0.7; stroke-width: 1.5"/>
    <path d="M 307.771559 154.970127 
L 307.771559 128.451319 
" clip-path="url(#p58d91484dd)" style="fill: none; stroke: #00008b; stroke-opacity: 0.7; stroke-width: 1.5"/>
    <path d="M 322.307854 162.385533 
L 322.307854 133.581337 
" clip-path="url(#p58d91484dd)" style="fill: none; stroke: #00008b; stroke-opacity: 0.7; stroke-width: 1.5"/>
    <path d="M 336.844149 169.861381 
L 336.844149 138.659807 
" clip-path="url(#p58d91484dd)" style="fill: none; stroke: #00008b; stroke-opacity: 0.7; stroke-width: 1.5"/>
   </g>
   <g id="line2d_32">
    <path d="M 90.962717 44.635192 
L 93.433887 45.813232 
L 95.905057 46.991273 
L 98.376227 48.169314 
L 100.847398 49.347355 
L 103.318568 50.525395 
L 105.789738 51.703436 
L 108.260908 52.881477 
L 110.732078 54.059517 
L 113.203248 55.237558 
L 115.674419 56.415599 
L 118.145589 57.59364 
L 120.616759 58.77168 
L 123.087929 59.949721 
L 125.559099 61.127762 
L 128.03027 62.305802 
L 130.50144 63.483843 
L 132.97261 64.661884 
L 135.44378 65.839925 
L 137.91495 67.017965 
L 140.38612 68.196006 
L 142.857291 69.374047 
L 145.328461 70.552087 
L 147.799631 71.730128 
L 150.270801 72.908169 
L 152.741971 74.08621 
L 155.213141 75.26425 
L 157.684312 76.442291 
L 160.155482 77.620332 
L 162.626652 78.798372 
L 165.097822 79.976413 
L 167.568992 81.154454 
L 170.040162 82.332495 
L 172.511333 83.510535 
L 174.982503 84.688576 
L 177.453673 85.866617 
L 179.924843 87.044657 
L 182.396013 88.222698 
L 184.867183 89.400739 
L 187.338354 90.57878 
L 189.809524 91.75682 
L 192.280694 92.934861 
L 194.751864 94.112902 
L 197.223034 95.290943 
L 199.694205 96.468983 
L 202.165375 97.647024 
L 204.636545 98.825065 
L 207.107715 100.003105 
L 209.578885 101.181146 
L 212.050055 102.359187 
L 214.521226 103.537228 
L 216.992396 104.715268 
L 219.463566 105.893309 
L 221.934736 107.07135 
L 224.405906 108.24939 
L 226.877076 109.427431 
L 229.348247 110.605472 
L 231.819417 111.783513 
L 234.290587 112.961553 
L 236.761757 114.139594 
L 239.232927 115.317635 
L 241.704097 116.495675 
L 244.175268 117.673716 
L 246.646438 118.851757 
L 249.117608 120.029798 
L 251.588778 121.207838 
L 254.059948 122.385879 
L 256.531119 123.56392 
L 259.002289 124.74196 
L 261.473459 125.920001 
L 263.944629 127.098042 
L 266.415799 128.276083 
L 268.886969 129.454123 
L 271.35814 130.632164 
L 273.82931 131.810205 
L 276.30048 132.988245 
L 278.77165 134.166286 
L 281.24282 135.344327 
L 283.71399 136.522368 
L 286.185161 137.700408 
L 288.656331 138.878449 
L 291.127501 140.05649 
L 293.598671 141.23453 
L 296.069841 142.412571 
L 298.541011 143.590612 
L 301.012182 144.768653 
L 303.483352 145.946693 
L 305.954522 147.124734 
L 308.425692 148.302775 
L 310.896862 149.480816 
L 313.368032 150.658856 
L 315.839203 151.836897 
L 318.310373 153.014938 
L 320.781543 154.192978 
L 323.252713 155.371019 
L 325.723883 156.54906 
L 328.195054 157.727101 
L 330.666224 158.905141 
L 333.137394 160.083182 
L 335.608564 161.261223 
" clip-path="url(#p58d91484dd)" style="fill: none; stroke: #008000; stroke-width: 1.5; stroke-linecap: square"/>
   </g>
   <g id="line2d_33">
    <path d="M 90.962717 44.635192 
L 93.433887 45.813232 
L 95.905057 46.991273 
L 98.376227 48.169314 
L 100.847398 49.347355 
L 103.318568 50.525395 
L 105.789738 51.703436 
L 108.260908 52.881477 
L 110.732078 54.059517 
L 113.203248 55.237558 
L 115.674419 56.415599 
L 118.145589 57.59364 
L 120.616759 58.77168 
L 123.087929 59.949721 
L 125.559099 61.127762 
L 128.03027 62.305802 
L 130.50144 63.483843 
L 132.97261 64.661884 
L 135.44378 65.839925 
L 137.91495 67.017965 
L 140.38612 68.196006 
L 142.857291 69.374047 
L 145.328461 70.552087 
L 147.799631 71.730128 
L 150.270801 72.908169 
L 152.741971 74.08621 
L 155.213141 75.26425 
L 157.684312 76.442291 
L 160.155482 77.620332 
L 162.626652 78.798372 
L 165.097822 79.976413 
L 167.568992 81.154454 
L 170.040162 82.332495 
L 172.511333 83.510535 
L 174.982503 84.688576 
L 177.453673 85.866617 
L 179.924843 87.044657 
L 182.396013 88.222698 
L 184.867183 89.400739 
L 187.338354 90.57878 
L 189.809524 91.75682 
L 192.280694 92.934861 
L 194.751864 94.112902 
L 197.223034 95.290943 
L 199.694205 96.468983 
L 202.165375 97.647024 
L 204.636545 98.825065 
L 207.107715 100.003105 
L 209.578885 101.181146 
L 212.050055 102.359187 
L 214.521226 103.537228 
L 216.992396 104.715268 
L 219.463566 105.893309 
L 221.934736 107.07135 
L 224.405906 108.24939 
L 226.877076 109.427431 
L 229.348247 110.605472 
L 231.819417 111.783513 
L 234.290587 112.961553 
L 236.761757 114.139594 
L 239.232927 115.317635 
L 241.704097 116.495675 
L 244.175268 117.673716 
L 246.646438 118.851757 
L 249.117608 120.029798 
L 251.588778 121.207838 
L 254.059948 122.385879 
L 256.531119 123.56392 
L 259.002289 124.74196 
L 261.473459 125.920001 
L 263.944629 127.098042 
L 266.415799 128.276083 
L 268.886969 129.454123 
L 271.35814 130.632164 
L 273.82931 131.810205 
L 276.30048 132.988245 
L 278.77165 134.166286 
L 281.24282 135.344327 
L 283.71399 136.522368 
L 286.185161 137.700408 
L 288.656331 138.878449 
L 291.127501 140.05649 
L 293.598671 141.23453 
L 296.069841 142.412571 
L 298.541011 143.590612 
L 301.012182 144.768653 
L 303.483352 145.946693 
L 305.954522 147.124734 
L 308.425692 148.302775 
L 310.896862 149.480816 
L 313.368032 150.658856 
L 315.839203 151.836897 
L 318.310373 153.014938 
L 320.781543 154.192978 
L 323.252713 155.371019 
L 325.723883 156.54906 
L 328.195054 157.727101 
L 330.666224 158.905141 
L 333.137394 160.083182 
L 335.608564 161.261223 
" clip-path="url(#p58d91484dd)" style="fill: none; stroke: #ff0000; stroke-width: 1.5; stroke-linecap: square"/>
   </g>
   <g id="line2d_34">
    <path d="M 90.962717 44.635192 
L 93.433887 45.813232 
L 95.905057 46.991273 
L 98.376227 48.169314 
L 100.847398 49.347355 
L 103.318568 50.525395 
L 105.789738 51.703436 
L 108.260908 52.881477 
L 110.732078 54.059517 
L 113.203248 55.237558 
L 115.674419 56.415599 
L 118.145589 57.59364 
L 120.616759 58.77168 
L 123.087929 59.949721 
L 125.559099 61.127762 
L 128.03027 62.305802 
L 130.50144 63.483843 
L 132.97261 64.661884 
L 135.44378 65.839925 
L 137.91495 67.017965 
L 140.38612 68.196006 
L 142.857291 69.374047 
L 145.328461 70.552087 
L 147.799631 71.730128 
L 150.270801 72.908169 
L 152.741971 74.08621 
L 155.213141 75.26425 
L 157.684312 76.442291 
L 160.155482 77.620332 
L 162.626652 78.798372 
L 165.097822 79.976413 
L 167.568992 81.154454 
L 170.040162 82.332495 
L 172.511333 83.510535 
L 174.982503 84.688576 
L 177.453673 85.866617 
L 179.924843 87.044657 
L 182.396013 88.222698 
L 184.867183 89.400739 
L 187.338354 90.57878 
L 189.809524 91.75682 
L 192.280694 92.934861 
L 194.751864 94.112902 
L 197.223034 95.290943 
L 199.694205 96.468983 
L 202.165375 97.647024 
L 204.636545 98.825065 
L 207.107715 100.003105 
L 209.578885 101.181146 
L 212.050055 102.359187 
L 214.521226 103.537228 
L 216.992396 104.715268 
L 219.463566 105.893309 
L 221.934736 107.07135 
L 224.405906 108.24939 
L 226.877076 109.427431 
L 229.348247 110.605472 
L 231.819417 111.783513 
L 234.290587 112.961553 
L 236.761757 114.139594 
L 239.232927 115.317635 
L 241.704097 116.495675 
L 244.175268 117.673716 
L 246.646438 118.851757 
L 249.117608 120.029798 
L 251.588778 121.207838 
L 254.059948 122.385879 
L 256.531119 123.56392 
L 259.002289 124.74196 
L 261.473459 125.920001 
L 263.944629 127.098042 
L 266.415799 128.276083 
L 268.886969 129.454123 
L 271.35814 130.632164 
L 273.82931 131.810205 
L 276.30048 132.988245 
L 278.77165 134.166286 
L 281.24282 135.344327 
L 283.71399 136.522368 
L 286.185161 137.700408 
L 288.656331 138.878449 
L 291.127501 140.05649 
L 293.598671 141.23453 
L 296.069841 142.412571 
L 298.541011 143.590612 
L 301.012182 144.768653 
L 303.483352 145.946693 
L 305.954522 147.124734 
L 308.425692 148.302775 
L 310.896862 149.480816 
L 313.368032 150.658856 
L 315.839203 151.836897 
L 318.310373 153.014938 
L 320.781543 154.192978 
L 323.252713 155.371019 
L 325.723883 156.54906 
L 328.195054 157.727101 
L 330.666224 158.905141 
L 333.137394 160.083182 
L 335.608564 161.261223 
" clip-path="url(#p58d91484dd)" style="fill: none; stroke-dasharray: 1.5,2.475; stroke-dashoffset: 0; stroke: #000000; stroke-width: 1.5"/>
   </g>
   <g id="line2d_35">
    <path d="M 89.727132 46.9237 
L 104.263427 53.312814 
L 118.799722 59.68206 
L 133.336017 66.03134 
L 147.872312 72.360547 
L 162.408608 78.669572 
L 176.944903 84.958295 
L 191.481198 91.22659 
L 206.017493 97.474326 
L 220.553788 103.701364 
L 235.090083 109.907558 
L 249.626378 116.092755 
L 264.162673 122.256799 
L 278.698969 128.399522 
L 293.235264 134.520755 
L 307.771559 140.620319 
L 322.307854 146.698031 
L 336.844149 152.753702 
" clip-path="url(#p58d91484dd)" style="fill: none; stroke: #00008b; stroke-opacity: 0.7; stroke-width: 1.5; stroke-linecap: square"/>
   </g>
   <g id="patch_3">
    <path d="M 77.371281 189.421377 
L 77.371281 25.44 
" style="fill: none; stroke: #000000; stroke-width: 0.8; stroke-linejoin: miter; stroke-linecap: square"/>
   </g>
   <g id="patch_4">
    <path d="M 349.2 189.421377 
L 349.2 25.44 
" style="fill: none; stroke: #000000; stroke-width: 0.8; stroke-linejoin: miter; stroke-linecap: square"/>
   </g>
   <g id="patch_5">
    <path d="M 77.371281 189.421377 
L 349.2 189.421377 
" style="fill: none; stroke: #000000; stroke-width: 0.8; stroke-linejoin: miter; stroke-linecap: square"/>
   </g>
   <g id="patch_6">
    <path d="M 77.371281 25.44 
L 349.2 25.44 
" style="fill: none; stroke: #000000; stroke-width: 0.8; stroke-linejoin: miter; stroke-linecap: square"/>
   </g>
   <g id="text_6">
    <!-- N = 17 (p = 39.9%) -->
    <g transform="translate(154.02064 19.44) scale(0.12 -0.12)">
     <defs>
      <path id="DejaVuSans-4e" d="M 628 4666 
L 1478 4666 
L 3547 763 
L 3547 4666 
L 4159 4666 
L 4159 0 
L 3309 0 
L 1241 3903 
L 1241 0 
L 628 0 
L 628 4666 
z
" transform="scale(0.015625)"/>
      <path id="DejaVuSans-3d" d="M 678 2906 
L 4684 2906 
L 4684 2381 
L 678 2381 
L 678 2906 
z
M 678 1631 
L 4684 1631 
L 4684 1100 
L 678 1100 
L 678 1631 
z
" transform="scale(0.015625)"/>
      <path id="DejaVuSans-37" d="M 525 4666 
L 3525 4666 
L 3525 4397 
L 1831 0 
L 1172 0 
L 2766 4134 
L 525 4134 
L 525 4666 
z
" transform="scale(0.015625)"/>
      <path id="DejaVuSans-70" d="M 1159 525 
L 1159 -1331 
L 581 -1331 
L 581 3500 
L 1159 3500 
L 1159 2969 
Q 1341 3281 1617 3432 
Q 1894 3584 2278 3584 
Q 2916 3584 3314 3078 
Q 3713 2572 3713 1747 
Q 3713 922 3314 415 
Q 2916 -91 2278 -91 
Q 1894 -91 1617 61 
Q 1341 213 1159 525 
z
M 3116 1747 
Q 3116 2381 2855 2742 
Q 2594 3103 2138 3103 
Q 1681 3103 1420 2742 
Q 1159 2381 1159 1747 
Q 1159 1113 1420 752 
Q 1681 391 2138 391 
Q 2594 391 2855 752 
Q 3116 1113 3116 1747 
z
" transform="scale(0.015625)"/>
      <path id="DejaVuSans-39" d="M 703 97 
L 703 672 
Q 941 559 1184 500 
Q 1428 441 1663 441 
Q 2288 441 2617 861 
Q 2947 1281 2994 2138 
Q 2813 1869 2534 1725 
Q 2256 1581 1919 1581 
Q 1219 1581 811 2004 
Q 403 2428 403 3163 
Q 403 3881 828 4315 
Q 1253 4750 1959 4750 
Q 2769 4750 3195 4129 
Q 3622 3509 3622 2328 
Q 3622 1225 3098 567 
Q 2575 -91 1691 -91 
Q 1453 -91 1209 -44 
Q 966 3 703 97 
z
M 1959 2075 
Q 2384 2075 2632 2365 
Q 2881 2656 2881 3163 
Q 2881 3666 2632 3958 
Q 2384 4250 1959 4250 
Q 1534 4250 1286 3958 
Q 1038 3666 1038 3163 
Q 1038 2656 1286 2365 
Q 1534 2075 1959 2075 
z
" transform="scale(0.015625)"/>
      <path id="DejaVuSans-2e" d="M 684 794 
L 1344 794 
L 1344 0 
L 684 0 
L 684 794 
z
" transform="scale(0.015625)"/>
      <path id="DejaVuSans-25" d="M 4653 2053 
Q 4381 2053 4226 1822 
Q 4072 1591 4072 1178 
Q 4072 772 4226 539 
Q 4381 306 4653 306 
Q 4919 306 5073 539 
Q 5228 772 5228 1178 
Q 5228 1588 5073 1820 
Q 4919 2053 4653 2053 
z
M 4653 2450 
Q 5147 2450 5437 2106 
Q 5728 1763 5728 1178 
Q 5728 594 5436 251 
Q 5144 -91 4653 -91 
Q 4153 -91 3862 251 
Q 3572 594 3572 1178 
Q 3572 1766 3864 2108 
Q 4156 2450 4653 2450 
z
M 1428 4353 
Q 1159 4353 1004 4120 
Q 850 3888 850 3481 
Q 850 3069 1003 2837 
Q 1156 2606 1428 2606 
Q 1700 2606 1854 2837 
Q 2009 3069 2009 3481 
Q 2009 3884 1853 4118 
Q 1697 4353 1428 4353 
z
M 4250 4750 
L 4750 4750 
L 1831 -91 
L 1331 -91 
L 4250 4750 
z
M 1428 4750 
Q 1922 4750 2215 4408 
Q 2509 4066 2509 3481 
Q 2509 2891 2217 2550 
Q 1925 2209 1428 2209 
Q 931 2209 642 2551 
Q 353 2894 353 3481 
Q 353 4063 643 4406 
Q 934 4750 1428 4750 
z
" transform="scale(0.015625)"/>
     </defs>
     <use xlink:href="#DejaVuSans-4e"/>
     <use xlink:href="#DejaVuSans-20" x="74.804688"/>
     <use xlink:href="#DejaVuSans-3d" x="106.591797"/>
     <use xlink:href="#DejaVuSans-20" x="190.380859"/>
     <use xlink:href="#DejaVuSans-31" x="222.167969"/>
     <use xlink:href="#DejaVuSans-37" x="285.791016"/>
     <use xlink:href="#DejaVuSans-20" x="349.414062"/>
     <use xlink:href="#DejaVuSans-28" x="381.201172"/>
     <use xlink:href="#DejaVuSans-70" x="420.214844"/>
     <use xlink:href="#DejaVuSans-20" x="483.691406"/>
     <use xlink:href="#DejaVuSans-3d" x="515.478516"/>
     <use xlink:href="#DejaVuSans-20" x="599.267578"/>
     <use xlink:href="#DejaVuSans-33" x="631.054688"/>
     <use xlink:href="#DejaVuSans-39" x="694.677734"/>
     <use xlink:href="#DejaVuSans-2e" x="758.300781"/>
     <use xlink:href="#DejaVuSans-39" x="790.087891"/>
     <use xlink:href="#DejaVuSans-25" x="853.710938"/>
     <use xlink:href="#DejaVuSans-29" x="948.730469"/>
    </g>
   </g>
   <g id="legend_1">
    <g id="patch_7">
     <path d="M 241.165625 92.1525 
L 342.2 92.1525 
Q 344.2 92.1525 344.2 90.1525 
L 344.2 32.44 
Q 344.2 30.44 342.2 30.44 
L 241.165625 30.44 
Q 239.165625 30.44 239.165625 32.44 
L 239.165625 90.1525 
Q 239.165625 92.1525 241.165625 92.1525 
z
" style="fill: #ffffff; opacity: 0.8; stroke: #cccccc; stroke-linejoin: miter"/>
    </g>
    <g id="patch_8">
     <path d="M 243.165625 42.038438 
L 263.165625 42.038438 
L 263.165625 35.038438 
L 243.165625 35.038438 
z
" style="fill: #008000; fill-opacity: 0.5"/>
    </g>
    <g id="text_7">
     <!-- $1\sigma$ Standard -->
     <g transform="translate(271.165625 42.038438) scale(0.1 -0.1)">
      <defs>
       <path id="DejaVuSans-Oblique-3c3" d="M 2219 3044 
Q 1744 3044 1422 2700 
Q 1081 2341 969 1747 
Q 844 1119 1044 756 
Q 1241 397 1706 397 
Q 2166 397 2503 759 
Q 2844 1122 2966 1747 
Q 3075 2319 2881 2700 
Q 2700 3044 2219 3044 
z
M 2309 3503 
L 4219 3500 
L 4106 2925 
L 3463 2925 
Q 3706 2438 3575 1747 
Q 3406 888 2884 400 
Q 2359 -91 1609 -91 
Q 856 -91 525 400 
Q 194 888 363 1747 
Q 528 2609 1050 3097 
Q 1484 3503 2309 3503 
z
" transform="scale(0.015625)"/>
       <path id="DejaVuSans-53" d="M 3425 4513 
L 3425 3897 
Q 3066 4069 2747 4153 
Q 2428 4238 2131 4238 
Q 1616 4238 1336 4038 
Q 1056 3838 1056 3469 
Q 1056 3159 1242 3001 
Q 1428 2844 1947 2747 
L 2328 2669 
Q 3034 2534 3370 2195 
Q 3706 1856 3706 1288 
Q 3706 609 3251 259 
Q 2797 -91 1919 -91 
Q 1588 -91 1214 -16 
Q 841 59 441 206 
L 441 856 
Q 825 641 1194 531 
Q 1563 422 1919 422 
Q 2459 422 2753 634 
Q 3047 847 3047 1241 
Q 3047 1584 2836 1778 
Q 2625 1972 2144 2069 
L 1759 2144 
Q 1053 2284 737 2584 
Q 422 2884 422 3419 
Q 422 4038 858 4394 
Q 1294 4750 2059 4750 
Q 2388 4750 2728 4690 
Q 3069 4631 3425 4513 
z
" transform="scale(0.015625)"/>
       <path id="DejaVuSans-74" d="M 1172 4494 
L 1172 3500 
L 2356 3500 
L 2356 3053 
L 1172 3053 
L 1172 1153 
Q 1172 725 1289 603 
Q 1406 481 1766 481 
L 2356 481 
L 2356 0 
L 1766 0 
Q 1100 0 847 248 
Q 594 497 594 1153 
L 594 3053 
L 172 3053 
L 172 3500 
L 594 3500 
L 594 4494 
L 1172 4494 
z
" transform="scale(0.015625)"/>
       <path id="DejaVuSans-61" d="M 2194 1759 
Q 1497 1759 1228 1600 
Q 959 1441 959 1056 
Q 959 750 1161 570 
Q 1363 391 1709 391 
Q 2188 391 2477 730 
Q 2766 1069 2766 1631 
L 2766 1759 
L 2194 1759 
z
M 3341 1997 
L 3341 0 
L 2766 0 
L 2766 531 
Q 2569 213 2275 61 
Q 1981 -91 1556 -91 
Q 1019 -91 701 211 
Q 384 513 384 1019 
Q 384 1609 779 1909 
Q 1175 2209 1959 2209 
L 2766 2209 
L 2766 2266 
Q 2766 2663 2505 2880 
Q 2244 3097 1772 3097 
Q 1472 3097 1187 3025 
Q 903 2953 641 2809 
L 641 3341 
Q 956 3463 1253 3523 
Q 1550 3584 1831 3584 
Q 2591 3584 2966 3190 
Q 3341 2797 3341 1997 
z
" transform="scale(0.015625)"/>
       <path id="DejaVuSans-72" d="M 2631 2963 
Q 2534 3019 2420 3045 
Q 2306 3072 2169 3072 
Q 1681 3072 1420 2755 
Q 1159 2438 1159 1844 
L 1159 0 
L 581 0 
L 581 3500 
L 1159 3500 
L 1159 2956 
Q 1341 3275 1631 3429 
Q 1922 3584 2338 3584 
Q 2397 3584 2469 3576 
Q 2541 3569 2628 3553 
L 2631 2963 
z
" transform="scale(0.015625)"/>
      </defs>
      <use xlink:href="#DejaVuSans-31" transform="translate(0 0.015625)"/>
      <use xlink:href="#DejaVuSans-Oblique-3c3" transform="translate(63.623047 0.015625)"/>
      <use xlink:href="#DejaVuSans-20" transform="translate(127.001953 0.015625)"/>
      <use xlink:href="#DejaVuSans-53" transform="translate(158.789062 0.015625)"/>
      <use xlink:href="#DejaVuSans-74" transform="translate(222.265625 0.015625)"/>
      <use xlink:href="#DejaVuSans-61" transform="translate(261.474609 0.015625)"/>
      <use xlink:href="#DejaVuSans-6e" transform="translate(322.753906 0.015625)"/>
      <use xlink:href="#DejaVuSans-64" transform="translate(386.132812 0.015625)"/>
      <use xlink:href="#DejaVuSans-61" transform="translate(449.609375 0.015625)"/>
      <use xlink:href="#DejaVuSans-72" transform="translate(510.888672 0.015625)"/>
      <use xlink:href="#DejaVuSans-64" transform="translate(552.001953 0.015625)"/>
     </g>
    </g>
    <g id="patch_9">
     <path d="M 243.165625 56.716563 
L 263.165625 56.716563 
L 263.165625 49.716563 
L 243.165625 49.716563 
z
" style="fill: #ff0000; fill-opacity: 0.6"/>
    </g>
    <g id="text_8">
     <!-- $1\sigma$ Nuisance -->
     <g transform="translate(271.165625 56.716563) scale(0.1 -0.1)">
      <defs>
       <path id="DejaVuSans-75" d="M 544 1381 
L 544 3500 
L 1119 3500 
L 1119 1403 
Q 1119 906 1312 657 
Q 1506 409 1894 409 
Q 2359 409 2629 706 
Q 2900 1003 2900 1516 
L 2900 3500 
L 3475 3500 
L 3475 0 
L 2900 0 
L 2900 538 
Q 2691 219 2414 64 
Q 2138 -91 1772 -91 
Q 1169 -91 856 284 
Q 544 659 544 1381 
z
M 1991 3584 
L 1991 3584 
z
" transform="scale(0.015625)"/>
       <path id="DejaVuSans-69" d="M 603 3500 
L 1178 3500 
L 1178 0 
L 603 0 
L 603 3500 
z
M 603 4863 
L 1178 4863 
L 1178 4134 
L 603 4134 
L 603 4863 
z
" transform="scale(0.015625)"/>
      </defs>
      <use xlink:href="#DejaVuSans-31" transform="translate(0 0.015625)"/>
      <use xlink:href="#DejaVuSans-Oblique-3c3" transform="translate(63.623047 0.015625)"/>
      <use xlink:href="#DejaVuSans-20" transform="translate(127.001953 0.015625)"/>
      <use xlink:href="#DejaVuSans-4e" transform="translate(158.789062 0.015625)"/>
      <use xlink:href="#DejaVuSans-75" transform="translate(233.59375 0.015625)"/>
      <use xlink:href="#DejaVuSans-69" transform="translate(296.972656 0.015625)"/>
      <use xlink:href="#DejaVuSans-73" transform="translate(324.755859 0.015625)"/>
      <use xlink:href="#DejaVuSans-61" transform="translate(376.855469 0.015625)"/>
      <use xlink:href="#DejaVuSans-6e" transform="translate(438.134766 0.015625)"/>
      <use xlink:href="#DejaVuSans-63" transform="translate(501.513672 0.015625)"/>
      <use xlink:href="#DejaVuSans-65" transform="translate(556.494141 0.015625)"/>
     </g>
    </g>
    <g id="line2d_36">
     <path d="M 243.165625 67.894688 
L 253.165625 67.894688 
L 263.165625 67.894688 
" style="fill: none; stroke-dasharray: 1.5,2.475; stroke-dashoffset: 0; stroke: #000000; stroke-width: 1.5"/>
    </g>
    <g id="text_9">
     <!-- Input -->
     <g transform="translate(271.165625 71.394688) scale(0.1 -0.1)">
      <defs>
       <path id="DejaVuSans-49" d="M 628 4666 
L 1259 4666 
L 1259 0 
L 628 0 
L 628 4666 
z
" transform="scale(0.015625)"/>
      </defs>
      <use xlink:href="#DejaVuSans-49"/>
      <use xlink:href="#DejaVuSans-6e" x="29.492188"/>
      <use xlink:href="#DejaVuSans-70" x="92.871094"/>
      <use xlink:href="#DejaVuSans-75" x="156.347656"/>
      <use xlink:href="#DejaVuSans-74" x="219.726562"/>
     </g>
    </g>
    <g id="LineCollection_2">
     <path d="M 253.165625 87.572813 
L 253.165625 77.572813 
" style="fill: none; stroke: #00008b; stroke-opacity: 0.7; stroke-width: 1.5"/>
    </g>
    <g id="line2d_37">
     <path d="M 243.165625 82.572813 
L 263.165625 82.572813 
" style="fill: none; stroke: #00008b; stroke-opacity: 0.7; stroke-width: 1.5; stroke-linecap: square"/>
    </g>
    <g id="line2d_38"/>
    <g id="text_10">
     <!-- Mean and Std -->
     <g transform="translate(271.165625 86.072813) scale(0.1 -0.1)">
      <defs>
       <path id="DejaVuSans-4d" d="M 628 4666 
L 1569 4666 
L 2759 1491 
L 3956 4666 
L 4897 4666 
L 4897 0 
L 4281 0 
L 4281 4097 
L 3078 897 
L 2444 897 
L 1241 4097 
L 1241 0 
L 628 0 
L 628 4666 
z
" transform="scale(0.015625)"/>
      </defs>
      <use xlink:href="#DejaVuSans-4d"/>
      <use xlink:href="#DejaVuSans-65" x="86.279297"/>
      <use xlink:href="#DejaVuSans-61" x="147.802734"/>
      <use xlink:href="#DejaVuSans-6e" x="209.082031"/>
      <use xlink:href="#DejaVuSans-20" x="272.460938"/>
      <use xlink:href="#DejaVuSans-61" x="304.248047"/>
      <use xlink:href="#DejaVuSans-6e" x="365.527344"/>
      <use xlink:href="#DejaVuSans-64" x="428.90625"/>
      <use xlink:href="#DejaVuSans-20" x="492.382812"/>
      <use xlink:href="#DejaVuSans-53" x="524.169922"/>
      <use xlink:href="#DejaVuSans-74" x="587.646484"/>
      <use xlink:href="#DejaVuSans-64" x="626.855469"/>
     </g>
    </g>
   </g>
  </g>
  <g id="axes_2">
   <g id="patch_10">
    <path d="M 77.371281 314.728 
L 349.2 314.728 
L 349.2 205.407082 
L 77.371281 205.407082 
z
" style="fill: #ffffff"/>
   </g>
   <g id="matplotlib.axis_3">
    <g id="xtick_24">
     <g id="line2d_39">
      <g>
       <use xlink:href="#ma57ff12960" x="126.06787" y="314.728" style="stroke: #000000; stroke-width: 0.8"/>
      </g>
     </g>
     <g id="text_11">
      <!-- $\mathdefault{10^{0}}$ -->
      <g transform="translate(117.26787 329.326437) scale(0.1 -0.1)">
       <use xlink:href="#DejaVuSans-31" transform="translate(0 0.765625)"/>
       <use xlink:href="#DejaVuSans-30" transform="translate(63.623047 0.765625)"/>
       <use xlink:href="#DejaVuSans-30" transform="translate(128.203125 39.046875) scale(0.7)"/>
      </g>
     </g>
    </g>
    <g id="xtick_25">
     <g id="line2d_40">
      <g>
       <use xlink:href="#ma57ff12960" x="242.358231" y="314.728" style="stroke: #000000; stroke-width: 0.8"/>
      </g>
     </g>
     <g id="text_12">
      <!-- $\mathdefault{10^{1}}$ -->
      <g transform="translate(233.558231 329.326437) scale(0.1 -0.1)">
       <use xlink:href="#DejaVuSans-31" transform="translate(0 0.684375)"/>
       <use xlink:href="#DejaVuSans-30" transform="translate(63.623047 0.684375)"/>
       <use xlink:href="#DejaVuSans-31" transform="translate(128.203125 38.965625) scale(0.7)"/>
      </g>
     </g>
    </g>
    <g id="xtick_26">
     <g id="line2d_41">
      <g>
       <use xlink:href="#m82cb1700b4" x="79.791282" y="314.728" style="stroke: #000000; stroke-width: 0.6"/>
      </g>
     </g>
    </g>
    <g id="xtick_27">
     <g id="line2d_42">
      <g>
       <use xlink:href="#m82cb1700b4" x="91.060983" y="314.728" style="stroke: #000000; stroke-width: 0.6"/>
      </g>
     </g>
    </g>
    <g id="xtick_28">
     <g id="line2d_43">
      <g>
       <use xlink:href="#m82cb1700b4" x="100.268998" y="314.728" style="stroke: #000000; stroke-width: 0.6"/>
      </g>
     </g>
    </g>
    <g id="xtick_29">
     <g id="line2d_44">
      <g>
       <use xlink:href="#m82cb1700b4" x="108.054265" y="314.728" style="stroke: #000000; stroke-width: 0.6"/>
      </g>
     </g>
    </g>
    <g id="xtick_30">
     <g id="line2d_45">
      <g>
       <use xlink:href="#m82cb1700b4" x="114.798169" y="314.728" style="stroke: #000000; stroke-width: 0.6"/>
      </g>
     </g>
    </g>
    <g id="xtick_31">
     <g id="line2d_46">
      <g>
       <use xlink:href="#m82cb1700b4" x="120.746715" y="314.728" style="stroke: #000000; stroke-width: 0.6"/>
      </g>
     </g>
    </g>
    <g id="xtick_32">
     <g id="line2d_47">
      <g>
       <use xlink:href="#m82cb1700b4" x="161.074757" y="314.728" style="stroke: #000000; stroke-width: 0.6"/>
      </g>
     </g>
    </g>
    <g id="xtick_33">
     <g id="line2d_48">
      <g>
       <use xlink:href="#m82cb1700b4" x="181.552473" y="314.728" style="stroke: #000000; stroke-width: 0.6"/>
      </g>
     </g>
    </g>
    <g id="xtick_34">
     <g id="line2d_49">
      <g>
       <use xlink:href="#m82cb1700b4" x="196.081643" y="314.728" style="stroke: #000000; stroke-width: 0.6"/>
      </g>
     </g>
    </g>
    <g id="xtick_35">
     <g id="line2d_50">
      <g>
       <use xlink:href="#m82cb1700b4" x="207.351344" y="314.728" style="stroke: #000000; stroke-width: 0.6"/>
      </g>
     </g>
    </g>
    <g id="xtick_36">
     <g id="line2d_51">
      <g>
       <use xlink:href="#m82cb1700b4" x="216.55936" y="314.728" style="stroke: #000000; stroke-width: 0.6"/>
      </g>
     </g>
    </g>
    <g id="xtick_37">
     <g id="line2d_52">
      <g>
       <use xlink:href="#m82cb1700b4" x="224.344626" y="314.728" style="stroke: #000000; stroke-width: 0.6"/>
      </g>
     </g>
    </g>
    <g id="xtick_38">
     <g id="line2d_53">
      <g>
       <use xlink:href="#m82cb1700b4" x="231.08853" y="314.728" style="stroke: #000000; stroke-width: 0.6"/>
      </g>
     </g>
    </g>
    <g id="xtick_39">
     <g id="line2d_54">
      <g>
       <use xlink:href="#m82cb1700b4" x="237.037076" y="314.728" style="stroke: #000000; stroke-width: 0.6"/>
      </g>
     </g>
    </g>
    <g id="xtick_40">
     <g id="line2d_55">
      <g>
       <use xlink:href="#m82cb1700b4" x="277.365118" y="314.728" style="stroke: #000000; stroke-width: 0.6"/>
      </g>
     </g>
    </g>
    <g id="xtick_41">
     <g id="line2d_56">
      <g>
       <use xlink:href="#m82cb1700b4" x="297.842834" y="314.728" style="stroke: #000000; stroke-width: 0.6"/>
      </g>
     </g>
    </g>
    <g id="xtick_42">
     <g id="line2d_57">
      <g>
       <use xlink:href="#m82cb1700b4" x="312.372005" y="314.728" style="stroke: #000000; stroke-width: 0.6"/>
      </g>
     </g>
    </g>
    <g id="xtick_43">
     <g id="line2d_58">
      <g>
       <use xlink:href="#m82cb1700b4" x="323.641705" y="314.728" style="stroke: #000000; stroke-width: 0.6"/>
      </g>
     </g>
    </g>
    <g id="xtick_44">
     <g id="line2d_59">
      <g>
       <use xlink:href="#m82cb1700b4" x="332.849721" y="314.728" style="stroke: #000000; stroke-width: 0.6"/>
      </g>
     </g>
    </g>
    <g id="xtick_45">
     <g id="line2d_60">
      <g>
       <use xlink:href="#m82cb1700b4" x="340.634987" y="314.728" style="stroke: #000000; stroke-width: 0.6"/>
      </g>
     </g>
    </g>
    <g id="xtick_46">
     <g id="line2d_61">
      <g>
       <use xlink:href="#m82cb1700b4" x="347.378891" y="314.728" style="stroke: #000000; stroke-width: 0.6"/>
      </g>
     </g>
    </g>
    <g id="text_13">
     <!-- Energy [TeV] -->
     <g transform="translate(181.587984 343.004563) scale(0.1 -0.1)">
      <defs>
       <path id="DejaVuSans-45" d="M 628 4666 
L 3578 4666 
L 3578 4134 
L 1259 4134 
L 1259 2753 
L 3481 2753 
L 3481 2222 
L 1259 2222 
L 1259 531 
L 3634 531 
L 3634 0 
L 628 0 
L 628 4666 
z
" transform="scale(0.015625)"/>
       <path id="DejaVuSans-67" d="M 2906 1791 
Q 2906 2416 2648 2759 
Q 2391 3103 1925 3103 
Q 1463 3103 1205 2759 
Q 947 2416 947 1791 
Q 947 1169 1205 825 
Q 1463 481 1925 481 
Q 2391 481 2648 825 
Q 2906 1169 2906 1791 
z
M 3481 434 
Q 3481 -459 3084 -895 
Q 2688 -1331 1869 -1331 
Q 1566 -1331 1297 -1286 
Q 1028 -1241 775 -1147 
L 775 -588 
Q 1028 -725 1275 -790 
Q 1522 -856 1778 -856 
Q 2344 -856 2625 -561 
Q 2906 -266 2906 331 
L 2906 616 
Q 2728 306 2450 153 
Q 2172 0 1784 0 
Q 1141 0 747 490 
Q 353 981 353 1791 
Q 353 2603 747 3093 
Q 1141 3584 1784 3584 
Q 2172 3584 2450 3431 
Q 2728 3278 2906 2969 
L 2906 3500 
L 3481 3500 
L 3481 434 
z
" transform="scale(0.015625)"/>
       <path id="DejaVuSans-79" d="M 2059 -325 
Q 1816 -950 1584 -1140 
Q 1353 -1331 966 -1331 
L 506 -1331 
L 506 -850 
L 844 -850 
Q 1081 -850 1212 -737 
Q 1344 -625 1503 -206 
L 1606 56 
L 191 3500 
L 800 3500 
L 1894 763 
L 2988 3500 
L 3597 3500 
L 2059 -325 
z
" transform="scale(0.015625)"/>
      </defs>
      <use xlink:href="#DejaVuSans-45"/>
      <use xlink:href="#DejaVuSans-6e" x="63.183594"/>
      <use xlink:href="#DejaVuSans-65" x="126.5625"/>
      <use xlink:href="#DejaVuSans-72" x="188.085938"/>
      <use xlink:href="#DejaVuSans-67" x="227.449219"/>
      <use xlink:href="#DejaVuSans-79" x="290.925781"/>
      <use xlink:href="#DejaVuSans-20" x="350.105469"/>
      <use xlink:href="#DejaVuSans-5b" x="381.892578"/>
      <use xlink:href="#DejaVuSans-54" x="420.90625"/>
      <use xlink:href="#DejaVuSans-65" x="464.990234"/>
      <use xlink:href="#DejaVuSans-56" x="526.513672"/>
      <use xlink:href="#DejaVuSans-5d" x="594.921875"/>
     </g>
    </g>
   </g>
   <g id="matplotlib.axis_4">
    <g id="ytick_9">
     <g id="line2d_62">
      <g>
       <use xlink:href="#m8002f1fca1" x="77.371281" y="298.878398" style="stroke: #000000; stroke-width: 0.8"/>
      </g>
     </g>
     <g id="text_14">
      <!-- 0.25 -->
      <g transform="translate(48.105656 302.677616) scale(0.1 -0.1)">
       <defs>
        <path id="DejaVuSans-35" d="M 691 4666 
L 3169 4666 
L 3169 4134 
L 1269 4134 
L 1269 2991 
Q 1406 3038 1543 3061 
Q 1681 3084 1819 3084 
Q 2600 3084 3056 2656 
Q 3513 2228 3513 1497 
Q 3513 744 3044 326 
Q 2575 -91 1722 -91 
Q 1428 -91 1123 -41 
Q 819 9 494 109 
L 494 744 
Q 775 591 1075 516 
Q 1375 441 1709 441 
Q 2250 441 2565 725 
Q 2881 1009 2881 1497 
Q 2881 1984 2565 2268 
Q 2250 2553 1709 2553 
Q 1456 2553 1204 2497 
Q 953 2441 691 2322 
L 691 4666 
z
" transform="scale(0.015625)"/>
       </defs>
       <use xlink:href="#DejaVuSans-30"/>
       <use xlink:href="#DejaVuSans-2e" x="63.623047"/>
       <use xlink:href="#DejaVuSans-32" x="95.410156"/>
       <use xlink:href="#DejaVuSans-35" x="159.033203"/>
      </g>
     </g>
    </g>
    <g id="ytick_10">
     <g id="line2d_63">
      <g>
       <use xlink:href="#m8002f1fca1" x="77.371281" y="276.127206" style="stroke: #000000; stroke-width: 0.8"/>
      </g>
     </g>
     <g id="text_15">
      <!-- 0.50 -->
      <g transform="translate(48.105656 279.926424) scale(0.1 -0.1)">
       <use xlink:href="#DejaVuSans-30"/>
       <use xlink:href="#DejaVuSans-2e" x="63.623047"/>
       <use xlink:href="#DejaVuSans-35" x="95.410156"/>
       <use xlink:href="#DejaVuSans-30" x="159.033203"/>
      </g>
     </g>
    </g>
    <g id="ytick_11">
     <g id="line2d_64">
      <g>
       <use xlink:href="#m8002f1fca1" x="77.371281" y="253.376014" style="stroke: #000000; stroke-width: 0.8"/>
      </g>
     </g>
     <g id="text_16">
      <!-- 0.75 -->
      <g transform="translate(48.105656 257.175233) scale(0.1 -0.1)">
       <use xlink:href="#DejaVuSans-30"/>
       <use xlink:href="#DejaVuSans-2e" x="63.623047"/>
       <use xlink:href="#DejaVuSans-37" x="95.410156"/>
       <use xlink:href="#DejaVuSans-35" x="159.033203"/>
      </g>
     </g>
    </g>
    <g id="ytick_12">
     <g id="line2d_65">
      <g>
       <use xlink:href="#m8002f1fca1" x="77.371281" y="230.624822" style="stroke: #000000; stroke-width: 0.8"/>
      </g>
     </g>
     <g id="text_17">
      <!-- 1.00 -->
      <g transform="translate(48.105656 234.424041) scale(0.1 -0.1)">
       <use xlink:href="#DejaVuSans-31"/>
       <use xlink:href="#DejaVuSans-2e" x="63.623047"/>
       <use xlink:href="#DejaVuSans-30" x="95.410156"/>
       <use xlink:href="#DejaVuSans-30" x="159.033203"/>
      </g>
     </g>
    </g>
    <g id="ytick_13">
     <g id="line2d_66">
      <g>
       <use xlink:href="#m8002f1fca1" x="77.371281" y="207.87363" style="stroke: #000000; stroke-width: 0.8"/>
      </g>
     </g>
     <g id="text_18">
      <!-- 1.25 -->
      <g transform="translate(48.105656 211.672849) scale(0.1 -0.1)">
       <use xlink:href="#DejaVuSans-31"/>
       <use xlink:href="#DejaVuSans-2e" x="63.623047"/>
       <use xlink:href="#DejaVuSans-32" x="95.410156"/>
       <use xlink:href="#DejaVuSans-35" x="159.033203"/>
      </g>
     </g>
    </g>
    <g id="text_19">
     <!-- Coverage -->
     <g transform="translate(42.025968 284.024572) rotate(-90) scale(0.1 -0.1)">
      <defs>
       <path id="DejaVuSans-43" d="M 4122 4306 
L 4122 3641 
Q 3803 3938 3442 4084 
Q 3081 4231 2675 4231 
Q 1875 4231 1450 3742 
Q 1025 3253 1025 2328 
Q 1025 1406 1450 917 
Q 1875 428 2675 428 
Q 3081 428 3442 575 
Q 3803 722 4122 1019 
L 4122 359 
Q 3791 134 3420 21 
Q 3050 -91 2638 -91 
Q 1578 -91 968 557 
Q 359 1206 359 2328 
Q 359 3453 968 4101 
Q 1578 4750 2638 4750 
Q 3056 4750 3426 4639 
Q 3797 4528 4122 4306 
z
" transform="scale(0.015625)"/>
       <path id="DejaVuSans-6f" d="M 1959 3097 
Q 1497 3097 1228 2736 
Q 959 2375 959 1747 
Q 959 1119 1226 758 
Q 1494 397 1959 397 
Q 2419 397 2687 759 
Q 2956 1122 2956 1747 
Q 2956 2369 2687 2733 
Q 2419 3097 1959 3097 
z
M 1959 3584 
Q 2709 3584 3137 3096 
Q 3566 2609 3566 1747 
Q 3566 888 3137 398 
Q 2709 -91 1959 -91 
Q 1206 -91 779 398 
Q 353 888 353 1747 
Q 353 2609 779 3096 
Q 1206 3584 1959 3584 
z
" transform="scale(0.015625)"/>
       <path id="DejaVuSans-76" d="M 191 3500 
L 800 3500 
L 1894 563 
L 2988 3500 
L 3597 3500 
L 2284 0 
L 1503 0 
L 191 3500 
z
" transform="scale(0.015625)"/>
      </defs>
      <use xlink:href="#DejaVuSans-43"/>
      <use xlink:href="#DejaVuSans-6f" x="69.824219"/>
      <use xlink:href="#DejaVuSans-76" x="131.005859"/>
      <use xlink:href="#DejaVuSans-65" x="190.185547"/>
      <use xlink:href="#DejaVuSans-72" x="251.708984"/>
      <use xlink:href="#DejaVuSans-61" x="292.822266"/>
      <use xlink:href="#DejaVuSans-67" x="354.101562"/>
      <use xlink:href="#DejaVuSans-65" x="417.578125"/>
     </g>
    </g>
   </g>
   <g id="LineCollection_3">
    <path d="M 89.727132 293.699203 
L 89.727132 221.082658 
" clip-path="url(#p7577b88e10)" style="fill: none; stroke: #ff0000; stroke-width: 1.5"/>
    <path d="M 104.263427 299.052424 
L 104.263427 226.435879 
" clip-path="url(#p7577b88e10)" style="fill: none; stroke: #ff0000; stroke-width: 1.5"/>
    <path d="M 118.799722 299.052424 
L 118.799722 226.435879 
" clip-path="url(#p7577b88e10)" style="fill: none; stroke: #ff0000; stroke-width: 1.5"/>
    <path d="M 133.336017 293.699203 
L 133.336017 221.082658 
" clip-path="url(#p7577b88e10)" style="fill: none; stroke: #ff0000; stroke-width: 1.5"/>
    <path d="M 147.872312 293.699203 
L 147.872312 221.082658 
" clip-path="url(#p7577b88e10)" style="fill: none; stroke: #ff0000; stroke-width: 1.5"/>
    <path d="M 162.408608 304.405646 
L 162.408608 231.789101 
" clip-path="url(#p7577b88e10)" style="fill: none; stroke: #ff0000; stroke-width: 1.5"/>
    <path d="M 176.944903 304.405646 
L 176.944903 231.789101 
" clip-path="url(#p7577b88e10)" style="fill: none; stroke: #ff0000; stroke-width: 1.5"/>
    <path d="M 191.481198 299.052424 
L 191.481198 226.435879 
" clip-path="url(#p7577b88e10)" style="fill: none; stroke: #ff0000; stroke-width: 1.5"/>
    <path d="M 206.017493 304.405646 
L 206.017493 231.789101 
" clip-path="url(#p7577b88e10)" style="fill: none; stroke: #ff0000; stroke-width: 1.5"/>
    <path d="M 220.553788 304.405646 
L 220.553788 231.789101 
" clip-path="url(#p7577b88e10)" style="fill: none; stroke: #ff0000; stroke-width: 1.5"/>
    <path d="M 235.090083 304.405646 
L 235.090083 231.789101 
" clip-path="url(#p7577b88e10)" style="fill: none; stroke: #ff0000; stroke-width: 1.5"/>
    <path d="M 249.626378 309.758867 
L 249.626378 237.142322 
" clip-path="url(#p7577b88e10)" style="fill: none; stroke: #ff0000; stroke-width: 1.5"/>
    <path d="M 264.162673 304.405646 
L 264.162673 231.789101 
" clip-path="url(#p7577b88e10)" style="fill: none; stroke: #ff0000; stroke-width: 1.5"/>
    <path d="M 278.698969 299.052424 
L 278.698969 226.435879 
" clip-path="url(#p7577b88e10)" style="fill: none; stroke: #ff0000; stroke-width: 1.5"/>
    <path d="M 293.235264 299.052424 
L 293.235264 226.435879 
" clip-path="url(#p7577b88e10)" style="fill: none; stroke: #ff0000; stroke-width: 1.5"/>
    <path d="M 307.771559 299.052424 
L 307.771559 226.435879 
" clip-path="url(#p7577b88e10)" style="fill: none; stroke: #ff0000; stroke-width: 1.5"/>
    <path d="M 322.307854 299.052424 
L 322.307854 226.435879 
" clip-path="url(#p7577b88e10)" style="fill: none; stroke: #ff0000; stroke-width: 1.5"/>
    <path d="M 336.844149 299.052424 
L 336.844149 226.435879 
" clip-path="url(#p7577b88e10)" style="fill: none; stroke: #ff0000; stroke-width: 1.5"/>
   </g>
   <g id="LineCollection_4">
    <path d="M 89.727132 288.345981 
L 89.727132 215.729436 
" clip-path="url(#p7577b88e10)" style="fill: none; stroke: #008000; stroke-width: 1.5"/>
    <path d="M 104.263427 288.345981 
L 104.263427 215.729436 
" clip-path="url(#p7577b88e10)" style="fill: none; stroke: #008000; stroke-width: 1.5"/>
    <path d="M 118.799722 288.345981 
L 118.799722 215.729436 
" clip-path="url(#p7577b88e10)" style="fill: none; stroke: #008000; stroke-width: 1.5"/>
    <path d="M 133.336017 288.345981 
L 133.336017 215.729436 
" clip-path="url(#p7577b88e10)" style="fill: none; stroke: #008000; stroke-width: 1.5"/>
    <path d="M 147.872312 282.992759 
L 147.872312 210.376214 
" clip-path="url(#p7577b88e10)" style="fill: none; stroke: #008000; stroke-width: 1.5"/>
    <path d="M 162.408608 288.345981 
L 162.408608 215.729436 
" clip-path="url(#p7577b88e10)" style="fill: none; stroke: #008000; stroke-width: 1.5"/>
    <path d="M 176.944903 282.992759 
L 176.944903 210.376214 
" clip-path="url(#p7577b88e10)" style="fill: none; stroke: #008000; stroke-width: 1.5"/>
    <path d="M 191.481198 288.345981 
L 191.481198 215.729436 
" clip-path="url(#p7577b88e10)" style="fill: none; stroke: #008000; stroke-width: 1.5"/>
    <path d="M 206.017493 288.345981 
L 206.017493 215.729436 
" clip-path="url(#p7577b88e10)" style="fill: none; stroke: #008000; stroke-width: 1.5"/>
    <path d="M 220.553788 288.345981 
L 220.553788 215.729436 
" clip-path="url(#p7577b88e10)" style="fill: none; stroke: #008000; stroke-width: 1.5"/>
    <path d="M 235.090083 293.699203 
L 235.090083 221.082658 
" clip-path="url(#p7577b88e10)" style="fill: none; stroke: #008000; stroke-width: 1.5"/>
    <path d="M 249.626378 288.345981 
L 249.626378 215.729436 
" clip-path="url(#p7577b88e10)" style="fill: none; stroke: #008000; stroke-width: 1.5"/>
    <path d="M 264.162673 293.699203 
L 264.162673 221.082658 
" clip-path="url(#p7577b88e10)" style="fill: none; stroke: #008000; stroke-width: 1.5"/>
    <path d="M 278.698969 293.699203 
L 278.698969 221.082658 
" clip-path="url(#p7577b88e10)" style="fill: none; stroke: #008000; stroke-width: 1.5"/>
    <path d="M 293.235264 293.699203 
L 293.235264 221.082658 
" clip-path="url(#p7577b88e10)" style="fill: none; stroke: #008000; stroke-width: 1.5"/>
    <path d="M 307.771559 293.699203 
L 307.771559 221.082658 
" clip-path="url(#p7577b88e10)" style="fill: none; stroke: #008000; stroke-width: 1.5"/>
    <path d="M 322.307854 293.699203 
L 322.307854 221.082658 
" clip-path="url(#p7577b88e10)" style="fill: none; stroke: #008000; stroke-width: 1.5"/>
    <path d="M 336.844149 293.699203 
L 336.844149 221.082658 
" clip-path="url(#p7577b88e10)" style="fill: none; stroke: #008000; stroke-width: 1.5"/>
   </g>
   <g id="line2d_67">
    <path d="M 89.727132 259.746348 
L 104.263427 259.746348 
L 118.799722 259.746348 
L 133.336017 259.746348 
L 147.872312 259.746348 
L 162.408608 259.746348 
L 176.944903 259.746348 
L 191.481198 259.746348 
L 206.017493 259.746348 
L 220.553788 259.746348 
L 235.090083 259.746348 
L 249.626378 259.746348 
L 264.162673 259.746348 
L 278.698969 259.746348 
L 293.235264 259.746348 
L 307.771559 259.746348 
L 322.307854 259.746348 
L 336.844149 259.746348 
" clip-path="url(#p7577b88e10)" style="fill: none; stroke-dasharray: 1.5,2.475; stroke-dashoffset: 0; stroke: #000000; stroke-width: 1.5"/>
   </g>
   <g id="line2d_68">
    <path d="M 89.727132 257.39093 
L 104.263427 262.744152 
L 118.799722 262.744152 
L 133.336017 257.39093 
L 147.872312 257.39093 
L 162.408608 268.097373 
L 176.944903 268.097373 
L 191.481198 262.744152 
L 206.017493 268.097373 
L 220.553788 268.097373 
L 235.090083 268.097373 
L 249.626378 273.450595 
L 264.162673 268.097373 
L 278.698969 262.744152 
L 293.235264 262.744152 
L 307.771559 262.744152 
L 322.307854 262.744152 
L 336.844149 262.744152 
" clip-path="url(#p7577b88e10)" style="fill: none; stroke: #ff0000; stroke-width: 1.5; stroke-linecap: square"/>
   </g>
   <g id="line2d_69">
    <path d="M 89.727132 252.037708 
L 104.263427 252.037708 
L 118.799722 252.037708 
L 133.336017 252.037708 
L 147.872312 246.684487 
L 162.408608 252.037708 
L 176.944903 246.684487 
L 191.481198 252.037708 
L 206.017493 252.037708 
L 220.553788 252.037708 
L 235.090083 257.39093 
L 249.626378 252.037708 
L 264.162673 257.39093 
L 278.698969 257.39093 
L 293.235264 257.39093 
L 307.771559 257.39093 
L 322.307854 257.39093 
L 336.844149 257.39093 
" clip-path="url(#p7577b88e10)" style="fill: none; stroke: #008000; stroke-width: 1.5; stroke-linecap: square"/>
   </g>
   <g id="patch_11">
    <path d="M 77.371281 314.728 
L 77.371281 205.407082 
" style="fill: none; stroke: #000000; stroke-width: 0.8; stroke-linejoin: miter; stroke-linecap: square"/>
   </g>
   <g id="patch_12">
    <path d="M 349.2 314.728 
L 349.2 205.407082 
" style="fill: none; stroke: #000000; stroke-width: 0.8; stroke-linejoin: miter; stroke-linecap: square"/>
   </g>
   <g id="patch_13">
    <path d="M 77.371281 314.728 
L 349.2 314.728 
" style="fill: none; stroke: #000000; stroke-width: 0.8; stroke-linejoin: miter; stroke-linecap: square"/>
   </g>
   <g id="patch_14">
    <path d="M 77.371281 205.407082 
L 349.2 205.407082 
" style="fill: none; stroke: #000000; stroke-width: 0.8; stroke-linejoin: miter; stroke-linecap: square"/>
   </g>
   <g id="legend_2">
    <g id="patch_15">
     <path d="M 167.603125 242.763332 
L 342.2 242.763332 
Q 344.2 242.763332 344.2 240.763332 
L 344.2 212.407082 
Q 344.2 210.407082 342.2 210.407082 
L 167.603125 210.407082 
Q 165.603125 210.407082 165.603125 212.407082 
L 165.603125 240.763332 
Q 165.603125 242.763332 167.603125 242.763332 
z
" style="fill: #ffffff; opacity: 0.8; stroke: #cccccc; stroke-linejoin: miter"/>
    </g>
    <g id="line2d_70">
     <path d="M 169.603125 218.505519 
L 179.603125 218.505519 
L 189.603125 218.505519 
" style="fill: none; stroke-dasharray: 1.5,2.475; stroke-dashoffset: 0; stroke: #000000; stroke-width: 1.5"/>
    </g>
    <g id="text_20">
     <!-- 68 % -->
     <g transform="translate(197.603125 222.005519) scale(0.1 -0.1)">
      <defs>
       <path id="DejaVuSans-38" d="M 2034 2216 
Q 1584 2216 1326 1975 
Q 1069 1734 1069 1313 
Q 1069 891 1326 650 
Q 1584 409 2034 409 
Q 2484 409 2743 651 
Q 3003 894 3003 1313 
Q 3003 1734 2745 1975 
Q 2488 2216 2034 2216 
z
M 1403 2484 
Q 997 2584 770 2862 
Q 544 3141 544 3541 
Q 544 4100 942 4425 
Q 1341 4750 2034 4750 
Q 2731 4750 3128 4425 
Q 3525 4100 3525 3541 
Q 3525 3141 3298 2862 
Q 3072 2584 2669 2484 
Q 3125 2378 3379 2068 
Q 3634 1759 3634 1313 
Q 3634 634 3220 271 
Q 2806 -91 2034 -91 
Q 1263 -91 848 271 
Q 434 634 434 1313 
Q 434 1759 690 2068 
Q 947 2378 1403 2484 
z
M 1172 3481 
Q 1172 3119 1398 2916 
Q 1625 2713 2034 2713 
Q 2441 2713 2670 2916 
Q 2900 3119 2900 3481 
Q 2900 3844 2670 4047 
Q 2441 4250 2034 4250 
Q 1625 4250 1398 4047 
Q 1172 3844 1172 3481 
z
" transform="scale(0.015625)"/>
      </defs>
      <use xlink:href="#DejaVuSans-36"/>
      <use xlink:href="#DejaVuSans-38" x="63.623047"/>
      <use xlink:href="#DejaVuSans-20" x="127.246094"/>
      <use xlink:href="#DejaVuSans-25" x="159.033203"/>
     </g>
    </g>
    <g id="LineCollection_5">
     <path d="M 179.603125 238.183644 
L 179.603125 228.183644 
" style="fill: none; stroke: #ff0000; stroke-width: 1.5"/>
    </g>
    <g id="line2d_71">
     <path d="M 169.603125 233.183644 
L 189.603125 233.183644 
" style="fill: none; stroke: #ff0000; stroke-width: 1.5; stroke-linecap: square"/>
    </g>
    <g id="line2d_72"/>
    <g id="text_21">
     <!-- Standard  -->
     <g transform="translate(197.603125 236.683644) scale(0.1 -0.1)">
      <use xlink:href="#DejaVuSans-53"/>
      <use xlink:href="#DejaVuSans-74" x="63.476562"/>
      <use xlink:href="#DejaVuSans-61" x="102.685547"/>
      <use xlink:href="#DejaVuSans-6e" x="163.964844"/>
      <use xlink:href="#DejaVuSans-64" x="227.34375"/>
      <use xlink:href="#DejaVuSans-61" x="290.820312"/>
      <use xlink:href="#DejaVuSans-72" x="352.099609"/>
      <use xlink:href="#DejaVuSans-64" x="391.462891"/>
      <use xlink:href="#DejaVuSans-20" x="454.939453"/>
     </g>
    </g>
    <g id="LineCollection_6">
     <path d="M 276.276562 223.505519 
L 276.276562 213.505519 
" style="fill: none; stroke: #008000; stroke-width: 1.5"/>
    </g>
    <g id="line2d_73">
     <path d="M 266.276562 218.505519 
L 286.276562 218.505519 
" style="fill: none; stroke: #008000; stroke-width: 1.5; stroke-linecap: square"/>
    </g>
    <g id="line2d_74"/>
    <g id="text_22">
     <!-- Nuisance -->
     <g transform="translate(294.276562 222.005519) scale(0.1 -0.1)">
      <use xlink:href="#DejaVuSans-4e"/>
      <use xlink:href="#DejaVuSans-75" x="74.804688"/>
      <use xlink:href="#DejaVuSans-69" x="138.183594"/>
      <use xlink:href="#DejaVuSans-73" x="165.966797"/>
      <use xlink:href="#DejaVuSans-61" x="218.066406"/>
      <use xlink:href="#DejaVuSans-6e" x="279.345703"/>
      <use xlink:href="#DejaVuSans-63" x="342.724609"/>
      <use xlink:href="#DejaVuSans-65" x="397.705078"/>
     </g>
    </g>
   </g>
  </g>
 </g>
 <defs>
  <clipPath id="p58d91484dd">
   <rect x="77.371281" y="25.44" width="271.828719" height="163.981377"/>
  </clipPath>
  <clipPath id="p7577b88e10">
   <rect x="77.371281" y="205.407082" width="271.828719" height="109.320918"/>
  </clipPath>
 </defs>
</svg>
