<?xml version="1.0" encoding="utf-8" standalone="no"?>
<!DOCTYPE svg PUBLIC "-//W3C//DTD SVG 1.1//EN"
  "http://www.w3.org/Graphics/SVG/1.1/DTD/svg11.dtd">
<svg xmlns:xlink="http://www.w3.org/1999/xlink" width="460.8pt" height="345.6pt" viewBox="0 0 460.8 345.6" xmlns="http://www.w3.org/2000/svg" version="1.1">
 <metadata>
  <rdf:RDF xmlns:dc="http://purl.org/dc/elements/1.1/" xmlns:cc="http://creativecommons.org/ns#" xmlns:rdf="http://www.w3.org/1999/02/22-rdf-syntax-ns#">
   <cc:Work>
    <dc:type rdf:resource="http://purl.org/dc/dcmitype/StillImage"/>
    <dc:date>2023-07-26T18:06:26.598898</dc:date>
    <dc:format>image/svg+xml</dc:format>
    <dc:creator>
     <cc:Agent>
      <dc:title>Matplotlib v3.7.1, https://matplotlib.org/</dc:title>
     </cc:Agent>
    </dc:creator>
   </cc:Work>
  </rdf:RDF>
 </metadata>
 <defs>
  <style type="text/css">*{stroke-linejoin: round; stroke-linecap: butt}</style>
 </defs>
 <g id="figure_1">
  <g id="patch_1">
   <path d="M 0 345.6 
L 460.8 345.6 
L 460.8 0 
L 0 0 
z
" style="fill: #ffffff"/>
  </g>
  <g id="axes_1">
   <g id="patch_2">
    <path d="M 57.6 307.584 
L 414.72 307.584 
L 414.72 51.84 
L 57.6 51.84 
z
" style="fill: #ffffff"/>
   </g>
   <g id="patch_3">
    <path d="M 97.040656 70642.479917 
L 104.003411 70642.479917 
L 104.003411 296.955037 
L 97.040656 296.955037 
z
" clip-path="url(#pf5c5a1c9d8)" style="fill: #b22222; opacity: 0.9"/>
   </g>
   <g id="patch_4">
    <path d="M 104.003411 70642.479917 
L 110.966173 70642.479917 
L 110.966173 275.697126 
L 104.003411 275.697126 
z
" clip-path="url(#pf5c5a1c9d8)" style="fill: #b22222; opacity: 0.9"/>
   </g>
   <g id="patch_5">
    <path d="M 110.966173 70642.479917 
L 117.928935 70642.479917 
L 117.928935 258.53442 
L 110.966173 258.53442 
z
" clip-path="url(#pf5c5a1c9d8)" style="fill: #b22222; opacity: 0.9"/>
   </g>
   <g id="patch_6">
    <path d="M 117.928935 70642.479917 
L 124.89169 70642.479917 
L 124.89169 242.004046 
L 117.928935 242.004046 
z
" clip-path="url(#pf5c5a1c9d8)" style="fill: #b22222; opacity: 0.9"/>
   </g>
   <g id="patch_7">
    <path d="M 124.89169 70642.479917 
L 131.854453 70642.479917 
L 131.854453 207.470743 
L 124.89169 207.470743 
z
" clip-path="url(#pf5c5a1c9d8)" style="fill: #b22222; opacity: 0.9"/>
   </g>
   <g id="patch_8">
    <path d="M 131.854453 70642.479917 
L 138.817207 70642.479917 
L 138.817207 192.644626 
L 131.854453 192.644626 
z
" clip-path="url(#pf5c5a1c9d8)" style="fill: #b22222; opacity: 0.9"/>
   </g>
   <g id="patch_9">
    <path d="M 138.817207 70642.479917 
L 145.77997 70642.479917 
L 145.77997 156.183857 
L 138.817207 156.183857 
z
" clip-path="url(#pf5c5a1c9d8)" style="fill: #b22222; opacity: 0.9"/>
   </g>
   <g id="patch_10">
    <path d="M 145.77997 70642.479917 
L 152.742725 70642.479917 
L 152.742725 134.3094 
L 145.77997 134.3094 
z
" clip-path="url(#pf5c5a1c9d8)" style="fill: #b22222; opacity: 0.9"/>
   </g>
   <g id="patch_11">
    <path d="M 152.742725 70642.479917 
L 159.705487 70642.479917 
L 159.705487 133.259546 
L 152.742725 133.259546 
z
" clip-path="url(#pf5c5a1c9d8)" style="fill: #b22222; opacity: 0.9"/>
   </g>
   <g id="patch_12">
    <path d="M 159.705487 70642.479917 
L 166.66825 70642.479917 
L 166.66825 127.618866 
L 159.705487 127.618866 
z
" clip-path="url(#pf5c5a1c9d8)" style="fill: #b22222; opacity: 0.9"/>
   </g>
   <g id="patch_13">
    <path d="M 166.66825 70642.479917 
L 173.631004 70642.479917 
L 173.631004 111.927932 
L 166.66825 111.927932 
z
" clip-path="url(#pf5c5a1c9d8)" style="fill: #b22222; opacity: 0.9"/>
   </g>
   <g id="patch_14">
    <path d="M 173.631004 70642.479917 
L 180.593763 70642.479917 
L 180.593763 96.840668 
L 173.631004 96.840668 
z
" clip-path="url(#pf5c5a1c9d8)" style="fill: #b22222; opacity: 0.9"/>
   </g>
   <g id="patch_15">
    <path d="M 180.593763 70642.479917 
L 187.556522 70642.479917 
L 187.556522 86.259227 
L 180.593763 86.259227 
z
" clip-path="url(#pf5c5a1c9d8)" style="fill: #b22222; opacity: 0.9"/>
   </g>
   <g id="patch_16">
    <path d="M 187.556522 70642.479917 
L 194.51928 70642.479917 
L 194.51928 78.866505 
L 187.556522 78.866505 
z
" clip-path="url(#pf5c5a1c9d8)" style="fill: #b22222; opacity: 0.9"/>
   </g>
   <g id="patch_17">
    <path d="M 194.51928 70642.479917 
L 201.482039 70642.479917 
L 201.482039 74.02649 
L 194.51928 74.02649 
z
" clip-path="url(#pf5c5a1c9d8)" style="fill: #b22222; opacity: 0.9"/>
   </g>
   <g id="patch_18">
    <path d="M 201.482039 70642.479917 
L 208.444799 70642.479917 
L 208.444799 62.931048 
L 201.482039 62.931048 
z
" clip-path="url(#pf5c5a1c9d8)" style="fill: #b22222; opacity: 0.9"/>
   </g>
   <g id="patch_19">
    <path d="M 208.444799 70642.479917 
L 215.407558 70642.479917 
L 215.407558 62.261181 
L 208.444799 62.261181 
z
" clip-path="url(#pf5c5a1c9d8)" style="fill: #b22222; opacity: 0.9"/>
   </g>
   <g id="patch_20">
    <path d="M 215.407558 70642.479917 
L 222.370318 70642.479917 
L 222.370318 55.353647 
L 215.407558 55.353647 
z
" clip-path="url(#pf5c5a1c9d8)" style="fill: #b22222; opacity: 0.9"/>
   </g>
   <g id="patch_21">
    <path d="M 222.370318 70642.479917 
L 229.333077 70642.479917 
L 229.333077 55.093174 
L 222.370318 55.093174 
z
" clip-path="url(#pf5c5a1c9d8)" style="fill: #b22222; opacity: 0.9"/>
   </g>
   <g id="patch_22">
    <path d="M 229.333077 70642.479917 
L 236.295836 70642.479917 
L 236.295836 55.093174 
L 229.333077 55.093174 
z
" clip-path="url(#pf5c5a1c9d8)" style="fill: #b22222; opacity: 0.9"/>
   </g>
   <g id="patch_23">
    <path d="M 236.295836 70642.479917 
L 243.258595 70642.479917 
L 243.258595 54.709416 
L 236.295836 54.709416 
z
" clip-path="url(#pf5c5a1c9d8)" style="fill: #b22222; opacity: 0.9"/>
   </g>
   <g id="patch_24">
    <path d="M 243.258595 70642.479917 
L 250.221354 70642.479917 
L 250.221354 56.946331 
L 243.258595 56.946331 
z
" clip-path="url(#pf5c5a1c9d8)" style="fill: #b22222; opacity: 0.9"/>
   </g>
   <g id="patch_25">
    <path d="M 250.221354 70642.479917 
L 257.184113 70642.479917 
L 257.184113 59.472145 
L 250.221354 59.472145 
z
" clip-path="url(#pf5c5a1c9d8)" style="fill: #b22222; opacity: 0.9"/>
   </g>
   <g id="patch_26">
    <path d="M 257.184113 70642.479917 
L 264.146872 70642.479917 
L 264.146872 64.176487 
L 257.184113 64.176487 
z
" clip-path="url(#pf5c5a1c9d8)" style="fill: #b22222; opacity: 0.9"/>
   </g>
   <g id="patch_27">
    <path d="M 264.146872 70642.479917 
L 271.109633 70642.479917 
L 271.109633 69.978047 
L 264.146872 69.978047 
z
" clip-path="url(#pf5c5a1c9d8)" style="fill: #b22222; opacity: 0.9"/>
   </g>
   <g id="patch_28">
    <path d="M 271.109633 70642.479917 
L 278.072391 70642.479917 
L 278.072391 77.115614 
L 271.109633 77.115614 
z
" clip-path="url(#pf5c5a1c9d8)" style="fill: #b22222; opacity: 0.9"/>
   </g>
   <g id="patch_29">
    <path d="M 278.072391 70642.479917 
L 285.03515 70642.479917 
L 285.03515 86.116249 
L 278.072391 86.116249 
z
" clip-path="url(#pf5c5a1c9d8)" style="fill: #b22222; opacity: 0.9"/>
   </g>
   <g id="patch_30">
    <path d="M 285.03515 70642.479917 
L 291.997908 70642.479917 
L 291.997908 95.606702 
L 285.03515 95.606702 
z
" clip-path="url(#pf5c5a1c9d8)" style="fill: #b22222; opacity: 0.9"/>
   </g>
   <g id="patch_31">
    <path d="M 291.997908 70642.479917 
L 298.960667 70642.479917 
L 298.960667 110.421112 
L 291.997908 110.421112 
z
" clip-path="url(#pf5c5a1c9d8)" style="fill: #b22222; opacity: 0.9"/>
   </g>
   <g id="patch_32">
    <path d="M 298.960667 70642.479917 
L 305.923422 70642.479917 
L 305.923422 122.751345 
L 298.960667 122.751345 
z
" clip-path="url(#pf5c5a1c9d8)" style="fill: #b22222; opacity: 0.9"/>
   </g>
   <g id="patch_33">
    <path d="M 305.923422 70642.479917 
L 312.886184 70642.479917 
L 312.886184 133.112453 
L 305.923422 133.112453 
z
" clip-path="url(#pf5c5a1c9d8)" style="fill: #b22222; opacity: 0.9"/>
   </g>
   <g id="patch_34">
    <path d="M 312.886184 70642.479917 
L 319.848947 70642.479917 
L 319.848947 152.937019 
L 312.886184 152.937019 
z
" clip-path="url(#pf5c5a1c9d8)" style="fill: #b22222; opacity: 0.9"/>
   </g>
   <g id="patch_35">
    <path d="M 319.848947 70642.479917 
L 326.811701 70642.479917 
L 326.811701 161.620109 
L 319.848947 161.620109 
z
" clip-path="url(#pf5c5a1c9d8)" style="fill: #b22222; opacity: 0.9"/>
   </g>
   <g id="patch_36">
    <path d="M 326.811701 70642.479917 
L 333.774464 70642.479917 
L 333.774464 188.806065 
L 326.811701 188.806065 
z
" clip-path="url(#pf5c5a1c9d8)" style="fill: #b22222; opacity: 0.9"/>
   </g>
   <g id="patch_37">
    <path d="M 333.774464 70642.479917 
L 340.737219 70642.479917 
L 340.737219 200.133837 
L 333.774464 200.133837 
z
" clip-path="url(#pf5c5a1c9d8)" style="fill: #b22222; opacity: 0.9"/>
   </g>
   <g id="patch_38">
    <path d="M 340.737219 70642.479917 
L 347.699981 70642.479917 
L 347.699981 233.181236 
L 340.737219 233.181236 
z
" clip-path="url(#pf5c5a1c9d8)" style="fill: #b22222; opacity: 0.9"/>
   </g>
   <g id="patch_39">
    <path d="M 347.699981 70642.479917 
L 354.662736 70642.479917 
L 354.662736 244.672575 
L 347.699981 244.672575 
z
" clip-path="url(#pf5c5a1c9d8)" style="fill: #b22222; opacity: 0.9"/>
   </g>
   <g id="patch_40">
    <path d="M 354.662736 70642.479917 
L 361.625498 70642.479917 
L 361.625498 268.853596 
L 354.662736 268.853596 
z
" clip-path="url(#pf5c5a1c9d8)" style="fill: #b22222; opacity: 0.9"/>
   </g>
   <g id="patch_41">
    <path d="M 361.625498 70642.479917 
L 368.588261 70642.479917 
L 368.588261 275.697126 
L 361.625498 275.697126 
z
" clip-path="url(#pf5c5a1c9d8)" style="fill: #b22222; opacity: 0.9"/>
   </g>
   <g id="patch_42">
    <path d="M 368.588261 70642.479917 
L 375.551016 70642.479917 
L 375.551016 318.212983 
L 368.588261 318.212983 
z
" clip-path="url(#pf5c5a1c9d8)" style="fill: #b22222; opacity: 0.9"/>
   </g>
   <g id="matplotlib.axis_1">
    <g id="xtick_1">
     <g id="line2d_1">
      <defs>
       <path id="mcc69db3ea9" d="M 0 0 
L 0 3.5 
" style="stroke: #000000; stroke-width: 0.8"/>
      </defs>
      <g>
       <use xlink:href="#mcc69db3ea9" x="106.298182" y="307.584" style="stroke: #000000; stroke-width: 0.8"/>
      </g>
     </g>
     <g id="text_1">
      <!-- $\mathdefault{−4}$ -->
      <g transform="translate(99.933142 321.502498) scale(0.1 -0.1)">
       <defs>
        <path id="CMSY10-0" d="M 4218 1472 
C 4326 1472 4442 1472 4442 1600 
C 4442 1728 4326 1728 4218 1728 
L 755 1728 
C 646 1728 531 1728 531 1600 
C 531 1472 646 1472 755 1472 
L 4218 1472 
z
" transform="scale(0.015625)"/>
        <path id="CMR17-34" d="M 2150 4147 
C 2150 4281 2144 4288 2029 4288 
L 128 1254 
L 128 1088 
L 1779 1088 
L 1779 460 
C 1779 230 1766 166 1318 166 
L 1197 166 
L 1197 0 
C 1402 12 1747 12 1965 12 
C 2182 12 2528 12 2733 0 
L 2733 166 
L 2611 166 
C 2163 166 2150 230 2150 460 
L 2150 1088 
L 2803 1088 
L 2803 1254 
L 2150 1254 
L 2150 4147 
z
M 1798 3723 
L 1798 1254 
L 256 1254 
L 1798 3723 
z
" transform="scale(0.015625)"/>
       </defs>
       <use xlink:href="#CMSY10-0" transform="scale(0.996264)"/>
       <use xlink:href="#CMR17-34" transform="translate(77.487468 0) scale(0.996264)"/>
      </g>
     </g>
    </g>
    <g id="xtick_2">
     <g id="line2d_2">
      <g>
       <use xlink:href="#mcc69db3ea9" x="171.229091" y="307.584" style="stroke: #000000; stroke-width: 0.8"/>
      </g>
     </g>
     <g id="text_2">
      <!-- $\mathdefault{−2}$ -->
      <g transform="translate(164.864051 321.502498) scale(0.1 -0.1)">
       <defs>
        <path id="CMR17-32" d="M 2669 990 
L 2554 990 
C 2490 537 2438 460 2413 422 
C 2381 371 1920 371 1830 371 
L 602 371 
C 832 620 1280 1073 1824 1596 
C 2214 1966 2669 2400 2669 3033 
C 2669 3788 2067 4224 1395 4224 
C 691 4224 262 3603 262 3027 
C 262 2777 448 2745 525 2745 
C 589 2745 781 2783 781 3007 
C 781 3206 614 3264 525 3264 
C 486 3264 448 3257 422 3244 
C 544 3788 915 4057 1306 4057 
C 1862 4057 2227 3616 2227 3033 
C 2227 2477 1901 1998 1536 1583 
L 262 147 
L 262 0 
L 2515 0 
L 2669 990 
z
" transform="scale(0.015625)"/>
       </defs>
       <use xlink:href="#CMSY10-0" transform="scale(0.996264)"/>
       <use xlink:href="#CMR17-32" transform="translate(77.487468 0) scale(0.996264)"/>
      </g>
     </g>
    </g>
    <g id="xtick_3">
     <g id="line2d_3">
      <g>
       <use xlink:href="#mcc69db3ea9" x="236.16" y="307.584" style="stroke: #000000; stroke-width: 0.8"/>
      </g>
     </g>
     <g id="text_3">
      <!-- $\mathdefault{0}$ -->
      <g transform="translate(233.669332 321.502498) scale(0.1 -0.1)">
       <defs>
        <path id="CMR17-30" d="M 2688 2038 
C 2688 2430 2682 3099 2413 3613 
C 2176 4063 1798 4224 1466 4224 
C 1158 4224 768 4082 525 3620 
C 269 3137 243 2539 243 2038 
C 243 1671 250 1112 448 623 
C 723 -39 1216 -128 1466 -128 
C 1760 -128 2208 -7 2470 604 
C 2662 1048 2688 1568 2688 2038 
z
M 1466 -26 
C 1056 -26 813 328 723 816 
C 653 1196 653 1749 653 2109 
C 653 2604 653 3015 736 3407 
C 858 3954 1216 4121 1466 4121 
C 1728 4121 2067 3947 2189 3420 
C 2272 3054 2278 2623 2278 2109 
C 2278 1691 2278 1176 2202 797 
C 2067 96 1690 -26 1466 -26 
z
" transform="scale(0.015625)"/>
       </defs>
       <use xlink:href="#CMR17-30" transform="scale(0.996264)"/>
      </g>
     </g>
    </g>
    <g id="xtick_4">
     <g id="line2d_4">
      <g>
       <use xlink:href="#mcc69db3ea9" x="301.090909" y="307.584" style="stroke: #000000; stroke-width: 0.8"/>
      </g>
     </g>
     <g id="text_4">
      <!-- $\mathdefault{2}$ -->
      <g transform="translate(298.600241 321.502498) scale(0.1 -0.1)">
       <use xlink:href="#CMR17-32" transform="scale(0.996264)"/>
      </g>
     </g>
    </g>
    <g id="xtick_5">
     <g id="line2d_5">
      <g>
       <use xlink:href="#mcc69db3ea9" x="366.021818" y="307.584" style="stroke: #000000; stroke-width: 0.8"/>
      </g>
     </g>
     <g id="text_5">
      <!-- $\mathdefault{4}$ -->
      <g transform="translate(363.531151 321.502498) scale(0.1 -0.1)">
       <use xlink:href="#CMR17-34" transform="scale(0.996264)"/>
      </g>
     </g>
    </g>
   </g>
   <g id="matplotlib.axis_2">
    <g id="ytick_1">
     <g id="line2d_6">
      <defs>
       <path id="m37e46e8b36" d="M 0 0 
L -3.5 0 
" style="stroke: #000000; stroke-width: 0.8"/>
      </defs>
      <g>
       <use xlink:href="#m37e46e8b36" x="57.6" y="307.584" style="stroke: #000000; stroke-width: 0.8"/>
      </g>
     </g>
     <g id="text_6">
      <!-- $\mathdefault{10^{-4}}$ -->
      <g transform="translate(30.439427 311.043249) scale(0.1 -0.1)">
       <defs>
        <path id="CMR17-31" d="M 1702 4083 
C 1702 4217 1696 4224 1606 4224 
C 1357 3927 979 3833 621 3820 
C 602 3820 570 3820 563 3808 
C 557 3795 557 3782 557 3648 
C 755 3648 1088 3686 1344 3839 
L 1344 467 
C 1344 243 1331 166 781 166 
L 589 166 
L 589 0 
C 896 6 1216 12 1523 12 
C 1830 12 2150 6 2458 0 
L 2458 166 
L 2266 166 
C 1715 166 1702 236 1702 467 
L 1702 4083 
z
" transform="scale(0.015625)"/>
       </defs>
       <use xlink:href="#CMR17-31" transform="scale(0.996264)"/>
       <use xlink:href="#CMR17-30" transform="translate(45.690477 0) scale(0.996264)"/>
       <use xlink:href="#CMSY10-0" transform="translate(91.380954 36.153639) scale(0.697382)"/>
       <use xlink:href="#CMR17-34" transform="translate(145.621947 36.153639) scale(0.697382)"/>
      </g>
     </g>
    </g>
    <g id="ytick_2">
     <g id="line2d_7">
      <g>
       <use xlink:href="#m37e46e8b36" x="57.6" y="236.966635" style="stroke: #000000; stroke-width: 0.8"/>
      </g>
     </g>
     <g id="text_7">
      <!-- $\mathdefault{10^{-3}}$ -->
      <g transform="translate(30.439427 240.425884) scale(0.1 -0.1)">
       <defs>
        <path id="CMR17-33" d="M 1414 2176 
C 1984 2176 2234 1673 2234 1094 
C 2234 322 1824 25 1453 25 
C 1114 25 563 193 390 691 
C 422 678 454 678 486 678 
C 640 678 755 780 755 947 
C 755 1132 614 1216 486 1216 
C 378 1216 211 1164 211 927 
C 211 335 787 -128 1466 -128 
C 2176 -128 2720 432 2720 1087 
C 2720 1718 2208 2176 1600 2246 
C 2086 2347 2554 2776 2554 3353 
C 2554 3856 2048 4224 1472 4224 
C 890 4224 378 3862 378 3347 
C 378 3123 544 3084 627 3084 
C 762 3084 877 3167 877 3334 
C 877 3500 762 3584 627 3584 
C 602 3584 570 3584 544 3571 
C 730 3999 1235 4076 1459 4076 
C 1683 4076 2106 3966 2106 3347 
C 2106 3167 2080 2851 1862 2574 
C 1670 2329 1453 2316 1242 2297 
C 1210 2297 1062 2284 1037 2284 
C 992 2278 966 2272 966 2227 
C 966 2182 973 2176 1101 2176 
L 1414 2176 
z
" transform="scale(0.015625)"/>
       </defs>
       <use xlink:href="#CMR17-31" transform="scale(0.996264)"/>
       <use xlink:href="#CMR17-30" transform="translate(45.690477 0) scale(0.996264)"/>
       <use xlink:href="#CMSY10-0" transform="translate(91.380954 36.153639) scale(0.697382)"/>
       <use xlink:href="#CMR17-33" transform="translate(145.621947 36.153639) scale(0.697382)"/>
      </g>
     </g>
    </g>
    <g id="ytick_3">
     <g id="line2d_8">
      <g>
       <use xlink:href="#m37e46e8b36" x="57.6" y="166.349269" style="stroke: #000000; stroke-width: 0.8"/>
      </g>
     </g>
     <g id="text_8">
      <!-- $\mathdefault{10^{-2}}$ -->
      <g transform="translate(30.439427 169.808518) scale(0.1 -0.1)">
       <use xlink:href="#CMR17-31" transform="scale(0.996264)"/>
       <use xlink:href="#CMR17-30" transform="translate(45.690477 0) scale(0.996264)"/>
       <use xlink:href="#CMSY10-0" transform="translate(91.380954 36.153639) scale(0.697382)"/>
       <use xlink:href="#CMR17-32" transform="translate(145.621947 36.153639) scale(0.697382)"/>
      </g>
     </g>
    </g>
    <g id="ytick_4">
     <g id="line2d_9">
      <g>
       <use xlink:href="#m37e46e8b36" x="57.6" y="95.731904" style="stroke: #000000; stroke-width: 0.8"/>
      </g>
     </g>
     <g id="text_9">
      <!-- $\mathdefault{10^{-1}}$ -->
      <g transform="translate(30.439427 99.191153) scale(0.1 -0.1)">
       <use xlink:href="#CMR17-31" transform="scale(0.996264)"/>
       <use xlink:href="#CMR17-30" transform="translate(45.690477 0) scale(0.996264)"/>
       <use xlink:href="#CMSY10-0" transform="translate(91.380954 36.153639) scale(0.697382)"/>
       <use xlink:href="#CMR17-31" transform="translate(145.621947 36.153639) scale(0.697382)"/>
      </g>
     </g>
    </g>
    <g id="ytick_5">
     <g id="line2d_10">
      <defs>
       <path id="m30de58a5da" d="M 0 0 
L -2 0 
" style="stroke: #000000; stroke-width: 0.6"/>
      </defs>
      <g>
       <use xlink:href="#m30de58a5da" x="57.6" y="286.326055" style="stroke: #000000; stroke-width: 0.6"/>
      </g>
     </g>
    </g>
    <g id="ytick_6">
     <g id="line2d_11">
      <g>
       <use xlink:href="#m30de58a5da" x="57.6" y="273.890954" style="stroke: #000000; stroke-width: 0.6"/>
      </g>
     </g>
    </g>
    <g id="ytick_7">
     <g id="line2d_12">
      <g>
       <use xlink:href="#m30de58a5da" x="57.6" y="265.06811" style="stroke: #000000; stroke-width: 0.6"/>
      </g>
     </g>
    </g>
    <g id="ytick_8">
     <g id="line2d_13">
      <g>
       <use xlink:href="#m30de58a5da" x="57.6" y="258.22458" style="stroke: #000000; stroke-width: 0.6"/>
      </g>
     </g>
    </g>
    <g id="ytick_9">
     <g id="line2d_14">
      <g>
       <use xlink:href="#m30de58a5da" x="57.6" y="252.633009" style="stroke: #000000; stroke-width: 0.6"/>
      </g>
     </g>
    </g>
    <g id="ytick_10">
     <g id="line2d_15">
      <g>
       <use xlink:href="#m30de58a5da" x="57.6" y="247.905403" style="stroke: #000000; stroke-width: 0.6"/>
      </g>
     </g>
    </g>
    <g id="ytick_11">
     <g id="line2d_16">
      <g>
       <use xlink:href="#m30de58a5da" x="57.6" y="243.810164" style="stroke: #000000; stroke-width: 0.6"/>
      </g>
     </g>
    </g>
    <g id="ytick_12">
     <g id="line2d_17">
      <g>
       <use xlink:href="#m30de58a5da" x="57.6" y="240.197908" style="stroke: #000000; stroke-width: 0.6"/>
      </g>
     </g>
    </g>
    <g id="ytick_13">
     <g id="line2d_18">
      <g>
       <use xlink:href="#m30de58a5da" x="57.6" y="215.708689" style="stroke: #000000; stroke-width: 0.6"/>
      </g>
     </g>
    </g>
    <g id="ytick_14">
     <g id="line2d_19">
      <g>
       <use xlink:href="#m30de58a5da" x="57.6" y="203.273589" style="stroke: #000000; stroke-width: 0.6"/>
      </g>
     </g>
    </g>
    <g id="ytick_15">
     <g id="line2d_20">
      <g>
       <use xlink:href="#m30de58a5da" x="57.6" y="194.450744" style="stroke: #000000; stroke-width: 0.6"/>
      </g>
     </g>
    </g>
    <g id="ytick_16">
     <g id="line2d_21">
      <g>
       <use xlink:href="#m30de58a5da" x="57.6" y="187.607214" style="stroke: #000000; stroke-width: 0.6"/>
      </g>
     </g>
    </g>
    <g id="ytick_17">
     <g id="line2d_22">
      <g>
       <use xlink:href="#m30de58a5da" x="57.6" y="182.015643" style="stroke: #000000; stroke-width: 0.6"/>
      </g>
     </g>
    </g>
    <g id="ytick_18">
     <g id="line2d_23">
      <g>
       <use xlink:href="#m30de58a5da" x="57.6" y="177.288038" style="stroke: #000000; stroke-width: 0.6"/>
      </g>
     </g>
    </g>
    <g id="ytick_19">
     <g id="line2d_24">
      <g>
       <use xlink:href="#m30de58a5da" x="57.6" y="173.192799" style="stroke: #000000; stroke-width: 0.6"/>
      </g>
     </g>
    </g>
    <g id="ytick_20">
     <g id="line2d_25">
      <g>
       <use xlink:href="#m30de58a5da" x="57.6" y="169.580543" style="stroke: #000000; stroke-width: 0.6"/>
      </g>
     </g>
    </g>
    <g id="ytick_21">
     <g id="line2d_26">
      <g>
       <use xlink:href="#m30de58a5da" x="57.6" y="145.091324" style="stroke: #000000; stroke-width: 0.6"/>
      </g>
     </g>
    </g>
    <g id="ytick_22">
     <g id="line2d_27">
      <g>
       <use xlink:href="#m30de58a5da" x="57.6" y="132.656223" style="stroke: #000000; stroke-width: 0.6"/>
      </g>
     </g>
    </g>
    <g id="ytick_23">
     <g id="line2d_28">
      <g>
       <use xlink:href="#m30de58a5da" x="57.6" y="123.833379" style="stroke: #000000; stroke-width: 0.6"/>
      </g>
     </g>
    </g>
    <g id="ytick_24">
     <g id="line2d_29">
      <g>
       <use xlink:href="#m30de58a5da" x="57.6" y="116.989849" style="stroke: #000000; stroke-width: 0.6"/>
      </g>
     </g>
    </g>
    <g id="ytick_25">
     <g id="line2d_30">
      <g>
       <use xlink:href="#m30de58a5da" x="57.6" y="111.398278" style="stroke: #000000; stroke-width: 0.6"/>
      </g>
     </g>
    </g>
    <g id="ytick_26">
     <g id="line2d_31">
      <g>
       <use xlink:href="#m30de58a5da" x="57.6" y="106.670672" style="stroke: #000000; stroke-width: 0.6"/>
      </g>
     </g>
    </g>
    <g id="ytick_27">
     <g id="line2d_32">
      <g>
       <use xlink:href="#m30de58a5da" x="57.6" y="102.575434" style="stroke: #000000; stroke-width: 0.6"/>
      </g>
     </g>
    </g>
    <g id="ytick_28">
     <g id="line2d_33">
      <g>
       <use xlink:href="#m30de58a5da" x="57.6" y="98.963177" style="stroke: #000000; stroke-width: 0.6"/>
      </g>
     </g>
    </g>
    <g id="ytick_29">
     <g id="line2d_34">
      <g>
       <use xlink:href="#m30de58a5da" x="57.6" y="74.473959" style="stroke: #000000; stroke-width: 0.6"/>
      </g>
     </g>
    </g>
    <g id="ytick_30">
     <g id="line2d_35">
      <g>
       <use xlink:href="#m30de58a5da" x="57.6" y="62.038858" style="stroke: #000000; stroke-width: 0.6"/>
      </g>
     </g>
    </g>
    <g id="ytick_31">
     <g id="line2d_36">
      <g>
       <use xlink:href="#m30de58a5da" x="57.6" y="53.216013" style="stroke: #000000; stroke-width: 0.6"/>
      </g>
     </g>
    </g>
   </g>
   <g id="line2d_37">
    <path d="M 87.25812 346.6 
L 90.229421 334.792806 
L 93.50876 322.05728 
L 96.788099 309.617484 
L 100.067438 297.47342 
L 103.346777 285.625088 
L 106.626116 274.072486 
L 109.905455 262.815615 
L 113.184793 251.854476 
L 116.464132 241.189068 
L 119.743471 230.819391 
L 123.02281 220.745445 
L 126.302149 210.96723 
L 129.581488 201.484746 
L 132.860826 192.297994 
L 136.140165 183.406973 
L 139.419504 174.811683 
L 142.698843 166.512124 
L 145.978182 158.508296 
L 149.257521 150.800199 
L 152.53686 143.387834 
L 155.816198 136.271199 
L 159.095537 129.450296 
L 162.374876 122.925124 
L 165.654215 116.695683 
L 168.933554 110.761973 
L 172.212893 105.123995 
L 175.492231 99.781747 
L 178.77157 94.735231 
L 182.050909 89.984446 
L 185.330248 85.529392 
L 188.609587 81.370069 
L 191.888926 77.506477 
L 195.168264 73.938617 
L 198.447603 70.666488 
L 201.726942 67.690089 
L 205.006281 65.009422 
L 208.28562 62.624487 
L 211.564959 60.535282 
L 214.844298 58.741808 
L 218.123636 57.244066 
L 221.402975 56.042055 
L 224.682314 55.135774 
L 227.961653 54.525225 
L 231.240992 54.210408 
L 234.520331 54.191321 
L 237.799669 54.467966 
L 241.079008 55.040341 
L 244.358347 55.908448 
L 247.637686 57.072286 
L 250.917025 58.531855 
L 254.196364 60.287155 
L 257.475702 62.338187 
L 260.755041 64.684949 
L 264.03438 67.327443 
L 267.313719 70.265668 
L 270.593058 73.499624 
L 273.872397 77.029311 
L 277.151736 80.85473 
L 280.431074 84.975879 
L 283.710413 89.39276 
L 286.989752 94.105372 
L 290.269091 99.113715 
L 293.54843 104.417789 
L 296.827769 110.017594 
L 300.107107 115.913131 
L 303.386446 122.104398 
L 306.665785 128.591397 
L 309.945124 135.374127 
L 313.224463 142.452588 
L 316.503802 149.82678 
L 319.78314 157.496704 
L 323.062479 165.462358 
L 326.341818 173.723744 
L 329.621157 182.280861 
L 332.900496 191.133709 
L 336.179835 200.282288 
L 339.459174 209.726598 
L 342.738512 219.46664 
L 346.017851 229.502412 
L 349.29719 239.833916 
L 352.576529 250.461151 
L 355.855868 261.384117 
L 359.135207 272.602814 
L 362.414545 284.117243 
L 365.693884 295.927402 
L 368.973223 308.033293 
L 372.252562 320.434915 
L 375.531901 333.132268 
L 378.81124 346.125352 
L 378.928371 346.6 
" clip-path="url(#pf5c5a1c9d8)" style="fill: none; stroke: #000000; stroke-width: 2; stroke-linecap: square"/>
   </g>
   <g id="line2d_38">
    <path d="M 94.179791 346.6 
L 96.788099 335.89796 
L 100.067438 322.755559 
L 103.346777 309.926072 
L 106.626116 297.409499 
L 109.905455 285.205841 
L 113.184793 273.315097 
L 116.464132 261.737267 
L 119.743471 250.472352 
L 123.02281 239.52035 
L 126.302149 228.881264 
L 129.581488 218.555091 
L 132.860826 208.541833 
L 136.140165 198.841489 
L 139.419504 189.45406 
L 142.698843 180.379545 
L 145.978182 171.617944 
L 149.257521 163.169257 
L 152.53686 155.033485 
L 155.816198 147.210627 
L 159.095537 139.700684 
L 162.374876 132.503654 
L 165.654215 125.619539 
L 168.933554 119.048339 
L 172.212893 112.790053 
L 175.492231 106.844681 
L 178.77157 101.212223 
L 182.050909 95.892679 
L 185.330248 90.88605 
L 188.609587 86.192336 
L 191.888926 81.811535 
L 195.168264 77.743649 
L 198.447603 73.988677 
L 201.726942 70.54662 
L 205.006281 67.417477 
L 208.28562 64.601248 
L 211.564959 62.097933 
L 214.844298 59.907533 
L 218.123636 58.030047 
L 221.402975 56.465476 
L 224.682314 55.213818 
L 227.961653 54.275075 
L 231.240992 53.649247 
L 234.520331 53.336332 
L 237.799669 53.336332 
L 241.079008 53.649247 
L 244.358347 54.275075 
L 247.637686 55.213818 
L 250.917025 56.465476 
L 254.196364 58.030047 
L 257.475702 59.907533 
L 260.755041 62.097933 
L 264.03438 64.601248 
L 267.313719 67.417477 
L 270.593058 70.54662 
L 273.872397 73.988677 
L 277.151736 77.743649 
L 280.431074 81.811535 
L 283.710413 86.192336 
L 286.989752 90.88605 
L 290.269091 95.892679 
L 293.54843 101.212223 
L 296.827769 106.844681 
L 300.107107 112.790053 
L 303.386446 119.048339 
L 306.665785 125.619539 
L 309.945124 132.503654 
L 313.224463 139.700684 
L 316.503802 147.210627 
L 319.78314 155.033485 
L 323.062479 163.169257 
L 326.341818 171.617944 
L 329.621157 180.379545 
L 332.900496 189.45406 
L 336.179835 198.841489 
L 339.459174 208.541833 
L 342.738512 218.555091 
L 346.017851 228.881264 
L 349.29719 239.52035 
L 352.576529 250.472352 
L 355.855868 261.737267 
L 359.135207 273.315097 
L 362.414545 285.205841 
L 365.693884 297.409499 
L 368.973223 309.926072 
L 372.252562 322.755559 
L 375.531901 335.89796 
L 378.140209 346.6 
" clip-path="url(#pf5c5a1c9d8)" style="fill: none; stroke: #1f77b4; stroke-width: 2; stroke-linecap: square"/>
   </g>
   <g id="patch_43">
    <path d="M 57.6 307.584 
L 57.6 51.84 
" style="fill: none; stroke: #000000; stroke-width: 0.8; stroke-linejoin: miter; stroke-linecap: square"/>
   </g>
   <g id="patch_44">
    <path d="M 414.72 307.584 
L 414.72 51.84 
" style="fill: none; stroke: #000000; stroke-width: 0.8; stroke-linejoin: miter; stroke-linecap: square"/>
   </g>
   <g id="patch_45">
    <path d="M 57.6 307.584 
L 414.72 307.584 
" style="fill: none; stroke: #000000; stroke-width: 0.8; stroke-linejoin: miter; stroke-linecap: square"/>
   </g>
   <g id="patch_46">
    <path d="M 57.6 51.84 
L 414.72 51.84 
" style="fill: none; stroke: #000000; stroke-width: 0.8; stroke-linejoin: miter; stroke-linecap: square"/>
   </g>
   <g id="legend_1">
    <g id="patch_47">
     <path d="M 127.751302 300.584 
L 344.568698 300.584 
Q 347.368698 300.584 347.368698 297.784 
L 347.368698 260.159943 
Q 347.368698 257.359943 344.568698 257.359943 
L 127.751302 257.359943 
Q 124.951302 257.359943 124.951302 260.159943 
L 124.951302 297.784 
Q 124.951302 300.584 127.751302 300.584 
z
" style="fill: #ffffff; opacity: 0.8; stroke: #cccccc; stroke-linejoin: miter"/>
    </g>
    <g id="line2d_39">
     <path d="M 130.551302 267.859943 
L 144.551302 267.859943 
L 158.551302 267.859943 
" style="fill: none; stroke: #000000; stroke-width: 2; stroke-linecap: square"/>
    </g>
    <g id="text_10">
     <!-- $\mu$ = -0.094491, $\sigma$ = 1.028642 -->
     <g transform="translate(169.751302 272.759943) scale(0.14 -0.14)">
      <defs>
       <path id="CMMI12-16" d="M 922 140 
C 1082 -7 1318 -64 1536 -64 
C 1946 -64 2227 210 2374 408 
C 2438 70 2707 -64 2931 -64 
C 3123 -64 3277 51 3392 281 
C 3494 498 3584 887 3584 913 
C 3584 944 3558 970 3520 970 
C 3462 970 3456 938 3430 842 
C 3334 466 3213 64 2950 64 
C 2765 64 2752 229 2752 357 
C 2752 504 2810 734 2854 925 
L 3034 1615 
C 3059 1736 3130 2023 3162 2138 
C 3200 2291 3270 2566 3270 2591 
C 3270 2687 3194 2752 3098 2752 
C 3040 2752 2906 2726 2854 2534 
L 2406 759 
C 2374 632 2374 619 2291 517 
C 2214 408 1965 64 1562 64 
C 1203 64 1088 325 1088 625 
C 1088 811 1146 1034 1171 1143 
L 1459 2292 
C 1491 2413 1542 2617 1542 2656 
C 1542 2758 1459 2816 1376 2816 
C 1318 2816 1178 2796 1126 2592 
L 198 -1085 
C 192 -1116 179 -1154 179 -1191 
C 179 -1287 256 -1351 352 -1351 
C 538 -1351 576 -1204 621 -1029 
L 922 140 
z
" transform="scale(0.015625)"/>
       <path id="CMR17-3d" d="M 4115 2048 
C 4211 2048 4307 2048 4307 2156 
C 4307 2272 4198 2272 4090 2272 
L 512 2272 
C 403 2272 294 2272 294 2156 
C 294 2048 390 2048 486 2048 
L 4115 2048 
z
M 4090 927 
C 4198 927 4307 927 4307 1043 
C 4307 1152 4211 1152 4115 1152 
L 486 1152 
C 390 1152 294 1152 294 1043 
C 294 927 403 927 512 927 
L 4090 927 
z
" transform="scale(0.015625)"/>
       <path id="CMR17-2d" d="M 1632 1254 
L 1632 1536 
L 26 1536 
L 26 1254 
L 1632 1254 
z
" transform="scale(0.015625)"/>
       <path id="CMR17-2e" d="M 1062 262 
C 1062 422 934 524 800 524 
C 672 524 538 422 538 262 
C 538 102 666 0 800 0 
C 928 0 1062 102 1062 262 
z
" transform="scale(0.015625)"/>
       <path id="CMR17-39" d="M 2253 1871 
C 2253 448 1670 25 1190 25 
C 1043 25 685 43 538 281 
C 704 256 826 345 826 505 
C 826 678 685 736 595 736 
C 538 736 365 710 365 492 
C 365 68 742 -128 1203 -128 
C 1939 -128 2688 665 2688 2090 
C 2688 3857 1971 4224 1485 4224 
C 851 4224 243 3664 243 2800 
C 243 2000 762 1408 1414 1408 
C 1952 1408 2189 1910 2253 2122 
L 2253 1871 
z
M 1427 1510 
C 1254 1510 1011 1542 813 1929 
C 678 2181 678 2477 678 2793 
C 678 3174 678 3438 858 3722 
C 947 3857 1114 4076 1485 4076 
C 2240 4076 2240 2909 2240 2651 
C 2240 2193 2035 1510 1427 1510 
z
" transform="scale(0.015625)"/>
       <path id="CMR17-2c" d="M 1011 102 
C 1024 44 1024 25 1024 -76 
C 1024 -451 896 -795 627 -1108 
C 595 -1140 595 -1152 595 -1165 
C 595 -1191 621 -1216 646 -1216 
C 685 -1216 1126 -776 1126 -82 
C 1126 128 1101 524 800 524 
C 659 524 538 428 538 262 
C 538 96 659 0 800 0 
C 877 0 960 32 1011 102 
z
" transform="scale(0.015625)"/>
       <path id="CMMI12-1b" d="M 3251 2406 
C 3334 2406 3546 2406 3546 2611 
C 3546 2752 3424 2752 3309 2752 
L 1894 2752 
C 934 2752 243 1685 243 932 
C 243 389 595 -64 1171 -64 
C 1926 -64 2752 746 2752 1704 
C 2752 1953 2694 2195 2541 2406 
L 3251 2406 
z
M 1178 64 
C 851 64 614 312 614 753 
C 614 1136 845 2406 1786 2406 
C 2061 2406 2368 2272 2368 1780 
C 2368 1557 2266 1021 2042 651 
C 1811 274 1466 64 1178 64 
z
" transform="scale(0.015625)"/>
       <path id="CMR17-38" d="M 1741 2289 
C 2144 2494 2554 2803 2554 3298 
C 2554 3884 1990 4224 1472 4224 
C 890 4224 378 3800 378 3215 
C 378 3054 416 2777 666 2533 
C 730 2469 998 2276 1171 2154 
C 883 2006 211 1652 211 945 
C 211 282 838 -128 1459 -128 
C 2144 -128 2720 366 2720 1022 
C 2720 1607 2330 1877 2074 2051 
L 1741 2289 
z
M 902 2855 
C 851 2887 595 3086 595 3388 
C 595 3781 998 4076 1459 4076 
C 1965 4076 2336 3716 2336 3298 
C 2336 2700 1670 2359 1638 2359 
C 1632 2359 1626 2359 1574 2398 
L 902 2855 
z
M 2080 1536 
C 2176 1466 2483 1253 2483 861 
C 2483 385 2010 25 1472 25 
C 890 25 448 443 448 951 
C 448 1459 838 1884 1280 2083 
L 2080 1536 
z
" transform="scale(0.015625)"/>
       <path id="CMR17-36" d="M 678 2198 
C 678 3712 1395 4076 1811 4076 
C 1946 4076 2272 4049 2400 3782 
C 2298 3782 2106 3782 2106 3558 
C 2106 3385 2246 3328 2336 3328 
C 2394 3328 2566 3353 2566 3571 
C 2566 3987 2246 4224 1805 4224 
C 1043 4224 243 3411 243 2011 
C 243 257 966 -128 1478 -128 
C 2099 -128 2688 431 2688 1295 
C 2688 2101 2170 2688 1517 2688 
C 1126 2688 838 2430 678 1979 
L 678 2198 
z
M 1478 25 
C 691 25 691 1212 691 1450 
C 691 1914 909 2585 1504 2585 
C 1613 2585 1926 2585 2138 2140 
C 2253 1889 2253 1624 2253 1302 
C 2253 954 2253 696 2118 438 
C 1978 173 1773 25 1478 25 
z
" transform="scale(0.015625)"/>
      </defs>
      <use xlink:href="#CMMI12-16" transform="scale(0.996264)"/>
      <use xlink:href="#CMR17-3d" transform="translate(88.767388 0) scale(0.996264)"/>
      <use xlink:href="#CMR17-2d" transform="translate(190.558143 0) scale(0.996264)"/>
      <use xlink:href="#CMR17-30" transform="translate(220.634109 0) scale(0.996264)"/>
      <use xlink:href="#CMR17-2e" transform="translate(266.324586 0) scale(0.996264)"/>
      <use xlink:href="#CMR17-30" transform="translate(291.195645 0) scale(0.996264)"/>
      <use xlink:href="#CMR17-39" transform="translate(336.886122 0) scale(0.996264)"/>
      <use xlink:href="#CMR17-34" transform="translate(382.576599 0) scale(0.996264)"/>
      <use xlink:href="#CMR17-34" transform="translate(428.267076 0) scale(0.996264)"/>
      <use xlink:href="#CMR17-39" transform="translate(473.957553 0) scale(0.996264)"/>
      <use xlink:href="#CMR17-31" transform="translate(519.64803 0) scale(0.996264)"/>
      <use xlink:href="#CMR17-2c" transform="translate(565.338507 0) scale(0.996264)"/>
      <use xlink:href="#CMMI12-1b" transform="translate(620.285532 0) scale(0.996264)"/>
      <use xlink:href="#CMR17-3d" transform="translate(709.381552 0) scale(0.996264)"/>
      <use xlink:href="#CMR17-31" transform="translate(811.172307 0) scale(0.996264)"/>
      <use xlink:href="#CMR17-2e" transform="translate(856.862784 0) scale(0.996264)"/>
      <use xlink:href="#CMR17-30" transform="translate(881.733842 0) scale(0.996264)"/>
      <use xlink:href="#CMR17-32" transform="translate(927.424319 0) scale(0.996264)"/>
      <use xlink:href="#CMR17-38" transform="translate(973.114797 0) scale(0.996264)"/>
      <use xlink:href="#CMR17-36" transform="translate(1018.805274 0) scale(0.996264)"/>
      <use xlink:href="#CMR17-34" transform="translate(1064.495751 0) scale(0.996264)"/>
      <use xlink:href="#CMR17-32" transform="translate(1110.186228 0) scale(0.996264)"/>
     </g>
    </g>
    <g id="line2d_40">
     <path d="M 130.551302 287.371972 
L 144.551302 287.371972 
L 158.551302 287.371972 
" style="fill: none; stroke: #1f77b4; stroke-width: 2; stroke-linecap: square"/>
    </g>
    <g id="text_11">
     <!-- $\mu$ = 0.000, $\sigma$ = 1.000 -->
     <g transform="translate(169.751302 292.271972) scale(0.14 -0.14)">
      <use xlink:href="#CMMI12-16" transform="scale(0.996264)"/>
      <use xlink:href="#CMR17-3d" transform="translate(88.767388 0) scale(0.996264)"/>
      <use xlink:href="#CMR17-30" transform="translate(190.558143 0) scale(0.996264)"/>
      <use xlink:href="#CMR17-2e" transform="translate(236.24862 0) scale(0.996264)"/>
      <use xlink:href="#CMR17-30" transform="translate(261.119678 0) scale(0.996264)"/>
      <use xlink:href="#CMR17-30" transform="translate(306.810155 0) scale(0.996264)"/>
      <use xlink:href="#CMR17-30" transform="translate(352.500632 0) scale(0.996264)"/>
      <use xlink:href="#CMR17-2c" transform="translate(398.19111 0) scale(0.996264)"/>
      <use xlink:href="#CMMI12-1b" transform="translate(453.138134 0) scale(0.996264)"/>
      <use xlink:href="#CMR17-3d" transform="translate(542.234154 0) scale(0.996264)"/>
      <use xlink:href="#CMR17-31" transform="translate(644.024909 0) scale(0.996264)"/>
      <use xlink:href="#CMR17-2e" transform="translate(689.715386 0) scale(0.996264)"/>
      <use xlink:href="#CMR17-30" transform="translate(714.586445 0) scale(0.996264)"/>
      <use xlink:href="#CMR17-30" transform="translate(760.276922 0) scale(0.996264)"/>
      <use xlink:href="#CMR17-30" transform="translate(805.967399 0) scale(0.996264)"/>
     </g>
    </g>
   </g>
  </g>
  <g id="text_12">
   <!-- with out -->
   <g transform="translate(208.61387 11.75818) scale(0.12 -0.12)">
    <defs>
     <path id="CMR17-77" d="M 3725 2186 
C 3853 2566 4109 2579 4205 2585 
L 4205 2752 
C 4077 2745 3949 2739 3821 2739 
C 3699 2739 3424 2739 3315 2752 
L 3315 2585 
C 3514 2572 3622 2456 3622 2296 
C 3622 2251 3610 2193 3597 2148 
L 2995 398 
L 2342 2296 
C 2330 2341 2310 2392 2310 2418 
C 2310 2585 2528 2585 2630 2585 
L 2630 2752 
C 2483 2739 2214 2739 2061 2739 
C 1901 2739 1734 2739 1587 2752 
L 1587 2585 
C 1939 2585 1939 2572 2074 2167 
L 1485 443 
L 851 2302 
C 819 2386 819 2399 819 2418 
C 819 2585 1037 2585 1139 2585 
L 1139 2752 
C 986 2739 717 2739 557 2739 
C 416 2739 198 2739 64 2752 
L 64 2585 
C 346 2585 416 2566 486 2353 
L 1274 38 
C 1299 -45 1318 -64 1370 -64 
C 1414 -64 1440 -52 1472 44 
L 2131 1987 
L 2797 44 
C 2829 -52 2854 -64 2899 -64 
C 2950 -64 2970 -45 2995 38 
L 3725 2186 
z
" transform="scale(0.015625)"/>
     <path id="CMR17-69" d="M 992 3961 
C 992 4102 877 4224 730 4224 
C 589 4224 467 4108 467 3961 
C 467 3820 582 3699 730 3699 
C 870 3699 992 3814 992 3961 
z
M 243 2745 
L 243 2579 
C 602 2579 653 2540 653 2231 
L 653 443 
C 653 198 627 166 218 166 
L 218 0 
C 371 12 646 12 806 12 
C 960 12 1222 12 1370 0 
L 1370 166 
C 992 166 979 205 979 436 
L 979 2816 
L 243 2745 
z
" transform="scale(0.015625)"/>
     <path id="CMR17-74" d="M 966 2585 
L 1862 2585 
L 1862 2752 
L 966 2752 
L 966 3968 
L 851 3968 
C 838 3292 614 2700 70 2687 
L 70 2585 
L 627 2585 
L 627 778 
C 627 655 627 -64 1370 -64 
C 1747 -64 1965 308 1965 784 
L 1965 1151 
L 1850 1151 
L 1850 790 
C 1850 347 1677 51 1408 51 
C 1222 51 966 179 966 765 
L 966 2585 
z
" transform="scale(0.015625)"/>
     <path id="CMR17-68" d="M 2656 1954 
C 2656 2282 2592 2816 1837 2816 
C 1312 2816 1056 2392 979 2179 
L 973 2179 
L 973 4416 
L 211 4345 
L 211 4179 
C 589 4179 646 4141 646 3843 
L 646 443 
C 646 198 621 166 211 166 
L 211 0 
C 365 12 646 12 813 12 
C 979 12 1267 12 1421 0 
L 1421 166 
C 1011 166 986 192 986 443 
L 986 1678 
C 986 2269 1344 2713 1792 2713 
C 2266 2713 2317 2289 2317 1980 
L 2317 443 
C 2317 198 2291 166 1882 166 
L 1882 0 
C 2035 12 2317 12 2483 12 
C 2650 12 2938 12 3091 0 
L 3091 166 
C 2682 166 2656 192 2656 443 
L 2656 1954 
z
" transform="scale(0.015625)"/>
     <path id="CMR17-6f" d="M 2758 1356 
C 2758 2176 2163 2816 1466 2816 
C 768 2816 173 2176 173 1356 
C 173 550 768 -64 1466 -64 
C 2163 -64 2758 550 2758 1356 
z
M 1466 51 
C 1165 51 909 230 762 480 
C 602 768 582 1126 582 1408 
C 582 1676 595 2009 762 2297 
C 890 2508 1139 2713 1466 2713 
C 1754 2713 1997 2553 2150 2329 
C 2349 2028 2349 1606 2349 1408 
C 2349 1158 2336 774 2163 467 
C 1984 172 1709 51 1466 51 
z
" transform="scale(0.015625)"/>
     <path id="CMR17-75" d="M 1882 2745 
L 1882 2579 
C 2259 2579 2317 2540 2317 2229 
L 2317 1053 
C 2317 510 2029 38 1555 38 
C 1030 38 986 355 986 691 
L 986 2816 
L 211 2745 
L 211 2579 
C 467 2579 640 2579 646 2320 
L 646 1079 
C 646 646 646 368 813 187 
C 896 103 1056 -64 1517 -64 
C 2061 -64 2272 400 2323 536 
L 2330 536 
L 2330 -64 
L 3091 -13 
L 3091 154 
C 2714 154 2656 193 2656 503 
L 2656 2816 
L 1882 2745 
z
" transform="scale(0.015625)"/>
    </defs>
    <use xlink:href="#CMR17-77" transform="scale(0.996264)"/>
    <use xlink:href="#CMR17-69" transform="translate(66.509881 0) scale(0.996264)"/>
    <use xlink:href="#CMR17-74" transform="translate(91.380939 0) scale(0.996264)"/>
    <use xlink:href="#CMR17-68" transform="translate(126.661707 0) scale(0.996264)"/>
    <use xlink:href="#CMR17-6f" transform="translate(207.633043 0) scale(0.996264)"/>
    <use xlink:href="#CMR17-75" transform="translate(253.32352 0) scale(0.996264)"/>
    <use xlink:href="#CMR17-74" transform="translate(304.21889 0) scale(0.996264)"/>
   </g>
   <!--  corr_radius = 0.1 deg -->
   <g transform="translate(175.908664 24.045391) scale(0.12 -0.12)">
    <defs>
     <path id="CMR17-63" d="M 2234 2240 
C 2112 2240 1933 2240 1933 2015 
C 1933 1836 2080 1785 2163 1785 
C 2208 1785 2394 1804 2394 2028 
C 2394 2476 1958 2816 1466 2816 
C 787 2816 211 2201 211 1379 
C 211 521 813 -64 1466 -64 
C 2259 -64 2458 676 2458 747 
C 2458 773 2451 792 2406 792 
C 2362 792 2355 786 2330 702 
C 2163 180 1798 51 1523 51 
C 1114 51 621 431 621 1385 
C 621 2358 1094 2700 1472 2700 
C 1722 2700 2093 2582 2234 2240 
z
" transform="scale(0.015625)"/>
     <path id="CMR17-72" d="M 960 1517 
C 960 2134 1222 2713 1702 2713 
C 1747 2713 1792 2707 1837 2687 
C 1837 2687 1696 2642 1696 2475 
C 1696 2321 1818 2257 1914 2257 
C 1990 2257 2131 2302 2131 2482 
C 2131 2687 1926 2816 1709 2816 
C 1222 2816 1011 2340 947 2115 
L 941 2115 
L 941 2816 
L 198 2745 
L 198 2578 
C 576 2578 634 2540 634 2231 
L 634 443 
C 634 198 608 166 198 166 
L 198 0 
C 352 12 646 12 813 12 
C 998 12 1325 12 1498 0 
L 1498 166 
C 1037 166 960 166 960 455 
L 960 1517 
z
" transform="scale(0.015625)"/>
     <path id="CMR17-61" d="M 2304 1656 
C 2304 2048 2304 2275 2035 2534 
C 1798 2751 1523 2816 1306 2816 
C 800 2816 435 2408 435 1977 
C 435 1740 627 1728 666 1728 
C 749 1728 896 1779 896 1958 
C 896 2118 774 2188 666 2188 
C 640 2188 608 2182 589 2176 
C 723 2594 1069 2713 1293 2713 
C 1613 2713 1965 2421 1965 1875 
L 1965 1632 
C 1587 1619 1133 1568 774 1373 
C 371 1147 256 822 256 576 
C 256 77 832 -64 1171 -64 
C 1523 -64 1850 135 1990 505 
C 2003 219 2182 -39 2464 -39 
C 2598 -39 2938 51 2938 563 
L 2938 926 
L 2822 926 
L 2822 557 
C 2822 161 2650 109 2566 109 
C 2304 109 2304 446 2304 732 
L 2304 1656 
z
M 1965 887 
C 1965 323 1568 38 1216 38 
C 896 38 646 278 646 576 
C 646 771 730 1114 1101 1322 
C 1408 1497 1760 1523 1965 1536 
L 1965 887 
z
" transform="scale(0.015625)"/>
     <path id="CMR17-64" d="M 1869 4345 
L 1869 4179 
C 2246 4179 2304 4141 2304 3843 
L 2304 2371 
C 2278 2403 2016 2816 1498 2816 
C 845 2816 211 2228 211 1376 
C 211 529 806 -64 1434 -64 
C 1978 -64 2259 361 2291 406 
L 2291 -64 
L 3066 -13 
L 3066 154 
C 2688 154 2630 193 2630 503 
L 2630 4416 
L 1869 4345 
z
M 2291 762 
C 2291 568 2176 393 2029 264 
C 1811 70 1594 38 1472 38 
C 1286 38 621 135 621 1369 
C 621 2636 1363 2713 1530 2713 
C 1824 2713 2061 2545 2208 2313 
C 2291 2177 2291 2157 2291 2041 
L 2291 762 
z
" transform="scale(0.015625)"/>
     <path id="CMR17-73" d="M 1978 2688 
C 1978 2803 1971 2809 1933 2809 
C 1907 2809 1901 2803 1824 2707 
C 1805 2681 1747 2617 1728 2592 
C 1523 2809 1235 2816 1126 2816 
C 416 2816 160 2444 160 2073 
C 160 1497 813 1363 998 1324 
C 1402 1241 1542 1216 1677 1100 
C 1760 1024 1901 883 1901 652 
C 1901 384 1747 38 1158 38 
C 602 38 403 460 288 1024 
C 269 1113 269 1120 218 1120 
C 166 1120 160 1113 160 985 
L 160 64 
C 160 -52 166 -58 205 -58 
C 237 -58 243 -52 275 0 
C 314 57 410 211 448 275 
C 576 102 800 -64 1158 -64 
C 1792 -64 2131 281 2131 780 
C 2131 1107 1958 1280 1875 1356 
C 1683 1555 1459 1600 1190 1651 
C 838 1728 390 1817 390 2208 
C 390 2374 480 2726 1126 2726 
C 1811 2726 1850 2086 1862 1881 
C 1869 1849 1901 1843 1920 1843 
C 1978 1843 1978 1862 1978 1971 
L 1978 2688 
z
" transform="scale(0.015625)"/>
     <path id="CMR17-65" d="M 2438 1503 
C 2464 1529 2464 1542 2464 1606 
C 2464 2251 2118 2816 1389 2816 
C 710 2816 173 2175 173 1394 
C 173 554 781 -64 1459 -64 
C 2176 -64 2458 619 2458 755 
C 2458 800 2419 800 2406 800 
C 2362 800 2355 787 2330 709 
C 2189 270 1837 51 1504 51 
C 1229 51 954 206 781 490 
C 582 819 582 1200 582 1503 
L 2438 1503 
z
M 589 1600 
C 634 2511 1126 2713 1382 2713 
C 1818 2713 2112 2308 2118 1600 
L 589 1600 
z
" transform="scale(0.015625)"/>
     <path id="CMR17-67" d="M 710 1165 
C 832 1068 1043 960 1299 960 
C 1805 960 2240 1359 2240 1895 
C 2240 2063 2189 2321 1997 2521 
C 2176 2713 2438 2777 2586 2777 
C 2611 2777 2650 2777 2682 2758 
C 2656 2751 2598 2726 2598 2623 
C 2598 2540 2656 2483 2739 2483 
C 2835 2483 2886 2547 2886 2630 
C 2886 2751 2790 2880 2586 2880 
C 2330 2880 2106 2758 1926 2591 
C 1734 2764 1504 2828 1299 2828 
C 794 2828 358 2431 358 1895 
C 358 1527 570 1294 634 1230 
C 442 1004 442 742 442 710 
C 442 544 506 300 723 166 
C 390 82 128 -184 128 -517 
C 128 -996 736 -1344 1466 -1344 
C 2170 -1344 2803 -1009 2803 -510 
C 2803 384 1856 384 1363 384 
C 1216 384 954 384 922 390 
C 723 422 589 601 589 825 
C 589 883 589 1024 710 1165 
z
M 1299 1068 
C 736 1068 736 1766 736 1895 
C 736 2024 736 2719 1299 2719 
C 1862 2719 1862 2024 1862 1895 
C 1862 1766 1862 1068 1299 1068 
z
M 1466 -1236 
C 826 -1236 384 -883 384 -517 
C 384 -311 493 -118 634 -11 
C 794 102 858 102 1293 102 
C 1818 102 2547 102 2547 -517 
C 2547 -883 2106 -1236 1466 -1236 
z
" transform="scale(0.015625)"/>
    </defs>
    <use xlink:href="#CMR17-63" transform="scale(0.996264)"/>
    <use xlink:href="#CMR17-6f" transform="translate(40.48566 0) scale(0.996264)"/>
    <use xlink:href="#CMR17-72" transform="translate(86.176138 0) scale(0.996264)"/>
    <use xlink:href="#CMR17-72" transform="translate(121.456905 0) scale(0.996264)"/>
    <use xlink:href="#CMR17-72" transform="translate(189.634893 0) scale(0.996264)"/>
    <use xlink:href="#CMR17-61" transform="translate(224.915661 0) scale(0.996264)"/>
    <use xlink:href="#CMR17-64" transform="translate(270.606138 0) scale(0.996264)"/>
    <use xlink:href="#CMR17-69" transform="translate(321.501507 0) scale(0.996264)"/>
    <use xlink:href="#CMR17-75" transform="translate(346.372566 0) scale(0.996264)"/>
    <use xlink:href="#CMR17-73" transform="translate(397.267936 0) scale(0.996264)"/>
    <use xlink:href="#CMR17-3d" transform="translate(463.14524 0) scale(0.996264)"/>
    <use xlink:href="#CMR17-30" transform="translate(564.935994 0) scale(0.996264)"/>
    <use xlink:href="#CMR17-2e" transform="translate(610.626472 0) scale(0.996264)"/>
    <use xlink:href="#CMR17-31" transform="translate(635.49753 0) scale(0.996264)"/>
    <use xlink:href="#CMR17-64" transform="translate(711.263973 0) scale(0.996264)"/>
    <use xlink:href="#CMR17-65" transform="translate(762.159343 0) scale(0.996264)"/>
    <use xlink:href="#CMR17-67" transform="translate(802.645004 0) scale(0.996264)"/>
    <path d="M 162.220302 0 
L 189.634893 0 
L 189.634893 0.3985 
L 162.220302 0.3985 
L 162.220302 0 
z
"/>
   </g>
  </g>
 </g>
 <defs>
  <clipPath id="pf5c5a1c9d8">
   <rect x="57.6" y="51.84" width="357.12" height="255.744"/>
  </clipPath>
 </defs>
</svg>
