<?xml version="1.0" encoding="utf-8" standalone="no"?>
<!DOCTYPE svg PUBLIC "-//W3C//DTD SVG 1.1//EN"
  "http://www.w3.org/Graphics/SVG/1.1/DTD/svg11.dtd">
<svg xmlns:xlink="http://www.w3.org/1999/xlink" width="720pt" height="288pt" viewBox="0 0 720 288" xmlns="http://www.w3.org/2000/svg" version="1.1">
 <metadata>
  <rdf:RDF xmlns:dc="http://purl.org/dc/elements/1.1/" xmlns:cc="http://creativecommons.org/ns#" xmlns:rdf="http://www.w3.org/1999/02/22-rdf-syntax-ns#">
   <cc:Work>
    <dc:type rdf:resource="http://purl.org/dc/dcmitype/StillImage"/>
    <dc:date>2023-04-20T11:10:22.565401</dc:date>
    <dc:format>image/svg+xml</dc:format>
    <dc:creator>
     <cc:Agent>
      <dc:title>Matplotlib v3.6.3, https://matplotlib.org/</dc:title>
     </cc:Agent>
    </dc:creator>
   </cc:Work>
  </rdf:RDF>
 </metadata>
 <defs>
  <style type="text/css">*{stroke-linejoin: round; stroke-linecap: butt}</style>
 </defs>
 <g id="figure_1">
  <g id="patch_1">
   <path d="M 0 288 
L 720 288 
L 720 0 
L 0 0 
z
" style="fill: #ffffff"/>
  </g>
  <g id="axes_1">
   <g id="patch_2">
    <path d="M 60.423889 242.728 
L 354.6 242.728 
L 354.6 25.44 
L 60.423889 25.44 
z
" style="fill: #ffffff"/>
   </g>
   <g id="PolyCollection_1">
    <path d="M 73.795531 199.17023 
L 73.795531 209.981145 
L 76.496872 210.15639 
L 79.198214 210.331907 
L 81.899556 210.507695 
L 84.600898 210.683755 
L 87.302239 210.860089 
L 90.003581 211.036695 
L 92.704923 211.213576 
L 95.406264 211.390732 
L 98.107606 211.568164 
L 100.808948 211.745873 
L 103.510289 211.92386 
L 106.211631 212.102125 
L 108.912973 212.280671 
L 111.614314 212.459499 
L 114.315656 212.63861 
L 117.016998 212.818006 
L 119.71834 212.997689 
L 122.419681 213.17766 
L 125.121023 213.357922 
L 127.822365 213.538476 
L 130.523706 213.719325 
L 133.225048 213.900472 
L 135.92639 214.081918 
L 138.627731 214.263667 
L 141.329073 214.445722 
L 144.030415 214.628086 
L 146.731757 214.810762 
L 149.433098 214.993754 
L 152.13444 215.177065 
L 154.835782 215.360699 
L 157.537123 215.544661 
L 160.238465 215.728954 
L 162.939807 215.913585 
L 165.641148 216.098556 
L 168.34249 216.283875 
L 171.043832 216.469545 
L 173.745173 216.655574 
L 176.446515 216.841966 
L 179.147857 217.02873 
L 181.849199 217.21587 
L 184.55054 217.403396 
L 187.251882 217.591314 
L 189.953224 217.779631 
L 192.654565 217.968358 
L 195.355907 218.157502 
L 198.057249 218.347073 
L 200.75859 218.537081 
L 203.459932 218.727536 
L 206.161274 218.918449 
L 208.862616 219.109832 
L 211.563957 219.301696 
L 214.265299 219.494055 
L 216.966641 219.686922 
L 219.667982 219.880311 
L 222.369324 220.074237 
L 225.070666 220.268715 
L 227.772007 220.463762 
L 230.473349 220.659395 
L 233.174691 220.855632 
L 235.876032 221.052491 
L 238.577374 221.249993 
L 241.278716 221.448159 
L 243.980058 221.647009 
L 246.681399 221.846567 
L 249.382741 222.046856 
L 252.084083 222.2479 
L 254.785424 222.449726 
L 257.486766 222.65236 
L 260.188108 222.85583 
L 262.889449 223.060163 
L 265.590791 223.265391 
L 268.292133 223.471543 
L 270.993475 223.678652 
L 273.694816 223.886748 
L 276.396158 224.095866 
L 279.0975 224.30604 
L 281.798841 224.517302 
L 284.500183 224.72969 
L 287.201525 224.943156 
L 289.902866 49041.094873 
L 292.604208 49041.094873 
L 295.30555 225.718202 
L 298.006891 225.809729 
L 300.708233 226.029603 
L 303.409575 226.250843 
L 306.110917 226.473484 
L 308.812258 226.697554 
L 311.5136 226.923084 
L 314.214942 227.1501 
L 316.916283 227.378626 
L 319.617625 227.608686 
L 322.318967 227.840298 
L 325.020308 228.073479 
L 327.72165 228.308243 
L 330.422992 228.544599 
L 333.124334 228.782555 
L 335.825675 229.022113 
L 338.527017 229.263274 
L 341.228359 229.506034 
L 341.228359 225.862574 
L 341.228359 225.862574 
L 338.527017 225.625926 
L 335.825675 225.38793 
L 333.124334 225.14858 
L 330.422992 224.907878 
L 327.72165 224.665826 
L 325.020308 224.422431 
L 322.318967 224.177703 
L 319.617625 223.931656 
L 316.916283 223.684307 
L 314.214942 223.435674 
L 311.5136 223.185781 
L 308.812258 222.934651 
L 306.110917 222.682313 
L 303.409575 222.428794 
L 300.708233 222.174127 
L 298.006891 221.918342 
L 295.30555 221.53829 
L 292.604208 84.38349 
L 289.902866 123.123481 
L 287.201525 220.884733 
L 284.500183 220.623851 
L 281.798841 220.362086 
L 279.0975 220.099447 
L 276.396158 219.83597 
L 273.694816 219.57169 
L 270.993475 219.30664 
L 268.292133 219.040854 
L 265.590791 218.774365 
L 262.889449 218.507203 
L 260.188108 218.239401 
L 257.486766 217.970987 
L 254.785424 217.701991 
L 252.084083 217.43244 
L 249.382741 217.162362 
L 246.681399 216.891783 
L 243.980058 216.620726 
L 241.278716 216.349217 
L 238.577374 216.077278 
L 235.876032 215.804931 
L 233.174691 215.532197 
L 230.473349 215.259096 
L 227.772007 214.985647 
L 225.070666 214.711869 
L 222.369324 214.437779 
L 219.667982 214.163395 
L 216.966641 213.888731 
L 214.265299 213.613803 
L 211.563957 213.338626 
L 208.862616 213.063213 
L 206.161274 212.787578 
L 203.459932 212.511733 
L 200.75859 212.23569 
L 198.057249 211.959461 
L 195.355907 211.683056 
L 192.654565 211.406485 
L 189.953224 211.129759 
L 187.251882 210.852887 
L 184.55054 210.575878 
L 181.849199 210.29874 
L 179.147857 210.021481 
L 176.446515 209.74411 
L 173.745173 209.466633 
L 171.043832 209.189058 
L 168.34249 208.911391 
L 165.641148 208.633638 
L 162.939807 208.355807 
L 160.238465 208.077901 
L 157.537123 207.799928 
L 154.835782 207.521892 
L 152.13444 207.243799 
L 149.433098 206.965653 
L 146.731757 206.687458 
L 144.030415 206.40922 
L 141.329073 206.130942 
L 138.627731 205.852628 
L 135.92639 205.574282 
L 133.225048 205.295909 
L 130.523706 205.01751 
L 127.822365 204.73909 
L 125.121023 204.460652 
L 122.419681 204.182199 
L 119.71834 203.903733 
L 117.016998 203.625258 
L 114.315656 203.346776 
L 111.614314 203.06829 
L 108.912973 202.789802 
L 106.211631 202.511315 
L 103.510289 202.23283 
L 100.808948 201.954351 
L 98.107606 201.675878 
L 95.406264 201.397414 
L 92.704923 201.11896 
L 90.003581 200.84052 
L 87.302239 200.562093 
L 84.600898 200.283683 
L 81.899556 200.005289 
L 79.198214 199.726915 
L 76.496872 199.448562 
L 73.795531 199.17023 
z
" clip-path="url(#p28f2f1caa5)" style="fill: #db7093; fill-opacity: 0.5"/>
   </g>
   <g id="matplotlib.axis_1">
    <g id="xtick_1">
     <g id="line2d_1">
      <defs>
       <path id="m1d38c3d6f9" d="M 0 0 
L 0 3.5 
" style="stroke: #000000; stroke-width: 0.8"/>
      </defs>
      <g>
       <use xlink:href="#m1d38c3d6f9" x="72.44486" y="242.728" style="stroke: #000000; stroke-width: 0.8"/>
      </g>
     </g>
     <g id="text_1">
      <!-- $\mathdefault{10^{-1}}$ -->
      <g transform="translate(60.69486 257.326437) scale(0.1 -0.1)">
       <defs>
        <path id="DejaVuSans-31" d="M 794 531 
L 1825 531 
L 1825 4091 
L 703 3866 
L 703 4441 
L 1819 4666 
L 2450 4666 
L 2450 531 
L 3481 531 
L 3481 0 
L 794 0 
L 794 531 
z
" transform="scale(0.015625)"/>
        <path id="DejaVuSans-30" d="M 2034 4250 
Q 1547 4250 1301 3770 
Q 1056 3291 1056 2328 
Q 1056 1369 1301 889 
Q 1547 409 2034 409 
Q 2525 409 2770 889 
Q 3016 1369 3016 2328 
Q 3016 3291 2770 3770 
Q 2525 4250 2034 4250 
z
M 2034 4750 
Q 2819 4750 3233 4129 
Q 3647 3509 3647 2328 
Q 3647 1150 3233 529 
Q 2819 -91 2034 -91 
Q 1250 -91 836 529 
Q 422 1150 422 2328 
Q 422 3509 836 4129 
Q 1250 4750 2034 4750 
z
" transform="scale(0.015625)"/>
        <path id="DejaVuSans-2212" d="M 678 2272 
L 4684 2272 
L 4684 1741 
L 678 1741 
L 678 2272 
z
" transform="scale(0.015625)"/>
       </defs>
       <use xlink:href="#DejaVuSans-31" transform="translate(0 0.684375)"/>
       <use xlink:href="#DejaVuSans-30" transform="translate(63.623047 0.684375)"/>
       <use xlink:href="#DejaVuSans-2212" transform="translate(128.203125 38.965625) scale(0.7)"/>
       <use xlink:href="#DejaVuSans-31" transform="translate(186.855469 38.965625) scale(0.7)"/>
      </g>
     </g>
    </g>
    <g id="xtick_2">
     <g id="line2d_2">
      <g>
       <use xlink:href="#m1d38c3d6f9" x="241.061623" y="242.728" style="stroke: #000000; stroke-width: 0.8"/>
      </g>
     </g>
     <g id="text_2">
      <!-- $\mathdefault{10^{0}}$ -->
      <g transform="translate(232.261623 257.326437) scale(0.1 -0.1)">
       <use xlink:href="#DejaVuSans-31" transform="translate(0 0.765625)"/>
       <use xlink:href="#DejaVuSans-30" transform="translate(63.623047 0.765625)"/>
       <use xlink:href="#DejaVuSans-30" transform="translate(128.203125 39.046875) scale(0.7)"/>
      </g>
     </g>
    </g>
    <g id="xtick_3">
     <g id="line2d_3">
      <defs>
       <path id="m3d7046d461" d="M 0 0 
L 0 2 
" style="stroke: #000000; stroke-width: 0.6"/>
      </defs>
      <g>
       <use xlink:href="#m3d7046d461" x="64.72938" y="242.728" style="stroke: #000000; stroke-width: 0.6"/>
      </g>
     </g>
    </g>
    <g id="xtick_4">
     <g id="line2d_4">
      <g>
       <use xlink:href="#m3d7046d461" x="123.203563" y="242.728" style="stroke: #000000; stroke-width: 0.6"/>
      </g>
     </g>
    </g>
    <g id="xtick_5">
     <g id="line2d_5">
      <g>
       <use xlink:href="#m3d7046d461" x="152.895501" y="242.728" style="stroke: #000000; stroke-width: 0.6"/>
      </g>
     </g>
    </g>
    <g id="xtick_6">
     <g id="line2d_6">
      <g>
       <use xlink:href="#m3d7046d461" x="173.962267" y="242.728" style="stroke: #000000; stroke-width: 0.6"/>
      </g>
     </g>
    </g>
    <g id="xtick_7">
     <g id="line2d_7">
      <g>
       <use xlink:href="#m3d7046d461" x="190.302919" y="242.728" style="stroke: #000000; stroke-width: 0.6"/>
      </g>
     </g>
    </g>
    <g id="xtick_8">
     <g id="line2d_8">
      <g>
       <use xlink:href="#m3d7046d461" x="203.654205" y="242.728" style="stroke: #000000; stroke-width: 0.6"/>
      </g>
     </g>
    </g>
    <g id="xtick_9">
     <g id="line2d_9">
      <g>
       <use xlink:href="#m3d7046d461" x="214.942556" y="242.728" style="stroke: #000000; stroke-width: 0.6"/>
      </g>
     </g>
    </g>
    <g id="xtick_10">
     <g id="line2d_10">
      <g>
       <use xlink:href="#m3d7046d461" x="224.72097" y="242.728" style="stroke: #000000; stroke-width: 0.6"/>
      </g>
     </g>
    </g>
    <g id="xtick_11">
     <g id="line2d_11">
      <g>
       <use xlink:href="#m3d7046d461" x="233.346143" y="242.728" style="stroke: #000000; stroke-width: 0.6"/>
      </g>
     </g>
    </g>
    <g id="xtick_12">
     <g id="line2d_12">
      <g>
       <use xlink:href="#m3d7046d461" x="291.820326" y="242.728" style="stroke: #000000; stroke-width: 0.6"/>
      </g>
     </g>
    </g>
    <g id="xtick_13">
     <g id="line2d_13">
      <g>
       <use xlink:href="#m3d7046d461" x="321.512264" y="242.728" style="stroke: #000000; stroke-width: 0.6"/>
      </g>
     </g>
    </g>
    <g id="xtick_14">
     <g id="line2d_14">
      <g>
       <use xlink:href="#m3d7046d461" x="342.579029" y="242.728" style="stroke: #000000; stroke-width: 0.6"/>
      </g>
     </g>
    </g>
   </g>
   <g id="matplotlib.axis_2">
    <g id="ytick_1">
     <g id="line2d_15">
      <defs>
       <path id="mc7b65ac114" d="M 0 0 
L -3.5 0 
" style="stroke: #000000; stroke-width: 0.8"/>
      </defs>
      <g>
       <use xlink:href="#mc7b65ac114" x="60.423889" y="218.847418" style="stroke: #000000; stroke-width: 0.8"/>
      </g>
     </g>
     <g id="text_3">
      <!-- $\mathdefault{10^{-12}}$ -->
      <g transform="translate(25.523889 222.646636) scale(0.1 -0.1)">
       <defs>
        <path id="DejaVuSans-32" d="M 1228 531 
L 3431 531 
L 3431 0 
L 469 0 
L 469 531 
Q 828 903 1448 1529 
Q 2069 2156 2228 2338 
Q 2531 2678 2651 2914 
Q 2772 3150 2772 3378 
Q 2772 3750 2511 3984 
Q 2250 4219 1831 4219 
Q 1534 4219 1204 4116 
Q 875 4013 500 3803 
L 500 4441 
Q 881 4594 1212 4672 
Q 1544 4750 1819 4750 
Q 2544 4750 2975 4387 
Q 3406 4025 3406 3419 
Q 3406 3131 3298 2873 
Q 3191 2616 2906 2266 
Q 2828 2175 2409 1742 
Q 1991 1309 1228 531 
z
" transform="scale(0.015625)"/>
       </defs>
       <use xlink:href="#DejaVuSans-31" transform="translate(0 0.765625)"/>
       <use xlink:href="#DejaVuSans-30" transform="translate(63.623047 0.765625)"/>
       <use xlink:href="#DejaVuSans-2212" transform="translate(128.203125 39.046875) scale(0.7)"/>
       <use xlink:href="#DejaVuSans-31" transform="translate(186.855469 39.046875) scale(0.7)"/>
       <use xlink:href="#DejaVuSans-32" transform="translate(231.391602 39.046875) scale(0.7)"/>
      </g>
     </g>
    </g>
    <g id="ytick_2">
     <g id="line2d_16">
      <g>
       <use xlink:href="#mc7b65ac114" x="60.423889" y="169.432187" style="stroke: #000000; stroke-width: 0.8"/>
      </g>
     </g>
     <g id="text_4">
      <!-- $\mathdefault{10^{-11}}$ -->
      <g transform="translate(25.523889 173.231406) scale(0.1 -0.1)">
       <use xlink:href="#DejaVuSans-31" transform="translate(0 0.684375)"/>
       <use xlink:href="#DejaVuSans-30" transform="translate(63.623047 0.684375)"/>
       <use xlink:href="#DejaVuSans-2212" transform="translate(128.203125 38.965625) scale(0.7)"/>
       <use xlink:href="#DejaVuSans-31" transform="translate(186.855469 38.965625) scale(0.7)"/>
       <use xlink:href="#DejaVuSans-31" transform="translate(231.391602 38.965625) scale(0.7)"/>
      </g>
     </g>
    </g>
    <g id="ytick_3">
     <g id="line2d_17">
      <g>
       <use xlink:href="#mc7b65ac114" x="60.423889" y="120.016957" style="stroke: #000000; stroke-width: 0.8"/>
      </g>
     </g>
     <g id="text_5">
      <!-- $\mathdefault{10^{-10}}$ -->
      <g transform="translate(25.523889 123.816176) scale(0.1 -0.1)">
       <use xlink:href="#DejaVuSans-31" transform="translate(0 0.765625)"/>
       <use xlink:href="#DejaVuSans-30" transform="translate(63.623047 0.765625)"/>
       <use xlink:href="#DejaVuSans-2212" transform="translate(128.203125 39.046875) scale(0.7)"/>
       <use xlink:href="#DejaVuSans-31" transform="translate(186.855469 39.046875) scale(0.7)"/>
       <use xlink:href="#DejaVuSans-30" transform="translate(231.391602 39.046875) scale(0.7)"/>
      </g>
     </g>
    </g>
    <g id="ytick_4">
     <g id="line2d_18">
      <g>
       <use xlink:href="#mc7b65ac114" x="60.423889" y="70.601727" style="stroke: #000000; stroke-width: 0.8"/>
      </g>
     </g>
     <g id="text_6">
      <!-- $\mathdefault{10^{-9}}$ -->
      <g transform="translate(29.923889 74.400946) scale(0.1 -0.1)">
       <defs>
        <path id="DejaVuSans-39" d="M 703 97 
L 703 672 
Q 941 559 1184 500 
Q 1428 441 1663 441 
Q 2288 441 2617 861 
Q 2947 1281 2994 2138 
Q 2813 1869 2534 1725 
Q 2256 1581 1919 1581 
Q 1219 1581 811 2004 
Q 403 2428 403 3163 
Q 403 3881 828 4315 
Q 1253 4750 1959 4750 
Q 2769 4750 3195 4129 
Q 3622 3509 3622 2328 
Q 3622 1225 3098 567 
Q 2575 -91 1691 -91 
Q 1453 -91 1209 -44 
Q 966 3 703 97 
z
M 1959 2075 
Q 2384 2075 2632 2365 
Q 2881 2656 2881 3163 
Q 2881 3666 2632 3958 
Q 2384 4250 1959 4250 
Q 1534 4250 1286 3958 
Q 1038 3666 1038 3163 
Q 1038 2656 1286 2365 
Q 1534 2075 1959 2075 
z
" transform="scale(0.015625)"/>
       </defs>
       <use xlink:href="#DejaVuSans-31" transform="translate(0 0.765625)"/>
       <use xlink:href="#DejaVuSans-30" transform="translate(63.623047 0.765625)"/>
       <use xlink:href="#DejaVuSans-2212" transform="translate(128.203125 39.046875) scale(0.7)"/>
       <use xlink:href="#DejaVuSans-39" transform="translate(186.855469 39.046875) scale(0.7)"/>
      </g>
     </g>
    </g>
    <g id="ytick_5">
     <g id="line2d_19">
      <defs>
       <path id="m988d8cd286" d="M 0 0 
L -2 0 
" style="stroke: #000000; stroke-width: 0.6"/>
      </defs>
      <g>
       <use xlink:href="#m988d8cd286" x="60.423889" y="238.511715" style="stroke: #000000; stroke-width: 0.6"/>
      </g>
     </g>
    </g>
    <g id="ytick_6">
     <g id="line2d_20">
      <g>
       <use xlink:href="#m988d8cd286" x="60.423889" y="233.722884" style="stroke: #000000; stroke-width: 0.6"/>
      </g>
     </g>
    </g>
    <g id="ytick_7">
     <g id="line2d_21">
      <g>
       <use xlink:href="#m988d8cd286" x="60.423889" y="229.810125" style="stroke: #000000; stroke-width: 0.6"/>
      </g>
     </g>
    </g>
    <g id="ytick_8">
     <g id="line2d_22">
      <g>
       <use xlink:href="#m988d8cd286" x="60.423889" y="226.501934" style="stroke: #000000; stroke-width: 0.6"/>
      </g>
     </g>
    </g>
    <g id="ytick_9">
     <g id="line2d_23">
      <g>
       <use xlink:href="#m988d8cd286" x="60.423889" y="223.636248" style="stroke: #000000; stroke-width: 0.6"/>
      </g>
     </g>
    </g>
    <g id="ytick_10">
     <g id="line2d_24">
      <g>
       <use xlink:href="#m988d8cd286" x="60.423889" y="221.108534" style="stroke: #000000; stroke-width: 0.6"/>
      </g>
     </g>
    </g>
    <g id="ytick_11">
     <g id="line2d_25">
      <g>
       <use xlink:href="#m988d8cd286" x="60.423889" y="203.971951" style="stroke: #000000; stroke-width: 0.6"/>
      </g>
     </g>
    </g>
    <g id="ytick_12">
     <g id="line2d_26">
      <g>
       <use xlink:href="#m988d8cd286" x="60.423889" y="195.270361" style="stroke: #000000; stroke-width: 0.6"/>
      </g>
     </g>
    </g>
    <g id="ytick_13">
     <g id="line2d_27">
      <g>
       <use xlink:href="#m988d8cd286" x="60.423889" y="189.096484" style="stroke: #000000; stroke-width: 0.6"/>
      </g>
     </g>
    </g>
    <g id="ytick_14">
     <g id="line2d_28">
      <g>
       <use xlink:href="#m988d8cd286" x="60.423889" y="184.307654" style="stroke: #000000; stroke-width: 0.6"/>
      </g>
     </g>
    </g>
    <g id="ytick_15">
     <g id="line2d_29">
      <g>
       <use xlink:href="#m988d8cd286" x="60.423889" y="180.394894" style="stroke: #000000; stroke-width: 0.6"/>
      </g>
     </g>
    </g>
    <g id="ytick_16">
     <g id="line2d_30">
      <g>
       <use xlink:href="#m988d8cd286" x="60.423889" y="177.086703" style="stroke: #000000; stroke-width: 0.6"/>
      </g>
     </g>
    </g>
    <g id="ytick_17">
     <g id="line2d_31">
      <g>
       <use xlink:href="#m988d8cd286" x="60.423889" y="174.221018" style="stroke: #000000; stroke-width: 0.6"/>
      </g>
     </g>
    </g>
    <g id="ytick_18">
     <g id="line2d_32">
      <g>
       <use xlink:href="#m988d8cd286" x="60.423889" y="171.693304" style="stroke: #000000; stroke-width: 0.6"/>
      </g>
     </g>
    </g>
    <g id="ytick_19">
     <g id="line2d_33">
      <g>
       <use xlink:href="#m988d8cd286" x="60.423889" y="154.556721" style="stroke: #000000; stroke-width: 0.6"/>
      </g>
     </g>
    </g>
    <g id="ytick_20">
     <g id="line2d_34">
      <g>
       <use xlink:href="#m988d8cd286" x="60.423889" y="145.855131" style="stroke: #000000; stroke-width: 0.6"/>
      </g>
     </g>
    </g>
    <g id="ytick_21">
     <g id="line2d_35">
      <g>
       <use xlink:href="#m988d8cd286" x="60.423889" y="139.681254" style="stroke: #000000; stroke-width: 0.6"/>
      </g>
     </g>
    </g>
    <g id="ytick_22">
     <g id="line2d_36">
      <g>
       <use xlink:href="#m988d8cd286" x="60.423889" y="134.892424" style="stroke: #000000; stroke-width: 0.6"/>
      </g>
     </g>
    </g>
    <g id="ytick_23">
     <g id="line2d_37">
      <g>
       <use xlink:href="#m988d8cd286" x="60.423889" y="130.979664" style="stroke: #000000; stroke-width: 0.6"/>
      </g>
     </g>
    </g>
    <g id="ytick_24">
     <g id="line2d_38">
      <g>
       <use xlink:href="#m988d8cd286" x="60.423889" y="127.671473" style="stroke: #000000; stroke-width: 0.6"/>
      </g>
     </g>
    </g>
    <g id="ytick_25">
     <g id="line2d_39">
      <g>
       <use xlink:href="#m988d8cd286" x="60.423889" y="124.805788" style="stroke: #000000; stroke-width: 0.6"/>
      </g>
     </g>
    </g>
    <g id="ytick_26">
     <g id="line2d_40">
      <g>
       <use xlink:href="#m988d8cd286" x="60.423889" y="122.278074" style="stroke: #000000; stroke-width: 0.6"/>
      </g>
     </g>
    </g>
    <g id="ytick_27">
     <g id="line2d_41">
      <g>
       <use xlink:href="#m988d8cd286" x="60.423889" y="105.141491" style="stroke: #000000; stroke-width: 0.6"/>
      </g>
     </g>
    </g>
    <g id="ytick_28">
     <g id="line2d_42">
      <g>
       <use xlink:href="#m988d8cd286" x="60.423889" y="96.4399" style="stroke: #000000; stroke-width: 0.6"/>
      </g>
     </g>
    </g>
    <g id="ytick_29">
     <g id="line2d_43">
      <g>
       <use xlink:href="#m988d8cd286" x="60.423889" y="90.266024" style="stroke: #000000; stroke-width: 0.6"/>
      </g>
     </g>
    </g>
    <g id="ytick_30">
     <g id="line2d_44">
      <g>
       <use xlink:href="#m988d8cd286" x="60.423889" y="85.477193" style="stroke: #000000; stroke-width: 0.6"/>
      </g>
     </g>
    </g>
    <g id="ytick_31">
     <g id="line2d_45">
      <g>
       <use xlink:href="#m988d8cd286" x="60.423889" y="81.564434" style="stroke: #000000; stroke-width: 0.6"/>
      </g>
     </g>
    </g>
    <g id="ytick_32">
     <g id="line2d_46">
      <g>
       <use xlink:href="#m988d8cd286" x="60.423889" y="78.256243" style="stroke: #000000; stroke-width: 0.6"/>
      </g>
     </g>
    </g>
    <g id="ytick_33">
     <g id="line2d_47">
      <g>
       <use xlink:href="#m988d8cd286" x="60.423889" y="75.390558" style="stroke: #000000; stroke-width: 0.6"/>
      </g>
     </g>
    </g>
    <g id="ytick_34">
     <g id="line2d_48">
      <g>
       <use xlink:href="#m988d8cd286" x="60.423889" y="72.862844" style="stroke: #000000; stroke-width: 0.6"/>
      </g>
     </g>
    </g>
    <g id="ytick_35">
     <g id="line2d_49">
      <g>
       <use xlink:href="#m988d8cd286" x="60.423889" y="55.72626" style="stroke: #000000; stroke-width: 0.6"/>
      </g>
     </g>
    </g>
    <g id="ytick_36">
     <g id="line2d_50">
      <g>
       <use xlink:href="#m988d8cd286" x="60.423889" y="47.02467" style="stroke: #000000; stroke-width: 0.6"/>
      </g>
     </g>
    </g>
    <g id="ytick_37">
     <g id="line2d_51">
      <g>
       <use xlink:href="#m988d8cd286" x="60.423889" y="40.850794" style="stroke: #000000; stroke-width: 0.6"/>
      </g>
     </g>
    </g>
    <g id="ytick_38">
     <g id="line2d_52">
      <g>
       <use xlink:href="#m988d8cd286" x="60.423889" y="36.061963" style="stroke: #000000; stroke-width: 0.6"/>
      </g>
     </g>
    </g>
    <g id="ytick_39">
     <g id="line2d_53">
      <g>
       <use xlink:href="#m988d8cd286" x="60.423889" y="32.149204" style="stroke: #000000; stroke-width: 0.6"/>
      </g>
     </g>
    </g>
    <g id="ytick_40">
     <g id="line2d_54">
      <g>
       <use xlink:href="#m988d8cd286" x="60.423889" y="28.841013" style="stroke: #000000; stroke-width: 0.6"/>
      </g>
     </g>
    </g>
    <g id="ytick_41">
     <g id="line2d_55">
      <g>
       <use xlink:href="#m988d8cd286" x="60.423889" y="25.975327" style="stroke: #000000; stroke-width: 0.6"/>
      </g>
     </g>
    </g>
    <g id="text_7">
     <!-- e2 * dnde [TeV / (cm2 s)] -->
     <g transform="translate(19.444202 196.563688) rotate(-90) scale(0.1 -0.1)">
      <defs>
       <path id="DejaVuSans-65" d="M 3597 1894 
L 3597 1613 
L 953 1613 
Q 991 1019 1311 708 
Q 1631 397 2203 397 
Q 2534 397 2845 478 
Q 3156 559 3463 722 
L 3463 178 
Q 3153 47 2828 -22 
Q 2503 -91 2169 -91 
Q 1331 -91 842 396 
Q 353 884 353 1716 
Q 353 2575 817 3079 
Q 1281 3584 2069 3584 
Q 2775 3584 3186 3129 
Q 3597 2675 3597 1894 
z
M 3022 2063 
Q 3016 2534 2758 2815 
Q 2500 3097 2075 3097 
Q 1594 3097 1305 2825 
Q 1016 2553 972 2059 
L 3022 2063 
z
" transform="scale(0.015625)"/>
       <path id="DejaVuSans-20" transform="scale(0.015625)"/>
       <path id="DejaVuSans-2a" d="M 3009 3897 
L 1888 3291 
L 3009 2681 
L 2828 2375 
L 1778 3009 
L 1778 1831 
L 1422 1831 
L 1422 3009 
L 372 2375 
L 191 2681 
L 1313 3291 
L 191 3897 
L 372 4206 
L 1422 3572 
L 1422 4750 
L 1778 4750 
L 1778 3572 
L 2828 4206 
L 3009 3897 
z
" transform="scale(0.015625)"/>
       <path id="DejaVuSans-64" d="M 2906 2969 
L 2906 4863 
L 3481 4863 
L 3481 0 
L 2906 0 
L 2906 525 
Q 2725 213 2448 61 
Q 2172 -91 1784 -91 
Q 1150 -91 751 415 
Q 353 922 353 1747 
Q 353 2572 751 3078 
Q 1150 3584 1784 3584 
Q 2172 3584 2448 3432 
Q 2725 3281 2906 2969 
z
M 947 1747 
Q 947 1113 1208 752 
Q 1469 391 1925 391 
Q 2381 391 2643 752 
Q 2906 1113 2906 1747 
Q 2906 2381 2643 2742 
Q 2381 3103 1925 3103 
Q 1469 3103 1208 2742 
Q 947 2381 947 1747 
z
" transform="scale(0.015625)"/>
       <path id="DejaVuSans-6e" d="M 3513 2113 
L 3513 0 
L 2938 0 
L 2938 2094 
Q 2938 2591 2744 2837 
Q 2550 3084 2163 3084 
Q 1697 3084 1428 2787 
Q 1159 2491 1159 1978 
L 1159 0 
L 581 0 
L 581 3500 
L 1159 3500 
L 1159 2956 
Q 1366 3272 1645 3428 
Q 1925 3584 2291 3584 
Q 2894 3584 3203 3211 
Q 3513 2838 3513 2113 
z
" transform="scale(0.015625)"/>
       <path id="DejaVuSans-5b" d="M 550 4863 
L 1875 4863 
L 1875 4416 
L 1125 4416 
L 1125 -397 
L 1875 -397 
L 1875 -844 
L 550 -844 
L 550 4863 
z
" transform="scale(0.015625)"/>
       <path id="DejaVuSans-54" d="M -19 4666 
L 3928 4666 
L 3928 4134 
L 2272 4134 
L 2272 0 
L 1638 0 
L 1638 4134 
L -19 4134 
L -19 4666 
z
" transform="scale(0.015625)"/>
       <path id="DejaVuSans-56" d="M 1831 0 
L 50 4666 
L 709 4666 
L 2188 738 
L 3669 4666 
L 4325 4666 
L 2547 0 
L 1831 0 
z
" transform="scale(0.015625)"/>
       <path id="DejaVuSans-2f" d="M 1625 4666 
L 2156 4666 
L 531 -594 
L 0 -594 
L 1625 4666 
z
" transform="scale(0.015625)"/>
       <path id="DejaVuSans-28" d="M 1984 4856 
Q 1566 4138 1362 3434 
Q 1159 2731 1159 2009 
Q 1159 1288 1364 580 
Q 1569 -128 1984 -844 
L 1484 -844 
Q 1016 -109 783 600 
Q 550 1309 550 2009 
Q 550 2706 781 3412 
Q 1013 4119 1484 4856 
L 1984 4856 
z
" transform="scale(0.015625)"/>
       <path id="DejaVuSans-63" d="M 3122 3366 
L 3122 2828 
Q 2878 2963 2633 3030 
Q 2388 3097 2138 3097 
Q 1578 3097 1268 2742 
Q 959 2388 959 1747 
Q 959 1106 1268 751 
Q 1578 397 2138 397 
Q 2388 397 2633 464 
Q 2878 531 3122 666 
L 3122 134 
Q 2881 22 2623 -34 
Q 2366 -91 2075 -91 
Q 1284 -91 818 406 
Q 353 903 353 1747 
Q 353 2603 823 3093 
Q 1294 3584 2113 3584 
Q 2378 3584 2631 3529 
Q 2884 3475 3122 3366 
z
" transform="scale(0.015625)"/>
       <path id="DejaVuSans-6d" d="M 3328 2828 
Q 3544 3216 3844 3400 
Q 4144 3584 4550 3584 
Q 5097 3584 5394 3201 
Q 5691 2819 5691 2113 
L 5691 0 
L 5113 0 
L 5113 2094 
Q 5113 2597 4934 2840 
Q 4756 3084 4391 3084 
Q 3944 3084 3684 2787 
Q 3425 2491 3425 1978 
L 3425 0 
L 2847 0 
L 2847 2094 
Q 2847 2600 2669 2842 
Q 2491 3084 2119 3084 
Q 1678 3084 1418 2786 
Q 1159 2488 1159 1978 
L 1159 0 
L 581 0 
L 581 3500 
L 1159 3500 
L 1159 2956 
Q 1356 3278 1631 3431 
Q 1906 3584 2284 3584 
Q 2666 3584 2933 3390 
Q 3200 3197 3328 2828 
z
" transform="scale(0.015625)"/>
       <path id="DejaVuSans-73" d="M 2834 3397 
L 2834 2853 
Q 2591 2978 2328 3040 
Q 2066 3103 1784 3103 
Q 1356 3103 1142 2972 
Q 928 2841 928 2578 
Q 928 2378 1081 2264 
Q 1234 2150 1697 2047 
L 1894 2003 
Q 2506 1872 2764 1633 
Q 3022 1394 3022 966 
Q 3022 478 2636 193 
Q 2250 -91 1575 -91 
Q 1294 -91 989 -36 
Q 684 19 347 128 
L 347 722 
Q 666 556 975 473 
Q 1284 391 1588 391 
Q 1994 391 2212 530 
Q 2431 669 2431 922 
Q 2431 1156 2273 1281 
Q 2116 1406 1581 1522 
L 1381 1569 
Q 847 1681 609 1914 
Q 372 2147 372 2553 
Q 372 3047 722 3315 
Q 1072 3584 1716 3584 
Q 2034 3584 2315 3537 
Q 2597 3491 2834 3397 
z
" transform="scale(0.015625)"/>
       <path id="DejaVuSans-29" d="M 513 4856 
L 1013 4856 
Q 1481 4119 1714 3412 
Q 1947 2706 1947 2009 
Q 1947 1309 1714 600 
Q 1481 -109 1013 -844 
L 513 -844 
Q 928 -128 1133 580 
Q 1338 1288 1338 2009 
Q 1338 2731 1133 3434 
Q 928 4138 513 4856 
z
" transform="scale(0.015625)"/>
       <path id="DejaVuSans-5d" d="M 1947 4863 
L 1947 -844 
L 622 -844 
L 622 -397 
L 1369 -397 
L 1369 4416 
L 622 4416 
L 622 4863 
L 1947 4863 
z
" transform="scale(0.015625)"/>
      </defs>
      <use xlink:href="#DejaVuSans-65"/>
      <use xlink:href="#DejaVuSans-32" x="61.523438"/>
      <use xlink:href="#DejaVuSans-20" x="125.146484"/>
      <use xlink:href="#DejaVuSans-2a" x="156.933594"/>
      <use xlink:href="#DejaVuSans-20" x="206.933594"/>
      <use xlink:href="#DejaVuSans-64" x="238.720703"/>
      <use xlink:href="#DejaVuSans-6e" x="302.197266"/>
      <use xlink:href="#DejaVuSans-64" x="365.576172"/>
      <use xlink:href="#DejaVuSans-65" x="429.052734"/>
      <use xlink:href="#DejaVuSans-20" x="490.576172"/>
      <use xlink:href="#DejaVuSans-5b" x="522.363281"/>
      <use xlink:href="#DejaVuSans-54" x="561.376953"/>
      <use xlink:href="#DejaVuSans-65" x="605.460938"/>
      <use xlink:href="#DejaVuSans-56" x="666.984375"/>
      <use xlink:href="#DejaVuSans-20" x="735.392578"/>
      <use xlink:href="#DejaVuSans-2f" x="767.179688"/>
      <use xlink:href="#DejaVuSans-20" x="800.871094"/>
      <use xlink:href="#DejaVuSans-28" x="832.658203"/>
      <use xlink:href="#DejaVuSans-63" x="871.671875"/>
      <use xlink:href="#DejaVuSans-6d" x="926.652344"/>
      <use xlink:href="#DejaVuSans-32" x="1024.064453"/>
      <use xlink:href="#DejaVuSans-20" x="1087.6875"/>
      <use xlink:href="#DejaVuSans-73" x="1119.474609"/>
      <use xlink:href="#DejaVuSans-29" x="1171.574219"/>
      <use xlink:href="#DejaVuSans-5d" x="1210.587891"/>
     </g>
    </g>
   </g>
   <g id="line2d_56">
    <path d="M 73.795531 203.902013 
L 76.496872 204.141458 
L 79.198214 204.380903 
L 81.899556 204.620348 
L 84.600898 204.859793 
L 87.302239 205.099238 
L 90.003581 205.338683 
L 92.704923 205.578128 
L 95.406264 205.817573 
L 98.107606 206.057018 
L 100.808948 206.296464 
L 103.510289 206.535909 
L 106.211631 206.775354 
L 108.912973 207.014799 
L 111.614314 207.254244 
L 114.315656 207.493689 
L 117.016998 207.733134 
L 119.71834 207.972579 
L 122.419681 208.212024 
L 125.121023 208.451469 
L 127.822365 208.690914 
L 130.523706 208.930359 
L 133.225048 209.169805 
L 135.92639 209.40925 
L 138.627731 209.648695 
L 141.329073 209.88814 
L 144.030415 210.127585 
L 146.731757 210.36703 
L 149.433098 210.606475 
L 152.13444 210.84592 
L 154.835782 211.085365 
L 157.537123 211.32481 
L 160.238465 211.564255 
L 162.939807 211.803701 
L 165.641148 212.043146 
L 168.34249 212.282591 
L 171.043832 212.522036 
L 173.745173 212.761481 
L 176.446515 213.000926 
L 179.147857 213.240371 
L 181.849199 213.479816 
L 184.55054 213.719261 
L 187.251882 213.958706 
L 189.953224 214.198151 
L 192.654565 214.437597 
L 195.355907 214.677042 
L 198.057249 214.916487 
L 200.75859 215.155932 
L 203.459932 215.395377 
L 206.161274 215.634822 
L 208.862616 215.874267 
L 211.563957 216.113712 
L 214.265299 216.353157 
L 216.966641 216.592602 
L 219.667982 216.832047 
L 222.369324 217.071493 
L 225.070666 217.310938 
L 227.772007 217.550383 
L 230.473349 217.789828 
L 233.174691 218.029273 
L 235.876032 218.268718 
L 238.577374 218.508163 
L 241.278716 218.747608 
L 243.980058 218.987053 
L 246.681399 219.226498 
L 249.382741 219.465943 
L 252.084083 219.705388 
L 254.785424 219.944834 
L 257.486766 220.184279 
L 260.188108 220.423724 
L 262.889449 220.663169 
L 265.590791 220.902614 
L 268.292133 221.142059 
L 270.993475 221.381504 
L 273.694816 221.620949 
L 276.396158 221.860394 
L 279.0975 222.099839 
L 281.798841 222.339284 
L 284.500183 222.57873 
L 287.201525 222.818152 
L 289.902866 188.157651 
L 292.604208 138.694962 
L 295.30555 223.526641 
L 298.006891 223.775955 
L 300.708233 224.0154 
L 303.409575 224.254845 
L 306.110917 224.49429 
L 308.812258 224.733735 
L 311.5136 224.97318 
L 314.214942 225.212626 
L 316.916283 225.452071 
L 319.617625 225.691516 
L 322.318967 225.930961 
L 325.020308 226.170406 
L 327.72165 226.409851 
L 330.422992 226.649296 
L 333.124334 226.888741 
L 335.825675 227.128186 
L 338.527017 227.367631 
L 341.228359 227.607076 
" clip-path="url(#p28f2f1caa5)" style="fill: none; stroke: #c71585; stroke-opacity: 0.95; stroke-width: 2; stroke-linecap: square"/>
   </g>
   <g id="line2d_57">
    <path d="M 73.795531 204.141598 
L 76.496872 204.379096 
L 79.198214 204.616595 
L 81.899556 204.854093 
L 84.600898 205.091592 
L 87.302239 205.32909 
L 90.003581 205.566589 
L 92.704923 205.804087 
L 95.406264 206.041586 
L 98.107606 206.279084 
L 100.808948 206.516583 
L 103.510289 206.754081 
L 106.211631 206.99158 
L 108.912973 207.229078 
L 111.614314 207.466577 
L 114.315656 207.704075 
L 117.016998 207.941574 
L 119.71834 208.179072 
L 122.419681 208.416571 
L 125.121023 208.654069 
L 127.822365 208.891568 
L 130.523706 209.129066 
L 133.225048 209.366565 
L 135.92639 209.604063 
L 138.627731 209.841562 
L 141.329073 210.07906 
L 144.030415 210.316558 
L 146.731757 210.554057 
L 149.433098 210.791555 
L 152.13444 211.029054 
L 154.835782 211.266552 
L 157.537123 211.504051 
L 160.238465 211.741549 
L 162.939807 211.979048 
L 165.641148 212.216546 
L 168.34249 212.454045 
L 171.043832 212.691543 
L 173.745173 212.929042 
L 176.446515 213.16654 
L 179.147857 213.404039 
L 181.849199 213.641537 
L 184.55054 213.879036 
L 187.251882 214.116534 
L 189.953224 214.354033 
L 192.654565 214.591531 
L 195.355907 214.82903 
L 198.057249 215.066528 
L 200.75859 215.304027 
L 203.459932 215.541525 
L 206.161274 215.779024 
L 208.862616 216.016522 
L 211.563957 216.254021 
L 214.265299 216.491519 
L 216.966641 216.729018 
L 219.667982 216.966516 
L 222.369324 217.204015 
L 225.070666 217.441513 
L 227.772007 217.679012 
L 230.473349 217.91651 
L 233.174691 218.154009 
L 235.876032 218.391507 
L 238.577374 218.629006 
L 241.278716 218.866504 
L 243.980058 219.104003 
L 246.681399 219.341501 
L 249.382741 219.579 
L 252.084083 219.816498 
L 254.785424 220.053997 
L 257.486766 220.291495 
L 260.188108 220.528994 
L 262.889449 220.766492 
L 265.590791 221.003991 
L 268.292133 221.241489 
L 270.993475 221.478988 
L 273.694816 221.716486 
L 276.396158 221.953984 
L 279.0975 222.191483 
L 281.798841 222.428981 
L 284.500183 222.66648 
L 287.201525 222.903964 
L 289.902866 191.945596 
L 292.604208 136.454071 
L 295.30555 223.600185 
L 298.006891 223.853972 
L 300.708233 224.091471 
L 303.409575 224.328969 
L 306.110917 224.566468 
L 308.812258 224.803966 
L 311.5136 225.041465 
L 314.214942 225.278963 
L 316.916283 225.516462 
L 319.617625 225.75396 
L 322.318967 225.991459 
L 325.020308 226.228957 
L 327.72165 226.466456 
L 330.422992 226.703954 
L 333.124334 226.941453 
L 335.825675 227.178951 
L 338.527017 227.41645 
L 341.228359 227.653948 
" clip-path="url(#p28f2f1caa5)" style="fill: none; stroke-dasharray: 7.4,3.2; stroke-dashoffset: 0; stroke: #000000; stroke-opacity: 0.95; stroke-width: 2"/>
   </g>
   <g id="patch_3">
    <path d="M 60.423889 242.728 
L 60.423889 25.44 
" style="fill: none; stroke: #000000; stroke-width: 0.8; stroke-linejoin: miter; stroke-linecap: square"/>
   </g>
   <g id="patch_4">
    <path d="M 354.6 242.728 
L 354.6 25.44 
" style="fill: none; stroke: #000000; stroke-width: 0.8; stroke-linejoin: miter; stroke-linecap: square"/>
   </g>
   <g id="patch_5">
    <path d="M 60.423889 242.728 
L 354.6 242.728 
" style="fill: none; stroke: #000000; stroke-width: 0.8; stroke-linejoin: miter; stroke-linecap: square"/>
   </g>
   <g id="patch_6">
    <path d="M 60.423889 25.44 
L 354.6 25.44 
" style="fill: none; stroke: #000000; stroke-width: 0.8; stroke-linejoin: miter; stroke-linecap: square"/>
   </g>
   <g id="text_8">
    <!-- bias=0.0; res_assumed = 0.1 -->
    <g transform="translate(119.127257 19.44) scale(0.12 -0.12)">
     <defs>
      <path id="DejaVuSans-62" d="M 3116 1747 
Q 3116 2381 2855 2742 
Q 2594 3103 2138 3103 
Q 1681 3103 1420 2742 
Q 1159 2381 1159 1747 
Q 1159 1113 1420 752 
Q 1681 391 2138 391 
Q 2594 391 2855 752 
Q 3116 1113 3116 1747 
z
M 1159 2969 
Q 1341 3281 1617 3432 
Q 1894 3584 2278 3584 
Q 2916 3584 3314 3078 
Q 3713 2572 3713 1747 
Q 3713 922 3314 415 
Q 2916 -91 2278 -91 
Q 1894 -91 1617 61 
Q 1341 213 1159 525 
L 1159 0 
L 581 0 
L 581 4863 
L 1159 4863 
L 1159 2969 
z
" transform="scale(0.015625)"/>
      <path id="DejaVuSans-69" d="M 603 3500 
L 1178 3500 
L 1178 0 
L 603 0 
L 603 3500 
z
M 603 4863 
L 1178 4863 
L 1178 4134 
L 603 4134 
L 603 4863 
z
" transform="scale(0.015625)"/>
      <path id="DejaVuSans-61" d="M 2194 1759 
Q 1497 1759 1228 1600 
Q 959 1441 959 1056 
Q 959 750 1161 570 
Q 1363 391 1709 391 
Q 2188 391 2477 730 
Q 2766 1069 2766 1631 
L 2766 1759 
L 2194 1759 
z
M 3341 1997 
L 3341 0 
L 2766 0 
L 2766 531 
Q 2569 213 2275 61 
Q 1981 -91 1556 -91 
Q 1019 -91 701 211 
Q 384 513 384 1019 
Q 384 1609 779 1909 
Q 1175 2209 1959 2209 
L 2766 2209 
L 2766 2266 
Q 2766 2663 2505 2880 
Q 2244 3097 1772 3097 
Q 1472 3097 1187 3025 
Q 903 2953 641 2809 
L 641 3341 
Q 956 3463 1253 3523 
Q 1550 3584 1831 3584 
Q 2591 3584 2966 3190 
Q 3341 2797 3341 1997 
z
" transform="scale(0.015625)"/>
      <path id="DejaVuSans-3d" d="M 678 2906 
L 4684 2906 
L 4684 2381 
L 678 2381 
L 678 2906 
z
M 678 1631 
L 4684 1631 
L 4684 1100 
L 678 1100 
L 678 1631 
z
" transform="scale(0.015625)"/>
      <path id="DejaVuSans-2e" d="M 684 794 
L 1344 794 
L 1344 0 
L 684 0 
L 684 794 
z
" transform="scale(0.015625)"/>
      <path id="DejaVuSans-3b" d="M 750 3309 
L 1409 3309 
L 1409 2516 
L 750 2516 
L 750 3309 
z
M 750 794 
L 1409 794 
L 1409 256 
L 897 -744 
L 494 -744 
L 750 256 
L 750 794 
z
" transform="scale(0.015625)"/>
      <path id="DejaVuSans-72" d="M 2631 2963 
Q 2534 3019 2420 3045 
Q 2306 3072 2169 3072 
Q 1681 3072 1420 2755 
Q 1159 2438 1159 1844 
L 1159 0 
L 581 0 
L 581 3500 
L 1159 3500 
L 1159 2956 
Q 1341 3275 1631 3429 
Q 1922 3584 2338 3584 
Q 2397 3584 2469 3576 
Q 2541 3569 2628 3553 
L 2631 2963 
z
" transform="scale(0.015625)"/>
      <path id="DejaVuSans-5f" d="M 3263 -1063 
L 3263 -1509 
L -63 -1509 
L -63 -1063 
L 3263 -1063 
z
" transform="scale(0.015625)"/>
      <path id="DejaVuSans-75" d="M 544 1381 
L 544 3500 
L 1119 3500 
L 1119 1403 
Q 1119 906 1312 657 
Q 1506 409 1894 409 
Q 2359 409 2629 706 
Q 2900 1003 2900 1516 
L 2900 3500 
L 3475 3500 
L 3475 0 
L 2900 0 
L 2900 538 
Q 2691 219 2414 64 
Q 2138 -91 1772 -91 
Q 1169 -91 856 284 
Q 544 659 544 1381 
z
M 1991 3584 
L 1991 3584 
z
" transform="scale(0.015625)"/>
     </defs>
     <use xlink:href="#DejaVuSans-62"/>
     <use xlink:href="#DejaVuSans-69" x="63.476562"/>
     <use xlink:href="#DejaVuSans-61" x="91.259766"/>
     <use xlink:href="#DejaVuSans-73" x="152.539062"/>
     <use xlink:href="#DejaVuSans-3d" x="204.638672"/>
     <use xlink:href="#DejaVuSans-30" x="288.427734"/>
     <use xlink:href="#DejaVuSans-2e" x="352.050781"/>
     <use xlink:href="#DejaVuSans-30" x="383.837891"/>
     <use xlink:href="#DejaVuSans-3b" x="447.460938"/>
     <use xlink:href="#DejaVuSans-20" x="481.152344"/>
     <use xlink:href="#DejaVuSans-72" x="512.939453"/>
     <use xlink:href="#DejaVuSans-65" x="551.802734"/>
     <use xlink:href="#DejaVuSans-73" x="613.326172"/>
     <use xlink:href="#DejaVuSans-5f" x="665.425781"/>
     <use xlink:href="#DejaVuSans-61" x="715.425781"/>
     <use xlink:href="#DejaVuSans-73" x="776.705078"/>
     <use xlink:href="#DejaVuSans-73" x="828.804688"/>
     <use xlink:href="#DejaVuSans-75" x="880.904297"/>
     <use xlink:href="#DejaVuSans-6d" x="944.283203"/>
     <use xlink:href="#DejaVuSans-65" x="1041.695312"/>
     <use xlink:href="#DejaVuSans-64" x="1103.21875"/>
     <use xlink:href="#DejaVuSans-20" x="1166.695312"/>
     <use xlink:href="#DejaVuSans-3d" x="1198.482422"/>
     <use xlink:href="#DejaVuSans-20" x="1282.271484"/>
     <use xlink:href="#DejaVuSans-30" x="1314.058594"/>
     <use xlink:href="#DejaVuSans-2e" x="1377.681641"/>
     <use xlink:href="#DejaVuSans-31" x="1409.46875"/>
    </g>
   </g>
   <g id="legend_1">
    <g id="patch_7">
     <path d="M 67.423889 77.474375 
L 136.470764 77.474375 
Q 138.470764 77.474375 138.470764 75.474375 
L 138.470764 32.44 
Q 138.470764 30.44 136.470764 30.44 
L 67.423889 30.44 
Q 65.423889 30.44 65.423889 32.44 
L 65.423889 75.474375 
Q 65.423889 77.474375 67.423889 77.474375 
z
" style="fill: #ffffff; opacity: 0.8; stroke: #cccccc; stroke-linejoin: miter"/>
    </g>
    <g id="line2d_58">
     <path d="M 69.423889 38.538438 
L 79.423889 38.538438 
L 89.423889 38.538438 
" style="fill: none; stroke: #c71585; stroke-opacity: 0.95; stroke-width: 2; stroke-linecap: square"/>
    </g>
    <g id="text_9">
     <!-- Best Fit -->
     <g transform="translate(97.423889 42.038438) scale(0.1 -0.1)">
      <defs>
       <path id="DejaVuSans-42" d="M 1259 2228 
L 1259 519 
L 2272 519 
Q 2781 519 3026 730 
Q 3272 941 3272 1375 
Q 3272 1813 3026 2020 
Q 2781 2228 2272 2228 
L 1259 2228 
z
M 1259 4147 
L 1259 2741 
L 2194 2741 
Q 2656 2741 2882 2914 
Q 3109 3088 3109 3444 
Q 3109 3797 2882 3972 
Q 2656 4147 2194 4147 
L 1259 4147 
z
M 628 4666 
L 2241 4666 
Q 2963 4666 3353 4366 
Q 3744 4066 3744 3513 
Q 3744 3084 3544 2831 
Q 3344 2578 2956 2516 
Q 3422 2416 3680 2098 
Q 3938 1781 3938 1306 
Q 3938 681 3513 340 
Q 3088 0 2303 0 
L 628 0 
L 628 4666 
z
" transform="scale(0.015625)"/>
       <path id="DejaVuSans-74" d="M 1172 4494 
L 1172 3500 
L 2356 3500 
L 2356 3053 
L 1172 3053 
L 1172 1153 
Q 1172 725 1289 603 
Q 1406 481 1766 481 
L 2356 481 
L 2356 0 
L 1766 0 
Q 1100 0 847 248 
Q 594 497 594 1153 
L 594 3053 
L 172 3053 
L 172 3500 
L 594 3500 
L 594 4494 
L 1172 4494 
z
" transform="scale(0.015625)"/>
       <path id="DejaVuSans-46" d="M 628 4666 
L 3309 4666 
L 3309 4134 
L 1259 4134 
L 1259 2759 
L 3109 2759 
L 3109 2228 
L 1259 2228 
L 1259 0 
L 628 0 
L 628 4666 
z
" transform="scale(0.015625)"/>
      </defs>
      <use xlink:href="#DejaVuSans-42"/>
      <use xlink:href="#DejaVuSans-65" x="68.603516"/>
      <use xlink:href="#DejaVuSans-73" x="130.126953"/>
      <use xlink:href="#DejaVuSans-74" x="182.226562"/>
      <use xlink:href="#DejaVuSans-20" x="221.435547"/>
      <use xlink:href="#DejaVuSans-46" x="253.222656"/>
      <use xlink:href="#DejaVuSans-69" x="303.492188"/>
      <use xlink:href="#DejaVuSans-74" x="331.275391"/>
     </g>
    </g>
    <g id="patch_8">
     <path d="M 69.423889 56.716563 
L 89.423889 56.716563 
L 89.423889 49.716563 
L 69.423889 49.716563 
z
" style="fill: #db7093; fill-opacity: 0.5"/>
    </g>
    <g id="text_10">
     <!-- 1$\,\sigma_{stat}$ -->
     <g transform="translate(97.423889 56.716563) scale(0.1 -0.1)">
      <defs>
       <path id="DejaVuSans-Oblique-3c3" d="M 2219 3044 
Q 1744 3044 1422 2700 
Q 1081 2341 969 1747 
Q 844 1119 1044 756 
Q 1241 397 1706 397 
Q 2166 397 2503 759 
Q 2844 1122 2966 1747 
Q 3075 2319 2881 2700 
Q 2700 3044 2219 3044 
z
M 2309 3503 
L 4219 3500 
L 4106 2925 
L 3463 2925 
Q 3706 2438 3575 1747 
Q 3406 888 2884 400 
Q 2359 -91 1609 -91 
Q 856 -91 525 400 
Q 194 888 363 1747 
Q 528 2609 1050 3097 
Q 1484 3503 2309 3503 
z
" transform="scale(0.015625)"/>
       <path id="DejaVuSans-Oblique-73" d="M 3200 3397 
L 3091 2853 
Q 2863 2978 2609 3040 
Q 2356 3103 2088 3103 
Q 1634 3103 1373 2948 
Q 1113 2794 1113 2528 
Q 1113 2219 1719 2053 
Q 1766 2041 1788 2034 
L 1972 1978 
Q 2547 1819 2739 1644 
Q 2931 1469 2931 1166 
Q 2931 609 2489 259 
Q 2047 -91 1331 -91 
Q 1053 -91 747 -37 
Q 441 16 72 128 
L 184 722 
Q 500 559 806 475 
Q 1113 391 1394 391 
Q 1816 391 2080 572 
Q 2344 753 2344 1031 
Q 2344 1331 1650 1516 
L 1591 1531 
L 1394 1581 
Q 956 1697 753 1886 
Q 550 2075 550 2369 
Q 550 2928 970 3256 
Q 1391 3584 2113 3584 
Q 2397 3584 2667 3537 
Q 2938 3491 3200 3397 
z
" transform="scale(0.015625)"/>
       <path id="DejaVuSans-Oblique-74" d="M 2706 3500 
L 2619 3053 
L 1472 3053 
L 1100 1153 
Q 1081 1047 1072 975 
Q 1063 903 1063 863 
Q 1063 663 1183 572 
Q 1303 481 1569 481 
L 2150 481 
L 2053 0 
L 1503 0 
Q 991 0 739 200 
Q 488 400 488 806 
Q 488 878 497 964 
Q 506 1050 525 1153 
L 897 3053 
L 409 3053 
L 500 3500 
L 978 3500 
L 1172 4494 
L 1747 4494 
L 1556 3500 
L 2706 3500 
z
" transform="scale(0.015625)"/>
       <path id="DejaVuSans-Oblique-61" d="M 3438 1997 
L 3047 0 
L 2472 0 
L 2578 531 
Q 2325 219 2001 64 
Q 1678 -91 1281 -91 
Q 834 -91 548 182 
Q 263 456 263 884 
Q 263 1497 752 1853 
Q 1241 2209 2100 2209 
L 2900 2209 
L 2931 2363 
Q 2938 2388 2941 2417 
Q 2944 2447 2944 2509 
Q 2944 2788 2717 2942 
Q 2491 3097 2081 3097 
Q 1800 3097 1504 3025 
Q 1209 2953 897 2809 
L 997 3341 
Q 1322 3463 1633 3523 
Q 1944 3584 2234 3584 
Q 2853 3584 3176 3315 
Q 3500 3047 3500 2534 
Q 3500 2431 3484 2292 
Q 3469 2153 3438 1997 
z
M 2816 1759 
L 2241 1759 
Q 1534 1759 1195 1570 
Q 856 1381 856 984 
Q 856 709 1029 553 
Q 1203 397 1509 397 
Q 1978 397 2328 733 
Q 2678 1069 2791 1631 
L 2816 1759 
z
" transform="scale(0.015625)"/>
      </defs>
      <use xlink:href="#DejaVuSans-31" transform="translate(0 0.09375)"/>
      <use xlink:href="#DejaVuSans-Oblique-3c3" transform="translate(79.858723 0.09375)"/>
      <use xlink:href="#DejaVuSans-Oblique-73" transform="translate(143.237629 -16.3125) scale(0.7)"/>
      <use xlink:href="#DejaVuSans-Oblique-74" transform="translate(179.707356 -16.3125) scale(0.7)"/>
      <use xlink:href="#DejaVuSans-Oblique-61" transform="translate(207.153645 -16.3125) scale(0.7)"/>
      <use xlink:href="#DejaVuSans-Oblique-74" transform="translate(250.049153 -16.3125) scale(0.7)"/>
     </g>
    </g>
    <g id="line2d_59">
     <path d="M 69.423889 67.894688 
L 79.423889 67.894688 
L 89.423889 67.894688 
" style="fill: none; stroke-dasharray: 7.4,3.2; stroke-dashoffset: 0; stroke: #000000; stroke-opacity: 0.95; stroke-width: 2"/>
    </g>
    <g id="text_11">
     <!-- Input -->
     <g transform="translate(97.423889 71.394688) scale(0.1 -0.1)">
      <defs>
       <path id="DejaVuSans-49" d="M 628 4666 
L 1259 4666 
L 1259 0 
L 628 0 
L 628 4666 
z
" transform="scale(0.015625)"/>
       <path id="DejaVuSans-70" d="M 1159 525 
L 1159 -1331 
L 581 -1331 
L 581 3500 
L 1159 3500 
L 1159 2969 
Q 1341 3281 1617 3432 
Q 1894 3584 2278 3584 
Q 2916 3584 3314 3078 
Q 3713 2572 3713 1747 
Q 3713 922 3314 415 
Q 2916 -91 2278 -91 
Q 1894 -91 1617 61 
Q 1341 213 1159 525 
z
M 3116 1747 
Q 3116 2381 2855 2742 
Q 2594 3103 2138 3103 
Q 1681 3103 1420 2742 
Q 1159 2381 1159 1747 
Q 1159 1113 1420 752 
Q 1681 391 2138 391 
Q 2594 391 2855 752 
Q 3116 1113 3116 1747 
z
" transform="scale(0.015625)"/>
      </defs>
      <use xlink:href="#DejaVuSans-49"/>
      <use xlink:href="#DejaVuSans-6e" x="29.492188"/>
      <use xlink:href="#DejaVuSans-70" x="92.871094"/>
      <use xlink:href="#DejaVuSans-75" x="156.347656"/>
      <use xlink:href="#DejaVuSans-74" x="219.726562"/>
     </g>
    </g>
   </g>
  </g>
  <g id="axes_2">
   <g id="patch_9">
    <path d="M 415.023889 242.728 
L 709.2 242.728 
L 709.2 25.44 
L 415.023889 25.44 
z
" style="fill: #ffffff"/>
   </g>
   <g id="PolyCollection_2">
    <path d="M 428.395531 198.709998 
L 428.395531 210.755213 
L 431.096872 210.938324 
L 433.798214 211.121704 
L 436.499556 211.305353 
L 439.200898 211.489271 
L 441.902239 211.673461 
L 444.603581 211.857923 
L 447.304923 212.042657 
L 450.006264 212.227666 
L 452.707606 212.412951 
L 455.408948 212.598512 
L 458.110289 212.784351 
L 460.811631 212.97047 
L 463.512973 213.15687 
L 466.214314 213.343553 
L 468.915656 213.53052 
L 471.616998 213.717773 
L 474.31834 213.905314 
L 477.019681 214.093145 
L 479.721023 214.281268 
L 482.422365 214.469684 
L 485.123706 214.658397 
L 487.825048 214.847408 
L 490.52639 215.036719 
L 493.227731 215.226334 
L 495.929073 215.416254 
L 498.630415 215.606483 
L 501.331757 215.797022 
L 504.033098 215.987876 
L 506.73444 216.179046 
L 509.435782 216.370537 
L 512.137123 216.56235 
L 514.838465 216.754491 
L 517.539807 216.946961 
L 520.241148 217.139764 
L 522.94249 217.332905 
L 525.643832 217.526387 
L 528.345173 217.720214 
L 531.046515 217.91439 
L 533.747857 218.108919 
L 536.449199 218.303806 
L 539.15054 218.499055 
L 541.851882 218.694671 
L 544.553224 218.890658 
L 547.254565 219.087023 
L 549.955907 219.283769 
L 552.657249 219.480902 
L 555.35859 219.678428 
L 558.059932 219.876352 
L 560.761274 220.07468 
L 563.462616 220.273418 
L 566.163957 220.472572 
L 568.865299 220.672149 
L 571.566641 220.872154 
L 574.267982 221.072596 
L 576.969324 221.273479 
L 579.670666 221.474813 
L 582.372007 221.676603 
L 585.073349 221.878858 
L 587.774691 222.081584 
L 590.476032 222.28479 
L 593.177374 222.488484 
L 595.878716 222.692674 
L 598.580058 222.897368 
L 601.281399 223.102575 
L 603.982741 223.308303 
L 606.684083 223.514562 
L 609.385424 223.721361 
L 612.086766 223.928708 
L 614.788108 224.136614 
L 617.489449 224.345088 
L 620.190791 224.554139 
L 622.892133 224.763778 
L 625.593475 224.974015 
L 628.294816 225.184859 
L 630.996158 225.396321 
L 633.6975 225.608412 
L 636.398841 225.821141 
L 639.100183 226.03452 
L 641.801525 226.232323 
L 644.502866 49041.094873 
L 647.204208 49041.094873 
L 649.90555 232.851273 
L 652.606891 227.111527 
L 655.308233 227.329025 
L 658.009575 227.547247 
L 660.710917 227.766204 
L 663.412258 227.985905 
L 666.1136 228.206361 
L 668.814942 228.427583 
L 671.516283 228.649579 
L 674.217625 228.87236 
L 676.918967 229.095935 
L 679.620308 229.320313 
L 682.32165 229.545504 
L 685.022992 229.771516 
L 687.724334 229.998357 
L 690.425675 230.226034 
L 693.127017 230.454556 
L 695.828359 230.68393 
L 695.828359 224.915904 
L 695.828359 224.915904 
L 693.127017 224.668707 
L 690.425675 224.420866 
L 687.724334 224.172389 
L 685.022992 223.923283 
L 682.32165 223.673557 
L 679.620308 223.423218 
L 676.918967 223.172275 
L 674.217625 222.920738 
L 671.516283 222.668616 
L 668.814942 222.415918 
L 666.1136 222.162654 
L 663.412258 221.908834 
L 660.710917 221.654468 
L 658.009575 221.399568 
L 655.308233 221.144142 
L 652.606891 220.888203 
L 649.90555 217.048454 
L 647.204208 35.316727 
L 644.502866 71.998077 
L 641.801525 219.871536 
L 639.100183 219.601174 
L 636.398841 219.342377 
L 633.6975 219.083142 
L 630.996158 218.82348 
L 628.294816 218.5634 
L 625.593475 218.302915 
L 622.892133 218.042033 
L 620.190791 217.780766 
L 617.489449 217.519124 
L 614.788108 217.257117 
L 612.086766 216.994755 
L 609.385424 216.732048 
L 606.684083 216.469005 
L 603.982741 216.205637 
L 601.281399 215.941951 
L 598.580058 215.677959 
L 595.878716 215.413668 
L 593.177374 215.149088 
L 590.476032 214.884227 
L 587.774691 214.619093 
L 585.073349 214.353696 
L 582.372007 214.088043 
L 579.670666 213.822142 
L 576.969324 213.556 
L 574.267982 213.289627 
L 571.566641 213.023028 
L 568.865299 212.756212 
L 566.163957 212.489184 
L 563.462616 212.221953 
L 560.761274 211.954524 
L 558.059932 211.686905 
L 555.35859 211.419102 
L 552.657249 211.15112 
L 549.955907 210.882967 
L 547.254565 210.614647 
L 544.553224 210.346167 
L 541.851882 210.077532 
L 539.15054 209.808747 
L 536.449199 209.539818 
L 533.747857 209.270751 
L 531.046515 209.001549 
L 528.345173 208.732218 
L 525.643832 208.462762 
L 522.94249 208.193186 
L 520.241148 207.923495 
L 517.539807 207.653693 
L 514.838465 207.383783 
L 512.137123 207.113771 
L 509.435782 206.84366 
L 506.73444 206.573454 
L 504.033098 206.303156 
L 501.331757 206.032771 
L 498.630415 205.762301 
L 495.929073 205.491751 
L 493.227731 205.221123 
L 490.52639 204.950421 
L 487.825048 204.679648 
L 485.123706 204.408807 
L 482.422365 204.137901 
L 479.721023 203.866933 
L 477.019681 203.595905 
L 474.31834 203.324821 
L 471.616998 203.053683 
L 468.915656 202.782493 
L 466.214314 202.511254 
L 463.512973 202.239969 
L 460.811631 201.968639 
L 458.110289 201.697267 
L 455.408948 201.425856 
L 452.707606 201.154407 
L 450.006264 200.882923 
L 447.304923 200.611405 
L 444.603581 200.339855 
L 441.902239 200.068276 
L 439.200898 199.796669 
L 436.499556 199.525036 
L 433.798214 199.253379 
L 431.096872 198.981699 
L 428.395531 198.709998 
z
" clip-path="url(#p5a4d1f0d14)" style="fill: #6495ed; fill-opacity: 0.6"/>
   </g>
   <g id="matplotlib.axis_3">
    <g id="xtick_15">
     <g id="line2d_60">
      <g>
       <use xlink:href="#m1d38c3d6f9" x="427.04486" y="242.728" style="stroke: #000000; stroke-width: 0.8"/>
      </g>
     </g>
     <g id="text_12">
      <!-- $\mathdefault{10^{-1}}$ -->
      <g transform="translate(415.29486 257.326437) scale(0.1 -0.1)">
       <use xlink:href="#DejaVuSans-31" transform="translate(0 0.684375)"/>
       <use xlink:href="#DejaVuSans-30" transform="translate(63.623047 0.684375)"/>
       <use xlink:href="#DejaVuSans-2212" transform="translate(128.203125 38.965625) scale(0.7)"/>
       <use xlink:href="#DejaVuSans-31" transform="translate(186.855469 38.965625) scale(0.7)"/>
      </g>
     </g>
    </g>
    <g id="xtick_16">
     <g id="line2d_61">
      <g>
       <use xlink:href="#m1d38c3d6f9" x="595.661623" y="242.728" style="stroke: #000000; stroke-width: 0.8"/>
      </g>
     </g>
     <g id="text_13">
      <!-- $\mathdefault{10^{0}}$ -->
      <g transform="translate(586.861623 257.326437) scale(0.1 -0.1)">
       <use xlink:href="#DejaVuSans-31" transform="translate(0 0.765625)"/>
       <use xlink:href="#DejaVuSans-30" transform="translate(63.623047 0.765625)"/>
       <use xlink:href="#DejaVuSans-30" transform="translate(128.203125 39.046875) scale(0.7)"/>
      </g>
     </g>
    </g>
    <g id="xtick_17">
     <g id="line2d_62">
      <g>
       <use xlink:href="#m3d7046d461" x="419.32938" y="242.728" style="stroke: #000000; stroke-width: 0.6"/>
      </g>
     </g>
    </g>
    <g id="xtick_18">
     <g id="line2d_63">
      <g>
       <use xlink:href="#m3d7046d461" x="477.803563" y="242.728" style="stroke: #000000; stroke-width: 0.6"/>
      </g>
     </g>
    </g>
    <g id="xtick_19">
     <g id="line2d_64">
      <g>
       <use xlink:href="#m3d7046d461" x="507.495501" y="242.728" style="stroke: #000000; stroke-width: 0.6"/>
      </g>
     </g>
    </g>
    <g id="xtick_20">
     <g id="line2d_65">
      <g>
       <use xlink:href="#m3d7046d461" x="528.562267" y="242.728" style="stroke: #000000; stroke-width: 0.6"/>
      </g>
     </g>
    </g>
    <g id="xtick_21">
     <g id="line2d_66">
      <g>
       <use xlink:href="#m3d7046d461" x="544.902919" y="242.728" style="stroke: #000000; stroke-width: 0.6"/>
      </g>
     </g>
    </g>
    <g id="xtick_22">
     <g id="line2d_67">
      <g>
       <use xlink:href="#m3d7046d461" x="558.254205" y="242.728" style="stroke: #000000; stroke-width: 0.6"/>
      </g>
     </g>
    </g>
    <g id="xtick_23">
     <g id="line2d_68">
      <g>
       <use xlink:href="#m3d7046d461" x="569.542556" y="242.728" style="stroke: #000000; stroke-width: 0.6"/>
      </g>
     </g>
    </g>
    <g id="xtick_24">
     <g id="line2d_69">
      <g>
       <use xlink:href="#m3d7046d461" x="579.32097" y="242.728" style="stroke: #000000; stroke-width: 0.6"/>
      </g>
     </g>
    </g>
    <g id="xtick_25">
     <g id="line2d_70">
      <g>
       <use xlink:href="#m3d7046d461" x="587.946143" y="242.728" style="stroke: #000000; stroke-width: 0.6"/>
      </g>
     </g>
    </g>
    <g id="xtick_26">
     <g id="line2d_71">
      <g>
       <use xlink:href="#m3d7046d461" x="646.420326" y="242.728" style="stroke: #000000; stroke-width: 0.6"/>
      </g>
     </g>
    </g>
    <g id="xtick_27">
     <g id="line2d_72">
      <g>
       <use xlink:href="#m3d7046d461" x="676.112264" y="242.728" style="stroke: #000000; stroke-width: 0.6"/>
      </g>
     </g>
    </g>
    <g id="xtick_28">
     <g id="line2d_73">
      <g>
       <use xlink:href="#m3d7046d461" x="697.179029" y="242.728" style="stroke: #000000; stroke-width: 0.6"/>
      </g>
     </g>
    </g>
    <g id="text_14">
     <!-- Energy [TeV] -->
     <g transform="translate(530.414288 271.004562) scale(0.1 -0.1)">
      <defs>
       <path id="DejaVuSans-45" d="M 628 4666 
L 3578 4666 
L 3578 4134 
L 1259 4134 
L 1259 2753 
L 3481 2753 
L 3481 2222 
L 1259 2222 
L 1259 531 
L 3634 531 
L 3634 0 
L 628 0 
L 628 4666 
z
" transform="scale(0.015625)"/>
       <path id="DejaVuSans-67" d="M 2906 1791 
Q 2906 2416 2648 2759 
Q 2391 3103 1925 3103 
Q 1463 3103 1205 2759 
Q 947 2416 947 1791 
Q 947 1169 1205 825 
Q 1463 481 1925 481 
Q 2391 481 2648 825 
Q 2906 1169 2906 1791 
z
M 3481 434 
Q 3481 -459 3084 -895 
Q 2688 -1331 1869 -1331 
Q 1566 -1331 1297 -1286 
Q 1028 -1241 775 -1147 
L 775 -588 
Q 1028 -725 1275 -790 
Q 1522 -856 1778 -856 
Q 2344 -856 2625 -561 
Q 2906 -266 2906 331 
L 2906 616 
Q 2728 306 2450 153 
Q 2172 0 1784 0 
Q 1141 0 747 490 
Q 353 981 353 1791 
Q 353 2603 747 3093 
Q 1141 3584 1784 3584 
Q 2172 3584 2450 3431 
Q 2728 3278 2906 2969 
L 2906 3500 
L 3481 3500 
L 3481 434 
z
" transform="scale(0.015625)"/>
       <path id="DejaVuSans-79" d="M 2059 -325 
Q 1816 -950 1584 -1140 
Q 1353 -1331 966 -1331 
L 506 -1331 
L 506 -850 
L 844 -850 
Q 1081 -850 1212 -737 
Q 1344 -625 1503 -206 
L 1606 56 
L 191 3500 
L 800 3500 
L 1894 763 
L 2988 3500 
L 3597 3500 
L 2059 -325 
z
" transform="scale(0.015625)"/>
      </defs>
      <use xlink:href="#DejaVuSans-45"/>
      <use xlink:href="#DejaVuSans-6e" x="63.183594"/>
      <use xlink:href="#DejaVuSans-65" x="126.5625"/>
      <use xlink:href="#DejaVuSans-72" x="188.085938"/>
      <use xlink:href="#DejaVuSans-67" x="227.449219"/>
      <use xlink:href="#DejaVuSans-79" x="290.925781"/>
      <use xlink:href="#DejaVuSans-20" x="350.105469"/>
      <use xlink:href="#DejaVuSans-5b" x="381.892578"/>
      <use xlink:href="#DejaVuSans-54" x="420.90625"/>
      <use xlink:href="#DejaVuSans-65" x="464.990234"/>
      <use xlink:href="#DejaVuSans-56" x="526.513672"/>
      <use xlink:href="#DejaVuSans-5d" x="594.921875"/>
     </g>
    </g>
   </g>
   <g id="matplotlib.axis_4">
    <g id="ytick_42">
     <g id="line2d_74">
      <g>
       <use xlink:href="#mc7b65ac114" x="415.023889" y="218.847418" style="stroke: #000000; stroke-width: 0.8"/>
      </g>
     </g>
     <g id="text_15">
      <!-- $\mathdefault{10^{-12}}$ -->
      <g transform="translate(380.123889 222.646636) scale(0.1 -0.1)">
       <use xlink:href="#DejaVuSans-31" transform="translate(0 0.765625)"/>
       <use xlink:href="#DejaVuSans-30" transform="translate(63.623047 0.765625)"/>
       <use xlink:href="#DejaVuSans-2212" transform="translate(128.203125 39.046875) scale(0.7)"/>
       <use xlink:href="#DejaVuSans-31" transform="translate(186.855469 39.046875) scale(0.7)"/>
       <use xlink:href="#DejaVuSans-32" transform="translate(231.391602 39.046875) scale(0.7)"/>
      </g>
     </g>
    </g>
    <g id="ytick_43">
     <g id="line2d_75">
      <g>
       <use xlink:href="#mc7b65ac114" x="415.023889" y="169.432187" style="stroke: #000000; stroke-width: 0.8"/>
      </g>
     </g>
     <g id="text_16">
      <!-- $\mathdefault{10^{-11}}$ -->
      <g transform="translate(380.123889 173.231406) scale(0.1 -0.1)">
       <use xlink:href="#DejaVuSans-31" transform="translate(0 0.684375)"/>
       <use xlink:href="#DejaVuSans-30" transform="translate(63.623047 0.684375)"/>
       <use xlink:href="#DejaVuSans-2212" transform="translate(128.203125 38.965625) scale(0.7)"/>
       <use xlink:href="#DejaVuSans-31" transform="translate(186.855469 38.965625) scale(0.7)"/>
       <use xlink:href="#DejaVuSans-31" transform="translate(231.391602 38.965625) scale(0.7)"/>
      </g>
     </g>
    </g>
    <g id="ytick_44">
     <g id="line2d_76">
      <g>
       <use xlink:href="#mc7b65ac114" x="415.023889" y="120.016957" style="stroke: #000000; stroke-width: 0.8"/>
      </g>
     </g>
     <g id="text_17">
      <!-- $\mathdefault{10^{-10}}$ -->
      <g transform="translate(380.123889 123.816176) scale(0.1 -0.1)">
       <use xlink:href="#DejaVuSans-31" transform="translate(0 0.765625)"/>
       <use xlink:href="#DejaVuSans-30" transform="translate(63.623047 0.765625)"/>
       <use xlink:href="#DejaVuSans-2212" transform="translate(128.203125 39.046875) scale(0.7)"/>
       <use xlink:href="#DejaVuSans-31" transform="translate(186.855469 39.046875) scale(0.7)"/>
       <use xlink:href="#DejaVuSans-30" transform="translate(231.391602 39.046875) scale(0.7)"/>
      </g>
     </g>
    </g>
    <g id="ytick_45">
     <g id="line2d_77">
      <g>
       <use xlink:href="#mc7b65ac114" x="415.023889" y="70.601727" style="stroke: #000000; stroke-width: 0.8"/>
      </g>
     </g>
     <g id="text_18">
      <!-- $\mathdefault{10^{-9}}$ -->
      <g transform="translate(384.523889 74.400946) scale(0.1 -0.1)">
       <use xlink:href="#DejaVuSans-31" transform="translate(0 0.765625)"/>
       <use xlink:href="#DejaVuSans-30" transform="translate(63.623047 0.765625)"/>
       <use xlink:href="#DejaVuSans-2212" transform="translate(128.203125 39.046875) scale(0.7)"/>
       <use xlink:href="#DejaVuSans-39" transform="translate(186.855469 39.046875) scale(0.7)"/>
      </g>
     </g>
    </g>
    <g id="ytick_46">
     <g id="line2d_78">
      <g>
       <use xlink:href="#m988d8cd286" x="415.023889" y="238.511715" style="stroke: #000000; stroke-width: 0.6"/>
      </g>
     </g>
    </g>
    <g id="ytick_47">
     <g id="line2d_79">
      <g>
       <use xlink:href="#m988d8cd286" x="415.023889" y="233.722884" style="stroke: #000000; stroke-width: 0.6"/>
      </g>
     </g>
    </g>
    <g id="ytick_48">
     <g id="line2d_80">
      <g>
       <use xlink:href="#m988d8cd286" x="415.023889" y="229.810125" style="stroke: #000000; stroke-width: 0.6"/>
      </g>
     </g>
    </g>
    <g id="ytick_49">
     <g id="line2d_81">
      <g>
       <use xlink:href="#m988d8cd286" x="415.023889" y="226.501934" style="stroke: #000000; stroke-width: 0.6"/>
      </g>
     </g>
    </g>
    <g id="ytick_50">
     <g id="line2d_82">
      <g>
       <use xlink:href="#m988d8cd286" x="415.023889" y="223.636248" style="stroke: #000000; stroke-width: 0.6"/>
      </g>
     </g>
    </g>
    <g id="ytick_51">
     <g id="line2d_83">
      <g>
       <use xlink:href="#m988d8cd286" x="415.023889" y="221.108534" style="stroke: #000000; stroke-width: 0.6"/>
      </g>
     </g>
    </g>
    <g id="ytick_52">
     <g id="line2d_84">
      <g>
       <use xlink:href="#m988d8cd286" x="415.023889" y="203.971951" style="stroke: #000000; stroke-width: 0.6"/>
      </g>
     </g>
    </g>
    <g id="ytick_53">
     <g id="line2d_85">
      <g>
       <use xlink:href="#m988d8cd286" x="415.023889" y="195.270361" style="stroke: #000000; stroke-width: 0.6"/>
      </g>
     </g>
    </g>
    <g id="ytick_54">
     <g id="line2d_86">
      <g>
       <use xlink:href="#m988d8cd286" x="415.023889" y="189.096484" style="stroke: #000000; stroke-width: 0.6"/>
      </g>
     </g>
    </g>
    <g id="ytick_55">
     <g id="line2d_87">
      <g>
       <use xlink:href="#m988d8cd286" x="415.023889" y="184.307654" style="stroke: #000000; stroke-width: 0.6"/>
      </g>
     </g>
    </g>
    <g id="ytick_56">
     <g id="line2d_88">
      <g>
       <use xlink:href="#m988d8cd286" x="415.023889" y="180.394894" style="stroke: #000000; stroke-width: 0.6"/>
      </g>
     </g>
    </g>
    <g id="ytick_57">
     <g id="line2d_89">
      <g>
       <use xlink:href="#m988d8cd286" x="415.023889" y="177.086703" style="stroke: #000000; stroke-width: 0.6"/>
      </g>
     </g>
    </g>
    <g id="ytick_58">
     <g id="line2d_90">
      <g>
       <use xlink:href="#m988d8cd286" x="415.023889" y="174.221018" style="stroke: #000000; stroke-width: 0.6"/>
      </g>
     </g>
    </g>
    <g id="ytick_59">
     <g id="line2d_91">
      <g>
       <use xlink:href="#m988d8cd286" x="415.023889" y="171.693304" style="stroke: #000000; stroke-width: 0.6"/>
      </g>
     </g>
    </g>
    <g id="ytick_60">
     <g id="line2d_92">
      <g>
       <use xlink:href="#m988d8cd286" x="415.023889" y="154.556721" style="stroke: #000000; stroke-width: 0.6"/>
      </g>
     </g>
    </g>
    <g id="ytick_61">
     <g id="line2d_93">
      <g>
       <use xlink:href="#m988d8cd286" x="415.023889" y="145.855131" style="stroke: #000000; stroke-width: 0.6"/>
      </g>
     </g>
    </g>
    <g id="ytick_62">
     <g id="line2d_94">
      <g>
       <use xlink:href="#m988d8cd286" x="415.023889" y="139.681254" style="stroke: #000000; stroke-width: 0.6"/>
      </g>
     </g>
    </g>
    <g id="ytick_63">
     <g id="line2d_95">
      <g>
       <use xlink:href="#m988d8cd286" x="415.023889" y="134.892424" style="stroke: #000000; stroke-width: 0.6"/>
      </g>
     </g>
    </g>
    <g id="ytick_64">
     <g id="line2d_96">
      <g>
       <use xlink:href="#m988d8cd286" x="415.023889" y="130.979664" style="stroke: #000000; stroke-width: 0.6"/>
      </g>
     </g>
    </g>
    <g id="ytick_65">
     <g id="line2d_97">
      <g>
       <use xlink:href="#m988d8cd286" x="415.023889" y="127.671473" style="stroke: #000000; stroke-width: 0.6"/>
      </g>
     </g>
    </g>
    <g id="ytick_66">
     <g id="line2d_98">
      <g>
       <use xlink:href="#m988d8cd286" x="415.023889" y="124.805788" style="stroke: #000000; stroke-width: 0.6"/>
      </g>
     </g>
    </g>
    <g id="ytick_67">
     <g id="line2d_99">
      <g>
       <use xlink:href="#m988d8cd286" x="415.023889" y="122.278074" style="stroke: #000000; stroke-width: 0.6"/>
      </g>
     </g>
    </g>
    <g id="ytick_68">
     <g id="line2d_100">
      <g>
       <use xlink:href="#m988d8cd286" x="415.023889" y="105.141491" style="stroke: #000000; stroke-width: 0.6"/>
      </g>
     </g>
    </g>
    <g id="ytick_69">
     <g id="line2d_101">
      <g>
       <use xlink:href="#m988d8cd286" x="415.023889" y="96.4399" style="stroke: #000000; stroke-width: 0.6"/>
      </g>
     </g>
    </g>
    <g id="ytick_70">
     <g id="line2d_102">
      <g>
       <use xlink:href="#m988d8cd286" x="415.023889" y="90.266024" style="stroke: #000000; stroke-width: 0.6"/>
      </g>
     </g>
    </g>
    <g id="ytick_71">
     <g id="line2d_103">
      <g>
       <use xlink:href="#m988d8cd286" x="415.023889" y="85.477193" style="stroke: #000000; stroke-width: 0.6"/>
      </g>
     </g>
    </g>
    <g id="ytick_72">
     <g id="line2d_104">
      <g>
       <use xlink:href="#m988d8cd286" x="415.023889" y="81.564434" style="stroke: #000000; stroke-width: 0.6"/>
      </g>
     </g>
    </g>
    <g id="ytick_73">
     <g id="line2d_105">
      <g>
       <use xlink:href="#m988d8cd286" x="415.023889" y="78.256243" style="stroke: #000000; stroke-width: 0.6"/>
      </g>
     </g>
    </g>
    <g id="ytick_74">
     <g id="line2d_106">
      <g>
       <use xlink:href="#m988d8cd286" x="415.023889" y="75.390558" style="stroke: #000000; stroke-width: 0.6"/>
      </g>
     </g>
    </g>
    <g id="ytick_75">
     <g id="line2d_107">
      <g>
       <use xlink:href="#m988d8cd286" x="415.023889" y="72.862844" style="stroke: #000000; stroke-width: 0.6"/>
      </g>
     </g>
    </g>
    <g id="ytick_76">
     <g id="line2d_108">
      <g>
       <use xlink:href="#m988d8cd286" x="415.023889" y="55.72626" style="stroke: #000000; stroke-width: 0.6"/>
      </g>
     </g>
    </g>
    <g id="ytick_77">
     <g id="line2d_109">
      <g>
       <use xlink:href="#m988d8cd286" x="415.023889" y="47.02467" style="stroke: #000000; stroke-width: 0.6"/>
      </g>
     </g>
    </g>
    <g id="ytick_78">
     <g id="line2d_110">
      <g>
       <use xlink:href="#m988d8cd286" x="415.023889" y="40.850794" style="stroke: #000000; stroke-width: 0.6"/>
      </g>
     </g>
    </g>
    <g id="ytick_79">
     <g id="line2d_111">
      <g>
       <use xlink:href="#m988d8cd286" x="415.023889" y="36.061963" style="stroke: #000000; stroke-width: 0.6"/>
      </g>
     </g>
    </g>
    <g id="ytick_80">
     <g id="line2d_112">
      <g>
       <use xlink:href="#m988d8cd286" x="415.023889" y="32.149204" style="stroke: #000000; stroke-width: 0.6"/>
      </g>
     </g>
    </g>
    <g id="ytick_81">
     <g id="line2d_113">
      <g>
       <use xlink:href="#m988d8cd286" x="415.023889" y="28.841013" style="stroke: #000000; stroke-width: 0.6"/>
      </g>
     </g>
    </g>
    <g id="ytick_82">
     <g id="line2d_114">
      <g>
       <use xlink:href="#m988d8cd286" x="415.023889" y="25.975327" style="stroke: #000000; stroke-width: 0.6"/>
      </g>
     </g>
    </g>
    <g id="text_19">
     <!-- e2 * dnde [TeV / (cm2 s)] -->
     <g transform="translate(374.044202 196.563688) rotate(-90) scale(0.1 -0.1)">
      <use xlink:href="#DejaVuSans-65"/>
      <use xlink:href="#DejaVuSans-32" x="61.523438"/>
      <use xlink:href="#DejaVuSans-20" x="125.146484"/>
      <use xlink:href="#DejaVuSans-2a" x="156.933594"/>
      <use xlink:href="#DejaVuSans-20" x="206.933594"/>
      <use xlink:href="#DejaVuSans-64" x="238.720703"/>
      <use xlink:href="#DejaVuSans-6e" x="302.197266"/>
      <use xlink:href="#DejaVuSans-64" x="365.576172"/>
      <use xlink:href="#DejaVuSans-65" x="429.052734"/>
      <use xlink:href="#DejaVuSans-20" x="490.576172"/>
      <use xlink:href="#DejaVuSans-5b" x="522.363281"/>
      <use xlink:href="#DejaVuSans-54" x="561.376953"/>
      <use xlink:href="#DejaVuSans-65" x="605.460938"/>
      <use xlink:href="#DejaVuSans-56" x="666.984375"/>
      <use xlink:href="#DejaVuSans-20" x="735.392578"/>
      <use xlink:href="#DejaVuSans-2f" x="767.179688"/>
      <use xlink:href="#DejaVuSans-20" x="800.871094"/>
      <use xlink:href="#DejaVuSans-28" x="832.658203"/>
      <use xlink:href="#DejaVuSans-63" x="871.671875"/>
      <use xlink:href="#DejaVuSans-6d" x="926.652344"/>
      <use xlink:href="#DejaVuSans-32" x="1024.064453"/>
      <use xlink:href="#DejaVuSans-20" x="1087.6875"/>
      <use xlink:href="#DejaVuSans-73" x="1119.474609"/>
      <use xlink:href="#DejaVuSans-29" x="1171.574219"/>
      <use xlink:href="#DejaVuSans-5d" x="1210.587891"/>
     </g>
    </g>
   </g>
   <g id="line2d_115">
    <path d="M 428.395531 203.898398 
L 431.096872 204.137876 
L 433.798214 204.377354 
L 436.499556 204.616831 
L 439.200898 204.856309 
L 441.902239 205.095787 
L 444.603581 205.335265 
L 447.304923 205.574743 
L 450.006264 205.814221 
L 452.707606 206.053699 
L 455.408948 206.293177 
L 458.110289 206.532655 
L 460.811631 206.772133 
L 463.512973 207.011611 
L 466.214314 207.251089 
L 468.915656 207.490567 
L 471.616998 207.730045 
L 474.31834 207.969523 
L 477.019681 208.209001 
L 479.721023 208.448478 
L 482.422365 208.687956 
L 485.123706 208.927434 
L 487.825048 209.166912 
L 490.52639 209.40639 
L 493.227731 209.645868 
L 495.929073 209.885346 
L 498.630415 210.124824 
L 501.331757 210.364302 
L 504.033098 210.60378 
L 506.73444 210.843258 
L 509.435782 211.082736 
L 512.137123 211.322214 
L 514.838465 211.561692 
L 517.539807 211.80117 
L 520.241148 212.040647 
L 522.94249 212.280125 
L 525.643832 212.519603 
L 528.345173 212.759081 
L 531.046515 212.998559 
L 533.747857 213.238037 
L 536.449199 213.477515 
L 539.15054 213.716993 
L 541.851882 213.956471 
L 544.553224 214.195949 
L 547.254565 214.435427 
L 549.955907 214.674905 
L 552.657249 214.914383 
L 555.35859 215.153861 
L 558.059932 215.393339 
L 560.761274 215.632816 
L 563.462616 215.872294 
L 566.163957 216.111772 
L 568.865299 216.35125 
L 571.566641 216.590728 
L 574.267982 216.830206 
L 576.969324 217.069684 
L 579.670666 217.309162 
L 582.372007 217.54864 
L 585.073349 217.788118 
L 587.774691 218.027596 
L 590.476032 218.267074 
L 593.177374 218.506552 
L 595.878716 218.74603 
L 598.580058 218.985508 
L 601.281399 219.224985 
L 603.982741 219.464463 
L 606.684083 219.703941 
L 609.385424 219.943419 
L 612.086766 220.182897 
L 614.788108 220.422375 
L 617.489449 220.661853 
L 620.190791 220.901331 
L 622.892133 221.140809 
L 625.593475 221.380287 
L 628.294816 221.619765 
L 630.996158 221.859243 
L 633.6975 222.098721 
L 636.398841 222.338199 
L 639.100183 222.577677 
L 641.801525 222.817127 
L 644.502866 186.889591 
L 647.204208 139.41395 
L 649.90555 223.527017 
L 652.606891 223.775066 
L 655.308233 224.014544 
L 658.009575 224.254022 
L 660.710917 224.4935 
L 663.412258 224.732978 
L 666.1136 224.972456 
L 668.814942 225.211934 
L 671.516283 225.451412 
L 674.217625 225.69089 
L 676.918967 225.930368 
L 679.620308 226.169846 
L 682.32165 226.409323 
L 685.022992 226.648801 
L 687.724334 226.888279 
L 690.425675 227.127757 
L 693.127017 227.367235 
L 695.828359 227.606713 
" clip-path="url(#p5a4d1f0d14)" style="fill: none; stroke: #191970; stroke-opacity: 0.95; stroke-width: 2; stroke-linecap: square"/>
   </g>
   <g id="line2d_116">
    <path d="M 428.395531 204.141598 
L 431.096872 204.379096 
L 433.798214 204.616595 
L 436.499556 204.854093 
L 439.200898 205.091592 
L 441.902239 205.32909 
L 444.603581 205.566589 
L 447.304923 205.804087 
L 450.006264 206.041586 
L 452.707606 206.279084 
L 455.408948 206.516583 
L 458.110289 206.754081 
L 460.811631 206.99158 
L 463.512973 207.229078 
L 466.214314 207.466577 
L 468.915656 207.704075 
L 471.616998 207.941574 
L 474.31834 208.179072 
L 477.019681 208.416571 
L 479.721023 208.654069 
L 482.422365 208.891568 
L 485.123706 209.129066 
L 487.825048 209.366565 
L 490.52639 209.604063 
L 493.227731 209.841562 
L 495.929073 210.07906 
L 498.630415 210.316558 
L 501.331757 210.554057 
L 504.033098 210.791555 
L 506.73444 211.029054 
L 509.435782 211.266552 
L 512.137123 211.504051 
L 514.838465 211.741549 
L 517.539807 211.979048 
L 520.241148 212.216546 
L 522.94249 212.454045 
L 525.643832 212.691543 
L 528.345173 212.929042 
L 531.046515 213.16654 
L 533.747857 213.404039 
L 536.449199 213.641537 
L 539.15054 213.879036 
L 541.851882 214.116534 
L 544.553224 214.354033 
L 547.254565 214.591531 
L 549.955907 214.82903 
L 552.657249 215.066528 
L 555.35859 215.304027 
L 558.059932 215.541525 
L 560.761274 215.779024 
L 563.462616 216.016522 
L 566.163957 216.254021 
L 568.865299 216.491519 
L 571.566641 216.729018 
L 574.267982 216.966516 
L 576.969324 217.204015 
L 579.670666 217.441513 
L 582.372007 217.679012 
L 585.073349 217.91651 
L 587.774691 218.154009 
L 590.476032 218.391507 
L 593.177374 218.629006 
L 595.878716 218.866504 
L 598.580058 219.104003 
L 601.281399 219.341501 
L 603.982741 219.579 
L 606.684083 219.816498 
L 609.385424 220.053997 
L 612.086766 220.291495 
L 614.788108 220.528994 
L 617.489449 220.766492 
L 620.190791 221.003991 
L 622.892133 221.241489 
L 625.593475 221.478988 
L 628.294816 221.716486 
L 630.996158 221.953984 
L 633.6975 222.191483 
L 636.398841 222.428981 
L 639.100183 222.66648 
L 641.801525 222.903964 
L 644.502866 191.945596 
L 647.204208 136.454071 
L 649.90555 223.600185 
L 652.606891 223.853972 
L 655.308233 224.091471 
L 658.009575 224.328969 
L 660.710917 224.566468 
L 663.412258 224.803966 
L 666.1136 225.041465 
L 668.814942 225.278963 
L 671.516283 225.516462 
L 674.217625 225.75396 
L 676.918967 225.991459 
L 679.620308 226.228957 
L 682.32165 226.466456 
L 685.022992 226.703954 
L 687.724334 226.941453 
L 690.425675 227.178951 
L 693.127017 227.41645 
L 695.828359 227.653948 
" clip-path="url(#p5a4d1f0d14)" style="fill: none; stroke-dasharray: 7.4,3.2; stroke-dashoffset: 0; stroke: #000000; stroke-opacity: 0.95; stroke-width: 2"/>
   </g>
   <g id="patch_10">
    <path d="M 415.023889 242.728 
L 415.023889 25.44 
" style="fill: none; stroke: #000000; stroke-width: 0.8; stroke-linejoin: miter; stroke-linecap: square"/>
   </g>
   <g id="patch_11">
    <path d="M 709.2 242.728 
L 709.2 25.44 
" style="fill: none; stroke: #000000; stroke-width: 0.8; stroke-linejoin: miter; stroke-linecap: square"/>
   </g>
   <g id="patch_12">
    <path d="M 415.023889 242.728 
L 709.2 242.728 
" style="fill: none; stroke: #000000; stroke-width: 0.8; stroke-linejoin: miter; stroke-linecap: square"/>
   </g>
   <g id="patch_13">
    <path d="M 415.023889 25.44 
L 709.2 25.44 
" style="fill: none; stroke: #000000; stroke-width: 0.8; stroke-linejoin: miter; stroke-linecap: square"/>
   </g>
   <g id="legend_2">
    <g id="patch_14">
     <path d="M 422.023889 77.474375 
L 564.564514 77.474375 
Q 566.564514 77.474375 566.564514 75.474375 
L 566.564514 32.44 
Q 566.564514 30.44 564.564514 30.44 
L 422.023889 30.44 
Q 420.023889 30.44 420.023889 32.44 
L 420.023889 75.474375 
Q 420.023889 77.474375 422.023889 77.474375 
z
" style="fill: #ffffff; opacity: 0.8; stroke: #cccccc; stroke-linejoin: miter"/>
    </g>
    <g id="line2d_117">
     <path d="M 424.023889 38.538438 
L 434.023889 38.538438 
L 444.023889 38.538438 
" style="fill: none; stroke: #191970; stroke-opacity: 0.95; stroke-width: 2; stroke-linecap: square"/>
    </g>
    <g id="text_20">
     <!-- Best Fit with Nuisance -->
     <g transform="translate(452.023889 42.038438) scale(0.1 -0.1)">
      <defs>
       <path id="DejaVuSans-77" d="M 269 3500 
L 844 3500 
L 1563 769 
L 2278 3500 
L 2956 3500 
L 3675 769 
L 4391 3500 
L 4966 3500 
L 4050 0 
L 3372 0 
L 2619 2869 
L 1863 0 
L 1184 0 
L 269 3500 
z
" transform="scale(0.015625)"/>
       <path id="DejaVuSans-68" d="M 3513 2113 
L 3513 0 
L 2938 0 
L 2938 2094 
Q 2938 2591 2744 2837 
Q 2550 3084 2163 3084 
Q 1697 3084 1428 2787 
Q 1159 2491 1159 1978 
L 1159 0 
L 581 0 
L 581 4863 
L 1159 4863 
L 1159 2956 
Q 1366 3272 1645 3428 
Q 1925 3584 2291 3584 
Q 2894 3584 3203 3211 
Q 3513 2838 3513 2113 
z
" transform="scale(0.015625)"/>
       <path id="DejaVuSans-4e" d="M 628 4666 
L 1478 4666 
L 3547 763 
L 3547 4666 
L 4159 4666 
L 4159 0 
L 3309 0 
L 1241 3903 
L 1241 0 
L 628 0 
L 628 4666 
z
" transform="scale(0.015625)"/>
      </defs>
      <use xlink:href="#DejaVuSans-42"/>
      <use xlink:href="#DejaVuSans-65" x="68.603516"/>
      <use xlink:href="#DejaVuSans-73" x="130.126953"/>
      <use xlink:href="#DejaVuSans-74" x="182.226562"/>
      <use xlink:href="#DejaVuSans-20" x="221.435547"/>
      <use xlink:href="#DejaVuSans-46" x="253.222656"/>
      <use xlink:href="#DejaVuSans-69" x="303.492188"/>
      <use xlink:href="#DejaVuSans-74" x="331.275391"/>
      <use xlink:href="#DejaVuSans-20" x="370.484375"/>
      <use xlink:href="#DejaVuSans-77" x="402.271484"/>
      <use xlink:href="#DejaVuSans-69" x="484.058594"/>
      <use xlink:href="#DejaVuSans-74" x="511.841797"/>
      <use xlink:href="#DejaVuSans-68" x="551.050781"/>
      <use xlink:href="#DejaVuSans-20" x="614.429688"/>
      <use xlink:href="#DejaVuSans-4e" x="646.216797"/>
      <use xlink:href="#DejaVuSans-75" x="721.021484"/>
      <use xlink:href="#DejaVuSans-69" x="784.400391"/>
      <use xlink:href="#DejaVuSans-73" x="812.183594"/>
      <use xlink:href="#DejaVuSans-61" x="864.283203"/>
      <use xlink:href="#DejaVuSans-6e" x="925.5625"/>
      <use xlink:href="#DejaVuSans-63" x="988.941406"/>
      <use xlink:href="#DejaVuSans-65" x="1043.921875"/>
     </g>
    </g>
    <g id="patch_15">
     <path d="M 424.023889 56.716563 
L 444.023889 56.716563 
L 444.023889 49.716563 
L 424.023889 49.716563 
z
" style="fill: #6495ed; fill-opacity: 0.6"/>
    </g>
    <g id="text_21">
     <!-- 1$\,\sigma_{tot}$ -->
     <g transform="translate(452.023889 56.716563) scale(0.1 -0.1)">
      <defs>
       <path id="DejaVuSans-Oblique-6f" d="M 1625 -91 
Q 1009 -91 651 289 
Q 294 669 294 1325 
Q 294 1706 417 2101 
Q 541 2497 738 2766 
Q 1047 3184 1428 3384 
Q 1809 3584 2291 3584 
Q 2888 3584 3255 3212 
Q 3622 2841 3622 2241 
Q 3622 1825 3500 1412 
Q 3378 1000 3181 728 
Q 2875 309 2494 109 
Q 2113 -91 1625 -91 
z
M 891 1344 
Q 891 869 1089 633 
Q 1288 397 1691 397 
Q 2269 397 2648 901 
Q 3028 1406 3028 2181 
Q 3028 2634 2825 2865 
Q 2622 3097 2228 3097 
Q 1903 3097 1650 2945 
Q 1397 2794 1197 2484 
Q 1050 2253 970 1956 
Q 891 1659 891 1344 
z
" transform="scale(0.015625)"/>
      </defs>
      <use xlink:href="#DejaVuSans-31" transform="translate(0 0.09375)"/>
      <use xlink:href="#DejaVuSans-Oblique-3c3" transform="translate(79.858723 0.09375)"/>
      <use xlink:href="#DejaVuSans-Oblique-74" transform="translate(143.237629 -16.3125) scale(0.7)"/>
      <use xlink:href="#DejaVuSans-Oblique-6f" transform="translate(170.683918 -16.3125) scale(0.7)"/>
      <use xlink:href="#DejaVuSans-Oblique-74" transform="translate(213.511067 -16.3125) scale(0.7)"/>
     </g>
    </g>
    <g id="line2d_118">
     <path d="M 424.023889 67.894688 
L 434.023889 67.894688 
L 444.023889 67.894688 
" style="fill: none; stroke-dasharray: 7.4,3.2; stroke-dashoffset: 0; stroke: #000000; stroke-opacity: 0.95; stroke-width: 2"/>
    </g>
    <g id="text_22">
     <!-- Input -->
     <g transform="translate(452.023889 71.394688) scale(0.1 -0.1)">
      <use xlink:href="#DejaVuSans-49"/>
      <use xlink:href="#DejaVuSans-6e" x="29.492188"/>
      <use xlink:href="#DejaVuSans-70" x="92.871094"/>
      <use xlink:href="#DejaVuSans-75" x="156.347656"/>
      <use xlink:href="#DejaVuSans-74" x="219.726562"/>
     </g>
    </g>
   </g>
  </g>
 </g>
 <defs>
  <clipPath id="p28f2f1caa5">
   <rect x="60.423889" y="25.44" width="294.176111" height="217.288"/>
  </clipPath>
  <clipPath id="p5a4d1f0d14">
   <rect x="415.023889" y="25.44" width="294.176111" height="217.288"/>
  </clipPath>
 </defs>
</svg>
