<?xml version="1.0" encoding="utf-8" standalone="no"?>
<!DOCTYPE svg PUBLIC "-//W3C//DTD SVG 1.1//EN"
  "http://www.w3.org/Graphics/SVG/1.1/DTD/svg11.dtd">
<svg xmlns:xlink="http://www.w3.org/1999/xlink" width="360pt" height="288pt" viewBox="0 0 360 288" xmlns="http://www.w3.org/2000/svg" version="1.1">
 <metadata>
  <rdf:RDF xmlns:dc="http://purl.org/dc/elements/1.1/" xmlns:cc="http://creativecommons.org/ns#" xmlns:rdf="http://www.w3.org/1999/02/22-rdf-syntax-ns#">
   <cc:Work>
    <dc:type rdf:resource="http://purl.org/dc/dcmitype/StillImage"/>
    <dc:date>2023-04-20T11:12:14.378392</dc:date>
    <dc:format>image/svg+xml</dc:format>
    <dc:creator>
     <cc:Agent>
      <dc:title>Matplotlib v3.6.3, https://matplotlib.org/</dc:title>
     </cc:Agent>
    </dc:creator>
   </cc:Work>
  </rdf:RDF>
 </metadata>
 <defs>
  <style type="text/css">*{stroke-linejoin: round; stroke-linecap: butt}</style>
 </defs>
 <g id="figure_1">
  <g id="patch_1">
   <path d="M 0 288 
L 360 288 
L 360 0 
L 0 0 
z
" style="fill: #ffffff"/>
  </g>
  <g id="axes_1">
   <g id="patch_2">
    <path d="M 60.333889 242.728 
L 349.2 242.728 
L 349.2 25.44 
L 60.333889 25.44 
z
" style="fill: #ffffff"/>
   </g>
   <g id="PolyCollection_1">
    <path d="M 73.464167 96.931637 
L 73.464167 121.554655 
L 76.116748 121.854675 
L 78.76933 122.155371 
L 81.421911 122.456744 
L 84.074493 122.75879 
L 86.727074 123.06151 
L 89.379655 123.364901 
L 92.032237 123.668965 
L 94.684818 123.973699 
L 97.337399 124.279103 
L 99.989981 124.585177 
L 102.642562 124.891921 
L 105.295143 125.199335 
L 107.947725 125.507419 
L 110.600306 125.816174 
L 113.252888 126.1256 
L 115.905469 126.435698 
L 118.55805 126.746469 
L 121.210632 127.057915 
L 123.863213 127.370036 
L 126.515794 127.682834 
L 129.168376 127.996312 
L 131.820957 128.310472 
L 134.473539 128.625315 
L 137.12612 128.940845 
L 139.778701 129.257065 
L 142.431283 129.573977 
L 145.083864 129.891586 
L 147.736445 130.209895 
L 150.389027 130.528908 
L 153.041608 130.84863 
L 155.694189 131.169066 
L 158.346771 131.490221 
L 160.999352 131.8121 
L 163.651934 132.13471 
L 166.304515 132.458056 
L 168.957096 132.782146 
L 171.609678 133.106987 
L 174.262259 133.432586 
L 176.91484 133.758952 
L 179.567422 134.086094 
L 182.220003 134.41402 
L 184.872584 134.742741 
L 187.525166 135.072266 
L 190.177747 135.402607 
L 192.830329 135.733776 
L 195.48291 136.065784 
L 198.135491 136.398645 
L 200.788073 136.732372 
L 203.440654 137.06698 
L 206.093235 137.402484 
L 208.745817 137.738899 
L 211.398398 138.076244 
L 214.050979 138.414536 
L 216.703561 138.753793 
L 219.356142 139.094035 
L 222.008724 139.435281 
L 224.661305 139.77755 
L 227.313886 140.120859 
L 229.966468 140.46521 
L 232.619049 140.810576 
L 235.27163 141.156848 
L 237.924212 141.503694 
L 240.576793 141.850229 
L 243.229374 142.194167 
L 245.881956 142.529836 
L 248.534537 142.843853 
L 251.187119 143.107333 
L 253.8397 143.269884 
L 256.492281 143.299992 
L 259.144863 143.461118 
L 261.797444 144.932792 
L 264.450025 149.274126 
L 267.102607 157.039891 
L 269.755188 165.973739 
L 272.407769 164.292037 
L 275.060351 141.039762 
L 277.712932 110.592685 
L 280.365514 86.562687 
L 283.018095 74.086789 
L 285.670676 69.827718 
L 288.323258 67.66305 
L 290.975839 65.690048 
L 293.62842 68.460185 
L 296.281002 90.085453 
L 298.933583 141.606412 
L 301.586164 90516.111416 
L 304.238746 232.851273 
L 306.891327 168.586496 
L 309.543909 153.503525 
L 312.19649 151.621147 
L 314.849071 152.217267 
L 317.501653 152.674489 
L 320.154234 153.085756 
L 322.806815 153.494947 
L 325.459397 153.906722 
L 328.111978 154.321413 
L 330.76456 154.739083 
L 333.417141 155.159776 
L 336.069722 155.583536 
L 336.069722 147.495021 
L 336.069722 147.495021 
L 333.417141 147.034287 
L 330.76456 146.571073 
L 328.111978 146.10542 
L 325.459397 145.637375 
L 322.806815 145.166992 
L 320.154234 144.694428 
L 317.501653 144.221032 
L 314.849071 143.751917 
L 312.19649 143.11415 
L 309.543909 139.058842 
L 306.891327 124.57303 
L 304.238746 102.623906 
L 301.586164 81.439032 
L 298.933583 65.841654 
L 296.281002 56.215208 
L 293.62842 47.742602 
L 290.975839 38.367887 
L 288.323258 35.316727 
L 285.670676 39.613054 
L 283.018095 49.495794 
L 280.365514 60.486837 
L 277.712932 69.944357 
L 275.060351 80.197594 
L 272.407769 91.992297 
L 269.755188 104.458621 
L 267.102607 116.0409 
L 264.450025 125.119633 
L 261.797444 130.645989 
L 259.144863 132.707684 
L 256.492281 132.818985 
L 253.8397 132.375512 
L 251.187119 131.843605 
L 248.534537 131.312127 
L 245.881956 130.789144 
L 243.229374 130.271272 
L 240.576793 129.755586 
L 237.924212 129.240545 
L 235.27163 128.725457 
L 232.619049 128.210041 
L 229.966468 127.694195 
L 227.313886 127.177895 
L 224.661305 126.661147 
L 222.008724 126.143968 
L 219.356142 125.62638 
L 216.703561 125.108403 
L 214.050979 124.59006 
L 211.398398 124.071372 
L 208.745817 123.552359 
L 206.093235 123.03304 
L 203.440654 122.513434 
L 200.788073 121.993558 
L 198.135491 121.473429 
L 195.48291 120.953064 
L 192.830329 120.432477 
L 190.177747 119.911684 
L 187.525166 119.390697 
L 184.872584 118.869531 
L 182.220003 118.348198 
L 179.567422 117.826711 
L 176.91484 117.305081 
L 174.262259 116.783319 
L 171.609678 116.261435 
L 168.957096 115.739441 
L 166.304515 115.217345 
L 163.651934 114.695157 
L 160.999352 114.172886 
L 158.346771 113.650539 
L 155.694189 113.128127 
L 153.041608 112.605655 
L 150.389027 112.083131 
L 147.736445 111.560563 
L 145.083864 111.037957 
L 142.431283 110.51532 
L 139.778701 109.992658 
L 137.12612 109.469977 
L 134.473539 108.947283 
L 131.820957 108.42458 
L 129.168376 107.901874 
L 126.515794 107.379171 
L 123.863213 106.856475 
L 121.210632 106.33379 
L 118.55805 105.811121 
L 115.905469 105.288472 
L 113.252888 104.765847 
L 110.600306 104.243251 
L 107.947725 103.720685 
L 105.295143 103.198155 
L 102.642562 102.675664 
L 99.989981 102.153214 
L 97.337399 101.630809 
L 94.684818 101.108452 
L 92.032237 100.586146 
L 89.379655 100.063893 
L 86.727074 99.541696 
L 84.074493 99.019558 
L 81.421911 98.497481 
L 78.76933 97.975467 
L 76.116748 97.453518 
L 73.464167 96.931637 
z
" clip-path="url(#p08c7094c03)" style="fill: #6495ed; fill-opacity: 0.5"/>
   </g>
   <g id="PolyCollection_2">
    <path d="M 73.464167 97.055623 
L 73.464167 121.326561 
L 76.116748 121.628012 
L 78.76933 121.930126 
L 81.421911 122.232902 
L 84.074493 122.53634 
L 86.727074 122.840439 
L 89.379655 123.145197 
L 92.032237 123.450613 
L 94.684818 123.756689 
L 97.337399 124.063422 
L 99.989981 124.370813 
L 102.642562 124.678862 
L 105.295143 124.987569 
L 107.947725 125.296934 
L 110.600306 125.606958 
L 113.252888 125.917642 
L 115.905469 126.228986 
L 118.55805 126.540993 
L 121.210632 126.853662 
L 123.863213 127.166996 
L 126.515794 127.480996 
L 129.168376 127.795665 
L 131.820957 128.111004 
L 134.473539 128.427017 
L 137.12612 128.743707 
L 139.778701 129.061075 
L 142.431283 129.379126 
L 145.083864 129.697863 
L 147.736445 130.017291 
L 150.389027 130.337413 
L 153.041608 130.658234 
L 155.694189 130.979759 
L 158.346771 131.301995 
L 160.999352 131.624945 
L 163.651934 131.948617 
L 166.304515 132.273017 
L 168.957096 132.598152 
L 171.609678 132.924029 
L 174.262259 133.250657 
L 176.91484 133.578043 
L 179.567422 133.906198 
L 182.220003 134.235129 
L 184.872584 134.564848 
L 187.525166 134.895365 
L 190.177747 135.226691 
L 192.830329 135.558838 
L 195.48291 135.891819 
L 198.135491 136.225647 
L 200.788073 136.560336 
L 203.440654 136.895902 
L 206.093235 137.232359 
L 208.745817 137.569724 
L 211.398398 137.908014 
L 214.050979 138.247249 
L 216.703561 138.587447 
L 219.356142 138.928627 
L 222.008724 139.27081 
L 224.661305 139.614015 
L 227.313886 139.958253 
L 229.966468 140.303523 
L 232.619049 140.649777 
L 235.27163 140.996854 
L 237.924212 141.344294 
L 240.576793 141.690888 
L 243.229374 142.033549 
L 245.881956 142.36465 
L 248.534537 142.666019 
L 251.187119 142.896683 
L 253.8397 142.973297 
L 256.492281 142.765815 
L 259.144863 142.268709 
L 261.797444 142.420424 
L 264.450025 144.945877 
L 267.102607 149.738559 
L 269.755188 154.309521 
L 272.407769 151.347426 
L 275.060351 134.077412 
L 277.712932 109.030635 
L 280.365514 86.179921 
L 283.018095 70.72123 
L 285.670676 63.273328 
L 288.323258 60.599646 
L 290.975839 61.207594 
L 293.62842 67.983084 
L 296.281002 87.964673 
L 298.933583 124.379282 
L 301.586164 169.320259 
L 304.238746 175.281842 
L 306.891327 158.360854 
L 309.543909 150.791798 
L 312.19649 151.137382 
L 314.849071 152.058032 
L 317.501653 152.55037 
L 320.154234 152.966543 
L 322.806815 153.377866 
L 325.459397 153.79165 
L 328.111978 154.208401 
L 330.76456 154.628184 
L 333.417141 155.051045 
L 336.069722 155.477022 
L 336.069722 147.5826 
L 336.069722 147.5826 
L 333.417141 147.123606 
L 330.76456 146.662074 
L 328.111978 146.198043 
L 325.459397 145.731558 
L 322.806815 145.262678 
L 320.154234 144.791699 
L 317.501653 144.322111 
L 314.849071 143.88124 
L 312.19649 143.507529 
L 309.543909 141.052588 
L 306.891327 128.613371 
L 304.238746 107.831672 
L 301.586164 86.37154 
L 298.933583 69.234995 
L 296.281002 57.237726 
L 293.62842 48.121886 
L 290.975839 40.905554 
L 288.323258 38.944418 
L 285.670676 43.096258 
L 283.018095 51.386065 
L 280.365514 60.589475 
L 277.712932 70.389965 
L 275.060351 81.731164 
L 272.407769 94.407221 
L 269.755188 107.321584 
L 267.102607 118.904103 
L 264.450025 127.623458 
L 261.797444 132.46056 
L 259.144863 133.623554 
L 256.492281 133.226182 
L 253.8397 132.599295 
L 251.187119 132.001996 
L 248.534537 131.445612 
L 245.881956 130.912832 
L 243.229374 130.391145 
L 240.576793 129.87406 
L 237.924212 129.35859 
L 235.27163 128.843454 
L 232.619049 128.328135 
L 229.966468 127.812437 
L 227.313886 127.296299 
L 224.661305 126.779713 
L 222.008724 126.262692 
L 219.356142 125.745254 
L 216.703561 125.227421 
L 214.050979 124.709217 
L 211.398398 124.190661 
L 208.745817 123.671774 
L 206.093235 123.152577 
L 203.440654 122.633088 
L 200.788073 122.113326 
L 198.135491 121.593306 
L 195.48291 121.073047 
L 192.830329 120.552563 
L 190.177747 120.031869 
L 187.525166 119.510981 
L 184.872584 118.98991 
L 182.220003 118.468671 
L 179.567422 117.947275 
L 176.91484 117.425735 
L 174.262259 116.904061 
L 171.609678 116.382265 
L 168.957096 115.860357 
L 166.304515 115.338347 
L 163.651934 114.816244 
L 160.999352 114.294057 
L 158.346771 113.771794 
L 155.694189 113.249464 
L 153.041608 112.727075 
L 150.389027 112.204634 
L 147.736445 111.682149 
L 145.083864 111.159625 
L 142.431283 110.63707 
L 139.778701 110.114491 
L 137.12612 109.591892 
L 134.473539 109.069279 
L 131.820957 108.546659 
L 129.168376 108.024037 
L 126.515794 107.501417 
L 123.863213 106.978804 
L 121.210632 106.456202 
L 118.55805 105.933617 
L 115.905469 105.411053 
L 113.252888 104.888513 
L 110.600306 104.366001 
L 107.947725 103.843521 
L 105.295143 103.321077 
L 102.642562 102.798672 
L 99.989981 102.276309 
L 97.337399 101.753991 
L 94.684818 101.231722 
L 92.032237 100.709503 
L 89.379655 100.187339 
L 86.727074 99.665231 
L 84.074493 99.143182 
L 81.421911 98.621195 
L 78.76933 98.099271 
L 76.116748 97.577413 
L 73.464167 97.055623 
z
" clip-path="url(#p08c7094c03)" style="fill: #db7093; fill-opacity: 0.9"/>
   </g>
   <g id="matplotlib.axis_1">
    <g id="xtick_1">
     <g id="line2d_1">
      <defs>
       <path id="mdf26e55e82" d="M 0 0 
L 0 3.5 
" style="stroke: #000000; stroke-width: 0.8"/>
      </defs>
      <g>
       <use xlink:href="#mdf26e55e82" x="72.137876" y="242.728" style="stroke: #000000; stroke-width: 0.8"/>
      </g>
     </g>
     <g id="text_1">
      <!-- $\mathdefault{10^{-1}}$ -->
      <g transform="translate(60.387876 257.326437) scale(0.1 -0.1)">
       <defs>
        <path id="DejaVuSans-31" d="M 794 531 
L 1825 531 
L 1825 4091 
L 703 3866 
L 703 4441 
L 1819 4666 
L 2450 4666 
L 2450 531 
L 3481 531 
L 3481 0 
L 794 0 
L 794 531 
z
" transform="scale(0.015625)"/>
        <path id="DejaVuSans-30" d="M 2034 4250 
Q 1547 4250 1301 3770 
Q 1056 3291 1056 2328 
Q 1056 1369 1301 889 
Q 1547 409 2034 409 
Q 2525 409 2770 889 
Q 3016 1369 3016 2328 
Q 3016 3291 2770 3770 
Q 2525 4250 2034 4250 
z
M 2034 4750 
Q 2819 4750 3233 4129 
Q 3647 3509 3647 2328 
Q 3647 1150 3233 529 
Q 2819 -91 2034 -91 
Q 1250 -91 836 529 
Q 422 1150 422 2328 
Q 422 3509 836 4129 
Q 1250 4750 2034 4750 
z
" transform="scale(0.015625)"/>
        <path id="DejaVuSans-2212" d="M 678 2272 
L 4684 2272 
L 4684 1741 
L 678 1741 
L 678 2272 
z
" transform="scale(0.015625)"/>
       </defs>
       <use xlink:href="#DejaVuSans-31" transform="translate(0 0.684375)"/>
       <use xlink:href="#DejaVuSans-30" transform="translate(63.623047 0.684375)"/>
       <use xlink:href="#DejaVuSans-2212" transform="translate(128.203125 38.965625) scale(0.7)"/>
       <use xlink:href="#DejaVuSans-31" transform="translate(186.855469 38.965625) scale(0.7)"/>
      </g>
     </g>
    </g>
    <g id="xtick_2">
     <g id="line2d_2">
      <g>
       <use xlink:href="#mdf26e55e82" x="237.711037" y="242.728" style="stroke: #000000; stroke-width: 0.8"/>
      </g>
     </g>
     <g id="text_2">
      <!-- $\mathdefault{10^{0}}$ -->
      <g transform="translate(228.911037 257.326437) scale(0.1 -0.1)">
       <use xlink:href="#DejaVuSans-31" transform="translate(0 0.765625)"/>
       <use xlink:href="#DejaVuSans-30" transform="translate(63.623047 0.765625)"/>
       <use xlink:href="#DejaVuSans-30" transform="translate(128.203125 39.046875) scale(0.7)"/>
      </g>
     </g>
    </g>
    <g id="xtick_3">
     <g id="line2d_3">
      <defs>
       <path id="me7b8f9cade" d="M 0 0 
L 0 2 
" style="stroke: #000000; stroke-width: 0.6"/>
      </defs>
      <g>
       <use xlink:href="#me7b8f9cade" x="64.561664" y="242.728" style="stroke: #000000; stroke-width: 0.6"/>
      </g>
     </g>
    </g>
    <g id="xtick_4">
     <g id="line2d_4">
      <g>
       <use xlink:href="#me7b8f9cade" x="121.980364" y="242.728" style="stroke: #000000; stroke-width: 0.6"/>
      </g>
     </g>
    </g>
    <g id="xtick_5">
     <g id="line2d_5">
      <g>
       <use xlink:href="#me7b8f9cade" x="151.136351" y="242.728" style="stroke: #000000; stroke-width: 0.6"/>
      </g>
     </g>
    </g>
    <g id="xtick_6">
     <g id="line2d_6">
      <g>
       <use xlink:href="#me7b8f9cade" x="171.822852" y="242.728" style="stroke: #000000; stroke-width: 0.6"/>
      </g>
     </g>
    </g>
    <g id="xtick_7">
     <g id="line2d_7">
      <g>
       <use xlink:href="#me7b8f9cade" x="187.868549" y="242.728" style="stroke: #000000; stroke-width: 0.6"/>
      </g>
     </g>
    </g>
    <g id="xtick_8">
     <g id="line2d_8">
      <g>
       <use xlink:href="#me7b8f9cade" x="200.978839" y="242.728" style="stroke: #000000; stroke-width: 0.6"/>
      </g>
     </g>
    </g>
    <g id="xtick_9">
     <g id="line2d_9">
      <g>
       <use xlink:href="#me7b8f9cade" x="212.06343" y="242.728" style="stroke: #000000; stroke-width: 0.6"/>
      </g>
     </g>
    </g>
    <g id="xtick_10">
     <g id="line2d_10">
      <g>
       <use xlink:href="#me7b8f9cade" x="221.66534" y="242.728" style="stroke: #000000; stroke-width: 0.6"/>
      </g>
     </g>
    </g>
    <g id="xtick_11">
     <g id="line2d_11">
      <g>
       <use xlink:href="#me7b8f9cade" x="230.134825" y="242.728" style="stroke: #000000; stroke-width: 0.6"/>
      </g>
     </g>
    </g>
    <g id="xtick_12">
     <g id="line2d_12">
      <g>
       <use xlink:href="#me7b8f9cade" x="287.553525" y="242.728" style="stroke: #000000; stroke-width: 0.6"/>
      </g>
     </g>
    </g>
    <g id="xtick_13">
     <g id="line2d_13">
      <g>
       <use xlink:href="#me7b8f9cade" x="316.709511" y="242.728" style="stroke: #000000; stroke-width: 0.6"/>
      </g>
     </g>
    </g>
    <g id="xtick_14">
     <g id="line2d_14">
      <g>
       <use xlink:href="#me7b8f9cade" x="337.396013" y="242.728" style="stroke: #000000; stroke-width: 0.6"/>
      </g>
     </g>
    </g>
    <g id="text_3">
     <!-- Energy [TeV] -->
     <g transform="translate(173.069288 271.004562) scale(0.1 -0.1)">
      <defs>
       <path id="DejaVuSans-45" d="M 628 4666 
L 3578 4666 
L 3578 4134 
L 1259 4134 
L 1259 2753 
L 3481 2753 
L 3481 2222 
L 1259 2222 
L 1259 531 
L 3634 531 
L 3634 0 
L 628 0 
L 628 4666 
z
" transform="scale(0.015625)"/>
       <path id="DejaVuSans-6e" d="M 3513 2113 
L 3513 0 
L 2938 0 
L 2938 2094 
Q 2938 2591 2744 2837 
Q 2550 3084 2163 3084 
Q 1697 3084 1428 2787 
Q 1159 2491 1159 1978 
L 1159 0 
L 581 0 
L 581 3500 
L 1159 3500 
L 1159 2956 
Q 1366 3272 1645 3428 
Q 1925 3584 2291 3584 
Q 2894 3584 3203 3211 
Q 3513 2838 3513 2113 
z
" transform="scale(0.015625)"/>
       <path id="DejaVuSans-65" d="M 3597 1894 
L 3597 1613 
L 953 1613 
Q 991 1019 1311 708 
Q 1631 397 2203 397 
Q 2534 397 2845 478 
Q 3156 559 3463 722 
L 3463 178 
Q 3153 47 2828 -22 
Q 2503 -91 2169 -91 
Q 1331 -91 842 396 
Q 353 884 353 1716 
Q 353 2575 817 3079 
Q 1281 3584 2069 3584 
Q 2775 3584 3186 3129 
Q 3597 2675 3597 1894 
z
M 3022 2063 
Q 3016 2534 2758 2815 
Q 2500 3097 2075 3097 
Q 1594 3097 1305 2825 
Q 1016 2553 972 2059 
L 3022 2063 
z
" transform="scale(0.015625)"/>
       <path id="DejaVuSans-72" d="M 2631 2963 
Q 2534 3019 2420 3045 
Q 2306 3072 2169 3072 
Q 1681 3072 1420 2755 
Q 1159 2438 1159 1844 
L 1159 0 
L 581 0 
L 581 3500 
L 1159 3500 
L 1159 2956 
Q 1341 3275 1631 3429 
Q 1922 3584 2338 3584 
Q 2397 3584 2469 3576 
Q 2541 3569 2628 3553 
L 2631 2963 
z
" transform="scale(0.015625)"/>
       <path id="DejaVuSans-67" d="M 2906 1791 
Q 2906 2416 2648 2759 
Q 2391 3103 1925 3103 
Q 1463 3103 1205 2759 
Q 947 2416 947 1791 
Q 947 1169 1205 825 
Q 1463 481 1925 481 
Q 2391 481 2648 825 
Q 2906 1169 2906 1791 
z
M 3481 434 
Q 3481 -459 3084 -895 
Q 2688 -1331 1869 -1331 
Q 1566 -1331 1297 -1286 
Q 1028 -1241 775 -1147 
L 775 -588 
Q 1028 -725 1275 -790 
Q 1522 -856 1778 -856 
Q 2344 -856 2625 -561 
Q 2906 -266 2906 331 
L 2906 616 
Q 2728 306 2450 153 
Q 2172 0 1784 0 
Q 1141 0 747 490 
Q 353 981 353 1791 
Q 353 2603 747 3093 
Q 1141 3584 1784 3584 
Q 2172 3584 2450 3431 
Q 2728 3278 2906 2969 
L 2906 3500 
L 3481 3500 
L 3481 434 
z
" transform="scale(0.015625)"/>
       <path id="DejaVuSans-79" d="M 2059 -325 
Q 1816 -950 1584 -1140 
Q 1353 -1331 966 -1331 
L 506 -1331 
L 506 -850 
L 844 -850 
Q 1081 -850 1212 -737 
Q 1344 -625 1503 -206 
L 1606 56 
L 191 3500 
L 800 3500 
L 1894 763 
L 2988 3500 
L 3597 3500 
L 2059 -325 
z
" transform="scale(0.015625)"/>
       <path id="DejaVuSans-20" transform="scale(0.015625)"/>
       <path id="DejaVuSans-5b" d="M 550 4863 
L 1875 4863 
L 1875 4416 
L 1125 4416 
L 1125 -397 
L 1875 -397 
L 1875 -844 
L 550 -844 
L 550 4863 
z
" transform="scale(0.015625)"/>
       <path id="DejaVuSans-54" d="M -19 4666 
L 3928 4666 
L 3928 4134 
L 2272 4134 
L 2272 0 
L 1638 0 
L 1638 4134 
L -19 4134 
L -19 4666 
z
" transform="scale(0.015625)"/>
       <path id="DejaVuSans-56" d="M 1831 0 
L 50 4666 
L 709 4666 
L 2188 738 
L 3669 4666 
L 4325 4666 
L 2547 0 
L 1831 0 
z
" transform="scale(0.015625)"/>
       <path id="DejaVuSans-5d" d="M 1947 4863 
L 1947 -844 
L 622 -844 
L 622 -397 
L 1369 -397 
L 1369 4416 
L 622 4416 
L 622 4863 
L 1947 4863 
z
" transform="scale(0.015625)"/>
      </defs>
      <use xlink:href="#DejaVuSans-45"/>
      <use xlink:href="#DejaVuSans-6e" x="63.183594"/>
      <use xlink:href="#DejaVuSans-65" x="126.5625"/>
      <use xlink:href="#DejaVuSans-72" x="188.085938"/>
      <use xlink:href="#DejaVuSans-67" x="227.449219"/>
      <use xlink:href="#DejaVuSans-79" x="290.925781"/>
      <use xlink:href="#DejaVuSans-20" x="350.105469"/>
      <use xlink:href="#DejaVuSans-5b" x="381.892578"/>
      <use xlink:href="#DejaVuSans-54" x="420.90625"/>
      <use xlink:href="#DejaVuSans-65" x="464.990234"/>
      <use xlink:href="#DejaVuSans-56" x="526.513672"/>
      <use xlink:href="#DejaVuSans-5d" x="594.921875"/>
     </g>
    </g>
   </g>
   <g id="matplotlib.axis_2">
    <g id="ytick_1">
     <g id="line2d_15">
      <defs>
       <path id="m444d248871" d="M 0 0 
L -3.5 0 
" style="stroke: #000000; stroke-width: 0.8"/>
      </defs>
      <g>
       <use xlink:href="#m444d248871" x="60.333889" y="226.629497" style="stroke: #000000; stroke-width: 0.8"/>
      </g>
     </g>
     <g id="text_4">
      <!-- $\mathdefault{10^{-13}}$ -->
      <g transform="translate(25.433889 230.428716) scale(0.1 -0.1)">
       <defs>
        <path id="DejaVuSans-33" d="M 2597 2516 
Q 3050 2419 3304 2112 
Q 3559 1806 3559 1356 
Q 3559 666 3084 287 
Q 2609 -91 1734 -91 
Q 1441 -91 1130 -33 
Q 819 25 488 141 
L 488 750 
Q 750 597 1062 519 
Q 1375 441 1716 441 
Q 2309 441 2620 675 
Q 2931 909 2931 1356 
Q 2931 1769 2642 2001 
Q 2353 2234 1838 2234 
L 1294 2234 
L 1294 2753 
L 1863 2753 
Q 2328 2753 2575 2939 
Q 2822 3125 2822 3475 
Q 2822 3834 2567 4026 
Q 2313 4219 1838 4219 
Q 1578 4219 1281 4162 
Q 984 4106 628 3988 
L 628 4550 
Q 988 4650 1302 4700 
Q 1616 4750 1894 4750 
Q 2613 4750 3031 4423 
Q 3450 4097 3450 3541 
Q 3450 3153 3228 2886 
Q 3006 2619 2597 2516 
z
" transform="scale(0.015625)"/>
       </defs>
       <use xlink:href="#DejaVuSans-31" transform="translate(0 0.765625)"/>
       <use xlink:href="#DejaVuSans-30" transform="translate(63.623047 0.765625)"/>
       <use xlink:href="#DejaVuSans-2212" transform="translate(128.203125 39.046875) scale(0.7)"/>
       <use xlink:href="#DejaVuSans-31" transform="translate(186.855469 39.046875) scale(0.7)"/>
       <use xlink:href="#DejaVuSans-33" transform="translate(231.391602 39.046875) scale(0.7)"/>
      </g>
     </g>
    </g>
    <g id="ytick_2">
     <g id="line2d_16">
      <g>
       <use xlink:href="#m444d248871" x="60.333889" y="135.150792" style="stroke: #000000; stroke-width: 0.8"/>
      </g>
     </g>
     <g id="text_5">
      <!-- $\mathdefault{10^{-12}}$ -->
      <g transform="translate(25.433889 138.950011) scale(0.1 -0.1)">
       <defs>
        <path id="DejaVuSans-32" d="M 1228 531 
L 3431 531 
L 3431 0 
L 469 0 
L 469 531 
Q 828 903 1448 1529 
Q 2069 2156 2228 2338 
Q 2531 2678 2651 2914 
Q 2772 3150 2772 3378 
Q 2772 3750 2511 3984 
Q 2250 4219 1831 4219 
Q 1534 4219 1204 4116 
Q 875 4013 500 3803 
L 500 4441 
Q 881 4594 1212 4672 
Q 1544 4750 1819 4750 
Q 2544 4750 2975 4387 
Q 3406 4025 3406 3419 
Q 3406 3131 3298 2873 
Q 3191 2616 2906 2266 
Q 2828 2175 2409 1742 
Q 1991 1309 1228 531 
z
" transform="scale(0.015625)"/>
       </defs>
       <use xlink:href="#DejaVuSans-31" transform="translate(0 0.765625)"/>
       <use xlink:href="#DejaVuSans-30" transform="translate(63.623047 0.765625)"/>
       <use xlink:href="#DejaVuSans-2212" transform="translate(128.203125 39.046875) scale(0.7)"/>
       <use xlink:href="#DejaVuSans-31" transform="translate(186.855469 39.046875) scale(0.7)"/>
       <use xlink:href="#DejaVuSans-32" transform="translate(231.391602 39.046875) scale(0.7)"/>
      </g>
     </g>
    </g>
    <g id="ytick_3">
     <g id="line2d_17">
      <g>
       <use xlink:href="#m444d248871" x="60.333889" y="43.672087" style="stroke: #000000; stroke-width: 0.8"/>
      </g>
     </g>
     <g id="text_6">
      <!-- $\mathdefault{10^{-11}}$ -->
      <g transform="translate(25.433889 47.471306) scale(0.1 -0.1)">
       <use xlink:href="#DejaVuSans-31" transform="translate(0 0.684375)"/>
       <use xlink:href="#DejaVuSans-30" transform="translate(63.623047 0.684375)"/>
       <use xlink:href="#DejaVuSans-2212" transform="translate(128.203125 38.965625) scale(0.7)"/>
       <use xlink:href="#DejaVuSans-31" transform="translate(186.855469 38.965625) scale(0.7)"/>
       <use xlink:href="#DejaVuSans-31" transform="translate(231.391602 38.965625) scale(0.7)"/>
      </g>
     </g>
    </g>
    <g id="ytick_4">
     <g id="line2d_18">
      <defs>
       <path id="m8399f069bc" d="M 0 0 
L -2 0 
" style="stroke: #000000; stroke-width: 0.6"/>
      </defs>
      <g>
       <use xlink:href="#m8399f069bc" x="60.333889" y="240.799728" style="stroke: #000000; stroke-width: 0.6"/>
      </g>
     </g>
    </g>
    <g id="ytick_5">
     <g id="line2d_19">
      <g>
       <use xlink:href="#m8399f069bc" x="60.333889" y="235.4947" style="stroke: #000000; stroke-width: 0.6"/>
      </g>
     </g>
    </g>
    <g id="ytick_6">
     <g id="line2d_20">
      <g>
       <use xlink:href="#m8399f069bc" x="60.333889" y="230.815333" style="stroke: #000000; stroke-width: 0.6"/>
      </g>
     </g>
    </g>
    <g id="ytick_7">
     <g id="line2d_21">
      <g>
       <use xlink:href="#m8399f069bc" x="60.333889" y="199.091663" style="stroke: #000000; stroke-width: 0.6"/>
      </g>
     </g>
    </g>
    <g id="ytick_8">
     <g id="line2d_22">
      <g>
       <use xlink:href="#m8399f069bc" x="60.333889" y="182.983063" style="stroke: #000000; stroke-width: 0.6"/>
      </g>
     </g>
    </g>
    <g id="ytick_9">
     <g id="line2d_23">
      <g>
       <use xlink:href="#m8399f069bc" x="60.333889" y="171.553829" style="stroke: #000000; stroke-width: 0.6"/>
      </g>
     </g>
    </g>
    <g id="ytick_10">
     <g id="line2d_24">
      <g>
       <use xlink:href="#m8399f069bc" x="60.333889" y="162.688627" style="stroke: #000000; stroke-width: 0.6"/>
      </g>
     </g>
    </g>
    <g id="ytick_11">
     <g id="line2d_25">
      <g>
       <use xlink:href="#m8399f069bc" x="60.333889" y="155.445229" style="stroke: #000000; stroke-width: 0.6"/>
      </g>
     </g>
    </g>
    <g id="ytick_12">
     <g id="line2d_26">
      <g>
       <use xlink:href="#m8399f069bc" x="60.333889" y="149.321023" style="stroke: #000000; stroke-width: 0.6"/>
      </g>
     </g>
    </g>
    <g id="ytick_13">
     <g id="line2d_27">
      <g>
       <use xlink:href="#m8399f069bc" x="60.333889" y="144.015995" style="stroke: #000000; stroke-width: 0.6"/>
      </g>
     </g>
    </g>
    <g id="ytick_14">
     <g id="line2d_28">
      <g>
       <use xlink:href="#m8399f069bc" x="60.333889" y="139.336628" style="stroke: #000000; stroke-width: 0.6"/>
      </g>
     </g>
    </g>
    <g id="ytick_15">
     <g id="line2d_29">
      <g>
       <use xlink:href="#m8399f069bc" x="60.333889" y="107.612958" style="stroke: #000000; stroke-width: 0.6"/>
      </g>
     </g>
    </g>
    <g id="ytick_16">
     <g id="line2d_30">
      <g>
       <use xlink:href="#m8399f069bc" x="60.333889" y="91.504358" style="stroke: #000000; stroke-width: 0.6"/>
      </g>
     </g>
    </g>
    <g id="ytick_17">
     <g id="line2d_31">
      <g>
       <use xlink:href="#m8399f069bc" x="60.333889" y="80.075124" style="stroke: #000000; stroke-width: 0.6"/>
      </g>
     </g>
    </g>
    <g id="ytick_18">
     <g id="line2d_32">
      <g>
       <use xlink:href="#m8399f069bc" x="60.333889" y="71.209921" style="stroke: #000000; stroke-width: 0.6"/>
      </g>
     </g>
    </g>
    <g id="ytick_19">
     <g id="line2d_33">
      <g>
       <use xlink:href="#m8399f069bc" x="60.333889" y="63.966524" style="stroke: #000000; stroke-width: 0.6"/>
      </g>
     </g>
    </g>
    <g id="ytick_20">
     <g id="line2d_34">
      <g>
       <use xlink:href="#m8399f069bc" x="60.333889" y="57.842318" style="stroke: #000000; stroke-width: 0.6"/>
      </g>
     </g>
    </g>
    <g id="ytick_21">
     <g id="line2d_35">
      <g>
       <use xlink:href="#m8399f069bc" x="60.333889" y="52.53729" style="stroke: #000000; stroke-width: 0.6"/>
      </g>
     </g>
    </g>
    <g id="ytick_22">
     <g id="line2d_36">
      <g>
       <use xlink:href="#m8399f069bc" x="60.333889" y="47.857923" style="stroke: #000000; stroke-width: 0.6"/>
      </g>
     </g>
    </g>
    <g id="text_7">
     <!-- e2 * dnde [TeV / (cm2 s)] -->
     <g transform="translate(19.354202 196.563688) rotate(-90) scale(0.1 -0.1)">
      <defs>
       <path id="DejaVuSans-2a" d="M 3009 3897 
L 1888 3291 
L 3009 2681 
L 2828 2375 
L 1778 3009 
L 1778 1831 
L 1422 1831 
L 1422 3009 
L 372 2375 
L 191 2681 
L 1313 3291 
L 191 3897 
L 372 4206 
L 1422 3572 
L 1422 4750 
L 1778 4750 
L 1778 3572 
L 2828 4206 
L 3009 3897 
z
" transform="scale(0.015625)"/>
       <path id="DejaVuSans-64" d="M 2906 2969 
L 2906 4863 
L 3481 4863 
L 3481 0 
L 2906 0 
L 2906 525 
Q 2725 213 2448 61 
Q 2172 -91 1784 -91 
Q 1150 -91 751 415 
Q 353 922 353 1747 
Q 353 2572 751 3078 
Q 1150 3584 1784 3584 
Q 2172 3584 2448 3432 
Q 2725 3281 2906 2969 
z
M 947 1747 
Q 947 1113 1208 752 
Q 1469 391 1925 391 
Q 2381 391 2643 752 
Q 2906 1113 2906 1747 
Q 2906 2381 2643 2742 
Q 2381 3103 1925 3103 
Q 1469 3103 1208 2742 
Q 947 2381 947 1747 
z
" transform="scale(0.015625)"/>
       <path id="DejaVuSans-2f" d="M 1625 4666 
L 2156 4666 
L 531 -594 
L 0 -594 
L 1625 4666 
z
" transform="scale(0.015625)"/>
       <path id="DejaVuSans-28" d="M 1984 4856 
Q 1566 4138 1362 3434 
Q 1159 2731 1159 2009 
Q 1159 1288 1364 580 
Q 1569 -128 1984 -844 
L 1484 -844 
Q 1016 -109 783 600 
Q 550 1309 550 2009 
Q 550 2706 781 3412 
Q 1013 4119 1484 4856 
L 1984 4856 
z
" transform="scale(0.015625)"/>
       <path id="DejaVuSans-63" d="M 3122 3366 
L 3122 2828 
Q 2878 2963 2633 3030 
Q 2388 3097 2138 3097 
Q 1578 3097 1268 2742 
Q 959 2388 959 1747 
Q 959 1106 1268 751 
Q 1578 397 2138 397 
Q 2388 397 2633 464 
Q 2878 531 3122 666 
L 3122 134 
Q 2881 22 2623 -34 
Q 2366 -91 2075 -91 
Q 1284 -91 818 406 
Q 353 903 353 1747 
Q 353 2603 823 3093 
Q 1294 3584 2113 3584 
Q 2378 3584 2631 3529 
Q 2884 3475 3122 3366 
z
" transform="scale(0.015625)"/>
       <path id="DejaVuSans-6d" d="M 3328 2828 
Q 3544 3216 3844 3400 
Q 4144 3584 4550 3584 
Q 5097 3584 5394 3201 
Q 5691 2819 5691 2113 
L 5691 0 
L 5113 0 
L 5113 2094 
Q 5113 2597 4934 2840 
Q 4756 3084 4391 3084 
Q 3944 3084 3684 2787 
Q 3425 2491 3425 1978 
L 3425 0 
L 2847 0 
L 2847 2094 
Q 2847 2600 2669 2842 
Q 2491 3084 2119 3084 
Q 1678 3084 1418 2786 
Q 1159 2488 1159 1978 
L 1159 0 
L 581 0 
L 581 3500 
L 1159 3500 
L 1159 2956 
Q 1356 3278 1631 3431 
Q 1906 3584 2284 3584 
Q 2666 3584 2933 3390 
Q 3200 3197 3328 2828 
z
" transform="scale(0.015625)"/>
       <path id="DejaVuSans-73" d="M 2834 3397 
L 2834 2853 
Q 2591 2978 2328 3040 
Q 2066 3103 1784 3103 
Q 1356 3103 1142 2972 
Q 928 2841 928 2578 
Q 928 2378 1081 2264 
Q 1234 2150 1697 2047 
L 1894 2003 
Q 2506 1872 2764 1633 
Q 3022 1394 3022 966 
Q 3022 478 2636 193 
Q 2250 -91 1575 -91 
Q 1294 -91 989 -36 
Q 684 19 347 128 
L 347 722 
Q 666 556 975 473 
Q 1284 391 1588 391 
Q 1994 391 2212 530 
Q 2431 669 2431 922 
Q 2431 1156 2273 1281 
Q 2116 1406 1581 1522 
L 1381 1569 
Q 847 1681 609 1914 
Q 372 2147 372 2553 
Q 372 3047 722 3315 
Q 1072 3584 1716 3584 
Q 2034 3584 2315 3537 
Q 2597 3491 2834 3397 
z
" transform="scale(0.015625)"/>
       <path id="DejaVuSans-29" d="M 513 4856 
L 1013 4856 
Q 1481 4119 1714 3412 
Q 1947 2706 1947 2009 
Q 1947 1309 1714 600 
Q 1481 -109 1013 -844 
L 513 -844 
Q 928 -128 1133 580 
Q 1338 1288 1338 2009 
Q 1338 2731 1133 3434 
Q 928 4138 513 4856 
z
" transform="scale(0.015625)"/>
      </defs>
      <use xlink:href="#DejaVuSans-65"/>
      <use xlink:href="#DejaVuSans-32" x="61.523438"/>
      <use xlink:href="#DejaVuSans-20" x="125.146484"/>
      <use xlink:href="#DejaVuSans-2a" x="156.933594"/>
      <use xlink:href="#DejaVuSans-20" x="206.933594"/>
      <use xlink:href="#DejaVuSans-64" x="238.720703"/>
      <use xlink:href="#DejaVuSans-6e" x="302.197266"/>
      <use xlink:href="#DejaVuSans-64" x="365.576172"/>
      <use xlink:href="#DejaVuSans-65" x="429.052734"/>
      <use xlink:href="#DejaVuSans-20" x="490.576172"/>
      <use xlink:href="#DejaVuSans-5b" x="522.363281"/>
      <use xlink:href="#DejaVuSans-54" x="561.376953"/>
      <use xlink:href="#DejaVuSans-65" x="605.460938"/>
      <use xlink:href="#DejaVuSans-56" x="666.984375"/>
      <use xlink:href="#DejaVuSans-20" x="735.392578"/>
      <use xlink:href="#DejaVuSans-2f" x="767.179688"/>
      <use xlink:href="#DejaVuSans-20" x="800.871094"/>
      <use xlink:href="#DejaVuSans-28" x="832.658203"/>
      <use xlink:href="#DejaVuSans-63" x="871.671875"/>
      <use xlink:href="#DejaVuSans-6d" x="926.652344"/>
      <use xlink:href="#DejaVuSans-32" x="1024.064453"/>
      <use xlink:href="#DejaVuSans-20" x="1087.6875"/>
      <use xlink:href="#DejaVuSans-73" x="1119.474609"/>
      <use xlink:href="#DejaVuSans-29" x="1171.574219"/>
      <use xlink:href="#DejaVuSans-5d" x="1210.587891"/>
     </g>
    </g>
   </g>
   <g id="line2d_37">
    <path d="M 73.464167 107.927012 
L 76.116748 108.366676 
L 78.76933 108.806339 
L 81.421911 109.246002 
L 84.074493 109.685665 
L 86.727074 110.125328 
L 89.379655 110.564991 
L 92.032237 111.004654 
L 94.684818 111.444317 
L 97.337399 111.88398 
L 99.989981 112.323644 
L 102.642562 112.763307 
L 105.295143 113.20297 
L 107.947725 113.642633 
L 110.600306 114.082296 
L 113.252888 114.521959 
L 115.905469 114.961622 
L 118.55805 115.401285 
L 121.210632 115.840949 
L 123.863213 116.280612 
L 126.515794 116.720275 
L 129.168376 117.159938 
L 131.820957 117.599601 
L 134.473539 118.039264 
L 137.12612 118.478927 
L 139.778701 118.91859 
L 142.431283 119.358254 
L 145.083864 119.797917 
L 147.736445 120.23758 
L 150.389027 120.677243 
L 153.041608 121.116906 
L 155.694189 121.556569 
L 158.346771 121.996232 
L 160.999352 122.435895 
L 163.651934 122.875558 
L 166.304515 123.315222 
L 168.957096 123.754885 
L 171.609678 124.194548 
L 174.262259 124.634211 
L 176.91484 125.073874 
L 179.567422 125.513537 
L 182.220003 125.9532 
L 184.872584 126.392863 
L 187.525166 126.832527 
L 190.177747 127.27219 
L 192.830329 127.711853 
L 195.48291 128.151516 
L 198.135491 128.591179 
L 200.788073 129.030842 
L 203.440654 129.470505 
L 206.093235 129.910168 
L 208.745817 130.349832 
L 211.398398 130.789495 
L 214.050979 131.229158 
L 216.703561 131.668821 
L 219.356142 132.108484 
L 222.008724 132.548146 
L 224.661305 132.987808 
L 227.313886 133.427468 
L 229.966468 133.867121 
L 232.619049 134.306757 
L 235.27163 134.746346 
L 237.924212 135.185806 
L 240.576793 135.624913 
L 243.229374 136.063062 
L 245.881956 136.498633 
L 248.534537 136.927362 
L 251.187119 137.338254 
L 253.8397 137.703746 
L 256.492281 137.957218 
L 259.144863 137.945552 
L 261.797444 137.341768 
L 264.450025 135.524189 
L 267.102607 131.522754 
L 269.755188 124.290079 
L 272.407769 113.429014 
L 275.060351 99.779417 
L 277.712932 85.102116 
L 280.365514 71.270736 
L 283.018095 59.805355 
L 285.670676 51.839667 
L 288.323258 48.238999 
L 290.975839 49.694631 
L 293.62842 56.735557 
L 296.281002 69.600769 
L 298.933583 87.814893 
L 301.586164 109.184959 
L 304.238746 128.683666 
L 306.891327 140.854022 
L 309.543909 145.766147 
L 312.19649 147.295076 
L 314.849071 147.91439 
L 317.501653 148.374391 
L 320.154234 148.815603 
L 322.806815 149.255343 
L 325.459397 149.695009 
L 328.111978 150.134672 
L 330.76456 150.574335 
L 333.417141 151.013998 
L 336.069722 151.453661 
" clip-path="url(#p08c7094c03)" style="fill: none; stroke: #000000; stroke-linecap: square"/>
   </g>
   <g id="line2d_38">
    <path d="M 73.464167 107.365314 
L 76.116748 107.80944 
L 78.76933 108.253566 
L 81.421911 108.697692 
L 84.074493 109.141818 
L 86.727074 109.585944 
L 89.379655 110.03007 
L 92.032237 110.474196 
L 94.684818 110.918322 
L 97.337399 111.362448 
L 99.989981 111.806574 
L 102.642562 112.2507 
L 105.295143 112.694826 
L 107.947725 113.138952 
L 110.600306 113.583078 
L 113.252888 114.027204 
L 115.905469 114.47133 
L 118.55805 114.915456 
L 121.210632 115.359581 
L 123.863213 115.803707 
L 126.515794 116.247833 
L 129.168376 116.691959 
L 131.820957 117.136085 
L 134.473539 117.580211 
L 137.12612 118.024337 
L 139.778701 118.468463 
L 142.431283 118.912589 
L 145.083864 119.356715 
L 147.736445 119.800841 
L 150.389027 120.244967 
L 153.041608 120.689093 
L 155.694189 121.133219 
L 158.346771 121.577345 
L 160.999352 122.021471 
L 163.651934 122.465597 
L 166.304515 122.909723 
L 168.957096 123.353849 
L 171.609678 123.797975 
L 174.262259 124.242101 
L 176.91484 124.686227 
L 179.567422 125.130353 
L 182.220003 125.574479 
L 184.872584 126.018605 
L 187.525166 126.462731 
L 190.177747 126.906857 
L 192.830329 127.350983 
L 195.48291 127.795109 
L 198.135491 128.239235 
L 200.788073 128.683361 
L 203.440654 129.127487 
L 206.093235 129.571613 
L 208.745817 130.015739 
L 211.398398 130.459865 
L 214.050979 130.903991 
L 216.703561 131.348117 
L 219.356142 131.792243 
L 222.008724 132.236368 
L 224.661305 132.680493 
L 227.313886 133.124616 
L 229.966468 133.568732 
L 232.619049 134.012833 
L 235.27163 134.45689 
L 237.924212 134.900825 
L 240.576793 135.344426 
L 243.229374 135.787119 
L 245.881956 136.227355 
L 248.534537 136.661048 
L 251.187119 137.077618 
L 253.8397 137.450432 
L 256.492281 137.714856 
L 259.144863 137.721675 
L 261.797444 137.150613 
L 264.450025 135.388776 
L 267.102607 131.470917 
L 269.755188 124.338339 
L 272.407769 113.563374 
L 275.060351 99.958503 
L 277.712932 85.281954 
L 280.365514 71.42274 
L 283.018095 59.918265 
L 285.670676 51.914677 
L 288.323258 48.28502 
L 290.975839 49.7251 
L 293.62842 56.765957 
L 296.281002 69.645159 
L 298.933583 87.878183 
L 301.586164 109.247084 
L 304.238746 128.691254 
L 306.891327 140.773071 
L 309.543909 145.628287 
L 312.19649 147.140384 
L 314.849071 147.759544 
L 317.501653 148.223343 
L 320.154234 148.668955 
L 322.806815 149.113154 
L 325.459397 149.557282 
L 328.111978 150.001408 
L 330.76456 150.445534 
L 333.417141 150.88966 
L 336.069722 151.333786 
" clip-path="url(#p08c7094c03)" style="fill: none; stroke-dasharray: 7.4,3.2; stroke-dashoffset: 0; stroke: #191970; stroke-opacity: 0.95; stroke-width: 2"/>
   </g>
   <g id="line2d_39">
    <path d="M 73.464167 107.365776 
L 76.116748 107.8099 
L 78.76933 108.254024 
L 81.421911 108.698148 
L 84.074493 109.142272 
L 86.727074 109.586396 
L 89.379655 110.03052 
L 92.032237 110.474644 
L 94.684818 110.918768 
L 97.337399 111.362892 
L 99.989981 111.807016 
L 102.642562 112.25114 
L 105.295143 112.695264 
L 107.947725 113.139387 
L 110.600306 113.583511 
L 113.252888 114.027635 
L 115.905469 114.471759 
L 118.55805 114.915883 
L 121.210632 115.360007 
L 123.863213 115.804131 
L 126.515794 116.248255 
L 129.168376 116.692379 
L 131.820957 117.136503 
L 134.473539 117.580627 
L 137.12612 118.024751 
L 139.778701 118.468875 
L 142.431283 118.912999 
L 145.083864 119.357123 
L 147.736445 119.801247 
L 150.389027 120.245371 
L 153.041608 120.689495 
L 155.694189 121.133619 
L 158.346771 121.577743 
L 160.999352 122.021866 
L 163.651934 122.46599 
L 166.304515 122.910114 
L 168.957096 123.354238 
L 171.609678 123.798362 
L 174.262259 124.242486 
L 176.91484 124.68661 
L 179.567422 125.130734 
L 182.220003 125.574858 
L 184.872584 126.018982 
L 187.525166 126.463106 
L 190.177747 126.90723 
L 192.830329 127.351354 
L 195.48291 127.795478 
L 198.135491 128.239602 
L 200.788073 128.683726 
L 203.440654 129.12785 
L 206.093235 129.571974 
L 208.745817 130.016098 
L 211.398398 130.460221 
L 214.050979 130.904345 
L 216.703561 131.348469 
L 219.356142 131.792593 
L 222.008724 132.236717 
L 224.661305 132.680839 
L 227.313886 133.12496 
L 229.966468 133.569074 
L 232.619049 134.013172 
L 235.27163 134.457224 
L 237.924212 134.901152 
L 240.576793 135.344737 
L 243.229374 135.787392 
L 245.881956 136.227537 
L 248.534537 136.661009 
L 251.187119 137.077051 
L 253.8397 137.448645 
L 256.492281 137.710352 
L 259.144863 137.711441 
L 261.797444 137.129192 
L 264.450025 135.347942 
L 267.102607 131.402103 
L 269.755188 124.239583 
L 272.407769 113.445825 
L 275.060351 99.842704 
L 277.712932 85.186764 
L 280.365514 71.358916 
L 283.018095 59.888821 
L 285.670676 51.917408 
L 288.323258 48.314471 
L 290.975839 49.773608 
L 293.62842 56.82407 
L 296.281002 69.701812 
L 298.933583 87.921341 
L 301.586164 109.267115 
L 304.238746 128.689885 
L 306.891327 140.765584 
L 309.543909 145.6245 
L 312.19649 147.139573 
L 314.849071 147.759642 
L 317.501653 148.223599 
L 320.154234 148.669227 
L 322.806815 149.113425 
L 325.459397 149.557551 
L 328.111978 150.001675 
L 330.76456 150.445799 
L 333.417141 150.889923 
L 336.069722 151.334047 
" clip-path="url(#p08c7094c03)" style="fill: none; stroke: #c71585; stroke-width: 1.5; stroke-linecap: square"/>
   </g>
   <g id="patch_3">
    <path d="M 60.333889 242.728 
L 60.333889 25.44 
" style="fill: none; stroke: #000000; stroke-width: 0.8; stroke-linejoin: miter; stroke-linecap: square"/>
   </g>
   <g id="patch_4">
    <path d="M 349.2 242.728 
L 349.2 25.44 
" style="fill: none; stroke: #000000; stroke-width: 0.8; stroke-linejoin: miter; stroke-linecap: square"/>
   </g>
   <g id="patch_5">
    <path d="M 60.333889 242.728 
L 349.2 242.728 
" style="fill: none; stroke: #000000; stroke-width: 0.8; stroke-linejoin: miter; stroke-linecap: square"/>
   </g>
   <g id="patch_6">
    <path d="M 60.333889 25.44 
L 349.2 25.44 
" style="fill: none; stroke: #000000; stroke-width: 0.8; stroke-linejoin: miter; stroke-linecap: square"/>
   </g>
   <g id="text_8">
    <!-- sys_assumed = 10% -->
    <g transform="translate(142.711007 19.44) scale(0.12 -0.12)">
     <defs>
      <path id="DejaVuSans-5f" d="M 3263 -1063 
L 3263 -1509 
L -63 -1509 
L -63 -1063 
L 3263 -1063 
z
" transform="scale(0.015625)"/>
      <path id="DejaVuSans-61" d="M 2194 1759 
Q 1497 1759 1228 1600 
Q 959 1441 959 1056 
Q 959 750 1161 570 
Q 1363 391 1709 391 
Q 2188 391 2477 730 
Q 2766 1069 2766 1631 
L 2766 1759 
L 2194 1759 
z
M 3341 1997 
L 3341 0 
L 2766 0 
L 2766 531 
Q 2569 213 2275 61 
Q 1981 -91 1556 -91 
Q 1019 -91 701 211 
Q 384 513 384 1019 
Q 384 1609 779 1909 
Q 1175 2209 1959 2209 
L 2766 2209 
L 2766 2266 
Q 2766 2663 2505 2880 
Q 2244 3097 1772 3097 
Q 1472 3097 1187 3025 
Q 903 2953 641 2809 
L 641 3341 
Q 956 3463 1253 3523 
Q 1550 3584 1831 3584 
Q 2591 3584 2966 3190 
Q 3341 2797 3341 1997 
z
" transform="scale(0.015625)"/>
      <path id="DejaVuSans-75" d="M 544 1381 
L 544 3500 
L 1119 3500 
L 1119 1403 
Q 1119 906 1312 657 
Q 1506 409 1894 409 
Q 2359 409 2629 706 
Q 2900 1003 2900 1516 
L 2900 3500 
L 3475 3500 
L 3475 0 
L 2900 0 
L 2900 538 
Q 2691 219 2414 64 
Q 2138 -91 1772 -91 
Q 1169 -91 856 284 
Q 544 659 544 1381 
z
M 1991 3584 
L 1991 3584 
z
" transform="scale(0.015625)"/>
      <path id="DejaVuSans-3d" d="M 678 2906 
L 4684 2906 
L 4684 2381 
L 678 2381 
L 678 2906 
z
M 678 1631 
L 4684 1631 
L 4684 1100 
L 678 1100 
L 678 1631 
z
" transform="scale(0.015625)"/>
      <path id="DejaVuSans-25" d="M 4653 2053 
Q 4381 2053 4226 1822 
Q 4072 1591 4072 1178 
Q 4072 772 4226 539 
Q 4381 306 4653 306 
Q 4919 306 5073 539 
Q 5228 772 5228 1178 
Q 5228 1588 5073 1820 
Q 4919 2053 4653 2053 
z
M 4653 2450 
Q 5147 2450 5437 2106 
Q 5728 1763 5728 1178 
Q 5728 594 5436 251 
Q 5144 -91 4653 -91 
Q 4153 -91 3862 251 
Q 3572 594 3572 1178 
Q 3572 1766 3864 2108 
Q 4156 2450 4653 2450 
z
M 1428 4353 
Q 1159 4353 1004 4120 
Q 850 3888 850 3481 
Q 850 3069 1003 2837 
Q 1156 2606 1428 2606 
Q 1700 2606 1854 2837 
Q 2009 3069 2009 3481 
Q 2009 3884 1853 4118 
Q 1697 4353 1428 4353 
z
M 4250 4750 
L 4750 4750 
L 1831 -91 
L 1331 -91 
L 4250 4750 
z
M 1428 4750 
Q 1922 4750 2215 4408 
Q 2509 4066 2509 3481 
Q 2509 2891 2217 2550 
Q 1925 2209 1428 2209 
Q 931 2209 642 2551 
Q 353 2894 353 3481 
Q 353 4063 643 4406 
Q 934 4750 1428 4750 
z
" transform="scale(0.015625)"/>
     </defs>
     <use xlink:href="#DejaVuSans-73"/>
     <use xlink:href="#DejaVuSans-79" x="52.099609"/>
     <use xlink:href="#DejaVuSans-73" x="111.279297"/>
     <use xlink:href="#DejaVuSans-5f" x="163.378906"/>
     <use xlink:href="#DejaVuSans-61" x="213.378906"/>
     <use xlink:href="#DejaVuSans-73" x="274.658203"/>
     <use xlink:href="#DejaVuSans-73" x="326.757812"/>
     <use xlink:href="#DejaVuSans-75" x="378.857422"/>
     <use xlink:href="#DejaVuSans-6d" x="442.236328"/>
     <use xlink:href="#DejaVuSans-65" x="539.648438"/>
     <use xlink:href="#DejaVuSans-64" x="601.171875"/>
     <use xlink:href="#DejaVuSans-20" x="664.648438"/>
     <use xlink:href="#DejaVuSans-3d" x="696.435547"/>
     <use xlink:href="#DejaVuSans-20" x="780.224609"/>
     <use xlink:href="#DejaVuSans-31" x="812.011719"/>
     <use xlink:href="#DejaVuSans-30" x="875.634766"/>
     <use xlink:href="#DejaVuSans-25" x="939.257812"/>
    </g>
   </g>
   <g id="legend_1">
    <g id="patch_7">
     <path d="M 67.333889 237.728 
L 209.874514 237.728 
Q 211.874514 237.728 211.874514 235.728 
L 211.874514 163.337375 
Q 211.874514 161.337375 209.874514 161.337375 
L 67.333889 161.337375 
Q 65.333889 161.337375 65.333889 163.337375 
L 65.333889 235.728 
Q 65.333889 237.728 67.333889 237.728 
z
" style="fill: #ffffff; opacity: 0.8; stroke: #cccccc; stroke-linejoin: miter"/>
    </g>
    <g id="line2d_40">
     <path d="M 69.333889 169.435812 
L 79.333889 169.435812 
L 89.333889 169.435812 
" style="fill: none; stroke: #000000; stroke-linecap: square"/>
    </g>
    <g id="text_9">
     <!-- Input -->
     <g transform="translate(97.333889 172.935812) scale(0.1 -0.1)">
      <defs>
       <path id="DejaVuSans-49" d="M 628 4666 
L 1259 4666 
L 1259 0 
L 628 0 
L 628 4666 
z
" transform="scale(0.015625)"/>
       <path id="DejaVuSans-70" d="M 1159 525 
L 1159 -1331 
L 581 -1331 
L 581 3500 
L 1159 3500 
L 1159 2969 
Q 1341 3281 1617 3432 
Q 1894 3584 2278 3584 
Q 2916 3584 3314 3078 
Q 3713 2572 3713 1747 
Q 3713 922 3314 415 
Q 2916 -91 2278 -91 
Q 1894 -91 1617 61 
Q 1341 213 1159 525 
z
M 3116 1747 
Q 3116 2381 2855 2742 
Q 2594 3103 2138 3103 
Q 1681 3103 1420 2742 
Q 1159 2381 1159 1747 
Q 1159 1113 1420 752 
Q 1681 391 2138 391 
Q 2594 391 2855 752 
Q 3116 1113 3116 1747 
z
" transform="scale(0.015625)"/>
       <path id="DejaVuSans-74" d="M 1172 4494 
L 1172 3500 
L 2356 3500 
L 2356 3053 
L 1172 3053 
L 1172 1153 
Q 1172 725 1289 603 
Q 1406 481 1766 481 
L 2356 481 
L 2356 0 
L 1766 0 
Q 1100 0 847 248 
Q 594 497 594 1153 
L 594 3053 
L 172 3053 
L 172 3500 
L 594 3500 
L 594 4494 
L 1172 4494 
z
" transform="scale(0.015625)"/>
      </defs>
      <use xlink:href="#DejaVuSans-49"/>
      <use xlink:href="#DejaVuSans-6e" x="29.492188"/>
      <use xlink:href="#DejaVuSans-70" x="92.871094"/>
      <use xlink:href="#DejaVuSans-75" x="156.347656"/>
      <use xlink:href="#DejaVuSans-74" x="219.726562"/>
     </g>
    </g>
    <g id="line2d_41">
     <path d="M 69.333889 184.113937 
L 79.333889 184.113937 
L 89.333889 184.113937 
" style="fill: none; stroke-dasharray: 7.4,3.2; stroke-dashoffset: 0; stroke: #191970; stroke-opacity: 0.95; stroke-width: 2"/>
    </g>
    <g id="text_10">
     <!-- Best Fit with Nuisance -->
     <g transform="translate(97.333889 187.613937) scale(0.1 -0.1)">
      <defs>
       <path id="DejaVuSans-42" d="M 1259 2228 
L 1259 519 
L 2272 519 
Q 2781 519 3026 730 
Q 3272 941 3272 1375 
Q 3272 1813 3026 2020 
Q 2781 2228 2272 2228 
L 1259 2228 
z
M 1259 4147 
L 1259 2741 
L 2194 2741 
Q 2656 2741 2882 2914 
Q 3109 3088 3109 3444 
Q 3109 3797 2882 3972 
Q 2656 4147 2194 4147 
L 1259 4147 
z
M 628 4666 
L 2241 4666 
Q 2963 4666 3353 4366 
Q 3744 4066 3744 3513 
Q 3744 3084 3544 2831 
Q 3344 2578 2956 2516 
Q 3422 2416 3680 2098 
Q 3938 1781 3938 1306 
Q 3938 681 3513 340 
Q 3088 0 2303 0 
L 628 0 
L 628 4666 
z
" transform="scale(0.015625)"/>
       <path id="DejaVuSans-46" d="M 628 4666 
L 3309 4666 
L 3309 4134 
L 1259 4134 
L 1259 2759 
L 3109 2759 
L 3109 2228 
L 1259 2228 
L 1259 0 
L 628 0 
L 628 4666 
z
" transform="scale(0.015625)"/>
       <path id="DejaVuSans-69" d="M 603 3500 
L 1178 3500 
L 1178 0 
L 603 0 
L 603 3500 
z
M 603 4863 
L 1178 4863 
L 1178 4134 
L 603 4134 
L 603 4863 
z
" transform="scale(0.015625)"/>
       <path id="DejaVuSans-77" d="M 269 3500 
L 844 3500 
L 1563 769 
L 2278 3500 
L 2956 3500 
L 3675 769 
L 4391 3500 
L 4966 3500 
L 4050 0 
L 3372 0 
L 2619 2869 
L 1863 0 
L 1184 0 
L 269 3500 
z
" transform="scale(0.015625)"/>
       <path id="DejaVuSans-68" d="M 3513 2113 
L 3513 0 
L 2938 0 
L 2938 2094 
Q 2938 2591 2744 2837 
Q 2550 3084 2163 3084 
Q 1697 3084 1428 2787 
Q 1159 2491 1159 1978 
L 1159 0 
L 581 0 
L 581 4863 
L 1159 4863 
L 1159 2956 
Q 1366 3272 1645 3428 
Q 1925 3584 2291 3584 
Q 2894 3584 3203 3211 
Q 3513 2838 3513 2113 
z
" transform="scale(0.015625)"/>
       <path id="DejaVuSans-4e" d="M 628 4666 
L 1478 4666 
L 3547 763 
L 3547 4666 
L 4159 4666 
L 4159 0 
L 3309 0 
L 1241 3903 
L 1241 0 
L 628 0 
L 628 4666 
z
" transform="scale(0.015625)"/>
      </defs>
      <use xlink:href="#DejaVuSans-42"/>
      <use xlink:href="#DejaVuSans-65" x="68.603516"/>
      <use xlink:href="#DejaVuSans-73" x="130.126953"/>
      <use xlink:href="#DejaVuSans-74" x="182.226562"/>
      <use xlink:href="#DejaVuSans-20" x="221.435547"/>
      <use xlink:href="#DejaVuSans-46" x="253.222656"/>
      <use xlink:href="#DejaVuSans-69" x="303.492188"/>
      <use xlink:href="#DejaVuSans-74" x="331.275391"/>
      <use xlink:href="#DejaVuSans-20" x="370.484375"/>
      <use xlink:href="#DejaVuSans-77" x="402.271484"/>
      <use xlink:href="#DejaVuSans-69" x="484.058594"/>
      <use xlink:href="#DejaVuSans-74" x="511.841797"/>
      <use xlink:href="#DejaVuSans-68" x="551.050781"/>
      <use xlink:href="#DejaVuSans-20" x="614.429688"/>
      <use xlink:href="#DejaVuSans-4e" x="646.216797"/>
      <use xlink:href="#DejaVuSans-75" x="721.021484"/>
      <use xlink:href="#DejaVuSans-69" x="784.400391"/>
      <use xlink:href="#DejaVuSans-73" x="812.183594"/>
      <use xlink:href="#DejaVuSans-61" x="864.283203"/>
      <use xlink:href="#DejaVuSans-6e" x="925.5625"/>
      <use xlink:href="#DejaVuSans-63" x="988.941406"/>
      <use xlink:href="#DejaVuSans-65" x="1043.921875"/>
     </g>
    </g>
    <g id="patch_8">
     <path d="M 69.333889 202.292062 
L 89.333889 202.292062 
L 89.333889 195.292062 
L 69.333889 195.292062 
z
" style="fill: #6495ed; fill-opacity: 0.5"/>
    </g>
    <g id="text_11">
     <!-- 1$\,\sigma_{tot}$ -->
     <g transform="translate(97.333889 202.292062) scale(0.1 -0.1)">
      <defs>
       <path id="DejaVuSans-Oblique-3c3" d="M 2219 3044 
Q 1744 3044 1422 2700 
Q 1081 2341 969 1747 
Q 844 1119 1044 756 
Q 1241 397 1706 397 
Q 2166 397 2503 759 
Q 2844 1122 2966 1747 
Q 3075 2319 2881 2700 
Q 2700 3044 2219 3044 
z
M 2309 3503 
L 4219 3500 
L 4106 2925 
L 3463 2925 
Q 3706 2438 3575 1747 
Q 3406 888 2884 400 
Q 2359 -91 1609 -91 
Q 856 -91 525 400 
Q 194 888 363 1747 
Q 528 2609 1050 3097 
Q 1484 3503 2309 3503 
z
" transform="scale(0.015625)"/>
       <path id="DejaVuSans-Oblique-74" d="M 2706 3500 
L 2619 3053 
L 1472 3053 
L 1100 1153 
Q 1081 1047 1072 975 
Q 1063 903 1063 863 
Q 1063 663 1183 572 
Q 1303 481 1569 481 
L 2150 481 
L 2053 0 
L 1503 0 
Q 991 0 739 200 
Q 488 400 488 806 
Q 488 878 497 964 
Q 506 1050 525 1153 
L 897 3053 
L 409 3053 
L 500 3500 
L 978 3500 
L 1172 4494 
L 1747 4494 
L 1556 3500 
L 2706 3500 
z
" transform="scale(0.015625)"/>
       <path id="DejaVuSans-Oblique-6f" d="M 1625 -91 
Q 1009 -91 651 289 
Q 294 669 294 1325 
Q 294 1706 417 2101 
Q 541 2497 738 2766 
Q 1047 3184 1428 3384 
Q 1809 3584 2291 3584 
Q 2888 3584 3255 3212 
Q 3622 2841 3622 2241 
Q 3622 1825 3500 1412 
Q 3378 1000 3181 728 
Q 2875 309 2494 109 
Q 2113 -91 1625 -91 
z
M 891 1344 
Q 891 869 1089 633 
Q 1288 397 1691 397 
Q 2269 397 2648 901 
Q 3028 1406 3028 2181 
Q 3028 2634 2825 2865 
Q 2622 3097 2228 3097 
Q 1903 3097 1650 2945 
Q 1397 2794 1197 2484 
Q 1050 2253 970 1956 
Q 891 1659 891 1344 
z
" transform="scale(0.015625)"/>
      </defs>
      <use xlink:href="#DejaVuSans-31" transform="translate(0 0.09375)"/>
      <use xlink:href="#DejaVuSans-Oblique-3c3" transform="translate(79.858723 0.09375)"/>
      <use xlink:href="#DejaVuSans-Oblique-74" transform="translate(143.237629 -16.3125) scale(0.7)"/>
      <use xlink:href="#DejaVuSans-Oblique-6f" transform="translate(170.683918 -16.3125) scale(0.7)"/>
      <use xlink:href="#DejaVuSans-Oblique-74" transform="translate(213.511067 -16.3125) scale(0.7)"/>
     </g>
    </g>
    <g id="line2d_42">
     <path d="M 69.333889 213.470187 
L 79.333889 213.470187 
L 89.333889 213.470187 
" style="fill: none; stroke: #c71585; stroke-width: 1.5; stroke-linecap: square"/>
    </g>
    <g id="text_12">
     <!-- Best Fit -->
     <g transform="translate(97.333889 216.970187) scale(0.1 -0.1)">
      <use xlink:href="#DejaVuSans-42"/>
      <use xlink:href="#DejaVuSans-65" x="68.603516"/>
      <use xlink:href="#DejaVuSans-73" x="130.126953"/>
      <use xlink:href="#DejaVuSans-74" x="182.226562"/>
      <use xlink:href="#DejaVuSans-20" x="221.435547"/>
      <use xlink:href="#DejaVuSans-46" x="253.222656"/>
      <use xlink:href="#DejaVuSans-69" x="303.492188"/>
      <use xlink:href="#DejaVuSans-74" x="331.275391"/>
     </g>
    </g>
    <g id="patch_9">
     <path d="M 69.333889 231.648312 
L 89.333889 231.648312 
L 89.333889 224.648312 
L 69.333889 224.648312 
z
" style="fill: #db7093; fill-opacity: 0.9"/>
    </g>
    <g id="text_13">
     <!-- 1$\,\sigma_{stat}$ -->
     <g transform="translate(97.333889 231.648312) scale(0.1 -0.1)">
      <defs>
       <path id="DejaVuSans-Oblique-73" d="M 3200 3397 
L 3091 2853 
Q 2863 2978 2609 3040 
Q 2356 3103 2088 3103 
Q 1634 3103 1373 2948 
Q 1113 2794 1113 2528 
Q 1113 2219 1719 2053 
Q 1766 2041 1788 2034 
L 1972 1978 
Q 2547 1819 2739 1644 
Q 2931 1469 2931 1166 
Q 2931 609 2489 259 
Q 2047 -91 1331 -91 
Q 1053 -91 747 -37 
Q 441 16 72 128 
L 184 722 
Q 500 559 806 475 
Q 1113 391 1394 391 
Q 1816 391 2080 572 
Q 2344 753 2344 1031 
Q 2344 1331 1650 1516 
L 1591 1531 
L 1394 1581 
Q 956 1697 753 1886 
Q 550 2075 550 2369 
Q 550 2928 970 3256 
Q 1391 3584 2113 3584 
Q 2397 3584 2667 3537 
Q 2938 3491 3200 3397 
z
" transform="scale(0.015625)"/>
       <path id="DejaVuSans-Oblique-61" d="M 3438 1997 
L 3047 0 
L 2472 0 
L 2578 531 
Q 2325 219 2001 64 
Q 1678 -91 1281 -91 
Q 834 -91 548 182 
Q 263 456 263 884 
Q 263 1497 752 1853 
Q 1241 2209 2100 2209 
L 2900 2209 
L 2931 2363 
Q 2938 2388 2941 2417 
Q 2944 2447 2944 2509 
Q 2944 2788 2717 2942 
Q 2491 3097 2081 3097 
Q 1800 3097 1504 3025 
Q 1209 2953 897 2809 
L 997 3341 
Q 1322 3463 1633 3523 
Q 1944 3584 2234 3584 
Q 2853 3584 3176 3315 
Q 3500 3047 3500 2534 
Q 3500 2431 3484 2292 
Q 3469 2153 3438 1997 
z
M 2816 1759 
L 2241 1759 
Q 1534 1759 1195 1570 
Q 856 1381 856 984 
Q 856 709 1029 553 
Q 1203 397 1509 397 
Q 1978 397 2328 733 
Q 2678 1069 2791 1631 
L 2816 1759 
z
" transform="scale(0.015625)"/>
      </defs>
      <use xlink:href="#DejaVuSans-31" transform="translate(0 0.09375)"/>
      <use xlink:href="#DejaVuSans-Oblique-3c3" transform="translate(79.858723 0.09375)"/>
      <use xlink:href="#DejaVuSans-Oblique-73" transform="translate(143.237629 -16.3125) scale(0.7)"/>
      <use xlink:href="#DejaVuSans-Oblique-74" transform="translate(179.707356 -16.3125) scale(0.7)"/>
      <use xlink:href="#DejaVuSans-Oblique-61" transform="translate(207.153645 -16.3125) scale(0.7)"/>
      <use xlink:href="#DejaVuSans-Oblique-74" transform="translate(250.049153 -16.3125) scale(0.7)"/>
     </g>
    </g>
   </g>
  </g>
 </g>
 <defs>
  <clipPath id="p08c7094c03">
   <rect x="60.333889" y="25.44" width="288.866111" height="217.288"/>
  </clipPath>
 </defs>
</svg>
