<?xml version="1.0" encoding="utf-8" standalone="no"?>
<!DOCTYPE svg PUBLIC "-//W3C//DTD SVG 1.1//EN"
  "http://www.w3.org/Graphics/SVG/1.1/DTD/svg11.dtd">
<svg xmlns:xlink="http://www.w3.org/1999/xlink" width="360pt" height="288pt" viewBox="0 0 360 288" xmlns="http://www.w3.org/2000/svg" version="1.1">
 <metadata>
  <rdf:RDF xmlns:dc="http://purl.org/dc/elements/1.1/" xmlns:cc="http://creativecommons.org/ns#" xmlns:rdf="http://www.w3.org/1999/02/22-rdf-syntax-ns#">
   <cc:Work>
    <dc:type rdf:resource="http://purl.org/dc/dcmitype/StillImage"/>
    <dc:date>2023-05-04T13:03:26.224338</dc:date>
    <dc:format>image/svg+xml</dc:format>
    <dc:creator>
     <cc:Agent>
      <dc:title>Matplotlib v3.7.1, https://matplotlib.org/</dc:title>
     </cc:Agent>
    </dc:creator>
   </cc:Work>
  </rdf:RDF>
 </metadata>
 <defs>
  <style type="text/css">*{stroke-linejoin: round; stroke-linecap: butt}</style>
 </defs>
 <g id="figure_1">
  <g id="patch_1">
   <path d="M 0 288 
L 360 288 
L 360 0 
L 0 0 
z
" style="fill: #ffffff"/>
  </g>
  <g id="axes_1">
   <g id="patch_2">
    <path d="M 60.232639 242.728 
L 349.2 242.728 
L 349.2 25.44 
L 60.232639 25.44 
z
" style="fill: #ffffff"/>
   </g>
   <g id="PolyCollection_1">
    <path d="M 73.367519 112.218208 
L 73.367519 142.416179 
L 76.021031 142.762681 
L 78.674542 143.110031 
L 81.328053 143.458227 
L 83.981564 143.807267 
L 86.635075 144.157148 
L 89.288586 144.50787 
L 91.942097 144.85943 
L 94.595608 145.211826 
L 97.249119 145.565058 
L 99.902631 145.919125 
L 102.556142 146.274025 
L 105.209653 146.629759 
L 107.863164 146.986325 
L 110.516675 147.343723 
L 113.170186 147.701954 
L 115.823697 148.061018 
L 118.477208 148.420915 
L 121.130719 148.781646 
L 123.784231 149.143212 
L 126.437742 149.505614 
L 129.091253 149.868854 
L 131.744764 150.232933 
L 134.398275 150.597854 
L 137.051786 150.963619 
L 139.705297 151.330231 
L 142.358808 151.697693 
L 145.01232 152.066009 
L 147.665831 152.435181 
L 150.319342 152.805214 
L 152.972853 153.176113 
L 155.626364 153.547882 
L 158.279875 153.920526 
L 160.933386 154.294052 
L 163.586897 154.668465 
L 166.240408 155.043773 
L 168.89392 155.419981 
L 171.547431 155.797098 
L 174.200942 156.175131 
L 176.854453 156.55409 
L 179.507964 156.933983 
L 182.161475 157.31482 
L 184.814986 157.696611 
L 187.468497 158.079369 
L 190.122009 158.463103 
L 192.77552 158.847827 
L 195.429031 159.233553 
L 198.082542 159.620296 
L 200.736053 160.008071 
L 203.389564 160.396892 
L 206.043075 160.786776 
L 208.696586 161.177741 
L 211.350097 161.569804 
L 214.003609 161.962986 
L 216.65712 162.357306 
L 219.310631 162.752785 
L 221.964142 163.149446 
L 224.617653 163.547312 
L 227.271164 163.946405 
L 229.924675 164.346747 
L 232.578186 164.748346 
L 235.231698 165.151186 
L 237.885209 165.555168 
L 240.53872 165.959971 
L 243.192231 166.364695 
L 245.845742 166.767043 
L 248.499253 167.161954 
L 251.152764 167.5421 
L 253.806275 167.9179 
L 256.459786 168.437209 
L 259.113298 169.794225 
L 261.766809 173.718384 
L 264.42032 182.656419 
L 267.073831 199.787387 
L 269.727342 226.895531 
L 272.380853 231.616025 
L 275.034364 179.890632 
L 277.687875 130.97325 
L 280.341387 100.734992 
L 282.994898 92.164787 
L 285.648409 93.357386 
L 288.30192 92.205203 
L 290.955431 84.743364 
L 293.608942 80.329577 
L 296.262453 108.587584 
L 298.915964 232.851273 
L 301.569475 106410.196747 
L 304.222987 106410.196747 
L 306.876498 221.063892 
L 309.530009 183.957239 
L 312.18352 178.017583 
L 314.837031 178.073081 
L 317.490542 178.534633 
L 320.144053 179.005462 
L 322.797564 179.479651 
L 325.451076 179.957173 
L 328.104587 180.438077 
L 330.758098 180.922428 
L 333.411609 181.410289 
L 336.06512 181.901716 
L 336.06512 171.99953 
L 336.06512 171.99953 
L 333.411609 171.451119 
L 330.758098 170.899861 
L 328.104587 170.345814 
L 325.451076 169.78904 
L 322.797564 169.2296 
L 320.144053 168.667393 
L 317.490542 168.099421 
L 314.837031 167.484115 
L 312.18352 166.21393 
L 309.530009 159.167543 
L 306.876498 139.250925 
L 304.222987 111.898502 
L 301.569475 87.34772 
L 298.915964 70.989769 
L 296.262453 63.186577 
L 293.608942 54.265074 
L 290.955431 40.082641 
L 288.30192 35.316727 
L 285.648409 40.530324 
L 282.994898 53.89757 
L 280.341387 69.708218 
L 277.687875 80.099273 
L 275.034364 90.137623 
L 272.380853 102.587903 
L 269.727342 116.61754 
L 267.073831 130.351852 
L 264.42032 141.736031 
L 261.766809 149.334865 
L 259.113298 152.994311 
L 256.459786 153.967836 
L 253.806275 153.817869 
L 251.152764 153.33608 
L 248.499253 152.766055 
L 245.845742 152.171274 
L 243.192231 151.568529 
L 240.53872 150.962701 
L 237.885209 150.355375 
L 235.231698 149.747122 
L 232.578186 149.138168 
L 229.924675 148.528614 
L 227.271164 147.918518 
L 224.617653 147.307918 
L 221.964142 146.696846 
L 219.310631 146.08533 
L 216.65712 145.473397 
L 214.003609 144.86107 
L 211.350097 144.248374 
L 208.696586 143.63533 
L 206.043075 143.02196 
L 203.389564 142.408284 
L 200.736053 141.794322 
L 198.082542 141.180091 
L 195.429031 140.56561 
L 192.77552 139.950896 
L 190.122009 139.335964 
L 187.468497 138.720831 
L 184.814986 138.10551 
L 182.161475 137.490016 
L 179.507964 136.874362 
L 176.854453 136.258562 
L 174.200942 135.642627 
L 171.547431 135.026569 
L 168.89392 134.410399 
L 166.240408 133.794129 
L 163.586897 133.177767 
L 160.933386 132.561325 
L 158.279875 131.944811 
L 155.626364 131.328235 
L 152.972853 130.711605 
L 150.319342 130.094929 
L 147.665831 129.478215 
L 145.01232 128.86147 
L 142.358808 128.244703 
L 139.705297 127.627919 
L 137.051786 127.011125 
L 134.398275 126.394328 
L 131.744764 125.777533 
L 129.091253 125.160747 
L 126.437742 124.543975 
L 123.784231 123.927222 
L 121.130719 123.310493 
L 118.477208 122.693793 
L 115.823697 122.077127 
L 113.170186 121.4605 
L 110.516675 120.843915 
L 107.863164 120.227377 
L 105.209653 119.610889 
L 102.556142 118.994456 
L 99.902631 118.37808 
L 97.249119 117.761766 
L 94.595608 117.145517 
L 91.942097 116.529336 
L 89.288586 115.913225 
L 86.635075 115.297189 
L 83.981564 114.681229 
L 81.328053 114.065348 
L 78.674542 113.44955 
L 76.021031 112.833835 
L 73.367519 112.218208 
z
" clip-path="url(#pe566fe0c8d)" style="fill: #6495ed; fill-opacity: 0.5"/>
   </g>
   <g id="PolyCollection_2">
    <path d="M 73.367519 112.855752 
L 73.367519 141.388975 
L 76.021031 141.743365 
L 78.674542 142.098535 
L 81.328053 142.454484 
L 83.981564 142.811211 
L 86.635075 143.168714 
L 89.288586 143.526992 
L 91.942097 143.886045 
L 94.595608 144.245872 
L 97.249119 144.606472 
L 99.902631 144.967846 
L 102.556142 145.329994 
L 105.209653 145.692915 
L 107.863164 146.05661 
L 110.516675 146.421079 
L 113.170186 146.786324 
L 115.823697 147.152346 
L 118.477208 147.519145 
L 121.130719 147.886724 
L 123.784231 148.255085 
L 126.437742 148.624229 
L 129.091253 148.994159 
L 131.744764 149.364877 
L 134.398275 149.736387 
L 137.051786 150.108692 
L 139.705297 150.481796 
L 142.358808 150.855702 
L 145.01232 151.230414 
L 147.665831 151.605938 
L 150.319342 151.982279 
L 152.972853 152.359442 
L 155.626364 152.737433 
L 158.279875 153.116258 
L 160.933386 153.495924 
L 163.586897 153.876438 
L 166.240408 154.257807 
L 168.89392 154.640041 
L 171.547431 155.023148 
L 174.200942 155.407137 
L 176.854453 155.792018 
L 179.507964 156.177802 
L 182.161475 156.5645 
L 184.814986 156.952123 
L 187.468497 157.340684 
L 190.122009 157.730196 
L 192.77552 158.120674 
L 195.429031 158.512132 
L 198.082542 158.904585 
L 200.736053 159.298052 
L 203.389564 159.692548 
L 206.043075 160.088092 
L 208.696586 160.484704 
L 211.350097 160.882404 
L 214.003609 161.281214 
L 216.65712 161.681156 
L 219.310631 162.082253 
L 221.964142 162.48453 
L 224.617653 162.888006 
L 227.271164 163.292699 
L 229.924675 163.698604 
L 232.578186 164.105666 
L 235.231698 164.513695 
L 237.885209 164.922152 
L 240.53872 165.329613 
L 243.192231 165.732451 
L 245.845742 166.1217 
L 248.499253 166.475998 
L 251.152764 166.747176 
L 253.806275 166.837255 
L 256.459786 166.59335 
L 259.113298 166.008942 
L 261.766809 166.187237 
L 264.42032 169.156177 
L 267.073831 174.790735 
L 269.727342 180.16518 
L 272.380853 176.684263 
L 275.034364 156.3821 
L 277.687875 126.936329 
L 280.341387 100.071818 
L 282.994898 81.897355 
L 285.648409 73.141024 
L 288.30192 69.997913 
L 290.955431 70.712845 
L 293.608942 78.677842 
L 296.262453 102.167012 
L 298.915964 144.974369 
L 301.569475 197.805639 
L 304.222987 204.817924 
L 306.876498 184.927027 
L 309.530009 176.028806 
L 312.18352 176.435038 
L 314.837031 177.517394 
L 317.490542 178.0962 
L 320.144053 178.585461 
L 322.797564 179.069019 
L 325.451076 179.55547 
L 328.104587 180.04541 
L 330.758098 180.538914 
L 333.411609 181.036036 
L 336.06512 181.536822 
L 336.06512 172.256049 
L 336.06512 172.256049 
L 333.411609 171.716449 
L 330.758098 171.173864 
L 328.104587 170.628342 
L 325.451076 170.079935 
L 322.797564 169.528713 
L 320.144053 168.975022 
L 317.490542 168.422968 
L 314.837031 167.904676 
L 312.18352 167.465332 
L 309.530009 164.579122 
L 306.876498 149.955182 
L 304.222987 125.523964 
L 301.569475 100.295363 
L 298.915964 80.149598 
L 296.262453 66.045391 
L 293.608942 55.328399 
L 290.955431 46.845018 
L 288.30192 44.540011 
L 285.648409 49.421371 
L 282.994898 59.166958 
L 280.341387 69.986238 
L 277.687875 81.507673 
L 275.034364 94.840567 
L 272.380853 109.742781 
L 269.727342 124.925119 
L 267.073831 138.541656 
L 264.42032 148.792145 
L 261.766809 154.478546 
L 259.113298 155.845634 
L 256.459786 155.378429 
L 253.806275 154.641443 
L 251.152764 153.939247 
L 248.499253 153.285155 
L 245.845742 152.65881 
L 243.192231 152.045508 
L 240.53872 151.437615 
L 237.885209 150.83162 
L 235.231698 150.226019 
L 232.578186 149.620201 
L 229.924675 149.013939 
L 227.271164 148.407159 
L 224.617653 147.799853 
L 221.964142 147.192034 
L 219.310631 146.583726 
L 216.65712 145.974954 
L 214.003609 145.365745 
L 211.350097 144.756122 
L 208.696586 144.146111 
L 206.043075 143.535735 
L 203.389564 142.925016 
L 200.736053 142.313975 
L 198.082542 141.702632 
L 195.429031 141.091007 
L 192.77552 140.479118 
L 190.122009 139.866983 
L 187.468497 139.254618 
L 184.814986 138.642039 
L 182.161475 138.029262 
L 179.507964 137.416301 
L 176.854453 136.803171 
L 174.200942 136.189883 
L 171.547431 135.576452 
L 168.89392 134.962889 
L 166.240408 134.349205 
L 163.586897 133.735413 
L 160.933386 133.121521 
L 158.279875 132.507541 
L 155.626364 131.893482 
L 152.972853 131.279354 
L 150.319342 130.665164 
L 147.665831 130.050922 
L 145.01232 129.436635 
L 142.358808 128.822312 
L 139.705297 128.207959 
L 137.051786 127.593583 
L 134.398275 126.979192 
L 131.744764 126.364792 
L 129.091253 125.750389 
L 126.437742 125.135988 
L 123.784231 124.521596 
L 121.130719 123.907218 
L 118.477208 123.292859 
L 115.823697 122.678524 
L 113.170186 122.064218 
L 110.516675 121.449945 
L 107.863164 120.83571 
L 105.209653 120.221517 
L 102.556142 119.607369 
L 99.902631 118.993271 
L 97.249119 118.379226 
L 94.595608 117.765238 
L 91.942097 117.15131 
L 89.288586 116.537446 
L 86.635075 115.923647 
L 83.981564 115.309919 
L 81.328053 114.696262 
L 78.674542 114.08268 
L 76.021031 113.469176 
L 73.367519 112.855752 
z
" clip-path="url(#pe566fe0c8d)" style="fill: #db7093; fill-opacity: 0.9"/>
   </g>
   <g id="matplotlib.axis_1">
    <g id="xtick_1">
     <g id="line2d_1">
      <defs>
       <path id="m3950cc6651" d="M 0 0 
L 0 3.5 
" style="stroke: #000000; stroke-width: 0.8"/>
      </defs>
      <g>
       <use xlink:href="#m3950cc6651" x="72.040764" y="242.728" style="stroke: #000000; stroke-width: 0.8"/>
      </g>
     </g>
     <g id="text_1">
      <!-- $\mathdefault{10^{-1}}$ -->
      <g transform="translate(60.290764 257.326437) scale(0.1 -0.1)">
       <defs>
        <path id="DejaVuSans-31" d="M 794 531 
L 1825 531 
L 1825 4091 
L 703 3866 
L 703 4441 
L 1819 4666 
L 2450 4666 
L 2450 531 
L 3481 531 
L 3481 0 
L 794 0 
L 794 531 
z
" transform="scale(0.015625)"/>
        <path id="DejaVuSans-30" d="M 2034 4250 
Q 1547 4250 1301 3770 
Q 1056 3291 1056 2328 
Q 1056 1369 1301 889 
Q 1547 409 2034 409 
Q 2525 409 2770 889 
Q 3016 1369 3016 2328 
Q 3016 3291 2770 3770 
Q 2525 4250 2034 4250 
z
M 2034 4750 
Q 2819 4750 3233 4129 
Q 3647 3509 3647 2328 
Q 3647 1150 3233 529 
Q 2819 -91 2034 -91 
Q 1250 -91 836 529 
Q 422 1150 422 2328 
Q 422 3509 836 4129 
Q 1250 4750 2034 4750 
z
" transform="scale(0.015625)"/>
        <path id="DejaVuSans-2212" d="M 678 2272 
L 4684 2272 
L 4684 1741 
L 678 1741 
L 678 2272 
z
" transform="scale(0.015625)"/>
       </defs>
       <use xlink:href="#DejaVuSans-31" transform="translate(0 0.684375)"/>
       <use xlink:href="#DejaVuSans-30" transform="translate(63.623047 0.684375)"/>
       <use xlink:href="#DejaVuSans-2212" transform="translate(128.203125 38.965625) scale(0.7)"/>
       <use xlink:href="#DejaVuSans-31" transform="translate(186.855469 38.965625) scale(0.7)"/>
      </g>
     </g>
    </g>
    <g id="xtick_2">
     <g id="line2d_2">
      <g>
       <use xlink:href="#m3950cc6651" x="237.671959" y="242.728" style="stroke: #000000; stroke-width: 0.8"/>
      </g>
     </g>
     <g id="text_2">
      <!-- $\mathdefault{10^{0}}$ -->
      <g transform="translate(228.871959 257.326437) scale(0.1 -0.1)">
       <use xlink:href="#DejaVuSans-31" transform="translate(0 0.765625)"/>
       <use xlink:href="#DejaVuSans-30" transform="translate(63.623047 0.765625)"/>
       <use xlink:href="#DejaVuSans-30" transform="translate(128.203125 39.046875) scale(0.7)"/>
      </g>
     </g>
    </g>
    <g id="xtick_3">
     <g id="line2d_3">
      <defs>
       <path id="m0a730e7a7f" d="M 0 0 
L 0 2 
" style="stroke: #000000; stroke-width: 0.6"/>
      </defs>
      <g>
       <use xlink:href="#m0a730e7a7f" x="64.461896" y="242.728" style="stroke: #000000; stroke-width: 0.6"/>
      </g>
     </g>
    </g>
    <g id="xtick_4">
     <g id="line2d_4">
      <g>
       <use xlink:href="#m0a730e7a7f" x="121.900722" y="242.728" style="stroke: #000000; stroke-width: 0.6"/>
      </g>
     </g>
    </g>
    <g id="xtick_5">
     <g id="line2d_5">
      <g>
       <use xlink:href="#m0a730e7a7f" x="151.066928" y="242.728" style="stroke: #000000; stroke-width: 0.6"/>
      </g>
     </g>
    </g>
    <g id="xtick_6">
     <g id="line2d_6">
      <g>
       <use xlink:href="#m0a730e7a7f" x="171.76068" y="242.728" style="stroke: #000000; stroke-width: 0.6"/>
      </g>
     </g>
    </g>
    <g id="xtick_7">
     <g id="line2d_7">
      <g>
       <use xlink:href="#m0a730e7a7f" x="187.812001" y="242.728" style="stroke: #000000; stroke-width: 0.6"/>
      </g>
     </g>
    </g>
    <g id="xtick_8">
     <g id="line2d_8">
      <g>
       <use xlink:href="#m0a730e7a7f" x="200.926886" y="242.728" style="stroke: #000000; stroke-width: 0.6"/>
      </g>
     </g>
    </g>
    <g id="xtick_9">
     <g id="line2d_9">
      <g>
       <use xlink:href="#m0a730e7a7f" x="212.015363" y="242.728" style="stroke: #000000; stroke-width: 0.6"/>
      </g>
     </g>
    </g>
    <g id="xtick_10">
     <g id="line2d_10">
      <g>
       <use xlink:href="#m0a730e7a7f" x="221.620638" y="242.728" style="stroke: #000000; stroke-width: 0.6"/>
      </g>
     </g>
    </g>
    <g id="xtick_11">
     <g id="line2d_11">
      <g>
       <use xlink:href="#m0a730e7a7f" x="230.093092" y="242.728" style="stroke: #000000; stroke-width: 0.6"/>
      </g>
     </g>
    </g>
    <g id="xtick_12">
     <g id="line2d_12">
      <g>
       <use xlink:href="#m0a730e7a7f" x="287.531917" y="242.728" style="stroke: #000000; stroke-width: 0.6"/>
      </g>
     </g>
    </g>
    <g id="xtick_13">
     <g id="line2d_13">
      <g>
       <use xlink:href="#m0a730e7a7f" x="316.698123" y="242.728" style="stroke: #000000; stroke-width: 0.6"/>
      </g>
     </g>
    </g>
    <g id="xtick_14">
     <g id="line2d_14">
      <g>
       <use xlink:href="#m0a730e7a7f" x="337.391876" y="242.728" style="stroke: #000000; stroke-width: 0.6"/>
      </g>
     </g>
    </g>
    <g id="text_3">
     <!-- Energy [TeV] -->
     <g transform="translate(173.018663 271.004562) scale(0.1 -0.1)">
      <defs>
       <path id="DejaVuSans-45" d="M 628 4666 
L 3578 4666 
L 3578 4134 
L 1259 4134 
L 1259 2753 
L 3481 2753 
L 3481 2222 
L 1259 2222 
L 1259 531 
L 3634 531 
L 3634 0 
L 628 0 
L 628 4666 
z
" transform="scale(0.015625)"/>
       <path id="DejaVuSans-6e" d="M 3513 2113 
L 3513 0 
L 2938 0 
L 2938 2094 
Q 2938 2591 2744 2837 
Q 2550 3084 2163 3084 
Q 1697 3084 1428 2787 
Q 1159 2491 1159 1978 
L 1159 0 
L 581 0 
L 581 3500 
L 1159 3500 
L 1159 2956 
Q 1366 3272 1645 3428 
Q 1925 3584 2291 3584 
Q 2894 3584 3203 3211 
Q 3513 2838 3513 2113 
z
" transform="scale(0.015625)"/>
       <path id="DejaVuSans-65" d="M 3597 1894 
L 3597 1613 
L 953 1613 
Q 991 1019 1311 708 
Q 1631 397 2203 397 
Q 2534 397 2845 478 
Q 3156 559 3463 722 
L 3463 178 
Q 3153 47 2828 -22 
Q 2503 -91 2169 -91 
Q 1331 -91 842 396 
Q 353 884 353 1716 
Q 353 2575 817 3079 
Q 1281 3584 2069 3584 
Q 2775 3584 3186 3129 
Q 3597 2675 3597 1894 
z
M 3022 2063 
Q 3016 2534 2758 2815 
Q 2500 3097 2075 3097 
Q 1594 3097 1305 2825 
Q 1016 2553 972 2059 
L 3022 2063 
z
" transform="scale(0.015625)"/>
       <path id="DejaVuSans-72" d="M 2631 2963 
Q 2534 3019 2420 3045 
Q 2306 3072 2169 3072 
Q 1681 3072 1420 2755 
Q 1159 2438 1159 1844 
L 1159 0 
L 581 0 
L 581 3500 
L 1159 3500 
L 1159 2956 
Q 1341 3275 1631 3429 
Q 1922 3584 2338 3584 
Q 2397 3584 2469 3576 
Q 2541 3569 2628 3553 
L 2631 2963 
z
" transform="scale(0.015625)"/>
       <path id="DejaVuSans-67" d="M 2906 1791 
Q 2906 2416 2648 2759 
Q 2391 3103 1925 3103 
Q 1463 3103 1205 2759 
Q 947 2416 947 1791 
Q 947 1169 1205 825 
Q 1463 481 1925 481 
Q 2391 481 2648 825 
Q 2906 1169 2906 1791 
z
M 3481 434 
Q 3481 -459 3084 -895 
Q 2688 -1331 1869 -1331 
Q 1566 -1331 1297 -1286 
Q 1028 -1241 775 -1147 
L 775 -588 
Q 1028 -725 1275 -790 
Q 1522 -856 1778 -856 
Q 2344 -856 2625 -561 
Q 2906 -266 2906 331 
L 2906 616 
Q 2728 306 2450 153 
Q 2172 0 1784 0 
Q 1141 0 747 490 
Q 353 981 353 1791 
Q 353 2603 747 3093 
Q 1141 3584 1784 3584 
Q 2172 3584 2450 3431 
Q 2728 3278 2906 2969 
L 2906 3500 
L 3481 3500 
L 3481 434 
z
" transform="scale(0.015625)"/>
       <path id="DejaVuSans-79" d="M 2059 -325 
Q 1816 -950 1584 -1140 
Q 1353 -1331 966 -1331 
L 506 -1331 
L 506 -850 
L 844 -850 
Q 1081 -850 1212 -737 
Q 1344 -625 1503 -206 
L 1606 56 
L 191 3500 
L 800 3500 
L 1894 763 
L 2988 3500 
L 3597 3500 
L 2059 -325 
z
" transform="scale(0.015625)"/>
       <path id="DejaVuSans-20" transform="scale(0.015625)"/>
       <path id="DejaVuSans-5b" d="M 550 4863 
L 1875 4863 
L 1875 4416 
L 1125 4416 
L 1125 -397 
L 1875 -397 
L 1875 -844 
L 550 -844 
L 550 4863 
z
" transform="scale(0.015625)"/>
       <path id="DejaVuSans-54" d="M -19 4666 
L 3928 4666 
L 3928 4134 
L 2272 4134 
L 2272 0 
L 1638 0 
L 1638 4134 
L -19 4134 
L -19 4666 
z
" transform="scale(0.015625)"/>
       <path id="DejaVuSans-56" d="M 1831 0 
L 50 4666 
L 709 4666 
L 2188 738 
L 3669 4666 
L 4325 4666 
L 2547 0 
L 1831 0 
z
" transform="scale(0.015625)"/>
       <path id="DejaVuSans-5d" d="M 1947 4863 
L 1947 -844 
L 622 -844 
L 622 -397 
L 1369 -397 
L 1369 4416 
L 622 4416 
L 622 4863 
L 1947 4863 
z
" transform="scale(0.015625)"/>
      </defs>
      <use xlink:href="#DejaVuSans-45"/>
      <use xlink:href="#DejaVuSans-6e" x="63.183594"/>
      <use xlink:href="#DejaVuSans-65" x="126.5625"/>
      <use xlink:href="#DejaVuSans-72" x="188.085938"/>
      <use xlink:href="#DejaVuSans-67" x="227.449219"/>
      <use xlink:href="#DejaVuSans-79" x="290.925781"/>
      <use xlink:href="#DejaVuSans-20" x="350.105469"/>
      <use xlink:href="#DejaVuSans-5b" x="381.892578"/>
      <use xlink:href="#DejaVuSans-54" x="420.90625"/>
      <use xlink:href="#DejaVuSans-65" x="464.990234"/>
      <use xlink:href="#DejaVuSans-56" x="526.513672"/>
      <use xlink:href="#DejaVuSans-5d" x="594.921875"/>
     </g>
    </g>
   </g>
   <g id="matplotlib.axis_2">
    <g id="ytick_1">
     <g id="line2d_15">
      <defs>
       <path id="ma9e663a3a4" d="M 0 0 
L -3.5 0 
" style="stroke: #000000; stroke-width: 0.8"/>
      </defs>
      <g>
       <use xlink:href="#ma9e663a3a4" x="60.232639" y="157.641" style="stroke: #000000; stroke-width: 0.8"/>
      </g>
     </g>
     <g id="text_4">
      <!-- $\mathdefault{10^{-12}}$ -->
      <g transform="translate(25.332639 161.440218) scale(0.1 -0.1)">
       <defs>
        <path id="DejaVuSans-32" d="M 1228 531 
L 3431 531 
L 3431 0 
L 469 0 
L 469 531 
Q 828 903 1448 1529 
Q 2069 2156 2228 2338 
Q 2531 2678 2651 2914 
Q 2772 3150 2772 3378 
Q 2772 3750 2511 3984 
Q 2250 4219 1831 4219 
Q 1534 4219 1204 4116 
Q 875 4013 500 3803 
L 500 4441 
Q 881 4594 1212 4672 
Q 1544 4750 1819 4750 
Q 2544 4750 2975 4387 
Q 3406 4025 3406 3419 
Q 3406 3131 3298 2873 
Q 3191 2616 2906 2266 
Q 2828 2175 2409 1742 
Q 1991 1309 1228 531 
z
" transform="scale(0.015625)"/>
       </defs>
       <use xlink:href="#DejaVuSans-31" transform="translate(0 0.765625)"/>
       <use xlink:href="#DejaVuSans-30" transform="translate(63.623047 0.765625)"/>
       <use xlink:href="#DejaVuSans-2212" transform="translate(128.203125 39.046875) scale(0.7)"/>
       <use xlink:href="#DejaVuSans-31" transform="translate(186.855469 39.046875) scale(0.7)"/>
       <use xlink:href="#DejaVuSans-32" transform="translate(231.391602 39.046875) scale(0.7)"/>
      </g>
     </g>
    </g>
    <g id="ytick_2">
     <g id="line2d_16">
      <g>
       <use xlink:href="#ma9e663a3a4" x="60.232639" y="50.097927" style="stroke: #000000; stroke-width: 0.8"/>
      </g>
     </g>
     <g id="text_5">
      <!-- $\mathdefault{10^{-11}}$ -->
      <g transform="translate(25.332639 53.897146) scale(0.1 -0.1)">
       <use xlink:href="#DejaVuSans-31" transform="translate(0 0.684375)"/>
       <use xlink:href="#DejaVuSans-30" transform="translate(63.623047 0.684375)"/>
       <use xlink:href="#DejaVuSans-2212" transform="translate(128.203125 38.965625) scale(0.7)"/>
       <use xlink:href="#DejaVuSans-31" transform="translate(186.855469 38.965625) scale(0.7)"/>
       <use xlink:href="#DejaVuSans-31" transform="translate(231.391602 38.965625) scale(0.7)"/>
      </g>
     </g>
    </g>
    <g id="ytick_3">
     <g id="line2d_17">
      <defs>
       <path id="ma93a42773c" d="M 0 0 
L -2 0 
" style="stroke: #000000; stroke-width: 0.6"/>
      </defs>
      <g>
       <use xlink:href="#ma93a42773c" x="60.232639" y="232.810381" style="stroke: #000000; stroke-width: 0.6"/>
      </g>
     </g>
    </g>
    <g id="ytick_4">
     <g id="line2d_18">
      <g>
       <use xlink:href="#ma93a42773c" x="60.232639" y="213.872986" style="stroke: #000000; stroke-width: 0.6"/>
      </g>
     </g>
    </g>
    <g id="ytick_5">
     <g id="line2d_19">
      <g>
       <use xlink:href="#ma93a42773c" x="60.232639" y="200.436691" style="stroke: #000000; stroke-width: 0.6"/>
      </g>
     </g>
    </g>
    <g id="ytick_6">
     <g id="line2d_20">
      <g>
       <use xlink:href="#ma93a42773c" x="60.232639" y="190.01469" style="stroke: #000000; stroke-width: 0.6"/>
      </g>
     </g>
    </g>
    <g id="ytick_7">
     <g id="line2d_21">
      <g>
       <use xlink:href="#ma93a42773c" x="60.232639" y="181.499296" style="stroke: #000000; stroke-width: 0.6"/>
      </g>
     </g>
    </g>
    <g id="ytick_8">
     <g id="line2d_22">
      <g>
       <use xlink:href="#ma93a42773c" x="60.232639" y="174.299632" style="stroke: #000000; stroke-width: 0.6"/>
      </g>
     </g>
    </g>
    <g id="ytick_9">
     <g id="line2d_23">
      <g>
       <use xlink:href="#ma93a42773c" x="60.232639" y="168.063" style="stroke: #000000; stroke-width: 0.6"/>
      </g>
     </g>
    </g>
    <g id="ytick_10">
     <g id="line2d_24">
      <g>
       <use xlink:href="#ma93a42773c" x="60.232639" y="162.561901" style="stroke: #000000; stroke-width: 0.6"/>
      </g>
     </g>
    </g>
    <g id="ytick_11">
     <g id="line2d_25">
      <g>
       <use xlink:href="#ma93a42773c" x="60.232639" y="125.267309" style="stroke: #000000; stroke-width: 0.6"/>
      </g>
     </g>
    </g>
    <g id="ytick_12">
     <g id="line2d_26">
      <g>
       <use xlink:href="#ma93a42773c" x="60.232639" y="106.329914" style="stroke: #000000; stroke-width: 0.6"/>
      </g>
     </g>
    </g>
    <g id="ytick_13">
     <g id="line2d_27">
      <g>
       <use xlink:href="#ma93a42773c" x="60.232639" y="92.893618" style="stroke: #000000; stroke-width: 0.6"/>
      </g>
     </g>
    </g>
    <g id="ytick_14">
     <g id="line2d_28">
      <g>
       <use xlink:href="#ma93a42773c" x="60.232639" y="82.471618" style="stroke: #000000; stroke-width: 0.6"/>
      </g>
     </g>
    </g>
    <g id="ytick_15">
     <g id="line2d_29">
      <g>
       <use xlink:href="#ma93a42773c" x="60.232639" y="73.956223" style="stroke: #000000; stroke-width: 0.6"/>
      </g>
     </g>
    </g>
    <g id="ytick_16">
     <g id="line2d_30">
      <g>
       <use xlink:href="#ma93a42773c" x="60.232639" y="66.75656" style="stroke: #000000; stroke-width: 0.6"/>
      </g>
     </g>
    </g>
    <g id="ytick_17">
     <g id="line2d_31">
      <g>
       <use xlink:href="#ma93a42773c" x="60.232639" y="60.519927" style="stroke: #000000; stroke-width: 0.6"/>
      </g>
     </g>
    </g>
    <g id="ytick_18">
     <g id="line2d_32">
      <g>
       <use xlink:href="#ma93a42773c" x="60.232639" y="55.018828" style="stroke: #000000; stroke-width: 0.6"/>
      </g>
     </g>
    </g>
    <g id="text_6">
     <!-- e2 * dnde [TeV / (cm2 s)] -->
     <g transform="translate(19.252952 196.563688) rotate(-90) scale(0.1 -0.1)">
      <defs>
       <path id="DejaVuSans-2a" d="M 3009 3897 
L 1888 3291 
L 3009 2681 
L 2828 2375 
L 1778 3009 
L 1778 1831 
L 1422 1831 
L 1422 3009 
L 372 2375 
L 191 2681 
L 1313 3291 
L 191 3897 
L 372 4206 
L 1422 3572 
L 1422 4750 
L 1778 4750 
L 1778 3572 
L 2828 4206 
L 3009 3897 
z
" transform="scale(0.015625)"/>
       <path id="DejaVuSans-64" d="M 2906 2969 
L 2906 4863 
L 3481 4863 
L 3481 0 
L 2906 0 
L 2906 525 
Q 2725 213 2448 61 
Q 2172 -91 1784 -91 
Q 1150 -91 751 415 
Q 353 922 353 1747 
Q 353 2572 751 3078 
Q 1150 3584 1784 3584 
Q 2172 3584 2448 3432 
Q 2725 3281 2906 2969 
z
M 947 1747 
Q 947 1113 1208 752 
Q 1469 391 1925 391 
Q 2381 391 2643 752 
Q 2906 1113 2906 1747 
Q 2906 2381 2643 2742 
Q 2381 3103 1925 3103 
Q 1469 3103 1208 2742 
Q 947 2381 947 1747 
z
" transform="scale(0.015625)"/>
       <path id="DejaVuSans-2f" d="M 1625 4666 
L 2156 4666 
L 531 -594 
L 0 -594 
L 1625 4666 
z
" transform="scale(0.015625)"/>
       <path id="DejaVuSans-28" d="M 1984 4856 
Q 1566 4138 1362 3434 
Q 1159 2731 1159 2009 
Q 1159 1288 1364 580 
Q 1569 -128 1984 -844 
L 1484 -844 
Q 1016 -109 783 600 
Q 550 1309 550 2009 
Q 550 2706 781 3412 
Q 1013 4119 1484 4856 
L 1984 4856 
z
" transform="scale(0.015625)"/>
       <path id="DejaVuSans-63" d="M 3122 3366 
L 3122 2828 
Q 2878 2963 2633 3030 
Q 2388 3097 2138 3097 
Q 1578 3097 1268 2742 
Q 959 2388 959 1747 
Q 959 1106 1268 751 
Q 1578 397 2138 397 
Q 2388 397 2633 464 
Q 2878 531 3122 666 
L 3122 134 
Q 2881 22 2623 -34 
Q 2366 -91 2075 -91 
Q 1284 -91 818 406 
Q 353 903 353 1747 
Q 353 2603 823 3093 
Q 1294 3584 2113 3584 
Q 2378 3584 2631 3529 
Q 2884 3475 3122 3366 
z
" transform="scale(0.015625)"/>
       <path id="DejaVuSans-6d" d="M 3328 2828 
Q 3544 3216 3844 3400 
Q 4144 3584 4550 3584 
Q 5097 3584 5394 3201 
Q 5691 2819 5691 2113 
L 5691 0 
L 5113 0 
L 5113 2094 
Q 5113 2597 4934 2840 
Q 4756 3084 4391 3084 
Q 3944 3084 3684 2787 
Q 3425 2491 3425 1978 
L 3425 0 
L 2847 0 
L 2847 2094 
Q 2847 2600 2669 2842 
Q 2491 3084 2119 3084 
Q 1678 3084 1418 2786 
Q 1159 2488 1159 1978 
L 1159 0 
L 581 0 
L 581 3500 
L 1159 3500 
L 1159 2956 
Q 1356 3278 1631 3431 
Q 1906 3584 2284 3584 
Q 2666 3584 2933 3390 
Q 3200 3197 3328 2828 
z
" transform="scale(0.015625)"/>
       <path id="DejaVuSans-73" d="M 2834 3397 
L 2834 2853 
Q 2591 2978 2328 3040 
Q 2066 3103 1784 3103 
Q 1356 3103 1142 2972 
Q 928 2841 928 2578 
Q 928 2378 1081 2264 
Q 1234 2150 1697 2047 
L 1894 2003 
Q 2506 1872 2764 1633 
Q 3022 1394 3022 966 
Q 3022 478 2636 193 
Q 2250 -91 1575 -91 
Q 1294 -91 989 -36 
Q 684 19 347 128 
L 347 722 
Q 666 556 975 473 
Q 1284 391 1588 391 
Q 1994 391 2212 530 
Q 2431 669 2431 922 
Q 2431 1156 2273 1281 
Q 2116 1406 1581 1522 
L 1381 1569 
Q 847 1681 609 1914 
Q 372 2147 372 2553 
Q 372 3047 722 3315 
Q 1072 3584 1716 3584 
Q 2034 3584 2315 3537 
Q 2597 3491 2834 3397 
z
" transform="scale(0.015625)"/>
       <path id="DejaVuSans-29" d="M 513 4856 
L 1013 4856 
Q 1481 4119 1714 3412 
Q 1947 2706 1947 2009 
Q 1947 1309 1714 600 
Q 1481 -109 1013 -844 
L 513 -844 
Q 928 -128 1133 580 
Q 1338 1288 1338 2009 
Q 1338 2731 1133 3434 
Q 928 4138 513 4856 
z
" transform="scale(0.015625)"/>
      </defs>
      <use xlink:href="#DejaVuSans-65"/>
      <use xlink:href="#DejaVuSans-32" x="61.523438"/>
      <use xlink:href="#DejaVuSans-20" x="125.146484"/>
      <use xlink:href="#DejaVuSans-2a" x="156.933594"/>
      <use xlink:href="#DejaVuSans-20" x="206.933594"/>
      <use xlink:href="#DejaVuSans-64" x="238.720703"/>
      <use xlink:href="#DejaVuSans-6e" x="302.197266"/>
      <use xlink:href="#DejaVuSans-64" x="365.576172"/>
      <use xlink:href="#DejaVuSans-65" x="429.052734"/>
      <use xlink:href="#DejaVuSans-20" x="490.576172"/>
      <use xlink:href="#DejaVuSans-5b" x="522.363281"/>
      <use xlink:href="#DejaVuSans-54" x="561.376953"/>
      <use xlink:href="#DejaVuSans-65" x="605.460938"/>
      <use xlink:href="#DejaVuSans-56" x="666.984375"/>
      <use xlink:href="#DejaVuSans-20" x="735.392578"/>
      <use xlink:href="#DejaVuSans-2f" x="767.179688"/>
      <use xlink:href="#DejaVuSans-20" x="800.871094"/>
      <use xlink:href="#DejaVuSans-28" x="832.658203"/>
      <use xlink:href="#DejaVuSans-63" x="871.671875"/>
      <use xlink:href="#DejaVuSans-6d" x="926.652344"/>
      <use xlink:href="#DejaVuSans-32" x="1024.064453"/>
      <use xlink:href="#DejaVuSans-20" x="1087.6875"/>
      <use xlink:href="#DejaVuSans-73" x="1119.474609"/>
      <use xlink:href="#DejaVuSans-29" x="1171.574219"/>
      <use xlink:href="#DejaVuSans-5d" x="1210.587891"/>
     </g>
    </g>
   </g>
   <g id="line2d_33">
    <path d="M 73.367519 125.636513 
L 76.021031 126.153385 
L 78.674542 126.670256 
L 81.328053 127.187127 
L 83.981564 127.703999 
L 86.635075 128.22087 
L 89.288586 128.737742 
L 91.942097 129.254613 
L 94.595608 129.771484 
L 97.249119 130.288356 
L 99.902631 130.805227 
L 102.556142 131.322098 
L 105.209653 131.83897 
L 107.863164 132.355841 
L 110.516675 132.872712 
L 113.170186 133.389584 
L 115.823697 133.906455 
L 118.477208 134.423327 
L 121.130719 134.940198 
L 123.784231 135.457069 
L 126.437742 135.973941 
L 129.091253 136.490812 
L 131.744764 137.007683 
L 134.398275 137.524555 
L 137.051786 138.041426 
L 139.705297 138.558297 
L 142.358808 139.075169 
L 145.01232 139.59204 
L 147.665831 140.108912 
L 150.319342 140.625783 
L 152.972853 141.142654 
L 155.626364 141.659526 
L 158.279875 142.176397 
L 160.933386 142.693268 
L 163.586897 143.21014 
L 166.240408 143.727011 
L 168.89392 144.243882 
L 171.547431 144.760754 
L 174.200942 145.277625 
L 176.854453 145.794497 
L 179.507964 146.311368 
L 182.161475 146.828239 
L 184.814986 147.345111 
L 187.468497 147.861982 
L 190.122009 148.378853 
L 192.77552 148.895725 
L 195.429031 149.412596 
L 198.082542 149.929467 
L 200.736053 150.446339 
L 203.389564 150.96321 
L 206.043075 151.480082 
L 208.696586 151.996953 
L 211.350097 152.513824 
L 214.003609 153.030696 
L 216.65712 153.547567 
L 219.310631 154.064438 
L 221.964142 154.581309 
L 224.617653 155.098178 
L 227.271164 155.615046 
L 229.924675 156.131905 
L 232.578186 156.648745 
L 235.231698 157.165529 
L 237.885209 157.682161 
L 240.53872 158.198379 
L 243.192231 158.713471 
L 245.845742 159.225532 
L 248.499253 159.729548 
L 251.152764 160.212596 
L 253.806275 160.642271 
L 256.459786 160.940255 
L 259.113298 160.926541 
L 261.766809 160.216727 
L 264.42032 158.079967 
L 267.073831 153.375849 
L 269.727342 144.873061 
L 272.380853 132.104709 
L 275.034364 116.058137 
L 277.687875 98.803389 
L 280.341387 82.543112 
L 282.994898 69.064321 
L 285.648409 59.699797 
L 288.30192 55.466823 
L 290.955431 57.178076 
L 293.608942 65.455443 
L 296.262453 80.579886 
L 298.915964 101.992551 
L 301.569475 127.115365 
L 304.222987 150.038196 
L 306.876498 164.345761 
L 309.530009 170.120493 
L 312.18352 171.917913 
L 314.837031 172.645983 
L 317.490542 173.186764 
L 320.144053 173.705457 
L 322.797564 174.222419 
L 325.451076 174.739293 
L 328.104587 175.256164 
L 330.758098 175.773036 
L 333.411609 176.289907 
L 336.06512 176.806778 
" clip-path="url(#pe566fe0c8d)" style="fill: none; stroke: #000000; stroke-linecap: square"/>
   </g>
   <g id="line2d_34">
    <path d="M 73.367519 124.917944 
L 76.021031 125.440881 
L 78.674542 125.963818 
L 81.328053 126.486755 
L 83.981564 127.009692 
L 86.635075 127.532628 
L 89.288586 128.055565 
L 91.942097 128.578502 
L 94.595608 129.101439 
L 97.249119 129.624376 
L 99.902631 130.147312 
L 102.556142 130.670249 
L 105.209653 131.193186 
L 107.863164 131.716123 
L 110.516675 132.23906 
L 113.170186 132.761996 
L 115.823697 133.284933 
L 118.477208 133.80787 
L 121.130719 134.330807 
L 123.784231 134.853744 
L 126.437742 135.37668 
L 129.091253 135.899617 
L 131.744764 136.422554 
L 134.398275 136.945491 
L 137.051786 137.468428 
L 139.705297 137.991364 
L 142.358808 138.514301 
L 145.01232 139.037238 
L 147.665831 139.560175 
L 150.319342 140.083112 
L 152.972853 140.606048 
L 155.626364 141.128985 
L 158.279875 141.651922 
L 160.933386 142.174859 
L 163.586897 142.697796 
L 166.240408 143.220732 
L 168.89392 143.743669 
L 171.547431 144.266606 
L 174.200942 144.789543 
L 176.854453 145.31248 
L 179.507964 145.835417 
L 182.161475 146.358353 
L 184.814986 146.88129 
L 187.468497 147.404227 
L 190.122009 147.927164 
L 192.77552 148.450101 
L 195.429031 148.973037 
L 198.082542 149.495974 
L 200.736053 150.018911 
L 203.389564 150.541848 
L 206.043075 151.064785 
L 208.696586 151.587721 
L 211.350097 152.110658 
L 214.003609 152.633595 
L 216.65712 153.156532 
L 219.310631 153.679468 
L 221.964142 154.202404 
L 224.617653 154.72534 
L 227.271164 155.248272 
L 229.924675 155.771197 
L 232.578186 156.294103 
L 235.231698 156.816953 
L 237.885209 157.339654 
L 240.53872 157.861944 
L 243.192231 158.383121 
L 245.845742 158.901303 
L 248.499253 159.411534 
L 251.152764 159.901042 
L 253.806275 160.337805 
L 256.459786 160.64442 
L 259.113298 160.64294 
L 261.766809 159.953133 
L 264.42032 157.851136 
L 267.073831 153.204281 
L 269.727342 144.78185 
L 272.380853 132.10252 
L 275.034364 116.131744 
L 277.687875 98.927007 
L 280.341387 82.691212 
L 282.994898 69.216937 
L 285.648409 59.842125 
L 288.30192 55.58728 
L 290.955431 57.266584 
L 293.608942 65.502239 
L 296.262453 80.574875 
L 298.915964 101.926047 
L 301.569475 126.983714 
L 304.222987 149.857833 
L 306.876498 164.152914 
L 309.530009 169.936646 
L 312.18352 171.743858 
L 314.837031 172.47915 
L 317.490542 173.026193 
L 320.144053 173.550972 
L 322.797564 174.074001 
L 325.451076 174.596941 
L 328.104587 175.119878 
L 330.758098 175.642814 
L 333.411609 176.165751 
L 336.06512 176.688688 
" clip-path="url(#pe566fe0c8d)" style="fill: none; stroke-dasharray: 7.4,3.2; stroke-dashoffset: 0; stroke: #191970; stroke-opacity: 0.95; stroke-width: 2"/>
   </g>
   <g id="line2d_35">
    <path d="M 73.367519 124.97649 
L 76.021031 125.498609 
L 78.674542 126.020728 
L 81.328053 126.542848 
L 83.981564 127.064967 
L 86.635075 127.587086 
L 89.288586 128.109205 
L 91.942097 128.631324 
L 94.595608 129.153444 
L 97.249119 129.675563 
L 99.902631 130.197682 
L 102.556142 130.719801 
L 105.209653 131.241921 
L 107.863164 131.76404 
L 110.516675 132.286159 
L 113.170186 132.808278 
L 115.823697 133.330397 
L 118.477208 133.852517 
L 121.130719 134.374636 
L 123.784231 134.896755 
L 126.437742 135.418874 
L 129.091253 135.940993 
L 131.744764 136.463113 
L 134.398275 136.985232 
L 137.051786 137.507351 
L 139.705297 138.02947 
L 142.358808 138.55159 
L 145.01232 139.073709 
L 147.665831 139.595828 
L 150.319342 140.117947 
L 152.972853 140.640066 
L 155.626364 141.162186 
L 158.279875 141.684305 
L 160.933386 142.206424 
L 163.586897 142.728543 
L 166.240408 143.250663 
L 168.89392 143.772782 
L 171.547431 144.294901 
L 174.200942 144.81702 
L 176.854453 145.339139 
L 179.507964 145.861259 
L 182.161475 146.383378 
L 184.814986 146.905497 
L 187.468497 147.427616 
L 190.122009 147.949735 
L 192.77552 148.471855 
L 195.429031 148.993974 
L 198.082542 149.516093 
L 200.736053 150.038212 
L 203.389564 150.560332 
L 206.043075 151.082451 
L 208.696586 151.60457 
L 211.350097 152.126689 
L 214.003609 152.648808 
L 216.65712 153.170928 
L 219.310631 153.693047 
L 221.964142 154.215165 
L 224.617653 154.737283 
L 227.271164 155.259398 
L 229.924675 155.781506 
L 232.578186 156.303594 
L 235.231698 156.82563 
L 237.885209 157.347518 
L 240.53872 157.869004 
L 243.192231 158.389396 
L 245.845742 158.906838 
L 248.499253 159.416435 
L 251.152764 159.905543 
L 253.806275 160.3424 
L 256.459786 160.650078 
L 259.113298 160.651384 
L 261.766809 159.966938 
L 264.42032 157.872976 
L 267.073831 153.234355 
L 269.727342 144.814209 
L 272.380853 132.125123 
L 275.034364 116.133242 
L 277.687875 98.903558 
L 280.341387 82.647308 
L 282.994898 69.162798 
L 285.648409 59.791332 
L 288.30192 55.555462 
L 290.955431 57.270593 
L 293.608942 65.55893 
L 296.262453 80.697883 
L 298.915964 102.116756 
L 301.569475 127.211039 
L 304.222987 150.044889 
L 306.876498 164.241571 
L 309.530009 169.953982 
L 312.18352 171.735188 
L 314.837031 172.464163 
L 317.490542 173.0096 
L 320.144053 173.533487 
L 322.797564 174.055694 
L 325.451076 174.577815 
L 328.104587 175.099935 
L 330.758098 175.622054 
L 333.411609 176.144173 
L 336.06512 176.666292 
" clip-path="url(#pe566fe0c8d)" style="fill: none; stroke: #c71585; stroke-width: 1.5; stroke-linecap: square"/>
   </g>
   <g id="patch_3">
    <path d="M 60.232639 242.728 
L 60.232639 25.44 
" style="fill: none; stroke: #000000; stroke-width: 0.8; stroke-linejoin: miter; stroke-linecap: square"/>
   </g>
   <g id="patch_4">
    <path d="M 349.2 242.728 
L 349.2 25.44 
" style="fill: none; stroke: #000000; stroke-width: 0.8; stroke-linejoin: miter; stroke-linecap: square"/>
   </g>
   <g id="patch_5">
    <path d="M 60.232639 242.728 
L 349.2 242.728 
" style="fill: none; stroke: #000000; stroke-width: 0.8; stroke-linejoin: miter; stroke-linecap: square"/>
   </g>
   <g id="patch_6">
    <path d="M 60.232639 25.44 
L 349.2 25.44 
" style="fill: none; stroke: #000000; stroke-width: 0.8; stroke-linejoin: miter; stroke-linecap: square"/>
   </g>
   <g id="text_7">
    <!-- sys_assumed = 10% -->
    <g transform="translate(142.660382 19.44) scale(0.12 -0.12)">
     <defs>
      <path id="DejaVuSans-5f" d="M 3263 -1063 
L 3263 -1509 
L -63 -1509 
L -63 -1063 
L 3263 -1063 
z
" transform="scale(0.015625)"/>
      <path id="DejaVuSans-61" d="M 2194 1759 
Q 1497 1759 1228 1600 
Q 959 1441 959 1056 
Q 959 750 1161 570 
Q 1363 391 1709 391 
Q 2188 391 2477 730 
Q 2766 1069 2766 1631 
L 2766 1759 
L 2194 1759 
z
M 3341 1997 
L 3341 0 
L 2766 0 
L 2766 531 
Q 2569 213 2275 61 
Q 1981 -91 1556 -91 
Q 1019 -91 701 211 
Q 384 513 384 1019 
Q 384 1609 779 1909 
Q 1175 2209 1959 2209 
L 2766 2209 
L 2766 2266 
Q 2766 2663 2505 2880 
Q 2244 3097 1772 3097 
Q 1472 3097 1187 3025 
Q 903 2953 641 2809 
L 641 3341 
Q 956 3463 1253 3523 
Q 1550 3584 1831 3584 
Q 2591 3584 2966 3190 
Q 3341 2797 3341 1997 
z
" transform="scale(0.015625)"/>
      <path id="DejaVuSans-75" d="M 544 1381 
L 544 3500 
L 1119 3500 
L 1119 1403 
Q 1119 906 1312 657 
Q 1506 409 1894 409 
Q 2359 409 2629 706 
Q 2900 1003 2900 1516 
L 2900 3500 
L 3475 3500 
L 3475 0 
L 2900 0 
L 2900 538 
Q 2691 219 2414 64 
Q 2138 -91 1772 -91 
Q 1169 -91 856 284 
Q 544 659 544 1381 
z
M 1991 3584 
L 1991 3584 
z
" transform="scale(0.015625)"/>
      <path id="DejaVuSans-3d" d="M 678 2906 
L 4684 2906 
L 4684 2381 
L 678 2381 
L 678 2906 
z
M 678 1631 
L 4684 1631 
L 4684 1100 
L 678 1100 
L 678 1631 
z
" transform="scale(0.015625)"/>
      <path id="DejaVuSans-25" d="M 4653 2053 
Q 4381 2053 4226 1822 
Q 4072 1591 4072 1178 
Q 4072 772 4226 539 
Q 4381 306 4653 306 
Q 4919 306 5073 539 
Q 5228 772 5228 1178 
Q 5228 1588 5073 1820 
Q 4919 2053 4653 2053 
z
M 4653 2450 
Q 5147 2450 5437 2106 
Q 5728 1763 5728 1178 
Q 5728 594 5436 251 
Q 5144 -91 4653 -91 
Q 4153 -91 3862 251 
Q 3572 594 3572 1178 
Q 3572 1766 3864 2108 
Q 4156 2450 4653 2450 
z
M 1428 4353 
Q 1159 4353 1004 4120 
Q 850 3888 850 3481 
Q 850 3069 1003 2837 
Q 1156 2606 1428 2606 
Q 1700 2606 1854 2837 
Q 2009 3069 2009 3481 
Q 2009 3884 1853 4118 
Q 1697 4353 1428 4353 
z
M 4250 4750 
L 4750 4750 
L 1831 -91 
L 1331 -91 
L 4250 4750 
z
M 1428 4750 
Q 1922 4750 2215 4408 
Q 2509 4066 2509 3481 
Q 2509 2891 2217 2550 
Q 1925 2209 1428 2209 
Q 931 2209 642 2551 
Q 353 2894 353 3481 
Q 353 4063 643 4406 
Q 934 4750 1428 4750 
z
" transform="scale(0.015625)"/>
     </defs>
     <use xlink:href="#DejaVuSans-73"/>
     <use xlink:href="#DejaVuSans-79" x="52.099609"/>
     <use xlink:href="#DejaVuSans-73" x="111.279297"/>
     <use xlink:href="#DejaVuSans-5f" x="163.378906"/>
     <use xlink:href="#DejaVuSans-61" x="213.378906"/>
     <use xlink:href="#DejaVuSans-73" x="274.658203"/>
     <use xlink:href="#DejaVuSans-73" x="326.757812"/>
     <use xlink:href="#DejaVuSans-75" x="378.857422"/>
     <use xlink:href="#DejaVuSans-6d" x="442.236328"/>
     <use xlink:href="#DejaVuSans-65" x="539.648438"/>
     <use xlink:href="#DejaVuSans-64" x="601.171875"/>
     <use xlink:href="#DejaVuSans-20" x="664.648438"/>
     <use xlink:href="#DejaVuSans-3d" x="696.435547"/>
     <use xlink:href="#DejaVuSans-20" x="780.224609"/>
     <use xlink:href="#DejaVuSans-31" x="812.011719"/>
     <use xlink:href="#DejaVuSans-30" x="875.634766"/>
     <use xlink:href="#DejaVuSans-25" x="939.257812"/>
    </g>
   </g>
   <g id="legend_1">
    <g id="patch_7">
     <path d="M 67.232639 237.728 
L 209.773264 237.728 
Q 211.773264 237.728 211.773264 235.728 
L 211.773264 163.337375 
Q 211.773264 161.337375 209.773264 161.337375 
L 67.232639 161.337375 
Q 65.232639 161.337375 65.232639 163.337375 
L 65.232639 235.728 
Q 65.232639 237.728 67.232639 237.728 
z
" style="fill: #ffffff; opacity: 0.8; stroke: #cccccc; stroke-linejoin: miter"/>
    </g>
    <g id="line2d_36">
     <path d="M 69.232639 169.435812 
L 79.232639 169.435812 
L 89.232639 169.435812 
" style="fill: none; stroke: #000000; stroke-linecap: square"/>
    </g>
    <g id="text_8">
     <!-- Input -->
     <g transform="translate(97.232639 172.935812) scale(0.1 -0.1)">
      <defs>
       <path id="DejaVuSans-49" d="M 628 4666 
L 1259 4666 
L 1259 0 
L 628 0 
L 628 4666 
z
" transform="scale(0.015625)"/>
       <path id="DejaVuSans-70" d="M 1159 525 
L 1159 -1331 
L 581 -1331 
L 581 3500 
L 1159 3500 
L 1159 2969 
Q 1341 3281 1617 3432 
Q 1894 3584 2278 3584 
Q 2916 3584 3314 3078 
Q 3713 2572 3713 1747 
Q 3713 922 3314 415 
Q 2916 -91 2278 -91 
Q 1894 -91 1617 61 
Q 1341 213 1159 525 
z
M 3116 1747 
Q 3116 2381 2855 2742 
Q 2594 3103 2138 3103 
Q 1681 3103 1420 2742 
Q 1159 2381 1159 1747 
Q 1159 1113 1420 752 
Q 1681 391 2138 391 
Q 2594 391 2855 752 
Q 3116 1113 3116 1747 
z
" transform="scale(0.015625)"/>
       <path id="DejaVuSans-74" d="M 1172 4494 
L 1172 3500 
L 2356 3500 
L 2356 3053 
L 1172 3053 
L 1172 1153 
Q 1172 725 1289 603 
Q 1406 481 1766 481 
L 2356 481 
L 2356 0 
L 1766 0 
Q 1100 0 847 248 
Q 594 497 594 1153 
L 594 3053 
L 172 3053 
L 172 3500 
L 594 3500 
L 594 4494 
L 1172 4494 
z
" transform="scale(0.015625)"/>
      </defs>
      <use xlink:href="#DejaVuSans-49"/>
      <use xlink:href="#DejaVuSans-6e" x="29.492188"/>
      <use xlink:href="#DejaVuSans-70" x="92.871094"/>
      <use xlink:href="#DejaVuSans-75" x="156.347656"/>
      <use xlink:href="#DejaVuSans-74" x="219.726562"/>
     </g>
    </g>
    <g id="line2d_37">
     <path d="M 69.232639 184.113937 
L 79.232639 184.113937 
L 89.232639 184.113937 
" style="fill: none; stroke-dasharray: 7.4,3.2; stroke-dashoffset: 0; stroke: #191970; stroke-opacity: 0.95; stroke-width: 2"/>
    </g>
    <g id="text_9">
     <!-- Best Fit with Nuisance -->
     <g transform="translate(97.232639 187.613937) scale(0.1 -0.1)">
      <defs>
       <path id="DejaVuSans-42" d="M 1259 2228 
L 1259 519 
L 2272 519 
Q 2781 519 3026 730 
Q 3272 941 3272 1375 
Q 3272 1813 3026 2020 
Q 2781 2228 2272 2228 
L 1259 2228 
z
M 1259 4147 
L 1259 2741 
L 2194 2741 
Q 2656 2741 2882 2914 
Q 3109 3088 3109 3444 
Q 3109 3797 2882 3972 
Q 2656 4147 2194 4147 
L 1259 4147 
z
M 628 4666 
L 2241 4666 
Q 2963 4666 3353 4366 
Q 3744 4066 3744 3513 
Q 3744 3084 3544 2831 
Q 3344 2578 2956 2516 
Q 3422 2416 3680 2098 
Q 3938 1781 3938 1306 
Q 3938 681 3513 340 
Q 3088 0 2303 0 
L 628 0 
L 628 4666 
z
" transform="scale(0.015625)"/>
       <path id="DejaVuSans-46" d="M 628 4666 
L 3309 4666 
L 3309 4134 
L 1259 4134 
L 1259 2759 
L 3109 2759 
L 3109 2228 
L 1259 2228 
L 1259 0 
L 628 0 
L 628 4666 
z
" transform="scale(0.015625)"/>
       <path id="DejaVuSans-69" d="M 603 3500 
L 1178 3500 
L 1178 0 
L 603 0 
L 603 3500 
z
M 603 4863 
L 1178 4863 
L 1178 4134 
L 603 4134 
L 603 4863 
z
" transform="scale(0.015625)"/>
       <path id="DejaVuSans-77" d="M 269 3500 
L 844 3500 
L 1563 769 
L 2278 3500 
L 2956 3500 
L 3675 769 
L 4391 3500 
L 4966 3500 
L 4050 0 
L 3372 0 
L 2619 2869 
L 1863 0 
L 1184 0 
L 269 3500 
z
" transform="scale(0.015625)"/>
       <path id="DejaVuSans-68" d="M 3513 2113 
L 3513 0 
L 2938 0 
L 2938 2094 
Q 2938 2591 2744 2837 
Q 2550 3084 2163 3084 
Q 1697 3084 1428 2787 
Q 1159 2491 1159 1978 
L 1159 0 
L 581 0 
L 581 4863 
L 1159 4863 
L 1159 2956 
Q 1366 3272 1645 3428 
Q 1925 3584 2291 3584 
Q 2894 3584 3203 3211 
Q 3513 2838 3513 2113 
z
" transform="scale(0.015625)"/>
       <path id="DejaVuSans-4e" d="M 628 4666 
L 1478 4666 
L 3547 763 
L 3547 4666 
L 4159 4666 
L 4159 0 
L 3309 0 
L 1241 3903 
L 1241 0 
L 628 0 
L 628 4666 
z
" transform="scale(0.015625)"/>
      </defs>
      <use xlink:href="#DejaVuSans-42"/>
      <use xlink:href="#DejaVuSans-65" x="68.603516"/>
      <use xlink:href="#DejaVuSans-73" x="130.126953"/>
      <use xlink:href="#DejaVuSans-74" x="182.226562"/>
      <use xlink:href="#DejaVuSans-20" x="221.435547"/>
      <use xlink:href="#DejaVuSans-46" x="253.222656"/>
      <use xlink:href="#DejaVuSans-69" x="303.492188"/>
      <use xlink:href="#DejaVuSans-74" x="331.275391"/>
      <use xlink:href="#DejaVuSans-20" x="370.484375"/>
      <use xlink:href="#DejaVuSans-77" x="402.271484"/>
      <use xlink:href="#DejaVuSans-69" x="484.058594"/>
      <use xlink:href="#DejaVuSans-74" x="511.841797"/>
      <use xlink:href="#DejaVuSans-68" x="551.050781"/>
      <use xlink:href="#DejaVuSans-20" x="614.429688"/>
      <use xlink:href="#DejaVuSans-4e" x="646.216797"/>
      <use xlink:href="#DejaVuSans-75" x="721.021484"/>
      <use xlink:href="#DejaVuSans-69" x="784.400391"/>
      <use xlink:href="#DejaVuSans-73" x="812.183594"/>
      <use xlink:href="#DejaVuSans-61" x="864.283203"/>
      <use xlink:href="#DejaVuSans-6e" x="925.5625"/>
      <use xlink:href="#DejaVuSans-63" x="988.941406"/>
      <use xlink:href="#DejaVuSans-65" x="1043.921875"/>
     </g>
    </g>
    <g id="patch_8">
     <path d="M 69.232639 202.292062 
L 89.232639 202.292062 
L 89.232639 195.292062 
L 69.232639 195.292062 
z
" style="fill: #6495ed; fill-opacity: 0.5"/>
    </g>
    <g id="text_10">
     <!-- 1$\,\sigma_{tot}$ -->
     <g transform="translate(97.232639 202.292062) scale(0.1 -0.1)">
      <defs>
       <path id="DejaVuSans-Oblique-3c3" d="M 2219 3044 
Q 1744 3044 1422 2700 
Q 1081 2341 969 1747 
Q 844 1119 1044 756 
Q 1241 397 1706 397 
Q 2166 397 2503 759 
Q 2844 1122 2966 1747 
Q 3075 2319 2881 2700 
Q 2700 3044 2219 3044 
z
M 2309 3503 
L 4219 3500 
L 4106 2925 
L 3463 2925 
Q 3706 2438 3575 1747 
Q 3406 888 2884 400 
Q 2359 -91 1609 -91 
Q 856 -91 525 400 
Q 194 888 363 1747 
Q 528 2609 1050 3097 
Q 1484 3503 2309 3503 
z
" transform="scale(0.015625)"/>
       <path id="DejaVuSans-Oblique-74" d="M 2706 3500 
L 2619 3053 
L 1472 3053 
L 1100 1153 
Q 1081 1047 1072 975 
Q 1063 903 1063 863 
Q 1063 663 1183 572 
Q 1303 481 1569 481 
L 2150 481 
L 2053 0 
L 1503 0 
Q 991 0 739 200 
Q 488 400 488 806 
Q 488 878 497 964 
Q 506 1050 525 1153 
L 897 3053 
L 409 3053 
L 500 3500 
L 978 3500 
L 1172 4494 
L 1747 4494 
L 1556 3500 
L 2706 3500 
z
" transform="scale(0.015625)"/>
       <path id="DejaVuSans-Oblique-6f" d="M 1625 -91 
Q 1009 -91 651 289 
Q 294 669 294 1325 
Q 294 1706 417 2101 
Q 541 2497 738 2766 
Q 1047 3184 1428 3384 
Q 1809 3584 2291 3584 
Q 2888 3584 3255 3212 
Q 3622 2841 3622 2241 
Q 3622 1825 3500 1412 
Q 3378 1000 3181 728 
Q 2875 309 2494 109 
Q 2113 -91 1625 -91 
z
M 891 1344 
Q 891 869 1089 633 
Q 1288 397 1691 397 
Q 2269 397 2648 901 
Q 3028 1406 3028 2181 
Q 3028 2634 2825 2865 
Q 2622 3097 2228 3097 
Q 1903 3097 1650 2945 
Q 1397 2794 1197 2484 
Q 1050 2253 970 1956 
Q 891 1659 891 1344 
z
" transform="scale(0.015625)"/>
      </defs>
      <use xlink:href="#DejaVuSans-31" transform="translate(0 0.09375)"/>
      <use xlink:href="#DejaVuSans-Oblique-3c3" transform="translate(79.858723 0.09375)"/>
      <use xlink:href="#DejaVuSans-Oblique-74" transform="translate(143.237629 -16.3125) scale(0.7)"/>
      <use xlink:href="#DejaVuSans-Oblique-6f" transform="translate(170.683918 -16.3125) scale(0.7)"/>
      <use xlink:href="#DejaVuSans-Oblique-74" transform="translate(213.511067 -16.3125) scale(0.7)"/>
     </g>
    </g>
    <g id="line2d_38">
     <path d="M 69.232639 213.470187 
L 79.232639 213.470187 
L 89.232639 213.470187 
" style="fill: none; stroke: #c71585; stroke-width: 1.5; stroke-linecap: square"/>
    </g>
    <g id="text_11">
     <!-- Best Fit -->
     <g transform="translate(97.232639 216.970187) scale(0.1 -0.1)">
      <use xlink:href="#DejaVuSans-42"/>
      <use xlink:href="#DejaVuSans-65" x="68.603516"/>
      <use xlink:href="#DejaVuSans-73" x="130.126953"/>
      <use xlink:href="#DejaVuSans-74" x="182.226562"/>
      <use xlink:href="#DejaVuSans-20" x="221.435547"/>
      <use xlink:href="#DejaVuSans-46" x="253.222656"/>
      <use xlink:href="#DejaVuSans-69" x="303.492188"/>
      <use xlink:href="#DejaVuSans-74" x="331.275391"/>
     </g>
    </g>
    <g id="patch_9">
     <path d="M 69.232639 231.648312 
L 89.232639 231.648312 
L 89.232639 224.648312 
L 69.232639 224.648312 
z
" style="fill: #db7093; fill-opacity: 0.9"/>
    </g>
    <g id="text_12">
     <!-- 1$\,\sigma_{stat}$ -->
     <g transform="translate(97.232639 231.648312) scale(0.1 -0.1)">
      <defs>
       <path id="DejaVuSans-Oblique-73" d="M 3200 3397 
L 3091 2853 
Q 2863 2978 2609 3040 
Q 2356 3103 2088 3103 
Q 1634 3103 1373 2948 
Q 1113 2794 1113 2528 
Q 1113 2219 1719 2053 
Q 1766 2041 1788 2034 
L 1972 1978 
Q 2547 1819 2739 1644 
Q 2931 1469 2931 1166 
Q 2931 609 2489 259 
Q 2047 -91 1331 -91 
Q 1053 -91 747 -37 
Q 441 16 72 128 
L 184 722 
Q 500 559 806 475 
Q 1113 391 1394 391 
Q 1816 391 2080 572 
Q 2344 753 2344 1031 
Q 2344 1331 1650 1516 
L 1591 1531 
L 1394 1581 
Q 956 1697 753 1886 
Q 550 2075 550 2369 
Q 550 2928 970 3256 
Q 1391 3584 2113 3584 
Q 2397 3584 2667 3537 
Q 2938 3491 3200 3397 
z
" transform="scale(0.015625)"/>
       <path id="DejaVuSans-Oblique-61" d="M 3438 1997 
L 3047 0 
L 2472 0 
L 2578 531 
Q 2325 219 2001 64 
Q 1678 -91 1281 -91 
Q 834 -91 548 182 
Q 263 456 263 884 
Q 263 1497 752 1853 
Q 1241 2209 2100 2209 
L 2900 2209 
L 2931 2363 
Q 2938 2388 2941 2417 
Q 2944 2447 2944 2509 
Q 2944 2788 2717 2942 
Q 2491 3097 2081 3097 
Q 1800 3097 1504 3025 
Q 1209 2953 897 2809 
L 997 3341 
Q 1322 3463 1633 3523 
Q 1944 3584 2234 3584 
Q 2853 3584 3176 3315 
Q 3500 3047 3500 2534 
Q 3500 2431 3484 2292 
Q 3469 2153 3438 1997 
z
M 2816 1759 
L 2241 1759 
Q 1534 1759 1195 1570 
Q 856 1381 856 984 
Q 856 709 1029 553 
Q 1203 397 1509 397 
Q 1978 397 2328 733 
Q 2678 1069 2791 1631 
L 2816 1759 
z
" transform="scale(0.015625)"/>
      </defs>
      <use xlink:href="#DejaVuSans-31" transform="translate(0 0.09375)"/>
      <use xlink:href="#DejaVuSans-Oblique-3c3" transform="translate(79.858723 0.09375)"/>
      <use xlink:href="#DejaVuSans-Oblique-73" transform="translate(143.237629 -16.3125) scale(0.7)"/>
      <use xlink:href="#DejaVuSans-Oblique-74" transform="translate(179.707356 -16.3125) scale(0.7)"/>
      <use xlink:href="#DejaVuSans-Oblique-61" transform="translate(207.153645 -16.3125) scale(0.7)"/>
      <use xlink:href="#DejaVuSans-Oblique-74" transform="translate(250.049153 -16.3125) scale(0.7)"/>
     </g>
    </g>
   </g>
  </g>
 </g>
 <defs>
  <clipPath id="pe566fe0c8d">
   <rect x="60.232639" y="25.44" width="288.967361" height="217.288"/>
  </clipPath>
 </defs>
</svg>
