<?xml version="1.0" encoding="utf-8" standalone="no"?>
<!DOCTYPE svg PUBLIC "-//W3C//DTD SVG 1.1//EN"
  "http://www.w3.org/Graphics/SVG/1.1/DTD/svg11.dtd">
<svg xmlns:xlink="http://www.w3.org/1999/xlink" width="360pt" height="288pt" viewBox="0 0 360 288" xmlns="http://www.w3.org/2000/svg" version="1.1">
 <metadata>
  <rdf:RDF xmlns:dc="http://purl.org/dc/elements/1.1/" xmlns:cc="http://creativecommons.org/ns#" xmlns:rdf="http://www.w3.org/1999/02/22-rdf-syntax-ns#">
   <cc:Work>
    <dc:type rdf:resource="http://purl.org/dc/dcmitype/StillImage"/>
    <dc:date>2023-05-04T13:56:50.364501</dc:date>
    <dc:format>image/svg+xml</dc:format>
    <dc:creator>
     <cc:Agent>
      <dc:title>Matplotlib v3.7.1, https://matplotlib.org/</dc:title>
     </cc:Agent>
    </dc:creator>
   </cc:Work>
  </rdf:RDF>
 </metadata>
 <defs>
  <style type="text/css">*{stroke-linejoin: round; stroke-linecap: butt}</style>
 </defs>
 <g id="figure_1">
  <g id="patch_1">
   <path d="M 0 288 
L 360 288 
L 360 0 
L 0 0 
z
" style="fill: #ffffff"/>
  </g>
  <g id="axes_1">
   <g id="patch_2">
    <path d="M 60.423889 242.728 
L 349.2 242.728 
L 349.2 25.44 
L 60.423889 25.44 
z
" style="fill: #ffffff"/>
   </g>
   <g id="PolyCollection_1">
    <path d="M 73.550076 201.870632 
L 73.550076 211.751047 
L 76.201831 211.950269 
L 78.853586 212.149706 
L 81.505341 212.349358 
L 84.157096 212.549227 
L 86.808851 212.749314 
L 89.460606 212.949622 
L 92.112361 213.150152 
L 94.764116 213.350906 
L 97.41587 213.551885 
L 100.067625 213.753092 
L 102.71938 213.954528 
L 105.371135 214.156195 
L 108.02289 214.358095 
L 110.674645 214.56023 
L 113.3264 214.762602 
L 115.978155 214.965212 
L 118.62991 215.168064 
L 121.281665 215.371159 
L 123.93342 215.574498 
L 126.585175 215.778085 
L 129.236929 215.981921 
L 131.888684 216.186009 
L 134.540439 216.39035 
L 137.192194 216.594948 
L 139.843949 216.799803 
L 142.495704 217.004919 
L 145.147459 217.210298 
L 147.799214 217.415942 
L 150.450969 217.621853 
L 153.102724 217.828035 
L 155.754479 218.034489 
L 158.406234 218.241217 
L 161.057989 218.448223 
L 163.709743 218.655509 
L 166.361498 218.863077 
L 169.013253 219.070929 
L 171.665008 219.27907 
L 174.316763 219.4875 
L 176.968518 219.696222 
L 179.620273 219.90524 
L 182.272028 220.114556 
L 184.923783 220.324173 
L 187.575538 220.534092 
L 190.227293 220.744317 
L 192.879048 220.954851 
L 195.530802 221.165696 
L 198.182557 221.376855 
L 200.834312 221.588331 
L 203.486067 221.800126 
L 206.137822 222.012243 
L 208.789577 222.224685 
L 211.441332 222.437454 
L 214.093087 222.650553 
L 216.744842 222.863986 
L 219.396597 223.077754 
L 222.048352 223.29186 
L 224.700107 223.506307 
L 227.351861 223.721098 
L 230.003616 223.936235 
L 232.655371 224.151721 
L 235.307126 224.367559 
L 237.958881 224.58375 
L 240.610636 224.800299 
L 243.262391 225.017206 
L 245.914146 225.234475 
L 248.565901 225.452108 
L 251.217656 225.670108 
L 253.869411 225.888477 
L 256.521166 226.107217 
L 259.172921 226.32633 
L 261.824675 226.54582 
L 264.47643 226.765687 
L 267.128185 226.985935 
L 269.77994 227.206565 
L 272.431695 227.427579 
L 275.08345 227.648979 
L 277.735205 227.870768 
L 280.38696 228.092947 
L 283.038715 228.30508 
L 285.69047 47197.623884 
L 288.342225 47197.623884 
L 290.99398 230.444091 
L 293.645734 229.209752 
L 296.297489 229.434306 
L 298.949244 229.659261 
L 301.600999 229.884618 
L 304.252754 230.110379 
L 306.904509 230.336544 
L 309.556264 230.563114 
L 312.208019 230.790091 
L 314.859774 231.017475 
L 317.511529 231.245267 
L 320.163284 231.473468 
L 322.815039 231.702077 
L 325.466793 231.931096 
L 328.118548 232.160525 
L 330.770303 232.390364 
L 333.422058 232.620613 
L 336.073813 232.851273 
L 336.073813 225.82887 
L 336.073813 225.82887 
L 333.422058 225.598518 
L 330.770303 225.367873 
L 328.118548 225.136937 
L 325.466793 224.905708 
L 322.815039 224.674189 
L 320.163284 224.442377 
L 317.511529 224.210276 
L 314.859774 223.977884 
L 312.208019 223.745202 
L 309.556264 223.512232 
L 306.904509 223.278973 
L 304.252754 223.045428 
L 301.600999 222.811596 
L 298.949244 222.57748 
L 296.297489 222.343079 
L 293.645734 222.108397 
L 290.99398 220.896834 
L 288.342225 35.316727 
L 285.69047 68.812608 
L 283.038715 221.174239 
L 280.38696 220.930795 
L 277.735205 220.694449 
L 275.08345 220.457831 
L 272.431695 220.220943 
L 269.77994 219.983789 
L 267.128185 219.746368 
L 264.47643 219.508685 
L 261.824675 219.27074 
L 259.172921 219.032536 
L 256.521166 218.794076 
L 253.869411 218.555361 
L 251.217656 218.316393 
L 248.565901 218.077177 
L 245.914146 217.837713 
L 243.262391 217.598004 
L 240.610636 217.358053 
L 237.958881 217.117862 
L 235.307126 216.877434 
L 232.655371 216.636772 
L 230.003616 216.395879 
L 227.351861 216.154756 
L 224.700107 215.913406 
L 222.048352 215.671834 
L 219.396597 215.43004 
L 216.744842 215.188028 
L 214.093087 214.945801 
L 211.441332 214.703361 
L 208.789577 214.460712 
L 206.137822 214.217855 
L 203.486067 213.974795 
L 200.834312 213.731533 
L 198.182557 213.488072 
L 195.530802 213.244416 
L 192.879048 213.000568 
L 190.227293 212.756529 
L 187.575538 212.512302 
L 184.923783 212.267892 
L 182.272028 212.0233 
L 179.620273 211.778529 
L 176.968518 211.533581 
L 174.316763 211.288461 
L 171.665008 211.04317 
L 169.013253 210.797711 
L 166.361498 210.552087 
L 163.709743 210.3063 
L 161.057989 210.060354 
L 158.406234 209.814251 
L 155.754479 209.567993 
L 153.102724 209.321583 
L 150.450969 209.075024 
L 147.799214 208.828318 
L 145.147459 208.581468 
L 142.495704 208.334477 
L 139.843949 208.087346 
L 137.192194 207.840079 
L 134.540439 207.592677 
L 131.888684 207.345144 
L 129.236929 207.097482 
L 126.585175 206.849692 
L 123.93342 206.601778 
L 121.281665 206.353741 
L 118.62991 206.105584 
L 115.978155 205.85731 
L 113.3264 205.60892 
L 110.674645 205.360416 
L 108.02289 205.111802 
L 105.371135 204.863078 
L 102.71938 204.614248 
L 100.067625 204.365312 
L 97.41587 204.116274 
L 94.764116 203.867135 
L 92.112361 203.617897 
L 89.460606 203.368563 
L 86.808851 203.119134 
L 84.157096 202.869612 
L 81.505341 202.619999 
L 78.853586 202.370297 
L 76.201831 202.120507 
L 73.550076 201.870632 
z
" clip-path="url(#paad4a5bb1a)" style="fill: #6495ed; fill-opacity: 0.5"/>
   </g>
   <g id="PolyCollection_2">
    <path d="M 73.550076 201.81995 
L 73.550076 211.794224 
L 76.201831 211.97627 
L 78.853586 212.158542 
L 81.505341 212.341043 
L 84.157096 212.523773 
L 86.808851 212.706734 
L 89.460606 212.889927 
L 92.112361 213.073355 
L 94.764116 213.257017 
L 97.41587 213.440917 
L 100.067625 213.625055 
L 102.71938 213.809435 
L 105.371135 213.994057 
L 108.02289 214.178924 
L 110.674645 214.364038 
L 113.3264 214.549401 
L 115.978155 214.735015 
L 118.62991 214.920883 
L 121.281665 215.107007 
L 123.93342 215.29339 
L 126.585175 215.480034 
L 129.236929 215.666943 
L 131.888684 215.854118 
L 134.540439 216.041564 
L 137.192194 216.229282 
L 139.843949 216.417277 
L 142.495704 216.605552 
L 145.147459 216.79411 
L 147.799214 216.982954 
L 150.450969 217.17209 
L 153.102724 217.361519 
L 155.754479 217.551247 
L 158.406234 217.741277 
L 161.057989 217.931613 
L 163.709743 218.122261 
L 166.361498 218.313225 
L 169.013253 218.504509 
L 171.665008 218.696119 
L 174.316763 218.888059 
L 176.968518 219.080334 
L 179.620273 219.272951 
L 182.272028 219.465914 
L 184.923783 219.65923 
L 187.575538 219.852905 
L 190.227293 220.046943 
L 192.879048 220.241353 
L 195.530802 220.43614 
L 198.182557 220.631312 
L 200.834312 220.826874 
L 203.486067 221.022834 
L 206.137822 221.219201 
L 208.789577 221.41598 
L 211.441332 221.61318 
L 214.093087 221.810809 
L 216.744842 222.008875 
L 219.396597 222.207387 
L 222.048352 222.406353 
L 224.700107 222.605781 
L 227.351861 222.805682 
L 230.003616 223.006064 
L 232.655371 223.206937 
L 235.307126 223.40831 
L 237.958881 223.610193 
L 240.610636 223.812597 
L 243.262391 224.015531 
L 245.914146 224.219007 
L 248.565901 224.423034 
L 251.217656 224.627623 
L 253.869411 224.832785 
L 256.521166 225.038532 
L 259.172921 225.244874 
L 261.824675 225.451823 
L 264.47643 225.65939 
L 267.128185 225.867587 
L 269.77994 226.076424 
L 272.431695 226.285914 
L 275.08345 226.496067 
L 277.735205 226.706896 
L 280.38696 226.918412 
L 283.038715 227.124845 
L 285.69047 47197.623884 
L 288.342225 47197.623884 
L 290.99398 228.787954 
L 293.645734 227.98668 
L 296.297489 228.202548 
L 298.949244 228.419177 
L 301.600999 228.636579 
L 304.252754 228.854763 
L 306.904509 229.073737 
L 309.556264 229.29351 
L 312.208019 229.514091 
L 314.859774 229.735486 
L 317.511529 229.957705 
L 320.163284 230.180752 
L 322.815039 230.404634 
L 325.466793 230.629356 
L 328.118548 230.854924 
L 330.770303 231.081341 
L 333.422058 231.308611 
L 336.073813 231.536736 
L 336.073813 226.80831 
L 336.073813 226.80831 
L 333.422058 226.575789 
L 330.770303 226.342587 
L 328.118548 226.108709 
L 325.466793 225.874157 
L 322.815039 225.638936 
L 320.163284 225.40305 
L 317.511529 225.166505 
L 314.859774 224.929308 
L 312.208019 224.691464 
L 309.556264 224.452981 
L 306.904509 224.213866 
L 304.252754 223.974129 
L 301.600999 223.733778 
L 298.949244 223.492821 
L 296.297489 223.251268 
L 293.645734 223.00913 
L 290.99398 222.00004 
L 288.342225 40.359922 
L 285.69047 74.842509 
L 283.038715 222.039431 
L 280.38696 221.79002 
L 277.735205 221.54459 
L 275.08345 221.298651 
L 272.431695 221.052214 
L 269.77994 220.805291 
L 267.128185 220.557893 
L 264.47643 220.310031 
L 261.824675 220.061718 
L 259.172921 219.812964 
L 256.521166 219.563782 
L 253.869411 219.314183 
L 251.217656 219.064177 
L 248.565901 218.813777 
L 245.914146 218.562993 
L 243.262391 218.311837 
L 240.610636 218.060318 
L 237.958881 217.808448 
L 235.307126 217.556237 
L 232.655371 217.303695 
L 230.003616 217.050832 
L 227.351861 216.797659 
L 224.700107 216.544184 
L 222.048352 216.290418 
L 219.396597 216.036369 
L 216.744842 215.782047 
L 214.093087 215.52746 
L 211.441332 215.272617 
L 208.789577 215.017527 
L 206.137822 214.762198 
L 203.486067 214.506637 
L 200.834312 214.250853 
L 198.182557 213.994852 
L 195.530802 213.738644 
L 192.879048 213.482234 
L 190.227293 213.22563 
L 187.575538 212.968838 
L 184.923783 212.711865 
L 182.272028 212.454718 
L 179.620273 212.197403 
L 176.968518 211.939925 
L 174.316763 211.682291 
L 171.665008 211.424507 
L 169.013253 211.166577 
L 166.361498 210.908508 
L 163.709743 210.650304 
L 161.057989 210.391971 
L 158.406234 210.133514 
L 155.754479 209.874937 
L 153.102724 209.616244 
L 150.450969 209.357441 
L 147.799214 209.098532 
L 145.147459 208.839521 
L 142.495704 208.580411 
L 139.843949 208.321208 
L 137.192194 208.061914 
L 134.540439 207.802534 
L 131.888684 207.543071 
L 129.236929 207.283528 
L 126.585175 207.02391 
L 123.93342 206.764219 
L 121.281665 206.504458 
L 118.62991 206.24463 
L 115.978155 205.984739 
L 113.3264 205.724788 
L 110.674645 205.464778 
L 108.02289 205.204714 
L 105.371135 204.944597 
L 102.71938 204.684429 
L 100.067625 204.424215 
L 97.41587 204.163955 
L 94.764116 203.903653 
L 92.112361 203.64331 
L 89.460606 203.382929 
L 86.808851 203.122511 
L 84.157096 202.86206 
L 81.505341 202.601576 
L 78.853586 202.341062 
L 76.201831 202.080519 
L 73.550076 201.81995 
z
" clip-path="url(#paad4a5bb1a)" style="fill: #db7093; fill-opacity: 0.9"/>
   </g>
   <g id="matplotlib.axis_1">
    <g id="xtick_1">
     <g id="line2d_1">
      <defs>
       <path id="m538d93a234" d="M 0 0 
L 0 3.5 
" style="stroke: #000000; stroke-width: 0.8"/>
      </defs>
      <g>
       <use xlink:href="#m538d93a234" x="72.224199" y="242.728" style="stroke: #000000; stroke-width: 0.8"/>
      </g>
     </g>
     <g id="text_1">
      <!-- $\mathdefault{10^{-1}}$ -->
      <g transform="translate(60.474199 257.326437) scale(0.1 -0.1)">
       <defs>
        <path id="DejaVuSans-31" d="M 794 531 
L 1825 531 
L 1825 4091 
L 703 3866 
L 703 4441 
L 1819 4666 
L 2450 4666 
L 2450 531 
L 3481 531 
L 3481 0 
L 794 0 
L 794 531 
z
" transform="scale(0.015625)"/>
        <path id="DejaVuSans-30" d="M 2034 4250 
Q 1547 4250 1301 3770 
Q 1056 3291 1056 2328 
Q 1056 1369 1301 889 
Q 1547 409 2034 409 
Q 2525 409 2770 889 
Q 3016 1369 3016 2328 
Q 3016 3291 2770 3770 
Q 2525 4250 2034 4250 
z
M 2034 4750 
Q 2819 4750 3233 4129 
Q 3647 3509 3647 2328 
Q 3647 1150 3233 529 
Q 2819 -91 2034 -91 
Q 1250 -91 836 529 
Q 422 1150 422 2328 
Q 422 3509 836 4129 
Q 1250 4750 2034 4750 
z
" transform="scale(0.015625)"/>
        <path id="DejaVuSans-2212" d="M 678 2272 
L 4684 2272 
L 4684 1741 
L 678 1741 
L 678 2272 
z
" transform="scale(0.015625)"/>
       </defs>
       <use xlink:href="#DejaVuSans-31" transform="translate(0 0.684375)"/>
       <use xlink:href="#DejaVuSans-30" transform="translate(63.623047 0.684375)"/>
       <use xlink:href="#DejaVuSans-2212" transform="translate(128.203125 38.965625) scale(0.7)"/>
       <use xlink:href="#DejaVuSans-31" transform="translate(186.855469 38.965625) scale(0.7)"/>
      </g>
     </g>
    </g>
    <g id="xtick_2">
     <g id="line2d_2">
      <g>
       <use xlink:href="#m538d93a234" x="237.745773" y="242.728" style="stroke: #000000; stroke-width: 0.8"/>
      </g>
     </g>
     <g id="text_2">
      <!-- $\mathdefault{10^{0}}$ -->
      <g transform="translate(228.945773 257.326437) scale(0.1 -0.1)">
       <use xlink:href="#DejaVuSans-31" transform="translate(0 0.765625)"/>
       <use xlink:href="#DejaVuSans-30" transform="translate(63.623047 0.765625)"/>
       <use xlink:href="#DejaVuSans-30" transform="translate(128.203125 39.046875) scale(0.7)"/>
      </g>
     </g>
    </g>
    <g id="xtick_3">
     <g id="line2d_3">
      <defs>
       <path id="m3bf7f33c74" d="M 0 0 
L 0 2 
" style="stroke: #000000; stroke-width: 0.6"/>
      </defs>
      <g>
       <use xlink:href="#m3bf7f33c74" x="64.650347" y="242.728" style="stroke: #000000; stroke-width: 0.6"/>
      </g>
     </g>
    </g>
    <g id="xtick_4">
     <g id="line2d_4">
      <g>
       <use xlink:href="#m3bf7f33c74" x="122.051158" y="242.728" style="stroke: #000000; stroke-width: 0.6"/>
      </g>
     </g>
    </g>
    <g id="xtick_5">
     <g id="line2d_5">
      <g>
       <use xlink:href="#m3bf7f33c74" x="151.19806" y="242.728" style="stroke: #000000; stroke-width: 0.6"/>
      </g>
     </g>
    </g>
    <g id="xtick_6">
     <g id="line2d_6">
      <g>
       <use xlink:href="#m3bf7f33c74" x="171.878116" y="242.728" style="stroke: #000000; stroke-width: 0.6"/>
      </g>
     </g>
    </g>
    <g id="xtick_7">
     <g id="line2d_7">
      <g>
       <use xlink:href="#m3bf7f33c74" x="187.918814" y="242.728" style="stroke: #000000; stroke-width: 0.6"/>
      </g>
     </g>
    </g>
    <g id="xtick_8">
     <g id="line2d_8">
      <g>
       <use xlink:href="#m3bf7f33c74" x="201.025019" y="242.728" style="stroke: #000000; stroke-width: 0.6"/>
      </g>
     </g>
    </g>
    <g id="xtick_9">
     <g id="line2d_9">
      <g>
       <use xlink:href="#m3bf7f33c74" x="212.106157" y="242.728" style="stroke: #000000; stroke-width: 0.6"/>
      </g>
     </g>
    </g>
    <g id="xtick_10">
     <g id="line2d_10">
      <g>
       <use xlink:href="#m3bf7f33c74" x="221.705075" y="242.728" style="stroke: #000000; stroke-width: 0.6"/>
      </g>
     </g>
    </g>
    <g id="xtick_11">
     <g id="line2d_11">
      <g>
       <use xlink:href="#m3bf7f33c74" x="230.171921" y="242.728" style="stroke: #000000; stroke-width: 0.6"/>
      </g>
     </g>
    </g>
    <g id="xtick_12">
     <g id="line2d_12">
      <g>
       <use xlink:href="#m3bf7f33c74" x="287.572732" y="242.728" style="stroke: #000000; stroke-width: 0.6"/>
      </g>
     </g>
    </g>
    <g id="xtick_13">
     <g id="line2d_13">
      <g>
       <use xlink:href="#m3bf7f33c74" x="316.719634" y="242.728" style="stroke: #000000; stroke-width: 0.6"/>
      </g>
     </g>
    </g>
    <g id="xtick_14">
     <g id="line2d_14">
      <g>
       <use xlink:href="#m3bf7f33c74" x="337.399691" y="242.728" style="stroke: #000000; stroke-width: 0.6"/>
      </g>
     </g>
    </g>
    <g id="text_3">
     <!-- Energy [TeV] -->
     <g transform="translate(173.114288 271.004562) scale(0.1 -0.1)">
      <defs>
       <path id="DejaVuSans-45" d="M 628 4666 
L 3578 4666 
L 3578 4134 
L 1259 4134 
L 1259 2753 
L 3481 2753 
L 3481 2222 
L 1259 2222 
L 1259 531 
L 3634 531 
L 3634 0 
L 628 0 
L 628 4666 
z
" transform="scale(0.015625)"/>
       <path id="DejaVuSans-6e" d="M 3513 2113 
L 3513 0 
L 2938 0 
L 2938 2094 
Q 2938 2591 2744 2837 
Q 2550 3084 2163 3084 
Q 1697 3084 1428 2787 
Q 1159 2491 1159 1978 
L 1159 0 
L 581 0 
L 581 3500 
L 1159 3500 
L 1159 2956 
Q 1366 3272 1645 3428 
Q 1925 3584 2291 3584 
Q 2894 3584 3203 3211 
Q 3513 2838 3513 2113 
z
" transform="scale(0.015625)"/>
       <path id="DejaVuSans-65" d="M 3597 1894 
L 3597 1613 
L 953 1613 
Q 991 1019 1311 708 
Q 1631 397 2203 397 
Q 2534 397 2845 478 
Q 3156 559 3463 722 
L 3463 178 
Q 3153 47 2828 -22 
Q 2503 -91 2169 -91 
Q 1331 -91 842 396 
Q 353 884 353 1716 
Q 353 2575 817 3079 
Q 1281 3584 2069 3584 
Q 2775 3584 3186 3129 
Q 3597 2675 3597 1894 
z
M 3022 2063 
Q 3016 2534 2758 2815 
Q 2500 3097 2075 3097 
Q 1594 3097 1305 2825 
Q 1016 2553 972 2059 
L 3022 2063 
z
" transform="scale(0.015625)"/>
       <path id="DejaVuSans-72" d="M 2631 2963 
Q 2534 3019 2420 3045 
Q 2306 3072 2169 3072 
Q 1681 3072 1420 2755 
Q 1159 2438 1159 1844 
L 1159 0 
L 581 0 
L 581 3500 
L 1159 3500 
L 1159 2956 
Q 1341 3275 1631 3429 
Q 1922 3584 2338 3584 
Q 2397 3584 2469 3576 
Q 2541 3569 2628 3553 
L 2631 2963 
z
" transform="scale(0.015625)"/>
       <path id="DejaVuSans-67" d="M 2906 1791 
Q 2906 2416 2648 2759 
Q 2391 3103 1925 3103 
Q 1463 3103 1205 2759 
Q 947 2416 947 1791 
Q 947 1169 1205 825 
Q 1463 481 1925 481 
Q 2391 481 2648 825 
Q 2906 1169 2906 1791 
z
M 3481 434 
Q 3481 -459 3084 -895 
Q 2688 -1331 1869 -1331 
Q 1566 -1331 1297 -1286 
Q 1028 -1241 775 -1147 
L 775 -588 
Q 1028 -725 1275 -790 
Q 1522 -856 1778 -856 
Q 2344 -856 2625 -561 
Q 2906 -266 2906 331 
L 2906 616 
Q 2728 306 2450 153 
Q 2172 0 1784 0 
Q 1141 0 747 490 
Q 353 981 353 1791 
Q 353 2603 747 3093 
Q 1141 3584 1784 3584 
Q 2172 3584 2450 3431 
Q 2728 3278 2906 2969 
L 2906 3500 
L 3481 3500 
L 3481 434 
z
" transform="scale(0.015625)"/>
       <path id="DejaVuSans-79" d="M 2059 -325 
Q 1816 -950 1584 -1140 
Q 1353 -1331 966 -1331 
L 506 -1331 
L 506 -850 
L 844 -850 
Q 1081 -850 1212 -737 
Q 1344 -625 1503 -206 
L 1606 56 
L 191 3500 
L 800 3500 
L 1894 763 
L 2988 3500 
L 3597 3500 
L 2059 -325 
z
" transform="scale(0.015625)"/>
       <path id="DejaVuSans-20" transform="scale(0.015625)"/>
       <path id="DejaVuSans-5b" d="M 550 4863 
L 1875 4863 
L 1875 4416 
L 1125 4416 
L 1125 -397 
L 1875 -397 
L 1875 -844 
L 550 -844 
L 550 4863 
z
" transform="scale(0.015625)"/>
       <path id="DejaVuSans-54" d="M -19 4666 
L 3928 4666 
L 3928 4134 
L 2272 4134 
L 2272 0 
L 1638 0 
L 1638 4134 
L -19 4134 
L -19 4666 
z
" transform="scale(0.015625)"/>
       <path id="DejaVuSans-56" d="M 1831 0 
L 50 4666 
L 709 4666 
L 2188 738 
L 3669 4666 
L 4325 4666 
L 2547 0 
L 1831 0 
z
" transform="scale(0.015625)"/>
       <path id="DejaVuSans-5d" d="M 1947 4863 
L 1947 -844 
L 622 -844 
L 622 -397 
L 1369 -397 
L 1369 4416 
L 622 4416 
L 622 4863 
L 1947 4863 
z
" transform="scale(0.015625)"/>
      </defs>
      <use xlink:href="#DejaVuSans-45"/>
      <use xlink:href="#DejaVuSans-6e" x="63.183594"/>
      <use xlink:href="#DejaVuSans-65" x="126.5625"/>
      <use xlink:href="#DejaVuSans-72" x="188.085938"/>
      <use xlink:href="#DejaVuSans-67" x="227.449219"/>
      <use xlink:href="#DejaVuSans-79" x="290.925781"/>
      <use xlink:href="#DejaVuSans-20" x="350.105469"/>
      <use xlink:href="#DejaVuSans-5b" x="381.892578"/>
      <use xlink:href="#DejaVuSans-54" x="420.90625"/>
      <use xlink:href="#DejaVuSans-65" x="464.990234"/>
      <use xlink:href="#DejaVuSans-56" x="526.513672"/>
      <use xlink:href="#DejaVuSans-5d" x="594.921875"/>
     </g>
    </g>
   </g>
   <g id="matplotlib.axis_2">
    <g id="ytick_1">
     <g id="line2d_15">
      <defs>
       <path id="mbc56326b2e" d="M 0 0 
L -3.5 0 
" style="stroke: #000000; stroke-width: 0.8"/>
      </defs>
      <g>
       <use xlink:href="#mbc56326b2e" x="60.423889" y="220.612281" style="stroke: #000000; stroke-width: 0.8"/>
      </g>
     </g>
     <g id="text_4">
      <!-- $\mathdefault{10^{-12}}$ -->
      <g transform="translate(25.523889 224.411499) scale(0.1 -0.1)">
       <defs>
        <path id="DejaVuSans-32" d="M 1228 531 
L 3431 531 
L 3431 0 
L 469 0 
L 469 531 
Q 828 903 1448 1529 
Q 2069 2156 2228 2338 
Q 2531 2678 2651 2914 
Q 2772 3150 2772 3378 
Q 2772 3750 2511 3984 
Q 2250 4219 1831 4219 
Q 1534 4219 1204 4116 
Q 875 4013 500 3803 
L 500 4441 
Q 881 4594 1212 4672 
Q 1544 4750 1819 4750 
Q 2544 4750 2975 4387 
Q 3406 4025 3406 3419 
Q 3406 3131 3298 2873 
Q 3191 2616 2906 2266 
Q 2828 2175 2409 1742 
Q 1991 1309 1228 531 
z
" transform="scale(0.015625)"/>
       </defs>
       <use xlink:href="#DejaVuSans-31" transform="translate(0 0.765625)"/>
       <use xlink:href="#DejaVuSans-30" transform="translate(63.623047 0.765625)"/>
       <use xlink:href="#DejaVuSans-2212" transform="translate(128.203125 39.046875) scale(0.7)"/>
       <use xlink:href="#DejaVuSans-31" transform="translate(186.855469 39.046875) scale(0.7)"/>
       <use xlink:href="#DejaVuSans-32" transform="translate(231.391602 39.046875) scale(0.7)"/>
      </g>
     </g>
    </g>
    <g id="ytick_2">
     <g id="line2d_16">
      <g>
       <use xlink:href="#mbc56326b2e" x="60.423889" y="173.064698" style="stroke: #000000; stroke-width: 0.8"/>
      </g>
     </g>
     <g id="text_5">
      <!-- $\mathdefault{10^{-11}}$ -->
      <g transform="translate(25.523889 176.863917) scale(0.1 -0.1)">
       <use xlink:href="#DejaVuSans-31" transform="translate(0 0.684375)"/>
       <use xlink:href="#DejaVuSans-30" transform="translate(63.623047 0.684375)"/>
       <use xlink:href="#DejaVuSans-2212" transform="translate(128.203125 38.965625) scale(0.7)"/>
       <use xlink:href="#DejaVuSans-31" transform="translate(186.855469 38.965625) scale(0.7)"/>
       <use xlink:href="#DejaVuSans-31" transform="translate(231.391602 38.965625) scale(0.7)"/>
      </g>
     </g>
    </g>
    <g id="ytick_3">
     <g id="line2d_17">
      <g>
       <use xlink:href="#mbc56326b2e" x="60.423889" y="125.517115" style="stroke: #000000; stroke-width: 0.8"/>
      </g>
     </g>
     <g id="text_6">
      <!-- $\mathdefault{10^{-10}}$ -->
      <g transform="translate(25.523889 129.316334) scale(0.1 -0.1)">
       <use xlink:href="#DejaVuSans-31" transform="translate(0 0.765625)"/>
       <use xlink:href="#DejaVuSans-30" transform="translate(63.623047 0.765625)"/>
       <use xlink:href="#DejaVuSans-2212" transform="translate(128.203125 39.046875) scale(0.7)"/>
       <use xlink:href="#DejaVuSans-31" transform="translate(186.855469 39.046875) scale(0.7)"/>
       <use xlink:href="#DejaVuSans-30" transform="translate(231.391602 39.046875) scale(0.7)"/>
      </g>
     </g>
    </g>
    <g id="ytick_4">
     <g id="line2d_18">
      <g>
       <use xlink:href="#mbc56326b2e" x="60.423889" y="77.969533" style="stroke: #000000; stroke-width: 0.8"/>
      </g>
     </g>
     <g id="text_7">
      <!-- $\mathdefault{10^{-9}}$ -->
      <g transform="translate(29.923889 81.768752) scale(0.1 -0.1)">
       <defs>
        <path id="DejaVuSans-39" d="M 703 97 
L 703 672 
Q 941 559 1184 500 
Q 1428 441 1663 441 
Q 2288 441 2617 861 
Q 2947 1281 2994 2138 
Q 2813 1869 2534 1725 
Q 2256 1581 1919 1581 
Q 1219 1581 811 2004 
Q 403 2428 403 3163 
Q 403 3881 828 4315 
Q 1253 4750 1959 4750 
Q 2769 4750 3195 4129 
Q 3622 3509 3622 2328 
Q 3622 1225 3098 567 
Q 2575 -91 1691 -91 
Q 1453 -91 1209 -44 
Q 966 3 703 97 
z
M 1959 2075 
Q 2384 2075 2632 2365 
Q 2881 2656 2881 3163 
Q 2881 3666 2632 3958 
Q 2384 4250 1959 4250 
Q 1534 4250 1286 3958 
Q 1038 3666 1038 3163 
Q 1038 2656 1286 2365 
Q 1534 2075 1959 2075 
z
" transform="scale(0.015625)"/>
       </defs>
       <use xlink:href="#DejaVuSans-31" transform="translate(0 0.765625)"/>
       <use xlink:href="#DejaVuSans-30" transform="translate(63.623047 0.765625)"/>
       <use xlink:href="#DejaVuSans-2212" transform="translate(128.203125 39.046875) scale(0.7)"/>
       <use xlink:href="#DejaVuSans-39" transform="translate(186.855469 39.046875) scale(0.7)"/>
      </g>
     </g>
    </g>
    <g id="ytick_5">
     <g id="line2d_19">
      <g>
       <use xlink:href="#mbc56326b2e" x="60.423889" y="30.42195" style="stroke: #000000; stroke-width: 0.8"/>
      </g>
     </g>
     <g id="text_8">
      <!-- $\mathdefault{10^{-8}}$ -->
      <g transform="translate(29.923889 34.221169) scale(0.1 -0.1)">
       <defs>
        <path id="DejaVuSans-38" d="M 2034 2216 
Q 1584 2216 1326 1975 
Q 1069 1734 1069 1313 
Q 1069 891 1326 650 
Q 1584 409 2034 409 
Q 2484 409 2743 651 
Q 3003 894 3003 1313 
Q 3003 1734 2745 1975 
Q 2488 2216 2034 2216 
z
M 1403 2484 
Q 997 2584 770 2862 
Q 544 3141 544 3541 
Q 544 4100 942 4425 
Q 1341 4750 2034 4750 
Q 2731 4750 3128 4425 
Q 3525 4100 3525 3541 
Q 3525 3141 3298 2862 
Q 3072 2584 2669 2484 
Q 3125 2378 3379 2068 
Q 3634 1759 3634 1313 
Q 3634 634 3220 271 
Q 2806 -91 2034 -91 
Q 1263 -91 848 271 
Q 434 634 434 1313 
Q 434 1759 690 2068 
Q 947 2378 1403 2484 
z
M 1172 3481 
Q 1172 3119 1398 2916 
Q 1625 2713 2034 2713 
Q 2441 2713 2670 2916 
Q 2900 3119 2900 3481 
Q 2900 3844 2670 4047 
Q 2441 4250 2034 4250 
Q 1625 4250 1398 4047 
Q 1172 3844 1172 3481 
z
" transform="scale(0.015625)"/>
       </defs>
       <use xlink:href="#DejaVuSans-31" transform="translate(0 0.765625)"/>
       <use xlink:href="#DejaVuSans-30" transform="translate(63.623047 0.765625)"/>
       <use xlink:href="#DejaVuSans-2212" transform="translate(128.203125 39.046875) scale(0.7)"/>
       <use xlink:href="#DejaVuSans-38" transform="translate(186.855469 39.046875) scale(0.7)"/>
      </g>
     </g>
    </g>
    <g id="ytick_6">
     <g id="line2d_20">
      <defs>
       <path id="m5489b6c351" d="M 0 0 
L -2 0 
" style="stroke: #000000; stroke-width: 0.6"/>
      </defs>
      <g>
       <use xlink:href="#m5489b6c351" x="60.423889" y="239.533366" style="stroke: #000000; stroke-width: 0.6"/>
      </g>
     </g>
    </g>
    <g id="ytick_7">
     <g id="line2d_21">
      <g>
       <use xlink:href="#m5489b6c351" x="60.423889" y="234.925529" style="stroke: #000000; stroke-width: 0.6"/>
      </g>
     </g>
    </g>
    <g id="ytick_8">
     <g id="line2d_22">
      <g>
       <use xlink:href="#m5489b6c351" x="60.423889" y="231.160652" style="stroke: #000000; stroke-width: 0.6"/>
      </g>
     </g>
    </g>
    <g id="ytick_9">
     <g id="line2d_23">
      <g>
       <use xlink:href="#m5489b6c351" x="60.423889" y="227.977494" style="stroke: #000000; stroke-width: 0.6"/>
      </g>
     </g>
    </g>
    <g id="ytick_10">
     <g id="line2d_24">
      <g>
       <use xlink:href="#m5489b6c351" x="60.423889" y="225.220117" style="stroke: #000000; stroke-width: 0.6"/>
      </g>
     </g>
    </g>
    <g id="ytick_11">
     <g id="line2d_25">
      <g>
       <use xlink:href="#m5489b6c351" x="60.423889" y="222.787939" style="stroke: #000000; stroke-width: 0.6"/>
      </g>
     </g>
    </g>
    <g id="ytick_12">
     <g id="line2d_26">
      <g>
       <use xlink:href="#m5489b6c351" x="60.423889" y="206.299032" style="stroke: #000000; stroke-width: 0.6"/>
      </g>
     </g>
    </g>
    <g id="ytick_13">
     <g id="line2d_27">
      <g>
       <use xlink:href="#m5489b6c351" x="60.423889" y="197.926318" style="stroke: #000000; stroke-width: 0.6"/>
      </g>
     </g>
    </g>
    <g id="ytick_14">
     <g id="line2d_28">
      <g>
       <use xlink:href="#m5489b6c351" x="60.423889" y="191.985783" style="stroke: #000000; stroke-width: 0.6"/>
      </g>
     </g>
    </g>
    <g id="ytick_15">
     <g id="line2d_29">
      <g>
       <use xlink:href="#m5489b6c351" x="60.423889" y="187.377947" style="stroke: #000000; stroke-width: 0.6"/>
      </g>
     </g>
    </g>
    <g id="ytick_16">
     <g id="line2d_30">
      <g>
       <use xlink:href="#m5489b6c351" x="60.423889" y="183.61307" style="stroke: #000000; stroke-width: 0.6"/>
      </g>
     </g>
    </g>
    <g id="ytick_17">
     <g id="line2d_31">
      <g>
       <use xlink:href="#m5489b6c351" x="60.423889" y="180.429912" style="stroke: #000000; stroke-width: 0.6"/>
      </g>
     </g>
    </g>
    <g id="ytick_18">
     <g id="line2d_32">
      <g>
       <use xlink:href="#m5489b6c351" x="60.423889" y="177.672535" style="stroke: #000000; stroke-width: 0.6"/>
      </g>
     </g>
    </g>
    <g id="ytick_19">
     <g id="line2d_33">
      <g>
       <use xlink:href="#m5489b6c351" x="60.423889" y="175.240356" style="stroke: #000000; stroke-width: 0.6"/>
      </g>
     </g>
    </g>
    <g id="ytick_20">
     <g id="line2d_34">
      <g>
       <use xlink:href="#m5489b6c351" x="60.423889" y="158.751449" style="stroke: #000000; stroke-width: 0.6"/>
      </g>
     </g>
    </g>
    <g id="ytick_21">
     <g id="line2d_35">
      <g>
       <use xlink:href="#m5489b6c351" x="60.423889" y="150.378736" style="stroke: #000000; stroke-width: 0.6"/>
      </g>
     </g>
    </g>
    <g id="ytick_22">
     <g id="line2d_36">
      <g>
       <use xlink:href="#m5489b6c351" x="60.423889" y="144.438201" style="stroke: #000000; stroke-width: 0.6"/>
      </g>
     </g>
    </g>
    <g id="ytick_23">
     <g id="line2d_37">
      <g>
       <use xlink:href="#m5489b6c351" x="60.423889" y="139.830364" style="stroke: #000000; stroke-width: 0.6"/>
      </g>
     </g>
    </g>
    <g id="ytick_24">
     <g id="line2d_38">
      <g>
       <use xlink:href="#m5489b6c351" x="60.423889" y="136.065487" style="stroke: #000000; stroke-width: 0.6"/>
      </g>
     </g>
    </g>
    <g id="ytick_25">
     <g id="line2d_39">
      <g>
       <use xlink:href="#m5489b6c351" x="60.423889" y="132.882329" style="stroke: #000000; stroke-width: 0.6"/>
      </g>
     </g>
    </g>
    <g id="ytick_26">
     <g id="line2d_40">
      <g>
       <use xlink:href="#m5489b6c351" x="60.423889" y="130.124952" style="stroke: #000000; stroke-width: 0.6"/>
      </g>
     </g>
    </g>
    <g id="ytick_27">
     <g id="line2d_41">
      <g>
       <use xlink:href="#m5489b6c351" x="60.423889" y="127.692774" style="stroke: #000000; stroke-width: 0.6"/>
      </g>
     </g>
    </g>
    <g id="ytick_28">
     <g id="line2d_42">
      <g>
       <use xlink:href="#m5489b6c351" x="60.423889" y="111.203867" style="stroke: #000000; stroke-width: 0.6"/>
      </g>
     </g>
    </g>
    <g id="ytick_29">
     <g id="line2d_43">
      <g>
       <use xlink:href="#m5489b6c351" x="60.423889" y="102.831153" style="stroke: #000000; stroke-width: 0.6"/>
      </g>
     </g>
    </g>
    <g id="ytick_30">
     <g id="line2d_44">
      <g>
       <use xlink:href="#m5489b6c351" x="60.423889" y="96.890618" style="stroke: #000000; stroke-width: 0.6"/>
      </g>
     </g>
    </g>
    <g id="ytick_31">
     <g id="line2d_45">
      <g>
       <use xlink:href="#m5489b6c351" x="60.423889" y="92.282781" style="stroke: #000000; stroke-width: 0.6"/>
      </g>
     </g>
    </g>
    <g id="ytick_32">
     <g id="line2d_46">
      <g>
       <use xlink:href="#m5489b6c351" x="60.423889" y="88.517905" style="stroke: #000000; stroke-width: 0.6"/>
      </g>
     </g>
    </g>
    <g id="ytick_33">
     <g id="line2d_47">
      <g>
       <use xlink:href="#m5489b6c351" x="60.423889" y="85.334747" style="stroke: #000000; stroke-width: 0.6"/>
      </g>
     </g>
    </g>
    <g id="ytick_34">
     <g id="line2d_48">
      <g>
       <use xlink:href="#m5489b6c351" x="60.423889" y="82.57737" style="stroke: #000000; stroke-width: 0.6"/>
      </g>
     </g>
    </g>
    <g id="ytick_35">
     <g id="line2d_49">
      <g>
       <use xlink:href="#m5489b6c351" x="60.423889" y="80.145191" style="stroke: #000000; stroke-width: 0.6"/>
      </g>
     </g>
    </g>
    <g id="ytick_36">
     <g id="line2d_50">
      <g>
       <use xlink:href="#m5489b6c351" x="60.423889" y="63.656284" style="stroke: #000000; stroke-width: 0.6"/>
      </g>
     </g>
    </g>
    <g id="ytick_37">
     <g id="line2d_51">
      <g>
       <use xlink:href="#m5489b6c351" x="60.423889" y="55.283571" style="stroke: #000000; stroke-width: 0.6"/>
      </g>
     </g>
    </g>
    <g id="ytick_38">
     <g id="line2d_52">
      <g>
       <use xlink:href="#m5489b6c351" x="60.423889" y="49.343036" style="stroke: #000000; stroke-width: 0.6"/>
      </g>
     </g>
    </g>
    <g id="ytick_39">
     <g id="line2d_53">
      <g>
       <use xlink:href="#m5489b6c351" x="60.423889" y="44.735199" style="stroke: #000000; stroke-width: 0.6"/>
      </g>
     </g>
    </g>
    <g id="ytick_40">
     <g id="line2d_54">
      <g>
       <use xlink:href="#m5489b6c351" x="60.423889" y="40.970322" style="stroke: #000000; stroke-width: 0.6"/>
      </g>
     </g>
    </g>
    <g id="ytick_41">
     <g id="line2d_55">
      <g>
       <use xlink:href="#m5489b6c351" x="60.423889" y="37.787164" style="stroke: #000000; stroke-width: 0.6"/>
      </g>
     </g>
    </g>
    <g id="ytick_42">
     <g id="line2d_56">
      <g>
       <use xlink:href="#m5489b6c351" x="60.423889" y="35.029787" style="stroke: #000000; stroke-width: 0.6"/>
      </g>
     </g>
    </g>
    <g id="ytick_43">
     <g id="line2d_57">
      <g>
       <use xlink:href="#m5489b6c351" x="60.423889" y="32.597608" style="stroke: #000000; stroke-width: 0.6"/>
      </g>
     </g>
    </g>
    <g id="text_9">
     <!-- e2 * dnde [TeV / (cm2 s)] -->
     <g transform="translate(19.444202 196.563688) rotate(-90) scale(0.1 -0.1)">
      <defs>
       <path id="DejaVuSans-2a" d="M 3009 3897 
L 1888 3291 
L 3009 2681 
L 2828 2375 
L 1778 3009 
L 1778 1831 
L 1422 1831 
L 1422 3009 
L 372 2375 
L 191 2681 
L 1313 3291 
L 191 3897 
L 372 4206 
L 1422 3572 
L 1422 4750 
L 1778 4750 
L 1778 3572 
L 2828 4206 
L 3009 3897 
z
" transform="scale(0.015625)"/>
       <path id="DejaVuSans-64" d="M 2906 2969 
L 2906 4863 
L 3481 4863 
L 3481 0 
L 2906 0 
L 2906 525 
Q 2725 213 2448 61 
Q 2172 -91 1784 -91 
Q 1150 -91 751 415 
Q 353 922 353 1747 
Q 353 2572 751 3078 
Q 1150 3584 1784 3584 
Q 2172 3584 2448 3432 
Q 2725 3281 2906 2969 
z
M 947 1747 
Q 947 1113 1208 752 
Q 1469 391 1925 391 
Q 2381 391 2643 752 
Q 2906 1113 2906 1747 
Q 2906 2381 2643 2742 
Q 2381 3103 1925 3103 
Q 1469 3103 1208 2742 
Q 947 2381 947 1747 
z
" transform="scale(0.015625)"/>
       <path id="DejaVuSans-2f" d="M 1625 4666 
L 2156 4666 
L 531 -594 
L 0 -594 
L 1625 4666 
z
" transform="scale(0.015625)"/>
       <path id="DejaVuSans-28" d="M 1984 4856 
Q 1566 4138 1362 3434 
Q 1159 2731 1159 2009 
Q 1159 1288 1364 580 
Q 1569 -128 1984 -844 
L 1484 -844 
Q 1016 -109 783 600 
Q 550 1309 550 2009 
Q 550 2706 781 3412 
Q 1013 4119 1484 4856 
L 1984 4856 
z
" transform="scale(0.015625)"/>
       <path id="DejaVuSans-63" d="M 3122 3366 
L 3122 2828 
Q 2878 2963 2633 3030 
Q 2388 3097 2138 3097 
Q 1578 3097 1268 2742 
Q 959 2388 959 1747 
Q 959 1106 1268 751 
Q 1578 397 2138 397 
Q 2388 397 2633 464 
Q 2878 531 3122 666 
L 3122 134 
Q 2881 22 2623 -34 
Q 2366 -91 2075 -91 
Q 1284 -91 818 406 
Q 353 903 353 1747 
Q 353 2603 823 3093 
Q 1294 3584 2113 3584 
Q 2378 3584 2631 3529 
Q 2884 3475 3122 3366 
z
" transform="scale(0.015625)"/>
       <path id="DejaVuSans-6d" d="M 3328 2828 
Q 3544 3216 3844 3400 
Q 4144 3584 4550 3584 
Q 5097 3584 5394 3201 
Q 5691 2819 5691 2113 
L 5691 0 
L 5113 0 
L 5113 2094 
Q 5113 2597 4934 2840 
Q 4756 3084 4391 3084 
Q 3944 3084 3684 2787 
Q 3425 2491 3425 1978 
L 3425 0 
L 2847 0 
L 2847 2094 
Q 2847 2600 2669 2842 
Q 2491 3084 2119 3084 
Q 1678 3084 1418 2786 
Q 1159 2488 1159 1978 
L 1159 0 
L 581 0 
L 581 3500 
L 1159 3500 
L 1159 2956 
Q 1356 3278 1631 3431 
Q 1906 3584 2284 3584 
Q 2666 3584 2933 3390 
Q 3200 3197 3328 2828 
z
" transform="scale(0.015625)"/>
       <path id="DejaVuSans-73" d="M 2834 3397 
L 2834 2853 
Q 2591 2978 2328 3040 
Q 2066 3103 1784 3103 
Q 1356 3103 1142 2972 
Q 928 2841 928 2578 
Q 928 2378 1081 2264 
Q 1234 2150 1697 2047 
L 1894 2003 
Q 2506 1872 2764 1633 
Q 3022 1394 3022 966 
Q 3022 478 2636 193 
Q 2250 -91 1575 -91 
Q 1294 -91 989 -36 
Q 684 19 347 128 
L 347 722 
Q 666 556 975 473 
Q 1284 391 1588 391 
Q 1994 391 2212 530 
Q 2431 669 2431 922 
Q 2431 1156 2273 1281 
Q 2116 1406 1581 1522 
L 1381 1569 
Q 847 1681 609 1914 
Q 372 2147 372 2553 
Q 372 3047 722 3315 
Q 1072 3584 1716 3584 
Q 2034 3584 2315 3537 
Q 2597 3491 2834 3397 
z
" transform="scale(0.015625)"/>
       <path id="DejaVuSans-29" d="M 513 4856 
L 1013 4856 
Q 1481 4119 1714 3412 
Q 1947 2706 1947 2009 
Q 1947 1309 1714 600 
Q 1481 -109 1013 -844 
L 513 -844 
Q 928 -128 1133 580 
Q 1338 1288 1338 2009 
Q 1338 2731 1133 3434 
Q 928 4138 513 4856 
z
" transform="scale(0.015625)"/>
      </defs>
      <use xlink:href="#DejaVuSans-65"/>
      <use xlink:href="#DejaVuSans-32" x="61.523438"/>
      <use xlink:href="#DejaVuSans-20" x="125.146484"/>
      <use xlink:href="#DejaVuSans-2a" x="156.933594"/>
      <use xlink:href="#DejaVuSans-20" x="206.933594"/>
      <use xlink:href="#DejaVuSans-64" x="238.720703"/>
      <use xlink:href="#DejaVuSans-6e" x="302.197266"/>
      <use xlink:href="#DejaVuSans-64" x="365.576172"/>
      <use xlink:href="#DejaVuSans-65" x="429.052734"/>
      <use xlink:href="#DejaVuSans-20" x="490.576172"/>
      <use xlink:href="#DejaVuSans-5b" x="522.363281"/>
      <use xlink:href="#DejaVuSans-54" x="561.376953"/>
      <use xlink:href="#DejaVuSans-65" x="605.460938"/>
      <use xlink:href="#DejaVuSans-56" x="666.984375"/>
      <use xlink:href="#DejaVuSans-20" x="735.392578"/>
      <use xlink:href="#DejaVuSans-2f" x="767.179688"/>
      <use xlink:href="#DejaVuSans-20" x="800.871094"/>
      <use xlink:href="#DejaVuSans-28" x="832.658203"/>
      <use xlink:href="#DejaVuSans-63" x="871.671875"/>
      <use xlink:href="#DejaVuSans-6d" x="926.652344"/>
      <use xlink:href="#DejaVuSans-32" x="1024.064453"/>
      <use xlink:href="#DejaVuSans-20" x="1087.6875"/>
      <use xlink:href="#DejaVuSans-73" x="1119.474609"/>
      <use xlink:href="#DejaVuSans-29" x="1171.574219"/>
      <use xlink:href="#DejaVuSans-5d" x="1210.587891"/>
     </g>
    </g>
   </g>
   <g id="line2d_58">
    <path d="M 73.550076 206.462267 
L 76.201831 206.690789 
L 78.853586 206.919311 
L 81.505341 207.147834 
L 84.157096 207.376356 
L 86.808851 207.604878 
L 89.460606 207.8334 
L 92.112361 208.061923 
L 94.764116 208.290445 
L 97.41587 208.518967 
L 100.067625 208.747489 
L 102.71938 208.976012 
L 105.371135 209.204534 
L 108.02289 209.433056 
L 110.674645 209.661578 
L 113.3264 209.890101 
L 115.978155 210.118623 
L 118.62991 210.347145 
L 121.281665 210.575667 
L 123.93342 210.80419 
L 126.585175 211.032712 
L 129.236929 211.261234 
L 131.888684 211.489756 
L 134.540439 211.718278 
L 137.192194 211.946801 
L 139.843949 212.175323 
L 142.495704 212.403845 
L 145.147459 212.632367 
L 147.799214 212.86089 
L 150.450969 213.089412 
L 153.102724 213.317934 
L 155.754479 213.546456 
L 158.406234 213.774979 
L 161.057989 214.003501 
L 163.709743 214.232023 
L 166.361498 214.460545 
L 169.013253 214.689068 
L 171.665008 214.91759 
L 174.316763 215.146112 
L 176.968518 215.374634 
L 179.620273 215.603157 
L 182.272028 215.831679 
L 184.923783 216.060201 
L 187.575538 216.288723 
L 190.227293 216.517246 
L 192.879048 216.745768 
L 195.530802 216.97429 
L 198.182557 217.202812 
L 200.834312 217.431334 
L 203.486067 217.659857 
L 206.137822 217.888379 
L 208.789577 218.116901 
L 211.441332 218.345423 
L 214.093087 218.573946 
L 216.744842 218.802468 
L 219.396597 219.03099 
L 222.048352 219.259512 
L 224.700107 219.488035 
L 227.351861 219.716557 
L 230.003616 219.945079 
L 232.655371 220.173601 
L 235.307126 220.402124 
L 237.958881 220.630646 
L 240.610636 220.859168 
L 243.262391 221.08769 
L 245.914146 221.316213 
L 248.565901 221.544735 
L 251.217656 221.773257 
L 253.869411 222.001779 
L 256.521166 222.230301 
L 259.172921 222.458824 
L 261.824675 222.687346 
L 264.47643 222.915868 
L 267.128185 223.14439 
L 269.77994 223.372913 
L 272.431695 223.601435 
L 275.08345 223.829957 
L 277.735205 224.058479 
L 280.38696 224.287002 
L 283.038715 224.515522 
L 285.69047 199.437903 
L 288.342225 141.561612 
L 290.99398 225.196518 
L 293.645734 225.429613 
L 296.297489 225.658135 
L 298.949244 225.886657 
L 301.600999 226.11518 
L 304.252754 226.343702 
L 306.904509 226.572224 
L 309.556264 226.800746 
L 312.208019 227.029269 
L 314.859774 227.257791 
L 317.511529 227.486313 
L 320.163284 227.714835 
L 322.815039 227.943357 
L 325.466793 228.17188 
L 328.118548 228.400402 
L 330.770303 228.628924 
L 333.422058 228.857446 
L 336.073813 229.085969 
" clip-path="url(#paad4a5bb1a)" style="fill: none; stroke: #000000; stroke-linecap: square"/>
   </g>
   <g id="line2d_59">
    <path d="M 73.550076 206.225446 
L 76.201831 206.455926 
L 78.853586 206.686407 
L 81.505341 206.916887 
L 84.157096 207.147367 
L 86.808851 207.377847 
L 89.460606 207.608327 
L 92.112361 207.838807 
L 94.764116 208.069288 
L 97.41587 208.299768 
L 100.067625 208.530248 
L 102.71938 208.760728 
L 105.371135 208.991208 
L 108.02289 209.221688 
L 110.674645 209.452169 
L 113.3264 209.682649 
L 115.978155 209.913129 
L 118.62991 210.143609 
L 121.281665 210.374089 
L 123.93342 210.604569 
L 126.585175 210.83505 
L 129.236929 211.06553 
L 131.888684 211.29601 
L 134.540439 211.52649 
L 137.192194 211.75697 
L 139.843949 211.98745 
L 142.495704 212.21793 
L 145.147459 212.448411 
L 147.799214 212.678891 
L 150.450969 212.909371 
L 153.102724 213.139851 
L 155.754479 213.370331 
L 158.406234 213.600811 
L 161.057989 213.831292 
L 163.709743 214.061772 
L 166.361498 214.292252 
L 169.013253 214.522732 
L 171.665008 214.753212 
L 174.316763 214.983692 
L 176.968518 215.214173 
L 179.620273 215.444653 
L 182.272028 215.675133 
L 184.923783 215.905613 
L 187.575538 216.136093 
L 190.227293 216.366573 
L 192.879048 216.597054 
L 195.530802 216.827534 
L 198.182557 217.058014 
L 200.834312 217.288494 
L 203.486067 217.518974 
L 206.137822 217.749454 
L 208.789577 217.979935 
L 211.441332 218.210415 
L 214.093087 218.440895 
L 216.744842 218.671375 
L 219.396597 218.901855 
L 222.048352 219.132335 
L 224.700107 219.362816 
L 227.351861 219.593296 
L 230.003616 219.823776 
L 232.655371 220.054256 
L 235.307126 220.284736 
L 237.958881 220.515216 
L 240.610636 220.745697 
L 243.262391 220.976177 
L 245.914146 221.206657 
L 248.565901 221.437137 
L 251.217656 221.667617 
L 253.869411 221.898097 
L 256.521166 222.128577 
L 259.172921 222.359058 
L 261.824675 222.589538 
L 264.47643 222.820018 
L 267.128185 223.050498 
L 269.77994 223.280978 
L 272.431695 223.511458 
L 275.08345 223.741939 
L 277.735205 223.972419 
L 280.38696 224.202899 
L 283.038715 224.43337 
L 285.69047 189.134798 
L 288.342225 147.92786 
L 290.99398 225.123542 
L 293.645734 225.3553 
L 296.297489 225.58578 
L 298.949244 225.81626 
L 301.600999 226.04674 
L 304.252754 226.27722 
L 306.904509 226.507701 
L 309.556264 226.738181 
L 312.208019 226.968661 
L 314.859774 227.199141 
L 317.511529 227.429621 
L 320.163284 227.660101 
L 322.815039 227.890582 
L 325.466793 228.121062 
L 328.118548 228.351542 
L 330.770303 228.582022 
L 333.422058 228.812502 
L 336.073813 229.042982 
" clip-path="url(#paad4a5bb1a)" style="fill: none; stroke-dasharray: 7.4,3.2; stroke-dashoffset: 0; stroke: #191970; stroke-opacity: 0.95; stroke-width: 2"/>
   </g>
   <g id="line2d_60">
    <path d="M 73.550076 206.210626 
L 76.201831 206.4412 
L 78.853586 206.671774 
L 81.505341 206.902348 
L 84.157096 207.132923 
L 86.808851 207.363497 
L 89.460606 207.594071 
L 92.112361 207.824645 
L 94.764116 208.05522 
L 97.41587 208.285794 
L 100.067625 208.516368 
L 102.71938 208.746942 
L 105.371135 208.977517 
L 108.02289 209.208091 
L 110.674645 209.438665 
L 113.3264 209.669239 
L 115.978155 209.899814 
L 118.62991 210.130388 
L 121.281665 210.360962 
L 123.93342 210.591536 
L 126.585175 210.822111 
L 129.236929 211.052685 
L 131.888684 211.283259 
L 134.540439 211.513833 
L 137.192194 211.744408 
L 139.843949 211.974982 
L 142.495704 212.205556 
L 145.147459 212.43613 
L 147.799214 212.666705 
L 150.450969 212.897279 
L 153.102724 213.127853 
L 155.754479 213.358427 
L 158.406234 213.589002 
L 161.057989 213.819576 
L 163.709743 214.05015 
L 166.361498 214.280724 
L 169.013253 214.511299 
L 171.665008 214.741873 
L 174.316763 214.972447 
L 176.968518 215.203021 
L 179.620273 215.433596 
L 182.272028 215.66417 
L 184.923783 215.894744 
L 187.575538 216.125318 
L 190.227293 216.355893 
L 192.879048 216.586467 
L 195.530802 216.817041 
L 198.182557 217.047615 
L 200.834312 217.27819 
L 203.486067 217.508764 
L 206.137822 217.739338 
L 208.789577 217.969912 
L 211.441332 218.200487 
L 214.093087 218.431061 
L 216.744842 218.661635 
L 219.396597 218.892209 
L 222.048352 219.122784 
L 224.700107 219.353358 
L 227.351861 219.583932 
L 230.003616 219.814506 
L 232.655371 220.045081 
L 235.307126 220.275655 
L 237.958881 220.506229 
L 240.610636 220.736803 
L 243.262391 220.967378 
L 245.914146 221.197952 
L 248.565901 221.428526 
L 251.217656 221.6591 
L 253.869411 221.889675 
L 256.521166 222.120249 
L 259.172921 222.350823 
L 261.824675 222.581397 
L 264.47643 222.811972 
L 267.128185 223.042546 
L 269.77994 223.27312 
L 272.431695 223.503694 
L 275.08345 223.734269 
L 277.735205 223.964843 
L 280.38696 224.195417 
L 283.038715 224.425983 
L 285.69047 189.859185 
L 288.342225 147.477595 
L 290.99398 225.11633 
L 293.645734 225.348289 
L 296.297489 225.578863 
L 298.949244 225.809437 
L 301.600999 226.040011 
L 304.252754 226.270586 
L 306.904509 226.50116 
L 309.556264 226.731734 
L 312.208019 226.962308 
L 314.859774 227.192883 
L 317.511529 227.423457 
L 320.163284 227.654031 
L 322.815039 227.884605 
L 325.466793 228.11518 
L 328.118548 228.345754 
L 330.770303 228.576328 
L 333.422058 228.806902 
L 336.073813 229.037477 
" clip-path="url(#paad4a5bb1a)" style="fill: none; stroke: #c71585; stroke-width: 1.5; stroke-linecap: square"/>
   </g>
   <g id="patch_3">
    <path d="M 60.423889 242.728 
L 60.423889 25.44 
" style="fill: none; stroke: #000000; stroke-width: 0.8; stroke-linejoin: miter; stroke-linecap: square"/>
   </g>
   <g id="patch_4">
    <path d="M 349.2 242.728 
L 349.2 25.44 
" style="fill: none; stroke: #000000; stroke-width: 0.8; stroke-linejoin: miter; stroke-linecap: square"/>
   </g>
   <g id="patch_5">
    <path d="M 60.423889 242.728 
L 349.2 242.728 
" style="fill: none; stroke: #000000; stroke-width: 0.8; stroke-linejoin: miter; stroke-linecap: square"/>
   </g>
   <g id="patch_6">
    <path d="M 60.423889 25.44 
L 349.2 25.44 
" style="fill: none; stroke: #000000; stroke-width: 0.8; stroke-linejoin: miter; stroke-linecap: square"/>
   </g>
   <g id="text_10">
    <!-- sys_assumed = 10% -->
    <g transform="translate(142.756007 19.44) scale(0.12 -0.12)">
     <defs>
      <path id="DejaVuSans-5f" d="M 3263 -1063 
L 3263 -1509 
L -63 -1509 
L -63 -1063 
L 3263 -1063 
z
" transform="scale(0.015625)"/>
      <path id="DejaVuSans-61" d="M 2194 1759 
Q 1497 1759 1228 1600 
Q 959 1441 959 1056 
Q 959 750 1161 570 
Q 1363 391 1709 391 
Q 2188 391 2477 730 
Q 2766 1069 2766 1631 
L 2766 1759 
L 2194 1759 
z
M 3341 1997 
L 3341 0 
L 2766 0 
L 2766 531 
Q 2569 213 2275 61 
Q 1981 -91 1556 -91 
Q 1019 -91 701 211 
Q 384 513 384 1019 
Q 384 1609 779 1909 
Q 1175 2209 1959 2209 
L 2766 2209 
L 2766 2266 
Q 2766 2663 2505 2880 
Q 2244 3097 1772 3097 
Q 1472 3097 1187 3025 
Q 903 2953 641 2809 
L 641 3341 
Q 956 3463 1253 3523 
Q 1550 3584 1831 3584 
Q 2591 3584 2966 3190 
Q 3341 2797 3341 1997 
z
" transform="scale(0.015625)"/>
      <path id="DejaVuSans-75" d="M 544 1381 
L 544 3500 
L 1119 3500 
L 1119 1403 
Q 1119 906 1312 657 
Q 1506 409 1894 409 
Q 2359 409 2629 706 
Q 2900 1003 2900 1516 
L 2900 3500 
L 3475 3500 
L 3475 0 
L 2900 0 
L 2900 538 
Q 2691 219 2414 64 
Q 2138 -91 1772 -91 
Q 1169 -91 856 284 
Q 544 659 544 1381 
z
M 1991 3584 
L 1991 3584 
z
" transform="scale(0.015625)"/>
      <path id="DejaVuSans-3d" d="M 678 2906 
L 4684 2906 
L 4684 2381 
L 678 2381 
L 678 2906 
z
M 678 1631 
L 4684 1631 
L 4684 1100 
L 678 1100 
L 678 1631 
z
" transform="scale(0.015625)"/>
      <path id="DejaVuSans-25" d="M 4653 2053 
Q 4381 2053 4226 1822 
Q 4072 1591 4072 1178 
Q 4072 772 4226 539 
Q 4381 306 4653 306 
Q 4919 306 5073 539 
Q 5228 772 5228 1178 
Q 5228 1588 5073 1820 
Q 4919 2053 4653 2053 
z
M 4653 2450 
Q 5147 2450 5437 2106 
Q 5728 1763 5728 1178 
Q 5728 594 5436 251 
Q 5144 -91 4653 -91 
Q 4153 -91 3862 251 
Q 3572 594 3572 1178 
Q 3572 1766 3864 2108 
Q 4156 2450 4653 2450 
z
M 1428 4353 
Q 1159 4353 1004 4120 
Q 850 3888 850 3481 
Q 850 3069 1003 2837 
Q 1156 2606 1428 2606 
Q 1700 2606 1854 2837 
Q 2009 3069 2009 3481 
Q 2009 3884 1853 4118 
Q 1697 4353 1428 4353 
z
M 4250 4750 
L 4750 4750 
L 1831 -91 
L 1331 -91 
L 4250 4750 
z
M 1428 4750 
Q 1922 4750 2215 4408 
Q 2509 4066 2509 3481 
Q 2509 2891 2217 2550 
Q 1925 2209 1428 2209 
Q 931 2209 642 2551 
Q 353 2894 353 3481 
Q 353 4063 643 4406 
Q 934 4750 1428 4750 
z
" transform="scale(0.015625)"/>
     </defs>
     <use xlink:href="#DejaVuSans-73"/>
     <use xlink:href="#DejaVuSans-79" x="52.099609"/>
     <use xlink:href="#DejaVuSans-73" x="111.279297"/>
     <use xlink:href="#DejaVuSans-5f" x="163.378906"/>
     <use xlink:href="#DejaVuSans-61" x="213.378906"/>
     <use xlink:href="#DejaVuSans-73" x="274.658203"/>
     <use xlink:href="#DejaVuSans-73" x="326.757812"/>
     <use xlink:href="#DejaVuSans-75" x="378.857422"/>
     <use xlink:href="#DejaVuSans-6d" x="442.236328"/>
     <use xlink:href="#DejaVuSans-65" x="539.648438"/>
     <use xlink:href="#DejaVuSans-64" x="601.171875"/>
     <use xlink:href="#DejaVuSans-20" x="664.648438"/>
     <use xlink:href="#DejaVuSans-3d" x="696.435547"/>
     <use xlink:href="#DejaVuSans-20" x="780.224609"/>
     <use xlink:href="#DejaVuSans-31" x="812.011719"/>
     <use xlink:href="#DejaVuSans-30" x="875.634766"/>
     <use xlink:href="#DejaVuSans-25" x="939.257812"/>
    </g>
   </g>
   <g id="legend_1">
    <g id="patch_7">
     <path d="M 67.423889 237.728 
L 209.964514 237.728 
Q 211.964514 237.728 211.964514 235.728 
L 211.964514 163.337375 
Q 211.964514 161.337375 209.964514 161.337375 
L 67.423889 161.337375 
Q 65.423889 161.337375 65.423889 163.337375 
L 65.423889 235.728 
Q 65.423889 237.728 67.423889 237.728 
z
" style="fill: #ffffff; opacity: 0.8; stroke: #cccccc; stroke-linejoin: miter"/>
    </g>
    <g id="line2d_61">
     <path d="M 69.423889 169.435812 
L 79.423889 169.435812 
L 89.423889 169.435812 
" style="fill: none; stroke: #000000; stroke-linecap: square"/>
    </g>
    <g id="text_11">
     <!-- Input -->
     <g transform="translate(97.423889 172.935812) scale(0.1 -0.1)">
      <defs>
       <path id="DejaVuSans-49" d="M 628 4666 
L 1259 4666 
L 1259 0 
L 628 0 
L 628 4666 
z
" transform="scale(0.015625)"/>
       <path id="DejaVuSans-70" d="M 1159 525 
L 1159 -1331 
L 581 -1331 
L 581 3500 
L 1159 3500 
L 1159 2969 
Q 1341 3281 1617 3432 
Q 1894 3584 2278 3584 
Q 2916 3584 3314 3078 
Q 3713 2572 3713 1747 
Q 3713 922 3314 415 
Q 2916 -91 2278 -91 
Q 1894 -91 1617 61 
Q 1341 213 1159 525 
z
M 3116 1747 
Q 3116 2381 2855 2742 
Q 2594 3103 2138 3103 
Q 1681 3103 1420 2742 
Q 1159 2381 1159 1747 
Q 1159 1113 1420 752 
Q 1681 391 2138 391 
Q 2594 391 2855 752 
Q 3116 1113 3116 1747 
z
" transform="scale(0.015625)"/>
       <path id="DejaVuSans-74" d="M 1172 4494 
L 1172 3500 
L 2356 3500 
L 2356 3053 
L 1172 3053 
L 1172 1153 
Q 1172 725 1289 603 
Q 1406 481 1766 481 
L 2356 481 
L 2356 0 
L 1766 0 
Q 1100 0 847 248 
Q 594 497 594 1153 
L 594 3053 
L 172 3053 
L 172 3500 
L 594 3500 
L 594 4494 
L 1172 4494 
z
" transform="scale(0.015625)"/>
      </defs>
      <use xlink:href="#DejaVuSans-49"/>
      <use xlink:href="#DejaVuSans-6e" x="29.492188"/>
      <use xlink:href="#DejaVuSans-70" x="92.871094"/>
      <use xlink:href="#DejaVuSans-75" x="156.347656"/>
      <use xlink:href="#DejaVuSans-74" x="219.726562"/>
     </g>
    </g>
    <g id="line2d_62">
     <path d="M 69.423889 184.113937 
L 79.423889 184.113937 
L 89.423889 184.113937 
" style="fill: none; stroke-dasharray: 7.4,3.2; stroke-dashoffset: 0; stroke: #191970; stroke-opacity: 0.95; stroke-width: 2"/>
    </g>
    <g id="text_12">
     <!-- Best Fit with Nuisance -->
     <g transform="translate(97.423889 187.613937) scale(0.1 -0.1)">
      <defs>
       <path id="DejaVuSans-42" d="M 1259 2228 
L 1259 519 
L 2272 519 
Q 2781 519 3026 730 
Q 3272 941 3272 1375 
Q 3272 1813 3026 2020 
Q 2781 2228 2272 2228 
L 1259 2228 
z
M 1259 4147 
L 1259 2741 
L 2194 2741 
Q 2656 2741 2882 2914 
Q 3109 3088 3109 3444 
Q 3109 3797 2882 3972 
Q 2656 4147 2194 4147 
L 1259 4147 
z
M 628 4666 
L 2241 4666 
Q 2963 4666 3353 4366 
Q 3744 4066 3744 3513 
Q 3744 3084 3544 2831 
Q 3344 2578 2956 2516 
Q 3422 2416 3680 2098 
Q 3938 1781 3938 1306 
Q 3938 681 3513 340 
Q 3088 0 2303 0 
L 628 0 
L 628 4666 
z
" transform="scale(0.015625)"/>
       <path id="DejaVuSans-46" d="M 628 4666 
L 3309 4666 
L 3309 4134 
L 1259 4134 
L 1259 2759 
L 3109 2759 
L 3109 2228 
L 1259 2228 
L 1259 0 
L 628 0 
L 628 4666 
z
" transform="scale(0.015625)"/>
       <path id="DejaVuSans-69" d="M 603 3500 
L 1178 3500 
L 1178 0 
L 603 0 
L 603 3500 
z
M 603 4863 
L 1178 4863 
L 1178 4134 
L 603 4134 
L 603 4863 
z
" transform="scale(0.015625)"/>
       <path id="DejaVuSans-77" d="M 269 3500 
L 844 3500 
L 1563 769 
L 2278 3500 
L 2956 3500 
L 3675 769 
L 4391 3500 
L 4966 3500 
L 4050 0 
L 3372 0 
L 2619 2869 
L 1863 0 
L 1184 0 
L 269 3500 
z
" transform="scale(0.015625)"/>
       <path id="DejaVuSans-68" d="M 3513 2113 
L 3513 0 
L 2938 0 
L 2938 2094 
Q 2938 2591 2744 2837 
Q 2550 3084 2163 3084 
Q 1697 3084 1428 2787 
Q 1159 2491 1159 1978 
L 1159 0 
L 581 0 
L 581 4863 
L 1159 4863 
L 1159 2956 
Q 1366 3272 1645 3428 
Q 1925 3584 2291 3584 
Q 2894 3584 3203 3211 
Q 3513 2838 3513 2113 
z
" transform="scale(0.015625)"/>
       <path id="DejaVuSans-4e" d="M 628 4666 
L 1478 4666 
L 3547 763 
L 3547 4666 
L 4159 4666 
L 4159 0 
L 3309 0 
L 1241 3903 
L 1241 0 
L 628 0 
L 628 4666 
z
" transform="scale(0.015625)"/>
      </defs>
      <use xlink:href="#DejaVuSans-42"/>
      <use xlink:href="#DejaVuSans-65" x="68.603516"/>
      <use xlink:href="#DejaVuSans-73" x="130.126953"/>
      <use xlink:href="#DejaVuSans-74" x="182.226562"/>
      <use xlink:href="#DejaVuSans-20" x="221.435547"/>
      <use xlink:href="#DejaVuSans-46" x="253.222656"/>
      <use xlink:href="#DejaVuSans-69" x="303.492188"/>
      <use xlink:href="#DejaVuSans-74" x="331.275391"/>
      <use xlink:href="#DejaVuSans-20" x="370.484375"/>
      <use xlink:href="#DejaVuSans-77" x="402.271484"/>
      <use xlink:href="#DejaVuSans-69" x="484.058594"/>
      <use xlink:href="#DejaVuSans-74" x="511.841797"/>
      <use xlink:href="#DejaVuSans-68" x="551.050781"/>
      <use xlink:href="#DejaVuSans-20" x="614.429688"/>
      <use xlink:href="#DejaVuSans-4e" x="646.216797"/>
      <use xlink:href="#DejaVuSans-75" x="721.021484"/>
      <use xlink:href="#DejaVuSans-69" x="784.400391"/>
      <use xlink:href="#DejaVuSans-73" x="812.183594"/>
      <use xlink:href="#DejaVuSans-61" x="864.283203"/>
      <use xlink:href="#DejaVuSans-6e" x="925.5625"/>
      <use xlink:href="#DejaVuSans-63" x="988.941406"/>
      <use xlink:href="#DejaVuSans-65" x="1043.921875"/>
     </g>
    </g>
    <g id="patch_8">
     <path d="M 69.423889 202.292062 
L 89.423889 202.292062 
L 89.423889 195.292062 
L 69.423889 195.292062 
z
" style="fill: #6495ed; fill-opacity: 0.5"/>
    </g>
    <g id="text_13">
     <!-- 1$\,\sigma_{tot}$ -->
     <g transform="translate(97.423889 202.292062) scale(0.1 -0.1)">
      <defs>
       <path id="DejaVuSans-Oblique-3c3" d="M 2219 3044 
Q 1744 3044 1422 2700 
Q 1081 2341 969 1747 
Q 844 1119 1044 756 
Q 1241 397 1706 397 
Q 2166 397 2503 759 
Q 2844 1122 2966 1747 
Q 3075 2319 2881 2700 
Q 2700 3044 2219 3044 
z
M 2309 3503 
L 4219 3500 
L 4106 2925 
L 3463 2925 
Q 3706 2438 3575 1747 
Q 3406 888 2884 400 
Q 2359 -91 1609 -91 
Q 856 -91 525 400 
Q 194 888 363 1747 
Q 528 2609 1050 3097 
Q 1484 3503 2309 3503 
z
" transform="scale(0.015625)"/>
       <path id="DejaVuSans-Oblique-74" d="M 2706 3500 
L 2619 3053 
L 1472 3053 
L 1100 1153 
Q 1081 1047 1072 975 
Q 1063 903 1063 863 
Q 1063 663 1183 572 
Q 1303 481 1569 481 
L 2150 481 
L 2053 0 
L 1503 0 
Q 991 0 739 200 
Q 488 400 488 806 
Q 488 878 497 964 
Q 506 1050 525 1153 
L 897 3053 
L 409 3053 
L 500 3500 
L 978 3500 
L 1172 4494 
L 1747 4494 
L 1556 3500 
L 2706 3500 
z
" transform="scale(0.015625)"/>
       <path id="DejaVuSans-Oblique-6f" d="M 1625 -91 
Q 1009 -91 651 289 
Q 294 669 294 1325 
Q 294 1706 417 2101 
Q 541 2497 738 2766 
Q 1047 3184 1428 3384 
Q 1809 3584 2291 3584 
Q 2888 3584 3255 3212 
Q 3622 2841 3622 2241 
Q 3622 1825 3500 1412 
Q 3378 1000 3181 728 
Q 2875 309 2494 109 
Q 2113 -91 1625 -91 
z
M 891 1344 
Q 891 869 1089 633 
Q 1288 397 1691 397 
Q 2269 397 2648 901 
Q 3028 1406 3028 2181 
Q 3028 2634 2825 2865 
Q 2622 3097 2228 3097 
Q 1903 3097 1650 2945 
Q 1397 2794 1197 2484 
Q 1050 2253 970 1956 
Q 891 1659 891 1344 
z
" transform="scale(0.015625)"/>
      </defs>
      <use xlink:href="#DejaVuSans-31" transform="translate(0 0.09375)"/>
      <use xlink:href="#DejaVuSans-Oblique-3c3" transform="translate(79.858723 0.09375)"/>
      <use xlink:href="#DejaVuSans-Oblique-74" transform="translate(143.237629 -16.3125) scale(0.7)"/>
      <use xlink:href="#DejaVuSans-Oblique-6f" transform="translate(170.683918 -16.3125) scale(0.7)"/>
      <use xlink:href="#DejaVuSans-Oblique-74" transform="translate(213.511067 -16.3125) scale(0.7)"/>
     </g>
    </g>
    <g id="line2d_63">
     <path d="M 69.423889 213.470187 
L 79.423889 213.470187 
L 89.423889 213.470187 
" style="fill: none; stroke: #c71585; stroke-width: 1.5; stroke-linecap: square"/>
    </g>
    <g id="text_14">
     <!-- Best Fit -->
     <g transform="translate(97.423889 216.970187) scale(0.1 -0.1)">
      <use xlink:href="#DejaVuSans-42"/>
      <use xlink:href="#DejaVuSans-65" x="68.603516"/>
      <use xlink:href="#DejaVuSans-73" x="130.126953"/>
      <use xlink:href="#DejaVuSans-74" x="182.226562"/>
      <use xlink:href="#DejaVuSans-20" x="221.435547"/>
      <use xlink:href="#DejaVuSans-46" x="253.222656"/>
      <use xlink:href="#DejaVuSans-69" x="303.492188"/>
      <use xlink:href="#DejaVuSans-74" x="331.275391"/>
     </g>
    </g>
    <g id="patch_9">
     <path d="M 69.423889 231.648312 
L 89.423889 231.648312 
L 89.423889 224.648312 
L 69.423889 224.648312 
z
" style="fill: #db7093; fill-opacity: 0.9"/>
    </g>
    <g id="text_15">
     <!-- 1$\,\sigma_{stat}$ -->
     <g transform="translate(97.423889 231.648312) scale(0.1 -0.1)">
      <defs>
       <path id="DejaVuSans-Oblique-73" d="M 3200 3397 
L 3091 2853 
Q 2863 2978 2609 3040 
Q 2356 3103 2088 3103 
Q 1634 3103 1373 2948 
Q 1113 2794 1113 2528 
Q 1113 2219 1719 2053 
Q 1766 2041 1788 2034 
L 1972 1978 
Q 2547 1819 2739 1644 
Q 2931 1469 2931 1166 
Q 2931 609 2489 259 
Q 2047 -91 1331 -91 
Q 1053 -91 747 -37 
Q 441 16 72 128 
L 184 722 
Q 500 559 806 475 
Q 1113 391 1394 391 
Q 1816 391 2080 572 
Q 2344 753 2344 1031 
Q 2344 1331 1650 1516 
L 1591 1531 
L 1394 1581 
Q 956 1697 753 1886 
Q 550 2075 550 2369 
Q 550 2928 970 3256 
Q 1391 3584 2113 3584 
Q 2397 3584 2667 3537 
Q 2938 3491 3200 3397 
z
" transform="scale(0.015625)"/>
       <path id="DejaVuSans-Oblique-61" d="M 3438 1997 
L 3047 0 
L 2472 0 
L 2578 531 
Q 2325 219 2001 64 
Q 1678 -91 1281 -91 
Q 834 -91 548 182 
Q 263 456 263 884 
Q 263 1497 752 1853 
Q 1241 2209 2100 2209 
L 2900 2209 
L 2931 2363 
Q 2938 2388 2941 2417 
Q 2944 2447 2944 2509 
Q 2944 2788 2717 2942 
Q 2491 3097 2081 3097 
Q 1800 3097 1504 3025 
Q 1209 2953 897 2809 
L 997 3341 
Q 1322 3463 1633 3523 
Q 1944 3584 2234 3584 
Q 2853 3584 3176 3315 
Q 3500 3047 3500 2534 
Q 3500 2431 3484 2292 
Q 3469 2153 3438 1997 
z
M 2816 1759 
L 2241 1759 
Q 1534 1759 1195 1570 
Q 856 1381 856 984 
Q 856 709 1029 553 
Q 1203 397 1509 397 
Q 1978 397 2328 733 
Q 2678 1069 2791 1631 
L 2816 1759 
z
" transform="scale(0.015625)"/>
      </defs>
      <use xlink:href="#DejaVuSans-31" transform="translate(0 0.09375)"/>
      <use xlink:href="#DejaVuSans-Oblique-3c3" transform="translate(79.858723 0.09375)"/>
      <use xlink:href="#DejaVuSans-Oblique-73" transform="translate(143.237629 -16.3125) scale(0.7)"/>
      <use xlink:href="#DejaVuSans-Oblique-74" transform="translate(179.707356 -16.3125) scale(0.7)"/>
      <use xlink:href="#DejaVuSans-Oblique-61" transform="translate(207.153645 -16.3125) scale(0.7)"/>
      <use xlink:href="#DejaVuSans-Oblique-74" transform="translate(250.049153 -16.3125) scale(0.7)"/>
     </g>
    </g>
   </g>
  </g>
 </g>
 <defs>
  <clipPath id="paad4a5bb1a">
   <rect x="60.423889" y="25.44" width="288.776111" height="217.288"/>
  </clipPath>
 </defs>
</svg>
