<?xml version="1.0" encoding="utf-8" standalone="no"?>
<!DOCTYPE svg PUBLIC "-//W3C//DTD SVG 1.1//EN"
  "http://www.w3.org/Graphics/SVG/1.1/DTD/svg11.dtd">
<svg xmlns:xlink="http://www.w3.org/1999/xlink" width="360pt" height="216pt" viewBox="0 0 360 216" xmlns="http://www.w3.org/2000/svg" version="1.1">
 <metadata>
  <rdf:RDF xmlns:dc="http://purl.org/dc/elements/1.1/" xmlns:cc="http://creativecommons.org/ns#" xmlns:rdf="http://www.w3.org/1999/02/22-rdf-syntax-ns#">
   <cc:Work>
    <dc:type rdf:resource="http://purl.org/dc/dcmitype/StillImage"/>
    <dc:date>2023-02-13T13:23:51.291928</dc:date>
    <dc:format>image/svg+xml</dc:format>
    <dc:creator>
     <cc:Agent>
      <dc:title>Matplotlib v3.6.2, https://matplotlib.org/</dc:title>
     </cc:Agent>
    </dc:creator>
   </cc:Work>
  </rdf:RDF>
 </metadata>
 <defs>
  <style type="text/css">*{stroke-linejoin: round; stroke-linecap: butt}</style>
 </defs>
 <g id="figure_1">
  <g id="patch_1">
   <path d="M 0 216 
L 360 216 
L 360 0 
L 0 0 
z
" style="fill: #ffffff"/>
  </g>
  <g id="axes_1">
   <g id="patch_2">
    <path d="M 60.221389 170.728 
L 349.2 170.728 
L 349.2 10.8 
L 60.221389 10.8 
z
" style="fill: #ffffff"/>
   </g>
   <g id="PolyCollection_1">
    <path d="M 74.645222 55.720895 
L 74.645222 75.112929 
L 77.222106 75.78292 
L 79.798989 76.455687 
L 82.375873 77.131313 
L 84.952756 77.809884 
L 87.529639 78.491491 
L 90.106523 79.176231 
L 92.683406 79.864201 
L 95.26029 80.555507 
L 97.837173 81.250257 
L 100.414056 81.948564 
L 102.99094 82.650543 
L 105.567823 83.356317 
L 108.144707 84.066011 
L 110.72159 84.779753 
L 113.298473 85.497676 
L 115.875357 86.219914 
L 118.45224 86.946606 
L 121.029124 87.677893 
L 123.606007 88.413915 
L 126.18289 89.154815 
L 128.759774 89.900736 
L 131.336657 90.65182 
L 133.913541 91.408207 
L 136.490424 92.170033 
L 139.067307 92.937434 
L 141.644191 93.710537 
L 144.221074 94.489465 
L 146.797958 95.274333 
L 149.374841 96.065247 
L 151.951724 96.862306 
L 154.528608 97.665594 
L 157.105491 98.475186 
L 159.682375 99.291145 
L 162.259258 100.113519 
L 164.836141 100.942342 
L 167.413025 101.777634 
L 169.989908 102.6194 
L 172.566792 103.46763 
L 175.143675 104.3223 
L 177.720558 105.183371 
L 180.297442 106.050791 
L 182.874325 106.924493 
L 185.451209 107.804399 
L 188.028092 108.69042 
L 190.604975 109.582455 
L 193.181859 110.480395 
L 195.758742 111.384121 
L 198.335626 112.293511 
L 200.912509 113.208433 
L 203.489392 114.128753 
L 206.066276 115.054332 
L 208.643159 115.985029 
L 211.220042 116.920702 
L 213.796926 117.861209 
L 216.373809 118.806407 
L 218.950693 119.756155 
L 221.527576 120.710314 
L 224.104459 121.668745 
L 226.681343 122.631316 
L 229.258226 123.597894 
L 231.83511 124.568351 
L 234.411993 125.542565 
L 236.988876 126.520415 
L 239.56576 127.501786 
L 242.142643 128.486566 
L 244.719527 129.474648 
L 247.29641 130.46593 
L 249.873293 131.460313 
L 252.450177 132.457703 
L 255.02706 133.458012 
L 257.603944 134.461152 
L 260.180827 135.467043 
L 262.75771 136.475607 
L 265.334594 137.48677 
L 267.911477 138.500462 
L 270.488361 139.516618 
L 273.065244 140.535173 
L 275.642127 141.556069 
L 278.219011 142.579248 
L 280.795894 143.604658 
L 283.372778 144.632249 
L 285.949661 145.661971 
L 288.526544 146.693781 
L 291.103428 147.727636 
L 293.680311 148.763496 
L 296.257195 149.801323 
L 298.834078 150.841081 
L 301.410961 151.882738 
L 303.987845 152.926262 
L 306.564728 153.971624 
L 309.141612 155.018795 
L 311.718495 156.067751 
L 314.295378 157.118466 
L 316.872262 158.170919 
L 319.449145 159.225087 
L 322.026029 160.280952 
L 324.602912 161.338494 
L 327.179795 162.397697 
L 329.756679 163.458545 
L 329.756679 134.991769 
L 329.756679 134.991769 
L 327.179795 134.293533 
L 324.602912 133.595109 
L 322.026029 132.896474 
L 319.449145 132.197606 
L 316.872262 131.498481 
L 314.295378 130.799074 
L 311.718495 130.099358 
L 309.141612 129.399305 
L 306.564728 128.698885 
L 303.987845 127.998069 
L 301.410961 127.296823 
L 298.834078 126.595113 
L 296.257195 125.892903 
L 293.680311 125.190155 
L 291.103428 124.486829 
L 288.526544 123.782883 
L 285.949661 123.078273 
L 283.372778 122.372952 
L 280.795894 121.666871 
L 278.219011 120.959978 
L 275.642127 120.25222 
L 273.065244 119.543538 
L 270.488361 118.833873 
L 267.911477 118.123161 
L 265.334594 117.411337 
L 262.75771 116.69833 
L 260.180827 115.984067 
L 257.603944 115.268472 
L 255.02706 114.551463 
L 252.450177 113.832956 
L 249.873293 113.112863 
L 247.29641 112.391091 
L 244.719527 111.667543 
L 242.142643 110.942119 
L 239.56576 110.214713 
L 236.988876 109.485216 
L 234.411993 108.753515 
L 231.83511 108.01949 
L 229.258226 107.283021 
L 226.681343 106.543982 
L 224.104459 105.802242 
L 221.527576 105.057669 
L 218.950693 104.310126 
L 216.373809 103.559475 
L 213.796926 102.805574 
L 211.220042 102.048281 
L 208.643159 101.287451 
L 206.066276 100.522941 
L 203.489392 99.754607 
L 200.912509 98.982307 
L 198.335626 98.205901 
L 195.758742 97.425254 
L 193.181859 96.640235 
L 190.604975 95.850718 
L 188.028092 95.056584 
L 185.451209 94.257724 
L 182.874325 93.454036 
L 180.297442 92.645431 
L 177.720558 91.831829 
L 175.143675 91.013165 
L 172.566792 90.189385 
L 169.989908 89.36045 
L 167.413025 88.526336 
L 164.836141 87.687032 
L 162.259258 86.842545 
L 159.682375 85.992894 
L 157.105491 85.138113 
L 154.528608 84.278252 
L 151.951724 83.413372 
L 149.374841 82.543549 
L 146.797958 81.668868 
L 144.221074 80.789429 
L 141.644191 79.905338 
L 139.067307 79.016711 
L 136.490424 78.123671 
L 133.913541 77.226349 
L 131.336657 76.324878 
L 128.759774 75.419397 
L 126.18289 74.510048 
L 123.606007 73.596973 
L 121.029124 72.680317 
L 118.45224 71.760223 
L 115.875357 70.836835 
L 113.298473 69.910294 
L 110.72159 68.980741 
L 108.144707 68.048312 
L 105.567823 67.113142 
L 102.99094 66.17536 
L 100.414056 65.235096 
L 97.837173 64.29247 
L 95.26029 63.347604 
L 92.683406 62.400611 
L 90.106523 61.451603 
L 87.529639 60.500685 
L 84.952756 59.547961 
L 82.375873 58.593528 
L 79.798989 57.637481 
L 77.222106 56.679908 
L 74.645222 55.720895 
z
" clip-path="url(#pc62cf6cafc)" style="fill: #008000; fill-opacity: 0.5"/>
   </g>
   <g id="PolyCollection_2">
    <path d="M 74.645222 57.012783 
L 74.645222 73.423431 
L 77.222106 74.066035 
L 79.798989 74.710708 
L 82.375873 75.357527 
L 84.952756 76.006575 
L 87.529639 76.657942 
L 90.106523 77.311726 
L 92.683406 77.968033 
L 95.26029 78.626978 
L 97.837173 79.28869 
L 100.414056 79.953303 
L 102.99094 80.620966 
L 105.567823 81.291841 
L 108.144707 81.966103 
L 110.72159 82.643941 
L 113.298473 83.325559 
L 115.875357 84.011179 
L 118.45224 84.701039 
L 121.029124 85.395394 
L 123.606007 86.094519 
L 126.18289 86.798706 
L 128.759774 87.508265 
L 131.336657 88.223524 
L 133.913541 88.944827 
L 136.490424 89.672534 
L 139.067307 90.407013 
L 141.644191 91.148645 
L 144.221074 91.89781 
L 146.797958 92.65489 
L 149.374841 93.420256 
L 151.951724 94.194266 
L 154.528608 94.977252 
L 157.105491 95.769517 
L 159.682375 96.571324 
L 162.259258 97.382886 
L 164.836141 98.204364 
L 167.413025 99.035861 
L 169.989908 99.877414 
L 172.566792 100.729 
L 175.143675 101.590529 
L 177.720558 102.461855 
L 180.297442 103.342772 
L 182.874325 104.233029 
L 185.451209 105.132331 
L 188.028092 106.040353 
L 190.604975 106.95674 
L 193.181859 107.881123 
L 195.758742 108.813125 
L 198.335626 109.752361 
L 200.912509 110.698452 
L 203.489392 111.651027 
L 206.066276 112.609722 
L 208.643159 113.574192 
L 211.220042 114.544103 
L 213.796926 115.519143 
L 216.373809 116.499014 
L 218.950693 117.48344 
L 221.527576 118.472159 
L 224.104459 119.46493 
L 226.681343 120.461529 
L 229.258226 121.461747 
L 231.83511 122.465391 
L 234.411993 123.472284 
L 236.988876 124.482261 
L 239.56576 125.495172 
L 242.142643 126.510876 
L 244.719527 127.529246 
L 247.29641 128.550164 
L 249.873293 129.573521 
L 252.450177 130.599217 
L 255.02706 131.62716 
L 257.603944 132.657267 
L 260.180827 133.68946 
L 262.75771 134.723666 
L 265.334594 135.759822 
L 267.911477 136.797866 
L 270.488361 137.837743 
L 273.065244 138.879403 
L 275.642127 139.922797 
L 278.219011 140.967885 
L 280.795894 142.014625 
L 283.372778 143.062981 
L 285.949661 144.112922 
L 288.526544 145.164415 
L 291.103428 146.217433 
L 293.680311 147.27195 
L 296.257195 148.327943 
L 298.834078 149.385391 
L 301.410961 150.444273 
L 303.987845 151.504573 
L 306.564728 152.566275 
L 309.141612 153.629362 
L 311.718495 154.693823 
L 314.295378 155.759646 
L 316.872262 156.82682 
L 319.449145 157.895335 
L 322.026029 158.965183 
L 324.602912 160.036357 
L 327.179795 161.10885 
L 329.756679 162.182658 
L 329.756679 135.852765 
L 329.756679 135.852765 
L 327.179795 135.167822 
L 324.602912 134.483018 
L 322.026029 133.798339 
L 319.449145 133.113776 
L 316.872262 132.429314 
L 314.295378 131.74494 
L 311.718495 131.060639 
L 309.141612 130.376395 
L 306.564728 129.692191 
L 303.987845 129.00801 
L 301.410961 128.323831 
L 298.834078 127.639634 
L 296.257195 126.955397 
L 293.680311 126.271094 
L 291.103428 125.586701 
L 288.526544 124.90219 
L 285.949661 124.217531 
L 283.372778 123.532692 
L 280.795894 122.847638 
L 278.219011 122.162332 
L 275.642127 121.476734 
L 273.065244 120.790801 
L 270.488361 120.104486 
L 267.911477 119.417738 
L 265.334594 118.730505 
L 262.75771 118.042726 
L 260.180827 117.354338 
L 257.603944 116.665273 
L 255.02706 115.975456 
L 252.450177 115.284807 
L 249.873293 114.593238 
L 247.29641 113.900656 
L 244.719527 113.206957 
L 242.142643 112.51203 
L 239.56576 111.815755 
L 236.988876 111.118001 
L 234.411993 110.418627 
L 231.83511 109.717479 
L 229.258226 109.014391 
L 226.681343 108.309183 
L 224.104459 107.60166 
L 221.527576 106.891612 
L 218.950693 106.178813 
L 216.373809 105.463019 
L 213.796926 104.743968 
L 211.220042 104.021382 
L 208.643159 103.294962 
L 206.066276 102.564393 
L 203.489392 101.829341 
L 200.912509 101.089459 
L 198.335626 100.344384 
L 195.758742 99.593742 
L 193.181859 98.837153 
L 190.604975 98.074232 
L 188.028092 97.304602 
L 185.451209 96.52789 
L 182.874325 95.743744 
L 180.297442 94.951837 
L 177.720558 94.151873 
L 175.143675 93.343601 
L 172.566792 92.526816 
L 169.989908 91.70137 
L 167.413025 90.867175 
L 164.836141 90.024205 
L 162.259258 89.1725 
L 159.682375 88.312162 
L 157.105491 87.44335 
L 154.528608 86.566281 
L 151.951724 85.681217 
L 149.374841 84.78846 
L 146.797958 83.888345 
L 144.221074 82.981228 
L 141.644191 82.067483 
L 139.067307 81.147491 
L 136.490424 80.221635 
L 133.913541 79.290295 
L 131.336657 78.353841 
L 128.759774 77.412634 
L 126.18289 76.467019 
L 123.606007 75.517325 
L 121.029124 74.563864 
L 118.45224 73.60693 
L 115.875357 72.646798 
L 113.298473 71.683725 
L 110.72159 70.717953 
L 108.144707 69.749702 
L 105.567823 68.77918 
L 102.99094 67.806579 
L 100.414056 66.832075 
L 97.837173 65.855831 
L 95.26029 64.877999 
L 92.683406 63.898718 
L 90.106523 62.918116 
L 87.529639 61.936311 
L 84.952756 60.953412 
L 82.375873 59.96952 
L 79.798989 58.984729 
L 77.222106 57.999123 
L 74.645222 57.012783 
z
" clip-path="url(#pc62cf6cafc)" style="fill: #ff0000; fill-opacity: 0.6"/>
   </g>
   <g id="matplotlib.axis_1">
    <g id="xtick_1">
     <g id="line2d_1">
      <defs>
       <path id="m9d03934958" d="M 0 0 
L 0 3.5 
" style="stroke: #000000; stroke-width: 0.8"/>
      </defs>
      <g>
       <use xlink:href="#m9d03934958" x="111.252125" y="170.728" style="stroke: #000000; stroke-width: 0.8"/>
      </g>
     </g>
     <g id="text_1">
      <!-- $\mathdefault{10^{0}}$ -->
      <g transform="translate(102.452125 185.326437) scale(0.1 -0.1)">
       <defs>
        <path id="DejaVuSans-31" d="M 794 531 
L 1825 531 
L 1825 4091 
L 703 3866 
L 703 4441 
L 1819 4666 
L 2450 4666 
L 2450 531 
L 3481 531 
L 3481 0 
L 794 0 
L 794 531 
z
" transform="scale(0.015625)"/>
        <path id="DejaVuSans-30" d="M 2034 4250 
Q 1547 4250 1301 3770 
Q 1056 3291 1056 2328 
Q 1056 1369 1301 889 
Q 1547 409 2034 409 
Q 2525 409 2770 889 
Q 3016 1369 3016 2328 
Q 3016 3291 2770 3770 
Q 2525 4250 2034 4250 
z
M 2034 4750 
Q 2819 4750 3233 4129 
Q 3647 3509 3647 2328 
Q 3647 1150 3233 529 
Q 2819 -91 2034 -91 
Q 1250 -91 836 529 
Q 422 1150 422 2328 
Q 422 3509 836 4129 
Q 1250 4750 2034 4750 
z
" transform="scale(0.015625)"/>
       </defs>
       <use xlink:href="#DejaVuSans-31" transform="translate(0 0.765625)"/>
       <use xlink:href="#DejaVuSans-30" transform="translate(63.623047 0.765625)"/>
       <use xlink:href="#DejaVuSans-30" transform="translate(128.203125 39.046875) scale(0.7)"/>
      </g>
     </g>
    </g>
    <g id="xtick_2">
     <g id="line2d_2">
      <g>
       <use xlink:href="#m9d03934958" x="232.517226" y="170.728" style="stroke: #000000; stroke-width: 0.8"/>
      </g>
     </g>
     <g id="text_2">
      <!-- $\mathdefault{10^{1}}$ -->
      <g transform="translate(223.717226 185.326437) scale(0.1 -0.1)">
       <use xlink:href="#DejaVuSans-31" transform="translate(0 0.684375)"/>
       <use xlink:href="#DejaVuSans-30" transform="translate(63.623047 0.684375)"/>
       <use xlink:href="#DejaVuSans-31" transform="translate(128.203125 38.965625) scale(0.7)"/>
      </g>
     </g>
    </g>
    <g id="xtick_3">
     <g id="line2d_3">
      <defs>
       <path id="m1c4492c996" d="M 0 0 
L 0 2 
" style="stroke: #000000; stroke-width: 0.6"/>
      </defs>
      <g>
       <use xlink:href="#m1c4492c996" x="62.995889" y="170.728" style="stroke: #000000; stroke-width: 0.6"/>
      </g>
     </g>
    </g>
    <g id="xtick_4">
     <g id="line2d_4">
      <g>
       <use xlink:href="#m1c4492c996" x="74.747692" y="170.728" style="stroke: #000000; stroke-width: 0.6"/>
      </g>
     </g>
    </g>
    <g id="xtick_5">
     <g id="line2d_5">
      <g>
       <use xlink:href="#m1c4492c996" x="84.349614" y="170.728" style="stroke: #000000; stroke-width: 0.6"/>
      </g>
     </g>
    </g>
    <g id="xtick_6">
     <g id="line2d_6">
      <g>
       <use xlink:href="#m1c4492c996" x="92.467923" y="170.728" style="stroke: #000000; stroke-width: 0.6"/>
      </g>
     </g>
    </g>
    <g id="xtick_7">
     <g id="line2d_7">
      <g>
       <use xlink:href="#m1c4492c996" x="99.500322" y="170.728" style="stroke: #000000; stroke-width: 0.6"/>
      </g>
     </g>
    </g>
    <g id="xtick_8">
     <g id="line2d_8">
      <g>
       <use xlink:href="#m1c4492c996" x="105.703338" y="170.728" style="stroke: #000000; stroke-width: 0.6"/>
      </g>
     </g>
    </g>
    <g id="xtick_9">
     <g id="line2d_9">
      <g>
       <use xlink:href="#m1c4492c996" x="147.756558" y="170.728" style="stroke: #000000; stroke-width: 0.6"/>
      </g>
     </g>
    </g>
    <g id="xtick_10">
     <g id="line2d_10">
      <g>
       <use xlink:href="#m1c4492c996" x="169.110282" y="170.728" style="stroke: #000000; stroke-width: 0.6"/>
      </g>
     </g>
    </g>
    <g id="xtick_11">
     <g id="line2d_11">
      <g>
       <use xlink:href="#m1c4492c996" x="184.260991" y="170.728" style="stroke: #000000; stroke-width: 0.6"/>
      </g>
     </g>
    </g>
    <g id="xtick_12">
     <g id="line2d_12">
      <g>
       <use xlink:href="#m1c4492c996" x="196.012793" y="170.728" style="stroke: #000000; stroke-width: 0.6"/>
      </g>
     </g>
    </g>
    <g id="xtick_13">
     <g id="line2d_13">
      <g>
       <use xlink:href="#m1c4492c996" x="205.614715" y="170.728" style="stroke: #000000; stroke-width: 0.6"/>
      </g>
     </g>
    </g>
    <g id="xtick_14">
     <g id="line2d_14">
      <g>
       <use xlink:href="#m1c4492c996" x="213.733024" y="170.728" style="stroke: #000000; stroke-width: 0.6"/>
      </g>
     </g>
    </g>
    <g id="xtick_15">
     <g id="line2d_15">
      <g>
       <use xlink:href="#m1c4492c996" x="220.765423" y="170.728" style="stroke: #000000; stroke-width: 0.6"/>
      </g>
     </g>
    </g>
    <g id="xtick_16">
     <g id="line2d_16">
      <g>
       <use xlink:href="#m1c4492c996" x="226.968439" y="170.728" style="stroke: #000000; stroke-width: 0.6"/>
      </g>
     </g>
    </g>
    <g id="xtick_17">
     <g id="line2d_17">
      <g>
       <use xlink:href="#m1c4492c996" x="269.021659" y="170.728" style="stroke: #000000; stroke-width: 0.6"/>
      </g>
     </g>
    </g>
    <g id="xtick_18">
     <g id="line2d_18">
      <g>
       <use xlink:href="#m1c4492c996" x="290.375383" y="170.728" style="stroke: #000000; stroke-width: 0.6"/>
      </g>
     </g>
    </g>
    <g id="xtick_19">
     <g id="line2d_19">
      <g>
       <use xlink:href="#m1c4492c996" x="305.526092" y="170.728" style="stroke: #000000; stroke-width: 0.6"/>
      </g>
     </g>
    </g>
    <g id="xtick_20">
     <g id="line2d_20">
      <g>
       <use xlink:href="#m1c4492c996" x="317.277894" y="170.728" style="stroke: #000000; stroke-width: 0.6"/>
      </g>
     </g>
    </g>
    <g id="xtick_21">
     <g id="line2d_21">
      <g>
       <use xlink:href="#m1c4492c996" x="326.879816" y="170.728" style="stroke: #000000; stroke-width: 0.6"/>
      </g>
     </g>
    </g>
    <g id="xtick_22">
     <g id="line2d_22">
      <g>
       <use xlink:href="#m1c4492c996" x="334.998125" y="170.728" style="stroke: #000000; stroke-width: 0.6"/>
      </g>
     </g>
    </g>
    <g id="xtick_23">
     <g id="line2d_23">
      <g>
       <use xlink:href="#m1c4492c996" x="342.030524" y="170.728" style="stroke: #000000; stroke-width: 0.6"/>
      </g>
     </g>
    </g>
    <g id="xtick_24">
     <g id="line2d_24">
      <g>
       <use xlink:href="#m1c4492c996" x="348.23354" y="170.728" style="stroke: #000000; stroke-width: 0.6"/>
      </g>
     </g>
    </g>
    <g id="text_3">
     <!-- Energy [TeV] -->
     <g transform="translate(173.013038 199.004562) scale(0.1 -0.1)">
      <defs>
       <path id="DejaVuSans-45" d="M 628 4666 
L 3578 4666 
L 3578 4134 
L 1259 4134 
L 1259 2753 
L 3481 2753 
L 3481 2222 
L 1259 2222 
L 1259 531 
L 3634 531 
L 3634 0 
L 628 0 
L 628 4666 
z
" transform="scale(0.015625)"/>
       <path id="DejaVuSans-6e" d="M 3513 2113 
L 3513 0 
L 2938 0 
L 2938 2094 
Q 2938 2591 2744 2837 
Q 2550 3084 2163 3084 
Q 1697 3084 1428 2787 
Q 1159 2491 1159 1978 
L 1159 0 
L 581 0 
L 581 3500 
L 1159 3500 
L 1159 2956 
Q 1366 3272 1645 3428 
Q 1925 3584 2291 3584 
Q 2894 3584 3203 3211 
Q 3513 2838 3513 2113 
z
" transform="scale(0.015625)"/>
       <path id="DejaVuSans-65" d="M 3597 1894 
L 3597 1613 
L 953 1613 
Q 991 1019 1311 708 
Q 1631 397 2203 397 
Q 2534 397 2845 478 
Q 3156 559 3463 722 
L 3463 178 
Q 3153 47 2828 -22 
Q 2503 -91 2169 -91 
Q 1331 -91 842 396 
Q 353 884 353 1716 
Q 353 2575 817 3079 
Q 1281 3584 2069 3584 
Q 2775 3584 3186 3129 
Q 3597 2675 3597 1894 
z
M 3022 2063 
Q 3016 2534 2758 2815 
Q 2500 3097 2075 3097 
Q 1594 3097 1305 2825 
Q 1016 2553 972 2059 
L 3022 2063 
z
" transform="scale(0.015625)"/>
       <path id="DejaVuSans-72" d="M 2631 2963 
Q 2534 3019 2420 3045 
Q 2306 3072 2169 3072 
Q 1681 3072 1420 2755 
Q 1159 2438 1159 1844 
L 1159 0 
L 581 0 
L 581 3500 
L 1159 3500 
L 1159 2956 
Q 1341 3275 1631 3429 
Q 1922 3584 2338 3584 
Q 2397 3584 2469 3576 
Q 2541 3569 2628 3553 
L 2631 2963 
z
" transform="scale(0.015625)"/>
       <path id="DejaVuSans-67" d="M 2906 1791 
Q 2906 2416 2648 2759 
Q 2391 3103 1925 3103 
Q 1463 3103 1205 2759 
Q 947 2416 947 1791 
Q 947 1169 1205 825 
Q 1463 481 1925 481 
Q 2391 481 2648 825 
Q 2906 1169 2906 1791 
z
M 3481 434 
Q 3481 -459 3084 -895 
Q 2688 -1331 1869 -1331 
Q 1566 -1331 1297 -1286 
Q 1028 -1241 775 -1147 
L 775 -588 
Q 1028 -725 1275 -790 
Q 1522 -856 1778 -856 
Q 2344 -856 2625 -561 
Q 2906 -266 2906 331 
L 2906 616 
Q 2728 306 2450 153 
Q 2172 0 1784 0 
Q 1141 0 747 490 
Q 353 981 353 1791 
Q 353 2603 747 3093 
Q 1141 3584 1784 3584 
Q 2172 3584 2450 3431 
Q 2728 3278 2906 2969 
L 2906 3500 
L 3481 3500 
L 3481 434 
z
" transform="scale(0.015625)"/>
       <path id="DejaVuSans-79" d="M 2059 -325 
Q 1816 -950 1584 -1140 
Q 1353 -1331 966 -1331 
L 506 -1331 
L 506 -850 
L 844 -850 
Q 1081 -850 1212 -737 
Q 1344 -625 1503 -206 
L 1606 56 
L 191 3500 
L 800 3500 
L 1894 763 
L 2988 3500 
L 3597 3500 
L 2059 -325 
z
" transform="scale(0.015625)"/>
       <path id="DejaVuSans-20" transform="scale(0.015625)"/>
       <path id="DejaVuSans-5b" d="M 550 4863 
L 1875 4863 
L 1875 4416 
L 1125 4416 
L 1125 -397 
L 1875 -397 
L 1875 -844 
L 550 -844 
L 550 4863 
z
" transform="scale(0.015625)"/>
       <path id="DejaVuSans-54" d="M -19 4666 
L 3928 4666 
L 3928 4134 
L 2272 4134 
L 2272 0 
L 1638 0 
L 1638 4134 
L -19 4134 
L -19 4666 
z
" transform="scale(0.015625)"/>
       <path id="DejaVuSans-56" d="M 1831 0 
L 50 4666 
L 709 4666 
L 2188 738 
L 3669 4666 
L 4325 4666 
L 2547 0 
L 1831 0 
z
" transform="scale(0.015625)"/>
       <path id="DejaVuSans-5d" d="M 1947 4863 
L 1947 -844 
L 622 -844 
L 622 -397 
L 1369 -397 
L 1369 4416 
L 622 4416 
L 622 4863 
L 1947 4863 
z
" transform="scale(0.015625)"/>
      </defs>
      <use xlink:href="#DejaVuSans-45"/>
      <use xlink:href="#DejaVuSans-6e" x="63.183594"/>
      <use xlink:href="#DejaVuSans-65" x="126.5625"/>
      <use xlink:href="#DejaVuSans-72" x="188.085938"/>
      <use xlink:href="#DejaVuSans-67" x="227.449219"/>
      <use xlink:href="#DejaVuSans-79" x="290.925781"/>
      <use xlink:href="#DejaVuSans-20" x="350.105469"/>
      <use xlink:href="#DejaVuSans-5b" x="381.892578"/>
      <use xlink:href="#DejaVuSans-54" x="420.90625"/>
      <use xlink:href="#DejaVuSans-65" x="464.990234"/>
      <use xlink:href="#DejaVuSans-56" x="526.513672"/>
      <use xlink:href="#DejaVuSans-5d" x="594.921875"/>
     </g>
    </g>
   </g>
   <g id="matplotlib.axis_2">
    <g id="ytick_1">
     <g id="line2d_25">
      <defs>
       <path id="ma2ea036a1c" d="M 0 0 
L -3.5 0 
" style="stroke: #000000; stroke-width: 0.8"/>
      </defs>
      <g>
       <use xlink:href="#ma2ea036a1c" x="60.221389" y="71.318768" style="stroke: #000000; stroke-width: 0.8"/>
      </g>
     </g>
     <g id="text_4">
      <!-- $\mathdefault{10^{-12}}$ -->
      <g transform="translate(25.321389 75.117987) scale(0.1 -0.1)">
       <defs>
        <path id="DejaVuSans-2212" d="M 678 2272 
L 4684 2272 
L 4684 1741 
L 678 1741 
L 678 2272 
z
" transform="scale(0.015625)"/>
        <path id="DejaVuSans-32" d="M 1228 531 
L 3431 531 
L 3431 0 
L 469 0 
L 469 531 
Q 828 903 1448 1529 
Q 2069 2156 2228 2338 
Q 2531 2678 2651 2914 
Q 2772 3150 2772 3378 
Q 2772 3750 2511 3984 
Q 2250 4219 1831 4219 
Q 1534 4219 1204 4116 
Q 875 4013 500 3803 
L 500 4441 
Q 881 4594 1212 4672 
Q 1544 4750 1819 4750 
Q 2544 4750 2975 4387 
Q 3406 4025 3406 3419 
Q 3406 3131 3298 2873 
Q 3191 2616 2906 2266 
Q 2828 2175 2409 1742 
Q 1991 1309 1228 531 
z
" transform="scale(0.015625)"/>
       </defs>
       <use xlink:href="#DejaVuSans-31" transform="translate(0 0.765625)"/>
       <use xlink:href="#DejaVuSans-30" transform="translate(63.623047 0.765625)"/>
       <use xlink:href="#DejaVuSans-2212" transform="translate(128.203125 39.046875) scale(0.7)"/>
       <use xlink:href="#DejaVuSans-31" transform="translate(186.855469 39.046875) scale(0.7)"/>
       <use xlink:href="#DejaVuSans-32" transform="translate(231.391602 39.046875) scale(0.7)"/>
      </g>
     </g>
    </g>
    <g id="ytick_2">
     <g id="line2d_26">
      <defs>
       <path id="m102549611c" d="M 0 0 
L -2 0 
" style="stroke: #000000; stroke-width: 0.6"/>
      </defs>
      <g>
       <use xlink:href="#m102549611c" x="60.221389" y="167.737941" style="stroke: #000000; stroke-width: 0.6"/>
      </g>
     </g>
    </g>
    <g id="ytick_3">
     <g id="line2d_27">
      <g>
       <use xlink:href="#m102549611c" x="60.221389" y="143.447094" style="stroke: #000000; stroke-width: 0.6"/>
      </g>
     </g>
    </g>
    <g id="ytick_4">
     <g id="line2d_28">
      <g>
       <use xlink:href="#m102549611c" x="60.221389" y="126.212464" style="stroke: #000000; stroke-width: 0.6"/>
      </g>
     </g>
    </g>
    <g id="ytick_5">
     <g id="line2d_29">
      <g>
       <use xlink:href="#m102549611c" x="60.221389" y="112.844246" style="stroke: #000000; stroke-width: 0.6"/>
      </g>
     </g>
    </g>
    <g id="ytick_6">
     <g id="line2d_30">
      <g>
       <use xlink:href="#m102549611c" x="60.221389" y="101.921616" style="stroke: #000000; stroke-width: 0.6"/>
      </g>
     </g>
    </g>
    <g id="ytick_7">
     <g id="line2d_31">
      <g>
       <use xlink:href="#m102549611c" x="60.221389" y="92.686665" style="stroke: #000000; stroke-width: 0.6"/>
      </g>
     </g>
    </g>
    <g id="ytick_8">
     <g id="line2d_32">
      <g>
       <use xlink:href="#m102549611c" x="60.221389" y="84.686986" style="stroke: #000000; stroke-width: 0.6"/>
      </g>
     </g>
    </g>
    <g id="ytick_9">
     <g id="line2d_33">
      <g>
       <use xlink:href="#m102549611c" x="60.221389" y="77.630769" style="stroke: #000000; stroke-width: 0.6"/>
      </g>
     </g>
    </g>
    <g id="ytick_10">
     <g id="line2d_34">
      <g>
       <use xlink:href="#m102549611c" x="60.221389" y="29.79329" style="stroke: #000000; stroke-width: 0.6"/>
      </g>
     </g>
    </g>
    <g id="text_5">
     <!-- e2 * dnde [TeV / (cm2 s)] -->
     <g transform="translate(19.241702 153.243688) rotate(-90) scale(0.1 -0.1)">
      <defs>
       <path id="DejaVuSans-2a" d="M 3009 3897 
L 1888 3291 
L 3009 2681 
L 2828 2375 
L 1778 3009 
L 1778 1831 
L 1422 1831 
L 1422 3009 
L 372 2375 
L 191 2681 
L 1313 3291 
L 191 3897 
L 372 4206 
L 1422 3572 
L 1422 4750 
L 1778 4750 
L 1778 3572 
L 2828 4206 
L 3009 3897 
z
" transform="scale(0.015625)"/>
       <path id="DejaVuSans-64" d="M 2906 2969 
L 2906 4863 
L 3481 4863 
L 3481 0 
L 2906 0 
L 2906 525 
Q 2725 213 2448 61 
Q 2172 -91 1784 -91 
Q 1150 -91 751 415 
Q 353 922 353 1747 
Q 353 2572 751 3078 
Q 1150 3584 1784 3584 
Q 2172 3584 2448 3432 
Q 2725 3281 2906 2969 
z
M 947 1747 
Q 947 1113 1208 752 
Q 1469 391 1925 391 
Q 2381 391 2643 752 
Q 2906 1113 2906 1747 
Q 2906 2381 2643 2742 
Q 2381 3103 1925 3103 
Q 1469 3103 1208 2742 
Q 947 2381 947 1747 
z
" transform="scale(0.015625)"/>
       <path id="DejaVuSans-2f" d="M 1625 4666 
L 2156 4666 
L 531 -594 
L 0 -594 
L 1625 4666 
z
" transform="scale(0.015625)"/>
       <path id="DejaVuSans-28" d="M 1984 4856 
Q 1566 4138 1362 3434 
Q 1159 2731 1159 2009 
Q 1159 1288 1364 580 
Q 1569 -128 1984 -844 
L 1484 -844 
Q 1016 -109 783 600 
Q 550 1309 550 2009 
Q 550 2706 781 3412 
Q 1013 4119 1484 4856 
L 1984 4856 
z
" transform="scale(0.015625)"/>
       <path id="DejaVuSans-63" d="M 3122 3366 
L 3122 2828 
Q 2878 2963 2633 3030 
Q 2388 3097 2138 3097 
Q 1578 3097 1268 2742 
Q 959 2388 959 1747 
Q 959 1106 1268 751 
Q 1578 397 2138 397 
Q 2388 397 2633 464 
Q 2878 531 3122 666 
L 3122 134 
Q 2881 22 2623 -34 
Q 2366 -91 2075 -91 
Q 1284 -91 818 406 
Q 353 903 353 1747 
Q 353 2603 823 3093 
Q 1294 3584 2113 3584 
Q 2378 3584 2631 3529 
Q 2884 3475 3122 3366 
z
" transform="scale(0.015625)"/>
       <path id="DejaVuSans-6d" d="M 3328 2828 
Q 3544 3216 3844 3400 
Q 4144 3584 4550 3584 
Q 5097 3584 5394 3201 
Q 5691 2819 5691 2113 
L 5691 0 
L 5113 0 
L 5113 2094 
Q 5113 2597 4934 2840 
Q 4756 3084 4391 3084 
Q 3944 3084 3684 2787 
Q 3425 2491 3425 1978 
L 3425 0 
L 2847 0 
L 2847 2094 
Q 2847 2600 2669 2842 
Q 2491 3084 2119 3084 
Q 1678 3084 1418 2786 
Q 1159 2488 1159 1978 
L 1159 0 
L 581 0 
L 581 3500 
L 1159 3500 
L 1159 2956 
Q 1356 3278 1631 3431 
Q 1906 3584 2284 3584 
Q 2666 3584 2933 3390 
Q 3200 3197 3328 2828 
z
" transform="scale(0.015625)"/>
       <path id="DejaVuSans-73" d="M 2834 3397 
L 2834 2853 
Q 2591 2978 2328 3040 
Q 2066 3103 1784 3103 
Q 1356 3103 1142 2972 
Q 928 2841 928 2578 
Q 928 2378 1081 2264 
Q 1234 2150 1697 2047 
L 1894 2003 
Q 2506 1872 2764 1633 
Q 3022 1394 3022 966 
Q 3022 478 2636 193 
Q 2250 -91 1575 -91 
Q 1294 -91 989 -36 
Q 684 19 347 128 
L 347 722 
Q 666 556 975 473 
Q 1284 391 1588 391 
Q 1994 391 2212 530 
Q 2431 669 2431 922 
Q 2431 1156 2273 1281 
Q 2116 1406 1581 1522 
L 1381 1569 
Q 847 1681 609 1914 
Q 372 2147 372 2553 
Q 372 3047 722 3315 
Q 1072 3584 1716 3584 
Q 2034 3584 2315 3537 
Q 2597 3491 2834 3397 
z
" transform="scale(0.015625)"/>
       <path id="DejaVuSans-29" d="M 513 4856 
L 1013 4856 
Q 1481 4119 1714 3412 
Q 1947 2706 1947 2009 
Q 1947 1309 1714 600 
Q 1481 -109 1013 -844 
L 513 -844 
Q 928 -128 1133 580 
Q 1338 1288 1338 2009 
Q 1338 2731 1133 3434 
Q 928 4138 513 4856 
z
" transform="scale(0.015625)"/>
      </defs>
      <use xlink:href="#DejaVuSans-65"/>
      <use xlink:href="#DejaVuSans-32" x="61.523438"/>
      <use xlink:href="#DejaVuSans-20" x="125.146484"/>
      <use xlink:href="#DejaVuSans-2a" x="156.933594"/>
      <use xlink:href="#DejaVuSans-20" x="206.933594"/>
      <use xlink:href="#DejaVuSans-64" x="238.720703"/>
      <use xlink:href="#DejaVuSans-6e" x="302.197266"/>
      <use xlink:href="#DejaVuSans-64" x="365.576172"/>
      <use xlink:href="#DejaVuSans-65" x="429.052734"/>
      <use xlink:href="#DejaVuSans-20" x="490.576172"/>
      <use xlink:href="#DejaVuSans-5b" x="522.363281"/>
      <use xlink:href="#DejaVuSans-54" x="561.376953"/>
      <use xlink:href="#DejaVuSans-65" x="605.460938"/>
      <use xlink:href="#DejaVuSans-56" x="666.984375"/>
      <use xlink:href="#DejaVuSans-20" x="735.392578"/>
      <use xlink:href="#DejaVuSans-2f" x="767.179688"/>
      <use xlink:href="#DejaVuSans-20" x="800.871094"/>
      <use xlink:href="#DejaVuSans-28" x="832.658203"/>
      <use xlink:href="#DejaVuSans-63" x="871.671875"/>
      <use xlink:href="#DejaVuSans-6d" x="926.652344"/>
      <use xlink:href="#DejaVuSans-32" x="1024.064453"/>
      <use xlink:href="#DejaVuSans-20" x="1087.6875"/>
      <use xlink:href="#DejaVuSans-73" x="1119.474609"/>
      <use xlink:href="#DejaVuSans-29" x="1171.574219"/>
      <use xlink:href="#DejaVuSans-5d" x="1210.587891"/>
     </g>
    </g>
   </g>
   <g id="line2d_35">
    <path d="M 74.645222 58.826156 
L 77.222106 59.705553 
L 79.798989 60.58495 
L 82.375873 61.464347 
L 84.952756 62.343744 
L 87.529639 63.223141 
L 90.106523 64.102538 
L 92.683406 64.981936 
L 95.26029 65.861333 
L 97.837173 66.74073 
L 100.414056 67.620127 
L 102.99094 68.499524 
L 105.567823 69.378921 
L 108.144707 70.258318 
L 110.72159 71.137716 
L 113.298473 72.017113 
L 115.875357 72.89651 
L 118.45224 73.775907 
L 121.029124 74.655304 
L 123.606007 75.534701 
L 126.18289 76.414099 
L 128.759774 77.293496 
L 131.336657 78.172893 
L 133.913541 79.05229 
L 136.490424 79.931687 
L 139.067307 80.811084 
L 141.644191 81.690481 
L 144.221074 82.569879 
L 146.797958 83.449276 
L 149.374841 84.328673 
L 151.951724 85.20807 
L 154.528608 86.087467 
L 157.105491 86.966864 
L 159.682375 87.846261 
L 162.259258 88.725659 
L 164.836141 89.605056 
L 167.413025 90.484453 
L 169.989908 91.36385 
L 172.566792 92.243247 
L 175.143675 93.122644 
L 177.720558 94.002041 
L 180.297442 94.881439 
L 182.874325 95.760836 
L 185.451209 96.640233 
L 188.028092 97.51963 
L 190.604975 98.399027 
L 193.181859 99.278424 
L 195.758742 100.157822 
L 198.335626 101.037219 
L 200.912509 101.916616 
L 203.489392 102.796013 
L 206.066276 103.67541 
L 208.643159 104.554807 
L 211.220042 105.434204 
L 213.796926 106.313602 
L 216.373809 107.192999 
L 218.950693 108.072396 
L 221.527576 108.951793 
L 224.104459 109.83119 
L 226.681343 110.710587 
L 229.258226 111.589984 
L 231.83511 112.469382 
L 234.411993 113.348779 
L 236.988876 114.228176 
L 239.56576 115.107573 
L 242.142643 115.98697 
L 244.719527 116.866367 
L 247.29641 117.745765 
L 249.873293 118.625162 
L 252.450177 119.504559 
L 255.02706 120.383956 
L 257.603944 121.263353 
L 260.180827 122.14275 
L 262.75771 123.022147 
L 265.334594 123.901545 
L 267.911477 124.780942 
L 270.488361 125.660339 
L 273.065244 126.539736 
L 275.642127 127.419133 
L 278.219011 128.29853 
L 280.795894 129.177927 
L 283.372778 130.057325 
L 285.949661 130.936722 
L 288.526544 131.816119 
L 291.103428 132.695516 
L 293.680311 133.574913 
L 296.257195 134.45431 
L 298.834078 135.333708 
L 301.410961 136.213105 
L 303.987845 137.092502 
L 306.564728 137.971899 
L 309.141612 138.851296 
L 311.718495 139.730693 
L 314.295378 140.61009 
L 316.872262 141.489488 
L 319.449145 142.368885 
L 322.026029 143.248282 
L 324.602912 144.127679 
L 327.179795 145.007076 
L 329.756679 145.886473 
" clip-path="url(#pc62cf6cafc)" style="fill: none; stroke-dasharray: 1.5,2.475; stroke-dashoffset: 0; stroke: #000000; stroke-width: 1.5"/>
   </g>
   <g id="LineCollection_1">
    <path clip-path="url(#pc62cf6cafc)" style="fill: none; stroke: #8b0000; stroke-width: 1.5"/>
    <path clip-path="url(#pc62cf6cafc)" style="fill: none; stroke: #8b0000; stroke-width: 1.5"/>
    <path clip-path="url(#pc62cf6cafc)" style="fill: none; stroke: #8b0000; stroke-width: 1.5"/>
    <path clip-path="url(#pc62cf6cafc)" style="fill: none; stroke: #8b0000; stroke-width: 1.5"/>
    <path clip-path="url(#pc62cf6cafc)" style="fill: none; stroke: #8b0000; stroke-width: 1.5"/>
    <path d="M 78.376269 217 
L 78.376269 18.16297 
" clip-path="url(#pc62cf6cafc)" style="fill: none; stroke: #8b0000; stroke-width: 1.5"/>
    <path d="M 93.534407 104.503174 
L 93.534407 47.197352 
" clip-path="url(#pc62cf6cafc)" style="fill: none; stroke: #8b0000; stroke-width: 1.5"/>
    <path d="M 108.692544 89.500648 
L 108.692544 61.952982 
" clip-path="url(#pc62cf6cafc)" style="fill: none; stroke: #8b0000; stroke-width: 1.5"/>
    <path d="M 123.850682 91.965297 
L 123.850682 68.467216 
" clip-path="url(#pc62cf6cafc)" style="fill: none; stroke: #8b0000; stroke-width: 1.5"/>
    <path d="M 139.008819 96.880749 
L 139.008819 73.3804 
" clip-path="url(#pc62cf6cafc)" style="fill: none; stroke: #8b0000; stroke-width: 1.5"/>
    <path d="M 154.166957 102.244417 
L 154.166957 77.992939 
" clip-path="url(#pc62cf6cafc)" style="fill: none; stroke: #8b0000; stroke-width: 1.5"/>
    <path d="M 169.325095 108.094266 
L 169.325095 82.291013 
" clip-path="url(#pc62cf6cafc)" style="fill: none; stroke: #8b0000; stroke-width: 1.5"/>
    <path d="M 184.483232 114.374689 
L 184.483232 86.332186 
" clip-path="url(#pc62cf6cafc)" style="fill: none; stroke: #8b0000; stroke-width: 1.5"/>
    <path d="M 199.64137 120.718202 
L 199.64137 90.368713 
" clip-path="url(#pc62cf6cafc)" style="fill: none; stroke: #8b0000; stroke-width: 1.5"/>
    <path d="M 214.799508 127.650454 
L 214.799508 94.097636 
" clip-path="url(#pc62cf6cafc)" style="fill: none; stroke: #8b0000; stroke-width: 1.5"/>
    <path d="M 229.957645 135.246865 
L 229.957645 97.535018 
" clip-path="url(#pc62cf6cafc)" style="fill: none; stroke: #8b0000; stroke-width: 1.5"/>
    <path d="M 245.115783 143.323685 
L 245.115783 100.831834 
" clip-path="url(#pc62cf6cafc)" style="fill: none; stroke: #8b0000; stroke-width: 1.5"/>
    <path d="M 260.27392 152.407654 
L 260.27392 103.799101 
" clip-path="url(#pc62cf6cafc)" style="fill: none; stroke: #8b0000; stroke-width: 1.5"/>
    <path d="M 275.432058 162.697637 
L 275.432058 106.474533 
" clip-path="url(#pc62cf6cafc)" style="fill: none; stroke: #8b0000; stroke-width: 1.5"/>
    <path d="M 290.590196 173.795058 
L 290.590196 109.136334 
" clip-path="url(#pc62cf6cafc)" style="fill: none; stroke: #8b0000; stroke-width: 1.5"/>
    <path d="M 305.748333 187.066229 
L 305.748333 111.46008 
" clip-path="url(#pc62cf6cafc)" style="fill: none; stroke: #8b0000; stroke-width: 1.5"/>
    <path d="M 320.906471 204.921785 
L 320.906471 113.162764 
" clip-path="url(#pc62cf6cafc)" style="fill: none; stroke: #8b0000; stroke-width: 1.5"/>
    <path d="M 336.064609 217 
L 336.064609 113.668077 
" clip-path="url(#pc62cf6cafc)" style="fill: none; stroke: #8b0000; stroke-width: 1.5"/>
    <path clip-path="url(#pc62cf6cafc)" style="fill: none; stroke: #8b0000; stroke-width: 1.5"/>
   </g>
   <g id="LineCollection_2">
    <path clip-path="url(#pc62cf6cafc)" style="fill: none; stroke: #006400; stroke-width: 1.5"/>
    <path clip-path="url(#pc62cf6cafc)" style="fill: none; stroke: #006400; stroke-width: 1.5"/>
    <path clip-path="url(#pc62cf6cafc)" style="fill: none; stroke: #006400; stroke-width: 1.5"/>
    <path clip-path="url(#pc62cf6cafc)" style="fill: none; stroke: #006400; stroke-width: 1.5"/>
    <path clip-path="url(#pc62cf6cafc)" style="fill: none; stroke: #006400; stroke-width: 1.5"/>
    <path d="M 73.356781 217 
L 73.356781 18.069455 
" clip-path="url(#pc62cf6cafc)" style="fill: none; stroke: #006400; stroke-width: 1.5"/>
    <path d="M 88.514918 105.45558 
L 88.514918 46.842928 
" clip-path="url(#pc62cf6cafc)" style="fill: none; stroke: #006400; stroke-width: 1.5"/>
    <path d="M 103.673056 90.842512 
L 103.673056 61.126588 
" clip-path="url(#pc62cf6cafc)" style="fill: none; stroke: #006400; stroke-width: 1.5"/>
    <path d="M 118.831194 93.448012 
L 118.831194 67.483769 
" clip-path="url(#pc62cf6cafc)" style="fill: none; stroke: #006400; stroke-width: 1.5"/>
    <path d="M 133.989331 98.344679 
L 133.989331 72.402333 
" clip-path="url(#pc62cf6cafc)" style="fill: none; stroke: #006400; stroke-width: 1.5"/>
    <path d="M 149.147469 103.654616 
L 149.147469 77.045425 
" clip-path="url(#pc62cf6cafc)" style="fill: none; stroke: #006400; stroke-width: 1.5"/>
    <path d="M 164.305607 109.432908 
L 164.305607 81.400568 
" clip-path="url(#pc62cf6cafc)" style="fill: none; stroke: #006400; stroke-width: 1.5"/>
    <path d="M 179.463744 115.648351 
L 179.463744 85.508787 
" clip-path="url(#pc62cf6cafc)" style="fill: none; stroke: #006400; stroke-width: 1.5"/>
    <path d="M 194.621882 121.935245 
L 194.621882 89.613441 
" clip-path="url(#pc62cf6cafc)" style="fill: none; stroke: #006400; stroke-width: 1.5"/>
    <path d="M 209.780019 128.827825 
L 209.780019 93.407175 
" clip-path="url(#pc62cf6cafc)" style="fill: none; stroke: #006400; stroke-width: 1.5"/>
    <path d="M 224.938157 136.392365 
L 224.938157 96.904996 
" clip-path="url(#pc62cf6cafc)" style="fill: none; stroke: #006400; stroke-width: 1.5"/>
    <path d="M 240.096295 144.44787 
L 240.096295 100.259528 
" clip-path="url(#pc62cf6cafc)" style="fill: none; stroke: #006400; stroke-width: 1.5"/>
    <path d="M 255.254432 153.517912 
L 255.254432 103.286475 
" clip-path="url(#pc62cf6cafc)" style="fill: none; stroke: #006400; stroke-width: 1.5"/>
    <path d="M 270.41257 163.811049 
L 270.41257 106.019112 
" clip-path="url(#pc62cf6cafc)" style="fill: none; stroke: #006400; stroke-width: 1.5"/>
    <path d="M 285.570708 174.939592 
L 285.570708 108.727428 
" clip-path="url(#pc62cf6cafc)" style="fill: none; stroke: #006400; stroke-width: 1.5"/>
    <path d="M 300.728845 188.280083 
L 300.728845 111.096379 
" clip-path="url(#pc62cf6cafc)" style="fill: none; stroke: #006400; stroke-width: 1.5"/>
    <path d="M 315.886983 206.300012 
L 315.886983 112.851308 
" clip-path="url(#pc62cf6cafc)" style="fill: none; stroke: #006400; stroke-width: 1.5"/>
    <path d="M 331.04512 217 
L 331.04512 113.407237 
" clip-path="url(#pc62cf6cafc)" style="fill: none; stroke: #006400; stroke-width: 1.5"/>
    <path clip-path="url(#pc62cf6cafc)" style="fill: none; stroke: #006400; stroke-width: 1.5"/>
   </g>
   <g id="line2d_36">
    <defs>
     <path id="m8cc435e603" d="M 0 3 
C 0.795609 3 1.55874 2.683901 2.12132 2.12132 
C 2.683901 1.55874 3 0.795609 3 0 
C 3 -0.795609 2.683901 -1.55874 2.12132 -2.12132 
C 1.55874 -2.683901 0.795609 -3 0 -3 
C -0.795609 -3 -1.55874 -2.683901 -2.12132 -2.12132 
C -2.683901 -1.55874 -3 -0.795609 -3 0 
C -3 0.795609 -2.683901 1.55874 -2.12132 2.12132 
C -1.55874 2.683901 -0.795609 3 0 3 
z
" style="stroke: #8b0000"/>
    </defs>
    <g clip-path="url(#pc62cf6cafc)">
     <use xlink:href="#m8cc435e603" x="78.376269" y="64.323984" style="fill: #8b0000; stroke: #8b0000"/>
     <use xlink:href="#m8cc435e603" x="93.534407" y="69.244575" style="fill: #8b0000; stroke: #8b0000"/>
     <use xlink:href="#m8cc435e603" x="108.692544" y="74.157172" style="fill: #8b0000; stroke: #8b0000"/>
     <use xlink:href="#m8cc435e603" x="123.850682" y="79.071479" style="fill: #8b0000; stroke: #8b0000"/>
     <use xlink:href="#m8cc435e603" x="139.008819" y="83.985577" style="fill: #8b0000; stroke: #8b0000"/>
     <use xlink:href="#m8cc435e603" x="154.166957" y="88.899818" style="fill: #8b0000; stroke: #8b0000"/>
     <use xlink:href="#m8cc435e603" x="169.325095" y="93.81403" style="fill: #8b0000; stroke: #8b0000"/>
     <use xlink:href="#m8cc435e603" x="184.483232" y="98.727407" style="fill: #8b0000; stroke: #8b0000"/>
     <use xlink:href="#m8cc435e603" x="199.64137" y="103.641795" style="fill: #8b0000; stroke: #8b0000"/>
     <use xlink:href="#m8cc435e603" x="214.799508" y="108.555141" style="fill: #8b0000; stroke: #8b0000"/>
     <use xlink:href="#m8cc435e603" x="229.957645" y="113.471277" style="fill: #8b0000; stroke: #8b0000"/>
     <use xlink:href="#m8cc435e603" x="245.115783" y="118.38686" style="fill: #8b0000; stroke: #8b0000"/>
     <use xlink:href="#m8cc435e603" x="260.27392" y="123.302965" style="fill: #8b0000; stroke: #8b0000"/>
     <use xlink:href="#m8cc435e603" x="275.432058" y="128.21926" style="fill: #8b0000; stroke: #8b0000"/>
     <use xlink:href="#m8cc435e603" x="290.590196" y="133.135677" style="fill: #8b0000; stroke: #8b0000"/>
     <use xlink:href="#m8cc435e603" x="305.748333" y="138.052523" style="fill: #8b0000; stroke: #8b0000"/>
     <use xlink:href="#m8cc435e603" x="320.906471" y="142.963309" style="fill: #8b0000; stroke: #8b0000"/>
     <use xlink:href="#m8cc435e603" x="336.064609" y="147.87965" style="fill: #8b0000; stroke: #8b0000"/>
    </g>
   </g>
   <g id="line2d_37">
    <defs>
     <path id="m0da1dd4377" d="M 0 3 
C 0.795609 3 1.55874 2.683901 2.12132 2.12132 
C 2.683901 1.55874 3 0.795609 3 0 
C 3 -0.795609 2.683901 -1.55874 2.12132 -2.12132 
C 1.55874 -2.683901 0.795609 -3 0 -3 
C -0.795609 -3 -1.55874 -2.683901 -2.12132 -2.12132 
C -2.683901 -1.55874 -3 -0.795609 -3 0 
C -3 0.795609 -2.683901 1.55874 -2.12132 2.12132 
C -1.55874 2.683901 -0.795609 3 0 3 
z
" style="stroke: #006400"/>
    </defs>
    <g clip-path="url(#pc62cf6cafc)">
     <use xlink:href="#m0da1dd4377" x="73.356781" y="64.324239" style="fill: #006400; stroke: #006400"/>
     <use xlink:href="#m0da1dd4377" x="88.514918" y="69.250037" style="fill: #006400; stroke: #006400"/>
     <use xlink:href="#m0da1dd4377" x="103.673056" y="74.160669" style="fill: #006400; stroke: #006400"/>
     <use xlink:href="#m0da1dd4377" x="118.831194" y="79.070158" style="fill: #006400; stroke: #006400"/>
     <use xlink:href="#m0da1dd4377" x="133.989331" y="83.980109" style="fill: #006400; stroke: #006400"/>
     <use xlink:href="#m0da1dd4377" x="149.147469" y="88.884655" style="fill: #006400; stroke: #006400"/>
     <use xlink:href="#m0da1dd4377" x="164.305607" y="93.791875" style="fill: #006400; stroke: #006400"/>
     <use xlink:href="#m0da1dd4377" x="179.463744" y="98.702853" style="fill: #006400; stroke: #006400"/>
     <use xlink:href="#m0da1dd4377" x="194.621882" y="103.620502" style="fill: #006400; stroke: #006400"/>
     <use xlink:href="#m0da1dd4377" x="209.780019" y="108.536979" style="fill: #006400; stroke: #006400"/>
     <use xlink:href="#m0da1dd4377" x="224.938157" y="113.452524" style="fill: #006400; stroke: #006400"/>
     <use xlink:href="#m0da1dd4377" x="240.096295" y="118.368694" style="fill: #006400; stroke: #006400"/>
     <use xlink:href="#m0da1dd4377" x="255.254432" y="123.284867" style="fill: #006400; stroke: #006400"/>
     <use xlink:href="#m0da1dd4377" x="270.41257" y="128.20087" style="fill: #006400; stroke: #006400"/>
     <use xlink:href="#m0da1dd4377" x="285.570708" y="133.11699" style="fill: #006400; stroke: #006400"/>
     <use xlink:href="#m0da1dd4377" x="300.728845" y="138.033317" style="fill: #006400; stroke: #006400"/>
     <use xlink:href="#m0da1dd4377" x="315.886983" y="142.948737" style="fill: #006400; stroke: #006400"/>
     <use xlink:href="#m0da1dd4377" x="331.04512" y="147.86032" style="fill: #006400; stroke: #006400"/>
    </g>
   </g>
   <g id="patch_3">
    <path d="M 60.221389 170.728 
L 60.221389 10.8 
" style="fill: none; stroke: #000000; stroke-width: 0.8; stroke-linejoin: miter; stroke-linecap: square"/>
   </g>
   <g id="patch_4">
    <path d="M 349.2 170.728 
L 349.2 10.8 
" style="fill: none; stroke: #000000; stroke-width: 0.8; stroke-linejoin: miter; stroke-linecap: square"/>
   </g>
   <g id="patch_5">
    <path d="M 60.221389 170.728 
L 349.2 170.728 
" style="fill: none; stroke: #000000; stroke-width: 0.8; stroke-linejoin: miter; stroke-linecap: square"/>
   </g>
   <g id="patch_6">
    <path d="M 60.221389 10.8 
L 349.2 10.8 
" style="fill: none; stroke: #000000; stroke-width: 0.8; stroke-linejoin: miter; stroke-linecap: square"/>
   </g>
   <g id="legend_1">
    <g id="patch_7">
     <path d="M 248.3 62.834375 
L 342.2 62.834375 
Q 344.2 62.834375 344.2 60.834375 
L 344.2 17.8 
Q 344.2 15.8 342.2 15.8 
L 248.3 15.8 
Q 246.3 15.8 246.3 17.8 
L 246.3 60.834375 
Q 246.3 62.834375 248.3 62.834375 
z
" style="fill: #ffffff; opacity: 0.8; stroke: #cccccc; stroke-linejoin: miter"/>
    </g>
    <g id="patch_8">
     <path d="M 250.3 27.398438 
L 270.3 27.398438 
L 270.3 20.398438 
L 250.3 20.398438 
z
" style="fill: #008000; fill-opacity: 0.5"/>
    </g>
    <g id="text_6">
     <!-- $1\sigma$ Nuisance -->
     <g transform="translate(278.3 27.398438) scale(0.1 -0.1)">
      <defs>
       <path id="DejaVuSans-Oblique-3c3" d="M 2219 3044 
Q 1744 3044 1422 2700 
Q 1081 2341 969 1747 
Q 844 1119 1044 756 
Q 1241 397 1706 397 
Q 2166 397 2503 759 
Q 2844 1122 2966 1747 
Q 3075 2319 2881 2700 
Q 2700 3044 2219 3044 
z
M 2309 3503 
L 4219 3500 
L 4106 2925 
L 3463 2925 
Q 3706 2438 3575 1747 
Q 3406 888 2884 400 
Q 2359 -91 1609 -91 
Q 856 -91 525 400 
Q 194 888 363 1747 
Q 528 2609 1050 3097 
Q 1484 3503 2309 3503 
z
" transform="scale(0.015625)"/>
       <path id="DejaVuSans-4e" d="M 628 4666 
L 1478 4666 
L 3547 763 
L 3547 4666 
L 4159 4666 
L 4159 0 
L 3309 0 
L 1241 3903 
L 1241 0 
L 628 0 
L 628 4666 
z
" transform="scale(0.015625)"/>
       <path id="DejaVuSans-75" d="M 544 1381 
L 544 3500 
L 1119 3500 
L 1119 1403 
Q 1119 906 1312 657 
Q 1506 409 1894 409 
Q 2359 409 2629 706 
Q 2900 1003 2900 1516 
L 2900 3500 
L 3475 3500 
L 3475 0 
L 2900 0 
L 2900 538 
Q 2691 219 2414 64 
Q 2138 -91 1772 -91 
Q 1169 -91 856 284 
Q 544 659 544 1381 
z
M 1991 3584 
L 1991 3584 
z
" transform="scale(0.015625)"/>
       <path id="DejaVuSans-69" d="M 603 3500 
L 1178 3500 
L 1178 0 
L 603 0 
L 603 3500 
z
M 603 4863 
L 1178 4863 
L 1178 4134 
L 603 4134 
L 603 4863 
z
" transform="scale(0.015625)"/>
       <path id="DejaVuSans-61" d="M 2194 1759 
Q 1497 1759 1228 1600 
Q 959 1441 959 1056 
Q 959 750 1161 570 
Q 1363 391 1709 391 
Q 2188 391 2477 730 
Q 2766 1069 2766 1631 
L 2766 1759 
L 2194 1759 
z
M 3341 1997 
L 3341 0 
L 2766 0 
L 2766 531 
Q 2569 213 2275 61 
Q 1981 -91 1556 -91 
Q 1019 -91 701 211 
Q 384 513 384 1019 
Q 384 1609 779 1909 
Q 1175 2209 1959 2209 
L 2766 2209 
L 2766 2266 
Q 2766 2663 2505 2880 
Q 2244 3097 1772 3097 
Q 1472 3097 1187 3025 
Q 903 2953 641 2809 
L 641 3341 
Q 956 3463 1253 3523 
Q 1550 3584 1831 3584 
Q 2591 3584 2966 3190 
Q 3341 2797 3341 1997 
z
" transform="scale(0.015625)"/>
      </defs>
      <use xlink:href="#DejaVuSans-31" transform="translate(0 0.015625)"/>
      <use xlink:href="#DejaVuSans-Oblique-3c3" transform="translate(63.623047 0.015625)"/>
      <use xlink:href="#DejaVuSans-20" transform="translate(127.001953 0.015625)"/>
      <use xlink:href="#DejaVuSans-4e" transform="translate(158.789062 0.015625)"/>
      <use xlink:href="#DejaVuSans-75" transform="translate(233.59375 0.015625)"/>
      <use xlink:href="#DejaVuSans-69" transform="translate(296.972656 0.015625)"/>
      <use xlink:href="#DejaVuSans-73" transform="translate(324.755859 0.015625)"/>
      <use xlink:href="#DejaVuSans-61" transform="translate(376.855469 0.015625)"/>
      <use xlink:href="#DejaVuSans-6e" transform="translate(438.134766 0.015625)"/>
      <use xlink:href="#DejaVuSans-63" transform="translate(501.513672 0.015625)"/>
      <use xlink:href="#DejaVuSans-65" transform="translate(556.494141 0.015625)"/>
     </g>
    </g>
    <g id="patch_9">
     <path d="M 250.3 42.076563 
L 270.3 42.076563 
L 270.3 35.076563 
L 250.3 35.076563 
z
" style="fill: #ff0000; fill-opacity: 0.6"/>
    </g>
    <g id="text_7">
     <!-- $1\sigma$ Standard -->
     <g transform="translate(278.3 42.076563) scale(0.1 -0.1)">
      <defs>
       <path id="DejaVuSans-53" d="M 3425 4513 
L 3425 3897 
Q 3066 4069 2747 4153 
Q 2428 4238 2131 4238 
Q 1616 4238 1336 4038 
Q 1056 3838 1056 3469 
Q 1056 3159 1242 3001 
Q 1428 2844 1947 2747 
L 2328 2669 
Q 3034 2534 3370 2195 
Q 3706 1856 3706 1288 
Q 3706 609 3251 259 
Q 2797 -91 1919 -91 
Q 1588 -91 1214 -16 
Q 841 59 441 206 
L 441 856 
Q 825 641 1194 531 
Q 1563 422 1919 422 
Q 2459 422 2753 634 
Q 3047 847 3047 1241 
Q 3047 1584 2836 1778 
Q 2625 1972 2144 2069 
L 1759 2144 
Q 1053 2284 737 2584 
Q 422 2884 422 3419 
Q 422 4038 858 4394 
Q 1294 4750 2059 4750 
Q 2388 4750 2728 4690 
Q 3069 4631 3425 4513 
z
" transform="scale(0.015625)"/>
       <path id="DejaVuSans-74" d="M 1172 4494 
L 1172 3500 
L 2356 3500 
L 2356 3053 
L 1172 3053 
L 1172 1153 
Q 1172 725 1289 603 
Q 1406 481 1766 481 
L 2356 481 
L 2356 0 
L 1766 0 
Q 1100 0 847 248 
Q 594 497 594 1153 
L 594 3053 
L 172 3053 
L 172 3500 
L 594 3500 
L 594 4494 
L 1172 4494 
z
" transform="scale(0.015625)"/>
      </defs>
      <use xlink:href="#DejaVuSans-31" transform="translate(0 0.015625)"/>
      <use xlink:href="#DejaVuSans-Oblique-3c3" transform="translate(63.623047 0.015625)"/>
      <use xlink:href="#DejaVuSans-20" transform="translate(127.001953 0.015625)"/>
      <use xlink:href="#DejaVuSans-53" transform="translate(158.789062 0.015625)"/>
      <use xlink:href="#DejaVuSans-74" transform="translate(222.265625 0.015625)"/>
      <use xlink:href="#DejaVuSans-61" transform="translate(261.474609 0.015625)"/>
      <use xlink:href="#DejaVuSans-6e" transform="translate(322.753906 0.015625)"/>
      <use xlink:href="#DejaVuSans-64" transform="translate(386.132812 0.015625)"/>
      <use xlink:href="#DejaVuSans-61" transform="translate(449.609375 0.015625)"/>
      <use xlink:href="#DejaVuSans-72" transform="translate(510.888672 0.015625)"/>
      <use xlink:href="#DejaVuSans-64" transform="translate(552.001953 0.015625)"/>
     </g>
    </g>
    <g id="line2d_38">
     <path d="M 250.3 53.254688 
L 260.3 53.254688 
L 270.3 53.254688 
" style="fill: none; stroke-dasharray: 1.5,2.475; stroke-dashoffset: 0; stroke: #000000; stroke-width: 1.5"/>
    </g>
    <g id="text_8">
     <!-- Input -->
     <g transform="translate(278.3 56.754688) scale(0.1 -0.1)">
      <defs>
       <path id="DejaVuSans-49" d="M 628 4666 
L 1259 4666 
L 1259 0 
L 628 0 
L 628 4666 
z
" transform="scale(0.015625)"/>
       <path id="DejaVuSans-70" d="M 1159 525 
L 1159 -1331 
L 581 -1331 
L 581 3500 
L 1159 3500 
L 1159 2969 
Q 1341 3281 1617 3432 
Q 1894 3584 2278 3584 
Q 2916 3584 3314 3078 
Q 3713 2572 3713 1747 
Q 3713 922 3314 415 
Q 2916 -91 2278 -91 
Q 1894 -91 1617 61 
Q 1341 213 1159 525 
z
M 3116 1747 
Q 3116 2381 2855 2742 
Q 2594 3103 2138 3103 
Q 1681 3103 1420 2742 
Q 1159 2381 1159 1747 
Q 1159 1113 1420 752 
Q 1681 391 2138 391 
Q 2594 391 2855 752 
Q 3116 1113 3116 1747 
z
" transform="scale(0.015625)"/>
      </defs>
      <use xlink:href="#DejaVuSans-49"/>
      <use xlink:href="#DejaVuSans-6e" x="29.492188"/>
      <use xlink:href="#DejaVuSans-70" x="92.871094"/>
      <use xlink:href="#DejaVuSans-75" x="156.347656"/>
      <use xlink:href="#DejaVuSans-74" x="219.726562"/>
     </g>
    </g>
   </g>
  </g>
 </g>
 <defs>
  <clipPath id="pc62cf6cafc">
   <rect x="60.221389" y="10.8" width="288.978611" height="159.928"/>
  </clipPath>
 </defs>
</svg>
