<?xml version="1.0" encoding="utf-8" standalone="no"?>
<!DOCTYPE svg PUBLIC "-//W3C//DTD SVG 1.1//EN"
  "http://www.w3.org/Graphics/SVG/1.1/DTD/svg11.dtd">
<svg xmlns:xlink="http://www.w3.org/1999/xlink" width="360pt" height="216pt" viewBox="0 0 360 216" xmlns="http://www.w3.org/2000/svg" version="1.1">
 <metadata>
  <rdf:RDF xmlns:dc="http://purl.org/dc/elements/1.1/" xmlns:cc="http://creativecommons.org/ns#" xmlns:rdf="http://www.w3.org/1999/02/22-rdf-syntax-ns#">
   <cc:Work>
    <dc:type rdf:resource="http://purl.org/dc/dcmitype/StillImage"/>
    <dc:date>2023-02-09T14:54:32.731145</dc:date>
    <dc:format>image/svg+xml</dc:format>
    <dc:creator>
     <cc:Agent>
      <dc:title>Matplotlib v3.6.2, https://matplotlib.org/</dc:title>
     </cc:Agent>
    </dc:creator>
   </cc:Work>
  </rdf:RDF>
 </metadata>
 <defs>
  <style type="text/css">*{stroke-linejoin: round; stroke-linecap: butt}</style>
 </defs>
 <g id="figure_1">
  <g id="patch_1">
   <path d="M 0 216 
L 360 216 
L 360 0 
L 0 0 
z
" style="fill: #ffffff"/>
  </g>
  <g id="axes_1">
   <g id="patch_2">
    <path d="M 60.221389 170.728 
L 349.2 170.728 
L 349.2 10.8 
L 60.221389 10.8 
z
" style="fill: #ffffff"/>
   </g>
   <g id="PolyCollection_1">
    <path d="M 74.645222 53.828 
L 74.645222 68.655134 
L 77.222106 69.471241 
L 79.798989 70.290037 
L 82.375873 71.111582 
L 84.952756 71.935937 
L 87.529639 72.763162 
L 90.106523 73.593316 
L 92.683406 74.426459 
L 95.26029 75.262649 
L 97.837173 76.101942 
L 100.414056 76.944395 
L 102.99094 77.790062 
L 105.567823 78.638993 
L 108.144707 79.491239 
L 110.72159 80.346846 
L 113.298473 81.205859 
L 115.875357 82.068318 
L 118.45224 82.934261 
L 121.029124 83.803722 
L 123.606007 84.67673 
L 126.18289 85.553312 
L 128.759774 86.433489 
L 131.336657 87.317277 
L 133.913541 88.204691 
L 136.490424 89.095736 
L 139.067307 89.990417 
L 141.644191 90.888732 
L 144.221074 91.790674 
L 146.797958 92.696233 
L 149.374841 93.605393 
L 151.951724 94.518133 
L 154.528608 95.434429 
L 157.105491 96.354253 
L 159.682375 97.277571 
L 162.259258 98.204348 
L 164.836141 99.134544 
L 167.413025 100.068115 
L 169.989908 101.005016 
L 172.566792 101.945198 
L 175.143675 102.888609 
L 177.720558 103.835196 
L 180.297442 104.784905 
L 182.874325 105.737679 
L 185.451209 106.69346 
L 188.028092 107.652189 
L 190.604975 108.613806 
L 193.181859 109.578252 
L 195.758742 110.545466 
L 198.335626 111.515387 
L 200.912509 112.487956 
L 203.489392 113.463112 
L 206.066276 114.440796 
L 208.643159 115.420949 
L 211.220042 116.403512 
L 213.796926 117.388429 
L 216.373809 118.375644 
L 218.950693 119.3651 
L 221.527576 120.356745 
L 224.104459 121.350525 
L 226.681343 122.346388 
L 229.258226 123.344285 
L 231.83511 124.344167 
L 234.411993 125.345986 
L 236.988876 126.349695 
L 239.56576 127.355251 
L 242.142643 128.36261 
L 244.719527 129.37173 
L 247.29641 130.38257 
L 249.873293 131.395091 
L 252.450177 132.409256 
L 255.02706 133.425027 
L 257.603944 134.442371 
L 260.180827 135.461252 
L 262.75771 136.481638 
L 265.334594 137.503497 
L 267.911477 138.526801 
L 270.488361 139.551518 
L 273.065244 140.577622 
L 275.642127 141.605086 
L 278.219011 142.633884 
L 280.795894 143.663991 
L 283.372778 144.695384 
L 285.949661 145.72804 
L 288.526544 146.761937 
L 291.103428 147.797054 
L 293.680311 148.833372 
L 296.257195 149.870871 
L 298.834078 150.909533 
L 301.410961 151.94934 
L 303.987845 152.990277 
L 306.564728 154.032326 
L 309.141612 155.075473 
L 311.718495 156.119702 
L 314.295378 157.165001 
L 316.872262 158.211356 
L 319.449145 159.258754 
L 322.026029 160.307183 
L 324.602912 161.356632 
L 327.179795 162.407089 
L 329.756679 163.458545 
L 329.756679 137.782638 
L 329.756679 137.782638 
L 327.179795 136.99131 
L 324.602912 136.199788 
L 322.026029 135.40806 
L 319.449145 134.616112 
L 316.872262 133.82393 
L 314.295378 133.031502 
L 311.718495 132.238811 
L 309.141612 131.445843 
L 306.564728 130.652581 
L 303.987845 129.859009 
L 301.410961 129.065111 
L 298.834078 128.270867 
L 296.257195 127.47626 
L 293.680311 126.68127 
L 291.103428 125.885877 
L 288.526544 125.090061 
L 285.949661 124.293799 
L 283.372778 123.497069 
L 280.795894 122.699847 
L 278.219011 121.90211 
L 275.642127 121.103832 
L 273.065244 120.304986 
L 270.488361 119.505547 
L 267.911477 118.705484 
L 265.334594 117.904769 
L 262.75771 117.103371 
L 260.180827 116.30126 
L 257.603944 115.498401 
L 255.02706 114.694761 
L 252.450177 113.890305 
L 249.873293 113.084996 
L 247.29641 112.278796 
L 244.719527 111.471667 
L 242.142643 110.663569 
L 239.56576 109.854458 
L 236.988876 109.044293 
L 234.411993 108.233028 
L 231.83511 107.420619 
L 229.258226 106.607018 
L 226.681343 105.792175 
L 224.104459 104.976043 
L 221.527576 104.158568 
L 218.950693 103.3397 
L 216.373809 102.519383 
L 213.796926 101.697564 
L 211.220042 100.874186 
L 208.643159 100.049192 
L 206.066276 99.222525 
L 203.489392 98.394124 
L 200.912509 97.563931 
L 198.335626 96.731886 
L 195.758742 95.897927 
L 193.181859 95.061994 
L 190.604975 94.224026 
L 188.028092 93.383962 
L 185.451209 92.541741 
L 182.874325 91.697303 
L 180.297442 90.850589 
L 177.720558 90.00154 
L 175.143675 89.1501 
L 172.566792 88.296212 
L 169.989908 87.439824 
L 167.413025 86.580884 
L 164.836141 85.719342 
L 162.259258 84.855153 
L 159.682375 83.988272 
L 157.105491 83.118661 
L 154.528608 82.246282 
L 151.951724 81.371102 
L 149.374841 80.493093 
L 146.797958 79.612231 
L 144.221074 78.728494 
L 141.644191 77.841867 
L 139.067307 76.952339 
L 136.490424 76.059903 
L 133.913541 75.164558 
L 131.336657 74.266308 
L 128.759774 73.365159 
L 126.18289 72.461125 
L 123.606007 71.554222 
L 121.029124 70.644473 
L 118.45224 69.731903 
L 115.875357 68.816542 
L 113.298473 67.898425 
L 110.72159 66.977589 
L 108.144707 66.054075 
L 105.567823 65.127928 
L 102.99094 64.199194 
L 100.414056 63.267925 
L 97.837173 62.334171 
L 95.26029 61.397987 
L 92.683406 60.459429 
L 90.106523 59.518555 
L 87.529639 58.575422 
L 84.952756 57.630092 
L 82.375873 56.682624 
L 79.798989 55.733078 
L 77.222106 54.781517 
L 74.645222 53.828 
z
" clip-path="url(#p41fe992258)" style="fill: #008000; fill-opacity: 0.5"/>
   </g>
   <g id="PolyCollection_2">
    <path d="M 74.645222 53.672916 
L 74.645222 68.7422 
L 77.222106 69.458484 
L 79.798989 70.176683 
L 82.375873 70.896869 
L 84.952756 71.619126 
L 87.529639 72.343539 
L 90.106523 73.070206 
L 92.683406 73.799228 
L 95.26029 74.53072 
L 97.837173 75.264804 
L 100.414056 76.001611 
L 102.99094 76.741287 
L 105.567823 77.483986 
L 108.144707 78.229877 
L 110.72159 78.979143 
L 113.298473 79.73198 
L 115.875357 80.488601 
L 118.45224 81.249234 
L 121.029124 82.014121 
L 123.606007 82.783524 
L 126.18289 83.557721 
L 128.759774 84.337003 
L 131.336657 85.121679 
L 133.913541 85.912072 
L 136.490424 86.708515 
L 139.067307 87.511351 
L 141.644191 88.320926 
L 144.221074 89.137591 
L 146.797958 89.961688 
L 149.374841 90.793549 
L 151.951724 91.633489 
L 154.528608 92.481798 
L 157.105491 93.338733 
L 159.682375 94.204512 
L 162.259258 95.079305 
L 164.836141 95.963232 
L 167.413025 96.856359 
L 169.989908 97.758693 
L 172.566792 98.670182 
L 175.143675 99.590721 
L 177.720558 100.52015 
L 180.297442 101.458264 
L 182.874325 102.404813 
L 185.451209 103.359516 
L 188.028092 104.322063 
L 190.604975 105.292127 
L 193.181859 106.269365 
L 195.758742 107.25343 
L 198.335626 108.243974 
L 200.912509 109.240652 
L 203.489392 110.243129 
L 206.066276 111.251079 
L 208.643159 112.264189 
L 211.220042 113.282164 
L 213.796926 114.304722 
L 216.373809 115.331599 
L 218.950693 116.362546 
L 221.527576 117.397331 
L 224.104459 118.435738 
L 226.681343 119.477568 
L 229.258226 120.522634 
L 231.83511 121.570765 
L 234.411993 122.621801 
L 236.988876 123.675595 
L 239.56576 124.732012 
L 242.142643 125.790928 
L 244.719527 126.852228 
L 247.29641 127.915805 
L 249.873293 128.981562 
L 252.450177 130.04941 
L 255.02706 131.119266 
L 257.603944 132.191053 
L 260.180827 133.264702 
L 262.75771 134.340148 
L 265.334594 135.417333 
L 267.911477 136.4962 
L 270.488361 137.5767 
L 273.065244 138.658786 
L 275.642127 139.742416 
L 278.219011 140.827551 
L 280.795894 141.914154 
L 283.372778 143.002191 
L 285.949661 144.091633 
L 288.526544 145.182451 
L 291.103428 146.274619 
L 293.680311 147.368114 
L 296.257195 148.462913 
L 298.834078 149.558996 
L 301.410961 150.656345 
L 303.987845 151.754944 
L 306.564728 152.854776 
L 309.141612 153.955828 
L 311.718495 155.058088 
L 314.295378 156.161543 
L 316.872262 157.266183 
L 319.449145 158.372 
L 322.026029 159.478983 
L 324.602912 160.587126 
L 327.179795 161.696423 
L 329.756679 162.806867 
L 329.756679 138.262486 
L 329.756679 138.262486 
L 327.179795 137.51074 
L 324.602912 136.759108 
L 322.026029 136.00758 
L 319.449145 135.256145 
L 316.872262 134.50479 
L 314.295378 133.753504 
L 311.718495 133.002272 
L 309.141612 132.251081 
L 306.564728 131.499913 
L 303.987845 130.748754 
L 301.410961 129.997584 
L 298.834078 129.246385 
L 296.257195 128.495137 
L 293.680311 127.743817 
L 291.103428 126.992401 
L 288.526544 126.240866 
L 285.949661 125.489182 
L 283.372778 124.737322 
L 280.795894 123.985253 
L 278.219011 123.232942 
L 275.642127 122.480353 
L 273.065244 121.727446 
L 270.488361 120.97418 
L 267.911477 120.220508 
L 265.334594 119.466382 
L 262.75771 118.711748 
L 260.180827 117.95655 
L 257.603944 117.200725 
L 255.02706 116.444207 
L 252.450177 115.686923 
L 249.873293 114.928795 
L 247.29641 114.169738 
L 244.719527 113.409659 
L 242.142643 112.648461 
L 239.56576 111.886034 
L 236.988876 111.122261 
L 234.411993 110.357017 
L 231.83511 109.590164 
L 229.258226 108.821553 
L 226.681343 108.051025 
L 224.104459 107.278404 
L 221.527576 106.503505 
L 218.950693 105.726125 
L 216.373809 104.946046 
L 213.796926 104.163037 
L 211.220042 103.376846 
L 208.643159 102.58721 
L 206.066276 101.793844 
L 203.489392 100.996452 
L 200.912509 100.19472 
L 198.335626 99.388322 
L 195.758742 98.576922 
L 193.181859 97.760174 
L 190.604975 96.937729 
L 188.028092 96.109239 
L 185.451209 95.274362 
L 182.874325 94.432769 
L 180.297442 93.58415 
L 177.720558 92.728222 
L 175.143675 91.864739 
L 172.566792 90.993492 
L 169.989908 90.114322 
L 167.413025 89.227123 
L 164.836141 88.331844 
L 162.259258 87.428493 
L 159.682375 86.517134 
L 157.105491 85.597887 
L 154.528608 84.670924 
L 151.951724 83.736462 
L 149.374841 82.79476 
L 146.797958 81.846106 
L 144.221074 80.890817 
L 141.644191 79.929224 
L 139.067307 78.961673 
L 136.490424 77.988512 
L 133.913541 77.010089 
L 131.336657 76.026748 
L 128.759774 75.038823 
L 126.18289 74.046638 
L 123.606007 73.050502 
L 121.029124 72.050708 
L 118.45224 71.047536 
L 115.875357 70.041246 
L 113.298473 69.032085 
L 110.72159 68.02028 
L 108.144707 67.006047 
L 105.567823 65.989582 
L 102.99094 64.97107 
L 100.414056 63.95068 
L 97.837173 62.928572 
L 95.26029 61.904889 
L 92.683406 60.879767 
L 90.106523 59.853329 
L 87.529639 58.825691 
L 84.952756 57.796957 
L 82.375873 56.767227 
L 79.798989 55.736588 
L 77.222106 54.705126 
L 74.645222 53.672916 
z
" clip-path="url(#p41fe992258)" style="fill: #ff0000; fill-opacity: 0.6"/>
   </g>
   <g id="matplotlib.axis_1">
    <g id="xtick_1">
     <g id="line2d_1">
      <defs>
       <path id="m2942c1aea0" d="M 0 0 
L 0 3.5 
" style="stroke: #000000; stroke-width: 0.8"/>
      </defs>
      <g>
       <use xlink:href="#m2942c1aea0" x="111.252125" y="170.728" style="stroke: #000000; stroke-width: 0.8"/>
      </g>
     </g>
     <g id="text_1">
      <!-- $\mathdefault{10^{0}}$ -->
      <g transform="translate(102.452125 185.326437) scale(0.1 -0.1)">
       <defs>
        <path id="DejaVuSans-31" d="M 794 531 
L 1825 531 
L 1825 4091 
L 703 3866 
L 703 4441 
L 1819 4666 
L 2450 4666 
L 2450 531 
L 3481 531 
L 3481 0 
L 794 0 
L 794 531 
z
" transform="scale(0.015625)"/>
        <path id="DejaVuSans-30" d="M 2034 4250 
Q 1547 4250 1301 3770 
Q 1056 3291 1056 2328 
Q 1056 1369 1301 889 
Q 1547 409 2034 409 
Q 2525 409 2770 889 
Q 3016 1369 3016 2328 
Q 3016 3291 2770 3770 
Q 2525 4250 2034 4250 
z
M 2034 4750 
Q 2819 4750 3233 4129 
Q 3647 3509 3647 2328 
Q 3647 1150 3233 529 
Q 2819 -91 2034 -91 
Q 1250 -91 836 529 
Q 422 1150 422 2328 
Q 422 3509 836 4129 
Q 1250 4750 2034 4750 
z
" transform="scale(0.015625)"/>
       </defs>
       <use xlink:href="#DejaVuSans-31" transform="translate(0 0.765625)"/>
       <use xlink:href="#DejaVuSans-30" transform="translate(63.623047 0.765625)"/>
       <use xlink:href="#DejaVuSans-30" transform="translate(128.203125 39.046875) scale(0.7)"/>
      </g>
     </g>
    </g>
    <g id="xtick_2">
     <g id="line2d_2">
      <g>
       <use xlink:href="#m2942c1aea0" x="232.517226" y="170.728" style="stroke: #000000; stroke-width: 0.8"/>
      </g>
     </g>
     <g id="text_2">
      <!-- $\mathdefault{10^{1}}$ -->
      <g transform="translate(223.717226 185.326437) scale(0.1 -0.1)">
       <use xlink:href="#DejaVuSans-31" transform="translate(0 0.684375)"/>
       <use xlink:href="#DejaVuSans-30" transform="translate(63.623047 0.684375)"/>
       <use xlink:href="#DejaVuSans-31" transform="translate(128.203125 38.965625) scale(0.7)"/>
      </g>
     </g>
    </g>
    <g id="xtick_3">
     <g id="line2d_3">
      <defs>
       <path id="m12f8b89379" d="M 0 0 
L 0 2 
" style="stroke: #000000; stroke-width: 0.6"/>
      </defs>
      <g>
       <use xlink:href="#m12f8b89379" x="62.995889" y="170.728" style="stroke: #000000; stroke-width: 0.6"/>
      </g>
     </g>
    </g>
    <g id="xtick_4">
     <g id="line2d_4">
      <g>
       <use xlink:href="#m12f8b89379" x="74.747692" y="170.728" style="stroke: #000000; stroke-width: 0.6"/>
      </g>
     </g>
    </g>
    <g id="xtick_5">
     <g id="line2d_5">
      <g>
       <use xlink:href="#m12f8b89379" x="84.349614" y="170.728" style="stroke: #000000; stroke-width: 0.6"/>
      </g>
     </g>
    </g>
    <g id="xtick_6">
     <g id="line2d_6">
      <g>
       <use xlink:href="#m12f8b89379" x="92.467923" y="170.728" style="stroke: #000000; stroke-width: 0.6"/>
      </g>
     </g>
    </g>
    <g id="xtick_7">
     <g id="line2d_7">
      <g>
       <use xlink:href="#m12f8b89379" x="99.500322" y="170.728" style="stroke: #000000; stroke-width: 0.6"/>
      </g>
     </g>
    </g>
    <g id="xtick_8">
     <g id="line2d_8">
      <g>
       <use xlink:href="#m12f8b89379" x="105.703338" y="170.728" style="stroke: #000000; stroke-width: 0.6"/>
      </g>
     </g>
    </g>
    <g id="xtick_9">
     <g id="line2d_9">
      <g>
       <use xlink:href="#m12f8b89379" x="147.756558" y="170.728" style="stroke: #000000; stroke-width: 0.6"/>
      </g>
     </g>
    </g>
    <g id="xtick_10">
     <g id="line2d_10">
      <g>
       <use xlink:href="#m12f8b89379" x="169.110282" y="170.728" style="stroke: #000000; stroke-width: 0.6"/>
      </g>
     </g>
    </g>
    <g id="xtick_11">
     <g id="line2d_11">
      <g>
       <use xlink:href="#m12f8b89379" x="184.260991" y="170.728" style="stroke: #000000; stroke-width: 0.6"/>
      </g>
     </g>
    </g>
    <g id="xtick_12">
     <g id="line2d_12">
      <g>
       <use xlink:href="#m12f8b89379" x="196.012793" y="170.728" style="stroke: #000000; stroke-width: 0.6"/>
      </g>
     </g>
    </g>
    <g id="xtick_13">
     <g id="line2d_13">
      <g>
       <use xlink:href="#m12f8b89379" x="205.614715" y="170.728" style="stroke: #000000; stroke-width: 0.6"/>
      </g>
     </g>
    </g>
    <g id="xtick_14">
     <g id="line2d_14">
      <g>
       <use xlink:href="#m12f8b89379" x="213.733024" y="170.728" style="stroke: #000000; stroke-width: 0.6"/>
      </g>
     </g>
    </g>
    <g id="xtick_15">
     <g id="line2d_15">
      <g>
       <use xlink:href="#m12f8b89379" x="220.765423" y="170.728" style="stroke: #000000; stroke-width: 0.6"/>
      </g>
     </g>
    </g>
    <g id="xtick_16">
     <g id="line2d_16">
      <g>
       <use xlink:href="#m12f8b89379" x="226.968439" y="170.728" style="stroke: #000000; stroke-width: 0.6"/>
      </g>
     </g>
    </g>
    <g id="xtick_17">
     <g id="line2d_17">
      <g>
       <use xlink:href="#m12f8b89379" x="269.021659" y="170.728" style="stroke: #000000; stroke-width: 0.6"/>
      </g>
     </g>
    </g>
    <g id="xtick_18">
     <g id="line2d_18">
      <g>
       <use xlink:href="#m12f8b89379" x="290.375383" y="170.728" style="stroke: #000000; stroke-width: 0.6"/>
      </g>
     </g>
    </g>
    <g id="xtick_19">
     <g id="line2d_19">
      <g>
       <use xlink:href="#m12f8b89379" x="305.526092" y="170.728" style="stroke: #000000; stroke-width: 0.6"/>
      </g>
     </g>
    </g>
    <g id="xtick_20">
     <g id="line2d_20">
      <g>
       <use xlink:href="#m12f8b89379" x="317.277894" y="170.728" style="stroke: #000000; stroke-width: 0.6"/>
      </g>
     </g>
    </g>
    <g id="xtick_21">
     <g id="line2d_21">
      <g>
       <use xlink:href="#m12f8b89379" x="326.879816" y="170.728" style="stroke: #000000; stroke-width: 0.6"/>
      </g>
     </g>
    </g>
    <g id="xtick_22">
     <g id="line2d_22">
      <g>
       <use xlink:href="#m12f8b89379" x="334.998125" y="170.728" style="stroke: #000000; stroke-width: 0.6"/>
      </g>
     </g>
    </g>
    <g id="xtick_23">
     <g id="line2d_23">
      <g>
       <use xlink:href="#m12f8b89379" x="342.030524" y="170.728" style="stroke: #000000; stroke-width: 0.6"/>
      </g>
     </g>
    </g>
    <g id="xtick_24">
     <g id="line2d_24">
      <g>
       <use xlink:href="#m12f8b89379" x="348.23354" y="170.728" style="stroke: #000000; stroke-width: 0.6"/>
      </g>
     </g>
    </g>
    <g id="text_3">
     <!-- Energy [TeV] -->
     <g transform="translate(173.013038 199.004562) scale(0.1 -0.1)">
      <defs>
       <path id="DejaVuSans-45" d="M 628 4666 
L 3578 4666 
L 3578 4134 
L 1259 4134 
L 1259 2753 
L 3481 2753 
L 3481 2222 
L 1259 2222 
L 1259 531 
L 3634 531 
L 3634 0 
L 628 0 
L 628 4666 
z
" transform="scale(0.015625)"/>
       <path id="DejaVuSans-6e" d="M 3513 2113 
L 3513 0 
L 2938 0 
L 2938 2094 
Q 2938 2591 2744 2837 
Q 2550 3084 2163 3084 
Q 1697 3084 1428 2787 
Q 1159 2491 1159 1978 
L 1159 0 
L 581 0 
L 581 3500 
L 1159 3500 
L 1159 2956 
Q 1366 3272 1645 3428 
Q 1925 3584 2291 3584 
Q 2894 3584 3203 3211 
Q 3513 2838 3513 2113 
z
" transform="scale(0.015625)"/>
       <path id="DejaVuSans-65" d="M 3597 1894 
L 3597 1613 
L 953 1613 
Q 991 1019 1311 708 
Q 1631 397 2203 397 
Q 2534 397 2845 478 
Q 3156 559 3463 722 
L 3463 178 
Q 3153 47 2828 -22 
Q 2503 -91 2169 -91 
Q 1331 -91 842 396 
Q 353 884 353 1716 
Q 353 2575 817 3079 
Q 1281 3584 2069 3584 
Q 2775 3584 3186 3129 
Q 3597 2675 3597 1894 
z
M 3022 2063 
Q 3016 2534 2758 2815 
Q 2500 3097 2075 3097 
Q 1594 3097 1305 2825 
Q 1016 2553 972 2059 
L 3022 2063 
z
" transform="scale(0.015625)"/>
       <path id="DejaVuSans-72" d="M 2631 2963 
Q 2534 3019 2420 3045 
Q 2306 3072 2169 3072 
Q 1681 3072 1420 2755 
Q 1159 2438 1159 1844 
L 1159 0 
L 581 0 
L 581 3500 
L 1159 3500 
L 1159 2956 
Q 1341 3275 1631 3429 
Q 1922 3584 2338 3584 
Q 2397 3584 2469 3576 
Q 2541 3569 2628 3553 
L 2631 2963 
z
" transform="scale(0.015625)"/>
       <path id="DejaVuSans-67" d="M 2906 1791 
Q 2906 2416 2648 2759 
Q 2391 3103 1925 3103 
Q 1463 3103 1205 2759 
Q 947 2416 947 1791 
Q 947 1169 1205 825 
Q 1463 481 1925 481 
Q 2391 481 2648 825 
Q 2906 1169 2906 1791 
z
M 3481 434 
Q 3481 -459 3084 -895 
Q 2688 -1331 1869 -1331 
Q 1566 -1331 1297 -1286 
Q 1028 -1241 775 -1147 
L 775 -588 
Q 1028 -725 1275 -790 
Q 1522 -856 1778 -856 
Q 2344 -856 2625 -561 
Q 2906 -266 2906 331 
L 2906 616 
Q 2728 306 2450 153 
Q 2172 0 1784 0 
Q 1141 0 747 490 
Q 353 981 353 1791 
Q 353 2603 747 3093 
Q 1141 3584 1784 3584 
Q 2172 3584 2450 3431 
Q 2728 3278 2906 2969 
L 2906 3500 
L 3481 3500 
L 3481 434 
z
" transform="scale(0.015625)"/>
       <path id="DejaVuSans-79" d="M 2059 -325 
Q 1816 -950 1584 -1140 
Q 1353 -1331 966 -1331 
L 506 -1331 
L 506 -850 
L 844 -850 
Q 1081 -850 1212 -737 
Q 1344 -625 1503 -206 
L 1606 56 
L 191 3500 
L 800 3500 
L 1894 763 
L 2988 3500 
L 3597 3500 
L 2059 -325 
z
" transform="scale(0.015625)"/>
       <path id="DejaVuSans-20" transform="scale(0.015625)"/>
       <path id="DejaVuSans-5b" d="M 550 4863 
L 1875 4863 
L 1875 4416 
L 1125 4416 
L 1125 -397 
L 1875 -397 
L 1875 -844 
L 550 -844 
L 550 4863 
z
" transform="scale(0.015625)"/>
       <path id="DejaVuSans-54" d="M -19 4666 
L 3928 4666 
L 3928 4134 
L 2272 4134 
L 2272 0 
L 1638 0 
L 1638 4134 
L -19 4134 
L -19 4666 
z
" transform="scale(0.015625)"/>
       <path id="DejaVuSans-56" d="M 1831 0 
L 50 4666 
L 709 4666 
L 2188 738 
L 3669 4666 
L 4325 4666 
L 2547 0 
L 1831 0 
z
" transform="scale(0.015625)"/>
       <path id="DejaVuSans-5d" d="M 1947 4863 
L 1947 -844 
L 622 -844 
L 622 -397 
L 1369 -397 
L 1369 4416 
L 622 4416 
L 622 4863 
L 1947 4863 
z
" transform="scale(0.015625)"/>
      </defs>
      <use xlink:href="#DejaVuSans-45"/>
      <use xlink:href="#DejaVuSans-6e" x="63.183594"/>
      <use xlink:href="#DejaVuSans-65" x="126.5625"/>
      <use xlink:href="#DejaVuSans-72" x="188.085938"/>
      <use xlink:href="#DejaVuSans-67" x="227.449219"/>
      <use xlink:href="#DejaVuSans-79" x="290.925781"/>
      <use xlink:href="#DejaVuSans-20" x="350.105469"/>
      <use xlink:href="#DejaVuSans-5b" x="381.892578"/>
      <use xlink:href="#DejaVuSans-54" x="420.90625"/>
      <use xlink:href="#DejaVuSans-65" x="464.990234"/>
      <use xlink:href="#DejaVuSans-56" x="526.513672"/>
      <use xlink:href="#DejaVuSans-5d" x="594.921875"/>
     </g>
    </g>
   </g>
   <g id="matplotlib.axis_2">
    <g id="ytick_1">
     <g id="line2d_25">
      <defs>
       <path id="m39562822d7" d="M 0 0 
L -3.5 0 
" style="stroke: #000000; stroke-width: 0.8"/>
      </defs>
      <g>
       <use xlink:href="#m39562822d7" x="60.221389" y="72.111194" style="stroke: #000000; stroke-width: 0.8"/>
      </g>
     </g>
     <g id="text_4">
      <!-- $\mathdefault{10^{-12}}$ -->
      <g transform="translate(25.321389 75.910413) scale(0.1 -0.1)">
       <defs>
        <path id="DejaVuSans-2212" d="M 678 2272 
L 4684 2272 
L 4684 1741 
L 678 1741 
L 678 2272 
z
" transform="scale(0.015625)"/>
        <path id="DejaVuSans-32" d="M 1228 531 
L 3431 531 
L 3431 0 
L 469 0 
L 469 531 
Q 828 903 1448 1529 
Q 2069 2156 2228 2338 
Q 2531 2678 2651 2914 
Q 2772 3150 2772 3378 
Q 2772 3750 2511 3984 
Q 2250 4219 1831 4219 
Q 1534 4219 1204 4116 
Q 875 4013 500 3803 
L 500 4441 
Q 881 4594 1212 4672 
Q 1544 4750 1819 4750 
Q 2544 4750 2975 4387 
Q 3406 4025 3406 3419 
Q 3406 3131 3298 2873 
Q 3191 2616 2906 2266 
Q 2828 2175 2409 1742 
Q 1991 1309 1228 531 
z
" transform="scale(0.015625)"/>
       </defs>
       <use xlink:href="#DejaVuSans-31" transform="translate(0 0.765625)"/>
       <use xlink:href="#DejaVuSans-30" transform="translate(63.623047 0.765625)"/>
       <use xlink:href="#DejaVuSans-2212" transform="translate(128.203125 39.046875) scale(0.7)"/>
       <use xlink:href="#DejaVuSans-31" transform="translate(186.855469 39.046875) scale(0.7)"/>
       <use xlink:href="#DejaVuSans-32" transform="translate(231.391602 39.046875) scale(0.7)"/>
      </g>
     </g>
    </g>
    <g id="ytick_2">
     <g id="line2d_26">
      <defs>
       <path id="m2577d3076e" d="M 0 0 
L -2 0 
" style="stroke: #000000; stroke-width: 0.6"/>
      </defs>
      <g>
       <use xlink:href="#m2577d3076e" x="60.221389" y="166.253297" style="stroke: #000000; stroke-width: 0.6"/>
      </g>
     </g>
    </g>
    <g id="ytick_3">
     <g id="line2d_27">
      <g>
       <use xlink:href="#m2577d3076e" x="60.221389" y="142.536111" style="stroke: #000000; stroke-width: 0.6"/>
      </g>
     </g>
    </g>
    <g id="ytick_4">
     <g id="line2d_28">
      <g>
       <use xlink:href="#m2577d3076e" x="60.221389" y="125.7085" style="stroke: #000000; stroke-width: 0.6"/>
      </g>
     </g>
    </g>
    <g id="ytick_5">
     <g id="line2d_29">
      <g>
       <use xlink:href="#m2577d3076e" x="60.221389" y="112.655991" style="stroke: #000000; stroke-width: 0.6"/>
      </g>
     </g>
    </g>
    <g id="ytick_6">
     <g id="line2d_30">
      <g>
       <use xlink:href="#m2577d3076e" x="60.221389" y="101.991314" style="stroke: #000000; stroke-width: 0.6"/>
      </g>
     </g>
    </g>
    <g id="ytick_7">
     <g id="line2d_31">
      <g>
       <use xlink:href="#m2577d3076e" x="60.221389" y="92.974459" style="stroke: #000000; stroke-width: 0.6"/>
      </g>
     </g>
    </g>
    <g id="ytick_8">
     <g id="line2d_32">
      <g>
       <use xlink:href="#m2577d3076e" x="60.221389" y="85.163703" style="stroke: #000000; stroke-width: 0.6"/>
      </g>
     </g>
    </g>
    <g id="ytick_9">
     <g id="line2d_33">
      <g>
       <use xlink:href="#m2577d3076e" x="60.221389" y="78.274129" style="stroke: #000000; stroke-width: 0.6"/>
      </g>
     </g>
    </g>
    <g id="ytick_10">
     <g id="line2d_34">
      <g>
       <use xlink:href="#m2577d3076e" x="60.221389" y="31.566397" style="stroke: #000000; stroke-width: 0.6"/>
      </g>
     </g>
    </g>
    <g id="text_5">
     <!-- e2 * dnde [TeV / (cm2 s)] -->
     <g transform="translate(19.241702 153.243688) rotate(-90) scale(0.1 -0.1)">
      <defs>
       <path id="DejaVuSans-2a" d="M 3009 3897 
L 1888 3291 
L 3009 2681 
L 2828 2375 
L 1778 3009 
L 1778 1831 
L 1422 1831 
L 1422 3009 
L 372 2375 
L 191 2681 
L 1313 3291 
L 191 3897 
L 372 4206 
L 1422 3572 
L 1422 4750 
L 1778 4750 
L 1778 3572 
L 2828 4206 
L 3009 3897 
z
" transform="scale(0.015625)"/>
       <path id="DejaVuSans-64" d="M 2906 2969 
L 2906 4863 
L 3481 4863 
L 3481 0 
L 2906 0 
L 2906 525 
Q 2725 213 2448 61 
Q 2172 -91 1784 -91 
Q 1150 -91 751 415 
Q 353 922 353 1747 
Q 353 2572 751 3078 
Q 1150 3584 1784 3584 
Q 2172 3584 2448 3432 
Q 2725 3281 2906 2969 
z
M 947 1747 
Q 947 1113 1208 752 
Q 1469 391 1925 391 
Q 2381 391 2643 752 
Q 2906 1113 2906 1747 
Q 2906 2381 2643 2742 
Q 2381 3103 1925 3103 
Q 1469 3103 1208 2742 
Q 947 2381 947 1747 
z
" transform="scale(0.015625)"/>
       <path id="DejaVuSans-2f" d="M 1625 4666 
L 2156 4666 
L 531 -594 
L 0 -594 
L 1625 4666 
z
" transform="scale(0.015625)"/>
       <path id="DejaVuSans-28" d="M 1984 4856 
Q 1566 4138 1362 3434 
Q 1159 2731 1159 2009 
Q 1159 1288 1364 580 
Q 1569 -128 1984 -844 
L 1484 -844 
Q 1016 -109 783 600 
Q 550 1309 550 2009 
Q 550 2706 781 3412 
Q 1013 4119 1484 4856 
L 1984 4856 
z
" transform="scale(0.015625)"/>
       <path id="DejaVuSans-63" d="M 3122 3366 
L 3122 2828 
Q 2878 2963 2633 3030 
Q 2388 3097 2138 3097 
Q 1578 3097 1268 2742 
Q 959 2388 959 1747 
Q 959 1106 1268 751 
Q 1578 397 2138 397 
Q 2388 397 2633 464 
Q 2878 531 3122 666 
L 3122 134 
Q 2881 22 2623 -34 
Q 2366 -91 2075 -91 
Q 1284 -91 818 406 
Q 353 903 353 1747 
Q 353 2603 823 3093 
Q 1294 3584 2113 3584 
Q 2378 3584 2631 3529 
Q 2884 3475 3122 3366 
z
" transform="scale(0.015625)"/>
       <path id="DejaVuSans-6d" d="M 3328 2828 
Q 3544 3216 3844 3400 
Q 4144 3584 4550 3584 
Q 5097 3584 5394 3201 
Q 5691 2819 5691 2113 
L 5691 0 
L 5113 0 
L 5113 2094 
Q 5113 2597 4934 2840 
Q 4756 3084 4391 3084 
Q 3944 3084 3684 2787 
Q 3425 2491 3425 1978 
L 3425 0 
L 2847 0 
L 2847 2094 
Q 2847 2600 2669 2842 
Q 2491 3084 2119 3084 
Q 1678 3084 1418 2786 
Q 1159 2488 1159 1978 
L 1159 0 
L 581 0 
L 581 3500 
L 1159 3500 
L 1159 2956 
Q 1356 3278 1631 3431 
Q 1906 3584 2284 3584 
Q 2666 3584 2933 3390 
Q 3200 3197 3328 2828 
z
" transform="scale(0.015625)"/>
       <path id="DejaVuSans-73" d="M 2834 3397 
L 2834 2853 
Q 2591 2978 2328 3040 
Q 2066 3103 1784 3103 
Q 1356 3103 1142 2972 
Q 928 2841 928 2578 
Q 928 2378 1081 2264 
Q 1234 2150 1697 2047 
L 1894 2003 
Q 2506 1872 2764 1633 
Q 3022 1394 3022 966 
Q 3022 478 2636 193 
Q 2250 -91 1575 -91 
Q 1294 -91 989 -36 
Q 684 19 347 128 
L 347 722 
Q 666 556 975 473 
Q 1284 391 1588 391 
Q 1994 391 2212 530 
Q 2431 669 2431 922 
Q 2431 1156 2273 1281 
Q 2116 1406 1581 1522 
L 1381 1569 
Q 847 1681 609 1914 
Q 372 2147 372 2553 
Q 372 3047 722 3315 
Q 1072 3584 1716 3584 
Q 2034 3584 2315 3537 
Q 2597 3491 2834 3397 
z
" transform="scale(0.015625)"/>
       <path id="DejaVuSans-29" d="M 513 4856 
L 1013 4856 
Q 1481 4119 1714 3412 
Q 1947 2706 1947 2009 
Q 1947 1309 1714 600 
Q 1481 -109 1013 -844 
L 513 -844 
Q 928 -128 1133 580 
Q 1338 1288 1338 2009 
Q 1338 2731 1133 3434 
Q 928 4138 513 4856 
z
" transform="scale(0.015625)"/>
      </defs>
      <use xlink:href="#DejaVuSans-65"/>
      <use xlink:href="#DejaVuSans-32" x="61.523438"/>
      <use xlink:href="#DejaVuSans-20" x="125.146484"/>
      <use xlink:href="#DejaVuSans-2a" x="156.933594"/>
      <use xlink:href="#DejaVuSans-20" x="206.933594"/>
      <use xlink:href="#DejaVuSans-64" x="238.720703"/>
      <use xlink:href="#DejaVuSans-6e" x="302.197266"/>
      <use xlink:href="#DejaVuSans-64" x="365.576172"/>
      <use xlink:href="#DejaVuSans-65" x="429.052734"/>
      <use xlink:href="#DejaVuSans-20" x="490.576172"/>
      <use xlink:href="#DejaVuSans-5b" x="522.363281"/>
      <use xlink:href="#DejaVuSans-54" x="561.376953"/>
      <use xlink:href="#DejaVuSans-65" x="605.460938"/>
      <use xlink:href="#DejaVuSans-56" x="666.984375"/>
      <use xlink:href="#DejaVuSans-20" x="735.392578"/>
      <use xlink:href="#DejaVuSans-2f" x="767.179688"/>
      <use xlink:href="#DejaVuSans-20" x="800.871094"/>
      <use xlink:href="#DejaVuSans-28" x="832.658203"/>
      <use xlink:href="#DejaVuSans-63" x="871.671875"/>
      <use xlink:href="#DejaVuSans-6d" x="926.652344"/>
      <use xlink:href="#DejaVuSans-32" x="1024.064453"/>
      <use xlink:href="#DejaVuSans-20" x="1087.6875"/>
      <use xlink:href="#DejaVuSans-73" x="1119.474609"/>
      <use xlink:href="#DejaVuSans-29" x="1171.574219"/>
      <use xlink:href="#DejaVuSans-5d" x="1210.587891"/>
     </g>
    </g>
   </g>
   <g id="line2d_35">
    <path d="M 74.645222 59.913612 
L 77.222106 60.772241 
L 79.798989 61.63087 
L 82.375873 62.489499 
L 84.952756 63.348128 
L 87.529639 64.206757 
L 90.106523 65.065386 
L 92.683406 65.924015 
L 95.26029 66.782644 
L 97.837173 67.641273 
L 100.414056 68.499902 
L 102.99094 69.358531 
L 105.567823 70.21716 
L 108.144707 71.075789 
L 110.72159 71.934418 
L 113.298473 72.793047 
L 115.875357 73.651676 
L 118.45224 74.510304 
L 121.029124 75.368933 
L 123.606007 76.227562 
L 126.18289 77.086191 
L 128.759774 77.94482 
L 131.336657 78.803449 
L 133.913541 79.662078 
L 136.490424 80.520707 
L 139.067307 81.379336 
L 141.644191 82.237965 
L 144.221074 83.096594 
L 146.797958 83.955223 
L 149.374841 84.813852 
L 151.951724 85.672481 
L 154.528608 86.53111 
L 157.105491 87.389739 
L 159.682375 88.248368 
L 162.259258 89.106997 
L 164.836141 89.965626 
L 167.413025 90.824255 
L 169.989908 91.682884 
L 172.566792 92.541513 
L 175.143675 93.400142 
L 177.720558 94.258771 
L 180.297442 95.1174 
L 182.874325 95.976029 
L 185.451209 96.834658 
L 188.028092 97.693287 
L 190.604975 98.551916 
L 193.181859 99.410545 
L 195.758742 100.269174 
L 198.335626 101.127803 
L 200.912509 101.986432 
L 203.489392 102.845061 
L 206.066276 103.70369 
L 208.643159 104.562319 
L 211.220042 105.420948 
L 213.796926 106.279577 
L 216.373809 107.138206 
L 218.950693 107.996835 
L 221.527576 108.855464 
L 224.104459 109.714093 
L 226.681343 110.572722 
L 229.258226 111.431351 
L 231.83511 112.28998 
L 234.411993 113.148609 
L 236.988876 114.007238 
L 239.56576 114.865867 
L 242.142643 115.724496 
L 244.719527 116.583125 
L 247.29641 117.441754 
L 249.873293 118.300383 
L 252.450177 119.159012 
L 255.02706 120.017641 
L 257.603944 120.87627 
L 260.180827 121.734899 
L 262.75771 122.593528 
L 265.334594 123.452157 
L 267.911477 124.310786 
L 270.488361 125.169414 
L 273.065244 126.028043 
L 275.642127 126.886672 
L 278.219011 127.745301 
L 280.795894 128.60393 
L 283.372778 129.462559 
L 285.949661 130.321188 
L 288.526544 131.179817 
L 291.103428 132.038446 
L 293.680311 132.897075 
L 296.257195 133.755704 
L 298.834078 134.614333 
L 301.410961 135.472962 
L 303.987845 136.331591 
L 306.564728 137.19022 
L 309.141612 138.048849 
L 311.718495 138.907478 
L 314.295378 139.766107 
L 316.872262 140.624736 
L 319.449145 141.483365 
L 322.026029 142.341994 
L 324.602912 143.200623 
L 327.179795 144.059252 
L 329.756679 144.917881 
" clip-path="url(#p41fe992258)" style="fill: none; stroke-dasharray: 1.5,2.475; stroke-dashoffset: 0; stroke: #000000; stroke-width: 1.5"/>
   </g>
   <g id="LineCollection_1">
    <path clip-path="url(#p41fe992258)" style="fill: none; stroke: #8b0000; stroke-width: 1.5"/>
    <path clip-path="url(#p41fe992258)" style="fill: none; stroke: #8b0000; stroke-width: 1.5"/>
    <path clip-path="url(#p41fe992258)" style="fill: none; stroke: #8b0000; stroke-width: 1.5"/>
    <path clip-path="url(#p41fe992258)" style="fill: none; stroke: #8b0000; stroke-width: 1.5"/>
    <path clip-path="url(#p41fe992258)" style="fill: none; stroke: #8b0000; stroke-width: 1.5"/>
    <path d="M 78.376269 217 
L 78.376269 18.213479 
" clip-path="url(#p41fe992258)" style="fill: none; stroke: #8b0000; stroke-width: 1.5"/>
    <path d="M 93.534407 96.415735 
L 93.534407 45.640885 
" clip-path="url(#p41fe992258)" style="fill: none; stroke: #8b0000; stroke-width: 1.5"/>
    <path d="M 108.692544 84.621175 
L 108.692544 59.838218 
" clip-path="url(#p41fe992258)" style="fill: none; stroke: #8b0000; stroke-width: 1.5"/>
    <path d="M 123.850682 87.754505 
L 123.850682 66.499941 
" clip-path="url(#p41fe992258)" style="fill: none; stroke: #8b0000; stroke-width: 1.5"/>
    <path d="M 139.008819 93.050673 
L 139.008819 71.70075 
" clip-path="url(#p41fe992258)" style="fill: none; stroke: #8b0000; stroke-width: 1.5"/>
    <path d="M 154.166957 98.751768 
L 154.166957 76.622209 
" clip-path="url(#p41fe992258)" style="fill: none; stroke: #8b0000; stroke-width: 1.5"/>
    <path d="M 169.325095 104.898316 
L 169.325095 81.247617 
" clip-path="url(#p41fe992258)" style="fill: none; stroke: #8b0000; stroke-width: 1.5"/>
    <path d="M 184.483232 111.439343 
L 184.483232 85.630875 
" clip-path="url(#p41fe992258)" style="fill: none; stroke: #8b0000; stroke-width: 1.5"/>
    <path d="M 199.64137 118.068466 
L 199.64137 89.991617 
" clip-path="url(#p41fe992258)" style="fill: none; stroke: #8b0000; stroke-width: 1.5"/>
    <path d="M 214.799508 125.249726 
L 214.799508 94.056898 
" clip-path="url(#p41fe992258)" style="fill: none; stroke: #8b0000; stroke-width: 1.5"/>
    <path d="M 229.957645 133.030498 
L 229.957645 97.851365 
" clip-path="url(#p41fe992258)" style="fill: none; stroke: #8b0000; stroke-width: 1.5"/>
    <path d="M 245.115783 141.275298 
L 245.115783 101.504021 
" clip-path="url(#p41fe992258)" style="fill: none; stroke: #8b0000; stroke-width: 1.5"/>
    <path d="M 260.27392 150.47064 
L 260.27392 104.833986 
" clip-path="url(#p41fe992258)" style="fill: none; stroke: #8b0000; stroke-width: 1.5"/>
    <path d="M 275.432058 160.813139 
L 275.432058 107.87233 
" clip-path="url(#p41fe992258)" style="fill: none; stroke: #8b0000; stroke-width: 1.5"/>
    <path d="M 290.590196 171.953797 
L 290.590196 110.880374 
" clip-path="url(#p41fe992258)" style="fill: none; stroke: #8b0000; stroke-width: 1.5"/>
    <path d="M 305.748333 185.152349 
L 305.748333 113.5537 
" clip-path="url(#p41fe992258)" style="fill: none; stroke: #8b0000; stroke-width: 1.5"/>
    <path d="M 320.906471 202.632953 
L 320.906471 115.628327 
" clip-path="url(#p41fe992258)" style="fill: none; stroke: #8b0000; stroke-width: 1.5"/>
    <path d="M 336.064609 217 
L 336.064609 116.532825 
" clip-path="url(#p41fe992258)" style="fill: none; stroke: #8b0000; stroke-width: 1.5"/>
    <path clip-path="url(#p41fe992258)" style="fill: none; stroke: #8b0000; stroke-width: 1.5"/>
   </g>
   <g id="LineCollection_2">
    <path clip-path="url(#p41fe992258)" style="fill: none; stroke: #006400; stroke-width: 1.5"/>
    <path clip-path="url(#p41fe992258)" style="fill: none; stroke: #006400; stroke-width: 1.5"/>
    <path clip-path="url(#p41fe992258)" style="fill: none; stroke: #006400; stroke-width: 1.5"/>
    <path clip-path="url(#p41fe992258)" style="fill: none; stroke: #006400; stroke-width: 1.5"/>
    <path clip-path="url(#p41fe992258)" style="fill: none; stroke: #006400; stroke-width: 1.5"/>
    <path d="M 73.356781 217 
L 73.356781 18.069455 
" clip-path="url(#p41fe992258)" style="fill: none; stroke: #006400; stroke-width: 1.5"/>
    <path d="M 88.514918 97.706234 
L 88.514918 45.105431 
" clip-path="url(#p41fe992258)" style="fill: none; stroke: #006400; stroke-width: 1.5"/>
    <path d="M 103.673056 86.484062 
L 103.673056 58.611019 
" clip-path="url(#p41fe992258)" style="fill: none; stroke: #006400; stroke-width: 1.5"/>
    <path d="M 118.831194 89.821264 
L 118.831194 65.066382 
" clip-path="url(#p41fe992258)" style="fill: none; stroke: #006400; stroke-width: 1.5"/>
    <path d="M 133.989331 95.087575 
L 133.989331 70.296468 
" clip-path="url(#p41fe992258)" style="fill: none; stroke: #006400; stroke-width: 1.5"/>
    <path d="M 149.147469 100.710809 
L 149.147469 75.294558 
" clip-path="url(#p41fe992258)" style="fill: none; stroke: #006400; stroke-width: 1.5"/>
    <path d="M 164.305607 106.747387 
L 164.305607 80.035707 
" clip-path="url(#p41fe992258)" style="fill: none; stroke: #006400; stroke-width: 1.5"/>
    <path d="M 179.463744 113.169265 
L 179.463744 84.538264 
" clip-path="url(#p41fe992258)" style="fill: none; stroke: #006400; stroke-width: 1.5"/>
    <path d="M 194.621882 119.678941 
L 194.621882 89.018285 
" clip-path="url(#p41fe992258)" style="fill: none; stroke: #006400; stroke-width: 1.5"/>
    <path d="M 209.780019 126.758376 
L 209.780019 93.196118 
" clip-path="url(#p41fe992258)" style="fill: none; stroke: #006400; stroke-width: 1.5"/>
    <path d="M 224.938157 134.4537 
L 224.938157 97.095295 
" clip-path="url(#p41fe992258)" style="fill: none; stroke: #006400; stroke-width: 1.5"/>
    <path d="M 240.096295 142.62224 
L 240.096295 100.844081 
" clip-path="url(#p41fe992258)" style="fill: none; stroke: #006400; stroke-width: 1.5"/>
    <path d="M 255.254432 151.748851 
L 255.254432 104.268347 
" clip-path="url(#p41fe992258)" style="fill: none; stroke: #006400; stroke-width: 1.5"/>
    <path d="M 270.41257 162.039825 
L 270.41257 107.393613 
" clip-path="url(#p41fe992258)" style="fill: none; stroke: #006400; stroke-width: 1.5"/>
    <path d="M 285.570708 173.155566 
L 285.570708 110.472549 
" clip-path="url(#p41fe992258)" style="fill: none; stroke: #006400; stroke-width: 1.5"/>
    <path d="M 300.728845 186.36226 
L 300.728845 113.210759 
" clip-path="url(#p41fe992258)" style="fill: none; stroke: #006400; stroke-width: 1.5"/>
    <path d="M 315.886983 203.922917 
L 315.886983 115.347195 
" clip-path="url(#p41fe992258)" style="fill: none; stroke: #006400; stroke-width: 1.5"/>
    <path d="M 331.04512 217 
L 331.04512 116.314216 
" clip-path="url(#p41fe992258)" style="fill: none; stroke: #006400; stroke-width: 1.5"/>
    <path clip-path="url(#p41fe992258)" style="fill: none; stroke: #006400; stroke-width: 1.5"/>
   </g>
   <g id="line2d_36">
    <defs>
     <path id="me6dec6c390" d="M 0 3 
C 0.795609 3 1.55874 2.683901 2.12132 2.12132 
C 2.683901 1.55874 3 0.795609 3 0 
C 3 -0.795609 2.683901 -1.55874 2.12132 -2.12132 
C 1.55874 -2.683901 0.795609 -3 0 -3 
C -0.795609 -3 -1.55874 -2.683901 -2.12132 -2.12132 
C -2.683901 -1.55874 -3 -0.795609 -3 0 
C -3 0.795609 -2.683901 1.55874 -2.12132 2.12132 
C -1.55874 2.683901 -0.795609 3 0 3 
z
" style="stroke: #8b0000"/>
    </defs>
    <g clip-path="url(#p41fe992258)">
     <use xlink:href="#me6dec6c390" x="78.376269" y="60.446059" style="fill: #8b0000; stroke: #8b0000"/>
     <use xlink:href="#me6dec6c390" x="93.534407" y="65.683742" style="fill: #8b0000; stroke: #8b0000"/>
     <use xlink:href="#me6dec6c390" x="108.692544" y="70.926876" style="fill: #8b0000; stroke: #8b0000"/>
     <use xlink:href="#me6dec6c390" x="123.850682" y="76.167094" style="fill: #8b0000; stroke: #8b0000"/>
     <use xlink:href="#me6dec6c390" x="139.008819" y="81.406995" style="fill: #8b0000; stroke: #8b0000"/>
     <use xlink:href="#me6dec6c390" x="154.166957" y="86.646655" style="fill: #8b0000; stroke: #8b0000"/>
     <use xlink:href="#me6dec6c390" x="169.325095" y="91.88569" style="fill: #8b0000; stroke: #8b0000"/>
     <use xlink:href="#me6dec6c390" x="184.483232" y="97.123114" style="fill: #8b0000; stroke: #8b0000"/>
     <use xlink:href="#me6dec6c390" x="199.64137" y="102.361368" style="fill: #8b0000; stroke: #8b0000"/>
     <use xlink:href="#me6dec6c390" x="214.799508" y="107.598227" style="fill: #8b0000; stroke: #8b0000"/>
     <use xlink:href="#me6dec6c390" x="229.957645" y="112.835189" style="fill: #8b0000; stroke: #8b0000"/>
     <use xlink:href="#me6dec6c390" x="245.115783" y="118.072654" style="fill: #8b0000; stroke: #8b0000"/>
     <use xlink:href="#me6dec6c390" x="260.27392" y="123.31012" style="fill: #8b0000; stroke: #8b0000"/>
     <use xlink:href="#me6dec6c390" x="275.432058" y="128.547272" style="fill: #8b0000; stroke: #8b0000"/>
     <use xlink:href="#me6dec6c390" x="290.590196" y="133.783978" style="fill: #8b0000; stroke: #8b0000"/>
     <use xlink:href="#me6dec6c390" x="305.748333" y="139.020598" style="fill: #8b0000; stroke: #8b0000"/>
     <use xlink:href="#me6dec6c390" x="320.906471" y="144.256736" style="fill: #8b0000; stroke: #8b0000"/>
     <use xlink:href="#me6dec6c390" x="336.064609" y="149.493053" style="fill: #8b0000; stroke: #8b0000"/>
    </g>
   </g>
   <g id="line2d_37">
    <defs>
     <path id="mf34e490012" d="M 0 3 
C 0.795609 3 1.55874 2.683901 2.12132 2.12132 
C 2.683901 1.55874 3 0.795609 3 0 
C 3 -0.795609 2.683901 -1.55874 2.12132 -2.12132 
C 1.55874 -2.683901 0.795609 -3 0 -3 
C -0.795609 -3 -1.55874 -2.683901 -2.12132 -2.12132 
C -2.683901 -1.55874 -3 -0.795609 -3 0 
C -3 0.795609 -2.683901 1.55874 -2.12132 2.12132 
C -1.55874 2.683901 -0.795609 3 0 3 
z
" style="stroke: #006400"/>
    </defs>
    <g clip-path="url(#p41fe992258)">
     <use xlink:href="#mf34e490012" x="73.356781" y="60.442894" style="fill: #006400; stroke: #006400"/>
     <use xlink:href="#mf34e490012" x="88.514918" y="65.682244" style="fill: #006400; stroke: #006400"/>
     <use xlink:href="#mf34e490012" x="103.673056" y="70.902781" style="fill: #006400; stroke: #006400"/>
     <use xlink:href="#mf34e490012" x="118.831194" y="76.14393" style="fill: #006400; stroke: #006400"/>
     <use xlink:href="#mf34e490012" x="133.989331" y="81.38835" style="fill: #006400; stroke: #006400"/>
     <use xlink:href="#mf34e490012" x="149.147469" y="86.63295" style="fill: #006400; stroke: #006400"/>
     <use xlink:href="#mf34e490012" x="164.305607" y="91.87985" style="fill: #006400; stroke: #006400"/>
     <use xlink:href="#mf34e490012" x="179.463744" y="97.119222" style="fill: #006400; stroke: #006400"/>
     <use xlink:href="#mf34e490012" x="194.621882" y="102.362276" style="fill: #006400; stroke: #006400"/>
     <use xlink:href="#mf34e490012" x="209.780019" y="107.602412" style="fill: #006400; stroke: #006400"/>
     <use xlink:href="#mf34e490012" x="224.938157" y="112.841374" style="fill: #006400; stroke: #006400"/>
     <use xlink:href="#mf34e490012" x="240.096295" y="118.07993" style="fill: #006400; stroke: #006400"/>
     <use xlink:href="#mf34e490012" x="255.254432" y="123.317723" style="fill: #006400; stroke: #006400"/>
     <use xlink:href="#mf34e490012" x="270.41257" y="128.554651" style="fill: #006400; stroke: #006400"/>
     <use xlink:href="#mf34e490012" x="285.570708" y="133.790979" style="fill: #006400; stroke: #006400"/>
     <use xlink:href="#mf34e490012" x="300.728845" y="139.026904" style="fill: #006400; stroke: #006400"/>
     <use xlink:href="#mf34e490012" x="315.886983" y="144.262017" style="fill: #006400; stroke: #006400"/>
     <use xlink:href="#mf34e490012" x="331.04512" y="149.496982" style="fill: #006400; stroke: #006400"/>
    </g>
   </g>
   <g id="patch_3">
    <path d="M 60.221389 170.728 
L 60.221389 10.8 
" style="fill: none; stroke: #000000; stroke-width: 0.8; stroke-linejoin: miter; stroke-linecap: square"/>
   </g>
   <g id="patch_4">
    <path d="M 349.2 170.728 
L 349.2 10.8 
" style="fill: none; stroke: #000000; stroke-width: 0.8; stroke-linejoin: miter; stroke-linecap: square"/>
   </g>
   <g id="patch_5">
    <path d="M 60.221389 170.728 
L 349.2 170.728 
" style="fill: none; stroke: #000000; stroke-width: 0.8; stroke-linejoin: miter; stroke-linecap: square"/>
   </g>
   <g id="patch_6">
    <path d="M 60.221389 10.8 
L 349.2 10.8 
" style="fill: none; stroke: #000000; stroke-width: 0.8; stroke-linejoin: miter; stroke-linecap: square"/>
   </g>
   <g id="legend_1">
    <g id="patch_7">
     <path d="M 248.3 62.834375 
L 342.2 62.834375 
Q 344.2 62.834375 344.2 60.834375 
L 344.2 17.8 
Q 344.2 15.8 342.2 15.8 
L 248.3 15.8 
Q 246.3 15.8 246.3 17.8 
L 246.3 60.834375 
Q 246.3 62.834375 248.3 62.834375 
z
" style="fill: #ffffff; opacity: 0.8; stroke: #cccccc; stroke-linejoin: miter"/>
    </g>
    <g id="patch_8">
     <path d="M 250.3 27.398438 
L 270.3 27.398438 
L 270.3 20.398438 
L 250.3 20.398438 
z
" style="fill: #008000; fill-opacity: 0.5"/>
    </g>
    <g id="text_6">
     <!-- $1\sigma$ Nuisance -->
     <g transform="translate(278.3 27.398438) scale(0.1 -0.1)">
      <defs>
       <path id="DejaVuSans-Oblique-3c3" d="M 2219 3044 
Q 1744 3044 1422 2700 
Q 1081 2341 969 1747 
Q 844 1119 1044 756 
Q 1241 397 1706 397 
Q 2166 397 2503 759 
Q 2844 1122 2966 1747 
Q 3075 2319 2881 2700 
Q 2700 3044 2219 3044 
z
M 2309 3503 
L 4219 3500 
L 4106 2925 
L 3463 2925 
Q 3706 2438 3575 1747 
Q 3406 888 2884 400 
Q 2359 -91 1609 -91 
Q 856 -91 525 400 
Q 194 888 363 1747 
Q 528 2609 1050 3097 
Q 1484 3503 2309 3503 
z
" transform="scale(0.015625)"/>
       <path id="DejaVuSans-4e" d="M 628 4666 
L 1478 4666 
L 3547 763 
L 3547 4666 
L 4159 4666 
L 4159 0 
L 3309 0 
L 1241 3903 
L 1241 0 
L 628 0 
L 628 4666 
z
" transform="scale(0.015625)"/>
       <path id="DejaVuSans-75" d="M 544 1381 
L 544 3500 
L 1119 3500 
L 1119 1403 
Q 1119 906 1312 657 
Q 1506 409 1894 409 
Q 2359 409 2629 706 
Q 2900 1003 2900 1516 
L 2900 3500 
L 3475 3500 
L 3475 0 
L 2900 0 
L 2900 538 
Q 2691 219 2414 64 
Q 2138 -91 1772 -91 
Q 1169 -91 856 284 
Q 544 659 544 1381 
z
M 1991 3584 
L 1991 3584 
z
" transform="scale(0.015625)"/>
       <path id="DejaVuSans-69" d="M 603 3500 
L 1178 3500 
L 1178 0 
L 603 0 
L 603 3500 
z
M 603 4863 
L 1178 4863 
L 1178 4134 
L 603 4134 
L 603 4863 
z
" transform="scale(0.015625)"/>
       <path id="DejaVuSans-61" d="M 2194 1759 
Q 1497 1759 1228 1600 
Q 959 1441 959 1056 
Q 959 750 1161 570 
Q 1363 391 1709 391 
Q 2188 391 2477 730 
Q 2766 1069 2766 1631 
L 2766 1759 
L 2194 1759 
z
M 3341 1997 
L 3341 0 
L 2766 0 
L 2766 531 
Q 2569 213 2275 61 
Q 1981 -91 1556 -91 
Q 1019 -91 701 211 
Q 384 513 384 1019 
Q 384 1609 779 1909 
Q 1175 2209 1959 2209 
L 2766 2209 
L 2766 2266 
Q 2766 2663 2505 2880 
Q 2244 3097 1772 3097 
Q 1472 3097 1187 3025 
Q 903 2953 641 2809 
L 641 3341 
Q 956 3463 1253 3523 
Q 1550 3584 1831 3584 
Q 2591 3584 2966 3190 
Q 3341 2797 3341 1997 
z
" transform="scale(0.015625)"/>
      </defs>
      <use xlink:href="#DejaVuSans-31" transform="translate(0 0.015625)"/>
      <use xlink:href="#DejaVuSans-Oblique-3c3" transform="translate(63.623047 0.015625)"/>
      <use xlink:href="#DejaVuSans-20" transform="translate(127.001953 0.015625)"/>
      <use xlink:href="#DejaVuSans-4e" transform="translate(158.789062 0.015625)"/>
      <use xlink:href="#DejaVuSans-75" transform="translate(233.59375 0.015625)"/>
      <use xlink:href="#DejaVuSans-69" transform="translate(296.972656 0.015625)"/>
      <use xlink:href="#DejaVuSans-73" transform="translate(324.755859 0.015625)"/>
      <use xlink:href="#DejaVuSans-61" transform="translate(376.855469 0.015625)"/>
      <use xlink:href="#DejaVuSans-6e" transform="translate(438.134766 0.015625)"/>
      <use xlink:href="#DejaVuSans-63" transform="translate(501.513672 0.015625)"/>
      <use xlink:href="#DejaVuSans-65" transform="translate(556.494141 0.015625)"/>
     </g>
    </g>
    <g id="patch_9">
     <path d="M 250.3 42.076563 
L 270.3 42.076563 
L 270.3 35.076563 
L 250.3 35.076563 
z
" style="fill: #ff0000; fill-opacity: 0.6"/>
    </g>
    <g id="text_7">
     <!-- $1\sigma$ Standard -->
     <g transform="translate(278.3 42.076563) scale(0.1 -0.1)">
      <defs>
       <path id="DejaVuSans-53" d="M 3425 4513 
L 3425 3897 
Q 3066 4069 2747 4153 
Q 2428 4238 2131 4238 
Q 1616 4238 1336 4038 
Q 1056 3838 1056 3469 
Q 1056 3159 1242 3001 
Q 1428 2844 1947 2747 
L 2328 2669 
Q 3034 2534 3370 2195 
Q 3706 1856 3706 1288 
Q 3706 609 3251 259 
Q 2797 -91 1919 -91 
Q 1588 -91 1214 -16 
Q 841 59 441 206 
L 441 856 
Q 825 641 1194 531 
Q 1563 422 1919 422 
Q 2459 422 2753 634 
Q 3047 847 3047 1241 
Q 3047 1584 2836 1778 
Q 2625 1972 2144 2069 
L 1759 2144 
Q 1053 2284 737 2584 
Q 422 2884 422 3419 
Q 422 4038 858 4394 
Q 1294 4750 2059 4750 
Q 2388 4750 2728 4690 
Q 3069 4631 3425 4513 
z
" transform="scale(0.015625)"/>
       <path id="DejaVuSans-74" d="M 1172 4494 
L 1172 3500 
L 2356 3500 
L 2356 3053 
L 1172 3053 
L 1172 1153 
Q 1172 725 1289 603 
Q 1406 481 1766 481 
L 2356 481 
L 2356 0 
L 1766 0 
Q 1100 0 847 248 
Q 594 497 594 1153 
L 594 3053 
L 172 3053 
L 172 3500 
L 594 3500 
L 594 4494 
L 1172 4494 
z
" transform="scale(0.015625)"/>
      </defs>
      <use xlink:href="#DejaVuSans-31" transform="translate(0 0.015625)"/>
      <use xlink:href="#DejaVuSans-Oblique-3c3" transform="translate(63.623047 0.015625)"/>
      <use xlink:href="#DejaVuSans-20" transform="translate(127.001953 0.015625)"/>
      <use xlink:href="#DejaVuSans-53" transform="translate(158.789062 0.015625)"/>
      <use xlink:href="#DejaVuSans-74" transform="translate(222.265625 0.015625)"/>
      <use xlink:href="#DejaVuSans-61" transform="translate(261.474609 0.015625)"/>
      <use xlink:href="#DejaVuSans-6e" transform="translate(322.753906 0.015625)"/>
      <use xlink:href="#DejaVuSans-64" transform="translate(386.132812 0.015625)"/>
      <use xlink:href="#DejaVuSans-61" transform="translate(449.609375 0.015625)"/>
      <use xlink:href="#DejaVuSans-72" transform="translate(510.888672 0.015625)"/>
      <use xlink:href="#DejaVuSans-64" transform="translate(552.001953 0.015625)"/>
     </g>
    </g>
    <g id="line2d_38">
     <path d="M 250.3 53.254688 
L 260.3 53.254688 
L 270.3 53.254688 
" style="fill: none; stroke-dasharray: 1.5,2.475; stroke-dashoffset: 0; stroke: #000000; stroke-width: 1.5"/>
    </g>
    <g id="text_8">
     <!-- Input -->
     <g transform="translate(278.3 56.754688) scale(0.1 -0.1)">
      <defs>
       <path id="DejaVuSans-49" d="M 628 4666 
L 1259 4666 
L 1259 0 
L 628 0 
L 628 4666 
z
" transform="scale(0.015625)"/>
       <path id="DejaVuSans-70" d="M 1159 525 
L 1159 -1331 
L 581 -1331 
L 581 3500 
L 1159 3500 
L 1159 2969 
Q 1341 3281 1617 3432 
Q 1894 3584 2278 3584 
Q 2916 3584 3314 3078 
Q 3713 2572 3713 1747 
Q 3713 922 3314 415 
Q 2916 -91 2278 -91 
Q 1894 -91 1617 61 
Q 1341 213 1159 525 
z
M 3116 1747 
Q 3116 2381 2855 2742 
Q 2594 3103 2138 3103 
Q 1681 3103 1420 2742 
Q 1159 2381 1159 1747 
Q 1159 1113 1420 752 
Q 1681 391 2138 391 
Q 2594 391 2855 752 
Q 3116 1113 3116 1747 
z
" transform="scale(0.015625)"/>
      </defs>
      <use xlink:href="#DejaVuSans-49"/>
      <use xlink:href="#DejaVuSans-6e" x="29.492188"/>
      <use xlink:href="#DejaVuSans-70" x="92.871094"/>
      <use xlink:href="#DejaVuSans-75" x="156.347656"/>
      <use xlink:href="#DejaVuSans-74" x="219.726562"/>
     </g>
    </g>
   </g>
  </g>
 </g>
 <defs>
  <clipPath id="p41fe992258">
   <rect x="60.221389" y="10.8" width="288.978611" height="159.928"/>
  </clipPath>
 </defs>
</svg>
