<?xml version="1.0" encoding="utf-8" standalone="no"?>
<!DOCTYPE svg PUBLIC "-//W3C//DTD SVG 1.1//EN"
  "http://www.w3.org/Graphics/SVG/1.1/DTD/svg11.dtd">
<svg xmlns:xlink="http://www.w3.org/1999/xlink" width="360pt" height="216pt" viewBox="0 0 360 216" xmlns="http://www.w3.org/2000/svg" version="1.1">
 <metadata>
  <rdf:RDF xmlns:dc="http://purl.org/dc/elements/1.1/" xmlns:cc="http://creativecommons.org/ns#" xmlns:rdf="http://www.w3.org/1999/02/22-rdf-syntax-ns#">
   <cc:Work>
    <dc:type rdf:resource="http://purl.org/dc/dcmitype/StillImage"/>
    <dc:date>2023-02-15T12:06:33.652776</dc:date>
    <dc:format>image/svg+xml</dc:format>
    <dc:creator>
     <cc:Agent>
      <dc:title>Matplotlib v3.6.2, https://matplotlib.org/</dc:title>
     </cc:Agent>
    </dc:creator>
   </cc:Work>
  </rdf:RDF>
 </metadata>
 <defs>
  <style type="text/css">*{stroke-linejoin: round; stroke-linecap: butt}</style>
 </defs>
 <g id="figure_1">
  <g id="patch_1">
   <path d="M 0 216 
L 360 216 
L 360 0 
L 0 0 
z
" style="fill: #ffffff"/>
  </g>
  <g id="axes_1">
   <g id="patch_2">
    <path d="M 60.221389 170.728 
L 349.2 170.728 
L 349.2 10.8 
L 60.221389 10.8 
z
" style="fill: #ffffff"/>
   </g>
   <g id="PolyCollection_1">
    <path d="M 74.645222 56.960088 
L 74.645222 75.915595 
L 77.222106 76.571955 
L 79.798989 77.230998 
L 82.375873 77.892799 
L 84.952756 78.557442 
L 87.529639 79.225012 
L 90.106523 79.895602 
L 92.683406 80.569306 
L 95.26029 81.246227 
L 97.837173 81.92647 
L 100.414056 82.610148 
L 102.99094 83.297377 
L 105.567823 83.988281 
L 108.144707 84.682985 
L 110.72159 85.381624 
L 113.298473 86.084334 
L 115.875357 86.791259 
L 118.45224 87.502545 
L 121.029124 88.218343 
L 123.606007 88.938807 
L 126.18289 89.664096 
L 128.759774 90.394369 
L 131.336657 91.129788 
L 133.913541 91.870512 
L 136.490424 92.616704 
L 139.067307 93.368522 
L 141.644191 94.126122 
L 144.221074 94.889655 
L 146.797958 95.659265 
L 149.374841 96.435091 
L 151.951724 97.21726 
L 154.528608 98.00589 
L 157.105491 98.801087 
L 159.682375 99.602941 
L 162.259258 100.41153 
L 164.836141 101.226916 
L 167.413025 102.049141 
L 169.989908 102.878235 
L 172.566792 103.714204 
L 175.143675 104.557041 
L 177.720558 105.406718 
L 180.297442 106.263192 
L 182.874325 107.126401 
L 185.451209 107.996269 
L 188.028092 108.872703 
L 190.604975 109.755599 
L 193.181859 110.644839 
L 195.758742 111.540295 
L 198.335626 112.441829 
L 200.912509 113.349297 
L 203.489392 114.262547 
L 206.066276 115.181425 
L 208.643159 116.10577 
L 211.220042 117.035423 
L 213.796926 117.970222 
L 216.373809 118.910005 
L 218.950693 119.854614 
L 221.527576 120.80389 
L 224.104459 121.757678 
L 226.681343 122.715829 
L 229.258226 123.678195 
L 231.83511 124.644633 
L 234.411993 125.615006 
L 236.988876 126.58918 
L 239.56576 127.567029 
L 242.142643 128.54843 
L 244.719527 129.533266 
L 247.29641 130.521425 
L 249.873293 131.512801 
L 252.450177 132.507292 
L 255.02706 133.504802 
L 257.603944 134.505241 
L 260.180827 135.508521 
L 262.75771 136.51456 
L 265.334594 137.523281 
L 267.911477 138.534611 
L 270.488361 139.548481 
L 273.065244 140.564826 
L 275.642127 141.583585 
L 278.219011 142.604699 
L 280.795894 143.628116 
L 283.372778 144.653783 
L 285.949661 145.681653 
L 288.526544 146.711681 
L 291.103428 147.743825 
L 293.680311 148.778047 
L 296.257195 149.814308 
L 298.834078 150.852575 
L 301.410961 151.892816 
L 303.987845 152.935001 
L 306.564728 153.979101 
L 309.141612 155.025092 
L 311.718495 156.072949 
L 314.295378 157.12265 
L 316.872262 158.174175 
L 319.449145 159.227505 
L 322.026029 160.282622 
L 324.602912 161.33951 
L 327.179795 162.398156 
L 329.756679 163.458545 
L 329.756679 136.052324 
L 329.756679 136.052324 
L 327.179795 135.357219 
L 324.602912 134.661988 
L 322.026029 133.966609 
L 319.449145 133.271061 
L 316.872262 132.57532 
L 314.295378 131.879362 
L 311.718495 131.183161 
L 309.141612 130.48669 
L 306.564728 129.789919 
L 303.987845 129.092819 
L 301.410961 128.395356 
L 298.834078 127.697497 
L 296.257195 126.999205 
L 293.680311 126.300444 
L 291.103428 125.601171 
L 288.526544 124.901346 
L 285.949661 124.200923 
L 283.372778 123.499855 
L 280.795894 122.798091 
L 278.219011 122.095578 
L 275.642127 121.392262 
L 273.065244 120.688082 
L 270.488361 119.982976 
L 267.911477 119.276879 
L 265.334594 118.56972 
L 262.75771 117.861428 
L 260.180827 117.151923 
L 257.603944 116.441125 
L 255.02706 115.728948 
L 252.450177 115.015301 
L 249.873293 114.30009 
L 247.29641 113.583215 
L 244.719527 112.86457 
L 242.142643 112.144046 
L 239.56576 111.421529 
L 236.988876 110.696898 
L 234.411993 109.970027 
L 231.83511 109.240787 
L 229.258226 108.509041 
L 226.681343 107.77465 
L 224.104459 107.037469 
L 221.527576 106.297347 
L 218.950693 105.554133 
L 216.373809 104.807668 
L 213.796926 104.057794 
L 211.220042 103.304348 
L 208.643159 102.547169 
L 206.066276 101.786092 
L 203.489392 101.020956 
L 200.912509 100.251599 
L 198.335626 99.477866 
L 195.758742 98.699603 
L 193.181859 97.916665 
L 190.604975 97.128914 
L 188.028092 96.336219 
L 185.451209 95.538464 
L 182.874325 94.735542 
L 180.297442 93.92736 
L 177.720558 93.113841 
L 175.143675 92.294925 
L 172.566792 91.470566 
L 169.989908 90.640737 
L 167.413025 89.80543 
L 164.836141 88.964653 
L 162.259258 88.118434 
L 159.682375 87.266817 
L 157.105491 86.409863 
L 154.528608 85.547651 
L 151.951724 84.680272 
L 149.374841 83.807833 
L 146.797958 82.930452 
L 144.221074 82.048258 
L 141.644191 81.161389 
L 139.067307 80.269991 
L 136.490424 79.374218 
L 133.913541 78.474225 
L 131.336657 77.570174 
L 128.759774 76.662226 
L 126.18289 75.750545 
L 123.606007 74.835294 
L 121.029124 73.916633 
L 118.45224 72.994724 
L 115.875357 72.069722 
L 113.298473 71.141781 
L 110.72159 70.211051 
L 108.144707 69.277675 
L 105.567823 68.341795 
L 102.99094 67.403546 
L 100.414056 66.463059 
L 97.837173 65.520457 
L 95.26029 64.575863 
L 92.683406 63.62939 
L 90.106523 62.681149 
L 87.529639 61.731244 
L 84.952756 60.779775 
L 82.375873 59.826836 
L 79.798989 58.872519 
L 77.222106 57.916909 
L 74.645222 56.960088 
z
" clip-path="url(#p511be09bbe)" style="fill: #008000; fill-opacity: 0.5"/>
   </g>
   <g id="PolyCollection_2">
    <path d="M 74.645222 57.890468 
L 74.645222 74.099688 
L 77.222106 74.748493 
L 79.798989 75.399372 
L 82.375873 76.052396 
L 84.952756 76.70764 
L 87.529639 77.365187 
L 90.106523 78.025126 
L 92.683406 78.687554 
L 95.26029 79.352576 
L 97.837173 80.020305 
L 100.414056 80.690864 
L 102.99094 81.364386 
L 105.567823 82.041014 
L 108.144707 82.720903 
L 110.72159 83.404221 
L 113.298473 84.091146 
L 115.875357 84.781871 
L 118.45224 85.476604 
L 121.029124 86.175565 
L 123.606007 86.87899 
L 126.18289 87.587129 
L 128.759774 88.300246 
L 131.336657 89.018621 
L 133.913541 89.742543 
L 136.490424 90.472315 
L 139.067307 91.20825 
L 141.644191 91.950666 
L 144.221074 92.699884 
L 146.797958 93.456227 
L 149.374841 94.220009 
L 151.951724 94.991537 
L 154.528608 95.771099 
L 157.105491 96.558964 
L 159.682375 97.355368 
L 162.259258 98.160516 
L 164.836141 98.974571 
L 167.413025 99.797654 
L 169.989908 100.629835 
L 172.566792 101.471137 
L 175.143675 102.321528 
L 177.720558 103.180931 
L 180.297442 104.049218 
L 182.874325 104.926219 
L 185.451209 105.811724 
L 188.028092 106.70549 
L 190.604975 107.607245 
L 193.181859 108.516698 
L 195.758742 109.433542 
L 198.335626 110.357458 
L 200.912509 111.288125 
L 203.489392 112.225222 
L 206.066276 113.16843 
L 208.643159 114.11744 
L 211.220042 115.071951 
L 213.796926 116.031673 
L 216.373809 116.99633 
L 218.950693 117.96566 
L 221.527576 118.939416 
L 224.104459 119.917363 
L 226.681343 120.899283 
L 229.258226 121.884972 
L 231.83511 122.874239 
L 234.411993 123.866907 
L 236.988876 124.86281 
L 239.56576 125.861795 
L 242.142643 126.863722 
L 244.719527 127.868458 
L 247.29641 128.875882 
L 249.873293 129.885882 
L 252.450177 130.898356 
L 255.02706 131.913206 
L 257.603944 132.930345 
L 260.180827 133.949693 
L 262.75771 134.971172 
L 265.334594 135.994715 
L 267.911477 137.020258 
L 270.488361 138.047742 
L 273.065244 139.077113 
L 275.642127 140.108321 
L 278.219011 141.14132 
L 280.795894 142.176069 
L 283.372778 143.212527 
L 285.949661 144.25066 
L 288.526544 145.290435 
L 291.103428 146.331822 
L 293.680311 147.374793 
L 296.257195 148.419323 
L 298.834078 149.46539 
L 301.410961 150.512971 
L 303.987845 151.562049 
L 306.564728 152.612606 
L 309.141612 153.664625 
L 311.718495 154.718094 
L 314.295378 155.772999 
L 316.872262 156.829328 
L 319.449145 157.887073 
L 322.026029 158.946223 
L 324.602912 160.006771 
L 327.179795 161.06871 
L 329.756679 162.132035 
L 329.756679 137.064654 
L 329.756679 137.064654 
L 327.179795 136.371859 
L 324.602912 135.679173 
L 322.026029 134.986582 
L 319.449145 134.294073 
L 316.872262 133.601632 
L 314.295378 132.909245 
L 311.718495 132.216894 
L 309.141612 131.524562 
L 306.564728 130.832231 
L 303.987845 130.139881 
L 301.410961 129.44749 
L 298.834078 128.755037 
L 296.257195 128.062496 
L 293.680311 127.369841 
L 291.103428 126.677045 
L 288.526544 125.984077 
L 285.949661 125.290905 
L 283.372778 124.597494 
L 280.795894 123.903807 
L 278.219011 123.209803 
L 275.642127 122.515441 
L 273.065244 121.820672 
L 270.488361 121.125448 
L 267.911477 120.429714 
L 265.334594 119.733413 
L 262.75771 119.036482 
L 260.180827 118.338854 
L 257.603944 117.640455 
L 255.02706 116.941208 
L 252.450177 116.241027 
L 249.873293 115.539823 
L 247.29641 114.837494 
L 244.719527 114.133936 
L 242.142643 113.429034 
L 239.56576 112.722662 
L 236.988876 112.014688 
L 234.411993 111.304967 
L 231.83511 110.593343 
L 229.258226 109.87965 
L 226.681343 109.163707 
L 224.104459 108.445321 
L 221.527576 107.724287 
L 218.950693 107.000383 
L 216.373809 106.273374 
L 213.796926 105.54301 
L 211.220042 104.809028 
L 208.643159 104.07115 
L 206.066276 103.329085 
L 203.489392 102.58253 
L 200.912509 101.831176 
L 198.335626 101.074701 
L 195.758742 100.312784 
L 193.181859 99.545102 
L 190.604975 98.771337 
L 188.028092 97.99118 
L 185.451209 97.204339 
L 182.874325 96.410541 
L 180.297442 95.609544 
L 177.720558 94.801137 
L 175.143675 93.985149 
L 172.566792 93.161453 
L 169.989908 92.329969 
L 167.413025 91.490668 
L 164.836141 90.643572 
L 162.259258 89.788752 
L 159.682375 88.926328 
L 157.105491 88.056463 
L 154.528608 87.179363 
L 151.951724 86.295266 
L 149.374841 85.404439 
L 146.797958 84.507172 
L 144.221074 83.603773 
L 141.644191 82.694557 
L 139.067307 81.779847 
L 136.490424 80.859965 
L 133.913541 79.935233 
L 131.336657 79.005962 
L 128.759774 78.072457 
L 126.18289 77.13501 
L 123.606007 76.193901 
L 121.029124 75.249397 
L 118.45224 74.301748 
L 115.875357 73.351194 
L 113.298473 72.397955 
L 110.72159 71.442242 
L 108.144707 70.48425 
L 105.567823 69.52416 
L 102.99094 68.562142 
L 100.414056 67.598352 
L 97.837173 66.632938 
L 95.26029 65.666033 
L 92.683406 64.697765 
L 90.106523 63.728249 
L 87.529639 62.757593 
L 84.952756 61.785898 
L 82.375873 60.813255 
L 79.798989 59.83975 
L 77.222106 58.865463 
L 74.645222 57.890468 
z
" clip-path="url(#p511be09bbe)" style="fill: #ff0000; fill-opacity: 0.6"/>
   </g>
   <g id="matplotlib.axis_1">
    <g id="xtick_1">
     <g id="line2d_1">
      <defs>
       <path id="m8c062a0894" d="M 0 0 
L 0 3.5 
" style="stroke: #000000; stroke-width: 0.8"/>
      </defs>
      <g>
       <use xlink:href="#m8c062a0894" x="111.252125" y="170.728" style="stroke: #000000; stroke-width: 0.8"/>
      </g>
     </g>
     <g id="text_1">
      <!-- $\mathdefault{10^{0}}$ -->
      <g transform="translate(102.452125 185.326437) scale(0.1 -0.1)">
       <defs>
        <path id="DejaVuSans-31" d="M 794 531 
L 1825 531 
L 1825 4091 
L 703 3866 
L 703 4441 
L 1819 4666 
L 2450 4666 
L 2450 531 
L 3481 531 
L 3481 0 
L 794 0 
L 794 531 
z
" transform="scale(0.015625)"/>
        <path id="DejaVuSans-30" d="M 2034 4250 
Q 1547 4250 1301 3770 
Q 1056 3291 1056 2328 
Q 1056 1369 1301 889 
Q 1547 409 2034 409 
Q 2525 409 2770 889 
Q 3016 1369 3016 2328 
Q 3016 3291 2770 3770 
Q 2525 4250 2034 4250 
z
M 2034 4750 
Q 2819 4750 3233 4129 
Q 3647 3509 3647 2328 
Q 3647 1150 3233 529 
Q 2819 -91 2034 -91 
Q 1250 -91 836 529 
Q 422 1150 422 2328 
Q 422 3509 836 4129 
Q 1250 4750 2034 4750 
z
" transform="scale(0.015625)"/>
       </defs>
       <use xlink:href="#DejaVuSans-31" transform="translate(0 0.765625)"/>
       <use xlink:href="#DejaVuSans-30" transform="translate(63.623047 0.765625)"/>
       <use xlink:href="#DejaVuSans-30" transform="translate(128.203125 39.046875) scale(0.7)"/>
      </g>
     </g>
    </g>
    <g id="xtick_2">
     <g id="line2d_2">
      <g>
       <use xlink:href="#m8c062a0894" x="232.517226" y="170.728" style="stroke: #000000; stroke-width: 0.8"/>
      </g>
     </g>
     <g id="text_2">
      <!-- $\mathdefault{10^{1}}$ -->
      <g transform="translate(223.717226 185.326437) scale(0.1 -0.1)">
       <use xlink:href="#DejaVuSans-31" transform="translate(0 0.684375)"/>
       <use xlink:href="#DejaVuSans-30" transform="translate(63.623047 0.684375)"/>
       <use xlink:href="#DejaVuSans-31" transform="translate(128.203125 38.965625) scale(0.7)"/>
      </g>
     </g>
    </g>
    <g id="xtick_3">
     <g id="line2d_3">
      <defs>
       <path id="m8d6c73dea7" d="M 0 0 
L 0 2 
" style="stroke: #000000; stroke-width: 0.6"/>
      </defs>
      <g>
       <use xlink:href="#m8d6c73dea7" x="62.995889" y="170.728" style="stroke: #000000; stroke-width: 0.6"/>
      </g>
     </g>
    </g>
    <g id="xtick_4">
     <g id="line2d_4">
      <g>
       <use xlink:href="#m8d6c73dea7" x="74.747692" y="170.728" style="stroke: #000000; stroke-width: 0.6"/>
      </g>
     </g>
    </g>
    <g id="xtick_5">
     <g id="line2d_5">
      <g>
       <use xlink:href="#m8d6c73dea7" x="84.349614" y="170.728" style="stroke: #000000; stroke-width: 0.6"/>
      </g>
     </g>
    </g>
    <g id="xtick_6">
     <g id="line2d_6">
      <g>
       <use xlink:href="#m8d6c73dea7" x="92.467923" y="170.728" style="stroke: #000000; stroke-width: 0.6"/>
      </g>
     </g>
    </g>
    <g id="xtick_7">
     <g id="line2d_7">
      <g>
       <use xlink:href="#m8d6c73dea7" x="99.500322" y="170.728" style="stroke: #000000; stroke-width: 0.6"/>
      </g>
     </g>
    </g>
    <g id="xtick_8">
     <g id="line2d_8">
      <g>
       <use xlink:href="#m8d6c73dea7" x="105.703338" y="170.728" style="stroke: #000000; stroke-width: 0.6"/>
      </g>
     </g>
    </g>
    <g id="xtick_9">
     <g id="line2d_9">
      <g>
       <use xlink:href="#m8d6c73dea7" x="147.756558" y="170.728" style="stroke: #000000; stroke-width: 0.6"/>
      </g>
     </g>
    </g>
    <g id="xtick_10">
     <g id="line2d_10">
      <g>
       <use xlink:href="#m8d6c73dea7" x="169.110282" y="170.728" style="stroke: #000000; stroke-width: 0.6"/>
      </g>
     </g>
    </g>
    <g id="xtick_11">
     <g id="line2d_11">
      <g>
       <use xlink:href="#m8d6c73dea7" x="184.260991" y="170.728" style="stroke: #000000; stroke-width: 0.6"/>
      </g>
     </g>
    </g>
    <g id="xtick_12">
     <g id="line2d_12">
      <g>
       <use xlink:href="#m8d6c73dea7" x="196.012793" y="170.728" style="stroke: #000000; stroke-width: 0.6"/>
      </g>
     </g>
    </g>
    <g id="xtick_13">
     <g id="line2d_13">
      <g>
       <use xlink:href="#m8d6c73dea7" x="205.614715" y="170.728" style="stroke: #000000; stroke-width: 0.6"/>
      </g>
     </g>
    </g>
    <g id="xtick_14">
     <g id="line2d_14">
      <g>
       <use xlink:href="#m8d6c73dea7" x="213.733024" y="170.728" style="stroke: #000000; stroke-width: 0.6"/>
      </g>
     </g>
    </g>
    <g id="xtick_15">
     <g id="line2d_15">
      <g>
       <use xlink:href="#m8d6c73dea7" x="220.765423" y="170.728" style="stroke: #000000; stroke-width: 0.6"/>
      </g>
     </g>
    </g>
    <g id="xtick_16">
     <g id="line2d_16">
      <g>
       <use xlink:href="#m8d6c73dea7" x="226.968439" y="170.728" style="stroke: #000000; stroke-width: 0.6"/>
      </g>
     </g>
    </g>
    <g id="xtick_17">
     <g id="line2d_17">
      <g>
       <use xlink:href="#m8d6c73dea7" x="269.021659" y="170.728" style="stroke: #000000; stroke-width: 0.6"/>
      </g>
     </g>
    </g>
    <g id="xtick_18">
     <g id="line2d_18">
      <g>
       <use xlink:href="#m8d6c73dea7" x="290.375383" y="170.728" style="stroke: #000000; stroke-width: 0.6"/>
      </g>
     </g>
    </g>
    <g id="xtick_19">
     <g id="line2d_19">
      <g>
       <use xlink:href="#m8d6c73dea7" x="305.526092" y="170.728" style="stroke: #000000; stroke-width: 0.6"/>
      </g>
     </g>
    </g>
    <g id="xtick_20">
     <g id="line2d_20">
      <g>
       <use xlink:href="#m8d6c73dea7" x="317.277894" y="170.728" style="stroke: #000000; stroke-width: 0.6"/>
      </g>
     </g>
    </g>
    <g id="xtick_21">
     <g id="line2d_21">
      <g>
       <use xlink:href="#m8d6c73dea7" x="326.879816" y="170.728" style="stroke: #000000; stroke-width: 0.6"/>
      </g>
     </g>
    </g>
    <g id="xtick_22">
     <g id="line2d_22">
      <g>
       <use xlink:href="#m8d6c73dea7" x="334.998125" y="170.728" style="stroke: #000000; stroke-width: 0.6"/>
      </g>
     </g>
    </g>
    <g id="xtick_23">
     <g id="line2d_23">
      <g>
       <use xlink:href="#m8d6c73dea7" x="342.030524" y="170.728" style="stroke: #000000; stroke-width: 0.6"/>
      </g>
     </g>
    </g>
    <g id="xtick_24">
     <g id="line2d_24">
      <g>
       <use xlink:href="#m8d6c73dea7" x="348.23354" y="170.728" style="stroke: #000000; stroke-width: 0.6"/>
      </g>
     </g>
    </g>
    <g id="text_3">
     <!-- Energy [TeV] -->
     <g transform="translate(173.013038 199.004562) scale(0.1 -0.1)">
      <defs>
       <path id="DejaVuSans-45" d="M 628 4666 
L 3578 4666 
L 3578 4134 
L 1259 4134 
L 1259 2753 
L 3481 2753 
L 3481 2222 
L 1259 2222 
L 1259 531 
L 3634 531 
L 3634 0 
L 628 0 
L 628 4666 
z
" transform="scale(0.015625)"/>
       <path id="DejaVuSans-6e" d="M 3513 2113 
L 3513 0 
L 2938 0 
L 2938 2094 
Q 2938 2591 2744 2837 
Q 2550 3084 2163 3084 
Q 1697 3084 1428 2787 
Q 1159 2491 1159 1978 
L 1159 0 
L 581 0 
L 581 3500 
L 1159 3500 
L 1159 2956 
Q 1366 3272 1645 3428 
Q 1925 3584 2291 3584 
Q 2894 3584 3203 3211 
Q 3513 2838 3513 2113 
z
" transform="scale(0.015625)"/>
       <path id="DejaVuSans-65" d="M 3597 1894 
L 3597 1613 
L 953 1613 
Q 991 1019 1311 708 
Q 1631 397 2203 397 
Q 2534 397 2845 478 
Q 3156 559 3463 722 
L 3463 178 
Q 3153 47 2828 -22 
Q 2503 -91 2169 -91 
Q 1331 -91 842 396 
Q 353 884 353 1716 
Q 353 2575 817 3079 
Q 1281 3584 2069 3584 
Q 2775 3584 3186 3129 
Q 3597 2675 3597 1894 
z
M 3022 2063 
Q 3016 2534 2758 2815 
Q 2500 3097 2075 3097 
Q 1594 3097 1305 2825 
Q 1016 2553 972 2059 
L 3022 2063 
z
" transform="scale(0.015625)"/>
       <path id="DejaVuSans-72" d="M 2631 2963 
Q 2534 3019 2420 3045 
Q 2306 3072 2169 3072 
Q 1681 3072 1420 2755 
Q 1159 2438 1159 1844 
L 1159 0 
L 581 0 
L 581 3500 
L 1159 3500 
L 1159 2956 
Q 1341 3275 1631 3429 
Q 1922 3584 2338 3584 
Q 2397 3584 2469 3576 
Q 2541 3569 2628 3553 
L 2631 2963 
z
" transform="scale(0.015625)"/>
       <path id="DejaVuSans-67" d="M 2906 1791 
Q 2906 2416 2648 2759 
Q 2391 3103 1925 3103 
Q 1463 3103 1205 2759 
Q 947 2416 947 1791 
Q 947 1169 1205 825 
Q 1463 481 1925 481 
Q 2391 481 2648 825 
Q 2906 1169 2906 1791 
z
M 3481 434 
Q 3481 -459 3084 -895 
Q 2688 -1331 1869 -1331 
Q 1566 -1331 1297 -1286 
Q 1028 -1241 775 -1147 
L 775 -588 
Q 1028 -725 1275 -790 
Q 1522 -856 1778 -856 
Q 2344 -856 2625 -561 
Q 2906 -266 2906 331 
L 2906 616 
Q 2728 306 2450 153 
Q 2172 0 1784 0 
Q 1141 0 747 490 
Q 353 981 353 1791 
Q 353 2603 747 3093 
Q 1141 3584 1784 3584 
Q 2172 3584 2450 3431 
Q 2728 3278 2906 2969 
L 2906 3500 
L 3481 3500 
L 3481 434 
z
" transform="scale(0.015625)"/>
       <path id="DejaVuSans-79" d="M 2059 -325 
Q 1816 -950 1584 -1140 
Q 1353 -1331 966 -1331 
L 506 -1331 
L 506 -850 
L 844 -850 
Q 1081 -850 1212 -737 
Q 1344 -625 1503 -206 
L 1606 56 
L 191 3500 
L 800 3500 
L 1894 763 
L 2988 3500 
L 3597 3500 
L 2059 -325 
z
" transform="scale(0.015625)"/>
       <path id="DejaVuSans-20" transform="scale(0.015625)"/>
       <path id="DejaVuSans-5b" d="M 550 4863 
L 1875 4863 
L 1875 4416 
L 1125 4416 
L 1125 -397 
L 1875 -397 
L 1875 -844 
L 550 -844 
L 550 4863 
z
" transform="scale(0.015625)"/>
       <path id="DejaVuSans-54" d="M -19 4666 
L 3928 4666 
L 3928 4134 
L 2272 4134 
L 2272 0 
L 1638 0 
L 1638 4134 
L -19 4134 
L -19 4666 
z
" transform="scale(0.015625)"/>
       <path id="DejaVuSans-56" d="M 1831 0 
L 50 4666 
L 709 4666 
L 2188 738 
L 3669 4666 
L 4325 4666 
L 2547 0 
L 1831 0 
z
" transform="scale(0.015625)"/>
       <path id="DejaVuSans-5d" d="M 1947 4863 
L 1947 -844 
L 622 -844 
L 622 -397 
L 1369 -397 
L 1369 4416 
L 622 4416 
L 622 4863 
L 1947 4863 
z
" transform="scale(0.015625)"/>
      </defs>
      <use xlink:href="#DejaVuSans-45"/>
      <use xlink:href="#DejaVuSans-6e" x="63.183594"/>
      <use xlink:href="#DejaVuSans-65" x="126.5625"/>
      <use xlink:href="#DejaVuSans-72" x="188.085938"/>
      <use xlink:href="#DejaVuSans-67" x="227.449219"/>
      <use xlink:href="#DejaVuSans-79" x="290.925781"/>
      <use xlink:href="#DejaVuSans-20" x="350.105469"/>
      <use xlink:href="#DejaVuSans-5b" x="381.892578"/>
      <use xlink:href="#DejaVuSans-54" x="420.90625"/>
      <use xlink:href="#DejaVuSans-65" x="464.990234"/>
      <use xlink:href="#DejaVuSans-56" x="526.513672"/>
      <use xlink:href="#DejaVuSans-5d" x="594.921875"/>
     </g>
    </g>
   </g>
   <g id="matplotlib.axis_2">
    <g id="ytick_1">
     <g id="line2d_25">
      <defs>
       <path id="me60dac2c24" d="M 0 0 
L -3.5 0 
" style="stroke: #000000; stroke-width: 0.8"/>
      </defs>
      <g>
       <use xlink:href="#me60dac2c24" x="60.221389" y="82.253233" style="stroke: #000000; stroke-width: 0.8"/>
      </g>
     </g>
     <g id="text_4">
      <!-- $\mathdefault{10^{-12}}$ -->
      <g transform="translate(25.321389 86.052451) scale(0.1 -0.1)">
       <defs>
        <path id="DejaVuSans-2212" d="M 678 2272 
L 4684 2272 
L 4684 1741 
L 678 1741 
L 678 2272 
z
" transform="scale(0.015625)"/>
        <path id="DejaVuSans-32" d="M 1228 531 
L 3431 531 
L 3431 0 
L 469 0 
L 469 531 
Q 828 903 1448 1529 
Q 2069 2156 2228 2338 
Q 2531 2678 2651 2914 
Q 2772 3150 2772 3378 
Q 2772 3750 2511 3984 
Q 2250 4219 1831 4219 
Q 1534 4219 1204 4116 
Q 875 4013 500 3803 
L 500 4441 
Q 881 4594 1212 4672 
Q 1544 4750 1819 4750 
Q 2544 4750 2975 4387 
Q 3406 4025 3406 3419 
Q 3406 3131 3298 2873 
Q 3191 2616 2906 2266 
Q 2828 2175 2409 1742 
Q 1991 1309 1228 531 
z
" transform="scale(0.015625)"/>
       </defs>
       <use xlink:href="#DejaVuSans-31" transform="translate(0 0.765625)"/>
       <use xlink:href="#DejaVuSans-30" transform="translate(63.623047 0.765625)"/>
       <use xlink:href="#DejaVuSans-2212" transform="translate(128.203125 39.046875) scale(0.7)"/>
       <use xlink:href="#DejaVuSans-31" transform="translate(186.855469 39.046875) scale(0.7)"/>
       <use xlink:href="#DejaVuSans-32" transform="translate(231.391602 39.046875) scale(0.7)"/>
      </g>
     </g>
    </g>
    <g id="ytick_2">
     <g id="line2d_26">
      <defs>
       <path id="mf76498d231" d="M 0 0 
L -2 0 
" style="stroke: #000000; stroke-width: 0.6"/>
      </defs>
      <g>
       <use xlink:href="#mf76498d231" x="60.221389" y="168.946326" style="stroke: #000000; stroke-width: 0.6"/>
      </g>
     </g>
    </g>
    <g id="ytick_3">
     <g id="line2d_27">
      <g>
       <use xlink:href="#mf76498d231" x="60.221389" y="147.105767" style="stroke: #000000; stroke-width: 0.6"/>
      </g>
     </g>
    </g>
    <g id="ytick_4">
     <g id="line2d_28">
      <g>
       <use xlink:href="#mf76498d231" x="60.221389" y="131.609643" style="stroke: #000000; stroke-width: 0.6"/>
      </g>
     </g>
    </g>
    <g id="ytick_5">
     <g id="line2d_29">
      <g>
       <use xlink:href="#mf76498d231" x="60.221389" y="119.589916" style="stroke: #000000; stroke-width: 0.6"/>
      </g>
     </g>
    </g>
    <g id="ytick_6">
     <g id="line2d_30">
      <g>
       <use xlink:href="#mf76498d231" x="60.221389" y="109.769083" style="stroke: #000000; stroke-width: 0.6"/>
      </g>
     </g>
    </g>
    <g id="ytick_7">
     <g id="line2d_31">
      <g>
       <use xlink:href="#mf76498d231" x="60.221389" y="101.465688" style="stroke: #000000; stroke-width: 0.6"/>
      </g>
     </g>
    </g>
    <g id="ytick_8">
     <g id="line2d_32">
      <g>
       <use xlink:href="#mf76498d231" x="60.221389" y="94.27296" style="stroke: #000000; stroke-width: 0.6"/>
      </g>
     </g>
    </g>
    <g id="ytick_9">
     <g id="line2d_33">
      <g>
       <use xlink:href="#mf76498d231" x="60.221389" y="87.928524" style="stroke: #000000; stroke-width: 0.6"/>
      </g>
     </g>
    </g>
    <g id="ytick_10">
     <g id="line2d_34">
      <g>
       <use xlink:href="#mf76498d231" x="60.221389" y="44.916549" style="stroke: #000000; stroke-width: 0.6"/>
      </g>
     </g>
    </g>
    <g id="ytick_11">
     <g id="line2d_35">
      <g>
       <use xlink:href="#mf76498d231" x="60.221389" y="23.07599" style="stroke: #000000; stroke-width: 0.6"/>
      </g>
     </g>
    </g>
    <g id="text_5">
     <!-- e2 * dnde [TeV / (cm2 s)] -->
     <g transform="translate(19.241702 153.243688) rotate(-90) scale(0.1 -0.1)">
      <defs>
       <path id="DejaVuSans-2a" d="M 3009 3897 
L 1888 3291 
L 3009 2681 
L 2828 2375 
L 1778 3009 
L 1778 1831 
L 1422 1831 
L 1422 3009 
L 372 2375 
L 191 2681 
L 1313 3291 
L 191 3897 
L 372 4206 
L 1422 3572 
L 1422 4750 
L 1778 4750 
L 1778 3572 
L 2828 4206 
L 3009 3897 
z
" transform="scale(0.015625)"/>
       <path id="DejaVuSans-64" d="M 2906 2969 
L 2906 4863 
L 3481 4863 
L 3481 0 
L 2906 0 
L 2906 525 
Q 2725 213 2448 61 
Q 2172 -91 1784 -91 
Q 1150 -91 751 415 
Q 353 922 353 1747 
Q 353 2572 751 3078 
Q 1150 3584 1784 3584 
Q 2172 3584 2448 3432 
Q 2725 3281 2906 2969 
z
M 947 1747 
Q 947 1113 1208 752 
Q 1469 391 1925 391 
Q 2381 391 2643 752 
Q 2906 1113 2906 1747 
Q 2906 2381 2643 2742 
Q 2381 3103 1925 3103 
Q 1469 3103 1208 2742 
Q 947 2381 947 1747 
z
" transform="scale(0.015625)"/>
       <path id="DejaVuSans-2f" d="M 1625 4666 
L 2156 4666 
L 531 -594 
L 0 -594 
L 1625 4666 
z
" transform="scale(0.015625)"/>
       <path id="DejaVuSans-28" d="M 1984 4856 
Q 1566 4138 1362 3434 
Q 1159 2731 1159 2009 
Q 1159 1288 1364 580 
Q 1569 -128 1984 -844 
L 1484 -844 
Q 1016 -109 783 600 
Q 550 1309 550 2009 
Q 550 2706 781 3412 
Q 1013 4119 1484 4856 
L 1984 4856 
z
" transform="scale(0.015625)"/>
       <path id="DejaVuSans-63" d="M 3122 3366 
L 3122 2828 
Q 2878 2963 2633 3030 
Q 2388 3097 2138 3097 
Q 1578 3097 1268 2742 
Q 959 2388 959 1747 
Q 959 1106 1268 751 
Q 1578 397 2138 397 
Q 2388 397 2633 464 
Q 2878 531 3122 666 
L 3122 134 
Q 2881 22 2623 -34 
Q 2366 -91 2075 -91 
Q 1284 -91 818 406 
Q 353 903 353 1747 
Q 353 2603 823 3093 
Q 1294 3584 2113 3584 
Q 2378 3584 2631 3529 
Q 2884 3475 3122 3366 
z
" transform="scale(0.015625)"/>
       <path id="DejaVuSans-6d" d="M 3328 2828 
Q 3544 3216 3844 3400 
Q 4144 3584 4550 3584 
Q 5097 3584 5394 3201 
Q 5691 2819 5691 2113 
L 5691 0 
L 5113 0 
L 5113 2094 
Q 5113 2597 4934 2840 
Q 4756 3084 4391 3084 
Q 3944 3084 3684 2787 
Q 3425 2491 3425 1978 
L 3425 0 
L 2847 0 
L 2847 2094 
Q 2847 2600 2669 2842 
Q 2491 3084 2119 3084 
Q 1678 3084 1418 2786 
Q 1159 2488 1159 1978 
L 1159 0 
L 581 0 
L 581 3500 
L 1159 3500 
L 1159 2956 
Q 1356 3278 1631 3431 
Q 1906 3584 2284 3584 
Q 2666 3584 2933 3390 
Q 3200 3197 3328 2828 
z
" transform="scale(0.015625)"/>
       <path id="DejaVuSans-73" d="M 2834 3397 
L 2834 2853 
Q 2591 2978 2328 3040 
Q 2066 3103 1784 3103 
Q 1356 3103 1142 2972 
Q 928 2841 928 2578 
Q 928 2378 1081 2264 
Q 1234 2150 1697 2047 
L 1894 2003 
Q 2506 1872 2764 1633 
Q 3022 1394 3022 966 
Q 3022 478 2636 193 
Q 2250 -91 1575 -91 
Q 1294 -91 989 -36 
Q 684 19 347 128 
L 347 722 
Q 666 556 975 473 
Q 1284 391 1588 391 
Q 1994 391 2212 530 
Q 2431 669 2431 922 
Q 2431 1156 2273 1281 
Q 2116 1406 1581 1522 
L 1381 1569 
Q 847 1681 609 1914 
Q 372 2147 372 2553 
Q 372 3047 722 3315 
Q 1072 3584 1716 3584 
Q 2034 3584 2315 3537 
Q 2597 3491 2834 3397 
z
" transform="scale(0.015625)"/>
       <path id="DejaVuSans-29" d="M 513 4856 
L 1013 4856 
Q 1481 4119 1714 3412 
Q 1947 2706 1947 2009 
Q 1947 1309 1714 600 
Q 1481 -109 1013 -844 
L 513 -844 
Q 928 -128 1133 580 
Q 1338 1288 1338 2009 
Q 1338 2731 1133 3434 
Q 928 4138 513 4856 
z
" transform="scale(0.015625)"/>
      </defs>
      <use xlink:href="#DejaVuSans-65"/>
      <use xlink:href="#DejaVuSans-32" x="61.523438"/>
      <use xlink:href="#DejaVuSans-20" x="125.146484"/>
      <use xlink:href="#DejaVuSans-2a" x="156.933594"/>
      <use xlink:href="#DejaVuSans-20" x="206.933594"/>
      <use xlink:href="#DejaVuSans-64" x="238.720703"/>
      <use xlink:href="#DejaVuSans-6e" x="302.197266"/>
      <use xlink:href="#DejaVuSans-64" x="365.576172"/>
      <use xlink:href="#DejaVuSans-65" x="429.052734"/>
      <use xlink:href="#DejaVuSans-20" x="490.576172"/>
      <use xlink:href="#DejaVuSans-5b" x="522.363281"/>
      <use xlink:href="#DejaVuSans-54" x="561.376953"/>
      <use xlink:href="#DejaVuSans-65" x="605.460938"/>
      <use xlink:href="#DejaVuSans-56" x="666.984375"/>
      <use xlink:href="#DejaVuSans-20" x="735.392578"/>
      <use xlink:href="#DejaVuSans-2f" x="767.179688"/>
      <use xlink:href="#DejaVuSans-20" x="800.871094"/>
      <use xlink:href="#DejaVuSans-28" x="832.658203"/>
      <use xlink:href="#DejaVuSans-63" x="871.671875"/>
      <use xlink:href="#DejaVuSans-6d" x="926.652344"/>
      <use xlink:href="#DejaVuSans-32" x="1024.064453"/>
      <use xlink:href="#DejaVuSans-20" x="1087.6875"/>
      <use xlink:href="#DejaVuSans-73" x="1119.474609"/>
      <use xlink:href="#DejaVuSans-29" x="1171.574219"/>
      <use xlink:href="#DejaVuSans-5d" x="1210.587891"/>
     </g>
    </g>
   </g>
   <g id="line2d_36">
    <path d="M 74.645222 71.020786 
L 77.222106 71.811476 
L 79.798989 72.602165 
L 82.375873 73.392855 
L 84.952756 74.183545 
L 87.529639 74.974235 
L 90.106523 75.764925 
L 92.683406 76.555615 
L 95.26029 77.346304 
L 97.837173 78.136994 
L 100.414056 78.927684 
L 102.99094 79.718374 
L 105.567823 80.509064 
L 108.144707 81.299754 
L 110.72159 82.090443 
L 113.298473 82.881133 
L 115.875357 83.671823 
L 118.45224 84.462513 
L 121.029124 85.253203 
L 123.606007 86.043893 
L 126.18289 86.834582 
L 128.759774 87.625272 
L 131.336657 88.415962 
L 133.913541 89.206652 
L 136.490424 89.997342 
L 139.067307 90.788032 
L 141.644191 91.578721 
L 144.221074 92.369411 
L 146.797958 93.160101 
L 149.374841 93.950791 
L 151.951724 94.741481 
L 154.528608 95.532171 
L 157.105491 96.32286 
L 159.682375 97.11355 
L 162.259258 97.90424 
L 164.836141 98.69493 
L 167.413025 99.48562 
L 169.989908 100.276309 
L 172.566792 101.066999 
L 175.143675 101.857689 
L 177.720558 102.648379 
L 180.297442 103.439069 
L 182.874325 104.229759 
L 185.451209 105.020448 
L 188.028092 105.811138 
L 190.604975 106.601828 
L 193.181859 107.392518 
L 195.758742 108.183208 
L 198.335626 108.973898 
L 200.912509 109.764587 
L 203.489392 110.555277 
L 206.066276 111.345967 
L 208.643159 112.136657 
L 211.220042 112.927347 
L 213.796926 113.718037 
L 216.373809 114.508726 
L 218.950693 115.299416 
L 221.527576 116.090106 
L 224.104459 116.880796 
L 226.681343 117.671486 
L 229.258226 118.462176 
L 231.83511 119.252865 
L 234.411993 120.043555 
L 236.988876 120.834245 
L 239.56576 121.624935 
L 242.142643 122.415625 
L 244.719527 123.206315 
L 247.29641 123.997004 
L 249.873293 124.787694 
L 252.450177 125.578384 
L 255.02706 126.369074 
L 257.603944 127.159764 
L 260.180827 127.950453 
L 262.75771 128.741143 
L 265.334594 129.531833 
L 267.911477 130.322523 
L 270.488361 131.113213 
L 273.065244 131.903903 
L 275.642127 132.694592 
L 278.219011 133.485282 
L 280.795894 134.275972 
L 283.372778 135.066662 
L 285.949661 135.857352 
L 288.526544 136.648042 
L 291.103428 137.438731 
L 293.680311 138.229421 
L 296.257195 139.020111 
L 298.834078 139.810801 
L 301.410961 140.601491 
L 303.987845 141.392181 
L 306.564728 142.18287 
L 309.141612 142.97356 
L 311.718495 143.76425 
L 314.295378 144.55494 
L 316.872262 145.34563 
L 319.449145 146.13632 
L 322.026029 146.927009 
L 324.602912 147.717699 
L 327.179795 148.508389 
L 329.756679 149.299079 
" clip-path="url(#p511be09bbe)" style="fill: none; stroke-dasharray: 1.5,2.475; stroke-dashoffset: 0; stroke: #000000; stroke-width: 1.5"/>
   </g>
   <g id="LineCollection_1">
    <path clip-path="url(#p511be09bbe)" style="fill: none; stroke: #8b0000; stroke-width: 1.5"/>
    <path clip-path="url(#p511be09bbe)" style="fill: none; stroke: #8b0000; stroke-width: 1.5"/>
    <path clip-path="url(#p511be09bbe)" style="fill: none; stroke: #8b0000; stroke-width: 1.5"/>
    <path clip-path="url(#p511be09bbe)" style="fill: none; stroke: #8b0000; stroke-width: 1.5"/>
    <path clip-path="url(#p511be09bbe)" style="fill: none; stroke: #8b0000; stroke-width: 1.5"/>
    <path d="M 78.376269 217 
L 78.376269 20.999736 
" clip-path="url(#p511be09bbe)" style="fill: none; stroke: #8b0000; stroke-width: 1.5"/>
    <path d="M 93.534407 105.838413 
L 93.534407 48.852421 
" clip-path="url(#p511be09bbe)" style="fill: none; stroke: #8b0000; stroke-width: 1.5"/>
    <path d="M 108.692544 90.132887 
L 108.692544 63.221053 
" clip-path="url(#p511be09bbe)" style="fill: none; stroke: #8b0000; stroke-width: 1.5"/>
    <path d="M 123.850682 92.521569 
L 123.850682 69.692659 
" clip-path="url(#p511be09bbe)" style="fill: none; stroke: #8b0000; stroke-width: 1.5"/>
    <path d="M 139.008819 97.345173 
L 139.008819 74.616544 
" clip-path="url(#p511be09bbe)" style="fill: none; stroke: #8b0000; stroke-width: 1.5"/>
    <path d="M 154.166957 102.60582 
L 154.166957 79.255755 
" clip-path="url(#p511be09bbe)" style="fill: none; stroke: #8b0000; stroke-width: 1.5"/>
    <path d="M 169.325095 108.332708 
L 169.325095 83.600488 
" clip-path="url(#p511be09bbe)" style="fill: none; stroke: #8b0000; stroke-width: 1.5"/>
    <path d="M 184.483232 114.471739 
L 184.483232 87.704399 
" clip-path="url(#p511be09bbe)" style="fill: none; stroke: #8b0000; stroke-width: 1.5"/>
    <path d="M 199.64137 120.64006 
L 199.64137 91.821311 
" clip-path="url(#p511be09bbe)" style="fill: none; stroke: #8b0000; stroke-width: 1.5"/>
    <path d="M 214.799508 127.360862 
L 214.799508 95.656579 
" clip-path="url(#p511be09bbe)" style="fill: none; stroke: #8b0000; stroke-width: 1.5"/>
    <path d="M 229.957645 134.723113 
L 229.957645 99.212348 
" clip-path="url(#p511be09bbe)" style="fill: none; stroke: #8b0000; stroke-width: 1.5"/>
    <path d="M 245.115783 142.524938 
L 245.115783 102.648178 
" clip-path="url(#p511be09bbe)" style="fill: none; stroke: #8b0000; stroke-width: 1.5"/>
    <path d="M 260.27392 151.264149 
L 260.27392 105.78794 
" clip-path="url(#p511be09bbe)" style="fill: none; stroke: #8b0000; stroke-width: 1.5"/>
    <path d="M 275.432058 161.117318 
L 275.432058 108.671105 
" clip-path="url(#p511be09bbe)" style="fill: none; stroke: #8b0000; stroke-width: 1.5"/>
    <path d="M 290.590196 171.685543 
L 290.590196 111.557209 
" clip-path="url(#p511be09bbe)" style="fill: none; stroke: #8b0000; stroke-width: 1.5"/>
    <path d="M 305.748333 184.255842 
L 305.748333 114.133037 
" clip-path="url(#p511be09bbe)" style="fill: none; stroke: #8b0000; stroke-width: 1.5"/>
    <path d="M 320.906471 201.174108 
L 320.906471 116.160499 
" clip-path="url(#p511be09bbe)" style="fill: none; stroke: #8b0000; stroke-width: 1.5"/>
    <path d="M 336.064609 217 
L 336.064609 117.120075 
" clip-path="url(#p511be09bbe)" style="fill: none; stroke: #8b0000; stroke-width: 1.5"/>
    <path clip-path="url(#p511be09bbe)" style="fill: none; stroke: #8b0000; stroke-width: 1.5"/>
   </g>
   <g id="LineCollection_2">
    <path clip-path="url(#p511be09bbe)" style="fill: none; stroke: #006400; stroke-width: 1.5"/>
    <path clip-path="url(#p511be09bbe)" style="fill: none; stroke: #006400; stroke-width: 1.5"/>
    <path clip-path="url(#p511be09bbe)" style="fill: none; stroke: #006400; stroke-width: 1.5"/>
    <path clip-path="url(#p511be09bbe)" style="fill: none; stroke: #006400; stroke-width: 1.5"/>
    <path clip-path="url(#p511be09bbe)" style="fill: none; stroke: #006400; stroke-width: 1.5"/>
    <path d="M 73.356781 217 
L 73.356781 18.069455 
" clip-path="url(#p511be09bbe)" style="fill: none; stroke: #006400; stroke-width: 1.5"/>
    <path d="M 88.514918 111.499722 
L 88.514918 47.048278 
" clip-path="url(#p511be09bbe)" style="fill: none; stroke: #006400; stroke-width: 1.5"/>
    <path d="M 103.673056 92.74855 
L 103.673056 61.726453 
" clip-path="url(#p511be09bbe)" style="fill: none; stroke: #006400; stroke-width: 1.5"/>
    <path d="M 118.831194 94.891136 
L 118.831194 68.215871 
" clip-path="url(#p511be09bbe)" style="fill: none; stroke: #006400; stroke-width: 1.5"/>
    <path d="M 133.989331 99.637383 
L 133.989331 73.188606 
" clip-path="url(#p511be09bbe)" style="fill: none; stroke: #006400; stroke-width: 1.5"/>
    <path d="M 149.147469 104.836375 
L 149.147469 77.886223 
" clip-path="url(#p511be09bbe)" style="fill: none; stroke: #006400; stroke-width: 1.5"/>
    <path d="M 164.305607 110.518563 
L 164.305607 82.297253 
" clip-path="url(#p511be09bbe)" style="fill: none; stroke: #006400; stroke-width: 1.5"/>
    <path d="M 179.463744 116.641612 
L 179.463744 86.461902 
" clip-path="url(#p511be09bbe)" style="fill: none; stroke: #006400; stroke-width: 1.5"/>
    <path d="M 194.621882 122.762277 
L 194.621882 90.654349 
" clip-path="url(#p511be09bbe)" style="fill: none; stroke: #006400; stroke-width: 1.5"/>
    <path d="M 209.780019 129.472825 
L 209.780019 94.554268 
" clip-path="url(#p511be09bbe)" style="fill: none; stroke: #006400; stroke-width: 1.5"/>
    <path d="M 224.938157 136.886025 
L 224.938157 98.155593 
" clip-path="url(#p511be09bbe)" style="fill: none; stroke: #006400; stroke-width: 1.5"/>
    <path d="M 240.096295 144.75276 
L 240.096295 101.640567 
" clip-path="url(#p511be09bbe)" style="fill: none; stroke: #006400; stroke-width: 1.5"/>
    <path d="M 255.254432 153.60078 
L 255.254432 104.833528 
" clip-path="url(#p511be09bbe)" style="fill: none; stroke: #006400; stroke-width: 1.5"/>
    <path d="M 270.41257 163.611797 
L 270.41257 107.775293 
" clip-path="url(#p511be09bbe)" style="fill: none; stroke: #006400; stroke-width: 1.5"/>
    <path d="M 285.570708 174.349463 
L 285.570708 110.727867 
" clip-path="url(#p511be09bbe)" style="fill: none; stroke: #006400; stroke-width: 1.5"/>
    <path d="M 300.728845 187.215681 
L 300.728845 113.383793 
" clip-path="url(#p511be09bbe)" style="fill: none; stroke: #006400; stroke-width: 1.5"/>
    <path d="M 315.886983 204.74199 
L 315.886983 115.482246 
" clip-path="url(#p511be09bbe)" style="fill: none; stroke: #006400; stroke-width: 1.5"/>
    <path d="M 331.04512 217 
L 331.04512 116.495272 
" clip-path="url(#p511be09bbe)" style="fill: none; stroke: #006400; stroke-width: 1.5"/>
    <path clip-path="url(#p511be09bbe)" style="fill: none; stroke: #006400; stroke-width: 1.5"/>
   </g>
   <g id="line2d_37">
    <defs>
     <path id="m7c83f88dca" d="M 0 3 
C 0.795609 3 1.55874 2.683901 2.12132 2.12132 
C 2.683901 1.55874 3 0.795609 3 0 
C 3 -0.795609 2.683901 -1.55874 2.12132 -2.12132 
C 1.55874 -2.683901 0.795609 -3 0 -3 
C -0.795609 -3 -1.55874 -2.683901 -2.12132 -2.12132 
C -2.683901 -1.55874 -3 -0.795609 -3 0 
C -3 0.795609 -2.683901 1.55874 -2.12132 2.12132 
C -1.55874 2.683901 -0.795609 3 0 3 
z
" style="stroke: #8b0000"/>
    </defs>
    <g clip-path="url(#p511be09bbe)">
     <use xlink:href="#m7c83f88dca" x="78.376269" y="65.261105" style="fill: #8b0000; stroke: #8b0000"/>
     <use xlink:href="#m7c83f88dca" x="93.534407" y="70.136755" style="fill: #8b0000; stroke: #8b0000"/>
     <use xlink:href="#m7c83f88dca" x="108.692544" y="75.01348" style="fill: #8b0000; stroke: #8b0000"/>
     <use xlink:href="#m7c83f88dca" x="123.850682" y="79.906658" style="fill: #8b0000; stroke: #8b0000"/>
     <use xlink:href="#m7c83f88dca" x="139.008819" y="84.790849" style="fill: #8b0000; stroke: #8b0000"/>
     <use xlink:href="#m7c83f88dca" x="154.166957" y="89.675323" style="fill: #8b0000; stroke: #8b0000"/>
     <use xlink:href="#m7c83f88dca" x="169.325095" y="94.559425" style="fill: #8b0000; stroke: #8b0000"/>
     <use xlink:href="#m7c83f88dca" x="184.483232" y="99.442215" style="fill: #8b0000; stroke: #8b0000"/>
     <use xlink:href="#m7c83f88dca" x="199.64137" y="104.325939" style="fill: #8b0000; stroke: #8b0000"/>
     <use xlink:href="#m7c83f88dca" x="214.799508" y="109.209058" style="fill: #8b0000; stroke: #8b0000"/>
     <use xlink:href="#m7c83f88dca" x="229.957645" y="114.092929" style="fill: #8b0000; stroke: #8b0000"/>
     <use xlink:href="#m7c83f88dca" x="245.115783" y="118.977756" style="fill: #8b0000; stroke: #8b0000"/>
     <use xlink:href="#m7c83f88dca" x="260.27392" y="123.862955" style="fill: #8b0000; stroke: #8b0000"/>
     <use xlink:href="#m7c83f88dca" x="275.432058" y="128.748425" style="fill: #8b0000; stroke: #8b0000"/>
     <use xlink:href="#m7c83f88dca" x="290.590196" y="133.633972" style="fill: #8b0000; stroke: #8b0000"/>
     <use xlink:href="#m7c83f88dca" x="305.748333" y="138.508606" style="fill: #8b0000; stroke: #8b0000"/>
     <use xlink:href="#m7c83f88dca" x="320.906471" y="143.392774" style="fill: #8b0000; stroke: #8b0000"/>
     <use xlink:href="#m7c83f88dca" x="336.064609" y="148.296105" style="fill: #8b0000; stroke: #8b0000"/>
    </g>
   </g>
   <g id="line2d_38">
    <defs>
     <path id="mb3b9a86e3e" d="M 0 3 
C 0.795609 3 1.55874 2.683901 2.12132 2.12132 
C 2.683901 1.55874 3 0.795609 3 0 
C 3 -0.795609 2.683901 -1.55874 2.12132 -2.12132 
C 1.55874 -2.683901 0.795609 -3 0 -3 
C -0.795609 -3 -1.55874 -2.683901 -2.12132 -2.12132 
C -2.683901 -1.55874 -3 -0.795609 -3 0 
C -3 0.795609 -2.683901 1.55874 -2.12132 2.12132 
C -1.55874 2.683901 -0.795609 3 0 3 
z
" style="stroke: #006400"/>
    </defs>
    <g clip-path="url(#p511be09bbe)">
     <use xlink:href="#mb3b9a86e3e" x="73.356781" y="65.287004" style="fill: #006400; stroke: #006400"/>
     <use xlink:href="#mb3b9a86e3e" x="88.514918" y="70.159768" style="fill: #006400; stroke: #006400"/>
     <use xlink:href="#mb3b9a86e3e" x="103.673056" y="75.034425" style="fill: #006400; stroke: #006400"/>
     <use xlink:href="#mb3b9a86e3e" x="118.831194" y="79.91884" style="fill: #006400; stroke: #006400"/>
     <use xlink:href="#mb3b9a86e3e" x="133.989331" y="84.8057" style="fill: #006400; stroke: #006400"/>
     <use xlink:href="#mb3b9a86e3e" x="149.147469" y="89.693116" style="fill: #006400; stroke: #006400"/>
     <use xlink:href="#mb3b9a86e3e" x="164.305607" y="94.580446" style="fill: #006400; stroke: #006400"/>
     <use xlink:href="#mb3b9a86e3e" x="179.463744" y="99.465203" style="fill: #006400; stroke: #006400"/>
     <use xlink:href="#mb3b9a86e3e" x="194.621882" y="104.350565" style="fill: #006400; stroke: #006400"/>
     <use xlink:href="#mb3b9a86e3e" x="209.780019" y="109.232228" style="fill: #006400; stroke: #006400"/>
     <use xlink:href="#mb3b9a86e3e" x="224.938157" y="114.112304" style="fill: #006400; stroke: #006400"/>
     <use xlink:href="#mb3b9a86e3e" x="240.096295" y="118.993895" style="fill: #006400; stroke: #006400"/>
     <use xlink:href="#mb3b9a86e3e" x="255.254432" y="123.876994" style="fill: #006400; stroke: #006400"/>
     <use xlink:href="#mb3b9a86e3e" x="270.41257" y="128.761044" style="fill: #006400; stroke: #006400"/>
     <use xlink:href="#mb3b9a86e3e" x="285.570708" y="133.645612" style="fill: #006400; stroke: #006400"/>
     <use xlink:href="#mb3b9a86e3e" x="300.728845" y="138.531398" style="fill: #006400; stroke: #006400"/>
     <use xlink:href="#mb3b9a86e3e" x="315.886983" y="143.417469" style="fill: #006400; stroke: #006400"/>
     <use xlink:href="#mb3b9a86e3e" x="331.04512" y="148.30028" style="fill: #006400; stroke: #006400"/>
    </g>
   </g>
   <g id="patch_3">
    <path d="M 60.221389 170.728 
L 60.221389 10.8 
" style="fill: none; stroke: #000000; stroke-width: 0.8; stroke-linejoin: miter; stroke-linecap: square"/>
   </g>
   <g id="patch_4">
    <path d="M 349.2 170.728 
L 349.2 10.8 
" style="fill: none; stroke: #000000; stroke-width: 0.8; stroke-linejoin: miter; stroke-linecap: square"/>
   </g>
   <g id="patch_5">
    <path d="M 60.221389 170.728 
L 349.2 170.728 
" style="fill: none; stroke: #000000; stroke-width: 0.8; stroke-linejoin: miter; stroke-linecap: square"/>
   </g>
   <g id="patch_6">
    <path d="M 60.221389 10.8 
L 349.2 10.8 
" style="fill: none; stroke: #000000; stroke-width: 0.8; stroke-linejoin: miter; stroke-linecap: square"/>
   </g>
   <g id="legend_1">
    <g id="patch_7">
     <path d="M 248.3 62.834375 
L 342.2 62.834375 
Q 344.2 62.834375 344.2 60.834375 
L 344.2 17.8 
Q 344.2 15.8 342.2 15.8 
L 248.3 15.8 
Q 246.3 15.8 246.3 17.8 
L 246.3 60.834375 
Q 246.3 62.834375 248.3 62.834375 
z
" style="fill: #ffffff; opacity: 0.8; stroke: #cccccc; stroke-linejoin: miter"/>
    </g>
    <g id="patch_8">
     <path d="M 250.3 27.398438 
L 270.3 27.398438 
L 270.3 20.398438 
L 250.3 20.398438 
z
" style="fill: #008000; fill-opacity: 0.5"/>
    </g>
    <g id="text_6">
     <!-- $1\sigma$ Nuisance -->
     <g transform="translate(278.3 27.398438) scale(0.1 -0.1)">
      <defs>
       <path id="DejaVuSans-Oblique-3c3" d="M 2219 3044 
Q 1744 3044 1422 2700 
Q 1081 2341 969 1747 
Q 844 1119 1044 756 
Q 1241 397 1706 397 
Q 2166 397 2503 759 
Q 2844 1122 2966 1747 
Q 3075 2319 2881 2700 
Q 2700 3044 2219 3044 
z
M 2309 3503 
L 4219 3500 
L 4106 2925 
L 3463 2925 
Q 3706 2438 3575 1747 
Q 3406 888 2884 400 
Q 2359 -91 1609 -91 
Q 856 -91 525 400 
Q 194 888 363 1747 
Q 528 2609 1050 3097 
Q 1484 3503 2309 3503 
z
" transform="scale(0.015625)"/>
       <path id="DejaVuSans-4e" d="M 628 4666 
L 1478 4666 
L 3547 763 
L 3547 4666 
L 4159 4666 
L 4159 0 
L 3309 0 
L 1241 3903 
L 1241 0 
L 628 0 
L 628 4666 
z
" transform="scale(0.015625)"/>
       <path id="DejaVuSans-75" d="M 544 1381 
L 544 3500 
L 1119 3500 
L 1119 1403 
Q 1119 906 1312 657 
Q 1506 409 1894 409 
Q 2359 409 2629 706 
Q 2900 1003 2900 1516 
L 2900 3500 
L 3475 3500 
L 3475 0 
L 2900 0 
L 2900 538 
Q 2691 219 2414 64 
Q 2138 -91 1772 -91 
Q 1169 -91 856 284 
Q 544 659 544 1381 
z
M 1991 3584 
L 1991 3584 
z
" transform="scale(0.015625)"/>
       <path id="DejaVuSans-69" d="M 603 3500 
L 1178 3500 
L 1178 0 
L 603 0 
L 603 3500 
z
M 603 4863 
L 1178 4863 
L 1178 4134 
L 603 4134 
L 603 4863 
z
" transform="scale(0.015625)"/>
       <path id="DejaVuSans-61" d="M 2194 1759 
Q 1497 1759 1228 1600 
Q 959 1441 959 1056 
Q 959 750 1161 570 
Q 1363 391 1709 391 
Q 2188 391 2477 730 
Q 2766 1069 2766 1631 
L 2766 1759 
L 2194 1759 
z
M 3341 1997 
L 3341 0 
L 2766 0 
L 2766 531 
Q 2569 213 2275 61 
Q 1981 -91 1556 -91 
Q 1019 -91 701 211 
Q 384 513 384 1019 
Q 384 1609 779 1909 
Q 1175 2209 1959 2209 
L 2766 2209 
L 2766 2266 
Q 2766 2663 2505 2880 
Q 2244 3097 1772 3097 
Q 1472 3097 1187 3025 
Q 903 2953 641 2809 
L 641 3341 
Q 956 3463 1253 3523 
Q 1550 3584 1831 3584 
Q 2591 3584 2966 3190 
Q 3341 2797 3341 1997 
z
" transform="scale(0.015625)"/>
      </defs>
      <use xlink:href="#DejaVuSans-31" transform="translate(0 0.015625)"/>
      <use xlink:href="#DejaVuSans-Oblique-3c3" transform="translate(63.623047 0.015625)"/>
      <use xlink:href="#DejaVuSans-20" transform="translate(127.001953 0.015625)"/>
      <use xlink:href="#DejaVuSans-4e" transform="translate(158.789062 0.015625)"/>
      <use xlink:href="#DejaVuSans-75" transform="translate(233.59375 0.015625)"/>
      <use xlink:href="#DejaVuSans-69" transform="translate(296.972656 0.015625)"/>
      <use xlink:href="#DejaVuSans-73" transform="translate(324.755859 0.015625)"/>
      <use xlink:href="#DejaVuSans-61" transform="translate(376.855469 0.015625)"/>
      <use xlink:href="#DejaVuSans-6e" transform="translate(438.134766 0.015625)"/>
      <use xlink:href="#DejaVuSans-63" transform="translate(501.513672 0.015625)"/>
      <use xlink:href="#DejaVuSans-65" transform="translate(556.494141 0.015625)"/>
     </g>
    </g>
    <g id="patch_9">
     <path d="M 250.3 42.076563 
L 270.3 42.076563 
L 270.3 35.076563 
L 250.3 35.076563 
z
" style="fill: #ff0000; fill-opacity: 0.6"/>
    </g>
    <g id="text_7">
     <!-- $1\sigma$ Standard -->
     <g transform="translate(278.3 42.076563) scale(0.1 -0.1)">
      <defs>
       <path id="DejaVuSans-53" d="M 3425 4513 
L 3425 3897 
Q 3066 4069 2747 4153 
Q 2428 4238 2131 4238 
Q 1616 4238 1336 4038 
Q 1056 3838 1056 3469 
Q 1056 3159 1242 3001 
Q 1428 2844 1947 2747 
L 2328 2669 
Q 3034 2534 3370 2195 
Q 3706 1856 3706 1288 
Q 3706 609 3251 259 
Q 2797 -91 1919 -91 
Q 1588 -91 1214 -16 
Q 841 59 441 206 
L 441 856 
Q 825 641 1194 531 
Q 1563 422 1919 422 
Q 2459 422 2753 634 
Q 3047 847 3047 1241 
Q 3047 1584 2836 1778 
Q 2625 1972 2144 2069 
L 1759 2144 
Q 1053 2284 737 2584 
Q 422 2884 422 3419 
Q 422 4038 858 4394 
Q 1294 4750 2059 4750 
Q 2388 4750 2728 4690 
Q 3069 4631 3425 4513 
z
" transform="scale(0.015625)"/>
       <path id="DejaVuSans-74" d="M 1172 4494 
L 1172 3500 
L 2356 3500 
L 2356 3053 
L 1172 3053 
L 1172 1153 
Q 1172 725 1289 603 
Q 1406 481 1766 481 
L 2356 481 
L 2356 0 
L 1766 0 
Q 1100 0 847 248 
Q 594 497 594 1153 
L 594 3053 
L 172 3053 
L 172 3500 
L 594 3500 
L 594 4494 
L 1172 4494 
z
" transform="scale(0.015625)"/>
      </defs>
      <use xlink:href="#DejaVuSans-31" transform="translate(0 0.015625)"/>
      <use xlink:href="#DejaVuSans-Oblique-3c3" transform="translate(63.623047 0.015625)"/>
      <use xlink:href="#DejaVuSans-20" transform="translate(127.001953 0.015625)"/>
      <use xlink:href="#DejaVuSans-53" transform="translate(158.789062 0.015625)"/>
      <use xlink:href="#DejaVuSans-74" transform="translate(222.265625 0.015625)"/>
      <use xlink:href="#DejaVuSans-61" transform="translate(261.474609 0.015625)"/>
      <use xlink:href="#DejaVuSans-6e" transform="translate(322.753906 0.015625)"/>
      <use xlink:href="#DejaVuSans-64" transform="translate(386.132812 0.015625)"/>
      <use xlink:href="#DejaVuSans-61" transform="translate(449.609375 0.015625)"/>
      <use xlink:href="#DejaVuSans-72" transform="translate(510.888672 0.015625)"/>
      <use xlink:href="#DejaVuSans-64" transform="translate(552.001953 0.015625)"/>
     </g>
    </g>
    <g id="line2d_39">
     <path d="M 250.3 53.254688 
L 260.3 53.254688 
L 270.3 53.254688 
" style="fill: none; stroke-dasharray: 1.5,2.475; stroke-dashoffset: 0; stroke: #000000; stroke-width: 1.5"/>
    </g>
    <g id="text_8">
     <!-- Input -->
     <g transform="translate(278.3 56.754688) scale(0.1 -0.1)">
      <defs>
       <path id="DejaVuSans-49" d="M 628 4666 
L 1259 4666 
L 1259 0 
L 628 0 
L 628 4666 
z
" transform="scale(0.015625)"/>
       <path id="DejaVuSans-70" d="M 1159 525 
L 1159 -1331 
L 581 -1331 
L 581 3500 
L 1159 3500 
L 1159 2969 
Q 1341 3281 1617 3432 
Q 1894 3584 2278 3584 
Q 2916 3584 3314 3078 
Q 3713 2572 3713 1747 
Q 3713 922 3314 415 
Q 2916 -91 2278 -91 
Q 1894 -91 1617 61 
Q 1341 213 1159 525 
z
M 3116 1747 
Q 3116 2381 2855 2742 
Q 2594 3103 2138 3103 
Q 1681 3103 1420 2742 
Q 1159 2381 1159 1747 
Q 1159 1113 1420 752 
Q 1681 391 2138 391 
Q 2594 391 2855 752 
Q 3116 1113 3116 1747 
z
" transform="scale(0.015625)"/>
      </defs>
      <use xlink:href="#DejaVuSans-49"/>
      <use xlink:href="#DejaVuSans-6e" x="29.492188"/>
      <use xlink:href="#DejaVuSans-70" x="92.871094"/>
      <use xlink:href="#DejaVuSans-75" x="156.347656"/>
      <use xlink:href="#DejaVuSans-74" x="219.726562"/>
     </g>
    </g>
   </g>
  </g>
 </g>
 <defs>
  <clipPath id="p511be09bbe">
   <rect x="60.221389" y="10.8" width="288.978611" height="159.928"/>
  </clipPath>
 </defs>
</svg>
