<?xml version="1.0" encoding="utf-8" standalone="no"?>
<!DOCTYPE svg PUBLIC "-//W3C//DTD SVG 1.1//EN"
  "http://www.w3.org/Graphics/SVG/1.1/DTD/svg11.dtd">
<svg xmlns:xlink="http://www.w3.org/1999/xlink" width="360pt" height="216pt" viewBox="0 0 360 216" xmlns="http://www.w3.org/2000/svg" version="1.1">
 <metadata>
  <rdf:RDF xmlns:dc="http://purl.org/dc/elements/1.1/" xmlns:cc="http://creativecommons.org/ns#" xmlns:rdf="http://www.w3.org/1999/02/22-rdf-syntax-ns#">
   <cc:Work>
    <dc:type rdf:resource="http://purl.org/dc/dcmitype/StillImage"/>
    <dc:date>2023-02-01T13:04:17.573761</dc:date>
    <dc:format>image/svg+xml</dc:format>
    <dc:creator>
     <cc:Agent>
      <dc:title>Matplotlib v3.6.2, https://matplotlib.org/</dc:title>
     </cc:Agent>
    </dc:creator>
   </cc:Work>
  </rdf:RDF>
 </metadata>
 <defs>
  <style type="text/css">*{stroke-linejoin: round; stroke-linecap: butt}</style>
 </defs>
 <g id="figure_1">
  <g id="patch_1">
   <path d="M 0 216 
L 360 216 
L 360 0 
L 0 0 
z
" style="fill: #ffffff"/>
  </g>
  <g id="axes_1">
   <g id="patch_2">
    <path d="M 60.221389 170.728 
L 349.2 170.728 
L 349.2 10.8 
L 60.221389 10.8 
z
" style="fill: #ffffff"/>
   </g>
   <g id="PolyCollection_1">
    <path d="M 74.645222 50.797032 
L 74.645222 70.487572 
L 77.222106 71.249518 
L 79.798989 72.013982 
L 82.375873 72.781023 
L 84.952756 73.550705 
L 87.529639 74.32309 
L 90.106523 75.098244 
L 92.683406 75.876237 
L 95.26029 76.657136 
L 97.837173 77.441014 
L 100.414056 78.227943 
L 102.99094 79.017997 
L 105.567823 79.811252 
L 108.144707 80.607784 
L 110.72159 81.407672 
L 113.298473 82.210992 
L 115.875357 83.017824 
L 118.45224 83.828246 
L 121.029124 84.642338 
L 123.606007 85.460179 
L 126.18289 86.281845 
L 128.759774 87.107413 
L 131.336657 87.936959 
L 133.913541 88.770557 
L 136.490424 89.608276 
L 139.067307 90.450186 
L 141.644191 91.296353 
L 144.221074 92.146837 
L 146.797958 93.001698 
L 149.374841 93.860988 
L 151.951724 94.724757 
L 154.528608 95.593049 
L 157.105491 96.465902 
L 159.682375 97.34335 
L 162.259258 98.225419 
L 164.836141 99.11213 
L 167.413025 100.003497 
L 169.989908 100.899529 
L 172.566792 101.800227 
L 175.143675 102.705585 
L 177.720558 103.615593 
L 180.297442 104.530232 
L 182.874325 105.449478 
L 185.451209 106.373301 
L 188.028092 107.301665 
L 190.604975 108.234527 
L 193.181859 109.171842 
L 195.758742 110.113557 
L 198.335626 111.059617 
L 200.912509 112.009961 
L 203.489392 112.964524 
L 206.066276 113.923241 
L 208.643159 114.886041 
L 211.220042 115.852852 
L 213.796926 116.823598 
L 216.373809 117.798205 
L 218.950693 118.776594 
L 221.527576 119.758688 
L 224.104459 120.744408 
L 226.681343 121.733674 
L 229.258226 122.726408 
L 231.83511 123.722532 
L 234.411993 124.721968 
L 236.988876 125.724638 
L 239.56576 126.730467 
L 242.142643 127.739379 
L 244.719527 128.751302 
L 247.29641 129.766164 
L 249.873293 130.783893 
L 252.450177 131.804423 
L 255.02706 132.827685 
L 257.603944 133.853615 
L 260.180827 134.88215 
L 262.75771 135.913229 
L 265.334594 136.946792 
L 267.911477 137.982784 
L 270.488361 139.021147 
L 273.065244 140.061829 
L 275.642127 141.104779 
L 278.219011 142.149948 
L 280.795894 143.197287 
L 283.372778 144.246751 
L 285.949661 145.298297 
L 288.526544 146.351882 
L 291.103428 147.407466 
L 293.680311 148.465011 
L 296.257195 149.524479 
L 298.834078 150.585836 
L 301.410961 151.649047 
L 303.987845 152.71408 
L 306.564728 153.780905 
L 309.141612 154.849492 
L 311.718495 155.919813 
L 314.295378 156.991842 
L 316.872262 158.065554 
L 319.449145 159.140924 
L 322.026029 160.217929 
L 324.602912 161.296548 
L 327.179795 162.37676 
L 329.756679 163.458545 
L 329.756679 136.836195 
L 329.756679 136.836195 
L 327.179795 136.055165 
L 324.602912 135.273753 
L 322.026029 134.491936 
L 319.449145 133.709689 
L 316.872262 132.926988 
L 314.295378 132.143804 
L 311.718495 131.36011 
L 309.141612 130.575877 
L 306.564728 129.791075 
L 303.987845 129.005673 
L 301.410961 128.219636 
L 298.834078 127.432932 
L 296.257195 126.645525 
L 293.680311 125.857378 
L 291.103428 125.068452 
L 288.526544 124.278707 
L 285.949661 123.488102 
L 283.372778 122.696593 
L 280.795894 121.904136 
L 278.219011 121.110683 
L 275.642127 120.316187 
L 273.065244 119.520598 
L 270.488361 118.723862 
L 267.911477 117.925927 
L 265.334594 117.126737 
L 262.75771 116.326234 
L 260.180827 115.524359 
L 257.603944 114.72105 
L 255.02706 113.916244 
L 252.450177 113.109876 
L 249.873293 112.301879 
L 247.29641 111.492183 
L 244.719527 110.68072 
L 242.142643 109.867416 
L 239.56576 109.052197 
L 236.988876 108.23499 
L 234.411993 107.415716 
L 231.83511 106.594299 
L 229.258226 105.77066 
L 226.681343 104.94472 
L 224.104459 104.116399 
L 221.527576 103.285617 
L 218.950693 102.452292 
L 216.373809 101.616347 
L 213.796926 100.7777 
L 211.220042 99.936275 
L 208.643159 99.091993 
L 206.066276 98.244779 
L 203.489392 97.39456 
L 200.912509 96.541265 
L 198.335626 95.684826 
L 195.758742 94.825179 
L 193.181859 93.962262 
L 190.604975 93.096019 
L 188.028092 92.226398 
L 185.451209 91.353351 
L 182.874325 90.476836 
L 180.297442 89.596817 
L 177.720558 88.713263 
L 175.143675 87.82615 
L 172.566792 86.93546 
L 169.989908 86.04118 
L 167.413025 85.143307 
L 164.836141 84.24184 
L 162.259258 83.336789 
L 159.682375 82.428168 
L 157.105491 81.515998 
L 154.528608 80.600306 
L 151.951724 79.681125 
L 149.374841 78.758495 
L 146.797958 77.832459 
L 144.221074 76.903068 
L 141.644191 75.970375 
L 139.067307 75.034439 
L 136.490424 74.095323 
L 133.913541 73.153093 
L 131.336657 72.207818 
L 128.759774 71.25957 
L 126.18289 70.308424 
L 123.606007 69.354456 
L 121.029124 68.397743 
L 118.45224 67.438364 
L 115.875357 66.4764 
L 113.298473 65.511929 
L 110.72159 64.545033 
L 108.144707 63.575792 
L 105.567823 62.604284 
L 102.99094 61.63059 
L 100.414056 60.654786 
L 97.837173 59.676952 
L 95.26029 58.697161 
L 92.683406 57.715489 
L 90.106523 56.732009 
L 87.529639 55.746792 
L 84.952756 54.759908 
L 82.375873 53.771424 
L 79.798989 52.781408 
L 77.222106 51.789923 
L 74.645222 50.797032 
z
" clip-path="url(#p639f6202da)" style="fill: #008000; fill-opacity: 0.5"/>
   </g>
   <g id="PolyCollection_2">
    <path d="M 74.645222 53.794619 
L 74.645222 66.257063 
L 77.222106 67.018655 
L 79.798989 67.782019 
L 82.375873 68.547232 
L 84.952756 69.314379 
L 87.529639 70.08355 
L 90.106523 70.854843 
L 92.683406 71.628362 
L 95.26029 72.40422 
L 97.837173 73.182538 
L 100.414056 73.963444 
L 102.99094 74.747078 
L 105.567823 75.533586 
L 108.144707 76.323127 
L 110.72159 77.115868 
L 113.298473 77.911986 
L 115.875357 78.71167 
L 118.45224 79.515118 
L 121.029124 80.322536 
L 123.606007 81.134141 
L 126.18289 81.950156 
L 128.759774 82.770811 
L 131.336657 83.596342 
L 133.913541 84.426986 
L 136.490424 85.262979 
L 139.067307 86.104556 
L 141.644191 86.951944 
L 144.221074 87.80536 
L 146.797958 88.665006 
L 149.374841 89.531065 
L 151.951724 90.403701 
L 154.528608 91.283046 
L 157.105491 92.169208 
L 159.682375 93.062258 
L 162.259258 93.962236 
L 164.836141 94.869145 
L 167.413025 95.782952 
L 169.989908 96.703592 
L 172.566792 97.630964 
L 175.143675 98.564939 
L 177.720558 99.505361 
L 180.297442 100.452048 
L 182.874325 101.404802 
L 185.451209 102.363409 
L 188.028092 103.327643 
L 190.604975 104.29727 
L 193.181859 105.272055 
L 195.758742 106.25176 
L 198.335626 107.236149 
L 200.912509 108.224991 
L 203.489392 109.218061 
L 206.066276 110.215142 
L 208.643159 111.216024 
L 211.220042 112.220508 
L 213.796926 113.228404 
L 216.373809 114.239533 
L 218.950693 115.253724 
L 221.527576 116.27082 
L 224.104459 117.290669 
L 226.681343 118.313133 
L 229.258226 119.338079 
L 231.83511 120.365386 
L 234.411993 121.39494 
L 236.988876 122.426635 
L 239.56576 123.460371 
L 242.142643 124.496058 
L 244.719527 125.53361 
L 247.29641 126.572947 
L 249.873293 127.613997 
L 252.450177 128.65669 
L 255.02706 129.700962 
L 257.603944 130.746756 
L 260.180827 131.794017 
L 262.75771 132.842692 
L 265.334594 133.892736 
L 267.911477 134.944104 
L 270.488361 135.996756 
L 273.065244 137.050653 
L 275.642127 138.10576 
L 278.219011 139.162045 
L 280.795894 140.219478 
L 283.372778 141.278029 
L 285.949661 142.337673 
L 288.526544 143.398385 
L 291.103428 144.460143 
L 293.680311 145.522926 
L 296.257195 146.586713 
L 298.834078 147.651487 
L 301.410961 148.717231 
L 303.987845 149.78393 
L 306.564728 150.851568 
L 309.141612 151.920132 
L 311.718495 152.989609 
L 314.295378 154.059989 
L 316.872262 155.131261 
L 319.449145 156.203414 
L 322.026029 157.276439 
L 324.602912 158.350328 
L 327.179795 159.425074 
L 329.756679 160.500669 
L 329.756679 139.179403 
L 329.756679 139.179403 
L 327.179795 138.399408 
L 324.602912 137.619452 
L 322.026029 136.839525 
L 319.449145 136.059617 
L 316.872262 135.279716 
L 314.295378 134.499813 
L 311.718495 133.719893 
L 309.141612 132.939945 
L 306.564728 132.159955 
L 303.987845 131.379908 
L 301.410961 130.599789 
L 298.834078 129.81958 
L 296.257195 129.039265 
L 293.680311 128.258824 
L 291.103428 127.478238 
L 288.526544 126.697484 
L 285.949661 125.91654 
L 283.372778 125.135382 
L 280.795894 124.353983 
L 278.219011 123.572315 
L 275.642127 122.790349 
L 273.065244 122.008052 
L 270.488361 121.22539 
L 267.911477 120.442326 
L 265.334594 119.658821 
L 262.75771 118.874833 
L 260.180827 118.090315 
L 257.603944 117.305221 
L 255.02706 116.519497 
L 252.450177 115.733087 
L 249.873293 114.945931 
L 247.29641 114.157964 
L 244.719527 113.369117 
L 242.142643 112.579314 
L 239.56576 111.788476 
L 236.988876 110.996516 
L 234.411993 110.203341 
L 231.83511 109.408851 
L 229.258226 108.61294 
L 226.681343 107.815492 
L 224.104459 107.016384 
L 221.527576 106.215484 
L 218.950693 105.412652 
L 216.373809 104.607737 
L 213.796926 103.800579 
L 211.220042 102.991008 
L 208.643159 102.178843 
L 206.066276 101.363893 
L 203.489392 100.54596 
L 200.912509 99.724833 
L 198.335626 98.900293 
L 195.758742 98.072116 
L 193.181859 97.24007 
L 190.604975 96.403919 
L 188.028092 95.563425 
L 185.451209 94.71835 
L 182.874325 93.868462 
L 180.297442 93.013535 
L 177.720558 92.153354 
L 175.143675 91.287719 
L 172.566792 90.41645 
L 169.989908 89.539391 
L 167.413025 88.656412 
L 164.836141 87.767412 
L 162.259258 86.872326 
L 159.682375 85.97112 
L 157.105491 85.063799 
L 154.528608 84.150401 
L 151.951724 83.231 
L 149.374841 82.3057 
L 146.797958 81.374637 
L 144.221074 80.437972 
L 141.644191 79.49589 
L 139.067307 78.548593 
L 136.490424 77.596299 
L 133.913541 76.639234 
L 131.336657 75.677634 
L 128.759774 74.711735 
L 126.18289 73.741776 
L 123.606007 72.767991 
L 121.029124 71.790611 
L 118.45224 70.809861 
L 115.875357 69.825958 
L 113.298473 68.839108 
L 110.72159 67.84951 
L 108.144707 66.857354 
L 105.567823 65.862817 
L 102.99094 64.866067 
L 100.414056 63.867263 
L 97.837173 62.866554 
L 95.26029 61.864079 
L 92.683406 60.859968 
L 90.106523 59.854342 
L 87.529639 58.847315 
L 84.952756 57.838993 
L 82.375873 56.829474 
L 79.798989 55.818849 
L 77.222106 54.807204 
L 74.645222 53.794619 
z
" clip-path="url(#p639f6202da)" style="fill: #ff0000; fill-opacity: 0.6"/>
   </g>
   <g id="matplotlib.axis_1">
    <g id="xtick_1">
     <g id="line2d_1">
      <defs>
       <path id="mc11f6db2e0" d="M 0 0 
L 0 3.5 
" style="stroke: #000000; stroke-width: 0.8"/>
      </defs>
      <g>
       <use xlink:href="#mc11f6db2e0" x="111.252125" y="170.728" style="stroke: #000000; stroke-width: 0.8"/>
      </g>
     </g>
     <g id="text_1">
      <!-- $\mathdefault{10^{0}}$ -->
      <g transform="translate(102.452125 185.326437) scale(0.1 -0.1)">
       <defs>
        <path id="DejaVuSans-31" d="M 794 531 
L 1825 531 
L 1825 4091 
L 703 3866 
L 703 4441 
L 1819 4666 
L 2450 4666 
L 2450 531 
L 3481 531 
L 3481 0 
L 794 0 
L 794 531 
z
" transform="scale(0.015625)"/>
        <path id="DejaVuSans-30" d="M 2034 4250 
Q 1547 4250 1301 3770 
Q 1056 3291 1056 2328 
Q 1056 1369 1301 889 
Q 1547 409 2034 409 
Q 2525 409 2770 889 
Q 3016 1369 3016 2328 
Q 3016 3291 2770 3770 
Q 2525 4250 2034 4250 
z
M 2034 4750 
Q 2819 4750 3233 4129 
Q 3647 3509 3647 2328 
Q 3647 1150 3233 529 
Q 2819 -91 2034 -91 
Q 1250 -91 836 529 
Q 422 1150 422 2328 
Q 422 3509 836 4129 
Q 1250 4750 2034 4750 
z
" transform="scale(0.015625)"/>
       </defs>
       <use xlink:href="#DejaVuSans-31" transform="translate(0 0.765625)"/>
       <use xlink:href="#DejaVuSans-30" transform="translate(63.623047 0.765625)"/>
       <use xlink:href="#DejaVuSans-30" transform="translate(128.203125 39.046875) scale(0.7)"/>
      </g>
     </g>
    </g>
    <g id="xtick_2">
     <g id="line2d_2">
      <g>
       <use xlink:href="#mc11f6db2e0" x="232.517226" y="170.728" style="stroke: #000000; stroke-width: 0.8"/>
      </g>
     </g>
     <g id="text_2">
      <!-- $\mathdefault{10^{1}}$ -->
      <g transform="translate(223.717226 185.326437) scale(0.1 -0.1)">
       <use xlink:href="#DejaVuSans-31" transform="translate(0 0.684375)"/>
       <use xlink:href="#DejaVuSans-30" transform="translate(63.623047 0.684375)"/>
       <use xlink:href="#DejaVuSans-31" transform="translate(128.203125 38.965625) scale(0.7)"/>
      </g>
     </g>
    </g>
    <g id="xtick_3">
     <g id="line2d_3">
      <defs>
       <path id="m73e923c2da" d="M 0 0 
L 0 2 
" style="stroke: #000000; stroke-width: 0.6"/>
      </defs>
      <g>
       <use xlink:href="#m73e923c2da" x="62.995889" y="170.728" style="stroke: #000000; stroke-width: 0.6"/>
      </g>
     </g>
    </g>
    <g id="xtick_4">
     <g id="line2d_4">
      <g>
       <use xlink:href="#m73e923c2da" x="74.747692" y="170.728" style="stroke: #000000; stroke-width: 0.6"/>
      </g>
     </g>
    </g>
    <g id="xtick_5">
     <g id="line2d_5">
      <g>
       <use xlink:href="#m73e923c2da" x="84.349614" y="170.728" style="stroke: #000000; stroke-width: 0.6"/>
      </g>
     </g>
    </g>
    <g id="xtick_6">
     <g id="line2d_6">
      <g>
       <use xlink:href="#m73e923c2da" x="92.467923" y="170.728" style="stroke: #000000; stroke-width: 0.6"/>
      </g>
     </g>
    </g>
    <g id="xtick_7">
     <g id="line2d_7">
      <g>
       <use xlink:href="#m73e923c2da" x="99.500322" y="170.728" style="stroke: #000000; stroke-width: 0.6"/>
      </g>
     </g>
    </g>
    <g id="xtick_8">
     <g id="line2d_8">
      <g>
       <use xlink:href="#m73e923c2da" x="105.703338" y="170.728" style="stroke: #000000; stroke-width: 0.6"/>
      </g>
     </g>
    </g>
    <g id="xtick_9">
     <g id="line2d_9">
      <g>
       <use xlink:href="#m73e923c2da" x="147.756558" y="170.728" style="stroke: #000000; stroke-width: 0.6"/>
      </g>
     </g>
    </g>
    <g id="xtick_10">
     <g id="line2d_10">
      <g>
       <use xlink:href="#m73e923c2da" x="169.110282" y="170.728" style="stroke: #000000; stroke-width: 0.6"/>
      </g>
     </g>
    </g>
    <g id="xtick_11">
     <g id="line2d_11">
      <g>
       <use xlink:href="#m73e923c2da" x="184.260991" y="170.728" style="stroke: #000000; stroke-width: 0.6"/>
      </g>
     </g>
    </g>
    <g id="xtick_12">
     <g id="line2d_12">
      <g>
       <use xlink:href="#m73e923c2da" x="196.012793" y="170.728" style="stroke: #000000; stroke-width: 0.6"/>
      </g>
     </g>
    </g>
    <g id="xtick_13">
     <g id="line2d_13">
      <g>
       <use xlink:href="#m73e923c2da" x="205.614715" y="170.728" style="stroke: #000000; stroke-width: 0.6"/>
      </g>
     </g>
    </g>
    <g id="xtick_14">
     <g id="line2d_14">
      <g>
       <use xlink:href="#m73e923c2da" x="213.733024" y="170.728" style="stroke: #000000; stroke-width: 0.6"/>
      </g>
     </g>
    </g>
    <g id="xtick_15">
     <g id="line2d_15">
      <g>
       <use xlink:href="#m73e923c2da" x="220.765423" y="170.728" style="stroke: #000000; stroke-width: 0.6"/>
      </g>
     </g>
    </g>
    <g id="xtick_16">
     <g id="line2d_16">
      <g>
       <use xlink:href="#m73e923c2da" x="226.968439" y="170.728" style="stroke: #000000; stroke-width: 0.6"/>
      </g>
     </g>
    </g>
    <g id="xtick_17">
     <g id="line2d_17">
      <g>
       <use xlink:href="#m73e923c2da" x="269.021659" y="170.728" style="stroke: #000000; stroke-width: 0.6"/>
      </g>
     </g>
    </g>
    <g id="xtick_18">
     <g id="line2d_18">
      <g>
       <use xlink:href="#m73e923c2da" x="290.375383" y="170.728" style="stroke: #000000; stroke-width: 0.6"/>
      </g>
     </g>
    </g>
    <g id="xtick_19">
     <g id="line2d_19">
      <g>
       <use xlink:href="#m73e923c2da" x="305.526092" y="170.728" style="stroke: #000000; stroke-width: 0.6"/>
      </g>
     </g>
    </g>
    <g id="xtick_20">
     <g id="line2d_20">
      <g>
       <use xlink:href="#m73e923c2da" x="317.277894" y="170.728" style="stroke: #000000; stroke-width: 0.6"/>
      </g>
     </g>
    </g>
    <g id="xtick_21">
     <g id="line2d_21">
      <g>
       <use xlink:href="#m73e923c2da" x="326.879816" y="170.728" style="stroke: #000000; stroke-width: 0.6"/>
      </g>
     </g>
    </g>
    <g id="xtick_22">
     <g id="line2d_22">
      <g>
       <use xlink:href="#m73e923c2da" x="334.998125" y="170.728" style="stroke: #000000; stroke-width: 0.6"/>
      </g>
     </g>
    </g>
    <g id="xtick_23">
     <g id="line2d_23">
      <g>
       <use xlink:href="#m73e923c2da" x="342.030524" y="170.728" style="stroke: #000000; stroke-width: 0.6"/>
      </g>
     </g>
    </g>
    <g id="xtick_24">
     <g id="line2d_24">
      <g>
       <use xlink:href="#m73e923c2da" x="348.23354" y="170.728" style="stroke: #000000; stroke-width: 0.6"/>
      </g>
     </g>
    </g>
    <g id="text_3">
     <!-- Energy [TeV] -->
     <g transform="translate(173.013038 199.004562) scale(0.1 -0.1)">
      <defs>
       <path id="DejaVuSans-45" d="M 628 4666 
L 3578 4666 
L 3578 4134 
L 1259 4134 
L 1259 2753 
L 3481 2753 
L 3481 2222 
L 1259 2222 
L 1259 531 
L 3634 531 
L 3634 0 
L 628 0 
L 628 4666 
z
" transform="scale(0.015625)"/>
       <path id="DejaVuSans-6e" d="M 3513 2113 
L 3513 0 
L 2938 0 
L 2938 2094 
Q 2938 2591 2744 2837 
Q 2550 3084 2163 3084 
Q 1697 3084 1428 2787 
Q 1159 2491 1159 1978 
L 1159 0 
L 581 0 
L 581 3500 
L 1159 3500 
L 1159 2956 
Q 1366 3272 1645 3428 
Q 1925 3584 2291 3584 
Q 2894 3584 3203 3211 
Q 3513 2838 3513 2113 
z
" transform="scale(0.015625)"/>
       <path id="DejaVuSans-65" d="M 3597 1894 
L 3597 1613 
L 953 1613 
Q 991 1019 1311 708 
Q 1631 397 2203 397 
Q 2534 397 2845 478 
Q 3156 559 3463 722 
L 3463 178 
Q 3153 47 2828 -22 
Q 2503 -91 2169 -91 
Q 1331 -91 842 396 
Q 353 884 353 1716 
Q 353 2575 817 3079 
Q 1281 3584 2069 3584 
Q 2775 3584 3186 3129 
Q 3597 2675 3597 1894 
z
M 3022 2063 
Q 3016 2534 2758 2815 
Q 2500 3097 2075 3097 
Q 1594 3097 1305 2825 
Q 1016 2553 972 2059 
L 3022 2063 
z
" transform="scale(0.015625)"/>
       <path id="DejaVuSans-72" d="M 2631 2963 
Q 2534 3019 2420 3045 
Q 2306 3072 2169 3072 
Q 1681 3072 1420 2755 
Q 1159 2438 1159 1844 
L 1159 0 
L 581 0 
L 581 3500 
L 1159 3500 
L 1159 2956 
Q 1341 3275 1631 3429 
Q 1922 3584 2338 3584 
Q 2397 3584 2469 3576 
Q 2541 3569 2628 3553 
L 2631 2963 
z
" transform="scale(0.015625)"/>
       <path id="DejaVuSans-67" d="M 2906 1791 
Q 2906 2416 2648 2759 
Q 2391 3103 1925 3103 
Q 1463 3103 1205 2759 
Q 947 2416 947 1791 
Q 947 1169 1205 825 
Q 1463 481 1925 481 
Q 2391 481 2648 825 
Q 2906 1169 2906 1791 
z
M 3481 434 
Q 3481 -459 3084 -895 
Q 2688 -1331 1869 -1331 
Q 1566 -1331 1297 -1286 
Q 1028 -1241 775 -1147 
L 775 -588 
Q 1028 -725 1275 -790 
Q 1522 -856 1778 -856 
Q 2344 -856 2625 -561 
Q 2906 -266 2906 331 
L 2906 616 
Q 2728 306 2450 153 
Q 2172 0 1784 0 
Q 1141 0 747 490 
Q 353 981 353 1791 
Q 353 2603 747 3093 
Q 1141 3584 1784 3584 
Q 2172 3584 2450 3431 
Q 2728 3278 2906 2969 
L 2906 3500 
L 3481 3500 
L 3481 434 
z
" transform="scale(0.015625)"/>
       <path id="DejaVuSans-79" d="M 2059 -325 
Q 1816 -950 1584 -1140 
Q 1353 -1331 966 -1331 
L 506 -1331 
L 506 -850 
L 844 -850 
Q 1081 -850 1212 -737 
Q 1344 -625 1503 -206 
L 1606 56 
L 191 3500 
L 800 3500 
L 1894 763 
L 2988 3500 
L 3597 3500 
L 2059 -325 
z
" transform="scale(0.015625)"/>
       <path id="DejaVuSans-20" transform="scale(0.015625)"/>
       <path id="DejaVuSans-5b" d="M 550 4863 
L 1875 4863 
L 1875 4416 
L 1125 4416 
L 1125 -397 
L 1875 -397 
L 1875 -844 
L 550 -844 
L 550 4863 
z
" transform="scale(0.015625)"/>
       <path id="DejaVuSans-54" d="M -19 4666 
L 3928 4666 
L 3928 4134 
L 2272 4134 
L 2272 0 
L 1638 0 
L 1638 4134 
L -19 4134 
L -19 4666 
z
" transform="scale(0.015625)"/>
       <path id="DejaVuSans-56" d="M 1831 0 
L 50 4666 
L 709 4666 
L 2188 738 
L 3669 4666 
L 4325 4666 
L 2547 0 
L 1831 0 
z
" transform="scale(0.015625)"/>
       <path id="DejaVuSans-5d" d="M 1947 4863 
L 1947 -844 
L 622 -844 
L 622 -397 
L 1369 -397 
L 1369 4416 
L 622 4416 
L 622 4863 
L 1947 4863 
z
" transform="scale(0.015625)"/>
      </defs>
      <use xlink:href="#DejaVuSans-45"/>
      <use xlink:href="#DejaVuSans-6e" x="63.183594"/>
      <use xlink:href="#DejaVuSans-65" x="126.5625"/>
      <use xlink:href="#DejaVuSans-72" x="188.085938"/>
      <use xlink:href="#DejaVuSans-67" x="227.449219"/>
      <use xlink:href="#DejaVuSans-79" x="290.925781"/>
      <use xlink:href="#DejaVuSans-20" x="350.105469"/>
      <use xlink:href="#DejaVuSans-5b" x="381.892578"/>
      <use xlink:href="#DejaVuSans-54" x="420.90625"/>
      <use xlink:href="#DejaVuSans-65" x="464.990234"/>
      <use xlink:href="#DejaVuSans-56" x="526.513672"/>
      <use xlink:href="#DejaVuSans-5d" x="594.921875"/>
     </g>
    </g>
   </g>
   <g id="matplotlib.axis_2">
    <g id="ytick_1">
     <g id="line2d_25">
      <defs>
       <path id="mb44035d4e9" d="M 0 0 
L -3.5 0 
" style="stroke: #000000; stroke-width: 0.8"/>
      </defs>
      <g>
       <use xlink:href="#mb44035d4e9" x="60.221389" y="69.736894" style="stroke: #000000; stroke-width: 0.8"/>
      </g>
     </g>
     <g id="text_4">
      <!-- $\mathdefault{10^{-12}}$ -->
      <g transform="translate(25.321389 73.536113) scale(0.1 -0.1)">
       <defs>
        <path id="DejaVuSans-2212" d="M 678 2272 
L 4684 2272 
L 4684 1741 
L 678 1741 
L 678 2272 
z
" transform="scale(0.015625)"/>
        <path id="DejaVuSans-32" d="M 1228 531 
L 3431 531 
L 3431 0 
L 469 0 
L 469 531 
Q 828 903 1448 1529 
Q 2069 2156 2228 2338 
Q 2531 2678 2651 2914 
Q 2772 3150 2772 3378 
Q 2772 3750 2511 3984 
Q 2250 4219 1831 4219 
Q 1534 4219 1204 4116 
Q 875 4013 500 3803 
L 500 4441 
Q 881 4594 1212 4672 
Q 1544 4750 1819 4750 
Q 2544 4750 2975 4387 
Q 3406 4025 3406 3419 
Q 3406 3131 3298 2873 
Q 3191 2616 2906 2266 
Q 2828 2175 2409 1742 
Q 1991 1309 1228 531 
z
" transform="scale(0.015625)"/>
       </defs>
       <use xlink:href="#DejaVuSans-31" transform="translate(0 0.765625)"/>
       <use xlink:href="#DejaVuSans-30" transform="translate(63.623047 0.765625)"/>
       <use xlink:href="#DejaVuSans-2212" transform="translate(128.203125 39.046875) scale(0.7)"/>
       <use xlink:href="#DejaVuSans-31" transform="translate(186.855469 39.046875) scale(0.7)"/>
       <use xlink:href="#DejaVuSans-32" transform="translate(231.391602 39.046875) scale(0.7)"/>
      </g>
     </g>
    </g>
    <g id="ytick_2">
     <g id="line2d_26">
      <defs>
       <path id="mc5c5375b1a" d="M 0 0 
L -2 0 
" style="stroke: #000000; stroke-width: 0.6"/>
      </defs>
      <g>
       <use xlink:href="#mc5c5375b1a" x="60.221389" y="161.388644" style="stroke: #000000; stroke-width: 0.6"/>
      </g>
     </g>
    </g>
    <g id="ytick_3">
     <g id="line2d_27">
      <g>
       <use xlink:href="#mc5c5375b1a" x="60.221389" y="138.298852" style="stroke: #000000; stroke-width: 0.6"/>
      </g>
     </g>
    </g>
    <g id="ytick_4">
     <g id="line2d_28">
      <g>
       <use xlink:href="#mc5c5375b1a" x="60.221389" y="121.916384" style="stroke: #000000; stroke-width: 0.6"/>
      </g>
     </g>
    </g>
    <g id="ytick_5">
     <g id="line2d_29">
      <g>
       <use xlink:href="#mc5c5375b1a" x="60.221389" y="109.209154" style="stroke: #000000; stroke-width: 0.6"/>
      </g>
     </g>
    </g>
    <g id="ytick_6">
     <g id="line2d_30">
      <g>
       <use xlink:href="#mc5c5375b1a" x="60.221389" y="98.826592" style="stroke: #000000; stroke-width: 0.6"/>
      </g>
     </g>
    </g>
    <g id="ytick_7">
     <g id="line2d_31">
      <g>
       <use xlink:href="#mc5c5375b1a" x="60.221389" y="90.04826" style="stroke: #000000; stroke-width: 0.6"/>
      </g>
     </g>
    </g>
    <g id="ytick_8">
     <g id="line2d_32">
      <g>
       <use xlink:href="#mc5c5375b1a" x="60.221389" y="82.444124" style="stroke: #000000; stroke-width: 0.6"/>
      </g>
     </g>
    </g>
    <g id="ytick_9">
     <g id="line2d_33">
      <g>
       <use xlink:href="#mc5c5375b1a" x="60.221389" y="75.7368" style="stroke: #000000; stroke-width: 0.6"/>
      </g>
     </g>
    </g>
    <g id="ytick_10">
     <g id="line2d_34">
      <g>
       <use xlink:href="#mc5c5375b1a" x="60.221389" y="30.264634" style="stroke: #000000; stroke-width: 0.6"/>
      </g>
     </g>
    </g>
    <g id="text_5">
     <!-- e2 * dnde [TeV / (cm2 s)] -->
     <g transform="translate(19.241702 153.243688) rotate(-90) scale(0.1 -0.1)">
      <defs>
       <path id="DejaVuSans-2a" d="M 3009 3897 
L 1888 3291 
L 3009 2681 
L 2828 2375 
L 1778 3009 
L 1778 1831 
L 1422 1831 
L 1422 3009 
L 372 2375 
L 191 2681 
L 1313 3291 
L 191 3897 
L 372 4206 
L 1422 3572 
L 1422 4750 
L 1778 4750 
L 1778 3572 
L 2828 4206 
L 3009 3897 
z
" transform="scale(0.015625)"/>
       <path id="DejaVuSans-64" d="M 2906 2969 
L 2906 4863 
L 3481 4863 
L 3481 0 
L 2906 0 
L 2906 525 
Q 2725 213 2448 61 
Q 2172 -91 1784 -91 
Q 1150 -91 751 415 
Q 353 922 353 1747 
Q 353 2572 751 3078 
Q 1150 3584 1784 3584 
Q 2172 3584 2448 3432 
Q 2725 3281 2906 2969 
z
M 947 1747 
Q 947 1113 1208 752 
Q 1469 391 1925 391 
Q 2381 391 2643 752 
Q 2906 1113 2906 1747 
Q 2906 2381 2643 2742 
Q 2381 3103 1925 3103 
Q 1469 3103 1208 2742 
Q 947 2381 947 1747 
z
" transform="scale(0.015625)"/>
       <path id="DejaVuSans-2f" d="M 1625 4666 
L 2156 4666 
L 531 -594 
L 0 -594 
L 1625 4666 
z
" transform="scale(0.015625)"/>
       <path id="DejaVuSans-28" d="M 1984 4856 
Q 1566 4138 1362 3434 
Q 1159 2731 1159 2009 
Q 1159 1288 1364 580 
Q 1569 -128 1984 -844 
L 1484 -844 
Q 1016 -109 783 600 
Q 550 1309 550 2009 
Q 550 2706 781 3412 
Q 1013 4119 1484 4856 
L 1984 4856 
z
" transform="scale(0.015625)"/>
       <path id="DejaVuSans-63" d="M 3122 3366 
L 3122 2828 
Q 2878 2963 2633 3030 
Q 2388 3097 2138 3097 
Q 1578 3097 1268 2742 
Q 959 2388 959 1747 
Q 959 1106 1268 751 
Q 1578 397 2138 397 
Q 2388 397 2633 464 
Q 2878 531 3122 666 
L 3122 134 
Q 2881 22 2623 -34 
Q 2366 -91 2075 -91 
Q 1284 -91 818 406 
Q 353 903 353 1747 
Q 353 2603 823 3093 
Q 1294 3584 2113 3584 
Q 2378 3584 2631 3529 
Q 2884 3475 3122 3366 
z
" transform="scale(0.015625)"/>
       <path id="DejaVuSans-6d" d="M 3328 2828 
Q 3544 3216 3844 3400 
Q 4144 3584 4550 3584 
Q 5097 3584 5394 3201 
Q 5691 2819 5691 2113 
L 5691 0 
L 5113 0 
L 5113 2094 
Q 5113 2597 4934 2840 
Q 4756 3084 4391 3084 
Q 3944 3084 3684 2787 
Q 3425 2491 3425 1978 
L 3425 0 
L 2847 0 
L 2847 2094 
Q 2847 2600 2669 2842 
Q 2491 3084 2119 3084 
Q 1678 3084 1418 2786 
Q 1159 2488 1159 1978 
L 1159 0 
L 581 0 
L 581 3500 
L 1159 3500 
L 1159 2956 
Q 1356 3278 1631 3431 
Q 1906 3584 2284 3584 
Q 2666 3584 2933 3390 
Q 3200 3197 3328 2828 
z
" transform="scale(0.015625)"/>
       <path id="DejaVuSans-73" d="M 2834 3397 
L 2834 2853 
Q 2591 2978 2328 3040 
Q 2066 3103 1784 3103 
Q 1356 3103 1142 2972 
Q 928 2841 928 2578 
Q 928 2378 1081 2264 
Q 1234 2150 1697 2047 
L 1894 2003 
Q 2506 1872 2764 1633 
Q 3022 1394 3022 966 
Q 3022 478 2636 193 
Q 2250 -91 1575 -91 
Q 1294 -91 989 -36 
Q 684 19 347 128 
L 347 722 
Q 666 556 975 473 
Q 1284 391 1588 391 
Q 1994 391 2212 530 
Q 2431 669 2431 922 
Q 2431 1156 2273 1281 
Q 2116 1406 1581 1522 
L 1381 1569 
Q 847 1681 609 1914 
Q 372 2147 372 2553 
Q 372 3047 722 3315 
Q 1072 3584 1716 3584 
Q 2034 3584 2315 3537 
Q 2597 3491 2834 3397 
z
" transform="scale(0.015625)"/>
       <path id="DejaVuSans-29" d="M 513 4856 
L 1013 4856 
Q 1481 4119 1714 3412 
Q 1947 2706 1947 2009 
Q 1947 1309 1714 600 
Q 1481 -109 1013 -844 
L 513 -844 
Q 928 -128 1133 580 
Q 1338 1288 1338 2009 
Q 1338 2731 1133 3434 
Q 928 4138 513 4856 
z
" transform="scale(0.015625)"/>
      </defs>
      <use xlink:href="#DejaVuSans-65"/>
      <use xlink:href="#DejaVuSans-32" x="61.523438"/>
      <use xlink:href="#DejaVuSans-20" x="125.146484"/>
      <use xlink:href="#DejaVuSans-2a" x="156.933594"/>
      <use xlink:href="#DejaVuSans-20" x="206.933594"/>
      <use xlink:href="#DejaVuSans-64" x="238.720703"/>
      <use xlink:href="#DejaVuSans-6e" x="302.197266"/>
      <use xlink:href="#DejaVuSans-64" x="365.576172"/>
      <use xlink:href="#DejaVuSans-65" x="429.052734"/>
      <use xlink:href="#DejaVuSans-20" x="490.576172"/>
      <use xlink:href="#DejaVuSans-5b" x="522.363281"/>
      <use xlink:href="#DejaVuSans-54" x="561.376953"/>
      <use xlink:href="#DejaVuSans-65" x="605.460938"/>
      <use xlink:href="#DejaVuSans-56" x="666.984375"/>
      <use xlink:href="#DejaVuSans-20" x="735.392578"/>
      <use xlink:href="#DejaVuSans-2f" x="767.179688"/>
      <use xlink:href="#DejaVuSans-20" x="800.871094"/>
      <use xlink:href="#DejaVuSans-28" x="832.658203"/>
      <use xlink:href="#DejaVuSans-63" x="871.671875"/>
      <use xlink:href="#DejaVuSans-6d" x="926.652344"/>
      <use xlink:href="#DejaVuSans-32" x="1024.064453"/>
      <use xlink:href="#DejaVuSans-20" x="1087.6875"/>
      <use xlink:href="#DejaVuSans-73" x="1119.474609"/>
      <use xlink:href="#DejaVuSans-29" x="1171.574219"/>
      <use xlink:href="#DejaVuSans-5d" x="1210.587891"/>
     </g>
    </g>
   </g>
   <g id="line2d_35">
    <path d="M 74.645222 57.861976 
L 77.222106 58.697891 
L 79.798989 59.533807 
L 82.375873 60.369722 
L 84.952756 61.205638 
L 87.529639 62.041554 
L 90.106523 62.877469 
L 92.683406 63.713385 
L 95.26029 64.5493 
L 97.837173 65.385216 
L 100.414056 66.221131 
L 102.99094 67.057047 
L 105.567823 67.892963 
L 108.144707 68.728878 
L 110.72159 69.564794 
L 113.298473 70.400709 
L 115.875357 71.236625 
L 118.45224 72.07254 
L 121.029124 72.908456 
L 123.606007 73.744372 
L 126.18289 74.580287 
L 128.759774 75.416203 
L 131.336657 76.252118 
L 133.913541 77.088034 
L 136.490424 77.923949 
L 139.067307 78.759865 
L 141.644191 79.595781 
L 144.221074 80.431696 
L 146.797958 81.267612 
L 149.374841 82.103527 
L 151.951724 82.939443 
L 154.528608 83.775358 
L 157.105491 84.611274 
L 159.682375 85.44719 
L 162.259258 86.283105 
L 164.836141 87.119021 
L 167.413025 87.954936 
L 169.989908 88.790852 
L 172.566792 89.626767 
L 175.143675 90.462683 
L 177.720558 91.298599 
L 180.297442 92.134514 
L 182.874325 92.97043 
L 185.451209 93.806345 
L 188.028092 94.642261 
L 190.604975 95.478176 
L 193.181859 96.314092 
L 195.758742 97.150008 
L 198.335626 97.985923 
L 200.912509 98.821839 
L 203.489392 99.657754 
L 206.066276 100.49367 
L 208.643159 101.329585 
L 211.220042 102.165501 
L 213.796926 103.001417 
L 216.373809 103.837332 
L 218.950693 104.673248 
L 221.527576 105.509163 
L 224.104459 106.345079 
L 226.681343 107.180994 
L 229.258226 108.01691 
L 231.83511 108.852825 
L 234.411993 109.688741 
L 236.988876 110.524657 
L 239.56576 111.360572 
L 242.142643 112.196488 
L 244.719527 113.032403 
L 247.29641 113.868319 
L 249.873293 114.704234 
L 252.450177 115.54015 
L 255.02706 116.376066 
L 257.603944 117.211981 
L 260.180827 118.047897 
L 262.75771 118.883812 
L 265.334594 119.719728 
L 267.911477 120.555643 
L 270.488361 121.391559 
L 273.065244 122.227475 
L 275.642127 123.06339 
L 278.219011 123.899306 
L 280.795894 124.735221 
L 283.372778 125.571137 
L 285.949661 126.407052 
L 288.526544 127.242968 
L 291.103428 128.078884 
L 293.680311 128.914799 
L 296.257195 129.750715 
L 298.834078 130.58663 
L 301.410961 131.422546 
L 303.987845 132.258461 
L 306.564728 133.094377 
L 309.141612 133.930293 
L 311.718495 134.766208 
L 314.295378 135.602124 
L 316.872262 136.438039 
L 319.449145 137.273955 
L 322.026029 138.10987 
L 324.602912 138.945786 
L 327.179795 139.781702 
L 329.756679 140.617617 
" clip-path="url(#p639f6202da)" style="fill: none; stroke-dasharray: 1.5,2.475; stroke-dashoffset: 0; stroke: #000000; stroke-width: 1.5"/>
   </g>
   <g id="LineCollection_1">
    <path clip-path="url(#p639f6202da)" style="fill: none; stroke: #8b0000; stroke-width: 1.5"/>
    <path clip-path="url(#p639f6202da)" style="fill: none; stroke: #8b0000; stroke-width: 1.5"/>
    <path clip-path="url(#p639f6202da)" style="fill: none; stroke: #8b0000; stroke-width: 1.5"/>
    <path clip-path="url(#p639f6202da)" style="fill: none; stroke: #8b0000; stroke-width: 1.5"/>
    <path clip-path="url(#p639f6202da)" style="fill: none; stroke: #8b0000; stroke-width: 1.5"/>
    <path d="M 78.376269 217 
L 78.376269 18.208954 
" clip-path="url(#p639f6202da)" style="fill: none; stroke: #8b0000; stroke-width: 1.5"/>
    <path d="M 93.534407 94.533386 
L 93.534407 45.101088 
" clip-path="url(#p639f6202da)" style="fill: none; stroke: #8b0000; stroke-width: 1.5"/>
    <path d="M 108.692544 83.230949 
L 108.692544 59.104667 
" clip-path="url(#p639f6202da)" style="fill: none; stroke: #8b0000; stroke-width: 1.5"/>
    <path d="M 123.850682 86.466294 
L 123.850682 65.774806 
" clip-path="url(#p639f6202da)" style="fill: none; stroke: #8b0000; stroke-width: 1.5"/>
    <path d="M 139.008819 91.806376 
L 139.008819 71.021985 
" clip-path="url(#p639f6202da)" style="fill: none; stroke: #8b0000; stroke-width: 1.5"/>
    <path d="M 154.166957 97.540317 
L 154.166957 75.99687 
" clip-path="url(#p639f6202da)" style="fill: none; stroke: #8b0000; stroke-width: 1.5"/>
    <path d="M 169.325095 103.707654 
L 169.325095 80.683284 
" clip-path="url(#p639f6202da)" style="fill: none; stroke: #8b0000; stroke-width: 1.5"/>
    <path d="M 184.483232 110.256869 
L 184.483232 85.132255 
" clip-path="url(#p639f6202da)" style="fill: none; stroke: #8b0000; stroke-width: 1.5"/>
    <path d="M 199.64137 116.894892 
L 199.64137 89.561521 
" clip-path="url(#p639f6202da)" style="fill: none; stroke: #8b0000; stroke-width: 1.5"/>
    <path d="M 214.799508 124.067534 
L 214.799508 93.700849 
" clip-path="url(#p639f6202da)" style="fill: none; stroke: #8b0000; stroke-width: 1.5"/>
    <path d="M 229.957645 131.825228 
L 229.957645 97.577392 
" clip-path="url(#p639f6202da)" style="fill: none; stroke: #8b0000; stroke-width: 1.5"/>
    <path d="M 245.115783 140.032548 
L 245.115783 101.314107 
" clip-path="url(#p639f6202da)" style="fill: none; stroke: #8b0000; stroke-width: 1.5"/>
    <path d="M 260.27392 149.164669 
L 260.27392 104.736091 
" clip-path="url(#p639f6202da)" style="fill: none; stroke: #8b0000; stroke-width: 1.5"/>
    <path d="M 275.432058 159.413093 
L 275.432058 107.873664 
" clip-path="url(#p639f6202da)" style="fill: none; stroke: #8b0000; stroke-width: 1.5"/>
    <path d="M 290.590196 170.438047 
L 290.590196 110.981202 
" clip-path="url(#p639f6202da)" style="fill: none; stroke: #8b0000; stroke-width: 1.5"/>
    <path d="M 305.748333 183.465922 
L 305.748333 113.762351 
" clip-path="url(#p639f6202da)" style="fill: none; stroke: #8b0000; stroke-width: 1.5"/>
    <path d="M 320.906471 200.661793 
L 320.906471 115.960005 
" clip-path="url(#p639f6202da)" style="fill: none; stroke: #8b0000; stroke-width: 1.5"/>
    <path d="M 336.064609 217 
L 336.064609 117.017925 
" clip-path="url(#p639f6202da)" style="fill: none; stroke: #8b0000; stroke-width: 1.5"/>
    <path clip-path="url(#p639f6202da)" style="fill: none; stroke: #8b0000; stroke-width: 1.5"/>
   </g>
   <g id="LineCollection_2">
    <path clip-path="url(#p639f6202da)" style="fill: none; stroke: #006400; stroke-width: 1.5"/>
    <path clip-path="url(#p639f6202da)" style="fill: none; stroke: #006400; stroke-width: 1.5"/>
    <path clip-path="url(#p639f6202da)" style="fill: none; stroke: #006400; stroke-width: 1.5"/>
    <path clip-path="url(#p639f6202da)" style="fill: none; stroke: #006400; stroke-width: 1.5"/>
    <path clip-path="url(#p639f6202da)" style="fill: none; stroke: #006400; stroke-width: 1.5"/>
    <path d="M 73.356781 217 
L 73.356781 18.069455 
" clip-path="url(#p639f6202da)" style="fill: none; stroke: #006400; stroke-width: 1.5"/>
    <path d="M 88.514918 95.784534 
L 88.514918 44.581413 
" clip-path="url(#p639f6202da)" style="fill: none; stroke: #006400; stroke-width: 1.5"/>
    <path d="M 103.673056 85.066898 
L 103.673056 57.93241 
" clip-path="url(#p639f6202da)" style="fill: none; stroke: #006400; stroke-width: 1.5"/>
    <path d="M 118.831194 88.501673 
L 118.831194 64.38749 
" clip-path="url(#p639f6202da)" style="fill: none; stroke: #006400; stroke-width: 1.5"/>
    <path d="M 133.989331 93.798462 
L 133.989331 69.664274 
" clip-path="url(#p639f6202da)" style="fill: none; stroke: #006400; stroke-width: 1.5"/>
    <path d="M 149.147469 99.450713 
L 149.147469 74.707377 
" clip-path="url(#p639f6202da)" style="fill: none; stroke: #006400; stroke-width: 1.5"/>
    <path d="M 164.305607 105.506131 
L 164.305607 79.501117 
" clip-path="url(#p639f6202da)" style="fill: none; stroke: #006400; stroke-width: 1.5"/>
    <path d="M 179.463744 111.935766 
L 179.463744 84.062177 
" clip-path="url(#p639f6202da)" style="fill: none; stroke: #006400; stroke-width: 1.5"/>
    <path d="M 194.621882 118.45205 
L 194.621882 88.602454 
" clip-path="url(#p639f6202da)" style="fill: none; stroke: #006400; stroke-width: 1.5"/>
    <path d="M 209.780019 125.524418 
L 209.780019 92.850077 
" clip-path="url(#p639f6202da)" style="fill: none; stroke: #006400; stroke-width: 1.5"/>
    <path d="M 224.938157 133.196259 
L 224.938157 96.826387 
" clip-path="url(#p639f6202da)" style="fill: none; stroke: #006400; stroke-width: 1.5"/>
    <path d="M 240.096295 141.328977 
L 240.096295 100.656396 
" clip-path="url(#p639f6202da)" style="fill: none; stroke: #006400; stroke-width: 1.5"/>
    <path d="M 255.254432 150.395185 
L 255.254432 104.17105 
" clip-path="url(#p639f6202da)" style="fill: none; stroke: #006400; stroke-width: 1.5"/>
    <path d="M 270.41257 160.591031 
L 270.41257 107.39178 
" clip-path="url(#p639f6202da)" style="fill: none; stroke: #006400; stroke-width: 1.5"/>
    <path d="M 285.570708 171.589517 
L 285.570708 110.567077 
" clip-path="url(#p639f6202da)" style="fill: none; stroke: #006400; stroke-width: 1.5"/>
    <path d="M 300.728845 184.626715 
L 300.728845 113.412722 
" clip-path="url(#p639f6202da)" style="fill: none; stroke: #006400; stroke-width: 1.5"/>
    <path d="M 315.886983 201.900412 
L 315.886983 115.671067 
" clip-path="url(#p639f6202da)" style="fill: none; stroke: #006400; stroke-width: 1.5"/>
    <path d="M 331.04512 217 
L 331.04512 116.790312 
" clip-path="url(#p639f6202da)" style="fill: none; stroke: #006400; stroke-width: 1.5"/>
    <path clip-path="url(#p639f6202da)" style="fill: none; stroke: #006400; stroke-width: 1.5"/>
   </g>
   <g id="line2d_36">
    <defs>
     <path id="m7fbb7e3474" d="M 0 3 
C 0.795609 3 1.55874 2.683901 2.12132 2.12132 
C 2.683901 1.55874 3 0.795609 3 0 
C 3 -0.795609 2.683901 -1.55874 2.12132 -2.12132 
C 1.55874 -2.683901 0.795609 -3 0 -3 
C -0.795609 -3 -1.55874 -2.683901 -2.12132 -2.12132 
C -2.683901 -1.55874 -3 -0.795609 -3 0 
C -3 0.795609 -2.683901 1.55874 -2.12132 2.12132 
C -1.55874 2.683901 -0.795609 3 0 3 
z
" style="stroke: #8b0000"/>
    </defs>
    <g clip-path="url(#p639f6202da)">
     <use xlink:href="#m7fbb7e3474" x="78.376269" y="59.321518" style="fill: #8b0000; stroke: #8b0000"/>
     <use xlink:href="#m7fbb7e3474" x="93.534407" y="64.613926" style="fill: #8b0000; stroke: #8b0000"/>
     <use xlink:href="#m7fbb7e3474" x="108.692544" y="69.899565" style="fill: #8b0000; stroke: #8b0000"/>
     <use xlink:href="#m7fbb7e3474" x="123.850682" y="75.185893" style="fill: #8b0000; stroke: #8b0000"/>
     <use xlink:href="#m7fbb7e3474" x="139.008819" y="80.471158" style="fill: #8b0000; stroke: #8b0000"/>
     <use xlink:href="#m7fbb7e3474" x="154.166957" y="85.755847" style="fill: #8b0000; stroke: #8b0000"/>
     <use xlink:href="#m7fbb7e3474" x="169.325095" y="91.039669" style="fill: #8b0000; stroke: #8b0000"/>
     <use xlink:href="#m7fbb7e3474" x="184.483232" y="96.320042" style="fill: #8b0000; stroke: #8b0000"/>
     <use xlink:href="#m7fbb7e3474" x="199.64137" y="101.603764" style="fill: #8b0000; stroke: #8b0000"/>
     <use xlink:href="#m7fbb7e3474" x="214.799508" y="106.883599" style="fill: #8b0000; stroke: #8b0000"/>
     <use xlink:href="#m7fbb7e3474" x="229.957645" y="112.164599" style="fill: #8b0000; stroke: #8b0000"/>
     <use xlink:href="#m7fbb7e3474" x="245.115783" y="117.444192" style="fill: #8b0000; stroke: #8b0000"/>
     <use xlink:href="#m7fbb7e3474" x="260.27392" y="122.723208" style="fill: #8b0000; stroke: #8b0000"/>
     <use xlink:href="#m7fbb7e3474" x="275.432058" y="128.00142" style="fill: #8b0000; stroke: #8b0000"/>
     <use xlink:href="#m7fbb7e3474" x="290.590196" y="133.278675" style="fill: #8b0000; stroke: #8b0000"/>
     <use xlink:href="#m7fbb7e3474" x="305.748333" y="138.555327" style="fill: #8b0000; stroke: #8b0000"/>
     <use xlink:href="#m7fbb7e3474" x="320.906471" y="143.830864" style="fill: #8b0000; stroke: #8b0000"/>
     <use xlink:href="#m7fbb7e3474" x="336.064609" y="149.10601" style="fill: #8b0000; stroke: #8b0000"/>
    </g>
   </g>
   <g id="line2d_37">
    <defs>
     <path id="mfcd59f684a" d="M 0 3 
C 0.795609 3 1.55874 2.683901 2.12132 2.12132 
C 2.683901 1.55874 3 0.795609 3 0 
C 3 -0.795609 2.683901 -1.55874 2.12132 -2.12132 
C 1.55874 -2.683901 0.795609 -3 0 -3 
C -0.795609 -3 -1.55874 -2.683901 -2.12132 -2.12132 
C -2.683901 -1.55874 -3 -0.795609 -3 0 
C -3 0.795609 -2.683901 1.55874 -2.12132 2.12132 
C -1.55874 2.683901 -0.795609 3 0 3 
z
" style="stroke: #006400"/>
    </defs>
    <g clip-path="url(#p639f6202da)">
     <use xlink:href="#mfcd59f684a" x="73.356781" y="59.316912" style="fill: #006400; stroke: #006400"/>
     <use xlink:href="#mfcd59f684a" x="88.514918" y="64.612104" style="fill: #006400; stroke: #006400"/>
     <use xlink:href="#mfcd59f684a" x="103.673056" y="69.898547" style="fill: #006400; stroke: #006400"/>
     <use xlink:href="#mfcd59f684a" x="118.831194" y="75.1776" style="fill: #006400; stroke: #006400"/>
     <use xlink:href="#mfcd59f684a" x="133.989331" y="80.462299" style="fill: #006400; stroke: #006400"/>
     <use xlink:href="#mfcd59f684a" x="149.147469" y="85.745607" style="fill: #006400; stroke: #006400"/>
     <use xlink:href="#mfcd59f684a" x="164.305607" y="91.031923" style="fill: #006400; stroke: #006400"/>
     <use xlink:href="#mfcd59f684a" x="179.463744" y="96.310317" style="fill: #006400; stroke: #006400"/>
     <use xlink:href="#mfcd59f684a" x="194.621882" y="101.593458" style="fill: #006400; stroke: #006400"/>
     <use xlink:href="#mfcd59f684a" x="209.780019" y="106.875247" style="fill: #006400; stroke: #006400"/>
     <use xlink:href="#mfcd59f684a" x="224.938157" y="112.155834" style="fill: #006400; stroke: #006400"/>
     <use xlink:href="#mfcd59f684a" x="240.096295" y="117.436167" style="fill: #006400; stroke: #006400"/>
     <use xlink:href="#mfcd59f684a" x="255.254432" y="122.7164" style="fill: #006400; stroke: #006400"/>
     <use xlink:href="#mfcd59f684a" x="270.41257" y="127.992648" style="fill: #006400; stroke: #006400"/>
     <use xlink:href="#mfcd59f684a" x="285.570708" y="133.268046" style="fill: #006400; stroke: #006400"/>
     <use xlink:href="#mfcd59f684a" x="300.728845" y="138.545411" style="fill: #006400; stroke: #006400"/>
     <use xlink:href="#mfcd59f684a" x="315.886983" y="143.820412" style="fill: #006400; stroke: #006400"/>
     <use xlink:href="#mfcd59f684a" x="331.04512" y="149.094561" style="fill: #006400; stroke: #006400"/>
    </g>
   </g>
   <g id="patch_3">
    <path d="M 60.221389 170.728 
L 60.221389 10.8 
" style="fill: none; stroke: #000000; stroke-width: 0.8; stroke-linejoin: miter; stroke-linecap: square"/>
   </g>
   <g id="patch_4">
    <path d="M 349.2 170.728 
L 349.2 10.8 
" style="fill: none; stroke: #000000; stroke-width: 0.8; stroke-linejoin: miter; stroke-linecap: square"/>
   </g>
   <g id="patch_5">
    <path d="M 60.221389 170.728 
L 349.2 170.728 
" style="fill: none; stroke: #000000; stroke-width: 0.8; stroke-linejoin: miter; stroke-linecap: square"/>
   </g>
   <g id="patch_6">
    <path d="M 60.221389 10.8 
L 349.2 10.8 
" style="fill: none; stroke: #000000; stroke-width: 0.8; stroke-linejoin: miter; stroke-linecap: square"/>
   </g>
   <g id="legend_1">
    <g id="patch_7">
     <path d="M 248.3 62.834375 
L 342.2 62.834375 
Q 344.2 62.834375 344.2 60.834375 
L 344.2 17.8 
Q 344.2 15.8 342.2 15.8 
L 248.3 15.8 
Q 246.3 15.8 246.3 17.8 
L 246.3 60.834375 
Q 246.3 62.834375 248.3 62.834375 
z
" style="fill: #ffffff; opacity: 0.8; stroke: #cccccc; stroke-linejoin: miter"/>
    </g>
    <g id="patch_8">
     <path d="M 250.3 27.398438 
L 270.3 27.398438 
L 270.3 20.398438 
L 250.3 20.398438 
z
" style="fill: #008000; fill-opacity: 0.5"/>
    </g>
    <g id="text_6">
     <!-- $1\sigma$ Nuisance -->
     <g transform="translate(278.3 27.398438) scale(0.1 -0.1)">
      <defs>
       <path id="DejaVuSans-Oblique-3c3" d="M 2219 3044 
Q 1744 3044 1422 2700 
Q 1081 2341 969 1747 
Q 844 1119 1044 756 
Q 1241 397 1706 397 
Q 2166 397 2503 759 
Q 2844 1122 2966 1747 
Q 3075 2319 2881 2700 
Q 2700 3044 2219 3044 
z
M 2309 3503 
L 4219 3500 
L 4106 2925 
L 3463 2925 
Q 3706 2438 3575 1747 
Q 3406 888 2884 400 
Q 2359 -91 1609 -91 
Q 856 -91 525 400 
Q 194 888 363 1747 
Q 528 2609 1050 3097 
Q 1484 3503 2309 3503 
z
" transform="scale(0.015625)"/>
       <path id="DejaVuSans-4e" d="M 628 4666 
L 1478 4666 
L 3547 763 
L 3547 4666 
L 4159 4666 
L 4159 0 
L 3309 0 
L 1241 3903 
L 1241 0 
L 628 0 
L 628 4666 
z
" transform="scale(0.015625)"/>
       <path id="DejaVuSans-75" d="M 544 1381 
L 544 3500 
L 1119 3500 
L 1119 1403 
Q 1119 906 1312 657 
Q 1506 409 1894 409 
Q 2359 409 2629 706 
Q 2900 1003 2900 1516 
L 2900 3500 
L 3475 3500 
L 3475 0 
L 2900 0 
L 2900 538 
Q 2691 219 2414 64 
Q 2138 -91 1772 -91 
Q 1169 -91 856 284 
Q 544 659 544 1381 
z
M 1991 3584 
L 1991 3584 
z
" transform="scale(0.015625)"/>
       <path id="DejaVuSans-69" d="M 603 3500 
L 1178 3500 
L 1178 0 
L 603 0 
L 603 3500 
z
M 603 4863 
L 1178 4863 
L 1178 4134 
L 603 4134 
L 603 4863 
z
" transform="scale(0.015625)"/>
       <path id="DejaVuSans-61" d="M 2194 1759 
Q 1497 1759 1228 1600 
Q 959 1441 959 1056 
Q 959 750 1161 570 
Q 1363 391 1709 391 
Q 2188 391 2477 730 
Q 2766 1069 2766 1631 
L 2766 1759 
L 2194 1759 
z
M 3341 1997 
L 3341 0 
L 2766 0 
L 2766 531 
Q 2569 213 2275 61 
Q 1981 -91 1556 -91 
Q 1019 -91 701 211 
Q 384 513 384 1019 
Q 384 1609 779 1909 
Q 1175 2209 1959 2209 
L 2766 2209 
L 2766 2266 
Q 2766 2663 2505 2880 
Q 2244 3097 1772 3097 
Q 1472 3097 1187 3025 
Q 903 2953 641 2809 
L 641 3341 
Q 956 3463 1253 3523 
Q 1550 3584 1831 3584 
Q 2591 3584 2966 3190 
Q 3341 2797 3341 1997 
z
" transform="scale(0.015625)"/>
      </defs>
      <use xlink:href="#DejaVuSans-31" transform="translate(0 0.015625)"/>
      <use xlink:href="#DejaVuSans-Oblique-3c3" transform="translate(63.623047 0.015625)"/>
      <use xlink:href="#DejaVuSans-20" transform="translate(127.001953 0.015625)"/>
      <use xlink:href="#DejaVuSans-4e" transform="translate(158.789062 0.015625)"/>
      <use xlink:href="#DejaVuSans-75" transform="translate(233.59375 0.015625)"/>
      <use xlink:href="#DejaVuSans-69" transform="translate(296.972656 0.015625)"/>
      <use xlink:href="#DejaVuSans-73" transform="translate(324.755859 0.015625)"/>
      <use xlink:href="#DejaVuSans-61" transform="translate(376.855469 0.015625)"/>
      <use xlink:href="#DejaVuSans-6e" transform="translate(438.134766 0.015625)"/>
      <use xlink:href="#DejaVuSans-63" transform="translate(501.513672 0.015625)"/>
      <use xlink:href="#DejaVuSans-65" transform="translate(556.494141 0.015625)"/>
     </g>
    </g>
    <g id="patch_9">
     <path d="M 250.3 42.076563 
L 270.3 42.076563 
L 270.3 35.076563 
L 250.3 35.076563 
z
" style="fill: #ff0000; fill-opacity: 0.6"/>
    </g>
    <g id="text_7">
     <!-- $1\sigma$ Standard -->
     <g transform="translate(278.3 42.076563) scale(0.1 -0.1)">
      <defs>
       <path id="DejaVuSans-53" d="M 3425 4513 
L 3425 3897 
Q 3066 4069 2747 4153 
Q 2428 4238 2131 4238 
Q 1616 4238 1336 4038 
Q 1056 3838 1056 3469 
Q 1056 3159 1242 3001 
Q 1428 2844 1947 2747 
L 2328 2669 
Q 3034 2534 3370 2195 
Q 3706 1856 3706 1288 
Q 3706 609 3251 259 
Q 2797 -91 1919 -91 
Q 1588 -91 1214 -16 
Q 841 59 441 206 
L 441 856 
Q 825 641 1194 531 
Q 1563 422 1919 422 
Q 2459 422 2753 634 
Q 3047 847 3047 1241 
Q 3047 1584 2836 1778 
Q 2625 1972 2144 2069 
L 1759 2144 
Q 1053 2284 737 2584 
Q 422 2884 422 3419 
Q 422 4038 858 4394 
Q 1294 4750 2059 4750 
Q 2388 4750 2728 4690 
Q 3069 4631 3425 4513 
z
" transform="scale(0.015625)"/>
       <path id="DejaVuSans-74" d="M 1172 4494 
L 1172 3500 
L 2356 3500 
L 2356 3053 
L 1172 3053 
L 1172 1153 
Q 1172 725 1289 603 
Q 1406 481 1766 481 
L 2356 481 
L 2356 0 
L 1766 0 
Q 1100 0 847 248 
Q 594 497 594 1153 
L 594 3053 
L 172 3053 
L 172 3500 
L 594 3500 
L 594 4494 
L 1172 4494 
z
" transform="scale(0.015625)"/>
      </defs>
      <use xlink:href="#DejaVuSans-31" transform="translate(0 0.015625)"/>
      <use xlink:href="#DejaVuSans-Oblique-3c3" transform="translate(63.623047 0.015625)"/>
      <use xlink:href="#DejaVuSans-20" transform="translate(127.001953 0.015625)"/>
      <use xlink:href="#DejaVuSans-53" transform="translate(158.789062 0.015625)"/>
      <use xlink:href="#DejaVuSans-74" transform="translate(222.265625 0.015625)"/>
      <use xlink:href="#DejaVuSans-61" transform="translate(261.474609 0.015625)"/>
      <use xlink:href="#DejaVuSans-6e" transform="translate(322.753906 0.015625)"/>
      <use xlink:href="#DejaVuSans-64" transform="translate(386.132812 0.015625)"/>
      <use xlink:href="#DejaVuSans-61" transform="translate(449.609375 0.015625)"/>
      <use xlink:href="#DejaVuSans-72" transform="translate(510.888672 0.015625)"/>
      <use xlink:href="#DejaVuSans-64" transform="translate(552.001953 0.015625)"/>
     </g>
    </g>
    <g id="line2d_38">
     <path d="M 250.3 53.254688 
L 260.3 53.254688 
L 270.3 53.254688 
" style="fill: none; stroke-dasharray: 1.5,2.475; stroke-dashoffset: 0; stroke: #000000; stroke-width: 1.5"/>
    </g>
    <g id="text_8">
     <!-- Input -->
     <g transform="translate(278.3 56.754688) scale(0.1 -0.1)">
      <defs>
       <path id="DejaVuSans-49" d="M 628 4666 
L 1259 4666 
L 1259 0 
L 628 0 
L 628 4666 
z
" transform="scale(0.015625)"/>
       <path id="DejaVuSans-70" d="M 1159 525 
L 1159 -1331 
L 581 -1331 
L 581 3500 
L 1159 3500 
L 1159 2969 
Q 1341 3281 1617 3432 
Q 1894 3584 2278 3584 
Q 2916 3584 3314 3078 
Q 3713 2572 3713 1747 
Q 3713 922 3314 415 
Q 2916 -91 2278 -91 
Q 1894 -91 1617 61 
Q 1341 213 1159 525 
z
M 3116 1747 
Q 3116 2381 2855 2742 
Q 2594 3103 2138 3103 
Q 1681 3103 1420 2742 
Q 1159 2381 1159 1747 
Q 1159 1113 1420 752 
Q 1681 391 2138 391 
Q 2594 391 2855 752 
Q 3116 1113 3116 1747 
z
" transform="scale(0.015625)"/>
      </defs>
      <use xlink:href="#DejaVuSans-49"/>
      <use xlink:href="#DejaVuSans-6e" x="29.492188"/>
      <use xlink:href="#DejaVuSans-70" x="92.871094"/>
      <use xlink:href="#DejaVuSans-75" x="156.347656"/>
      <use xlink:href="#DejaVuSans-74" x="219.726562"/>
     </g>
    </g>
   </g>
  </g>
 </g>
 <defs>
  <clipPath id="p639f6202da">
   <rect x="60.221389" y="10.8" width="288.978611" height="159.928"/>
  </clipPath>
 </defs>
</svg>
