<?xml version="1.0" encoding="utf-8" standalone="no"?>
<!DOCTYPE svg PUBLIC "-//W3C//DTD SVG 1.1//EN"
  "http://www.w3.org/Graphics/SVG/1.1/DTD/svg11.dtd">
<svg xmlns:xlink="http://www.w3.org/1999/xlink" width="360pt" height="360pt" viewBox="0 0 360 360" xmlns="http://www.w3.org/2000/svg" version="1.1">
 <metadata>
  <rdf:RDF xmlns:dc="http://purl.org/dc/elements/1.1/" xmlns:cc="http://creativecommons.org/ns#" xmlns:rdf="http://www.w3.org/1999/02/22-rdf-syntax-ns#">
   <cc:Work>
    <dc:type rdf:resource="http://purl.org/dc/dcmitype/StillImage"/>
    <dc:date>2023-02-09T15:18:47.650452</dc:date>
    <dc:format>image/svg+xml</dc:format>
    <dc:creator>
     <cc:Agent>
      <dc:title>Matplotlib v3.6.2, https://matplotlib.org/</dc:title>
     </cc:Agent>
    </dc:creator>
   </cc:Work>
  </rdf:RDF>
 </metadata>
 <defs>
  <style type="text/css">*{stroke-linejoin: round; stroke-linecap: butt}</style>
 </defs>
 <g id="figure_1">
  <g id="patch_1">
   <path d="M 0 360 
L 360 360 
L 360 0 
L 0 0 
z
" style="fill: #ffffff"/>
  </g>
  <g id="axes_1">
   <g id="patch_2">
    <path d="M 77.371281 190.4328 
L 349.2 190.4328 
L 349.2 25.44 
L 77.371281 25.44 
z
" style="fill: #ffffff"/>
   </g>
   <g id="PolyCollection_1">
    <path d="M 90.962717 32.939673 
L 90.962717 60.583656 
L 93.433887 61.56973 
L 95.905057 62.559347 
L 98.376227 63.552594 
L 100.847398 64.549559 
L 103.318568 65.550332 
L 105.789738 66.555006 
L 108.260908 67.563678 
L 110.732078 68.576446 
L 113.203248 69.593411 
L 115.674419 70.614675 
L 118.145589 71.640345 
L 120.616759 72.670526 
L 123.087929 73.705328 
L 125.559099 74.74486 
L 128.03027 75.789233 
L 130.50144 76.838559 
L 132.97261 77.89295 
L 135.44378 78.952517 
L 137.91495 80.017373 
L 140.38612 81.087626 
L 142.857291 82.163386 
L 145.328461 83.244759 
L 147.799631 84.331851 
L 150.270801 85.42476 
L 152.741971 86.523586 
L 155.213141 87.62842 
L 157.684312 88.73935 
L 160.155482 89.856458 
L 162.626652 90.979821 
L 165.097822 92.109508 
L 167.568992 93.245582 
L 170.040162 94.388096 
L 172.511333 95.537098 
L 174.982503 96.692624 
L 177.453673 97.854706 
L 179.924843 99.023362 
L 182.396013 100.198603 
L 184.867183 101.380432 
L 187.338354 102.56884 
L 189.809524 103.763812 
L 192.280694 104.96532 
L 194.751864 106.17333 
L 197.223034 107.387799 
L 199.694205 108.608675 
L 202.165375 109.835898 
L 204.636545 111.069401 
L 207.107715 112.309112 
L 209.578885 113.554949 
L 212.050055 114.806827 
L 214.521226 116.064655 
L 216.992396 117.328337 
L 219.463566 118.597773 
L 221.934736 119.872862 
L 224.405906 121.153495 
L 226.877076 122.439567 
L 229.348247 123.730966 
L 231.819417 125.027583 
L 234.290587 126.329304 
L 236.761757 127.636019 
L 239.232927 128.947615 
L 241.704097 130.263981 
L 244.175268 131.585008 
L 246.646438 132.910585 
L 249.117608 134.240606 
L 251.588778 135.574965 
L 254.059948 136.913557 
L 256.531119 138.256282 
L 259.002289 139.603039 
L 261.473459 140.953732 
L 263.944629 142.308267 
L 266.415799 143.666551 
L 268.886969 145.028497 
L 271.35814 146.394018 
L 273.82931 147.76303 
L 276.30048 149.135452 
L 278.77165 150.511208 
L 281.24282 151.890221 
L 283.71399 153.27242 
L 286.185161 154.657735 
L 288.656331 156.0461 
L 291.127501 157.437449 
L 293.598671 158.831721 
L 296.069841 160.228857 
L 298.541011 161.628801 
L 301.012182 163.031498 
L 303.483352 164.436896 
L 305.954522 165.844946 
L 308.425692 167.2556 
L 310.896862 168.668813 
L 313.368032 170.084542 
L 315.839203 171.502745 
L 318.310373 172.923384 
L 320.781543 174.34642 
L 323.252713 175.771819 
L 325.723883 177.199547 
L 328.195054 178.629571 
L 330.666224 180.061862 
L 333.137394 181.49639 
L 335.608564 182.933127 
L 335.608564 145.487698 
L 335.608564 145.487698 
L 333.137394 144.474831 
L 330.666224 143.461432 
L 328.195054 142.447468 
L 325.723883 141.432905 
L 323.252713 140.417707 
L 320.781543 139.401836 
L 318.310373 138.385253 
L 315.839203 137.367917 
L 313.368032 136.349786 
L 310.896862 135.330816 
L 308.425692 134.31096 
L 305.954522 133.290171 
L 303.483352 132.268397 
L 301.012182 131.245589 
L 298.541011 130.221691 
L 296.069841 129.196646 
L 293.598671 128.170398 
L 291.127501 127.142884 
L 288.656331 126.114041 
L 286.185161 125.083804 
L 283.71399 124.052105 
L 281.24282 123.018874 
L 278.77165 121.984036 
L 276.30048 120.947516 
L 273.82931 119.909235 
L 271.35814 118.869113 
L 268.886969 117.827065 
L 266.415799 116.783005 
L 263.944629 115.736844 
L 261.473459 114.688489 
L 259.002289 113.637846 
L 256.531119 112.584818 
L 254.059948 111.529306 
L 251.588778 110.471207 
L 249.117608 109.410417 
L 246.646438 108.34683 
L 244.175268 107.280338 
L 241.704097 106.210831 
L 239.232927 105.138198 
L 236.761757 104.062326 
L 234.290587 102.983103 
L 231.819417 101.900415 
L 229.348247 100.814147 
L 226.877076 99.724187 
L 224.405906 98.630422 
L 221.934736 97.53274 
L 219.463566 96.431033 
L 216.992396 95.325192 
L 214.521226 94.215114 
L 212.050055 93.100698 
L 209.578885 91.981847 
L 207.107715 90.85847 
L 204.636545 89.730478 
L 202.165375 88.597792 
L 199.694205 87.460337 
L 197.223034 86.318045 
L 194.751864 85.170857 
L 192.280694 84.018719 
L 189.809524 82.861589 
L 187.338354 81.69943 
L 184.867183 80.532218 
L 182.396013 79.359935 
L 179.924843 78.182572 
L 177.453673 77.000133 
L 174.982503 75.812627 
L 172.511333 74.620076 
L 170.040162 73.422509 
L 167.568992 72.219964 
L 165.097822 71.012488 
L 162.626652 69.800135 
L 160.155482 68.58297 
L 157.684312 67.361062 
L 155.213141 66.134489 
L 152.741971 64.903332 
L 150.270801 63.667681 
L 147.799631 62.42763 
L 145.328461 61.183276 
L 142.857291 59.934723 
L 140.38612 58.682075 
L 137.91495 57.425441 
L 135.44378 56.164931 
L 132.97261 54.900656 
L 130.50144 53.63273 
L 128.03027 52.361266 
L 125.559099 51.086378 
L 123.087929 49.808179 
L 120.616759 48.526783 
L 118.145589 47.2423 
L 115.674419 45.954843 
L 113.203248 44.66452 
L 110.732078 43.371439 
L 108.260908 42.075705 
L 105.789738 40.777422 
L 103.318568 39.47669 
L 100.847398 38.173609 
L 98.376227 36.868274 
L 95.905057 35.56078 
L 93.433887 34.251217 
L 90.962717 32.939673 
z
" clip-path="url(#p4a3bd07c12)" style="fill: #008000; fill-opacity: 0.5"/>
   </g>
   <g id="PolyCollection_2">
    <path d="M 90.962717 36.231159 
L 90.962717 56.155219 
L 93.433887 57.09698 
L 95.905057 58.041354 
L 98.376227 58.988449 
L 100.847398 59.93838 
L 103.318568 60.891271 
L 105.789738 61.847258 
L 108.260908 62.806488 
L 110.732078 63.76912 
L 113.203248 64.735327 
L 115.674419 65.705296 
L 118.145589 66.679229 
L 120.616759 67.657345 
L 123.087929 68.639882 
L 125.559099 69.627093 
L 128.03027 70.619253 
L 130.50144 71.616657 
L 132.97261 72.619621 
L 135.44378 73.628481 
L 137.91495 74.643595 
L 140.38612 75.665344 
L 142.857291 76.694125 
L 145.328461 77.730355 
L 147.799631 78.774467 
L 150.270801 79.826905 
L 152.741971 80.888123 
L 155.213141 81.958574 
L 157.684312 83.03871 
L 160.155482 84.128968 
L 162.626652 85.229767 
L 165.097822 86.341493 
L 167.568992 87.464497 
L 170.040162 88.599078 
L 172.511333 89.745481 
L 174.982503 90.903884 
L 177.453673 92.074398 
L 179.924843 93.257059 
L 182.396013 94.451829 
L 184.867183 95.658597 
L 187.338354 96.87718 
L 189.809524 98.107334 
L 192.280694 99.348758 
L 194.751864 100.6011 
L 197.223034 101.863972 
L 199.694205 103.136956 
L 202.165375 104.419613 
L 204.636545 105.711493 
L 207.107715 107.012141 
L 209.578885 108.321104 
L 212.050055 109.637938 
L 214.521226 110.96221 
L 216.992396 112.293505 
L 219.463566 113.631424 
L 221.934736 114.975588 
L 224.405906 116.32564 
L 226.877076 117.681243 
L 229.348247 119.042083 
L 231.819417 120.407865 
L 234.290587 121.778314 
L 236.761757 123.153177 
L 239.232927 124.532218 
L 241.704097 125.915218 
L 244.175268 127.301975 
L 246.646438 128.692301 
L 249.117608 130.086026 
L 251.588778 131.48299 
L 254.059948 132.883046 
L 256.531119 134.286059 
L 259.002289 135.691905 
L 261.473459 137.100468 
L 263.944629 138.511643 
L 266.415799 139.925331 
L 268.886969 141.341444 
L 271.35814 142.759899 
L 273.82931 144.180618 
L 276.30048 145.603531 
L 278.77165 147.028573 
L 281.24282 148.455685 
L 283.71399 149.884811 
L 286.185161 151.315899 
L 288.656331 152.748904 
L 291.127501 154.183782 
L 293.598671 155.620492 
L 296.069841 157.058999 
L 298.541011 158.499267 
L 301.012182 159.941267 
L 303.483352 161.38497 
L 305.954522 162.830348 
L 308.425692 164.277378 
L 310.896862 165.726038 
L 313.368032 167.176308 
L 315.839203 168.628169 
L 318.310373 170.081603 
L 320.781543 171.536596 
L 323.252713 172.993134 
L 325.723883 174.451204 
L 328.195054 175.910795 
L 330.666224 177.371896 
L 333.137394 178.834499 
L 335.608564 180.298595 
L 335.608564 147.184131 
L 335.608564 147.184131 
L 333.137394 146.198558 
L 330.666224 145.213129 
L 328.195054 144.227831 
L 325.723883 143.242649 
L 323.252713 142.257568 
L 320.781543 141.272571 
L 318.310373 140.287639 
L 315.839203 139.302754 
L 313.368032 138.317896 
L 310.896862 137.333043 
L 308.425692 136.34817 
L 305.954522 135.363254 
L 303.483352 134.378267 
L 301.012182 133.393182 
L 298.541011 132.407966 
L 296.069841 131.422587 
L 293.598671 130.43701 
L 291.127501 129.451197 
L 288.656331 128.465107 
L 286.185161 127.478695 
L 283.71399 126.491917 
L 281.24282 125.504719 
L 278.77165 124.517048 
L 276.30048 123.528845 
L 273.82931 122.540047 
L 271.35814 121.550585 
L 268.886969 120.560386 
L 266.415799 119.569369 
L 263.944629 118.57745 
L 261.473459 117.584534 
L 259.002289 116.590522 
L 256.531119 115.595304 
L 254.059948 114.598764 
L 251.588778 113.600774 
L 249.117608 112.601196 
L 246.646438 111.599881 
L 244.175268 110.596668 
L 241.704097 109.591383 
L 239.232927 108.583835 
L 236.761757 107.573822 
L 234.290587 106.561122 
L 231.819417 105.545498 
L 229.348247 104.526694 
L 226.877076 103.504432 
L 224.405906 102.478419 
L 221.934736 101.448337 
L 219.463566 100.413847 
L 216.992396 99.374592 
L 214.521226 98.330191 
L 212.050055 97.280245 
L 209.578885 96.224335 
L 207.107715 95.162029 
L 204.636545 94.092882 
L 202.165375 93.016439 
L 199.694205 91.932245 
L 197.223034 90.839849 
L 194.751864 89.738812 
L 192.280694 88.628714 
L 189.809524 87.509166 
L 187.338354 86.379819 
L 184.867183 85.240368 
L 182.396013 84.09057 
L 179.924843 82.930243 
L 177.453673 81.759274 
L 174.982503 80.577626 
L 172.511333 79.385335 
L 170.040162 78.182511 
L 167.568992 76.969334 
L 165.097822 75.746048 
L 162.626652 74.512953 
L 160.155482 73.2704 
L 157.684312 72.018775 
L 155.213141 70.758499 
L 152.741971 69.49001 
L 150.270801 68.213758 
L 147.799631 66.9302 
L 145.328461 65.639789 
L 142.857291 64.342971 
L 140.38612 63.040179 
L 137.91495 61.731831 
L 135.44378 60.418328 
L 132.97261 59.10005 
L 130.50144 57.777356 
L 128.03027 56.450585 
L 125.559099 55.120054 
L 123.087929 53.786059 
L 120.616759 52.448877 
L 118.145589 51.108765 
L 115.674419 49.76596 
L 113.203248 48.420685 
L 110.732078 47.073142 
L 108.260908 45.723523 
L 105.789738 44.372 
L 103.318568 43.018738 
L 100.847398 41.663883 
L 98.376227 40.307575 
L 95.905057 38.949942 
L 93.433887 37.5911 
L 90.962717 36.231159 
z
" clip-path="url(#p4a3bd07c12)" style="fill: #ff0000; fill-opacity: 0.6"/>
   </g>
   <g id="matplotlib.axis_1">
    <g id="xtick_1">
     <g id="line2d_1">
      <defs>
       <path id="m9b74e4fe8e" d="M 0 0 
L 0 3.5 
" style="stroke: #000000; stroke-width: 0.8"/>
      </defs>
      <g>
       <use xlink:href="#m9b74e4fe8e" x="126.06787" y="190.4328" style="stroke: #000000; stroke-width: 0.8"/>
      </g>
     </g>
    </g>
    <g id="xtick_2">
     <g id="line2d_2">
      <g>
       <use xlink:href="#m9b74e4fe8e" x="242.358231" y="190.4328" style="stroke: #000000; stroke-width: 0.8"/>
      </g>
     </g>
    </g>
    <g id="xtick_3">
     <g id="line2d_3">
      <defs>
       <path id="m52d37676bf" d="M 0 0 
L 0 2 
" style="stroke: #000000; stroke-width: 0.6"/>
      </defs>
      <g>
       <use xlink:href="#m52d37676bf" x="79.791282" y="190.4328" style="stroke: #000000; stroke-width: 0.6"/>
      </g>
     </g>
    </g>
    <g id="xtick_4">
     <g id="line2d_4">
      <g>
       <use xlink:href="#m52d37676bf" x="91.060983" y="190.4328" style="stroke: #000000; stroke-width: 0.6"/>
      </g>
     </g>
    </g>
    <g id="xtick_5">
     <g id="line2d_5">
      <g>
       <use xlink:href="#m52d37676bf" x="100.268998" y="190.4328" style="stroke: #000000; stroke-width: 0.6"/>
      </g>
     </g>
    </g>
    <g id="xtick_6">
     <g id="line2d_6">
      <g>
       <use xlink:href="#m52d37676bf" x="108.054265" y="190.4328" style="stroke: #000000; stroke-width: 0.6"/>
      </g>
     </g>
    </g>
    <g id="xtick_7">
     <g id="line2d_7">
      <g>
       <use xlink:href="#m52d37676bf" x="114.798169" y="190.4328" style="stroke: #000000; stroke-width: 0.6"/>
      </g>
     </g>
    </g>
    <g id="xtick_8">
     <g id="line2d_8">
      <g>
       <use xlink:href="#m52d37676bf" x="120.746715" y="190.4328" style="stroke: #000000; stroke-width: 0.6"/>
      </g>
     </g>
    </g>
    <g id="xtick_9">
     <g id="line2d_9">
      <g>
       <use xlink:href="#m52d37676bf" x="161.074757" y="190.4328" style="stroke: #000000; stroke-width: 0.6"/>
      </g>
     </g>
    </g>
    <g id="xtick_10">
     <g id="line2d_10">
      <g>
       <use xlink:href="#m52d37676bf" x="181.552473" y="190.4328" style="stroke: #000000; stroke-width: 0.6"/>
      </g>
     </g>
    </g>
    <g id="xtick_11">
     <g id="line2d_11">
      <g>
       <use xlink:href="#m52d37676bf" x="196.081643" y="190.4328" style="stroke: #000000; stroke-width: 0.6"/>
      </g>
     </g>
    </g>
    <g id="xtick_12">
     <g id="line2d_12">
      <g>
       <use xlink:href="#m52d37676bf" x="207.351344" y="190.4328" style="stroke: #000000; stroke-width: 0.6"/>
      </g>
     </g>
    </g>
    <g id="xtick_13">
     <g id="line2d_13">
      <g>
       <use xlink:href="#m52d37676bf" x="216.55936" y="190.4328" style="stroke: #000000; stroke-width: 0.6"/>
      </g>
     </g>
    </g>
    <g id="xtick_14">
     <g id="line2d_14">
      <g>
       <use xlink:href="#m52d37676bf" x="224.344626" y="190.4328" style="stroke: #000000; stroke-width: 0.6"/>
      </g>
     </g>
    </g>
    <g id="xtick_15">
     <g id="line2d_15">
      <g>
       <use xlink:href="#m52d37676bf" x="231.08853" y="190.4328" style="stroke: #000000; stroke-width: 0.6"/>
      </g>
     </g>
    </g>
    <g id="xtick_16">
     <g id="line2d_16">
      <g>
       <use xlink:href="#m52d37676bf" x="237.037076" y="190.4328" style="stroke: #000000; stroke-width: 0.6"/>
      </g>
     </g>
    </g>
    <g id="xtick_17">
     <g id="line2d_17">
      <g>
       <use xlink:href="#m52d37676bf" x="277.365118" y="190.4328" style="stroke: #000000; stroke-width: 0.6"/>
      </g>
     </g>
    </g>
    <g id="xtick_18">
     <g id="line2d_18">
      <g>
       <use xlink:href="#m52d37676bf" x="297.842834" y="190.4328" style="stroke: #000000; stroke-width: 0.6"/>
      </g>
     </g>
    </g>
    <g id="xtick_19">
     <g id="line2d_19">
      <g>
       <use xlink:href="#m52d37676bf" x="312.372005" y="190.4328" style="stroke: #000000; stroke-width: 0.6"/>
      </g>
     </g>
    </g>
    <g id="xtick_20">
     <g id="line2d_20">
      <g>
       <use xlink:href="#m52d37676bf" x="323.641705" y="190.4328" style="stroke: #000000; stroke-width: 0.6"/>
      </g>
     </g>
    </g>
    <g id="xtick_21">
     <g id="line2d_21">
      <g>
       <use xlink:href="#m52d37676bf" x="332.849721" y="190.4328" style="stroke: #000000; stroke-width: 0.6"/>
      </g>
     </g>
    </g>
    <g id="xtick_22">
     <g id="line2d_22">
      <g>
       <use xlink:href="#m52d37676bf" x="340.634987" y="190.4328" style="stroke: #000000; stroke-width: 0.6"/>
      </g>
     </g>
    </g>
    <g id="xtick_23">
     <g id="line2d_23">
      <g>
       <use xlink:href="#m52d37676bf" x="347.378891" y="190.4328" style="stroke: #000000; stroke-width: 0.6"/>
      </g>
     </g>
    </g>
   </g>
   <g id="matplotlib.axis_2">
    <g id="ytick_1">
     <g id="line2d_24">
      <defs>
       <path id="m59f55d2d4a" d="M 0 0 
L -3.5 0 
" style="stroke: #000000; stroke-width: 0.8"/>
      </defs>
      <g>
       <use xlink:href="#m59f55d2d4a" x="77.371281" y="62.287986" style="stroke: #000000; stroke-width: 0.8"/>
      </g>
     </g>
     <g id="text_1">
      <!-- $\mathdefault{10^{-12}}$ -->
      <g transform="translate(42.471281 66.087205) scale(0.1 -0.1)">
       <defs>
        <path id="DejaVuSans-31" d="M 794 531 
L 1825 531 
L 1825 4091 
L 703 3866 
L 703 4441 
L 1819 4666 
L 2450 4666 
L 2450 531 
L 3481 531 
L 3481 0 
L 794 0 
L 794 531 
z
" transform="scale(0.015625)"/>
        <path id="DejaVuSans-30" d="M 2034 4250 
Q 1547 4250 1301 3770 
Q 1056 3291 1056 2328 
Q 1056 1369 1301 889 
Q 1547 409 2034 409 
Q 2525 409 2770 889 
Q 3016 1369 3016 2328 
Q 3016 3291 2770 3770 
Q 2525 4250 2034 4250 
z
M 2034 4750 
Q 2819 4750 3233 4129 
Q 3647 3509 3647 2328 
Q 3647 1150 3233 529 
Q 2819 -91 2034 -91 
Q 1250 -91 836 529 
Q 422 1150 422 2328 
Q 422 3509 836 4129 
Q 1250 4750 2034 4750 
z
" transform="scale(0.015625)"/>
        <path id="DejaVuSans-2212" d="M 678 2272 
L 4684 2272 
L 4684 1741 
L 678 1741 
L 678 2272 
z
" transform="scale(0.015625)"/>
        <path id="DejaVuSans-32" d="M 1228 531 
L 3431 531 
L 3431 0 
L 469 0 
L 469 531 
Q 828 903 1448 1529 
Q 2069 2156 2228 2338 
Q 2531 2678 2651 2914 
Q 2772 3150 2772 3378 
Q 2772 3750 2511 3984 
Q 2250 4219 1831 4219 
Q 1534 4219 1204 4116 
Q 875 4013 500 3803 
L 500 4441 
Q 881 4594 1212 4672 
Q 1544 4750 1819 4750 
Q 2544 4750 2975 4387 
Q 3406 4025 3406 3419 
Q 3406 3131 3298 2873 
Q 3191 2616 2906 2266 
Q 2828 2175 2409 1742 
Q 1991 1309 1228 531 
z
" transform="scale(0.015625)"/>
       </defs>
       <use xlink:href="#DejaVuSans-31" transform="translate(0 0.765625)"/>
       <use xlink:href="#DejaVuSans-30" transform="translate(63.623047 0.765625)"/>
       <use xlink:href="#DejaVuSans-2212" transform="translate(128.203125 39.046875) scale(0.7)"/>
       <use xlink:href="#DejaVuSans-31" transform="translate(186.855469 39.046875) scale(0.7)"/>
       <use xlink:href="#DejaVuSans-32" transform="translate(231.391602 39.046875) scale(0.7)"/>
      </g>
     </g>
    </g>
    <g id="ytick_2">
     <g id="line2d_25">
      <defs>
       <path id="md04c9d2e66" d="M 0 0 
L -2 0 
" style="stroke: #000000; stroke-width: 0.6"/>
      </defs>
      <g>
       <use xlink:href="#md04c9d2e66" x="77.371281" y="158.779743" style="stroke: #000000; stroke-width: 0.6"/>
      </g>
     </g>
     <g id="text_2">
      <!-- $\mathdefault{3\times10^{-13}}$ -->
      <g transform="translate(25.371281 162.578962) scale(0.1 -0.1)">
       <defs>
        <path id="DejaVuSans-33" d="M 2597 2516 
Q 3050 2419 3304 2112 
Q 3559 1806 3559 1356 
Q 3559 666 3084 287 
Q 2609 -91 1734 -91 
Q 1441 -91 1130 -33 
Q 819 25 488 141 
L 488 750 
Q 750 597 1062 519 
Q 1375 441 1716 441 
Q 2309 441 2620 675 
Q 2931 909 2931 1356 
Q 2931 1769 2642 2001 
Q 2353 2234 1838 2234 
L 1294 2234 
L 1294 2753 
L 1863 2753 
Q 2328 2753 2575 2939 
Q 2822 3125 2822 3475 
Q 2822 3834 2567 4026 
Q 2313 4219 1838 4219 
Q 1578 4219 1281 4162 
Q 984 4106 628 3988 
L 628 4550 
Q 988 4650 1302 4700 
Q 1616 4750 1894 4750 
Q 2613 4750 3031 4423 
Q 3450 4097 3450 3541 
Q 3450 3153 3228 2886 
Q 3006 2619 2597 2516 
z
" transform="scale(0.015625)"/>
        <path id="DejaVuSans-d7" d="M 4488 3438 
L 3059 2003 
L 4488 575 
L 4116 197 
L 2681 1631 
L 1247 197 
L 878 575 
L 2303 2003 
L 878 3438 
L 1247 3816 
L 2681 2381 
L 4116 3816 
L 4488 3438 
z
" transform="scale(0.015625)"/>
       </defs>
       <use xlink:href="#DejaVuSans-33" transform="translate(0 0.765625)"/>
       <use xlink:href="#DejaVuSans-d7" transform="translate(83.105469 0.765625)"/>
       <use xlink:href="#DejaVuSans-31" transform="translate(186.376953 0.765625)"/>
       <use xlink:href="#DejaVuSans-30" transform="translate(250 0.765625)"/>
       <use xlink:href="#DejaVuSans-2212" transform="translate(314.580078 39.046875) scale(0.7)"/>
       <use xlink:href="#DejaVuSans-31" transform="translate(373.232422 39.046875) scale(0.7)"/>
       <use xlink:href="#DejaVuSans-33" transform="translate(417.768555 39.046875) scale(0.7)"/>
      </g>
     </g>
    </g>
    <g id="ytick_3">
     <g id="line2d_26">
      <g>
       <use xlink:href="#md04c9d2e66" x="77.371281" y="135.723617" style="stroke: #000000; stroke-width: 0.6"/>
      </g>
     </g>
     <g id="text_3">
      <!-- $\mathdefault{4\times10^{-13}}$ -->
      <g transform="translate(25.371281 139.522836) scale(0.1 -0.1)">
       <defs>
        <path id="DejaVuSans-34" d="M 2419 4116 
L 825 1625 
L 2419 1625 
L 2419 4116 
z
M 2253 4666 
L 3047 4666 
L 3047 1625 
L 3713 1625 
L 3713 1100 
L 3047 1100 
L 3047 0 
L 2419 0 
L 2419 1100 
L 313 1100 
L 313 1709 
L 2253 4666 
z
" transform="scale(0.015625)"/>
       </defs>
       <use xlink:href="#DejaVuSans-34" transform="translate(0 0.765625)"/>
       <use xlink:href="#DejaVuSans-d7" transform="translate(83.105469 0.765625)"/>
       <use xlink:href="#DejaVuSans-31" transform="translate(186.376953 0.765625)"/>
       <use xlink:href="#DejaVuSans-30" transform="translate(250 0.765625)"/>
       <use xlink:href="#DejaVuSans-2212" transform="translate(314.580078 39.046875) scale(0.7)"/>
       <use xlink:href="#DejaVuSans-31" transform="translate(373.232422 39.046875) scale(0.7)"/>
       <use xlink:href="#DejaVuSans-33" transform="translate(417.768555 39.046875) scale(0.7)"/>
      </g>
     </g>
    </g>
    <g id="ytick_4">
     <g id="line2d_27">
      <g>
       <use xlink:href="#md04c9d2e66" x="77.371281" y="117.839897" style="stroke: #000000; stroke-width: 0.6"/>
      </g>
     </g>
    </g>
    <g id="ytick_5">
     <g id="line2d_28">
      <g>
       <use xlink:href="#md04c9d2e66" x="77.371281" y="103.227833" style="stroke: #000000; stroke-width: 0.6"/>
      </g>
     </g>
     <g id="text_4">
      <!-- $\mathdefault{6\times10^{-13}}$ -->
      <g transform="translate(25.371281 107.027052) scale(0.1 -0.1)">
       <defs>
        <path id="DejaVuSans-36" d="M 2113 2584 
Q 1688 2584 1439 2293 
Q 1191 2003 1191 1497 
Q 1191 994 1439 701 
Q 1688 409 2113 409 
Q 2538 409 2786 701 
Q 3034 994 3034 1497 
Q 3034 2003 2786 2293 
Q 2538 2584 2113 2584 
z
M 3366 4563 
L 3366 3988 
Q 3128 4100 2886 4159 
Q 2644 4219 2406 4219 
Q 1781 4219 1451 3797 
Q 1122 3375 1075 2522 
Q 1259 2794 1537 2939 
Q 1816 3084 2150 3084 
Q 2853 3084 3261 2657 
Q 3669 2231 3669 1497 
Q 3669 778 3244 343 
Q 2819 -91 2113 -91 
Q 1303 -91 875 529 
Q 447 1150 447 2328 
Q 447 3434 972 4092 
Q 1497 4750 2381 4750 
Q 2619 4750 2861 4703 
Q 3103 4656 3366 4563 
z
" transform="scale(0.015625)"/>
       </defs>
       <use xlink:href="#DejaVuSans-36" transform="translate(0 0.765625)"/>
       <use xlink:href="#DejaVuSans-d7" transform="translate(83.105469 0.765625)"/>
       <use xlink:href="#DejaVuSans-31" transform="translate(186.376953 0.765625)"/>
       <use xlink:href="#DejaVuSans-30" transform="translate(250 0.765625)"/>
       <use xlink:href="#DejaVuSans-2212" transform="translate(314.580078 39.046875) scale(0.7)"/>
       <use xlink:href="#DejaVuSans-31" transform="translate(373.232422 39.046875) scale(0.7)"/>
       <use xlink:href="#DejaVuSans-33" transform="translate(417.768555 39.046875) scale(0.7)"/>
      </g>
     </g>
    </g>
    <g id="ytick_6">
     <g id="line2d_29">
      <g>
       <use xlink:href="#md04c9d2e66" x="77.371281" y="90.873509" style="stroke: #000000; stroke-width: 0.6"/>
      </g>
     </g>
    </g>
    <g id="ytick_7">
     <g id="line2d_30">
      <g>
       <use xlink:href="#md04c9d2e66" x="77.371281" y="80.171707" style="stroke: #000000; stroke-width: 0.6"/>
      </g>
     </g>
    </g>
    <g id="ytick_8">
     <g id="line2d_31">
      <g>
       <use xlink:href="#md04c9d2e66" x="77.371281" y="70.732049" style="stroke: #000000; stroke-width: 0.6"/>
      </g>
     </g>
    </g>
    <g id="text_5">
     <!-- e2 * dnde [TeV / (cm2 s)] -->
     <g transform="translate(19.291593 170.416088) rotate(-90) scale(0.1 -0.1)">
      <defs>
       <path id="DejaVuSans-65" d="M 3597 1894 
L 3597 1613 
L 953 1613 
Q 991 1019 1311 708 
Q 1631 397 2203 397 
Q 2534 397 2845 478 
Q 3156 559 3463 722 
L 3463 178 
Q 3153 47 2828 -22 
Q 2503 -91 2169 -91 
Q 1331 -91 842 396 
Q 353 884 353 1716 
Q 353 2575 817 3079 
Q 1281 3584 2069 3584 
Q 2775 3584 3186 3129 
Q 3597 2675 3597 1894 
z
M 3022 2063 
Q 3016 2534 2758 2815 
Q 2500 3097 2075 3097 
Q 1594 3097 1305 2825 
Q 1016 2553 972 2059 
L 3022 2063 
z
" transform="scale(0.015625)"/>
       <path id="DejaVuSans-20" transform="scale(0.015625)"/>
       <path id="DejaVuSans-2a" d="M 3009 3897 
L 1888 3291 
L 3009 2681 
L 2828 2375 
L 1778 3009 
L 1778 1831 
L 1422 1831 
L 1422 3009 
L 372 2375 
L 191 2681 
L 1313 3291 
L 191 3897 
L 372 4206 
L 1422 3572 
L 1422 4750 
L 1778 4750 
L 1778 3572 
L 2828 4206 
L 3009 3897 
z
" transform="scale(0.015625)"/>
       <path id="DejaVuSans-64" d="M 2906 2969 
L 2906 4863 
L 3481 4863 
L 3481 0 
L 2906 0 
L 2906 525 
Q 2725 213 2448 61 
Q 2172 -91 1784 -91 
Q 1150 -91 751 415 
Q 353 922 353 1747 
Q 353 2572 751 3078 
Q 1150 3584 1784 3584 
Q 2172 3584 2448 3432 
Q 2725 3281 2906 2969 
z
M 947 1747 
Q 947 1113 1208 752 
Q 1469 391 1925 391 
Q 2381 391 2643 752 
Q 2906 1113 2906 1747 
Q 2906 2381 2643 2742 
Q 2381 3103 1925 3103 
Q 1469 3103 1208 2742 
Q 947 2381 947 1747 
z
" transform="scale(0.015625)"/>
       <path id="DejaVuSans-6e" d="M 3513 2113 
L 3513 0 
L 2938 0 
L 2938 2094 
Q 2938 2591 2744 2837 
Q 2550 3084 2163 3084 
Q 1697 3084 1428 2787 
Q 1159 2491 1159 1978 
L 1159 0 
L 581 0 
L 581 3500 
L 1159 3500 
L 1159 2956 
Q 1366 3272 1645 3428 
Q 1925 3584 2291 3584 
Q 2894 3584 3203 3211 
Q 3513 2838 3513 2113 
z
" transform="scale(0.015625)"/>
       <path id="DejaVuSans-5b" d="M 550 4863 
L 1875 4863 
L 1875 4416 
L 1125 4416 
L 1125 -397 
L 1875 -397 
L 1875 -844 
L 550 -844 
L 550 4863 
z
" transform="scale(0.015625)"/>
       <path id="DejaVuSans-54" d="M -19 4666 
L 3928 4666 
L 3928 4134 
L 2272 4134 
L 2272 0 
L 1638 0 
L 1638 4134 
L -19 4134 
L -19 4666 
z
" transform="scale(0.015625)"/>
       <path id="DejaVuSans-56" d="M 1831 0 
L 50 4666 
L 709 4666 
L 2188 738 
L 3669 4666 
L 4325 4666 
L 2547 0 
L 1831 0 
z
" transform="scale(0.015625)"/>
       <path id="DejaVuSans-2f" d="M 1625 4666 
L 2156 4666 
L 531 -594 
L 0 -594 
L 1625 4666 
z
" transform="scale(0.015625)"/>
       <path id="DejaVuSans-28" d="M 1984 4856 
Q 1566 4138 1362 3434 
Q 1159 2731 1159 2009 
Q 1159 1288 1364 580 
Q 1569 -128 1984 -844 
L 1484 -844 
Q 1016 -109 783 600 
Q 550 1309 550 2009 
Q 550 2706 781 3412 
Q 1013 4119 1484 4856 
L 1984 4856 
z
" transform="scale(0.015625)"/>
       <path id="DejaVuSans-63" d="M 3122 3366 
L 3122 2828 
Q 2878 2963 2633 3030 
Q 2388 3097 2138 3097 
Q 1578 3097 1268 2742 
Q 959 2388 959 1747 
Q 959 1106 1268 751 
Q 1578 397 2138 397 
Q 2388 397 2633 464 
Q 2878 531 3122 666 
L 3122 134 
Q 2881 22 2623 -34 
Q 2366 -91 2075 -91 
Q 1284 -91 818 406 
Q 353 903 353 1747 
Q 353 2603 823 3093 
Q 1294 3584 2113 3584 
Q 2378 3584 2631 3529 
Q 2884 3475 3122 3366 
z
" transform="scale(0.015625)"/>
       <path id="DejaVuSans-6d" d="M 3328 2828 
Q 3544 3216 3844 3400 
Q 4144 3584 4550 3584 
Q 5097 3584 5394 3201 
Q 5691 2819 5691 2113 
L 5691 0 
L 5113 0 
L 5113 2094 
Q 5113 2597 4934 2840 
Q 4756 3084 4391 3084 
Q 3944 3084 3684 2787 
Q 3425 2491 3425 1978 
L 3425 0 
L 2847 0 
L 2847 2094 
Q 2847 2600 2669 2842 
Q 2491 3084 2119 3084 
Q 1678 3084 1418 2786 
Q 1159 2488 1159 1978 
L 1159 0 
L 581 0 
L 581 3500 
L 1159 3500 
L 1159 2956 
Q 1356 3278 1631 3431 
Q 1906 3584 2284 3584 
Q 2666 3584 2933 3390 
Q 3200 3197 3328 2828 
z
" transform="scale(0.015625)"/>
       <path id="DejaVuSans-73" d="M 2834 3397 
L 2834 2853 
Q 2591 2978 2328 3040 
Q 2066 3103 1784 3103 
Q 1356 3103 1142 2972 
Q 928 2841 928 2578 
Q 928 2378 1081 2264 
Q 1234 2150 1697 2047 
L 1894 2003 
Q 2506 1872 2764 1633 
Q 3022 1394 3022 966 
Q 3022 478 2636 193 
Q 2250 -91 1575 -91 
Q 1294 -91 989 -36 
Q 684 19 347 128 
L 347 722 
Q 666 556 975 473 
Q 1284 391 1588 391 
Q 1994 391 2212 530 
Q 2431 669 2431 922 
Q 2431 1156 2273 1281 
Q 2116 1406 1581 1522 
L 1381 1569 
Q 847 1681 609 1914 
Q 372 2147 372 2553 
Q 372 3047 722 3315 
Q 1072 3584 1716 3584 
Q 2034 3584 2315 3537 
Q 2597 3491 2834 3397 
z
" transform="scale(0.015625)"/>
       <path id="DejaVuSans-29" d="M 513 4856 
L 1013 4856 
Q 1481 4119 1714 3412 
Q 1947 2706 1947 2009 
Q 1947 1309 1714 600 
Q 1481 -109 1013 -844 
L 513 -844 
Q 928 -128 1133 580 
Q 1338 1288 1338 2009 
Q 1338 2731 1133 3434 
Q 928 4138 513 4856 
z
" transform="scale(0.015625)"/>
       <path id="DejaVuSans-5d" d="M 1947 4863 
L 1947 -844 
L 622 -844 
L 622 -397 
L 1369 -397 
L 1369 4416 
L 622 4416 
L 622 4863 
L 1947 4863 
z
" transform="scale(0.015625)"/>
      </defs>
      <use xlink:href="#DejaVuSans-65"/>
      <use xlink:href="#DejaVuSans-32" x="61.523438"/>
      <use xlink:href="#DejaVuSans-20" x="125.146484"/>
      <use xlink:href="#DejaVuSans-2a" x="156.933594"/>
      <use xlink:href="#DejaVuSans-20" x="206.933594"/>
      <use xlink:href="#DejaVuSans-64" x="238.720703"/>
      <use xlink:href="#DejaVuSans-6e" x="302.197266"/>
      <use xlink:href="#DejaVuSans-64" x="365.576172"/>
      <use xlink:href="#DejaVuSans-65" x="429.052734"/>
      <use xlink:href="#DejaVuSans-20" x="490.576172"/>
      <use xlink:href="#DejaVuSans-5b" x="522.363281"/>
      <use xlink:href="#DejaVuSans-54" x="561.376953"/>
      <use xlink:href="#DejaVuSans-65" x="605.460938"/>
      <use xlink:href="#DejaVuSans-56" x="666.984375"/>
      <use xlink:href="#DejaVuSans-20" x="735.392578"/>
      <use xlink:href="#DejaVuSans-2f" x="767.179688"/>
      <use xlink:href="#DejaVuSans-20" x="800.871094"/>
      <use xlink:href="#DejaVuSans-28" x="832.658203"/>
      <use xlink:href="#DejaVuSans-63" x="871.671875"/>
      <use xlink:href="#DejaVuSans-6d" x="926.652344"/>
      <use xlink:href="#DejaVuSans-32" x="1024.064453"/>
      <use xlink:href="#DejaVuSans-20" x="1087.6875"/>
      <use xlink:href="#DejaVuSans-73" x="1119.474609"/>
      <use xlink:href="#DejaVuSans-29" x="1171.574219"/>
      <use xlink:href="#DejaVuSans-5d" x="1210.587891"/>
     </g>
    </g>
   </g>
   <g id="LineCollection_1">
    <path d="M 89.727132 60.165243 
L 89.727132 33.619333 
" clip-path="url(#p4a3bd07c12)" style="fill: none; stroke: #00008b; stroke-opacity: 0.7; stroke-width: 1.5"/>
    <path d="M 104.263427 65.849418 
L 104.263427 41.042696 
" clip-path="url(#p4a3bd07c12)" style="fill: none; stroke: #00008b; stroke-opacity: 0.7; stroke-width: 1.5"/>
    <path d="M 118.799722 71.667706 
L 118.799722 48.335865 
" clip-path="url(#p4a3bd07c12)" style="fill: none; stroke: #00008b; stroke-opacity: 0.7; stroke-width: 1.5"/>
    <path d="M 133.336017 77.64163 
L 133.336017 55.476347 
" clip-path="url(#p4a3bd07c12)" style="fill: none; stroke: #00008b; stroke-opacity: 0.7; stroke-width: 1.5"/>
    <path d="M 147.872312 83.792399 
L 147.872312 62.442156 
" clip-path="url(#p4a3bd07c12)" style="fill: none; stroke: #00008b; stroke-opacity: 0.7; stroke-width: 1.5"/>
    <path d="M 162.408608 90.137358 
L 162.408608 69.215357 
" clip-path="url(#p4a3bd07c12)" style="fill: none; stroke: #00008b; stroke-opacity: 0.7; stroke-width: 1.5"/>
    <path d="M 176.944903 96.686107 
L 176.944903 75.785944 
" clip-path="url(#p4a3bd07c12)" style="fill: none; stroke: #00008b; stroke-opacity: 0.7; stroke-width: 1.5"/>
    <path d="M 191.481198 103.437901 
L 191.481198 82.154433 
" clip-path="url(#p4a3bd07c12)" style="fill: none; stroke: #00008b; stroke-opacity: 0.7; stroke-width: 1.5"/>
    <path d="M 206.017493 110.381708 
L 206.017493 88.331807 
" clip-path="url(#p4a3bd07c12)" style="fill: none; stroke: #00008b; stroke-opacity: 0.7; stroke-width: 1.5"/>
    <path d="M 220.553788 117.498884 
L 220.553788 94.336837 
" clip-path="url(#p4a3bd07c12)" style="fill: none; stroke: #00008b; stroke-opacity: 0.7; stroke-width: 1.5"/>
    <path d="M 235.090083 124.767103 
L 235.090083 100.192156 
" clip-path="url(#p4a3bd07c12)" style="fill: none; stroke: #00008b; stroke-opacity: 0.7; stroke-width: 1.5"/>
    <path d="M 249.626378 132.163904 
L 249.626378 105.920714 
" clip-path="url(#p4a3bd07c12)" style="fill: none; stroke: #00008b; stroke-opacity: 0.7; stroke-width: 1.5"/>
    <path d="M 264.162673 139.66901 
L 264.162673 111.543461 
" clip-path="url(#p4a3bd07c12)" style="fill: none; stroke: #00008b; stroke-opacity: 0.7; stroke-width: 1.5"/>
    <path d="M 278.698969 147.265392 
L 278.698969 117.078291 
" clip-path="url(#p4a3bd07c12)" style="fill: none; stroke: #00008b; stroke-opacity: 0.7; stroke-width: 1.5"/>
    <path d="M 293.235264 154.939465 
L 293.235264 122.539853 
" clip-path="url(#p4a3bd07c12)" style="fill: none; stroke: #00008b; stroke-opacity: 0.7; stroke-width: 1.5"/>
    <path d="M 307.771559 162.680815 
L 307.771559 127.939838 
" clip-path="url(#p4a3bd07c12)" style="fill: none; stroke: #00008b; stroke-opacity: 0.7; stroke-width: 1.5"/>
    <path d="M 322.307854 170.481751 
L 322.307854 133.287428 
" clip-path="url(#p4a3bd07c12)" style="fill: none; stroke: #00008b; stroke-opacity: 0.7; stroke-width: 1.5"/>
    <path d="M 336.844149 178.336848 
L 336.844149 138.589778 
" clip-path="url(#p4a3bd07c12)" style="fill: none; stroke: #00008b; stroke-opacity: 0.7; stroke-width: 1.5"/>
   </g>
   <g id="line2d_32">
    <path d="M 90.962717 45.575632 
L 93.433887 46.752071 
L 95.905057 47.92851 
L 98.376227 49.104949 
L 100.847398 50.281388 
L 103.318568 51.457827 
L 105.789738 52.634266 
L 108.260908 53.810705 
L 110.732078 54.987144 
L 113.203248 56.163583 
L 115.674419 57.340022 
L 118.145589 58.516461 
L 120.616759 59.6929 
L 123.087929 60.869339 
L 125.559099 62.045778 
L 128.03027 63.222217 
L 130.50144 64.398656 
L 132.97261 65.575095 
L 135.44378 66.751534 
L 137.91495 67.927973 
L 140.38612 69.104412 
L 142.857291 70.280851 
L 145.328461 71.45729 
L 147.799631 72.633729 
L 150.270801 73.810168 
L 152.741971 74.986607 
L 155.213141 76.163046 
L 157.684312 77.339485 
L 160.155482 78.515924 
L 162.626652 79.692363 
L 165.097822 80.868802 
L 167.568992 82.045241 
L 170.040162 83.22168 
L 172.511333 84.398119 
L 174.982503 85.574558 
L 177.453673 86.750997 
L 179.924843 87.927436 
L 182.396013 89.103875 
L 184.867183 90.280314 
L 187.338354 91.456753 
L 189.809524 92.633192 
L 192.280694 93.809631 
L 194.751864 94.98607 
L 197.223034 96.162509 
L 199.694205 97.338948 
L 202.165375 98.515387 
L 204.636545 99.691826 
L 207.107715 100.868265 
L 209.578885 102.044704 
L 212.050055 103.221143 
L 214.521226 104.397582 
L 216.992396 105.574021 
L 219.463566 106.75046 
L 221.934736 107.926899 
L 224.405906 109.103338 
L 226.877076 110.279777 
L 229.348247 111.456216 
L 231.819417 112.632655 
L 234.290587 113.809094 
L 236.761757 114.985534 
L 239.232927 116.161973 
L 241.704097 117.338412 
L 244.175268 118.514851 
L 246.646438 119.69129 
L 249.117608 120.867729 
L 251.588778 122.044168 
L 254.059948 123.220607 
L 256.531119 124.397046 
L 259.002289 125.573485 
L 261.473459 126.749924 
L 263.944629 127.926363 
L 266.415799 129.102802 
L 268.886969 130.279241 
L 271.35814 131.45568 
L 273.82931 132.632119 
L 276.30048 133.808558 
L 278.77165 134.984997 
L 281.24282 136.161436 
L 283.71399 137.337875 
L 286.185161 138.514314 
L 288.656331 139.690753 
L 291.127501 140.867192 
L 293.598671 142.043631 
L 296.069841 143.22007 
L 298.541011 144.396509 
L 301.012182 145.572948 
L 303.483352 146.749387 
L 305.954522 147.925826 
L 308.425692 149.102265 
L 310.896862 150.278704 
L 313.368032 151.455143 
L 315.839203 152.631582 
L 318.310373 153.808021 
L 320.781543 154.98446 
L 323.252713 156.160899 
L 325.723883 157.337338 
L 328.195054 158.513777 
L 330.666224 159.690216 
L 333.137394 160.866655 
L 335.608564 162.043094 
" clip-path="url(#p4a3bd07c12)" style="fill: none; stroke: #008000; stroke-width: 1.5; stroke-linecap: square"/>
   </g>
   <g id="line2d_33">
    <path d="M 90.962717 45.575632 
L 93.433887 46.752071 
L 95.905057 47.92851 
L 98.376227 49.104949 
L 100.847398 50.281388 
L 103.318568 51.457827 
L 105.789738 52.634266 
L 108.260908 53.810705 
L 110.732078 54.987144 
L 113.203248 56.163583 
L 115.674419 57.340022 
L 118.145589 58.516461 
L 120.616759 59.6929 
L 123.087929 60.869339 
L 125.559099 62.045778 
L 128.03027 63.222217 
L 130.50144 64.398656 
L 132.97261 65.575095 
L 135.44378 66.751534 
L 137.91495 67.927973 
L 140.38612 69.104412 
L 142.857291 70.280851 
L 145.328461 71.45729 
L 147.799631 72.633729 
L 150.270801 73.810168 
L 152.741971 74.986607 
L 155.213141 76.163046 
L 157.684312 77.339485 
L 160.155482 78.515924 
L 162.626652 79.692363 
L 165.097822 80.868802 
L 167.568992 82.045241 
L 170.040162 83.22168 
L 172.511333 84.398119 
L 174.982503 85.574558 
L 177.453673 86.750997 
L 179.924843 87.927436 
L 182.396013 89.103875 
L 184.867183 90.280314 
L 187.338354 91.456753 
L 189.809524 92.633192 
L 192.280694 93.809631 
L 194.751864 94.98607 
L 197.223034 96.162509 
L 199.694205 97.338948 
L 202.165375 98.515387 
L 204.636545 99.691826 
L 207.107715 100.868265 
L 209.578885 102.044704 
L 212.050055 103.221143 
L 214.521226 104.397582 
L 216.992396 105.574021 
L 219.463566 106.75046 
L 221.934736 107.926899 
L 224.405906 109.103338 
L 226.877076 110.279777 
L 229.348247 111.456216 
L 231.819417 112.632655 
L 234.290587 113.809094 
L 236.761757 114.985534 
L 239.232927 116.161973 
L 241.704097 117.338412 
L 244.175268 118.514851 
L 246.646438 119.69129 
L 249.117608 120.867729 
L 251.588778 122.044168 
L 254.059948 123.220607 
L 256.531119 124.397046 
L 259.002289 125.573485 
L 261.473459 126.749924 
L 263.944629 127.926363 
L 266.415799 129.102802 
L 268.886969 130.279241 
L 271.35814 131.45568 
L 273.82931 132.632119 
L 276.30048 133.808558 
L 278.77165 134.984997 
L 281.24282 136.161436 
L 283.71399 137.337875 
L 286.185161 138.514314 
L 288.656331 139.690753 
L 291.127501 140.867192 
L 293.598671 142.043631 
L 296.069841 143.22007 
L 298.541011 144.396509 
L 301.012182 145.572948 
L 303.483352 146.749387 
L 305.954522 147.925826 
L 308.425692 149.102265 
L 310.896862 150.278704 
L 313.368032 151.455143 
L 315.839203 152.631582 
L 318.310373 153.808021 
L 320.781543 154.98446 
L 323.252713 156.160899 
L 325.723883 157.337338 
L 328.195054 158.513777 
L 330.666224 159.690216 
L 333.137394 160.866655 
L 335.608564 162.043094 
" clip-path="url(#p4a3bd07c12)" style="fill: none; stroke: #ff0000; stroke-width: 1.5; stroke-linecap: square"/>
   </g>
   <g id="line2d_34">
    <path d="M 90.962717 45.575632 
L 93.433887 46.752071 
L 95.905057 47.92851 
L 98.376227 49.104949 
L 100.847398 50.281388 
L 103.318568 51.457827 
L 105.789738 52.634266 
L 108.260908 53.810705 
L 110.732078 54.987144 
L 113.203248 56.163583 
L 115.674419 57.340022 
L 118.145589 58.516461 
L 120.616759 59.6929 
L 123.087929 60.869339 
L 125.559099 62.045778 
L 128.03027 63.222217 
L 130.50144 64.398656 
L 132.97261 65.575095 
L 135.44378 66.751534 
L 137.91495 67.927973 
L 140.38612 69.104412 
L 142.857291 70.280851 
L 145.328461 71.45729 
L 147.799631 72.633729 
L 150.270801 73.810168 
L 152.741971 74.986607 
L 155.213141 76.163046 
L 157.684312 77.339485 
L 160.155482 78.515924 
L 162.626652 79.692363 
L 165.097822 80.868802 
L 167.568992 82.045241 
L 170.040162 83.22168 
L 172.511333 84.398119 
L 174.982503 85.574558 
L 177.453673 86.750997 
L 179.924843 87.927436 
L 182.396013 89.103875 
L 184.867183 90.280314 
L 187.338354 91.456753 
L 189.809524 92.633192 
L 192.280694 93.809631 
L 194.751864 94.98607 
L 197.223034 96.162509 
L 199.694205 97.338948 
L 202.165375 98.515387 
L 204.636545 99.691826 
L 207.107715 100.868265 
L 209.578885 102.044704 
L 212.050055 103.221143 
L 214.521226 104.397582 
L 216.992396 105.574021 
L 219.463566 106.75046 
L 221.934736 107.926899 
L 224.405906 109.103338 
L 226.877076 110.279777 
L 229.348247 111.456216 
L 231.819417 112.632655 
L 234.290587 113.809094 
L 236.761757 114.985534 
L 239.232927 116.161973 
L 241.704097 117.338412 
L 244.175268 118.514851 
L 246.646438 119.69129 
L 249.117608 120.867729 
L 251.588778 122.044168 
L 254.059948 123.220607 
L 256.531119 124.397046 
L 259.002289 125.573485 
L 261.473459 126.749924 
L 263.944629 127.926363 
L 266.415799 129.102802 
L 268.886969 130.279241 
L 271.35814 131.45568 
L 273.82931 132.632119 
L 276.30048 133.808558 
L 278.77165 134.984997 
L 281.24282 136.161436 
L 283.71399 137.337875 
L 286.185161 138.514314 
L 288.656331 139.690753 
L 291.127501 140.867192 
L 293.598671 142.043631 
L 296.069841 143.22007 
L 298.541011 144.396509 
L 301.012182 145.572948 
L 303.483352 146.749387 
L 305.954522 147.925826 
L 308.425692 149.102265 
L 310.896862 150.278704 
L 313.368032 151.455143 
L 315.839203 152.631582 
L 318.310373 153.808021 
L 320.781543 154.98446 
L 323.252713 156.160899 
L 325.723883 157.337338 
L 328.195054 158.513777 
L 330.666224 159.690216 
L 333.137394 160.866655 
L 335.608564 162.043094 
" clip-path="url(#p4a3bd07c12)" style="fill: none; stroke-dasharray: 1.5,2.475; stroke-dashoffset: 0; stroke: #000000; stroke-width: 1.5"/>
   </g>
   <g id="line2d_35">
    <path d="M 89.727132 45.79819 
L 104.263427 52.490076 
L 118.799722 59.155714 
L 133.336017 65.795146 
L 147.872312 72.408415 
L 162.408608 78.995567 
L 176.944903 85.556651 
L 191.481198 92.091719 
L 206.017493 98.600822 
L 220.553788 105.084017 
L 235.090083 111.541361 
L 249.626378 117.972912 
L 264.162673 124.378733 
L 278.698969 130.758885 
L 293.235264 137.113434 
L 307.771559 143.442445 
L 322.307854 149.745986 
L 336.844149 156.024125 
" clip-path="url(#p4a3bd07c12)" style="fill: none; stroke: #00008b; stroke-opacity: 0.7; stroke-width: 1.5; stroke-linecap: square"/>
   </g>
   <g id="patch_3">
    <path d="M 77.371281 190.4328 
L 77.371281 25.44 
" style="fill: none; stroke: #000000; stroke-width: 0.8; stroke-linejoin: miter; stroke-linecap: square"/>
   </g>
   <g id="patch_4">
    <path d="M 349.2 190.4328 
L 349.2 25.44 
" style="fill: none; stroke: #000000; stroke-width: 0.8; stroke-linejoin: miter; stroke-linecap: square"/>
   </g>
   <g id="patch_5">
    <path d="M 77.371281 190.4328 
L 349.2 190.4328 
" style="fill: none; stroke: #000000; stroke-width: 0.8; stroke-linejoin: miter; stroke-linecap: square"/>
   </g>
   <g id="patch_6">
    <path d="M 77.371281 25.44 
L 349.2 25.44 
" style="fill: none; stroke: #000000; stroke-width: 0.8; stroke-linejoin: miter; stroke-linecap: square"/>
   </g>
   <g id="text_6">
    <!-- N = 1000 (p = 5.2%) -->
    <g transform="translate(150.20314 19.44) scale(0.12 -0.12)">
     <defs>
      <path id="DejaVuSans-4e" d="M 628 4666 
L 1478 4666 
L 3547 763 
L 3547 4666 
L 4159 4666 
L 4159 0 
L 3309 0 
L 1241 3903 
L 1241 0 
L 628 0 
L 628 4666 
z
" transform="scale(0.015625)"/>
      <path id="DejaVuSans-3d" d="M 678 2906 
L 4684 2906 
L 4684 2381 
L 678 2381 
L 678 2906 
z
M 678 1631 
L 4684 1631 
L 4684 1100 
L 678 1100 
L 678 1631 
z
" transform="scale(0.015625)"/>
      <path id="DejaVuSans-70" d="M 1159 525 
L 1159 -1331 
L 581 -1331 
L 581 3500 
L 1159 3500 
L 1159 2969 
Q 1341 3281 1617 3432 
Q 1894 3584 2278 3584 
Q 2916 3584 3314 3078 
Q 3713 2572 3713 1747 
Q 3713 922 3314 415 
Q 2916 -91 2278 -91 
Q 1894 -91 1617 61 
Q 1341 213 1159 525 
z
M 3116 1747 
Q 3116 2381 2855 2742 
Q 2594 3103 2138 3103 
Q 1681 3103 1420 2742 
Q 1159 2381 1159 1747 
Q 1159 1113 1420 752 
Q 1681 391 2138 391 
Q 2594 391 2855 752 
Q 3116 1113 3116 1747 
z
" transform="scale(0.015625)"/>
      <path id="DejaVuSans-35" d="M 691 4666 
L 3169 4666 
L 3169 4134 
L 1269 4134 
L 1269 2991 
Q 1406 3038 1543 3061 
Q 1681 3084 1819 3084 
Q 2600 3084 3056 2656 
Q 3513 2228 3513 1497 
Q 3513 744 3044 326 
Q 2575 -91 1722 -91 
Q 1428 -91 1123 -41 
Q 819 9 494 109 
L 494 744 
Q 775 591 1075 516 
Q 1375 441 1709 441 
Q 2250 441 2565 725 
Q 2881 1009 2881 1497 
Q 2881 1984 2565 2268 
Q 2250 2553 1709 2553 
Q 1456 2553 1204 2497 
Q 953 2441 691 2322 
L 691 4666 
z
" transform="scale(0.015625)"/>
      <path id="DejaVuSans-2e" d="M 684 794 
L 1344 794 
L 1344 0 
L 684 0 
L 684 794 
z
" transform="scale(0.015625)"/>
      <path id="DejaVuSans-25" d="M 4653 2053 
Q 4381 2053 4226 1822 
Q 4072 1591 4072 1178 
Q 4072 772 4226 539 
Q 4381 306 4653 306 
Q 4919 306 5073 539 
Q 5228 772 5228 1178 
Q 5228 1588 5073 1820 
Q 4919 2053 4653 2053 
z
M 4653 2450 
Q 5147 2450 5437 2106 
Q 5728 1763 5728 1178 
Q 5728 594 5436 251 
Q 5144 -91 4653 -91 
Q 4153 -91 3862 251 
Q 3572 594 3572 1178 
Q 3572 1766 3864 2108 
Q 4156 2450 4653 2450 
z
M 1428 4353 
Q 1159 4353 1004 4120 
Q 850 3888 850 3481 
Q 850 3069 1003 2837 
Q 1156 2606 1428 2606 
Q 1700 2606 1854 2837 
Q 2009 3069 2009 3481 
Q 2009 3884 1853 4118 
Q 1697 4353 1428 4353 
z
M 4250 4750 
L 4750 4750 
L 1831 -91 
L 1331 -91 
L 4250 4750 
z
M 1428 4750 
Q 1922 4750 2215 4408 
Q 2509 4066 2509 3481 
Q 2509 2891 2217 2550 
Q 1925 2209 1428 2209 
Q 931 2209 642 2551 
Q 353 2894 353 3481 
Q 353 4063 643 4406 
Q 934 4750 1428 4750 
z
" transform="scale(0.015625)"/>
     </defs>
     <use xlink:href="#DejaVuSans-4e"/>
     <use xlink:href="#DejaVuSans-20" x="74.804688"/>
     <use xlink:href="#DejaVuSans-3d" x="106.591797"/>
     <use xlink:href="#DejaVuSans-20" x="190.380859"/>
     <use xlink:href="#DejaVuSans-31" x="222.167969"/>
     <use xlink:href="#DejaVuSans-30" x="285.791016"/>
     <use xlink:href="#DejaVuSans-30" x="349.414062"/>
     <use xlink:href="#DejaVuSans-30" x="413.037109"/>
     <use xlink:href="#DejaVuSans-20" x="476.660156"/>
     <use xlink:href="#DejaVuSans-28" x="508.447266"/>
     <use xlink:href="#DejaVuSans-70" x="547.460938"/>
     <use xlink:href="#DejaVuSans-20" x="610.9375"/>
     <use xlink:href="#DejaVuSans-3d" x="642.724609"/>
     <use xlink:href="#DejaVuSans-20" x="726.513672"/>
     <use xlink:href="#DejaVuSans-35" x="758.300781"/>
     <use xlink:href="#DejaVuSans-2e" x="821.923828"/>
     <use xlink:href="#DejaVuSans-32" x="853.710938"/>
     <use xlink:href="#DejaVuSans-25" x="917.333984"/>
     <use xlink:href="#DejaVuSans-29" x="1012.353516"/>
    </g>
   </g>
   <g id="legend_1">
    <g id="patch_7">
     <path d="M 241.165625 92.1525 
L 342.2 92.1525 
Q 344.2 92.1525 344.2 90.1525 
L 344.2 32.44 
Q 344.2 30.44 342.2 30.44 
L 241.165625 30.44 
Q 239.165625 30.44 239.165625 32.44 
L 239.165625 90.1525 
Q 239.165625 92.1525 241.165625 92.1525 
z
" style="fill: #ffffff; opacity: 0.8; stroke: #cccccc; stroke-linejoin: miter"/>
    </g>
    <g id="patch_8">
     <path d="M 243.165625 42.038438 
L 263.165625 42.038438 
L 263.165625 35.038438 
L 243.165625 35.038438 
z
" style="fill: #008000; fill-opacity: 0.5"/>
    </g>
    <g id="text_7">
     <!-- $1\sigma$ Standard -->
     <g transform="translate(271.165625 42.038438) scale(0.1 -0.1)">
      <defs>
       <path id="DejaVuSans-Oblique-3c3" d="M 2219 3044 
Q 1744 3044 1422 2700 
Q 1081 2341 969 1747 
Q 844 1119 1044 756 
Q 1241 397 1706 397 
Q 2166 397 2503 759 
Q 2844 1122 2966 1747 
Q 3075 2319 2881 2700 
Q 2700 3044 2219 3044 
z
M 2309 3503 
L 4219 3500 
L 4106 2925 
L 3463 2925 
Q 3706 2438 3575 1747 
Q 3406 888 2884 400 
Q 2359 -91 1609 -91 
Q 856 -91 525 400 
Q 194 888 363 1747 
Q 528 2609 1050 3097 
Q 1484 3503 2309 3503 
z
" transform="scale(0.015625)"/>
       <path id="DejaVuSans-53" d="M 3425 4513 
L 3425 3897 
Q 3066 4069 2747 4153 
Q 2428 4238 2131 4238 
Q 1616 4238 1336 4038 
Q 1056 3838 1056 3469 
Q 1056 3159 1242 3001 
Q 1428 2844 1947 2747 
L 2328 2669 
Q 3034 2534 3370 2195 
Q 3706 1856 3706 1288 
Q 3706 609 3251 259 
Q 2797 -91 1919 -91 
Q 1588 -91 1214 -16 
Q 841 59 441 206 
L 441 856 
Q 825 641 1194 531 
Q 1563 422 1919 422 
Q 2459 422 2753 634 
Q 3047 847 3047 1241 
Q 3047 1584 2836 1778 
Q 2625 1972 2144 2069 
L 1759 2144 
Q 1053 2284 737 2584 
Q 422 2884 422 3419 
Q 422 4038 858 4394 
Q 1294 4750 2059 4750 
Q 2388 4750 2728 4690 
Q 3069 4631 3425 4513 
z
" transform="scale(0.015625)"/>
       <path id="DejaVuSans-74" d="M 1172 4494 
L 1172 3500 
L 2356 3500 
L 2356 3053 
L 1172 3053 
L 1172 1153 
Q 1172 725 1289 603 
Q 1406 481 1766 481 
L 2356 481 
L 2356 0 
L 1766 0 
Q 1100 0 847 248 
Q 594 497 594 1153 
L 594 3053 
L 172 3053 
L 172 3500 
L 594 3500 
L 594 4494 
L 1172 4494 
z
" transform="scale(0.015625)"/>
       <path id="DejaVuSans-61" d="M 2194 1759 
Q 1497 1759 1228 1600 
Q 959 1441 959 1056 
Q 959 750 1161 570 
Q 1363 391 1709 391 
Q 2188 391 2477 730 
Q 2766 1069 2766 1631 
L 2766 1759 
L 2194 1759 
z
M 3341 1997 
L 3341 0 
L 2766 0 
L 2766 531 
Q 2569 213 2275 61 
Q 1981 -91 1556 -91 
Q 1019 -91 701 211 
Q 384 513 384 1019 
Q 384 1609 779 1909 
Q 1175 2209 1959 2209 
L 2766 2209 
L 2766 2266 
Q 2766 2663 2505 2880 
Q 2244 3097 1772 3097 
Q 1472 3097 1187 3025 
Q 903 2953 641 2809 
L 641 3341 
Q 956 3463 1253 3523 
Q 1550 3584 1831 3584 
Q 2591 3584 2966 3190 
Q 3341 2797 3341 1997 
z
" transform="scale(0.015625)"/>
       <path id="DejaVuSans-72" d="M 2631 2963 
Q 2534 3019 2420 3045 
Q 2306 3072 2169 3072 
Q 1681 3072 1420 2755 
Q 1159 2438 1159 1844 
L 1159 0 
L 581 0 
L 581 3500 
L 1159 3500 
L 1159 2956 
Q 1341 3275 1631 3429 
Q 1922 3584 2338 3584 
Q 2397 3584 2469 3576 
Q 2541 3569 2628 3553 
L 2631 2963 
z
" transform="scale(0.015625)"/>
      </defs>
      <use xlink:href="#DejaVuSans-31" transform="translate(0 0.015625)"/>
      <use xlink:href="#DejaVuSans-Oblique-3c3" transform="translate(63.623047 0.015625)"/>
      <use xlink:href="#DejaVuSans-20" transform="translate(127.001953 0.015625)"/>
      <use xlink:href="#DejaVuSans-53" transform="translate(158.789062 0.015625)"/>
      <use xlink:href="#DejaVuSans-74" transform="translate(222.265625 0.015625)"/>
      <use xlink:href="#DejaVuSans-61" transform="translate(261.474609 0.015625)"/>
      <use xlink:href="#DejaVuSans-6e" transform="translate(322.753906 0.015625)"/>
      <use xlink:href="#DejaVuSans-64" transform="translate(386.132812 0.015625)"/>
      <use xlink:href="#DejaVuSans-61" transform="translate(449.609375 0.015625)"/>
      <use xlink:href="#DejaVuSans-72" transform="translate(510.888672 0.015625)"/>
      <use xlink:href="#DejaVuSans-64" transform="translate(552.001953 0.015625)"/>
     </g>
    </g>
    <g id="patch_9">
     <path d="M 243.165625 56.716563 
L 263.165625 56.716563 
L 263.165625 49.716563 
L 243.165625 49.716563 
z
" style="fill: #ff0000; fill-opacity: 0.6"/>
    </g>
    <g id="text_8">
     <!-- $1\sigma$ Nuisance -->
     <g transform="translate(271.165625 56.716563) scale(0.1 -0.1)">
      <defs>
       <path id="DejaVuSans-75" d="M 544 1381 
L 544 3500 
L 1119 3500 
L 1119 1403 
Q 1119 906 1312 657 
Q 1506 409 1894 409 
Q 2359 409 2629 706 
Q 2900 1003 2900 1516 
L 2900 3500 
L 3475 3500 
L 3475 0 
L 2900 0 
L 2900 538 
Q 2691 219 2414 64 
Q 2138 -91 1772 -91 
Q 1169 -91 856 284 
Q 544 659 544 1381 
z
M 1991 3584 
L 1991 3584 
z
" transform="scale(0.015625)"/>
       <path id="DejaVuSans-69" d="M 603 3500 
L 1178 3500 
L 1178 0 
L 603 0 
L 603 3500 
z
M 603 4863 
L 1178 4863 
L 1178 4134 
L 603 4134 
L 603 4863 
z
" transform="scale(0.015625)"/>
      </defs>
      <use xlink:href="#DejaVuSans-31" transform="translate(0 0.015625)"/>
      <use xlink:href="#DejaVuSans-Oblique-3c3" transform="translate(63.623047 0.015625)"/>
      <use xlink:href="#DejaVuSans-20" transform="translate(127.001953 0.015625)"/>
      <use xlink:href="#DejaVuSans-4e" transform="translate(158.789062 0.015625)"/>
      <use xlink:href="#DejaVuSans-75" transform="translate(233.59375 0.015625)"/>
      <use xlink:href="#DejaVuSans-69" transform="translate(296.972656 0.015625)"/>
      <use xlink:href="#DejaVuSans-73" transform="translate(324.755859 0.015625)"/>
      <use xlink:href="#DejaVuSans-61" transform="translate(376.855469 0.015625)"/>
      <use xlink:href="#DejaVuSans-6e" transform="translate(438.134766 0.015625)"/>
      <use xlink:href="#DejaVuSans-63" transform="translate(501.513672 0.015625)"/>
      <use xlink:href="#DejaVuSans-65" transform="translate(556.494141 0.015625)"/>
     </g>
    </g>
    <g id="line2d_36">
     <path d="M 243.165625 67.894688 
L 253.165625 67.894688 
L 263.165625 67.894688 
" style="fill: none; stroke-dasharray: 1.5,2.475; stroke-dashoffset: 0; stroke: #000000; stroke-width: 1.5"/>
    </g>
    <g id="text_9">
     <!-- Input -->
     <g transform="translate(271.165625 71.394688) scale(0.1 -0.1)">
      <defs>
       <path id="DejaVuSans-49" d="M 628 4666 
L 1259 4666 
L 1259 0 
L 628 0 
L 628 4666 
z
" transform="scale(0.015625)"/>
      </defs>
      <use xlink:href="#DejaVuSans-49"/>
      <use xlink:href="#DejaVuSans-6e" x="29.492188"/>
      <use xlink:href="#DejaVuSans-70" x="92.871094"/>
      <use xlink:href="#DejaVuSans-75" x="156.347656"/>
      <use xlink:href="#DejaVuSans-74" x="219.726562"/>
     </g>
    </g>
    <g id="LineCollection_2">
     <path d="M 253.165625 87.572813 
L 253.165625 77.572813 
" style="fill: none; stroke: #00008b; stroke-opacity: 0.7; stroke-width: 1.5"/>
    </g>
    <g id="line2d_37">
     <path d="M 243.165625 82.572813 
L 263.165625 82.572813 
" style="fill: none; stroke: #00008b; stroke-opacity: 0.7; stroke-width: 1.5; stroke-linecap: square"/>
    </g>
    <g id="line2d_38"/>
    <g id="text_10">
     <!-- Mean and Std -->
     <g transform="translate(271.165625 86.072813) scale(0.1 -0.1)">
      <defs>
       <path id="DejaVuSans-4d" d="M 628 4666 
L 1569 4666 
L 2759 1491 
L 3956 4666 
L 4897 4666 
L 4897 0 
L 4281 0 
L 4281 4097 
L 3078 897 
L 2444 897 
L 1241 4097 
L 1241 0 
L 628 0 
L 628 4666 
z
" transform="scale(0.015625)"/>
      </defs>
      <use xlink:href="#DejaVuSans-4d"/>
      <use xlink:href="#DejaVuSans-65" x="86.279297"/>
      <use xlink:href="#DejaVuSans-61" x="147.802734"/>
      <use xlink:href="#DejaVuSans-6e" x="209.082031"/>
      <use xlink:href="#DejaVuSans-20" x="272.460938"/>
      <use xlink:href="#DejaVuSans-61" x="304.248047"/>
      <use xlink:href="#DejaVuSans-6e" x="365.527344"/>
      <use xlink:href="#DejaVuSans-64" x="428.90625"/>
      <use xlink:href="#DejaVuSans-20" x="492.382812"/>
      <use xlink:href="#DejaVuSans-53" x="524.169922"/>
      <use xlink:href="#DejaVuSans-74" x="587.646484"/>
      <use xlink:href="#DejaVuSans-64" x="626.855469"/>
     </g>
    </g>
   </g>
  </g>
  <g id="axes_2">
   <g id="patch_10">
    <path d="M 77.371281 314.728 
L 349.2 314.728 
L 349.2 204.7328 
L 77.371281 204.7328 
z
" style="fill: #ffffff"/>
   </g>
   <g id="matplotlib.axis_3">
    <g id="xtick_24">
     <g id="line2d_39">
      <g>
       <use xlink:href="#m9b74e4fe8e" x="126.06787" y="314.728" style="stroke: #000000; stroke-width: 0.8"/>
      </g>
     </g>
     <g id="text_11">
      <!-- $\mathdefault{10^{0}}$ -->
      <g transform="translate(117.26787 329.326438) scale(0.1 -0.1)">
       <use xlink:href="#DejaVuSans-31" transform="translate(0 0.765625)"/>
       <use xlink:href="#DejaVuSans-30" transform="translate(63.623047 0.765625)"/>
       <use xlink:href="#DejaVuSans-30" transform="translate(128.203125 39.046875) scale(0.7)"/>
      </g>
     </g>
    </g>
    <g id="xtick_25">
     <g id="line2d_40">
      <g>
       <use xlink:href="#m9b74e4fe8e" x="242.358231" y="314.728" style="stroke: #000000; stroke-width: 0.8"/>
      </g>
     </g>
     <g id="text_12">
      <!-- $\mathdefault{10^{1}}$ -->
      <g transform="translate(233.558231 329.326438) scale(0.1 -0.1)">
       <use xlink:href="#DejaVuSans-31" transform="translate(0 0.684375)"/>
       <use xlink:href="#DejaVuSans-30" transform="translate(63.623047 0.684375)"/>
       <use xlink:href="#DejaVuSans-31" transform="translate(128.203125 38.965625) scale(0.7)"/>
      </g>
     </g>
    </g>
    <g id="xtick_26">
     <g id="line2d_41">
      <g>
       <use xlink:href="#m52d37676bf" x="79.791282" y="314.728" style="stroke: #000000; stroke-width: 0.6"/>
      </g>
     </g>
    </g>
    <g id="xtick_27">
     <g id="line2d_42">
      <g>
       <use xlink:href="#m52d37676bf" x="91.060983" y="314.728" style="stroke: #000000; stroke-width: 0.6"/>
      </g>
     </g>
    </g>
    <g id="xtick_28">
     <g id="line2d_43">
      <g>
       <use xlink:href="#m52d37676bf" x="100.268998" y="314.728" style="stroke: #000000; stroke-width: 0.6"/>
      </g>
     </g>
    </g>
    <g id="xtick_29">
     <g id="line2d_44">
      <g>
       <use xlink:href="#m52d37676bf" x="108.054265" y="314.728" style="stroke: #000000; stroke-width: 0.6"/>
      </g>
     </g>
    </g>
    <g id="xtick_30">
     <g id="line2d_45">
      <g>
       <use xlink:href="#m52d37676bf" x="114.798169" y="314.728" style="stroke: #000000; stroke-width: 0.6"/>
      </g>
     </g>
    </g>
    <g id="xtick_31">
     <g id="line2d_46">
      <g>
       <use xlink:href="#m52d37676bf" x="120.746715" y="314.728" style="stroke: #000000; stroke-width: 0.6"/>
      </g>
     </g>
    </g>
    <g id="xtick_32">
     <g id="line2d_47">
      <g>
       <use xlink:href="#m52d37676bf" x="161.074757" y="314.728" style="stroke: #000000; stroke-width: 0.6"/>
      </g>
     </g>
    </g>
    <g id="xtick_33">
     <g id="line2d_48">
      <g>
       <use xlink:href="#m52d37676bf" x="181.552473" y="314.728" style="stroke: #000000; stroke-width: 0.6"/>
      </g>
     </g>
    </g>
    <g id="xtick_34">
     <g id="line2d_49">
      <g>
       <use xlink:href="#m52d37676bf" x="196.081643" y="314.728" style="stroke: #000000; stroke-width: 0.6"/>
      </g>
     </g>
    </g>
    <g id="xtick_35">
     <g id="line2d_50">
      <g>
       <use xlink:href="#m52d37676bf" x="207.351344" y="314.728" style="stroke: #000000; stroke-width: 0.6"/>
      </g>
     </g>
    </g>
    <g id="xtick_36">
     <g id="line2d_51">
      <g>
       <use xlink:href="#m52d37676bf" x="216.55936" y="314.728" style="stroke: #000000; stroke-width: 0.6"/>
      </g>
     </g>
    </g>
    <g id="xtick_37">
     <g id="line2d_52">
      <g>
       <use xlink:href="#m52d37676bf" x="224.344626" y="314.728" style="stroke: #000000; stroke-width: 0.6"/>
      </g>
     </g>
    </g>
    <g id="xtick_38">
     <g id="line2d_53">
      <g>
       <use xlink:href="#m52d37676bf" x="231.08853" y="314.728" style="stroke: #000000; stroke-width: 0.6"/>
      </g>
     </g>
    </g>
    <g id="xtick_39">
     <g id="line2d_54">
      <g>
       <use xlink:href="#m52d37676bf" x="237.037076" y="314.728" style="stroke: #000000; stroke-width: 0.6"/>
      </g>
     </g>
    </g>
    <g id="xtick_40">
     <g id="line2d_55">
      <g>
       <use xlink:href="#m52d37676bf" x="277.365118" y="314.728" style="stroke: #000000; stroke-width: 0.6"/>
      </g>
     </g>
    </g>
    <g id="xtick_41">
     <g id="line2d_56">
      <g>
       <use xlink:href="#m52d37676bf" x="297.842834" y="314.728" style="stroke: #000000; stroke-width: 0.6"/>
      </g>
     </g>
    </g>
    <g id="xtick_42">
     <g id="line2d_57">
      <g>
       <use xlink:href="#m52d37676bf" x="312.372005" y="314.728" style="stroke: #000000; stroke-width: 0.6"/>
      </g>
     </g>
    </g>
    <g id="xtick_43">
     <g id="line2d_58">
      <g>
       <use xlink:href="#m52d37676bf" x="323.641705" y="314.728" style="stroke: #000000; stroke-width: 0.6"/>
      </g>
     </g>
    </g>
    <g id="xtick_44">
     <g id="line2d_59">
      <g>
       <use xlink:href="#m52d37676bf" x="332.849721" y="314.728" style="stroke: #000000; stroke-width: 0.6"/>
      </g>
     </g>
    </g>
    <g id="xtick_45">
     <g id="line2d_60">
      <g>
       <use xlink:href="#m52d37676bf" x="340.634987" y="314.728" style="stroke: #000000; stroke-width: 0.6"/>
      </g>
     </g>
    </g>
    <g id="xtick_46">
     <g id="line2d_61">
      <g>
       <use xlink:href="#m52d37676bf" x="347.378891" y="314.728" style="stroke: #000000; stroke-width: 0.6"/>
      </g>
     </g>
    </g>
    <g id="text_13">
     <!-- Energy [TeV] -->
     <g transform="translate(181.587984 343.004563) scale(0.1 -0.1)">
      <defs>
       <path id="DejaVuSans-45" d="M 628 4666 
L 3578 4666 
L 3578 4134 
L 1259 4134 
L 1259 2753 
L 3481 2753 
L 3481 2222 
L 1259 2222 
L 1259 531 
L 3634 531 
L 3634 0 
L 628 0 
L 628 4666 
z
" transform="scale(0.015625)"/>
       <path id="DejaVuSans-67" d="M 2906 1791 
Q 2906 2416 2648 2759 
Q 2391 3103 1925 3103 
Q 1463 3103 1205 2759 
Q 947 2416 947 1791 
Q 947 1169 1205 825 
Q 1463 481 1925 481 
Q 2391 481 2648 825 
Q 2906 1169 2906 1791 
z
M 3481 434 
Q 3481 -459 3084 -895 
Q 2688 -1331 1869 -1331 
Q 1566 -1331 1297 -1286 
Q 1028 -1241 775 -1147 
L 775 -588 
Q 1028 -725 1275 -790 
Q 1522 -856 1778 -856 
Q 2344 -856 2625 -561 
Q 2906 -266 2906 331 
L 2906 616 
Q 2728 306 2450 153 
Q 2172 0 1784 0 
Q 1141 0 747 490 
Q 353 981 353 1791 
Q 353 2603 747 3093 
Q 1141 3584 1784 3584 
Q 2172 3584 2450 3431 
Q 2728 3278 2906 2969 
L 2906 3500 
L 3481 3500 
L 3481 434 
z
" transform="scale(0.015625)"/>
       <path id="DejaVuSans-79" d="M 2059 -325 
Q 1816 -950 1584 -1140 
Q 1353 -1331 966 -1331 
L 506 -1331 
L 506 -850 
L 844 -850 
Q 1081 -850 1212 -737 
Q 1344 -625 1503 -206 
L 1606 56 
L 191 3500 
L 800 3500 
L 1894 763 
L 2988 3500 
L 3597 3500 
L 2059 -325 
z
" transform="scale(0.015625)"/>
      </defs>
      <use xlink:href="#DejaVuSans-45"/>
      <use xlink:href="#DejaVuSans-6e" x="63.183594"/>
      <use xlink:href="#DejaVuSans-65" x="126.5625"/>
      <use xlink:href="#DejaVuSans-72" x="188.085938"/>
      <use xlink:href="#DejaVuSans-67" x="227.449219"/>
      <use xlink:href="#DejaVuSans-79" x="290.925781"/>
      <use xlink:href="#DejaVuSans-20" x="350.105469"/>
      <use xlink:href="#DejaVuSans-5b" x="381.892578"/>
      <use xlink:href="#DejaVuSans-54" x="420.90625"/>
      <use xlink:href="#DejaVuSans-65" x="464.990234"/>
      <use xlink:href="#DejaVuSans-56" x="526.513672"/>
      <use xlink:href="#DejaVuSans-5d" x="594.921875"/>
     </g>
    </g>
   </g>
   <g id="matplotlib.axis_4">
    <g id="ytick_9">
     <g id="line2d_62">
      <g>
       <use xlink:href="#m59f55d2d4a" x="77.371281" y="295.236256" style="stroke: #000000; stroke-width: 0.8"/>
      </g>
     </g>
     <g id="text_14">
      <!-- 0.4 -->
      <g transform="translate(54.468156 299.035474) scale(0.1 -0.1)">
       <use xlink:href="#DejaVuSans-30"/>
       <use xlink:href="#DejaVuSans-2e" x="63.623047"/>
       <use xlink:href="#DejaVuSans-34" x="95.410156"/>
      </g>
     </g>
    </g>
    <g id="ytick_10">
     <g id="line2d_63">
      <g>
       <use xlink:href="#m59f55d2d4a" x="77.371281" y="271.486519" style="stroke: #000000; stroke-width: 0.8"/>
      </g>
     </g>
     <g id="text_15">
      <!-- 0.5 -->
      <g transform="translate(54.468156 275.285738) scale(0.1 -0.1)">
       <use xlink:href="#DejaVuSans-30"/>
       <use xlink:href="#DejaVuSans-2e" x="63.623047"/>
       <use xlink:href="#DejaVuSans-35" x="95.410156"/>
      </g>
     </g>
    </g>
    <g id="ytick_11">
     <g id="line2d_64">
      <g>
       <use xlink:href="#m59f55d2d4a" x="77.371281" y="247.736783" style="stroke: #000000; stroke-width: 0.8"/>
      </g>
     </g>
     <g id="text_16">
      <!-- 0.6 -->
      <g transform="translate(54.468156 251.536002) scale(0.1 -0.1)">
       <use xlink:href="#DejaVuSans-30"/>
       <use xlink:href="#DejaVuSans-2e" x="63.623047"/>
       <use xlink:href="#DejaVuSans-36" x="95.410156"/>
      </g>
     </g>
    </g>
    <g id="ytick_12">
     <g id="line2d_65">
      <g>
       <use xlink:href="#m59f55d2d4a" x="77.371281" y="223.987047" style="stroke: #000000; stroke-width: 0.8"/>
      </g>
     </g>
     <g id="text_17">
      <!-- 0.7 -->
      <g transform="translate(54.468156 227.786266) scale(0.1 -0.1)">
       <defs>
        <path id="DejaVuSans-37" d="M 525 4666 
L 3525 4666 
L 3525 4397 
L 1831 0 
L 1172 0 
L 2766 4134 
L 525 4134 
L 525 4666 
z
" transform="scale(0.015625)"/>
       </defs>
       <use xlink:href="#DejaVuSans-30"/>
       <use xlink:href="#DejaVuSans-2e" x="63.623047"/>
       <use xlink:href="#DejaVuSans-37" x="95.410156"/>
      </g>
     </g>
    </g>
    <g id="text_18">
     <!-- Coverage -->
     <g transform="translate(48.388468 283.687431) rotate(-90) scale(0.1 -0.1)">
      <defs>
       <path id="DejaVuSans-43" d="M 4122 4306 
L 4122 3641 
Q 3803 3938 3442 4084 
Q 3081 4231 2675 4231 
Q 1875 4231 1450 3742 
Q 1025 3253 1025 2328 
Q 1025 1406 1450 917 
Q 1875 428 2675 428 
Q 3081 428 3442 575 
Q 3803 722 4122 1019 
L 4122 359 
Q 3791 134 3420 21 
Q 3050 -91 2638 -91 
Q 1578 -91 968 557 
Q 359 1206 359 2328 
Q 359 3453 968 4101 
Q 1578 4750 2638 4750 
Q 3056 4750 3426 4639 
Q 3797 4528 4122 4306 
z
" transform="scale(0.015625)"/>
       <path id="DejaVuSans-6f" d="M 1959 3097 
Q 1497 3097 1228 2736 
Q 959 2375 959 1747 
Q 959 1119 1226 758 
Q 1494 397 1959 397 
Q 2419 397 2687 759 
Q 2956 1122 2956 1747 
Q 2956 2369 2687 2733 
Q 2419 3097 1959 3097 
z
M 1959 3584 
Q 2709 3584 3137 3096 
Q 3566 2609 3566 1747 
Q 3566 888 3137 398 
Q 2709 -91 1959 -91 
Q 1206 -91 779 398 
Q 353 888 353 1747 
Q 353 2609 779 3096 
Q 1206 3584 1959 3584 
z
" transform="scale(0.015625)"/>
       <path id="DejaVuSans-76" d="M 191 3500 
L 800 3500 
L 1894 563 
L 2988 3500 
L 3597 3500 
L 2284 0 
L 1503 0 
L 191 3500 
z
" transform="scale(0.015625)"/>
      </defs>
      <use xlink:href="#DejaVuSans-43"/>
      <use xlink:href="#DejaVuSans-6f" x="69.824219"/>
      <use xlink:href="#DejaVuSans-76" x="131.005859"/>
      <use xlink:href="#DejaVuSans-65" x="190.185547"/>
      <use xlink:href="#DejaVuSans-72" x="251.708984"/>
      <use xlink:href="#DejaVuSans-61" x="292.822266"/>
      <use xlink:href="#DejaVuSans-67" x="354.101562"/>
      <use xlink:href="#DejaVuSans-65" x="417.578125"/>
     </g>
    </g>
   </g>
   <g id="LineCollection_3">
    <path d="M 89.727132 276.003593 
L 89.727132 251.29462 
" clip-path="url(#p396090f92c)" style="fill: none; stroke: #ff0000; stroke-width: 1.5"/>
    <path d="M 104.263427 280.041048 
L 104.263427 255.332075 
" clip-path="url(#p396090f92c)" style="fill: none; stroke: #ff0000; stroke-width: 1.5"/>
    <path d="M 118.799722 283.841006 
L 118.799722 259.132033 
" clip-path="url(#p396090f92c)" style="fill: none; stroke: #ff0000; stroke-width: 1.5"/>
    <path d="M 133.336017 290.490932 
L 133.336017 265.781959 
" clip-path="url(#p396090f92c)" style="fill: none; stroke: #ff0000; stroke-width: 1.5"/>
    <path d="M 147.872312 300.465821 
L 147.872312 275.756848 
" clip-path="url(#p396090f92c)" style="fill: none; stroke: #ff0000; stroke-width: 1.5"/>
    <path d="M 162.408608 307.353245 
L 162.408608 282.644272 
" clip-path="url(#p396090f92c)" style="fill: none; stroke: #ff0000; stroke-width: 1.5"/>
    <path d="M 176.944903 309.728218 
L 176.944903 285.019246 
" clip-path="url(#p396090f92c)" style="fill: none; stroke: #ff0000; stroke-width: 1.5"/>
    <path d="M 191.481198 307.353245 
L 191.481198 282.644272 
" clip-path="url(#p396090f92c)" style="fill: none; stroke: #ff0000; stroke-width: 1.5"/>
    <path d="M 206.017493 304.503276 
L 206.017493 279.794304 
" clip-path="url(#p396090f92c)" style="fill: none; stroke: #ff0000; stroke-width: 1.5"/>
    <path d="M 220.553788 296.428366 
L 220.553788 271.719393 
" clip-path="url(#p396090f92c)" style="fill: none; stroke: #ff0000; stroke-width: 1.5"/>
    <path d="M 235.090083 290.253434 
L 235.090083 265.544462 
" clip-path="url(#p396090f92c)" style="fill: none; stroke: #ff0000; stroke-width: 1.5"/>
    <path d="M 249.626378 285.26599 
L 249.626378 260.557017 
" clip-path="url(#p396090f92c)" style="fill: none; stroke: #ff0000; stroke-width: 1.5"/>
    <path d="M 264.162673 279.328556 
L 264.162673 254.619583 
" clip-path="url(#p396090f92c)" style="fill: none; stroke: #ff0000; stroke-width: 1.5"/>
    <path d="M 278.698969 271.016148 
L 278.698969 246.307176 
" clip-path="url(#p396090f92c)" style="fill: none; stroke: #ff0000; stroke-width: 1.5"/>
    <path d="M 293.235264 269.353667 
L 293.235264 244.644694 
" clip-path="url(#p396090f92c)" style="fill: none; stroke: #ff0000; stroke-width: 1.5"/>
    <path d="M 307.771559 265.553709 
L 307.771559 240.844736 
" clip-path="url(#p396090f92c)" style="fill: none; stroke: #ff0000; stroke-width: 1.5"/>
    <path d="M 322.307854 262.703741 
L 322.307854 237.994768 
" clip-path="url(#p396090f92c)" style="fill: none; stroke: #ff0000; stroke-width: 1.5"/>
    <path d="M 336.844149 261.516254 
L 336.844149 236.807281 
" clip-path="url(#p396090f92c)" style="fill: none; stroke: #ff0000; stroke-width: 1.5"/>
   </g>
   <g id="LineCollection_4">
    <path d="M 89.727132 238.004015 
L 89.727132 213.295042 
" clip-path="url(#p396090f92c)" style="fill: none; stroke: #008000; stroke-width: 1.5"/>
    <path d="M 104.263427 236.341533 
L 104.263427 211.632561 
" clip-path="url(#p396090f92c)" style="fill: none; stroke: #008000; stroke-width: 1.5"/>
    <path d="M 118.799722 235.391544 
L 118.799722 210.682571 
" clip-path="url(#p396090f92c)" style="fill: none; stroke: #008000; stroke-width: 1.5"/>
    <path d="M 133.336017 236.579031 
L 133.336017 211.870058 
" clip-path="url(#p396090f92c)" style="fill: none; stroke: #008000; stroke-width: 1.5"/>
    <path d="M 147.872312 234.441554 
L 147.872312 209.732582 
" clip-path="url(#p396090f92c)" style="fill: none; stroke: #008000; stroke-width: 1.5"/>
    <path d="M 162.408608 235.629041 
L 162.408608 210.920069 
" clip-path="url(#p396090f92c)" style="fill: none; stroke: #008000; stroke-width: 1.5"/>
    <path d="M 176.944903 237.054025 
L 176.944903 212.345053 
" clip-path="url(#p396090f92c)" style="fill: none; stroke: #008000; stroke-width: 1.5"/>
    <path d="M 191.481198 240.141491 
L 191.481198 215.432519 
" clip-path="url(#p396090f92c)" style="fill: none; stroke: #008000; stroke-width: 1.5"/>
    <path d="M 206.017493 242.04147 
L 206.017493 217.332497 
" clip-path="url(#p396090f92c)" style="fill: none; stroke: #008000; stroke-width: 1.5"/>
    <path d="M 220.553788 245.60393 
L 220.553788 220.894958 
" clip-path="url(#p396090f92c)" style="fill: none; stroke: #008000; stroke-width: 1.5"/>
    <path d="M 235.090083 246.791417 
L 235.090083 222.082445 
" clip-path="url(#p396090f92c)" style="fill: none; stroke: #008000; stroke-width: 1.5"/>
    <path d="M 249.626378 249.641386 
L 249.626378 224.932413 
" clip-path="url(#p396090f92c)" style="fill: none; stroke: #008000; stroke-width: 1.5"/>
    <path d="M 264.162673 249.403888 
L 264.162673 224.694916 
" clip-path="url(#p396090f92c)" style="fill: none; stroke: #008000; stroke-width: 1.5"/>
    <path d="M 278.698969 251.06637 
L 278.698969 226.357397 
" clip-path="url(#p396090f92c)" style="fill: none; stroke: #008000; stroke-width: 1.5"/>
    <path d="M 293.235264 250.353878 
L 293.235264 225.644905 
" clip-path="url(#p396090f92c)" style="fill: none; stroke: #008000; stroke-width: 1.5"/>
    <path d="M 307.771559 249.403888 
L 307.771559 224.694916 
" clip-path="url(#p396090f92c)" style="fill: none; stroke: #008000; stroke-width: 1.5"/>
    <path d="M 322.307854 249.166391 
L 322.307854 224.457418 
" clip-path="url(#p396090f92c)" style="fill: none; stroke: #008000; stroke-width: 1.5"/>
    <path d="M 336.844149 247.741407 
L 336.844149 223.032434 
" clip-path="url(#p396090f92c)" style="fill: none; stroke: #008000; stroke-width: 1.5"/>
   </g>
   <g id="line2d_66">
    <path d="M 89.727132 228.736994 
L 104.263427 228.736994 
L 118.799722 228.736994 
L 133.336017 228.736994 
L 147.872312 228.736994 
L 162.408608 228.736994 
L 176.944903 228.736994 
L 191.481198 228.736994 
L 206.017493 228.736994 
L 220.553788 228.736994 
L 235.090083 228.736994 
L 249.626378 228.736994 
L 264.162673 228.736994 
L 278.698969 228.736994 
L 293.235264 228.736994 
L 307.771559 228.736994 
L 322.307854 228.736994 
L 336.844149 228.736994 
" clip-path="url(#p396090f92c)" style="fill: none; stroke-dasharray: 1.5,2.475; stroke-dashoffset: 0; stroke: #000000; stroke-width: 1.5"/>
   </g>
   <g id="line2d_67">
    <path d="M 89.727132 263.649106 
L 104.263427 267.686562 
L 118.799722 271.486519 
L 133.336017 278.136446 
L 147.872312 288.111335 
L 162.408608 294.998758 
L 176.944903 297.373732 
L 191.481198 294.998758 
L 206.017493 292.14879 
L 220.553788 284.07388 
L 235.090083 277.898948 
L 249.626378 272.911504 
L 264.162673 266.97407 
L 278.698969 258.661662 
L 293.235264 256.99918 
L 307.771559 253.199223 
L 322.307854 250.349254 
L 336.844149 249.161767 
" clip-path="url(#p396090f92c)" style="fill: none; stroke: #ff0000; stroke-width: 1.5; stroke-linecap: square"/>
   </g>
   <g id="line2d_68">
    <path d="M 89.727132 225.649529 
L 104.263427 223.987047 
L 118.799722 223.037058 
L 133.336017 224.224544 
L 147.872312 222.087068 
L 162.408608 223.274555 
L 176.944903 224.699539 
L 191.481198 227.787005 
L 206.017493 229.686984 
L 220.553788 233.249444 
L 235.090083 234.436931 
L 249.626378 237.286899 
L 264.162673 237.049402 
L 278.698969 238.711883 
L 293.235264 237.999391 
L 307.771559 237.049402 
L 322.307854 236.811905 
L 336.844149 235.38692 
" clip-path="url(#p396090f92c)" style="fill: none; stroke: #008000; stroke-width: 1.5; stroke-linecap: square"/>
   </g>
   <g id="patch_11">
    <path d="M 77.371281 314.728 
L 77.371281 204.7328 
" style="fill: none; stroke: #000000; stroke-width: 0.8; stroke-linejoin: miter; stroke-linecap: square"/>
   </g>
   <g id="patch_12">
    <path d="M 349.2 314.728 
L 349.2 204.7328 
" style="fill: none; stroke: #000000; stroke-width: 0.8; stroke-linejoin: miter; stroke-linecap: square"/>
   </g>
   <g id="patch_13">
    <path d="M 77.371281 314.728 
L 349.2 314.728 
" style="fill: none; stroke: #000000; stroke-width: 0.8; stroke-linejoin: miter; stroke-linecap: square"/>
   </g>
   <g id="patch_14">
    <path d="M 77.371281 204.7328 
L 349.2 204.7328 
" style="fill: none; stroke: #000000; stroke-width: 0.8; stroke-linejoin: miter; stroke-linecap: square"/>
   </g>
   <g id="legend_2">
    <g id="patch_15">
     <path d="M 84.371281 275.908525 
L 258.968156 275.908525 
Q 260.968156 275.908525 260.968156 273.908525 
L 260.968156 245.552275 
Q 260.968156 243.552275 258.968156 243.552275 
L 84.371281 243.552275 
Q 82.371281 243.552275 82.371281 245.552275 
L 82.371281 273.908525 
Q 82.371281 275.908525 84.371281 275.908525 
z
" style="fill: #ffffff; opacity: 0.8; stroke: #cccccc; stroke-linejoin: miter"/>
    </g>
    <g id="line2d_69">
     <path d="M 86.371281 251.650713 
L 96.371281 251.650713 
L 106.371281 251.650713 
" style="fill: none; stroke-dasharray: 1.5,2.475; stroke-dashoffset: 0; stroke: #000000; stroke-width: 1.5"/>
    </g>
    <g id="text_19">
     <!-- 68 % -->
     <g transform="translate(114.371281 255.150713) scale(0.1 -0.1)">
      <defs>
       <path id="DejaVuSans-38" d="M 2034 2216 
Q 1584 2216 1326 1975 
Q 1069 1734 1069 1313 
Q 1069 891 1326 650 
Q 1584 409 2034 409 
Q 2484 409 2743 651 
Q 3003 894 3003 1313 
Q 3003 1734 2745 1975 
Q 2488 2216 2034 2216 
z
M 1403 2484 
Q 997 2584 770 2862 
Q 544 3141 544 3541 
Q 544 4100 942 4425 
Q 1341 4750 2034 4750 
Q 2731 4750 3128 4425 
Q 3525 4100 3525 3541 
Q 3525 3141 3298 2862 
Q 3072 2584 2669 2484 
Q 3125 2378 3379 2068 
Q 3634 1759 3634 1313 
Q 3634 634 3220 271 
Q 2806 -91 2034 -91 
Q 1263 -91 848 271 
Q 434 634 434 1313 
Q 434 1759 690 2068 
Q 947 2378 1403 2484 
z
M 1172 3481 
Q 1172 3119 1398 2916 
Q 1625 2713 2034 2713 
Q 2441 2713 2670 2916 
Q 2900 3119 2900 3481 
Q 2900 3844 2670 4047 
Q 2441 4250 2034 4250 
Q 1625 4250 1398 4047 
Q 1172 3844 1172 3481 
z
" transform="scale(0.015625)"/>
      </defs>
      <use xlink:href="#DejaVuSans-36"/>
      <use xlink:href="#DejaVuSans-38" x="63.623047"/>
      <use xlink:href="#DejaVuSans-20" x="127.246094"/>
      <use xlink:href="#DejaVuSans-25" x="159.033203"/>
     </g>
    </g>
    <g id="LineCollection_5">
     <path d="M 96.371281 271.328838 
L 96.371281 261.328838 
" style="fill: none; stroke: #ff0000; stroke-width: 1.5"/>
    </g>
    <g id="line2d_70">
     <path d="M 86.371281 266.328838 
L 106.371281 266.328838 
" style="fill: none; stroke: #ff0000; stroke-width: 1.5; stroke-linecap: square"/>
    </g>
    <g id="line2d_71"/>
    <g id="text_20">
     <!-- Standard  -->
     <g transform="translate(114.371281 269.828838) scale(0.1 -0.1)">
      <use xlink:href="#DejaVuSans-53"/>
      <use xlink:href="#DejaVuSans-74" x="63.476562"/>
      <use xlink:href="#DejaVuSans-61" x="102.685547"/>
      <use xlink:href="#DejaVuSans-6e" x="163.964844"/>
      <use xlink:href="#DejaVuSans-64" x="227.34375"/>
      <use xlink:href="#DejaVuSans-61" x="290.820312"/>
      <use xlink:href="#DejaVuSans-72" x="352.099609"/>
      <use xlink:href="#DejaVuSans-64" x="391.462891"/>
      <use xlink:href="#DejaVuSans-20" x="454.939453"/>
     </g>
    </g>
    <g id="LineCollection_6">
     <path d="M 193.044718 256.650713 
L 193.044718 246.650713 
" style="fill: none; stroke: #008000; stroke-width: 1.5"/>
    </g>
    <g id="line2d_72">
     <path d="M 183.044718 251.650713 
L 203.044718 251.650713 
" style="fill: none; stroke: #008000; stroke-width: 1.5; stroke-linecap: square"/>
    </g>
    <g id="line2d_73"/>
    <g id="text_21">
     <!-- Nuisance -->
     <g transform="translate(211.044718 255.150713) scale(0.1 -0.1)">
      <use xlink:href="#DejaVuSans-4e"/>
      <use xlink:href="#DejaVuSans-75" x="74.804688"/>
      <use xlink:href="#DejaVuSans-69" x="138.183594"/>
      <use xlink:href="#DejaVuSans-73" x="165.966797"/>
      <use xlink:href="#DejaVuSans-61" x="218.066406"/>
      <use xlink:href="#DejaVuSans-6e" x="279.345703"/>
      <use xlink:href="#DejaVuSans-63" x="342.724609"/>
      <use xlink:href="#DejaVuSans-65" x="397.705078"/>
     </g>
    </g>
   </g>
  </g>
 </g>
 <defs>
  <clipPath id="p4a3bd07c12">
   <rect x="77.371281" y="25.44" width="271.828719" height="164.9928"/>
  </clipPath>
  <clipPath id="p396090f92c">
   <rect x="77.371281" y="204.7328" width="271.828719" height="109.9952"/>
  </clipPath>
 </defs>
</svg>
