<?xml version="1.0" encoding="utf-8" standalone="no"?>
<!DOCTYPE svg PUBLIC "-//W3C//DTD SVG 1.1//EN"
  "http://www.w3.org/Graphics/SVG/1.1/DTD/svg11.dtd">
<svg xmlns:xlink="http://www.w3.org/1999/xlink" width="360pt" height="360pt" viewBox="0 0 360 360" xmlns="http://www.w3.org/2000/svg" version="1.1">
 <metadata>
  <rdf:RDF xmlns:dc="http://purl.org/dc/elements/1.1/" xmlns:cc="http://creativecommons.org/ns#" xmlns:rdf="http://www.w3.org/1999/02/22-rdf-syntax-ns#">
   <cc:Work>
    <dc:type rdf:resource="http://purl.org/dc/dcmitype/StillImage"/>
    <dc:date>2023-02-01T13:09:21.952192</dc:date>
    <dc:format>image/svg+xml</dc:format>
    <dc:creator>
     <cc:Agent>
      <dc:title>Matplotlib v3.6.2, https://matplotlib.org/</dc:title>
     </cc:Agent>
    </dc:creator>
   </cc:Work>
  </rdf:RDF>
 </metadata>
 <defs>
  <style type="text/css">*{stroke-linejoin: round; stroke-linecap: butt}</style>
 </defs>
 <g id="figure_1">
  <g id="patch_1">
   <path d="M 0 360 
L 360 360 
L 360 0 
L 0 0 
z
" style="fill: #ffffff"/>
  </g>
  <g id="axes_1">
   <g id="patch_2">
    <path d="M 60.333889 190.4328 
L 349.2 190.4328 
L 349.2 25.44 
L 60.333889 25.44 
z
" style="fill: #ffffff"/>
   </g>
   <g id="PolyCollection_1">
    <path d="M 74.752107 56.563952 
L 74.752107 68.773783 
L 77.327987 69.209313 
L 79.903868 69.646408 
L 82.479748 70.085107 
L 85.055628 70.525448 
L 87.631508 70.96747 
L 90.207388 71.411216 
L 92.783269 71.856728 
L 95.359149 72.304049 
L 97.935029 72.753223 
L 100.510909 73.204296 
L 103.08679 73.657315 
L 105.66267 74.112327 
L 108.23855 74.56938 
L 110.81443 75.028522 
L 113.39031 75.489802 
L 115.966191 75.95327 
L 118.542071 76.418974 
L 121.117951 76.886965 
L 123.693831 77.357292 
L 126.269711 77.830003 
L 128.845592 78.305146 
L 131.421472 78.782768 
L 133.997352 79.262916 
L 136.573232 79.745634 
L 139.149112 80.230965 
L 141.724993 80.718949 
L 144.300873 81.209626 
L 146.876753 81.703032 
L 149.452633 82.199201 
L 152.028514 82.698162 
L 154.604394 83.199945 
L 157.180274 83.704572 
L 159.756154 84.212065 
L 162.332034 84.722439 
L 164.907915 85.235709 
L 167.483795 85.751882 
L 170.059675 86.270964 
L 172.635555 86.792956 
L 175.211435 87.317854 
L 177.787316 87.84565 
L 180.363196 88.376334 
L 182.939076 88.90989 
L 185.514956 89.446298 
L 188.090836 89.985536 
L 190.666717 90.527577 
L 193.242597 91.072393 
L 195.818477 91.61995 
L 198.394357 92.170213 
L 200.970238 92.723144 
L 203.546118 93.278703 
L 206.121998 93.836848 
L 208.697878 94.397534 
L 211.273758 94.960717 
L 213.849639 95.526349 
L 216.425519 96.094382 
L 219.001399 96.664769 
L 221.577279 97.23746 
L 224.153159 97.812406 
L 226.72904 98.389558 
L 229.30492 98.968865 
L 231.8808 99.55028 
L 234.45668 100.133753 
L 237.03256 100.719235 
L 239.608441 101.306681 
L 242.184321 101.896042 
L 244.760201 102.487273 
L 247.336081 103.080329 
L 249.911962 103.675167 
L 252.487842 104.271743 
L 255.063722 104.870015 
L 257.639602 105.469944 
L 260.215482 106.07149 
L 262.791363 106.674615 
L 265.367243 107.279282 
L 267.943123 107.885456 
L 270.519003 108.493101 
L 273.094883 109.102186 
L 275.670764 109.712677 
L 278.246644 110.324545 
L 280.822524 110.937759 
L 283.398404 111.552292 
L 285.974285 112.168116 
L 288.550165 112.785205 
L 291.126045 113.403534 
L 293.701925 114.023079 
L 296.277805 114.643817 
L 298.853686 115.265727 
L 301.429566 115.888786 
L 304.005446 116.512976 
L 306.581326 117.138277 
L 309.157206 117.764671 
L 311.733087 118.39214 
L 314.308967 119.020669 
L 316.884847 119.650241 
L 319.460727 120.280842 
L 322.036607 120.912457 
L 324.612488 121.545073 
L 327.188368 122.178677 
L 329.764248 122.813257 
L 329.764248 106.274311 
L 329.764248 106.274311 
L 327.188368 105.826947 
L 324.612488 105.379347 
L 322.036607 104.931498 
L 319.460727 104.483385 
L 316.884847 104.034991 
L 314.308967 103.5863 
L 311.733087 103.137294 
L 309.157206 102.687956 
L 306.581326 102.238266 
L 304.005446 101.788206 
L 301.429566 101.337755 
L 298.853686 100.886891 
L 296.277805 100.435593 
L 293.701925 99.983838 
L 291.126045 99.531601 
L 288.550165 99.078858 
L 285.974285 98.625583 
L 283.398404 98.171749 
L 280.822524 97.717329 
L 278.246644 97.262293 
L 275.670764 96.806611 
L 273.094883 96.350251 
L 270.519003 95.893183 
L 267.943123 95.435371 
L 265.367243 94.976782 
L 262.791363 94.51738 
L 260.215482 94.057127 
L 257.639602 93.595985 
L 255.063722 93.133915 
L 252.487842 92.670876 
L 249.911962 92.206827 
L 247.336081 91.741724 
L 244.760201 91.275524 
L 242.184321 90.808181 
L 239.608441 90.33965 
L 237.03256 89.869884 
L 234.45668 89.398834 
L 231.8808 88.926453 
L 229.30492 88.452691 
L 226.72904 87.977499 
L 224.153159 87.500826 
L 221.577279 87.022623 
L 219.001399 86.542839 
L 216.425519 86.061424 
L 213.849639 85.578328 
L 211.273758 85.093502 
L 208.697878 84.606899 
L 206.121998 84.11847 
L 203.546118 83.628169 
L 200.970238 83.135952 
L 198.394357 82.641777 
L 195.818477 82.145602 
L 193.242597 81.647389 
L 190.666717 81.147103 
L 188.090836 80.64471 
L 185.514956 80.140181 
L 182.939076 79.63349 
L 180.363196 79.124612 
L 177.787316 78.613529 
L 175.211435 78.100226 
L 172.635555 77.58469 
L 170.059675 77.066914 
L 167.483795 76.546895 
L 164.907915 76.024634 
L 162.332034 75.500135 
L 159.756154 74.973407 
L 157.180274 74.444464 
L 154.604394 73.913322 
L 152.028514 73.380003 
L 149.452633 72.84453 
L 146.876753 72.30693 
L 144.300873 71.767237 
L 141.724993 71.225482 
L 139.149112 70.681703 
L 136.573232 70.135939 
L 133.997352 69.588231 
L 131.421472 69.038624 
L 128.845592 68.487161 
L 126.269711 67.93389 
L 123.693831 67.378858 
L 121.117951 66.822115 
L 118.542071 66.263708 
L 115.966191 65.703689 
L 113.39031 65.142107 
L 110.81443 64.579013 
L 108.23855 64.014456 
L 105.66267 63.448487 
L 103.08679 62.881156 
L 100.510909 62.31251 
L 97.935029 61.742598 
L 95.359149 61.171469 
L 92.783269 60.599167 
L 90.207388 60.02574 
L 87.631508 59.451231 
L 85.055628 58.875684 
L 82.479748 58.299142 
L 79.903868 57.721646 
L 77.327987 57.143237 
L 74.752107 56.563952 
z
" clip-path="url(#pceff6c455b)" style="fill: #008000; fill-opacity: 0.5"/>
   </g>
   <g id="PolyCollection_2">
    <path d="M 74.752107 58.01774 
L 74.752107 66.817825 
L 77.327987 67.233783 
L 79.903868 67.650896 
L 82.479748 68.06921 
L 85.055628 68.488776 
L 87.631508 68.909651 
L 90.207388 69.331892 
L 92.783269 69.755566 
L 95.359149 70.180743 
L 97.935029 70.607498 
L 100.510909 71.035915 
L 103.08679 71.466083 
L 105.66267 71.898099 
L 108.23855 72.332067 
L 110.81443 72.7681 
L 113.39031 73.206318 
L 115.966191 73.646853 
L 118.542071 74.089843 
L 121.117951 74.535438 
L 123.693831 74.983795 
L 126.269711 75.435082 
L 128.845592 75.889476 
L 131.421472 76.347159 
L 133.997352 76.808324 
L 136.573232 77.273166 
L 139.149112 77.741886 
L 141.724993 78.214685 
L 144.300873 78.69176 
L 146.876753 79.173307 
L 149.452633 79.659509 
L 152.028514 80.150538 
L 154.604394 80.646548 
L 157.180274 81.147671 
L 159.756154 81.654016 
L 162.332034 82.165661 
L 164.907915 82.682655 
L 167.483795 83.205014 
L 170.059675 83.732722 
L 172.635555 84.265728 
L 175.211435 84.803954 
L 177.787316 85.34729 
L 180.363196 85.895604 
L 182.939076 86.44874 
L 185.514956 87.006527 
L 188.090836 87.56878 
L 190.666717 88.135306 
L 193.242597 88.705905 
L 195.818477 89.280377 
L 198.394357 89.858521 
L 200.970238 90.440142 
L 203.546118 91.025048 
L 206.121998 91.613057 
L 208.697878 92.20399 
L 211.273758 92.797682 
L 213.849639 93.393975 
L 216.425519 93.99272 
L 219.001399 94.593777 
L 221.577279 95.197017 
L 224.153159 95.802319 
L 226.72904 96.409571 
L 229.30492 97.018667 
L 231.8808 97.629512 
L 234.45668 98.242017 
L 237.03256 98.856098 
L 239.608441 99.47168 
L 242.184321 100.088693 
L 244.760201 100.707072 
L 247.336081 101.326756 
L 249.911962 101.947692 
L 252.487842 102.569828 
L 255.063722 103.193118 
L 257.639602 103.817518 
L 260.215482 104.442988 
L 262.791363 105.069493 
L 265.367243 105.696998 
L 267.943123 106.325472 
L 270.519003 106.954887 
L 273.094883 107.585215 
L 275.670764 108.216433 
L 278.246644 108.848519 
L 280.822524 109.48145 
L 283.398404 110.115209 
L 285.974285 110.749777 
L 288.550165 111.385138 
L 291.126045 112.021278 
L 293.701925 112.658182 
L 296.277805 113.295839 
L 298.853686 113.934235 
L 301.429566 114.573362 
L 304.005446 115.213208 
L 306.581326 115.853765 
L 309.157206 116.495024 
L 311.733087 117.136979 
L 314.308967 117.779622 
L 316.884847 118.422948 
L 319.460727 119.06695 
L 322.036607 119.711624 
L 324.612488 120.356965 
L 327.188368 121.002969 
L 329.764248 121.649633 
L 329.764248 107.023594 
L 329.764248 107.023594 
L 327.188368 106.588284 
L 324.612488 106.153039 
L 322.036607 105.717851 
L 319.460727 105.282715 
L 316.884847 104.847623 
L 314.308967 104.412568 
L 311.733087 103.977542 
L 309.157206 103.542537 
L 306.581326 103.107544 
L 304.005446 102.672552 
L 301.429566 102.237552 
L 298.853686 101.802533 
L 296.277805 101.367483 
L 293.701925 100.932389 
L 291.126045 100.497238 
L 288.550165 100.062014 
L 285.974285 99.626703 
L 283.398404 99.191288 
L 280.822524 98.755751 
L 278.246644 98.320071 
L 275.670764 97.884229 
L 273.094883 97.448203 
L 270.519003 97.011967 
L 267.943123 96.575496 
L 265.367243 96.138763 
L 262.791363 95.701736 
L 260.215482 95.264383 
L 257.639602 94.82667 
L 255.063722 94.388557 
L 252.487842 93.950005 
L 249.911962 93.510968 
L 247.336081 93.0714 
L 244.760201 92.631246 
L 242.184321 92.190453 
L 239.608441 91.748958 
L 237.03256 91.306696 
L 234.45668 90.863595 
L 231.8808 90.419579 
L 229.30492 89.974565 
L 226.72904 89.528461 
L 224.153159 89.08117 
L 221.577279 88.632588 
L 219.001399 88.182601 
L 216.425519 87.731087 
L 213.849639 87.277916 
L 211.273758 86.822948 
L 208.697878 86.366034 
L 206.121998 85.907014 
L 203.546118 85.445722 
L 200.970238 84.98198 
L 198.394357 84.515605 
L 195.818477 84.046404 
L 193.242597 83.574181 
L 190.666717 83.098737 
L 188.090836 82.619868 
L 185.514956 82.137378 
L 182.939076 81.65107 
L 180.363196 81.160761 
L 177.787316 80.666277 
L 175.211435 80.167466 
L 172.635555 79.664192 
L 170.059675 79.156347 
L 167.483795 78.643852 
L 164.907915 78.126657 
L 162.332034 77.604746 
L 159.756154 77.078133 
L 157.180274 76.546868 
L 154.604394 76.011031 
L 152.028514 75.470728 
L 149.452633 74.926093 
L 146.876753 74.37728 
L 144.300873 73.824461 
L 141.724993 73.267821 
L 139.149112 72.707553 
L 136.573232 72.143856 
L 133.997352 71.576933 
L 131.421472 71.006982 
L 128.845592 70.434202 
L 126.269711 69.858783 
L 123.693831 69.28091 
L 121.117951 68.70076 
L 118.542071 68.118502 
L 115.966191 67.534292 
L 113.39031 66.948282 
L 110.81443 66.360612 
L 108.23855 65.771411 
L 105.66267 65.180803 
L 103.08679 64.5889 
L 100.510909 63.995809 
L 97.935029 63.401626 
L 95.359149 62.806441 
L 92.783269 62.21034 
L 90.207388 61.613398 
L 87.631508 61.015687 
L 85.055628 60.417273 
L 82.479748 59.818217 
L 79.903868 59.218576 
L 77.327987 58.618401 
L 74.752107 58.01774 
z
" clip-path="url(#pceff6c455b)" style="fill: #ff0000; fill-opacity: 0.6"/>
   </g>
   <g id="matplotlib.axis_1">
    <g id="xtick_1">
     <g id="line2d_1">
      <defs>
       <path id="m79d23ffd18" d="M 0 0 
L 0 3.5 
" style="stroke: #000000; stroke-width: 0.8"/>
      </defs>
      <g>
       <use xlink:href="#m79d23ffd18" x="111.344758" y="190.4328" style="stroke: #000000; stroke-width: 0.8"/>
      </g>
     </g>
    </g>
    <g id="xtick_2">
     <g id="line2d_2">
      <g>
       <use xlink:href="#m79d23ffd18" x="232.562651" y="190.4328" style="stroke: #000000; stroke-width: 0.8"/>
      </g>
     </g>
    </g>
    <g id="xtick_3">
     <g id="line2d_3">
      <defs>
       <path id="m96fe432d45" d="M 0 0 
L 0 2 
" style="stroke: #000000; stroke-width: 0.6"/>
      </defs>
      <g>
       <use xlink:href="#m96fe432d45" x="63.107309" y="190.4328" style="stroke: #000000; stroke-width: 0.6"/>
      </g>
     </g>
    </g>
    <g id="xtick_4">
     <g id="line2d_4">
      <g>
       <use xlink:href="#m96fe432d45" x="74.854537" y="190.4328" style="stroke: #000000; stroke-width: 0.6"/>
      </g>
     </g>
    </g>
    <g id="xtick_5">
     <g id="line2d_5">
      <g>
       <use xlink:href="#m96fe432d45" x="84.452721" y="190.4328" style="stroke: #000000; stroke-width: 0.6"/>
      </g>
     </g>
    </g>
    <g id="xtick_6">
     <g id="line2d_6">
      <g>
       <use xlink:href="#m96fe432d45" x="92.567869" y="190.4328" style="stroke: #000000; stroke-width: 0.6"/>
      </g>
     </g>
    </g>
    <g id="xtick_7">
     <g id="line2d_7">
      <g>
       <use xlink:href="#m96fe432d45" x="99.597531" y="190.4328" style="stroke: #000000; stroke-width: 0.6"/>
      </g>
     </g>
    </g>
    <g id="xtick_8">
     <g id="line2d_8">
      <g>
       <use xlink:href="#m96fe432d45" x="105.798132" y="190.4328" style="stroke: #000000; stroke-width: 0.6"/>
      </g>
     </g>
    </g>
    <g id="xtick_9">
     <g id="line2d_9">
      <g>
       <use xlink:href="#m96fe432d45" x="147.83498" y="190.4328" style="stroke: #000000; stroke-width: 0.6"/>
      </g>
     </g>
    </g>
    <g id="xtick_10">
     <g id="line2d_10">
      <g>
       <use xlink:href="#m96fe432d45" x="169.180391" y="190.4328" style="stroke: #000000; stroke-width: 0.6"/>
      </g>
     </g>
    </g>
    <g id="xtick_11">
     <g id="line2d_11">
      <g>
       <use xlink:href="#m96fe432d45" x="184.325202" y="190.4328" style="stroke: #000000; stroke-width: 0.6"/>
      </g>
     </g>
    </g>
    <g id="xtick_12">
     <g id="line2d_12">
      <g>
       <use xlink:href="#m96fe432d45" x="196.072429" y="190.4328" style="stroke: #000000; stroke-width: 0.6"/>
      </g>
     </g>
    </g>
    <g id="xtick_13">
     <g id="line2d_13">
      <g>
       <use xlink:href="#m96fe432d45" x="205.670613" y="190.4328" style="stroke: #000000; stroke-width: 0.6"/>
      </g>
     </g>
    </g>
    <g id="xtick_14">
     <g id="line2d_14">
      <g>
       <use xlink:href="#m96fe432d45" x="213.785762" y="190.4328" style="stroke: #000000; stroke-width: 0.6"/>
      </g>
     </g>
    </g>
    <g id="xtick_15">
     <g id="line2d_15">
      <g>
       <use xlink:href="#m96fe432d45" x="220.815423" y="190.4328" style="stroke: #000000; stroke-width: 0.6"/>
      </g>
     </g>
    </g>
    <g id="xtick_16">
     <g id="line2d_16">
      <g>
       <use xlink:href="#m96fe432d45" x="227.016024" y="190.4328" style="stroke: #000000; stroke-width: 0.6"/>
      </g>
     </g>
    </g>
    <g id="xtick_17">
     <g id="line2d_17">
      <g>
       <use xlink:href="#m96fe432d45" x="269.052872" y="190.4328" style="stroke: #000000; stroke-width: 0.6"/>
      </g>
     </g>
    </g>
    <g id="xtick_18">
     <g id="line2d_18">
      <g>
       <use xlink:href="#m96fe432d45" x="290.398284" y="190.4328" style="stroke: #000000; stroke-width: 0.6"/>
      </g>
     </g>
    </g>
    <g id="xtick_19">
     <g id="line2d_19">
      <g>
       <use xlink:href="#m96fe432d45" x="305.543094" y="190.4328" style="stroke: #000000; stroke-width: 0.6"/>
      </g>
     </g>
    </g>
    <g id="xtick_20">
     <g id="line2d_20">
      <g>
       <use xlink:href="#m96fe432d45" x="317.290321" y="190.4328" style="stroke: #000000; stroke-width: 0.6"/>
      </g>
     </g>
    </g>
    <g id="xtick_21">
     <g id="line2d_21">
      <g>
       <use xlink:href="#m96fe432d45" x="326.888505" y="190.4328" style="stroke: #000000; stroke-width: 0.6"/>
      </g>
     </g>
    </g>
    <g id="xtick_22">
     <g id="line2d_22">
      <g>
       <use xlink:href="#m96fe432d45" x="335.003654" y="190.4328" style="stroke: #000000; stroke-width: 0.6"/>
      </g>
     </g>
    </g>
    <g id="xtick_23">
     <g id="line2d_23">
      <g>
       <use xlink:href="#m96fe432d45" x="342.033315" y="190.4328" style="stroke: #000000; stroke-width: 0.6"/>
      </g>
     </g>
    </g>
    <g id="xtick_24">
     <g id="line2d_24">
      <g>
       <use xlink:href="#m96fe432d45" x="348.233916" y="190.4328" style="stroke: #000000; stroke-width: 0.6"/>
      </g>
     </g>
    </g>
   </g>
   <g id="matplotlib.axis_2">
    <g id="ytick_1">
     <g id="line2d_25">
      <defs>
       <path id="mf26cb4304a" d="M 0 0 
L -3.5 0 
" style="stroke: #000000; stroke-width: 0.8"/>
      </defs>
      <g>
       <use xlink:href="#mf26cb4304a" x="60.333889" y="151.03418" style="stroke: #000000; stroke-width: 0.8"/>
      </g>
     </g>
     <g id="text_1">
      <!-- $\mathdefault{10^{-13}}$ -->
      <g transform="translate(25.433889 154.833398) scale(0.1 -0.1)">
       <defs>
        <path id="DejaVuSans-31" d="M 794 531 
L 1825 531 
L 1825 4091 
L 703 3866 
L 703 4441 
L 1819 4666 
L 2450 4666 
L 2450 531 
L 3481 531 
L 3481 0 
L 794 0 
L 794 531 
z
" transform="scale(0.015625)"/>
        <path id="DejaVuSans-30" d="M 2034 4250 
Q 1547 4250 1301 3770 
Q 1056 3291 1056 2328 
Q 1056 1369 1301 889 
Q 1547 409 2034 409 
Q 2525 409 2770 889 
Q 3016 1369 3016 2328 
Q 3016 3291 2770 3770 
Q 2525 4250 2034 4250 
z
M 2034 4750 
Q 2819 4750 3233 4129 
Q 3647 3509 3647 2328 
Q 3647 1150 3233 529 
Q 2819 -91 2034 -91 
Q 1250 -91 836 529 
Q 422 1150 422 2328 
Q 422 3509 836 4129 
Q 1250 4750 2034 4750 
z
" transform="scale(0.015625)"/>
        <path id="DejaVuSans-2212" d="M 678 2272 
L 4684 2272 
L 4684 1741 
L 678 1741 
L 678 2272 
z
" transform="scale(0.015625)"/>
        <path id="DejaVuSans-33" d="M 2597 2516 
Q 3050 2419 3304 2112 
Q 3559 1806 3559 1356 
Q 3559 666 3084 287 
Q 2609 -91 1734 -91 
Q 1441 -91 1130 -33 
Q 819 25 488 141 
L 488 750 
Q 750 597 1062 519 
Q 1375 441 1716 441 
Q 2309 441 2620 675 
Q 2931 909 2931 1356 
Q 2931 1769 2642 2001 
Q 2353 2234 1838 2234 
L 1294 2234 
L 1294 2753 
L 1863 2753 
Q 2328 2753 2575 2939 
Q 2822 3125 2822 3475 
Q 2822 3834 2567 4026 
Q 2313 4219 1838 4219 
Q 1578 4219 1281 4162 
Q 984 4106 628 3988 
L 628 4550 
Q 988 4650 1302 4700 
Q 1616 4750 1894 4750 
Q 2613 4750 3031 4423 
Q 3450 4097 3450 3541 
Q 3450 3153 3228 2886 
Q 3006 2619 2597 2516 
z
" transform="scale(0.015625)"/>
       </defs>
       <use xlink:href="#DejaVuSans-31" transform="translate(0 0.765625)"/>
       <use xlink:href="#DejaVuSans-30" transform="translate(63.623047 0.765625)"/>
       <use xlink:href="#DejaVuSans-2212" transform="translate(128.203125 39.046875) scale(0.7)"/>
       <use xlink:href="#DejaVuSans-31" transform="translate(186.855469 39.046875) scale(0.7)"/>
       <use xlink:href="#DejaVuSans-33" transform="translate(231.391602 39.046875) scale(0.7)"/>
      </g>
     </g>
    </g>
    <g id="ytick_2">
     <g id="line2d_26">
      <g>
       <use xlink:href="#mf26cb4304a" x="60.333889" y="69.526554" style="stroke: #000000; stroke-width: 0.8"/>
      </g>
     </g>
     <g id="text_2">
      <!-- $\mathdefault{10^{-12}}$ -->
      <g transform="translate(25.433889 73.325772) scale(0.1 -0.1)">
       <defs>
        <path id="DejaVuSans-32" d="M 1228 531 
L 3431 531 
L 3431 0 
L 469 0 
L 469 531 
Q 828 903 1448 1529 
Q 2069 2156 2228 2338 
Q 2531 2678 2651 2914 
Q 2772 3150 2772 3378 
Q 2772 3750 2511 3984 
Q 2250 4219 1831 4219 
Q 1534 4219 1204 4116 
Q 875 4013 500 3803 
L 500 4441 
Q 881 4594 1212 4672 
Q 1544 4750 1819 4750 
Q 2544 4750 2975 4387 
Q 3406 4025 3406 3419 
Q 3406 3131 3298 2873 
Q 3191 2616 2906 2266 
Q 2828 2175 2409 1742 
Q 1991 1309 1228 531 
z
" transform="scale(0.015625)"/>
       </defs>
       <use xlink:href="#DejaVuSans-31" transform="translate(0 0.765625)"/>
       <use xlink:href="#DejaVuSans-30" transform="translate(63.623047 0.765625)"/>
       <use xlink:href="#DejaVuSans-2212" transform="translate(128.203125 39.046875) scale(0.7)"/>
       <use xlink:href="#DejaVuSans-31" transform="translate(186.855469 39.046875) scale(0.7)"/>
       <use xlink:href="#DejaVuSans-32" transform="translate(231.391602 39.046875) scale(0.7)"/>
      </g>
     </g>
    </g>
    <g id="ytick_3">
     <g id="line2d_27">
      <defs>
       <path id="m4b614948aa" d="M 0 0 
L -2 0 
" style="stroke: #000000; stroke-width: 0.6"/>
      </defs>
      <g>
       <use xlink:href="#m4b614948aa" x="60.333889" y="183.469325" style="stroke: #000000; stroke-width: 0.6"/>
      </g>
     </g>
    </g>
    <g id="ytick_4">
     <g id="line2d_28">
      <g>
       <use xlink:href="#m4b614948aa" x="60.333889" y="175.57042" style="stroke: #000000; stroke-width: 0.6"/>
      </g>
     </g>
    </g>
    <g id="ytick_5">
     <g id="line2d_29">
      <g>
       <use xlink:href="#m4b614948aa" x="60.333889" y="169.116544" style="stroke: #000000; stroke-width: 0.6"/>
      </g>
     </g>
    </g>
    <g id="ytick_6">
     <g id="line2d_30">
      <g>
       <use xlink:href="#m4b614948aa" x="60.333889" y="163.659871" style="stroke: #000000; stroke-width: 0.6"/>
      </g>
     </g>
    </g>
    <g id="ytick_7">
     <g id="line2d_31">
      <g>
       <use xlink:href="#m4b614948aa" x="60.333889" y="158.933085" style="stroke: #000000; stroke-width: 0.6"/>
      </g>
     </g>
    </g>
    <g id="ytick_8">
     <g id="line2d_32">
      <g>
       <use xlink:href="#m4b614948aa" x="60.333889" y="154.763764" style="stroke: #000000; stroke-width: 0.6"/>
      </g>
     </g>
    </g>
    <g id="ytick_9">
     <g id="line2d_33">
      <g>
       <use xlink:href="#m4b614948aa" x="60.333889" y="126.497939" style="stroke: #000000; stroke-width: 0.6"/>
      </g>
     </g>
    </g>
    <g id="ytick_10">
     <g id="line2d_34">
      <g>
       <use xlink:href="#m4b614948aa" x="60.333889" y="112.145159" style="stroke: #000000; stroke-width: 0.6"/>
      </g>
     </g>
    </g>
    <g id="ytick_11">
     <g id="line2d_35">
      <g>
       <use xlink:href="#m4b614948aa" x="60.333889" y="101.961699" style="stroke: #000000; stroke-width: 0.6"/>
      </g>
     </g>
    </g>
    <g id="ytick_12">
     <g id="line2d_36">
      <g>
       <use xlink:href="#m4b614948aa" x="60.333889" y="94.062794" style="stroke: #000000; stroke-width: 0.6"/>
      </g>
     </g>
    </g>
    <g id="ytick_13">
     <g id="line2d_37">
      <g>
       <use xlink:href="#m4b614948aa" x="60.333889" y="87.608919" style="stroke: #000000; stroke-width: 0.6"/>
      </g>
     </g>
    </g>
    <g id="ytick_14">
     <g id="line2d_38">
      <g>
       <use xlink:href="#m4b614948aa" x="60.333889" y="82.152245" style="stroke: #000000; stroke-width: 0.6"/>
      </g>
     </g>
    </g>
    <g id="ytick_15">
     <g id="line2d_39">
      <g>
       <use xlink:href="#m4b614948aa" x="60.333889" y="77.425459" style="stroke: #000000; stroke-width: 0.6"/>
      </g>
     </g>
    </g>
    <g id="ytick_16">
     <g id="line2d_40">
      <g>
       <use xlink:href="#m4b614948aa" x="60.333889" y="73.256138" style="stroke: #000000; stroke-width: 0.6"/>
      </g>
     </g>
    </g>
    <g id="ytick_17">
     <g id="line2d_41">
      <g>
       <use xlink:href="#m4b614948aa" x="60.333889" y="44.990313" style="stroke: #000000; stroke-width: 0.6"/>
      </g>
     </g>
    </g>
    <g id="ytick_18">
     <g id="line2d_42">
      <g>
       <use xlink:href="#m4b614948aa" x="60.333889" y="30.637533" style="stroke: #000000; stroke-width: 0.6"/>
      </g>
     </g>
    </g>
    <g id="text_3">
     <!-- e2 * dnde [TeV / (cm2 s)] -->
     <g transform="translate(19.354202 170.416088) rotate(-90) scale(0.1 -0.1)">
      <defs>
       <path id="DejaVuSans-65" d="M 3597 1894 
L 3597 1613 
L 953 1613 
Q 991 1019 1311 708 
Q 1631 397 2203 397 
Q 2534 397 2845 478 
Q 3156 559 3463 722 
L 3463 178 
Q 3153 47 2828 -22 
Q 2503 -91 2169 -91 
Q 1331 -91 842 396 
Q 353 884 353 1716 
Q 353 2575 817 3079 
Q 1281 3584 2069 3584 
Q 2775 3584 3186 3129 
Q 3597 2675 3597 1894 
z
M 3022 2063 
Q 3016 2534 2758 2815 
Q 2500 3097 2075 3097 
Q 1594 3097 1305 2825 
Q 1016 2553 972 2059 
L 3022 2063 
z
" transform="scale(0.015625)"/>
       <path id="DejaVuSans-20" transform="scale(0.015625)"/>
       <path id="DejaVuSans-2a" d="M 3009 3897 
L 1888 3291 
L 3009 2681 
L 2828 2375 
L 1778 3009 
L 1778 1831 
L 1422 1831 
L 1422 3009 
L 372 2375 
L 191 2681 
L 1313 3291 
L 191 3897 
L 372 4206 
L 1422 3572 
L 1422 4750 
L 1778 4750 
L 1778 3572 
L 2828 4206 
L 3009 3897 
z
" transform="scale(0.015625)"/>
       <path id="DejaVuSans-64" d="M 2906 2969 
L 2906 4863 
L 3481 4863 
L 3481 0 
L 2906 0 
L 2906 525 
Q 2725 213 2448 61 
Q 2172 -91 1784 -91 
Q 1150 -91 751 415 
Q 353 922 353 1747 
Q 353 2572 751 3078 
Q 1150 3584 1784 3584 
Q 2172 3584 2448 3432 
Q 2725 3281 2906 2969 
z
M 947 1747 
Q 947 1113 1208 752 
Q 1469 391 1925 391 
Q 2381 391 2643 752 
Q 2906 1113 2906 1747 
Q 2906 2381 2643 2742 
Q 2381 3103 1925 3103 
Q 1469 3103 1208 2742 
Q 947 2381 947 1747 
z
" transform="scale(0.015625)"/>
       <path id="DejaVuSans-6e" d="M 3513 2113 
L 3513 0 
L 2938 0 
L 2938 2094 
Q 2938 2591 2744 2837 
Q 2550 3084 2163 3084 
Q 1697 3084 1428 2787 
Q 1159 2491 1159 1978 
L 1159 0 
L 581 0 
L 581 3500 
L 1159 3500 
L 1159 2956 
Q 1366 3272 1645 3428 
Q 1925 3584 2291 3584 
Q 2894 3584 3203 3211 
Q 3513 2838 3513 2113 
z
" transform="scale(0.015625)"/>
       <path id="DejaVuSans-5b" d="M 550 4863 
L 1875 4863 
L 1875 4416 
L 1125 4416 
L 1125 -397 
L 1875 -397 
L 1875 -844 
L 550 -844 
L 550 4863 
z
" transform="scale(0.015625)"/>
       <path id="DejaVuSans-54" d="M -19 4666 
L 3928 4666 
L 3928 4134 
L 2272 4134 
L 2272 0 
L 1638 0 
L 1638 4134 
L -19 4134 
L -19 4666 
z
" transform="scale(0.015625)"/>
       <path id="DejaVuSans-56" d="M 1831 0 
L 50 4666 
L 709 4666 
L 2188 738 
L 3669 4666 
L 4325 4666 
L 2547 0 
L 1831 0 
z
" transform="scale(0.015625)"/>
       <path id="DejaVuSans-2f" d="M 1625 4666 
L 2156 4666 
L 531 -594 
L 0 -594 
L 1625 4666 
z
" transform="scale(0.015625)"/>
       <path id="DejaVuSans-28" d="M 1984 4856 
Q 1566 4138 1362 3434 
Q 1159 2731 1159 2009 
Q 1159 1288 1364 580 
Q 1569 -128 1984 -844 
L 1484 -844 
Q 1016 -109 783 600 
Q 550 1309 550 2009 
Q 550 2706 781 3412 
Q 1013 4119 1484 4856 
L 1984 4856 
z
" transform="scale(0.015625)"/>
       <path id="DejaVuSans-63" d="M 3122 3366 
L 3122 2828 
Q 2878 2963 2633 3030 
Q 2388 3097 2138 3097 
Q 1578 3097 1268 2742 
Q 959 2388 959 1747 
Q 959 1106 1268 751 
Q 1578 397 2138 397 
Q 2388 397 2633 464 
Q 2878 531 3122 666 
L 3122 134 
Q 2881 22 2623 -34 
Q 2366 -91 2075 -91 
Q 1284 -91 818 406 
Q 353 903 353 1747 
Q 353 2603 823 3093 
Q 1294 3584 2113 3584 
Q 2378 3584 2631 3529 
Q 2884 3475 3122 3366 
z
" transform="scale(0.015625)"/>
       <path id="DejaVuSans-6d" d="M 3328 2828 
Q 3544 3216 3844 3400 
Q 4144 3584 4550 3584 
Q 5097 3584 5394 3201 
Q 5691 2819 5691 2113 
L 5691 0 
L 5113 0 
L 5113 2094 
Q 5113 2597 4934 2840 
Q 4756 3084 4391 3084 
Q 3944 3084 3684 2787 
Q 3425 2491 3425 1978 
L 3425 0 
L 2847 0 
L 2847 2094 
Q 2847 2600 2669 2842 
Q 2491 3084 2119 3084 
Q 1678 3084 1418 2786 
Q 1159 2488 1159 1978 
L 1159 0 
L 581 0 
L 581 3500 
L 1159 3500 
L 1159 2956 
Q 1356 3278 1631 3431 
Q 1906 3584 2284 3584 
Q 2666 3584 2933 3390 
Q 3200 3197 3328 2828 
z
" transform="scale(0.015625)"/>
       <path id="DejaVuSans-73" d="M 2834 3397 
L 2834 2853 
Q 2591 2978 2328 3040 
Q 2066 3103 1784 3103 
Q 1356 3103 1142 2972 
Q 928 2841 928 2578 
Q 928 2378 1081 2264 
Q 1234 2150 1697 2047 
L 1894 2003 
Q 2506 1872 2764 1633 
Q 3022 1394 3022 966 
Q 3022 478 2636 193 
Q 2250 -91 1575 -91 
Q 1294 -91 989 -36 
Q 684 19 347 128 
L 347 722 
Q 666 556 975 473 
Q 1284 391 1588 391 
Q 1994 391 2212 530 
Q 2431 669 2431 922 
Q 2431 1156 2273 1281 
Q 2116 1406 1581 1522 
L 1381 1569 
Q 847 1681 609 1914 
Q 372 2147 372 2553 
Q 372 3047 722 3315 
Q 1072 3584 1716 3584 
Q 2034 3584 2315 3537 
Q 2597 3491 2834 3397 
z
" transform="scale(0.015625)"/>
       <path id="DejaVuSans-29" d="M 513 4856 
L 1013 4856 
Q 1481 4119 1714 3412 
Q 1947 2706 1947 2009 
Q 1947 1309 1714 600 
Q 1481 -109 1013 -844 
L 513 -844 
Q 928 -128 1133 580 
Q 1338 1288 1338 2009 
Q 1338 2731 1133 3434 
Q 928 4138 513 4856 
z
" transform="scale(0.015625)"/>
       <path id="DejaVuSans-5d" d="M 1947 4863 
L 1947 -844 
L 622 -844 
L 622 -397 
L 1369 -397 
L 1369 4416 
L 622 4416 
L 622 4863 
L 1947 4863 
z
" transform="scale(0.015625)"/>
      </defs>
      <use xlink:href="#DejaVuSans-65"/>
      <use xlink:href="#DejaVuSans-32" x="61.523438"/>
      <use xlink:href="#DejaVuSans-20" x="125.146484"/>
      <use xlink:href="#DejaVuSans-2a" x="156.933594"/>
      <use xlink:href="#DejaVuSans-20" x="206.933594"/>
      <use xlink:href="#DejaVuSans-64" x="238.720703"/>
      <use xlink:href="#DejaVuSans-6e" x="302.197266"/>
      <use xlink:href="#DejaVuSans-64" x="365.576172"/>
      <use xlink:href="#DejaVuSans-65" x="429.052734"/>
      <use xlink:href="#DejaVuSans-20" x="490.576172"/>
      <use xlink:href="#DejaVuSans-5b" x="522.363281"/>
      <use xlink:href="#DejaVuSans-54" x="561.376953"/>
      <use xlink:href="#DejaVuSans-65" x="605.460938"/>
      <use xlink:href="#DejaVuSans-56" x="666.984375"/>
      <use xlink:href="#DejaVuSans-20" x="735.392578"/>
      <use xlink:href="#DejaVuSans-2f" x="767.179688"/>
      <use xlink:href="#DejaVuSans-20" x="800.871094"/>
      <use xlink:href="#DejaVuSans-28" x="832.658203"/>
      <use xlink:href="#DejaVuSans-63" x="871.671875"/>
      <use xlink:href="#DejaVuSans-6d" x="926.652344"/>
      <use xlink:href="#DejaVuSans-32" x="1024.064453"/>
      <use xlink:href="#DejaVuSans-20" x="1087.6875"/>
      <use xlink:href="#DejaVuSans-73" x="1119.474609"/>
      <use xlink:href="#DejaVuSans-29" x="1171.574219"/>
      <use xlink:href="#DejaVuSans-5d" x="1210.587891"/>
     </g>
    </g>
   </g>
   <g id="line2d_43">
    <path d="M 74.752107 62.145019 
L 77.327987 62.66463 
L 79.903868 63.184242 
L 82.479748 63.703853 
L 85.055628 64.223464 
L 87.631508 64.743075 
L 90.207388 65.262686 
L 92.783269 65.782297 
L 95.359149 66.301908 
L 97.935029 66.821519 
L 100.510909 67.34113 
L 103.08679 67.860742 
L 105.66267 68.380353 
L 108.23855 68.899964 
L 110.81443 69.419575 
L 113.39031 69.939186 
L 115.966191 70.458797 
L 118.542071 70.978408 
L 121.117951 71.498019 
L 123.693831 72.017631 
L 126.269711 72.537242 
L 128.845592 73.056853 
L 131.421472 73.576464 
L 133.997352 74.096075 
L 136.573232 74.615686 
L 139.149112 75.135297 
L 141.724993 75.654908 
L 144.300873 76.174519 
L 146.876753 76.694131 
L 149.452633 77.213742 
L 152.028514 77.733353 
L 154.604394 78.252964 
L 157.180274 78.772575 
L 159.756154 79.292186 
L 162.332034 79.811797 
L 164.907915 80.331408 
L 167.483795 80.851019 
L 170.059675 81.370631 
L 172.635555 81.890242 
L 175.211435 82.409853 
L 177.787316 82.929464 
L 180.363196 83.449075 
L 182.939076 83.968686 
L 185.514956 84.488297 
L 188.090836 85.007908 
L 190.666717 85.527519 
L 193.242597 86.047131 
L 195.818477 86.566742 
L 198.394357 87.086353 
L 200.970238 87.605964 
L 203.546118 88.125575 
L 206.121998 88.645186 
L 208.697878 89.164797 
L 211.273758 89.684408 
L 213.849639 90.20402 
L 216.425519 90.723631 
L 219.001399 91.243242 
L 221.577279 91.762853 
L 224.153159 92.282464 
L 226.72904 92.802075 
L 229.30492 93.321686 
L 231.8808 93.841297 
L 234.45668 94.360908 
L 237.03256 94.88052 
L 239.608441 95.400131 
L 242.184321 95.919742 
L 244.760201 96.439353 
L 247.336081 96.958964 
L 249.911962 97.478575 
L 252.487842 97.998186 
L 255.063722 98.517797 
L 257.639602 99.037408 
L 260.215482 99.55702 
L 262.791363 100.076631 
L 265.367243 100.596242 
L 267.943123 101.115853 
L 270.519003 101.635464 
L 273.094883 102.155075 
L 275.670764 102.674686 
L 278.246644 103.194297 
L 280.822524 103.713909 
L 283.398404 104.23352 
L 285.974285 104.753131 
L 288.550165 105.272742 
L 291.126045 105.792353 
L 293.701925 106.311964 
L 296.277805 106.831575 
L 298.853686 107.351186 
L 301.429566 107.870797 
L 304.005446 108.390409 
L 306.581326 108.91002 
L 309.157206 109.429631 
L 311.733087 109.949242 
L 314.308967 110.468853 
L 316.884847 110.988464 
L 319.460727 111.508075 
L 322.036607 112.027686 
L 324.612488 112.547297 
L 327.188368 113.066909 
L 329.764248 113.58652 
" clip-path="url(#pceff6c455b)" style="fill: none; stroke-dasharray: 1.5,2.475; stroke-dashoffset: 0; stroke: #000000; stroke-width: 1.5"/>
   </g>
   <g id="LineCollection_1">
    <path clip-path="url(#pceff6c455b)" style="fill: none; stroke: #006400; stroke-width: 1.5"/>
    <path clip-path="url(#pceff6c455b)" style="fill: none; stroke: #006400; stroke-width: 1.5"/>
    <path clip-path="url(#pceff6c455b)" style="fill: none; stroke: #006400; stroke-width: 1.5"/>
    <path clip-path="url(#pceff6c455b)" style="fill: none; stroke: #006400; stroke-width: 1.5"/>
    <path clip-path="url(#pceff6c455b)" style="fill: none; stroke: #006400; stroke-width: 1.5"/>
    <path d="M 73.464167 361 
L 73.464167 37.409703 
" clip-path="url(#pceff6c455b)" style="fill: none; stroke: #006400; stroke-width: 1.5"/>
    <path d="M 88.616404 85.717954 
L 88.616404 53.889726 
" clip-path="url(#pceff6c455b)" style="fill: none; stroke: #006400; stroke-width: 1.5"/>
    <path d="M 103.76864 79.055794 
L 103.76864 62.188802 
" clip-path="url(#pceff6c455b)" style="fill: none; stroke: #006400; stroke-width: 1.5"/>
    <path d="M 118.920877 81.190875 
L 118.920877 66.201326 
" clip-path="url(#pceff6c455b)" style="fill: none; stroke: #006400; stroke-width: 1.5"/>
    <path d="M 134.073113 84.483397 
L 134.073113 69.481412 
" clip-path="url(#pceff6c455b)" style="fill: none; stroke: #006400; stroke-width: 1.5"/>
    <path d="M 149.22535 87.996877 
L 149.22535 72.616242 
" clip-path="url(#pceff6c455b)" style="fill: none; stroke: #006400; stroke-width: 1.5"/>
    <path d="M 164.377586 91.760968 
L 164.377586 75.596065 
" clip-path="url(#pceff6c455b)" style="fill: none; stroke: #006400; stroke-width: 1.5"/>
    <path d="M 179.529823 95.757675 
L 179.529823 78.431252 
" clip-path="url(#pceff6c455b)" style="fill: none; stroke: #006400; stroke-width: 1.5"/>
    <path d="M 194.682059 99.808244 
L 194.682059 81.253521 
" clip-path="url(#pceff6c455b)" style="fill: none; stroke: #006400; stroke-width: 1.5"/>
    <path d="M 209.834296 104.204479 
L 209.834296 83.893874 
" clip-path="url(#pceff6c455b)" style="fill: none; stroke: #006400; stroke-width: 1.5"/>
    <path d="M 224.986532 108.97335 
L 224.986532 86.365577 
" clip-path="url(#pceff6c455b)" style="fill: none; stroke: #006400; stroke-width: 1.5"/>
    <path d="M 240.138769 114.028706 
L 240.138769 88.746338 
" clip-path="url(#pceff6c455b)" style="fill: none; stroke: #006400; stroke-width: 1.5"/>
    <path d="M 255.291006 119.664326 
L 255.291006 90.931072 
" clip-path="url(#pceff6c455b)" style="fill: none; stroke: #006400; stroke-width: 1.5"/>
    <path d="M 270.443242 126.002137 
L 270.443242 92.933101 
" clip-path="url(#pceff6c455b)" style="fill: none; stroke: #006400; stroke-width: 1.5"/>
    <path d="M 285.595479 132.838875 
L 285.595479 94.906888 
" clip-path="url(#pceff6c455b)" style="fill: none; stroke: #006400; stroke-width: 1.5"/>
    <path d="M 300.747715 140.942891 
L 300.747715 96.675762 
" clip-path="url(#pceff6c455b)" style="fill: none; stroke: #006400; stroke-width: 1.5"/>
    <path d="M 315.899952 151.680345 
L 315.899952 98.079565 
" clip-path="url(#pceff6c455b)" style="fill: none; stroke: #006400; stroke-width: 1.5"/>
    <path d="M 331.052188 169.886475 
L 331.052188 98.775296 
" clip-path="url(#pceff6c455b)" style="fill: none; stroke: #006400; stroke-width: 1.5"/>
    <path clip-path="url(#pceff6c455b)" style="fill: none; stroke: #006400; stroke-width: 1.5"/>
   </g>
   <g id="LineCollection_2">
    <path clip-path="url(#pceff6c455b)" style="fill: none; stroke: #8b0000; stroke-width: 1.5"/>
    <path clip-path="url(#pceff6c455b)" style="fill: none; stroke: #8b0000; stroke-width: 1.5"/>
    <path clip-path="url(#pceff6c455b)" style="fill: none; stroke: #8b0000; stroke-width: 1.5"/>
    <path clip-path="url(#pceff6c455b)" style="fill: none; stroke: #8b0000; stroke-width: 1.5"/>
    <path clip-path="url(#pceff6c455b)" style="fill: none; stroke: #8b0000; stroke-width: 1.5"/>
    <path d="M 76.032689 361 
L 76.032689 37.496417 
" clip-path="url(#pceff6c455b)" style="fill: none; stroke: #8b0000; stroke-width: 1.5"/>
    <path d="M 91.184926 84.940231 
L 91.184926 54.21276 
" clip-path="url(#pceff6c455b)" style="fill: none; stroke: #8b0000; stroke-width: 1.5"/>
    <path d="M 106.337162 77.914555 
L 106.337162 62.917485 
" clip-path="url(#pceff6c455b)" style="fill: none; stroke: #8b0000; stroke-width: 1.5"/>
    <path d="M 121.489399 79.925668 
L 121.489399 67.063691 
" clip-path="url(#pceff6c455b)" style="fill: none; stroke: #8b0000; stroke-width: 1.5"/>
    <path d="M 136.641635 83.245102 
L 136.641635 70.325375 
" clip-path="url(#pceff6c455b)" style="fill: none; stroke: #8b0000; stroke-width: 1.5"/>
    <path d="M 151.793872 86.809361 
L 151.793872 73.4178 
" clip-path="url(#pceff6c455b)" style="fill: none; stroke: #8b0000; stroke-width: 1.5"/>
    <path d="M 166.946108 90.643022 
L 166.946108 76.330908 
" clip-path="url(#pceff6c455b)" style="fill: none; stroke: #8b0000; stroke-width: 1.5"/>
    <path d="M 182.098345 94.714061 
L 182.098345 79.09642 
" clip-path="url(#pceff6c455b)" style="fill: none; stroke: #8b0000; stroke-width: 1.5"/>
    <path d="M 197.250582 98.840303 
L 197.250582 81.849684 
" clip-path="url(#pceff6c455b)" style="fill: none; stroke: #8b0000; stroke-width: 1.5"/>
    <path d="M 212.402818 103.298869 
L 212.402818 84.42272 
" clip-path="url(#pceff6c455b)" style="fill: none; stroke: #8b0000; stroke-width: 1.5"/>
    <path d="M 227.555055 108.121107 
L 227.555055 86.832407 
" clip-path="url(#pceff6c455b)" style="fill: none; stroke: #8b0000; stroke-width: 1.5"/>
    <path d="M 242.707291 113.222836 
L 242.707291 89.155176 
" clip-path="url(#pceff6c455b)" style="fill: none; stroke: #8b0000; stroke-width: 1.5"/>
    <path d="M 257.859528 118.899428 
L 257.859528 91.282305 
" clip-path="url(#pceff6c455b)" style="fill: none; stroke: #8b0000; stroke-width: 1.5"/>
    <path d="M 273.011764 125.269922 
L 273.011764 93.232643 
" clip-path="url(#pceff6c455b)" style="fill: none; stroke: #8b0000; stroke-width: 1.5"/>
    <path d="M 288.164001 132.123113 
L 288.164001 95.164312 
" clip-path="url(#pceff6c455b)" style="fill: none; stroke: #8b0000; stroke-width: 1.5"/>
    <path d="M 303.316237 140.221333 
L 303.316237 96.893094 
" clip-path="url(#pceff6c455b)" style="fill: none; stroke: #8b0000; stroke-width: 1.5"/>
    <path d="M 318.468474 150.91041 
L 318.468474 98.259171 
" clip-path="url(#pceff6c455b)" style="fill: none; stroke: #8b0000; stroke-width: 1.5"/>
    <path d="M 333.62071 168.907632 
L 333.62071 98.916782 
" clip-path="url(#pceff6c455b)" style="fill: none; stroke: #8b0000; stroke-width: 1.5"/>
    <path clip-path="url(#pceff6c455b)" style="fill: none; stroke: #8b0000; stroke-width: 1.5"/>
   </g>
   <g id="LineCollection_3">
    <path clip-path="url(#pceff6c455b)" style="fill: none; stroke: #1f77b4; stroke-width: 1.5"/>
    <path clip-path="url(#pceff6c455b)" style="fill: none; stroke: #1f77b4; stroke-width: 1.5"/>
    <path clip-path="url(#pceff6c455b)" style="fill: none; stroke: #1f77b4; stroke-width: 1.5"/>
    <path clip-path="url(#pceff6c455b)" style="fill: none; stroke: #1f77b4; stroke-width: 1.5"/>
    <path clip-path="url(#pceff6c455b)" style="fill: none; stroke: #1f77b4; stroke-width: 1.5"/>
    <path d="M 78.481701 132.264546 
L 78.481701 32.939673 
" clip-path="url(#pceff6c455b)" style="fill: none; stroke: #1f77b4; stroke-width: 1.5"/>
    <path d="M 93.633938 79.935596 
L 93.633938 50.155058 
" clip-path="url(#pceff6c455b)" style="fill: none; stroke: #1f77b4; stroke-width: 1.5"/>
    <path d="M 108.786174 75.844045 
L 108.786174 60.908327 
" clip-path="url(#pceff6c455b)" style="fill: none; stroke: #1f77b4; stroke-width: 1.5"/>
    <path d="M 123.938411 82.166949 
L 123.938411 66.475417 
" clip-path="url(#pceff6c455b)" style="fill: none; stroke: #1f77b4; stroke-width: 1.5"/>
    <path d="M 139.090647 81.447853 
L 139.090647 65.343619 
" clip-path="url(#pceff6c455b)" style="fill: none; stroke: #1f77b4; stroke-width: 1.5"/>
    <path d="M 154.242884 85.518033 
L 154.242884 69.981625 
" clip-path="url(#pceff6c455b)" style="fill: none; stroke: #1f77b4; stroke-width: 1.5"/>
    <path d="M 169.39512 99.114464 
L 169.39512 70.595631 
" clip-path="url(#pceff6c455b)" style="fill: none; stroke: #1f77b4; stroke-width: 1.5"/>
    <path d="M 184.547357 88.248658 
L 184.547357 74.027121 
" clip-path="url(#pceff6c455b)" style="fill: none; stroke: #1f77b4; stroke-width: 1.5"/>
    <path d="M 199.699593 94.779722 
L 199.699593 75.219873 
" clip-path="url(#pceff6c455b)" style="fill: none; stroke: #1f77b4; stroke-width: 1.5"/>
    <path d="M 214.85183 99.842727 
L 214.85183 76.840548 
" clip-path="url(#pceff6c455b)" style="fill: none; stroke: #1f77b4; stroke-width: 1.5"/>
    <path d="M 230.004067 102.295778 
L 230.004067 81.722831 
" clip-path="url(#pceff6c455b)" style="fill: none; stroke: #1f77b4; stroke-width: 1.5"/>
    <path d="M 245.156303 105.065365 
L 245.156303 88.18957 
" clip-path="url(#pceff6c455b)" style="fill: none; stroke: #1f77b4; stroke-width: 1.5"/>
    <path d="M 260.30854 103.479334 
L 260.30854 84.747702 
" clip-path="url(#pceff6c455b)" style="fill: none; stroke: #1f77b4; stroke-width: 1.5"/>
    <path d="M 275.460776 113.293166 
L 275.460776 79.965106 
" clip-path="url(#pceff6c455b)" style="fill: none; stroke: #1f77b4; stroke-width: 1.5"/>
    <path d="M 290.613013 122.940373 
L 290.613013 80.381283 
" clip-path="url(#pceff6c455b)" style="fill: none; stroke: #1f77b4; stroke-width: 1.5"/>
    <path d="M 305.765249 131.125976 
L 305.765249 94.99447 
" clip-path="url(#pceff6c455b)" style="fill: none; stroke: #1f77b4; stroke-width: 1.5"/>
    <path d="M 320.917486 182.933127 
L 320.917486 96.251967 
" clip-path="url(#pceff6c455b)" style="fill: none; stroke: #1f77b4; stroke-width: 1.5"/>
    <path d="M 336.069722 161.905435 
L 336.069722 92.39133 
" clip-path="url(#pceff6c455b)" style="fill: none; stroke: #1f77b4; stroke-width: 1.5"/>
    <path clip-path="url(#pceff6c455b)" style="fill: none; stroke: #1f77b4; stroke-width: 1.5"/>
   </g>
   <g id="line2d_44">
    <defs>
     <path id="m54b6760a96" d="M -3 3 
L 3 -3 
M -3 -3 
L 3 3 
" style="stroke: #006400"/>
    </defs>
    <g clip-path="url(#pceff6c455b)">
     <use xlink:href="#m54b6760a96" x="73.464167" y="63.049418" style="fill: #006400; stroke: #006400"/>
     <use xlink:href="#m54b6760a96" x="88.616404" y="66.340948" style="fill: #006400; stroke: #006400"/>
     <use xlink:href="#m54b6760a96" x="103.76864" y="69.627038" style="fill: #006400; stroke: #006400"/>
     <use xlink:href="#m54b6760a96" x="118.920877" y="72.908536" style="fill: #006400; stroke: #006400"/>
     <use xlink:href="#m54b6760a96" x="134.073113" y="76.193542" style="fill: #006400; stroke: #006400"/>
     <use xlink:href="#m54b6760a96" x="149.22535" y="79.477684" style="fill: #006400; stroke: #006400"/>
     <use xlink:href="#m54b6760a96" x="164.377586" y="82.763696" style="fill: #006400; stroke: #006400"/>
     <use xlink:href="#m54b6760a96" x="179.529823" y="86.044784" style="fill: #006400; stroke: #006400"/>
     <use xlink:href="#m54b6760a96" x="194.682059" y="89.328823" style="fill: #006400; stroke: #006400"/>
     <use xlink:href="#m54b6760a96" x="209.834296" y="92.612021" style="fill: #006400; stroke: #006400"/>
     <use xlink:href="#m54b6760a96" x="224.986532" y="95.894471" style="fill: #006400; stroke: #006400"/>
     <use xlink:href="#m54b6760a96" x="240.138769" y="99.176764" style="fill: #006400; stroke: #006400"/>
     <use xlink:href="#m54b6760a96" x="255.291006" y="102.458995" style="fill: #006400; stroke: #006400"/>
     <use xlink:href="#m54b6760a96" x="270.443242" y="105.738748" style="fill: #006400; stroke: #006400"/>
     <use xlink:href="#m54b6760a96" x="285.595479" y="109.017974" style="fill: #006400; stroke: #006400"/>
     <use xlink:href="#m54b6760a96" x="300.747715" y="112.298421" style="fill: #006400; stroke: #006400"/>
     <use xlink:href="#m54b6760a96" x="315.899952" y="115.5774" style="fill: #006400; stroke: #006400"/>
     <use xlink:href="#m54b6760a96" x="331.052188" y="118.855849" style="fill: #006400; stroke: #006400"/>
    </g>
   </g>
   <g id="line2d_45">
    <defs>
     <path id="m0d12a446c3" d="M -3 3 
L 3 -3 
M -3 -3 
L 3 3 
" style="stroke: #8b0000"/>
    </defs>
    <g clip-path="url(#pceff6c455b)">
     <use xlink:href="#m0d12a446c3" x="76.032689" y="63.052282" style="fill: #8b0000; stroke: #8b0000"/>
     <use xlink:href="#m0d12a446c3" x="91.184926" y="66.34208" style="fill: #8b0000; stroke: #8b0000"/>
     <use xlink:href="#m0d12a446c3" x="106.337162" y="69.627671" style="fill: #8b0000; stroke: #8b0000"/>
     <use xlink:href="#m0d12a446c3" x="121.489399" y="72.913691" style="fill: #8b0000; stroke: #8b0000"/>
     <use xlink:href="#m0d12a446c3" x="136.641635" y="76.199049" style="fill: #8b0000; stroke: #8b0000"/>
     <use xlink:href="#m0d12a446c3" x="151.793872" y="79.48405" style="fill: #8b0000; stroke: #8b0000"/>
     <use xlink:href="#m0d12a446c3" x="166.946108" y="82.768511" style="fill: #8b0000; stroke: #8b0000"/>
     <use xlink:href="#m0d12a446c3" x="182.098345" y="86.050829" style="fill: #8b0000; stroke: #8b0000"/>
     <use xlink:href="#m0d12a446c3" x="197.250582" y="89.335229" style="fill: #8b0000; stroke: #8b0000"/>
     <use xlink:href="#m0d12a446c3" x="212.402818" y="92.617212" style="fill: #8b0000; stroke: #8b0000"/>
     <use xlink:href="#m0d12a446c3" x="227.555055" y="95.89992" style="fill: #8b0000; stroke: #8b0000"/>
     <use xlink:href="#m0d12a446c3" x="242.707291" y="99.181752" style="fill: #8b0000; stroke: #8b0000"/>
     <use xlink:href="#m0d12a446c3" x="257.859528" y="102.463227" style="fill: #8b0000; stroke: #8b0000"/>
     <use xlink:href="#m0d12a446c3" x="273.011764" y="105.744201" style="fill: #8b0000; stroke: #8b0000"/>
     <use xlink:href="#m0d12a446c3" x="288.164001" y="109.02458" style="fill: #8b0000; stroke: #8b0000"/>
     <use xlink:href="#m0d12a446c3" x="303.316237" y="112.304585" style="fill: #8b0000; stroke: #8b0000"/>
     <use xlink:href="#m0d12a446c3" x="318.468474" y="115.583897" style="fill: #8b0000; stroke: #8b0000"/>
     <use xlink:href="#m0d12a446c3" x="333.62071" y="118.862966" style="fill: #8b0000; stroke: #8b0000"/>
    </g>
   </g>
   <g id="line2d_46">
    <path d="M 78.481701 55.398232 
L 93.633938 62.001761 
L 108.786174 67.594226 
L 123.938411 73.458733 
L 139.090647 72.487712 
L 154.242884 76.904213 
L 169.39512 82.057475 
L 184.547357 80.428441 
L 199.699593 83.665634 
L 214.85183 86.505232 
L 230.004067 90.535293 
L 245.156303 95.631179 
L 260.30854 92.888689 
L 275.460776 92.843626 
L 290.613013 95.616528 
L 305.765249 108.637473 
L 320.917486 117.854681 
L 336.069722 112.279191 
" clip-path="url(#pceff6c455b)" style="fill: none; stroke: #1f77b4; stroke-width: 1.5; stroke-linecap: square"/>
   </g>
   <g id="patch_3">
    <path d="M 60.333889 190.4328 
L 60.333889 25.44 
" style="fill: none; stroke: #000000; stroke-width: 0.8; stroke-linejoin: miter; stroke-linecap: square"/>
   </g>
   <g id="patch_4">
    <path d="M 349.2 190.4328 
L 349.2 25.44 
" style="fill: none; stroke: #000000; stroke-width: 0.8; stroke-linejoin: miter; stroke-linecap: square"/>
   </g>
   <g id="patch_5">
    <path d="M 60.333889 190.4328 
L 349.2 190.4328 
" style="fill: none; stroke: #000000; stroke-width: 0.8; stroke-linejoin: miter; stroke-linecap: square"/>
   </g>
   <g id="patch_6">
    <path d="M 60.333889 25.44 
L 349.2 25.44 
" style="fill: none; stroke: #000000; stroke-width: 0.8; stroke-linejoin: miter; stroke-linecap: square"/>
   </g>
   <g id="text_4">
    <!-- N = 15 -->
    <g transform="translate(183.801632 19.44) scale(0.12 -0.12)">
     <defs>
      <path id="DejaVuSans-4e" d="M 628 4666 
L 1478 4666 
L 3547 763 
L 3547 4666 
L 4159 4666 
L 4159 0 
L 3309 0 
L 1241 3903 
L 1241 0 
L 628 0 
L 628 4666 
z
" transform="scale(0.015625)"/>
      <path id="DejaVuSans-3d" d="M 678 2906 
L 4684 2906 
L 4684 2381 
L 678 2381 
L 678 2906 
z
M 678 1631 
L 4684 1631 
L 4684 1100 
L 678 1100 
L 678 1631 
z
" transform="scale(0.015625)"/>
      <path id="DejaVuSans-35" d="M 691 4666 
L 3169 4666 
L 3169 4134 
L 1269 4134 
L 1269 2991 
Q 1406 3038 1543 3061 
Q 1681 3084 1819 3084 
Q 2600 3084 3056 2656 
Q 3513 2228 3513 1497 
Q 3513 744 3044 326 
Q 2575 -91 1722 -91 
Q 1428 -91 1123 -41 
Q 819 9 494 109 
L 494 744 
Q 775 591 1075 516 
Q 1375 441 1709 441 
Q 2250 441 2565 725 
Q 2881 1009 2881 1497 
Q 2881 1984 2565 2268 
Q 2250 2553 1709 2553 
Q 1456 2553 1204 2497 
Q 953 2441 691 2322 
L 691 4666 
z
" transform="scale(0.015625)"/>
     </defs>
     <use xlink:href="#DejaVuSans-4e"/>
     <use xlink:href="#DejaVuSans-20" x="74.804688"/>
     <use xlink:href="#DejaVuSans-3d" x="106.591797"/>
     <use xlink:href="#DejaVuSans-20" x="190.380859"/>
     <use xlink:href="#DejaVuSans-31" x="222.167969"/>
     <use xlink:href="#DejaVuSans-35" x="285.791016"/>
    </g>
   </g>
   <g id="legend_1">
    <g id="patch_7">
     <path d="M 67.333889 185.4328 
L 199.933889 185.4328 
Q 201.933889 185.4328 201.933889 183.4328 
L 201.933889 125.699988 
Q 201.933889 123.699988 199.933889 123.699988 
L 67.333889 123.699988 
Q 65.333889 123.699988 65.333889 125.699988 
L 65.333889 183.4328 
Q 65.333889 185.4328 67.333889 185.4328 
z
" style="fill: #ffffff; opacity: 0.8; stroke: #cccccc; stroke-linejoin: miter"/>
    </g>
    <g id="line2d_47">
     <path d="M 69.333889 131.798425 
L 79.333889 131.798425 
L 89.333889 131.798425 
" style="fill: none; stroke-dasharray: 1.5,2.475; stroke-dashoffset: 0; stroke: #000000; stroke-width: 1.5"/>
    </g>
    <g id="text_5">
     <!-- Input -->
     <g transform="translate(97.333889 135.298425) scale(0.1 -0.1)">
      <defs>
       <path id="DejaVuSans-49" d="M 628 4666 
L 1259 4666 
L 1259 0 
L 628 0 
L 628 4666 
z
" transform="scale(0.015625)"/>
       <path id="DejaVuSans-70" d="M 1159 525 
L 1159 -1331 
L 581 -1331 
L 581 3500 
L 1159 3500 
L 1159 2969 
Q 1341 3281 1617 3432 
Q 1894 3584 2278 3584 
Q 2916 3584 3314 3078 
Q 3713 2572 3713 1747 
Q 3713 922 3314 415 
Q 2916 -91 2278 -91 
Q 1894 -91 1617 61 
Q 1341 213 1159 525 
z
M 3116 1747 
Q 3116 2381 2855 2742 
Q 2594 3103 2138 3103 
Q 1681 3103 1420 2742 
Q 1159 2381 1159 1747 
Q 1159 1113 1420 752 
Q 1681 391 2138 391 
Q 2594 391 2855 752 
Q 3116 1113 3116 1747 
z
" transform="scale(0.015625)"/>
       <path id="DejaVuSans-75" d="M 544 1381 
L 544 3500 
L 1119 3500 
L 1119 1403 
Q 1119 906 1312 657 
Q 1506 409 1894 409 
Q 2359 409 2629 706 
Q 2900 1003 2900 1516 
L 2900 3500 
L 3475 3500 
L 3475 0 
L 2900 0 
L 2900 538 
Q 2691 219 2414 64 
Q 2138 -91 1772 -91 
Q 1169 -91 856 284 
Q 544 659 544 1381 
z
M 1991 3584 
L 1991 3584 
z
" transform="scale(0.015625)"/>
       <path id="DejaVuSans-74" d="M 1172 4494 
L 1172 3500 
L 2356 3500 
L 2356 3053 
L 1172 3053 
L 1172 1153 
Q 1172 725 1289 603 
Q 1406 481 1766 481 
L 2356 481 
L 2356 0 
L 1766 0 
Q 1100 0 847 248 
Q 594 497 594 1153 
L 594 3053 
L 172 3053 
L 172 3500 
L 594 3500 
L 594 4494 
L 1172 4494 
z
" transform="scale(0.015625)"/>
      </defs>
      <use xlink:href="#DejaVuSans-49"/>
      <use xlink:href="#DejaVuSans-6e" x="29.492188"/>
      <use xlink:href="#DejaVuSans-70" x="92.871094"/>
      <use xlink:href="#DejaVuSans-75" x="156.347656"/>
      <use xlink:href="#DejaVuSans-74" x="219.726562"/>
     </g>
    </g>
    <g id="LineCollection_4">
     <path d="M 79.333889 151.47655 
L 79.333889 141.47655 
" style="fill: none; stroke: #006400; stroke-width: 1.5"/>
    </g>
    <g id="line2d_48"/>
    <g id="line2d_49">
     <g>
      <use xlink:href="#m54b6760a96" x="79.333889" y="146.47655" style="fill: #006400; stroke: #006400"/>
     </g>
    </g>
    <g id="text_6">
     <!-- Fluxpoints Nuisance -->
     <g transform="translate(97.333889 149.97655) scale(0.1 -0.1)">
      <defs>
       <path id="DejaVuSans-46" d="M 628 4666 
L 3309 4666 
L 3309 4134 
L 1259 4134 
L 1259 2759 
L 3109 2759 
L 3109 2228 
L 1259 2228 
L 1259 0 
L 628 0 
L 628 4666 
z
" transform="scale(0.015625)"/>
       <path id="DejaVuSans-6c" d="M 603 4863 
L 1178 4863 
L 1178 0 
L 603 0 
L 603 4863 
z
" transform="scale(0.015625)"/>
       <path id="DejaVuSans-78" d="M 3513 3500 
L 2247 1797 
L 3578 0 
L 2900 0 
L 1881 1375 
L 863 0 
L 184 0 
L 1544 1831 
L 300 3500 
L 978 3500 
L 1906 2253 
L 2834 3500 
L 3513 3500 
z
" transform="scale(0.015625)"/>
       <path id="DejaVuSans-6f" d="M 1959 3097 
Q 1497 3097 1228 2736 
Q 959 2375 959 1747 
Q 959 1119 1226 758 
Q 1494 397 1959 397 
Q 2419 397 2687 759 
Q 2956 1122 2956 1747 
Q 2956 2369 2687 2733 
Q 2419 3097 1959 3097 
z
M 1959 3584 
Q 2709 3584 3137 3096 
Q 3566 2609 3566 1747 
Q 3566 888 3137 398 
Q 2709 -91 1959 -91 
Q 1206 -91 779 398 
Q 353 888 353 1747 
Q 353 2609 779 3096 
Q 1206 3584 1959 3584 
z
" transform="scale(0.015625)"/>
       <path id="DejaVuSans-69" d="M 603 3500 
L 1178 3500 
L 1178 0 
L 603 0 
L 603 3500 
z
M 603 4863 
L 1178 4863 
L 1178 4134 
L 603 4134 
L 603 4863 
z
" transform="scale(0.015625)"/>
       <path id="DejaVuSans-61" d="M 2194 1759 
Q 1497 1759 1228 1600 
Q 959 1441 959 1056 
Q 959 750 1161 570 
Q 1363 391 1709 391 
Q 2188 391 2477 730 
Q 2766 1069 2766 1631 
L 2766 1759 
L 2194 1759 
z
M 3341 1997 
L 3341 0 
L 2766 0 
L 2766 531 
Q 2569 213 2275 61 
Q 1981 -91 1556 -91 
Q 1019 -91 701 211 
Q 384 513 384 1019 
Q 384 1609 779 1909 
Q 1175 2209 1959 2209 
L 2766 2209 
L 2766 2266 
Q 2766 2663 2505 2880 
Q 2244 3097 1772 3097 
Q 1472 3097 1187 3025 
Q 903 2953 641 2809 
L 641 3341 
Q 956 3463 1253 3523 
Q 1550 3584 1831 3584 
Q 2591 3584 2966 3190 
Q 3341 2797 3341 1997 
z
" transform="scale(0.015625)"/>
      </defs>
      <use xlink:href="#DejaVuSans-46"/>
      <use xlink:href="#DejaVuSans-6c" x="57.519531"/>
      <use xlink:href="#DejaVuSans-75" x="85.302734"/>
      <use xlink:href="#DejaVuSans-78" x="148.681641"/>
      <use xlink:href="#DejaVuSans-70" x="207.861328"/>
      <use xlink:href="#DejaVuSans-6f" x="271.337891"/>
      <use xlink:href="#DejaVuSans-69" x="332.519531"/>
      <use xlink:href="#DejaVuSans-6e" x="360.302734"/>
      <use xlink:href="#DejaVuSans-74" x="423.681641"/>
      <use xlink:href="#DejaVuSans-73" x="462.890625"/>
      <use xlink:href="#DejaVuSans-20" x="514.990234"/>
      <use xlink:href="#DejaVuSans-4e" x="546.777344"/>
      <use xlink:href="#DejaVuSans-75" x="621.582031"/>
      <use xlink:href="#DejaVuSans-69" x="684.960938"/>
      <use xlink:href="#DejaVuSans-73" x="712.744141"/>
      <use xlink:href="#DejaVuSans-61" x="764.84375"/>
      <use xlink:href="#DejaVuSans-6e" x="826.123047"/>
      <use xlink:href="#DejaVuSans-63" x="889.501953"/>
      <use xlink:href="#DejaVuSans-65" x="944.482422"/>
     </g>
    </g>
    <g id="LineCollection_5">
     <path d="M 79.333889 166.154675 
L 79.333889 156.154675 
" style="fill: none; stroke: #8b0000; stroke-width: 1.5"/>
    </g>
    <g id="line2d_50"/>
    <g id="line2d_51">
     <g>
      <use xlink:href="#m0d12a446c3" x="79.333889" y="161.154675" style="fill: #8b0000; stroke: #8b0000"/>
     </g>
    </g>
    <g id="text_7">
     <!-- Fluxpoints Standard -->
     <g transform="translate(97.333889 164.654675) scale(0.1 -0.1)">
      <defs>
       <path id="DejaVuSans-53" d="M 3425 4513 
L 3425 3897 
Q 3066 4069 2747 4153 
Q 2428 4238 2131 4238 
Q 1616 4238 1336 4038 
Q 1056 3838 1056 3469 
Q 1056 3159 1242 3001 
Q 1428 2844 1947 2747 
L 2328 2669 
Q 3034 2534 3370 2195 
Q 3706 1856 3706 1288 
Q 3706 609 3251 259 
Q 2797 -91 1919 -91 
Q 1588 -91 1214 -16 
Q 841 59 441 206 
L 441 856 
Q 825 641 1194 531 
Q 1563 422 1919 422 
Q 2459 422 2753 634 
Q 3047 847 3047 1241 
Q 3047 1584 2836 1778 
Q 2625 1972 2144 2069 
L 1759 2144 
Q 1053 2284 737 2584 
Q 422 2884 422 3419 
Q 422 4038 858 4394 
Q 1294 4750 2059 4750 
Q 2388 4750 2728 4690 
Q 3069 4631 3425 4513 
z
" transform="scale(0.015625)"/>
       <path id="DejaVuSans-72" d="M 2631 2963 
Q 2534 3019 2420 3045 
Q 2306 3072 2169 3072 
Q 1681 3072 1420 2755 
Q 1159 2438 1159 1844 
L 1159 0 
L 581 0 
L 581 3500 
L 1159 3500 
L 1159 2956 
Q 1341 3275 1631 3429 
Q 1922 3584 2338 3584 
Q 2397 3584 2469 3576 
Q 2541 3569 2628 3553 
L 2631 2963 
z
" transform="scale(0.015625)"/>
      </defs>
      <use xlink:href="#DejaVuSans-46"/>
      <use xlink:href="#DejaVuSans-6c" x="57.519531"/>
      <use xlink:href="#DejaVuSans-75" x="85.302734"/>
      <use xlink:href="#DejaVuSans-78" x="148.681641"/>
      <use xlink:href="#DejaVuSans-70" x="207.861328"/>
      <use xlink:href="#DejaVuSans-6f" x="271.337891"/>
      <use xlink:href="#DejaVuSans-69" x="332.519531"/>
      <use xlink:href="#DejaVuSans-6e" x="360.302734"/>
      <use xlink:href="#DejaVuSans-74" x="423.681641"/>
      <use xlink:href="#DejaVuSans-73" x="462.890625"/>
      <use xlink:href="#DejaVuSans-20" x="514.990234"/>
      <use xlink:href="#DejaVuSans-53" x="546.777344"/>
      <use xlink:href="#DejaVuSans-74" x="610.253906"/>
      <use xlink:href="#DejaVuSans-61" x="649.462891"/>
      <use xlink:href="#DejaVuSans-6e" x="710.742188"/>
      <use xlink:href="#DejaVuSans-64" x="774.121094"/>
      <use xlink:href="#DejaVuSans-61" x="837.597656"/>
      <use xlink:href="#DejaVuSans-72" x="898.876953"/>
      <use xlink:href="#DejaVuSans-64" x="938.240234"/>
     </g>
    </g>
    <g id="LineCollection_6">
     <path d="M 79.333889 180.8328 
L 79.333889 170.8328 
" style="fill: none; stroke: #1f77b4; stroke-width: 1.5"/>
    </g>
    <g id="line2d_52">
     <path d="M 69.333889 175.8328 
L 89.333889 175.8328 
" style="fill: none; stroke: #1f77b4; stroke-width: 1.5; stroke-linecap: square"/>
    </g>
    <g id="line2d_53"/>
    <g id="text_8">
     <!-- $\mu$, $\sigma$ -->
     <g transform="translate(97.333889 179.3328) scale(0.1 -0.1)">
      <defs>
       <path id="DejaVuSans-Oblique-3bc" d="M -84 -1331 
L 856 3500 
L 1434 3500 
L 1009 1322 
Q 997 1256 987 1175 
Q 978 1094 978 1013 
Q 978 722 1161 565 
Q 1344 409 1684 409 
Q 2147 409 2431 671 
Q 2716 934 2816 1459 
L 3213 3500 
L 3788 3500 
L 3266 809 
Q 3253 750 3248 706 
Q 3244 663 3244 628 
Q 3244 531 3283 486 
Q 3322 441 3406 441 
Q 3438 441 3492 456 
Q 3547 472 3647 513 
L 3559 50 
Q 3422 -19 3297 -55 
Q 3172 -91 3053 -91 
Q 2847 -91 2730 40 
Q 2613 172 2613 403 
Q 2438 153 2195 31 
Q 1953 -91 1625 -91 
Q 1334 -91 1117 43 
Q 900 178 831 397 
L 494 -1331 
L -84 -1331 
z
" transform="scale(0.015625)"/>
       <path id="DejaVuSans-2c" d="M 750 794 
L 1409 794 
L 1409 256 
L 897 -744 
L 494 -744 
L 750 256 
L 750 794 
z
" transform="scale(0.015625)"/>
       <path id="DejaVuSans-Oblique-3c3" d="M 2219 3044 
Q 1744 3044 1422 2700 
Q 1081 2341 969 1747 
Q 844 1119 1044 756 
Q 1241 397 1706 397 
Q 2166 397 2503 759 
Q 2844 1122 2966 1747 
Q 3075 2319 2881 2700 
Q 2700 3044 2219 3044 
z
M 2309 3503 
L 4219 3500 
L 4106 2925 
L 3463 2925 
Q 3706 2438 3575 1747 
Q 3406 888 2884 400 
Q 2359 -91 1609 -91 
Q 856 -91 525 400 
Q 194 888 363 1747 
Q 528 2609 1050 3097 
Q 1484 3503 2309 3503 
z
" transform="scale(0.015625)"/>
      </defs>
      <use xlink:href="#DejaVuSans-Oblique-3bc" transform="translate(0 0.265625)"/>
      <use xlink:href="#DejaVuSans-2c" transform="translate(63.623047 0.265625)"/>
      <use xlink:href="#DejaVuSans-20" transform="translate(95.410156 0.265625)"/>
      <use xlink:href="#DejaVuSans-Oblique-3c3" transform="translate(127.197266 0.265625)"/>
     </g>
    </g>
   </g>
  </g>
  <g id="axes_2">
   <g id="patch_8">
    <path d="M 60.333889 314.728 
L 349.2 314.728 
L 349.2 204.7328 
L 60.333889 204.7328 
z
" style="fill: #ffffff"/>
   </g>
   <g id="matplotlib.axis_3">
    <g id="xtick_25">
     <g id="line2d_54">
      <g>
       <use xlink:href="#m79d23ffd18" x="111.344758" y="314.728" style="stroke: #000000; stroke-width: 0.8"/>
      </g>
     </g>
     <g id="text_9">
      <!-- $\mathdefault{10^{0}}$ -->
      <g transform="translate(102.544758 329.326438) scale(0.1 -0.1)">
       <use xlink:href="#DejaVuSans-31" transform="translate(0 0.765625)"/>
       <use xlink:href="#DejaVuSans-30" transform="translate(63.623047 0.765625)"/>
       <use xlink:href="#DejaVuSans-30" transform="translate(128.203125 39.046875) scale(0.7)"/>
      </g>
     </g>
    </g>
    <g id="xtick_26">
     <g id="line2d_55">
      <g>
       <use xlink:href="#m79d23ffd18" x="232.562651" y="314.728" style="stroke: #000000; stroke-width: 0.8"/>
      </g>
     </g>
     <g id="text_10">
      <!-- $\mathdefault{10^{1}}$ -->
      <g transform="translate(223.762651 329.326438) scale(0.1 -0.1)">
       <use xlink:href="#DejaVuSans-31" transform="translate(0 0.684375)"/>
       <use xlink:href="#DejaVuSans-30" transform="translate(63.623047 0.684375)"/>
       <use xlink:href="#DejaVuSans-31" transform="translate(128.203125 38.965625) scale(0.7)"/>
      </g>
     </g>
    </g>
    <g id="xtick_27">
     <g id="line2d_56">
      <g>
       <use xlink:href="#m96fe432d45" x="63.107309" y="314.728" style="stroke: #000000; stroke-width: 0.6"/>
      </g>
     </g>
    </g>
    <g id="xtick_28">
     <g id="line2d_57">
      <g>
       <use xlink:href="#m96fe432d45" x="74.854537" y="314.728" style="stroke: #000000; stroke-width: 0.6"/>
      </g>
     </g>
    </g>
    <g id="xtick_29">
     <g id="line2d_58">
      <g>
       <use xlink:href="#m96fe432d45" x="84.452721" y="314.728" style="stroke: #000000; stroke-width: 0.6"/>
      </g>
     </g>
    </g>
    <g id="xtick_30">
     <g id="line2d_59">
      <g>
       <use xlink:href="#m96fe432d45" x="92.567869" y="314.728" style="stroke: #000000; stroke-width: 0.6"/>
      </g>
     </g>
    </g>
    <g id="xtick_31">
     <g id="line2d_60">
      <g>
       <use xlink:href="#m96fe432d45" x="99.597531" y="314.728" style="stroke: #000000; stroke-width: 0.6"/>
      </g>
     </g>
    </g>
    <g id="xtick_32">
     <g id="line2d_61">
      <g>
       <use xlink:href="#m96fe432d45" x="105.798132" y="314.728" style="stroke: #000000; stroke-width: 0.6"/>
      </g>
     </g>
    </g>
    <g id="xtick_33">
     <g id="line2d_62">
      <g>
       <use xlink:href="#m96fe432d45" x="147.83498" y="314.728" style="stroke: #000000; stroke-width: 0.6"/>
      </g>
     </g>
    </g>
    <g id="xtick_34">
     <g id="line2d_63">
      <g>
       <use xlink:href="#m96fe432d45" x="169.180391" y="314.728" style="stroke: #000000; stroke-width: 0.6"/>
      </g>
     </g>
    </g>
    <g id="xtick_35">
     <g id="line2d_64">
      <g>
       <use xlink:href="#m96fe432d45" x="184.325202" y="314.728" style="stroke: #000000; stroke-width: 0.6"/>
      </g>
     </g>
    </g>
    <g id="xtick_36">
     <g id="line2d_65">
      <g>
       <use xlink:href="#m96fe432d45" x="196.072429" y="314.728" style="stroke: #000000; stroke-width: 0.6"/>
      </g>
     </g>
    </g>
    <g id="xtick_37">
     <g id="line2d_66">
      <g>
       <use xlink:href="#m96fe432d45" x="205.670613" y="314.728" style="stroke: #000000; stroke-width: 0.6"/>
      </g>
     </g>
    </g>
    <g id="xtick_38">
     <g id="line2d_67">
      <g>
       <use xlink:href="#m96fe432d45" x="213.785762" y="314.728" style="stroke: #000000; stroke-width: 0.6"/>
      </g>
     </g>
    </g>
    <g id="xtick_39">
     <g id="line2d_68">
      <g>
       <use xlink:href="#m96fe432d45" x="220.815423" y="314.728" style="stroke: #000000; stroke-width: 0.6"/>
      </g>
     </g>
    </g>
    <g id="xtick_40">
     <g id="line2d_69">
      <g>
       <use xlink:href="#m96fe432d45" x="227.016024" y="314.728" style="stroke: #000000; stroke-width: 0.6"/>
      </g>
     </g>
    </g>
    <g id="xtick_41">
     <g id="line2d_70">
      <g>
       <use xlink:href="#m96fe432d45" x="269.052872" y="314.728" style="stroke: #000000; stroke-width: 0.6"/>
      </g>
     </g>
    </g>
    <g id="xtick_42">
     <g id="line2d_71">
      <g>
       <use xlink:href="#m96fe432d45" x="290.398284" y="314.728" style="stroke: #000000; stroke-width: 0.6"/>
      </g>
     </g>
    </g>
    <g id="xtick_43">
     <g id="line2d_72">
      <g>
       <use xlink:href="#m96fe432d45" x="305.543094" y="314.728" style="stroke: #000000; stroke-width: 0.6"/>
      </g>
     </g>
    </g>
    <g id="xtick_44">
     <g id="line2d_73">
      <g>
       <use xlink:href="#m96fe432d45" x="317.290321" y="314.728" style="stroke: #000000; stroke-width: 0.6"/>
      </g>
     </g>
    </g>
    <g id="xtick_45">
     <g id="line2d_74">
      <g>
       <use xlink:href="#m96fe432d45" x="326.888505" y="314.728" style="stroke: #000000; stroke-width: 0.6"/>
      </g>
     </g>
    </g>
    <g id="xtick_46">
     <g id="line2d_75">
      <g>
       <use xlink:href="#m96fe432d45" x="335.003654" y="314.728" style="stroke: #000000; stroke-width: 0.6"/>
      </g>
     </g>
    </g>
    <g id="xtick_47">
     <g id="line2d_76">
      <g>
       <use xlink:href="#m96fe432d45" x="342.033315" y="314.728" style="stroke: #000000; stroke-width: 0.6"/>
      </g>
     </g>
    </g>
    <g id="xtick_48">
     <g id="line2d_77">
      <g>
       <use xlink:href="#m96fe432d45" x="348.233916" y="314.728" style="stroke: #000000; stroke-width: 0.6"/>
      </g>
     </g>
    </g>
    <g id="text_11">
     <!-- Energy [TeV] -->
     <g transform="translate(173.069288 343.004563) scale(0.1 -0.1)">
      <defs>
       <path id="DejaVuSans-45" d="M 628 4666 
L 3578 4666 
L 3578 4134 
L 1259 4134 
L 1259 2753 
L 3481 2753 
L 3481 2222 
L 1259 2222 
L 1259 531 
L 3634 531 
L 3634 0 
L 628 0 
L 628 4666 
z
" transform="scale(0.015625)"/>
       <path id="DejaVuSans-67" d="M 2906 1791 
Q 2906 2416 2648 2759 
Q 2391 3103 1925 3103 
Q 1463 3103 1205 2759 
Q 947 2416 947 1791 
Q 947 1169 1205 825 
Q 1463 481 1925 481 
Q 2391 481 2648 825 
Q 2906 1169 2906 1791 
z
M 3481 434 
Q 3481 -459 3084 -895 
Q 2688 -1331 1869 -1331 
Q 1566 -1331 1297 -1286 
Q 1028 -1241 775 -1147 
L 775 -588 
Q 1028 -725 1275 -790 
Q 1522 -856 1778 -856 
Q 2344 -856 2625 -561 
Q 2906 -266 2906 331 
L 2906 616 
Q 2728 306 2450 153 
Q 2172 0 1784 0 
Q 1141 0 747 490 
Q 353 981 353 1791 
Q 353 2603 747 3093 
Q 1141 3584 1784 3584 
Q 2172 3584 2450 3431 
Q 2728 3278 2906 2969 
L 2906 3500 
L 3481 3500 
L 3481 434 
z
" transform="scale(0.015625)"/>
       <path id="DejaVuSans-79" d="M 2059 -325 
Q 1816 -950 1584 -1140 
Q 1353 -1331 966 -1331 
L 506 -1331 
L 506 -850 
L 844 -850 
Q 1081 -850 1212 -737 
Q 1344 -625 1503 -206 
L 1606 56 
L 191 3500 
L 800 3500 
L 1894 763 
L 2988 3500 
L 3597 3500 
L 2059 -325 
z
" transform="scale(0.015625)"/>
      </defs>
      <use xlink:href="#DejaVuSans-45"/>
      <use xlink:href="#DejaVuSans-6e" x="63.183594"/>
      <use xlink:href="#DejaVuSans-65" x="126.5625"/>
      <use xlink:href="#DejaVuSans-72" x="188.085938"/>
      <use xlink:href="#DejaVuSans-67" x="227.449219"/>
      <use xlink:href="#DejaVuSans-79" x="290.925781"/>
      <use xlink:href="#DejaVuSans-20" x="350.105469"/>
      <use xlink:href="#DejaVuSans-5b" x="381.892578"/>
      <use xlink:href="#DejaVuSans-54" x="420.90625"/>
      <use xlink:href="#DejaVuSans-65" x="464.990234"/>
      <use xlink:href="#DejaVuSans-56" x="526.513672"/>
      <use xlink:href="#DejaVuSans-5d" x="594.921875"/>
     </g>
    </g>
   </g>
   <g id="matplotlib.axis_4">
    <g id="ytick_19">
     <g id="line2d_78">
      <g>
       <use xlink:href="#mf26cb4304a" x="60.333889" y="297.228764" style="stroke: #000000; stroke-width: 0.8"/>
      </g>
     </g>
     <g id="text_12">
      <!-- 0.4 -->
      <g transform="translate(37.430764 301.027982) scale(0.1 -0.1)">
       <defs>
        <path id="DejaVuSans-2e" d="M 684 794 
L 1344 794 
L 1344 0 
L 684 0 
L 684 794 
z
" transform="scale(0.015625)"/>
        <path id="DejaVuSans-34" d="M 2419 4116 
L 825 1625 
L 2419 1625 
L 2419 4116 
z
M 2253 4666 
L 3047 4666 
L 3047 1625 
L 3713 1625 
L 3713 1100 
L 3047 1100 
L 3047 0 
L 2419 0 
L 2419 1100 
L 313 1100 
L 313 1709 
L 2253 4666 
z
" transform="scale(0.015625)"/>
       </defs>
       <use xlink:href="#DejaVuSans-30"/>
       <use xlink:href="#DejaVuSans-2e" x="63.623047"/>
       <use xlink:href="#DejaVuSans-34" x="95.410156"/>
      </g>
     </g>
    </g>
    <g id="ytick_20">
     <g id="line2d_79">
      <g>
       <use xlink:href="#mf26cb4304a" x="60.333889" y="259.7304" style="stroke: #000000; stroke-width: 0.8"/>
      </g>
     </g>
     <g id="text_13">
      <!-- 0.6 -->
      <g transform="translate(37.430764 263.529619) scale(0.1 -0.1)">
       <defs>
        <path id="DejaVuSans-36" d="M 2113 2584 
Q 1688 2584 1439 2293 
Q 1191 2003 1191 1497 
Q 1191 994 1439 701 
Q 1688 409 2113 409 
Q 2538 409 2786 701 
Q 3034 994 3034 1497 
Q 3034 2003 2786 2293 
Q 2538 2584 2113 2584 
z
M 3366 4563 
L 3366 3988 
Q 3128 4100 2886 4159 
Q 2644 4219 2406 4219 
Q 1781 4219 1451 3797 
Q 1122 3375 1075 2522 
Q 1259 2794 1537 2939 
Q 1816 3084 2150 3084 
Q 2853 3084 3261 2657 
Q 3669 2231 3669 1497 
Q 3669 778 3244 343 
Q 2819 -91 2113 -91 
Q 1303 -91 875 529 
Q 447 1150 447 2328 
Q 447 3434 972 4092 
Q 1497 4750 2381 4750 
Q 2619 4750 2861 4703 
Q 3103 4656 3366 4563 
z
" transform="scale(0.015625)"/>
       </defs>
       <use xlink:href="#DejaVuSans-30"/>
       <use xlink:href="#DejaVuSans-2e" x="63.623047"/>
       <use xlink:href="#DejaVuSans-36" x="95.410156"/>
      </g>
     </g>
    </g>
    <g id="ytick_21">
     <g id="line2d_80">
      <g>
       <use xlink:href="#mf26cb4304a" x="60.333889" y="222.232036" style="stroke: #000000; stroke-width: 0.8"/>
      </g>
     </g>
     <g id="text_14">
      <!-- 0.8 -->
      <g transform="translate(37.430764 226.031255) scale(0.1 -0.1)">
       <defs>
        <path id="DejaVuSans-38" d="M 2034 2216 
Q 1584 2216 1326 1975 
Q 1069 1734 1069 1313 
Q 1069 891 1326 650 
Q 1584 409 2034 409 
Q 2484 409 2743 651 
Q 3003 894 3003 1313 
Q 3003 1734 2745 1975 
Q 2488 2216 2034 2216 
z
M 1403 2484 
Q 997 2584 770 2862 
Q 544 3141 544 3541 
Q 544 4100 942 4425 
Q 1341 4750 2034 4750 
Q 2731 4750 3128 4425 
Q 3525 4100 3525 3541 
Q 3525 3141 3298 2862 
Q 3072 2584 2669 2484 
Q 3125 2378 3379 2068 
Q 3634 1759 3634 1313 
Q 3634 634 3220 271 
Q 2806 -91 2034 -91 
Q 1263 -91 848 271 
Q 434 634 434 1313 
Q 434 1759 690 2068 
Q 947 2378 1403 2484 
z
M 1172 3481 
Q 1172 3119 1398 2916 
Q 1625 2713 2034 2713 
Q 2441 2713 2670 2916 
Q 2900 3119 2900 3481 
Q 2900 3844 2670 4047 
Q 2441 4250 2034 4250 
Q 1625 4250 1398 4047 
Q 1172 3844 1172 3481 
z
" transform="scale(0.015625)"/>
       </defs>
       <use xlink:href="#DejaVuSans-30"/>
       <use xlink:href="#DejaVuSans-2e" x="63.623047"/>
       <use xlink:href="#DejaVuSans-38" x="95.410156"/>
      </g>
     </g>
    </g>
    <g id="text_15">
     <!-- Coverage -->
     <g transform="translate(31.351077 283.687431) rotate(-90) scale(0.1 -0.1)">
      <defs>
       <path id="DejaVuSans-43" d="M 4122 4306 
L 4122 3641 
Q 3803 3938 3442 4084 
Q 3081 4231 2675 4231 
Q 1875 4231 1450 3742 
Q 1025 3253 1025 2328 
Q 1025 1406 1450 917 
Q 1875 428 2675 428 
Q 3081 428 3442 575 
Q 3803 722 4122 1019 
L 4122 359 
Q 3791 134 3420 21 
Q 3050 -91 2638 -91 
Q 1578 -91 968 557 
Q 359 1206 359 2328 
Q 359 3453 968 4101 
Q 1578 4750 2638 4750 
Q 3056 4750 3426 4639 
Q 3797 4528 4122 4306 
z
" transform="scale(0.015625)"/>
       <path id="DejaVuSans-76" d="M 191 3500 
L 800 3500 
L 1894 563 
L 2988 3500 
L 3597 3500 
L 2284 0 
L 1503 0 
L 191 3500 
z
" transform="scale(0.015625)"/>
      </defs>
      <use xlink:href="#DejaVuSans-43"/>
      <use xlink:href="#DejaVuSans-6f" x="69.824219"/>
      <use xlink:href="#DejaVuSans-76" x="131.005859"/>
      <use xlink:href="#DejaVuSans-65" x="190.185547"/>
      <use xlink:href="#DejaVuSans-72" x="251.708984"/>
      <use xlink:href="#DejaVuSans-61" x="292.822266"/>
      <use xlink:href="#DejaVuSans-67" x="354.101562"/>
      <use xlink:href="#DejaVuSans-65" x="417.578125"/>
     </g>
    </g>
   </g>
   <g id="line2d_81">
    <path d="M 73.464167 222.232036 
L 88.616404 259.7304 
L 103.76864 259.7304 
L 118.920877 284.729309 
L 134.073113 284.729309 
L 149.22535 309.728218 
L 164.377586 284.729309 
L 179.529823 309.728218 
L 194.682059 259.7304 
L 209.834296 247.230945 
L 224.986532 259.7304 
L 240.138769 209.732582 
L 255.291006 284.729309 
L 270.443242 259.7304 
L 285.595479 284.729309 
L 300.747715 259.7304 
L 315.899952 247.230945 
L 331.052188 259.7304 
" clip-path="url(#p8b63653a6d)" style="fill: none; stroke: #ff0000; stroke-width: 1.5; stroke-linecap: square"/>
   </g>
   <g id="line2d_82">
    <path d="M 73.464167 222.232036 
L 88.616404 259.7304 
L 103.76864 247.230945 
L 118.920877 284.729309 
L 134.073113 272.229855 
L 149.22535 309.728218 
L 164.377586 284.729309 
L 179.529823 259.7304 
L 194.682059 259.7304 
L 209.834296 234.731491 
L 224.986532 259.7304 
L 240.138769 209.732582 
L 255.291006 272.229855 
L 270.443242 259.7304 
L 285.595479 284.729309 
L 300.747715 259.7304 
L 315.899952 247.230945 
L 331.052188 259.7304 
" clip-path="url(#p8b63653a6d)" style="fill: none; stroke: #008000; stroke-width: 1.5; stroke-linecap: square"/>
   </g>
   <g id="line2d_83">
    <path d="M 73.464167 244.731055 
L 88.616404 244.731055 
L 103.76864 244.731055 
L 118.920877 244.731055 
L 134.073113 244.731055 
L 149.22535 244.731055 
L 164.377586 244.731055 
L 179.529823 244.731055 
L 194.682059 244.731055 
L 209.834296 244.731055 
L 224.986532 244.731055 
L 240.138769 244.731055 
L 255.291006 244.731055 
L 270.443242 244.731055 
L 285.595479 244.731055 
L 300.747715 244.731055 
L 315.899952 244.731055 
L 331.052188 244.731055 
" clip-path="url(#p8b63653a6d)" style="fill: none; stroke-dasharray: 1.5,2.475; stroke-dashoffset: 0; stroke: #008000; stroke-width: 1.5"/>
   </g>
   <g id="patch_9">
    <path d="M 60.333889 314.728 
L 60.333889 204.7328 
" style="fill: none; stroke: #000000; stroke-width: 0.8; stroke-linejoin: miter; stroke-linecap: square"/>
   </g>
   <g id="patch_10">
    <path d="M 349.2 314.728 
L 349.2 204.7328 
" style="fill: none; stroke: #000000; stroke-width: 0.8; stroke-linejoin: miter; stroke-linecap: square"/>
   </g>
   <g id="patch_11">
    <path d="M 60.333889 314.728 
L 349.2 314.728 
" style="fill: none; stroke: #000000; stroke-width: 0.8; stroke-linejoin: miter; stroke-linecap: square"/>
   </g>
   <g id="patch_12">
    <path d="M 60.333889 204.7328 
L 349.2 204.7328 
" style="fill: none; stroke: #000000; stroke-width: 0.8; stroke-linejoin: miter; stroke-linecap: square"/>
   </g>
   <g id="legend_2">
    <g id="patch_13">
     <path d="M 264.276562 309.728 
L 342.2 309.728 
Q 344.2 309.728 344.2 307.728 
L 344.2 264.693625 
Q 344.2 262.693625 342.2 262.693625 
L 264.276562 262.693625 
Q 262.276562 262.693625 262.276562 264.693625 
L 262.276562 307.728 
Q 262.276562 309.728 264.276562 309.728 
z
" style="fill: #ffffff; opacity: 0.8; stroke: #cccccc; stroke-linejoin: miter"/>
    </g>
    <g id="line2d_84">
     <path d="M 266.276562 270.792063 
L 276.276562 270.792063 
L 286.276562 270.792063 
" style="fill: none; stroke: #ff0000; stroke-width: 1.5; stroke-linecap: square"/>
    </g>
    <g id="text_16">
     <!-- Standard -->
     <g transform="translate(294.276562 274.292063) scale(0.1 -0.1)">
      <use xlink:href="#DejaVuSans-53"/>
      <use xlink:href="#DejaVuSans-74" x="63.476562"/>
      <use xlink:href="#DejaVuSans-61" x="102.685547"/>
      <use xlink:href="#DejaVuSans-6e" x="163.964844"/>
      <use xlink:href="#DejaVuSans-64" x="227.34375"/>
      <use xlink:href="#DejaVuSans-61" x="290.820312"/>
      <use xlink:href="#DejaVuSans-72" x="352.099609"/>
      <use xlink:href="#DejaVuSans-64" x="391.462891"/>
     </g>
    </g>
    <g id="line2d_85">
     <path d="M 266.276562 285.470188 
L 276.276562 285.470188 
L 286.276562 285.470188 
" style="fill: none; stroke: #008000; stroke-width: 1.5; stroke-linecap: square"/>
    </g>
    <g id="text_17">
     <!-- Nuisance -->
     <g transform="translate(294.276562 288.970188) scale(0.1 -0.1)">
      <use xlink:href="#DejaVuSans-4e"/>
      <use xlink:href="#DejaVuSans-75" x="74.804688"/>
      <use xlink:href="#DejaVuSans-69" x="138.183594"/>
      <use xlink:href="#DejaVuSans-73" x="165.966797"/>
      <use xlink:href="#DejaVuSans-61" x="218.066406"/>
      <use xlink:href="#DejaVuSans-6e" x="279.345703"/>
      <use xlink:href="#DejaVuSans-63" x="342.724609"/>
      <use xlink:href="#DejaVuSans-65" x="397.705078"/>
     </g>
    </g>
    <g id="line2d_86">
     <path d="M 266.276562 300.148313 
L 276.276562 300.148313 
L 286.276562 300.148313 
" style="fill: none; stroke-dasharray: 1.5,2.475; stroke-dashoffset: 0; stroke: #008000; stroke-width: 1.5"/>
    </g>
    <g id="text_18">
     <!-- 68 % -->
     <g transform="translate(294.276562 303.648313) scale(0.1 -0.1)">
      <defs>
       <path id="DejaVuSans-25" d="M 4653 2053 
Q 4381 2053 4226 1822 
Q 4072 1591 4072 1178 
Q 4072 772 4226 539 
Q 4381 306 4653 306 
Q 4919 306 5073 539 
Q 5228 772 5228 1178 
Q 5228 1588 5073 1820 
Q 4919 2053 4653 2053 
z
M 4653 2450 
Q 5147 2450 5437 2106 
Q 5728 1763 5728 1178 
Q 5728 594 5436 251 
Q 5144 -91 4653 -91 
Q 4153 -91 3862 251 
Q 3572 594 3572 1178 
Q 3572 1766 3864 2108 
Q 4156 2450 4653 2450 
z
M 1428 4353 
Q 1159 4353 1004 4120 
Q 850 3888 850 3481 
Q 850 3069 1003 2837 
Q 1156 2606 1428 2606 
Q 1700 2606 1854 2837 
Q 2009 3069 2009 3481 
Q 2009 3884 1853 4118 
Q 1697 4353 1428 4353 
z
M 4250 4750 
L 4750 4750 
L 1831 -91 
L 1331 -91 
L 4250 4750 
z
M 1428 4750 
Q 1922 4750 2215 4408 
Q 2509 4066 2509 3481 
Q 2509 2891 2217 2550 
Q 1925 2209 1428 2209 
Q 931 2209 642 2551 
Q 353 2894 353 3481 
Q 353 4063 643 4406 
Q 934 4750 1428 4750 
z
" transform="scale(0.015625)"/>
      </defs>
      <use xlink:href="#DejaVuSans-36"/>
      <use xlink:href="#DejaVuSans-38" x="63.623047"/>
      <use xlink:href="#DejaVuSans-20" x="127.246094"/>
      <use xlink:href="#DejaVuSans-25" x="159.033203"/>
     </g>
    </g>
   </g>
  </g>
 </g>
 <defs>
  <clipPath id="pceff6c455b">
   <rect x="60.333889" y="25.44" width="288.866111" height="164.9928"/>
  </clipPath>
  <clipPath id="p8b63653a6d">
   <rect x="60.333889" y="204.7328" width="288.866111" height="109.9952"/>
  </clipPath>
 </defs>
</svg>
