<?xml version="1.0" encoding="utf-8" standalone="no"?>
<!DOCTYPE svg PUBLIC "-//W3C//DTD SVG 1.1//EN"
  "http://www.w3.org/Graphics/SVG/1.1/DTD/svg11.dtd">
<svg xmlns:xlink="http://www.w3.org/1999/xlink" width="360pt" height="360pt" viewBox="0 0 360 360" xmlns="http://www.w3.org/2000/svg" version="1.1">
 <metadata>
  <rdf:RDF xmlns:dc="http://purl.org/dc/elements/1.1/" xmlns:cc="http://creativecommons.org/ns#" xmlns:rdf="http://www.w3.org/1999/02/22-rdf-syntax-ns#">
   <cc:Work>
    <dc:type rdf:resource="http://purl.org/dc/dcmitype/StillImage"/>
    <dc:date>2023-02-01T13:18:06.694518</dc:date>
    <dc:format>image/svg+xml</dc:format>
    <dc:creator>
     <cc:Agent>
      <dc:title>Matplotlib v3.6.2, https://matplotlib.org/</dc:title>
     </cc:Agent>
    </dc:creator>
   </cc:Work>
  </rdf:RDF>
 </metadata>
 <defs>
  <style type="text/css">*{stroke-linejoin: round; stroke-linecap: butt}</style>
 </defs>
 <g id="figure_1">
  <g id="patch_1">
   <path d="M 0 360 
L 360 360 
L 360 0 
L 0 0 
z
" style="fill: #ffffff"/>
  </g>
  <g id="axes_1">
   <g id="patch_2">
    <path d="M 60.221389 190.4328 
L 349.2 190.4328 
L 349.2 25.44 
L 60.221389 25.44 
z
" style="fill: #ffffff"/>
   </g>
   <g id="PolyCollection_1">
    <path d="M 74.645222 64.877146 
L 74.645222 81.321548 
L 77.222106 81.908127 
L 79.798989 82.496815 
L 82.375873 83.087661 
L 84.952756 83.680719 
L 87.529639 84.276043 
L 90.106523 84.873687 
L 92.683406 85.47371 
L 95.26029 86.076168 
L 97.837173 86.681124 
L 100.414056 87.288637 
L 102.99094 87.898771 
L 105.567823 88.511588 
L 108.144707 89.127154 
L 110.72159 89.745534 
L 113.298473 90.366794 
L 115.875357 90.991 
L 118.45224 91.618219 
L 121.029124 92.248517 
L 123.606007 92.88196 
L 126.18289 93.518615 
L 128.759774 94.158546 
L 131.336657 94.801816 
L 133.913541 95.448487 
L 136.490424 96.098619 
L 139.067307 96.752271 
L 141.644191 97.409496 
L 144.221074 98.070348 
L 146.797958 98.734875 
L 149.374841 99.403123 
L 151.951724 100.075133 
L 154.528608 100.750942 
L 157.105491 101.430582 
L 159.682375 102.114082 
L 162.259258 102.801463 
L 164.836141 103.492743 
L 167.413025 104.187934 
L 169.989908 104.887042 
L 172.566792 105.590069 
L 175.143675 106.29701 
L 177.720558 107.007855 
L 180.297442 107.722589 
L 182.874325 108.44119 
L 185.451209 109.163634 
L 188.028092 109.889888 
L 190.604975 110.619919 
L 193.181859 111.353686 
L 195.758742 112.091144 
L 198.335626 112.832248 
L 200.912509 113.576944 
L 203.489392 114.325181 
L 206.066276 115.076899 
L 208.643159 115.832041 
L 211.220042 116.590544 
L 213.796926 117.352347 
L 216.373809 118.117384 
L 218.950693 118.885591 
L 221.527576 119.656901 
L 224.104459 120.431248 
L 226.681343 121.208565 
L 229.258226 121.988786 
L 231.83511 122.771844 
L 234.411993 123.557675 
L 236.988876 124.346213 
L 239.56576 125.137394 
L 242.142643 125.931156 
L 244.719527 126.727436 
L 247.29641 127.526174 
L 249.873293 128.327311 
L 252.450177 129.130789 
L 255.02706 129.936553 
L 257.603944 130.744547 
L 260.180827 131.554719 
L 262.75771 132.367017 
L 265.334594 133.181393 
L 267.911477 133.997797 
L 270.488361 134.816184 
L 273.065244 135.636509 
L 275.642127 136.45873 
L 278.219011 137.282803 
L 280.795894 138.108691 
L 283.372778 138.936354 
L 285.949661 139.765756 
L 288.526544 140.596861 
L 291.103428 141.429637 
L 293.680311 142.264051 
L 296.257195 143.100071 
L 298.834078 143.937669 
L 301.410961 144.776816 
L 303.987845 145.617485 
L 306.564728 146.45965 
L 309.141612 147.303288 
L 311.718495 148.148374 
L 314.295378 148.994887 
L 316.872262 149.842805 
L 319.449145 150.692109 
L 322.026029 151.542778 
L 324.602912 152.394796 
L 327.179795 153.248144 
L 329.756679 154.102807 
L 329.756679 131.827881 
L 329.756679 131.827881 
L 327.179795 131.225363 
L 324.602912 130.622529 
L 322.026029 130.019359 
L 319.449145 129.415832 
L 316.872262 128.811928 
L 314.295378 128.207623 
L 311.718495 127.602894 
L 309.141612 126.997718 
L 306.564728 126.392069 
L 303.987845 125.785921 
L 301.410961 125.179245 
L 298.834078 124.572015 
L 296.257195 123.964199 
L 293.680311 123.355767 
L 291.103428 122.746687 
L 288.526544 122.136926 
L 285.949661 121.526448 
L 283.372778 120.915217 
L 280.795894 120.303196 
L 278.219011 119.690345 
L 275.642127 119.076625 
L 273.065244 118.461993 
L 270.488361 117.846405 
L 267.911477 117.229817 
L 265.334594 116.612182 
L 262.75771 115.993451 
L 260.180827 115.373575 
L 257.603944 114.752501 
L 255.02706 114.130178 
L 252.450177 113.50655 
L 249.873293 112.88156 
L 247.29641 112.255152 
L 244.719527 111.627266 
L 242.142643 110.997841 
L 239.56576 110.366816 
L 236.988876 109.734127 
L 234.411993 109.099709 
L 231.83511 108.463498 
L 229.258226 107.825428 
L 226.681343 107.185431 
L 224.104459 106.54344 
L 221.527576 105.899388 
L 218.950693 105.253207 
L 216.373809 104.604829 
L 213.796926 103.954188 
L 211.220042 103.301217 
L 208.643159 102.645851 
L 206.066276 101.988027 
L 203.489392 101.327682 
L 200.912509 100.664756 
L 198.335626 99.999192 
L 195.758742 99.330936 
L 193.181859 98.659935 
L 190.604975 97.986141 
L 188.028092 97.30951 
L 185.451209 96.630002 
L 182.874325 95.947581 
L 180.297442 95.262216 
L 177.720558 94.573882 
L 175.143675 93.882556 
L 172.566792 93.188223 
L 169.989908 92.490875 
L 167.413025 91.790504 
L 164.836141 91.087114 
L 162.259258 90.38071 
L 159.682375 89.671305 
L 157.105491 88.958916 
L 154.528608 88.243565 
L 151.951724 87.525281 
L 149.374841 86.804097 
L 146.797958 86.08005 
L 144.221074 85.353181 
L 141.644191 84.623537 
L 139.067307 83.891166 
L 136.490424 83.156122 
L 133.913541 82.418461 
L 131.336657 81.67824 
L 128.759774 80.935521 
L 126.18289 80.190367 
L 123.606007 79.442841 
L 121.029124 78.693009 
L 118.45224 77.940938 
L 115.875357 77.186694 
L 113.298473 76.430347 
L 110.72159 75.671962 
L 108.144707 74.911608 
L 105.567823 74.149352 
L 102.99094 73.38526 
L 100.414056 72.619398 
L 97.837173 71.851832 
L 95.26029 71.082625 
L 92.683406 70.31184 
L 90.106523 69.539538 
L 87.529639 68.76578 
L 84.952756 67.990625 
L 82.375873 67.214128 
L 79.798989 66.436347 
L 77.222106 65.657336 
L 74.645222 64.877146 
z
" clip-path="url(#p9213c59e99)" style="fill: #008000; fill-opacity: 0.5"/>
   </g>
   <g id="PolyCollection_2">
    <path d="M 74.645222 66.835131 
L 74.645222 78.687232 
L 77.222106 79.247451 
L 79.798989 79.809225 
L 82.375873 80.372617 
L 84.952756 80.937697 
L 87.529639 81.504537 
L 90.106523 82.073219 
L 92.683406 82.64383 
L 95.26029 83.216465 
L 97.837173 83.791226 
L 100.414056 84.368226 
L 102.99094 84.947583 
L 105.567823 85.529429 
L 108.144707 86.113904 
L 110.72159 86.70116 
L 113.298473 87.29136 
L 115.875357 87.88468 
L 118.45224 88.481306 
L 121.029124 89.081441 
L 123.606007 89.685296 
L 126.18289 90.293097 
L 128.759774 90.905081 
L 131.336657 91.521497 
L 133.913541 92.142601 
L 136.490424 92.768658 
L 139.067307 93.399938 
L 141.644191 94.036711 
L 144.221074 94.679245 
L 146.797958 95.3278 
L 149.374841 95.982625 
L 151.951724 96.64395 
L 154.528608 97.311984 
L 157.105491 97.986906 
L 159.682375 98.668859 
L 162.259258 99.357951 
L 164.836141 100.054248 
L 167.413025 100.75777 
L 169.989908 101.468495 
L 172.566792 102.186357 
L 175.143675 102.911248 
L 177.720558 103.643022 
L 180.297442 104.3815 
L 182.874325 105.126473 
L 185.451209 105.87771 
L 188.028092 106.634962 
L 190.604975 107.397968 
L 193.181859 108.16646 
L 195.758742 108.940168 
L 198.335626 109.718823 
L 200.912509 110.50216 
L 203.489392 111.289921 
L 206.066276 112.08186 
L 208.643159 112.87774 
L 211.220042 113.677334 
L 213.796926 114.480431 
L 216.373809 115.28683 
L 218.950693 116.096344 
L 221.527576 116.908798 
L 224.104459 117.724029 
L 226.681343 118.541885 
L 229.258226 119.362227 
L 231.83511 120.184923 
L 234.411993 121.009854 
L 236.988876 121.836909 
L 239.56576 122.665985 
L 242.142643 123.496988 
L 244.719527 124.329831 
L 247.29641 125.164433 
L 249.873293 126.000719 
L 252.450177 126.838622 
L 255.02706 127.678079 
L 257.603944 128.519031 
L 260.180827 129.361425 
L 262.75771 130.205212 
L 265.334594 131.050346 
L 267.911477 131.896786 
L 270.488361 132.744492 
L 273.065244 133.593429 
L 275.642127 134.443564 
L 278.219011 135.294866 
L 280.795894 136.147309 
L 283.372778 137.000865 
L 285.949661 137.855512 
L 288.526544 138.711228 
L 291.103428 139.567991 
L 293.680311 140.425785 
L 296.257195 141.284591 
L 298.834078 142.144394 
L 301.410961 143.00518 
L 303.987845 143.866935 
L 306.564728 144.729648 
L 309.141612 145.593307 
L 311.718495 146.457902 
L 314.295378 147.323425 
L 316.872262 148.189867 
L 319.449145 149.05722 
L 322.026029 149.925477 
L 324.602912 150.794633 
L 327.179795 151.664682 
L 329.756679 152.53562 
L 329.756679 132.837027 
L 329.756679 132.837027 
L 327.179795 132.250745 
L 324.602912 131.66455 
L 322.026029 131.078432 
L 319.449145 130.492383 
L 316.872262 129.906394 
L 314.295378 129.320455 
L 311.718495 128.734555 
L 309.141612 128.148683 
L 306.564728 127.562826 
L 303.987845 126.976972 
L 301.410961 126.391108 
L 298.834078 125.805217 
L 296.257195 125.219284 
L 293.680311 124.633292 
L 291.103428 124.047223 
L 288.526544 123.461057 
L 285.949661 122.874773 
L 283.372778 122.288348 
L 280.795894 121.701759 
L 278.219011 121.114979 
L 275.642127 120.52798 
L 273.065244 119.940732 
L 270.488361 119.353202 
L 267.911477 118.765356 
L 265.334594 118.177156 
L 262.75771 117.588561 
L 260.180827 116.999528 
L 257.603944 116.410008 
L 255.02706 115.819951 
L 252.450177 115.229301 
L 249.873293 114.638 
L 247.29641 114.045981 
L 244.719527 113.453175 
L 242.142643 112.859507 
L 239.56576 112.264895 
L 236.988876 111.669249 
L 234.411993 111.072474 
L 231.83511 110.474466 
L 229.258226 109.875112 
L 226.681343 109.274292 
L 224.104459 108.671874 
L 221.527576 108.067716 
L 218.950693 107.461666 
L 216.373809 106.85356 
L 213.796926 106.243222 
L 211.220042 105.630463 
L 208.643159 105.015083 
L 206.066276 104.396868 
L 203.489392 103.775592 
L 200.912509 103.151017 
L 198.335626 102.522894 
L 195.758742 101.890967 
L 193.181859 101.25497 
L 190.604975 100.614633 
L 188.028092 99.969686 
L 185.451209 99.319859 
L 182.874325 98.664892 
L 180.297442 98.004535 
L 177.720558 97.338557 
L 175.143675 96.666749 
L 172.566792 95.988931 
L 169.989908 95.304958 
L 167.413025 94.614721 
L 164.836141 93.918155 
L 162.259258 93.215235 
L 159.682375 92.505985 
L 157.105491 91.790468 
L 154.528608 91.068793 
L 151.951724 90.341105 
L 149.374841 89.607581 
L 146.797958 88.868431 
L 144.221074 88.123885 
L 141.644191 87.374193 
L 139.067307 86.619615 
L 136.490424 85.860419 
L 133.913541 85.096877 
L 131.336657 84.329258 
L 128.759774 83.557828 
L 126.18289 82.782844 
L 123.606007 82.004556 
L 121.029124 81.2232 
L 118.45224 80.439004 
L 115.875357 79.652182 
L 113.298473 78.862934 
L 110.72159 78.071449 
L 108.144707 77.277904 
L 105.567823 76.482463 
L 102.99094 75.685279 
L 100.414056 74.886493 
L 97.837173 74.086238 
L 95.26029 73.284634 
L 92.683406 72.481794 
L 90.106523 71.677822 
L 87.529639 70.872815 
L 84.952756 70.066862 
L 82.375873 69.260044 
L 79.798989 68.452437 
L 77.222106 67.644111 
L 74.645222 66.835131 
z
" clip-path="url(#p9213c59e99)" style="fill: #ff0000; fill-opacity: 0.6"/>
   </g>
   <g id="matplotlib.axis_1">
    <g id="xtick_1">
     <g id="line2d_1">
      <defs>
       <path id="mb9b4ec1c72" d="M 0 0 
L 0 3.5 
" style="stroke: #000000; stroke-width: 0.8"/>
      </defs>
      <g>
       <use xlink:href="#mb9b4ec1c72" x="111.252125" y="190.4328" style="stroke: #000000; stroke-width: 0.8"/>
      </g>
     </g>
    </g>
    <g id="xtick_2">
     <g id="line2d_2">
      <g>
       <use xlink:href="#mb9b4ec1c72" x="232.517226" y="190.4328" style="stroke: #000000; stroke-width: 0.8"/>
      </g>
     </g>
    </g>
    <g id="xtick_3">
     <g id="line2d_3">
      <defs>
       <path id="md96d4f2f10" d="M 0 0 
L 0 2 
" style="stroke: #000000; stroke-width: 0.6"/>
      </defs>
      <g>
       <use xlink:href="#md96d4f2f10" x="62.995889" y="190.4328" style="stroke: #000000; stroke-width: 0.6"/>
      </g>
     </g>
    </g>
    <g id="xtick_4">
     <g id="line2d_4">
      <g>
       <use xlink:href="#md96d4f2f10" x="74.747692" y="190.4328" style="stroke: #000000; stroke-width: 0.6"/>
      </g>
     </g>
    </g>
    <g id="xtick_5">
     <g id="line2d_5">
      <g>
       <use xlink:href="#md96d4f2f10" x="84.349614" y="190.4328" style="stroke: #000000; stroke-width: 0.6"/>
      </g>
     </g>
    </g>
    <g id="xtick_6">
     <g id="line2d_6">
      <g>
       <use xlink:href="#md96d4f2f10" x="92.467923" y="190.4328" style="stroke: #000000; stroke-width: 0.6"/>
      </g>
     </g>
    </g>
    <g id="xtick_7">
     <g id="line2d_7">
      <g>
       <use xlink:href="#md96d4f2f10" x="99.500322" y="190.4328" style="stroke: #000000; stroke-width: 0.6"/>
      </g>
     </g>
    </g>
    <g id="xtick_8">
     <g id="line2d_8">
      <g>
       <use xlink:href="#md96d4f2f10" x="105.703338" y="190.4328" style="stroke: #000000; stroke-width: 0.6"/>
      </g>
     </g>
    </g>
    <g id="xtick_9">
     <g id="line2d_9">
      <g>
       <use xlink:href="#md96d4f2f10" x="147.756558" y="190.4328" style="stroke: #000000; stroke-width: 0.6"/>
      </g>
     </g>
    </g>
    <g id="xtick_10">
     <g id="line2d_10">
      <g>
       <use xlink:href="#md96d4f2f10" x="169.110282" y="190.4328" style="stroke: #000000; stroke-width: 0.6"/>
      </g>
     </g>
    </g>
    <g id="xtick_11">
     <g id="line2d_11">
      <g>
       <use xlink:href="#md96d4f2f10" x="184.260991" y="190.4328" style="stroke: #000000; stroke-width: 0.6"/>
      </g>
     </g>
    </g>
    <g id="xtick_12">
     <g id="line2d_12">
      <g>
       <use xlink:href="#md96d4f2f10" x="196.012793" y="190.4328" style="stroke: #000000; stroke-width: 0.6"/>
      </g>
     </g>
    </g>
    <g id="xtick_13">
     <g id="line2d_13">
      <g>
       <use xlink:href="#md96d4f2f10" x="205.614715" y="190.4328" style="stroke: #000000; stroke-width: 0.6"/>
      </g>
     </g>
    </g>
    <g id="xtick_14">
     <g id="line2d_14">
      <g>
       <use xlink:href="#md96d4f2f10" x="213.733024" y="190.4328" style="stroke: #000000; stroke-width: 0.6"/>
      </g>
     </g>
    </g>
    <g id="xtick_15">
     <g id="line2d_15">
      <g>
       <use xlink:href="#md96d4f2f10" x="220.765423" y="190.4328" style="stroke: #000000; stroke-width: 0.6"/>
      </g>
     </g>
    </g>
    <g id="xtick_16">
     <g id="line2d_16">
      <g>
       <use xlink:href="#md96d4f2f10" x="226.968439" y="190.4328" style="stroke: #000000; stroke-width: 0.6"/>
      </g>
     </g>
    </g>
    <g id="xtick_17">
     <g id="line2d_17">
      <g>
       <use xlink:href="#md96d4f2f10" x="269.021659" y="190.4328" style="stroke: #000000; stroke-width: 0.6"/>
      </g>
     </g>
    </g>
    <g id="xtick_18">
     <g id="line2d_18">
      <g>
       <use xlink:href="#md96d4f2f10" x="290.375383" y="190.4328" style="stroke: #000000; stroke-width: 0.6"/>
      </g>
     </g>
    </g>
    <g id="xtick_19">
     <g id="line2d_19">
      <g>
       <use xlink:href="#md96d4f2f10" x="305.526092" y="190.4328" style="stroke: #000000; stroke-width: 0.6"/>
      </g>
     </g>
    </g>
    <g id="xtick_20">
     <g id="line2d_20">
      <g>
       <use xlink:href="#md96d4f2f10" x="317.277894" y="190.4328" style="stroke: #000000; stroke-width: 0.6"/>
      </g>
     </g>
    </g>
    <g id="xtick_21">
     <g id="line2d_21">
      <g>
       <use xlink:href="#md96d4f2f10" x="326.879816" y="190.4328" style="stroke: #000000; stroke-width: 0.6"/>
      </g>
     </g>
    </g>
    <g id="xtick_22">
     <g id="line2d_22">
      <g>
       <use xlink:href="#md96d4f2f10" x="334.998125" y="190.4328" style="stroke: #000000; stroke-width: 0.6"/>
      </g>
     </g>
    </g>
    <g id="xtick_23">
     <g id="line2d_23">
      <g>
       <use xlink:href="#md96d4f2f10" x="342.030524" y="190.4328" style="stroke: #000000; stroke-width: 0.6"/>
      </g>
     </g>
    </g>
    <g id="xtick_24">
     <g id="line2d_24">
      <g>
       <use xlink:href="#md96d4f2f10" x="348.23354" y="190.4328" style="stroke: #000000; stroke-width: 0.6"/>
      </g>
     </g>
    </g>
   </g>
   <g id="matplotlib.axis_2">
    <g id="ytick_1">
     <g id="line2d_25">
      <defs>
       <path id="m76cf2ac3ba" d="M 0 0 
L -3.5 0 
" style="stroke: #000000; stroke-width: 0.8"/>
      </defs>
      <g>
       <use xlink:href="#m76cf2ac3ba" x="60.221389" y="82.335392" style="stroke: #000000; stroke-width: 0.8"/>
      </g>
     </g>
     <g id="text_1">
      <!-- $\mathdefault{10^{-12}}$ -->
      <g transform="translate(25.321389 86.134611) scale(0.1 -0.1)">
       <defs>
        <path id="DejaVuSans-31" d="M 794 531 
L 1825 531 
L 1825 4091 
L 703 3866 
L 703 4441 
L 1819 4666 
L 2450 4666 
L 2450 531 
L 3481 531 
L 3481 0 
L 794 0 
L 794 531 
z
" transform="scale(0.015625)"/>
        <path id="DejaVuSans-30" d="M 2034 4250 
Q 1547 4250 1301 3770 
Q 1056 3291 1056 2328 
Q 1056 1369 1301 889 
Q 1547 409 2034 409 
Q 2525 409 2770 889 
Q 3016 1369 3016 2328 
Q 3016 3291 2770 3770 
Q 2525 4250 2034 4250 
z
M 2034 4750 
Q 2819 4750 3233 4129 
Q 3647 3509 3647 2328 
Q 3647 1150 3233 529 
Q 2819 -91 2034 -91 
Q 1250 -91 836 529 
Q 422 1150 422 2328 
Q 422 3509 836 4129 
Q 1250 4750 2034 4750 
z
" transform="scale(0.015625)"/>
        <path id="DejaVuSans-2212" d="M 678 2272 
L 4684 2272 
L 4684 1741 
L 678 1741 
L 678 2272 
z
" transform="scale(0.015625)"/>
        <path id="DejaVuSans-32" d="M 1228 531 
L 3431 531 
L 3431 0 
L 469 0 
L 469 531 
Q 828 903 1448 1529 
Q 2069 2156 2228 2338 
Q 2531 2678 2651 2914 
Q 2772 3150 2772 3378 
Q 2772 3750 2511 3984 
Q 2250 4219 1831 4219 
Q 1534 4219 1204 4116 
Q 875 4013 500 3803 
L 500 4441 
Q 881 4594 1212 4672 
Q 1544 4750 1819 4750 
Q 2544 4750 2975 4387 
Q 3406 4025 3406 3419 
Q 3406 3131 3298 2873 
Q 3191 2616 2906 2266 
Q 2828 2175 2409 1742 
Q 1991 1309 1228 531 
z
" transform="scale(0.015625)"/>
       </defs>
       <use xlink:href="#DejaVuSans-31" transform="translate(0 0.765625)"/>
       <use xlink:href="#DejaVuSans-30" transform="translate(63.623047 0.765625)"/>
       <use xlink:href="#DejaVuSans-2212" transform="translate(128.203125 39.046875) scale(0.7)"/>
       <use xlink:href="#DejaVuSans-31" transform="translate(186.855469 39.046875) scale(0.7)"/>
       <use xlink:href="#DejaVuSans-32" transform="translate(231.391602 39.046875) scale(0.7)"/>
      </g>
     </g>
    </g>
    <g id="ytick_2">
     <g id="line2d_26">
      <defs>
       <path id="mfb8761d743" d="M 0 0 
L -2 0 
" style="stroke: #000000; stroke-width: 0.6"/>
      </defs>
      <g>
       <use xlink:href="#mfb8761d743" x="60.221389" y="159.065399" style="stroke: #000000; stroke-width: 0.6"/>
      </g>
     </g>
    </g>
    <g id="ytick_3">
     <g id="line2d_27">
      <g>
       <use xlink:href="#mfb8761d743" x="60.221389" y="139.734836" style="stroke: #000000; stroke-width: 0.6"/>
      </g>
     </g>
    </g>
    <g id="ytick_4">
     <g id="line2d_28">
      <g>
       <use xlink:href="#mfb8761d743" x="60.221389" y="126.019584" style="stroke: #000000; stroke-width: 0.6"/>
      </g>
     </g>
    </g>
    <g id="ytick_5">
     <g id="line2d_29">
      <g>
       <use xlink:href="#mfb8761d743" x="60.221389" y="115.381207" style="stroke: #000000; stroke-width: 0.6"/>
      </g>
     </g>
    </g>
    <g id="ytick_6">
     <g id="line2d_30">
      <g>
       <use xlink:href="#mfb8761d743" x="60.221389" y="106.689021" style="stroke: #000000; stroke-width: 0.6"/>
      </g>
     </g>
    </g>
    <g id="ytick_7">
     <g id="line2d_31">
      <g>
       <use xlink:href="#mfb8761d743" x="60.221389" y="99.339882" style="stroke: #000000; stroke-width: 0.6"/>
      </g>
     </g>
    </g>
    <g id="ytick_8">
     <g id="line2d_32">
      <g>
       <use xlink:href="#mfb8761d743" x="60.221389" y="92.973769" style="stroke: #000000; stroke-width: 0.6"/>
      </g>
     </g>
    </g>
    <g id="ytick_9">
     <g id="line2d_33">
      <g>
       <use xlink:href="#mfb8761d743" x="60.221389" y="87.358458" style="stroke: #000000; stroke-width: 0.6"/>
      </g>
     </g>
    </g>
    <g id="ytick_10">
     <g id="line2d_34">
      <g>
       <use xlink:href="#mfb8761d743" x="60.221389" y="49.289577" style="stroke: #000000; stroke-width: 0.6"/>
      </g>
     </g>
    </g>
    <g id="ytick_11">
     <g id="line2d_35">
      <g>
       <use xlink:href="#mfb8761d743" x="60.221389" y="29.959014" style="stroke: #000000; stroke-width: 0.6"/>
      </g>
     </g>
    </g>
    <g id="text_2">
     <!-- e2 * dnde [TeV / (cm2 s)] -->
     <g transform="translate(19.241702 170.416088) rotate(-90) scale(0.1 -0.1)">
      <defs>
       <path id="DejaVuSans-65" d="M 3597 1894 
L 3597 1613 
L 953 1613 
Q 991 1019 1311 708 
Q 1631 397 2203 397 
Q 2534 397 2845 478 
Q 3156 559 3463 722 
L 3463 178 
Q 3153 47 2828 -22 
Q 2503 -91 2169 -91 
Q 1331 -91 842 396 
Q 353 884 353 1716 
Q 353 2575 817 3079 
Q 1281 3584 2069 3584 
Q 2775 3584 3186 3129 
Q 3597 2675 3597 1894 
z
M 3022 2063 
Q 3016 2534 2758 2815 
Q 2500 3097 2075 3097 
Q 1594 3097 1305 2825 
Q 1016 2553 972 2059 
L 3022 2063 
z
" transform="scale(0.015625)"/>
       <path id="DejaVuSans-20" transform="scale(0.015625)"/>
       <path id="DejaVuSans-2a" d="M 3009 3897 
L 1888 3291 
L 3009 2681 
L 2828 2375 
L 1778 3009 
L 1778 1831 
L 1422 1831 
L 1422 3009 
L 372 2375 
L 191 2681 
L 1313 3291 
L 191 3897 
L 372 4206 
L 1422 3572 
L 1422 4750 
L 1778 4750 
L 1778 3572 
L 2828 4206 
L 3009 3897 
z
" transform="scale(0.015625)"/>
       <path id="DejaVuSans-64" d="M 2906 2969 
L 2906 4863 
L 3481 4863 
L 3481 0 
L 2906 0 
L 2906 525 
Q 2725 213 2448 61 
Q 2172 -91 1784 -91 
Q 1150 -91 751 415 
Q 353 922 353 1747 
Q 353 2572 751 3078 
Q 1150 3584 1784 3584 
Q 2172 3584 2448 3432 
Q 2725 3281 2906 2969 
z
M 947 1747 
Q 947 1113 1208 752 
Q 1469 391 1925 391 
Q 2381 391 2643 752 
Q 2906 1113 2906 1747 
Q 2906 2381 2643 2742 
Q 2381 3103 1925 3103 
Q 1469 3103 1208 2742 
Q 947 2381 947 1747 
z
" transform="scale(0.015625)"/>
       <path id="DejaVuSans-6e" d="M 3513 2113 
L 3513 0 
L 2938 0 
L 2938 2094 
Q 2938 2591 2744 2837 
Q 2550 3084 2163 3084 
Q 1697 3084 1428 2787 
Q 1159 2491 1159 1978 
L 1159 0 
L 581 0 
L 581 3500 
L 1159 3500 
L 1159 2956 
Q 1366 3272 1645 3428 
Q 1925 3584 2291 3584 
Q 2894 3584 3203 3211 
Q 3513 2838 3513 2113 
z
" transform="scale(0.015625)"/>
       <path id="DejaVuSans-5b" d="M 550 4863 
L 1875 4863 
L 1875 4416 
L 1125 4416 
L 1125 -397 
L 1875 -397 
L 1875 -844 
L 550 -844 
L 550 4863 
z
" transform="scale(0.015625)"/>
       <path id="DejaVuSans-54" d="M -19 4666 
L 3928 4666 
L 3928 4134 
L 2272 4134 
L 2272 0 
L 1638 0 
L 1638 4134 
L -19 4134 
L -19 4666 
z
" transform="scale(0.015625)"/>
       <path id="DejaVuSans-56" d="M 1831 0 
L 50 4666 
L 709 4666 
L 2188 738 
L 3669 4666 
L 4325 4666 
L 2547 0 
L 1831 0 
z
" transform="scale(0.015625)"/>
       <path id="DejaVuSans-2f" d="M 1625 4666 
L 2156 4666 
L 531 -594 
L 0 -594 
L 1625 4666 
z
" transform="scale(0.015625)"/>
       <path id="DejaVuSans-28" d="M 1984 4856 
Q 1566 4138 1362 3434 
Q 1159 2731 1159 2009 
Q 1159 1288 1364 580 
Q 1569 -128 1984 -844 
L 1484 -844 
Q 1016 -109 783 600 
Q 550 1309 550 2009 
Q 550 2706 781 3412 
Q 1013 4119 1484 4856 
L 1984 4856 
z
" transform="scale(0.015625)"/>
       <path id="DejaVuSans-63" d="M 3122 3366 
L 3122 2828 
Q 2878 2963 2633 3030 
Q 2388 3097 2138 3097 
Q 1578 3097 1268 2742 
Q 959 2388 959 1747 
Q 959 1106 1268 751 
Q 1578 397 2138 397 
Q 2388 397 2633 464 
Q 2878 531 3122 666 
L 3122 134 
Q 2881 22 2623 -34 
Q 2366 -91 2075 -91 
Q 1284 -91 818 406 
Q 353 903 353 1747 
Q 353 2603 823 3093 
Q 1294 3584 2113 3584 
Q 2378 3584 2631 3529 
Q 2884 3475 3122 3366 
z
" transform="scale(0.015625)"/>
       <path id="DejaVuSans-6d" d="M 3328 2828 
Q 3544 3216 3844 3400 
Q 4144 3584 4550 3584 
Q 5097 3584 5394 3201 
Q 5691 2819 5691 2113 
L 5691 0 
L 5113 0 
L 5113 2094 
Q 5113 2597 4934 2840 
Q 4756 3084 4391 3084 
Q 3944 3084 3684 2787 
Q 3425 2491 3425 1978 
L 3425 0 
L 2847 0 
L 2847 2094 
Q 2847 2600 2669 2842 
Q 2491 3084 2119 3084 
Q 1678 3084 1418 2786 
Q 1159 2488 1159 1978 
L 1159 0 
L 581 0 
L 581 3500 
L 1159 3500 
L 1159 2956 
Q 1356 3278 1631 3431 
Q 1906 3584 2284 3584 
Q 2666 3584 2933 3390 
Q 3200 3197 3328 2828 
z
" transform="scale(0.015625)"/>
       <path id="DejaVuSans-73" d="M 2834 3397 
L 2834 2853 
Q 2591 2978 2328 3040 
Q 2066 3103 1784 3103 
Q 1356 3103 1142 2972 
Q 928 2841 928 2578 
Q 928 2378 1081 2264 
Q 1234 2150 1697 2047 
L 1894 2003 
Q 2506 1872 2764 1633 
Q 3022 1394 3022 966 
Q 3022 478 2636 193 
Q 2250 -91 1575 -91 
Q 1294 -91 989 -36 
Q 684 19 347 128 
L 347 722 
Q 666 556 975 473 
Q 1284 391 1588 391 
Q 1994 391 2212 530 
Q 2431 669 2431 922 
Q 2431 1156 2273 1281 
Q 2116 1406 1581 1522 
L 1381 1569 
Q 847 1681 609 1914 
Q 372 2147 372 2553 
Q 372 3047 722 3315 
Q 1072 3584 1716 3584 
Q 2034 3584 2315 3537 
Q 2597 3491 2834 3397 
z
" transform="scale(0.015625)"/>
       <path id="DejaVuSans-29" d="M 513 4856 
L 1013 4856 
Q 1481 4119 1714 3412 
Q 1947 2706 1947 2009 
Q 1947 1309 1714 600 
Q 1481 -109 1013 -844 
L 513 -844 
Q 928 -128 1133 580 
Q 1338 1288 1338 2009 
Q 1338 2731 1133 3434 
Q 928 4138 513 4856 
z
" transform="scale(0.015625)"/>
       <path id="DejaVuSans-5d" d="M 1947 4863 
L 1947 -844 
L 622 -844 
L 622 -397 
L 1369 -397 
L 1369 4416 
L 622 4416 
L 622 4863 
L 1947 4863 
z
" transform="scale(0.015625)"/>
      </defs>
      <use xlink:href="#DejaVuSans-65"/>
      <use xlink:href="#DejaVuSans-32" x="61.523438"/>
      <use xlink:href="#DejaVuSans-20" x="125.146484"/>
      <use xlink:href="#DejaVuSans-2a" x="156.933594"/>
      <use xlink:href="#DejaVuSans-20" x="206.933594"/>
      <use xlink:href="#DejaVuSans-64" x="238.720703"/>
      <use xlink:href="#DejaVuSans-6e" x="302.197266"/>
      <use xlink:href="#DejaVuSans-64" x="365.576172"/>
      <use xlink:href="#DejaVuSans-65" x="429.052734"/>
      <use xlink:href="#DejaVuSans-20" x="490.576172"/>
      <use xlink:href="#DejaVuSans-5b" x="522.363281"/>
      <use xlink:href="#DejaVuSans-54" x="561.376953"/>
      <use xlink:href="#DejaVuSans-65" x="605.460938"/>
      <use xlink:href="#DejaVuSans-56" x="666.984375"/>
      <use xlink:href="#DejaVuSans-20" x="735.392578"/>
      <use xlink:href="#DejaVuSans-2f" x="767.179688"/>
      <use xlink:href="#DejaVuSans-20" x="800.871094"/>
      <use xlink:href="#DejaVuSans-28" x="832.658203"/>
      <use xlink:href="#DejaVuSans-63" x="871.671875"/>
      <use xlink:href="#DejaVuSans-6d" x="926.652344"/>
      <use xlink:href="#DejaVuSans-32" x="1024.064453"/>
      <use xlink:href="#DejaVuSans-20" x="1087.6875"/>
      <use xlink:href="#DejaVuSans-73" x="1119.474609"/>
      <use xlink:href="#DejaVuSans-29" x="1171.574219"/>
      <use xlink:href="#DejaVuSans-5d" x="1210.587891"/>
     </g>
    </g>
   </g>
   <g id="line2d_36">
    <path d="M 74.645222 72.393819 
L 77.222106 73.09364 
L 79.798989 73.793461 
L 82.375873 74.493282 
L 84.952756 75.193103 
L 87.529639 75.892924 
L 90.106523 76.592745 
L 92.683406 77.292565 
L 95.26029 77.992386 
L 97.837173 78.692207 
L 100.414056 79.392028 
L 102.99094 80.091849 
L 105.567823 80.79167 
L 108.144707 81.491491 
L 110.72159 82.191312 
L 113.298473 82.891132 
L 115.875357 83.590953 
L 118.45224 84.290774 
L 121.029124 84.990595 
L 123.606007 85.690416 
L 126.18289 86.390237 
L 128.759774 87.090058 
L 131.336657 87.789878 
L 133.913541 88.489699 
L 136.490424 89.18952 
L 139.067307 89.889341 
L 141.644191 90.589162 
L 144.221074 91.288983 
L 146.797958 91.988804 
L 149.374841 92.688624 
L 151.951724 93.388445 
L 154.528608 94.088266 
L 157.105491 94.788087 
L 159.682375 95.487908 
L 162.259258 96.187729 
L 164.836141 96.88755 
L 167.413025 97.58737 
L 169.989908 98.287191 
L 172.566792 98.987012 
L 175.143675 99.686833 
L 177.720558 100.386654 
L 180.297442 101.086475 
L 182.874325 101.786296 
L 185.451209 102.486117 
L 188.028092 103.185937 
L 190.604975 103.885758 
L 193.181859 104.585579 
L 195.758742 105.2854 
L 198.335626 105.985221 
L 200.912509 106.685042 
L 203.489392 107.384863 
L 206.066276 108.084683 
L 208.643159 108.784504 
L 211.220042 109.484325 
L 213.796926 110.184146 
L 216.373809 110.883967 
L 218.950693 111.583788 
L 221.527576 112.283609 
L 224.104459 112.983429 
L 226.681343 113.68325 
L 229.258226 114.383071 
L 231.83511 115.082892 
L 234.411993 115.782713 
L 236.988876 116.482534 
L 239.56576 117.182355 
L 242.142643 117.882176 
L 244.719527 118.581996 
L 247.29641 119.281817 
L 249.873293 119.981638 
L 252.450177 120.681459 
L 255.02706 121.38128 
L 257.603944 122.081101 
L 260.180827 122.780922 
L 262.75771 123.480742 
L 265.334594 124.180563 
L 267.911477 124.880384 
L 270.488361 125.580205 
L 273.065244 126.280026 
L 275.642127 126.979847 
L 278.219011 127.679668 
L 280.795894 128.379488 
L 283.372778 129.079309 
L 285.949661 129.77913 
L 288.526544 130.478951 
L 291.103428 131.178772 
L 293.680311 131.878593 
L 296.257195 132.578414 
L 298.834078 133.278235 
L 301.410961 133.978055 
L 303.987845 134.677876 
L 306.564728 135.377697 
L 309.141612 136.077518 
L 311.718495 136.777339 
L 314.295378 137.47716 
L 316.872262 138.176981 
L 319.449145 138.876801 
L 322.026029 139.576622 
L 324.602912 140.276443 
L 327.179795 140.976264 
L 329.756679 141.676085 
" clip-path="url(#p9213c59e99)" style="fill: none; stroke-dasharray: 1.5,2.475; stroke-dashoffset: 0; stroke: #000000; stroke-width: 1.5"/>
   </g>
   <g id="LineCollection_1">
    <path clip-path="url(#p9213c59e99)" style="fill: none; stroke: #006400; stroke-width: 1.5"/>
    <path clip-path="url(#p9213c59e99)" style="fill: none; stroke: #006400; stroke-width: 1.5"/>
    <path clip-path="url(#p9213c59e99)" style="fill: none; stroke: #006400; stroke-width: 1.5"/>
    <path clip-path="url(#p9213c59e99)" style="fill: none; stroke: #006400; stroke-width: 1.5"/>
    <path clip-path="url(#p9213c59e99)" style="fill: none; stroke: #006400; stroke-width: 1.5"/>
    <path d="M 73.356781 361 
L 73.356781 39.079885 
" clip-path="url(#p9213c59e99)" style="fill: none; stroke: #006400; stroke-width: 1.5"/>
    <path d="M 88.514918 104.142238 
L 88.514918 61.275454 
" clip-path="url(#p9213c59e99)" style="fill: none; stroke: #006400; stroke-width: 1.5"/>
    <path d="M 103.673056 95.169531 
L 103.673056 72.452786 
" clip-path="url(#p9213c59e99)" style="fill: none; stroke: #006400; stroke-width: 1.5"/>
    <path d="M 118.831194 98.045094 
L 118.831194 77.85692 
" clip-path="url(#p9213c59e99)" style="fill: none; stroke: #006400; stroke-width: 1.5"/>
    <path d="M 133.989331 102.479517 
L 133.989331 82.274595 
" clip-path="url(#p9213c59e99)" style="fill: none; stroke: #006400; stroke-width: 1.5"/>
    <path d="M 149.147469 107.21153 
L 149.147469 86.496635 
" clip-path="url(#p9213c59e99)" style="fill: none; stroke: #006400; stroke-width: 1.5"/>
    <path d="M 164.305607 112.28107 
L 164.305607 90.509911 
" clip-path="url(#p9213c59e99)" style="fill: none; stroke: #006400; stroke-width: 1.5"/>
    <path d="M 179.463744 117.663902 
L 179.463744 94.328388 
" clip-path="url(#p9213c59e99)" style="fill: none; stroke: #006400; stroke-width: 1.5"/>
    <path d="M 194.621882 123.119275 
L 194.621882 98.129466 
" clip-path="url(#p9213c59e99)" style="fill: none; stroke: #006400; stroke-width: 1.5"/>
    <path d="M 209.780019 129.040197 
L 209.780019 101.685537 
" clip-path="url(#p9213c59e99)" style="fill: none; stroke: #006400; stroke-width: 1.5"/>
    <path d="M 224.938157 135.462991 
L 224.938157 105.014467 
" clip-path="url(#p9213c59e99)" style="fill: none; stroke: #006400; stroke-width: 1.5"/>
    <path d="M 240.096295 142.271629 
L 240.096295 108.220917 
" clip-path="url(#p9213c59e99)" style="fill: none; stroke: #006400; stroke-width: 1.5"/>
    <path d="M 255.254432 149.861775 
L 255.254432 111.163353 
" clip-path="url(#p9213c59e99)" style="fill: none; stroke: #006400; stroke-width: 1.5"/>
    <path d="M 270.41257 158.397644 
L 270.41257 113.859718 
" clip-path="url(#p9213c59e99)" style="fill: none; stroke: #006400; stroke-width: 1.5"/>
    <path d="M 285.570708 167.605476 
L 285.570708 116.518048 
" clip-path="url(#p9213c59e99)" style="fill: none; stroke: #006400; stroke-width: 1.5"/>
    <path d="M 300.728845 178.520099 
L 300.728845 118.900396 
" clip-path="url(#p9213c59e99)" style="fill: none; stroke: #006400; stroke-width: 1.5"/>
    <path d="M 315.886983 192.98148 
L 315.886983 120.791061 
" clip-path="url(#p9213c59e99)" style="fill: none; stroke: #006400; stroke-width: 1.5"/>
    <path d="M 331.04512 217.501798 
L 331.04512 121.728084 
" clip-path="url(#p9213c59e99)" style="fill: none; stroke: #006400; stroke-width: 1.5"/>
    <path clip-path="url(#p9213c59e99)" style="fill: none; stroke: #006400; stroke-width: 1.5"/>
   </g>
   <g id="LineCollection_2">
    <path clip-path="url(#p9213c59e99)" style="fill: none; stroke: #8b0000; stroke-width: 1.5"/>
    <path clip-path="url(#p9213c59e99)" style="fill: none; stroke: #8b0000; stroke-width: 1.5"/>
    <path clip-path="url(#p9213c59e99)" style="fill: none; stroke: #8b0000; stroke-width: 1.5"/>
    <path clip-path="url(#p9213c59e99)" style="fill: none; stroke: #8b0000; stroke-width: 1.5"/>
    <path clip-path="url(#p9213c59e99)" style="fill: none; stroke: #8b0000; stroke-width: 1.5"/>
    <path d="M 75.926303 361 
L 75.926303 39.196673 
" clip-path="url(#p9213c59e99)" style="fill: none; stroke: #8b0000; stroke-width: 1.5"/>
    <path d="M 91.084441 103.094789 
L 91.084441 61.710521 
" clip-path="url(#p9213c59e99)" style="fill: none; stroke: #8b0000; stroke-width: 1.5"/>
    <path d="M 106.242579 93.632492 
L 106.242579 73.434189 
" clip-path="url(#p9213c59e99)" style="fill: none; stroke: #8b0000; stroke-width: 1.5"/>
    <path d="M 121.400716 96.341092 
L 121.400716 79.018369 
" clip-path="url(#p9213c59e99)" style="fill: none; stroke: #8b0000; stroke-width: 1.5"/>
    <path d="M 136.558854 100.81176 
L 136.558854 83.411258 
" clip-path="url(#p9213c59e99)" style="fill: none; stroke: #8b0000; stroke-width: 1.5"/>
    <path d="M 151.716991 105.612163 
L 151.716991 87.576187 
" clip-path="url(#p9213c59e99)" style="fill: none; stroke: #8b0000; stroke-width: 1.5"/>
    <path d="M 166.875129 110.775401 
L 166.875129 91.49961 
" clip-path="url(#p9213c59e99)" style="fill: none; stroke: #8b0000; stroke-width: 1.5"/>
    <path d="M 182.033267 116.258344 
L 182.033267 95.224247 
" clip-path="url(#p9213c59e99)" style="fill: none; stroke: #8b0000; stroke-width: 1.5"/>
    <path d="M 197.191404 121.815636 
L 197.191404 98.932388 
" clip-path="url(#p9213c59e99)" style="fill: none; stroke: #8b0000; stroke-width: 1.5"/>
    <path d="M 212.349542 127.820506 
L 212.349542 102.397796 
" clip-path="url(#p9213c59e99)" style="fill: none; stroke: #8b0000; stroke-width: 1.5"/>
    <path d="M 227.50768 134.315177 
L 227.50768 105.643202 
" clip-path="url(#p9213c59e99)" style="fill: none; stroke: #8b0000; stroke-width: 1.5"/>
    <path d="M 242.665817 141.18627 
L 242.665817 108.771546 
" clip-path="url(#p9213c59e99)" style="fill: none; stroke: #8b0000; stroke-width: 1.5"/>
    <path d="M 257.823955 148.831598 
L 257.823955 111.636399 
" clip-path="url(#p9213c59e99)" style="fill: none; stroke: #8b0000; stroke-width: 1.5"/>
    <path d="M 272.982092 157.411485 
L 272.982092 114.263147 
" clip-path="url(#p9213c59e99)" style="fill: none; stroke: #8b0000; stroke-width: 1.5"/>
    <path d="M 288.14023 166.641476 
L 288.14023 116.864749 
" clip-path="url(#p9213c59e99)" style="fill: none; stroke: #8b0000; stroke-width: 1.5"/>
    <path d="M 303.298368 177.548293 
L 303.298368 119.193102 
" clip-path="url(#p9213c59e99)" style="fill: none; stroke: #8b0000; stroke-width: 1.5"/>
    <path d="M 318.456505 191.944519 
L 318.456505 121.032958 
" clip-path="url(#p9213c59e99)" style="fill: none; stroke: #8b0000; stroke-width: 1.5"/>
    <path d="M 333.614643 216.183476 
L 333.614643 121.918639 
" clip-path="url(#p9213c59e99)" style="fill: none; stroke: #8b0000; stroke-width: 1.5"/>
    <path clip-path="url(#p9213c59e99)" style="fill: none; stroke: #8b0000; stroke-width: 1.5"/>
   </g>
   <g id="LineCollection_3">
    <path clip-path="url(#p9213c59e99)" style="fill: none; stroke: #1f77b4; stroke-width: 1.5"/>
    <path clip-path="url(#p9213c59e99)" style="fill: none; stroke: #1f77b4; stroke-width: 1.5"/>
    <path clip-path="url(#p9213c59e99)" style="fill: none; stroke: #1f77b4; stroke-width: 1.5"/>
    <path clip-path="url(#p9213c59e99)" style="fill: none; stroke: #1f77b4; stroke-width: 1.5"/>
    <path clip-path="url(#p9213c59e99)" style="fill: none; stroke: #1f77b4; stroke-width: 1.5"/>
    <path d="M 78.376269 139.61395 
L 78.376269 32.939673 
" clip-path="url(#p9213c59e99)" style="fill: none; stroke: #1f77b4; stroke-width: 1.5"/>
    <path d="M 93.534407 102.960346 
L 93.534407 61.090206 
" clip-path="url(#p9213c59e99)" style="fill: none; stroke: #1f77b4; stroke-width: 1.5"/>
    <path d="M 108.692544 92.817381 
L 108.692544 68.134129 
" clip-path="url(#p9213c59e99)" style="fill: none; stroke: #1f77b4; stroke-width: 1.5"/>
    <path d="M 123.850682 95.909498 
L 123.850682 73.842189 
" clip-path="url(#p9213c59e99)" style="fill: none; stroke: #1f77b4; stroke-width: 1.5"/>
    <path d="M 139.008819 98.113144 
L 139.008819 77.993018 
" clip-path="url(#p9213c59e99)" style="fill: none; stroke: #1f77b4; stroke-width: 1.5"/>
    <path d="M 154.166957 103.918625 
L 154.166957 83.128038 
" clip-path="url(#p9213c59e99)" style="fill: none; stroke: #1f77b4; stroke-width: 1.5"/>
    <path d="M 169.325095 111.852568 
L 169.325095 86.130606 
" clip-path="url(#p9213c59e99)" style="fill: none; stroke: #1f77b4; stroke-width: 1.5"/>
    <path d="M 184.483232 111.836331 
L 184.483232 90.621959 
" clip-path="url(#p9213c59e99)" style="fill: none; stroke: #1f77b4; stroke-width: 1.5"/>
    <path d="M 199.64137 114.492118 
L 199.64137 90.82511 
" clip-path="url(#p9213c59e99)" style="fill: none; stroke: #1f77b4; stroke-width: 1.5"/>
    <path d="M 214.799508 124.909981 
L 214.799508 98.432846 
" clip-path="url(#p9213c59e99)" style="fill: none; stroke: #1f77b4; stroke-width: 1.5"/>
    <path d="M 229.957645 129.193972 
L 229.957645 99.739604 
" clip-path="url(#p9213c59e99)" style="fill: none; stroke: #1f77b4; stroke-width: 1.5"/>
    <path d="M 245.115783 133.777242 
L 245.115783 103.403646 
" clip-path="url(#p9213c59e99)" style="fill: none; stroke: #1f77b4; stroke-width: 1.5"/>
    <path d="M 260.27392 148.929923 
L 260.27392 104.346856 
" clip-path="url(#p9213c59e99)" style="fill: none; stroke: #1f77b4; stroke-width: 1.5"/>
    <path d="M 275.432058 145.476276 
L 275.432058 103.542068 
" clip-path="url(#p9213c59e99)" style="fill: none; stroke: #1f77b4; stroke-width: 1.5"/>
    <path d="M 290.590196 166.208373 
L 290.590196 111.335442 
" clip-path="url(#p9213c59e99)" style="fill: none; stroke: #1f77b4; stroke-width: 1.5"/>
    <path d="M 305.748333 171.366353 
L 305.748333 112.667608 
" clip-path="url(#p9213c59e99)" style="fill: none; stroke: #1f77b4; stroke-width: 1.5"/>
    <path d="M 320.906471 182.933127 
L 320.906471 110.852242 
" clip-path="url(#p9213c59e99)" style="fill: none; stroke: #1f77b4; stroke-width: 1.5"/>
    <path d="M 336.064609 181.211316 
L 336.064609 112.88671 
" clip-path="url(#p9213c59e99)" style="fill: none; stroke: #1f77b4; stroke-width: 1.5"/>
    <path clip-path="url(#p9213c59e99)" style="fill: none; stroke: #1f77b4; stroke-width: 1.5"/>
   </g>
   <g id="line2d_37">
    <defs>
     <path id="mb6e2bdd782" d="M -3 3 
L 3 -3 
M -3 -3 
L 3 3 
" style="stroke: #006400"/>
    </defs>
    <g clip-path="url(#p9213c59e99)">
     <use xlink:href="#mb6e2bdd782" x="73.356781" y="73.611879" style="fill: #006400; stroke: #006400"/>
     <use xlink:href="#mb6e2bdd782" x="88.514918" y="78.044965" style="fill: #006400; stroke: #006400"/>
     <use xlink:href="#mb6e2bdd782" x="103.673056" y="82.470726" style="fill: #006400; stroke: #006400"/>
     <use xlink:href="#mb6e2bdd782" x="118.831194" y="86.890302" style="fill: #006400; stroke: #006400"/>
     <use xlink:href="#mb6e2bdd782" x="133.989331" y="91.314603" style="fill: #006400; stroke: #006400"/>
     <use xlink:href="#mb6e2bdd782" x="149.147469" y="95.73774" style="fill: #006400; stroke: #006400"/>
     <use xlink:href="#mb6e2bdd782" x="164.305607" y="100.163396" style="fill: #006400; stroke: #006400"/>
     <use xlink:href="#mb6e2bdd782" x="179.463744" y="104.582419" style="fill: #006400; stroke: #006400"/>
     <use xlink:href="#mb6e2bdd782" x="194.621882" y="109.005416" style="fill: #006400; stroke: #006400"/>
     <use xlink:href="#mb6e2bdd782" x="209.780019" y="113.427282" style="fill: #006400; stroke: #006400"/>
     <use xlink:href="#mb6e2bdd782" x="224.938157" y="117.84814" style="fill: #006400; stroke: #006400"/>
     <use xlink:href="#mb6e2bdd782" x="240.096295" y="122.268787" style="fill: #006400; stroke: #006400"/>
     <use xlink:href="#mb6e2bdd782" x="255.254432" y="126.68935" style="fill: #006400; stroke: #006400"/>
     <use xlink:href="#mb6e2bdd782" x="270.41257" y="131.106576" style="fill: #006400; stroke: #006400"/>
     <use xlink:href="#mb6e2bdd782" x="285.570708" y="135.523091" style="fill: #006400; stroke: #006400"/>
     <use xlink:href="#mb6e2bdd782" x="300.728845" y="139.941253" style="fill: #006400; stroke: #006400"/>
     <use xlink:href="#mb6e2bdd782" x="315.886983" y="144.357435" style="fill: #006400; stroke: #006400"/>
     <use xlink:href="#mb6e2bdd782" x="331.04512" y="148.772904" style="fill: #006400; stroke: #006400"/>
    </g>
   </g>
   <g id="line2d_38">
    <defs>
     <path id="m25389b1dcd" d="M -3 3 
L 3 -3 
M -3 -3 
L 3 3 
" style="stroke: #8b0000"/>
    </defs>
    <g clip-path="url(#p9213c59e99)">
     <use xlink:href="#m25389b1dcd" x="75.926303" y="73.615735" style="fill: #8b0000; stroke: #8b0000"/>
     <use xlink:href="#m25389b1dcd" x="91.084441" y="78.04649" style="fill: #8b0000; stroke: #8b0000"/>
     <use xlink:href="#m25389b1dcd" x="106.242579" y="82.471579" style="fill: #8b0000; stroke: #8b0000"/>
     <use xlink:href="#m25389b1dcd" x="121.400716" y="86.897244" style="fill: #8b0000; stroke: #8b0000"/>
     <use xlink:href="#m25389b1dcd" x="136.558854" y="91.32202" style="fill: #8b0000; stroke: #8b0000"/>
     <use xlink:href="#m25389b1dcd" x="151.716991" y="95.746313" style="fill: #8b0000; stroke: #8b0000"/>
     <use xlink:href="#m25389b1dcd" x="166.875129" y="100.16988" style="fill: #8b0000; stroke: #8b0000"/>
     <use xlink:href="#m25389b1dcd" x="182.033267" y="104.590561" style="fill: #8b0000; stroke: #8b0000"/>
     <use xlink:href="#m25389b1dcd" x="197.191404" y="109.014044" style="fill: #8b0000; stroke: #8b0000"/>
     <use xlink:href="#m25389b1dcd" x="212.349542" y="113.434274" style="fill: #8b0000; stroke: #8b0000"/>
     <use xlink:href="#m25389b1dcd" x="227.50768" y="117.855479" style="fill: #8b0000; stroke: #8b0000"/>
     <use xlink:href="#m25389b1dcd" x="242.665817" y="122.275505" style="fill: #8b0000; stroke: #8b0000"/>
     <use xlink:href="#m25389b1dcd" x="257.823955" y="126.695049" style="fill: #8b0000; stroke: #8b0000"/>
     <use xlink:href="#m25389b1dcd" x="272.982092" y="131.11392" style="fill: #8b0000; stroke: #8b0000"/>
     <use xlink:href="#m25389b1dcd" x="288.14023" y="135.531989" style="fill: #8b0000; stroke: #8b0000"/>
     <use xlink:href="#m25389b1dcd" x="303.298368" y="139.949555" style="fill: #8b0000; stroke: #8b0000"/>
     <use xlink:href="#m25389b1dcd" x="318.456505" y="144.366186" style="fill: #8b0000; stroke: #8b0000"/>
     <use xlink:href="#m25389b1dcd" x="333.614643" y="148.78249" style="fill: #8b0000; stroke: #8b0000"/>
    </g>
   </g>
   <g id="line2d_39">
    <path d="M 78.376269 61.151126 
L 93.534407 77.569314 
L 108.692544 78.895847 
L 123.850682 83.610296 
L 139.008819 86.999462 
L 154.166957 92.39888 
L 169.325095 97.277516 
L 184.483232 100.058761 
L 199.64137 101.204843 
L 214.799508 109.856495 
L 229.957645 112.227399 
L 245.115783 116.211414 
L 260.27392 121.606443 
L 275.432058 120.039974 
L 290.590196 131.277994 
L 305.748333 133.501909 
L 320.906471 134.398847 
L 336.064609 135.732455 
" clip-path="url(#p9213c59e99)" style="fill: none; stroke: #1f77b4; stroke-width: 1.5; stroke-linecap: square"/>
   </g>
   <g id="patch_3">
    <path d="M 60.221389 190.4328 
L 60.221389 25.44 
" style="fill: none; stroke: #000000; stroke-width: 0.8; stroke-linejoin: miter; stroke-linecap: square"/>
   </g>
   <g id="patch_4">
    <path d="M 349.2 190.4328 
L 349.2 25.44 
" style="fill: none; stroke: #000000; stroke-width: 0.8; stroke-linejoin: miter; stroke-linecap: square"/>
   </g>
   <g id="patch_5">
    <path d="M 60.221389 190.4328 
L 349.2 190.4328 
" style="fill: none; stroke: #000000; stroke-width: 0.8; stroke-linejoin: miter; stroke-linecap: square"/>
   </g>
   <g id="patch_6">
    <path d="M 60.221389 25.44 
L 349.2 25.44 
" style="fill: none; stroke: #000000; stroke-width: 0.8; stroke-linejoin: miter; stroke-linecap: square"/>
   </g>
   <g id="text_3">
    <!-- N = 71 -->
    <g transform="translate(183.745382 19.44) scale(0.12 -0.12)">
     <defs>
      <path id="DejaVuSans-4e" d="M 628 4666 
L 1478 4666 
L 3547 763 
L 3547 4666 
L 4159 4666 
L 4159 0 
L 3309 0 
L 1241 3903 
L 1241 0 
L 628 0 
L 628 4666 
z
" transform="scale(0.015625)"/>
      <path id="DejaVuSans-3d" d="M 678 2906 
L 4684 2906 
L 4684 2381 
L 678 2381 
L 678 2906 
z
M 678 1631 
L 4684 1631 
L 4684 1100 
L 678 1100 
L 678 1631 
z
" transform="scale(0.015625)"/>
      <path id="DejaVuSans-37" d="M 525 4666 
L 3525 4666 
L 3525 4397 
L 1831 0 
L 1172 0 
L 2766 4134 
L 525 4134 
L 525 4666 
z
" transform="scale(0.015625)"/>
     </defs>
     <use xlink:href="#DejaVuSans-4e"/>
     <use xlink:href="#DejaVuSans-20" x="74.804688"/>
     <use xlink:href="#DejaVuSans-3d" x="106.591797"/>
     <use xlink:href="#DejaVuSans-20" x="190.380859"/>
     <use xlink:href="#DejaVuSans-37" x="222.167969"/>
     <use xlink:href="#DejaVuSans-31" x="285.791016"/>
    </g>
   </g>
   <g id="legend_1">
    <g id="patch_7">
     <path d="M 209.6 92.172813 
L 342.2 92.172813 
Q 344.2 92.172813 344.2 90.172813 
L 344.2 32.44 
Q 344.2 30.44 342.2 30.44 
L 209.6 30.44 
Q 207.6 30.44 207.6 32.44 
L 207.6 90.172813 
Q 207.6 92.172813 209.6 92.172813 
z
" style="fill: #ffffff; opacity: 0.8; stroke: #cccccc; stroke-linejoin: miter"/>
    </g>
    <g id="line2d_40">
     <path d="M 211.6 38.538438 
L 221.6 38.538438 
L 231.6 38.538438 
" style="fill: none; stroke-dasharray: 1.5,2.475; stroke-dashoffset: 0; stroke: #000000; stroke-width: 1.5"/>
    </g>
    <g id="text_4">
     <!-- Input -->
     <g transform="translate(239.6 42.038438) scale(0.1 -0.1)">
      <defs>
       <path id="DejaVuSans-49" d="M 628 4666 
L 1259 4666 
L 1259 0 
L 628 0 
L 628 4666 
z
" transform="scale(0.015625)"/>
       <path id="DejaVuSans-70" d="M 1159 525 
L 1159 -1331 
L 581 -1331 
L 581 3500 
L 1159 3500 
L 1159 2969 
Q 1341 3281 1617 3432 
Q 1894 3584 2278 3584 
Q 2916 3584 3314 3078 
Q 3713 2572 3713 1747 
Q 3713 922 3314 415 
Q 2916 -91 2278 -91 
Q 1894 -91 1617 61 
Q 1341 213 1159 525 
z
M 3116 1747 
Q 3116 2381 2855 2742 
Q 2594 3103 2138 3103 
Q 1681 3103 1420 2742 
Q 1159 2381 1159 1747 
Q 1159 1113 1420 752 
Q 1681 391 2138 391 
Q 2594 391 2855 752 
Q 3116 1113 3116 1747 
z
" transform="scale(0.015625)"/>
       <path id="DejaVuSans-75" d="M 544 1381 
L 544 3500 
L 1119 3500 
L 1119 1403 
Q 1119 906 1312 657 
Q 1506 409 1894 409 
Q 2359 409 2629 706 
Q 2900 1003 2900 1516 
L 2900 3500 
L 3475 3500 
L 3475 0 
L 2900 0 
L 2900 538 
Q 2691 219 2414 64 
Q 2138 -91 1772 -91 
Q 1169 -91 856 284 
Q 544 659 544 1381 
z
M 1991 3584 
L 1991 3584 
z
" transform="scale(0.015625)"/>
       <path id="DejaVuSans-74" d="M 1172 4494 
L 1172 3500 
L 2356 3500 
L 2356 3053 
L 1172 3053 
L 1172 1153 
Q 1172 725 1289 603 
Q 1406 481 1766 481 
L 2356 481 
L 2356 0 
L 1766 0 
Q 1100 0 847 248 
Q 594 497 594 1153 
L 594 3053 
L 172 3053 
L 172 3500 
L 594 3500 
L 594 4494 
L 1172 4494 
z
" transform="scale(0.015625)"/>
      </defs>
      <use xlink:href="#DejaVuSans-49"/>
      <use xlink:href="#DejaVuSans-6e" x="29.492188"/>
      <use xlink:href="#DejaVuSans-70" x="92.871094"/>
      <use xlink:href="#DejaVuSans-75" x="156.347656"/>
      <use xlink:href="#DejaVuSans-74" x="219.726562"/>
     </g>
    </g>
    <g id="LineCollection_4">
     <path d="M 221.6 58.216563 
L 221.6 48.216563 
" style="fill: none; stroke: #006400; stroke-width: 1.5"/>
    </g>
    <g id="line2d_41"/>
    <g id="line2d_42">
     <g>
      <use xlink:href="#mb6e2bdd782" x="221.6" y="53.216563" style="fill: #006400; stroke: #006400"/>
     </g>
    </g>
    <g id="text_5">
     <!-- Fluxpoints Nuisance -->
     <g transform="translate(239.6 56.716563) scale(0.1 -0.1)">
      <defs>
       <path id="DejaVuSans-46" d="M 628 4666 
L 3309 4666 
L 3309 4134 
L 1259 4134 
L 1259 2759 
L 3109 2759 
L 3109 2228 
L 1259 2228 
L 1259 0 
L 628 0 
L 628 4666 
z
" transform="scale(0.015625)"/>
       <path id="DejaVuSans-6c" d="M 603 4863 
L 1178 4863 
L 1178 0 
L 603 0 
L 603 4863 
z
" transform="scale(0.015625)"/>
       <path id="DejaVuSans-78" d="M 3513 3500 
L 2247 1797 
L 3578 0 
L 2900 0 
L 1881 1375 
L 863 0 
L 184 0 
L 1544 1831 
L 300 3500 
L 978 3500 
L 1906 2253 
L 2834 3500 
L 3513 3500 
z
" transform="scale(0.015625)"/>
       <path id="DejaVuSans-6f" d="M 1959 3097 
Q 1497 3097 1228 2736 
Q 959 2375 959 1747 
Q 959 1119 1226 758 
Q 1494 397 1959 397 
Q 2419 397 2687 759 
Q 2956 1122 2956 1747 
Q 2956 2369 2687 2733 
Q 2419 3097 1959 3097 
z
M 1959 3584 
Q 2709 3584 3137 3096 
Q 3566 2609 3566 1747 
Q 3566 888 3137 398 
Q 2709 -91 1959 -91 
Q 1206 -91 779 398 
Q 353 888 353 1747 
Q 353 2609 779 3096 
Q 1206 3584 1959 3584 
z
" transform="scale(0.015625)"/>
       <path id="DejaVuSans-69" d="M 603 3500 
L 1178 3500 
L 1178 0 
L 603 0 
L 603 3500 
z
M 603 4863 
L 1178 4863 
L 1178 4134 
L 603 4134 
L 603 4863 
z
" transform="scale(0.015625)"/>
       <path id="DejaVuSans-61" d="M 2194 1759 
Q 1497 1759 1228 1600 
Q 959 1441 959 1056 
Q 959 750 1161 570 
Q 1363 391 1709 391 
Q 2188 391 2477 730 
Q 2766 1069 2766 1631 
L 2766 1759 
L 2194 1759 
z
M 3341 1997 
L 3341 0 
L 2766 0 
L 2766 531 
Q 2569 213 2275 61 
Q 1981 -91 1556 -91 
Q 1019 -91 701 211 
Q 384 513 384 1019 
Q 384 1609 779 1909 
Q 1175 2209 1959 2209 
L 2766 2209 
L 2766 2266 
Q 2766 2663 2505 2880 
Q 2244 3097 1772 3097 
Q 1472 3097 1187 3025 
Q 903 2953 641 2809 
L 641 3341 
Q 956 3463 1253 3523 
Q 1550 3584 1831 3584 
Q 2591 3584 2966 3190 
Q 3341 2797 3341 1997 
z
" transform="scale(0.015625)"/>
      </defs>
      <use xlink:href="#DejaVuSans-46"/>
      <use xlink:href="#DejaVuSans-6c" x="57.519531"/>
      <use xlink:href="#DejaVuSans-75" x="85.302734"/>
      <use xlink:href="#DejaVuSans-78" x="148.681641"/>
      <use xlink:href="#DejaVuSans-70" x="207.861328"/>
      <use xlink:href="#DejaVuSans-6f" x="271.337891"/>
      <use xlink:href="#DejaVuSans-69" x="332.519531"/>
      <use xlink:href="#DejaVuSans-6e" x="360.302734"/>
      <use xlink:href="#DejaVuSans-74" x="423.681641"/>
      <use xlink:href="#DejaVuSans-73" x="462.890625"/>
      <use xlink:href="#DejaVuSans-20" x="514.990234"/>
      <use xlink:href="#DejaVuSans-4e" x="546.777344"/>
      <use xlink:href="#DejaVuSans-75" x="621.582031"/>
      <use xlink:href="#DejaVuSans-69" x="684.960938"/>
      <use xlink:href="#DejaVuSans-73" x="712.744141"/>
      <use xlink:href="#DejaVuSans-61" x="764.84375"/>
      <use xlink:href="#DejaVuSans-6e" x="826.123047"/>
      <use xlink:href="#DejaVuSans-63" x="889.501953"/>
      <use xlink:href="#DejaVuSans-65" x="944.482422"/>
     </g>
    </g>
    <g id="LineCollection_5">
     <path d="M 221.6 72.894688 
L 221.6 62.894688 
" style="fill: none; stroke: #8b0000; stroke-width: 1.5"/>
    </g>
    <g id="line2d_43"/>
    <g id="line2d_44">
     <g>
      <use xlink:href="#m25389b1dcd" x="221.6" y="67.894688" style="fill: #8b0000; stroke: #8b0000"/>
     </g>
    </g>
    <g id="text_6">
     <!-- Fluxpoints Standard -->
     <g transform="translate(239.6 71.394688) scale(0.1 -0.1)">
      <defs>
       <path id="DejaVuSans-53" d="M 3425 4513 
L 3425 3897 
Q 3066 4069 2747 4153 
Q 2428 4238 2131 4238 
Q 1616 4238 1336 4038 
Q 1056 3838 1056 3469 
Q 1056 3159 1242 3001 
Q 1428 2844 1947 2747 
L 2328 2669 
Q 3034 2534 3370 2195 
Q 3706 1856 3706 1288 
Q 3706 609 3251 259 
Q 2797 -91 1919 -91 
Q 1588 -91 1214 -16 
Q 841 59 441 206 
L 441 856 
Q 825 641 1194 531 
Q 1563 422 1919 422 
Q 2459 422 2753 634 
Q 3047 847 3047 1241 
Q 3047 1584 2836 1778 
Q 2625 1972 2144 2069 
L 1759 2144 
Q 1053 2284 737 2584 
Q 422 2884 422 3419 
Q 422 4038 858 4394 
Q 1294 4750 2059 4750 
Q 2388 4750 2728 4690 
Q 3069 4631 3425 4513 
z
" transform="scale(0.015625)"/>
       <path id="DejaVuSans-72" d="M 2631 2963 
Q 2534 3019 2420 3045 
Q 2306 3072 2169 3072 
Q 1681 3072 1420 2755 
Q 1159 2438 1159 1844 
L 1159 0 
L 581 0 
L 581 3500 
L 1159 3500 
L 1159 2956 
Q 1341 3275 1631 3429 
Q 1922 3584 2338 3584 
Q 2397 3584 2469 3576 
Q 2541 3569 2628 3553 
L 2631 2963 
z
" transform="scale(0.015625)"/>
      </defs>
      <use xlink:href="#DejaVuSans-46"/>
      <use xlink:href="#DejaVuSans-6c" x="57.519531"/>
      <use xlink:href="#DejaVuSans-75" x="85.302734"/>
      <use xlink:href="#DejaVuSans-78" x="148.681641"/>
      <use xlink:href="#DejaVuSans-70" x="207.861328"/>
      <use xlink:href="#DejaVuSans-6f" x="271.337891"/>
      <use xlink:href="#DejaVuSans-69" x="332.519531"/>
      <use xlink:href="#DejaVuSans-6e" x="360.302734"/>
      <use xlink:href="#DejaVuSans-74" x="423.681641"/>
      <use xlink:href="#DejaVuSans-73" x="462.890625"/>
      <use xlink:href="#DejaVuSans-20" x="514.990234"/>
      <use xlink:href="#DejaVuSans-53" x="546.777344"/>
      <use xlink:href="#DejaVuSans-74" x="610.253906"/>
      <use xlink:href="#DejaVuSans-61" x="649.462891"/>
      <use xlink:href="#DejaVuSans-6e" x="710.742188"/>
      <use xlink:href="#DejaVuSans-64" x="774.121094"/>
      <use xlink:href="#DejaVuSans-61" x="837.597656"/>
      <use xlink:href="#DejaVuSans-72" x="898.876953"/>
      <use xlink:href="#DejaVuSans-64" x="938.240234"/>
     </g>
    </g>
    <g id="LineCollection_6">
     <path d="M 221.6 87.572813 
L 221.6 77.572813 
" style="fill: none; stroke: #1f77b4; stroke-width: 1.5"/>
    </g>
    <g id="line2d_45">
     <path d="M 211.6 82.572813 
L 231.6 82.572813 
" style="fill: none; stroke: #1f77b4; stroke-width: 1.5; stroke-linecap: square"/>
    </g>
    <g id="line2d_46"/>
    <g id="text_7">
     <!-- $\mu$, $\sigma$ -->
     <g transform="translate(239.6 86.072813) scale(0.1 -0.1)">
      <defs>
       <path id="DejaVuSans-Oblique-3bc" d="M -84 -1331 
L 856 3500 
L 1434 3500 
L 1009 1322 
Q 997 1256 987 1175 
Q 978 1094 978 1013 
Q 978 722 1161 565 
Q 1344 409 1684 409 
Q 2147 409 2431 671 
Q 2716 934 2816 1459 
L 3213 3500 
L 3788 3500 
L 3266 809 
Q 3253 750 3248 706 
Q 3244 663 3244 628 
Q 3244 531 3283 486 
Q 3322 441 3406 441 
Q 3438 441 3492 456 
Q 3547 472 3647 513 
L 3559 50 
Q 3422 -19 3297 -55 
Q 3172 -91 3053 -91 
Q 2847 -91 2730 40 
Q 2613 172 2613 403 
Q 2438 153 2195 31 
Q 1953 -91 1625 -91 
Q 1334 -91 1117 43 
Q 900 178 831 397 
L 494 -1331 
L -84 -1331 
z
" transform="scale(0.015625)"/>
       <path id="DejaVuSans-2c" d="M 750 794 
L 1409 794 
L 1409 256 
L 897 -744 
L 494 -744 
L 750 256 
L 750 794 
z
" transform="scale(0.015625)"/>
       <path id="DejaVuSans-Oblique-3c3" d="M 2219 3044 
Q 1744 3044 1422 2700 
Q 1081 2341 969 1747 
Q 844 1119 1044 756 
Q 1241 397 1706 397 
Q 2166 397 2503 759 
Q 2844 1122 2966 1747 
Q 3075 2319 2881 2700 
Q 2700 3044 2219 3044 
z
M 2309 3503 
L 4219 3500 
L 4106 2925 
L 3463 2925 
Q 3706 2438 3575 1747 
Q 3406 888 2884 400 
Q 2359 -91 1609 -91 
Q 856 -91 525 400 
Q 194 888 363 1747 
Q 528 2609 1050 3097 
Q 1484 3503 2309 3503 
z
" transform="scale(0.015625)"/>
      </defs>
      <use xlink:href="#DejaVuSans-Oblique-3bc" transform="translate(0 0.265625)"/>
      <use xlink:href="#DejaVuSans-2c" transform="translate(63.623047 0.265625)"/>
      <use xlink:href="#DejaVuSans-20" transform="translate(95.410156 0.265625)"/>
      <use xlink:href="#DejaVuSans-Oblique-3c3" transform="translate(127.197266 0.265625)"/>
     </g>
    </g>
   </g>
  </g>
  <g id="axes_2">
   <g id="patch_8">
    <path d="M 60.221389 314.728 
L 349.2 314.728 
L 349.2 204.7328 
L 60.221389 204.7328 
z
" style="fill: #ffffff"/>
   </g>
   <g id="matplotlib.axis_3">
    <g id="xtick_25">
     <g id="line2d_47">
      <g>
       <use xlink:href="#mb9b4ec1c72" x="111.252125" y="314.728" style="stroke: #000000; stroke-width: 0.8"/>
      </g>
     </g>
     <g id="text_8">
      <!-- $\mathdefault{10^{0}}$ -->
      <g transform="translate(102.452125 329.326438) scale(0.1 -0.1)">
       <use xlink:href="#DejaVuSans-31" transform="translate(0 0.765625)"/>
       <use xlink:href="#DejaVuSans-30" transform="translate(63.623047 0.765625)"/>
       <use xlink:href="#DejaVuSans-30" transform="translate(128.203125 39.046875) scale(0.7)"/>
      </g>
     </g>
    </g>
    <g id="xtick_26">
     <g id="line2d_48">
      <g>
       <use xlink:href="#mb9b4ec1c72" x="232.517226" y="314.728" style="stroke: #000000; stroke-width: 0.8"/>
      </g>
     </g>
     <g id="text_9">
      <!-- $\mathdefault{10^{1}}$ -->
      <g transform="translate(223.717226 329.326438) scale(0.1 -0.1)">
       <use xlink:href="#DejaVuSans-31" transform="translate(0 0.684375)"/>
       <use xlink:href="#DejaVuSans-30" transform="translate(63.623047 0.684375)"/>
       <use xlink:href="#DejaVuSans-31" transform="translate(128.203125 38.965625) scale(0.7)"/>
      </g>
     </g>
    </g>
    <g id="xtick_27">
     <g id="line2d_49">
      <g>
       <use xlink:href="#md96d4f2f10" x="62.995889" y="314.728" style="stroke: #000000; stroke-width: 0.6"/>
      </g>
     </g>
    </g>
    <g id="xtick_28">
     <g id="line2d_50">
      <g>
       <use xlink:href="#md96d4f2f10" x="74.747692" y="314.728" style="stroke: #000000; stroke-width: 0.6"/>
      </g>
     </g>
    </g>
    <g id="xtick_29">
     <g id="line2d_51">
      <g>
       <use xlink:href="#md96d4f2f10" x="84.349614" y="314.728" style="stroke: #000000; stroke-width: 0.6"/>
      </g>
     </g>
    </g>
    <g id="xtick_30">
     <g id="line2d_52">
      <g>
       <use xlink:href="#md96d4f2f10" x="92.467923" y="314.728" style="stroke: #000000; stroke-width: 0.6"/>
      </g>
     </g>
    </g>
    <g id="xtick_31">
     <g id="line2d_53">
      <g>
       <use xlink:href="#md96d4f2f10" x="99.500322" y="314.728" style="stroke: #000000; stroke-width: 0.6"/>
      </g>
     </g>
    </g>
    <g id="xtick_32">
     <g id="line2d_54">
      <g>
       <use xlink:href="#md96d4f2f10" x="105.703338" y="314.728" style="stroke: #000000; stroke-width: 0.6"/>
      </g>
     </g>
    </g>
    <g id="xtick_33">
     <g id="line2d_55">
      <g>
       <use xlink:href="#md96d4f2f10" x="147.756558" y="314.728" style="stroke: #000000; stroke-width: 0.6"/>
      </g>
     </g>
    </g>
    <g id="xtick_34">
     <g id="line2d_56">
      <g>
       <use xlink:href="#md96d4f2f10" x="169.110282" y="314.728" style="stroke: #000000; stroke-width: 0.6"/>
      </g>
     </g>
    </g>
    <g id="xtick_35">
     <g id="line2d_57">
      <g>
       <use xlink:href="#md96d4f2f10" x="184.260991" y="314.728" style="stroke: #000000; stroke-width: 0.6"/>
      </g>
     </g>
    </g>
    <g id="xtick_36">
     <g id="line2d_58">
      <g>
       <use xlink:href="#md96d4f2f10" x="196.012793" y="314.728" style="stroke: #000000; stroke-width: 0.6"/>
      </g>
     </g>
    </g>
    <g id="xtick_37">
     <g id="line2d_59">
      <g>
       <use xlink:href="#md96d4f2f10" x="205.614715" y="314.728" style="stroke: #000000; stroke-width: 0.6"/>
      </g>
     </g>
    </g>
    <g id="xtick_38">
     <g id="line2d_60">
      <g>
       <use xlink:href="#md96d4f2f10" x="213.733024" y="314.728" style="stroke: #000000; stroke-width: 0.6"/>
      </g>
     </g>
    </g>
    <g id="xtick_39">
     <g id="line2d_61">
      <g>
       <use xlink:href="#md96d4f2f10" x="220.765423" y="314.728" style="stroke: #000000; stroke-width: 0.6"/>
      </g>
     </g>
    </g>
    <g id="xtick_40">
     <g id="line2d_62">
      <g>
       <use xlink:href="#md96d4f2f10" x="226.968439" y="314.728" style="stroke: #000000; stroke-width: 0.6"/>
      </g>
     </g>
    </g>
    <g id="xtick_41">
     <g id="line2d_63">
      <g>
       <use xlink:href="#md96d4f2f10" x="269.021659" y="314.728" style="stroke: #000000; stroke-width: 0.6"/>
      </g>
     </g>
    </g>
    <g id="xtick_42">
     <g id="line2d_64">
      <g>
       <use xlink:href="#md96d4f2f10" x="290.375383" y="314.728" style="stroke: #000000; stroke-width: 0.6"/>
      </g>
     </g>
    </g>
    <g id="xtick_43">
     <g id="line2d_65">
      <g>
       <use xlink:href="#md96d4f2f10" x="305.526092" y="314.728" style="stroke: #000000; stroke-width: 0.6"/>
      </g>
     </g>
    </g>
    <g id="xtick_44">
     <g id="line2d_66">
      <g>
       <use xlink:href="#md96d4f2f10" x="317.277894" y="314.728" style="stroke: #000000; stroke-width: 0.6"/>
      </g>
     </g>
    </g>
    <g id="xtick_45">
     <g id="line2d_67">
      <g>
       <use xlink:href="#md96d4f2f10" x="326.879816" y="314.728" style="stroke: #000000; stroke-width: 0.6"/>
      </g>
     </g>
    </g>
    <g id="xtick_46">
     <g id="line2d_68">
      <g>
       <use xlink:href="#md96d4f2f10" x="334.998125" y="314.728" style="stroke: #000000; stroke-width: 0.6"/>
      </g>
     </g>
    </g>
    <g id="xtick_47">
     <g id="line2d_69">
      <g>
       <use xlink:href="#md96d4f2f10" x="342.030524" y="314.728" style="stroke: #000000; stroke-width: 0.6"/>
      </g>
     </g>
    </g>
    <g id="xtick_48">
     <g id="line2d_70">
      <g>
       <use xlink:href="#md96d4f2f10" x="348.23354" y="314.728" style="stroke: #000000; stroke-width: 0.6"/>
      </g>
     </g>
    </g>
    <g id="text_10">
     <!-- Energy [TeV] -->
     <g transform="translate(173.013038 343.004563) scale(0.1 -0.1)">
      <defs>
       <path id="DejaVuSans-45" d="M 628 4666 
L 3578 4666 
L 3578 4134 
L 1259 4134 
L 1259 2753 
L 3481 2753 
L 3481 2222 
L 1259 2222 
L 1259 531 
L 3634 531 
L 3634 0 
L 628 0 
L 628 4666 
z
" transform="scale(0.015625)"/>
       <path id="DejaVuSans-67" d="M 2906 1791 
Q 2906 2416 2648 2759 
Q 2391 3103 1925 3103 
Q 1463 3103 1205 2759 
Q 947 2416 947 1791 
Q 947 1169 1205 825 
Q 1463 481 1925 481 
Q 2391 481 2648 825 
Q 2906 1169 2906 1791 
z
M 3481 434 
Q 3481 -459 3084 -895 
Q 2688 -1331 1869 -1331 
Q 1566 -1331 1297 -1286 
Q 1028 -1241 775 -1147 
L 775 -588 
Q 1028 -725 1275 -790 
Q 1522 -856 1778 -856 
Q 2344 -856 2625 -561 
Q 2906 -266 2906 331 
L 2906 616 
Q 2728 306 2450 153 
Q 2172 0 1784 0 
Q 1141 0 747 490 
Q 353 981 353 1791 
Q 353 2603 747 3093 
Q 1141 3584 1784 3584 
Q 2172 3584 2450 3431 
Q 2728 3278 2906 2969 
L 2906 3500 
L 3481 3500 
L 3481 434 
z
" transform="scale(0.015625)"/>
       <path id="DejaVuSans-79" d="M 2059 -325 
Q 1816 -950 1584 -1140 
Q 1353 -1331 966 -1331 
L 506 -1331 
L 506 -850 
L 844 -850 
Q 1081 -850 1212 -737 
Q 1344 -625 1503 -206 
L 1606 56 
L 191 3500 
L 800 3500 
L 1894 763 
L 2988 3500 
L 3597 3500 
L 2059 -325 
z
" transform="scale(0.015625)"/>
      </defs>
      <use xlink:href="#DejaVuSans-45"/>
      <use xlink:href="#DejaVuSans-6e" x="63.183594"/>
      <use xlink:href="#DejaVuSans-65" x="126.5625"/>
      <use xlink:href="#DejaVuSans-72" x="188.085938"/>
      <use xlink:href="#DejaVuSans-67" x="227.449219"/>
      <use xlink:href="#DejaVuSans-79" x="290.925781"/>
      <use xlink:href="#DejaVuSans-20" x="350.105469"/>
      <use xlink:href="#DejaVuSans-5b" x="381.892578"/>
      <use xlink:href="#DejaVuSans-54" x="420.90625"/>
      <use xlink:href="#DejaVuSans-65" x="464.990234"/>
      <use xlink:href="#DejaVuSans-56" x="526.513672"/>
      <use xlink:href="#DejaVuSans-5d" x="594.921875"/>
     </g>
    </g>
   </g>
   <g id="matplotlib.axis_4">
    <g id="ytick_12">
     <g id="line2d_71">
      <g>
       <use xlink:href="#m76cf2ac3ba" x="60.221389" y="306.603355" style="stroke: #000000; stroke-width: 0.8"/>
      </g>
     </g>
     <g id="text_11">
      <!-- 0.50 -->
      <g transform="translate(30.955764 310.402573) scale(0.1 -0.1)">
       <defs>
        <path id="DejaVuSans-2e" d="M 684 794 
L 1344 794 
L 1344 0 
L 684 0 
L 684 794 
z
" transform="scale(0.015625)"/>
        <path id="DejaVuSans-35" d="M 691 4666 
L 3169 4666 
L 3169 4134 
L 1269 4134 
L 1269 2991 
Q 1406 3038 1543 3061 
Q 1681 3084 1819 3084 
Q 2600 3084 3056 2656 
Q 3513 2228 3513 1497 
Q 3513 744 3044 326 
Q 2575 -91 1722 -91 
Q 1428 -91 1123 -41 
Q 819 9 494 109 
L 494 744 
Q 775 591 1075 516 
Q 1375 441 1709 441 
Q 2250 441 2565 725 
Q 2881 1009 2881 1497 
Q 2881 1984 2565 2268 
Q 2250 2553 1709 2553 
Q 1456 2553 1204 2497 
Q 953 2441 691 2322 
L 691 4666 
z
" transform="scale(0.015625)"/>
       </defs>
       <use xlink:href="#DejaVuSans-30"/>
       <use xlink:href="#DejaVuSans-2e" x="63.623047"/>
       <use xlink:href="#DejaVuSans-35" x="95.410156"/>
       <use xlink:href="#DejaVuSans-30" x="159.033203"/>
      </g>
     </g>
    </g>
    <g id="ytick_13">
     <g id="line2d_72">
      <g>
       <use xlink:href="#m76cf2ac3ba" x="60.221389" y="284.416823" style="stroke: #000000; stroke-width: 0.8"/>
      </g>
     </g>
     <g id="text_12">
      <!-- 0.55 -->
      <g transform="translate(30.955764 288.216041) scale(0.1 -0.1)">
       <use xlink:href="#DejaVuSans-30"/>
       <use xlink:href="#DejaVuSans-2e" x="63.623047"/>
       <use xlink:href="#DejaVuSans-35" x="95.410156"/>
       <use xlink:href="#DejaVuSans-35" x="159.033203"/>
      </g>
     </g>
    </g>
    <g id="ytick_14">
     <g id="line2d_73">
      <g>
       <use xlink:href="#m76cf2ac3ba" x="60.221389" y="262.230291" style="stroke: #000000; stroke-width: 0.8"/>
      </g>
     </g>
     <g id="text_13">
      <!-- 0.60 -->
      <g transform="translate(30.955764 266.02951) scale(0.1 -0.1)">
       <defs>
        <path id="DejaVuSans-36" d="M 2113 2584 
Q 1688 2584 1439 2293 
Q 1191 2003 1191 1497 
Q 1191 994 1439 701 
Q 1688 409 2113 409 
Q 2538 409 2786 701 
Q 3034 994 3034 1497 
Q 3034 2003 2786 2293 
Q 2538 2584 2113 2584 
z
M 3366 4563 
L 3366 3988 
Q 3128 4100 2886 4159 
Q 2644 4219 2406 4219 
Q 1781 4219 1451 3797 
Q 1122 3375 1075 2522 
Q 1259 2794 1537 2939 
Q 1816 3084 2150 3084 
Q 2853 3084 3261 2657 
Q 3669 2231 3669 1497 
Q 3669 778 3244 343 
Q 2819 -91 2113 -91 
Q 1303 -91 875 529 
Q 447 1150 447 2328 
Q 447 3434 972 4092 
Q 1497 4750 2381 4750 
Q 2619 4750 2861 4703 
Q 3103 4656 3366 4563 
z
" transform="scale(0.015625)"/>
       </defs>
       <use xlink:href="#DejaVuSans-30"/>
       <use xlink:href="#DejaVuSans-2e" x="63.623047"/>
       <use xlink:href="#DejaVuSans-36" x="95.410156"/>
       <use xlink:href="#DejaVuSans-30" x="159.033203"/>
      </g>
     </g>
    </g>
    <g id="ytick_15">
     <g id="line2d_74">
      <g>
       <use xlink:href="#m76cf2ac3ba" x="60.221389" y="240.043759" style="stroke: #000000; stroke-width: 0.8"/>
      </g>
     </g>
     <g id="text_14">
      <!-- 0.65 -->
      <g transform="translate(30.955764 243.842978) scale(0.1 -0.1)">
       <use xlink:href="#DejaVuSans-30"/>
       <use xlink:href="#DejaVuSans-2e" x="63.623047"/>
       <use xlink:href="#DejaVuSans-36" x="95.410156"/>
       <use xlink:href="#DejaVuSans-35" x="159.033203"/>
      </g>
     </g>
    </g>
    <g id="ytick_16">
     <g id="line2d_75">
      <g>
       <use xlink:href="#m76cf2ac3ba" x="60.221389" y="217.857227" style="stroke: #000000; stroke-width: 0.8"/>
      </g>
     </g>
     <g id="text_15">
      <!-- 0.70 -->
      <g transform="translate(30.955764 221.656446) scale(0.1 -0.1)">
       <use xlink:href="#DejaVuSans-30"/>
       <use xlink:href="#DejaVuSans-2e" x="63.623047"/>
       <use xlink:href="#DejaVuSans-37" x="95.410156"/>
       <use xlink:href="#DejaVuSans-30" x="159.033203"/>
      </g>
     </g>
    </g>
    <g id="text_16">
     <!-- Coverage -->
     <g transform="translate(24.876077 283.687431) rotate(-90) scale(0.1 -0.1)">
      <defs>
       <path id="DejaVuSans-43" d="M 4122 4306 
L 4122 3641 
Q 3803 3938 3442 4084 
Q 3081 4231 2675 4231 
Q 1875 4231 1450 3742 
Q 1025 3253 1025 2328 
Q 1025 1406 1450 917 
Q 1875 428 2675 428 
Q 3081 428 3442 575 
Q 3803 722 4122 1019 
L 4122 359 
Q 3791 134 3420 21 
Q 3050 -91 2638 -91 
Q 1578 -91 968 557 
Q 359 1206 359 2328 
Q 359 3453 968 4101 
Q 1578 4750 2638 4750 
Q 3056 4750 3426 4639 
Q 3797 4528 4122 4306 
z
" transform="scale(0.015625)"/>
       <path id="DejaVuSans-76" d="M 191 3500 
L 800 3500 
L 1894 563 
L 2988 3500 
L 3597 3500 
L 2284 0 
L 1503 0 
L 191 3500 
z
" transform="scale(0.015625)"/>
      </defs>
      <use xlink:href="#DejaVuSans-43"/>
      <use xlink:href="#DejaVuSans-6f" x="69.824219"/>
      <use xlink:href="#DejaVuSans-76" x="131.005859"/>
      <use xlink:href="#DejaVuSans-65" x="190.185547"/>
      <use xlink:href="#DejaVuSans-72" x="251.708984"/>
      <use xlink:href="#DejaVuSans-61" x="292.822266"/>
      <use xlink:href="#DejaVuSans-67" x="354.101562"/>
      <use xlink:href="#DejaVuSans-65" x="417.578125"/>
     </g>
    </g>
   </g>
   <g id="line2d_76">
    <path d="M 73.356781 215.982309 
L 88.514918 234.731491 
L 103.673056 278.479582 
L 118.831194 290.979036 
L 133.989331 290.979036 
L 149.147469 272.229855 
L 164.305607 278.479582 
L 179.463744 297.228764 
L 194.621882 309.728218 
L 209.780019 228.481764 
L 224.938157 240.981218 
L 240.096295 240.981218 
L 255.254432 303.478491 
L 270.41257 253.480673 
L 285.570708 228.481764 
L 300.728845 265.980127 
L 315.886983 259.7304 
L 331.04512 234.731491 
" clip-path="url(#pfa88dd4e70)" style="fill: none; stroke: #ff0000; stroke-width: 1.5; stroke-linecap: square"/>
   </g>
   <g id="line2d_77">
    <path d="M 73.356781 215.982309 
L 88.514918 228.481764 
L 103.673056 259.7304 
L 118.831194 272.229855 
L 133.989331 265.980127 
L 149.147469 265.980127 
L 164.305607 259.7304 
L 179.463744 259.7304 
L 194.621882 297.228764 
L 209.780019 209.732582 
L 224.938157 240.981218 
L 240.096295 234.731491 
L 255.254432 297.228764 
L 270.41257 253.480673 
L 285.570708 228.481764 
L 300.728845 265.980127 
L 315.886983 259.7304 
L 331.04512 234.731491 
" clip-path="url(#pfa88dd4e70)" style="fill: none; stroke: #008000; stroke-width: 1.5; stroke-linecap: square"/>
   </g>
   <g id="line2d_78">
    <path d="M 73.356781 226.73184 
L 88.514918 226.73184 
L 103.673056 226.73184 
L 118.831194 226.73184 
L 133.989331 226.73184 
L 149.147469 226.73184 
L 164.305607 226.73184 
L 179.463744 226.73184 
L 194.621882 226.73184 
L 209.780019 226.73184 
L 224.938157 226.73184 
L 240.096295 226.73184 
L 255.254432 226.73184 
L 270.41257 226.73184 
L 285.570708 226.73184 
L 300.728845 226.73184 
L 315.886983 226.73184 
L 331.04512 226.73184 
" clip-path="url(#pfa88dd4e70)" style="fill: none; stroke-dasharray: 1.5,2.475; stroke-dashoffset: 0; stroke: #008000; stroke-width: 1.5"/>
   </g>
   <g id="patch_9">
    <path d="M 60.221389 314.728 
L 60.221389 204.7328 
" style="fill: none; stroke: #000000; stroke-width: 0.8; stroke-linejoin: miter; stroke-linecap: square"/>
   </g>
   <g id="patch_10">
    <path d="M 349.2 314.728 
L 349.2 204.7328 
" style="fill: none; stroke: #000000; stroke-width: 0.8; stroke-linejoin: miter; stroke-linecap: square"/>
   </g>
   <g id="patch_11">
    <path d="M 60.221389 314.728 
L 349.2 314.728 
" style="fill: none; stroke: #000000; stroke-width: 0.8; stroke-linejoin: miter; stroke-linecap: square"/>
   </g>
   <g id="patch_12">
    <path d="M 60.221389 204.7328 
L 349.2 204.7328 
" style="fill: none; stroke: #000000; stroke-width: 0.8; stroke-linejoin: miter; stroke-linecap: square"/>
   </g>
   <g id="legend_2">
    <g id="patch_13">
     <path d="M 264.276563 309.728 
L 342.2 309.728 
Q 344.2 309.728 344.2 307.728 
L 344.2 264.693625 
Q 344.2 262.693625 342.2 262.693625 
L 264.276563 262.693625 
Q 262.276563 262.693625 262.276563 264.693625 
L 262.276563 307.728 
Q 262.276563 309.728 264.276563 309.728 
z
" style="fill: #ffffff; opacity: 0.8; stroke: #cccccc; stroke-linejoin: miter"/>
    </g>
    <g id="line2d_79">
     <path d="M 266.276563 270.792063 
L 276.276563 270.792063 
L 286.276563 270.792063 
" style="fill: none; stroke: #ff0000; stroke-width: 1.5; stroke-linecap: square"/>
    </g>
    <g id="text_17">
     <!-- Standard -->
     <g transform="translate(294.276563 274.292063) scale(0.1 -0.1)">
      <use xlink:href="#DejaVuSans-53"/>
      <use xlink:href="#DejaVuSans-74" x="63.476562"/>
      <use xlink:href="#DejaVuSans-61" x="102.685547"/>
      <use xlink:href="#DejaVuSans-6e" x="163.964844"/>
      <use xlink:href="#DejaVuSans-64" x="227.34375"/>
      <use xlink:href="#DejaVuSans-61" x="290.820312"/>
      <use xlink:href="#DejaVuSans-72" x="352.099609"/>
      <use xlink:href="#DejaVuSans-64" x="391.462891"/>
     </g>
    </g>
    <g id="line2d_80">
     <path d="M 266.276563 285.470188 
L 276.276563 285.470188 
L 286.276563 285.470188 
" style="fill: none; stroke: #008000; stroke-width: 1.5; stroke-linecap: square"/>
    </g>
    <g id="text_18">
     <!-- Nuisance -->
     <g transform="translate(294.276563 288.970188) scale(0.1 -0.1)">
      <use xlink:href="#DejaVuSans-4e"/>
      <use xlink:href="#DejaVuSans-75" x="74.804688"/>
      <use xlink:href="#DejaVuSans-69" x="138.183594"/>
      <use xlink:href="#DejaVuSans-73" x="165.966797"/>
      <use xlink:href="#DejaVuSans-61" x="218.066406"/>
      <use xlink:href="#DejaVuSans-6e" x="279.345703"/>
      <use xlink:href="#DejaVuSans-63" x="342.724609"/>
      <use xlink:href="#DejaVuSans-65" x="397.705078"/>
     </g>
    </g>
    <g id="line2d_81">
     <path d="M 266.276563 300.148313 
L 276.276563 300.148313 
L 286.276563 300.148313 
" style="fill: none; stroke-dasharray: 1.5,2.475; stroke-dashoffset: 0; stroke: #008000; stroke-width: 1.5"/>
    </g>
    <g id="text_19">
     <!-- 68 % -->
     <g transform="translate(294.276563 303.648313) scale(0.1 -0.1)">
      <defs>
       <path id="DejaVuSans-38" d="M 2034 2216 
Q 1584 2216 1326 1975 
Q 1069 1734 1069 1313 
Q 1069 891 1326 650 
Q 1584 409 2034 409 
Q 2484 409 2743 651 
Q 3003 894 3003 1313 
Q 3003 1734 2745 1975 
Q 2488 2216 2034 2216 
z
M 1403 2484 
Q 997 2584 770 2862 
Q 544 3141 544 3541 
Q 544 4100 942 4425 
Q 1341 4750 2034 4750 
Q 2731 4750 3128 4425 
Q 3525 4100 3525 3541 
Q 3525 3141 3298 2862 
Q 3072 2584 2669 2484 
Q 3125 2378 3379 2068 
Q 3634 1759 3634 1313 
Q 3634 634 3220 271 
Q 2806 -91 2034 -91 
Q 1263 -91 848 271 
Q 434 634 434 1313 
Q 434 1759 690 2068 
Q 947 2378 1403 2484 
z
M 1172 3481 
Q 1172 3119 1398 2916 
Q 1625 2713 2034 2713 
Q 2441 2713 2670 2916 
Q 2900 3119 2900 3481 
Q 2900 3844 2670 4047 
Q 2441 4250 2034 4250 
Q 1625 4250 1398 4047 
Q 1172 3844 1172 3481 
z
" transform="scale(0.015625)"/>
       <path id="DejaVuSans-25" d="M 4653 2053 
Q 4381 2053 4226 1822 
Q 4072 1591 4072 1178 
Q 4072 772 4226 539 
Q 4381 306 4653 306 
Q 4919 306 5073 539 
Q 5228 772 5228 1178 
Q 5228 1588 5073 1820 
Q 4919 2053 4653 2053 
z
M 4653 2450 
Q 5147 2450 5437 2106 
Q 5728 1763 5728 1178 
Q 5728 594 5436 251 
Q 5144 -91 4653 -91 
Q 4153 -91 3862 251 
Q 3572 594 3572 1178 
Q 3572 1766 3864 2108 
Q 4156 2450 4653 2450 
z
M 1428 4353 
Q 1159 4353 1004 4120 
Q 850 3888 850 3481 
Q 850 3069 1003 2837 
Q 1156 2606 1428 2606 
Q 1700 2606 1854 2837 
Q 2009 3069 2009 3481 
Q 2009 3884 1853 4118 
Q 1697 4353 1428 4353 
z
M 4250 4750 
L 4750 4750 
L 1831 -91 
L 1331 -91 
L 4250 4750 
z
M 1428 4750 
Q 1922 4750 2215 4408 
Q 2509 4066 2509 3481 
Q 2509 2891 2217 2550 
Q 1925 2209 1428 2209 
Q 931 2209 642 2551 
Q 353 2894 353 3481 
Q 353 4063 643 4406 
Q 934 4750 1428 4750 
z
" transform="scale(0.015625)"/>
      </defs>
      <use xlink:href="#DejaVuSans-36"/>
      <use xlink:href="#DejaVuSans-38" x="63.623047"/>
      <use xlink:href="#DejaVuSans-20" x="127.246094"/>
      <use xlink:href="#DejaVuSans-25" x="159.033203"/>
     </g>
    </g>
   </g>
  </g>
 </g>
 <defs>
  <clipPath id="p9213c59e99">
   <rect x="60.221389" y="25.44" width="288.978611" height="164.9928"/>
  </clipPath>
  <clipPath id="pfa88dd4e70">
   <rect x="60.221389" y="204.7328" width="288.978611" height="109.9952"/>
  </clipPath>
 </defs>
</svg>
