<?xml version="1.0" encoding="utf-8" standalone="no"?>
<!DOCTYPE svg PUBLIC "-//W3C//DTD SVG 1.1//EN"
  "http://www.w3.org/Graphics/SVG/1.1/DTD/svg11.dtd">
<svg xmlns:xlink="http://www.w3.org/1999/xlink" width="360pt" height="216pt" viewBox="0 0 360 216" xmlns="http://www.w3.org/2000/svg" version="1.1">
 <metadata>
  <rdf:RDF xmlns:dc="http://purl.org/dc/elements/1.1/" xmlns:cc="http://creativecommons.org/ns#" xmlns:rdf="http://www.w3.org/1999/02/22-rdf-syntax-ns#">
   <cc:Work>
    <dc:type rdf:resource="http://purl.org/dc/dcmitype/StillImage"/>
    <dc:date>2023-02-01T13:09:57.777570</dc:date>
    <dc:format>image/svg+xml</dc:format>
    <dc:creator>
     <cc:Agent>
      <dc:title>Matplotlib v3.6.2, https://matplotlib.org/</dc:title>
     </cc:Agent>
    </dc:creator>
   </cc:Work>
  </rdf:RDF>
 </metadata>
 <defs>
  <style type="text/css">*{stroke-linejoin: round; stroke-linecap: butt}</style>
 </defs>
 <g id="figure_1">
  <g id="patch_1">
   <path d="M 0 216 
L 360 216 
L 360 0 
L 0 0 
z
" style="fill: #ffffff"/>
  </g>
  <g id="axes_1">
   <g id="patch_2">
    <path d="M 60.221389 170.728 
L 349.2 170.728 
L 349.2 25.44 
L 60.221389 25.44 
z
" style="fill: #ffffff"/>
   </g>
   <g id="matplotlib.axis_1">
    <g id="xtick_1">
     <g id="line2d_1">
      <defs>
       <path id="m23434ae515" d="M 0 0 
L 0 3.5 
" style="stroke: #000000; stroke-width: 0.8"/>
      </defs>
      <g>
       <use xlink:href="#m23434ae515" x="111.990285" y="170.728" style="stroke: #000000; stroke-width: 0.8"/>
      </g>
     </g>
     <g id="text_1">
      <!-- $\mathdefault{10^{0}}$ -->
      <g transform="translate(103.190285 185.326437) scale(0.1 -0.1)">
       <defs>
        <path id="DejaVuSans-31" d="M 794 531 
L 1825 531 
L 1825 4091 
L 703 3866 
L 703 4441 
L 1819 4666 
L 2450 4666 
L 2450 531 
L 3481 531 
L 3481 0 
L 794 0 
L 794 531 
z
" transform="scale(0.015625)"/>
        <path id="DejaVuSans-30" d="M 2034 4250 
Q 1547 4250 1301 3770 
Q 1056 3291 1056 2328 
Q 1056 1369 1301 889 
Q 1547 409 2034 409 
Q 2525 409 2770 889 
Q 3016 1369 3016 2328 
Q 3016 3291 2770 3770 
Q 2525 4250 2034 4250 
z
M 2034 4750 
Q 2819 4750 3233 4129 
Q 3647 3509 3647 2328 
Q 3647 1150 3233 529 
Q 2819 -91 2034 -91 
Q 1250 -91 836 529 
Q 422 1150 422 2328 
Q 422 3509 836 4129 
Q 1250 4750 2034 4750 
z
" transform="scale(0.015625)"/>
       </defs>
       <use xlink:href="#DejaVuSans-31" transform="translate(0 0.765625)"/>
       <use xlink:href="#DejaVuSans-30" transform="translate(63.623047 0.765625)"/>
       <use xlink:href="#DejaVuSans-30" transform="translate(128.203125 39.046875) scale(0.7)"/>
      </g>
     </g>
    </g>
    <g id="xtick_2">
     <g id="line2d_2">
      <g>
       <use xlink:href="#m23434ae515" x="235.617498" y="170.728" style="stroke: #000000; stroke-width: 0.8"/>
      </g>
     </g>
     <g id="text_2">
      <!-- $\mathdefault{10^{1}}$ -->
      <g transform="translate(226.817498 185.326437) scale(0.1 -0.1)">
       <use xlink:href="#DejaVuSans-31" transform="translate(0 0.684375)"/>
       <use xlink:href="#DejaVuSans-30" transform="translate(63.623047 0.684375)"/>
       <use xlink:href="#DejaVuSans-31" transform="translate(128.203125 38.965625) scale(0.7)"/>
      </g>
     </g>
    </g>
    <g id="xtick_3">
     <g id="line2d_3">
      <defs>
       <path id="m7973508e4c" d="M 0 0 
L 0 2 
" style="stroke: #000000; stroke-width: 0.6"/>
      </defs>
      <g>
       <use xlink:href="#m7973508e4c" x="62.794071" y="170.728" style="stroke: #000000; stroke-width: 0.6"/>
      </g>
     </g>
    </g>
    <g id="xtick_4">
     <g id="line2d_4">
      <g>
       <use xlink:href="#m7973508e4c" x="74.774785" y="170.728" style="stroke: #000000; stroke-width: 0.6"/>
      </g>
     </g>
    </g>
    <g id="xtick_5">
     <g id="line2d_5">
      <g>
       <use xlink:href="#m7973508e4c" x="84.563742" y="170.728" style="stroke: #000000; stroke-width: 0.6"/>
      </g>
     </g>
    </g>
    <g id="xtick_6">
     <g id="line2d_6">
      <g>
       <use xlink:href="#m7973508e4c" x="92.840187" y="170.728" style="stroke: #000000; stroke-width: 0.6"/>
      </g>
     </g>
    </g>
    <g id="xtick_7">
     <g id="line2d_7">
      <g>
       <use xlink:href="#m7973508e4c" x="100.00957" y="170.728" style="stroke: #000000; stroke-width: 0.6"/>
      </g>
     </g>
    </g>
    <g id="xtick_8">
     <g id="line2d_8">
      <g>
       <use xlink:href="#m7973508e4c" x="106.333414" y="170.728" style="stroke: #000000; stroke-width: 0.6"/>
      </g>
     </g>
    </g>
    <g id="xtick_9">
     <g id="line2d_9">
      <g>
       <use xlink:href="#m7973508e4c" x="149.205784" y="170.728" style="stroke: #000000; stroke-width: 0.6"/>
      </g>
     </g>
    </g>
    <g id="xtick_10">
     <g id="line2d_10">
      <g>
       <use xlink:href="#m7973508e4c" x="170.975456" y="170.728" style="stroke: #000000; stroke-width: 0.6"/>
      </g>
     </g>
    </g>
    <g id="xtick_11">
     <g id="line2d_11">
      <g>
       <use xlink:href="#m7973508e4c" x="186.421284" y="170.728" style="stroke: #000000; stroke-width: 0.6"/>
      </g>
     </g>
    </g>
    <g id="xtick_12">
     <g id="line2d_12">
      <g>
       <use xlink:href="#m7973508e4c" x="198.401999" y="170.728" style="stroke: #000000; stroke-width: 0.6"/>
      </g>
     </g>
    </g>
    <g id="xtick_13">
     <g id="line2d_13">
      <g>
       <use xlink:href="#m7973508e4c" x="208.190955" y="170.728" style="stroke: #000000; stroke-width: 0.6"/>
      </g>
     </g>
    </g>
    <g id="xtick_14">
     <g id="line2d_14">
      <g>
       <use xlink:href="#m7973508e4c" x="216.4674" y="170.728" style="stroke: #000000; stroke-width: 0.6"/>
      </g>
     </g>
    </g>
    <g id="xtick_15">
     <g id="line2d_15">
      <g>
       <use xlink:href="#m7973508e4c" x="223.636783" y="170.728" style="stroke: #000000; stroke-width: 0.6"/>
      </g>
     </g>
    </g>
    <g id="xtick_16">
     <g id="line2d_16">
      <g>
       <use xlink:href="#m7973508e4c" x="229.960627" y="170.728" style="stroke: #000000; stroke-width: 0.6"/>
      </g>
     </g>
    </g>
    <g id="xtick_17">
     <g id="line2d_17">
      <g>
       <use xlink:href="#m7973508e4c" x="272.832997" y="170.728" style="stroke: #000000; stroke-width: 0.6"/>
      </g>
     </g>
    </g>
    <g id="xtick_18">
     <g id="line2d_18">
      <g>
       <use xlink:href="#m7973508e4c" x="294.602669" y="170.728" style="stroke: #000000; stroke-width: 0.6"/>
      </g>
     </g>
    </g>
    <g id="xtick_19">
     <g id="line2d_19">
      <g>
       <use xlink:href="#m7973508e4c" x="310.048497" y="170.728" style="stroke: #000000; stroke-width: 0.6"/>
      </g>
     </g>
    </g>
    <g id="xtick_20">
     <g id="line2d_20">
      <g>
       <use xlink:href="#m7973508e4c" x="322.029212" y="170.728" style="stroke: #000000; stroke-width: 0.6"/>
      </g>
     </g>
    </g>
    <g id="xtick_21">
     <g id="line2d_21">
      <g>
       <use xlink:href="#m7973508e4c" x="331.818168" y="170.728" style="stroke: #000000; stroke-width: 0.6"/>
      </g>
     </g>
    </g>
    <g id="xtick_22">
     <g id="line2d_22">
      <g>
       <use xlink:href="#m7973508e4c" x="340.094613" y="170.728" style="stroke: #000000; stroke-width: 0.6"/>
      </g>
     </g>
    </g>
    <g id="xtick_23">
     <g id="line2d_23">
      <g>
       <use xlink:href="#m7973508e4c" x="347.263996" y="170.728" style="stroke: #000000; stroke-width: 0.6"/>
      </g>
     </g>
    </g>
    <g id="text_3">
     <!-- Energy [TeV] -->
     <g transform="translate(173.013038 199.004562) scale(0.1 -0.1)">
      <defs>
       <path id="DejaVuSans-45" d="M 628 4666 
L 3578 4666 
L 3578 4134 
L 1259 4134 
L 1259 2753 
L 3481 2753 
L 3481 2222 
L 1259 2222 
L 1259 531 
L 3634 531 
L 3634 0 
L 628 0 
L 628 4666 
z
" transform="scale(0.015625)"/>
       <path id="DejaVuSans-6e" d="M 3513 2113 
L 3513 0 
L 2938 0 
L 2938 2094 
Q 2938 2591 2744 2837 
Q 2550 3084 2163 3084 
Q 1697 3084 1428 2787 
Q 1159 2491 1159 1978 
L 1159 0 
L 581 0 
L 581 3500 
L 1159 3500 
L 1159 2956 
Q 1366 3272 1645 3428 
Q 1925 3584 2291 3584 
Q 2894 3584 3203 3211 
Q 3513 2838 3513 2113 
z
" transform="scale(0.015625)"/>
       <path id="DejaVuSans-65" d="M 3597 1894 
L 3597 1613 
L 953 1613 
Q 991 1019 1311 708 
Q 1631 397 2203 397 
Q 2534 397 2845 478 
Q 3156 559 3463 722 
L 3463 178 
Q 3153 47 2828 -22 
Q 2503 -91 2169 -91 
Q 1331 -91 842 396 
Q 353 884 353 1716 
Q 353 2575 817 3079 
Q 1281 3584 2069 3584 
Q 2775 3584 3186 3129 
Q 3597 2675 3597 1894 
z
M 3022 2063 
Q 3016 2534 2758 2815 
Q 2500 3097 2075 3097 
Q 1594 3097 1305 2825 
Q 1016 2553 972 2059 
L 3022 2063 
z
" transform="scale(0.015625)"/>
       <path id="DejaVuSans-72" d="M 2631 2963 
Q 2534 3019 2420 3045 
Q 2306 3072 2169 3072 
Q 1681 3072 1420 2755 
Q 1159 2438 1159 1844 
L 1159 0 
L 581 0 
L 581 3500 
L 1159 3500 
L 1159 2956 
Q 1341 3275 1631 3429 
Q 1922 3584 2338 3584 
Q 2397 3584 2469 3576 
Q 2541 3569 2628 3553 
L 2631 2963 
z
" transform="scale(0.015625)"/>
       <path id="DejaVuSans-67" d="M 2906 1791 
Q 2906 2416 2648 2759 
Q 2391 3103 1925 3103 
Q 1463 3103 1205 2759 
Q 947 2416 947 1791 
Q 947 1169 1205 825 
Q 1463 481 1925 481 
Q 2391 481 2648 825 
Q 2906 1169 2906 1791 
z
M 3481 434 
Q 3481 -459 3084 -895 
Q 2688 -1331 1869 -1331 
Q 1566 -1331 1297 -1286 
Q 1028 -1241 775 -1147 
L 775 -588 
Q 1028 -725 1275 -790 
Q 1522 -856 1778 -856 
Q 2344 -856 2625 -561 
Q 2906 -266 2906 331 
L 2906 616 
Q 2728 306 2450 153 
Q 2172 0 1784 0 
Q 1141 0 747 490 
Q 353 981 353 1791 
Q 353 2603 747 3093 
Q 1141 3584 1784 3584 
Q 2172 3584 2450 3431 
Q 2728 3278 2906 2969 
L 2906 3500 
L 3481 3500 
L 3481 434 
z
" transform="scale(0.015625)"/>
       <path id="DejaVuSans-79" d="M 2059 -325 
Q 1816 -950 1584 -1140 
Q 1353 -1331 966 -1331 
L 506 -1331 
L 506 -850 
L 844 -850 
Q 1081 -850 1212 -737 
Q 1344 -625 1503 -206 
L 1606 56 
L 191 3500 
L 800 3500 
L 1894 763 
L 2988 3500 
L 3597 3500 
L 2059 -325 
z
" transform="scale(0.015625)"/>
       <path id="DejaVuSans-20" transform="scale(0.015625)"/>
       <path id="DejaVuSans-5b" d="M 550 4863 
L 1875 4863 
L 1875 4416 
L 1125 4416 
L 1125 -397 
L 1875 -397 
L 1875 -844 
L 550 -844 
L 550 4863 
z
" transform="scale(0.015625)"/>
       <path id="DejaVuSans-54" d="M -19 4666 
L 3928 4666 
L 3928 4134 
L 2272 4134 
L 2272 0 
L 1638 0 
L 1638 4134 
L -19 4134 
L -19 4666 
z
" transform="scale(0.015625)"/>
       <path id="DejaVuSans-56" d="M 1831 0 
L 50 4666 
L 709 4666 
L 2188 738 
L 3669 4666 
L 4325 4666 
L 2547 0 
L 1831 0 
z
" transform="scale(0.015625)"/>
       <path id="DejaVuSans-5d" d="M 1947 4863 
L 1947 -844 
L 622 -844 
L 622 -397 
L 1369 -397 
L 1369 4416 
L 622 4416 
L 622 4863 
L 1947 4863 
z
" transform="scale(0.015625)"/>
      </defs>
      <use xlink:href="#DejaVuSans-45"/>
      <use xlink:href="#DejaVuSans-6e" x="63.183594"/>
      <use xlink:href="#DejaVuSans-65" x="126.5625"/>
      <use xlink:href="#DejaVuSans-72" x="188.085938"/>
      <use xlink:href="#DejaVuSans-67" x="227.449219"/>
      <use xlink:href="#DejaVuSans-79" x="290.925781"/>
      <use xlink:href="#DejaVuSans-20" x="350.105469"/>
      <use xlink:href="#DejaVuSans-5b" x="381.892578"/>
      <use xlink:href="#DejaVuSans-54" x="420.90625"/>
      <use xlink:href="#DejaVuSans-65" x="464.990234"/>
      <use xlink:href="#DejaVuSans-56" x="526.513672"/>
      <use xlink:href="#DejaVuSans-5d" x="594.921875"/>
     </g>
    </g>
   </g>
   <g id="matplotlib.axis_2">
    <g id="ytick_1">
     <g id="line2d_24">
      <defs>
       <path id="m3473021352" d="M 0 0 
L -3.5 0 
" style="stroke: #000000; stroke-width: 0.8"/>
      </defs>
      <g>
       <use xlink:href="#m3473021352" x="60.221389" y="81.71399" style="stroke: #000000; stroke-width: 0.8"/>
      </g>
     </g>
     <g id="text_4">
      <!-- $\mathdefault{10^{-12}}$ -->
      <g transform="translate(25.321389 85.513209) scale(0.1 -0.1)">
       <defs>
        <path id="DejaVuSans-2212" d="M 678 2272 
L 4684 2272 
L 4684 1741 
L 678 1741 
L 678 2272 
z
" transform="scale(0.015625)"/>
        <path id="DejaVuSans-32" d="M 1228 531 
L 3431 531 
L 3431 0 
L 469 0 
L 469 531 
Q 828 903 1448 1529 
Q 2069 2156 2228 2338 
Q 2531 2678 2651 2914 
Q 2772 3150 2772 3378 
Q 2772 3750 2511 3984 
Q 2250 4219 1831 4219 
Q 1534 4219 1204 4116 
Q 875 4013 500 3803 
L 500 4441 
Q 881 4594 1212 4672 
Q 1544 4750 1819 4750 
Q 2544 4750 2975 4387 
Q 3406 4025 3406 3419 
Q 3406 3131 3298 2873 
Q 3191 2616 2906 2266 
Q 2828 2175 2409 1742 
Q 1991 1309 1228 531 
z
" transform="scale(0.015625)"/>
       </defs>
       <use xlink:href="#DejaVuSans-31" transform="translate(0 0.765625)"/>
       <use xlink:href="#DejaVuSans-30" transform="translate(63.623047 0.765625)"/>
       <use xlink:href="#DejaVuSans-2212" transform="translate(128.203125 39.046875) scale(0.7)"/>
       <use xlink:href="#DejaVuSans-31" transform="translate(186.855469 39.046875) scale(0.7)"/>
       <use xlink:href="#DejaVuSans-32" transform="translate(231.391602 39.046875) scale(0.7)"/>
      </g>
     </g>
    </g>
    <g id="ytick_2">
     <g id="line2d_25">
      <defs>
       <path id="md25114e83a" d="M 0 0 
L -2 0 
" style="stroke: #000000; stroke-width: 0.6"/>
      </defs>
      <g>
       <use xlink:href="#md25114e83a" x="60.221389" y="169.822508" style="stroke: #000000; stroke-width: 0.6"/>
      </g>
     </g>
    </g>
    <g id="ytick_3">
     <g id="line2d_26">
      <g>
       <use xlink:href="#md25114e83a" x="60.221389" y="147.625361" style="stroke: #000000; stroke-width: 0.6"/>
      </g>
     </g>
    </g>
    <g id="ytick_4">
     <g id="line2d_27">
      <g>
       <use xlink:href="#md25114e83a" x="60.221389" y="131.876235" style="stroke: #000000; stroke-width: 0.6"/>
      </g>
     </g>
    </g>
    <g id="ytick_5">
     <g id="line2d_28">
      <g>
       <use xlink:href="#md25114e83a" x="60.221389" y="119.660264" style="stroke: #000000; stroke-width: 0.6"/>
      </g>
     </g>
    </g>
    <g id="ytick_6">
     <g id="line2d_29">
      <g>
       <use xlink:href="#md25114e83a" x="60.221389" y="109.679088" style="stroke: #000000; stroke-width: 0.6"/>
      </g>
     </g>
    </g>
    <g id="ytick_7">
     <g id="line2d_30">
      <g>
       <use xlink:href="#md25114e83a" x="60.221389" y="101.240124" style="stroke: #000000; stroke-width: 0.6"/>
      </g>
     </g>
    </g>
    <g id="ytick_8">
     <g id="line2d_31">
      <g>
       <use xlink:href="#md25114e83a" x="60.221389" y="93.929962" style="stroke: #000000; stroke-width: 0.6"/>
      </g>
     </g>
    </g>
    <g id="ytick_9">
     <g id="line2d_32">
      <g>
       <use xlink:href="#md25114e83a" x="60.221389" y="87.481941" style="stroke: #000000; stroke-width: 0.6"/>
      </g>
     </g>
    </g>
    <g id="ytick_10">
     <g id="line2d_33">
      <g>
       <use xlink:href="#md25114e83a" x="60.221389" y="43.767717" style="stroke: #000000; stroke-width: 0.6"/>
      </g>
     </g>
    </g>
    <g id="text_5">
     <!-- e2 * dnde [TeV / (cm2 s)] -->
     <g transform="translate(19.241702 160.563688) rotate(-90) scale(0.1 -0.1)">
      <defs>
       <path id="DejaVuSans-2a" d="M 3009 3897 
L 1888 3291 
L 3009 2681 
L 2828 2375 
L 1778 3009 
L 1778 1831 
L 1422 1831 
L 1422 3009 
L 372 2375 
L 191 2681 
L 1313 3291 
L 191 3897 
L 372 4206 
L 1422 3572 
L 1422 4750 
L 1778 4750 
L 1778 3572 
L 2828 4206 
L 3009 3897 
z
" transform="scale(0.015625)"/>
       <path id="DejaVuSans-64" d="M 2906 2969 
L 2906 4863 
L 3481 4863 
L 3481 0 
L 2906 0 
L 2906 525 
Q 2725 213 2448 61 
Q 2172 -91 1784 -91 
Q 1150 -91 751 415 
Q 353 922 353 1747 
Q 353 2572 751 3078 
Q 1150 3584 1784 3584 
Q 2172 3584 2448 3432 
Q 2725 3281 2906 2969 
z
M 947 1747 
Q 947 1113 1208 752 
Q 1469 391 1925 391 
Q 2381 391 2643 752 
Q 2906 1113 2906 1747 
Q 2906 2381 2643 2742 
Q 2381 3103 1925 3103 
Q 1469 3103 1208 2742 
Q 947 2381 947 1747 
z
" transform="scale(0.015625)"/>
       <path id="DejaVuSans-2f" d="M 1625 4666 
L 2156 4666 
L 531 -594 
L 0 -594 
L 1625 4666 
z
" transform="scale(0.015625)"/>
       <path id="DejaVuSans-28" d="M 1984 4856 
Q 1566 4138 1362 3434 
Q 1159 2731 1159 2009 
Q 1159 1288 1364 580 
Q 1569 -128 1984 -844 
L 1484 -844 
Q 1016 -109 783 600 
Q 550 1309 550 2009 
Q 550 2706 781 3412 
Q 1013 4119 1484 4856 
L 1984 4856 
z
" transform="scale(0.015625)"/>
       <path id="DejaVuSans-63" d="M 3122 3366 
L 3122 2828 
Q 2878 2963 2633 3030 
Q 2388 3097 2138 3097 
Q 1578 3097 1268 2742 
Q 959 2388 959 1747 
Q 959 1106 1268 751 
Q 1578 397 2138 397 
Q 2388 397 2633 464 
Q 2878 531 3122 666 
L 3122 134 
Q 2881 22 2623 -34 
Q 2366 -91 2075 -91 
Q 1284 -91 818 406 
Q 353 903 353 1747 
Q 353 2603 823 3093 
Q 1294 3584 2113 3584 
Q 2378 3584 2631 3529 
Q 2884 3475 3122 3366 
z
" transform="scale(0.015625)"/>
       <path id="DejaVuSans-6d" d="M 3328 2828 
Q 3544 3216 3844 3400 
Q 4144 3584 4550 3584 
Q 5097 3584 5394 3201 
Q 5691 2819 5691 2113 
L 5691 0 
L 5113 0 
L 5113 2094 
Q 5113 2597 4934 2840 
Q 4756 3084 4391 3084 
Q 3944 3084 3684 2787 
Q 3425 2491 3425 1978 
L 3425 0 
L 2847 0 
L 2847 2094 
Q 2847 2600 2669 2842 
Q 2491 3084 2119 3084 
Q 1678 3084 1418 2786 
Q 1159 2488 1159 1978 
L 1159 0 
L 581 0 
L 581 3500 
L 1159 3500 
L 1159 2956 
Q 1356 3278 1631 3431 
Q 1906 3584 2284 3584 
Q 2666 3584 2933 3390 
Q 3200 3197 3328 2828 
z
" transform="scale(0.015625)"/>
       <path id="DejaVuSans-73" d="M 2834 3397 
L 2834 2853 
Q 2591 2978 2328 3040 
Q 2066 3103 1784 3103 
Q 1356 3103 1142 2972 
Q 928 2841 928 2578 
Q 928 2378 1081 2264 
Q 1234 2150 1697 2047 
L 1894 2003 
Q 2506 1872 2764 1633 
Q 3022 1394 3022 966 
Q 3022 478 2636 193 
Q 2250 -91 1575 -91 
Q 1294 -91 989 -36 
Q 684 19 347 128 
L 347 722 
Q 666 556 975 473 
Q 1284 391 1588 391 
Q 1994 391 2212 530 
Q 2431 669 2431 922 
Q 2431 1156 2273 1281 
Q 2116 1406 1581 1522 
L 1381 1569 
Q 847 1681 609 1914 
Q 372 2147 372 2553 
Q 372 3047 722 3315 
Q 1072 3584 1716 3584 
Q 2034 3584 2315 3537 
Q 2597 3491 2834 3397 
z
" transform="scale(0.015625)"/>
       <path id="DejaVuSans-29" d="M 513 4856 
L 1013 4856 
Q 1481 4119 1714 3412 
Q 1947 2706 1947 2009 
Q 1947 1309 1714 600 
Q 1481 -109 1013 -844 
L 513 -844 
Q 928 -128 1133 580 
Q 1338 1288 1338 2009 
Q 1338 2731 1133 3434 
Q 928 4138 513 4856 
z
" transform="scale(0.015625)"/>
      </defs>
      <use xlink:href="#DejaVuSans-65"/>
      <use xlink:href="#DejaVuSans-32" x="61.523438"/>
      <use xlink:href="#DejaVuSans-20" x="125.146484"/>
      <use xlink:href="#DejaVuSans-2a" x="156.933594"/>
      <use xlink:href="#DejaVuSans-20" x="206.933594"/>
      <use xlink:href="#DejaVuSans-64" x="238.720703"/>
      <use xlink:href="#DejaVuSans-6e" x="302.197266"/>
      <use xlink:href="#DejaVuSans-64" x="365.576172"/>
      <use xlink:href="#DejaVuSans-65" x="429.052734"/>
      <use xlink:href="#DejaVuSans-20" x="490.576172"/>
      <use xlink:href="#DejaVuSans-5b" x="522.363281"/>
      <use xlink:href="#DejaVuSans-54" x="561.376953"/>
      <use xlink:href="#DejaVuSans-65" x="605.460938"/>
      <use xlink:href="#DejaVuSans-56" x="666.984375"/>
      <use xlink:href="#DejaVuSans-20" x="735.392578"/>
      <use xlink:href="#DejaVuSans-2f" x="767.179688"/>
      <use xlink:href="#DejaVuSans-20" x="800.871094"/>
      <use xlink:href="#DejaVuSans-28" x="832.658203"/>
      <use xlink:href="#DejaVuSans-63" x="871.671875"/>
      <use xlink:href="#DejaVuSans-6d" x="926.652344"/>
      <use xlink:href="#DejaVuSans-32" x="1024.064453"/>
      <use xlink:href="#DejaVuSans-20" x="1087.6875"/>
      <use xlink:href="#DejaVuSans-73" x="1119.474609"/>
      <use xlink:href="#DejaVuSans-29" x="1171.574219"/>
      <use xlink:href="#DejaVuSans-5d" x="1210.587891"/>
     </g>
    </g>
   </g>
   <g id="line2d_34">
    <path d="M 73.356781 104.088224 
L 88.810182 71.344211 
L 104.263584 94.250271 
L 119.716986 109.427882 
L 135.170387 85.366192 
L 150.623789 98.5522 
L 166.077191 109.360834 
L 181.530592 117.31447 
L 196.983994 126.287719 
L 212.437395 121.540817 
L 227.890797 133.19491 
L 243.344199 119.873234 
L 258.7976 138.882668 
L 274.251002 121.83215 
L 289.704404 134.289419 
L 305.157805 155.588659 
L 320.611207 142.56437 
L 336.064609 146.991654 
" clip-path="url(#p406ec0b956)" style="fill: none; stroke: #000000; stroke-opacity: 0.01; stroke-width: 1.5; stroke-linecap: square"/>
   </g>
   <g id="line2d_35">
    <path d="M 88.79001 217 
L 88.810182 54.387499 
L 104.263584 74.62731 
L 119.716986 86.508089 
L 135.170387 90.750884 
L 150.623789 82.98388 
L 166.077191 107.952532 
L 181.530592 88.609083 
L 196.983994 112.453666 
L 212.437395 137.387977 
L 227.890797 123.415217 
L 243.344199 127.248343 
L 258.7976 133.208106 
L 274.251002 148.637912 
L 289.704404 103.460848 
L 305.157805 118.756319 
L 320.611207 193.07965 
L 336.064609 127.224909 
" clip-path="url(#p406ec0b956)" style="fill: none; stroke: #000000; stroke-opacity: 0.01; stroke-width: 1.5; stroke-linecap: square"/>
   </g>
   <g id="line2d_36">
    <path d="M 73.356781 4.5404 
L 88.810182 55.83756 
L 104.263584 95.998563 
L 119.716986 87.25463 
L 135.170387 97.394429 
L 150.623789 103.190344 
L 166.077191 117.00672 
L 181.530592 81.671097 
L 196.983994 129.351201 
L 212.437395 131.967423 
L 227.890797 144.823178 
L 243.344199 125.964666 
L 258.7976 114.831427 
L 274.251002 88.247169 
L 289.704404 143.48699 
L 305.157805 128.319315 
L 312.317674 217 
M 330.774703 217 
L 336.064609 163.535148 
" clip-path="url(#p406ec0b956)" style="fill: none; stroke: #000000; stroke-opacity: 0.01; stroke-width: 1.5; stroke-linecap: square"/>
   </g>
   <g id="line2d_37">
    <path d="M 73.356781 98.4416 
L 88.810182 131.296941 
L 104.263584 82.202098 
L 119.716986 120.396446 
L 135.170387 89.680593 
L 150.623789 110.385204 
L 166.077191 146.437351 
L 181.530592 119.266541 
L 196.983994 121.301284 
L 212.437395 114.071206 
L 227.890797 130.552421 
L 243.344199 127.286579 
L 258.7976 137.208821 
L 274.251002 131.461465 
L 289.704404 207.3146 
L 305.157805 154.631347 
L 320.611207 141.362743 
L 336.064609 169.217302 
" clip-path="url(#p406ec0b956)" style="fill: none; stroke: #000000; stroke-opacity: 0.01; stroke-width: 1.5; stroke-linecap: square"/>
   </g>
   <g id="line2d_38">
    <path d="M 73.356781 38.244565 
L 88.810182 119.212827 
L 104.263584 61.872841 
L 119.716986 73.590828 
L 135.170387 94.389238 
L 150.623789 92.313112 
L 166.077191 88.90334 
L 181.530592 95.812646 
L 196.983994 104.146297 
L 212.437395 114.792726 
L 227.890797 108.830175 
L 243.344199 133.291486 
L 258.7976 106.263138 
L 274.251002 94.09856 
L 289.704404 118.100871 
L 302.668405 217 
M 308.194321 217 
L 320.611207 139.342144 
L 327.131983 217 
" clip-path="url(#p406ec0b956)" style="fill: none; stroke: #000000; stroke-opacity: 0.01; stroke-width: 1.5; stroke-linecap: square"/>
   </g>
   <g id="line2d_39">
    <path d="M 73.356781 107.85601 
L 88.810182 68.168753 
L 104.263584 77.024673 
L 119.716986 103.243184 
L 135.170387 88.404796 
L 150.623789 117.355158 
L 166.077191 100.477924 
L 181.530592 104.663841 
L 196.983994 121.453787 
L 212.437395 104.663423 
L 227.890797 136.572409 
L 243.344199 135.993245 
L 258.7976 114.613493 
L 274.251002 140.254317 
L 289.704404 138.496885 
L 305.157805 129.836165 
L 320.611207 186.108877 
L 336.064609 168.682282 
" clip-path="url(#p406ec0b956)" style="fill: none; stroke: #000000; stroke-opacity: 0.01; stroke-width: 1.5; stroke-linecap: square"/>
   </g>
   <g id="line2d_40">
    <path d="M 73.356781 48.106904 
L 88.810182 61.244352 
L 104.263584 72.202911 
L 119.716986 88.145518 
L 135.170387 77.711813 
L 150.623789 84.788738 
L 166.077191 105.334847 
L 181.530592 89.930372 
L 196.983994 90.332428 
L 212.437395 115.583176 
L 227.890797 95.881611 
L 243.344199 121.316464 
L 258.7976 144.803444 
L 274.251002 135.137148 
L 289.704404 98.826294 
L 305.157805 109.128651 
L 320.611207 184.337481 
L 336.064609 196.551864 
" clip-path="url(#p406ec0b956)" style="fill: none; stroke: #000000; stroke-opacity: 0.01; stroke-width: 1.5; stroke-linecap: square"/>
   </g>
   <g id="line2d_41">
    <path d="M 73.356781 61.808395 
L 88.810182 45.501022 
L 104.263584 71.53455 
L 119.716986 82.881071 
L 135.170387 77.20249 
L 150.623789 74.843275 
L 166.077191 120.304819 
L 181.530592 94.890615 
L 196.983994 103.574841 
L 212.437395 81.378039 
L 227.890797 97.319449 
L 243.344199 93.735745 
L 258.7976 110.51872 
L 274.251002 117.720227 
L 289.704404 130.078579 
L 305.157805 142.477202 
L 320.611207 88.350469 
L 336.064609 120.287183 
" clip-path="url(#p406ec0b956)" style="fill: none; stroke: #000000; stroke-opacity: 0.01; stroke-width: 1.5; stroke-linecap: square"/>
   </g>
   <g id="line2d_42">
    <path d="M 73.356781 30.671768 
L 88.810182 76.35212 
L 104.263584 70.31815 
L 119.716986 75.618595 
L 135.170387 65.385926 
L 150.623789 86.461211 
L 166.077191 79.562982 
L 181.530592 97.010454 
L 196.983994 109.560431 
L 212.437395 112.851312 
L 227.890797 105.442048 
L 243.344199 137.594198 
L 258.7976 119.438 
L 274.251002 135.144134 
L 289.704404 155.752585 
L 305.157805 145.227837 
L 320.611207 157.850851 
L 336.064609 166.045359 
" clip-path="url(#p406ec0b956)" style="fill: none; stroke: #000000; stroke-opacity: 0.01; stroke-width: 1.5; stroke-linecap: square"/>
   </g>
   <g id="line2d_43">
    <path d="M 73.356781 33.622344 
L 88.810182 35.906695 
L 104.263584 89.60899 
L 119.716986 88.157453 
L 135.170387 103.252804 
L 150.623789 104.763951 
L 166.077191 122.504076 
L 181.530592 109.08885 
L 196.983994 103.67385 
L 212.437395 112.638459 
L 227.890797 125.622863 
L 243.344199 122.268478 
L 258.7976 131.329389 
L 274.251002 156.683689 
L 289.704404 136.840485 
L 305.157805 142.460771 
L 320.611207 181.323028 
L 336.064609 113.337449 
" clip-path="url(#p406ec0b956)" style="fill: none; stroke: #000000; stroke-opacity: 0.01; stroke-width: 1.5; stroke-linecap: square"/>
   </g>
   <g id="line2d_44">
    <path d="M 73.356781 59.071629 
L 88.810182 71.593378 
L 104.263584 103.501674 
L 119.716986 103.570841 
L 135.170387 126.694856 
L 150.623789 111.362488 
L 166.077191 109.450527 
L 181.530592 96.250633 
L 196.983994 108.421123 
L 212.437395 105.115616 
L 227.890797 125.92991 
L 243.344199 112.536689 
L 258.7976 96.768102 
L 274.251002 110.282467 
L 289.704404 141.469508 
L 301.375109 217 
" clip-path="url(#p406ec0b956)" style="fill: none; stroke: #000000; stroke-opacity: 0.01; stroke-width: 1.5; stroke-linecap: square"/>
   </g>
   <g id="line2d_45">
    <path d="M 88.79265 217 
L 88.810182 75.693296 
L 104.263584 76.752503 
L 119.716986 84.671897 
L 135.170387 76.536078 
L 150.623789 83.929068 
L 166.077191 111.122329 
L 181.530592 96.000645 
L 196.983994 88.700058 
L 212.437395 119.168292 
L 227.890797 111.719443 
L 243.344199 140.250949 
L 258.7976 130.487492 
L 274.251002 157.087772 
L 289.704404 106.399621 
L 305.157805 162.614381 
L 320.611207 126.677071 
L 336.064609 97.121602 
" clip-path="url(#p406ec0b956)" style="fill: none; stroke: #000000; stroke-opacity: 0.01; stroke-width: 1.5; stroke-linecap: square"/>
   </g>
   <g id="line2d_46">
    <path d="M 73.356781 66.415809 
L 88.810182 73.641941 
L 104.263584 93.44761 
L 119.716986 83.811978 
L 135.170387 84.712376 
L 150.623789 97.650282 
L 166.077191 114.076682 
L 181.530592 121.779857 
L 196.983994 99.682107 
L 212.437395 117.4524 
L 227.890797 115.997711 
L 243.344199 108.732397 
L 258.7976 100.380238 
L 274.251002 129.636909 
L 289.704404 185.459499 
L 305.157805 171.615091 
L 320.611207 128.4125 
L 336.064609 102.504277 
" clip-path="url(#p406ec0b956)" style="fill: none; stroke: #000000; stroke-opacity: 0.01; stroke-width: 1.5; stroke-linecap: square"/>
   </g>
   <g id="line2d_47">
    <path d="M 73.356781 33.766353 
L 88.810182 93.160524 
L 104.263584 68.29559 
L 119.716986 76.081296 
L 135.170387 80.373249 
L 150.623789 84.223302 
L 166.077191 69.756711 
L 181.530592 91.982163 
L 196.983994 82.123981 
L 212.437395 83.767251 
L 227.890797 95.761983 
L 243.344199 122.354058 
L 258.7976 108.730417 
L 274.251002 88.465608 
L 289.704404 83.442726 
L 305.157805 120.719059 
L 320.269137 217 
M 322.286514 217 
L 336.064609 199.075479 
" clip-path="url(#p406ec0b956)" style="fill: none; stroke: #000000; stroke-opacity: 0.01; stroke-width: 1.5; stroke-linecap: square"/>
   </g>
   <g id="line2d_48">
    <path d="M 73.356781 115.009966 
L 88.810182 101.696472 
L 104.263584 99.769902 
L 119.716986 95.347889 
L 135.170387 94.411407 
L 150.623789 87.924099 
L 166.077191 111.055337 
L 181.530592 138.704196 
L 196.983994 112.898779 
L 212.437395 119.912435 
L 227.890797 167.8552 
L 243.344199 125.959384 
L 258.7976 160.46464 
L 274.251002 137.038563 
L 289.704404 178.473787 
L 305.157805 152.063326 
L 320.611207 156.320151 
L 336.064609 160.863159 
" clip-path="url(#p406ec0b956)" style="fill: none; stroke: #000000; stroke-opacity: 0.01; stroke-width: 1.5; stroke-linecap: square"/>
   </g>
   <g id="line2d_49">
    <path d="M 88.794454 217 
L 88.810182 90.248898 
L 104.263584 59.863562 
L 119.716986 92.499722 
L 135.170387 94.359372 
L 150.623789 75.022908 
L 166.077191 76.091378 
L 181.530592 102.554693 
L 196.983994 93.958842 
L 212.437395 110.320302 
L 227.890797 123.815119 
L 243.344199 120.586415 
L 258.7976 140.340361 
L 274.251002 124.206067 
L 289.704404 110.311625 
L 305.157805 113.862102 
L 320.611207 122.885809 
L 336.064609 127.555336 
" clip-path="url(#p406ec0b956)" style="fill: none; stroke: #000000; stroke-opacity: 0.01; stroke-width: 1.5; stroke-linecap: square"/>
   </g>
   <g id="line2d_50">
    <path d="M 73.356781 75.659403 
L 88.810182 115.412509 
L 104.263584 99.922059 
L 119.716986 69.191596 
L 135.170387 78.704543 
L 150.623789 76.29624 
L 166.077191 104.036556 
L 181.530592 97.147372 
L 196.983994 96.569318 
L 212.437395 154.803584 
L 227.890797 162.805216 
L 243.344199 145.147379 
L 258.7976 107.894627 
L 274.251002 136.674286 
L 289.704404 117.26807 
L 305.157805 189.889683 
L 309.797919 217 
M 333.398369 217 
L 336.064609 203.826875 
" clip-path="url(#p406ec0b956)" style="fill: none; stroke: #000000; stroke-opacity: 0.01; stroke-width: 1.5; stroke-linecap: square"/>
   </g>
   <g id="line2d_51">
    <path d="M 73.356781 24.574944 
L 88.810182 50.4708 
L 104.263584 63.643417 
L 119.716986 64.427833 
L 135.170387 89.583281 
L 150.623789 85.437625 
L 166.077191 100.534814 
L 181.530592 89.098344 
L 196.983994 98.612832 
L 212.437395 103.602612 
L 227.890797 94.985409 
L 243.344199 109.955424 
L 258.7976 173.100244 
L 274.251002 119.537461 
L 289.704404 177.00633 
L 305.157805 109.557294 
L 320.611207 114.792286 
L 336.064609 94.586802 
" clip-path="url(#p406ec0b956)" style="fill: none; stroke: #000000; stroke-opacity: 0.01; stroke-width: 1.5; stroke-linecap: square"/>
   </g>
   <g id="line2d_52">
    <path d="M 73.356781 31.450361 
L 88.810182 46.791447 
L 104.263584 67.36445 
L 119.716986 95.775168 
L 135.170387 77.285877 
L 150.623789 90.86049 
L 166.077191 94.459603 
L 181.530592 103.376948 
L 196.983994 95.987137 
L 212.437395 114.837269 
L 227.890797 86.217248 
L 243.344199 103.050171 
L 258.7976 126.862845 
L 274.251002 135.65211 
L 289.704404 131.631296 
L 305.157805 94.040453 
L 320.611207 136.658019 
L 336.064609 128.023792 
" clip-path="url(#p406ec0b956)" style="fill: none; stroke: #000000; stroke-opacity: 0.01; stroke-width: 1.5; stroke-linecap: square"/>
   </g>
   <g id="line2d_53">
    <path d="M 73.356781 120.206502 
L 88.810182 75.387362 
L 104.263584 72.017343 
L 119.716986 77.216783 
L 135.170387 83.596181 
L 150.623789 94.684721 
L 166.077191 86.415257 
L 181.530592 126.04679 
L 196.983994 107.305836 
L 212.437395 123.399743 
L 227.890797 104.897123 
L 243.344199 101.972937 
L 258.7976 104.06149 
L 274.251002 112.993442 
L 289.704404 141.112578 
L 305.157805 129.315029 
L 318.213055 217 
M 323.92157 217 
L 336.064609 157.916175 
" clip-path="url(#p406ec0b956)" style="fill: none; stroke: #000000; stroke-opacity: 0.01; stroke-width: 1.5; stroke-linecap: square"/>
   </g>
   <g id="line2d_54">
    <path d="M 73.356781 43.391162 
L 88.810182 93.359919 
L 104.263584 58.42336 
L 119.716986 90.440828 
L 135.170387 92.285231 
L 150.623789 95.260361 
L 166.077191 94.562576 
L 181.530592 104.77076 
L 196.983994 116.883309 
L 212.437395 112.714289 
L 227.890797 131.317581 
L 243.344199 123.217398 
L 258.7976 130.088465 
L 274.251002 117.761454 
L 289.704404 133.27958 
L 305.157805 152.18463 
L 320.611207 151.539464 
L 336.064609 141.649244 
" clip-path="url(#p406ec0b956)" style="fill: none; stroke: #000000; stroke-opacity: 0.01; stroke-width: 1.5; stroke-linecap: square"/>
   </g>
   <g id="line2d_55">
    <path d="M 73.356781 43.391162 
L 88.810182 93.359919 
L 104.263584 58.42336 
L 119.716986 90.440828 
L 135.170387 92.285231 
L 150.623789 95.260361 
L 166.077191 94.562576 
L 181.530592 104.77076 
L 196.983994 116.883309 
L 212.437395 112.714289 
L 227.890797 131.317581 
L 243.344199 123.217398 
L 258.7976 130.088465 
L 274.251002 117.761454 
L 289.704404 133.27958 
L 305.157805 152.18463 
L 320.611207 151.539464 
L 336.064609 141.649244 
" clip-path="url(#p406ec0b956)" style="fill: none; stroke: #000000; stroke-opacity: 0.01; stroke-width: 1.5; stroke-linecap: square"/>
   </g>
   <g id="LineCollection_1">
    <path clip-path="url(#p406ec0b956)" style="fill: none; stroke: #1f77b4; stroke-width: 1.5"/>
    <path clip-path="url(#p406ec0b956)" style="fill: none; stroke: #1f77b4; stroke-width: 1.5"/>
    <path clip-path="url(#p406ec0b956)" style="fill: none; stroke: #1f77b4; stroke-width: 1.5"/>
    <path clip-path="url(#p406ec0b956)" style="fill: none; stroke: #1f77b4; stroke-width: 1.5"/>
    <path clip-path="url(#p406ec0b956)" style="fill: none; stroke: #1f77b4; stroke-width: 1.5"/>
    <path d="M 73.356781 212.646403 
L 73.356781 27.781679 
" clip-path="url(#p406ec0b956)" style="fill: none; stroke: #1f77b4; stroke-width: 1.5"/>
    <path d="M 88.810182 101.548074 
L 88.810182 53.028372 
" clip-path="url(#p406ec0b956)" style="fill: none; stroke: #1f77b4; stroke-width: 1.5"/>
    <path d="M 104.263584 91.550475 
L 104.263584 63.849044 
" clip-path="url(#p406ec0b956)" style="fill: none; stroke: #1f77b4; stroke-width: 1.5"/>
    <path d="M 119.716986 100.750655 
L 119.716986 75.426052 
" clip-path="url(#p406ec0b956)" style="fill: none; stroke: #1f77b4; stroke-width: 1.5"/>
    <path d="M 135.170387 99.161661 
L 135.170387 77.032181 
" clip-path="url(#p406ec0b956)" style="fill: none; stroke: #1f77b4; stroke-width: 1.5"/>
    <path d="M 150.623789 103.626935 
L 150.623789 81.173632 
" clip-path="url(#p406ec0b956)" style="fill: none; stroke: #1f77b4; stroke-width: 1.5"/>
    <path d="M 166.077191 120.306387 
L 166.077191 85.806419 
" clip-path="url(#p406ec0b956)" style="fill: none; stroke: #1f77b4; stroke-width: 1.5"/>
    <path d="M 181.530592 115.656681 
L 181.530592 90.476261 
" clip-path="url(#p406ec0b956)" style="fill: none; stroke: #1f77b4; stroke-width: 1.5"/>
    <path d="M 196.983994 118.915434 
L 196.983994 93.906004 
" clip-path="url(#p406ec0b956)" style="fill: none; stroke: #1f77b4; stroke-width: 1.5"/>
    <path d="M 212.437395 130.911594 
L 212.437395 99.036802 
" clip-path="url(#p406ec0b956)" style="fill: none; stroke: #1f77b4; stroke-width: 1.5"/>
    <path d="M 227.890797 141.068259 
L 227.890797 100.119963 
" clip-path="url(#p406ec0b956)" style="fill: none; stroke: #1f77b4; stroke-width: 1.5"/>
    <path d="M 243.344199 135.475816 
L 243.344199 108.594047 
" clip-path="url(#p406ec0b956)" style="fill: none; stroke: #1f77b4; stroke-width: 1.5"/>
    <path d="M 258.7976 143.240247 
L 258.7976 107.36287 
" clip-path="url(#p406ec0b956)" style="fill: none; stroke: #1f77b4; stroke-width: 1.5"/>
    <path d="M 274.251002 146.999173 
L 274.251002 104.870189 
" clip-path="url(#p406ec0b956)" style="fill: none; stroke: #1f77b4; stroke-width: 1.5"/>
    <path d="M 289.704404 166.169697 
L 289.704404 107.737611 
" clip-path="url(#p406ec0b956)" style="fill: none; stroke: #1f77b4; stroke-width: 1.5"/>
    <path d="M 305.157805 177.316351 
L 305.157805 115.799848 
" clip-path="url(#p406ec0b956)" style="fill: none; stroke: #1f77b4; stroke-width: 1.5"/>
    <path d="M 320.611207 217 
L 320.611207 122.439269 
" clip-path="url(#p406ec0b956)" style="fill: none; stroke: #1f77b4; stroke-width: 1.5"/>
    <path d="M 336.064609 200.272068 
L 336.064609 114.736071 
" clip-path="url(#p406ec0b956)" style="fill: none; stroke: #1f77b4; stroke-width: 1.5"/>
    <path clip-path="url(#p406ec0b956)" style="fill: none; stroke: #1f77b4; stroke-width: 1.5"/>
   </g>
   <g id="line2d_56">
    <path d="M 74.67032 70.298153 
L 77.297398 71.101752 
L 79.924476 71.905352 
L 82.551555 72.708951 
L 85.178633 73.51255 
L 87.805711 74.31615 
L 90.43279 75.119749 
L 93.059868 75.923348 
L 95.686946 76.726947 
L 98.314024 77.530547 
L 100.941103 78.334146 
L 103.568181 79.137745 
L 106.195259 79.941345 
L 108.822338 80.744944 
L 111.449416 81.548543 
L 114.076494 82.352143 
L 116.703572 83.155742 
L 119.330651 83.959341 
L 121.957729 84.76294 
L 124.584807 85.56654 
L 127.211885 86.370139 
L 129.838964 87.173738 
L 132.466042 87.977338 
L 135.09312 88.780937 
L 137.720199 89.584536 
L 140.347277 90.388135 
L 142.974355 91.191735 
L 145.601433 91.995334 
L 148.228512 92.798933 
L 150.85559 93.602533 
L 153.482668 94.406132 
L 156.109747 95.209731 
L 158.736825 96.013331 
L 161.363903 96.81693 
L 163.990981 97.620529 
L 166.61806 98.424128 
L 169.245138 99.227728 
L 171.872216 100.031327 
L 174.499294 100.834926 
L 177.126373 101.638526 
L 179.753451 102.442125 
L 182.380529 103.245724 
L 185.007608 104.049324 
L 187.634686 104.852923 
L 190.261764 105.656522 
L 192.888842 106.460121 
L 195.515921 107.263721 
L 198.142999 108.06732 
L 200.770077 108.870919 
L 203.397156 109.674519 
L 206.024234 110.478118 
L 208.651312 111.281717 
L 211.27839 112.085317 
L 213.905469 112.888916 
L 216.532547 113.692515 
L 219.159625 114.496114 
L 221.786703 115.299714 
L 224.413782 116.103313 
L 227.04086 116.906912 
L 229.667938 117.710512 
L 232.295017 118.514111 
L 234.922095 119.31771 
L 237.549173 120.121309 
L 240.176251 120.924909 
L 242.80333 121.728508 
L 245.430408 122.532107 
L 248.057486 123.335707 
L 250.684565 124.139306 
L 253.311643 124.942905 
L 255.938721 125.746505 
L 258.565799 126.550104 
L 261.192878 127.353703 
L 263.819956 128.157302 
L 266.447034 128.960902 
L 269.074113 129.764501 
L 271.701191 130.5681 
L 274.328269 131.3717 
L 276.955347 132.175299 
L 279.582426 132.978898 
L 282.209504 133.782498 
L 284.836582 134.586097 
L 287.46366 135.389696 
L 290.090739 136.193295 
L 292.717817 136.996895 
L 295.344895 137.800494 
L 297.971974 138.604093 
L 300.599052 139.407693 
L 303.22613 140.211292 
L 305.853208 141.014891 
L 308.480287 141.818491 
L 311.107365 142.62209 
L 313.734443 143.425689 
L 316.361522 144.229288 
L 318.9886 145.032888 
L 321.615678 145.836487 
L 324.242756 146.640086 
L 326.869835 147.443686 
L 329.496913 148.247285 
L 332.123991 149.050884 
L 334.751069 149.854483 
" clip-path="url(#p406ec0b956)" style="fill: none; stroke-dasharray: 1.5,2.475; stroke-dashoffset: 0; stroke: #000000; stroke-width: 1.5"/>
   </g>
   <g id="line2d_57">
    <path d="M 73.356781 63.88935 
L 88.810182 72.080158 
L 104.263584 75.965991 
L 119.716986 86.636855 
L 135.170387 86.98628 
L 150.623789 91.257126 
L 166.077191 100.382505 
L 181.530592 101.63131 
L 196.983994 104.994818 
L 212.437395 112.686388 
L 227.890797 116.851586 
L 243.344199 120.401254 
L 258.7976 122.41364 
L 274.251002 121.978351 
L 289.704404 129.501883 
L 305.157805 138.337051 
L 320.611207 152.505902 
L 336.064609 142.263932 
" clip-path="url(#p406ec0b956)" style="fill: none; stroke: #1f77b4; stroke-width: 1.5; stroke-linecap: square"/>
   </g>
   <g id="patch_3">
    <path d="M 60.221389 170.728 
L 60.221389 25.44 
" style="fill: none; stroke: #000000; stroke-width: 0.8; stroke-linejoin: miter; stroke-linecap: square"/>
   </g>
   <g id="patch_4">
    <path d="M 349.2 170.728 
L 349.2 25.44 
" style="fill: none; stroke: #000000; stroke-width: 0.8; stroke-linejoin: miter; stroke-linecap: square"/>
   </g>
   <g id="patch_5">
    <path d="M 60.221389 170.728 
L 349.2 170.728 
" style="fill: none; stroke: #000000; stroke-width: 0.8; stroke-linejoin: miter; stroke-linecap: square"/>
   </g>
   <g id="patch_6">
    <path d="M 60.221389 25.44 
L 349.2 25.44 
" style="fill: none; stroke: #000000; stroke-width: 0.8; stroke-linejoin: miter; stroke-linecap: square"/>
   </g>
   <g id="text_6">
    <!-- N = 22 -->
    <g transform="translate(183.745382 19.44) scale(0.12 -0.12)">
     <defs>
      <path id="DejaVuSans-4e" d="M 628 4666 
L 1478 4666 
L 3547 763 
L 3547 4666 
L 4159 4666 
L 4159 0 
L 3309 0 
L 1241 3903 
L 1241 0 
L 628 0 
L 628 4666 
z
" transform="scale(0.015625)"/>
      <path id="DejaVuSans-3d" d="M 678 2906 
L 4684 2906 
L 4684 2381 
L 678 2381 
L 678 2906 
z
M 678 1631 
L 4684 1631 
L 4684 1100 
L 678 1100 
L 678 1631 
z
" transform="scale(0.015625)"/>
     </defs>
     <use xlink:href="#DejaVuSans-4e"/>
     <use xlink:href="#DejaVuSans-20" x="74.804688"/>
     <use xlink:href="#DejaVuSans-3d" x="106.591797"/>
     <use xlink:href="#DejaVuSans-20" x="190.380859"/>
     <use xlink:href="#DejaVuSans-32" x="222.167969"/>
     <use xlink:href="#DejaVuSans-32" x="285.791016"/>
    </g>
   </g>
   <g id="legend_1">
    <g id="patch_7">
     <path d="M 284.30625 62.816563 
L 342.2 62.816563 
Q 344.2 62.816563 344.2 60.816563 
L 344.2 32.44 
Q 344.2 30.44 342.2 30.44 
L 284.30625 30.44 
Q 282.30625 30.44 282.30625 32.44 
L 282.30625 60.816563 
Q 282.30625 62.816563 284.30625 62.816563 
z
" style="fill: #ffffff; opacity: 0.8; stroke: #cccccc; stroke-linejoin: miter"/>
    </g>
    <g id="line2d_58">
     <path d="M 286.30625 38.538438 
L 296.30625 38.538438 
L 306.30625 38.538438 
" style="fill: none; stroke-dasharray: 1.5,2.475; stroke-dashoffset: 0; stroke: #000000; stroke-width: 1.5"/>
    </g>
    <g id="text_7">
     <!-- Input -->
     <g transform="translate(314.30625 42.038438) scale(0.1 -0.1)">
      <defs>
       <path id="DejaVuSans-49" d="M 628 4666 
L 1259 4666 
L 1259 0 
L 628 0 
L 628 4666 
z
" transform="scale(0.015625)"/>
       <path id="DejaVuSans-70" d="M 1159 525 
L 1159 -1331 
L 581 -1331 
L 581 3500 
L 1159 3500 
L 1159 2969 
Q 1341 3281 1617 3432 
Q 1894 3584 2278 3584 
Q 2916 3584 3314 3078 
Q 3713 2572 3713 1747 
Q 3713 922 3314 415 
Q 2916 -91 2278 -91 
Q 1894 -91 1617 61 
Q 1341 213 1159 525 
z
M 3116 1747 
Q 3116 2381 2855 2742 
Q 2594 3103 2138 3103 
Q 1681 3103 1420 2742 
Q 1159 2381 1159 1747 
Q 1159 1113 1420 752 
Q 1681 391 2138 391 
Q 2594 391 2855 752 
Q 3116 1113 3116 1747 
z
" transform="scale(0.015625)"/>
       <path id="DejaVuSans-75" d="M 544 1381 
L 544 3500 
L 1119 3500 
L 1119 1403 
Q 1119 906 1312 657 
Q 1506 409 1894 409 
Q 2359 409 2629 706 
Q 2900 1003 2900 1516 
L 2900 3500 
L 3475 3500 
L 3475 0 
L 2900 0 
L 2900 538 
Q 2691 219 2414 64 
Q 2138 -91 1772 -91 
Q 1169 -91 856 284 
Q 544 659 544 1381 
z
M 1991 3584 
L 1991 3584 
z
" transform="scale(0.015625)"/>
       <path id="DejaVuSans-74" d="M 1172 4494 
L 1172 3500 
L 2356 3500 
L 2356 3053 
L 1172 3053 
L 1172 1153 
Q 1172 725 1289 603 
Q 1406 481 1766 481 
L 2356 481 
L 2356 0 
L 1766 0 
Q 1100 0 847 248 
Q 594 497 594 1153 
L 594 3053 
L 172 3053 
L 172 3500 
L 594 3500 
L 594 4494 
L 1172 4494 
z
" transform="scale(0.015625)"/>
      </defs>
      <use xlink:href="#DejaVuSans-49"/>
      <use xlink:href="#DejaVuSans-6e" x="29.492188"/>
      <use xlink:href="#DejaVuSans-70" x="92.871094"/>
      <use xlink:href="#DejaVuSans-75" x="156.347656"/>
      <use xlink:href="#DejaVuSans-74" x="219.726562"/>
     </g>
    </g>
    <g id="LineCollection_2">
     <path d="M 296.30625 58.216563 
L 296.30625 48.216563 
" style="fill: none; stroke: #1f77b4; stroke-width: 1.5"/>
    </g>
    <g id="line2d_59">
     <path d="M 286.30625 53.216563 
L 306.30625 53.216563 
" style="fill: none; stroke: #1f77b4; stroke-width: 1.5; stroke-linecap: square"/>
    </g>
    <g id="line2d_60"/>
    <g id="text_8">
     <!-- $\mu$, $\sigma$ -->
     <g transform="translate(314.30625 56.716563) scale(0.1 -0.1)">
      <defs>
       <path id="DejaVuSans-Oblique-3bc" d="M -84 -1331 
L 856 3500 
L 1434 3500 
L 1009 1322 
Q 997 1256 987 1175 
Q 978 1094 978 1013 
Q 978 722 1161 565 
Q 1344 409 1684 409 
Q 2147 409 2431 671 
Q 2716 934 2816 1459 
L 3213 3500 
L 3788 3500 
L 3266 809 
Q 3253 750 3248 706 
Q 3244 663 3244 628 
Q 3244 531 3283 486 
Q 3322 441 3406 441 
Q 3438 441 3492 456 
Q 3547 472 3647 513 
L 3559 50 
Q 3422 -19 3297 -55 
Q 3172 -91 3053 -91 
Q 2847 -91 2730 40 
Q 2613 172 2613 403 
Q 2438 153 2195 31 
Q 1953 -91 1625 -91 
Q 1334 -91 1117 43 
Q 900 178 831 397 
L 494 -1331 
L -84 -1331 
z
" transform="scale(0.015625)"/>
       <path id="DejaVuSans-2c" d="M 750 794 
L 1409 794 
L 1409 256 
L 897 -744 
L 494 -744 
L 750 256 
L 750 794 
z
" transform="scale(0.015625)"/>
       <path id="DejaVuSans-Oblique-3c3" d="M 2219 3044 
Q 1744 3044 1422 2700 
Q 1081 2341 969 1747 
Q 844 1119 1044 756 
Q 1241 397 1706 397 
Q 2166 397 2503 759 
Q 2844 1122 2966 1747 
Q 3075 2319 2881 2700 
Q 2700 3044 2219 3044 
z
M 2309 3503 
L 4219 3500 
L 4106 2925 
L 3463 2925 
Q 3706 2438 3575 1747 
Q 3406 888 2884 400 
Q 2359 -91 1609 -91 
Q 856 -91 525 400 
Q 194 888 363 1747 
Q 528 2609 1050 3097 
Q 1484 3503 2309 3503 
z
" transform="scale(0.015625)"/>
      </defs>
      <use xlink:href="#DejaVuSans-Oblique-3bc" transform="translate(0 0.265625)"/>
      <use xlink:href="#DejaVuSans-2c" transform="translate(63.623047 0.265625)"/>
      <use xlink:href="#DejaVuSans-20" transform="translate(95.410156 0.265625)"/>
      <use xlink:href="#DejaVuSans-Oblique-3c3" transform="translate(127.197266 0.265625)"/>
     </g>
    </g>
   </g>
  </g>
 </g>
 <defs>
  <clipPath id="p406ec0b956">
   <rect x="60.221389" y="25.44" width="288.978611" height="145.288"/>
  </clipPath>
 </defs>
</svg>
