<?xml version="1.0" encoding="utf-8" standalone="no"?>
<!DOCTYPE svg PUBLIC "-//W3C//DTD SVG 1.1//EN"
  "http://www.w3.org/Graphics/SVG/1.1/DTD/svg11.dtd">
<svg xmlns:xlink="http://www.w3.org/1999/xlink" width="360pt" height="360pt" viewBox="0 0 360 360" xmlns="http://www.w3.org/2000/svg" version="1.1">
 <metadata>
  <rdf:RDF xmlns:dc="http://purl.org/dc/elements/1.1/" xmlns:cc="http://creativecommons.org/ns#" xmlns:rdf="http://www.w3.org/1999/02/22-rdf-syntax-ns#">
   <cc:Work>
    <dc:type rdf:resource="http://purl.org/dc/dcmitype/StillImage"/>
    <dc:date>2023-02-01T15:02:54.327236</dc:date>
    <dc:format>image/svg+xml</dc:format>
    <dc:creator>
     <cc:Agent>
      <dc:title>Matplotlib v3.6.2, https://matplotlib.org/</dc:title>
     </cc:Agent>
    </dc:creator>
   </cc:Work>
  </rdf:RDF>
 </metadata>
 <defs>
  <style type="text/css">*{stroke-linejoin: round; stroke-linecap: butt}</style>
 </defs>
 <g id="figure_1">
  <g id="patch_1">
   <path d="M 0 360 
L 360 360 
L 360 0 
L 0 0 
z
" style="fill: #ffffff"/>
  </g>
  <g id="axes_1">
   <g id="patch_2">
    <path d="M 60.221389 190.4328 
L 349.2 190.4328 
L 349.2 25.44 
L 60.221389 25.44 
z
" style="fill: #ffffff"/>
   </g>
   <g id="PolyCollection_1">
    <path d="M 74.657351 69.737615 
L 74.657351 90.599691 
L 77.258493 91.34385 
L 79.859634 92.090684 
L 82.460775 92.840258 
L 85.061916 93.592637 
L 87.663057 94.34789 
L 90.264198 95.106087 
L 92.86534 95.867302 
L 95.466481 96.631607 
L 98.067622 97.399079 
L 100.668763 98.169797 
L 103.269904 98.943838 
L 105.871045 99.721285 
L 108.472187 100.502219 
L 111.073328 101.286722 
L 113.674469 102.074879 
L 116.27561 102.866773 
L 118.876751 103.66249 
L 121.477892 104.462113 
L 124.079034 105.265727 
L 126.680175 106.073415 
L 129.281316 106.885259 
L 131.882457 107.701338 
L 134.483598 108.521733 
L 137.084739 109.346519 
L 139.685881 110.175769 
L 142.287022 111.009554 
L 144.888163 111.847939 
L 147.489304 112.690987 
L 150.090445 113.538755 
L 152.691586 114.391296 
L 155.292728 115.248656 
L 157.893869 116.110877 
L 160.49501 116.977994 
L 163.096151 117.850035 
L 165.697292 118.727022 
L 168.298433 119.608971 
L 170.899575 120.49589 
L 173.500716 121.387781 
L 176.101857 122.284637 
L 178.702998 123.186445 
L 181.304139 124.093187 
L 183.90528 125.004836 
L 186.506422 125.921359 
L 189.107563 126.842716 
L 191.708704 127.768865 
L 194.309845 128.699752 
L 196.910986 129.635324 
L 199.512127 130.57552 
L 202.113269 131.520274 
L 204.71441 132.469519 
L 207.315551 133.423181 
L 209.916692 134.381187 
L 212.517833 135.343457 
L 215.118974 136.309912 
L 217.720116 137.280472 
L 220.321257 138.255052 
L 222.922398 139.233569 
L 225.523539 140.215938 
L 228.12468 141.202076 
L 230.725821 142.191898 
L 233.326963 143.18532 
L 235.928104 144.182259 
L 238.529245 145.182632 
L 241.130386 146.186358 
L 243.731527 147.193358 
L 246.332668 148.203553 
L 248.93381 149.216867 
L 251.534951 150.233223 
L 254.136092 151.252551 
L 256.737233 152.274777 
L 259.338374 153.299833 
L 261.939515 154.327652 
L 264.540657 155.358169 
L 267.141798 156.391321 
L 269.742939 157.427047 
L 272.34408 158.465288 
L 274.945221 159.505987 
L 277.546363 160.549091 
L 280.147504 161.594546 
L 282.748645 162.642303 
L 285.349786 163.692312 
L 287.950927 164.744527 
L 290.552068 165.798903 
L 293.15321 166.855398 
L 295.754351 167.913971 
L 298.355492 168.974583 
L 300.956633 170.037195 
L 303.557774 171.101773 
L 306.158915 172.168282 
L 308.760057 173.23669 
L 311.361198 174.306965 
L 313.962339 175.379077 
L 316.56348 176.453 
L 319.164621 177.528705 
L 321.765762 178.606168 
L 324.366904 179.685364 
L 326.968045 180.76627 
L 329.569186 181.848865 
L 332.170327 182.933127 
L 332.170327 154.674198 
L 332.170327 154.674198 
L 329.569186 153.909817 
L 326.968045 153.145036 
L 324.366904 152.379828 
L 321.765762 151.614168 
L 319.164621 150.848029 
L 316.56348 150.081382 
L 313.962339 149.314198 
L 311.361198 148.546445 
L 308.760057 147.778093 
L 306.158915 147.009107 
L 303.557774 146.239452 
L 300.956633 145.469094 
L 298.355492 144.697992 
L 295.754351 143.92611 
L 293.15321 143.153405 
L 290.552068 142.379835 
L 287.950927 141.605356 
L 285.349786 140.829922 
L 282.748645 140.053486 
L 280.147504 139.275998 
L 277.546363 138.497406 
L 274.945221 137.717657 
L 272.34408 136.936696 
L 269.742939 136.154466 
L 267.141798 135.370907 
L 264.540657 134.585959 
L 261.939515 133.799557 
L 259.338374 133.011636 
L 256.737233 132.22213 
L 254.136092 131.430968 
L 251.534951 130.63808 
L 248.93381 129.843392 
L 246.332668 129.046828 
L 243.731527 128.248313 
L 241.130386 127.447767 
L 238.529245 126.64511 
L 235.928104 125.840261 
L 233.326963 125.033137 
L 230.725821 124.223653 
L 228.12468 123.411725 
L 225.523539 122.597268 
L 222.922398 121.780196 
L 220.321257 120.960423 
L 217.720116 120.137863 
L 215.118974 119.312431 
L 212.517833 118.484044 
L 209.916692 117.652619 
L 207.315551 116.818075 
L 204.71441 115.980333 
L 202.113269 115.139317 
L 199.512127 114.294954 
L 196.910986 113.447175 
L 194.309845 112.595914 
L 191.708704 111.74111 
L 189.107563 110.882707 
L 186.506422 110.020654 
L 183.90528 109.154906 
L 181.304139 108.285422 
L 178.702998 107.412171 
L 176.101857 106.535126 
L 173.500716 105.654266 
L 170.899575 104.769579 
L 168.298433 103.881059 
L 165.697292 102.988708 
L 163.096151 102.092534 
L 160.49501 101.192552 
L 157.893869 100.288784 
L 155.292728 99.381259 
L 152.691586 98.470014 
L 150.090445 97.555088 
L 147.489304 96.636531 
L 144.888163 95.714394 
L 142.287022 94.788736 
L 139.685881 93.859619 
L 137.084739 92.927111 
L 134.483598 91.991282 
L 131.882457 91.052206 
L 129.281316 90.109961 
L 126.680175 89.164626 
L 124.079034 88.216282 
L 121.477892 87.265013 
L 118.876751 86.310903 
L 116.27561 85.354038 
L 113.674469 84.394502 
L 111.073328 83.432383 
L 108.472187 82.467765 
L 105.871045 81.500734 
L 103.269904 80.531374 
L 100.668763 79.559769 
L 98.067622 78.586002 
L 95.466481 77.610153 
L 92.86534 76.632302 
L 90.264198 75.652527 
L 87.663057 74.670904 
L 85.061916 73.687508 
L 82.460775 72.702411 
L 79.859634 71.715685 
L 77.258493 70.727397 
L 74.657351 69.737615 
z
" clip-path="url(#p7d3524c74a)" style="fill: #008000; fill-opacity: 0.5"/>
   </g>
   <g id="PolyCollection_2">
    <path d="M 74.657351 72.2216 
L 74.657351 87.257684 
L 77.258493 87.968402 
L 79.859634 88.681093 
L 82.460775 89.395836 
L 85.061916 90.11272 
L 87.663057 90.831838 
L 90.264198 91.553293 
L 92.86534 92.277195 
L 95.466481 93.003664 
L 98.067622 93.732831 
L 100.668763 94.464837 
L 103.269904 95.199835 
L 105.871045 95.93799 
L 108.472187 96.67948 
L 111.073328 97.424498 
L 113.674469 98.173251 
L 116.27561 98.925962 
L 118.876751 99.682868 
L 121.477892 100.444224 
L 124.079034 101.210301 
L 126.680175 101.981383 
L 129.281316 102.757773 
L 131.882457 103.539784 
L 134.483598 104.327744 
L 137.084739 105.121988 
L 139.685881 105.922856 
L 142.287022 106.730694 
L 144.888163 107.545839 
L 147.489304 108.368624 
L 150.090445 109.199363 
L 152.691586 110.03835 
L 155.292728 110.885846 
L 157.893869 111.74208 
L 160.49501 112.607236 
L 163.096151 113.481448 
L 165.697292 114.364799 
L 168.298433 115.257318 
L 170.899575 116.158975 
L 173.500716 117.069685 
L 176.101857 117.989313 
L 178.702998 118.917673 
L 181.304139 119.854538 
L 183.90528 120.799643 
L 186.506422 121.752694 
L 189.107563 122.713376 
L 191.708704 123.681359 
L 194.309845 124.656301 
L 196.910986 125.637861 
L 199.512127 126.625695 
L 202.113269 127.61947 
L 204.71441 128.618859 
L 207.315551 129.623546 
L 209.916692 130.633233 
L 212.517833 131.647633 
L 215.118974 132.666476 
L 217.720116 133.689509 
L 220.321257 134.716493 
L 222.922398 135.747207 
L 225.523539 136.781444 
L 228.12468 137.819012 
L 230.725821 138.859732 
L 233.326963 139.90344 
L 235.928104 140.949983 
L 238.529245 141.999221 
L 241.130386 143.051023 
L 243.731527 144.105269 
L 246.332668 145.161849 
L 248.93381 146.22066 
L 251.534951 147.281609 
L 254.136092 148.344609 
L 256.737233 149.40958 
L 259.338374 150.476448 
L 261.939515 151.545146 
L 264.540657 152.61561 
L 267.141798 153.687784 
L 269.742939 154.761613 
L 272.34408 155.837049 
L 274.945221 156.914047 
L 277.546363 157.992565 
L 280.147504 159.072564 
L 282.748645 160.15401 
L 285.349786 161.236868 
L 287.950927 162.32111 
L 290.552068 163.406707 
L 293.15321 164.493635 
L 295.754351 165.581868 
L 298.355492 166.671386 
L 300.956633 167.76217 
L 303.557774 168.8542 
L 306.158915 169.94746 
L 308.760057 171.041934 
L 311.361198 172.137609 
L 313.962339 173.234472 
L 316.56348 174.332511 
L 319.164621 175.431717 
L 321.765762 176.532078 
L 324.366904 177.633587 
L 326.968045 178.736235 
L 329.569186 179.840017 
L 332.170327 180.944926 
L 332.170327 155.954444 
L 332.170327 155.954444 
L 329.569186 155.210662 
L 326.968045 154.466988 
L 324.366904 153.723414 
L 321.765762 152.979927 
L 319.164621 152.236516 
L 316.56348 151.493169 
L 313.962339 150.749871 
L 311.361198 150.006608 
L 308.760057 149.263365 
L 306.158915 148.520126 
L 303.557774 147.776873 
L 300.956633 147.033587 
L 298.355492 146.290247 
L 295.754351 145.546833 
L 293.15321 144.80332 
L 290.552068 144.059685 
L 287.950927 143.315899 
L 285.349786 142.571936 
L 282.748645 141.827764 
L 280.147504 141.083349 
L 277.546363 140.338657 
L 274.945221 139.593649 
L 272.34408 138.848284 
L 269.742939 138.102517 
L 267.141798 137.356301 
L 264.540657 136.609584 
L 261.939515 135.862311 
L 259.338374 135.11442 
L 256.737233 134.365849 
L 254.136092 133.616525 
L 251.534951 132.866375 
L 248.93381 132.115314 
L 246.332668 131.363256 
L 243.731527 130.610103 
L 241.130386 129.855751 
L 238.529245 129.10009 
L 235.928104 128.342995 
L 233.326963 127.584336 
L 230.725821 126.823971 
L 228.12468 126.061744 
L 225.523539 125.297491 
L 222.922398 124.53103 
L 220.321257 123.762169 
L 217.720116 122.9907 
L 215.118974 122.216398 
L 212.517833 121.439026 
L 209.916692 120.658329 
L 207.315551 119.874034 
L 204.71441 119.085857 
L 202.113269 118.293494 
L 199.512127 117.496631 
L 196.910986 116.694941 
L 194.309845 115.888087 
L 191.708704 115.075729 
L 189.107563 114.25752 
L 186.506422 113.433122 
L 183.90528 112.602203 
L 181.304139 111.764446 
L 178.702998 110.919557 
L 176.101857 110.067273 
L 173.500716 109.207364 
L 170.899575 108.339646 
L 168.298433 107.463982 
L 165.697292 106.580288 
L 163.096151 105.688534 
L 160.49501 104.788748 
L 157.893869 103.881013 
L 155.292728 102.965465 
L 152.691586 102.042288 
L 150.090445 101.111709 
L 147.489304 100.173991 
L 144.888163 99.229429 
L 142.287022 98.278336 
L 139.685881 97.321046 
L 137.084739 96.357898 
L 134.483598 95.389235 
L 131.882457 94.415401 
L 129.281316 93.436732 
L 126.680175 92.453554 
L 124.079034 91.466184 
L 121.477892 90.474923 
L 118.876751 89.480058 
L 116.27561 88.481861 
L 113.674469 87.480587 
L 111.073328 86.476476 
L 108.472187 85.46975 
L 105.871045 84.46062 
L 103.269904 83.449278 
L 100.668763 82.435904 
L 98.067622 81.420665 
L 95.466481 80.403716 
L 92.86534 79.385198 
L 90.264198 78.365246 
L 87.663057 77.343979 
L 85.061916 76.321512 
L 82.460775 75.297947 
L 79.859634 74.273382 
L 77.258493 73.247906 
L 74.657351 72.2216 
z
" clip-path="url(#p7d3524c74a)" style="fill: #ff0000; fill-opacity: 0.6"/>
   </g>
   <g id="matplotlib.axis_1">
    <g id="xtick_1">
     <g id="line2d_1">
      <defs>
       <path id="mdad77d327d" d="M 0 0 
L 0 3.5 
" style="stroke: #000000; stroke-width: 0.8"/>
      </defs>
      <g>
       <use xlink:href="#mdad77d327d" x="111.608857" y="190.4328" style="stroke: #000000; stroke-width: 0.8"/>
      </g>
     </g>
    </g>
    <g id="xtick_2">
     <g id="line2d_2">
      <g>
       <use xlink:href="#mdad77d327d" x="234.0155" y="190.4328" style="stroke: #000000; stroke-width: 0.8"/>
      </g>
     </g>
    </g>
    <g id="xtick_3">
     <g id="line2d_3">
      <defs>
       <path id="m6a7b696a0e" d="M 0 0 
L 0 2 
" style="stroke: #000000; stroke-width: 0.6"/>
      </defs>
      <g>
       <use xlink:href="#m6a7b696a0e" x="62.898356" y="190.4328" style="stroke: #000000; stroke-width: 0.6"/>
      </g>
     </g>
    </g>
    <g id="xtick_4">
     <g id="line2d_4">
      <g>
       <use xlink:href="#m6a7b696a0e" x="74.760785" y="190.4328" style="stroke: #000000; stroke-width: 0.6"/>
      </g>
     </g>
    </g>
    <g id="xtick_5">
     <g id="line2d_5">
      <g>
       <use xlink:href="#m6a7b696a0e" x="84.453096" y="190.4328" style="stroke: #000000; stroke-width: 0.6"/>
      </g>
     </g>
    </g>
    <g id="xtick_6">
     <g id="line2d_6">
      <g>
       <use xlink:href="#m6a7b696a0e" x="92.647828" y="190.4328" style="stroke: #000000; stroke-width: 0.6"/>
      </g>
     </g>
    </g>
    <g id="xtick_7">
     <g id="line2d_7">
      <g>
       <use xlink:href="#m6a7b696a0e" x="99.746427" y="190.4328" style="stroke: #000000; stroke-width: 0.6"/>
      </g>
     </g>
    </g>
    <g id="xtick_8">
     <g id="line2d_8">
      <g>
       <use xlink:href="#m6a7b696a0e" x="106.007836" y="190.4328" style="stroke: #000000; stroke-width: 0.6"/>
      </g>
     </g>
    </g>
    <g id="xtick_9">
     <g id="line2d_9">
      <g>
       <use xlink:href="#m6a7b696a0e" x="148.456928" y="190.4328" style="stroke: #000000; stroke-width: 0.6"/>
      </g>
     </g>
    </g>
    <g id="xtick_10">
     <g id="line2d_10">
      <g>
       <use xlink:href="#m6a7b696a0e" x="170.011668" y="190.4328" style="stroke: #000000; stroke-width: 0.6"/>
      </g>
     </g>
    </g>
    <g id="xtick_11">
     <g id="line2d_11">
      <g>
       <use xlink:href="#m6a7b696a0e" x="185.304999" y="190.4328" style="stroke: #000000; stroke-width: 0.6"/>
      </g>
     </g>
    </g>
    <g id="xtick_12">
     <g id="line2d_12">
      <g>
       <use xlink:href="#m6a7b696a0e" x="197.167429" y="190.4328" style="stroke: #000000; stroke-width: 0.6"/>
      </g>
     </g>
    </g>
    <g id="xtick_13">
     <g id="line2d_13">
      <g>
       <use xlink:href="#m6a7b696a0e" x="206.859739" y="190.4328" style="stroke: #000000; stroke-width: 0.6"/>
      </g>
     </g>
    </g>
    <g id="xtick_14">
     <g id="line2d_14">
      <g>
       <use xlink:href="#m6a7b696a0e" x="215.054471" y="190.4328" style="stroke: #000000; stroke-width: 0.6"/>
      </g>
     </g>
    </g>
    <g id="xtick_15">
     <g id="line2d_15">
      <g>
       <use xlink:href="#m6a7b696a0e" x="222.153071" y="190.4328" style="stroke: #000000; stroke-width: 0.6"/>
      </g>
     </g>
    </g>
    <g id="xtick_16">
     <g id="line2d_16">
      <g>
       <use xlink:href="#m6a7b696a0e" x="228.414479" y="190.4328" style="stroke: #000000; stroke-width: 0.6"/>
      </g>
     </g>
    </g>
    <g id="xtick_17">
     <g id="line2d_17">
      <g>
       <use xlink:href="#m6a7b696a0e" x="270.863571" y="190.4328" style="stroke: #000000; stroke-width: 0.6"/>
      </g>
     </g>
    </g>
    <g id="xtick_18">
     <g id="line2d_18">
      <g>
       <use xlink:href="#m6a7b696a0e" x="292.418311" y="190.4328" style="stroke: #000000; stroke-width: 0.6"/>
      </g>
     </g>
    </g>
    <g id="xtick_19">
     <g id="line2d_19">
      <g>
       <use xlink:href="#m6a7b696a0e" x="307.711643" y="190.4328" style="stroke: #000000; stroke-width: 0.6"/>
      </g>
     </g>
    </g>
    <g id="xtick_20">
     <g id="line2d_20">
      <g>
       <use xlink:href="#m6a7b696a0e" x="319.574072" y="190.4328" style="stroke: #000000; stroke-width: 0.6"/>
      </g>
     </g>
    </g>
    <g id="xtick_21">
     <g id="line2d_21">
      <g>
       <use xlink:href="#m6a7b696a0e" x="329.266382" y="190.4328" style="stroke: #000000; stroke-width: 0.6"/>
      </g>
     </g>
    </g>
    <g id="xtick_22">
     <g id="line2d_22">
      <g>
       <use xlink:href="#m6a7b696a0e" x="337.461114" y="190.4328" style="stroke: #000000; stroke-width: 0.6"/>
      </g>
     </g>
    </g>
    <g id="xtick_23">
     <g id="line2d_23">
      <g>
       <use xlink:href="#m6a7b696a0e" x="344.559714" y="190.4328" style="stroke: #000000; stroke-width: 0.6"/>
      </g>
     </g>
    </g>
   </g>
   <g id="matplotlib.axis_2">
    <g id="ytick_1">
     <g id="line2d_24">
      <defs>
       <path id="m8e0124a99a" d="M 0 0 
L -3.5 0 
" style="stroke: #000000; stroke-width: 0.8"/>
      </defs>
      <g>
       <use xlink:href="#m8e0124a99a" x="60.221389" y="91.885897" style="stroke: #000000; stroke-width: 0.8"/>
      </g>
     </g>
     <g id="text_1">
      <!-- $\mathdefault{10^{-12}}$ -->
      <g transform="translate(25.321389 95.685116) scale(0.1 -0.1)">
       <defs>
        <path id="DejaVuSans-31" d="M 794 531 
L 1825 531 
L 1825 4091 
L 703 3866 
L 703 4441 
L 1819 4666 
L 2450 4666 
L 2450 531 
L 3481 531 
L 3481 0 
L 794 0 
L 794 531 
z
" transform="scale(0.015625)"/>
        <path id="DejaVuSans-30" d="M 2034 4250 
Q 1547 4250 1301 3770 
Q 1056 3291 1056 2328 
Q 1056 1369 1301 889 
Q 1547 409 2034 409 
Q 2525 409 2770 889 
Q 3016 1369 3016 2328 
Q 3016 3291 2770 3770 
Q 2525 4250 2034 4250 
z
M 2034 4750 
Q 2819 4750 3233 4129 
Q 3647 3509 3647 2328 
Q 3647 1150 3233 529 
Q 2819 -91 2034 -91 
Q 1250 -91 836 529 
Q 422 1150 422 2328 
Q 422 3509 836 4129 
Q 1250 4750 2034 4750 
z
" transform="scale(0.015625)"/>
        <path id="DejaVuSans-2212" d="M 678 2272 
L 4684 2272 
L 4684 1741 
L 678 1741 
L 678 2272 
z
" transform="scale(0.015625)"/>
        <path id="DejaVuSans-32" d="M 1228 531 
L 3431 531 
L 3431 0 
L 469 0 
L 469 531 
Q 828 903 1448 1529 
Q 2069 2156 2228 2338 
Q 2531 2678 2651 2914 
Q 2772 3150 2772 3378 
Q 2772 3750 2511 3984 
Q 2250 4219 1831 4219 
Q 1534 4219 1204 4116 
Q 875 4013 500 3803 
L 500 4441 
Q 881 4594 1212 4672 
Q 1544 4750 1819 4750 
Q 2544 4750 2975 4387 
Q 3406 4025 3406 3419 
Q 3406 3131 3298 2873 
Q 3191 2616 2906 2266 
Q 2828 2175 2409 1742 
Q 1991 1309 1228 531 
z
" transform="scale(0.015625)"/>
       </defs>
       <use xlink:href="#DejaVuSans-31" transform="translate(0 0.765625)"/>
       <use xlink:href="#DejaVuSans-30" transform="translate(63.623047 0.765625)"/>
       <use xlink:href="#DejaVuSans-2212" transform="translate(128.203125 39.046875) scale(0.7)"/>
       <use xlink:href="#DejaVuSans-31" transform="translate(186.855469 39.046875) scale(0.7)"/>
       <use xlink:href="#DejaVuSans-32" transform="translate(231.391602 39.046875) scale(0.7)"/>
      </g>
     </g>
    </g>
    <g id="ytick_2">
     <g id="line2d_25">
      <defs>
       <path id="m48c24298e1" d="M 0 0 
L -2 0 
" style="stroke: #000000; stroke-width: 0.6"/>
      </defs>
      <g>
       <use xlink:href="#m48c24298e1" x="60.221389" y="189.228884" style="stroke: #000000; stroke-width: 0.6"/>
      </g>
     </g>
    </g>
    <g id="ytick_3">
     <g id="line2d_26">
      <g>
       <use xlink:href="#m48c24298e1" x="60.221389" y="164.705301" style="stroke: #000000; stroke-width: 0.6"/>
      </g>
     </g>
    </g>
    <g id="ytick_4">
     <g id="line2d_27">
      <g>
       <use xlink:href="#m48c24298e1" x="60.221389" y="147.305542" style="stroke: #000000; stroke-width: 0.6"/>
      </g>
     </g>
    </g>
    <g id="ytick_5">
     <g id="line2d_28">
      <g>
       <use xlink:href="#m48c24298e1" x="60.221389" y="133.80924" style="stroke: #000000; stroke-width: 0.6"/>
      </g>
     </g>
    </g>
    <g id="ytick_6">
     <g id="line2d_29">
      <g>
       <use xlink:href="#m48c24298e1" x="60.221389" y="122.781958" style="stroke: #000000; stroke-width: 0.6"/>
      </g>
     </g>
    </g>
    <g id="ytick_7">
     <g id="line2d_30">
      <g>
       <use xlink:href="#m48c24298e1" x="60.221389" y="113.458525" style="stroke: #000000; stroke-width: 0.6"/>
      </g>
     </g>
    </g>
    <g id="ytick_8">
     <g id="line2d_31">
      <g>
       <use xlink:href="#m48c24298e1" x="60.221389" y="105.382199" style="stroke: #000000; stroke-width: 0.6"/>
      </g>
     </g>
    </g>
    <g id="ytick_9">
     <g id="line2d_32">
      <g>
       <use xlink:href="#m48c24298e1" x="60.221389" y="98.258375" style="stroke: #000000; stroke-width: 0.6"/>
      </g>
     </g>
    </g>
    <g id="ytick_10">
     <g id="line2d_33">
      <g>
       <use xlink:href="#m48c24298e1" x="60.221389" y="49.962555" style="stroke: #000000; stroke-width: 0.6"/>
      </g>
     </g>
    </g>
    <g id="text_2">
     <!-- e2 * dnde [TeV / (cm2 s)] -->
     <g transform="translate(19.241702 170.416088) rotate(-90) scale(0.1 -0.1)">
      <defs>
       <path id="DejaVuSans-65" d="M 3597 1894 
L 3597 1613 
L 953 1613 
Q 991 1019 1311 708 
Q 1631 397 2203 397 
Q 2534 397 2845 478 
Q 3156 559 3463 722 
L 3463 178 
Q 3153 47 2828 -22 
Q 2503 -91 2169 -91 
Q 1331 -91 842 396 
Q 353 884 353 1716 
Q 353 2575 817 3079 
Q 1281 3584 2069 3584 
Q 2775 3584 3186 3129 
Q 3597 2675 3597 1894 
z
M 3022 2063 
Q 3016 2534 2758 2815 
Q 2500 3097 2075 3097 
Q 1594 3097 1305 2825 
Q 1016 2553 972 2059 
L 3022 2063 
z
" transform="scale(0.015625)"/>
       <path id="DejaVuSans-20" transform="scale(0.015625)"/>
       <path id="DejaVuSans-2a" d="M 3009 3897 
L 1888 3291 
L 3009 2681 
L 2828 2375 
L 1778 3009 
L 1778 1831 
L 1422 1831 
L 1422 3009 
L 372 2375 
L 191 2681 
L 1313 3291 
L 191 3897 
L 372 4206 
L 1422 3572 
L 1422 4750 
L 1778 4750 
L 1778 3572 
L 2828 4206 
L 3009 3897 
z
" transform="scale(0.015625)"/>
       <path id="DejaVuSans-64" d="M 2906 2969 
L 2906 4863 
L 3481 4863 
L 3481 0 
L 2906 0 
L 2906 525 
Q 2725 213 2448 61 
Q 2172 -91 1784 -91 
Q 1150 -91 751 415 
Q 353 922 353 1747 
Q 353 2572 751 3078 
Q 1150 3584 1784 3584 
Q 2172 3584 2448 3432 
Q 2725 3281 2906 2969 
z
M 947 1747 
Q 947 1113 1208 752 
Q 1469 391 1925 391 
Q 2381 391 2643 752 
Q 2906 1113 2906 1747 
Q 2906 2381 2643 2742 
Q 2381 3103 1925 3103 
Q 1469 3103 1208 2742 
Q 947 2381 947 1747 
z
" transform="scale(0.015625)"/>
       <path id="DejaVuSans-6e" d="M 3513 2113 
L 3513 0 
L 2938 0 
L 2938 2094 
Q 2938 2591 2744 2837 
Q 2550 3084 2163 3084 
Q 1697 3084 1428 2787 
Q 1159 2491 1159 1978 
L 1159 0 
L 581 0 
L 581 3500 
L 1159 3500 
L 1159 2956 
Q 1366 3272 1645 3428 
Q 1925 3584 2291 3584 
Q 2894 3584 3203 3211 
Q 3513 2838 3513 2113 
z
" transform="scale(0.015625)"/>
       <path id="DejaVuSans-5b" d="M 550 4863 
L 1875 4863 
L 1875 4416 
L 1125 4416 
L 1125 -397 
L 1875 -397 
L 1875 -844 
L 550 -844 
L 550 4863 
z
" transform="scale(0.015625)"/>
       <path id="DejaVuSans-54" d="M -19 4666 
L 3928 4666 
L 3928 4134 
L 2272 4134 
L 2272 0 
L 1638 0 
L 1638 4134 
L -19 4134 
L -19 4666 
z
" transform="scale(0.015625)"/>
       <path id="DejaVuSans-56" d="M 1831 0 
L 50 4666 
L 709 4666 
L 2188 738 
L 3669 4666 
L 4325 4666 
L 2547 0 
L 1831 0 
z
" transform="scale(0.015625)"/>
       <path id="DejaVuSans-2f" d="M 1625 4666 
L 2156 4666 
L 531 -594 
L 0 -594 
L 1625 4666 
z
" transform="scale(0.015625)"/>
       <path id="DejaVuSans-28" d="M 1984 4856 
Q 1566 4138 1362 3434 
Q 1159 2731 1159 2009 
Q 1159 1288 1364 580 
Q 1569 -128 1984 -844 
L 1484 -844 
Q 1016 -109 783 600 
Q 550 1309 550 2009 
Q 550 2706 781 3412 
Q 1013 4119 1484 4856 
L 1984 4856 
z
" transform="scale(0.015625)"/>
       <path id="DejaVuSans-63" d="M 3122 3366 
L 3122 2828 
Q 2878 2963 2633 3030 
Q 2388 3097 2138 3097 
Q 1578 3097 1268 2742 
Q 959 2388 959 1747 
Q 959 1106 1268 751 
Q 1578 397 2138 397 
Q 2388 397 2633 464 
Q 2878 531 3122 666 
L 3122 134 
Q 2881 22 2623 -34 
Q 2366 -91 2075 -91 
Q 1284 -91 818 406 
Q 353 903 353 1747 
Q 353 2603 823 3093 
Q 1294 3584 2113 3584 
Q 2378 3584 2631 3529 
Q 2884 3475 3122 3366 
z
" transform="scale(0.015625)"/>
       <path id="DejaVuSans-6d" d="M 3328 2828 
Q 3544 3216 3844 3400 
Q 4144 3584 4550 3584 
Q 5097 3584 5394 3201 
Q 5691 2819 5691 2113 
L 5691 0 
L 5113 0 
L 5113 2094 
Q 5113 2597 4934 2840 
Q 4756 3084 4391 3084 
Q 3944 3084 3684 2787 
Q 3425 2491 3425 1978 
L 3425 0 
L 2847 0 
L 2847 2094 
Q 2847 2600 2669 2842 
Q 2491 3084 2119 3084 
Q 1678 3084 1418 2786 
Q 1159 2488 1159 1978 
L 1159 0 
L 581 0 
L 581 3500 
L 1159 3500 
L 1159 2956 
Q 1356 3278 1631 3431 
Q 1906 3584 2284 3584 
Q 2666 3584 2933 3390 
Q 3200 3197 3328 2828 
z
" transform="scale(0.015625)"/>
       <path id="DejaVuSans-73" d="M 2834 3397 
L 2834 2853 
Q 2591 2978 2328 3040 
Q 2066 3103 1784 3103 
Q 1356 3103 1142 2972 
Q 928 2841 928 2578 
Q 928 2378 1081 2264 
Q 1234 2150 1697 2047 
L 1894 2003 
Q 2506 1872 2764 1633 
Q 3022 1394 3022 966 
Q 3022 478 2636 193 
Q 2250 -91 1575 -91 
Q 1294 -91 989 -36 
Q 684 19 347 128 
L 347 722 
Q 666 556 975 473 
Q 1284 391 1588 391 
Q 1994 391 2212 530 
Q 2431 669 2431 922 
Q 2431 1156 2273 1281 
Q 2116 1406 1581 1522 
L 1381 1569 
Q 847 1681 609 1914 
Q 372 2147 372 2553 
Q 372 3047 722 3315 
Q 1072 3584 1716 3584 
Q 2034 3584 2315 3537 
Q 2597 3491 2834 3397 
z
" transform="scale(0.015625)"/>
       <path id="DejaVuSans-29" d="M 513 4856 
L 1013 4856 
Q 1481 4119 1714 3412 
Q 1947 2706 1947 2009 
Q 1947 1309 1714 600 
Q 1481 -109 1013 -844 
L 513 -844 
Q 928 -128 1133 580 
Q 1338 1288 1338 2009 
Q 1338 2731 1133 3434 
Q 928 4138 513 4856 
z
" transform="scale(0.015625)"/>
       <path id="DejaVuSans-5d" d="M 1947 4863 
L 1947 -844 
L 622 -844 
L 622 -397 
L 1369 -397 
L 1369 4416 
L 622 4416 
L 622 4863 
L 1947 4863 
z
" transform="scale(0.015625)"/>
      </defs>
      <use xlink:href="#DejaVuSans-65"/>
      <use xlink:href="#DejaVuSans-32" x="61.523438"/>
      <use xlink:href="#DejaVuSans-20" x="125.146484"/>
      <use xlink:href="#DejaVuSans-2a" x="156.933594"/>
      <use xlink:href="#DejaVuSans-20" x="206.933594"/>
      <use xlink:href="#DejaVuSans-64" x="238.720703"/>
      <use xlink:href="#DejaVuSans-6e" x="302.197266"/>
      <use xlink:href="#DejaVuSans-64" x="365.576172"/>
      <use xlink:href="#DejaVuSans-65" x="429.052734"/>
      <use xlink:href="#DejaVuSans-20" x="490.576172"/>
      <use xlink:href="#DejaVuSans-5b" x="522.363281"/>
      <use xlink:href="#DejaVuSans-54" x="561.376953"/>
      <use xlink:href="#DejaVuSans-65" x="605.460938"/>
      <use xlink:href="#DejaVuSans-56" x="666.984375"/>
      <use xlink:href="#DejaVuSans-20" x="735.392578"/>
      <use xlink:href="#DejaVuSans-2f" x="767.179688"/>
      <use xlink:href="#DejaVuSans-20" x="800.871094"/>
      <use xlink:href="#DejaVuSans-28" x="832.658203"/>
      <use xlink:href="#DejaVuSans-63" x="871.671875"/>
      <use xlink:href="#DejaVuSans-6d" x="926.652344"/>
      <use xlink:href="#DejaVuSans-32" x="1024.064453"/>
      <use xlink:href="#DejaVuSans-20" x="1087.6875"/>
      <use xlink:href="#DejaVuSans-73" x="1119.474609"/>
      <use xlink:href="#DejaVuSans-29" x="1171.574219"/>
      <use xlink:href="#DejaVuSans-5d" x="1210.587891"/>
     </g>
    </g>
   </g>
   <g id="line2d_34">
    <path d="M 74.657351 79.27359 
L 77.258493 80.161413 
L 79.859634 81.049236 
L 82.460775 81.937059 
L 85.061916 82.824882 
L 87.663057 83.712705 
L 90.264198 84.600527 
L 92.86534 85.48835 
L 95.466481 86.376173 
L 98.067622 87.263996 
L 100.668763 88.151819 
L 103.269904 89.039642 
L 105.871045 89.927464 
L 108.472187 90.815287 
L 111.073328 91.70311 
L 113.674469 92.590933 
L 116.27561 93.478756 
L 118.876751 94.366579 
L 121.477892 95.254402 
L 124.079034 96.142224 
L 126.680175 97.030047 
L 129.281316 97.91787 
L 131.882457 98.805693 
L 134.483598 99.693516 
L 137.084739 100.581339 
L 139.685881 101.469162 
L 142.287022 102.356984 
L 144.888163 103.244807 
L 147.489304 104.13263 
L 150.090445 105.020453 
L 152.691586 105.908276 
L 155.292728 106.796099 
L 157.893869 107.683922 
L 160.49501 108.571744 
L 163.096151 109.459567 
L 165.697292 110.34739 
L 168.298433 111.235213 
L 170.899575 112.123036 
L 173.500716 113.010859 
L 176.101857 113.898682 
L 178.702998 114.786504 
L 181.304139 115.674327 
L 183.90528 116.56215 
L 186.506422 117.449973 
L 189.107563 118.337796 
L 191.708704 119.225619 
L 194.309845 120.113441 
L 196.910986 121.001264 
L 199.512127 121.889087 
L 202.113269 122.77691 
L 204.71441 123.664733 
L 207.315551 124.552556 
L 209.916692 125.440379 
L 212.517833 126.328201 
L 215.118974 127.216024 
L 217.720116 128.103847 
L 220.321257 128.99167 
L 222.922398 129.879493 
L 225.523539 130.767316 
L 228.12468 131.655139 
L 230.725821 132.542961 
L 233.326963 133.430784 
L 235.928104 134.318607 
L 238.529245 135.20643 
L 241.130386 136.094253 
L 243.731527 136.982076 
L 246.332668 137.869899 
L 248.93381 138.757721 
L 251.534951 139.645544 
L 254.136092 140.533367 
L 256.737233 141.42119 
L 259.338374 142.309013 
L 261.939515 143.196836 
L 264.540657 144.084659 
L 267.141798 144.972481 
L 269.742939 145.860304 
L 272.34408 146.748127 
L 274.945221 147.63595 
L 277.546363 148.523773 
L 280.147504 149.411596 
L 282.748645 150.299418 
L 285.349786 151.187241 
L 287.950927 152.075064 
L 290.552068 152.962887 
L 293.15321 153.85071 
L 295.754351 154.738533 
L 298.355492 155.626356 
L 300.956633 156.514178 
L 303.557774 157.402001 
L 306.158915 158.289824 
L 308.760057 159.177647 
L 311.361198 160.06547 
L 313.962339 160.953293 
L 316.56348 161.841116 
L 319.164621 162.728938 
L 321.765762 163.616761 
L 324.366904 164.504584 
L 326.968045 165.392407 
L 329.569186 166.28023 
L 332.170327 167.168053 
" clip-path="url(#p7d3524c74a)" style="fill: none; stroke-dasharray: 1.5,2.475; stroke-dashoffset: 0; stroke: #000000; stroke-width: 1.5"/>
   </g>
   <g id="LineCollection_1">
    <path clip-path="url(#p7d3524c74a)" style="fill: none; stroke: #006400; stroke-width: 1.5"/>
    <path clip-path="url(#p7d3524c74a)" style="fill: none; stroke: #006400; stroke-width: 1.5"/>
    <path clip-path="url(#p7d3524c74a)" style="fill: none; stroke: #006400; stroke-width: 1.5"/>
    <path clip-path="url(#p7d3524c74a)" style="fill: none; stroke: #006400; stroke-width: 1.5"/>
    <path clip-path="url(#p7d3524c74a)" style="fill: none; stroke: #006400; stroke-width: 1.5"/>
    <path d="M 73.356781 361 
L 73.356781 37.0101 
" clip-path="url(#p7d3524c74a)" style="fill: none; stroke: #006400; stroke-width: 1.5"/>
    <path d="M 88.657611 119.551 
L 88.657611 65.168353 
" clip-path="url(#p7d3524c74a)" style="fill: none; stroke: #006400; stroke-width: 1.5"/>
    <path d="M 103.958442 108.167838 
L 103.958442 79.348398 
" clip-path="url(#p7d3524c74a)" style="fill: none; stroke: #006400; stroke-width: 1.5"/>
    <path d="M 119.259272 111.8159 
L 119.259272 86.204315 
" clip-path="url(#p7d3524c74a)" style="fill: none; stroke: #006400; stroke-width: 1.5"/>
    <path d="M 134.560102 117.4416 
L 134.560102 91.808768 
" clip-path="url(#p7d3524c74a)" style="fill: none; stroke: #006400; stroke-width: 1.5"/>
    <path d="M 149.860933 123.444836 
L 149.860933 97.165029 
" clip-path="url(#p7d3524c74a)" style="fill: none; stroke: #006400; stroke-width: 1.5"/>
    <path d="M 165.161763 129.876273 
L 165.161763 102.256443 
" clip-path="url(#p7d3524c74a)" style="fill: none; stroke: #006400; stroke-width: 1.5"/>
    <path d="M 180.462594 136.705164 
L 180.462594 107.100727 
" clip-path="url(#p7d3524c74a)" style="fill: none; stroke: #006400; stroke-width: 1.5"/>
    <path d="M 195.763424 143.626086 
L 195.763424 111.922939 
" clip-path="url(#p7d3524c74a)" style="fill: none; stroke: #006400; stroke-width: 1.5"/>
    <path d="M 211.064254 151.137622 
L 211.064254 116.434324 
" clip-path="url(#p7d3524c74a)" style="fill: none; stroke: #006400; stroke-width: 1.5"/>
    <path d="M 226.365085 159.285855 
L 226.365085 120.657548 
" clip-path="url(#p7d3524c74a)" style="fill: none; stroke: #006400; stroke-width: 1.5"/>
    <path d="M 241.665915 167.923585 
L 241.665915 124.725387 
" clip-path="url(#p7d3524c74a)" style="fill: none; stroke: #006400; stroke-width: 1.5"/>
    <path d="M 256.966746 177.552771 
L 256.966746 128.458288 
" clip-path="url(#p7d3524c74a)" style="fill: none; stroke: #006400; stroke-width: 1.5"/>
    <path d="M 272.267576 188.381742 
L 272.267576 131.879013 
" clip-path="url(#p7d3524c74a)" style="fill: none; stroke: #006400; stroke-width: 1.5"/>
    <path d="M 287.568406 200.063194 
L 287.568406 135.251485 
" clip-path="url(#p7d3524c74a)" style="fill: none; stroke: #006400; stroke-width: 1.5"/>
    <path d="M 302.869237 213.909954 
L 302.869237 138.273834 
" clip-path="url(#p7d3524c74a)" style="fill: none; stroke: #006400; stroke-width: 1.5"/>
    <path d="M 318.170067 232.256284 
L 318.170067 140.672413 
" clip-path="url(#p7d3524c74a)" style="fill: none; stroke: #006400; stroke-width: 1.5"/>
    <path d="M 333.470898 263.363815 
L 333.470898 141.86116 
" clip-path="url(#p7d3524c74a)" style="fill: none; stroke: #006400; stroke-width: 1.5"/>
    <path clip-path="url(#p7d3524c74a)" style="fill: none; stroke: #006400; stroke-width: 1.5"/>
   </g>
   <g id="LineCollection_2">
    <path clip-path="url(#p7d3524c74a)" style="fill: none; stroke: #8b0000; stroke-width: 1.5"/>
    <path clip-path="url(#p7d3524c74a)" style="fill: none; stroke: #8b0000; stroke-width: 1.5"/>
    <path clip-path="url(#p7d3524c74a)" style="fill: none; stroke: #8b0000; stroke-width: 1.5"/>
    <path clip-path="url(#p7d3524c74a)" style="fill: none; stroke: #8b0000; stroke-width: 1.5"/>
    <path clip-path="url(#p7d3524c74a)" style="fill: none; stroke: #8b0000; stroke-width: 1.5"/>
    <path d="M 75.950492 361 
L 75.950492 37.158262 
" clip-path="url(#p7d3524c74a)" style="fill: none; stroke: #8b0000; stroke-width: 1.5"/>
    <path d="M 91.251322 118.222161 
L 91.251322 65.720298 
" clip-path="url(#p7d3524c74a)" style="fill: none; stroke: #8b0000; stroke-width: 1.5"/>
    <path d="M 106.552153 106.217884 
L 106.552153 80.593448 
" clip-path="url(#p7d3524c74a)" style="fill: none; stroke: #8b0000; stroke-width: 1.5"/>
    <path d="M 121.852983 109.654131 
L 121.852983 87.677778 
" clip-path="url(#p7d3524c74a)" style="fill: none; stroke: #8b0000; stroke-width: 1.5"/>
    <path d="M 137.153813 115.325813 
L 137.153813 93.250787 
" clip-path="url(#p7d3524c74a)" style="fill: none; stroke: #8b0000; stroke-width: 1.5"/>
    <path d="M 152.454644 121.41581 
L 152.454644 98.534595 
" clip-path="url(#p7d3524c74a)" style="fill: none; stroke: #8b0000; stroke-width: 1.5"/>
    <path d="M 167.755474 127.966116 
L 167.755474 103.512018 
" clip-path="url(#p7d3524c74a)" style="fill: none; stroke: #8b0000; stroke-width: 1.5"/>
    <path d="M 183.056305 134.922014 
L 183.056305 108.237253 
" clip-path="url(#p7d3524c74a)" style="fill: none; stroke: #8b0000; stroke-width: 1.5"/>
    <path d="M 198.357135 141.972233 
L 198.357135 112.94156 
" clip-path="url(#p7d3524c74a)" style="fill: none; stroke: #8b0000; stroke-width: 1.5"/>
    <path d="M 213.657965 149.59027 
L 213.657965 117.337926 
" clip-path="url(#p7d3524c74a)" style="fill: none; stroke: #8b0000; stroke-width: 1.5"/>
    <path d="M 228.958796 157.829688 
L 228.958796 121.455188 
" clip-path="url(#p7d3524c74a)" style="fill: none; stroke: #8b0000; stroke-width: 1.5"/>
    <path d="M 244.259626 166.546653 
L 244.259626 125.423939 
" clip-path="url(#p7d3524c74a)" style="fill: none; stroke: #8b0000; stroke-width: 1.5"/>
    <path d="M 259.560457 176.245845 
L 259.560457 129.058415 
" clip-path="url(#p7d3524c74a)" style="fill: none; stroke: #8b0000; stroke-width: 1.5"/>
    <path d="M 274.861287 187.130659 
L 274.861287 132.39082 
" clip-path="url(#p7d3524c74a)" style="fill: none; stroke: #8b0000; stroke-width: 1.5"/>
    <path d="M 290.162117 198.840222 
L 290.162117 135.691325 
" clip-path="url(#p7d3524c74a)" style="fill: none; stroke: #8b0000; stroke-width: 1.5"/>
    <path d="M 305.462948 212.677079 
L 305.462948 138.645173 
" clip-path="url(#p7d3524c74a)" style="fill: none; stroke: #8b0000; stroke-width: 1.5"/>
    <path d="M 320.763778 230.940751 
L 320.763778 140.979293 
" clip-path="url(#p7d3524c74a)" style="fill: none; stroke: #8b0000; stroke-width: 1.5"/>
    <path d="M 336.064609 261.691334 
L 336.064609 142.102907 
" clip-path="url(#p7d3524c74a)" style="fill: none; stroke: #8b0000; stroke-width: 1.5"/>
    <path clip-path="url(#p7d3524c74a)" style="fill: none; stroke: #8b0000; stroke-width: 1.5"/>
   </g>
   <g id="LineCollection_3">
    <path clip-path="url(#p7d3524c74a)" style="fill: none; stroke: #1f77b4; stroke-width: 1.5"/>
    <path clip-path="url(#p7d3524c74a)" style="fill: none; stroke: #1f77b4; stroke-width: 1.5"/>
    <path clip-path="url(#p7d3524c74a)" style="fill: none; stroke: #1f77b4; stroke-width: 1.5"/>
    <path clip-path="url(#p7d3524c74a)" style="fill: none; stroke: #1f77b4; stroke-width: 1.5"/>
    <path clip-path="url(#p7d3524c74a)" style="fill: none; stroke: #1f77b4; stroke-width: 1.5"/>
    <path d="M 78.42352 361 
L 78.42352 32.939673 
" clip-path="url(#p7d3524c74a)" style="fill: none; stroke: #1f77b4; stroke-width: 1.5"/>
    <path d="M 93.724351 118.415168 
L 93.724351 63.613137 
" clip-path="url(#p7d3524c74a)" style="fill: none; stroke: #1f77b4; stroke-width: 1.5"/>
    <path d="M 109.025181 104.51873 
L 109.025181 73.69169 
" clip-path="url(#p7d3524c74a)" style="fill: none; stroke: #1f77b4; stroke-width: 1.5"/>
    <path d="M 124.326012 108.188644 
L 124.326012 81.414826 
" clip-path="url(#p7d3524c74a)" style="fill: none; stroke: #1f77b4; stroke-width: 1.5"/>
    <path d="M 139.626842 111.846115 
L 139.626842 85.6885 
" clip-path="url(#p7d3524c74a)" style="fill: none; stroke: #1f77b4; stroke-width: 1.5"/>
    <path d="M 154.927672 117.78789 
L 154.927672 92.372478 
" clip-path="url(#p7d3524c74a)" style="fill: none; stroke: #1f77b4; stroke-width: 1.5"/>
    <path d="M 170.228503 125.86256 
L 170.228503 96.741322 
" clip-path="url(#p7d3524c74a)" style="fill: none; stroke: #1f77b4; stroke-width: 1.5"/>
    <path d="M 185.529333 132.624738 
L 185.529333 101.721682 
" clip-path="url(#p7d3524c74a)" style="fill: none; stroke: #1f77b4; stroke-width: 1.5"/>
    <path d="M 200.830164 136.724576 
L 200.830164 104.425056 
" clip-path="url(#p7d3524c74a)" style="fill: none; stroke: #1f77b4; stroke-width: 1.5"/>
    <path d="M 216.130994 145.691173 
L 216.130994 110.059372 
" clip-path="url(#p7d3524c74a)" style="fill: none; stroke: #1f77b4; stroke-width: 1.5"/>
    <path d="M 231.431824 152.530826 
L 231.431824 113.719031 
" clip-path="url(#p7d3524c74a)" style="fill: none; stroke: #1f77b4; stroke-width: 1.5"/>
    <path d="M 246.732655 158.486951 
L 246.732655 116.728897 
" clip-path="url(#p7d3524c74a)" style="fill: none; stroke: #1f77b4; stroke-width: 1.5"/>
    <path d="M 262.033485 169.474968 
L 262.033485 117.725514 
" clip-path="url(#p7d3524c74a)" style="fill: none; stroke: #1f77b4; stroke-width: 1.5"/>
    <path d="M 277.334316 178.1659 
L 277.334316 123.406232 
" clip-path="url(#p7d3524c74a)" style="fill: none; stroke: #1f77b4; stroke-width: 1.5"/>
    <path d="M 292.635146 194.023533 
L 292.635146 126.827669 
" clip-path="url(#p7d3524c74a)" style="fill: none; stroke: #1f77b4; stroke-width: 1.5"/>
    <path d="M 307.935976 202.983421 
L 307.935976 126.587848 
" clip-path="url(#p7d3524c74a)" style="fill: none; stroke: #1f77b4; stroke-width: 1.5"/>
    <path d="M 323.236807 227.859315 
L 323.236807 131.547773 
" clip-path="url(#p7d3524c74a)" style="fill: none; stroke: #1f77b4; stroke-width: 1.5"/>
    <path clip-path="url(#p7d3524c74a)" style="fill: none; stroke: #1f77b4; stroke-width: 1.5"/>
    <path clip-path="url(#p7d3524c74a)" style="fill: none; stroke: #1f77b4; stroke-width: 1.5"/>
   </g>
   <g id="line2d_35">
    <defs>
     <path id="mc307366f33" d="M -3 3 
L 3 -3 
M -3 -3 
L 3 3 
" style="stroke: #006400"/>
    </defs>
    <g clip-path="url(#p7d3524c74a)">
     <use xlink:href="#mc307366f33" x="73.356781" y="80.818873" style="fill: #006400; stroke: #006400"/>
     <use xlink:href="#mc307366f33" x="88.657611" y="86.442877" style="fill: #006400; stroke: #006400"/>
     <use xlink:href="#mc307366f33" x="103.958442" y="92.057588" style="fill: #006400; stroke: #006400"/>
     <use xlink:href="#mc307366f33" x="119.259272" y="97.664452" style="fill: #006400; stroke: #006400"/>
     <use xlink:href="#mc307366f33" x="134.560102" y="103.277311" style="fill: #006400; stroke: #006400"/>
     <use xlink:href="#mc307366f33" x="149.860933" y="108.888692" style="fill: #006400; stroke: #006400"/>
     <use xlink:href="#mc307366f33" x="165.161763" y="114.503269" style="fill: #006400; stroke: #006400"/>
     <use xlink:href="#mc307366f33" x="180.462594" y="120.109432" style="fill: #006400; stroke: #006400"/>
     <use xlink:href="#mc307366f33" x="195.763424" y="125.720637" style="fill: #006400; stroke: #006400"/>
     <use xlink:href="#mc307366f33" x="211.064254" y="131.330406" style="fill: #006400; stroke: #006400"/>
     <use xlink:href="#mc307366f33" x="226.365085" y="136.938897" style="fill: #006400; stroke: #006400"/>
     <use xlink:href="#mc307366f33" x="241.665915" y="142.54712" style="fill: #006400; stroke: #006400"/>
     <use xlink:href="#mc307366f33" x="256.966746" y="148.155235" style="fill: #006400; stroke: #006400"/>
     <use xlink:href="#mc307366f33" x="272.267576" y="153.759119" style="fill: #006400; stroke: #006400"/>
     <use xlink:href="#mc307366f33" x="287.568406" y="159.362101" style="fill: #006400; stroke: #006400"/>
     <use xlink:href="#mc307366f33" x="302.869237" y="164.96717" style="fill: #006400; stroke: #006400"/>
     <use xlink:href="#mc307366f33" x="318.170067" y="170.569729" style="fill: #006400; stroke: #006400"/>
     <use xlink:href="#mc307366f33" x="333.470898" y="176.171383" style="fill: #006400; stroke: #006400"/>
    </g>
   </g>
   <g id="line2d_36">
    <defs>
     <path id="mc5bc123e26" d="M -3 3 
L 3 -3 
M -3 -3 
L 3 3 
" style="stroke: #8b0000"/>
    </defs>
    <g clip-path="url(#p7d3524c74a)">
     <use xlink:href="#mc5bc123e26" x="75.950492" y="80.823765" style="fill: #8b0000; stroke: #8b0000"/>
     <use xlink:href="#mc5bc123e26" x="91.251322" y="86.444812" style="fill: #8b0000; stroke: #8b0000"/>
     <use xlink:href="#mc5bc123e26" x="106.552153" y="92.058669" style="fill: #8b0000; stroke: #8b0000"/>
     <use xlink:href="#mc5bc123e26" x="121.852983" y="97.673259" style="fill: #8b0000; stroke: #8b0000"/>
     <use xlink:href="#mc5bc123e26" x="137.153813" y="103.286719" style="fill: #8b0000; stroke: #8b0000"/>
     <use xlink:href="#mc5bc123e26" x="152.454644" y="108.899568" style="fill: #8b0000; stroke: #8b0000"/>
     <use xlink:href="#mc5bc123e26" x="167.755474" y="114.511496" style="fill: #8b0000; stroke: #8b0000"/>
     <use xlink:href="#mc5bc123e26" x="183.056305" y="120.119761" style="fill: #8b0000; stroke: #8b0000"/>
     <use xlink:href="#mc5bc123e26" x="198.357135" y="125.731582" style="fill: #8b0000; stroke: #8b0000"/>
     <use xlink:href="#mc5bc123e26" x="213.657965" y="131.339277" style="fill: #8b0000; stroke: #8b0000"/>
     <use xlink:href="#mc5bc123e26" x="228.958796" y="136.948207" style="fill: #8b0000; stroke: #8b0000"/>
     <use xlink:href="#mc5bc123e26" x="244.259626" y="142.555643" style="fill: #8b0000; stroke: #8b0000"/>
     <use xlink:href="#mc5bc123e26" x="259.560457" y="148.162467" style="fill: #8b0000; stroke: #8b0000"/>
     <use xlink:href="#mc5bc123e26" x="274.861287" y="153.768436" style="fill: #8b0000; stroke: #8b0000"/>
     <use xlink:href="#mc5bc123e26" x="290.162117" y="159.373389" style="fill: #8b0000; stroke: #8b0000"/>
     <use xlink:href="#mc5bc123e26" x="305.462948" y="164.977702" style="fill: #8b0000; stroke: #8b0000"/>
     <use xlink:href="#mc5bc123e26" x="320.763778" y="170.58083" style="fill: #8b0000; stroke: #8b0000"/>
     <use xlink:href="#mc5bc123e26" x="336.064609" y="176.183544" style="fill: #8b0000; stroke: #8b0000"/>
    </g>
   </g>
   <g id="line2d_37">
    <path d="M 78.42352 75.14713 
L 93.724351 85.008659 
L 109.025181 87.1621 
L 124.326012 93.332181 
L 139.626842 97.364106 
L 154.927672 103.754915 
L 170.228503 109.565947 
L 185.529333 115.220607 
L 200.830164 118.443846 
L 216.130994 125.288415 
L 231.431824 130.063721 
L 246.732655 134.07351 
L 262.033485 138.226594 
L 277.334316 144.789559 
L 292.635146 151.537619 
L 307.935976 153.44942 
L 323.236807 162.270701 
" clip-path="url(#p7d3524c74a)" style="fill: none; stroke: #1f77b4; stroke-width: 1.5; stroke-linecap: square"/>
   </g>
   <g id="patch_3">
    <path d="M 60.221389 190.4328 
L 60.221389 25.44 
" style="fill: none; stroke: #000000; stroke-width: 0.8; stroke-linejoin: miter; stroke-linecap: square"/>
   </g>
   <g id="patch_4">
    <path d="M 349.2 190.4328 
L 349.2 25.44 
" style="fill: none; stroke: #000000; stroke-width: 0.8; stroke-linejoin: miter; stroke-linecap: square"/>
   </g>
   <g id="patch_5">
    <path d="M 60.221389 190.4328 
L 349.2 190.4328 
" style="fill: none; stroke: #000000; stroke-width: 0.8; stroke-linejoin: miter; stroke-linecap: square"/>
   </g>
   <g id="patch_6">
    <path d="M 60.221389 25.44 
L 349.2 25.44 
" style="fill: none; stroke: #000000; stroke-width: 0.8; stroke-linejoin: miter; stroke-linecap: square"/>
   </g>
   <g id="text_3">
    <!-- N = 280 -->
    <g transform="translate(179.927882 19.44) scale(0.12 -0.12)">
     <defs>
      <path id="DejaVuSans-4e" d="M 628 4666 
L 1478 4666 
L 3547 763 
L 3547 4666 
L 4159 4666 
L 4159 0 
L 3309 0 
L 1241 3903 
L 1241 0 
L 628 0 
L 628 4666 
z
" transform="scale(0.015625)"/>
      <path id="DejaVuSans-3d" d="M 678 2906 
L 4684 2906 
L 4684 2381 
L 678 2381 
L 678 2906 
z
M 678 1631 
L 4684 1631 
L 4684 1100 
L 678 1100 
L 678 1631 
z
" transform="scale(0.015625)"/>
      <path id="DejaVuSans-38" d="M 2034 2216 
Q 1584 2216 1326 1975 
Q 1069 1734 1069 1313 
Q 1069 891 1326 650 
Q 1584 409 2034 409 
Q 2484 409 2743 651 
Q 3003 894 3003 1313 
Q 3003 1734 2745 1975 
Q 2488 2216 2034 2216 
z
M 1403 2484 
Q 997 2584 770 2862 
Q 544 3141 544 3541 
Q 544 4100 942 4425 
Q 1341 4750 2034 4750 
Q 2731 4750 3128 4425 
Q 3525 4100 3525 3541 
Q 3525 3141 3298 2862 
Q 3072 2584 2669 2484 
Q 3125 2378 3379 2068 
Q 3634 1759 3634 1313 
Q 3634 634 3220 271 
Q 2806 -91 2034 -91 
Q 1263 -91 848 271 
Q 434 634 434 1313 
Q 434 1759 690 2068 
Q 947 2378 1403 2484 
z
M 1172 3481 
Q 1172 3119 1398 2916 
Q 1625 2713 2034 2713 
Q 2441 2713 2670 2916 
Q 2900 3119 2900 3481 
Q 2900 3844 2670 4047 
Q 2441 4250 2034 4250 
Q 1625 4250 1398 4047 
Q 1172 3844 1172 3481 
z
" transform="scale(0.015625)"/>
     </defs>
     <use xlink:href="#DejaVuSans-4e"/>
     <use xlink:href="#DejaVuSans-20" x="74.804688"/>
     <use xlink:href="#DejaVuSans-3d" x="106.591797"/>
     <use xlink:href="#DejaVuSans-20" x="190.380859"/>
     <use xlink:href="#DejaVuSans-32" x="222.167969"/>
     <use xlink:href="#DejaVuSans-38" x="285.791016"/>
     <use xlink:href="#DejaVuSans-30" x="349.414062"/>
    </g>
   </g>
   <g id="legend_1">
    <g id="patch_7">
     <path d="M 209.6 92.172813 
L 342.2 92.172813 
Q 344.2 92.172813 344.2 90.172813 
L 344.2 32.44 
Q 344.2 30.44 342.2 30.44 
L 209.6 30.44 
Q 207.6 30.44 207.6 32.44 
L 207.6 90.172813 
Q 207.6 92.172813 209.6 92.172813 
z
" style="fill: #ffffff; opacity: 0.8; stroke: #cccccc; stroke-linejoin: miter"/>
    </g>
    <g id="line2d_38">
     <path d="M 211.6 38.538438 
L 221.6 38.538438 
L 231.6 38.538438 
" style="fill: none; stroke-dasharray: 1.5,2.475; stroke-dashoffset: 0; stroke: #000000; stroke-width: 1.5"/>
    </g>
    <g id="text_4">
     <!-- Input -->
     <g transform="translate(239.6 42.038438) scale(0.1 -0.1)">
      <defs>
       <path id="DejaVuSans-49" d="M 628 4666 
L 1259 4666 
L 1259 0 
L 628 0 
L 628 4666 
z
" transform="scale(0.015625)"/>
       <path id="DejaVuSans-70" d="M 1159 525 
L 1159 -1331 
L 581 -1331 
L 581 3500 
L 1159 3500 
L 1159 2969 
Q 1341 3281 1617 3432 
Q 1894 3584 2278 3584 
Q 2916 3584 3314 3078 
Q 3713 2572 3713 1747 
Q 3713 922 3314 415 
Q 2916 -91 2278 -91 
Q 1894 -91 1617 61 
Q 1341 213 1159 525 
z
M 3116 1747 
Q 3116 2381 2855 2742 
Q 2594 3103 2138 3103 
Q 1681 3103 1420 2742 
Q 1159 2381 1159 1747 
Q 1159 1113 1420 752 
Q 1681 391 2138 391 
Q 2594 391 2855 752 
Q 3116 1113 3116 1747 
z
" transform="scale(0.015625)"/>
       <path id="DejaVuSans-75" d="M 544 1381 
L 544 3500 
L 1119 3500 
L 1119 1403 
Q 1119 906 1312 657 
Q 1506 409 1894 409 
Q 2359 409 2629 706 
Q 2900 1003 2900 1516 
L 2900 3500 
L 3475 3500 
L 3475 0 
L 2900 0 
L 2900 538 
Q 2691 219 2414 64 
Q 2138 -91 1772 -91 
Q 1169 -91 856 284 
Q 544 659 544 1381 
z
M 1991 3584 
L 1991 3584 
z
" transform="scale(0.015625)"/>
       <path id="DejaVuSans-74" d="M 1172 4494 
L 1172 3500 
L 2356 3500 
L 2356 3053 
L 1172 3053 
L 1172 1153 
Q 1172 725 1289 603 
Q 1406 481 1766 481 
L 2356 481 
L 2356 0 
L 1766 0 
Q 1100 0 847 248 
Q 594 497 594 1153 
L 594 3053 
L 172 3053 
L 172 3500 
L 594 3500 
L 594 4494 
L 1172 4494 
z
" transform="scale(0.015625)"/>
      </defs>
      <use xlink:href="#DejaVuSans-49"/>
      <use xlink:href="#DejaVuSans-6e" x="29.492188"/>
      <use xlink:href="#DejaVuSans-70" x="92.871094"/>
      <use xlink:href="#DejaVuSans-75" x="156.347656"/>
      <use xlink:href="#DejaVuSans-74" x="219.726562"/>
     </g>
    </g>
    <g id="LineCollection_4">
     <path d="M 221.6 58.216563 
L 221.6 48.216563 
" style="fill: none; stroke: #006400; stroke-width: 1.5"/>
    </g>
    <g id="line2d_39"/>
    <g id="line2d_40">
     <g>
      <use xlink:href="#mc307366f33" x="221.6" y="53.216563" style="fill: #006400; stroke: #006400"/>
     </g>
    </g>
    <g id="text_5">
     <!-- Fluxpoints Nuisance -->
     <g transform="translate(239.6 56.716563) scale(0.1 -0.1)">
      <defs>
       <path id="DejaVuSans-46" d="M 628 4666 
L 3309 4666 
L 3309 4134 
L 1259 4134 
L 1259 2759 
L 3109 2759 
L 3109 2228 
L 1259 2228 
L 1259 0 
L 628 0 
L 628 4666 
z
" transform="scale(0.015625)"/>
       <path id="DejaVuSans-6c" d="M 603 4863 
L 1178 4863 
L 1178 0 
L 603 0 
L 603 4863 
z
" transform="scale(0.015625)"/>
       <path id="DejaVuSans-78" d="M 3513 3500 
L 2247 1797 
L 3578 0 
L 2900 0 
L 1881 1375 
L 863 0 
L 184 0 
L 1544 1831 
L 300 3500 
L 978 3500 
L 1906 2253 
L 2834 3500 
L 3513 3500 
z
" transform="scale(0.015625)"/>
       <path id="DejaVuSans-6f" d="M 1959 3097 
Q 1497 3097 1228 2736 
Q 959 2375 959 1747 
Q 959 1119 1226 758 
Q 1494 397 1959 397 
Q 2419 397 2687 759 
Q 2956 1122 2956 1747 
Q 2956 2369 2687 2733 
Q 2419 3097 1959 3097 
z
M 1959 3584 
Q 2709 3584 3137 3096 
Q 3566 2609 3566 1747 
Q 3566 888 3137 398 
Q 2709 -91 1959 -91 
Q 1206 -91 779 398 
Q 353 888 353 1747 
Q 353 2609 779 3096 
Q 1206 3584 1959 3584 
z
" transform="scale(0.015625)"/>
       <path id="DejaVuSans-69" d="M 603 3500 
L 1178 3500 
L 1178 0 
L 603 0 
L 603 3500 
z
M 603 4863 
L 1178 4863 
L 1178 4134 
L 603 4134 
L 603 4863 
z
" transform="scale(0.015625)"/>
       <path id="DejaVuSans-61" d="M 2194 1759 
Q 1497 1759 1228 1600 
Q 959 1441 959 1056 
Q 959 750 1161 570 
Q 1363 391 1709 391 
Q 2188 391 2477 730 
Q 2766 1069 2766 1631 
L 2766 1759 
L 2194 1759 
z
M 3341 1997 
L 3341 0 
L 2766 0 
L 2766 531 
Q 2569 213 2275 61 
Q 1981 -91 1556 -91 
Q 1019 -91 701 211 
Q 384 513 384 1019 
Q 384 1609 779 1909 
Q 1175 2209 1959 2209 
L 2766 2209 
L 2766 2266 
Q 2766 2663 2505 2880 
Q 2244 3097 1772 3097 
Q 1472 3097 1187 3025 
Q 903 2953 641 2809 
L 641 3341 
Q 956 3463 1253 3523 
Q 1550 3584 1831 3584 
Q 2591 3584 2966 3190 
Q 3341 2797 3341 1997 
z
" transform="scale(0.015625)"/>
      </defs>
      <use xlink:href="#DejaVuSans-46"/>
      <use xlink:href="#DejaVuSans-6c" x="57.519531"/>
      <use xlink:href="#DejaVuSans-75" x="85.302734"/>
      <use xlink:href="#DejaVuSans-78" x="148.681641"/>
      <use xlink:href="#DejaVuSans-70" x="207.861328"/>
      <use xlink:href="#DejaVuSans-6f" x="271.337891"/>
      <use xlink:href="#DejaVuSans-69" x="332.519531"/>
      <use xlink:href="#DejaVuSans-6e" x="360.302734"/>
      <use xlink:href="#DejaVuSans-74" x="423.681641"/>
      <use xlink:href="#DejaVuSans-73" x="462.890625"/>
      <use xlink:href="#DejaVuSans-20" x="514.990234"/>
      <use xlink:href="#DejaVuSans-4e" x="546.777344"/>
      <use xlink:href="#DejaVuSans-75" x="621.582031"/>
      <use xlink:href="#DejaVuSans-69" x="684.960938"/>
      <use xlink:href="#DejaVuSans-73" x="712.744141"/>
      <use xlink:href="#DejaVuSans-61" x="764.84375"/>
      <use xlink:href="#DejaVuSans-6e" x="826.123047"/>
      <use xlink:href="#DejaVuSans-63" x="889.501953"/>
      <use xlink:href="#DejaVuSans-65" x="944.482422"/>
     </g>
    </g>
    <g id="LineCollection_5">
     <path d="M 221.6 72.894688 
L 221.6 62.894688 
" style="fill: none; stroke: #8b0000; stroke-width: 1.5"/>
    </g>
    <g id="line2d_41"/>
    <g id="line2d_42">
     <g>
      <use xlink:href="#mc5bc123e26" x="221.6" y="67.894688" style="fill: #8b0000; stroke: #8b0000"/>
     </g>
    </g>
    <g id="text_6">
     <!-- Fluxpoints Standard -->
     <g transform="translate(239.6 71.394688) scale(0.1 -0.1)">
      <defs>
       <path id="DejaVuSans-53" d="M 3425 4513 
L 3425 3897 
Q 3066 4069 2747 4153 
Q 2428 4238 2131 4238 
Q 1616 4238 1336 4038 
Q 1056 3838 1056 3469 
Q 1056 3159 1242 3001 
Q 1428 2844 1947 2747 
L 2328 2669 
Q 3034 2534 3370 2195 
Q 3706 1856 3706 1288 
Q 3706 609 3251 259 
Q 2797 -91 1919 -91 
Q 1588 -91 1214 -16 
Q 841 59 441 206 
L 441 856 
Q 825 641 1194 531 
Q 1563 422 1919 422 
Q 2459 422 2753 634 
Q 3047 847 3047 1241 
Q 3047 1584 2836 1778 
Q 2625 1972 2144 2069 
L 1759 2144 
Q 1053 2284 737 2584 
Q 422 2884 422 3419 
Q 422 4038 858 4394 
Q 1294 4750 2059 4750 
Q 2388 4750 2728 4690 
Q 3069 4631 3425 4513 
z
" transform="scale(0.015625)"/>
       <path id="DejaVuSans-72" d="M 2631 2963 
Q 2534 3019 2420 3045 
Q 2306 3072 2169 3072 
Q 1681 3072 1420 2755 
Q 1159 2438 1159 1844 
L 1159 0 
L 581 0 
L 581 3500 
L 1159 3500 
L 1159 2956 
Q 1341 3275 1631 3429 
Q 1922 3584 2338 3584 
Q 2397 3584 2469 3576 
Q 2541 3569 2628 3553 
L 2631 2963 
z
" transform="scale(0.015625)"/>
      </defs>
      <use xlink:href="#DejaVuSans-46"/>
      <use xlink:href="#DejaVuSans-6c" x="57.519531"/>
      <use xlink:href="#DejaVuSans-75" x="85.302734"/>
      <use xlink:href="#DejaVuSans-78" x="148.681641"/>
      <use xlink:href="#DejaVuSans-70" x="207.861328"/>
      <use xlink:href="#DejaVuSans-6f" x="271.337891"/>
      <use xlink:href="#DejaVuSans-69" x="332.519531"/>
      <use xlink:href="#DejaVuSans-6e" x="360.302734"/>
      <use xlink:href="#DejaVuSans-74" x="423.681641"/>
      <use xlink:href="#DejaVuSans-73" x="462.890625"/>
      <use xlink:href="#DejaVuSans-20" x="514.990234"/>
      <use xlink:href="#DejaVuSans-53" x="546.777344"/>
      <use xlink:href="#DejaVuSans-74" x="610.253906"/>
      <use xlink:href="#DejaVuSans-61" x="649.462891"/>
      <use xlink:href="#DejaVuSans-6e" x="710.742188"/>
      <use xlink:href="#DejaVuSans-64" x="774.121094"/>
      <use xlink:href="#DejaVuSans-61" x="837.597656"/>
      <use xlink:href="#DejaVuSans-72" x="898.876953"/>
      <use xlink:href="#DejaVuSans-64" x="938.240234"/>
     </g>
    </g>
    <g id="LineCollection_6">
     <path d="M 221.6 87.572813 
L 221.6 77.572813 
" style="fill: none; stroke: #1f77b4; stroke-width: 1.5"/>
    </g>
    <g id="line2d_43">
     <path d="M 211.6 82.572813 
L 231.6 82.572813 
" style="fill: none; stroke: #1f77b4; stroke-width: 1.5; stroke-linecap: square"/>
    </g>
    <g id="line2d_44"/>
    <g id="text_7">
     <!-- $\mu$, $\sigma$ -->
     <g transform="translate(239.6 86.072813) scale(0.1 -0.1)">
      <defs>
       <path id="DejaVuSans-Oblique-3bc" d="M -84 -1331 
L 856 3500 
L 1434 3500 
L 1009 1322 
Q 997 1256 987 1175 
Q 978 1094 978 1013 
Q 978 722 1161 565 
Q 1344 409 1684 409 
Q 2147 409 2431 671 
Q 2716 934 2816 1459 
L 3213 3500 
L 3788 3500 
L 3266 809 
Q 3253 750 3248 706 
Q 3244 663 3244 628 
Q 3244 531 3283 486 
Q 3322 441 3406 441 
Q 3438 441 3492 456 
Q 3547 472 3647 513 
L 3559 50 
Q 3422 -19 3297 -55 
Q 3172 -91 3053 -91 
Q 2847 -91 2730 40 
Q 2613 172 2613 403 
Q 2438 153 2195 31 
Q 1953 -91 1625 -91 
Q 1334 -91 1117 43 
Q 900 178 831 397 
L 494 -1331 
L -84 -1331 
z
" transform="scale(0.015625)"/>
       <path id="DejaVuSans-2c" d="M 750 794 
L 1409 794 
L 1409 256 
L 897 -744 
L 494 -744 
L 750 256 
L 750 794 
z
" transform="scale(0.015625)"/>
       <path id="DejaVuSans-Oblique-3c3" d="M 2219 3044 
Q 1744 3044 1422 2700 
Q 1081 2341 969 1747 
Q 844 1119 1044 756 
Q 1241 397 1706 397 
Q 2166 397 2503 759 
Q 2844 1122 2966 1747 
Q 3075 2319 2881 2700 
Q 2700 3044 2219 3044 
z
M 2309 3503 
L 4219 3500 
L 4106 2925 
L 3463 2925 
Q 3706 2438 3575 1747 
Q 3406 888 2884 400 
Q 2359 -91 1609 -91 
Q 856 -91 525 400 
Q 194 888 363 1747 
Q 528 2609 1050 3097 
Q 1484 3503 2309 3503 
z
" transform="scale(0.015625)"/>
      </defs>
      <use xlink:href="#DejaVuSans-Oblique-3bc" transform="translate(0 0.265625)"/>
      <use xlink:href="#DejaVuSans-2c" transform="translate(63.623047 0.265625)"/>
      <use xlink:href="#DejaVuSans-20" transform="translate(95.410156 0.265625)"/>
      <use xlink:href="#DejaVuSans-Oblique-3c3" transform="translate(127.197266 0.265625)"/>
     </g>
    </g>
   </g>
  </g>
  <g id="axes_2">
   <g id="patch_8">
    <path d="M 60.221389 314.728 
L 349.2 314.728 
L 349.2 204.7328 
L 60.221389 204.7328 
z
" style="fill: #ffffff"/>
   </g>
   <g id="matplotlib.axis_3">
    <g id="xtick_24">
     <g id="line2d_45">
      <g>
       <use xlink:href="#mdad77d327d" x="111.608857" y="314.728" style="stroke: #000000; stroke-width: 0.8"/>
      </g>
     </g>
     <g id="text_8">
      <!-- $\mathdefault{10^{0}}$ -->
      <g transform="translate(102.808857 329.326438) scale(0.1 -0.1)">
       <use xlink:href="#DejaVuSans-31" transform="translate(0 0.765625)"/>
       <use xlink:href="#DejaVuSans-30" transform="translate(63.623047 0.765625)"/>
       <use xlink:href="#DejaVuSans-30" transform="translate(128.203125 39.046875) scale(0.7)"/>
      </g>
     </g>
    </g>
    <g id="xtick_25">
     <g id="line2d_46">
      <g>
       <use xlink:href="#mdad77d327d" x="234.0155" y="314.728" style="stroke: #000000; stroke-width: 0.8"/>
      </g>
     </g>
     <g id="text_9">
      <!-- $\mathdefault{10^{1}}$ -->
      <g transform="translate(225.2155 329.326438) scale(0.1 -0.1)">
       <use xlink:href="#DejaVuSans-31" transform="translate(0 0.684375)"/>
       <use xlink:href="#DejaVuSans-30" transform="translate(63.623047 0.684375)"/>
       <use xlink:href="#DejaVuSans-31" transform="translate(128.203125 38.965625) scale(0.7)"/>
      </g>
     </g>
    </g>
    <g id="xtick_26">
     <g id="line2d_47">
      <g>
       <use xlink:href="#m6a7b696a0e" x="62.898356" y="314.728" style="stroke: #000000; stroke-width: 0.6"/>
      </g>
     </g>
    </g>
    <g id="xtick_27">
     <g id="line2d_48">
      <g>
       <use xlink:href="#m6a7b696a0e" x="74.760785" y="314.728" style="stroke: #000000; stroke-width: 0.6"/>
      </g>
     </g>
    </g>
    <g id="xtick_28">
     <g id="line2d_49">
      <g>
       <use xlink:href="#m6a7b696a0e" x="84.453096" y="314.728" style="stroke: #000000; stroke-width: 0.6"/>
      </g>
     </g>
    </g>
    <g id="xtick_29">
     <g id="line2d_50">
      <g>
       <use xlink:href="#m6a7b696a0e" x="92.647828" y="314.728" style="stroke: #000000; stroke-width: 0.6"/>
      </g>
     </g>
    </g>
    <g id="xtick_30">
     <g id="line2d_51">
      <g>
       <use xlink:href="#m6a7b696a0e" x="99.746427" y="314.728" style="stroke: #000000; stroke-width: 0.6"/>
      </g>
     </g>
    </g>
    <g id="xtick_31">
     <g id="line2d_52">
      <g>
       <use xlink:href="#m6a7b696a0e" x="106.007836" y="314.728" style="stroke: #000000; stroke-width: 0.6"/>
      </g>
     </g>
    </g>
    <g id="xtick_32">
     <g id="line2d_53">
      <g>
       <use xlink:href="#m6a7b696a0e" x="148.456928" y="314.728" style="stroke: #000000; stroke-width: 0.6"/>
      </g>
     </g>
    </g>
    <g id="xtick_33">
     <g id="line2d_54">
      <g>
       <use xlink:href="#m6a7b696a0e" x="170.011668" y="314.728" style="stroke: #000000; stroke-width: 0.6"/>
      </g>
     </g>
    </g>
    <g id="xtick_34">
     <g id="line2d_55">
      <g>
       <use xlink:href="#m6a7b696a0e" x="185.304999" y="314.728" style="stroke: #000000; stroke-width: 0.6"/>
      </g>
     </g>
    </g>
    <g id="xtick_35">
     <g id="line2d_56">
      <g>
       <use xlink:href="#m6a7b696a0e" x="197.167429" y="314.728" style="stroke: #000000; stroke-width: 0.6"/>
      </g>
     </g>
    </g>
    <g id="xtick_36">
     <g id="line2d_57">
      <g>
       <use xlink:href="#m6a7b696a0e" x="206.859739" y="314.728" style="stroke: #000000; stroke-width: 0.6"/>
      </g>
     </g>
    </g>
    <g id="xtick_37">
     <g id="line2d_58">
      <g>
       <use xlink:href="#m6a7b696a0e" x="215.054471" y="314.728" style="stroke: #000000; stroke-width: 0.6"/>
      </g>
     </g>
    </g>
    <g id="xtick_38">
     <g id="line2d_59">
      <g>
       <use xlink:href="#m6a7b696a0e" x="222.153071" y="314.728" style="stroke: #000000; stroke-width: 0.6"/>
      </g>
     </g>
    </g>
    <g id="xtick_39">
     <g id="line2d_60">
      <g>
       <use xlink:href="#m6a7b696a0e" x="228.414479" y="314.728" style="stroke: #000000; stroke-width: 0.6"/>
      </g>
     </g>
    </g>
    <g id="xtick_40">
     <g id="line2d_61">
      <g>
       <use xlink:href="#m6a7b696a0e" x="270.863571" y="314.728" style="stroke: #000000; stroke-width: 0.6"/>
      </g>
     </g>
    </g>
    <g id="xtick_41">
     <g id="line2d_62">
      <g>
       <use xlink:href="#m6a7b696a0e" x="292.418311" y="314.728" style="stroke: #000000; stroke-width: 0.6"/>
      </g>
     </g>
    </g>
    <g id="xtick_42">
     <g id="line2d_63">
      <g>
       <use xlink:href="#m6a7b696a0e" x="307.711643" y="314.728" style="stroke: #000000; stroke-width: 0.6"/>
      </g>
     </g>
    </g>
    <g id="xtick_43">
     <g id="line2d_64">
      <g>
       <use xlink:href="#m6a7b696a0e" x="319.574072" y="314.728" style="stroke: #000000; stroke-width: 0.6"/>
      </g>
     </g>
    </g>
    <g id="xtick_44">
     <g id="line2d_65">
      <g>
       <use xlink:href="#m6a7b696a0e" x="329.266382" y="314.728" style="stroke: #000000; stroke-width: 0.6"/>
      </g>
     </g>
    </g>
    <g id="xtick_45">
     <g id="line2d_66">
      <g>
       <use xlink:href="#m6a7b696a0e" x="337.461114" y="314.728" style="stroke: #000000; stroke-width: 0.6"/>
      </g>
     </g>
    </g>
    <g id="xtick_46">
     <g id="line2d_67">
      <g>
       <use xlink:href="#m6a7b696a0e" x="344.559714" y="314.728" style="stroke: #000000; stroke-width: 0.6"/>
      </g>
     </g>
    </g>
    <g id="text_10">
     <!-- Energy [TeV] -->
     <g transform="translate(173.013038 343.004563) scale(0.1 -0.1)">
      <defs>
       <path id="DejaVuSans-45" d="M 628 4666 
L 3578 4666 
L 3578 4134 
L 1259 4134 
L 1259 2753 
L 3481 2753 
L 3481 2222 
L 1259 2222 
L 1259 531 
L 3634 531 
L 3634 0 
L 628 0 
L 628 4666 
z
" transform="scale(0.015625)"/>
       <path id="DejaVuSans-67" d="M 2906 1791 
Q 2906 2416 2648 2759 
Q 2391 3103 1925 3103 
Q 1463 3103 1205 2759 
Q 947 2416 947 1791 
Q 947 1169 1205 825 
Q 1463 481 1925 481 
Q 2391 481 2648 825 
Q 2906 1169 2906 1791 
z
M 3481 434 
Q 3481 -459 3084 -895 
Q 2688 -1331 1869 -1331 
Q 1566 -1331 1297 -1286 
Q 1028 -1241 775 -1147 
L 775 -588 
Q 1028 -725 1275 -790 
Q 1522 -856 1778 -856 
Q 2344 -856 2625 -561 
Q 2906 -266 2906 331 
L 2906 616 
Q 2728 306 2450 153 
Q 2172 0 1784 0 
Q 1141 0 747 490 
Q 353 981 353 1791 
Q 353 2603 747 3093 
Q 1141 3584 1784 3584 
Q 2172 3584 2450 3431 
Q 2728 3278 2906 2969 
L 2906 3500 
L 3481 3500 
L 3481 434 
z
" transform="scale(0.015625)"/>
       <path id="DejaVuSans-79" d="M 2059 -325 
Q 1816 -950 1584 -1140 
Q 1353 -1331 966 -1331 
L 506 -1331 
L 506 -850 
L 844 -850 
Q 1081 -850 1212 -737 
Q 1344 -625 1503 -206 
L 1606 56 
L 191 3500 
L 800 3500 
L 1894 763 
L 2988 3500 
L 3597 3500 
L 2059 -325 
z
" transform="scale(0.015625)"/>
      </defs>
      <use xlink:href="#DejaVuSans-45"/>
      <use xlink:href="#DejaVuSans-6e" x="63.183594"/>
      <use xlink:href="#DejaVuSans-65" x="126.5625"/>
      <use xlink:href="#DejaVuSans-72" x="188.085938"/>
      <use xlink:href="#DejaVuSans-67" x="227.449219"/>
      <use xlink:href="#DejaVuSans-79" x="290.925781"/>
      <use xlink:href="#DejaVuSans-20" x="350.105469"/>
      <use xlink:href="#DejaVuSans-5b" x="381.892578"/>
      <use xlink:href="#DejaVuSans-54" x="420.90625"/>
      <use xlink:href="#DejaVuSans-65" x="464.990234"/>
      <use xlink:href="#DejaVuSans-56" x="526.513672"/>
      <use xlink:href="#DejaVuSans-5d" x="594.921875"/>
     </g>
    </g>
   </g>
   <g id="matplotlib.axis_4">
    <g id="ytick_11">
     <g id="line2d_68">
      <g>
       <use xlink:href="#m8e0124a99a" x="60.221389" y="290.979036" style="stroke: #000000; stroke-width: 0.8"/>
      </g>
     </g>
     <g id="text_11">
      <!-- 0.55 -->
      <g transform="translate(30.955764 294.778255) scale(0.1 -0.1)">
       <defs>
        <path id="DejaVuSans-2e" d="M 684 794 
L 1344 794 
L 1344 0 
L 684 0 
L 684 794 
z
" transform="scale(0.015625)"/>
        <path id="DejaVuSans-35" d="M 691 4666 
L 3169 4666 
L 3169 4134 
L 1269 4134 
L 1269 2991 
Q 1406 3038 1543 3061 
Q 1681 3084 1819 3084 
Q 2600 3084 3056 2656 
Q 3513 2228 3513 1497 
Q 3513 744 3044 326 
Q 2575 -91 1722 -91 
Q 1428 -91 1123 -41 
Q 819 9 494 109 
L 494 744 
Q 775 591 1075 516 
Q 1375 441 1709 441 
Q 2250 441 2565 725 
Q 2881 1009 2881 1497 
Q 2881 1984 2565 2268 
Q 2250 2553 1709 2553 
Q 1456 2553 1204 2497 
Q 953 2441 691 2322 
L 691 4666 
z
" transform="scale(0.015625)"/>
       </defs>
       <use xlink:href="#DejaVuSans-30"/>
       <use xlink:href="#DejaVuSans-2e" x="63.623047"/>
       <use xlink:href="#DejaVuSans-35" x="95.410156"/>
       <use xlink:href="#DejaVuSans-35" x="159.033203"/>
      </g>
     </g>
    </g>
    <g id="ytick_12">
     <g id="line2d_69">
      <g>
       <use xlink:href="#m8e0124a99a" x="60.221389" y="261.813642" style="stroke: #000000; stroke-width: 0.8"/>
      </g>
     </g>
     <g id="text_12">
      <!-- 0.60 -->
      <g transform="translate(30.955764 265.612861) scale(0.1 -0.1)">
       <defs>
        <path id="DejaVuSans-36" d="M 2113 2584 
Q 1688 2584 1439 2293 
Q 1191 2003 1191 1497 
Q 1191 994 1439 701 
Q 1688 409 2113 409 
Q 2538 409 2786 701 
Q 3034 994 3034 1497 
Q 3034 2003 2786 2293 
Q 2538 2584 2113 2584 
z
M 3366 4563 
L 3366 3988 
Q 3128 4100 2886 4159 
Q 2644 4219 2406 4219 
Q 1781 4219 1451 3797 
Q 1122 3375 1075 2522 
Q 1259 2794 1537 2939 
Q 1816 3084 2150 3084 
Q 2853 3084 3261 2657 
Q 3669 2231 3669 1497 
Q 3669 778 3244 343 
Q 2819 -91 2113 -91 
Q 1303 -91 875 529 
Q 447 1150 447 2328 
Q 447 3434 972 4092 
Q 1497 4750 2381 4750 
Q 2619 4750 2861 4703 
Q 3103 4656 3366 4563 
z
" transform="scale(0.015625)"/>
       </defs>
       <use xlink:href="#DejaVuSans-30"/>
       <use xlink:href="#DejaVuSans-2e" x="63.623047"/>
       <use xlink:href="#DejaVuSans-36" x="95.410156"/>
       <use xlink:href="#DejaVuSans-30" x="159.033203"/>
      </g>
     </g>
    </g>
    <g id="ytick_13">
     <g id="line2d_70">
      <g>
       <use xlink:href="#m8e0124a99a" x="60.221389" y="232.648248" style="stroke: #000000; stroke-width: 0.8"/>
      </g>
     </g>
     <g id="text_13">
      <!-- 0.65 -->
      <g transform="translate(30.955764 236.447467) scale(0.1 -0.1)">
       <use xlink:href="#DejaVuSans-30"/>
       <use xlink:href="#DejaVuSans-2e" x="63.623047"/>
       <use xlink:href="#DejaVuSans-36" x="95.410156"/>
       <use xlink:href="#DejaVuSans-35" x="159.033203"/>
      </g>
     </g>
    </g>
    <g id="text_14">
     <!-- Coverage -->
     <g transform="translate(24.876077 283.687431) rotate(-90) scale(0.1 -0.1)">
      <defs>
       <path id="DejaVuSans-43" d="M 4122 4306 
L 4122 3641 
Q 3803 3938 3442 4084 
Q 3081 4231 2675 4231 
Q 1875 4231 1450 3742 
Q 1025 3253 1025 2328 
Q 1025 1406 1450 917 
Q 1875 428 2675 428 
Q 3081 428 3442 575 
Q 3803 722 4122 1019 
L 4122 359 
Q 3791 134 3420 21 
Q 3050 -91 2638 -91 
Q 1578 -91 968 557 
Q 359 1206 359 2328 
Q 359 3453 968 4101 
Q 1578 4750 2638 4750 
Q 3056 4750 3426 4639 
Q 3797 4528 4122 4306 
z
" transform="scale(0.015625)"/>
       <path id="DejaVuSans-76" d="M 191 3500 
L 800 3500 
L 1894 563 
L 2988 3500 
L 3597 3500 
L 2284 0 
L 1503 0 
L 191 3500 
z
" transform="scale(0.015625)"/>
      </defs>
      <use xlink:href="#DejaVuSans-43"/>
      <use xlink:href="#DejaVuSans-6f" x="69.824219"/>
      <use xlink:href="#DejaVuSans-76" x="131.005859"/>
      <use xlink:href="#DejaVuSans-65" x="190.185547"/>
      <use xlink:href="#DejaVuSans-72" x="251.708984"/>
      <use xlink:href="#DejaVuSans-61" x="292.822266"/>
      <use xlink:href="#DejaVuSans-67" x="354.101562"/>
      <use xlink:href="#DejaVuSans-65" x="417.578125"/>
     </g>
    </g>
   </g>
   <g id="line2d_71">
    <path d="M 73.356781 211.815824 
L 88.657611 232.648248 
L 103.958442 259.7304 
L 119.259272 274.313097 
L 134.560102 309.728218 
L 149.860933 282.646067 
L 165.161763 293.062279 
L 180.462594 295.145521 
L 195.763424 274.313097 
L 211.064254 251.39743 
L 226.365085 265.980127 
L 241.665915 259.7304 
L 256.966746 303.478491 
L 272.267576 238.897976 
L 287.568406 265.980127 
L 302.869237 272.229855 
L 318.170067 224.315279 
L 333.470898 249.314188 
" clip-path="url(#pb38a908a91)" style="fill: none; stroke: #ff0000; stroke-width: 1.5; stroke-linecap: square"/>
   </g>
   <g id="line2d_72">
    <path d="M 73.356781 209.732582 
L 88.657611 226.398521 
L 103.958442 236.814733 
L 119.259272 234.731491 
L 134.560102 274.313097 
L 149.860933 238.897976 
L 165.161763 255.563915 
L 180.462594 261.813642 
L 195.763424 257.647158 
L 211.064254 234.731491 
L 226.365085 257.647158 
L 241.665915 255.563915 
L 256.966746 299.312006 
L 272.267576 232.648248 
L 287.568406 261.813642 
L 302.869237 272.229855 
L 318.170067 224.315279 
L 333.470898 249.314188 
" clip-path="url(#pb38a908a91)" style="fill: none; stroke: #008000; stroke-width: 1.5; stroke-linecap: square"/>
   </g>
   <g id="line2d_73">
    <path d="M 73.356781 215.149012 
L 88.657611 215.149012 
L 103.958442 215.149012 
L 119.259272 215.149012 
L 134.560102 215.149012 
L 149.860933 215.149012 
L 165.161763 215.149012 
L 180.462594 215.149012 
L 195.763424 215.149012 
L 211.064254 215.149012 
L 226.365085 215.149012 
L 241.665915 215.149012 
L 256.966746 215.149012 
L 272.267576 215.149012 
L 287.568406 215.149012 
L 302.869237 215.149012 
L 318.170067 215.149012 
L 333.470898 215.149012 
" clip-path="url(#pb38a908a91)" style="fill: none; stroke-dasharray: 1.5,2.475; stroke-dashoffset: 0; stroke: #008000; stroke-width: 1.5"/>
   </g>
   <g id="patch_9">
    <path d="M 60.221389 314.728 
L 60.221389 204.7328 
" style="fill: none; stroke: #000000; stroke-width: 0.8; stroke-linejoin: miter; stroke-linecap: square"/>
   </g>
   <g id="patch_10">
    <path d="M 349.2 314.728 
L 349.2 204.7328 
" style="fill: none; stroke: #000000; stroke-width: 0.8; stroke-linejoin: miter; stroke-linecap: square"/>
   </g>
   <g id="patch_11">
    <path d="M 60.221389 314.728 
L 349.2 314.728 
" style="fill: none; stroke: #000000; stroke-width: 0.8; stroke-linejoin: miter; stroke-linecap: square"/>
   </g>
   <g id="patch_12">
    <path d="M 60.221389 204.7328 
L 349.2 204.7328 
" style="fill: none; stroke: #000000; stroke-width: 0.8; stroke-linejoin: miter; stroke-linecap: square"/>
   </g>
   <g id="legend_2">
    <g id="patch_13">
     <path d="M 67.221389 309.728 
L 145.144827 309.728 
Q 147.144827 309.728 147.144827 307.728 
L 147.144827 264.693625 
Q 147.144827 262.693625 145.144827 262.693625 
L 67.221389 262.693625 
Q 65.221389 262.693625 65.221389 264.693625 
L 65.221389 307.728 
Q 65.221389 309.728 67.221389 309.728 
z
" style="fill: #ffffff; opacity: 0.8; stroke: #cccccc; stroke-linejoin: miter"/>
    </g>
    <g id="line2d_74">
     <path d="M 69.221389 270.792063 
L 79.221389 270.792063 
L 89.221389 270.792063 
" style="fill: none; stroke: #ff0000; stroke-width: 1.5; stroke-linecap: square"/>
    </g>
    <g id="text_15">
     <!-- Standard -->
     <g transform="translate(97.221389 274.292063) scale(0.1 -0.1)">
      <use xlink:href="#DejaVuSans-53"/>
      <use xlink:href="#DejaVuSans-74" x="63.476562"/>
      <use xlink:href="#DejaVuSans-61" x="102.685547"/>
      <use xlink:href="#DejaVuSans-6e" x="163.964844"/>
      <use xlink:href="#DejaVuSans-64" x="227.34375"/>
      <use xlink:href="#DejaVuSans-61" x="290.820312"/>
      <use xlink:href="#DejaVuSans-72" x="352.099609"/>
      <use xlink:href="#DejaVuSans-64" x="391.462891"/>
     </g>
    </g>
    <g id="line2d_75">
     <path d="M 69.221389 285.470188 
L 79.221389 285.470188 
L 89.221389 285.470188 
" style="fill: none; stroke: #008000; stroke-width: 1.5; stroke-linecap: square"/>
    </g>
    <g id="text_16">
     <!-- Nuisance -->
     <g transform="translate(97.221389 288.970188) scale(0.1 -0.1)">
      <use xlink:href="#DejaVuSans-4e"/>
      <use xlink:href="#DejaVuSans-75" x="74.804688"/>
      <use xlink:href="#DejaVuSans-69" x="138.183594"/>
      <use xlink:href="#DejaVuSans-73" x="165.966797"/>
      <use xlink:href="#DejaVuSans-61" x="218.066406"/>
      <use xlink:href="#DejaVuSans-6e" x="279.345703"/>
      <use xlink:href="#DejaVuSans-63" x="342.724609"/>
      <use xlink:href="#DejaVuSans-65" x="397.705078"/>
     </g>
    </g>
    <g id="line2d_76">
     <path d="M 69.221389 300.148313 
L 79.221389 300.148313 
L 89.221389 300.148313 
" style="fill: none; stroke-dasharray: 1.5,2.475; stroke-dashoffset: 0; stroke: #008000; stroke-width: 1.5"/>
    </g>
    <g id="text_17">
     <!-- 68 % -->
     <g transform="translate(97.221389 303.648313) scale(0.1 -0.1)">
      <defs>
       <path id="DejaVuSans-25" d="M 4653 2053 
Q 4381 2053 4226 1822 
Q 4072 1591 4072 1178 
Q 4072 772 4226 539 
Q 4381 306 4653 306 
Q 4919 306 5073 539 
Q 5228 772 5228 1178 
Q 5228 1588 5073 1820 
Q 4919 2053 4653 2053 
z
M 4653 2450 
Q 5147 2450 5437 2106 
Q 5728 1763 5728 1178 
Q 5728 594 5436 251 
Q 5144 -91 4653 -91 
Q 4153 -91 3862 251 
Q 3572 594 3572 1178 
Q 3572 1766 3864 2108 
Q 4156 2450 4653 2450 
z
M 1428 4353 
Q 1159 4353 1004 4120 
Q 850 3888 850 3481 
Q 850 3069 1003 2837 
Q 1156 2606 1428 2606 
Q 1700 2606 1854 2837 
Q 2009 3069 2009 3481 
Q 2009 3884 1853 4118 
Q 1697 4353 1428 4353 
z
M 4250 4750 
L 4750 4750 
L 1831 -91 
L 1331 -91 
L 4250 4750 
z
M 1428 4750 
Q 1922 4750 2215 4408 
Q 2509 4066 2509 3481 
Q 2509 2891 2217 2550 
Q 1925 2209 1428 2209 
Q 931 2209 642 2551 
Q 353 2894 353 3481 
Q 353 4063 643 4406 
Q 934 4750 1428 4750 
z
" transform="scale(0.015625)"/>
      </defs>
      <use xlink:href="#DejaVuSans-36"/>
      <use xlink:href="#DejaVuSans-38" x="63.623047"/>
      <use xlink:href="#DejaVuSans-20" x="127.246094"/>
      <use xlink:href="#DejaVuSans-25" x="159.033203"/>
     </g>
    </g>
   </g>
  </g>
 </g>
 <defs>
  <clipPath id="p7d3524c74a">
   <rect x="60.221389" y="25.44" width="288.978611" height="164.9928"/>
  </clipPath>
  <clipPath id="pb38a908a91">
   <rect x="60.221389" y="204.7328" width="288.978611" height="109.9952"/>
  </clipPath>
 </defs>
</svg>
