<?xml version="1.0" encoding="utf-8" standalone="no"?>
<!DOCTYPE svg PUBLIC "-//W3C//DTD SVG 1.1//EN"
  "http://www.w3.org/Graphics/SVG/1.1/DTD/svg11.dtd">
<svg xmlns:xlink="http://www.w3.org/1999/xlink" width="360pt" height="360pt" viewBox="0 0 360 360" xmlns="http://www.w3.org/2000/svg" version="1.1">
 <metadata>
  <rdf:RDF xmlns:dc="http://purl.org/dc/elements/1.1/" xmlns:cc="http://creativecommons.org/ns#" xmlns:rdf="http://www.w3.org/1999/02/22-rdf-syntax-ns#">
   <cc:Work>
    <dc:type rdf:resource="http://purl.org/dc/dcmitype/StillImage"/>
    <dc:date>2023-02-01T13:09:58.267588</dc:date>
    <dc:format>image/svg+xml</dc:format>
    <dc:creator>
     <cc:Agent>
      <dc:title>Matplotlib v3.6.2, https://matplotlib.org/</dc:title>
     </cc:Agent>
    </dc:creator>
   </cc:Work>
  </rdf:RDF>
 </metadata>
 <defs>
  <style type="text/css">*{stroke-linejoin: round; stroke-linecap: butt}</style>
 </defs>
 <g id="figure_1">
  <g id="patch_1">
   <path d="M 0 360 
L 360 360 
L 360 0 
L 0 0 
z
" style="fill: #ffffff"/>
  </g>
  <g id="axes_1">
   <g id="patch_2">
    <path d="M 60.333889 190.4328 
L 349.2 190.4328 
L 349.2 25.44 
L 60.333889 25.44 
z
" style="fill: #ffffff"/>
   </g>
   <g id="PolyCollection_1">
    <path d="M 74.752107 58.767183 
L 74.752107 73.159944 
L 77.327987 73.67334 
L 79.903868 74.188582 
L 82.479748 74.705713 
L 85.055628 75.22478 
L 87.631508 75.74583 
L 90.207388 76.268911 
L 92.783269 76.794073 
L 95.359149 77.321368 
L 97.935029 77.850847 
L 100.510909 78.382566 
L 103.08679 78.916578 
L 105.66267 79.452939 
L 108.23855 79.991705 
L 110.81443 80.532935 
L 113.39031 81.076685 
L 115.966191 81.623014 
L 118.542071 82.171979 
L 121.117951 82.72364 
L 123.693831 83.278054 
L 126.269711 83.835278 
L 128.845592 84.395369 
L 131.421472 84.958383 
L 133.997352 85.524374 
L 136.573232 86.093395 
L 139.149112 86.665495 
L 141.724993 87.240724 
L 144.300873 87.819126 
L 146.876753 88.400746 
L 149.452633 88.985622 
L 152.028514 89.57379 
L 154.604394 90.165283 
L 157.180274 90.76013 
L 159.756154 91.358355 
L 162.332034 91.959976 
L 164.907915 92.565011 
L 167.483795 93.173468 
L 170.059675 93.785354 
L 172.635555 94.40067 
L 175.211435 95.019411 
L 177.787316 95.64157 
L 180.363196 96.267132 
L 182.939076 96.896079 
L 185.514956 97.528389 
L 188.090836 98.164034 
L 190.666717 98.802984 
L 193.242597 99.445204 
L 195.818477 100.090656 
L 198.394357 100.739298 
L 200.970238 101.391085 
L 203.546118 102.045969 
L 206.121998 102.703901 
L 208.697878 103.36483 
L 211.273758 104.028701 
L 213.849639 104.695459 
L 216.425519 105.365049 
L 219.001399 106.037412 
L 221.577279 106.712492 
L 224.153159 107.390229 
L 226.72904 108.070567 
L 229.30492 108.753446 
L 231.8808 109.438808 
L 234.45668 110.126597 
L 237.03256 110.816755 
L 239.608441 111.509227 
L 242.184321 112.203956 
L 244.760201 112.900891 
L 247.336081 113.599976 
L 249.911962 114.301162 
L 252.487842 115.004396 
L 255.063722 115.709631 
L 257.639602 116.416818 
L 260.215482 117.125911 
L 262.791363 117.836866 
L 265.367243 118.549638 
L 267.943123 119.264186 
L 270.519003 119.980469 
L 273.094883 120.698448 
L 275.670764 121.418086 
L 278.246644 122.139347 
L 280.822524 122.862195 
L 283.398404 123.586597 
L 285.974285 124.31252 
L 288.550165 125.039936 
L 291.126045 125.768812 
L 293.701925 126.499122 
L 296.277805 127.230839 
L 298.853686 127.963936 
L 301.429566 128.698389 
L 304.005446 129.434174 
L 306.581326 130.17127 
L 309.157206 130.909653 
L 311.733087 131.649305 
L 314.308967 132.390205 
L 316.884847 133.132334 
L 319.460727 133.875677 
L 322.036607 134.620215 
L 324.612488 135.365933 
L 327.188368 136.112816 
L 329.764248 136.860849 
L 329.764248 117.364993 
L 329.764248 117.364993 
L 327.188368 116.837647 
L 324.612488 116.310023 
L 322.036607 115.782106 
L 319.460727 115.253877 
L 316.884847 114.725317 
L 314.308967 114.196406 
L 311.733087 113.667125 
L 309.157206 113.137452 
L 306.581326 112.607365 
L 304.005446 112.076841 
L 301.429566 111.545856 
L 298.853686 111.014385 
L 296.277805 110.482402 
L 293.701925 109.949879 
L 291.126045 109.41679 
L 288.550165 108.883103 
L 285.974285 108.34879 
L 283.398404 107.813817 
L 280.822524 107.278154 
L 278.246644 106.741764 
L 275.670764 106.204613 
L 273.094883 105.666663 
L 270.519003 105.127878 
L 267.943123 104.588217 
L 265.367243 104.047639 
L 262.791363 103.506102 
L 260.215482 102.963563 
L 257.639602 102.419976 
L 255.063722 101.875295 
L 252.487842 101.329472 
L 249.911962 100.782458 
L 247.336081 100.234202 
L 244.760201 99.684653 
L 242.184321 99.133756 
L 239.608441 98.581459 
L 237.03256 98.027705 
L 234.45668 97.472439 
L 231.8808 96.915604 
L 229.30492 96.35714 
L 226.72904 95.796991 
L 224.153159 95.235096 
L 221.577279 94.671397 
L 219.001399 94.105835 
L 216.425519 93.538351 
L 213.849639 92.968885 
L 211.273758 92.39738 
L 208.697878 91.823779 
L 206.121998 91.248027 
L 203.546118 90.670068 
L 200.970238 90.08985 
L 198.394357 89.507324 
L 195.818477 88.92244 
L 193.242597 88.335155 
L 190.666717 87.745425 
L 188.090836 87.153212 
L 185.514956 86.558481 
L 182.939076 85.961201 
L 180.363196 85.361343 
L 177.787316 84.758887 
L 175.211435 84.153812 
L 172.635555 83.546107 
L 170.059675 82.935761 
L 167.483795 82.32277 
L 164.907915 81.707136 
L 162.332034 81.088865 
L 159.756154 80.467967 
L 157.180274 79.844457 
L 154.604394 79.218355 
L 152.028514 78.589686 
L 149.452633 77.958478 
L 146.876753 77.324765 
L 144.300873 76.688582 
L 141.724993 76.04997 
L 139.149112 75.408971 
L 136.573232 74.765633 
L 133.997352 74.120004 
L 131.421472 73.472135 
L 128.845592 72.822079 
L 126.269711 72.169892 
L 123.693831 71.515629 
L 121.117951 70.859348 
L 118.542071 70.201107 
L 115.966191 69.540964 
L 113.39031 68.87898 
L 110.81443 68.215213 
L 108.23855 67.549723 
L 105.66267 66.882568 
L 103.08679 66.213806 
L 100.510909 65.543495 
L 97.935029 64.871692 
L 95.359149 64.198453 
L 92.783269 63.523833 
L 90.207388 62.847885 
L 87.631508 62.170663 
L 85.055628 61.492217 
L 82.479748 60.812598 
L 79.903868 60.131855 
L 77.327987 59.450035 
L 74.752107 58.767183 
z
" clip-path="url(#pba3fa1d7ad)" style="fill: #008000; fill-opacity: 0.5"/>
   </g>
   <g id="PolyCollection_2">
    <path d="M 74.752107 60.480886 
L 74.752107 70.854291 
L 77.327987 71.344616 
L 79.903868 71.836302 
L 82.479748 72.329404 
L 85.055628 72.823983 
L 87.631508 73.320103 
L 90.207388 73.817835 
L 92.783269 74.317255 
L 95.359149 74.818447 
L 97.935029 75.3215 
L 100.510909 75.826512 
L 103.08679 76.333587 
L 105.66267 76.842841 
L 108.23855 77.354395 
L 110.81443 77.868384 
L 113.39031 78.384949 
L 115.966191 78.904245 
L 118.542071 79.426435 
L 121.117951 79.951695 
L 123.693831 80.480212 
L 126.269711 81.012182 
L 128.845592 81.547814 
L 131.421472 82.087324 
L 133.997352 82.630938 
L 136.573232 83.178887 
L 139.149112 83.731407 
L 141.724993 84.288735 
L 144.300873 84.851105 
L 146.876753 85.418744 
L 149.452633 85.991872 
L 152.028514 86.570689 
L 154.604394 87.155378 
L 157.180274 87.746094 
L 159.756154 88.342966 
L 162.332034 88.946085 
L 164.907915 89.55551 
L 167.483795 90.171259 
L 170.059675 90.793313 
L 172.635555 91.421613 
L 175.211435 92.056065 
L 177.787316 92.696541 
L 180.363196 93.342885 
L 182.939076 93.994913 
L 185.514956 94.652424 
L 188.090836 95.315199 
L 190.666717 95.983011 
L 193.242597 96.655625 
L 195.818477 97.332803 
L 198.394357 98.014311 
L 200.970238 98.699917 
L 203.546118 99.389396 
L 206.121998 100.082531 
L 208.697878 100.779114 
L 211.273758 101.47895 
L 213.849639 102.18185 
L 216.425519 102.887641 
L 219.001399 103.596158 
L 221.577279 104.307249 
L 224.153159 105.02077 
L 226.72904 105.736588 
L 229.30492 106.454582 
L 231.8808 107.174637 
L 234.45668 107.896648 
L 237.03256 108.620517 
L 239.608441 109.346156 
L 242.184321 110.073481 
L 244.760201 110.802417 
L 247.336081 111.532891 
L 249.911962 112.264841 
L 252.487842 112.998205 
L 255.063722 113.732929 
L 257.639602 114.468963 
L 260.215482 115.206258 
L 262.791363 115.944772 
L 265.367243 116.684465 
L 267.943123 117.425301 
L 270.519003 118.167245 
L 273.094883 118.910267 
L 275.670764 119.654337 
L 278.246644 120.399429 
L 280.822524 121.145519 
L 283.398404 121.892584 
L 285.974285 122.640603 
L 288.550165 123.389558 
L 291.126045 124.13943 
L 293.701925 124.890203 
L 296.277805 125.641862 
L 298.853686 126.394394 
L 301.429566 127.147787 
L 304.005446 127.902027 
L 306.581326 128.657106 
L 309.157206 129.413013 
L 311.733087 130.16974 
L 314.308967 130.927278 
L 316.884847 131.68562 
L 319.460727 132.44476 
L 322.036607 133.204692 
L 324.612488 133.96541 
L 327.188368 134.72691 
L 329.764248 135.489187 
L 329.764248 118.248236 
L 329.764248 118.248236 
L 327.188368 117.7351 
L 324.612488 117.222039 
L 322.036607 116.709047 
L 319.460727 116.196115 
L 316.884847 115.683235 
L 314.308967 115.170399 
L 311.733087 114.657597 
L 309.157206 114.14482 
L 306.581326 113.632056 
L 304.005446 113.119295 
L 301.429566 112.606524 
L 298.853686 112.09373 
L 296.277805 111.580899 
L 293.701925 111.068017 
L 291.126045 110.555067 
L 288.550165 110.042033 
L 285.974285 109.528895 
L 283.398404 109.015634 
L 280.822524 108.502229 
L 278.246644 107.988657 
L 275.670764 107.474893 
L 273.094883 106.960912 
L 270.519003 106.446684 
L 267.943123 105.932179 
L 265.367243 105.417364 
L 262.791363 104.902203 
L 260.215482 104.386659 
L 257.639602 103.870689 
L 255.063722 103.354248 
L 252.487842 102.83729 
L 249.911962 102.31976 
L 247.336081 101.801603 
L 244.760201 101.282757 
L 242.184321 100.763156 
L 239.608441 100.242729 
L 237.03256 99.721397 
L 234.45668 99.199077 
L 231.8808 98.675678 
L 229.30492 98.151101 
L 226.72904 97.625241 
L 224.153159 97.097982 
L 221.577279 96.5692 
L 219.001399 96.038762 
L 216.425519 95.506525 
L 213.849639 94.972334 
L 211.273758 94.436024 
L 208.697878 93.89742 
L 206.121998 93.356335 
L 203.546118 92.812571 
L 200.970238 92.265919 
L 198.394357 91.716163 
L 195.818477 91.163076 
L 193.242597 90.606428 
L 190.666717 90.045981 
L 188.090836 89.481498 
L 185.514956 88.912745 
L 182.939076 88.339493 
L 180.363196 87.761524 
L 177.787316 87.178635 
L 175.211435 86.590643 
L 172.635555 85.997392 
L 170.059675 85.398753 
L 167.483795 84.794631 
L 164.907915 84.18497 
L 162.332034 83.569748 
L 159.756154 82.948985 
L 157.180274 82.322739 
L 154.604394 81.691101 
L 152.028514 81.054201 
L 149.452633 80.412193 
L 146.876753 79.765261 
L 144.300873 79.113607 
L 141.724993 78.457448 
L 139.149112 77.797012 
L 136.573232 77.132535 
L 133.997352 76.464255 
L 131.421472 75.792406 
L 128.845592 75.117221 
L 126.269711 74.438926 
L 123.693831 73.757738 
L 121.117951 73.073867 
L 118.542071 72.387509 
L 115.966191 71.698852 
L 113.39031 71.008073 
L 110.81443 70.315335 
L 108.23855 69.620795 
L 105.66267 68.924595 
L 103.08679 68.226869 
L 100.510909 67.527742 
L 97.935029 66.827328 
L 95.359149 66.125734 
L 92.783269 65.423058 
L 90.207388 64.719392 
L 87.631508 64.014819 
L 85.055628 63.309418 
L 82.479748 62.603261 
L 79.903868 61.896412 
L 77.327987 61.188935 
L 74.752107 60.480886 
z
" clip-path="url(#pba3fa1d7ad)" style="fill: #ff0000; fill-opacity: 0.6"/>
   </g>
   <g id="matplotlib.axis_1">
    <g id="xtick_1">
     <g id="line2d_1">
      <defs>
       <path id="ma331fb6496" d="M 0 0 
L 0 3.5 
" style="stroke: #000000; stroke-width: 0.8"/>
      </defs>
      <g>
       <use xlink:href="#ma331fb6496" x="111.344758" y="190.4328" style="stroke: #000000; stroke-width: 0.8"/>
      </g>
     </g>
    </g>
    <g id="xtick_2">
     <g id="line2d_2">
      <g>
       <use xlink:href="#ma331fb6496" x="232.562651" y="190.4328" style="stroke: #000000; stroke-width: 0.8"/>
      </g>
     </g>
    </g>
    <g id="xtick_3">
     <g id="line2d_3">
      <defs>
       <path id="ma91dd483bf" d="M 0 0 
L 0 2 
" style="stroke: #000000; stroke-width: 0.6"/>
      </defs>
      <g>
       <use xlink:href="#ma91dd483bf" x="63.107309" y="190.4328" style="stroke: #000000; stroke-width: 0.6"/>
      </g>
     </g>
    </g>
    <g id="xtick_4">
     <g id="line2d_4">
      <g>
       <use xlink:href="#ma91dd483bf" x="74.854537" y="190.4328" style="stroke: #000000; stroke-width: 0.6"/>
      </g>
     </g>
    </g>
    <g id="xtick_5">
     <g id="line2d_5">
      <g>
       <use xlink:href="#ma91dd483bf" x="84.452721" y="190.4328" style="stroke: #000000; stroke-width: 0.6"/>
      </g>
     </g>
    </g>
    <g id="xtick_6">
     <g id="line2d_6">
      <g>
       <use xlink:href="#ma91dd483bf" x="92.567869" y="190.4328" style="stroke: #000000; stroke-width: 0.6"/>
      </g>
     </g>
    </g>
    <g id="xtick_7">
     <g id="line2d_7">
      <g>
       <use xlink:href="#ma91dd483bf" x="99.597531" y="190.4328" style="stroke: #000000; stroke-width: 0.6"/>
      </g>
     </g>
    </g>
    <g id="xtick_8">
     <g id="line2d_8">
      <g>
       <use xlink:href="#ma91dd483bf" x="105.798132" y="190.4328" style="stroke: #000000; stroke-width: 0.6"/>
      </g>
     </g>
    </g>
    <g id="xtick_9">
     <g id="line2d_9">
      <g>
       <use xlink:href="#ma91dd483bf" x="147.83498" y="190.4328" style="stroke: #000000; stroke-width: 0.6"/>
      </g>
     </g>
    </g>
    <g id="xtick_10">
     <g id="line2d_10">
      <g>
       <use xlink:href="#ma91dd483bf" x="169.180391" y="190.4328" style="stroke: #000000; stroke-width: 0.6"/>
      </g>
     </g>
    </g>
    <g id="xtick_11">
     <g id="line2d_11">
      <g>
       <use xlink:href="#ma91dd483bf" x="184.325202" y="190.4328" style="stroke: #000000; stroke-width: 0.6"/>
      </g>
     </g>
    </g>
    <g id="xtick_12">
     <g id="line2d_12">
      <g>
       <use xlink:href="#ma91dd483bf" x="196.072429" y="190.4328" style="stroke: #000000; stroke-width: 0.6"/>
      </g>
     </g>
    </g>
    <g id="xtick_13">
     <g id="line2d_13">
      <g>
       <use xlink:href="#ma91dd483bf" x="205.670613" y="190.4328" style="stroke: #000000; stroke-width: 0.6"/>
      </g>
     </g>
    </g>
    <g id="xtick_14">
     <g id="line2d_14">
      <g>
       <use xlink:href="#ma91dd483bf" x="213.785762" y="190.4328" style="stroke: #000000; stroke-width: 0.6"/>
      </g>
     </g>
    </g>
    <g id="xtick_15">
     <g id="line2d_15">
      <g>
       <use xlink:href="#ma91dd483bf" x="220.815423" y="190.4328" style="stroke: #000000; stroke-width: 0.6"/>
      </g>
     </g>
    </g>
    <g id="xtick_16">
     <g id="line2d_16">
      <g>
       <use xlink:href="#ma91dd483bf" x="227.016024" y="190.4328" style="stroke: #000000; stroke-width: 0.6"/>
      </g>
     </g>
    </g>
    <g id="xtick_17">
     <g id="line2d_17">
      <g>
       <use xlink:href="#ma91dd483bf" x="269.052872" y="190.4328" style="stroke: #000000; stroke-width: 0.6"/>
      </g>
     </g>
    </g>
    <g id="xtick_18">
     <g id="line2d_18">
      <g>
       <use xlink:href="#ma91dd483bf" x="290.398284" y="190.4328" style="stroke: #000000; stroke-width: 0.6"/>
      </g>
     </g>
    </g>
    <g id="xtick_19">
     <g id="line2d_19">
      <g>
       <use xlink:href="#ma91dd483bf" x="305.543094" y="190.4328" style="stroke: #000000; stroke-width: 0.6"/>
      </g>
     </g>
    </g>
    <g id="xtick_20">
     <g id="line2d_20">
      <g>
       <use xlink:href="#ma91dd483bf" x="317.290321" y="190.4328" style="stroke: #000000; stroke-width: 0.6"/>
      </g>
     </g>
    </g>
    <g id="xtick_21">
     <g id="line2d_21">
      <g>
       <use xlink:href="#ma91dd483bf" x="326.888505" y="190.4328" style="stroke: #000000; stroke-width: 0.6"/>
      </g>
     </g>
    </g>
    <g id="xtick_22">
     <g id="line2d_22">
      <g>
       <use xlink:href="#ma91dd483bf" x="335.003654" y="190.4328" style="stroke: #000000; stroke-width: 0.6"/>
      </g>
     </g>
    </g>
    <g id="xtick_23">
     <g id="line2d_23">
      <g>
       <use xlink:href="#ma91dd483bf" x="342.033315" y="190.4328" style="stroke: #000000; stroke-width: 0.6"/>
      </g>
     </g>
    </g>
    <g id="xtick_24">
     <g id="line2d_24">
      <g>
       <use xlink:href="#ma91dd483bf" x="348.233916" y="190.4328" style="stroke: #000000; stroke-width: 0.6"/>
      </g>
     </g>
    </g>
   </g>
   <g id="matplotlib.axis_2">
    <g id="ytick_1">
     <g id="line2d_25">
      <defs>
       <path id="mc79cd89548" d="M 0 0 
L -3.5 0 
" style="stroke: #000000; stroke-width: 0.8"/>
      </defs>
      <g>
       <use xlink:href="#mc79cd89548" x="60.333889" y="170.127241" style="stroke: #000000; stroke-width: 0.8"/>
      </g>
     </g>
     <g id="text_1">
      <!-- $\mathdefault{10^{-13}}$ -->
      <g transform="translate(25.433889 173.92646) scale(0.1 -0.1)">
       <defs>
        <path id="DejaVuSans-31" d="M 794 531 
L 1825 531 
L 1825 4091 
L 703 3866 
L 703 4441 
L 1819 4666 
L 2450 4666 
L 2450 531 
L 3481 531 
L 3481 0 
L 794 0 
L 794 531 
z
" transform="scale(0.015625)"/>
        <path id="DejaVuSans-30" d="M 2034 4250 
Q 1547 4250 1301 3770 
Q 1056 3291 1056 2328 
Q 1056 1369 1301 889 
Q 1547 409 2034 409 
Q 2525 409 2770 889 
Q 3016 1369 3016 2328 
Q 3016 3291 2770 3770 
Q 2525 4250 2034 4250 
z
M 2034 4750 
Q 2819 4750 3233 4129 
Q 3647 3509 3647 2328 
Q 3647 1150 3233 529 
Q 2819 -91 2034 -91 
Q 1250 -91 836 529 
Q 422 1150 422 2328 
Q 422 3509 836 4129 
Q 1250 4750 2034 4750 
z
" transform="scale(0.015625)"/>
        <path id="DejaVuSans-2212" d="M 678 2272 
L 4684 2272 
L 4684 1741 
L 678 1741 
L 678 2272 
z
" transform="scale(0.015625)"/>
        <path id="DejaVuSans-33" d="M 2597 2516 
Q 3050 2419 3304 2112 
Q 3559 1806 3559 1356 
Q 3559 666 3084 287 
Q 2609 -91 1734 -91 
Q 1441 -91 1130 -33 
Q 819 25 488 141 
L 488 750 
Q 750 597 1062 519 
Q 1375 441 1716 441 
Q 2309 441 2620 675 
Q 2931 909 2931 1356 
Q 2931 1769 2642 2001 
Q 2353 2234 1838 2234 
L 1294 2234 
L 1294 2753 
L 1863 2753 
Q 2328 2753 2575 2939 
Q 2822 3125 2822 3475 
Q 2822 3834 2567 4026 
Q 2313 4219 1838 4219 
Q 1578 4219 1281 4162 
Q 984 4106 628 3988 
L 628 4550 
Q 988 4650 1302 4700 
Q 1616 4750 1894 4750 
Q 2613 4750 3031 4423 
Q 3450 4097 3450 3541 
Q 3450 3153 3228 2886 
Q 3006 2619 2597 2516 
z
" transform="scale(0.015625)"/>
       </defs>
       <use xlink:href="#DejaVuSans-31" transform="translate(0 0.765625)"/>
       <use xlink:href="#DejaVuSans-30" transform="translate(63.623047 0.765625)"/>
       <use xlink:href="#DejaVuSans-2212" transform="translate(128.203125 39.046875) scale(0.7)"/>
       <use xlink:href="#DejaVuSans-31" transform="translate(186.855469 39.046875) scale(0.7)"/>
       <use xlink:href="#DejaVuSans-33" transform="translate(231.391602 39.046875) scale(0.7)"/>
      </g>
     </g>
    </g>
    <g id="ytick_2">
     <g id="line2d_26">
      <g>
       <use xlink:href="#mc79cd89548" x="60.333889" y="74.047299" style="stroke: #000000; stroke-width: 0.8"/>
      </g>
     </g>
     <g id="text_2">
      <!-- $\mathdefault{10^{-12}}$ -->
      <g transform="translate(25.433889 77.846518) scale(0.1 -0.1)">
       <defs>
        <path id="DejaVuSans-32" d="M 1228 531 
L 3431 531 
L 3431 0 
L 469 0 
L 469 531 
Q 828 903 1448 1529 
Q 2069 2156 2228 2338 
Q 2531 2678 2651 2914 
Q 2772 3150 2772 3378 
Q 2772 3750 2511 3984 
Q 2250 4219 1831 4219 
Q 1534 4219 1204 4116 
Q 875 4013 500 3803 
L 500 4441 
Q 881 4594 1212 4672 
Q 1544 4750 1819 4750 
Q 2544 4750 2975 4387 
Q 3406 4025 3406 3419 
Q 3406 3131 3298 2873 
Q 3191 2616 2906 2266 
Q 2828 2175 2409 1742 
Q 1991 1309 1228 531 
z
" transform="scale(0.015625)"/>
       </defs>
       <use xlink:href="#DejaVuSans-31" transform="translate(0 0.765625)"/>
       <use xlink:href="#DejaVuSans-30" transform="translate(63.623047 0.765625)"/>
       <use xlink:href="#DejaVuSans-2212" transform="translate(128.203125 39.046875) scale(0.7)"/>
       <use xlink:href="#DejaVuSans-31" transform="translate(186.855469 39.046875) scale(0.7)"/>
       <use xlink:href="#DejaVuSans-32" transform="translate(231.391602 39.046875) scale(0.7)"/>
      </g>
     </g>
    </g>
    <g id="ytick_3">
     <g id="line2d_27">
      <defs>
       <path id="m1ef9b44db0" d="M 0 0 
L -2 0 
" style="stroke: #000000; stroke-width: 0.6"/>
      </defs>
      <g>
       <use xlink:href="#m1ef9b44db0" x="60.333889" y="185.010212" style="stroke: #000000; stroke-width: 0.6"/>
      </g>
     </g>
    </g>
    <g id="ytick_4">
     <g id="line2d_28">
      <g>
       <use xlink:href="#m1ef9b44db0" x="60.333889" y="179.438349" style="stroke: #000000; stroke-width: 0.6"/>
      </g>
     </g>
    </g>
    <g id="ytick_5">
     <g id="line2d_29">
      <g>
       <use xlink:href="#m1ef9b44db0" x="60.333889" y="174.523618" style="stroke: #000000; stroke-width: 0.6"/>
      </g>
     </g>
    </g>
    <g id="ytick_6">
     <g id="line2d_30">
      <g>
       <use xlink:href="#m1ef9b44db0" x="60.333889" y="141.204296" style="stroke: #000000; stroke-width: 0.6"/>
      </g>
     </g>
    </g>
    <g id="ytick_7">
     <g id="line2d_31">
      <g>
       <use xlink:href="#m1ef9b44db0" x="60.333889" y="124.285459" style="stroke: #000000; stroke-width: 0.6"/>
      </g>
     </g>
    </g>
    <g id="ytick_8">
     <g id="line2d_32">
      <g>
       <use xlink:href="#m1ef9b44db0" x="60.333889" y="112.281352" style="stroke: #000000; stroke-width: 0.6"/>
      </g>
     </g>
    </g>
    <g id="ytick_9">
     <g id="line2d_33">
      <g>
       <use xlink:href="#m1ef9b44db0" x="60.333889" y="102.970244" style="stroke: #000000; stroke-width: 0.6"/>
      </g>
     </g>
    </g>
    <g id="ytick_10">
     <g id="line2d_34">
      <g>
       <use xlink:href="#m1ef9b44db0" x="60.333889" y="95.362514" style="stroke: #000000; stroke-width: 0.6"/>
      </g>
     </g>
    </g>
    <g id="ytick_11">
     <g id="line2d_35">
      <g>
       <use xlink:href="#m1ef9b44db0" x="60.333889" y="88.93027" style="stroke: #000000; stroke-width: 0.6"/>
      </g>
     </g>
    </g>
    <g id="ytick_12">
     <g id="line2d_36">
      <g>
       <use xlink:href="#m1ef9b44db0" x="60.333889" y="83.358408" style="stroke: #000000; stroke-width: 0.6"/>
      </g>
     </g>
    </g>
    <g id="ytick_13">
     <g id="line2d_37">
      <g>
       <use xlink:href="#m1ef9b44db0" x="60.333889" y="78.443676" style="stroke: #000000; stroke-width: 0.6"/>
      </g>
     </g>
    </g>
    <g id="ytick_14">
     <g id="line2d_38">
      <g>
       <use xlink:href="#m1ef9b44db0" x="60.333889" y="45.124355" style="stroke: #000000; stroke-width: 0.6"/>
      </g>
     </g>
    </g>
    <g id="ytick_15">
     <g id="line2d_39">
      <g>
       <use xlink:href="#m1ef9b44db0" x="60.333889" y="28.205517" style="stroke: #000000; stroke-width: 0.6"/>
      </g>
     </g>
    </g>
    <g id="text_3">
     <!-- e2 * dnde [TeV / (cm2 s)] -->
     <g transform="translate(19.354202 170.416088) rotate(-90) scale(0.1 -0.1)">
      <defs>
       <path id="DejaVuSans-65" d="M 3597 1894 
L 3597 1613 
L 953 1613 
Q 991 1019 1311 708 
Q 1631 397 2203 397 
Q 2534 397 2845 478 
Q 3156 559 3463 722 
L 3463 178 
Q 3153 47 2828 -22 
Q 2503 -91 2169 -91 
Q 1331 -91 842 396 
Q 353 884 353 1716 
Q 353 2575 817 3079 
Q 1281 3584 2069 3584 
Q 2775 3584 3186 3129 
Q 3597 2675 3597 1894 
z
M 3022 2063 
Q 3016 2534 2758 2815 
Q 2500 3097 2075 3097 
Q 1594 3097 1305 2825 
Q 1016 2553 972 2059 
L 3022 2063 
z
" transform="scale(0.015625)"/>
       <path id="DejaVuSans-20" transform="scale(0.015625)"/>
       <path id="DejaVuSans-2a" d="M 3009 3897 
L 1888 3291 
L 3009 2681 
L 2828 2375 
L 1778 3009 
L 1778 1831 
L 1422 1831 
L 1422 3009 
L 372 2375 
L 191 2681 
L 1313 3291 
L 191 3897 
L 372 4206 
L 1422 3572 
L 1422 4750 
L 1778 4750 
L 1778 3572 
L 2828 4206 
L 3009 3897 
z
" transform="scale(0.015625)"/>
       <path id="DejaVuSans-64" d="M 2906 2969 
L 2906 4863 
L 3481 4863 
L 3481 0 
L 2906 0 
L 2906 525 
Q 2725 213 2448 61 
Q 2172 -91 1784 -91 
Q 1150 -91 751 415 
Q 353 922 353 1747 
Q 353 2572 751 3078 
Q 1150 3584 1784 3584 
Q 2172 3584 2448 3432 
Q 2725 3281 2906 2969 
z
M 947 1747 
Q 947 1113 1208 752 
Q 1469 391 1925 391 
Q 2381 391 2643 752 
Q 2906 1113 2906 1747 
Q 2906 2381 2643 2742 
Q 2381 3103 1925 3103 
Q 1469 3103 1208 2742 
Q 947 2381 947 1747 
z
" transform="scale(0.015625)"/>
       <path id="DejaVuSans-6e" d="M 3513 2113 
L 3513 0 
L 2938 0 
L 2938 2094 
Q 2938 2591 2744 2837 
Q 2550 3084 2163 3084 
Q 1697 3084 1428 2787 
Q 1159 2491 1159 1978 
L 1159 0 
L 581 0 
L 581 3500 
L 1159 3500 
L 1159 2956 
Q 1366 3272 1645 3428 
Q 1925 3584 2291 3584 
Q 2894 3584 3203 3211 
Q 3513 2838 3513 2113 
z
" transform="scale(0.015625)"/>
       <path id="DejaVuSans-5b" d="M 550 4863 
L 1875 4863 
L 1875 4416 
L 1125 4416 
L 1125 -397 
L 1875 -397 
L 1875 -844 
L 550 -844 
L 550 4863 
z
" transform="scale(0.015625)"/>
       <path id="DejaVuSans-54" d="M -19 4666 
L 3928 4666 
L 3928 4134 
L 2272 4134 
L 2272 0 
L 1638 0 
L 1638 4134 
L -19 4134 
L -19 4666 
z
" transform="scale(0.015625)"/>
       <path id="DejaVuSans-56" d="M 1831 0 
L 50 4666 
L 709 4666 
L 2188 738 
L 3669 4666 
L 4325 4666 
L 2547 0 
L 1831 0 
z
" transform="scale(0.015625)"/>
       <path id="DejaVuSans-2f" d="M 1625 4666 
L 2156 4666 
L 531 -594 
L 0 -594 
L 1625 4666 
z
" transform="scale(0.015625)"/>
       <path id="DejaVuSans-28" d="M 1984 4856 
Q 1566 4138 1362 3434 
Q 1159 2731 1159 2009 
Q 1159 1288 1364 580 
Q 1569 -128 1984 -844 
L 1484 -844 
Q 1016 -109 783 600 
Q 550 1309 550 2009 
Q 550 2706 781 3412 
Q 1013 4119 1484 4856 
L 1984 4856 
z
" transform="scale(0.015625)"/>
       <path id="DejaVuSans-63" d="M 3122 3366 
L 3122 2828 
Q 2878 2963 2633 3030 
Q 2388 3097 2138 3097 
Q 1578 3097 1268 2742 
Q 959 2388 959 1747 
Q 959 1106 1268 751 
Q 1578 397 2138 397 
Q 2388 397 2633 464 
Q 2878 531 3122 666 
L 3122 134 
Q 2881 22 2623 -34 
Q 2366 -91 2075 -91 
Q 1284 -91 818 406 
Q 353 903 353 1747 
Q 353 2603 823 3093 
Q 1294 3584 2113 3584 
Q 2378 3584 2631 3529 
Q 2884 3475 3122 3366 
z
" transform="scale(0.015625)"/>
       <path id="DejaVuSans-6d" d="M 3328 2828 
Q 3544 3216 3844 3400 
Q 4144 3584 4550 3584 
Q 5097 3584 5394 3201 
Q 5691 2819 5691 2113 
L 5691 0 
L 5113 0 
L 5113 2094 
Q 5113 2597 4934 2840 
Q 4756 3084 4391 3084 
Q 3944 3084 3684 2787 
Q 3425 2491 3425 1978 
L 3425 0 
L 2847 0 
L 2847 2094 
Q 2847 2600 2669 2842 
Q 2491 3084 2119 3084 
Q 1678 3084 1418 2786 
Q 1159 2488 1159 1978 
L 1159 0 
L 581 0 
L 581 3500 
L 1159 3500 
L 1159 2956 
Q 1356 3278 1631 3431 
Q 1906 3584 2284 3584 
Q 2666 3584 2933 3390 
Q 3200 3197 3328 2828 
z
" transform="scale(0.015625)"/>
       <path id="DejaVuSans-73" d="M 2834 3397 
L 2834 2853 
Q 2591 2978 2328 3040 
Q 2066 3103 1784 3103 
Q 1356 3103 1142 2972 
Q 928 2841 928 2578 
Q 928 2378 1081 2264 
Q 1234 2150 1697 2047 
L 1894 2003 
Q 2506 1872 2764 1633 
Q 3022 1394 3022 966 
Q 3022 478 2636 193 
Q 2250 -91 1575 -91 
Q 1294 -91 989 -36 
Q 684 19 347 128 
L 347 722 
Q 666 556 975 473 
Q 1284 391 1588 391 
Q 1994 391 2212 530 
Q 2431 669 2431 922 
Q 2431 1156 2273 1281 
Q 2116 1406 1581 1522 
L 1381 1569 
Q 847 1681 609 1914 
Q 372 2147 372 2553 
Q 372 3047 722 3315 
Q 1072 3584 1716 3584 
Q 2034 3584 2315 3537 
Q 2597 3491 2834 3397 
z
" transform="scale(0.015625)"/>
       <path id="DejaVuSans-29" d="M 513 4856 
L 1013 4856 
Q 1481 4119 1714 3412 
Q 1947 2706 1947 2009 
Q 1947 1309 1714 600 
Q 1481 -109 1013 -844 
L 513 -844 
Q 928 -128 1133 580 
Q 1338 1288 1338 2009 
Q 1338 2731 1133 3434 
Q 928 4138 513 4856 
z
" transform="scale(0.015625)"/>
       <path id="DejaVuSans-5d" d="M 1947 4863 
L 1947 -844 
L 622 -844 
L 622 -397 
L 1369 -397 
L 1369 4416 
L 622 4416 
L 622 4863 
L 1947 4863 
z
" transform="scale(0.015625)"/>
      </defs>
      <use xlink:href="#DejaVuSans-65"/>
      <use xlink:href="#DejaVuSans-32" x="61.523438"/>
      <use xlink:href="#DejaVuSans-20" x="125.146484"/>
      <use xlink:href="#DejaVuSans-2a" x="156.933594"/>
      <use xlink:href="#DejaVuSans-20" x="206.933594"/>
      <use xlink:href="#DejaVuSans-64" x="238.720703"/>
      <use xlink:href="#DejaVuSans-6e" x="302.197266"/>
      <use xlink:href="#DejaVuSans-64" x="365.576172"/>
      <use xlink:href="#DejaVuSans-65" x="429.052734"/>
      <use xlink:href="#DejaVuSans-20" x="490.576172"/>
      <use xlink:href="#DejaVuSans-5b" x="522.363281"/>
      <use xlink:href="#DejaVuSans-54" x="561.376953"/>
      <use xlink:href="#DejaVuSans-65" x="605.460938"/>
      <use xlink:href="#DejaVuSans-56" x="666.984375"/>
      <use xlink:href="#DejaVuSans-20" x="735.392578"/>
      <use xlink:href="#DejaVuSans-2f" x="767.179688"/>
      <use xlink:href="#DejaVuSans-20" x="800.871094"/>
      <use xlink:href="#DejaVuSans-28" x="832.658203"/>
      <use xlink:href="#DejaVuSans-63" x="871.671875"/>
      <use xlink:href="#DejaVuSans-6d" x="926.652344"/>
      <use xlink:href="#DejaVuSans-32" x="1024.064453"/>
      <use xlink:href="#DejaVuSans-20" x="1087.6875"/>
      <use xlink:href="#DejaVuSans-73" x="1119.474609"/>
      <use xlink:href="#DejaVuSans-29" x="1171.574219"/>
      <use xlink:href="#DejaVuSans-5d" x="1210.587891"/>
     </g>
    </g>
   </g>
   <g id="line2d_40">
    <path d="M 74.752107 65.346059 
L 77.327987 65.958569 
L 79.903868 66.571079 
L 82.479748 67.183588 
L 85.055628 67.796098 
L 87.631508 68.408608 
L 90.207388 69.021117 
L 92.783269 69.633627 
L 95.359149 70.246136 
L 97.935029 70.858646 
L 100.510909 71.471156 
L 103.08679 72.083665 
L 105.66267 72.696175 
L 108.23855 73.308685 
L 110.81443 73.921194 
L 113.39031 74.533704 
L 115.966191 75.146213 
L 118.542071 75.758723 
L 121.117951 76.371233 
L 123.693831 76.983742 
L 126.269711 77.596252 
L 128.845592 78.208762 
L 131.421472 78.821271 
L 133.997352 79.433781 
L 136.573232 80.046291 
L 139.149112 80.6588 
L 141.724993 81.27131 
L 144.300873 81.883819 
L 146.876753 82.496329 
L 149.452633 83.108839 
L 152.028514 83.721348 
L 154.604394 84.333858 
L 157.180274 84.946368 
L 159.756154 85.558877 
L 162.332034 86.171387 
L 164.907915 86.783896 
L 167.483795 87.396406 
L 170.059675 88.008916 
L 172.635555 88.621425 
L 175.211435 89.233935 
L 177.787316 89.846445 
L 180.363196 90.458954 
L 182.939076 91.071464 
L 185.514956 91.683973 
L 188.090836 92.296483 
L 190.666717 92.908993 
L 193.242597 93.521502 
L 195.818477 94.134012 
L 198.394357 94.746522 
L 200.970238 95.359031 
L 203.546118 95.971541 
L 206.121998 96.58405 
L 208.697878 97.19656 
L 211.273758 97.80907 
L 213.849639 98.421579 
L 216.425519 99.034089 
L 219.001399 99.646599 
L 221.577279 100.259108 
L 224.153159 100.871618 
L 226.72904 101.484128 
L 229.30492 102.096637 
L 231.8808 102.709147 
L 234.45668 103.321656 
L 237.03256 103.934166 
L 239.608441 104.546676 
L 242.184321 105.159185 
L 244.760201 105.771695 
L 247.336081 106.384205 
L 249.911962 106.996714 
L 252.487842 107.609224 
L 255.063722 108.221733 
L 257.639602 108.834243 
L 260.215482 109.446753 
L 262.791363 110.059262 
L 265.367243 110.671772 
L 267.943123 111.284282 
L 270.519003 111.896791 
L 273.094883 112.509301 
L 275.670764 113.12181 
L 278.246644 113.73432 
L 280.822524 114.34683 
L 283.398404 114.959339 
L 285.974285 115.571849 
L 288.550165 116.184359 
L 291.126045 116.796868 
L 293.701925 117.409378 
L 296.277805 118.021888 
L 298.853686 118.634397 
L 301.429566 119.246907 
L 304.005446 119.859416 
L 306.581326 120.471926 
L 309.157206 121.084436 
L 311.733087 121.696945 
L 314.308967 122.309455 
L 316.884847 122.921965 
L 319.460727 123.534474 
L 322.036607 124.146984 
L 324.612488 124.759493 
L 327.188368 125.372003 
L 329.764248 125.984513 
" clip-path="url(#pba3fa1d7ad)" style="fill: none; stroke-dasharray: 1.5,2.475; stroke-dashoffset: 0; stroke: #000000; stroke-width: 1.5"/>
   </g>
   <g id="LineCollection_1">
    <path clip-path="url(#pba3fa1d7ad)" style="fill: none; stroke: #006400; stroke-width: 1.5"/>
    <path clip-path="url(#pba3fa1d7ad)" style="fill: none; stroke: #006400; stroke-width: 1.5"/>
    <path clip-path="url(#pba3fa1d7ad)" style="fill: none; stroke: #006400; stroke-width: 1.5"/>
    <path clip-path="url(#pba3fa1d7ad)" style="fill: none; stroke: #006400; stroke-width: 1.5"/>
    <path clip-path="url(#pba3fa1d7ad)" style="fill: none; stroke: #006400; stroke-width: 1.5"/>
    <path d="M 73.464167 361 
L 73.464167 36.188447 
" clip-path="url(#pba3fa1d7ad)" style="fill: none; stroke: #006400; stroke-width: 1.5"/>
    <path d="M 88.616404 93.133474 
L 88.616404 55.614846 
" clip-path="url(#pba3fa1d7ad)" style="fill: none; stroke: #006400; stroke-width: 1.5"/>
    <path d="M 103.76864 85.280222 
L 103.76864 65.397669 
" clip-path="url(#pba3fa1d7ad)" style="fill: none; stroke: #006400; stroke-width: 1.5"/>
    <path d="M 118.920877 87.797023 
L 118.920877 70.127571 
" clip-path="url(#pba3fa1d7ad)" style="fill: none; stroke: #006400; stroke-width: 1.5"/>
    <path d="M 134.073113 91.678197 
L 134.073113 73.994087 
" clip-path="url(#pba3fa1d7ad)" style="fill: none; stroke: #006400; stroke-width: 1.5"/>
    <path d="M 149.22535 95.819834 
L 149.22535 77.689376 
" clip-path="url(#pba3fa1d7ad)" style="fill: none; stroke: #006400; stroke-width: 1.5"/>
    <path d="M 164.377586 100.256887 
L 164.377586 81.201946 
" clip-path="url(#pba3fa1d7ad)" style="fill: none; stroke: #006400; stroke-width: 1.5"/>
    <path d="M 179.529823 104.968144 
L 179.529823 84.544021 
" clip-path="url(#pba3fa1d7ad)" style="fill: none; stroke: #006400; stroke-width: 1.5"/>
    <path d="M 194.682059 109.742893 
L 194.682059 87.870869 
" clip-path="url(#pba3fa1d7ad)" style="fill: none; stroke: #006400; stroke-width: 1.5"/>
    <path d="M 209.834296 114.925107 
L 209.834296 90.983276 
" clip-path="url(#pba3fa1d7ad)" style="fill: none; stroke: #006400; stroke-width: 1.5"/>
    <path d="M 224.986532 120.546579 
L 224.986532 93.896882 
" clip-path="url(#pba3fa1d7ad)" style="fill: none; stroke: #006400; stroke-width: 1.5"/>
    <path d="M 240.138769 126.505755 
L 240.138769 96.703287 
" clip-path="url(#pba3fa1d7ad)" style="fill: none; stroke: #006400; stroke-width: 1.5"/>
    <path d="M 255.291006 133.148938 
L 255.291006 99.278618 
" clip-path="url(#pba3fa1d7ad)" style="fill: none; stroke: #006400; stroke-width: 1.5"/>
    <path d="M 270.443242 140.619852 
L 270.443242 101.638578 
" clip-path="url(#pba3fa1d7ad)" style="fill: none; stroke: #006400; stroke-width: 1.5"/>
    <path d="M 285.595479 148.678894 
L 285.595479 103.965249 
" clip-path="url(#pba3fa1d7ad)" style="fill: none; stroke: #006400; stroke-width: 1.5"/>
    <path d="M 300.747715 158.231784 
L 300.747715 106.05037 
" clip-path="url(#pba3fa1d7ad)" style="fill: none; stroke: #006400; stroke-width: 1.5"/>
    <path d="M 315.899952 170.88893 
L 315.899952 107.705152 
" clip-path="url(#pba3fa1d7ad)" style="fill: none; stroke: #006400; stroke-width: 1.5"/>
    <path d="M 331.052188 192.350039 
L 331.052188 108.525269 
" clip-path="url(#pba3fa1d7ad)" style="fill: none; stroke: #006400; stroke-width: 1.5"/>
    <path clip-path="url(#pba3fa1d7ad)" style="fill: none; stroke: #006400; stroke-width: 1.5"/>
   </g>
   <g id="LineCollection_2">
    <path clip-path="url(#pba3fa1d7ad)" style="fill: none; stroke: #8b0000; stroke-width: 1.5"/>
    <path clip-path="url(#pba3fa1d7ad)" style="fill: none; stroke: #8b0000; stroke-width: 1.5"/>
    <path clip-path="url(#pba3fa1d7ad)" style="fill: none; stroke: #8b0000; stroke-width: 1.5"/>
    <path clip-path="url(#pba3fa1d7ad)" style="fill: none; stroke: #8b0000; stroke-width: 1.5"/>
    <path clip-path="url(#pba3fa1d7ad)" style="fill: none; stroke: #8b0000; stroke-width: 1.5"/>
    <path d="M 76.032689 361 
L 76.032689 36.290664 
" clip-path="url(#pba3fa1d7ad)" style="fill: none; stroke: #8b0000; stroke-width: 1.5"/>
    <path d="M 91.184926 92.216706 
L 91.184926 55.995633 
" clip-path="url(#pba3fa1d7ad)" style="fill: none; stroke: #8b0000; stroke-width: 1.5"/>
    <path d="M 106.337162 83.934947 
L 106.337162 66.25663 
" clip-path="url(#pba3fa1d7ad)" style="fill: none; stroke: #8b0000; stroke-width: 1.5"/>
    <path d="M 121.489399 86.305616 
L 121.489399 71.144115 
" clip-path="url(#pba3fa1d7ad)" style="fill: none; stroke: #8b0000; stroke-width: 1.5"/>
    <path d="M 136.641635 90.218514 
L 136.641635 74.988938 
" clip-path="url(#pba3fa1d7ad)" style="fill: none; stroke: #8b0000; stroke-width: 1.5"/>
    <path d="M 151.793872 94.420007 
L 151.793872 78.63424 
" clip-path="url(#pba3fa1d7ad)" style="fill: none; stroke: #8b0000; stroke-width: 1.5"/>
    <path d="M 166.946108 98.939068 
L 166.946108 82.068168 
" clip-path="url(#pba3fa1d7ad)" style="fill: none; stroke: #8b0000; stroke-width: 1.5"/>
    <path d="M 182.098345 103.737947 
L 182.098345 85.328112 
" clip-path="url(#pba3fa1d7ad)" style="fill: none; stroke: #8b0000; stroke-width: 1.5"/>
    <path d="M 197.250582 108.601899 
L 197.250582 88.573616 
" clip-path="url(#pba3fa1d7ad)" style="fill: none; stroke: #8b0000; stroke-width: 1.5"/>
    <path d="M 212.402818 113.857588 
L 212.402818 91.606672 
" clip-path="url(#pba3fa1d7ad)" style="fill: none; stroke: #8b0000; stroke-width: 1.5"/>
    <path d="M 227.555055 119.541968 
L 227.555055 94.447174 
" clip-path="url(#pba3fa1d7ad)" style="fill: none; stroke: #8b0000; stroke-width: 1.5"/>
    <path d="M 242.707291 125.555808 
L 242.707291 97.185219 
" clip-path="url(#pba3fa1d7ad)" style="fill: none; stroke: #8b0000; stroke-width: 1.5"/>
    <path d="M 257.859528 132.247288 
L 257.859528 99.692646 
" clip-path="url(#pba3fa1d7ad)" style="fill: none; stroke: #8b0000; stroke-width: 1.5"/>
    <path d="M 273.011764 139.756729 
L 273.011764 101.991675 
" clip-path="url(#pba3fa1d7ad)" style="fill: none; stroke: #8b0000; stroke-width: 1.5"/>
    <path d="M 288.164001 147.835165 
L 288.164001 104.268696 
" clip-path="url(#pba3fa1d7ad)" style="fill: none; stroke: #8b0000; stroke-width: 1.5"/>
    <path d="M 303.316237 157.381223 
L 303.316237 106.306558 
" clip-path="url(#pba3fa1d7ad)" style="fill: none; stroke: #8b0000; stroke-width: 1.5"/>
    <path d="M 318.468474 169.981343 
L 318.468474 107.916869 
" clip-path="url(#pba3fa1d7ad)" style="fill: none; stroke: #8b0000; stroke-width: 1.5"/>
    <path d="M 333.62071 191.196193 
L 333.62071 108.69205 
" clip-path="url(#pba3fa1d7ad)" style="fill: none; stroke: #8b0000; stroke-width: 1.5"/>
    <path clip-path="url(#pba3fa1d7ad)" style="fill: none; stroke: #8b0000; stroke-width: 1.5"/>
   </g>
   <g id="LineCollection_3">
    <path clip-path="url(#pba3fa1d7ad)" style="fill: none; stroke: #1f77b4; stroke-width: 1.5"/>
    <path clip-path="url(#pba3fa1d7ad)" style="fill: none; stroke: #1f77b4; stroke-width: 1.5"/>
    <path clip-path="url(#pba3fa1d7ad)" style="fill: none; stroke: #1f77b4; stroke-width: 1.5"/>
    <path clip-path="url(#pba3fa1d7ad)" style="fill: none; stroke: #1f77b4; stroke-width: 1.5"/>
    <path clip-path="url(#pba3fa1d7ad)" style="fill: none; stroke: #1f77b4; stroke-width: 1.5"/>
    <path d="M 78.481701 173.845002 
L 78.481701 32.939673 
" clip-path="url(#pba3fa1d7ad)" style="fill: none; stroke: #1f77b4; stroke-width: 1.5"/>
    <path d="M 93.633938 89.164992 
L 93.633938 52.182898 
" clip-path="url(#pba3fa1d7ad)" style="fill: none; stroke: #1f77b4; stroke-width: 1.5"/>
    <path d="M 108.786174 81.544745 
L 108.786174 60.430498 
" clip-path="url(#pba3fa1d7ad)" style="fill: none; stroke: #1f77b4; stroke-width: 1.5"/>
    <path d="M 123.938411 88.557193 
L 123.938411 69.254584 
" clip-path="url(#pba3fa1d7ad)" style="fill: none; stroke: #1f77b4; stroke-width: 1.5"/>
    <path d="M 139.090647 87.34605 
L 139.090647 70.478788 
" clip-path="url(#pba3fa1d7ad)" style="fill: none; stroke: #1f77b4; stroke-width: 1.5"/>
    <path d="M 154.242884 90.749516 
L 154.242884 73.635434 
" clip-path="url(#pba3fa1d7ad)" style="fill: none; stroke: #1f77b4; stroke-width: 1.5"/>
    <path d="M 169.39512 103.462724 
L 169.39512 77.16658 
" clip-path="url(#pba3fa1d7ad)" style="fill: none; stroke: #1f77b4; stroke-width: 1.5"/>
    <path d="M 184.547357 99.918682 
L 184.547357 80.72597 
" clip-path="url(#pba3fa1d7ad)" style="fill: none; stroke: #1f77b4; stroke-width: 1.5"/>
    <path d="M 199.699593 102.402529 
L 199.699593 83.340147 
" clip-path="url(#pba3fa1d7ad)" style="fill: none; stroke: #1f77b4; stroke-width: 1.5"/>
    <path d="M 214.85183 111.546095 
L 214.85183 87.250881 
" clip-path="url(#pba3fa1d7ad)" style="fill: none; stroke: #1f77b4; stroke-width: 1.5"/>
    <path d="M 230.004067 119.287584 
L 230.004067 88.076475 
" clip-path="url(#pba3fa1d7ad)" style="fill: none; stroke: #1f77b4; stroke-width: 1.5"/>
    <path d="M 245.156303 115.024981 
L 245.156303 94.535488 
" clip-path="url(#pba3fa1d7ad)" style="fill: none; stroke: #1f77b4; stroke-width: 1.5"/>
    <path d="M 260.30854 120.94309 
L 260.30854 93.597074 
" clip-path="url(#pba3fa1d7ad)" style="fill: none; stroke: #1f77b4; stroke-width: 1.5"/>
    <path d="M 275.460776 123.808173 
L 275.460776 91.697134 
" clip-path="url(#pba3fa1d7ad)" style="fill: none; stroke: #1f77b4; stroke-width: 1.5"/>
    <path d="M 290.613013 138.420095 
L 290.613013 93.882705 
" clip-path="url(#pba3fa1d7ad)" style="fill: none; stroke: #1f77b4; stroke-width: 1.5"/>
    <path d="M 305.765249 146.916162 
L 305.765249 100.027805 
" clip-path="url(#pba3fa1d7ad)" style="fill: none; stroke: #1f77b4; stroke-width: 1.5"/>
    <path d="M 320.917486 182.933127 
L 320.917486 105.088423 
" clip-path="url(#pba3fa1d7ad)" style="fill: none; stroke: #1f77b4; stroke-width: 1.5"/>
    <path d="M 336.069722 164.413187 
L 336.069722 99.216985 
" clip-path="url(#pba3fa1d7ad)" style="fill: none; stroke: #1f77b4; stroke-width: 1.5"/>
    <path clip-path="url(#pba3fa1d7ad)" style="fill: none; stroke: #1f77b4; stroke-width: 1.5"/>
   </g>
   <g id="line2d_41">
    <defs>
     <path id="mfa2d591f61" d="M -3 3 
L 3 -3 
M -3 -3 
L 3 3 
" style="stroke: #006400"/>
    </defs>
    <g clip-path="url(#pba3fa1d7ad)">
     <use xlink:href="#mfa2d591f61" x="73.464167" y="66.412151" style="fill: #006400; stroke: #006400"/>
     <use xlink:href="#mfa2d591f61" x="88.616404" y="70.292156" style="fill: #006400; stroke: #006400"/>
     <use xlink:href="#mfa2d591f61" x="103.76864" y="74.165749" style="fill: #006400; stroke: #006400"/>
     <use xlink:href="#mfa2d591f61" x="118.920877" y="78.033928" style="fill: #006400; stroke: #006400"/>
     <use xlink:href="#mfa2d591f61" x="134.073113" y="81.906243" style="fill: #006400; stroke: #006400"/>
     <use xlink:href="#mfa2d591f61" x="149.22535" y="85.77754" style="fill: #006400; stroke: #006400"/>
     <use xlink:href="#mfa2d591f61" x="164.377586" y="89.65104" style="fill: #006400; stroke: #006400"/>
     <use xlink:href="#mfa2d591f61" x="179.529823" y="93.518736" style="fill: #006400; stroke: #006400"/>
     <use xlink:href="#mfa2d591f61" x="194.682059" y="97.389911" style="fill: #006400; stroke: #006400"/>
     <use xlink:href="#mfa2d591f61" x="209.834296" y="101.260094" style="fill: #006400; stroke: #006400"/>
     <use xlink:href="#mfa2d591f61" x="224.986532" y="105.129396" style="fill: #006400; stroke: #006400"/>
     <use xlink:href="#mfa2d591f61" x="240.138769" y="108.998513" style="fill: #006400; stroke: #006400"/>
     <use xlink:href="#mfa2d591f61" x="255.291006" y="112.867556" style="fill: #006400; stroke: #006400"/>
     <use xlink:href="#mfa2d591f61" x="270.443242" y="116.73368" style="fill: #006400; stroke: #006400"/>
     <use xlink:href="#mfa2d591f61" x="285.595479" y="120.599181" style="fill: #006400; stroke: #006400"/>
     <use xlink:href="#mfa2d591f61" x="300.747715" y="124.466122" style="fill: #006400; stroke: #006400"/>
     <use xlink:href="#mfa2d591f61" x="315.899952" y="128.331332" style="fill: #006400; stroke: #006400"/>
     <use xlink:href="#mfa2d591f61" x="331.052188" y="132.195917" style="fill: #006400; stroke: #006400"/>
    </g>
   </g>
   <g id="line2d_42">
    <defs>
     <path id="m925c180ce0" d="M -3 3 
L 3 -3 
M -3 -3 
L 3 3 
" style="stroke: #8b0000"/>
    </defs>
    <g clip-path="url(#pba3fa1d7ad)">
     <use xlink:href="#m925c180ce0" x="76.032689" y="66.415526" style="fill: #8b0000; stroke: #8b0000"/>
     <use xlink:href="#m925c180ce0" x="91.184926" y="70.29349" style="fill: #8b0000; stroke: #8b0000"/>
     <use xlink:href="#m925c180ce0" x="106.337162" y="74.166495" style="fill: #8b0000; stroke: #8b0000"/>
     <use xlink:href="#m925c180ce0" x="121.489399" y="78.040004" style="fill: #8b0000; stroke: #8b0000"/>
     <use xlink:href="#m925c180ce0" x="136.641635" y="81.912734" style="fill: #8b0000; stroke: #8b0000"/>
     <use xlink:href="#m925c180ce0" x="151.793872" y="85.785043" style="fill: #8b0000; stroke: #8b0000"/>
     <use xlink:href="#m925c180ce0" x="166.946108" y="89.656716" style="fill: #8b0000; stroke: #8b0000"/>
     <use xlink:href="#m925c180ce0" x="182.098345" y="93.525862" style="fill: #8b0000; stroke: #8b0000"/>
     <use xlink:href="#m925c180ce0" x="197.250582" y="97.397462" style="fill: #8b0000; stroke: #8b0000"/>
     <use xlink:href="#m925c180ce0" x="212.402818" y="101.266214" style="fill: #8b0000; stroke: #8b0000"/>
     <use xlink:href="#m925c180ce0" x="227.555055" y="105.135819" style="fill: #8b0000; stroke: #8b0000"/>
     <use xlink:href="#m925c180ce0" x="242.707291" y="109.004393" style="fill: #8b0000; stroke: #8b0000"/>
     <use xlink:href="#m925c180ce0" x="257.859528" y="112.872545" style="fill: #8b0000; stroke: #8b0000"/>
     <use xlink:href="#m925c180ce0" x="273.011764" y="116.740108" style="fill: #8b0000; stroke: #8b0000"/>
     <use xlink:href="#m925c180ce0" x="288.164001" y="120.606968" style="fill: #8b0000; stroke: #8b0000"/>
     <use xlink:href="#m925c180ce0" x="303.316237" y="124.473388" style="fill: #8b0000; stroke: #8b0000"/>
     <use xlink:href="#m925c180ce0" x="318.468474" y="128.338991" style="fill: #8b0000; stroke: #8b0000"/>
     <use xlink:href="#m925c180ce0" x="333.62071" y="132.204307" style="fill: #8b0000; stroke: #8b0000"/>
    </g>
   </g>
   <g id="line2d_43">
    <path d="M 78.481701 60.46122 
L 93.633938 66.704317 
L 108.786174 69.66613 
L 123.938411 77.799545 
L 139.090647 78.065879 
L 154.242884 81.321152 
L 169.39512 88.276586 
L 184.547357 89.228435 
L 199.699593 91.792127 
L 214.85183 97.654702 
L 230.004067 100.829448 
L 245.156303 103.535032 
L 260.30854 105.068889 
L 275.460776 104.737108 
L 290.613013 110.471602 
L 305.765249 117.205836 
L 320.917486 128.005445 
L 336.069722 120.198936 
" clip-path="url(#pba3fa1d7ad)" style="fill: none; stroke: #1f77b4; stroke-width: 1.5; stroke-linecap: square"/>
   </g>
   <g id="patch_3">
    <path d="M 60.333889 190.4328 
L 60.333889 25.44 
" style="fill: none; stroke: #000000; stroke-width: 0.8; stroke-linejoin: miter; stroke-linecap: square"/>
   </g>
   <g id="patch_4">
    <path d="M 349.2 190.4328 
L 349.2 25.44 
" style="fill: none; stroke: #000000; stroke-width: 0.8; stroke-linejoin: miter; stroke-linecap: square"/>
   </g>
   <g id="patch_5">
    <path d="M 60.333889 190.4328 
L 349.2 190.4328 
" style="fill: none; stroke: #000000; stroke-width: 0.8; stroke-linejoin: miter; stroke-linecap: square"/>
   </g>
   <g id="patch_6">
    <path d="M 60.333889 25.44 
L 349.2 25.44 
" style="fill: none; stroke: #000000; stroke-width: 0.8; stroke-linejoin: miter; stroke-linecap: square"/>
   </g>
   <g id="text_4">
    <!-- N = 22 -->
    <g transform="translate(183.801632 19.44) scale(0.12 -0.12)">
     <defs>
      <path id="DejaVuSans-4e" d="M 628 4666 
L 1478 4666 
L 3547 763 
L 3547 4666 
L 4159 4666 
L 4159 0 
L 3309 0 
L 1241 3903 
L 1241 0 
L 628 0 
L 628 4666 
z
" transform="scale(0.015625)"/>
      <path id="DejaVuSans-3d" d="M 678 2906 
L 4684 2906 
L 4684 2381 
L 678 2381 
L 678 2906 
z
M 678 1631 
L 4684 1631 
L 4684 1100 
L 678 1100 
L 678 1631 
z
" transform="scale(0.015625)"/>
     </defs>
     <use xlink:href="#DejaVuSans-4e"/>
     <use xlink:href="#DejaVuSans-20" x="74.804688"/>
     <use xlink:href="#DejaVuSans-3d" x="106.591797"/>
     <use xlink:href="#DejaVuSans-20" x="190.380859"/>
     <use xlink:href="#DejaVuSans-32" x="222.167969"/>
     <use xlink:href="#DejaVuSans-32" x="285.791016"/>
    </g>
   </g>
   <g id="legend_1">
    <g id="patch_7">
     <path d="M 209.6 92.172813 
L 342.2 92.172813 
Q 344.2 92.172813 344.2 90.172813 
L 344.2 32.44 
Q 344.2 30.44 342.2 30.44 
L 209.6 30.44 
Q 207.6 30.44 207.6 32.44 
L 207.6 90.172813 
Q 207.6 92.172813 209.6 92.172813 
z
" style="fill: #ffffff; opacity: 0.8; stroke: #cccccc; stroke-linejoin: miter"/>
    </g>
    <g id="line2d_44">
     <path d="M 211.6 38.538438 
L 221.6 38.538438 
L 231.6 38.538438 
" style="fill: none; stroke-dasharray: 1.5,2.475; stroke-dashoffset: 0; stroke: #000000; stroke-width: 1.5"/>
    </g>
    <g id="text_5">
     <!-- Input -->
     <g transform="translate(239.6 42.038438) scale(0.1 -0.1)">
      <defs>
       <path id="DejaVuSans-49" d="M 628 4666 
L 1259 4666 
L 1259 0 
L 628 0 
L 628 4666 
z
" transform="scale(0.015625)"/>
       <path id="DejaVuSans-70" d="M 1159 525 
L 1159 -1331 
L 581 -1331 
L 581 3500 
L 1159 3500 
L 1159 2969 
Q 1341 3281 1617 3432 
Q 1894 3584 2278 3584 
Q 2916 3584 3314 3078 
Q 3713 2572 3713 1747 
Q 3713 922 3314 415 
Q 2916 -91 2278 -91 
Q 1894 -91 1617 61 
Q 1341 213 1159 525 
z
M 3116 1747 
Q 3116 2381 2855 2742 
Q 2594 3103 2138 3103 
Q 1681 3103 1420 2742 
Q 1159 2381 1159 1747 
Q 1159 1113 1420 752 
Q 1681 391 2138 391 
Q 2594 391 2855 752 
Q 3116 1113 3116 1747 
z
" transform="scale(0.015625)"/>
       <path id="DejaVuSans-75" d="M 544 1381 
L 544 3500 
L 1119 3500 
L 1119 1403 
Q 1119 906 1312 657 
Q 1506 409 1894 409 
Q 2359 409 2629 706 
Q 2900 1003 2900 1516 
L 2900 3500 
L 3475 3500 
L 3475 0 
L 2900 0 
L 2900 538 
Q 2691 219 2414 64 
Q 2138 -91 1772 -91 
Q 1169 -91 856 284 
Q 544 659 544 1381 
z
M 1991 3584 
L 1991 3584 
z
" transform="scale(0.015625)"/>
       <path id="DejaVuSans-74" d="M 1172 4494 
L 1172 3500 
L 2356 3500 
L 2356 3053 
L 1172 3053 
L 1172 1153 
Q 1172 725 1289 603 
Q 1406 481 1766 481 
L 2356 481 
L 2356 0 
L 1766 0 
Q 1100 0 847 248 
Q 594 497 594 1153 
L 594 3053 
L 172 3053 
L 172 3500 
L 594 3500 
L 594 4494 
L 1172 4494 
z
" transform="scale(0.015625)"/>
      </defs>
      <use xlink:href="#DejaVuSans-49"/>
      <use xlink:href="#DejaVuSans-6e" x="29.492188"/>
      <use xlink:href="#DejaVuSans-70" x="92.871094"/>
      <use xlink:href="#DejaVuSans-75" x="156.347656"/>
      <use xlink:href="#DejaVuSans-74" x="219.726562"/>
     </g>
    </g>
    <g id="LineCollection_4">
     <path d="M 221.6 58.216563 
L 221.6 48.216563 
" style="fill: none; stroke: #006400; stroke-width: 1.5"/>
    </g>
    <g id="line2d_45"/>
    <g id="line2d_46">
     <g>
      <use xlink:href="#mfa2d591f61" x="221.6" y="53.216563" style="fill: #006400; stroke: #006400"/>
     </g>
    </g>
    <g id="text_6">
     <!-- Fluxpoints Nuisance -->
     <g transform="translate(239.6 56.716563) scale(0.1 -0.1)">
      <defs>
       <path id="DejaVuSans-46" d="M 628 4666 
L 3309 4666 
L 3309 4134 
L 1259 4134 
L 1259 2759 
L 3109 2759 
L 3109 2228 
L 1259 2228 
L 1259 0 
L 628 0 
L 628 4666 
z
" transform="scale(0.015625)"/>
       <path id="DejaVuSans-6c" d="M 603 4863 
L 1178 4863 
L 1178 0 
L 603 0 
L 603 4863 
z
" transform="scale(0.015625)"/>
       <path id="DejaVuSans-78" d="M 3513 3500 
L 2247 1797 
L 3578 0 
L 2900 0 
L 1881 1375 
L 863 0 
L 184 0 
L 1544 1831 
L 300 3500 
L 978 3500 
L 1906 2253 
L 2834 3500 
L 3513 3500 
z
" transform="scale(0.015625)"/>
       <path id="DejaVuSans-6f" d="M 1959 3097 
Q 1497 3097 1228 2736 
Q 959 2375 959 1747 
Q 959 1119 1226 758 
Q 1494 397 1959 397 
Q 2419 397 2687 759 
Q 2956 1122 2956 1747 
Q 2956 2369 2687 2733 
Q 2419 3097 1959 3097 
z
M 1959 3584 
Q 2709 3584 3137 3096 
Q 3566 2609 3566 1747 
Q 3566 888 3137 398 
Q 2709 -91 1959 -91 
Q 1206 -91 779 398 
Q 353 888 353 1747 
Q 353 2609 779 3096 
Q 1206 3584 1959 3584 
z
" transform="scale(0.015625)"/>
       <path id="DejaVuSans-69" d="M 603 3500 
L 1178 3500 
L 1178 0 
L 603 0 
L 603 3500 
z
M 603 4863 
L 1178 4863 
L 1178 4134 
L 603 4134 
L 603 4863 
z
" transform="scale(0.015625)"/>
       <path id="DejaVuSans-61" d="M 2194 1759 
Q 1497 1759 1228 1600 
Q 959 1441 959 1056 
Q 959 750 1161 570 
Q 1363 391 1709 391 
Q 2188 391 2477 730 
Q 2766 1069 2766 1631 
L 2766 1759 
L 2194 1759 
z
M 3341 1997 
L 3341 0 
L 2766 0 
L 2766 531 
Q 2569 213 2275 61 
Q 1981 -91 1556 -91 
Q 1019 -91 701 211 
Q 384 513 384 1019 
Q 384 1609 779 1909 
Q 1175 2209 1959 2209 
L 2766 2209 
L 2766 2266 
Q 2766 2663 2505 2880 
Q 2244 3097 1772 3097 
Q 1472 3097 1187 3025 
Q 903 2953 641 2809 
L 641 3341 
Q 956 3463 1253 3523 
Q 1550 3584 1831 3584 
Q 2591 3584 2966 3190 
Q 3341 2797 3341 1997 
z
" transform="scale(0.015625)"/>
      </defs>
      <use xlink:href="#DejaVuSans-46"/>
      <use xlink:href="#DejaVuSans-6c" x="57.519531"/>
      <use xlink:href="#DejaVuSans-75" x="85.302734"/>
      <use xlink:href="#DejaVuSans-78" x="148.681641"/>
      <use xlink:href="#DejaVuSans-70" x="207.861328"/>
      <use xlink:href="#DejaVuSans-6f" x="271.337891"/>
      <use xlink:href="#DejaVuSans-69" x="332.519531"/>
      <use xlink:href="#DejaVuSans-6e" x="360.302734"/>
      <use xlink:href="#DejaVuSans-74" x="423.681641"/>
      <use xlink:href="#DejaVuSans-73" x="462.890625"/>
      <use xlink:href="#DejaVuSans-20" x="514.990234"/>
      <use xlink:href="#DejaVuSans-4e" x="546.777344"/>
      <use xlink:href="#DejaVuSans-75" x="621.582031"/>
      <use xlink:href="#DejaVuSans-69" x="684.960938"/>
      <use xlink:href="#DejaVuSans-73" x="712.744141"/>
      <use xlink:href="#DejaVuSans-61" x="764.84375"/>
      <use xlink:href="#DejaVuSans-6e" x="826.123047"/>
      <use xlink:href="#DejaVuSans-63" x="889.501953"/>
      <use xlink:href="#DejaVuSans-65" x="944.482422"/>
     </g>
    </g>
    <g id="LineCollection_5">
     <path d="M 221.6 72.894688 
L 221.6 62.894688 
" style="fill: none; stroke: #8b0000; stroke-width: 1.5"/>
    </g>
    <g id="line2d_47"/>
    <g id="line2d_48">
     <g>
      <use xlink:href="#m925c180ce0" x="221.6" y="67.894688" style="fill: #8b0000; stroke: #8b0000"/>
     </g>
    </g>
    <g id="text_7">
     <!-- Fluxpoints Standard -->
     <g transform="translate(239.6 71.394688) scale(0.1 -0.1)">
      <defs>
       <path id="DejaVuSans-53" d="M 3425 4513 
L 3425 3897 
Q 3066 4069 2747 4153 
Q 2428 4238 2131 4238 
Q 1616 4238 1336 4038 
Q 1056 3838 1056 3469 
Q 1056 3159 1242 3001 
Q 1428 2844 1947 2747 
L 2328 2669 
Q 3034 2534 3370 2195 
Q 3706 1856 3706 1288 
Q 3706 609 3251 259 
Q 2797 -91 1919 -91 
Q 1588 -91 1214 -16 
Q 841 59 441 206 
L 441 856 
Q 825 641 1194 531 
Q 1563 422 1919 422 
Q 2459 422 2753 634 
Q 3047 847 3047 1241 
Q 3047 1584 2836 1778 
Q 2625 1972 2144 2069 
L 1759 2144 
Q 1053 2284 737 2584 
Q 422 2884 422 3419 
Q 422 4038 858 4394 
Q 1294 4750 2059 4750 
Q 2388 4750 2728 4690 
Q 3069 4631 3425 4513 
z
" transform="scale(0.015625)"/>
       <path id="DejaVuSans-72" d="M 2631 2963 
Q 2534 3019 2420 3045 
Q 2306 3072 2169 3072 
Q 1681 3072 1420 2755 
Q 1159 2438 1159 1844 
L 1159 0 
L 581 0 
L 581 3500 
L 1159 3500 
L 1159 2956 
Q 1341 3275 1631 3429 
Q 1922 3584 2338 3584 
Q 2397 3584 2469 3576 
Q 2541 3569 2628 3553 
L 2631 2963 
z
" transform="scale(0.015625)"/>
      </defs>
      <use xlink:href="#DejaVuSans-46"/>
      <use xlink:href="#DejaVuSans-6c" x="57.519531"/>
      <use xlink:href="#DejaVuSans-75" x="85.302734"/>
      <use xlink:href="#DejaVuSans-78" x="148.681641"/>
      <use xlink:href="#DejaVuSans-70" x="207.861328"/>
      <use xlink:href="#DejaVuSans-6f" x="271.337891"/>
      <use xlink:href="#DejaVuSans-69" x="332.519531"/>
      <use xlink:href="#DejaVuSans-6e" x="360.302734"/>
      <use xlink:href="#DejaVuSans-74" x="423.681641"/>
      <use xlink:href="#DejaVuSans-73" x="462.890625"/>
      <use xlink:href="#DejaVuSans-20" x="514.990234"/>
      <use xlink:href="#DejaVuSans-53" x="546.777344"/>
      <use xlink:href="#DejaVuSans-74" x="610.253906"/>
      <use xlink:href="#DejaVuSans-61" x="649.462891"/>
      <use xlink:href="#DejaVuSans-6e" x="710.742188"/>
      <use xlink:href="#DejaVuSans-64" x="774.121094"/>
      <use xlink:href="#DejaVuSans-61" x="837.597656"/>
      <use xlink:href="#DejaVuSans-72" x="898.876953"/>
      <use xlink:href="#DejaVuSans-64" x="938.240234"/>
     </g>
    </g>
    <g id="LineCollection_6">
     <path d="M 221.6 87.572813 
L 221.6 77.572813 
" style="fill: none; stroke: #1f77b4; stroke-width: 1.5"/>
    </g>
    <g id="line2d_49">
     <path d="M 211.6 82.572813 
L 231.6 82.572813 
" style="fill: none; stroke: #1f77b4; stroke-width: 1.5; stroke-linecap: square"/>
    </g>
    <g id="line2d_50"/>
    <g id="text_8">
     <!-- $\mu$, $\sigma$ -->
     <g transform="translate(239.6 86.072813) scale(0.1 -0.1)">
      <defs>
       <path id="DejaVuSans-Oblique-3bc" d="M -84 -1331 
L 856 3500 
L 1434 3500 
L 1009 1322 
Q 997 1256 987 1175 
Q 978 1094 978 1013 
Q 978 722 1161 565 
Q 1344 409 1684 409 
Q 2147 409 2431 671 
Q 2716 934 2816 1459 
L 3213 3500 
L 3788 3500 
L 3266 809 
Q 3253 750 3248 706 
Q 3244 663 3244 628 
Q 3244 531 3283 486 
Q 3322 441 3406 441 
Q 3438 441 3492 456 
Q 3547 472 3647 513 
L 3559 50 
Q 3422 -19 3297 -55 
Q 3172 -91 3053 -91 
Q 2847 -91 2730 40 
Q 2613 172 2613 403 
Q 2438 153 2195 31 
Q 1953 -91 1625 -91 
Q 1334 -91 1117 43 
Q 900 178 831 397 
L 494 -1331 
L -84 -1331 
z
" transform="scale(0.015625)"/>
       <path id="DejaVuSans-2c" d="M 750 794 
L 1409 794 
L 1409 256 
L 897 -744 
L 494 -744 
L 750 256 
L 750 794 
z
" transform="scale(0.015625)"/>
       <path id="DejaVuSans-Oblique-3c3" d="M 2219 3044 
Q 1744 3044 1422 2700 
Q 1081 2341 969 1747 
Q 844 1119 1044 756 
Q 1241 397 1706 397 
Q 2166 397 2503 759 
Q 2844 1122 2966 1747 
Q 3075 2319 2881 2700 
Q 2700 3044 2219 3044 
z
M 2309 3503 
L 4219 3500 
L 4106 2925 
L 3463 2925 
Q 3706 2438 3575 1747 
Q 3406 888 2884 400 
Q 2359 -91 1609 -91 
Q 856 -91 525 400 
Q 194 888 363 1747 
Q 528 2609 1050 3097 
Q 1484 3503 2309 3503 
z
" transform="scale(0.015625)"/>
      </defs>
      <use xlink:href="#DejaVuSans-Oblique-3bc" transform="translate(0 0.265625)"/>
      <use xlink:href="#DejaVuSans-2c" transform="translate(63.623047 0.265625)"/>
      <use xlink:href="#DejaVuSans-20" transform="translate(95.410156 0.265625)"/>
      <use xlink:href="#DejaVuSans-Oblique-3c3" transform="translate(127.197266 0.265625)"/>
     </g>
    </g>
   </g>
  </g>
  <g id="axes_2">
   <g id="patch_8">
    <path d="M 60.333889 314.728 
L 349.2 314.728 
L 349.2 204.7328 
L 60.333889 204.7328 
z
" style="fill: #ffffff"/>
   </g>
   <g id="matplotlib.axis_3">
    <g id="xtick_25">
     <g id="line2d_51">
      <g>
       <use xlink:href="#ma331fb6496" x="111.344758" y="314.728" style="stroke: #000000; stroke-width: 0.8"/>
      </g>
     </g>
     <g id="text_9">
      <!-- $\mathdefault{10^{0}}$ -->
      <g transform="translate(102.544758 329.326438) scale(0.1 -0.1)">
       <use xlink:href="#DejaVuSans-31" transform="translate(0 0.765625)"/>
       <use xlink:href="#DejaVuSans-30" transform="translate(63.623047 0.765625)"/>
       <use xlink:href="#DejaVuSans-30" transform="translate(128.203125 39.046875) scale(0.7)"/>
      </g>
     </g>
    </g>
    <g id="xtick_26">
     <g id="line2d_52">
      <g>
       <use xlink:href="#ma331fb6496" x="232.562651" y="314.728" style="stroke: #000000; stroke-width: 0.8"/>
      </g>
     </g>
     <g id="text_10">
      <!-- $\mathdefault{10^{1}}$ -->
      <g transform="translate(223.762651 329.326438) scale(0.1 -0.1)">
       <use xlink:href="#DejaVuSans-31" transform="translate(0 0.684375)"/>
       <use xlink:href="#DejaVuSans-30" transform="translate(63.623047 0.684375)"/>
       <use xlink:href="#DejaVuSans-31" transform="translate(128.203125 38.965625) scale(0.7)"/>
      </g>
     </g>
    </g>
    <g id="xtick_27">
     <g id="line2d_53">
      <g>
       <use xlink:href="#ma91dd483bf" x="63.107309" y="314.728" style="stroke: #000000; stroke-width: 0.6"/>
      </g>
     </g>
    </g>
    <g id="xtick_28">
     <g id="line2d_54">
      <g>
       <use xlink:href="#ma91dd483bf" x="74.854537" y="314.728" style="stroke: #000000; stroke-width: 0.6"/>
      </g>
     </g>
    </g>
    <g id="xtick_29">
     <g id="line2d_55">
      <g>
       <use xlink:href="#ma91dd483bf" x="84.452721" y="314.728" style="stroke: #000000; stroke-width: 0.6"/>
      </g>
     </g>
    </g>
    <g id="xtick_30">
     <g id="line2d_56">
      <g>
       <use xlink:href="#ma91dd483bf" x="92.567869" y="314.728" style="stroke: #000000; stroke-width: 0.6"/>
      </g>
     </g>
    </g>
    <g id="xtick_31">
     <g id="line2d_57">
      <g>
       <use xlink:href="#ma91dd483bf" x="99.597531" y="314.728" style="stroke: #000000; stroke-width: 0.6"/>
      </g>
     </g>
    </g>
    <g id="xtick_32">
     <g id="line2d_58">
      <g>
       <use xlink:href="#ma91dd483bf" x="105.798132" y="314.728" style="stroke: #000000; stroke-width: 0.6"/>
      </g>
     </g>
    </g>
    <g id="xtick_33">
     <g id="line2d_59">
      <g>
       <use xlink:href="#ma91dd483bf" x="147.83498" y="314.728" style="stroke: #000000; stroke-width: 0.6"/>
      </g>
     </g>
    </g>
    <g id="xtick_34">
     <g id="line2d_60">
      <g>
       <use xlink:href="#ma91dd483bf" x="169.180391" y="314.728" style="stroke: #000000; stroke-width: 0.6"/>
      </g>
     </g>
    </g>
    <g id="xtick_35">
     <g id="line2d_61">
      <g>
       <use xlink:href="#ma91dd483bf" x="184.325202" y="314.728" style="stroke: #000000; stroke-width: 0.6"/>
      </g>
     </g>
    </g>
    <g id="xtick_36">
     <g id="line2d_62">
      <g>
       <use xlink:href="#ma91dd483bf" x="196.072429" y="314.728" style="stroke: #000000; stroke-width: 0.6"/>
      </g>
     </g>
    </g>
    <g id="xtick_37">
     <g id="line2d_63">
      <g>
       <use xlink:href="#ma91dd483bf" x="205.670613" y="314.728" style="stroke: #000000; stroke-width: 0.6"/>
      </g>
     </g>
    </g>
    <g id="xtick_38">
     <g id="line2d_64">
      <g>
       <use xlink:href="#ma91dd483bf" x="213.785762" y="314.728" style="stroke: #000000; stroke-width: 0.6"/>
      </g>
     </g>
    </g>
    <g id="xtick_39">
     <g id="line2d_65">
      <g>
       <use xlink:href="#ma91dd483bf" x="220.815423" y="314.728" style="stroke: #000000; stroke-width: 0.6"/>
      </g>
     </g>
    </g>
    <g id="xtick_40">
     <g id="line2d_66">
      <g>
       <use xlink:href="#ma91dd483bf" x="227.016024" y="314.728" style="stroke: #000000; stroke-width: 0.6"/>
      </g>
     </g>
    </g>
    <g id="xtick_41">
     <g id="line2d_67">
      <g>
       <use xlink:href="#ma91dd483bf" x="269.052872" y="314.728" style="stroke: #000000; stroke-width: 0.6"/>
      </g>
     </g>
    </g>
    <g id="xtick_42">
     <g id="line2d_68">
      <g>
       <use xlink:href="#ma91dd483bf" x="290.398284" y="314.728" style="stroke: #000000; stroke-width: 0.6"/>
      </g>
     </g>
    </g>
    <g id="xtick_43">
     <g id="line2d_69">
      <g>
       <use xlink:href="#ma91dd483bf" x="305.543094" y="314.728" style="stroke: #000000; stroke-width: 0.6"/>
      </g>
     </g>
    </g>
    <g id="xtick_44">
     <g id="line2d_70">
      <g>
       <use xlink:href="#ma91dd483bf" x="317.290321" y="314.728" style="stroke: #000000; stroke-width: 0.6"/>
      </g>
     </g>
    </g>
    <g id="xtick_45">
     <g id="line2d_71">
      <g>
       <use xlink:href="#ma91dd483bf" x="326.888505" y="314.728" style="stroke: #000000; stroke-width: 0.6"/>
      </g>
     </g>
    </g>
    <g id="xtick_46">
     <g id="line2d_72">
      <g>
       <use xlink:href="#ma91dd483bf" x="335.003654" y="314.728" style="stroke: #000000; stroke-width: 0.6"/>
      </g>
     </g>
    </g>
    <g id="xtick_47">
     <g id="line2d_73">
      <g>
       <use xlink:href="#ma91dd483bf" x="342.033315" y="314.728" style="stroke: #000000; stroke-width: 0.6"/>
      </g>
     </g>
    </g>
    <g id="xtick_48">
     <g id="line2d_74">
      <g>
       <use xlink:href="#ma91dd483bf" x="348.233916" y="314.728" style="stroke: #000000; stroke-width: 0.6"/>
      </g>
     </g>
    </g>
    <g id="text_11">
     <!-- Energy [TeV] -->
     <g transform="translate(173.069288 343.004563) scale(0.1 -0.1)">
      <defs>
       <path id="DejaVuSans-45" d="M 628 4666 
L 3578 4666 
L 3578 4134 
L 1259 4134 
L 1259 2753 
L 3481 2753 
L 3481 2222 
L 1259 2222 
L 1259 531 
L 3634 531 
L 3634 0 
L 628 0 
L 628 4666 
z
" transform="scale(0.015625)"/>
       <path id="DejaVuSans-67" d="M 2906 1791 
Q 2906 2416 2648 2759 
Q 2391 3103 1925 3103 
Q 1463 3103 1205 2759 
Q 947 2416 947 1791 
Q 947 1169 1205 825 
Q 1463 481 1925 481 
Q 2391 481 2648 825 
Q 2906 1169 2906 1791 
z
M 3481 434 
Q 3481 -459 3084 -895 
Q 2688 -1331 1869 -1331 
Q 1566 -1331 1297 -1286 
Q 1028 -1241 775 -1147 
L 775 -588 
Q 1028 -725 1275 -790 
Q 1522 -856 1778 -856 
Q 2344 -856 2625 -561 
Q 2906 -266 2906 331 
L 2906 616 
Q 2728 306 2450 153 
Q 2172 0 1784 0 
Q 1141 0 747 490 
Q 353 981 353 1791 
Q 353 2603 747 3093 
Q 1141 3584 1784 3584 
Q 2172 3584 2450 3431 
Q 2728 3278 2906 2969 
L 2906 3500 
L 3481 3500 
L 3481 434 
z
" transform="scale(0.015625)"/>
       <path id="DejaVuSans-79" d="M 2059 -325 
Q 1816 -950 1584 -1140 
Q 1353 -1331 966 -1331 
L 506 -1331 
L 506 -850 
L 844 -850 
Q 1081 -850 1212 -737 
Q 1344 -625 1503 -206 
L 1606 56 
L 191 3500 
L 800 3500 
L 1894 763 
L 2988 3500 
L 3597 3500 
L 2059 -325 
z
" transform="scale(0.015625)"/>
      </defs>
      <use xlink:href="#DejaVuSans-45"/>
      <use xlink:href="#DejaVuSans-6e" x="63.183594"/>
      <use xlink:href="#DejaVuSans-65" x="126.5625"/>
      <use xlink:href="#DejaVuSans-72" x="188.085938"/>
      <use xlink:href="#DejaVuSans-67" x="227.449219"/>
      <use xlink:href="#DejaVuSans-79" x="290.925781"/>
      <use xlink:href="#DejaVuSans-20" x="350.105469"/>
      <use xlink:href="#DejaVuSans-5b" x="381.892578"/>
      <use xlink:href="#DejaVuSans-54" x="420.90625"/>
      <use xlink:href="#DejaVuSans-65" x="464.990234"/>
      <use xlink:href="#DejaVuSans-56" x="526.513672"/>
      <use xlink:href="#DejaVuSans-5d" x="594.921875"/>
     </g>
    </g>
   </g>
   <g id="matplotlib.axis_4">
    <g id="ytick_16">
     <g id="line2d_75">
      <g>
       <use xlink:href="#mc79cd89548" x="60.333889" y="295.443127" style="stroke: #000000; stroke-width: 0.8"/>
      </g>
     </g>
     <g id="text_12">
      <!-- 0.5 -->
      <g transform="translate(37.430764 299.242346) scale(0.1 -0.1)">
       <defs>
        <path id="DejaVuSans-2e" d="M 684 794 
L 1344 794 
L 1344 0 
L 684 0 
L 684 794 
z
" transform="scale(0.015625)"/>
        <path id="DejaVuSans-35" d="M 691 4666 
L 3169 4666 
L 3169 4134 
L 1269 4134 
L 1269 2991 
Q 1406 3038 1543 3061 
Q 1681 3084 1819 3084 
Q 2600 3084 3056 2656 
Q 3513 2228 3513 1497 
Q 3513 744 3044 326 
Q 2575 -91 1722 -91 
Q 1428 -91 1123 -41 
Q 819 9 494 109 
L 494 744 
Q 775 591 1075 516 
Q 1375 441 1709 441 
Q 2250 441 2565 725 
Q 2881 1009 2881 1497 
Q 2881 1984 2565 2268 
Q 2250 2553 1709 2553 
Q 1456 2553 1204 2497 
Q 953 2441 691 2322 
L 691 4666 
z
" transform="scale(0.015625)"/>
       </defs>
       <use xlink:href="#DejaVuSans-30"/>
       <use xlink:href="#DejaVuSans-2e" x="63.623047"/>
       <use xlink:href="#DejaVuSans-35" x="95.410156"/>
      </g>
     </g>
    </g>
    <g id="ytick_17">
     <g id="line2d_76">
      <g>
       <use xlink:href="#mc79cd89548" x="60.333889" y="264.015927" style="stroke: #000000; stroke-width: 0.8"/>
      </g>
     </g>
     <g id="text_13">
      <!-- 0.6 -->
      <g transform="translate(37.430764 267.815146) scale(0.1 -0.1)">
       <defs>
        <path id="DejaVuSans-36" d="M 2113 2584 
Q 1688 2584 1439 2293 
Q 1191 2003 1191 1497 
Q 1191 994 1439 701 
Q 1688 409 2113 409 
Q 2538 409 2786 701 
Q 3034 994 3034 1497 
Q 3034 2003 2786 2293 
Q 2538 2584 2113 2584 
z
M 3366 4563 
L 3366 3988 
Q 3128 4100 2886 4159 
Q 2644 4219 2406 4219 
Q 1781 4219 1451 3797 
Q 1122 3375 1075 2522 
Q 1259 2794 1537 2939 
Q 1816 3084 2150 3084 
Q 2853 3084 3261 2657 
Q 3669 2231 3669 1497 
Q 3669 778 3244 343 
Q 2819 -91 2113 -91 
Q 1303 -91 875 529 
Q 447 1150 447 2328 
Q 447 3434 972 4092 
Q 1497 4750 2381 4750 
Q 2619 4750 2861 4703 
Q 3103 4656 3366 4563 
z
" transform="scale(0.015625)"/>
       </defs>
       <use xlink:href="#DejaVuSans-30"/>
       <use xlink:href="#DejaVuSans-2e" x="63.623047"/>
       <use xlink:href="#DejaVuSans-36" x="95.410156"/>
      </g>
     </g>
    </g>
    <g id="ytick_18">
     <g id="line2d_77">
      <g>
       <use xlink:href="#mc79cd89548" x="60.333889" y="232.588727" style="stroke: #000000; stroke-width: 0.8"/>
      </g>
     </g>
     <g id="text_14">
      <!-- 0.7 -->
      <g transform="translate(37.430764 236.387946) scale(0.1 -0.1)">
       <defs>
        <path id="DejaVuSans-37" d="M 525 4666 
L 3525 4666 
L 3525 4397 
L 1831 0 
L 1172 0 
L 2766 4134 
L 525 4134 
L 525 4666 
z
" transform="scale(0.015625)"/>
       </defs>
       <use xlink:href="#DejaVuSans-30"/>
       <use xlink:href="#DejaVuSans-2e" x="63.623047"/>
       <use xlink:href="#DejaVuSans-37" x="95.410156"/>
      </g>
     </g>
    </g>
    <g id="text_15">
     <!-- Coverage -->
     <g transform="translate(31.351077 283.687431) rotate(-90) scale(0.1 -0.1)">
      <defs>
       <path id="DejaVuSans-43" d="M 4122 4306 
L 4122 3641 
Q 3803 3938 3442 4084 
Q 3081 4231 2675 4231 
Q 1875 4231 1450 3742 
Q 1025 3253 1025 2328 
Q 1025 1406 1450 917 
Q 1875 428 2675 428 
Q 3081 428 3442 575 
Q 3803 722 4122 1019 
L 4122 359 
Q 3791 134 3420 21 
Q 3050 -91 2638 -91 
Q 1578 -91 968 557 
Q 359 1206 359 2328 
Q 359 3453 968 4101 
Q 1578 4750 2638 4750 
Q 3056 4750 3426 4639 
Q 3797 4528 4122 4306 
z
" transform="scale(0.015625)"/>
       <path id="DejaVuSans-76" d="M 191 3500 
L 800 3500 
L 1894 563 
L 2988 3500 
L 3597 3500 
L 2284 0 
L 1503 0 
L 191 3500 
z
" transform="scale(0.015625)"/>
      </defs>
      <use xlink:href="#DejaVuSans-43"/>
      <use xlink:href="#DejaVuSans-6f" x="69.824219"/>
      <use xlink:href="#DejaVuSans-76" x="131.005859"/>
      <use xlink:href="#DejaVuSans-65" x="190.185547"/>
      <use xlink:href="#DejaVuSans-72" x="251.708984"/>
      <use xlink:href="#DejaVuSans-61" x="292.822266"/>
      <use xlink:href="#DejaVuSans-67" x="354.101562"/>
      <use xlink:href="#DejaVuSans-65" x="417.578125"/>
     </g>
    </g>
   </g>
   <g id="line2d_78">
    <path d="M 73.464167 224.017673 
L 88.616404 266.872945 
L 103.76864 309.728218 
L 118.920877 281.158036 
L 134.073113 266.872945 
L 149.22535 309.728218 
L 164.377586 266.872945 
L 179.529823 309.728218 
L 194.682059 266.872945 
L 209.834296 224.017673 
L 224.986532 281.158036 
L 240.138769 209.732582 
L 255.291006 295.443127 
L 270.443242 252.587855 
L 285.595479 266.872945 
L 300.747715 252.587855 
L 315.899952 252.587855 
L 331.052188 238.302764 
" clip-path="url(#p7637ec06e2)" style="fill: none; stroke: #ff0000; stroke-width: 1.5; stroke-linecap: square"/>
   </g>
   <g id="line2d_79">
    <path d="M 73.464167 224.017673 
L 88.616404 266.872945 
L 103.76864 295.443127 
L 118.920877 266.872945 
L 134.073113 252.587855 
L 149.22535 309.728218 
L 164.377586 266.872945 
L 179.529823 252.587855 
L 194.682059 266.872945 
L 209.834296 209.732582 
L 224.986532 281.158036 
L 240.138769 209.732582 
L 255.291006 281.158036 
L 270.443242 252.587855 
L 285.595479 266.872945 
L 300.747715 252.587855 
L 315.899952 252.587855 
L 331.052188 238.302764 
" clip-path="url(#p7637ec06e2)" style="fill: none; stroke: #008000; stroke-width: 1.5; stroke-linecap: square"/>
   </g>
   <g id="line2d_80">
    <path d="M 73.464167 238.874167 
L 88.616404 238.874167 
L 103.76864 238.874167 
L 118.920877 238.874167 
L 134.073113 238.874167 
L 149.22535 238.874167 
L 164.377586 238.874167 
L 179.529823 238.874167 
L 194.682059 238.874167 
L 209.834296 238.874167 
L 224.986532 238.874167 
L 240.138769 238.874167 
L 255.291006 238.874167 
L 270.443242 238.874167 
L 285.595479 238.874167 
L 300.747715 238.874167 
L 315.899952 238.874167 
L 331.052188 238.874167 
" clip-path="url(#p7637ec06e2)" style="fill: none; stroke-dasharray: 1.5,2.475; stroke-dashoffset: 0; stroke: #008000; stroke-width: 1.5"/>
   </g>
   <g id="patch_9">
    <path d="M 60.333889 314.728 
L 60.333889 204.7328 
" style="fill: none; stroke: #000000; stroke-width: 0.8; stroke-linejoin: miter; stroke-linecap: square"/>
   </g>
   <g id="patch_10">
    <path d="M 349.2 314.728 
L 349.2 204.7328 
" style="fill: none; stroke: #000000; stroke-width: 0.8; stroke-linejoin: miter; stroke-linecap: square"/>
   </g>
   <g id="patch_11">
    <path d="M 60.333889 314.728 
L 349.2 314.728 
" style="fill: none; stroke: #000000; stroke-width: 0.8; stroke-linejoin: miter; stroke-linecap: square"/>
   </g>
   <g id="patch_12">
    <path d="M 60.333889 204.7328 
L 349.2 204.7328 
" style="fill: none; stroke: #000000; stroke-width: 0.8; stroke-linejoin: miter; stroke-linecap: square"/>
   </g>
   <g id="legend_2">
    <g id="patch_13">
     <path d="M 264.276562 309.728 
L 342.2 309.728 
Q 344.2 309.728 344.2 307.728 
L 344.2 264.693625 
Q 344.2 262.693625 342.2 262.693625 
L 264.276562 262.693625 
Q 262.276562 262.693625 262.276562 264.693625 
L 262.276562 307.728 
Q 262.276562 309.728 264.276562 309.728 
z
" style="fill: #ffffff; opacity: 0.8; stroke: #cccccc; stroke-linejoin: miter"/>
    </g>
    <g id="line2d_81">
     <path d="M 266.276562 270.792063 
L 276.276562 270.792063 
L 286.276562 270.792063 
" style="fill: none; stroke: #ff0000; stroke-width: 1.5; stroke-linecap: square"/>
    </g>
    <g id="text_16">
     <!-- Standard -->
     <g transform="translate(294.276562 274.292063) scale(0.1 -0.1)">
      <use xlink:href="#DejaVuSans-53"/>
      <use xlink:href="#DejaVuSans-74" x="63.476562"/>
      <use xlink:href="#DejaVuSans-61" x="102.685547"/>
      <use xlink:href="#DejaVuSans-6e" x="163.964844"/>
      <use xlink:href="#DejaVuSans-64" x="227.34375"/>
      <use xlink:href="#DejaVuSans-61" x="290.820312"/>
      <use xlink:href="#DejaVuSans-72" x="352.099609"/>
      <use xlink:href="#DejaVuSans-64" x="391.462891"/>
     </g>
    </g>
    <g id="line2d_82">
     <path d="M 266.276562 285.470188 
L 276.276562 285.470188 
L 286.276562 285.470188 
" style="fill: none; stroke: #008000; stroke-width: 1.5; stroke-linecap: square"/>
    </g>
    <g id="text_17">
     <!-- Nuisance -->
     <g transform="translate(294.276562 288.970188) scale(0.1 -0.1)">
      <use xlink:href="#DejaVuSans-4e"/>
      <use xlink:href="#DejaVuSans-75" x="74.804688"/>
      <use xlink:href="#DejaVuSans-69" x="138.183594"/>
      <use xlink:href="#DejaVuSans-73" x="165.966797"/>
      <use xlink:href="#DejaVuSans-61" x="218.066406"/>
      <use xlink:href="#DejaVuSans-6e" x="279.345703"/>
      <use xlink:href="#DejaVuSans-63" x="342.724609"/>
      <use xlink:href="#DejaVuSans-65" x="397.705078"/>
     </g>
    </g>
    <g id="line2d_83">
     <path d="M 266.276562 300.148313 
L 276.276562 300.148313 
L 286.276562 300.148313 
" style="fill: none; stroke-dasharray: 1.5,2.475; stroke-dashoffset: 0; stroke: #008000; stroke-width: 1.5"/>
    </g>
    <g id="text_18">
     <!-- 68 % -->
     <g transform="translate(294.276562 303.648313) scale(0.1 -0.1)">
      <defs>
       <path id="DejaVuSans-38" d="M 2034 2216 
Q 1584 2216 1326 1975 
Q 1069 1734 1069 1313 
Q 1069 891 1326 650 
Q 1584 409 2034 409 
Q 2484 409 2743 651 
Q 3003 894 3003 1313 
Q 3003 1734 2745 1975 
Q 2488 2216 2034 2216 
z
M 1403 2484 
Q 997 2584 770 2862 
Q 544 3141 544 3541 
Q 544 4100 942 4425 
Q 1341 4750 2034 4750 
Q 2731 4750 3128 4425 
Q 3525 4100 3525 3541 
Q 3525 3141 3298 2862 
Q 3072 2584 2669 2484 
Q 3125 2378 3379 2068 
Q 3634 1759 3634 1313 
Q 3634 634 3220 271 
Q 2806 -91 2034 -91 
Q 1263 -91 848 271 
Q 434 634 434 1313 
Q 434 1759 690 2068 
Q 947 2378 1403 2484 
z
M 1172 3481 
Q 1172 3119 1398 2916 
Q 1625 2713 2034 2713 
Q 2441 2713 2670 2916 
Q 2900 3119 2900 3481 
Q 2900 3844 2670 4047 
Q 2441 4250 2034 4250 
Q 1625 4250 1398 4047 
Q 1172 3844 1172 3481 
z
" transform="scale(0.015625)"/>
       <path id="DejaVuSans-25" d="M 4653 2053 
Q 4381 2053 4226 1822 
Q 4072 1591 4072 1178 
Q 4072 772 4226 539 
Q 4381 306 4653 306 
Q 4919 306 5073 539 
Q 5228 772 5228 1178 
Q 5228 1588 5073 1820 
Q 4919 2053 4653 2053 
z
M 4653 2450 
Q 5147 2450 5437 2106 
Q 5728 1763 5728 1178 
Q 5728 594 5436 251 
Q 5144 -91 4653 -91 
Q 4153 -91 3862 251 
Q 3572 594 3572 1178 
Q 3572 1766 3864 2108 
Q 4156 2450 4653 2450 
z
M 1428 4353 
Q 1159 4353 1004 4120 
Q 850 3888 850 3481 
Q 850 3069 1003 2837 
Q 1156 2606 1428 2606 
Q 1700 2606 1854 2837 
Q 2009 3069 2009 3481 
Q 2009 3884 1853 4118 
Q 1697 4353 1428 4353 
z
M 4250 4750 
L 4750 4750 
L 1831 -91 
L 1331 -91 
L 4250 4750 
z
M 1428 4750 
Q 1922 4750 2215 4408 
Q 2509 4066 2509 3481 
Q 2509 2891 2217 2550 
Q 1925 2209 1428 2209 
Q 931 2209 642 2551 
Q 353 2894 353 3481 
Q 353 4063 643 4406 
Q 934 4750 1428 4750 
z
" transform="scale(0.015625)"/>
      </defs>
      <use xlink:href="#DejaVuSans-36"/>
      <use xlink:href="#DejaVuSans-38" x="63.623047"/>
      <use xlink:href="#DejaVuSans-20" x="127.246094"/>
      <use xlink:href="#DejaVuSans-25" x="159.033203"/>
     </g>
    </g>
   </g>
  </g>
 </g>
 <defs>
  <clipPath id="pba3fa1d7ad">
   <rect x="60.333889" y="25.44" width="288.866111" height="164.9928"/>
  </clipPath>
  <clipPath id="p7637ec06e2">
   <rect x="60.333889" y="204.7328" width="288.866111" height="109.9952"/>
  </clipPath>
 </defs>
</svg>
