<?xml version="1.0" encoding="utf-8" standalone="no"?>
<!DOCTYPE svg PUBLIC "-//W3C//DTD SVG 1.1//EN"
  "http://www.w3.org/Graphics/SVG/1.1/DTD/svg11.dtd">
<svg xmlns:xlink="http://www.w3.org/1999/xlink" width="360pt" height="360pt" viewBox="0 0 360 360" xmlns="http://www.w3.org/2000/svg" version="1.1">
 <metadata>
  <rdf:RDF xmlns:dc="http://purl.org/dc/elements/1.1/" xmlns:cc="http://creativecommons.org/ns#" xmlns:rdf="http://www.w3.org/1999/02/22-rdf-syntax-ns#">
   <cc:Work>
    <dc:type rdf:resource="http://purl.org/dc/dcmitype/StillImage"/>
    <dc:date>2023-02-01T15:09:51.286397</dc:date>
    <dc:format>image/svg+xml</dc:format>
    <dc:creator>
     <cc:Agent>
      <dc:title>Matplotlib v3.6.2, https://matplotlib.org/</dc:title>
     </cc:Agent>
    </dc:creator>
   </cc:Work>
  </rdf:RDF>
 </metadata>
 <defs>
  <style type="text/css">*{stroke-linejoin: round; stroke-linecap: butt}</style>
 </defs>
 <g id="figure_1">
  <g id="patch_1">
   <path d="M 0 360 
L 360 360 
L 360 0 
L 0 0 
z
" style="fill: #ffffff"/>
  </g>
  <g id="axes_1">
   <g id="patch_2">
    <path d="M 60.468889 188.201489 
L 349.2 188.201489 
L 349.2 25.44 
L 60.468889 25.44 
z
" style="fill: #ffffff"/>
   </g>
   <g id="PolyCollection_1">
    <path d="M 74.892487 48.151974 
L 74.892487 56.790343 
L 77.491401 57.098477 
L 80.090314 57.407719 
L 82.689228 57.718095 
L 85.288141 58.029633 
L 87.887054 58.342361 
L 90.485968 58.656308 
L 93.084881 58.971505 
L 95.683795 59.287981 
L 98.282708 59.605769 
L 100.881621 59.9249 
L 103.480535 60.245408 
L 106.079448 60.567325 
L 108.678361 60.890687 
L 111.277275 61.215526 
L 113.876188 61.541879 
L 116.475102 61.869779 
L 119.074015 62.199262 
L 121.672928 62.530362 
L 124.271842 62.863115 
L 126.870755 63.197554 
L 129.469668 63.533715 
L 132.068582 63.871629 
L 134.667495 64.211331 
L 137.266409 64.55285 
L 139.865322 64.896218 
L 142.464235 65.241464 
L 145.063149 65.588614 
L 147.662062 65.937695 
L 150.260976 66.288731 
L 152.859889 66.641743 
L 155.458802 66.99675 
L 158.057716 67.353771 
L 160.656629 67.712818 
L 163.255542 68.073904 
L 165.854456 68.437039 
L 168.453369 68.802228 
L 171.052283 69.169475 
L 173.651196 69.53878 
L 176.250109 69.910142 
L 178.849023 70.283554 
L 181.447936 70.659009 
L 184.04685 71.036496 
L 186.645763 71.416001 
L 189.244676 71.797508 
L 191.84359 72.180998 
L 194.442503 72.566452 
L 197.041416 72.953844 
L 199.64033 73.343151 
L 202.239243 73.734346 
L 204.838157 74.1274 
L 207.43707 74.522284 
L 210.035983 74.918965 
L 212.634897 75.317413 
L 215.23381 75.717594 
L 217.832724 76.119474 
L 220.431637 76.523018 
L 223.03055 76.928193 
L 225.629464 77.334964 
L 228.228377 77.743294 
L 230.82729 78.15315 
L 233.426204 78.564497 
L 236.025117 78.9773 
L 238.624031 79.391525 
L 241.222944 79.807138 
L 243.821857 80.224107 
L 246.420771 80.642399 
L 249.019684 81.061982 
L 251.618597 81.482825 
L 254.217511 81.904898 
L 256.816424 82.328172 
L 259.415338 82.752618 
L 262.014251 83.178207 
L 264.613164 83.604914 
L 267.212078 84.032711 
L 269.810991 84.461575 
L 272.409905 84.89148 
L 275.008818 85.322402 
L 277.607731 85.754321 
L 280.206645 86.187213 
L 282.805558 86.621058 
L 285.404471 87.055836 
L 288.003385 87.491527 
L 290.602298 87.928113 
L 293.201212 88.365576 
L 295.800125 88.8039 
L 298.399038 89.243068 
L 300.997952 89.683064 
L 303.596865 90.123874 
L 306.195779 90.565484 
L 308.794692 91.00788 
L 311.393605 91.451049 
L 313.992519 91.89498 
L 316.591432 92.339659 
L 319.190345 92.785077 
L 321.789259 93.231222 
L 324.388172 93.678086 
L 326.987086 94.125657 
L 329.585999 94.573927 
L 332.184912 95.022888 
L 332.184912 83.321701 
L 332.184912 83.321701 
L 329.585999 83.005194 
L 326.987086 82.688521 
L 324.388172 82.371671 
L 321.789259 82.054634 
L 319.190345 81.737398 
L 316.591432 81.419952 
L 313.992519 81.102284 
L 311.393605 80.78438 
L 308.794692 80.466228 
L 306.195779 80.147814 
L 303.596865 79.829123 
L 300.997952 79.51014 
L 298.399038 79.19085 
L 295.800125 78.871236 
L 293.201212 78.551282 
L 290.602298 78.230969 
L 288.003385 77.91028 
L 285.404471 77.589196 
L 282.805558 77.267697 
L 280.206645 76.945762 
L 277.607731 76.62337 
L 275.008818 76.300499 
L 272.409905 75.977126 
L 269.810991 75.653228 
L 267.212078 75.32878 
L 264.613164 75.003755 
L 262.014251 74.67813 
L 259.415338 74.351875 
L 256.816424 74.024964 
L 254.217511 73.697367 
L 251.618597 73.369056 
L 249.019684 73.039999 
L 246.420771 72.710166 
L 243.821857 72.379524 
L 241.222944 72.048042 
L 238.624031 71.715685 
L 236.025117 71.382421 
L 233.426204 71.048214 
L 230.82729 70.713031 
L 228.228377 70.376836 
L 225.629464 70.039593 
L 223.03055 69.701268 
L 220.431637 69.361824 
L 217.832724 69.021226 
L 215.23381 68.67944 
L 212.634897 68.336429 
L 210.035983 67.99216 
L 207.43707 67.6466 
L 204.838157 67.299716 
L 202.239243 66.951476 
L 199.64033 66.601851 
L 197.041416 66.25081 
L 194.442503 65.898328 
L 191.84359 65.544379 
L 189.244676 65.18894 
L 186.645763 64.831989 
L 184.04685 64.473509 
L 181.447936 64.113481 
L 178.849023 63.751894 
L 176.250109 63.388735 
L 173.651196 63.023997 
L 171.052283 62.657675 
L 168.453369 62.289765 
L 165.854456 61.920269 
L 163.255542 61.549189 
L 160.656629 61.176533 
L 158.057716 60.80231 
L 155.458802 60.426531 
L 152.859889 60.049211 
L 150.260976 59.670367 
L 147.662062 59.29002 
L 145.063149 58.90819 
L 142.464235 58.524903 
L 139.865322 58.140183 
L 137.266409 57.754059 
L 134.667495 57.36656 
L 132.068582 56.977716 
L 129.469668 56.58756 
L 126.870755 56.196125 
L 124.271842 55.803444 
L 121.672928 55.409551 
L 119.074015 55.014483 
L 116.475102 54.618273 
L 113.876188 54.220958 
L 111.277275 53.822573 
L 108.678361 53.423153 
L 106.079448 53.022734 
L 103.480535 52.621351 
L 100.881621 52.219038 
L 98.282708 51.81583 
L 95.683795 51.411759 
L 93.084881 51.00686 
L 90.485968 50.601164 
L 87.887054 50.194703 
L 85.288141 49.787508 
L 82.689228 49.379609 
L 80.090314 48.971035 
L 77.491401 48.561814 
L 74.892487 48.151974 
z
" clip-path="url(#p036dc4f7ce)" style="fill: #008000; fill-opacity: 0.5"/>
   </g>
   <g id="PolyCollection_2">
    <path d="M 74.892487 49.180519 
L 74.892487 55.406517 
L 77.491401 55.700804 
L 80.090314 55.995908 
L 82.689228 56.291862 
L 85.288141 56.588703 
L 87.887054 56.886468 
L 90.485968 57.185201 
L 93.084881 57.484948 
L 95.683795 57.785757 
L 98.282708 58.087684 
L 100.881621 58.390786 
L 103.480535 58.695126 
L 106.079448 59.000775 
L 108.678361 59.307804 
L 111.277275 59.616294 
L 113.876188 59.92633 
L 116.475102 60.238006 
L 119.074015 60.551418 
L 121.672928 60.866673 
L 124.271842 61.183883 
L 126.870755 61.503165 
L 129.469668 61.824645 
L 132.068582 62.148453 
L 134.667495 62.474724 
L 137.266409 62.803596 
L 139.865322 63.135213 
L 142.464235 63.469714 
L 145.063149 63.807242 
L 147.662062 64.147933 
L 150.260976 64.491917 
L 152.859889 64.839317 
L 155.458802 65.19024 
L 158.057716 65.544781 
L 160.656629 65.903016 
L 163.255542 66.265002 
L 165.854456 66.630771 
L 168.453369 67.000337 
L 171.052283 67.373686 
L 173.651196 67.750785 
L 176.250109 68.131576 
L 178.849023 68.515982 
L 181.447936 68.90391 
L 184.04685 69.29525 
L 186.645763 69.68988 
L 189.244676 70.08767 
L 191.84359 70.488483 
L 194.442503 70.892178 
L 197.041416 71.298613 
L 199.64033 71.707646 
L 202.239243 72.119139 
L 204.838157 72.532956 
L 207.43707 72.948967 
L 210.035983 73.367049 
L 212.634897 73.787082 
L 215.23381 74.208955 
L 217.832724 74.632562 
L 220.431637 75.057806 
L 223.03055 75.484594 
L 225.629464 75.912841 
L 228.228377 76.342467 
L 230.82729 76.773399 
L 233.426204 77.205567 
L 236.025117 77.63891 
L 238.624031 78.073368 
L 241.222944 78.508888 
L 243.821857 78.94542 
L 246.420771 79.382919 
L 249.019684 79.821341 
L 251.618597 80.260649 
L 254.217511 80.700806 
L 256.816424 81.141779 
L 259.415338 81.583537 
L 262.014251 82.026053 
L 264.613164 82.469301 
L 267.212078 82.913256 
L 269.810991 83.357897 
L 272.409905 83.803204 
L 275.008818 84.249157 
L 277.607731 84.695739 
L 280.206645 85.142935 
L 282.805558 85.590729 
L 285.404471 86.039109 
L 288.003385 86.488061 
L 290.602298 86.937575 
L 293.201212 87.38764 
L 295.800125 87.838245 
L 298.399038 88.289382 
L 300.997952 88.741043 
L 303.596865 89.193221 
L 306.195779 89.645907 
L 308.794692 90.099097 
L 311.393605 90.552783 
L 313.992519 91.006962 
L 316.591432 91.461628 
L 319.190345 91.916776 
L 321.789259 92.372403 
L 324.388172 92.828505 
L 326.987086 93.285079 
L 329.585999 93.742123 
L 332.184912 94.199633 
L 332.184912 83.851813 
L 332.184912 83.851813 
L 329.585999 83.543835 
L 326.987086 83.235902 
L 324.388172 82.92801 
L 321.789259 82.620154 
L 319.190345 82.312329 
L 316.591432 82.004531 
L 313.992519 81.696753 
L 311.393605 81.38899 
L 308.794692 81.081236 
L 306.195779 80.773482 
L 303.596865 80.465723 
L 300.997952 80.15795 
L 298.399038 79.850155 
L 295.800125 79.542329 
L 293.201212 79.234463 
L 290.602298 78.926545 
L 288.003385 78.618566 
L 285.404471 78.310513 
L 282.805558 78.002373 
L 280.206645 77.694133 
L 277.607731 77.385778 
L 275.008818 77.077292 
L 272.409905 76.768658 
L 269.810991 76.459858 
L 267.212078 76.150872 
L 264.613164 75.841679 
L 262.014251 75.532255 
L 259.415338 75.222576 
L 256.816424 74.912615 
L 254.217511 74.602342 
L 251.618597 74.291727 
L 249.019684 73.980735 
L 246.420771 73.669329 
L 243.821857 73.357471 
L 241.222944 73.045117 
L 238.624031 72.732219 
L 236.025117 72.418729 
L 233.426204 72.104591 
L 230.82729 71.789746 
L 228.228377 71.474131 
L 225.629464 71.157676 
L 223.03055 70.840307 
L 220.431637 70.521944 
L 217.832724 70.202502 
L 215.23381 69.881886 
L 212.634897 69.56 
L 210.035983 69.236736 
L 207.43707 68.911983 
L 204.838157 68.585622 
L 202.239243 68.257528 
L 199.64033 67.92757 
L 197.041416 67.595614 
L 194.442503 67.26152 
L 191.84359 66.925146 
L 189.244676 66.58635 
L 186.645763 66.244992 
L 184.04685 65.900932 
L 181.447936 65.554042 
L 178.849023 65.204199 
L 176.250109 64.851293 
L 173.651196 64.49523 
L 171.052283 64.135934 
L 168.453369 63.773347 
L 165.854456 63.407435 
L 163.255542 63.038187 
L 160.656629 62.665612 
L 158.057716 62.289746 
L 155.458802 61.910644 
L 152.859889 61.528384 
L 150.260976 61.143059 
L 147.662062 60.754778 
L 145.063149 60.363662 
L 142.464235 59.969843 
L 139.865322 59.573457 
L 137.266409 59.174646 
L 134.667495 58.773552 
L 132.068582 58.370316 
L 129.469668 57.965078 
L 126.870755 57.557973 
L 124.271842 57.149132 
L 121.672928 56.73868 
L 119.074015 56.326736 
L 116.475102 55.913412 
L 113.876188 55.498814 
L 111.277275 55.083041 
L 108.678361 54.666186 
L 106.079448 54.248335 
L 103.480535 53.829568 
L 100.881621 53.40996 
L 98.282708 52.98958 
L 95.683795 52.568491 
L 93.084881 52.146753 
L 90.485968 51.724421 
L 87.887054 51.301545 
L 85.288141 50.878171 
L 82.689228 50.454343 
L 80.090314 50.030101 
L 77.491401 49.605482 
L 74.892487 49.180519 
z
" clip-path="url(#p036dc4f7ce)" style="fill: #ff0000; fill-opacity: 0.6"/>
   </g>
   <g id="matplotlib.axis_1">
    <g id="xtick_1">
     <g id="line2d_1">
      <defs>
       <path id="m008baef2df" d="M 0 0 
L 0 3.5 
" style="stroke: #000000; stroke-width: 0.8"/>
      </defs>
      <g>
       <use xlink:href="#m008baef2df" x="111.812345" y="188.201489" style="stroke: #000000; stroke-width: 0.8"/>
      </g>
     </g>
    </g>
    <g id="xtick_2">
     <g id="line2d_2">
      <g>
       <use xlink:href="#m008baef2df" x="234.114151" y="188.201489" style="stroke: #000000; stroke-width: 0.8"/>
      </g>
     </g>
    </g>
    <g id="xtick_3">
     <g id="line2d_3">
      <defs>
       <path id="m7655530eff" d="M 0 0 
L 0 2 
" style="stroke: #000000; stroke-width: 0.6"/>
      </defs>
      <g>
       <use xlink:href="#m7655530eff" x="63.143563" y="188.201489" style="stroke: #000000; stroke-width: 0.6"/>
      </g>
     </g>
    </g>
    <g id="xtick_4">
     <g id="line2d_4">
      <g>
       <use xlink:href="#m7655530eff" x="74.995833" y="188.201489" style="stroke: #000000; stroke-width: 0.6"/>
      </g>
     </g>
    </g>
    <g id="xtick_5">
     <g id="line2d_5">
      <g>
       <use xlink:href="#m7655530eff" x="84.679842" y="188.201489" style="stroke: #000000; stroke-width: 0.6"/>
      </g>
     </g>
    </g>
    <g id="xtick_6">
     <g id="line2d_6">
      <g>
       <use xlink:href="#m7655530eff" x="92.867556" y="188.201489" style="stroke: #000000; stroke-width: 0.6"/>
      </g>
     </g>
    </g>
    <g id="xtick_7">
     <g id="line2d_7">
      <g>
       <use xlink:href="#m7655530eff" x="99.960076" y="188.201489" style="stroke: #000000; stroke-width: 0.6"/>
      </g>
     </g>
    </g>
    <g id="xtick_8">
     <g id="line2d_8">
      <g>
       <use xlink:href="#m7655530eff" x="106.216121" y="188.201489" style="stroke: #000000; stroke-width: 0.6"/>
      </g>
     </g>
    </g>
    <g id="xtick_9">
     <g id="line2d_9">
      <g>
       <use xlink:href="#m7655530eff" x="148.628857" y="188.201489" style="stroke: #000000; stroke-width: 0.6"/>
      </g>
     </g>
    </g>
    <g id="xtick_10">
     <g id="line2d_10">
      <g>
       <use xlink:href="#m7655530eff" x="170.165136" y="188.201489" style="stroke: #000000; stroke-width: 0.6"/>
      </g>
     </g>
    </g>
    <g id="xtick_11">
     <g id="line2d_11">
      <g>
       <use xlink:href="#m7655530eff" x="185.44537" y="188.201489" style="stroke: #000000; stroke-width: 0.6"/>
      </g>
     </g>
    </g>
    <g id="xtick_12">
     <g id="line2d_12">
      <g>
       <use xlink:href="#m7655530eff" x="197.297639" y="188.201489" style="stroke: #000000; stroke-width: 0.6"/>
      </g>
     </g>
    </g>
    <g id="xtick_13">
     <g id="line2d_13">
      <g>
       <use xlink:href="#m7655530eff" x="206.981649" y="188.201489" style="stroke: #000000; stroke-width: 0.6"/>
      </g>
     </g>
    </g>
    <g id="xtick_14">
     <g id="line2d_14">
      <g>
       <use xlink:href="#m7655530eff" x="215.169362" y="188.201489" style="stroke: #000000; stroke-width: 0.6"/>
      </g>
     </g>
    </g>
    <g id="xtick_15">
     <g id="line2d_15">
      <g>
       <use xlink:href="#m7655530eff" x="222.261882" y="188.201489" style="stroke: #000000; stroke-width: 0.6"/>
      </g>
     </g>
    </g>
    <g id="xtick_16">
     <g id="line2d_16">
      <g>
       <use xlink:href="#m7655530eff" x="228.517928" y="188.201489" style="stroke: #000000; stroke-width: 0.6"/>
      </g>
     </g>
    </g>
    <g id="xtick_17">
     <g id="line2d_17">
      <g>
       <use xlink:href="#m7655530eff" x="270.930664" y="188.201489" style="stroke: #000000; stroke-width: 0.6"/>
      </g>
     </g>
    </g>
    <g id="xtick_18">
     <g id="line2d_18">
      <g>
       <use xlink:href="#m7655530eff" x="292.466943" y="188.201489" style="stroke: #000000; stroke-width: 0.6"/>
      </g>
     </g>
    </g>
    <g id="xtick_19">
     <g id="line2d_19">
      <g>
       <use xlink:href="#m7655530eff" x="307.747176" y="188.201489" style="stroke: #000000; stroke-width: 0.6"/>
      </g>
     </g>
    </g>
    <g id="xtick_20">
     <g id="line2d_20">
      <g>
       <use xlink:href="#m7655530eff" x="319.599446" y="188.201489" style="stroke: #000000; stroke-width: 0.6"/>
      </g>
     </g>
    </g>
    <g id="xtick_21">
     <g id="line2d_21">
      <g>
       <use xlink:href="#m7655530eff" x="329.283455" y="188.201489" style="stroke: #000000; stroke-width: 0.6"/>
      </g>
     </g>
    </g>
    <g id="xtick_22">
     <g id="line2d_22">
      <g>
       <use xlink:href="#m7655530eff" x="337.471168" y="188.201489" style="stroke: #000000; stroke-width: 0.6"/>
      </g>
     </g>
    </g>
    <g id="xtick_23">
     <g id="line2d_23">
      <g>
       <use xlink:href="#m7655530eff" x="344.563688" y="188.201489" style="stroke: #000000; stroke-width: 0.6"/>
      </g>
     </g>
    </g>
   </g>
   <g id="matplotlib.axis_2">
    <g id="ytick_1">
     <g id="line2d_24">
      <defs>
       <path id="m9fba8c3dbc" d="M 0 0 
L -3.5 0 
" style="stroke: #000000; stroke-width: 0.8"/>
      </defs>
      <g>
       <use xlink:href="#m9fba8c3dbc" x="60.468889" y="172.65506" style="stroke: #000000; stroke-width: 0.8"/>
      </g>
     </g>
     <g id="text_1">
      <!-- $\mathdefault{10^{-14}}$ -->
      <g transform="translate(25.568889 176.454279) scale(0.1 -0.1)">
       <defs>
        <path id="DejaVuSans-31" d="M 794 531 
L 1825 531 
L 1825 4091 
L 703 3866 
L 703 4441 
L 1819 4666 
L 2450 4666 
L 2450 531 
L 3481 531 
L 3481 0 
L 794 0 
L 794 531 
z
" transform="scale(0.015625)"/>
        <path id="DejaVuSans-30" d="M 2034 4250 
Q 1547 4250 1301 3770 
Q 1056 3291 1056 2328 
Q 1056 1369 1301 889 
Q 1547 409 2034 409 
Q 2525 409 2770 889 
Q 3016 1369 3016 2328 
Q 3016 3291 2770 3770 
Q 2525 4250 2034 4250 
z
M 2034 4750 
Q 2819 4750 3233 4129 
Q 3647 3509 3647 2328 
Q 3647 1150 3233 529 
Q 2819 -91 2034 -91 
Q 1250 -91 836 529 
Q 422 1150 422 2328 
Q 422 3509 836 4129 
Q 1250 4750 2034 4750 
z
" transform="scale(0.015625)"/>
        <path id="DejaVuSans-2212" d="M 678 2272 
L 4684 2272 
L 4684 1741 
L 678 1741 
L 678 2272 
z
" transform="scale(0.015625)"/>
        <path id="DejaVuSans-34" d="M 2419 4116 
L 825 1625 
L 2419 1625 
L 2419 4116 
z
M 2253 4666 
L 3047 4666 
L 3047 1625 
L 3713 1625 
L 3713 1100 
L 3047 1100 
L 3047 0 
L 2419 0 
L 2419 1100 
L 313 1100 
L 313 1709 
L 2253 4666 
z
" transform="scale(0.015625)"/>
       </defs>
       <use xlink:href="#DejaVuSans-31" transform="translate(0 0.684375)"/>
       <use xlink:href="#DejaVuSans-30" transform="translate(63.623047 0.684375)"/>
       <use xlink:href="#DejaVuSans-2212" transform="translate(128.203125 38.965625) scale(0.7)"/>
       <use xlink:href="#DejaVuSans-31" transform="translate(186.855469 38.965625) scale(0.7)"/>
       <use xlink:href="#DejaVuSans-34" transform="translate(231.391602 38.965625) scale(0.7)"/>
      </g>
     </g>
    </g>
    <g id="ytick_2">
     <g id="line2d_25">
      <g>
       <use xlink:href="#m9fba8c3dbc" x="60.468889" y="114.988991" style="stroke: #000000; stroke-width: 0.8"/>
      </g>
     </g>
     <g id="text_2">
      <!-- $\mathdefault{10^{-13}}$ -->
      <g transform="translate(25.568889 118.78821) scale(0.1 -0.1)">
       <defs>
        <path id="DejaVuSans-33" d="M 2597 2516 
Q 3050 2419 3304 2112 
Q 3559 1806 3559 1356 
Q 3559 666 3084 287 
Q 2609 -91 1734 -91 
Q 1441 -91 1130 -33 
Q 819 25 488 141 
L 488 750 
Q 750 597 1062 519 
Q 1375 441 1716 441 
Q 2309 441 2620 675 
Q 2931 909 2931 1356 
Q 2931 1769 2642 2001 
Q 2353 2234 1838 2234 
L 1294 2234 
L 1294 2753 
L 1863 2753 
Q 2328 2753 2575 2939 
Q 2822 3125 2822 3475 
Q 2822 3834 2567 4026 
Q 2313 4219 1838 4219 
Q 1578 4219 1281 4162 
Q 984 4106 628 3988 
L 628 4550 
Q 988 4650 1302 4700 
Q 1616 4750 1894 4750 
Q 2613 4750 3031 4423 
Q 3450 4097 3450 3541 
Q 3450 3153 3228 2886 
Q 3006 2619 2597 2516 
z
" transform="scale(0.015625)"/>
       </defs>
       <use xlink:href="#DejaVuSans-31" transform="translate(0 0.765625)"/>
       <use xlink:href="#DejaVuSans-30" transform="translate(63.623047 0.765625)"/>
       <use xlink:href="#DejaVuSans-2212" transform="translate(128.203125 39.046875) scale(0.7)"/>
       <use xlink:href="#DejaVuSans-31" transform="translate(186.855469 39.046875) scale(0.7)"/>
       <use xlink:href="#DejaVuSans-33" transform="translate(231.391602 39.046875) scale(0.7)"/>
      </g>
     </g>
    </g>
    <g id="ytick_3">
     <g id="line2d_26">
      <g>
       <use xlink:href="#m9fba8c3dbc" x="60.468889" y="57.322923" style="stroke: #000000; stroke-width: 0.8"/>
      </g>
     </g>
     <g id="text_3">
      <!-- $\mathdefault{10^{-12}}$ -->
      <g transform="translate(25.568889 61.122142) scale(0.1 -0.1)">
       <defs>
        <path id="DejaVuSans-32" d="M 1228 531 
L 3431 531 
L 3431 0 
L 469 0 
L 469 531 
Q 828 903 1448 1529 
Q 2069 2156 2228 2338 
Q 2531 2678 2651 2914 
Q 2772 3150 2772 3378 
Q 2772 3750 2511 3984 
Q 2250 4219 1831 4219 
Q 1534 4219 1204 4116 
Q 875 4013 500 3803 
L 500 4441 
Q 881 4594 1212 4672 
Q 1544 4750 1819 4750 
Q 2544 4750 2975 4387 
Q 3406 4025 3406 3419 
Q 3406 3131 3298 2873 
Q 3191 2616 2906 2266 
Q 2828 2175 2409 1742 
Q 1991 1309 1228 531 
z
" transform="scale(0.015625)"/>
       </defs>
       <use xlink:href="#DejaVuSans-31" transform="translate(0 0.765625)"/>
       <use xlink:href="#DejaVuSans-30" transform="translate(63.623047 0.765625)"/>
       <use xlink:href="#DejaVuSans-2212" transform="translate(128.203125 39.046875) scale(0.7)"/>
       <use xlink:href="#DejaVuSans-31" transform="translate(186.855469 39.046875) scale(0.7)"/>
       <use xlink:href="#DejaVuSans-32" transform="translate(231.391602 39.046875) scale(0.7)"/>
      </g>
     </g>
    </g>
    <g id="ytick_4">
     <g id="line2d_27">
      <defs>
       <path id="mdc5701999f" d="M 0 0 
L -2 0 
" style="stroke: #000000; stroke-width: 0.6"/>
      </defs>
      <g>
       <use xlink:href="#mdc5701999f" x="60.468889" y="185.448205" style="stroke: #000000; stroke-width: 0.6"/>
      </g>
     </g>
    </g>
    <g id="ytick_5">
     <g id="line2d_28">
      <g>
       <use xlink:href="#mdc5701999f" x="60.468889" y="181.587647" style="stroke: #000000; stroke-width: 0.6"/>
      </g>
     </g>
    </g>
    <g id="ytick_6">
     <g id="line2d_29">
      <g>
       <use xlink:href="#mdc5701999f" x="60.468889" y="178.243479" style="stroke: #000000; stroke-width: 0.6"/>
      </g>
     </g>
    </g>
    <g id="ytick_7">
     <g id="line2d_30">
      <g>
       <use xlink:href="#mdc5701999f" x="60.468889" y="175.293715" style="stroke: #000000; stroke-width: 0.6"/>
      </g>
     </g>
    </g>
    <g id="ytick_8">
     <g id="line2d_31">
      <g>
       <use xlink:href="#mdc5701999f" x="60.468889" y="155.295844" style="stroke: #000000; stroke-width: 0.6"/>
      </g>
     </g>
    </g>
    <g id="ytick_9">
     <g id="line2d_32">
      <g>
       <use xlink:href="#mdc5701999f" x="60.468889" y="145.141353" style="stroke: #000000; stroke-width: 0.6"/>
      </g>
     </g>
    </g>
    <g id="ytick_10">
     <g id="line2d_33">
      <g>
       <use xlink:href="#mdc5701999f" x="60.468889" y="137.936627" style="stroke: #000000; stroke-width: 0.6"/>
      </g>
     </g>
    </g>
    <g id="ytick_11">
     <g id="line2d_34">
      <g>
       <use xlink:href="#mdc5701999f" x="60.468889" y="132.348208" style="stroke: #000000; stroke-width: 0.6"/>
      </g>
     </g>
    </g>
    <g id="ytick_12">
     <g id="line2d_35">
      <g>
       <use xlink:href="#mdc5701999f" x="60.468889" y="127.782137" style="stroke: #000000; stroke-width: 0.6"/>
      </g>
     </g>
    </g>
    <g id="ytick_13">
     <g id="line2d_36">
      <g>
       <use xlink:href="#mdc5701999f" x="60.468889" y="123.921578" style="stroke: #000000; stroke-width: 0.6"/>
      </g>
     </g>
    </g>
    <g id="ytick_14">
     <g id="line2d_37">
      <g>
       <use xlink:href="#mdc5701999f" x="60.468889" y="120.577411" style="stroke: #000000; stroke-width: 0.6"/>
      </g>
     </g>
    </g>
    <g id="ytick_15">
     <g id="line2d_38">
      <g>
       <use xlink:href="#mdc5701999f" x="60.468889" y="117.627646" style="stroke: #000000; stroke-width: 0.6"/>
      </g>
     </g>
    </g>
    <g id="ytick_16">
     <g id="line2d_39">
      <g>
       <use xlink:href="#mdc5701999f" x="60.468889" y="97.629775" style="stroke: #000000; stroke-width: 0.6"/>
      </g>
     </g>
    </g>
    <g id="ytick_17">
     <g id="line2d_40">
      <g>
       <use xlink:href="#mdc5701999f" x="60.468889" y="87.475284" style="stroke: #000000; stroke-width: 0.6"/>
      </g>
     </g>
    </g>
    <g id="ytick_18">
     <g id="line2d_41">
      <g>
       <use xlink:href="#mdc5701999f" x="60.468889" y="80.270559" style="stroke: #000000; stroke-width: 0.6"/>
      </g>
     </g>
    </g>
    <g id="ytick_19">
     <g id="line2d_42">
      <g>
       <use xlink:href="#mdc5701999f" x="60.468889" y="74.682139" style="stroke: #000000; stroke-width: 0.6"/>
      </g>
     </g>
    </g>
    <g id="ytick_20">
     <g id="line2d_43">
      <g>
       <use xlink:href="#mdc5701999f" x="60.468889" y="70.116068" style="stroke: #000000; stroke-width: 0.6"/>
      </g>
     </g>
    </g>
    <g id="ytick_21">
     <g id="line2d_44">
      <g>
       <use xlink:href="#mdc5701999f" x="60.468889" y="66.25551" style="stroke: #000000; stroke-width: 0.6"/>
      </g>
     </g>
    </g>
    <g id="ytick_22">
     <g id="line2d_45">
      <g>
       <use xlink:href="#mdc5701999f" x="60.468889" y="62.911342" style="stroke: #000000; stroke-width: 0.6"/>
      </g>
     </g>
    </g>
    <g id="ytick_23">
     <g id="line2d_46">
      <g>
       <use xlink:href="#mdc5701999f" x="60.468889" y="59.961578" style="stroke: #000000; stroke-width: 0.6"/>
      </g>
     </g>
    </g>
    <g id="ytick_24">
     <g id="line2d_47">
      <g>
       <use xlink:href="#mdc5701999f" x="60.468889" y="39.963707" style="stroke: #000000; stroke-width: 0.6"/>
      </g>
     </g>
    </g>
    <g id="ytick_25">
     <g id="line2d_48">
      <g>
       <use xlink:href="#mdc5701999f" x="60.468889" y="29.809216" style="stroke: #000000; stroke-width: 0.6"/>
      </g>
     </g>
    </g>
    <g id="text_4">
     <!-- e2 * dnde [TeV / (cm2 s)] -->
     <g transform="translate(19.489202 169.300432) rotate(-90) scale(0.1 -0.1)">
      <defs>
       <path id="DejaVuSans-65" d="M 3597 1894 
L 3597 1613 
L 953 1613 
Q 991 1019 1311 708 
Q 1631 397 2203 397 
Q 2534 397 2845 478 
Q 3156 559 3463 722 
L 3463 178 
Q 3153 47 2828 -22 
Q 2503 -91 2169 -91 
Q 1331 -91 842 396 
Q 353 884 353 1716 
Q 353 2575 817 3079 
Q 1281 3584 2069 3584 
Q 2775 3584 3186 3129 
Q 3597 2675 3597 1894 
z
M 3022 2063 
Q 3016 2534 2758 2815 
Q 2500 3097 2075 3097 
Q 1594 3097 1305 2825 
Q 1016 2553 972 2059 
L 3022 2063 
z
" transform="scale(0.015625)"/>
       <path id="DejaVuSans-20" transform="scale(0.015625)"/>
       <path id="DejaVuSans-2a" d="M 3009 3897 
L 1888 3291 
L 3009 2681 
L 2828 2375 
L 1778 3009 
L 1778 1831 
L 1422 1831 
L 1422 3009 
L 372 2375 
L 191 2681 
L 1313 3291 
L 191 3897 
L 372 4206 
L 1422 3572 
L 1422 4750 
L 1778 4750 
L 1778 3572 
L 2828 4206 
L 3009 3897 
z
" transform="scale(0.015625)"/>
       <path id="DejaVuSans-64" d="M 2906 2969 
L 2906 4863 
L 3481 4863 
L 3481 0 
L 2906 0 
L 2906 525 
Q 2725 213 2448 61 
Q 2172 -91 1784 -91 
Q 1150 -91 751 415 
Q 353 922 353 1747 
Q 353 2572 751 3078 
Q 1150 3584 1784 3584 
Q 2172 3584 2448 3432 
Q 2725 3281 2906 2969 
z
M 947 1747 
Q 947 1113 1208 752 
Q 1469 391 1925 391 
Q 2381 391 2643 752 
Q 2906 1113 2906 1747 
Q 2906 2381 2643 2742 
Q 2381 3103 1925 3103 
Q 1469 3103 1208 2742 
Q 947 2381 947 1747 
z
" transform="scale(0.015625)"/>
       <path id="DejaVuSans-6e" d="M 3513 2113 
L 3513 0 
L 2938 0 
L 2938 2094 
Q 2938 2591 2744 2837 
Q 2550 3084 2163 3084 
Q 1697 3084 1428 2787 
Q 1159 2491 1159 1978 
L 1159 0 
L 581 0 
L 581 3500 
L 1159 3500 
L 1159 2956 
Q 1366 3272 1645 3428 
Q 1925 3584 2291 3584 
Q 2894 3584 3203 3211 
Q 3513 2838 3513 2113 
z
" transform="scale(0.015625)"/>
       <path id="DejaVuSans-5b" d="M 550 4863 
L 1875 4863 
L 1875 4416 
L 1125 4416 
L 1125 -397 
L 1875 -397 
L 1875 -844 
L 550 -844 
L 550 4863 
z
" transform="scale(0.015625)"/>
       <path id="DejaVuSans-54" d="M -19 4666 
L 3928 4666 
L 3928 4134 
L 2272 4134 
L 2272 0 
L 1638 0 
L 1638 4134 
L -19 4134 
L -19 4666 
z
" transform="scale(0.015625)"/>
       <path id="DejaVuSans-56" d="M 1831 0 
L 50 4666 
L 709 4666 
L 2188 738 
L 3669 4666 
L 4325 4666 
L 2547 0 
L 1831 0 
z
" transform="scale(0.015625)"/>
       <path id="DejaVuSans-2f" d="M 1625 4666 
L 2156 4666 
L 531 -594 
L 0 -594 
L 1625 4666 
z
" transform="scale(0.015625)"/>
       <path id="DejaVuSans-28" d="M 1984 4856 
Q 1566 4138 1362 3434 
Q 1159 2731 1159 2009 
Q 1159 1288 1364 580 
Q 1569 -128 1984 -844 
L 1484 -844 
Q 1016 -109 783 600 
Q 550 1309 550 2009 
Q 550 2706 781 3412 
Q 1013 4119 1484 4856 
L 1984 4856 
z
" transform="scale(0.015625)"/>
       <path id="DejaVuSans-63" d="M 3122 3366 
L 3122 2828 
Q 2878 2963 2633 3030 
Q 2388 3097 2138 3097 
Q 1578 3097 1268 2742 
Q 959 2388 959 1747 
Q 959 1106 1268 751 
Q 1578 397 2138 397 
Q 2388 397 2633 464 
Q 2878 531 3122 666 
L 3122 134 
Q 2881 22 2623 -34 
Q 2366 -91 2075 -91 
Q 1284 -91 818 406 
Q 353 903 353 1747 
Q 353 2603 823 3093 
Q 1294 3584 2113 3584 
Q 2378 3584 2631 3529 
Q 2884 3475 3122 3366 
z
" transform="scale(0.015625)"/>
       <path id="DejaVuSans-6d" d="M 3328 2828 
Q 3544 3216 3844 3400 
Q 4144 3584 4550 3584 
Q 5097 3584 5394 3201 
Q 5691 2819 5691 2113 
L 5691 0 
L 5113 0 
L 5113 2094 
Q 5113 2597 4934 2840 
Q 4756 3084 4391 3084 
Q 3944 3084 3684 2787 
Q 3425 2491 3425 1978 
L 3425 0 
L 2847 0 
L 2847 2094 
Q 2847 2600 2669 2842 
Q 2491 3084 2119 3084 
Q 1678 3084 1418 2786 
Q 1159 2488 1159 1978 
L 1159 0 
L 581 0 
L 581 3500 
L 1159 3500 
L 1159 2956 
Q 1356 3278 1631 3431 
Q 1906 3584 2284 3584 
Q 2666 3584 2933 3390 
Q 3200 3197 3328 2828 
z
" transform="scale(0.015625)"/>
       <path id="DejaVuSans-73" d="M 2834 3397 
L 2834 2853 
Q 2591 2978 2328 3040 
Q 2066 3103 1784 3103 
Q 1356 3103 1142 2972 
Q 928 2841 928 2578 
Q 928 2378 1081 2264 
Q 1234 2150 1697 2047 
L 1894 2003 
Q 2506 1872 2764 1633 
Q 3022 1394 3022 966 
Q 3022 478 2636 193 
Q 2250 -91 1575 -91 
Q 1294 -91 989 -36 
Q 684 19 347 128 
L 347 722 
Q 666 556 975 473 
Q 1284 391 1588 391 
Q 1994 391 2212 530 
Q 2431 669 2431 922 
Q 2431 1156 2273 1281 
Q 2116 1406 1581 1522 
L 1381 1569 
Q 847 1681 609 1914 
Q 372 2147 372 2553 
Q 372 3047 722 3315 
Q 1072 3584 1716 3584 
Q 2034 3584 2315 3537 
Q 2597 3491 2834 3397 
z
" transform="scale(0.015625)"/>
       <path id="DejaVuSans-29" d="M 513 4856 
L 1013 4856 
Q 1481 4119 1714 3412 
Q 1947 2706 1947 2009 
Q 1947 1309 1714 600 
Q 1481 -109 1013 -844 
L 513 -844 
Q 928 -128 1133 580 
Q 1338 1288 1338 2009 
Q 1338 2731 1133 3434 
Q 928 4138 513 4856 
z
" transform="scale(0.015625)"/>
       <path id="DejaVuSans-5d" d="M 1947 4863 
L 1947 -844 
L 622 -844 
L 622 -397 
L 1369 -397 
L 1369 4416 
L 622 4416 
L 622 4863 
L 1947 4863 
z
" transform="scale(0.015625)"/>
      </defs>
      <use xlink:href="#DejaVuSans-65"/>
      <use xlink:href="#DejaVuSans-32" x="61.523438"/>
      <use xlink:href="#DejaVuSans-20" x="125.146484"/>
      <use xlink:href="#DejaVuSans-2a" x="156.933594"/>
      <use xlink:href="#DejaVuSans-20" x="206.933594"/>
      <use xlink:href="#DejaVuSans-64" x="238.720703"/>
      <use xlink:href="#DejaVuSans-6e" x="302.197266"/>
      <use xlink:href="#DejaVuSans-64" x="365.576172"/>
      <use xlink:href="#DejaVuSans-65" x="429.052734"/>
      <use xlink:href="#DejaVuSans-20" x="490.576172"/>
      <use xlink:href="#DejaVuSans-5b" x="522.363281"/>
      <use xlink:href="#DejaVuSans-54" x="561.376953"/>
      <use xlink:href="#DejaVuSans-65" x="605.460938"/>
      <use xlink:href="#DejaVuSans-56" x="666.984375"/>
      <use xlink:href="#DejaVuSans-20" x="735.392578"/>
      <use xlink:href="#DejaVuSans-2f" x="767.179688"/>
      <use xlink:href="#DejaVuSans-20" x="800.871094"/>
      <use xlink:href="#DejaVuSans-28" x="832.658203"/>
      <use xlink:href="#DejaVuSans-63" x="871.671875"/>
      <use xlink:href="#DejaVuSans-6d" x="926.652344"/>
      <use xlink:href="#DejaVuSans-32" x="1024.064453"/>
      <use xlink:href="#DejaVuSans-20" x="1087.6875"/>
      <use xlink:href="#DejaVuSans-73" x="1119.474609"/>
      <use xlink:href="#DejaVuSans-29" x="1171.574219"/>
      <use xlink:href="#DejaVuSans-5d" x="1210.587891"/>
     </g>
    </g>
   </g>
   <g id="line2d_49">
    <path d="M 74.892487 52.10054 
L 77.491401 52.468161 
L 80.090314 52.835782 
L 82.689228 53.203403 
L 85.288141 53.571024 
L 87.887054 53.938646 
L 90.485968 54.306267 
L 93.084881 54.673888 
L 95.683795 55.041509 
L 98.282708 55.40913 
L 100.881621 55.776751 
L 103.480535 56.144373 
L 106.079448 56.511994 
L 108.678361 56.879615 
L 111.277275 57.247236 
L 113.876188 57.614857 
L 116.475102 57.982479 
L 119.074015 58.3501 
L 121.672928 58.717721 
L 124.271842 59.085342 
L 126.870755 59.452963 
L 129.469668 59.820585 
L 132.068582 60.188206 
L 134.667495 60.555827 
L 137.266409 60.923448 
L 139.865322 61.291069 
L 142.464235 61.65869 
L 145.063149 62.026312 
L 147.662062 62.393933 
L 150.260976 62.761554 
L 152.859889 63.129175 
L 155.458802 63.496796 
L 158.057716 63.864418 
L 160.656629 64.232039 
L 163.255542 64.59966 
L 165.854456 64.967281 
L 168.453369 65.334902 
L 171.052283 65.702524 
L 173.651196 66.070145 
L 176.250109 66.437766 
L 178.849023 66.805387 
L 181.447936 67.173008 
L 184.04685 67.540629 
L 186.645763 67.908251 
L 189.244676 68.275872 
L 191.84359 68.643493 
L 194.442503 69.011114 
L 197.041416 69.378735 
L 199.64033 69.746357 
L 202.239243 70.113978 
L 204.838157 70.481599 
L 207.43707 70.84922 
L 210.035983 71.216841 
L 212.634897 71.584462 
L 215.23381 71.952084 
L 217.832724 72.319705 
L 220.431637 72.687326 
L 223.03055 73.054947 
L 225.629464 73.422568 
L 228.228377 73.79019 
L 230.82729 74.157811 
L 233.426204 74.525432 
L 236.025117 74.893053 
L 238.624031 75.260674 
L 241.222944 75.628296 
L 243.821857 75.995917 
L 246.420771 76.363538 
L 249.019684 76.731159 
L 251.618597 77.09878 
L 254.217511 77.466401 
L 256.816424 77.834023 
L 259.415338 78.201644 
L 262.014251 78.569265 
L 264.613164 78.936886 
L 267.212078 79.304507 
L 269.810991 79.672129 
L 272.409905 80.03975 
L 275.008818 80.407371 
L 277.607731 80.774992 
L 280.206645 81.142613 
L 282.805558 81.510235 
L 285.404471 81.877856 
L 288.003385 82.245477 
L 290.602298 82.613098 
L 293.201212 82.980719 
L 295.800125 83.34834 
L 298.399038 83.715962 
L 300.997952 84.083583 
L 303.596865 84.451204 
L 306.195779 84.818825 
L 308.794692 85.186446 
L 311.393605 85.554068 
L 313.992519 85.921689 
L 316.591432 86.28931 
L 319.190345 86.656931 
L 321.789259 87.024552 
L 324.388172 87.392174 
L 326.987086 87.759795 
L 329.585999 88.127416 
L 332.184912 88.495037 
" clip-path="url(#p036dc4f7ce)" style="fill: none; stroke-dasharray: 1.5,2.475; stroke-dashoffset: 0; stroke: #000000; stroke-width: 1.5"/>
   </g>
   <g id="LineCollection_1">
    <path clip-path="url(#p036dc4f7ce)" style="fill: none; stroke: #006400; stroke-width: 1.5"/>
    <path clip-path="url(#p036dc4f7ce)" style="fill: none; stroke: #006400; stroke-width: 1.5"/>
    <path clip-path="url(#p036dc4f7ce)" style="fill: none; stroke: #006400; stroke-width: 1.5"/>
    <path clip-path="url(#p036dc4f7ce)" style="fill: none; stroke: #006400; stroke-width: 1.5"/>
    <path clip-path="url(#p036dc4f7ce)" style="fill: none; stroke: #006400; stroke-width: 1.5"/>
    <path d="M 73.593031 361 
L 73.593031 34.600478 
" clip-path="url(#p036dc4f7ce)" style="fill: none; stroke: #006400; stroke-width: 1.5"/>
    <path d="M 88.880757 68.778224 
L 88.880757 46.259978 
" clip-path="url(#p036dc4f7ce)" style="fill: none; stroke: #006400; stroke-width: 1.5"/>
    <path d="M 104.168482 64.064793 
L 104.168482 52.131515 
" clip-path="url(#p036dc4f7ce)" style="fill: none; stroke: #006400; stroke-width: 1.5"/>
    <path d="M 119.456208 65.575348 
L 119.456208 54.970348 
" clip-path="url(#p036dc4f7ce)" style="fill: none; stroke: #006400; stroke-width: 1.5"/>
    <path d="M 134.743934 67.904784 
L 134.743934 57.290986 
" clip-path="url(#p036dc4f7ce)" style="fill: none; stroke: #006400; stroke-width: 1.5"/>
    <path d="M 150.03166 70.390546 
L 150.03166 59.508855 
" clip-path="url(#p036dc4f7ce)" style="fill: none; stroke: #006400; stroke-width: 1.5"/>
    <path d="M 165.319385 73.053614 
L 165.319385 61.617059 
" clip-path="url(#p036dc4f7ce)" style="fill: none; stroke: #006400; stroke-width: 1.5"/>
    <path d="M 180.607111 75.881256 
L 180.607111 63.622934 
" clip-path="url(#p036dc4f7ce)" style="fill: none; stroke: #006400; stroke-width: 1.5"/>
    <path d="M 195.894837 78.747005 
L 195.894837 65.619669 
" clip-path="url(#p036dc4f7ce)" style="fill: none; stroke: #006400; stroke-width: 1.5"/>
    <path d="M 211.182563 81.85731 
L 211.182563 67.4877 
" clip-path="url(#p036dc4f7ce)" style="fill: none; stroke: #006400; stroke-width: 1.5"/>
    <path d="M 226.470289 85.231252 
L 226.470289 69.236412 
" clip-path="url(#p036dc4f7ce)" style="fill: none; stroke: #006400; stroke-width: 1.5"/>
    <path d="M 241.758014 88.807881 
L 241.758014 70.920785 
" clip-path="url(#p036dc4f7ce)" style="fill: none; stroke: #006400; stroke-width: 1.5"/>
    <path d="M 257.04574 92.795042 
L 257.04574 72.466468 
" clip-path="url(#p036dc4f7ce)" style="fill: none; stroke: #006400; stroke-width: 1.5"/>
    <path d="M 272.333466 97.278999 
L 272.333466 73.882889 
" clip-path="url(#p036dc4f7ce)" style="fill: none; stroke: #006400; stroke-width: 1.5"/>
    <path d="M 287.621192 102.115942 
L 287.621192 75.27933 
" clip-path="url(#p036dc4f7ce)" style="fill: none; stroke: #006400; stroke-width: 1.5"/>
    <path d="M 302.908917 107.849476 
L 302.908917 76.530796 
" clip-path="url(#p036dc4f7ce)" style="fill: none; stroke: #006400; stroke-width: 1.5"/>
    <path d="M 318.196643 115.446149 
L 318.196643 77.523976 
" clip-path="url(#p036dc4f7ce)" style="fill: none; stroke: #006400; stroke-width: 1.5"/>
    <path d="M 333.484369 128.326857 
L 333.484369 78.016201 
" clip-path="url(#p036dc4f7ce)" style="fill: none; stroke: #006400; stroke-width: 1.5"/>
    <path clip-path="url(#p036dc4f7ce)" style="fill: none; stroke: #006400; stroke-width: 1.5"/>
   </g>
   <g id="LineCollection_2">
    <path clip-path="url(#p036dc4f7ce)" style="fill: none; stroke: #8b0000; stroke-width: 1.5"/>
    <path clip-path="url(#p036dc4f7ce)" style="fill: none; stroke: #8b0000; stroke-width: 1.5"/>
    <path clip-path="url(#p036dc4f7ce)" style="fill: none; stroke: #8b0000; stroke-width: 1.5"/>
    <path clip-path="url(#p036dc4f7ce)" style="fill: none; stroke: #8b0000; stroke-width: 1.5"/>
    <path clip-path="url(#p036dc4f7ce)" style="fill: none; stroke: #8b0000; stroke-width: 1.5"/>
    <path d="M 76.18452 361 
L 76.18452 34.661828 
" clip-path="url(#p036dc4f7ce)" style="fill: none; stroke: #8b0000; stroke-width: 1.5"/>
    <path d="M 91.472246 68.227991 
L 91.472246 46.488522 
" clip-path="url(#p036dc4f7ce)" style="fill: none; stroke: #8b0000; stroke-width: 1.5"/>
    <path d="M 106.759972 63.257375 
L 106.759972 52.647054 
" clip-path="url(#p036dc4f7ce)" style="fill: none; stroke: #8b0000; stroke-width: 1.5"/>
    <path d="M 122.047698 64.680223 
L 122.047698 55.580465 
" clip-path="url(#p036dc4f7ce)" style="fill: none; stroke: #8b0000; stroke-width: 1.5"/>
    <path d="M 137.335423 67.028699 
L 137.335423 57.888084 
" clip-path="url(#p036dc4f7ce)" style="fill: none; stroke: #8b0000; stroke-width: 1.5"/>
    <path d="M 152.623149 69.550387 
L 152.623149 60.075952 
" clip-path="url(#p036dc4f7ce)" style="fill: none; stroke: #8b0000; stroke-width: 1.5"/>
    <path d="M 167.910875 72.262674 
L 167.910875 62.136956 
" clip-path="url(#p036dc4f7ce)" style="fill: none; stroke: #8b0000; stroke-width: 1.5"/>
    <path d="M 183.198601 75.142906 
L 183.198601 64.093536 
" clip-path="url(#p036dc4f7ce)" style="fill: none; stroke: #8b0000; stroke-width: 1.5"/>
    <path d="M 198.486327 78.062193 
L 198.486327 66.04145 
" clip-path="url(#p036dc4f7ce)" style="fill: none; stroke: #8b0000; stroke-width: 1.5"/>
    <path d="M 213.774052 81.216597 
L 213.774052 67.861855 
" clip-path="url(#p036dc4f7ce)" style="fill: none; stroke: #8b0000; stroke-width: 1.5"/>
    <path d="M 229.061778 84.628297 
L 229.061778 69.566692 
" clip-path="url(#p036dc4f7ce)" style="fill: none; stroke: #8b0000; stroke-width: 1.5"/>
    <path d="M 244.349504 88.237734 
L 244.349504 71.210034 
" clip-path="url(#p036dc4f7ce)" style="fill: none; stroke: #8b0000; stroke-width: 1.5"/>
    <path d="M 259.63723 92.253882 
L 259.63723 72.714963 
" clip-path="url(#p036dc4f7ce)" style="fill: none; stroke: #8b0000; stroke-width: 1.5"/>
    <path d="M 274.924955 96.760962 
L 274.924955 74.094814 
" clip-path="url(#p036dc4f7ce)" style="fill: none; stroke: #8b0000; stroke-width: 1.5"/>
    <path d="M 290.212681 101.609546 
L 290.212681 75.461455 
" clip-path="url(#p036dc4f7ce)" style="fill: none; stroke: #8b0000; stroke-width: 1.5"/>
    <path d="M 305.500407 107.338979 
L 305.500407 76.684556 
" clip-path="url(#p036dc4f7ce)" style="fill: none; stroke: #8b0000; stroke-width: 1.5"/>
    <path d="M 320.788133 114.901425 
L 320.788133 77.651046 
" clip-path="url(#p036dc4f7ce)" style="fill: none; stroke: #8b0000; stroke-width: 1.5"/>
    <path d="M 336.075859 127.634332 
L 336.075859 78.116301 
" clip-path="url(#p036dc4f7ce)" style="fill: none; stroke: #8b0000; stroke-width: 1.5"/>
    <path clip-path="url(#p036dc4f7ce)" style="fill: none; stroke: #8b0000; stroke-width: 1.5"/>
   </g>
   <g id="LineCollection_3">
    <path clip-path="url(#p036dc4f7ce)" style="fill: none; stroke: #1f77b4; stroke-width: 1.5"/>
    <path clip-path="url(#p036dc4f7ce)" style="fill: none; stroke: #1f77b4; stroke-width: 1.5"/>
    <path clip-path="url(#p036dc4f7ce)" style="fill: none; stroke: #1f77b4; stroke-width: 1.5"/>
    <path clip-path="url(#p036dc4f7ce)" style="fill: none; stroke: #1f77b4; stroke-width: 1.5"/>
    <path clip-path="url(#p036dc4f7ce)" style="fill: none; stroke: #1f77b4; stroke-width: 1.5"/>
    <path d="M 78.655431 180.803239 
L 78.655431 32.838249 
" clip-path="url(#p036dc4f7ce)" style="fill: none; stroke: #1f77b4; stroke-width: 1.5"/>
    <path d="M 93.943157 68.397621 
L 93.943157 45.379059 
" clip-path="url(#p036dc4f7ce)" style="fill: none; stroke: #1f77b4; stroke-width: 1.5"/>
    <path d="M 109.230882 63.03085 
L 109.230882 49.779473 
" clip-path="url(#p036dc4f7ce)" style="fill: none; stroke: #1f77b4; stroke-width: 1.5"/>
    <path d="M 124.518608 64.095075 
L 124.518608 53.005493 
" clip-path="url(#p036dc4f7ce)" style="fill: none; stroke: #1f77b4; stroke-width: 1.5"/>
    <path d="M 139.806334 65.89096 
L 139.806334 54.990246 
" clip-path="url(#p036dc4f7ce)" style="fill: none; stroke: #1f77b4; stroke-width: 1.5"/>
    <path d="M 155.09406 67.983019 
L 155.09406 57.633084 
" clip-path="url(#p036dc4f7ce)" style="fill: none; stroke: #1f77b4; stroke-width: 1.5"/>
    <path d="M 170.381786 71.272548 
L 170.381786 59.488926 
" clip-path="url(#p036dc4f7ce)" style="fill: none; stroke: #1f77b4; stroke-width: 1.5"/>
    <path d="M 185.669511 74.313013 
L 185.669511 61.566039 
" clip-path="url(#p036dc4f7ce)" style="fill: none; stroke: #1f77b4; stroke-width: 1.5"/>
    <path d="M 200.957237 76.341007 
L 200.957237 62.661212 
" clip-path="url(#p036dc4f7ce)" style="fill: none; stroke: #1f77b4; stroke-width: 1.5"/>
    <path d="M 216.244963 79.543272 
L 216.244963 64.844724 
" clip-path="url(#p036dc4f7ce)" style="fill: none; stroke: #1f77b4; stroke-width: 1.5"/>
    <path d="M 231.532689 82.351537 
L 231.532689 66.050397 
" clip-path="url(#p036dc4f7ce)" style="fill: none; stroke: #1f77b4; stroke-width: 1.5"/>
    <path d="M 246.820415 84.972305 
L 246.820415 67.774149 
" clip-path="url(#p036dc4f7ce)" style="fill: none; stroke: #1f77b4; stroke-width: 1.5"/>
    <path d="M 262.10814 88.873318 
L 262.10814 68.100058 
" clip-path="url(#p036dc4f7ce)" style="fill: none; stroke: #1f77b4; stroke-width: 1.5"/>
    <path d="M 277.395866 92.920203 
L 277.395866 70.393753 
" clip-path="url(#p036dc4f7ce)" style="fill: none; stroke: #1f77b4; stroke-width: 1.5"/>
    <path d="M 292.683592 99.846533 
L 292.683592 72.041314 
" clip-path="url(#p036dc4f7ce)" style="fill: none; stroke: #1f77b4; stroke-width: 1.5"/>
    <path d="M 307.971318 103.345287 
L 307.971318 71.650471 
" clip-path="url(#p036dc4f7ce)" style="fill: none; stroke: #1f77b4; stroke-width: 1.5"/>
    <path d="M 323.259043 116.284391 
L 323.259043 73.963598 
" clip-path="url(#p036dc4f7ce)" style="fill: none; stroke: #1f77b4; stroke-width: 1.5"/>
    <path clip-path="url(#p036dc4f7ce)" style="fill: none; stroke: #1f77b4; stroke-width: 1.5"/>
    <path clip-path="url(#p036dc4f7ce)" style="fill: none; stroke: #1f77b4; stroke-width: 1.5"/>
   </g>
   <g id="line2d_50">
    <defs>
     <path id="m939fe9b42a" d="M -3 3 
L 3 -3 
M -3 -3 
L 3 3 
" style="stroke: #006400"/>
    </defs>
    <g clip-path="url(#p036dc4f7ce)">
     <use xlink:href="#m939fe9b42a" x="73.593031" y="52.740395" style="fill: #006400; stroke: #006400"/>
     <use xlink:href="#m939fe9b42a" x="88.880757" y="55.069129" style="fill: #006400; stroke: #006400"/>
     <use xlink:href="#m939fe9b42a" x="104.168482" y="57.394015" style="fill: #006400; stroke: #006400"/>
     <use xlink:href="#m939fe9b42a" x="119.456208" y="59.715651" style="fill: #006400; stroke: #006400"/>
     <use xlink:href="#m939fe9b42a" x="134.743934" y="62.03977" style="fill: #006400; stroke: #006400"/>
     <use xlink:href="#m939fe9b42a" x="150.03166" y="64.363278" style="fill: #006400; stroke: #006400"/>
     <use xlink:href="#m939fe9b42a" x="165.319385" y="66.688108" style="fill: #006400; stroke: #006400"/>
     <use xlink:href="#m939fe9b42a" x="180.607111" y="69.009454" style="fill: #006400; stroke: #006400"/>
     <use xlink:href="#m939fe9b42a" x="195.894837" y="71.332888" style="fill: #006400; stroke: #006400"/>
     <use xlink:href="#m939fe9b42a" x="211.182563" y="73.655727" style="fill: #006400; stroke: #006400"/>
     <use xlink:href="#m939fe9b42a" x="226.470289" y="75.978038" style="fill: #006400; stroke: #006400"/>
     <use xlink:href="#m939fe9b42a" x="241.758014" y="78.300237" style="fill: #006400; stroke: #006400"/>
     <use xlink:href="#m939fe9b42a" x="257.04574" y="80.622392" style="fill: #006400; stroke: #006400"/>
     <use xlink:href="#m939fe9b42a" x="272.333466" y="82.942794" style="fill: #006400; stroke: #006400"/>
     <use xlink:href="#m939fe9b42a" x="287.621192" y="85.262823" style="fill: #006400; stroke: #006400"/>
     <use xlink:href="#m939fe9b42a" x="302.908917" y="87.583717" style="fill: #006400; stroke: #006400"/>
     <use xlink:href="#m939fe9b42a" x="318.196643" y="89.903571" style="fill: #006400; stroke: #006400"/>
     <use xlink:href="#m939fe9b42a" x="333.484369" y="92.22305" style="fill: #006400; stroke: #006400"/>
    </g>
   </g>
   <g id="line2d_51">
    <defs>
     <path id="m213c6e457f" d="M -3 3 
L 3 -3 
M -3 -3 
L 3 3 
" style="stroke: #8b0000"/>
    </defs>
    <g clip-path="url(#p036dc4f7ce)">
     <use xlink:href="#m213c6e457f" x="76.18452" y="52.742421" style="fill: #8b0000; stroke: #8b0000"/>
     <use xlink:href="#m213c6e457f" x="91.472246" y="55.06993" style="fill: #8b0000; stroke: #8b0000"/>
     <use xlink:href="#m213c6e457f" x="106.759972" y="57.394463" style="fill: #8b0000; stroke: #8b0000"/>
     <use xlink:href="#m213c6e457f" x="122.047698" y="59.719298" style="fill: #8b0000; stroke: #8b0000"/>
     <use xlink:href="#m213c6e457f" x="137.335423" y="62.043666" style="fill: #8b0000; stroke: #8b0000"/>
     <use xlink:href="#m213c6e457f" x="152.623149" y="64.367781" style="fill: #8b0000; stroke: #8b0000"/>
     <use xlink:href="#m213c6e457f" x="167.910875" y="66.691514" style="fill: #8b0000; stroke: #8b0000"/>
     <use xlink:href="#m213c6e457f" x="183.198601" y="69.013731" style="fill: #8b0000; stroke: #8b0000"/>
     <use xlink:href="#m213c6e457f" x="198.486327" y="71.33742" style="fill: #8b0000; stroke: #8b0000"/>
     <use xlink:href="#m213c6e457f" x="213.774052" y="73.6594" style="fill: #8b0000; stroke: #8b0000"/>
     <use xlink:href="#m213c6e457f" x="229.061778" y="75.981893" style="fill: #8b0000; stroke: #8b0000"/>
     <use xlink:href="#m213c6e457f" x="244.349504" y="78.303766" style="fill: #8b0000; stroke: #8b0000"/>
     <use xlink:href="#m213c6e457f" x="259.63723" y="80.625386" style="fill: #8b0000; stroke: #8b0000"/>
     <use xlink:href="#m213c6e457f" x="274.924955" y="82.946652" style="fill: #8b0000; stroke: #8b0000"/>
     <use xlink:href="#m213c6e457f" x="290.212681" y="85.267497" style="fill: #8b0000; stroke: #8b0000"/>
     <use xlink:href="#m213c6e457f" x="305.500407" y="87.588078" style="fill: #8b0000; stroke: #8b0000"/>
     <use xlink:href="#m213c6e457f" x="320.788133" y="89.908167" style="fill: #8b0000; stroke: #8b0000"/>
     <use xlink:href="#m213c6e457f" x="336.075859" y="92.228085" style="fill: #8b0000; stroke: #8b0000"/>
    </g>
   </g>
   <g id="line2d_52">
    <path d="M 78.655431 50.129511 
L 93.943157 54.33189 
L 109.230882 55.538748 
L 124.518608 57.941421 
L 139.806334 59.852144 
L 155.09406 62.27715 
L 170.381786 64.69399 
L 185.669511 67.137135 
L 200.957237 68.578458 
L 216.244963 71.130792 
L 231.532689 72.89744 
L 246.820415 74.925073 
L 262.10814 76.391895 
L 277.395866 79.205276 
L 292.683592 82.268365 
L 307.971318 82.786635 
L 323.259043 87.081353 
" clip-path="url(#p036dc4f7ce)" style="fill: none; stroke: #1f77b4; stroke-width: 1.5; stroke-linecap: square"/>
   </g>
   <g id="patch_3">
    <path d="M 60.468889 188.201489 
L 60.468889 25.44 
" style="fill: none; stroke: #000000; stroke-width: 0.8; stroke-linejoin: miter; stroke-linecap: square"/>
   </g>
   <g id="patch_4">
    <path d="M 349.2 188.201489 
L 349.2 25.44 
" style="fill: none; stroke: #000000; stroke-width: 0.8; stroke-linejoin: miter; stroke-linecap: square"/>
   </g>
   <g id="patch_5">
    <path d="M 60.468889 188.201489 
L 349.2 188.201489 
" style="fill: none; stroke: #000000; stroke-width: 0.8; stroke-linejoin: miter; stroke-linecap: square"/>
   </g>
   <g id="patch_6">
    <path d="M 60.468889 25.44 
L 349.2 25.44 
" style="fill: none; stroke: #000000; stroke-width: 0.8; stroke-linejoin: miter; stroke-linecap: square"/>
   </g>
   <g id="text_5">
    <!-- N = 321 -->
    <g transform="translate(180.051632 19.44) scale(0.12 -0.12)">
     <defs>
      <path id="DejaVuSans-4e" d="M 628 4666 
L 1478 4666 
L 3547 763 
L 3547 4666 
L 4159 4666 
L 4159 0 
L 3309 0 
L 1241 3903 
L 1241 0 
L 628 0 
L 628 4666 
z
" transform="scale(0.015625)"/>
      <path id="DejaVuSans-3d" d="M 678 2906 
L 4684 2906 
L 4684 2381 
L 678 2381 
L 678 2906 
z
M 678 1631 
L 4684 1631 
L 4684 1100 
L 678 1100 
L 678 1631 
z
" transform="scale(0.015625)"/>
     </defs>
     <use xlink:href="#DejaVuSans-4e"/>
     <use xlink:href="#DejaVuSans-20" x="74.804688"/>
     <use xlink:href="#DejaVuSans-3d" x="106.591797"/>
     <use xlink:href="#DejaVuSans-20" x="190.380859"/>
     <use xlink:href="#DejaVuSans-33" x="222.167969"/>
     <use xlink:href="#DejaVuSans-32" x="285.791016"/>
     <use xlink:href="#DejaVuSans-31" x="349.414062"/>
    </g>
   </g>
   <g id="legend_1">
    <g id="patch_7">
     <path d="M 67.468889 183.201489 
L 200.068889 183.201489 
Q 202.068889 183.201489 202.068889 181.201489 
L 202.068889 123.468676 
Q 202.068889 121.468676 200.068889 121.468676 
L 67.468889 121.468676 
Q 65.468889 121.468676 65.468889 123.468676 
L 65.468889 181.201489 
Q 65.468889 183.201489 67.468889 183.201489 
z
" style="fill: #ffffff; opacity: 0.8; stroke: #cccccc; stroke-linejoin: miter"/>
    </g>
    <g id="line2d_53">
     <path d="M 69.468889 129.567114 
L 79.468889 129.567114 
L 89.468889 129.567114 
" style="fill: none; stroke-dasharray: 1.5,2.475; stroke-dashoffset: 0; stroke: #000000; stroke-width: 1.5"/>
    </g>
    <g id="text_6">
     <!-- Input -->
     <g transform="translate(97.468889 133.067114) scale(0.1 -0.1)">
      <defs>
       <path id="DejaVuSans-49" d="M 628 4666 
L 1259 4666 
L 1259 0 
L 628 0 
L 628 4666 
z
" transform="scale(0.015625)"/>
       <path id="DejaVuSans-70" d="M 1159 525 
L 1159 -1331 
L 581 -1331 
L 581 3500 
L 1159 3500 
L 1159 2969 
Q 1341 3281 1617 3432 
Q 1894 3584 2278 3584 
Q 2916 3584 3314 3078 
Q 3713 2572 3713 1747 
Q 3713 922 3314 415 
Q 2916 -91 2278 -91 
Q 1894 -91 1617 61 
Q 1341 213 1159 525 
z
M 3116 1747 
Q 3116 2381 2855 2742 
Q 2594 3103 2138 3103 
Q 1681 3103 1420 2742 
Q 1159 2381 1159 1747 
Q 1159 1113 1420 752 
Q 1681 391 2138 391 
Q 2594 391 2855 752 
Q 3116 1113 3116 1747 
z
" transform="scale(0.015625)"/>
       <path id="DejaVuSans-75" d="M 544 1381 
L 544 3500 
L 1119 3500 
L 1119 1403 
Q 1119 906 1312 657 
Q 1506 409 1894 409 
Q 2359 409 2629 706 
Q 2900 1003 2900 1516 
L 2900 3500 
L 3475 3500 
L 3475 0 
L 2900 0 
L 2900 538 
Q 2691 219 2414 64 
Q 2138 -91 1772 -91 
Q 1169 -91 856 284 
Q 544 659 544 1381 
z
M 1991 3584 
L 1991 3584 
z
" transform="scale(0.015625)"/>
       <path id="DejaVuSans-74" d="M 1172 4494 
L 1172 3500 
L 2356 3500 
L 2356 3053 
L 1172 3053 
L 1172 1153 
Q 1172 725 1289 603 
Q 1406 481 1766 481 
L 2356 481 
L 2356 0 
L 1766 0 
Q 1100 0 847 248 
Q 594 497 594 1153 
L 594 3053 
L 172 3053 
L 172 3500 
L 594 3500 
L 594 4494 
L 1172 4494 
z
" transform="scale(0.015625)"/>
      </defs>
      <use xlink:href="#DejaVuSans-49"/>
      <use xlink:href="#DejaVuSans-6e" x="29.492188"/>
      <use xlink:href="#DejaVuSans-70" x="92.871094"/>
      <use xlink:href="#DejaVuSans-75" x="156.347656"/>
      <use xlink:href="#DejaVuSans-74" x="219.726562"/>
     </g>
    </g>
    <g id="LineCollection_4">
     <path d="M 79.468889 149.245239 
L 79.468889 139.245239 
" style="fill: none; stroke: #006400; stroke-width: 1.5"/>
    </g>
    <g id="line2d_54"/>
    <g id="line2d_55">
     <g>
      <use xlink:href="#m939fe9b42a" x="79.468889" y="144.245239" style="fill: #006400; stroke: #006400"/>
     </g>
    </g>
    <g id="text_7">
     <!-- Fluxpoints Nuisance -->
     <g transform="translate(97.468889 147.745239) scale(0.1 -0.1)">
      <defs>
       <path id="DejaVuSans-46" d="M 628 4666 
L 3309 4666 
L 3309 4134 
L 1259 4134 
L 1259 2759 
L 3109 2759 
L 3109 2228 
L 1259 2228 
L 1259 0 
L 628 0 
L 628 4666 
z
" transform="scale(0.015625)"/>
       <path id="DejaVuSans-6c" d="M 603 4863 
L 1178 4863 
L 1178 0 
L 603 0 
L 603 4863 
z
" transform="scale(0.015625)"/>
       <path id="DejaVuSans-78" d="M 3513 3500 
L 2247 1797 
L 3578 0 
L 2900 0 
L 1881 1375 
L 863 0 
L 184 0 
L 1544 1831 
L 300 3500 
L 978 3500 
L 1906 2253 
L 2834 3500 
L 3513 3500 
z
" transform="scale(0.015625)"/>
       <path id="DejaVuSans-6f" d="M 1959 3097 
Q 1497 3097 1228 2736 
Q 959 2375 959 1747 
Q 959 1119 1226 758 
Q 1494 397 1959 397 
Q 2419 397 2687 759 
Q 2956 1122 2956 1747 
Q 2956 2369 2687 2733 
Q 2419 3097 1959 3097 
z
M 1959 3584 
Q 2709 3584 3137 3096 
Q 3566 2609 3566 1747 
Q 3566 888 3137 398 
Q 2709 -91 1959 -91 
Q 1206 -91 779 398 
Q 353 888 353 1747 
Q 353 2609 779 3096 
Q 1206 3584 1959 3584 
z
" transform="scale(0.015625)"/>
       <path id="DejaVuSans-69" d="M 603 3500 
L 1178 3500 
L 1178 0 
L 603 0 
L 603 3500 
z
M 603 4863 
L 1178 4863 
L 1178 4134 
L 603 4134 
L 603 4863 
z
" transform="scale(0.015625)"/>
       <path id="DejaVuSans-61" d="M 2194 1759 
Q 1497 1759 1228 1600 
Q 959 1441 959 1056 
Q 959 750 1161 570 
Q 1363 391 1709 391 
Q 2188 391 2477 730 
Q 2766 1069 2766 1631 
L 2766 1759 
L 2194 1759 
z
M 3341 1997 
L 3341 0 
L 2766 0 
L 2766 531 
Q 2569 213 2275 61 
Q 1981 -91 1556 -91 
Q 1019 -91 701 211 
Q 384 513 384 1019 
Q 384 1609 779 1909 
Q 1175 2209 1959 2209 
L 2766 2209 
L 2766 2266 
Q 2766 2663 2505 2880 
Q 2244 3097 1772 3097 
Q 1472 3097 1187 3025 
Q 903 2953 641 2809 
L 641 3341 
Q 956 3463 1253 3523 
Q 1550 3584 1831 3584 
Q 2591 3584 2966 3190 
Q 3341 2797 3341 1997 
z
" transform="scale(0.015625)"/>
      </defs>
      <use xlink:href="#DejaVuSans-46"/>
      <use xlink:href="#DejaVuSans-6c" x="57.519531"/>
      <use xlink:href="#DejaVuSans-75" x="85.302734"/>
      <use xlink:href="#DejaVuSans-78" x="148.681641"/>
      <use xlink:href="#DejaVuSans-70" x="207.861328"/>
      <use xlink:href="#DejaVuSans-6f" x="271.337891"/>
      <use xlink:href="#DejaVuSans-69" x="332.519531"/>
      <use xlink:href="#DejaVuSans-6e" x="360.302734"/>
      <use xlink:href="#DejaVuSans-74" x="423.681641"/>
      <use xlink:href="#DejaVuSans-73" x="462.890625"/>
      <use xlink:href="#DejaVuSans-20" x="514.990234"/>
      <use xlink:href="#DejaVuSans-4e" x="546.777344"/>
      <use xlink:href="#DejaVuSans-75" x="621.582031"/>
      <use xlink:href="#DejaVuSans-69" x="684.960938"/>
      <use xlink:href="#DejaVuSans-73" x="712.744141"/>
      <use xlink:href="#DejaVuSans-61" x="764.84375"/>
      <use xlink:href="#DejaVuSans-6e" x="826.123047"/>
      <use xlink:href="#DejaVuSans-63" x="889.501953"/>
      <use xlink:href="#DejaVuSans-65" x="944.482422"/>
     </g>
    </g>
    <g id="LineCollection_5">
     <path d="M 79.468889 163.923364 
L 79.468889 153.923364 
" style="fill: none; stroke: #8b0000; stroke-width: 1.5"/>
    </g>
    <g id="line2d_56"/>
    <g id="line2d_57">
     <g>
      <use xlink:href="#m213c6e457f" x="79.468889" y="158.923364" style="fill: #8b0000; stroke: #8b0000"/>
     </g>
    </g>
    <g id="text_8">
     <!-- Fluxpoints Standard -->
     <g transform="translate(97.468889 162.423364) scale(0.1 -0.1)">
      <defs>
       <path id="DejaVuSans-53" d="M 3425 4513 
L 3425 3897 
Q 3066 4069 2747 4153 
Q 2428 4238 2131 4238 
Q 1616 4238 1336 4038 
Q 1056 3838 1056 3469 
Q 1056 3159 1242 3001 
Q 1428 2844 1947 2747 
L 2328 2669 
Q 3034 2534 3370 2195 
Q 3706 1856 3706 1288 
Q 3706 609 3251 259 
Q 2797 -91 1919 -91 
Q 1588 -91 1214 -16 
Q 841 59 441 206 
L 441 856 
Q 825 641 1194 531 
Q 1563 422 1919 422 
Q 2459 422 2753 634 
Q 3047 847 3047 1241 
Q 3047 1584 2836 1778 
Q 2625 1972 2144 2069 
L 1759 2144 
Q 1053 2284 737 2584 
Q 422 2884 422 3419 
Q 422 4038 858 4394 
Q 1294 4750 2059 4750 
Q 2388 4750 2728 4690 
Q 3069 4631 3425 4513 
z
" transform="scale(0.015625)"/>
       <path id="DejaVuSans-72" d="M 2631 2963 
Q 2534 3019 2420 3045 
Q 2306 3072 2169 3072 
Q 1681 3072 1420 2755 
Q 1159 2438 1159 1844 
L 1159 0 
L 581 0 
L 581 3500 
L 1159 3500 
L 1159 2956 
Q 1341 3275 1631 3429 
Q 1922 3584 2338 3584 
Q 2397 3584 2469 3576 
Q 2541 3569 2628 3553 
L 2631 2963 
z
" transform="scale(0.015625)"/>
      </defs>
      <use xlink:href="#DejaVuSans-46"/>
      <use xlink:href="#DejaVuSans-6c" x="57.519531"/>
      <use xlink:href="#DejaVuSans-75" x="85.302734"/>
      <use xlink:href="#DejaVuSans-78" x="148.681641"/>
      <use xlink:href="#DejaVuSans-70" x="207.861328"/>
      <use xlink:href="#DejaVuSans-6f" x="271.337891"/>
      <use xlink:href="#DejaVuSans-69" x="332.519531"/>
      <use xlink:href="#DejaVuSans-6e" x="360.302734"/>
      <use xlink:href="#DejaVuSans-74" x="423.681641"/>
      <use xlink:href="#DejaVuSans-73" x="462.890625"/>
      <use xlink:href="#DejaVuSans-20" x="514.990234"/>
      <use xlink:href="#DejaVuSans-53" x="546.777344"/>
      <use xlink:href="#DejaVuSans-74" x="610.253906"/>
      <use xlink:href="#DejaVuSans-61" x="649.462891"/>
      <use xlink:href="#DejaVuSans-6e" x="710.742188"/>
      <use xlink:href="#DejaVuSans-64" x="774.121094"/>
      <use xlink:href="#DejaVuSans-61" x="837.597656"/>
      <use xlink:href="#DejaVuSans-72" x="898.876953"/>
      <use xlink:href="#DejaVuSans-64" x="938.240234"/>
     </g>
    </g>
    <g id="LineCollection_6">
     <path d="M 79.468889 178.601489 
L 79.468889 168.601489 
" style="fill: none; stroke: #1f77b4; stroke-width: 1.5"/>
    </g>
    <g id="line2d_58">
     <path d="M 69.468889 173.601489 
L 89.468889 173.601489 
" style="fill: none; stroke: #1f77b4; stroke-width: 1.5; stroke-linecap: square"/>
    </g>
    <g id="line2d_59"/>
    <g id="text_9">
     <!-- $\mu$, $\sigma$ -->
     <g transform="translate(97.468889 177.101489) scale(0.1 -0.1)">
      <defs>
       <path id="DejaVuSans-Oblique-3bc" d="M -84 -1331 
L 856 3500 
L 1434 3500 
L 1009 1322 
Q 997 1256 987 1175 
Q 978 1094 978 1013 
Q 978 722 1161 565 
Q 1344 409 1684 409 
Q 2147 409 2431 671 
Q 2716 934 2816 1459 
L 3213 3500 
L 3788 3500 
L 3266 809 
Q 3253 750 3248 706 
Q 3244 663 3244 628 
Q 3244 531 3283 486 
Q 3322 441 3406 441 
Q 3438 441 3492 456 
Q 3547 472 3647 513 
L 3559 50 
Q 3422 -19 3297 -55 
Q 3172 -91 3053 -91 
Q 2847 -91 2730 40 
Q 2613 172 2613 403 
Q 2438 153 2195 31 
Q 1953 -91 1625 -91 
Q 1334 -91 1117 43 
Q 900 178 831 397 
L 494 -1331 
L -84 -1331 
z
" transform="scale(0.015625)"/>
       <path id="DejaVuSans-2c" d="M 750 794 
L 1409 794 
L 1409 256 
L 897 -744 
L 494 -744 
L 750 256 
L 750 794 
z
" transform="scale(0.015625)"/>
       <path id="DejaVuSans-Oblique-3c3" d="M 2219 3044 
Q 1744 3044 1422 2700 
Q 1081 2341 969 1747 
Q 844 1119 1044 756 
Q 1241 397 1706 397 
Q 2166 397 2503 759 
Q 2844 1122 2966 1747 
Q 3075 2319 2881 2700 
Q 2700 3044 2219 3044 
z
M 2309 3503 
L 4219 3500 
L 4106 2925 
L 3463 2925 
Q 3706 2438 3575 1747 
Q 3406 888 2884 400 
Q 2359 -91 1609 -91 
Q 856 -91 525 400 
Q 194 888 363 1747 
Q 528 2609 1050 3097 
Q 1484 3503 2309 3503 
z
" transform="scale(0.015625)"/>
      </defs>
      <use xlink:href="#DejaVuSans-Oblique-3bc" transform="translate(0 0.265625)"/>
      <use xlink:href="#DejaVuSans-2c" transform="translate(63.623047 0.265625)"/>
      <use xlink:href="#DejaVuSans-20" transform="translate(95.410156 0.265625)"/>
      <use xlink:href="#DejaVuSans-Oblique-3c3" transform="translate(127.197266 0.265625)"/>
     </g>
    </g>
   </g>
  </g>
  <g id="axes_2">
   <g id="patch_8">
    <path d="M 60.468889 314.728 
L 349.2 314.728 
L 349.2 206.220341 
L 60.468889 206.220341 
z
" style="fill: #ffffff"/>
   </g>
   <g id="matplotlib.axis_3">
    <g id="xtick_24">
     <g id="line2d_60">
      <g>
       <use xlink:href="#m008baef2df" x="111.812345" y="314.728" style="stroke: #000000; stroke-width: 0.8"/>
      </g>
     </g>
     <g id="text_10">
      <!-- $\mathdefault{10^{0}}$ -->
      <g transform="translate(103.012345 329.326437) scale(0.1 -0.1)">
       <use xlink:href="#DejaVuSans-31" transform="translate(0 0.765625)"/>
       <use xlink:href="#DejaVuSans-30" transform="translate(63.623047 0.765625)"/>
       <use xlink:href="#DejaVuSans-30" transform="translate(128.203125 39.046875) scale(0.7)"/>
      </g>
     </g>
    </g>
    <g id="xtick_25">
     <g id="line2d_61">
      <g>
       <use xlink:href="#m008baef2df" x="234.114151" y="314.728" style="stroke: #000000; stroke-width: 0.8"/>
      </g>
     </g>
     <g id="text_11">
      <!-- $\mathdefault{10^{1}}$ -->
      <g transform="translate(225.314151 329.326437) scale(0.1 -0.1)">
       <use xlink:href="#DejaVuSans-31" transform="translate(0 0.684375)"/>
       <use xlink:href="#DejaVuSans-30" transform="translate(63.623047 0.684375)"/>
       <use xlink:href="#DejaVuSans-31" transform="translate(128.203125 38.965625) scale(0.7)"/>
      </g>
     </g>
    </g>
    <g id="xtick_26">
     <g id="line2d_62">
      <g>
       <use xlink:href="#m7655530eff" x="63.143563" y="314.728" style="stroke: #000000; stroke-width: 0.6"/>
      </g>
     </g>
    </g>
    <g id="xtick_27">
     <g id="line2d_63">
      <g>
       <use xlink:href="#m7655530eff" x="74.995833" y="314.728" style="stroke: #000000; stroke-width: 0.6"/>
      </g>
     </g>
    </g>
    <g id="xtick_28">
     <g id="line2d_64">
      <g>
       <use xlink:href="#m7655530eff" x="84.679842" y="314.728" style="stroke: #000000; stroke-width: 0.6"/>
      </g>
     </g>
    </g>
    <g id="xtick_29">
     <g id="line2d_65">
      <g>
       <use xlink:href="#m7655530eff" x="92.867556" y="314.728" style="stroke: #000000; stroke-width: 0.6"/>
      </g>
     </g>
    </g>
    <g id="xtick_30">
     <g id="line2d_66">
      <g>
       <use xlink:href="#m7655530eff" x="99.960076" y="314.728" style="stroke: #000000; stroke-width: 0.6"/>
      </g>
     </g>
    </g>
    <g id="xtick_31">
     <g id="line2d_67">
      <g>
       <use xlink:href="#m7655530eff" x="106.216121" y="314.728" style="stroke: #000000; stroke-width: 0.6"/>
      </g>
     </g>
    </g>
    <g id="xtick_32">
     <g id="line2d_68">
      <g>
       <use xlink:href="#m7655530eff" x="148.628857" y="314.728" style="stroke: #000000; stroke-width: 0.6"/>
      </g>
     </g>
    </g>
    <g id="xtick_33">
     <g id="line2d_69">
      <g>
       <use xlink:href="#m7655530eff" x="170.165136" y="314.728" style="stroke: #000000; stroke-width: 0.6"/>
      </g>
     </g>
    </g>
    <g id="xtick_34">
     <g id="line2d_70">
      <g>
       <use xlink:href="#m7655530eff" x="185.44537" y="314.728" style="stroke: #000000; stroke-width: 0.6"/>
      </g>
     </g>
    </g>
    <g id="xtick_35">
     <g id="line2d_71">
      <g>
       <use xlink:href="#m7655530eff" x="197.297639" y="314.728" style="stroke: #000000; stroke-width: 0.6"/>
      </g>
     </g>
    </g>
    <g id="xtick_36">
     <g id="line2d_72">
      <g>
       <use xlink:href="#m7655530eff" x="206.981649" y="314.728" style="stroke: #000000; stroke-width: 0.6"/>
      </g>
     </g>
    </g>
    <g id="xtick_37">
     <g id="line2d_73">
      <g>
       <use xlink:href="#m7655530eff" x="215.169362" y="314.728" style="stroke: #000000; stroke-width: 0.6"/>
      </g>
     </g>
    </g>
    <g id="xtick_38">
     <g id="line2d_74">
      <g>
       <use xlink:href="#m7655530eff" x="222.261882" y="314.728" style="stroke: #000000; stroke-width: 0.6"/>
      </g>
     </g>
    </g>
    <g id="xtick_39">
     <g id="line2d_75">
      <g>
       <use xlink:href="#m7655530eff" x="228.517928" y="314.728" style="stroke: #000000; stroke-width: 0.6"/>
      </g>
     </g>
    </g>
    <g id="xtick_40">
     <g id="line2d_76">
      <g>
       <use xlink:href="#m7655530eff" x="270.930664" y="314.728" style="stroke: #000000; stroke-width: 0.6"/>
      </g>
     </g>
    </g>
    <g id="xtick_41">
     <g id="line2d_77">
      <g>
       <use xlink:href="#m7655530eff" x="292.466943" y="314.728" style="stroke: #000000; stroke-width: 0.6"/>
      </g>
     </g>
    </g>
    <g id="xtick_42">
     <g id="line2d_78">
      <g>
       <use xlink:href="#m7655530eff" x="307.747176" y="314.728" style="stroke: #000000; stroke-width: 0.6"/>
      </g>
     </g>
    </g>
    <g id="xtick_43">
     <g id="line2d_79">
      <g>
       <use xlink:href="#m7655530eff" x="319.599446" y="314.728" style="stroke: #000000; stroke-width: 0.6"/>
      </g>
     </g>
    </g>
    <g id="xtick_44">
     <g id="line2d_80">
      <g>
       <use xlink:href="#m7655530eff" x="329.283455" y="314.728" style="stroke: #000000; stroke-width: 0.6"/>
      </g>
     </g>
    </g>
    <g id="xtick_45">
     <g id="line2d_81">
      <g>
       <use xlink:href="#m7655530eff" x="337.471168" y="314.728" style="stroke: #000000; stroke-width: 0.6"/>
      </g>
     </g>
    </g>
    <g id="xtick_46">
     <g id="line2d_82">
      <g>
       <use xlink:href="#m7655530eff" x="344.563688" y="314.728" style="stroke: #000000; stroke-width: 0.6"/>
      </g>
     </g>
    </g>
    <g id="text_12">
     <!-- Energy [TeV] -->
     <g transform="translate(173.136788 343.004563) scale(0.1 -0.1)">
      <defs>
       <path id="DejaVuSans-45" d="M 628 4666 
L 3578 4666 
L 3578 4134 
L 1259 4134 
L 1259 2753 
L 3481 2753 
L 3481 2222 
L 1259 2222 
L 1259 531 
L 3634 531 
L 3634 0 
L 628 0 
L 628 4666 
z
" transform="scale(0.015625)"/>
       <path id="DejaVuSans-67" d="M 2906 1791 
Q 2906 2416 2648 2759 
Q 2391 3103 1925 3103 
Q 1463 3103 1205 2759 
Q 947 2416 947 1791 
Q 947 1169 1205 825 
Q 1463 481 1925 481 
Q 2391 481 2648 825 
Q 2906 1169 2906 1791 
z
M 3481 434 
Q 3481 -459 3084 -895 
Q 2688 -1331 1869 -1331 
Q 1566 -1331 1297 -1286 
Q 1028 -1241 775 -1147 
L 775 -588 
Q 1028 -725 1275 -790 
Q 1522 -856 1778 -856 
Q 2344 -856 2625 -561 
Q 2906 -266 2906 331 
L 2906 616 
Q 2728 306 2450 153 
Q 2172 0 1784 0 
Q 1141 0 747 490 
Q 353 981 353 1791 
Q 353 2603 747 3093 
Q 1141 3584 1784 3584 
Q 2172 3584 2450 3431 
Q 2728 3278 2906 2969 
L 2906 3500 
L 3481 3500 
L 3481 434 
z
" transform="scale(0.015625)"/>
       <path id="DejaVuSans-79" d="M 2059 -325 
Q 1816 -950 1584 -1140 
Q 1353 -1331 966 -1331 
L 506 -1331 
L 506 -850 
L 844 -850 
Q 1081 -850 1212 -737 
Q 1344 -625 1503 -206 
L 1606 56 
L 191 3500 
L 800 3500 
L 1894 763 
L 2988 3500 
L 3597 3500 
L 2059 -325 
z
" transform="scale(0.015625)"/>
      </defs>
      <use xlink:href="#DejaVuSans-45"/>
      <use xlink:href="#DejaVuSans-6e" x="63.183594"/>
      <use xlink:href="#DejaVuSans-65" x="126.5625"/>
      <use xlink:href="#DejaVuSans-72" x="188.085938"/>
      <use xlink:href="#DejaVuSans-67" x="227.449219"/>
      <use xlink:href="#DejaVuSans-79" x="290.925781"/>
      <use xlink:href="#DejaVuSans-20" x="350.105469"/>
      <use xlink:href="#DejaVuSans-5b" x="381.892578"/>
      <use xlink:href="#DejaVuSans-54" x="420.90625"/>
      <use xlink:href="#DejaVuSans-65" x="464.990234"/>
      <use xlink:href="#DejaVuSans-56" x="526.513672"/>
      <use xlink:href="#DejaVuSans-5d" x="594.921875"/>
     </g>
    </g>
   </g>
   <g id="matplotlib.axis_4">
    <g id="ytick_26">
     <g id="line2d_83">
      <g>
       <use xlink:href="#m9fba8c3dbc" x="60.468889" y="289.807581" style="stroke: #000000; stroke-width: 0.8"/>
      </g>
     </g>
     <g id="text_13">
      <!-- 0.55 -->
      <g transform="translate(31.203264 293.606799) scale(0.1 -0.1)">
       <defs>
        <path id="DejaVuSans-2e" d="M 684 794 
L 1344 794 
L 1344 0 
L 684 0 
L 684 794 
z
" transform="scale(0.015625)"/>
        <path id="DejaVuSans-35" d="M 691 4666 
L 3169 4666 
L 3169 4134 
L 1269 4134 
L 1269 2991 
Q 1406 3038 1543 3061 
Q 1681 3084 1819 3084 
Q 2600 3084 3056 2656 
Q 3513 2228 3513 1497 
Q 3513 744 3044 326 
Q 2575 -91 1722 -91 
Q 1428 -91 1123 -41 
Q 819 9 494 109 
L 494 744 
Q 775 591 1075 516 
Q 1375 441 1709 441 
Q 2250 441 2565 725 
Q 2881 1009 2881 1497 
Q 2881 1984 2565 2268 
Q 2250 2553 1709 2553 
Q 1456 2553 1204 2497 
Q 953 2441 691 2322 
L 691 4666 
z
" transform="scale(0.015625)"/>
       </defs>
       <use xlink:href="#DejaVuSans-30"/>
       <use xlink:href="#DejaVuSans-2e" x="63.623047"/>
       <use xlink:href="#DejaVuSans-35" x="95.410156"/>
       <use xlink:href="#DejaVuSans-35" x="159.033203"/>
      </g>
     </g>
    </g>
    <g id="ytick_27">
     <g id="line2d_84">
      <g>
       <use xlink:href="#m9fba8c3dbc" x="60.468889" y="262.031697" style="stroke: #000000; stroke-width: 0.8"/>
      </g>
     </g>
     <g id="text_14">
      <!-- 0.60 -->
      <g transform="translate(31.203264 265.830915) scale(0.1 -0.1)">
       <defs>
        <path id="DejaVuSans-36" d="M 2113 2584 
Q 1688 2584 1439 2293 
Q 1191 2003 1191 1497 
Q 1191 994 1439 701 
Q 1688 409 2113 409 
Q 2538 409 2786 701 
Q 3034 994 3034 1497 
Q 3034 2003 2786 2293 
Q 2538 2584 2113 2584 
z
M 3366 4563 
L 3366 3988 
Q 3128 4100 2886 4159 
Q 2644 4219 2406 4219 
Q 1781 4219 1451 3797 
Q 1122 3375 1075 2522 
Q 1259 2794 1537 2939 
Q 1816 3084 2150 3084 
Q 2853 3084 3261 2657 
Q 3669 2231 3669 1497 
Q 3669 778 3244 343 
Q 2819 -91 2113 -91 
Q 1303 -91 875 529 
Q 447 1150 447 2328 
Q 447 3434 972 4092 
Q 1497 4750 2381 4750 
Q 2619 4750 2861 4703 
Q 3103 4656 3366 4563 
z
" transform="scale(0.015625)"/>
       </defs>
       <use xlink:href="#DejaVuSans-30"/>
       <use xlink:href="#DejaVuSans-2e" x="63.623047"/>
       <use xlink:href="#DejaVuSans-36" x="95.410156"/>
       <use xlink:href="#DejaVuSans-30" x="159.033203"/>
      </g>
     </g>
    </g>
    <g id="ytick_28">
     <g id="line2d_85">
      <g>
       <use xlink:href="#m9fba8c3dbc" x="60.468889" y="234.255812" style="stroke: #000000; stroke-width: 0.8"/>
      </g>
     </g>
     <g id="text_15">
      <!-- 0.65 -->
      <g transform="translate(31.203264 238.055031) scale(0.1 -0.1)">
       <use xlink:href="#DejaVuSans-30"/>
       <use xlink:href="#DejaVuSans-2e" x="63.623047"/>
       <use xlink:href="#DejaVuSans-36" x="95.410156"/>
       <use xlink:href="#DejaVuSans-35" x="159.033203"/>
      </g>
     </g>
    </g>
    <g id="ytick_29">
     <g id="line2d_86">
      <g>
       <use xlink:href="#m9fba8c3dbc" x="60.468889" y="206.479928" style="stroke: #000000; stroke-width: 0.8"/>
      </g>
     </g>
     <g id="text_16">
      <!-- 0.70 -->
      <g transform="translate(31.203264 210.279147) scale(0.1 -0.1)">
       <defs>
        <path id="DejaVuSans-37" d="M 525 4666 
L 3525 4666 
L 3525 4397 
L 1831 0 
L 1172 0 
L 2766 4134 
L 525 4134 
L 525 4666 
z
" transform="scale(0.015625)"/>
       </defs>
       <use xlink:href="#DejaVuSans-30"/>
       <use xlink:href="#DejaVuSans-2e" x="63.623047"/>
       <use xlink:href="#DejaVuSans-37" x="95.410156"/>
       <use xlink:href="#DejaVuSans-30" x="159.033203"/>
      </g>
     </g>
    </g>
    <g id="text_17">
     <!-- Coverage -->
     <g transform="translate(25.123577 284.431202) rotate(-90) scale(0.1 -0.1)">
      <defs>
       <path id="DejaVuSans-43" d="M 4122 4306 
L 4122 3641 
Q 3803 3938 3442 4084 
Q 3081 4231 2675 4231 
Q 1875 4231 1450 3742 
Q 1025 3253 1025 2328 
Q 1025 1406 1450 917 
Q 1875 428 2675 428 
Q 3081 428 3442 575 
Q 3803 722 4122 1019 
L 4122 359 
Q 3791 134 3420 21 
Q 3050 -91 2638 -91 
Q 1578 -91 968 557 
Q 359 1206 359 2328 
Q 359 3453 968 4101 
Q 1578 4750 2638 4750 
Q 3056 4750 3426 4639 
Q 3797 4528 4122 4306 
z
" transform="scale(0.015625)"/>
       <path id="DejaVuSans-76" d="M 191 3500 
L 800 3500 
L 1894 563 
L 2988 3500 
L 3597 3500 
L 2284 0 
L 1503 0 
L 191 3500 
z
" transform="scale(0.015625)"/>
      </defs>
      <use xlink:href="#DejaVuSans-43"/>
      <use xlink:href="#DejaVuSans-6f" x="69.824219"/>
      <use xlink:href="#DejaVuSans-76" x="131.005859"/>
      <use xlink:href="#DejaVuSans-65" x="190.185547"/>
      <use xlink:href="#DejaVuSans-72" x="251.708984"/>
      <use xlink:href="#DejaVuSans-61" x="292.822266"/>
      <use xlink:href="#DejaVuSans-67" x="354.101562"/>
      <use xlink:href="#DejaVuSans-65" x="417.578125"/>
     </g>
    </g>
   </g>
   <g id="line2d_87">
    <path d="M 73.593031 212.883092 
L 88.880757 230.188938 
L 104.168482 264.800632 
L 119.456208 271.722971 
L 134.743934 309.795834 
L 150.03166 276.914725 
L 165.319385 285.567648 
L 180.607111 285.567648 
L 195.894837 276.914725 
L 211.182563 257.878293 
L 226.470289 273.453555 
L 241.758014 257.878293 
L 257.04574 290.759402 
L 272.333466 238.841862 
L 287.621192 259.608878 
L 302.908917 264.800632 
L 318.196643 231.919523 
L 333.484369 250.955955 
" clip-path="url(#pbd119f4a2b)" style="fill: none; stroke: #ff0000; stroke-width: 1.5; stroke-linecap: square"/>
   </g>
   <g id="line2d_88">
    <path d="M 73.593031 211.152507 
L 88.880757 224.997184 
L 104.168482 244.033616 
L 119.456208 237.111277 
L 134.743934 273.453555 
L 150.03166 233.650108 
L 165.319385 252.686539 
L 180.607111 257.878293 
L 195.894837 259.608878 
L 211.182563 242.303031 
L 226.470289 266.531217 
L 241.758014 254.417124 
L 257.04574 285.567648 
L 272.333466 233.650108 
L 287.621192 252.686539 
L 302.908917 264.800632 
L 318.196643 230.188938 
L 333.484369 250.955955 
" clip-path="url(#pbd119f4a2b)" style="fill: none; stroke: #008000; stroke-width: 1.5; stroke-linecap: square"/>
   </g>
   <g id="line2d_89">
    <path d="M 73.593031 217.590282 
L 88.880757 217.590282 
L 104.168482 217.590282 
L 119.456208 217.590282 
L 134.743934 217.590282 
L 150.03166 217.590282 
L 165.319385 217.590282 
L 180.607111 217.590282 
L 195.894837 217.590282 
L 211.182563 217.590282 
L 226.470289 217.590282 
L 241.758014 217.590282 
L 257.04574 217.590282 
L 272.333466 217.590282 
L 287.621192 217.590282 
L 302.908917 217.590282 
L 318.196643 217.590282 
L 333.484369 217.590282 
" clip-path="url(#pbd119f4a2b)" style="fill: none; stroke-dasharray: 1.5,2.475; stroke-dashoffset: 0; stroke: #008000; stroke-width: 1.5"/>
   </g>
   <g id="patch_9">
    <path d="M 60.468889 314.728 
L 60.468889 206.220341 
" style="fill: none; stroke: #000000; stroke-width: 0.8; stroke-linejoin: miter; stroke-linecap: square"/>
   </g>
   <g id="patch_10">
    <path d="M 349.2 314.728 
L 349.2 206.220341 
" style="fill: none; stroke: #000000; stroke-width: 0.8; stroke-linejoin: miter; stroke-linecap: square"/>
   </g>
   <g id="patch_11">
    <path d="M 60.468889 314.728 
L 349.2 314.728 
" style="fill: none; stroke: #000000; stroke-width: 0.8; stroke-linejoin: miter; stroke-linecap: square"/>
   </g>
   <g id="patch_12">
    <path d="M 60.468889 206.220341 
L 349.2 206.220341 
" style="fill: none; stroke: #000000; stroke-width: 0.8; stroke-linejoin: miter; stroke-linecap: square"/>
   </g>
   <g id="legend_2">
    <g id="patch_13">
     <path d="M 264.276562 309.728 
L 342.2 309.728 
Q 344.2 309.728 344.2 307.728 
L 344.2 264.693625 
Q 344.2 262.693625 342.2 262.693625 
L 264.276562 262.693625 
Q 262.276562 262.693625 262.276562 264.693625 
L 262.276562 307.728 
Q 262.276562 309.728 264.276562 309.728 
z
" style="fill: #ffffff; opacity: 0.8; stroke: #cccccc; stroke-linejoin: miter"/>
    </g>
    <g id="line2d_90">
     <path d="M 266.276562 270.792063 
L 276.276562 270.792063 
L 286.276562 270.792063 
" style="fill: none; stroke: #ff0000; stroke-width: 1.5; stroke-linecap: square"/>
    </g>
    <g id="text_18">
     <!-- Standard -->
     <g transform="translate(294.276562 274.292063) scale(0.1 -0.1)">
      <use xlink:href="#DejaVuSans-53"/>
      <use xlink:href="#DejaVuSans-74" x="63.476562"/>
      <use xlink:href="#DejaVuSans-61" x="102.685547"/>
      <use xlink:href="#DejaVuSans-6e" x="163.964844"/>
      <use xlink:href="#DejaVuSans-64" x="227.34375"/>
      <use xlink:href="#DejaVuSans-61" x="290.820312"/>
      <use xlink:href="#DejaVuSans-72" x="352.099609"/>
      <use xlink:href="#DejaVuSans-64" x="391.462891"/>
     </g>
    </g>
    <g id="line2d_91">
     <path d="M 266.276562 285.470188 
L 276.276562 285.470188 
L 286.276562 285.470188 
" style="fill: none; stroke: #008000; stroke-width: 1.5; stroke-linecap: square"/>
    </g>
    <g id="text_19">
     <!-- Nuisance -->
     <g transform="translate(294.276562 288.970188) scale(0.1 -0.1)">
      <use xlink:href="#DejaVuSans-4e"/>
      <use xlink:href="#DejaVuSans-75" x="74.804688"/>
      <use xlink:href="#DejaVuSans-69" x="138.183594"/>
      <use xlink:href="#DejaVuSans-73" x="165.966797"/>
      <use xlink:href="#DejaVuSans-61" x="218.066406"/>
      <use xlink:href="#DejaVuSans-6e" x="279.345703"/>
      <use xlink:href="#DejaVuSans-63" x="342.724609"/>
      <use xlink:href="#DejaVuSans-65" x="397.705078"/>
     </g>
    </g>
    <g id="line2d_92">
     <path d="M 266.276562 300.148313 
L 276.276562 300.148313 
L 286.276562 300.148313 
" style="fill: none; stroke-dasharray: 1.5,2.475; stroke-dashoffset: 0; stroke: #008000; stroke-width: 1.5"/>
    </g>
    <g id="text_20">
     <!-- 68 % -->
     <g transform="translate(294.276562 303.648313) scale(0.1 -0.1)">
      <defs>
       <path id="DejaVuSans-38" d="M 2034 2216 
Q 1584 2216 1326 1975 
Q 1069 1734 1069 1313 
Q 1069 891 1326 650 
Q 1584 409 2034 409 
Q 2484 409 2743 651 
Q 3003 894 3003 1313 
Q 3003 1734 2745 1975 
Q 2488 2216 2034 2216 
z
M 1403 2484 
Q 997 2584 770 2862 
Q 544 3141 544 3541 
Q 544 4100 942 4425 
Q 1341 4750 2034 4750 
Q 2731 4750 3128 4425 
Q 3525 4100 3525 3541 
Q 3525 3141 3298 2862 
Q 3072 2584 2669 2484 
Q 3125 2378 3379 2068 
Q 3634 1759 3634 1313 
Q 3634 634 3220 271 
Q 2806 -91 2034 -91 
Q 1263 -91 848 271 
Q 434 634 434 1313 
Q 434 1759 690 2068 
Q 947 2378 1403 2484 
z
M 1172 3481 
Q 1172 3119 1398 2916 
Q 1625 2713 2034 2713 
Q 2441 2713 2670 2916 
Q 2900 3119 2900 3481 
Q 2900 3844 2670 4047 
Q 2441 4250 2034 4250 
Q 1625 4250 1398 4047 
Q 1172 3844 1172 3481 
z
" transform="scale(0.015625)"/>
       <path id="DejaVuSans-25" d="M 4653 2053 
Q 4381 2053 4226 1822 
Q 4072 1591 4072 1178 
Q 4072 772 4226 539 
Q 4381 306 4653 306 
Q 4919 306 5073 539 
Q 5228 772 5228 1178 
Q 5228 1588 5073 1820 
Q 4919 2053 4653 2053 
z
M 4653 2450 
Q 5147 2450 5437 2106 
Q 5728 1763 5728 1178 
Q 5728 594 5436 251 
Q 5144 -91 4653 -91 
Q 4153 -91 3862 251 
Q 3572 594 3572 1178 
Q 3572 1766 3864 2108 
Q 4156 2450 4653 2450 
z
M 1428 4353 
Q 1159 4353 1004 4120 
Q 850 3888 850 3481 
Q 850 3069 1003 2837 
Q 1156 2606 1428 2606 
Q 1700 2606 1854 2837 
Q 2009 3069 2009 3481 
Q 2009 3884 1853 4118 
Q 1697 4353 1428 4353 
z
M 4250 4750 
L 4750 4750 
L 1831 -91 
L 1331 -91 
L 4250 4750 
z
M 1428 4750 
Q 1922 4750 2215 4408 
Q 2509 4066 2509 3481 
Q 2509 2891 2217 2550 
Q 1925 2209 1428 2209 
Q 931 2209 642 2551 
Q 353 2894 353 3481 
Q 353 4063 643 4406 
Q 934 4750 1428 4750 
z
" transform="scale(0.015625)"/>
      </defs>
      <use xlink:href="#DejaVuSans-36"/>
      <use xlink:href="#DejaVuSans-38" x="63.623047"/>
      <use xlink:href="#DejaVuSans-20" x="127.246094"/>
      <use xlink:href="#DejaVuSans-25" x="159.033203"/>
     </g>
    </g>
   </g>
  </g>
 </g>
 <defs>
  <clipPath id="p036dc4f7ce">
   <rect x="60.468889" y="25.44" width="288.731111" height="162.761489"/>
  </clipPath>
  <clipPath id="pbd119f4a2b">
   <rect x="60.468889" y="206.220341" width="288.731111" height="108.507659"/>
  </clipPath>
 </defs>
</svg>
