<?xml version="1.0" encoding="utf-8" standalone="no"?>
<!DOCTYPE svg PUBLIC "-//W3C//DTD SVG 1.1//EN"
  "http://www.w3.org/Graphics/SVG/1.1/DTD/svg11.dtd">
<svg xmlns:xlink="http://www.w3.org/1999/xlink" width="360pt" height="360pt" viewBox="0 0 360 360" xmlns="http://www.w3.org/2000/svg" version="1.1">
 <metadata>
  <rdf:RDF xmlns:dc="http://purl.org/dc/elements/1.1/" xmlns:cc="http://creativecommons.org/ns#" xmlns:rdf="http://www.w3.org/1999/02/22-rdf-syntax-ns#">
   <cc:Work>
    <dc:type rdf:resource="http://purl.org/dc/dcmitype/StillImage"/>
    <dc:date>2023-02-01T13:13:38.722806</dc:date>
    <dc:format>image/svg+xml</dc:format>
    <dc:creator>
     <cc:Agent>
      <dc:title>Matplotlib v3.6.2, https://matplotlib.org/</dc:title>
     </cc:Agent>
    </dc:creator>
   </cc:Work>
  </rdf:RDF>
 </metadata>
 <defs>
  <style type="text/css">*{stroke-linejoin: round; stroke-linecap: butt}</style>
 </defs>
 <g id="figure_1">
  <g id="patch_1">
   <path d="M 0 360 
L 360 360 
L 360 0 
L 0 0 
z
" style="fill: #ffffff"/>
  </g>
  <g id="axes_1">
   <g id="patch_2">
    <path d="M 60.333889 190.4328 
L 349.2 190.4328 
L 349.2 25.44 
L 60.333889 25.44 
z
" style="fill: #ffffff"/>
   </g>
   <g id="PolyCollection_1">
    <path d="M 74.752107 55.625919 
L 74.752107 68.097817 
L 77.327987 68.542695 
L 79.903868 68.989173 
L 82.479748 69.437287 
L 85.055628 69.887079 
L 87.631508 70.338589 
L 90.207388 70.79186 
L 92.783269 71.246934 
L 95.359149 71.703856 
L 97.935029 72.162671 
L 100.510909 72.623426 
L 103.08679 73.086168 
L 105.66267 73.550946 
L 108.23855 74.017809 
L 110.81443 74.486806 
L 113.39031 74.957987 
L 115.966191 75.431402 
L 118.542071 75.907103 
L 121.117951 76.385139 
L 123.693831 76.86556 
L 126.269711 77.348417 
L 128.845592 77.833758 
L 131.421472 78.321632 
L 133.997352 78.812086 
L 136.573232 79.305165 
L 139.149112 79.800912 
L 141.724993 80.299371 
L 144.300873 80.80058 
L 146.876753 81.304576 
L 149.452633 81.811394 
L 152.028514 82.321065 
L 154.604394 82.833618 
L 157.180274 83.349076 
L 159.756154 83.867461 
L 162.332034 84.38879 
L 164.907915 84.913076 
L 167.483795 85.440329 
L 170.059675 85.970552 
L 172.635555 86.503748 
L 175.211435 87.039912 
L 177.787316 87.579037 
L 180.363196 88.121111 
L 182.939076 88.666119 
L 185.514956 89.21404 
L 188.090836 89.764852 
L 190.666717 90.318528 
L 193.242597 90.875037 
L 195.818477 91.434347 
L 198.394357 91.99642 
L 200.970238 92.561219 
L 203.546118 93.128703 
L 206.121998 93.698827 
L 208.697878 94.271548 
L 211.273758 94.846819 
L 213.849639 95.424591 
L 216.425519 96.004817 
L 219.001399 96.587446 
L 221.577279 97.17243 
L 224.153159 97.759716 
L 226.72904 98.349255 
L 229.30492 98.940997 
L 231.8808 99.534891 
L 234.45668 100.130887 
L 237.03256 100.728936 
L 239.608441 101.32899 
L 242.184321 101.931001 
L 244.760201 102.534923 
L 247.336081 103.140708 
L 249.911962 103.748313 
L 252.487842 104.357694 
L 255.063722 104.968807 
L 257.639602 105.581613 
L 260.215482 106.19607 
L 262.791363 106.81214 
L 265.367243 107.429786 
L 267.943123 108.04897 
L 270.519003 108.669658 
L 273.094883 109.291815 
L 275.670764 109.91541 
L 278.246644 110.540411 
L 280.822524 111.166787 
L 283.398404 111.79451 
L 285.974285 112.423552 
L 288.550165 113.053886 
L 291.126045 113.685487 
L 293.701925 114.318329 
L 296.277805 114.952391 
L 298.853686 115.587649 
L 301.429566 116.224081 
L 304.005446 116.861668 
L 306.581326 117.50039 
L 309.157206 118.140229 
L 311.733087 118.781166 
L 314.308967 119.423186 
L 316.884847 120.066271 
L 319.460727 120.710406 
L 322.036607 121.355578 
L 324.612488 122.001772 
L 327.188368 122.648976 
L 329.764248 123.297176 
L 329.764248 106.403244 
L 329.764248 106.403244 
L 327.188368 105.946278 
L 324.612488 105.489071 
L 322.036607 105.03161 
L 319.460727 104.573878 
L 316.884847 104.11586 
L 314.308967 103.657538 
L 311.733087 103.198895 
L 309.157206 102.739913 
L 306.581326 102.280571 
L 304.005446 101.820851 
L 301.429566 101.360732 
L 298.853686 100.900191 
L 296.277805 100.439206 
L 293.701925 99.977754 
L 291.126045 99.515811 
L 288.550165 99.05335 
L 285.974285 98.590347 
L 283.398404 98.126772 
L 280.822524 97.662598 
L 278.246644 97.197795 
L 275.670764 96.732332 
L 273.094883 96.266178 
L 270.519003 95.799299 
L 267.943123 95.331661 
L 265.367243 94.863229 
L 262.791363 94.393966 
L 260.215482 93.923834 
L 257.639602 93.452795 
L 255.063722 92.980807 
L 252.487842 92.50783 
L 249.911962 92.03382 
L 247.336081 91.558735 
L 244.760201 91.082528 
L 242.184321 90.605155 
L 239.608441 90.126567 
L 237.03256 89.646718 
L 234.45668 89.165558 
L 231.8808 88.683038 
L 229.30492 88.199107 
L 226.72904 87.713715 
L 224.153159 87.226811 
L 221.577279 86.738344 
L 219.001399 86.248262 
L 216.425519 85.756514 
L 213.849639 85.263049 
L 211.273758 84.767818 
L 208.697878 84.27077 
L 206.121998 83.771858 
L 203.546118 83.271033 
L 200.970238 82.768252 
L 198.394357 82.263469 
L 195.818477 81.756645 
L 193.242597 81.247739 
L 190.666717 80.736714 
L 188.090836 80.223538 
L 185.514956 79.70818 
L 182.939076 79.190613 
L 180.363196 78.670813 
L 177.787316 78.148761 
L 175.211435 77.62444 
L 172.635555 77.097839 
L 170.059675 76.56895 
L 167.483795 76.037769 
L 164.907915 75.504298 
L 162.332034 74.968541 
L 159.756154 74.430508 
L 157.180274 73.890212 
L 154.604394 73.34767 
L 152.028514 72.802904 
L 149.452633 72.255937 
L 146.876753 71.706799 
L 144.300873 71.155522 
L 141.724993 70.602139 
L 139.149112 70.046688 
L 136.573232 69.48921 
L 133.997352 68.929747 
L 131.421472 68.368343 
L 128.845592 67.805044 
L 126.269711 67.239898 
L 123.693831 66.672953 
L 121.117951 66.104259 
L 118.542071 65.533867 
L 115.966191 64.961828 
L 113.39031 64.388192 
L 110.81443 63.813012 
L 108.23855 63.236338 
L 105.66267 62.658221 
L 103.08679 62.078713 
L 100.510909 61.497862 
L 97.935029 60.915718 
L 95.359149 60.33233 
L 92.783269 59.747744 
L 90.207388 59.162009 
L 87.631508 58.575169 
L 85.055628 57.987269 
L 82.479748 57.398353 
L 79.903868 56.808462 
L 77.327987 56.217637 
L 74.752107 55.625919 
z
" clip-path="url(#p7f915db6ec)" style="fill: #008000; fill-opacity: 0.5"/>
   </g>
   <g id="PolyCollection_2">
    <path d="M 74.752107 57.110911 
L 74.752107 66.099878 
L 77.327987 66.524763 
L 79.903868 66.950829 
L 82.479748 67.378122 
L 85.055628 67.806694 
L 87.631508 68.236601 
L 90.207388 68.667906 
L 92.783269 69.100673 
L 95.359149 69.534976 
L 97.935029 69.970891 
L 100.510909 70.408503 
L 103.08679 70.847905 
L 105.66267 71.289193 
L 108.23855 71.732475 
L 110.81443 72.177867 
L 113.39031 72.625491 
L 115.966191 73.075481 
L 118.542071 73.52798 
L 121.117951 73.983139 
L 123.693831 74.441119 
L 126.269711 74.902093 
L 128.845592 75.366239 
L 131.421472 75.833746 
L 133.997352 76.304809 
L 136.573232 76.779629 
L 139.149112 77.258409 
L 141.724993 77.741356 
L 144.300873 78.228671 
L 146.876753 78.720553 
L 149.452633 79.217191 
L 152.028514 79.718759 
L 154.604394 80.225415 
L 157.180274 80.737294 
L 159.756154 81.254507 
L 162.332034 81.777134 
L 164.907915 82.305225 
L 167.483795 82.838796 
L 170.059675 83.37783 
L 172.635555 83.922277 
L 175.211435 84.472055 
L 177.787316 85.027053 
L 180.363196 85.587135 
L 182.939076 86.152143 
L 185.514956 86.721903 
L 188.090836 87.296224 
L 190.666717 87.874909 
L 193.242597 88.457756 
L 195.818477 89.044558 
L 198.394357 89.635111 
L 200.970238 90.229216 
L 203.546118 90.826677 
L 206.121998 91.427306 
L 208.697878 92.030923 
L 211.273758 92.637358 
L 213.849639 93.246449 
L 216.425519 93.858045 
L 219.001399 94.472003 
L 221.577279 95.088191 
L 224.153159 95.706485 
L 226.72904 96.32677 
L 229.30492 96.94894 
L 231.8808 97.572897 
L 234.45668 98.198548 
L 237.03256 98.825809 
L 239.608441 99.454604 
L 242.184321 100.08486 
L 244.760201 100.716512 
L 247.336081 101.349497 
L 249.911962 101.98376 
L 252.487842 102.61925 
L 255.063722 103.255917 
L 257.639602 103.893719 
L 260.215482 104.532615 
L 262.791363 105.172566 
L 265.367243 105.81354 
L 267.943123 106.455503 
L 270.519003 107.098428 
L 273.094883 107.742285 
L 275.670764 108.387052 
L 278.246644 109.032704 
L 280.822524 109.67922 
L 283.398404 110.326581 
L 285.974285 110.97477 
L 288.550165 111.623768 
L 291.126045 112.273562 
L 293.701925 112.924137 
L 296.277805 113.57548 
L 298.853686 114.227578 
L 301.429566 114.880423 
L 304.005446 115.534002 
L 306.581326 116.188308 
L 309.157206 116.843331 
L 311.733087 117.499065 
L 314.308967 118.155502 
L 316.884847 118.812635 
L 319.460727 119.47046 
L 322.036607 120.128971 
L 324.612488 120.788164 
L 327.188368 121.448034 
L 329.764248 122.108577 
L 329.764248 107.168609 
L 329.764248 107.168609 
L 327.188368 106.723957 
L 324.612488 106.279369 
L 322.036607 105.834841 
L 319.460727 105.390365 
L 316.884847 104.945934 
L 314.308967 104.501541 
L 311.733087 104.057178 
L 309.157206 103.612836 
L 306.581326 103.168506 
L 304.005446 102.724178 
L 301.429566 102.279842 
L 298.853686 101.835486 
L 296.277805 101.391098 
L 293.701925 100.946665 
L 291.126045 100.502174 
L 288.550165 100.057609 
L 285.974285 99.612955 
L 283.398404 99.168194 
L 280.822524 98.723308 
L 278.246644 98.278277 
L 275.670764 97.833081 
L 273.094883 97.387695 
L 270.519003 96.942096 
L 267.943123 96.496257 
L 265.367243 96.05015 
L 262.791363 95.603743 
L 260.215482 95.157003 
L 257.639602 94.709895 
L 255.063722 94.262379 
L 252.487842 93.814413 
L 249.911962 93.365954 
L 247.336081 92.91695 
L 244.760201 92.467349 
L 242.184321 92.017095 
L 239.608441 91.566124 
L 237.03256 91.114369 
L 234.45668 90.661758 
L 231.8808 90.208212 
L 229.30492 89.753646 
L 226.72904 89.297966 
L 224.153159 88.841075 
L 221.577279 88.382865 
L 219.001399 87.92322 
L 216.425519 87.462015 
L 213.849639 86.999117 
L 211.273758 86.534384 
L 208.697878 86.067662 
L 206.121998 85.598791 
L 203.546118 85.127597 
L 200.970238 84.653902 
L 198.394357 84.177516 
L 195.818477 83.698245 
L 193.242597 83.215887 
L 190.666717 82.730237 
L 188.090836 82.241091 
L 185.514956 81.748244 
L 182.939076 81.251498 
L 180.363196 80.750665 
L 177.787316 80.245568 
L 175.211435 79.73605 
L 172.635555 79.221974 
L 170.059675 78.70323 
L 167.483795 78.179735 
L 164.907915 77.651439 
L 162.332034 77.118325 
L 159.756154 76.580409 
L 157.180274 76.037742 
L 154.604394 75.490403 
L 152.028514 74.938503 
L 149.452633 74.382179 
L 146.876753 73.821586 
L 144.300873 73.256902 
L 141.724993 72.688314 
L 139.149112 72.11602 
L 136.573232 71.540225 
L 133.997352 70.961133 
L 131.421472 70.378949 
L 128.845592 69.793875 
L 126.269711 69.206106 
L 123.693831 68.61583 
L 121.117951 68.023228 
L 118.542071 67.428471 
L 115.966191 66.831723 
L 113.39031 66.233135 
L 110.81443 65.632851 
L 108.23855 65.031004 
L 105.66267 64.427719 
L 103.08679 63.823112 
L 100.510909 63.217291 
L 97.935029 62.610354 
L 95.359149 62.002395 
L 92.783269 61.393499 
L 90.207388 60.783744 
L 87.631508 60.173204 
L 85.055628 59.561946 
L 82.479748 58.950032 
L 79.903868 58.33752 
L 77.327987 57.724463 
L 74.752107 57.110911 
z
" clip-path="url(#p7f915db6ec)" style="fill: #ff0000; fill-opacity: 0.6"/>
   </g>
   <g id="matplotlib.axis_1">
    <g id="xtick_1">
     <g id="line2d_1">
      <defs>
       <path id="m49e89877f4" d="M 0 0 
L 0 3.5 
" style="stroke: #000000; stroke-width: 0.8"/>
      </defs>
      <g>
       <use xlink:href="#m49e89877f4" x="111.344758" y="190.4328" style="stroke: #000000; stroke-width: 0.8"/>
      </g>
     </g>
    </g>
    <g id="xtick_2">
     <g id="line2d_2">
      <g>
       <use xlink:href="#m49e89877f4" x="232.562651" y="190.4328" style="stroke: #000000; stroke-width: 0.8"/>
      </g>
     </g>
    </g>
    <g id="xtick_3">
     <g id="line2d_3">
      <defs>
       <path id="mf3aba7fafb" d="M 0 0 
L 0 2 
" style="stroke: #000000; stroke-width: 0.6"/>
      </defs>
      <g>
       <use xlink:href="#mf3aba7fafb" x="63.107309" y="190.4328" style="stroke: #000000; stroke-width: 0.6"/>
      </g>
     </g>
    </g>
    <g id="xtick_4">
     <g id="line2d_4">
      <g>
       <use xlink:href="#mf3aba7fafb" x="74.854537" y="190.4328" style="stroke: #000000; stroke-width: 0.6"/>
      </g>
     </g>
    </g>
    <g id="xtick_5">
     <g id="line2d_5">
      <g>
       <use xlink:href="#mf3aba7fafb" x="84.452721" y="190.4328" style="stroke: #000000; stroke-width: 0.6"/>
      </g>
     </g>
    </g>
    <g id="xtick_6">
     <g id="line2d_6">
      <g>
       <use xlink:href="#mf3aba7fafb" x="92.567869" y="190.4328" style="stroke: #000000; stroke-width: 0.6"/>
      </g>
     </g>
    </g>
    <g id="xtick_7">
     <g id="line2d_7">
      <g>
       <use xlink:href="#mf3aba7fafb" x="99.597531" y="190.4328" style="stroke: #000000; stroke-width: 0.6"/>
      </g>
     </g>
    </g>
    <g id="xtick_8">
     <g id="line2d_8">
      <g>
       <use xlink:href="#mf3aba7fafb" x="105.798132" y="190.4328" style="stroke: #000000; stroke-width: 0.6"/>
      </g>
     </g>
    </g>
    <g id="xtick_9">
     <g id="line2d_9">
      <g>
       <use xlink:href="#mf3aba7fafb" x="147.83498" y="190.4328" style="stroke: #000000; stroke-width: 0.6"/>
      </g>
     </g>
    </g>
    <g id="xtick_10">
     <g id="line2d_10">
      <g>
       <use xlink:href="#mf3aba7fafb" x="169.180391" y="190.4328" style="stroke: #000000; stroke-width: 0.6"/>
      </g>
     </g>
    </g>
    <g id="xtick_11">
     <g id="line2d_11">
      <g>
       <use xlink:href="#mf3aba7fafb" x="184.325202" y="190.4328" style="stroke: #000000; stroke-width: 0.6"/>
      </g>
     </g>
    </g>
    <g id="xtick_12">
     <g id="line2d_12">
      <g>
       <use xlink:href="#mf3aba7fafb" x="196.072429" y="190.4328" style="stroke: #000000; stroke-width: 0.6"/>
      </g>
     </g>
    </g>
    <g id="xtick_13">
     <g id="line2d_13">
      <g>
       <use xlink:href="#mf3aba7fafb" x="205.670613" y="190.4328" style="stroke: #000000; stroke-width: 0.6"/>
      </g>
     </g>
    </g>
    <g id="xtick_14">
     <g id="line2d_14">
      <g>
       <use xlink:href="#mf3aba7fafb" x="213.785762" y="190.4328" style="stroke: #000000; stroke-width: 0.6"/>
      </g>
     </g>
    </g>
    <g id="xtick_15">
     <g id="line2d_15">
      <g>
       <use xlink:href="#mf3aba7fafb" x="220.815423" y="190.4328" style="stroke: #000000; stroke-width: 0.6"/>
      </g>
     </g>
    </g>
    <g id="xtick_16">
     <g id="line2d_16">
      <g>
       <use xlink:href="#mf3aba7fafb" x="227.016024" y="190.4328" style="stroke: #000000; stroke-width: 0.6"/>
      </g>
     </g>
    </g>
    <g id="xtick_17">
     <g id="line2d_17">
      <g>
       <use xlink:href="#mf3aba7fafb" x="269.052872" y="190.4328" style="stroke: #000000; stroke-width: 0.6"/>
      </g>
     </g>
    </g>
    <g id="xtick_18">
     <g id="line2d_18">
      <g>
       <use xlink:href="#mf3aba7fafb" x="290.398284" y="190.4328" style="stroke: #000000; stroke-width: 0.6"/>
      </g>
     </g>
    </g>
    <g id="xtick_19">
     <g id="line2d_19">
      <g>
       <use xlink:href="#mf3aba7fafb" x="305.543094" y="190.4328" style="stroke: #000000; stroke-width: 0.6"/>
      </g>
     </g>
    </g>
    <g id="xtick_20">
     <g id="line2d_20">
      <g>
       <use xlink:href="#mf3aba7fafb" x="317.290321" y="190.4328" style="stroke: #000000; stroke-width: 0.6"/>
      </g>
     </g>
    </g>
    <g id="xtick_21">
     <g id="line2d_21">
      <g>
       <use xlink:href="#mf3aba7fafb" x="326.888505" y="190.4328" style="stroke: #000000; stroke-width: 0.6"/>
      </g>
     </g>
    </g>
    <g id="xtick_22">
     <g id="line2d_22">
      <g>
       <use xlink:href="#mf3aba7fafb" x="335.003654" y="190.4328" style="stroke: #000000; stroke-width: 0.6"/>
      </g>
     </g>
    </g>
    <g id="xtick_23">
     <g id="line2d_23">
      <g>
       <use xlink:href="#mf3aba7fafb" x="342.033315" y="190.4328" style="stroke: #000000; stroke-width: 0.6"/>
      </g>
     </g>
    </g>
    <g id="xtick_24">
     <g id="line2d_24">
      <g>
       <use xlink:href="#mf3aba7fafb" x="348.233916" y="190.4328" style="stroke: #000000; stroke-width: 0.6"/>
      </g>
     </g>
    </g>
   </g>
   <g id="matplotlib.axis_2">
    <g id="ytick_1">
     <g id="line2d_25">
      <defs>
       <path id="mad34cfe6cf" d="M 0 0 
L -3.5 0 
" style="stroke: #000000; stroke-width: 0.8"/>
      </defs>
      <g>
       <use xlink:href="#mad34cfe6cf" x="60.333889" y="152.123823" style="stroke: #000000; stroke-width: 0.8"/>
      </g>
     </g>
     <g id="text_1">
      <!-- $\mathdefault{10^{-13}}$ -->
      <g transform="translate(25.433889 155.923042) scale(0.1 -0.1)">
       <defs>
        <path id="DejaVuSans-31" d="M 794 531 
L 1825 531 
L 1825 4091 
L 703 3866 
L 703 4441 
L 1819 4666 
L 2450 4666 
L 2450 531 
L 3481 531 
L 3481 0 
L 794 0 
L 794 531 
z
" transform="scale(0.015625)"/>
        <path id="DejaVuSans-30" d="M 2034 4250 
Q 1547 4250 1301 3770 
Q 1056 3291 1056 2328 
Q 1056 1369 1301 889 
Q 1547 409 2034 409 
Q 2525 409 2770 889 
Q 3016 1369 3016 2328 
Q 3016 3291 2770 3770 
Q 2525 4250 2034 4250 
z
M 2034 4750 
Q 2819 4750 3233 4129 
Q 3647 3509 3647 2328 
Q 3647 1150 3233 529 
Q 2819 -91 2034 -91 
Q 1250 -91 836 529 
Q 422 1150 422 2328 
Q 422 3509 836 4129 
Q 1250 4750 2034 4750 
z
" transform="scale(0.015625)"/>
        <path id="DejaVuSans-2212" d="M 678 2272 
L 4684 2272 
L 4684 1741 
L 678 1741 
L 678 2272 
z
" transform="scale(0.015625)"/>
        <path id="DejaVuSans-33" d="M 2597 2516 
Q 3050 2419 3304 2112 
Q 3559 1806 3559 1356 
Q 3559 666 3084 287 
Q 2609 -91 1734 -91 
Q 1441 -91 1130 -33 
Q 819 25 488 141 
L 488 750 
Q 750 597 1062 519 
Q 1375 441 1716 441 
Q 2309 441 2620 675 
Q 2931 909 2931 1356 
Q 2931 1769 2642 2001 
Q 2353 2234 1838 2234 
L 1294 2234 
L 1294 2753 
L 1863 2753 
Q 2328 2753 2575 2939 
Q 2822 3125 2822 3475 
Q 2822 3834 2567 4026 
Q 2313 4219 1838 4219 
Q 1578 4219 1281 4162 
Q 984 4106 628 3988 
L 628 4550 
Q 988 4650 1302 4700 
Q 1616 4750 1894 4750 
Q 2613 4750 3031 4423 
Q 3450 4097 3450 3541 
Q 3450 3153 3228 2886 
Q 3006 2619 2597 2516 
z
" transform="scale(0.015625)"/>
       </defs>
       <use xlink:href="#DejaVuSans-31" transform="translate(0 0.765625)"/>
       <use xlink:href="#DejaVuSans-30" transform="translate(63.623047 0.765625)"/>
       <use xlink:href="#DejaVuSans-2212" transform="translate(128.203125 39.046875) scale(0.7)"/>
       <use xlink:href="#DejaVuSans-31" transform="translate(186.855469 39.046875) scale(0.7)"/>
       <use xlink:href="#DejaVuSans-33" transform="translate(231.391602 39.046875) scale(0.7)"/>
      </g>
     </g>
    </g>
    <g id="ytick_2">
     <g id="line2d_26">
      <g>
       <use xlink:href="#mad34cfe6cf" x="60.333889" y="68.866745" style="stroke: #000000; stroke-width: 0.8"/>
      </g>
     </g>
     <g id="text_2">
      <!-- $\mathdefault{10^{-12}}$ -->
      <g transform="translate(25.433889 72.665964) scale(0.1 -0.1)">
       <defs>
        <path id="DejaVuSans-32" d="M 1228 531 
L 3431 531 
L 3431 0 
L 469 0 
L 469 531 
Q 828 903 1448 1529 
Q 2069 2156 2228 2338 
Q 2531 2678 2651 2914 
Q 2772 3150 2772 3378 
Q 2772 3750 2511 3984 
Q 2250 4219 1831 4219 
Q 1534 4219 1204 4116 
Q 875 4013 500 3803 
L 500 4441 
Q 881 4594 1212 4672 
Q 1544 4750 1819 4750 
Q 2544 4750 2975 4387 
Q 3406 4025 3406 3419 
Q 3406 3131 3298 2873 
Q 3191 2616 2906 2266 
Q 2828 2175 2409 1742 
Q 1991 1309 1228 531 
z
" transform="scale(0.015625)"/>
       </defs>
       <use xlink:href="#DejaVuSans-31" transform="translate(0 0.765625)"/>
       <use xlink:href="#DejaVuSans-30" transform="translate(63.623047 0.765625)"/>
       <use xlink:href="#DejaVuSans-2212" transform="translate(128.203125 39.046875) scale(0.7)"/>
       <use xlink:href="#DejaVuSans-31" transform="translate(186.855469 39.046875) scale(0.7)"/>
       <use xlink:href="#DejaVuSans-32" transform="translate(231.391602 39.046875) scale(0.7)"/>
      </g>
     </g>
    </g>
    <g id="ytick_3">
     <g id="line2d_27">
      <defs>
       <path id="m581a400bb8" d="M 0 0 
L -2 0 
" style="stroke: #000000; stroke-width: 0.6"/>
      </defs>
      <g>
       <use xlink:href="#m581a400bb8" x="60.333889" y="185.255146" style="stroke: #000000; stroke-width: 0.6"/>
      </g>
     </g>
    </g>
    <g id="ytick_4">
     <g id="line2d_28">
      <g>
       <use xlink:href="#m581a400bb8" x="60.333889" y="177.186701" style="stroke: #000000; stroke-width: 0.6"/>
      </g>
     </g>
    </g>
    <g id="ytick_5">
     <g id="line2d_29">
      <g>
       <use xlink:href="#m581a400bb8" x="60.333889" y="170.594302" style="stroke: #000000; stroke-width: 0.6"/>
      </g>
     </g>
    </g>
    <g id="ytick_6">
     <g id="line2d_30">
      <g>
       <use xlink:href="#m581a400bb8" x="60.333889" y="165.020508" style="stroke: #000000; stroke-width: 0.6"/>
      </g>
     </g>
    </g>
    <g id="ytick_7">
     <g id="line2d_31">
      <g>
       <use xlink:href="#m581a400bb8" x="60.333889" y="160.192268" style="stroke: #000000; stroke-width: 0.6"/>
      </g>
     </g>
    </g>
    <g id="ytick_8">
     <g id="line2d_32">
      <g>
       <use xlink:href="#m581a400bb8" x="60.333889" y="155.933458" style="stroke: #000000; stroke-width: 0.6"/>
      </g>
     </g>
    </g>
    <g id="ytick_9">
     <g id="line2d_33">
      <g>
       <use xlink:href="#m581a400bb8" x="60.333889" y="127.060946" style="stroke: #000000; stroke-width: 0.6"/>
      </g>
     </g>
    </g>
    <g id="ytick_10">
     <g id="line2d_34">
      <g>
       <use xlink:href="#m581a400bb8" x="60.333889" y="112.400102" style="stroke: #000000; stroke-width: 0.6"/>
      </g>
     </g>
    </g>
    <g id="ytick_11">
     <g id="line2d_35">
      <g>
       <use xlink:href="#m581a400bb8" x="60.333889" y="101.998068" style="stroke: #000000; stroke-width: 0.6"/>
      </g>
     </g>
    </g>
    <g id="ytick_12">
     <g id="line2d_36">
      <g>
       <use xlink:href="#m581a400bb8" x="60.333889" y="93.929623" style="stroke: #000000; stroke-width: 0.6"/>
      </g>
     </g>
    </g>
    <g id="ytick_13">
     <g id="line2d_37">
      <g>
       <use xlink:href="#m581a400bb8" x="60.333889" y="87.337224" style="stroke: #000000; stroke-width: 0.6"/>
      </g>
     </g>
    </g>
    <g id="ytick_14">
     <g id="line2d_38">
      <g>
       <use xlink:href="#m581a400bb8" x="60.333889" y="81.76343" style="stroke: #000000; stroke-width: 0.6"/>
      </g>
     </g>
    </g>
    <g id="ytick_15">
     <g id="line2d_39">
      <g>
       <use xlink:href="#m581a400bb8" x="60.333889" y="76.93519" style="stroke: #000000; stroke-width: 0.6"/>
      </g>
     </g>
    </g>
    <g id="ytick_16">
     <g id="line2d_40">
      <g>
       <use xlink:href="#m581a400bb8" x="60.333889" y="72.67638" style="stroke: #000000; stroke-width: 0.6"/>
      </g>
     </g>
    </g>
    <g id="ytick_17">
     <g id="line2d_41">
      <g>
       <use xlink:href="#m581a400bb8" x="60.333889" y="43.803868" style="stroke: #000000; stroke-width: 0.6"/>
      </g>
     </g>
    </g>
    <g id="ytick_18">
     <g id="line2d_42">
      <g>
       <use xlink:href="#m581a400bb8" x="60.333889" y="29.143024" style="stroke: #000000; stroke-width: 0.6"/>
      </g>
     </g>
    </g>
    <g id="text_3">
     <!-- e2 * dnde [TeV / (cm2 s)] -->
     <g transform="translate(19.354202 170.416088) rotate(-90) scale(0.1 -0.1)">
      <defs>
       <path id="DejaVuSans-65" d="M 3597 1894 
L 3597 1613 
L 953 1613 
Q 991 1019 1311 708 
Q 1631 397 2203 397 
Q 2534 397 2845 478 
Q 3156 559 3463 722 
L 3463 178 
Q 3153 47 2828 -22 
Q 2503 -91 2169 -91 
Q 1331 -91 842 396 
Q 353 884 353 1716 
Q 353 2575 817 3079 
Q 1281 3584 2069 3584 
Q 2775 3584 3186 3129 
Q 3597 2675 3597 1894 
z
M 3022 2063 
Q 3016 2534 2758 2815 
Q 2500 3097 2075 3097 
Q 1594 3097 1305 2825 
Q 1016 2553 972 2059 
L 3022 2063 
z
" transform="scale(0.015625)"/>
       <path id="DejaVuSans-20" transform="scale(0.015625)"/>
       <path id="DejaVuSans-2a" d="M 3009 3897 
L 1888 3291 
L 3009 2681 
L 2828 2375 
L 1778 3009 
L 1778 1831 
L 1422 1831 
L 1422 3009 
L 372 2375 
L 191 2681 
L 1313 3291 
L 191 3897 
L 372 4206 
L 1422 3572 
L 1422 4750 
L 1778 4750 
L 1778 3572 
L 2828 4206 
L 3009 3897 
z
" transform="scale(0.015625)"/>
       <path id="DejaVuSans-64" d="M 2906 2969 
L 2906 4863 
L 3481 4863 
L 3481 0 
L 2906 0 
L 2906 525 
Q 2725 213 2448 61 
Q 2172 -91 1784 -91 
Q 1150 -91 751 415 
Q 353 922 353 1747 
Q 353 2572 751 3078 
Q 1150 3584 1784 3584 
Q 2172 3584 2448 3432 
Q 2725 3281 2906 2969 
z
M 947 1747 
Q 947 1113 1208 752 
Q 1469 391 1925 391 
Q 2381 391 2643 752 
Q 2906 1113 2906 1747 
Q 2906 2381 2643 2742 
Q 2381 3103 1925 3103 
Q 1469 3103 1208 2742 
Q 947 2381 947 1747 
z
" transform="scale(0.015625)"/>
       <path id="DejaVuSans-6e" d="M 3513 2113 
L 3513 0 
L 2938 0 
L 2938 2094 
Q 2938 2591 2744 2837 
Q 2550 3084 2163 3084 
Q 1697 3084 1428 2787 
Q 1159 2491 1159 1978 
L 1159 0 
L 581 0 
L 581 3500 
L 1159 3500 
L 1159 2956 
Q 1366 3272 1645 3428 
Q 1925 3584 2291 3584 
Q 2894 3584 3203 3211 
Q 3513 2838 3513 2113 
z
" transform="scale(0.015625)"/>
       <path id="DejaVuSans-5b" d="M 550 4863 
L 1875 4863 
L 1875 4416 
L 1125 4416 
L 1125 -397 
L 1875 -397 
L 1875 -844 
L 550 -844 
L 550 4863 
z
" transform="scale(0.015625)"/>
       <path id="DejaVuSans-54" d="M -19 4666 
L 3928 4666 
L 3928 4134 
L 2272 4134 
L 2272 0 
L 1638 0 
L 1638 4134 
L -19 4134 
L -19 4666 
z
" transform="scale(0.015625)"/>
       <path id="DejaVuSans-56" d="M 1831 0 
L 50 4666 
L 709 4666 
L 2188 738 
L 3669 4666 
L 4325 4666 
L 2547 0 
L 1831 0 
z
" transform="scale(0.015625)"/>
       <path id="DejaVuSans-2f" d="M 1625 4666 
L 2156 4666 
L 531 -594 
L 0 -594 
L 1625 4666 
z
" transform="scale(0.015625)"/>
       <path id="DejaVuSans-28" d="M 1984 4856 
Q 1566 4138 1362 3434 
Q 1159 2731 1159 2009 
Q 1159 1288 1364 580 
Q 1569 -128 1984 -844 
L 1484 -844 
Q 1016 -109 783 600 
Q 550 1309 550 2009 
Q 550 2706 781 3412 
Q 1013 4119 1484 4856 
L 1984 4856 
z
" transform="scale(0.015625)"/>
       <path id="DejaVuSans-63" d="M 3122 3366 
L 3122 2828 
Q 2878 2963 2633 3030 
Q 2388 3097 2138 3097 
Q 1578 3097 1268 2742 
Q 959 2388 959 1747 
Q 959 1106 1268 751 
Q 1578 397 2138 397 
Q 2388 397 2633 464 
Q 2878 531 3122 666 
L 3122 134 
Q 2881 22 2623 -34 
Q 2366 -91 2075 -91 
Q 1284 -91 818 406 
Q 353 903 353 1747 
Q 353 2603 823 3093 
Q 1294 3584 2113 3584 
Q 2378 3584 2631 3529 
Q 2884 3475 3122 3366 
z
" transform="scale(0.015625)"/>
       <path id="DejaVuSans-6d" d="M 3328 2828 
Q 3544 3216 3844 3400 
Q 4144 3584 4550 3584 
Q 5097 3584 5394 3201 
Q 5691 2819 5691 2113 
L 5691 0 
L 5113 0 
L 5113 2094 
Q 5113 2597 4934 2840 
Q 4756 3084 4391 3084 
Q 3944 3084 3684 2787 
Q 3425 2491 3425 1978 
L 3425 0 
L 2847 0 
L 2847 2094 
Q 2847 2600 2669 2842 
Q 2491 3084 2119 3084 
Q 1678 3084 1418 2786 
Q 1159 2488 1159 1978 
L 1159 0 
L 581 0 
L 581 3500 
L 1159 3500 
L 1159 2956 
Q 1356 3278 1631 3431 
Q 1906 3584 2284 3584 
Q 2666 3584 2933 3390 
Q 3200 3197 3328 2828 
z
" transform="scale(0.015625)"/>
       <path id="DejaVuSans-73" d="M 2834 3397 
L 2834 2853 
Q 2591 2978 2328 3040 
Q 2066 3103 1784 3103 
Q 1356 3103 1142 2972 
Q 928 2841 928 2578 
Q 928 2378 1081 2264 
Q 1234 2150 1697 2047 
L 1894 2003 
Q 2506 1872 2764 1633 
Q 3022 1394 3022 966 
Q 3022 478 2636 193 
Q 2250 -91 1575 -91 
Q 1294 -91 989 -36 
Q 684 19 347 128 
L 347 722 
Q 666 556 975 473 
Q 1284 391 1588 391 
Q 1994 391 2212 530 
Q 2431 669 2431 922 
Q 2431 1156 2273 1281 
Q 2116 1406 1581 1522 
L 1381 1569 
Q 847 1681 609 1914 
Q 372 2147 372 2553 
Q 372 3047 722 3315 
Q 1072 3584 1716 3584 
Q 2034 3584 2315 3537 
Q 2597 3491 2834 3397 
z
" transform="scale(0.015625)"/>
       <path id="DejaVuSans-29" d="M 513 4856 
L 1013 4856 
Q 1481 4119 1714 3412 
Q 1947 2706 1947 2009 
Q 1947 1309 1714 600 
Q 1481 -109 1013 -844 
L 513 -844 
Q 928 -128 1133 580 
Q 1338 1288 1338 2009 
Q 1338 2731 1133 3434 
Q 928 4138 513 4856 
z
" transform="scale(0.015625)"/>
       <path id="DejaVuSans-5d" d="M 1947 4863 
L 1947 -844 
L 622 -844 
L 622 -397 
L 1369 -397 
L 1369 4416 
L 622 4416 
L 622 4863 
L 1947 4863 
z
" transform="scale(0.015625)"/>
      </defs>
      <use xlink:href="#DejaVuSans-65"/>
      <use xlink:href="#DejaVuSans-32" x="61.523438"/>
      <use xlink:href="#DejaVuSans-20" x="125.146484"/>
      <use xlink:href="#DejaVuSans-2a" x="156.933594"/>
      <use xlink:href="#DejaVuSans-20" x="206.933594"/>
      <use xlink:href="#DejaVuSans-64" x="238.720703"/>
      <use xlink:href="#DejaVuSans-6e" x="302.197266"/>
      <use xlink:href="#DejaVuSans-64" x="365.576172"/>
      <use xlink:href="#DejaVuSans-65" x="429.052734"/>
      <use xlink:href="#DejaVuSans-20" x="490.576172"/>
      <use xlink:href="#DejaVuSans-5b" x="522.363281"/>
      <use xlink:href="#DejaVuSans-54" x="561.376953"/>
      <use xlink:href="#DejaVuSans-65" x="605.460938"/>
      <use xlink:href="#DejaVuSans-56" x="666.984375"/>
      <use xlink:href="#DejaVuSans-20" x="735.392578"/>
      <use xlink:href="#DejaVuSans-2f" x="767.179688"/>
      <use xlink:href="#DejaVuSans-20" x="800.871094"/>
      <use xlink:href="#DejaVuSans-28" x="832.658203"/>
      <use xlink:href="#DejaVuSans-63" x="871.671875"/>
      <use xlink:href="#DejaVuSans-6d" x="926.652344"/>
      <use xlink:href="#DejaVuSans-32" x="1024.064453"/>
      <use xlink:href="#DejaVuSans-20" x="1087.6875"/>
      <use xlink:href="#DejaVuSans-73" x="1119.474609"/>
      <use xlink:href="#DejaVuSans-29" x="1171.574219"/>
      <use xlink:href="#DejaVuSans-5d" x="1210.587891"/>
     </g>
    </g>
   </g>
   <g id="line2d_43">
    <path d="M 74.752107 61.326776 
L 77.327987 61.85754 
L 79.903868 62.388304 
L 82.479748 62.919068 
L 85.055628 63.449832 
L 87.631508 63.980596 
L 90.207388 64.51136 
L 92.783269 65.042123 
L 95.359149 65.572887 
L 97.935029 66.103651 
L 100.510909 66.634415 
L 103.08679 67.165179 
L 105.66267 67.695943 
L 108.23855 68.226707 
L 110.81443 68.757471 
L 113.39031 69.288234 
L 115.966191 69.818998 
L 118.542071 70.349762 
L 121.117951 70.880526 
L 123.693831 71.41129 
L 126.269711 71.942054 
L 128.845592 72.472818 
L 131.421472 73.003581 
L 133.997352 73.534345 
L 136.573232 74.065109 
L 139.149112 74.595873 
L 141.724993 75.126637 
L 144.300873 75.657401 
L 146.876753 76.188165 
L 149.452633 76.718929 
L 152.028514 77.249692 
L 154.604394 77.780456 
L 157.180274 78.31122 
L 159.756154 78.841984 
L 162.332034 79.372748 
L 164.907915 79.903512 
L 167.483795 80.434276 
L 170.059675 80.96504 
L 172.635555 81.495803 
L 175.211435 82.026567 
L 177.787316 82.557331 
L 180.363196 83.088095 
L 182.939076 83.618859 
L 185.514956 84.149623 
L 188.090836 84.680387 
L 190.666717 85.211151 
L 193.242597 85.741914 
L 195.818477 86.272678 
L 198.394357 86.803442 
L 200.970238 87.334206 
L 203.546118 87.86497 
L 206.121998 88.395734 
L 208.697878 88.926498 
L 211.273758 89.457262 
L 213.849639 89.988025 
L 216.425519 90.518789 
L 219.001399 91.049553 
L 221.577279 91.580317 
L 224.153159 92.111081 
L 226.72904 92.641845 
L 229.30492 93.172609 
L 231.8808 93.703373 
L 234.45668 94.234136 
L 237.03256 94.7649 
L 239.608441 95.295664 
L 242.184321 95.826428 
L 244.760201 96.357192 
L 247.336081 96.887956 
L 249.911962 97.41872 
L 252.487842 97.949483 
L 255.063722 98.480247 
L 257.639602 99.011011 
L 260.215482 99.541775 
L 262.791363 100.072539 
L 265.367243 100.603303 
L 267.943123 101.134067 
L 270.519003 101.664831 
L 273.094883 102.195594 
L 275.670764 102.726358 
L 278.246644 103.257122 
L 280.822524 103.787886 
L 283.398404 104.31865 
L 285.974285 104.849414 
L 288.550165 105.380178 
L 291.126045 105.910942 
L 293.701925 106.441705 
L 296.277805 106.972469 
L 298.853686 107.503233 
L 301.429566 108.033997 
L 304.005446 108.564761 
L 306.581326 109.095525 
L 309.157206 109.626289 
L 311.733087 110.157053 
L 314.308967 110.687816 
L 316.884847 111.21858 
L 319.460727 111.749344 
L 322.036607 112.280108 
L 324.612488 112.810872 
L 327.188368 113.341636 
L 329.764248 113.8724 
" clip-path="url(#p7f915db6ec)" style="fill: none; stroke-dasharray: 1.5,2.475; stroke-dashoffset: 0; stroke: #000000; stroke-width: 1.5"/>
   </g>
   <g id="LineCollection_1">
    <path clip-path="url(#p7f915db6ec)" style="fill: none; stroke: #006400; stroke-width: 1.5"/>
    <path clip-path="url(#p7f915db6ec)" style="fill: none; stroke: #006400; stroke-width: 1.5"/>
    <path clip-path="url(#p7f915db6ec)" style="fill: none; stroke: #006400; stroke-width: 1.5"/>
    <path clip-path="url(#p7f915db6ec)" style="fill: none; stroke: #006400; stroke-width: 1.5"/>
    <path clip-path="url(#p7f915db6ec)" style="fill: none; stroke: #006400; stroke-width: 1.5"/>
    <path d="M 73.464167 361 
L 73.464167 36.060549 
" clip-path="url(#p7f915db6ec)" style="fill: none; stroke: #006400; stroke-width: 1.5"/>
    <path d="M 88.616404 85.405672 
L 88.616404 52.894294 
" clip-path="url(#p7f915db6ec)" style="fill: none; stroke: #006400; stroke-width: 1.5"/>
    <path d="M 103.76864 78.600518 
L 103.76864 61.371498 
" clip-path="url(#p7f915db6ec)" style="fill: none; stroke: #006400; stroke-width: 1.5"/>
    <path d="M 118.920877 80.781426 
L 118.920877 65.470146 
" clip-path="url(#p7f915db6ec)" style="fill: none; stroke: #006400; stroke-width: 1.5"/>
    <path d="M 134.073113 84.144617 
L 134.073113 68.820635 
" clip-path="url(#p7f915db6ec)" style="fill: none; stroke: #006400; stroke-width: 1.5"/>
    <path d="M 149.22535 87.733509 
L 149.22535 72.022749 
" clip-path="url(#p7f915db6ec)" style="fill: none; stroke: #006400; stroke-width: 1.5"/>
    <path d="M 164.377586 91.578392 
L 164.377586 75.066531 
" clip-path="url(#p7f915db6ec)" style="fill: none; stroke: #006400; stroke-width: 1.5"/>
    <path d="M 179.529823 95.660883 
L 179.529823 77.962571 
" clip-path="url(#p7f915db6ec)" style="fill: none; stroke: #006400; stroke-width: 1.5"/>
    <path d="M 194.682059 99.798392 
L 194.682059 80.845416 
" clip-path="url(#p7f915db6ec)" style="fill: none; stroke: #006400; stroke-width: 1.5"/>
    <path d="M 209.834296 104.288986 
L 209.834296 83.542441 
" clip-path="url(#p7f915db6ec)" style="fill: none; stroke: #006400; stroke-width: 1.5"/>
    <path d="M 224.986532 109.160214 
L 224.986532 86.067195 
" clip-path="url(#p7f915db6ec)" style="fill: none; stroke: #006400; stroke-width: 1.5"/>
    <path d="M 240.138769 114.324077 
L 240.138769 88.499057 
" clip-path="url(#p7f915db6ec)" style="fill: none; stroke: #006400; stroke-width: 1.5"/>
    <path d="M 255.291006 120.080658 
L 255.291006 90.730683 
" clip-path="url(#p7f915db6ec)" style="fill: none; stroke: #006400; stroke-width: 1.5"/>
    <path d="M 270.443242 126.554502 
L 270.443242 92.775683 
" clip-path="url(#p7f915db6ec)" style="fill: none; stroke: #006400; stroke-width: 1.5"/>
    <path d="M 285.595479 133.537981 
L 285.595479 94.791835 
" clip-path="url(#p7f915db6ec)" style="fill: none; stroke: #006400; stroke-width: 1.5"/>
    <path d="M 300.747715 141.815938 
L 300.747715 96.598675 
" clip-path="url(#p7f915db6ec)" style="fill: none; stroke: #006400; stroke-width: 1.5"/>
    <path d="M 315.899952 152.783857 
L 315.899952 98.032609 
" clip-path="url(#p7f915db6ec)" style="fill: none; stroke: #006400; stroke-width: 1.5"/>
    <path d="M 331.052188 171.380759 
L 331.052188 98.743273 
" clip-path="url(#p7f915db6ec)" style="fill: none; stroke: #006400; stroke-width: 1.5"/>
    <path clip-path="url(#p7f915db6ec)" style="fill: none; stroke: #006400; stroke-width: 1.5"/>
   </g>
   <g id="LineCollection_2">
    <path clip-path="url(#p7f915db6ec)" style="fill: none; stroke: #8b0000; stroke-width: 1.5"/>
    <path clip-path="url(#p7f915db6ec)" style="fill: none; stroke: #8b0000; stroke-width: 1.5"/>
    <path clip-path="url(#p7f915db6ec)" style="fill: none; stroke: #8b0000; stroke-width: 1.5"/>
    <path clip-path="url(#p7f915db6ec)" style="fill: none; stroke: #8b0000; stroke-width: 1.5"/>
    <path clip-path="url(#p7f915db6ec)" style="fill: none; stroke: #8b0000; stroke-width: 1.5"/>
    <path d="M 76.032689 361 
L 76.032689 36.149124 
" clip-path="url(#p7f915db6ec)" style="fill: none; stroke: #8b0000; stroke-width: 1.5"/>
    <path d="M 91.184926 84.611257 
L 91.184926 53.224261 
" clip-path="url(#p7f915db6ec)" style="fill: none; stroke: #8b0000; stroke-width: 1.5"/>
    <path d="M 106.337162 77.434784 
L 106.337162 62.115822 
" clip-path="url(#p7f915db6ec)" style="fill: none; stroke: #8b0000; stroke-width: 1.5"/>
    <path d="M 121.489399 79.489063 
L 121.489399 66.351021 
" clip-path="url(#p7f915db6ec)" style="fill: none; stroke: #8b0000; stroke-width: 1.5"/>
    <path d="M 136.641635 82.879744 
L 136.641635 69.682713 
" clip-path="url(#p7f915db6ec)" style="fill: none; stroke: #8b0000; stroke-width: 1.5"/>
    <path d="M 151.793872 86.520505 
L 151.793872 72.841512 
" clip-path="url(#p7f915db6ec)" style="fill: none; stroke: #8b0000; stroke-width: 1.5"/>
    <path d="M 166.946108 90.43645 
L 166.946108 75.817146 
" clip-path="url(#p7f915db6ec)" style="fill: none; stroke: #8b0000; stroke-width: 1.5"/>
    <path d="M 182.098345 94.594869 
L 182.098345 78.642017 
" clip-path="url(#p7f915db6ec)" style="fill: none; stroke: #8b0000; stroke-width: 1.5"/>
    <path d="M 197.250582 98.809676 
L 197.250582 81.454375 
" clip-path="url(#p7f915db6ec)" style="fill: none; stroke: #8b0000; stroke-width: 1.5"/>
    <path d="M 212.402818 103.363938 
L 212.402818 84.082638 
" clip-path="url(#p7f915db6ec)" style="fill: none; stroke: #8b0000; stroke-width: 1.5"/>
    <path d="M 227.555055 108.28968 
L 227.555055 86.544046 
" clip-path="url(#p7f915db6ec)" style="fill: none; stroke: #8b0000; stroke-width: 1.5"/>
    <path d="M 242.707291 113.50091 
L 242.707291 88.91667 
" clip-path="url(#p7f915db6ec)" style="fill: none; stroke: #8b0000; stroke-width: 1.5"/>
    <path d="M 257.859528 119.299343 
L 257.859528 91.089455 
" clip-path="url(#p7f915db6ec)" style="fill: none; stroke: #8b0000; stroke-width: 1.5"/>
    <path d="M 273.011764 125.806571 
L 273.011764 93.081655 
" clip-path="url(#p7f915db6ec)" style="fill: none; stroke: #8b0000; stroke-width: 1.5"/>
    <path d="M 288.164001 132.806856 
L 288.164001 95.054783 
" clip-path="url(#p7f915db6ec)" style="fill: none; stroke: #8b0000; stroke-width: 1.5"/>
    <path d="M 303.316237 141.078894 
L 303.316237 96.820672 
" clip-path="url(#p7f915db6ec)" style="fill: none; stroke: #8b0000; stroke-width: 1.5"/>
    <path d="M 318.468474 151.997397 
L 318.468474 98.21607 
" clip-path="url(#p7f915db6ec)" style="fill: none; stroke: #8b0000; stroke-width: 1.5"/>
    <path d="M 333.62071 170.380905 
L 333.62071 98.887796 
" clip-path="url(#p7f915db6ec)" style="fill: none; stroke: #8b0000; stroke-width: 1.5"/>
    <path clip-path="url(#p7f915db6ec)" style="fill: none; stroke: #8b0000; stroke-width: 1.5"/>
   </g>
   <g id="LineCollection_3">
    <path clip-path="url(#p7f915db6ec)" style="fill: none; stroke: #1f77b4; stroke-width: 1.5"/>
    <path clip-path="url(#p7f915db6ec)" style="fill: none; stroke: #1f77b4; stroke-width: 1.5"/>
    <path clip-path="url(#p7f915db6ec)" style="fill: none; stroke: #1f77b4; stroke-width: 1.5"/>
    <path clip-path="url(#p7f915db6ec)" style="fill: none; stroke: #1f77b4; stroke-width: 1.5"/>
    <path clip-path="url(#p7f915db6ec)" style="fill: none; stroke: #1f77b4; stroke-width: 1.5"/>
    <path d="M 78.481701 182.933127 
L 78.481701 32.939673 
" clip-path="url(#p7f915db6ec)" style="fill: none; stroke: #1f77b4; stroke-width: 1.5"/>
    <path d="M 93.633938 85.690651 
L 93.633938 51.232678 
" clip-path="url(#p7f915db6ec)" style="fill: none; stroke: #1f77b4; stroke-width: 1.5"/>
    <path d="M 108.786174 76.324212 
L 108.786174 57.648597 
" clip-path="url(#p7f915db6ec)" style="fill: none; stroke: #1f77b4; stroke-width: 1.5"/>
    <path d="M 123.938411 78.648073 
L 123.938411 63.681467 
" clip-path="url(#p7f915db6ec)" style="fill: none; stroke: #1f77b4; stroke-width: 1.5"/>
    <path d="M 139.090647 79.620541 
L 139.090647 65.867643 
" clip-path="url(#p7f915db6ec)" style="fill: none; stroke: #1f77b4; stroke-width: 1.5"/>
    <path d="M 154.242884 85.721274 
L 154.242884 68.178428 
" clip-path="url(#p7f915db6ec)" style="fill: none; stroke: #1f77b4; stroke-width: 1.5"/>
    <path d="M 169.39512 91.886736 
L 169.39512 71.515918 
" clip-path="url(#p7f915db6ec)" style="fill: none; stroke: #1f77b4; stroke-width: 1.5"/>
    <path d="M 184.547357 90.803587 
L 184.547357 75.166134 
" clip-path="url(#p7f915db6ec)" style="fill: none; stroke: #1f77b4; stroke-width: 1.5"/>
    <path d="M 199.699593 90.533352 
L 199.699593 74.254944 
" clip-path="url(#p7f915db6ec)" style="fill: none; stroke: #1f77b4; stroke-width: 1.5"/>
    <path d="M 214.85183 99.693892 
L 214.85183 79.673396 
" clip-path="url(#p7f915db6ec)" style="fill: none; stroke: #1f77b4; stroke-width: 1.5"/>
    <path d="M 230.004067 105.656213 
L 230.004067 80.426066 
" clip-path="url(#p7f915db6ec)" style="fill: none; stroke: #1f77b4; stroke-width: 1.5"/>
    <path d="M 245.156303 106.174476 
L 245.156303 85.569049 
" clip-path="url(#p7f915db6ec)" style="fill: none; stroke: #1f77b4; stroke-width: 1.5"/>
    <path d="M 260.30854 120.476267 
L 260.30854 85.892522 
" clip-path="url(#p7f915db6ec)" style="fill: none; stroke: #1f77b4; stroke-width: 1.5"/>
    <path d="M 275.460776 113.366423 
L 275.460776 84.626747 
" clip-path="url(#p7f915db6ec)" style="fill: none; stroke: #1f77b4; stroke-width: 1.5"/>
    <path d="M 290.613013 132.38912 
L 290.613013 87.399888 
" clip-path="url(#p7f915db6ec)" style="fill: none; stroke: #1f77b4; stroke-width: 1.5"/>
    <path d="M 305.765249 131.036622 
L 305.765249 88.058672 
" clip-path="url(#p7f915db6ec)" style="fill: none; stroke: #1f77b4; stroke-width: 1.5"/>
    <path d="M 320.917486 145.009006 
L 320.917486 90.490313 
" clip-path="url(#p7f915db6ec)" style="fill: none; stroke: #1f77b4; stroke-width: 1.5"/>
    <path d="M 336.069722 146.912957 
L 336.069722 93.195956 
" clip-path="url(#p7f915db6ec)" style="fill: none; stroke: #1f77b4; stroke-width: 1.5"/>
    <path clip-path="url(#p7f915db6ec)" style="fill: none; stroke: #1f77b4; stroke-width: 1.5"/>
   </g>
   <g id="line2d_44">
    <defs>
     <path id="m8cd9af4a66" d="M -3 3 
L 3 -3 
M -3 -3 
L 3 3 
" style="stroke: #006400"/>
    </defs>
    <g clip-path="url(#p7f915db6ec)">
     <use xlink:href="#m8cd9af4a66" x="73.464167" y="62.250587" style="fill: #006400; stroke: #006400"/>
     <use xlink:href="#m8cd9af4a66" x="88.616404" y="65.612765" style="fill: #006400; stroke: #006400"/>
     <use xlink:href="#m8cd9af4a66" x="103.76864" y="68.969387" style="fill: #006400; stroke: #006400"/>
     <use xlink:href="#m8cd9af4a66" x="118.920877" y="72.321317" style="fill: #006400; stroke: #006400"/>
     <use xlink:href="#m8cd9af4a66" x="134.073113" y="75.676832" style="fill: #006400; stroke: #006400"/>
     <use xlink:href="#m8cd9af4a66" x="149.22535" y="79.031464" style="fill: #006400; stroke: #006400"/>
     <use xlink:href="#m8cd9af4a66" x="164.377586" y="82.388006" style="fill: #006400; stroke: #006400"/>
     <use xlink:href="#m8cd9af4a66" x="179.529823" y="85.739517" style="fill: #006400; stroke: #006400"/>
     <use xlink:href="#m8cd9af4a66" x="194.682059" y="89.094044" style="fill: #006400; stroke: #006400"/>
     <use xlink:href="#m8cd9af4a66" x="209.834296" y="92.447711" style="fill: #006400; stroke: #006400"/>
     <use xlink:href="#m8cd9af4a66" x="224.986532" y="95.800615" style="fill: #006400; stroke: #006400"/>
     <use xlink:href="#m8cd9af4a66" x="240.138769" y="99.153358" style="fill: #006400; stroke: #006400"/>
     <use xlink:href="#m8cd9af4a66" x="255.291006" y="102.506037" style="fill: #006400; stroke: #006400"/>
     <use xlink:href="#m8cd9af4a66" x="270.443242" y="105.856186" style="fill: #006400; stroke: #006400"/>
     <use xlink:href="#m8cd9af4a66" x="285.595479" y="109.205796" style="fill: #006400; stroke: #006400"/>
     <use xlink:href="#m8cd9af4a66" x="300.747715" y="112.556654" style="fill: #006400; stroke: #006400"/>
     <use xlink:href="#m8cd9af4a66" x="315.899952" y="115.906011" style="fill: #006400; stroke: #006400"/>
     <use xlink:href="#m8cd9af4a66" x="331.052188" y="119.254828" style="fill: #006400; stroke: #006400"/>
    </g>
   </g>
   <g id="line2d_45">
    <defs>
     <path id="m68e9168bc9" d="M -3 3 
L 3 -3 
M -3 -3 
L 3 3 
" style="stroke: #8b0000"/>
    </defs>
    <g clip-path="url(#p7f915db6ec)">
     <use xlink:href="#m68e9168bc9" x="76.032689" y="62.253512" style="fill: #8b0000; stroke: #8b0000"/>
     <use xlink:href="#m68e9168bc9" x="91.184926" y="65.613921" style="fill: #8b0000; stroke: #8b0000"/>
     <use xlink:href="#m68e9168bc9" x="106.337162" y="68.970033" style="fill: #8b0000; stroke: #8b0000"/>
     <use xlink:href="#m68e9168bc9" x="121.489399" y="72.326583" style="fill: #8b0000; stroke: #8b0000"/>
     <use xlink:href="#m68e9168bc9" x="136.641635" y="75.682457" style="fill: #8b0000; stroke: #8b0000"/>
     <use xlink:href="#m68e9168bc9" x="151.793872" y="79.037966" style="fill: #8b0000; stroke: #8b0000"/>
     <use xlink:href="#m68e9168bc9" x="166.946108" y="82.392924" style="fill: #8b0000; stroke: #8b0000"/>
     <use xlink:href="#m68e9168bc9" x="182.098345" y="85.745693" style="fill: #8b0000; stroke: #8b0000"/>
     <use xlink:href="#m68e9168bc9" x="197.250582" y="89.100587" style="fill: #8b0000; stroke: #8b0000"/>
     <use xlink:href="#m68e9168bc9" x="212.402818" y="92.453014" style="fill: #8b0000; stroke: #8b0000"/>
     <use xlink:href="#m68e9168bc9" x="227.555055" y="95.806181" style="fill: #8b0000; stroke: #8b0000"/>
     <use xlink:href="#m68e9168bc9" x="242.707291" y="99.158453" style="fill: #8b0000; stroke: #8b0000"/>
     <use xlink:href="#m68e9168bc9" x="257.859528" y="102.51036" style="fill: #8b0000; stroke: #8b0000"/>
     <use xlink:href="#m68e9168bc9" x="273.011764" y="105.861756" style="fill: #8b0000; stroke: #8b0000"/>
     <use xlink:href="#m68e9168bc9" x="288.164001" y="109.212544" style="fill: #8b0000; stroke: #8b0000"/>
     <use xlink:href="#m68e9168bc9" x="303.316237" y="112.56295" style="fill: #8b0000; stroke: #8b0000"/>
     <use xlink:href="#m68e9168bc9" x="318.468474" y="115.912648" style="fill: #8b0000; stroke: #8b0000"/>
     <use xlink:href="#m68e9168bc9" x="333.62071" y="119.262098" style="fill: #8b0000; stroke: #8b0000"/>
    </g>
   </g>
   <g id="line2d_46">
    <path d="M 78.481701 57.436013 
L 93.633938 64.503465 
L 108.786174 65.793831 
L 123.938411 70.395861 
L 139.090647 72.094124 
L 154.242884 75.896216 
L 169.39512 80.285338 
L 184.547357 82.146018 
L 199.699593 81.485712 
L 214.85183 88.315339 
L 230.004067 90.883771 
L 245.156303 94.423401 
L 260.30854 99.198266 
L 275.460776 96.213319 
L 290.613013 103.306981 
L 305.765249 103.506029 
L 320.917486 108.321672 
L 336.069722 110.88067 
" clip-path="url(#p7f915db6ec)" style="fill: none; stroke: #1f77b4; stroke-width: 1.5; stroke-linecap: square"/>
   </g>
   <g id="patch_3">
    <path d="M 60.333889 190.4328 
L 60.333889 25.44 
" style="fill: none; stroke: #000000; stroke-width: 0.8; stroke-linejoin: miter; stroke-linecap: square"/>
   </g>
   <g id="patch_4">
    <path d="M 349.2 190.4328 
L 349.2 25.44 
" style="fill: none; stroke: #000000; stroke-width: 0.8; stroke-linejoin: miter; stroke-linecap: square"/>
   </g>
   <g id="patch_5">
    <path d="M 60.333889 190.4328 
L 349.2 190.4328 
" style="fill: none; stroke: #000000; stroke-width: 0.8; stroke-linejoin: miter; stroke-linecap: square"/>
   </g>
   <g id="patch_6">
    <path d="M 60.333889 25.44 
L 349.2 25.44 
" style="fill: none; stroke: #000000; stroke-width: 0.8; stroke-linejoin: miter; stroke-linecap: square"/>
   </g>
   <g id="text_4">
    <!-- N = 44 -->
    <g transform="translate(183.801632 19.44) scale(0.12 -0.12)">
     <defs>
      <path id="DejaVuSans-4e" d="M 628 4666 
L 1478 4666 
L 3547 763 
L 3547 4666 
L 4159 4666 
L 4159 0 
L 3309 0 
L 1241 3903 
L 1241 0 
L 628 0 
L 628 4666 
z
" transform="scale(0.015625)"/>
      <path id="DejaVuSans-3d" d="M 678 2906 
L 4684 2906 
L 4684 2381 
L 678 2381 
L 678 2906 
z
M 678 1631 
L 4684 1631 
L 4684 1100 
L 678 1100 
L 678 1631 
z
" transform="scale(0.015625)"/>
      <path id="DejaVuSans-34" d="M 2419 4116 
L 825 1625 
L 2419 1625 
L 2419 4116 
z
M 2253 4666 
L 3047 4666 
L 3047 1625 
L 3713 1625 
L 3713 1100 
L 3047 1100 
L 3047 0 
L 2419 0 
L 2419 1100 
L 313 1100 
L 313 1709 
L 2253 4666 
z
" transform="scale(0.015625)"/>
     </defs>
     <use xlink:href="#DejaVuSans-4e"/>
     <use xlink:href="#DejaVuSans-20" x="74.804688"/>
     <use xlink:href="#DejaVuSans-3d" x="106.591797"/>
     <use xlink:href="#DejaVuSans-20" x="190.380859"/>
     <use xlink:href="#DejaVuSans-34" x="222.167969"/>
     <use xlink:href="#DejaVuSans-34" x="285.791016"/>
    </g>
   </g>
   <g id="legend_1">
    <g id="patch_7">
     <path d="M 67.333889 185.4328 
L 199.933889 185.4328 
Q 201.933889 185.4328 201.933889 183.4328 
L 201.933889 125.699988 
Q 201.933889 123.699988 199.933889 123.699988 
L 67.333889 123.699988 
Q 65.333889 123.699988 65.333889 125.699988 
L 65.333889 183.4328 
Q 65.333889 185.4328 67.333889 185.4328 
z
" style="fill: #ffffff; opacity: 0.8; stroke: #cccccc; stroke-linejoin: miter"/>
    </g>
    <g id="line2d_47">
     <path d="M 69.333889 131.798425 
L 79.333889 131.798425 
L 89.333889 131.798425 
" style="fill: none; stroke-dasharray: 1.5,2.475; stroke-dashoffset: 0; stroke: #000000; stroke-width: 1.5"/>
    </g>
    <g id="text_5">
     <!-- Input -->
     <g transform="translate(97.333889 135.298425) scale(0.1 -0.1)">
      <defs>
       <path id="DejaVuSans-49" d="M 628 4666 
L 1259 4666 
L 1259 0 
L 628 0 
L 628 4666 
z
" transform="scale(0.015625)"/>
       <path id="DejaVuSans-70" d="M 1159 525 
L 1159 -1331 
L 581 -1331 
L 581 3500 
L 1159 3500 
L 1159 2969 
Q 1341 3281 1617 3432 
Q 1894 3584 2278 3584 
Q 2916 3584 3314 3078 
Q 3713 2572 3713 1747 
Q 3713 922 3314 415 
Q 2916 -91 2278 -91 
Q 1894 -91 1617 61 
Q 1341 213 1159 525 
z
M 3116 1747 
Q 3116 2381 2855 2742 
Q 2594 3103 2138 3103 
Q 1681 3103 1420 2742 
Q 1159 2381 1159 1747 
Q 1159 1113 1420 752 
Q 1681 391 2138 391 
Q 2594 391 2855 752 
Q 3116 1113 3116 1747 
z
" transform="scale(0.015625)"/>
       <path id="DejaVuSans-75" d="M 544 1381 
L 544 3500 
L 1119 3500 
L 1119 1403 
Q 1119 906 1312 657 
Q 1506 409 1894 409 
Q 2359 409 2629 706 
Q 2900 1003 2900 1516 
L 2900 3500 
L 3475 3500 
L 3475 0 
L 2900 0 
L 2900 538 
Q 2691 219 2414 64 
Q 2138 -91 1772 -91 
Q 1169 -91 856 284 
Q 544 659 544 1381 
z
M 1991 3584 
L 1991 3584 
z
" transform="scale(0.015625)"/>
       <path id="DejaVuSans-74" d="M 1172 4494 
L 1172 3500 
L 2356 3500 
L 2356 3053 
L 1172 3053 
L 1172 1153 
Q 1172 725 1289 603 
Q 1406 481 1766 481 
L 2356 481 
L 2356 0 
L 1766 0 
Q 1100 0 847 248 
Q 594 497 594 1153 
L 594 3053 
L 172 3053 
L 172 3500 
L 594 3500 
L 594 4494 
L 1172 4494 
z
" transform="scale(0.015625)"/>
      </defs>
      <use xlink:href="#DejaVuSans-49"/>
      <use xlink:href="#DejaVuSans-6e" x="29.492188"/>
      <use xlink:href="#DejaVuSans-70" x="92.871094"/>
      <use xlink:href="#DejaVuSans-75" x="156.347656"/>
      <use xlink:href="#DejaVuSans-74" x="219.726562"/>
     </g>
    </g>
    <g id="LineCollection_4">
     <path d="M 79.333889 151.47655 
L 79.333889 141.47655 
" style="fill: none; stroke: #006400; stroke-width: 1.5"/>
    </g>
    <g id="line2d_48"/>
    <g id="line2d_49">
     <g>
      <use xlink:href="#m8cd9af4a66" x="79.333889" y="146.47655" style="fill: #006400; stroke: #006400"/>
     </g>
    </g>
    <g id="text_6">
     <!-- Fluxpoints Nuisance -->
     <g transform="translate(97.333889 149.97655) scale(0.1 -0.1)">
      <defs>
       <path id="DejaVuSans-46" d="M 628 4666 
L 3309 4666 
L 3309 4134 
L 1259 4134 
L 1259 2759 
L 3109 2759 
L 3109 2228 
L 1259 2228 
L 1259 0 
L 628 0 
L 628 4666 
z
" transform="scale(0.015625)"/>
       <path id="DejaVuSans-6c" d="M 603 4863 
L 1178 4863 
L 1178 0 
L 603 0 
L 603 4863 
z
" transform="scale(0.015625)"/>
       <path id="DejaVuSans-78" d="M 3513 3500 
L 2247 1797 
L 3578 0 
L 2900 0 
L 1881 1375 
L 863 0 
L 184 0 
L 1544 1831 
L 300 3500 
L 978 3500 
L 1906 2253 
L 2834 3500 
L 3513 3500 
z
" transform="scale(0.015625)"/>
       <path id="DejaVuSans-6f" d="M 1959 3097 
Q 1497 3097 1228 2736 
Q 959 2375 959 1747 
Q 959 1119 1226 758 
Q 1494 397 1959 397 
Q 2419 397 2687 759 
Q 2956 1122 2956 1747 
Q 2956 2369 2687 2733 
Q 2419 3097 1959 3097 
z
M 1959 3584 
Q 2709 3584 3137 3096 
Q 3566 2609 3566 1747 
Q 3566 888 3137 398 
Q 2709 -91 1959 -91 
Q 1206 -91 779 398 
Q 353 888 353 1747 
Q 353 2609 779 3096 
Q 1206 3584 1959 3584 
z
" transform="scale(0.015625)"/>
       <path id="DejaVuSans-69" d="M 603 3500 
L 1178 3500 
L 1178 0 
L 603 0 
L 603 3500 
z
M 603 4863 
L 1178 4863 
L 1178 4134 
L 603 4134 
L 603 4863 
z
" transform="scale(0.015625)"/>
       <path id="DejaVuSans-61" d="M 2194 1759 
Q 1497 1759 1228 1600 
Q 959 1441 959 1056 
Q 959 750 1161 570 
Q 1363 391 1709 391 
Q 2188 391 2477 730 
Q 2766 1069 2766 1631 
L 2766 1759 
L 2194 1759 
z
M 3341 1997 
L 3341 0 
L 2766 0 
L 2766 531 
Q 2569 213 2275 61 
Q 1981 -91 1556 -91 
Q 1019 -91 701 211 
Q 384 513 384 1019 
Q 384 1609 779 1909 
Q 1175 2209 1959 2209 
L 2766 2209 
L 2766 2266 
Q 2766 2663 2505 2880 
Q 2244 3097 1772 3097 
Q 1472 3097 1187 3025 
Q 903 2953 641 2809 
L 641 3341 
Q 956 3463 1253 3523 
Q 1550 3584 1831 3584 
Q 2591 3584 2966 3190 
Q 3341 2797 3341 1997 
z
" transform="scale(0.015625)"/>
      </defs>
      <use xlink:href="#DejaVuSans-46"/>
      <use xlink:href="#DejaVuSans-6c" x="57.519531"/>
      <use xlink:href="#DejaVuSans-75" x="85.302734"/>
      <use xlink:href="#DejaVuSans-78" x="148.681641"/>
      <use xlink:href="#DejaVuSans-70" x="207.861328"/>
      <use xlink:href="#DejaVuSans-6f" x="271.337891"/>
      <use xlink:href="#DejaVuSans-69" x="332.519531"/>
      <use xlink:href="#DejaVuSans-6e" x="360.302734"/>
      <use xlink:href="#DejaVuSans-74" x="423.681641"/>
      <use xlink:href="#DejaVuSans-73" x="462.890625"/>
      <use xlink:href="#DejaVuSans-20" x="514.990234"/>
      <use xlink:href="#DejaVuSans-4e" x="546.777344"/>
      <use xlink:href="#DejaVuSans-75" x="621.582031"/>
      <use xlink:href="#DejaVuSans-69" x="684.960938"/>
      <use xlink:href="#DejaVuSans-73" x="712.744141"/>
      <use xlink:href="#DejaVuSans-61" x="764.84375"/>
      <use xlink:href="#DejaVuSans-6e" x="826.123047"/>
      <use xlink:href="#DejaVuSans-63" x="889.501953"/>
      <use xlink:href="#DejaVuSans-65" x="944.482422"/>
     </g>
    </g>
    <g id="LineCollection_5">
     <path d="M 79.333889 166.154675 
L 79.333889 156.154675 
" style="fill: none; stroke: #8b0000; stroke-width: 1.5"/>
    </g>
    <g id="line2d_50"/>
    <g id="line2d_51">
     <g>
      <use xlink:href="#m68e9168bc9" x="79.333889" y="161.154675" style="fill: #8b0000; stroke: #8b0000"/>
     </g>
    </g>
    <g id="text_7">
     <!-- Fluxpoints Standard -->
     <g transform="translate(97.333889 164.654675) scale(0.1 -0.1)">
      <defs>
       <path id="DejaVuSans-53" d="M 3425 4513 
L 3425 3897 
Q 3066 4069 2747 4153 
Q 2428 4238 2131 4238 
Q 1616 4238 1336 4038 
Q 1056 3838 1056 3469 
Q 1056 3159 1242 3001 
Q 1428 2844 1947 2747 
L 2328 2669 
Q 3034 2534 3370 2195 
Q 3706 1856 3706 1288 
Q 3706 609 3251 259 
Q 2797 -91 1919 -91 
Q 1588 -91 1214 -16 
Q 841 59 441 206 
L 441 856 
Q 825 641 1194 531 
Q 1563 422 1919 422 
Q 2459 422 2753 634 
Q 3047 847 3047 1241 
Q 3047 1584 2836 1778 
Q 2625 1972 2144 2069 
L 1759 2144 
Q 1053 2284 737 2584 
Q 422 2884 422 3419 
Q 422 4038 858 4394 
Q 1294 4750 2059 4750 
Q 2388 4750 2728 4690 
Q 3069 4631 3425 4513 
z
" transform="scale(0.015625)"/>
       <path id="DejaVuSans-72" d="M 2631 2963 
Q 2534 3019 2420 3045 
Q 2306 3072 2169 3072 
Q 1681 3072 1420 2755 
Q 1159 2438 1159 1844 
L 1159 0 
L 581 0 
L 581 3500 
L 1159 3500 
L 1159 2956 
Q 1341 3275 1631 3429 
Q 1922 3584 2338 3584 
Q 2397 3584 2469 3576 
Q 2541 3569 2628 3553 
L 2631 2963 
z
" transform="scale(0.015625)"/>
      </defs>
      <use xlink:href="#DejaVuSans-46"/>
      <use xlink:href="#DejaVuSans-6c" x="57.519531"/>
      <use xlink:href="#DejaVuSans-75" x="85.302734"/>
      <use xlink:href="#DejaVuSans-78" x="148.681641"/>
      <use xlink:href="#DejaVuSans-70" x="207.861328"/>
      <use xlink:href="#DejaVuSans-6f" x="271.337891"/>
      <use xlink:href="#DejaVuSans-69" x="332.519531"/>
      <use xlink:href="#DejaVuSans-6e" x="360.302734"/>
      <use xlink:href="#DejaVuSans-74" x="423.681641"/>
      <use xlink:href="#DejaVuSans-73" x="462.890625"/>
      <use xlink:href="#DejaVuSans-20" x="514.990234"/>
      <use xlink:href="#DejaVuSans-53" x="546.777344"/>
      <use xlink:href="#DejaVuSans-74" x="610.253906"/>
      <use xlink:href="#DejaVuSans-61" x="649.462891"/>
      <use xlink:href="#DejaVuSans-6e" x="710.742188"/>
      <use xlink:href="#DejaVuSans-64" x="774.121094"/>
      <use xlink:href="#DejaVuSans-61" x="837.597656"/>
      <use xlink:href="#DejaVuSans-72" x="898.876953"/>
      <use xlink:href="#DejaVuSans-64" x="938.240234"/>
     </g>
    </g>
    <g id="LineCollection_6">
     <path d="M 79.333889 180.8328 
L 79.333889 170.8328 
" style="fill: none; stroke: #1f77b4; stroke-width: 1.5"/>
    </g>
    <g id="line2d_52">
     <path d="M 69.333889 175.8328 
L 89.333889 175.8328 
" style="fill: none; stroke: #1f77b4; stroke-width: 1.5; stroke-linecap: square"/>
    </g>
    <g id="line2d_53"/>
    <g id="text_8">
     <!-- $\mu$, $\sigma$ -->
     <g transform="translate(97.333889 179.3328) scale(0.1 -0.1)">
      <defs>
       <path id="DejaVuSans-Oblique-3bc" d="M -84 -1331 
L 856 3500 
L 1434 3500 
L 1009 1322 
Q 997 1256 987 1175 
Q 978 1094 978 1013 
Q 978 722 1161 565 
Q 1344 409 1684 409 
Q 2147 409 2431 671 
Q 2716 934 2816 1459 
L 3213 3500 
L 3788 3500 
L 3266 809 
Q 3253 750 3248 706 
Q 3244 663 3244 628 
Q 3244 531 3283 486 
Q 3322 441 3406 441 
Q 3438 441 3492 456 
Q 3547 472 3647 513 
L 3559 50 
Q 3422 -19 3297 -55 
Q 3172 -91 3053 -91 
Q 2847 -91 2730 40 
Q 2613 172 2613 403 
Q 2438 153 2195 31 
Q 1953 -91 1625 -91 
Q 1334 -91 1117 43 
Q 900 178 831 397 
L 494 -1331 
L -84 -1331 
z
" transform="scale(0.015625)"/>
       <path id="DejaVuSans-2c" d="M 750 794 
L 1409 794 
L 1409 256 
L 897 -744 
L 494 -744 
L 750 256 
L 750 794 
z
" transform="scale(0.015625)"/>
       <path id="DejaVuSans-Oblique-3c3" d="M 2219 3044 
Q 1744 3044 1422 2700 
Q 1081 2341 969 1747 
Q 844 1119 1044 756 
Q 1241 397 1706 397 
Q 2166 397 2503 759 
Q 2844 1122 2966 1747 
Q 3075 2319 2881 2700 
Q 2700 3044 2219 3044 
z
M 2309 3503 
L 4219 3500 
L 4106 2925 
L 3463 2925 
Q 3706 2438 3575 1747 
Q 3406 888 2884 400 
Q 2359 -91 1609 -91 
Q 856 -91 525 400 
Q 194 888 363 1747 
Q 528 2609 1050 3097 
Q 1484 3503 2309 3503 
z
" transform="scale(0.015625)"/>
      </defs>
      <use xlink:href="#DejaVuSans-Oblique-3bc" transform="translate(0 0.265625)"/>
      <use xlink:href="#DejaVuSans-2c" transform="translate(63.623047 0.265625)"/>
      <use xlink:href="#DejaVuSans-20" transform="translate(95.410156 0.265625)"/>
      <use xlink:href="#DejaVuSans-Oblique-3c3" transform="translate(127.197266 0.265625)"/>
     </g>
    </g>
   </g>
  </g>
  <g id="axes_2">
   <g id="patch_8">
    <path d="M 60.333889 314.728 
L 349.2 314.728 
L 349.2 204.7328 
L 60.333889 204.7328 
z
" style="fill: #ffffff"/>
   </g>
   <g id="matplotlib.axis_3">
    <g id="xtick_25">
     <g id="line2d_54">
      <g>
       <use xlink:href="#m49e89877f4" x="111.344758" y="314.728" style="stroke: #000000; stroke-width: 0.8"/>
      </g>
     </g>
     <g id="text_9">
      <!-- $\mathdefault{10^{0}}$ -->
      <g transform="translate(102.544758 329.326437) scale(0.1 -0.1)">
       <use xlink:href="#DejaVuSans-31" transform="translate(0 0.765625)"/>
       <use xlink:href="#DejaVuSans-30" transform="translate(63.623047 0.765625)"/>
       <use xlink:href="#DejaVuSans-30" transform="translate(128.203125 39.046875) scale(0.7)"/>
      </g>
     </g>
    </g>
    <g id="xtick_26">
     <g id="line2d_55">
      <g>
       <use xlink:href="#m49e89877f4" x="232.562651" y="314.728" style="stroke: #000000; stroke-width: 0.8"/>
      </g>
     </g>
     <g id="text_10">
      <!-- $\mathdefault{10^{1}}$ -->
      <g transform="translate(223.762651 329.326437) scale(0.1 -0.1)">
       <use xlink:href="#DejaVuSans-31" transform="translate(0 0.684375)"/>
       <use xlink:href="#DejaVuSans-30" transform="translate(63.623047 0.684375)"/>
       <use xlink:href="#DejaVuSans-31" transform="translate(128.203125 38.965625) scale(0.7)"/>
      </g>
     </g>
    </g>
    <g id="xtick_27">
     <g id="line2d_56">
      <g>
       <use xlink:href="#mf3aba7fafb" x="63.107309" y="314.728" style="stroke: #000000; stroke-width: 0.6"/>
      </g>
     </g>
    </g>
    <g id="xtick_28">
     <g id="line2d_57">
      <g>
       <use xlink:href="#mf3aba7fafb" x="74.854537" y="314.728" style="stroke: #000000; stroke-width: 0.6"/>
      </g>
     </g>
    </g>
    <g id="xtick_29">
     <g id="line2d_58">
      <g>
       <use xlink:href="#mf3aba7fafb" x="84.452721" y="314.728" style="stroke: #000000; stroke-width: 0.6"/>
      </g>
     </g>
    </g>
    <g id="xtick_30">
     <g id="line2d_59">
      <g>
       <use xlink:href="#mf3aba7fafb" x="92.567869" y="314.728" style="stroke: #000000; stroke-width: 0.6"/>
      </g>
     </g>
    </g>
    <g id="xtick_31">
     <g id="line2d_60">
      <g>
       <use xlink:href="#mf3aba7fafb" x="99.597531" y="314.728" style="stroke: #000000; stroke-width: 0.6"/>
      </g>
     </g>
    </g>
    <g id="xtick_32">
     <g id="line2d_61">
      <g>
       <use xlink:href="#mf3aba7fafb" x="105.798132" y="314.728" style="stroke: #000000; stroke-width: 0.6"/>
      </g>
     </g>
    </g>
    <g id="xtick_33">
     <g id="line2d_62">
      <g>
       <use xlink:href="#mf3aba7fafb" x="147.83498" y="314.728" style="stroke: #000000; stroke-width: 0.6"/>
      </g>
     </g>
    </g>
    <g id="xtick_34">
     <g id="line2d_63">
      <g>
       <use xlink:href="#mf3aba7fafb" x="169.180391" y="314.728" style="stroke: #000000; stroke-width: 0.6"/>
      </g>
     </g>
    </g>
    <g id="xtick_35">
     <g id="line2d_64">
      <g>
       <use xlink:href="#mf3aba7fafb" x="184.325202" y="314.728" style="stroke: #000000; stroke-width: 0.6"/>
      </g>
     </g>
    </g>
    <g id="xtick_36">
     <g id="line2d_65">
      <g>
       <use xlink:href="#mf3aba7fafb" x="196.072429" y="314.728" style="stroke: #000000; stroke-width: 0.6"/>
      </g>
     </g>
    </g>
    <g id="xtick_37">
     <g id="line2d_66">
      <g>
       <use xlink:href="#mf3aba7fafb" x="205.670613" y="314.728" style="stroke: #000000; stroke-width: 0.6"/>
      </g>
     </g>
    </g>
    <g id="xtick_38">
     <g id="line2d_67">
      <g>
       <use xlink:href="#mf3aba7fafb" x="213.785762" y="314.728" style="stroke: #000000; stroke-width: 0.6"/>
      </g>
     </g>
    </g>
    <g id="xtick_39">
     <g id="line2d_68">
      <g>
       <use xlink:href="#mf3aba7fafb" x="220.815423" y="314.728" style="stroke: #000000; stroke-width: 0.6"/>
      </g>
     </g>
    </g>
    <g id="xtick_40">
     <g id="line2d_69">
      <g>
       <use xlink:href="#mf3aba7fafb" x="227.016024" y="314.728" style="stroke: #000000; stroke-width: 0.6"/>
      </g>
     </g>
    </g>
    <g id="xtick_41">
     <g id="line2d_70">
      <g>
       <use xlink:href="#mf3aba7fafb" x="269.052872" y="314.728" style="stroke: #000000; stroke-width: 0.6"/>
      </g>
     </g>
    </g>
    <g id="xtick_42">
     <g id="line2d_71">
      <g>
       <use xlink:href="#mf3aba7fafb" x="290.398284" y="314.728" style="stroke: #000000; stroke-width: 0.6"/>
      </g>
     </g>
    </g>
    <g id="xtick_43">
     <g id="line2d_72">
      <g>
       <use xlink:href="#mf3aba7fafb" x="305.543094" y="314.728" style="stroke: #000000; stroke-width: 0.6"/>
      </g>
     </g>
    </g>
    <g id="xtick_44">
     <g id="line2d_73">
      <g>
       <use xlink:href="#mf3aba7fafb" x="317.290321" y="314.728" style="stroke: #000000; stroke-width: 0.6"/>
      </g>
     </g>
    </g>
    <g id="xtick_45">
     <g id="line2d_74">
      <g>
       <use xlink:href="#mf3aba7fafb" x="326.888505" y="314.728" style="stroke: #000000; stroke-width: 0.6"/>
      </g>
     </g>
    </g>
    <g id="xtick_46">
     <g id="line2d_75">
      <g>
       <use xlink:href="#mf3aba7fafb" x="335.003654" y="314.728" style="stroke: #000000; stroke-width: 0.6"/>
      </g>
     </g>
    </g>
    <g id="xtick_47">
     <g id="line2d_76">
      <g>
       <use xlink:href="#mf3aba7fafb" x="342.033315" y="314.728" style="stroke: #000000; stroke-width: 0.6"/>
      </g>
     </g>
    </g>
    <g id="xtick_48">
     <g id="line2d_77">
      <g>
       <use xlink:href="#mf3aba7fafb" x="348.233916" y="314.728" style="stroke: #000000; stroke-width: 0.6"/>
      </g>
     </g>
    </g>
    <g id="text_11">
     <!-- Energy [TeV] -->
     <g transform="translate(173.069288 343.004563) scale(0.1 -0.1)">
      <defs>
       <path id="DejaVuSans-45" d="M 628 4666 
L 3578 4666 
L 3578 4134 
L 1259 4134 
L 1259 2753 
L 3481 2753 
L 3481 2222 
L 1259 2222 
L 1259 531 
L 3634 531 
L 3634 0 
L 628 0 
L 628 4666 
z
" transform="scale(0.015625)"/>
       <path id="DejaVuSans-67" d="M 2906 1791 
Q 2906 2416 2648 2759 
Q 2391 3103 1925 3103 
Q 1463 3103 1205 2759 
Q 947 2416 947 1791 
Q 947 1169 1205 825 
Q 1463 481 1925 481 
Q 2391 481 2648 825 
Q 2906 1169 2906 1791 
z
M 3481 434 
Q 3481 -459 3084 -895 
Q 2688 -1331 1869 -1331 
Q 1566 -1331 1297 -1286 
Q 1028 -1241 775 -1147 
L 775 -588 
Q 1028 -725 1275 -790 
Q 1522 -856 1778 -856 
Q 2344 -856 2625 -561 
Q 2906 -266 2906 331 
L 2906 616 
Q 2728 306 2450 153 
Q 2172 0 1784 0 
Q 1141 0 747 490 
Q 353 981 353 1791 
Q 353 2603 747 3093 
Q 1141 3584 1784 3584 
Q 2172 3584 2450 3431 
Q 2728 3278 2906 2969 
L 2906 3500 
L 3481 3500 
L 3481 434 
z
" transform="scale(0.015625)"/>
       <path id="DejaVuSans-79" d="M 2059 -325 
Q 1816 -950 1584 -1140 
Q 1353 -1331 966 -1331 
L 506 -1331 
L 506 -850 
L 844 -850 
Q 1081 -850 1212 -737 
Q 1344 -625 1503 -206 
L 1606 56 
L 191 3500 
L 800 3500 
L 1894 763 
L 2988 3500 
L 3597 3500 
L 2059 -325 
z
" transform="scale(0.015625)"/>
      </defs>
      <use xlink:href="#DejaVuSans-45"/>
      <use xlink:href="#DejaVuSans-6e" x="63.183594"/>
      <use xlink:href="#DejaVuSans-65" x="126.5625"/>
      <use xlink:href="#DejaVuSans-72" x="188.085938"/>
      <use xlink:href="#DejaVuSans-67" x="227.449219"/>
      <use xlink:href="#DejaVuSans-79" x="290.925781"/>
      <use xlink:href="#DejaVuSans-20" x="350.105469"/>
      <use xlink:href="#DejaVuSans-5b" x="381.892578"/>
      <use xlink:href="#DejaVuSans-54" x="420.90625"/>
      <use xlink:href="#DejaVuSans-65" x="464.990234"/>
      <use xlink:href="#DejaVuSans-56" x="526.513672"/>
      <use xlink:href="#DejaVuSans-5d" x="594.921875"/>
     </g>
    </g>
   </g>
   <g id="matplotlib.axis_4">
    <g id="ytick_19">
     <g id="line2d_78">
      <g>
       <use xlink:href="#mad34cfe6cf" x="60.333889" y="293.062279" style="stroke: #000000; stroke-width: 0.8"/>
      </g>
     </g>
     <g id="text_12">
      <!-- 0.5 -->
      <g transform="translate(37.430764 296.861498) scale(0.1 -0.1)">
       <defs>
        <path id="DejaVuSans-2e" d="M 684 794 
L 1344 794 
L 1344 0 
L 684 0 
L 684 794 
z
" transform="scale(0.015625)"/>
        <path id="DejaVuSans-35" d="M 691 4666 
L 3169 4666 
L 3169 4134 
L 1269 4134 
L 1269 2991 
Q 1406 3038 1543 3061 
Q 1681 3084 1819 3084 
Q 2600 3084 3056 2656 
Q 3513 2228 3513 1497 
Q 3513 744 3044 326 
Q 2575 -91 1722 -91 
Q 1428 -91 1123 -41 
Q 819 9 494 109 
L 494 744 
Q 775 591 1075 516 
Q 1375 441 1709 441 
Q 2250 441 2565 725 
Q 2881 1009 2881 1497 
Q 2881 1984 2565 2268 
Q 2250 2553 1709 2553 
Q 1456 2553 1204 2497 
Q 953 2441 691 2322 
L 691 4666 
z
" transform="scale(0.015625)"/>
       </defs>
       <use xlink:href="#DejaVuSans-30"/>
       <use xlink:href="#DejaVuSans-2e" x="63.623047"/>
       <use xlink:href="#DejaVuSans-35" x="95.410156"/>
      </g>
     </g>
    </g>
    <g id="ytick_20">
     <g id="line2d_79">
      <g>
       <use xlink:href="#mad34cfe6cf" x="60.333889" y="256.397212" style="stroke: #000000; stroke-width: 0.8"/>
      </g>
     </g>
     <g id="text_13">
      <!-- 0.6 -->
      <g transform="translate(37.430764 260.196431) scale(0.1 -0.1)">
       <defs>
        <path id="DejaVuSans-36" d="M 2113 2584 
Q 1688 2584 1439 2293 
Q 1191 2003 1191 1497 
Q 1191 994 1439 701 
Q 1688 409 2113 409 
Q 2538 409 2786 701 
Q 3034 994 3034 1497 
Q 3034 2003 2786 2293 
Q 2538 2584 2113 2584 
z
M 3366 4563 
L 3366 3988 
Q 3128 4100 2886 4159 
Q 2644 4219 2406 4219 
Q 1781 4219 1451 3797 
Q 1122 3375 1075 2522 
Q 1259 2794 1537 2939 
Q 1816 3084 2150 3084 
Q 2853 3084 3261 2657 
Q 3669 2231 3669 1497 
Q 3669 778 3244 343 
Q 2819 -91 2113 -91 
Q 1303 -91 875 529 
Q 447 1150 447 2328 
Q 447 3434 972 4092 
Q 1497 4750 2381 4750 
Q 2619 4750 2861 4703 
Q 3103 4656 3366 4563 
z
" transform="scale(0.015625)"/>
       </defs>
       <use xlink:href="#DejaVuSans-30"/>
       <use xlink:href="#DejaVuSans-2e" x="63.623047"/>
       <use xlink:href="#DejaVuSans-36" x="95.410156"/>
      </g>
     </g>
    </g>
    <g id="ytick_21">
     <g id="line2d_80">
      <g>
       <use xlink:href="#mad34cfe6cf" x="60.333889" y="219.732145" style="stroke: #000000; stroke-width: 0.8"/>
      </g>
     </g>
     <g id="text_14">
      <!-- 0.7 -->
      <g transform="translate(37.430764 223.531364) scale(0.1 -0.1)">
       <defs>
        <path id="DejaVuSans-37" d="M 525 4666 
L 3525 4666 
L 3525 4397 
L 1831 0 
L 1172 0 
L 2766 4134 
L 525 4134 
L 525 4666 
z
" transform="scale(0.015625)"/>
       </defs>
       <use xlink:href="#DejaVuSans-30"/>
       <use xlink:href="#DejaVuSans-2e" x="63.623047"/>
       <use xlink:href="#DejaVuSans-37" x="95.410156"/>
      </g>
     </g>
    </g>
    <g id="text_15">
     <!-- Coverage -->
     <g transform="translate(31.351077 283.687431) rotate(-90) scale(0.1 -0.1)">
      <defs>
       <path id="DejaVuSans-43" d="M 4122 4306 
L 4122 3641 
Q 3803 3938 3442 4084 
Q 3081 4231 2675 4231 
Q 1875 4231 1450 3742 
Q 1025 3253 1025 2328 
Q 1025 1406 1450 917 
Q 1875 428 2675 428 
Q 3081 428 3442 575 
Q 3803 722 4122 1019 
L 4122 359 
Q 3791 134 3420 21 
Q 3050 -91 2638 -91 
Q 1578 -91 968 557 
Q 359 1206 359 2328 
Q 359 3453 968 4101 
Q 1578 4750 2638 4750 
Q 3056 4750 3426 4639 
Q 3797 4528 4122 4306 
z
" transform="scale(0.015625)"/>
       <path id="DejaVuSans-76" d="M 191 3500 
L 800 3500 
L 1894 563 
L 2988 3500 
L 3597 3500 
L 2284 0 
L 1503 0 
L 191 3500 
z
" transform="scale(0.015625)"/>
      </defs>
      <use xlink:href="#DejaVuSans-43"/>
      <use xlink:href="#DejaVuSans-6f" x="69.824219"/>
      <use xlink:href="#DejaVuSans-76" x="131.005859"/>
      <use xlink:href="#DejaVuSans-65" x="190.185547"/>
      <use xlink:href="#DejaVuSans-72" x="251.708984"/>
      <use xlink:href="#DejaVuSans-61" x="292.822266"/>
      <use xlink:href="#DejaVuSans-67" x="354.101562"/>
      <use xlink:href="#DejaVuSans-65" x="417.578125"/>
     </g>
    </g>
   </g>
   <g id="line2d_81">
    <path d="M 73.464167 234.731491 
L 88.616404 259.7304 
L 103.76864 276.396339 
L 118.920877 259.7304 
L 134.073113 276.396339 
L 149.22535 284.729309 
L 164.377586 243.064461 
L 179.529823 268.06337 
L 194.682059 276.396339 
L 209.834296 234.731491 
L 224.986532 268.06337 
L 240.138769 226.398521 
L 255.291006 309.728218 
L 270.443242 251.39743 
L 285.595479 251.39743 
L 300.747715 284.729309 
L 315.899952 276.396339 
L 331.052188 226.398521 
" clip-path="url(#p3a7b83b091)" style="fill: none; stroke: #ff0000; stroke-width: 1.5; stroke-linecap: square"/>
   </g>
   <g id="line2d_82">
    <path d="M 73.464167 234.731491 
L 88.616404 259.7304 
L 103.76864 259.7304 
L 118.920877 251.39743 
L 134.073113 251.39743 
L 149.22535 284.729309 
L 164.377586 234.731491 
L 179.529823 234.731491 
L 194.682059 276.396339 
L 209.834296 209.732582 
L 224.986532 268.06337 
L 240.138769 226.398521 
L 255.291006 301.395248 
L 270.443242 251.39743 
L 285.595479 251.39743 
L 300.747715 284.729309 
L 315.899952 276.396339 
L 331.052188 226.398521 
" clip-path="url(#p3a7b83b091)" style="fill: none; stroke: #008000; stroke-width: 1.5; stroke-linecap: square"/>
   </g>
   <g id="line2d_83">
    <path d="M 73.464167 227.065159 
L 88.616404 227.065159 
L 103.76864 227.065159 
L 118.920877 227.065159 
L 134.073113 227.065159 
L 149.22535 227.065159 
L 164.377586 227.065159 
L 179.529823 227.065159 
L 194.682059 227.065159 
L 209.834296 227.065159 
L 224.986532 227.065159 
L 240.138769 227.065159 
L 255.291006 227.065159 
L 270.443242 227.065159 
L 285.595479 227.065159 
L 300.747715 227.065159 
L 315.899952 227.065159 
L 331.052188 227.065159 
" clip-path="url(#p3a7b83b091)" style="fill: none; stroke-dasharray: 1.5,2.475; stroke-dashoffset: 0; stroke: #008000; stroke-width: 1.5"/>
   </g>
   <g id="patch_9">
    <path d="M 60.333889 314.728 
L 60.333889 204.7328 
" style="fill: none; stroke: #000000; stroke-width: 0.8; stroke-linejoin: miter; stroke-linecap: square"/>
   </g>
   <g id="patch_10">
    <path d="M 349.2 314.728 
L 349.2 204.7328 
" style="fill: none; stroke: #000000; stroke-width: 0.8; stroke-linejoin: miter; stroke-linecap: square"/>
   </g>
   <g id="patch_11">
    <path d="M 60.333889 314.728 
L 349.2 314.728 
" style="fill: none; stroke: #000000; stroke-width: 0.8; stroke-linejoin: miter; stroke-linecap: square"/>
   </g>
   <g id="patch_12">
    <path d="M 60.333889 204.7328 
L 349.2 204.7328 
" style="fill: none; stroke: #000000; stroke-width: 0.8; stroke-linejoin: miter; stroke-linecap: square"/>
   </g>
   <g id="legend_2">
    <g id="patch_13">
     <path d="M 67.333889 309.728 
L 145.257327 309.728 
Q 147.257327 309.728 147.257327 307.728 
L 147.257327 264.693625 
Q 147.257327 262.693625 145.257327 262.693625 
L 67.333889 262.693625 
Q 65.333889 262.693625 65.333889 264.693625 
L 65.333889 307.728 
Q 65.333889 309.728 67.333889 309.728 
z
" style="fill: #ffffff; opacity: 0.8; stroke: #cccccc; stroke-linejoin: miter"/>
    </g>
    <g id="line2d_84">
     <path d="M 69.333889 270.792063 
L 79.333889 270.792063 
L 89.333889 270.792063 
" style="fill: none; stroke: #ff0000; stroke-width: 1.5; stroke-linecap: square"/>
    </g>
    <g id="text_16">
     <!-- Standard -->
     <g transform="translate(97.333889 274.292063) scale(0.1 -0.1)">
      <use xlink:href="#DejaVuSans-53"/>
      <use xlink:href="#DejaVuSans-74" x="63.476562"/>
      <use xlink:href="#DejaVuSans-61" x="102.685547"/>
      <use xlink:href="#DejaVuSans-6e" x="163.964844"/>
      <use xlink:href="#DejaVuSans-64" x="227.34375"/>
      <use xlink:href="#DejaVuSans-61" x="290.820312"/>
      <use xlink:href="#DejaVuSans-72" x="352.099609"/>
      <use xlink:href="#DejaVuSans-64" x="391.462891"/>
     </g>
    </g>
    <g id="line2d_85">
     <path d="M 69.333889 285.470188 
L 79.333889 285.470188 
L 89.333889 285.470188 
" style="fill: none; stroke: #008000; stroke-width: 1.5; stroke-linecap: square"/>
    </g>
    <g id="text_17">
     <!-- Nuisance -->
     <g transform="translate(97.333889 288.970188) scale(0.1 -0.1)">
      <use xlink:href="#DejaVuSans-4e"/>
      <use xlink:href="#DejaVuSans-75" x="74.804688"/>
      <use xlink:href="#DejaVuSans-69" x="138.183594"/>
      <use xlink:href="#DejaVuSans-73" x="165.966797"/>
      <use xlink:href="#DejaVuSans-61" x="218.066406"/>
      <use xlink:href="#DejaVuSans-6e" x="279.345703"/>
      <use xlink:href="#DejaVuSans-63" x="342.724609"/>
      <use xlink:href="#DejaVuSans-65" x="397.705078"/>
     </g>
    </g>
    <g id="line2d_86">
     <path d="M 69.333889 300.148313 
L 79.333889 300.148313 
L 89.333889 300.148313 
" style="fill: none; stroke-dasharray: 1.5,2.475; stroke-dashoffset: 0; stroke: #008000; stroke-width: 1.5"/>
    </g>
    <g id="text_18">
     <!-- 68 % -->
     <g transform="translate(97.333889 303.648313) scale(0.1 -0.1)">
      <defs>
       <path id="DejaVuSans-38" d="M 2034 2216 
Q 1584 2216 1326 1975 
Q 1069 1734 1069 1313 
Q 1069 891 1326 650 
Q 1584 409 2034 409 
Q 2484 409 2743 651 
Q 3003 894 3003 1313 
Q 3003 1734 2745 1975 
Q 2488 2216 2034 2216 
z
M 1403 2484 
Q 997 2584 770 2862 
Q 544 3141 544 3541 
Q 544 4100 942 4425 
Q 1341 4750 2034 4750 
Q 2731 4750 3128 4425 
Q 3525 4100 3525 3541 
Q 3525 3141 3298 2862 
Q 3072 2584 2669 2484 
Q 3125 2378 3379 2068 
Q 3634 1759 3634 1313 
Q 3634 634 3220 271 
Q 2806 -91 2034 -91 
Q 1263 -91 848 271 
Q 434 634 434 1313 
Q 434 1759 690 2068 
Q 947 2378 1403 2484 
z
M 1172 3481 
Q 1172 3119 1398 2916 
Q 1625 2713 2034 2713 
Q 2441 2713 2670 2916 
Q 2900 3119 2900 3481 
Q 2900 3844 2670 4047 
Q 2441 4250 2034 4250 
Q 1625 4250 1398 4047 
Q 1172 3844 1172 3481 
z
" transform="scale(0.015625)"/>
       <path id="DejaVuSans-25" d="M 4653 2053 
Q 4381 2053 4226 1822 
Q 4072 1591 4072 1178 
Q 4072 772 4226 539 
Q 4381 306 4653 306 
Q 4919 306 5073 539 
Q 5228 772 5228 1178 
Q 5228 1588 5073 1820 
Q 4919 2053 4653 2053 
z
M 4653 2450 
Q 5147 2450 5437 2106 
Q 5728 1763 5728 1178 
Q 5728 594 5436 251 
Q 5144 -91 4653 -91 
Q 4153 -91 3862 251 
Q 3572 594 3572 1178 
Q 3572 1766 3864 2108 
Q 4156 2450 4653 2450 
z
M 1428 4353 
Q 1159 4353 1004 4120 
Q 850 3888 850 3481 
Q 850 3069 1003 2837 
Q 1156 2606 1428 2606 
Q 1700 2606 1854 2837 
Q 2009 3069 2009 3481 
Q 2009 3884 1853 4118 
Q 1697 4353 1428 4353 
z
M 4250 4750 
L 4750 4750 
L 1831 -91 
L 1331 -91 
L 4250 4750 
z
M 1428 4750 
Q 1922 4750 2215 4408 
Q 2509 4066 2509 3481 
Q 2509 2891 2217 2550 
Q 1925 2209 1428 2209 
Q 931 2209 642 2551 
Q 353 2894 353 3481 
Q 353 4063 643 4406 
Q 934 4750 1428 4750 
z
" transform="scale(0.015625)"/>
      </defs>
      <use xlink:href="#DejaVuSans-36"/>
      <use xlink:href="#DejaVuSans-38" x="63.623047"/>
      <use xlink:href="#DejaVuSans-20" x="127.246094"/>
      <use xlink:href="#DejaVuSans-25" x="159.033203"/>
     </g>
    </g>
   </g>
  </g>
 </g>
 <defs>
  <clipPath id="p7f915db6ec">
   <rect x="60.333889" y="25.44" width="288.866111" height="164.9928"/>
  </clipPath>
  <clipPath id="p3a7b83b091">
   <rect x="60.333889" y="204.7328" width="288.866111" height="109.9952"/>
  </clipPath>
 </defs>
</svg>
