<?xml version="1.0" encoding="utf-8" standalone="no"?>
<!DOCTYPE svg PUBLIC "-//W3C//DTD SVG 1.1//EN"
  "http://www.w3.org/Graphics/SVG/1.1/DTD/svg11.dtd">
<svg xmlns:xlink="http://www.w3.org/1999/xlink" width="360pt" height="360pt" viewBox="0 0 360 360" xmlns="http://www.w3.org/2000/svg" version="1.1">
 <metadata>
  <rdf:RDF xmlns:dc="http://purl.org/dc/elements/1.1/" xmlns:cc="http://creativecommons.org/ns#" xmlns:rdf="http://www.w3.org/1999/02/22-rdf-syntax-ns#">
   <cc:Work>
    <dc:type rdf:resource="http://purl.org/dc/dcmitype/StillImage"/>
    <dc:date>2023-02-09T15:19:19.438518</dc:date>
    <dc:format>image/svg+xml</dc:format>
    <dc:creator>
     <cc:Agent>
      <dc:title>Matplotlib v3.6.2, https://matplotlib.org/</dc:title>
     </cc:Agent>
    </dc:creator>
   </cc:Work>
  </rdf:RDF>
 </metadata>
 <defs>
  <style type="text/css">*{stroke-linejoin: round; stroke-linecap: butt}</style>
 </defs>
 <g id="figure_1">
  <g id="patch_1">
   <path d="M 0 360 
L 360 360 
L 360 0 
L 0 0 
z
" style="fill: #ffffff"/>
  </g>
  <g id="axes_1">
   <g id="patch_2">
    <path d="M 60.59 190.4328 
L 349.2 190.4328 
L 349.2 25.44 
L 60.59 25.44 
z
" style="fill: #ffffff"/>
   </g>
   <g id="PolyCollection_1">
    <path d="M 75.007548 69.22077 
L 75.007548 90.178102 
L 77.605371 90.925659 
L 80.203194 91.675903 
L 82.801018 92.428899 
L 85.398841 93.184714 
L 87.996664 93.943415 
L 90.594487 94.705074 
L 93.192311 95.469764 
L 95.790134 96.237559 
L 98.387957 97.008536 
L 100.98578 97.782772 
L 103.583604 98.560348 
L 106.181427 99.341345 
L 108.77925 100.125844 
L 111.377073 100.913929 
L 113.974897 101.705685 
L 116.57272 102.501195 
L 119.170543 103.300545 
L 121.768366 104.103819 
L 124.36619 104.911102 
L 126.964013 105.722478 
L 129.561836 106.538028 
L 132.159659 107.357834 
L 134.757483 108.181975 
L 137.355306 109.010527 
L 139.953129 109.843563 
L 142.550952 110.681155 
L 145.148776 111.523368 
L 147.746599 112.370265 
L 150.344422 113.221904 
L 152.942245 114.078337 
L 155.540069 114.939612 
L 158.137892 115.80577 
L 160.735715 116.676846 
L 163.333538 117.552869 
L 165.931362 118.43386 
L 168.529185 119.319836 
L 171.127008 120.210805 
L 173.724831 121.106768 
L 176.322655 122.007719 
L 178.920478 122.913645 
L 181.518301 123.824527 
L 184.116124 124.740338 
L 186.713948 125.661046 
L 189.311771 126.58661 
L 191.909594 127.516987 
L 194.507417 128.452126 
L 197.105241 129.391969 
L 199.703064 130.336458 
L 202.300887 131.285526 
L 204.89871 132.239104 
L 207.496534 133.197121 
L 210.094357 134.159501 
L 212.69218 135.126165 
L 215.290003 136.097033 
L 217.887827 137.072024 
L 220.48565 138.051054 
L 223.083473 139.034038 
L 225.681296 140.020894 
L 228.27912 141.011534 
L 230.876943 142.005876 
L 233.474766 143.003833 
L 236.072589 144.005324 
L 238.670413 145.010265 
L 241.268236 146.018574 
L 243.866059 147.030172 
L 246.463882 148.04498 
L 249.061706 149.06292 
L 251.659529 150.083917 
L 254.257352 151.107899 
L 256.855175 152.134792 
L 259.452999 153.164529 
L 262.050822 154.197041 
L 264.648645 155.232263 
L 267.246468 156.270132 
L 269.844292 157.310587 
L 272.442115 158.353569 
L 275.039938 159.39902 
L 277.637761 160.446887 
L 280.235585 161.497116 
L 282.833408 162.549656 
L 285.431231 163.604459 
L 288.029054 164.661479 
L 290.626878 165.720669 
L 293.224701 166.781988 
L 295.822524 167.845394 
L 298.420347 168.910849 
L 301.018171 169.978313 
L 303.615994 171.047752 
L 306.213817 172.11913 
L 308.81164 173.192416 
L 311.409464 174.267578 
L 314.007287 175.344586 
L 316.60511 176.423412 
L 319.202933 177.504029 
L 321.800756 178.586412 
L 324.39858 179.670535 
L 326.996403 180.756377 
L 329.594226 181.843914 
L 332.192049 182.933127 
L 332.192049 154.545168 
L 332.192049 154.545168 
L 329.594226 153.777298 
L 326.996403 153.009024 
L 324.39858 152.240323 
L 321.800756 151.471167 
L 319.202933 150.70153 
L 316.60511 149.931382 
L 314.007287 149.160695 
L 311.409464 148.389437 
L 308.81164 147.617576 
L 306.213817 146.845079 
L 303.615994 146.071911 
L 301.018171 145.298034 
L 298.420347 144.523412 
L 295.822524 143.748005 
L 293.224701 142.971772 
L 290.626878 142.19467 
L 288.029054 141.416655 
L 285.431231 140.637681 
L 282.833408 139.857699 
L 280.235585 139.076661 
L 277.637761 138.294514 
L 275.039938 137.511205 
L 272.442115 136.726679 
L 269.844292 135.940877 
L 267.246468 135.15374 
L 264.648645 134.365208 
L 262.050822 133.575215 
L 259.452999 132.783697 
L 256.855175 131.990586 
L 254.257352 131.195812 
L 251.659529 130.399303 
L 249.061706 129.600987 
L 246.463882 128.800786 
L 243.866059 127.998625 
L 241.268236 127.194424 
L 238.670413 126.388102 
L 236.072589 125.579578 
L 233.474766 124.768768 
L 230.876943 123.955589 
L 228.27912 123.139954 
L 225.681296 122.321778 
L 223.083473 121.500975 
L 220.48565 120.677458 
L 217.887827 119.851143 
L 215.290003 119.021943 
L 212.69218 118.189773 
L 210.094357 117.354552 
L 207.496534 116.516197 
L 204.89871 115.67463 
L 202.300887 114.829774 
L 199.703064 113.981556 
L 197.105241 113.129906 
L 194.507417 112.274758 
L 191.909594 111.416051 
L 189.311771 110.553729 
L 186.713948 109.68774 
L 184.116124 108.818038 
L 181.518301 107.944585 
L 178.920478 107.067347 
L 176.322655 106.186296 
L 173.724831 105.301415 
L 171.127008 104.412688 
L 168.529185 103.520112 
L 165.931362 102.623686 
L 163.333538 101.72342 
L 160.735715 100.819329 
L 158.137892 99.911434 
L 155.540069 98.999766 
L 152.942245 98.08436 
L 150.344422 97.165257 
L 147.746599 96.242505 
L 145.148776 95.316158 
L 142.550952 94.386273 
L 139.953129 93.452914 
L 137.355306 92.516148 
L 134.757483 91.576046 
L 132.159659 90.632683 
L 129.561836 89.686135 
L 126.964013 88.736484 
L 124.36619 87.78381 
L 121.768366 86.828197 
L 119.170543 85.869731 
L 116.57272 84.908497 
L 113.974897 83.94458 
L 111.377073 82.978068 
L 108.77925 82.009046 
L 106.181427 81.037599 
L 103.583604 80.063813 
L 100.98578 79.087772 
L 98.387957 78.109558 
L 95.790134 77.129254 
L 93.192311 76.146938 
L 90.594487 75.162689 
L 87.996664 74.176584 
L 85.398841 73.188698 
L 82.801018 72.199104 
L 80.203194 71.207872 
L 77.605371 70.215072 
L 75.007548 69.22077 
z
" clip-path="url(#pbd1b00b138)" style="fill: #008000; fill-opacity: 0.5"/>
   </g>
   <g id="PolyCollection_2">
    <path d="M 75.007548 71.716097 
L 75.007548 86.820835 
L 77.605371 87.534798 
L 80.203194 88.250743 
L 82.801018 88.96875 
L 85.398841 89.688907 
L 87.996664 90.411309 
L 90.594487 91.136057 
L 93.192311 91.863264 
L 95.790134 92.593051 
L 98.387957 93.325547 
L 100.98578 94.060896 
L 103.583604 94.799249 
L 106.181427 95.540775 
L 108.77925 96.28565 
L 111.377073 97.03407 
L 113.974897 97.786242 
L 116.57272 98.54239 
L 119.170543 99.302752 
L 121.768366 100.067585 
L 124.36619 100.837159 
L 126.964013 101.611762 
L 129.561836 102.391697 
L 132.159659 103.177279 
L 134.757483 103.968836 
L 137.355306 104.766706 
L 139.953129 105.571232 
L 142.550952 106.382757 
L 145.148776 107.201625 
L 147.746599 108.028167 
L 150.344422 108.862699 
L 152.942245 109.705516 
L 155.540069 110.556882 
L 158.137892 111.417026 
L 160.735715 112.286131 
L 163.333538 113.164335 
L 165.931362 114.05172 
L 168.529185 114.948314 
L 171.127008 115.854087 
L 173.724831 116.768956 
L 176.322655 117.692783 
L 178.920478 118.625382 
L 181.518301 119.566524 
L 184.116124 120.515944 
L 186.713948 121.473347 
L 189.311771 122.438416 
L 191.909594 123.410818 
L 194.507417 124.390212 
L 197.105241 125.376253 
L 199.703064 126.368599 
L 202.300887 127.366911 
L 204.89871 128.370862 
L 207.496534 129.380138 
L 210.094357 130.394434 
L 212.69218 131.413466 
L 215.290003 132.436961 
L 217.887827 133.464665 
L 220.48565 134.496339 
L 223.083473 135.531759 
L 225.681296 136.570718 
L 228.27912 137.613023 
L 230.876943 138.658495 
L 233.474766 139.706969 
L 236.072589 140.75829 
L 238.670413 141.812319 
L 241.268236 142.868923 
L 243.866059 143.927983 
L 246.463882 144.989387 
L 249.061706 146.053033 
L 251.659529 147.118826 
L 254.257352 148.186679 
L 256.855175 149.256513 
L 259.452999 150.328252 
L 262.050822 151.401829 
L 264.648645 152.477181 
L 267.246468 153.55425 
L 269.844292 154.632983 
L 272.442115 155.71333 
L 275.039938 156.795245 
L 277.637761 157.878687 
L 280.235585 158.963618 
L 282.833408 160.050001 
L 285.431231 161.137804 
L 288.029054 162.226996 
L 290.626878 163.31755 
L 293.224701 164.40944 
L 295.822524 165.502643 
L 298.420347 166.597136 
L 301.018171 167.692899 
L 303.615994 168.789916 
L 306.213817 169.888167 
L 308.81164 170.987639 
L 311.409464 172.088317 
L 314.007287 173.190188 
L 316.60511 174.293241 
L 319.202933 175.397465 
L 321.800756 176.50285 
L 324.39858 177.609389 
L 326.996403 178.717072 
L 329.594226 179.825894 
L 332.192049 180.935847 
L 332.192049 155.83126 
L 332.192049 155.83126 
L 329.594226 155.084082 
L 326.996403 154.337013 
L 324.39858 153.590044 
L 321.800756 152.843162 
L 319.202933 152.096357 
L 316.60511 151.349615 
L 314.007287 150.602923 
L 311.409464 149.856267 
L 308.81164 149.109631 
L 306.213817 148.362998 
L 303.615994 147.616351 
L 301.018171 146.869671 
L 298.420347 146.122937 
L 295.822524 145.376128 
L 293.224701 144.629221 
L 290.626878 143.88219 
L 288.029054 143.135009 
L 285.431231 142.387649 
L 282.833408 141.640079 
L 280.235585 140.892265 
L 277.637761 140.144173 
L 275.039938 139.395763 
L 272.442115 138.646994 
L 269.844292 137.897823 
L 267.246468 137.148199 
L 264.648645 136.398073 
L 262.050822 135.647387 
L 259.452999 134.896083 
L 256.855175 134.144093 
L 254.257352 133.391348 
L 251.659529 132.637772 
L 249.061706 131.883283 
L 246.463882 131.12779 
L 243.866059 130.371198 
L 241.268236 129.613403 
L 238.670413 128.854291 
L 236.072589 128.093739 
L 233.474766 127.331617 
L 230.876943 126.567779 
L 228.27912 125.802073 
L 225.681296 125.034329 
L 223.083473 124.264369 
L 220.48565 123.491997 
L 217.887827 122.717006 
L 215.290003 121.939169 
L 212.69218 121.158248 
L 210.094357 120.373985 
L 207.496534 119.58611 
L 204.89871 118.794333 
L 202.300887 117.998353 
L 199.703064 117.197851 
L 197.105241 116.392501 
L 194.507417 115.581963 
L 191.909594 114.765895 
L 189.311771 113.943951 
L 186.713948 113.115789 
L 184.116124 112.281076 
L 181.518301 111.439493 
L 178.920478 110.590747 
L 176.322655 109.734571 
L 173.724831 108.870736 
L 171.127008 107.999057 
L 168.529185 107.119394 
L 165.931362 106.231665 
L 163.333538 105.335839 
L 160.735715 104.431945 
L 158.137892 103.520066 
L 155.540069 102.600337 
L 152.942245 101.672945 
L 150.344422 100.738117 
L 147.746599 99.796118 
L 145.148776 98.847242 
L 142.550952 97.891807 
L 139.953129 96.930146 
L 137.355306 95.9626 
L 134.757483 94.989515 
L 132.159659 94.011234 
L 129.561836 93.028096 
L 126.964013 92.040429 
L 124.36619 91.048551 
L 121.768366 90.052764 
L 119.170543 89.053356 
L 116.57272 88.050602 
L 113.974897 87.044756 
L 111.377073 86.03606 
L 108.77925 85.024738 
L 106.181427 84.011 
L 103.583604 82.99504 
L 100.98578 81.977039 
L 98.387957 80.957165 
L 95.790134 79.935572 
L 93.192311 78.912404 
L 90.594487 77.887795 
L 87.996664 76.861865 
L 85.398841 75.834729 
L 82.801018 74.806491 
L 80.203194 73.777248 
L 77.605371 72.747089 
L 75.007548 71.716097 
z
" clip-path="url(#pbd1b00b138)" style="fill: #ff0000; fill-opacity: 0.6"/>
   </g>
   <g id="matplotlib.axis_1">
    <g id="xtick_1">
     <g id="line2d_1">
      <defs>
       <path id="m1363a7b3f4" d="M 0 0 
L 0 3.5 
" style="stroke: #000000; stroke-width: 0.8"/>
      </defs>
      <g>
       <use xlink:href="#m1363a7b3f4" x="111.911919" y="190.4328" style="stroke: #000000; stroke-width: 0.8"/>
      </g>
     </g>
    </g>
    <g id="xtick_2">
     <g id="line2d_2">
      <g>
       <use xlink:href="#m1363a7b3f4" x="234.162425" y="190.4328" style="stroke: #000000; stroke-width: 0.8"/>
      </g>
     </g>
    </g>
    <g id="xtick_3">
     <g id="line2d_3">
      <defs>
       <path id="m22f2085bb6" d="M 0 0 
L 0 2 
" style="stroke: #000000; stroke-width: 0.6"/>
      </defs>
      <g>
       <use xlink:href="#m22f2085bb6" x="63.263552" y="190.4328" style="stroke: #000000; stroke-width: 0.6"/>
      </g>
     </g>
    </g>
    <g id="xtick_4">
     <g id="line2d_4">
      <g>
       <use xlink:href="#m22f2085bb6" x="75.11085" y="190.4328" style="stroke: #000000; stroke-width: 0.6"/>
      </g>
     </g>
    </g>
    <g id="xtick_5">
     <g id="line2d_5">
      <g>
       <use xlink:href="#m22f2085bb6" x="84.790798" y="190.4328" style="stroke: #000000; stroke-width: 0.6"/>
      </g>
     </g>
    </g>
    <g id="xtick_6">
     <g id="line2d_6">
      <g>
       <use xlink:href="#m22f2085bb6" x="92.975076" y="190.4328" style="stroke: #000000; stroke-width: 0.6"/>
      </g>
     </g>
    </g>
    <g id="xtick_7">
     <g id="line2d_7">
      <g>
       <use xlink:href="#m22f2085bb6" x="100.064621" y="190.4328" style="stroke: #000000; stroke-width: 0.6"/>
      </g>
     </g>
    </g>
    <g id="xtick_8">
     <g id="line2d_8">
      <g>
       <use xlink:href="#m22f2085bb6" x="106.318043" y="190.4328" style="stroke: #000000; stroke-width: 0.6"/>
      </g>
     </g>
    </g>
    <g id="xtick_9">
     <g id="line2d_9">
      <g>
       <use xlink:href="#m22f2085bb6" x="148.712989" y="190.4328" style="stroke: #000000; stroke-width: 0.6"/>
      </g>
     </g>
    </g>
    <g id="xtick_10">
     <g id="line2d_10">
      <g>
       <use xlink:href="#m22f2085bb6" x="170.240234" y="190.4328" style="stroke: #000000; stroke-width: 0.6"/>
      </g>
     </g>
    </g>
    <g id="xtick_11">
     <g id="line2d_11">
      <g>
       <use xlink:href="#m22f2085bb6" x="185.514058" y="190.4328" style="stroke: #000000; stroke-width: 0.6"/>
      </g>
     </g>
    </g>
    <g id="xtick_12">
     <g id="line2d_12">
      <g>
       <use xlink:href="#m22f2085bb6" x="197.361356" y="190.4328" style="stroke: #000000; stroke-width: 0.6"/>
      </g>
     </g>
    </g>
    <g id="xtick_13">
     <g id="line2d_13">
      <g>
       <use xlink:href="#m22f2085bb6" x="207.041303" y="190.4328" style="stroke: #000000; stroke-width: 0.6"/>
      </g>
     </g>
    </g>
    <g id="xtick_14">
     <g id="line2d_14">
      <g>
       <use xlink:href="#m22f2085bb6" x="215.225582" y="190.4328" style="stroke: #000000; stroke-width: 0.6"/>
      </g>
     </g>
    </g>
    <g id="xtick_15">
     <g id="line2d_15">
      <g>
       <use xlink:href="#m22f2085bb6" x="222.315127" y="190.4328" style="stroke: #000000; stroke-width: 0.6"/>
      </g>
     </g>
    </g>
    <g id="xtick_16">
     <g id="line2d_16">
      <g>
       <use xlink:href="#m22f2085bb6" x="228.568549" y="190.4328" style="stroke: #000000; stroke-width: 0.6"/>
      </g>
     </g>
    </g>
    <g id="xtick_17">
     <g id="line2d_17">
      <g>
       <use xlink:href="#m22f2085bb6" x="270.963494" y="190.4328" style="stroke: #000000; stroke-width: 0.6"/>
      </g>
     </g>
    </g>
    <g id="xtick_18">
     <g id="line2d_18">
      <g>
       <use xlink:href="#m22f2085bb6" x="292.49074" y="190.4328" style="stroke: #000000; stroke-width: 0.6"/>
      </g>
     </g>
    </g>
    <g id="xtick_19">
     <g id="line2d_19">
      <g>
       <use xlink:href="#m22f2085bb6" x="307.764564" y="190.4328" style="stroke: #000000; stroke-width: 0.6"/>
      </g>
     </g>
    </g>
    <g id="xtick_20">
     <g id="line2d_20">
      <g>
       <use xlink:href="#m22f2085bb6" x="319.611862" y="190.4328" style="stroke: #000000; stroke-width: 0.6"/>
      </g>
     </g>
    </g>
    <g id="xtick_21">
     <g id="line2d_21">
      <g>
       <use xlink:href="#m22f2085bb6" x="329.291809" y="190.4328" style="stroke: #000000; stroke-width: 0.6"/>
      </g>
     </g>
    </g>
    <g id="xtick_22">
     <g id="line2d_22">
      <g>
       <use xlink:href="#m22f2085bb6" x="337.476088" y="190.4328" style="stroke: #000000; stroke-width: 0.6"/>
      </g>
     </g>
    </g>
    <g id="xtick_23">
     <g id="line2d_23">
      <g>
       <use xlink:href="#m22f2085bb6" x="344.565633" y="190.4328" style="stroke: #000000; stroke-width: 0.6"/>
      </g>
     </g>
    </g>
   </g>
   <g id="matplotlib.axis_2">
    <g id="ytick_1">
     <g id="line2d_24">
      <defs>
       <path id="m065581fc3c" d="M 0 0 
L -3.5 0 
" style="stroke: #000000; stroke-width: 0.8"/>
      </defs>
      <g>
       <use xlink:href="#m065581fc3c" x="60.59" y="91.470181" style="stroke: #000000; stroke-width: 0.8"/>
      </g>
     </g>
     <g id="text_1">
      <!-- $\mathdefault{10^{-12}}$ -->
      <g transform="translate(25.69 95.269399) scale(0.1 -0.1)">
       <defs>
        <path id="DejaVuSans-31" d="M 794 531 
L 1825 531 
L 1825 4091 
L 703 3866 
L 703 4441 
L 1819 4666 
L 2450 4666 
L 2450 531 
L 3481 531 
L 3481 0 
L 794 0 
L 794 531 
z
" transform="scale(0.015625)"/>
        <path id="DejaVuSans-30" d="M 2034 4250 
Q 1547 4250 1301 3770 
Q 1056 3291 1056 2328 
Q 1056 1369 1301 889 
Q 1547 409 2034 409 
Q 2525 409 2770 889 
Q 3016 1369 3016 2328 
Q 3016 3291 2770 3770 
Q 2525 4250 2034 4250 
z
M 2034 4750 
Q 2819 4750 3233 4129 
Q 3647 3509 3647 2328 
Q 3647 1150 3233 529 
Q 2819 -91 2034 -91 
Q 1250 -91 836 529 
Q 422 1150 422 2328 
Q 422 3509 836 4129 
Q 1250 4750 2034 4750 
z
" transform="scale(0.015625)"/>
        <path id="DejaVuSans-2212" d="M 678 2272 
L 4684 2272 
L 4684 1741 
L 678 1741 
L 678 2272 
z
" transform="scale(0.015625)"/>
        <path id="DejaVuSans-32" d="M 1228 531 
L 3431 531 
L 3431 0 
L 469 0 
L 469 531 
Q 828 903 1448 1529 
Q 2069 2156 2228 2338 
Q 2531 2678 2651 2914 
Q 2772 3150 2772 3378 
Q 2772 3750 2511 3984 
Q 2250 4219 1831 4219 
Q 1534 4219 1204 4116 
Q 875 4013 500 3803 
L 500 4441 
Q 881 4594 1212 4672 
Q 1544 4750 1819 4750 
Q 2544 4750 2975 4387 
Q 3406 4025 3406 3419 
Q 3406 3131 3298 2873 
Q 3191 2616 2906 2266 
Q 2828 2175 2409 1742 
Q 1991 1309 1228 531 
z
" transform="scale(0.015625)"/>
       </defs>
       <use xlink:href="#DejaVuSans-31" transform="translate(0 0.765625)"/>
       <use xlink:href="#DejaVuSans-30" transform="translate(63.623047 0.765625)"/>
       <use xlink:href="#DejaVuSans-2212" transform="translate(128.203125 39.046875) scale(0.7)"/>
       <use xlink:href="#DejaVuSans-31" transform="translate(186.855469 39.046875) scale(0.7)"/>
       <use xlink:href="#DejaVuSans-32" transform="translate(231.391602 39.046875) scale(0.7)"/>
      </g>
     </g>
    </g>
    <g id="ytick_2">
     <g id="line2d_25">
      <defs>
       <path id="mfb30975189" d="M 0 0 
L -2 0 
" style="stroke: #000000; stroke-width: 0.6"/>
      </defs>
      <g>
       <use xlink:href="#mfb30975189" x="60.59" y="189.25763" style="stroke: #000000; stroke-width: 0.6"/>
      </g>
     </g>
    </g>
    <g id="ytick_3">
     <g id="line2d_26">
      <g>
       <use xlink:href="#mfb30975189" x="60.59" y="164.622073" style="stroke: #000000; stroke-width: 0.6"/>
      </g>
     </g>
    </g>
    <g id="ytick_4">
     <g id="line2d_27">
      <g>
       <use xlink:href="#mfb30975189" x="60.59" y="147.142868" style="stroke: #000000; stroke-width: 0.6"/>
      </g>
     </g>
    </g>
    <g id="ytick_5">
     <g id="line2d_28">
      <g>
       <use xlink:href="#mfb30975189" x="60.59" y="133.584943" style="stroke: #000000; stroke-width: 0.6"/>
      </g>
     </g>
    </g>
    <g id="ytick_6">
     <g id="line2d_29">
      <g>
       <use xlink:href="#mfb30975189" x="60.59" y="122.507311" style="stroke: #000000; stroke-width: 0.6"/>
      </g>
     </g>
    </g>
    <g id="ytick_7">
     <g id="line2d_30">
      <g>
       <use xlink:href="#mfb30975189" x="60.59" y="113.141307" style="stroke: #000000; stroke-width: 0.6"/>
      </g>
     </g>
    </g>
    <g id="ytick_8">
     <g id="line2d_31">
      <g>
       <use xlink:href="#mfb30975189" x="60.59" y="105.028106" style="stroke: #000000; stroke-width: 0.6"/>
      </g>
     </g>
    </g>
    <g id="ytick_9">
     <g id="line2d_32">
      <g>
       <use xlink:href="#mfb30975189" x="60.59" y="97.871755" style="stroke: #000000; stroke-width: 0.6"/>
      </g>
     </g>
    </g>
    <g id="ytick_10">
     <g id="line2d_33">
      <g>
       <use xlink:href="#mfb30975189" x="60.59" y="49.355418" style="stroke: #000000; stroke-width: 0.6"/>
      </g>
     </g>
    </g>
    <g id="text_2">
     <!-- e2 * dnde [TeV / (cm2 s)] -->
     <g transform="translate(19.610312 170.416088) rotate(-90) scale(0.1 -0.1)">
      <defs>
       <path id="DejaVuSans-65" d="M 3597 1894 
L 3597 1613 
L 953 1613 
Q 991 1019 1311 708 
Q 1631 397 2203 397 
Q 2534 397 2845 478 
Q 3156 559 3463 722 
L 3463 178 
Q 3153 47 2828 -22 
Q 2503 -91 2169 -91 
Q 1331 -91 842 396 
Q 353 884 353 1716 
Q 353 2575 817 3079 
Q 1281 3584 2069 3584 
Q 2775 3584 3186 3129 
Q 3597 2675 3597 1894 
z
M 3022 2063 
Q 3016 2534 2758 2815 
Q 2500 3097 2075 3097 
Q 1594 3097 1305 2825 
Q 1016 2553 972 2059 
L 3022 2063 
z
" transform="scale(0.015625)"/>
       <path id="DejaVuSans-20" transform="scale(0.015625)"/>
       <path id="DejaVuSans-2a" d="M 3009 3897 
L 1888 3291 
L 3009 2681 
L 2828 2375 
L 1778 3009 
L 1778 1831 
L 1422 1831 
L 1422 3009 
L 372 2375 
L 191 2681 
L 1313 3291 
L 191 3897 
L 372 4206 
L 1422 3572 
L 1422 4750 
L 1778 4750 
L 1778 3572 
L 2828 4206 
L 3009 3897 
z
" transform="scale(0.015625)"/>
       <path id="DejaVuSans-64" d="M 2906 2969 
L 2906 4863 
L 3481 4863 
L 3481 0 
L 2906 0 
L 2906 525 
Q 2725 213 2448 61 
Q 2172 -91 1784 -91 
Q 1150 -91 751 415 
Q 353 922 353 1747 
Q 353 2572 751 3078 
Q 1150 3584 1784 3584 
Q 2172 3584 2448 3432 
Q 2725 3281 2906 2969 
z
M 947 1747 
Q 947 1113 1208 752 
Q 1469 391 1925 391 
Q 2381 391 2643 752 
Q 2906 1113 2906 1747 
Q 2906 2381 2643 2742 
Q 2381 3103 1925 3103 
Q 1469 3103 1208 2742 
Q 947 2381 947 1747 
z
" transform="scale(0.015625)"/>
       <path id="DejaVuSans-6e" d="M 3513 2113 
L 3513 0 
L 2938 0 
L 2938 2094 
Q 2938 2591 2744 2837 
Q 2550 3084 2163 3084 
Q 1697 3084 1428 2787 
Q 1159 2491 1159 1978 
L 1159 0 
L 581 0 
L 581 3500 
L 1159 3500 
L 1159 2956 
Q 1366 3272 1645 3428 
Q 1925 3584 2291 3584 
Q 2894 3584 3203 3211 
Q 3513 2838 3513 2113 
z
" transform="scale(0.015625)"/>
       <path id="DejaVuSans-5b" d="M 550 4863 
L 1875 4863 
L 1875 4416 
L 1125 4416 
L 1125 -397 
L 1875 -397 
L 1875 -844 
L 550 -844 
L 550 4863 
z
" transform="scale(0.015625)"/>
       <path id="DejaVuSans-54" d="M -19 4666 
L 3928 4666 
L 3928 4134 
L 2272 4134 
L 2272 0 
L 1638 0 
L 1638 4134 
L -19 4134 
L -19 4666 
z
" transform="scale(0.015625)"/>
       <path id="DejaVuSans-56" d="M 1831 0 
L 50 4666 
L 709 4666 
L 2188 738 
L 3669 4666 
L 4325 4666 
L 2547 0 
L 1831 0 
z
" transform="scale(0.015625)"/>
       <path id="DejaVuSans-2f" d="M 1625 4666 
L 2156 4666 
L 531 -594 
L 0 -594 
L 1625 4666 
z
" transform="scale(0.015625)"/>
       <path id="DejaVuSans-28" d="M 1984 4856 
Q 1566 4138 1362 3434 
Q 1159 2731 1159 2009 
Q 1159 1288 1364 580 
Q 1569 -128 1984 -844 
L 1484 -844 
Q 1016 -109 783 600 
Q 550 1309 550 2009 
Q 550 2706 781 3412 
Q 1013 4119 1484 4856 
L 1984 4856 
z
" transform="scale(0.015625)"/>
       <path id="DejaVuSans-63" d="M 3122 3366 
L 3122 2828 
Q 2878 2963 2633 3030 
Q 2388 3097 2138 3097 
Q 1578 3097 1268 2742 
Q 959 2388 959 1747 
Q 959 1106 1268 751 
Q 1578 397 2138 397 
Q 2388 397 2633 464 
Q 2878 531 3122 666 
L 3122 134 
Q 2881 22 2623 -34 
Q 2366 -91 2075 -91 
Q 1284 -91 818 406 
Q 353 903 353 1747 
Q 353 2603 823 3093 
Q 1294 3584 2113 3584 
Q 2378 3584 2631 3529 
Q 2884 3475 3122 3366 
z
" transform="scale(0.015625)"/>
       <path id="DejaVuSans-6d" d="M 3328 2828 
Q 3544 3216 3844 3400 
Q 4144 3584 4550 3584 
Q 5097 3584 5394 3201 
Q 5691 2819 5691 2113 
L 5691 0 
L 5113 0 
L 5113 2094 
Q 5113 2597 4934 2840 
Q 4756 3084 4391 3084 
Q 3944 3084 3684 2787 
Q 3425 2491 3425 1978 
L 3425 0 
L 2847 0 
L 2847 2094 
Q 2847 2600 2669 2842 
Q 2491 3084 2119 3084 
Q 1678 3084 1418 2786 
Q 1159 2488 1159 1978 
L 1159 0 
L 581 0 
L 581 3500 
L 1159 3500 
L 1159 2956 
Q 1356 3278 1631 3431 
Q 1906 3584 2284 3584 
Q 2666 3584 2933 3390 
Q 3200 3197 3328 2828 
z
" transform="scale(0.015625)"/>
       <path id="DejaVuSans-73" d="M 2834 3397 
L 2834 2853 
Q 2591 2978 2328 3040 
Q 2066 3103 1784 3103 
Q 1356 3103 1142 2972 
Q 928 2841 928 2578 
Q 928 2378 1081 2264 
Q 1234 2150 1697 2047 
L 1894 2003 
Q 2506 1872 2764 1633 
Q 3022 1394 3022 966 
Q 3022 478 2636 193 
Q 2250 -91 1575 -91 
Q 1294 -91 989 -36 
Q 684 19 347 128 
L 347 722 
Q 666 556 975 473 
Q 1284 391 1588 391 
Q 1994 391 2212 530 
Q 2431 669 2431 922 
Q 2431 1156 2273 1281 
Q 2116 1406 1581 1522 
L 1381 1569 
Q 847 1681 609 1914 
Q 372 2147 372 2553 
Q 372 3047 722 3315 
Q 1072 3584 1716 3584 
Q 2034 3584 2315 3537 
Q 2597 3491 2834 3397 
z
" transform="scale(0.015625)"/>
       <path id="DejaVuSans-29" d="M 513 4856 
L 1013 4856 
Q 1481 4119 1714 3412 
Q 1947 2706 1947 2009 
Q 1947 1309 1714 600 
Q 1481 -109 1013 -844 
L 513 -844 
Q 928 -128 1133 580 
Q 1338 1288 1338 2009 
Q 1338 2731 1133 3434 
Q 928 4138 513 4856 
z
" transform="scale(0.015625)"/>
       <path id="DejaVuSans-5d" d="M 1947 4863 
L 1947 -844 
L 622 -844 
L 622 -397 
L 1369 -397 
L 1369 4416 
L 622 4416 
L 622 4863 
L 1947 4863 
z
" transform="scale(0.015625)"/>
      </defs>
      <use xlink:href="#DejaVuSans-65"/>
      <use xlink:href="#DejaVuSans-32" x="61.523438"/>
      <use xlink:href="#DejaVuSans-20" x="125.146484"/>
      <use xlink:href="#DejaVuSans-2a" x="156.933594"/>
      <use xlink:href="#DejaVuSans-20" x="206.933594"/>
      <use xlink:href="#DejaVuSans-64" x="238.720703"/>
      <use xlink:href="#DejaVuSans-6e" x="302.197266"/>
      <use xlink:href="#DejaVuSans-64" x="365.576172"/>
      <use xlink:href="#DejaVuSans-65" x="429.052734"/>
      <use xlink:href="#DejaVuSans-20" x="490.576172"/>
      <use xlink:href="#DejaVuSans-5b" x="522.363281"/>
      <use xlink:href="#DejaVuSans-54" x="561.376953"/>
      <use xlink:href="#DejaVuSans-65" x="605.460938"/>
      <use xlink:href="#DejaVuSans-56" x="666.984375"/>
      <use xlink:href="#DejaVuSans-20" x="735.392578"/>
      <use xlink:href="#DejaVuSans-2f" x="767.179688"/>
      <use xlink:href="#DejaVuSans-20" x="800.871094"/>
      <use xlink:href="#DejaVuSans-28" x="832.658203"/>
      <use xlink:href="#DejaVuSans-63" x="871.671875"/>
      <use xlink:href="#DejaVuSans-6d" x="926.652344"/>
      <use xlink:href="#DejaVuSans-32" x="1024.064453"/>
      <use xlink:href="#DejaVuSans-20" x="1087.6875"/>
      <use xlink:href="#DejaVuSans-73" x="1119.474609"/>
      <use xlink:href="#DejaVuSans-29" x="1171.574219"/>
      <use xlink:href="#DejaVuSans-5d" x="1210.587891"/>
     </g>
    </g>
   </g>
   <g id="line2d_34">
    <path d="M 75.007548 78.800287 
L 77.605371 79.692163 
L 80.203194 80.58404 
L 82.801018 81.475916 
L 85.398841 82.367793 
L 87.996664 83.25967 
L 90.594487 84.151546 
L 93.192311 85.043423 
L 95.790134 85.935299 
L 98.387957 86.827176 
L 100.98578 87.719053 
L 103.583604 88.610929 
L 106.181427 89.502806 
L 108.77925 90.394682 
L 111.377073 91.286559 
L 113.974897 92.178435 
L 116.57272 93.070312 
L 119.170543 93.962189 
L 121.768366 94.854065 
L 124.36619 95.745942 
L 126.964013 96.637818 
L 129.561836 97.529695 
L 132.159659 98.421572 
L 134.757483 99.313448 
L 137.355306 100.205325 
L 139.953129 101.097201 
L 142.550952 101.989078 
L 145.148776 102.880955 
L 147.746599 103.772831 
L 150.344422 104.664708 
L 152.942245 105.556584 
L 155.540069 106.448461 
L 158.137892 107.340338 
L 160.735715 108.232214 
L 163.333538 109.124091 
L 165.931362 110.015967 
L 168.529185 110.907844 
L 171.127008 111.799721 
L 173.724831 112.691597 
L 176.322655 113.583474 
L 178.920478 114.47535 
L 181.518301 115.367227 
L 184.116124 116.259104 
L 186.713948 117.15098 
L 189.311771 118.042857 
L 191.909594 118.934733 
L 194.507417 119.82661 
L 197.105241 120.718487 
L 199.703064 121.610363 
L 202.300887 122.50224 
L 204.89871 123.394116 
L 207.496534 124.285993 
L 210.094357 125.17787 
L 212.69218 126.069746 
L 215.290003 126.961623 
L 217.887827 127.853499 
L 220.48565 128.745376 
L 223.083473 129.637253 
L 225.681296 130.529129 
L 228.27912 131.421006 
L 230.876943 132.312882 
L 233.474766 133.204759 
L 236.072589 134.096636 
L 238.670413 134.988512 
L 241.268236 135.880389 
L 243.866059 136.772265 
L 246.463882 137.664142 
L 249.061706 138.556019 
L 251.659529 139.447895 
L 254.257352 140.339772 
L 256.855175 141.231648 
L 259.452999 142.123525 
L 262.050822 143.015402 
L 264.648645 143.907278 
L 267.246468 144.799155 
L 269.844292 145.691031 
L 272.442115 146.582908 
L 275.039938 147.474785 
L 277.637761 148.366661 
L 280.235585 149.258538 
L 282.833408 150.150414 
L 285.431231 151.042291 
L 288.029054 151.934168 
L 290.626878 152.826044 
L 293.224701 153.717921 
L 295.822524 154.609797 
L 298.420347 155.501674 
L 301.018171 156.393551 
L 303.615994 157.285427 
L 306.213817 158.177304 
L 308.81164 159.06918 
L 311.409464 159.961057 
L 314.007287 160.852934 
L 316.60511 161.74481 
L 319.202933 162.636687 
L 321.800756 163.528563 
L 324.39858 164.42044 
L 326.996403 165.312317 
L 329.594226 166.204193 
L 332.192049 167.09607 
" clip-path="url(#pbd1b00b138)" style="fill: none; stroke-dasharray: 1.5,2.475; stroke-dashoffset: 0; stroke: #000000; stroke-width: 1.5"/>
   </g>
   <g id="LineCollection_1">
    <path clip-path="url(#pbd1b00b138)" style="fill: none; stroke: #006400; stroke-width: 1.5"/>
    <path clip-path="url(#pbd1b00b138)" style="fill: none; stroke: #006400; stroke-width: 1.5"/>
    <path clip-path="url(#pbd1b00b138)" style="fill: none; stroke: #006400; stroke-width: 1.5"/>
    <path clip-path="url(#pbd1b00b138)" style="fill: none; stroke: #006400; stroke-width: 1.5"/>
    <path clip-path="url(#pbd1b00b138)" style="fill: none; stroke: #006400; stroke-width: 1.5"/>
    <path d="M 73.708636 361 
L 73.708636 35.33585 
" clip-path="url(#pbd1b00b138)" style="fill: none; stroke: #006400; stroke-width: 1.5"/>
    <path d="M 88.98995 118.056305 
L 88.98995 63.418707 
" clip-path="url(#pbd1b00b138)" style="fill: none; stroke: #006400; stroke-width: 1.5"/>
    <path d="M 104.271263 106.399591 
L 104.271263 77.447255 
" clip-path="url(#pbd1b00b138)" style="fill: none; stroke: #006400; stroke-width: 1.5"/>
    <path d="M 119.552576 109.866015 
L 119.552576 84.152581 
" clip-path="url(#pbd1b00b138)" style="fill: none; stroke: #006400; stroke-width: 1.5"/>
    <path d="M 134.833889 115.336247 
L 134.833889 89.585185 
" clip-path="url(#pbd1b00b138)" style="fill: none; stroke: #006400; stroke-width: 1.5"/>
    <path d="M 150.115202 121.177223 
L 150.115202 94.77681 
" clip-path="url(#pbd1b00b138)" style="fill: none; stroke: #006400; stroke-width: 1.5"/>
    <path d="M 165.396516 127.447547 
L 165.396516 99.701545 
" clip-path="url(#pbd1b00b138)" style="fill: none; stroke: #006400; stroke-width: 1.5"/>
    <path d="M 180.677829 134.118092 
L 180.677829 104.378448 
" clip-path="url(#pbd1b00b138)" style="fill: none; stroke: #006400; stroke-width: 1.5"/>
    <path d="M 195.959142 140.879833 
L 195.959142 109.031944 
" clip-path="url(#pbd1b00b138)" style="fill: none; stroke: #006400; stroke-width: 1.5"/>
    <path d="M 211.240455 148.233396 
L 211.240455 113.371549 
" clip-path="url(#pbd1b00b138)" style="fill: none; stroke: #006400; stroke-width: 1.5"/>
    <path d="M 226.521769 156.226697 
L 226.521769 117.42171 
" clip-path="url(#pbd1b00b138)" style="fill: none; stroke: #006400; stroke-width: 1.5"/>
    <path d="M 241.803082 164.711537 
L 241.803082 121.315655 
" clip-path="url(#pbd1b00b138)" style="fill: none; stroke: #006400; stroke-width: 1.5"/>
    <path d="M 257.084395 174.191546 
L 257.084395 124.872515 
" clip-path="url(#pbd1b00b138)" style="fill: none; stroke: #006400; stroke-width: 1.5"/>
    <path d="M 272.365708 184.881005 
L 272.365708 128.118797 
" clip-path="url(#pbd1b00b138)" style="fill: none; stroke: #006400; stroke-width: 1.5"/>
    <path d="M 287.647021 196.427167 
L 287.647021 131.316954 
" clip-path="url(#pbd1b00b138)" style="fill: none; stroke: #006400; stroke-width: 1.5"/>
    <path d="M 302.928335 210.145247 
L 302.928335 134.161192 
" clip-path="url(#pbd1b00b138)" style="fill: none; stroke: #006400; stroke-width: 1.5"/>
    <path d="M 318.209648 228.385884 
L 318.209648 136.380355 
" clip-path="url(#pbd1b00b138)" style="fill: none; stroke: #006400; stroke-width: 1.5"/>
    <path d="M 333.490961 259.448837 
L 333.490961 137.384821 
" clip-path="url(#pbd1b00b138)" style="fill: none; stroke: #006400; stroke-width: 1.5"/>
    <path clip-path="url(#pbd1b00b138)" style="fill: none; stroke: #006400; stroke-width: 1.5"/>
   </g>
   <g id="LineCollection_2">
    <path clip-path="url(#pbd1b00b138)" style="fill: none; stroke: #8b0000; stroke-width: 1.5"/>
    <path clip-path="url(#pbd1b00b138)" style="fill: none; stroke: #8b0000; stroke-width: 1.5"/>
    <path clip-path="url(#pbd1b00b138)" style="fill: none; stroke: #8b0000; stroke-width: 1.5"/>
    <path clip-path="url(#pbd1b00b138)" style="fill: none; stroke: #8b0000; stroke-width: 1.5"/>
    <path clip-path="url(#pbd1b00b138)" style="fill: none; stroke: #8b0000; stroke-width: 1.5"/>
    <path d="M 76.299039 361 
L 76.299039 35.485452 
" clip-path="url(#pbd1b00b138)" style="fill: none; stroke: #8b0000; stroke-width: 1.5"/>
    <path d="M 91.580352 116.715835 
L 91.580352 63.974895 
" clip-path="url(#pbd1b00b138)" style="fill: none; stroke: #8b0000; stroke-width: 1.5"/>
    <path d="M 106.861665 104.46457 
L 106.861665 78.721973 
" clip-path="url(#pbd1b00b138)" style="fill: none; stroke: #8b0000; stroke-width: 1.5"/>
    <path d="M 122.142979 107.719228 
L 122.142979 85.64165 
" clip-path="url(#pbd1b00b138)" style="fill: none; stroke: #8b0000; stroke-width: 1.5"/>
    <path d="M 137.424292 113.220473 
L 137.424292 91.043843 
" clip-path="url(#pbd1b00b138)" style="fill: none; stroke: #8b0000; stroke-width: 1.5"/>
    <path d="M 152.705605 119.142324 
L 152.705605 96.15587 
" clip-path="url(#pbd1b00b138)" style="fill: none; stroke: #8b0000; stroke-width: 1.5"/>
    <path d="M 167.986918 125.526877 
L 167.986918 100.960382 
" clip-path="url(#pbd1b00b138)" style="fill: none; stroke: #8b0000; stroke-width: 1.5"/>
    <path d="M 183.268231 132.321184 
L 183.268231 105.513367 
" clip-path="url(#pbd1b00b138)" style="fill: none; stroke: #8b0000; stroke-width: 1.5"/>
    <path d="M 198.549545 139.206998 
L 198.549545 110.042965 
" clip-path="url(#pbd1b00b138)" style="fill: none; stroke: #8b0000; stroke-width: 1.5"/>
    <path d="M 213.830858 146.66633 
L 213.830858 114.26566 
" clip-path="url(#pbd1b00b138)" style="fill: none; stroke: #8b0000; stroke-width: 1.5"/>
    <path d="M 229.112171 154.748387 
L 229.112171 118.207056 
" clip-path="url(#pbd1b00b138)" style="fill: none; stroke: #8b0000; stroke-width: 1.5"/>
    <path d="M 244.393484 163.312439 
L 244.393484 122.001149 
" clip-path="url(#pbd1b00b138)" style="fill: none; stroke: #8b0000; stroke-width: 1.5"/>
    <path d="M 259.674798 172.863841 
L 259.674798 125.460056 
" clip-path="url(#pbd1b00b138)" style="fill: none; stroke: #8b0000; stroke-width: 1.5"/>
    <path d="M 274.956111 183.60682 
L 274.956111 128.616051 
" clip-path="url(#pbd1b00b138)" style="fill: none; stroke: #8b0000; stroke-width: 1.5"/>
    <path d="M 290.237424 195.178864 
L 290.237424 131.740571 
" clip-path="url(#pbd1b00b138)" style="fill: none; stroke: #8b0000; stroke-width: 1.5"/>
    <path d="M 305.518737 208.888487 
L 305.518737 134.517412 
" clip-path="url(#pbd1b00b138)" style="fill: none; stroke: #8b0000; stroke-width: 1.5"/>
    <path d="M 320.80005 227.04597 
L 320.80005 136.672373 
" clip-path="url(#pbd1b00b138)" style="fill: none; stroke: #8b0000; stroke-width: 1.5"/>
    <path d="M 336.081364 257.74848 
L 336.081364 137.611895 
" clip-path="url(#pbd1b00b138)" style="fill: none; stroke: #8b0000; stroke-width: 1.5"/>
    <path clip-path="url(#pbd1b00b138)" style="fill: none; stroke: #8b0000; stroke-width: 1.5"/>
   </g>
   <g id="LineCollection_3">
    <path clip-path="url(#pbd1b00b138)" style="fill: none; stroke: #1f77b4; stroke-width: 1.5"/>
    <path clip-path="url(#pbd1b00b138)" style="fill: none; stroke: #1f77b4; stroke-width: 1.5"/>
    <path clip-path="url(#pbd1b00b138)" style="fill: none; stroke: #1f77b4; stroke-width: 1.5"/>
    <path clip-path="url(#pbd1b00b138)" style="fill: none; stroke: #1f77b4; stroke-width: 1.5"/>
    <path clip-path="url(#pbd1b00b138)" style="fill: none; stroke: #1f77b4; stroke-width: 1.5"/>
    <path d="M 78.768913 361 
L 78.768913 32.939673 
" clip-path="url(#pbd1b00b138)" style="fill: none; stroke: #1f77b4; stroke-width: 1.5"/>
    <path d="M 94.050226 115.948187 
L 94.050226 60.42381 
" clip-path="url(#pbd1b00b138)" style="fill: none; stroke: #1f77b4; stroke-width: 1.5"/>
    <path d="M 109.331539 103.523152 
L 109.331539 73.764749 
" clip-path="url(#pbd1b00b138)" style="fill: none; stroke: #1f77b4; stroke-width: 1.5"/>
    <path d="M 124.612853 107.319624 
L 124.612853 80.638685 
" clip-path="url(#pbd1b00b138)" style="fill: none; stroke: #1f77b4; stroke-width: 1.5"/>
    <path d="M 139.894166 112.068171 
L 139.894166 86.172116 
" clip-path="url(#pbd1b00b138)" style="fill: none; stroke: #1f77b4; stroke-width: 1.5"/>
    <path d="M 155.175479 117.306141 
L 155.175479 91.137946 
" clip-path="url(#pbd1b00b138)" style="fill: none; stroke: #1f77b4; stroke-width: 1.5"/>
    <path d="M 170.456792 125.415676 
L 170.456792 95.937285 
" clip-path="url(#pbd1b00b138)" style="fill: none; stroke: #1f77b4; stroke-width: 1.5"/>
    <path d="M 185.738106 131.178559 
L 185.738106 100.594391 
" clip-path="url(#pbd1b00b138)" style="fill: none; stroke: #1f77b4; stroke-width: 1.5"/>
    <path d="M 201.019419 137.810479 
L 201.019419 104.719798 
" clip-path="url(#pbd1b00b138)" style="fill: none; stroke: #1f77b4; stroke-width: 1.5"/>
    <path d="M 216.300732 144.770615 
L 216.300732 109.236293 
" clip-path="url(#pbd1b00b138)" style="fill: none; stroke: #1f77b4; stroke-width: 1.5"/>
    <path d="M 231.582045 152.350008 
L 231.582045 112.674952 
" clip-path="url(#pbd1b00b138)" style="fill: none; stroke: #1f77b4; stroke-width: 1.5"/>
    <path d="M 246.863358 159.409959 
L 246.863358 116.123677 
" clip-path="url(#pbd1b00b138)" style="fill: none; stroke: #1f77b4; stroke-width: 1.5"/>
    <path d="M 262.144672 167.17683 
L 262.144672 118.726744 
" clip-path="url(#pbd1b00b138)" style="fill: none; stroke: #1f77b4; stroke-width: 1.5"/>
    <path d="M 277.425985 181.226894 
L 277.425985 122.75168 
" clip-path="url(#pbd1b00b138)" style="fill: none; stroke: #1f77b4; stroke-width: 1.5"/>
    <path d="M 292.707298 191.544031 
L 292.707298 124.615784 
" clip-path="url(#pbd1b00b138)" style="fill: none; stroke: #1f77b4; stroke-width: 1.5"/>
    <path d="M 307.988611 204.938417 
L 307.988611 127.24323 
" clip-path="url(#pbd1b00b138)" style="fill: none; stroke: #1f77b4; stroke-width: 1.5"/>
    <path d="M 323.269925 235.595042 
L 323.269925 130.856517 
" clip-path="url(#pbd1b00b138)" style="fill: none; stroke: #1f77b4; stroke-width: 1.5"/>
    <path clip-path="url(#pbd1b00b138)" style="fill: none; stroke: #1f77b4; stroke-width: 1.5"/>
    <path clip-path="url(#pbd1b00b138)" style="fill: none; stroke: #1f77b4; stroke-width: 1.5"/>
   </g>
   <g id="line2d_35">
    <defs>
     <path id="m431745ff88" d="M -3 3 
L 3 -3 
M -3 -3 
L 3 3 
" style="stroke: #006400"/>
    </defs>
    <g clip-path="url(#pbd1b00b138)">
     <use xlink:href="#m431745ff88" x="73.708636" y="79.350064" style="fill: #006400; stroke: #006400"/>
     <use xlink:href="#m431745ff88" x="88.98995" y="84.79229" style="fill: #006400; stroke: #006400"/>
     <use xlink:href="#m431745ff88" x="104.271263" y="90.214976" style="fill: #006400; stroke: #006400"/>
     <use xlink:href="#m431745ff88" x="119.552576" y="95.659071" style="fill: #006400; stroke: #006400"/>
     <use xlink:href="#m431745ff88" x="134.833889" y="101.106564" style="fill: #006400; stroke: #006400"/>
     <use xlink:href="#m431745ff88" x="150.115202" y="106.554245" style="fill: #006400; stroke: #006400"/>
     <use xlink:href="#m431745ff88" x="165.396516" y="112.004313" style="fill: #006400; stroke: #006400"/>
     <use xlink:href="#m431745ff88" x="180.677829" y="117.446563" style="fill: #006400; stroke: #006400"/>
     <use xlink:href="#m431745ff88" x="195.959142" y="122.892637" style="fill: #006400; stroke: #006400"/>
     <use xlink:href="#m431745ff88" x="211.240455" y="128.33568" style="fill: #006400; stroke: #006400"/>
     <use xlink:href="#m431745ff88" x="226.521769" y="133.777504" style="fill: #006400; stroke: #006400"/>
     <use xlink:href="#m431745ff88" x="241.803082" y="139.218906" style="fill: #006400; stroke: #006400"/>
     <use xlink:href="#m431745ff88" x="257.084395" y="144.659516" style="fill: #006400; stroke: #006400"/>
     <use xlink:href="#m431745ff88" x="272.365708" y="150.099227" style="fill: #006400; stroke: #006400"/>
     <use xlink:href="#m431745ff88" x="287.647021" y="155.538315" style="fill: #006400; stroke: #006400"/>
     <use xlink:href="#m431745ff88" x="302.928335" y="160.976984" style="fill: #006400; stroke: #006400"/>
     <use xlink:href="#m431745ff88" x="318.209648" y="166.41481" style="fill: #006400; stroke: #006400"/>
     <use xlink:href="#m431745ff88" x="333.490961" y="171.852481" style="fill: #006400; stroke: #006400"/>
    </g>
   </g>
   <g id="line2d_36">
    <defs>
     <path id="mf652147bf4" d="M -3 3 
L 3 -3 
M -3 -3 
L 3 3 
" style="stroke: #8b0000"/>
    </defs>
    <g clip-path="url(#pbd1b00b138)">
     <use xlink:href="#mf652147bf4" x="76.299039" y="79.353351" style="fill: #8b0000; stroke: #8b0000"/>
     <use xlink:href="#mf652147bf4" x="91.580352" y="84.793846" style="fill: #8b0000; stroke: #8b0000"/>
     <use xlink:href="#mf652147bf4" x="106.861665" y="90.240003" style="fill: #8b0000; stroke: #8b0000"/>
     <use xlink:href="#mf652147bf4" x="122.142979" y="95.683132" style="fill: #8b0000; stroke: #8b0000"/>
     <use xlink:href="#mf652147bf4" x="137.424292" y="101.125931" style="fill: #8b0000; stroke: #8b0000"/>
     <use xlink:href="#mf652147bf4" x="152.705605" y="106.56848" style="fill: #8b0000; stroke: #8b0000"/>
     <use xlink:href="#mf652147bf4" x="167.986918" y="112.010379" style="fill: #8b0000; stroke: #8b0000"/>
     <use xlink:href="#mf652147bf4" x="183.268231" y="117.450606" style="fill: #8b0000; stroke: #8b0000"/>
     <use xlink:href="#mf652147bf4" x="198.549545" y="122.891694" style="fill: #8b0000; stroke: #8b0000"/>
     <use xlink:href="#mf652147bf4" x="213.830858" y="128.331333" style="fill: #8b0000; stroke: #8b0000"/>
     <use xlink:href="#mf652147bf4" x="229.112171" y="133.77108" style="fill: #8b0000; stroke: #8b0000"/>
     <use xlink:href="#mf652147bf4" x="244.393484" y="139.211348" style="fill: #8b0000; stroke: #8b0000"/>
     <use xlink:href="#mf652147bf4" x="259.674798" y="144.651618" style="fill: #8b0000; stroke: #8b0000"/>
     <use xlink:href="#mf652147bf4" x="274.956111" y="150.091562" style="fill: #8b0000; stroke: #8b0000"/>
     <use xlink:href="#mf652147bf4" x="290.237424" y="155.531042" style="fill: #8b0000; stroke: #8b0000"/>
     <use xlink:href="#mf652147bf4" x="305.518737" y="160.970434" style="fill: #8b0000; stroke: #8b0000"/>
     <use xlink:href="#mf652147bf4" x="320.80005" y="166.409323" style="fill: #8b0000; stroke: #8b0000"/>
     <use xlink:href="#mf652147bf4" x="336.081364" y="171.8484" style="fill: #8b0000; stroke: #8b0000"/>
    </g>
   </g>
   <g id="line2d_37">
    <path d="M 78.768913 76.729583 
L 94.050226 82.052525 
L 109.331539 86.839992 
L 124.612853 92.526225 
L 139.894166 97.750813 
L 155.175479 102.824002 
L 170.456792 108.905986 
L 185.738106 113.982059 
L 201.019419 119.039694 
L 216.300732 124.441905 
L 231.582045 129.32999 
L 246.863358 133.990885 
L 262.144672 138.245198 
L 277.425985 145.210425 
L 292.707298 149.295774 
L 307.988611 154.43577 
L 323.269925 162.998329 
" clip-path="url(#pbd1b00b138)" style="fill: none; stroke: #1f77b4; stroke-width: 1.5; stroke-linecap: square"/>
   </g>
   <g id="patch_3">
    <path d="M 60.59 190.4328 
L 60.59 25.44 
" style="fill: none; stroke: #000000; stroke-width: 0.8; stroke-linejoin: miter; stroke-linecap: square"/>
   </g>
   <g id="patch_4">
    <path d="M 349.2 190.4328 
L 349.2 25.44 
" style="fill: none; stroke: #000000; stroke-width: 0.8; stroke-linejoin: miter; stroke-linecap: square"/>
   </g>
   <g id="patch_5">
    <path d="M 60.59 190.4328 
L 349.2 190.4328 
" style="fill: none; stroke: #000000; stroke-width: 0.8; stroke-linejoin: miter; stroke-linecap: square"/>
   </g>
   <g id="patch_6">
    <path d="M 60.59 25.44 
L 349.2 25.44 
" style="fill: none; stroke: #000000; stroke-width: 0.8; stroke-linejoin: miter; stroke-linecap: square"/>
   </g>
   <g id="text_3">
    <!-- N = 1000 -->
    <g transform="translate(176.294688 19.44) scale(0.12 -0.12)">
     <defs>
      <path id="DejaVuSans-4e" d="M 628 4666 
L 1478 4666 
L 3547 763 
L 3547 4666 
L 4159 4666 
L 4159 0 
L 3309 0 
L 1241 3903 
L 1241 0 
L 628 0 
L 628 4666 
z
" transform="scale(0.015625)"/>
      <path id="DejaVuSans-3d" d="M 678 2906 
L 4684 2906 
L 4684 2381 
L 678 2381 
L 678 2906 
z
M 678 1631 
L 4684 1631 
L 4684 1100 
L 678 1100 
L 678 1631 
z
" transform="scale(0.015625)"/>
     </defs>
     <use xlink:href="#DejaVuSans-4e"/>
     <use xlink:href="#DejaVuSans-20" x="74.804688"/>
     <use xlink:href="#DejaVuSans-3d" x="106.591797"/>
     <use xlink:href="#DejaVuSans-20" x="190.380859"/>
     <use xlink:href="#DejaVuSans-31" x="222.167969"/>
     <use xlink:href="#DejaVuSans-30" x="285.791016"/>
     <use xlink:href="#DejaVuSans-30" x="349.414062"/>
     <use xlink:href="#DejaVuSans-30" x="413.037109"/>
    </g>
   </g>
   <g id="legend_1">
    <g id="patch_7">
     <path d="M 209.6 92.172813 
L 342.2 92.172813 
Q 344.2 92.172813 344.2 90.172813 
L 344.2 32.44 
Q 344.2 30.44 342.2 30.44 
L 209.6 30.44 
Q 207.6 30.44 207.6 32.44 
L 207.6 90.172813 
Q 207.6 92.172813 209.6 92.172813 
z
" style="fill: #ffffff; opacity: 0.8; stroke: #cccccc; stroke-linejoin: miter"/>
    </g>
    <g id="line2d_38">
     <path d="M 211.6 38.538438 
L 221.6 38.538438 
L 231.6 38.538438 
" style="fill: none; stroke-dasharray: 1.5,2.475; stroke-dashoffset: 0; stroke: #000000; stroke-width: 1.5"/>
    </g>
    <g id="text_4">
     <!-- Input -->
     <g transform="translate(239.6 42.038438) scale(0.1 -0.1)">
      <defs>
       <path id="DejaVuSans-49" d="M 628 4666 
L 1259 4666 
L 1259 0 
L 628 0 
L 628 4666 
z
" transform="scale(0.015625)"/>
       <path id="DejaVuSans-70" d="M 1159 525 
L 1159 -1331 
L 581 -1331 
L 581 3500 
L 1159 3500 
L 1159 2969 
Q 1341 3281 1617 3432 
Q 1894 3584 2278 3584 
Q 2916 3584 3314 3078 
Q 3713 2572 3713 1747 
Q 3713 922 3314 415 
Q 2916 -91 2278 -91 
Q 1894 -91 1617 61 
Q 1341 213 1159 525 
z
M 3116 1747 
Q 3116 2381 2855 2742 
Q 2594 3103 2138 3103 
Q 1681 3103 1420 2742 
Q 1159 2381 1159 1747 
Q 1159 1113 1420 752 
Q 1681 391 2138 391 
Q 2594 391 2855 752 
Q 3116 1113 3116 1747 
z
" transform="scale(0.015625)"/>
       <path id="DejaVuSans-75" d="M 544 1381 
L 544 3500 
L 1119 3500 
L 1119 1403 
Q 1119 906 1312 657 
Q 1506 409 1894 409 
Q 2359 409 2629 706 
Q 2900 1003 2900 1516 
L 2900 3500 
L 3475 3500 
L 3475 0 
L 2900 0 
L 2900 538 
Q 2691 219 2414 64 
Q 2138 -91 1772 -91 
Q 1169 -91 856 284 
Q 544 659 544 1381 
z
M 1991 3584 
L 1991 3584 
z
" transform="scale(0.015625)"/>
       <path id="DejaVuSans-74" d="M 1172 4494 
L 1172 3500 
L 2356 3500 
L 2356 3053 
L 1172 3053 
L 1172 1153 
Q 1172 725 1289 603 
Q 1406 481 1766 481 
L 2356 481 
L 2356 0 
L 1766 0 
Q 1100 0 847 248 
Q 594 497 594 1153 
L 594 3053 
L 172 3053 
L 172 3500 
L 594 3500 
L 594 4494 
L 1172 4494 
z
" transform="scale(0.015625)"/>
      </defs>
      <use xlink:href="#DejaVuSans-49"/>
      <use xlink:href="#DejaVuSans-6e" x="29.492188"/>
      <use xlink:href="#DejaVuSans-70" x="92.871094"/>
      <use xlink:href="#DejaVuSans-75" x="156.347656"/>
      <use xlink:href="#DejaVuSans-74" x="219.726562"/>
     </g>
    </g>
    <g id="LineCollection_4">
     <path d="M 221.6 58.216563 
L 221.6 48.216563 
" style="fill: none; stroke: #006400; stroke-width: 1.5"/>
    </g>
    <g id="line2d_39"/>
    <g id="line2d_40">
     <g>
      <use xlink:href="#m431745ff88" x="221.6" y="53.216563" style="fill: #006400; stroke: #006400"/>
     </g>
    </g>
    <g id="text_5">
     <!-- Fluxpoints Nuisance -->
     <g transform="translate(239.6 56.716563) scale(0.1 -0.1)">
      <defs>
       <path id="DejaVuSans-46" d="M 628 4666 
L 3309 4666 
L 3309 4134 
L 1259 4134 
L 1259 2759 
L 3109 2759 
L 3109 2228 
L 1259 2228 
L 1259 0 
L 628 0 
L 628 4666 
z
" transform="scale(0.015625)"/>
       <path id="DejaVuSans-6c" d="M 603 4863 
L 1178 4863 
L 1178 0 
L 603 0 
L 603 4863 
z
" transform="scale(0.015625)"/>
       <path id="DejaVuSans-78" d="M 3513 3500 
L 2247 1797 
L 3578 0 
L 2900 0 
L 1881 1375 
L 863 0 
L 184 0 
L 1544 1831 
L 300 3500 
L 978 3500 
L 1906 2253 
L 2834 3500 
L 3513 3500 
z
" transform="scale(0.015625)"/>
       <path id="DejaVuSans-6f" d="M 1959 3097 
Q 1497 3097 1228 2736 
Q 959 2375 959 1747 
Q 959 1119 1226 758 
Q 1494 397 1959 397 
Q 2419 397 2687 759 
Q 2956 1122 2956 1747 
Q 2956 2369 2687 2733 
Q 2419 3097 1959 3097 
z
M 1959 3584 
Q 2709 3584 3137 3096 
Q 3566 2609 3566 1747 
Q 3566 888 3137 398 
Q 2709 -91 1959 -91 
Q 1206 -91 779 398 
Q 353 888 353 1747 
Q 353 2609 779 3096 
Q 1206 3584 1959 3584 
z
" transform="scale(0.015625)"/>
       <path id="DejaVuSans-69" d="M 603 3500 
L 1178 3500 
L 1178 0 
L 603 0 
L 603 3500 
z
M 603 4863 
L 1178 4863 
L 1178 4134 
L 603 4134 
L 603 4863 
z
" transform="scale(0.015625)"/>
       <path id="DejaVuSans-61" d="M 2194 1759 
Q 1497 1759 1228 1600 
Q 959 1441 959 1056 
Q 959 750 1161 570 
Q 1363 391 1709 391 
Q 2188 391 2477 730 
Q 2766 1069 2766 1631 
L 2766 1759 
L 2194 1759 
z
M 3341 1997 
L 3341 0 
L 2766 0 
L 2766 531 
Q 2569 213 2275 61 
Q 1981 -91 1556 -91 
Q 1019 -91 701 211 
Q 384 513 384 1019 
Q 384 1609 779 1909 
Q 1175 2209 1959 2209 
L 2766 2209 
L 2766 2266 
Q 2766 2663 2505 2880 
Q 2244 3097 1772 3097 
Q 1472 3097 1187 3025 
Q 903 2953 641 2809 
L 641 3341 
Q 956 3463 1253 3523 
Q 1550 3584 1831 3584 
Q 2591 3584 2966 3190 
Q 3341 2797 3341 1997 
z
" transform="scale(0.015625)"/>
      </defs>
      <use xlink:href="#DejaVuSans-46"/>
      <use xlink:href="#DejaVuSans-6c" x="57.519531"/>
      <use xlink:href="#DejaVuSans-75" x="85.302734"/>
      <use xlink:href="#DejaVuSans-78" x="148.681641"/>
      <use xlink:href="#DejaVuSans-70" x="207.861328"/>
      <use xlink:href="#DejaVuSans-6f" x="271.337891"/>
      <use xlink:href="#DejaVuSans-69" x="332.519531"/>
      <use xlink:href="#DejaVuSans-6e" x="360.302734"/>
      <use xlink:href="#DejaVuSans-74" x="423.681641"/>
      <use xlink:href="#DejaVuSans-73" x="462.890625"/>
      <use xlink:href="#DejaVuSans-20" x="514.990234"/>
      <use xlink:href="#DejaVuSans-4e" x="546.777344"/>
      <use xlink:href="#DejaVuSans-75" x="621.582031"/>
      <use xlink:href="#DejaVuSans-69" x="684.960938"/>
      <use xlink:href="#DejaVuSans-73" x="712.744141"/>
      <use xlink:href="#DejaVuSans-61" x="764.84375"/>
      <use xlink:href="#DejaVuSans-6e" x="826.123047"/>
      <use xlink:href="#DejaVuSans-63" x="889.501953"/>
      <use xlink:href="#DejaVuSans-65" x="944.482422"/>
     </g>
    </g>
    <g id="LineCollection_5">
     <path d="M 221.6 72.894688 
L 221.6 62.894688 
" style="fill: none; stroke: #8b0000; stroke-width: 1.5"/>
    </g>
    <g id="line2d_41"/>
    <g id="line2d_42">
     <g>
      <use xlink:href="#mf652147bf4" x="221.6" y="67.894688" style="fill: #8b0000; stroke: #8b0000"/>
     </g>
    </g>
    <g id="text_6">
     <!-- Fluxpoints Standard -->
     <g transform="translate(239.6 71.394688) scale(0.1 -0.1)">
      <defs>
       <path id="DejaVuSans-53" d="M 3425 4513 
L 3425 3897 
Q 3066 4069 2747 4153 
Q 2428 4238 2131 4238 
Q 1616 4238 1336 4038 
Q 1056 3838 1056 3469 
Q 1056 3159 1242 3001 
Q 1428 2844 1947 2747 
L 2328 2669 
Q 3034 2534 3370 2195 
Q 3706 1856 3706 1288 
Q 3706 609 3251 259 
Q 2797 -91 1919 -91 
Q 1588 -91 1214 -16 
Q 841 59 441 206 
L 441 856 
Q 825 641 1194 531 
Q 1563 422 1919 422 
Q 2459 422 2753 634 
Q 3047 847 3047 1241 
Q 3047 1584 2836 1778 
Q 2625 1972 2144 2069 
L 1759 2144 
Q 1053 2284 737 2584 
Q 422 2884 422 3419 
Q 422 4038 858 4394 
Q 1294 4750 2059 4750 
Q 2388 4750 2728 4690 
Q 3069 4631 3425 4513 
z
" transform="scale(0.015625)"/>
       <path id="DejaVuSans-72" d="M 2631 2963 
Q 2534 3019 2420 3045 
Q 2306 3072 2169 3072 
Q 1681 3072 1420 2755 
Q 1159 2438 1159 1844 
L 1159 0 
L 581 0 
L 581 3500 
L 1159 3500 
L 1159 2956 
Q 1341 3275 1631 3429 
Q 1922 3584 2338 3584 
Q 2397 3584 2469 3576 
Q 2541 3569 2628 3553 
L 2631 2963 
z
" transform="scale(0.015625)"/>
      </defs>
      <use xlink:href="#DejaVuSans-46"/>
      <use xlink:href="#DejaVuSans-6c" x="57.519531"/>
      <use xlink:href="#DejaVuSans-75" x="85.302734"/>
      <use xlink:href="#DejaVuSans-78" x="148.681641"/>
      <use xlink:href="#DejaVuSans-70" x="207.861328"/>
      <use xlink:href="#DejaVuSans-6f" x="271.337891"/>
      <use xlink:href="#DejaVuSans-69" x="332.519531"/>
      <use xlink:href="#DejaVuSans-6e" x="360.302734"/>
      <use xlink:href="#DejaVuSans-74" x="423.681641"/>
      <use xlink:href="#DejaVuSans-73" x="462.890625"/>
      <use xlink:href="#DejaVuSans-20" x="514.990234"/>
      <use xlink:href="#DejaVuSans-53" x="546.777344"/>
      <use xlink:href="#DejaVuSans-74" x="610.253906"/>
      <use xlink:href="#DejaVuSans-61" x="649.462891"/>
      <use xlink:href="#DejaVuSans-6e" x="710.742188"/>
      <use xlink:href="#DejaVuSans-64" x="774.121094"/>
      <use xlink:href="#DejaVuSans-61" x="837.597656"/>
      <use xlink:href="#DejaVuSans-72" x="898.876953"/>
      <use xlink:href="#DejaVuSans-64" x="938.240234"/>
     </g>
    </g>
    <g id="LineCollection_6">
     <path d="M 221.6 87.572813 
L 221.6 77.572813 
" style="fill: none; stroke: #1f77b4; stroke-width: 1.5"/>
    </g>
    <g id="line2d_43">
     <path d="M 211.6 82.572813 
L 231.6 82.572813 
" style="fill: none; stroke: #1f77b4; stroke-width: 1.5; stroke-linecap: square"/>
    </g>
    <g id="line2d_44"/>
    <g id="text_7">
     <!-- $\mu$, $\sigma$ -->
     <g transform="translate(239.6 86.072813) scale(0.1 -0.1)">
      <defs>
       <path id="DejaVuSans-Oblique-3bc" d="M -84 -1331 
L 856 3500 
L 1434 3500 
L 1009 1322 
Q 997 1256 987 1175 
Q 978 1094 978 1013 
Q 978 722 1161 565 
Q 1344 409 1684 409 
Q 2147 409 2431 671 
Q 2716 934 2816 1459 
L 3213 3500 
L 3788 3500 
L 3266 809 
Q 3253 750 3248 706 
Q 3244 663 3244 628 
Q 3244 531 3283 486 
Q 3322 441 3406 441 
Q 3438 441 3492 456 
Q 3547 472 3647 513 
L 3559 50 
Q 3422 -19 3297 -55 
Q 3172 -91 3053 -91 
Q 2847 -91 2730 40 
Q 2613 172 2613 403 
Q 2438 153 2195 31 
Q 1953 -91 1625 -91 
Q 1334 -91 1117 43 
Q 900 178 831 397 
L 494 -1331 
L -84 -1331 
z
" transform="scale(0.015625)"/>
       <path id="DejaVuSans-2c" d="M 750 794 
L 1409 794 
L 1409 256 
L 897 -744 
L 494 -744 
L 750 256 
L 750 794 
z
" transform="scale(0.015625)"/>
       <path id="DejaVuSans-Oblique-3c3" d="M 2219 3044 
Q 1744 3044 1422 2700 
Q 1081 2341 969 1747 
Q 844 1119 1044 756 
Q 1241 397 1706 397 
Q 2166 397 2503 759 
Q 2844 1122 2966 1747 
Q 3075 2319 2881 2700 
Q 2700 3044 2219 3044 
z
M 2309 3503 
L 4219 3500 
L 4106 2925 
L 3463 2925 
Q 3706 2438 3575 1747 
Q 3406 888 2884 400 
Q 2359 -91 1609 -91 
Q 856 -91 525 400 
Q 194 888 363 1747 
Q 528 2609 1050 3097 
Q 1484 3503 2309 3503 
z
" transform="scale(0.015625)"/>
      </defs>
      <use xlink:href="#DejaVuSans-Oblique-3bc" transform="translate(0 0.265625)"/>
      <use xlink:href="#DejaVuSans-2c" transform="translate(63.623047 0.265625)"/>
      <use xlink:href="#DejaVuSans-20" transform="translate(95.410156 0.265625)"/>
      <use xlink:href="#DejaVuSans-Oblique-3c3" transform="translate(127.197266 0.265625)"/>
     </g>
    </g>
   </g>
  </g>
  <g id="axes_2">
   <g id="patch_8">
    <path d="M 60.59 314.728 
L 349.2 314.728 
L 349.2 204.7328 
L 60.59 204.7328 
z
" style="fill: #ffffff"/>
   </g>
   <g id="matplotlib.axis_3">
    <g id="xtick_24">
     <g id="line2d_45">
      <g>
       <use xlink:href="#m1363a7b3f4" x="111.911919" y="314.728" style="stroke: #000000; stroke-width: 0.8"/>
      </g>
     </g>
     <g id="text_8">
      <!-- $\mathdefault{10^{0}}$ -->
      <g transform="translate(103.111919 329.326438) scale(0.1 -0.1)">
       <use xlink:href="#DejaVuSans-31" transform="translate(0 0.765625)"/>
       <use xlink:href="#DejaVuSans-30" transform="translate(63.623047 0.765625)"/>
       <use xlink:href="#DejaVuSans-30" transform="translate(128.203125 39.046875) scale(0.7)"/>
      </g>
     </g>
    </g>
    <g id="xtick_25">
     <g id="line2d_46">
      <g>
       <use xlink:href="#m1363a7b3f4" x="234.162425" y="314.728" style="stroke: #000000; stroke-width: 0.8"/>
      </g>
     </g>
     <g id="text_9">
      <!-- $\mathdefault{10^{1}}$ -->
      <g transform="translate(225.362425 329.326438) scale(0.1 -0.1)">
       <use xlink:href="#DejaVuSans-31" transform="translate(0 0.684375)"/>
       <use xlink:href="#DejaVuSans-30" transform="translate(63.623047 0.684375)"/>
       <use xlink:href="#DejaVuSans-31" transform="translate(128.203125 38.965625) scale(0.7)"/>
      </g>
     </g>
    </g>
    <g id="xtick_26">
     <g id="line2d_47">
      <g>
       <use xlink:href="#m22f2085bb6" x="63.263552" y="314.728" style="stroke: #000000; stroke-width: 0.6"/>
      </g>
     </g>
    </g>
    <g id="xtick_27">
     <g id="line2d_48">
      <g>
       <use xlink:href="#m22f2085bb6" x="75.11085" y="314.728" style="stroke: #000000; stroke-width: 0.6"/>
      </g>
     </g>
    </g>
    <g id="xtick_28">
     <g id="line2d_49">
      <g>
       <use xlink:href="#m22f2085bb6" x="84.790798" y="314.728" style="stroke: #000000; stroke-width: 0.6"/>
      </g>
     </g>
    </g>
    <g id="xtick_29">
     <g id="line2d_50">
      <g>
       <use xlink:href="#m22f2085bb6" x="92.975076" y="314.728" style="stroke: #000000; stroke-width: 0.6"/>
      </g>
     </g>
    </g>
    <g id="xtick_30">
     <g id="line2d_51">
      <g>
       <use xlink:href="#m22f2085bb6" x="100.064621" y="314.728" style="stroke: #000000; stroke-width: 0.6"/>
      </g>
     </g>
    </g>
    <g id="xtick_31">
     <g id="line2d_52">
      <g>
       <use xlink:href="#m22f2085bb6" x="106.318043" y="314.728" style="stroke: #000000; stroke-width: 0.6"/>
      </g>
     </g>
    </g>
    <g id="xtick_32">
     <g id="line2d_53">
      <g>
       <use xlink:href="#m22f2085bb6" x="148.712989" y="314.728" style="stroke: #000000; stroke-width: 0.6"/>
      </g>
     </g>
    </g>
    <g id="xtick_33">
     <g id="line2d_54">
      <g>
       <use xlink:href="#m22f2085bb6" x="170.240234" y="314.728" style="stroke: #000000; stroke-width: 0.6"/>
      </g>
     </g>
    </g>
    <g id="xtick_34">
     <g id="line2d_55">
      <g>
       <use xlink:href="#m22f2085bb6" x="185.514058" y="314.728" style="stroke: #000000; stroke-width: 0.6"/>
      </g>
     </g>
    </g>
    <g id="xtick_35">
     <g id="line2d_56">
      <g>
       <use xlink:href="#m22f2085bb6" x="197.361356" y="314.728" style="stroke: #000000; stroke-width: 0.6"/>
      </g>
     </g>
    </g>
    <g id="xtick_36">
     <g id="line2d_57">
      <g>
       <use xlink:href="#m22f2085bb6" x="207.041303" y="314.728" style="stroke: #000000; stroke-width: 0.6"/>
      </g>
     </g>
    </g>
    <g id="xtick_37">
     <g id="line2d_58">
      <g>
       <use xlink:href="#m22f2085bb6" x="215.225582" y="314.728" style="stroke: #000000; stroke-width: 0.6"/>
      </g>
     </g>
    </g>
    <g id="xtick_38">
     <g id="line2d_59">
      <g>
       <use xlink:href="#m22f2085bb6" x="222.315127" y="314.728" style="stroke: #000000; stroke-width: 0.6"/>
      </g>
     </g>
    </g>
    <g id="xtick_39">
     <g id="line2d_60">
      <g>
       <use xlink:href="#m22f2085bb6" x="228.568549" y="314.728" style="stroke: #000000; stroke-width: 0.6"/>
      </g>
     </g>
    </g>
    <g id="xtick_40">
     <g id="line2d_61">
      <g>
       <use xlink:href="#m22f2085bb6" x="270.963494" y="314.728" style="stroke: #000000; stroke-width: 0.6"/>
      </g>
     </g>
    </g>
    <g id="xtick_41">
     <g id="line2d_62">
      <g>
       <use xlink:href="#m22f2085bb6" x="292.49074" y="314.728" style="stroke: #000000; stroke-width: 0.6"/>
      </g>
     </g>
    </g>
    <g id="xtick_42">
     <g id="line2d_63">
      <g>
       <use xlink:href="#m22f2085bb6" x="307.764564" y="314.728" style="stroke: #000000; stroke-width: 0.6"/>
      </g>
     </g>
    </g>
    <g id="xtick_43">
     <g id="line2d_64">
      <g>
       <use xlink:href="#m22f2085bb6" x="319.611862" y="314.728" style="stroke: #000000; stroke-width: 0.6"/>
      </g>
     </g>
    </g>
    <g id="xtick_44">
     <g id="line2d_65">
      <g>
       <use xlink:href="#m22f2085bb6" x="329.291809" y="314.728" style="stroke: #000000; stroke-width: 0.6"/>
      </g>
     </g>
    </g>
    <g id="xtick_45">
     <g id="line2d_66">
      <g>
       <use xlink:href="#m22f2085bb6" x="337.476088" y="314.728" style="stroke: #000000; stroke-width: 0.6"/>
      </g>
     </g>
    </g>
    <g id="xtick_46">
     <g id="line2d_67">
      <g>
       <use xlink:href="#m22f2085bb6" x="344.565633" y="314.728" style="stroke: #000000; stroke-width: 0.6"/>
      </g>
     </g>
    </g>
    <g id="text_10">
     <!-- Energy [TeV] -->
     <g transform="translate(173.197344 343.004563) scale(0.1 -0.1)">
      <defs>
       <path id="DejaVuSans-45" d="M 628 4666 
L 3578 4666 
L 3578 4134 
L 1259 4134 
L 1259 2753 
L 3481 2753 
L 3481 2222 
L 1259 2222 
L 1259 531 
L 3634 531 
L 3634 0 
L 628 0 
L 628 4666 
z
" transform="scale(0.015625)"/>
       <path id="DejaVuSans-67" d="M 2906 1791 
Q 2906 2416 2648 2759 
Q 2391 3103 1925 3103 
Q 1463 3103 1205 2759 
Q 947 2416 947 1791 
Q 947 1169 1205 825 
Q 1463 481 1925 481 
Q 2391 481 2648 825 
Q 2906 1169 2906 1791 
z
M 3481 434 
Q 3481 -459 3084 -895 
Q 2688 -1331 1869 -1331 
Q 1566 -1331 1297 -1286 
Q 1028 -1241 775 -1147 
L 775 -588 
Q 1028 -725 1275 -790 
Q 1522 -856 1778 -856 
Q 2344 -856 2625 -561 
Q 2906 -266 2906 331 
L 2906 616 
Q 2728 306 2450 153 
Q 2172 0 1784 0 
Q 1141 0 747 490 
Q 353 981 353 1791 
Q 353 2603 747 3093 
Q 1141 3584 1784 3584 
Q 2172 3584 2450 3431 
Q 2728 3278 2906 2969 
L 2906 3500 
L 3481 3500 
L 3481 434 
z
" transform="scale(0.015625)"/>
       <path id="DejaVuSans-79" d="M 2059 -325 
Q 1816 -950 1584 -1140 
Q 1353 -1331 966 -1331 
L 506 -1331 
L 506 -850 
L 844 -850 
Q 1081 -850 1212 -737 
Q 1344 -625 1503 -206 
L 1606 56 
L 191 3500 
L 800 3500 
L 1894 763 
L 2988 3500 
L 3597 3500 
L 2059 -325 
z
" transform="scale(0.015625)"/>
      </defs>
      <use xlink:href="#DejaVuSans-45"/>
      <use xlink:href="#DejaVuSans-6e" x="63.183594"/>
      <use xlink:href="#DejaVuSans-65" x="126.5625"/>
      <use xlink:href="#DejaVuSans-72" x="188.085938"/>
      <use xlink:href="#DejaVuSans-67" x="227.449219"/>
      <use xlink:href="#DejaVuSans-79" x="290.925781"/>
      <use xlink:href="#DejaVuSans-20" x="350.105469"/>
      <use xlink:href="#DejaVuSans-5b" x="381.892578"/>
      <use xlink:href="#DejaVuSans-54" x="420.90625"/>
      <use xlink:href="#DejaVuSans-65" x="464.990234"/>
      <use xlink:href="#DejaVuSans-56" x="526.513672"/>
      <use xlink:href="#DejaVuSans-5d" x="594.921875"/>
     </g>
    </g>
   </g>
   <g id="matplotlib.axis_4">
    <g id="ytick_11">
     <g id="line2d_68">
      <g>
       <use xlink:href="#m065581fc3c" x="60.59" y="294.344274" style="stroke: #000000; stroke-width: 0.8"/>
      </g>
     </g>
     <g id="text_11">
      <!-- 0.600 -->
      <g transform="translate(24.961875 298.143493) scale(0.1 -0.1)">
       <defs>
        <path id="DejaVuSans-2e" d="M 684 794 
L 1344 794 
L 1344 0 
L 684 0 
L 684 794 
z
" transform="scale(0.015625)"/>
        <path id="DejaVuSans-36" d="M 2113 2584 
Q 1688 2584 1439 2293 
Q 1191 2003 1191 1497 
Q 1191 994 1439 701 
Q 1688 409 2113 409 
Q 2538 409 2786 701 
Q 3034 994 3034 1497 
Q 3034 2003 2786 2293 
Q 2538 2584 2113 2584 
z
M 3366 4563 
L 3366 3988 
Q 3128 4100 2886 4159 
Q 2644 4219 2406 4219 
Q 1781 4219 1451 3797 
Q 1122 3375 1075 2522 
Q 1259 2794 1537 2939 
Q 1816 3084 2150 3084 
Q 2853 3084 3261 2657 
Q 3669 2231 3669 1497 
Q 3669 778 3244 343 
Q 2819 -91 2113 -91 
Q 1303 -91 875 529 
Q 447 1150 447 2328 
Q 447 3434 972 4092 
Q 1497 4750 2381 4750 
Q 2619 4750 2861 4703 
Q 3103 4656 3366 4563 
z
" transform="scale(0.015625)"/>
       </defs>
       <use xlink:href="#DejaVuSans-30"/>
       <use xlink:href="#DejaVuSans-2e" x="63.623047"/>
       <use xlink:href="#DejaVuSans-36" x="95.410156"/>
       <use xlink:href="#DejaVuSans-30" x="159.033203"/>
       <use xlink:href="#DejaVuSans-30" x="222.65625"/>
      </g>
     </g>
    </g>
    <g id="ytick_12">
     <g id="line2d_69">
      <g>
       <use xlink:href="#m065581fc3c" x="60.59" y="270.306862" style="stroke: #000000; stroke-width: 0.8"/>
      </g>
     </g>
     <g id="text_12">
      <!-- 0.625 -->
      <g transform="translate(24.961875 274.10608) scale(0.1 -0.1)">
       <defs>
        <path id="DejaVuSans-35" d="M 691 4666 
L 3169 4666 
L 3169 4134 
L 1269 4134 
L 1269 2991 
Q 1406 3038 1543 3061 
Q 1681 3084 1819 3084 
Q 2600 3084 3056 2656 
Q 3513 2228 3513 1497 
Q 3513 744 3044 326 
Q 2575 -91 1722 -91 
Q 1428 -91 1123 -41 
Q 819 9 494 109 
L 494 744 
Q 775 591 1075 516 
Q 1375 441 1709 441 
Q 2250 441 2565 725 
Q 2881 1009 2881 1497 
Q 2881 1984 2565 2268 
Q 2250 2553 1709 2553 
Q 1456 2553 1204 2497 
Q 953 2441 691 2322 
L 691 4666 
z
" transform="scale(0.015625)"/>
       </defs>
       <use xlink:href="#DejaVuSans-30"/>
       <use xlink:href="#DejaVuSans-2e" x="63.623047"/>
       <use xlink:href="#DejaVuSans-36" x="95.410156"/>
       <use xlink:href="#DejaVuSans-32" x="159.033203"/>
       <use xlink:href="#DejaVuSans-35" x="222.65625"/>
      </g>
     </g>
    </g>
    <g id="ytick_13">
     <g id="line2d_70">
      <g>
       <use xlink:href="#m065581fc3c" x="60.59" y="246.269449" style="stroke: #000000; stroke-width: 0.8"/>
      </g>
     </g>
     <g id="text_13">
      <!-- 0.650 -->
      <g transform="translate(24.961875 250.068668) scale(0.1 -0.1)">
       <use xlink:href="#DejaVuSans-30"/>
       <use xlink:href="#DejaVuSans-2e" x="63.623047"/>
       <use xlink:href="#DejaVuSans-36" x="95.410156"/>
       <use xlink:href="#DejaVuSans-35" x="159.033203"/>
       <use xlink:href="#DejaVuSans-30" x="222.65625"/>
      </g>
     </g>
    </g>
    <g id="ytick_14">
     <g id="line2d_71">
      <g>
       <use xlink:href="#m065581fc3c" x="60.59" y="222.232036" style="stroke: #000000; stroke-width: 0.8"/>
      </g>
     </g>
     <g id="text_14">
      <!-- 0.675 -->
      <g transform="translate(24.961875 226.031255) scale(0.1 -0.1)">
       <defs>
        <path id="DejaVuSans-37" d="M 525 4666 
L 3525 4666 
L 3525 4397 
L 1831 0 
L 1172 0 
L 2766 4134 
L 525 4134 
L 525 4666 
z
" transform="scale(0.015625)"/>
       </defs>
       <use xlink:href="#DejaVuSans-30"/>
       <use xlink:href="#DejaVuSans-2e" x="63.623047"/>
       <use xlink:href="#DejaVuSans-36" x="95.410156"/>
       <use xlink:href="#DejaVuSans-37" x="159.033203"/>
       <use xlink:href="#DejaVuSans-35" x="222.65625"/>
      </g>
     </g>
    </g>
    <g id="text_15">
     <!-- Coverage -->
     <g transform="translate(18.882188 283.687431) rotate(-90) scale(0.1 -0.1)">
      <defs>
       <path id="DejaVuSans-43" d="M 4122 4306 
L 4122 3641 
Q 3803 3938 3442 4084 
Q 3081 4231 2675 4231 
Q 1875 4231 1450 3742 
Q 1025 3253 1025 2328 
Q 1025 1406 1450 917 
Q 1875 428 2675 428 
Q 3081 428 3442 575 
Q 3803 722 4122 1019 
L 4122 359 
Q 3791 134 3420 21 
Q 3050 -91 2638 -91 
Q 1578 -91 968 557 
Q 359 1206 359 2328 
Q 359 3453 968 4101 
Q 1578 4750 2638 4750 
Q 3056 4750 3426 4639 
Q 3797 4528 4122 4306 
z
" transform="scale(0.015625)"/>
       <path id="DejaVuSans-76" d="M 191 3500 
L 800 3500 
L 1894 563 
L 2988 3500 
L 3597 3500 
L 2284 0 
L 1503 0 
L 191 3500 
z
" transform="scale(0.015625)"/>
      </defs>
      <use xlink:href="#DejaVuSans-43"/>
      <use xlink:href="#DejaVuSans-6f" x="69.824219"/>
      <use xlink:href="#DejaVuSans-76" x="131.005859"/>
      <use xlink:href="#DejaVuSans-65" x="190.185547"/>
      <use xlink:href="#DejaVuSans-72" x="251.708984"/>
      <use xlink:href="#DejaVuSans-61" x="292.822266"/>
      <use xlink:href="#DejaVuSans-67" x="354.101562"/>
      <use xlink:href="#DejaVuSans-65" x="417.578125"/>
     </g>
    </g>
   </g>
   <g id="line2d_72">
    <path d="M 73.708636 211.655575 
L 88.98995 260.691897 
L 104.271263 299.151757 
L 119.552576 305.882232 
L 134.833889 309.728218 
L 150.115202 304.920736 
L 165.396516 305.882232 
L 180.677829 292.421281 
L 195.959142 300.113253 
L 211.240455 284.729309 
L 226.521769 265.499379 
L 241.803082 252.999924 
L 257.084395 285.690806 
L 272.365708 258.768903 
L 287.647021 271.268358 
L 302.928335 244.346456 
L 318.209648 236.654484 
L 333.490961 249.153938 
" clip-path="url(#pf856ecee92)" style="fill: none; stroke: #ff0000; stroke-width: 1.5; stroke-linecap: square"/>
   </g>
   <g id="line2d_73">
    <path d="M 73.708636 209.732582 
L 88.98995 249.153938 
L 104.271263 252.038428 
L 119.552576 233.769994 
L 134.833889 249.153938 
L 150.115202 237.61598 
L 165.396516 250.115435 
L 180.677829 244.346456 
L 195.959142 269.345365 
L 211.240455 249.153938 
L 226.521769 241.461966 
L 241.803082 234.731491 
L 257.084395 267.422372 
L 272.365708 252.999924 
L 287.647021 258.768903 
L 302.928335 237.61598 
L 318.209648 230.885505 
L 333.490961 244.346456 
" clip-path="url(#pf856ecee92)" style="fill: none; stroke: #008000; stroke-width: 1.5; stroke-linecap: square"/>
   </g>
   <g id="line2d_74">
    <path d="M 73.708636 217.424554 
L 88.98995 217.424554 
L 104.271263 217.424554 
L 119.552576 217.424554 
L 134.833889 217.424554 
L 150.115202 217.424554 
L 165.396516 217.424554 
L 180.677829 217.424554 
L 195.959142 217.424554 
L 211.240455 217.424554 
L 226.521769 217.424554 
L 241.803082 217.424554 
L 257.084395 217.424554 
L 272.365708 217.424554 
L 287.647021 217.424554 
L 302.928335 217.424554 
L 318.209648 217.424554 
L 333.490961 217.424554 
" clip-path="url(#pf856ecee92)" style="fill: none; stroke-dasharray: 1.5,2.475; stroke-dashoffset: 0; stroke: #008000; stroke-width: 1.5"/>
   </g>
   <g id="patch_9">
    <path d="M 60.59 314.728 
L 60.59 204.7328 
" style="fill: none; stroke: #000000; stroke-width: 0.8; stroke-linejoin: miter; stroke-linecap: square"/>
   </g>
   <g id="patch_10">
    <path d="M 349.2 314.728 
L 349.2 204.7328 
" style="fill: none; stroke: #000000; stroke-width: 0.8; stroke-linejoin: miter; stroke-linecap: square"/>
   </g>
   <g id="patch_11">
    <path d="M 60.59 314.728 
L 349.2 314.728 
" style="fill: none; stroke: #000000; stroke-width: 0.8; stroke-linejoin: miter; stroke-linecap: square"/>
   </g>
   <g id="patch_12">
    <path d="M 60.59 204.7328 
L 349.2 204.7328 
" style="fill: none; stroke: #000000; stroke-width: 0.8; stroke-linejoin: miter; stroke-linecap: square"/>
   </g>
   <g id="legend_2">
    <g id="patch_13">
     <path d="M 264.276563 309.728 
L 342.2 309.728 
Q 344.2 309.728 344.2 307.728 
L 344.2 264.693625 
Q 344.2 262.693625 342.2 262.693625 
L 264.276563 262.693625 
Q 262.276563 262.693625 262.276563 264.693625 
L 262.276563 307.728 
Q 262.276563 309.728 264.276563 309.728 
z
" style="fill: #ffffff; opacity: 0.8; stroke: #cccccc; stroke-linejoin: miter"/>
    </g>
    <g id="line2d_75">
     <path d="M 266.276563 270.792063 
L 276.276563 270.792063 
L 286.276563 270.792063 
" style="fill: none; stroke: #ff0000; stroke-width: 1.5; stroke-linecap: square"/>
    </g>
    <g id="text_16">
     <!-- Standard -->
     <g transform="translate(294.276563 274.292063) scale(0.1 -0.1)">
      <use xlink:href="#DejaVuSans-53"/>
      <use xlink:href="#DejaVuSans-74" x="63.476562"/>
      <use xlink:href="#DejaVuSans-61" x="102.685547"/>
      <use xlink:href="#DejaVuSans-6e" x="163.964844"/>
      <use xlink:href="#DejaVuSans-64" x="227.34375"/>
      <use xlink:href="#DejaVuSans-61" x="290.820312"/>
      <use xlink:href="#DejaVuSans-72" x="352.099609"/>
      <use xlink:href="#DejaVuSans-64" x="391.462891"/>
     </g>
    </g>
    <g id="line2d_76">
     <path d="M 266.276563 285.470188 
L 276.276563 285.470188 
L 286.276563 285.470188 
" style="fill: none; stroke: #008000; stroke-width: 1.5; stroke-linecap: square"/>
    </g>
    <g id="text_17">
     <!-- Nuisance -->
     <g transform="translate(294.276563 288.970188) scale(0.1 -0.1)">
      <use xlink:href="#DejaVuSans-4e"/>
      <use xlink:href="#DejaVuSans-75" x="74.804688"/>
      <use xlink:href="#DejaVuSans-69" x="138.183594"/>
      <use xlink:href="#DejaVuSans-73" x="165.966797"/>
      <use xlink:href="#DejaVuSans-61" x="218.066406"/>
      <use xlink:href="#DejaVuSans-6e" x="279.345703"/>
      <use xlink:href="#DejaVuSans-63" x="342.724609"/>
      <use xlink:href="#DejaVuSans-65" x="397.705078"/>
     </g>
    </g>
    <g id="line2d_77">
     <path d="M 266.276563 300.148313 
L 276.276563 300.148313 
L 286.276563 300.148313 
" style="fill: none; stroke-dasharray: 1.5,2.475; stroke-dashoffset: 0; stroke: #008000; stroke-width: 1.5"/>
    </g>
    <g id="text_18">
     <!-- 68 % -->
     <g transform="translate(294.276563 303.648313) scale(0.1 -0.1)">
      <defs>
       <path id="DejaVuSans-38" d="M 2034 2216 
Q 1584 2216 1326 1975 
Q 1069 1734 1069 1313 
Q 1069 891 1326 650 
Q 1584 409 2034 409 
Q 2484 409 2743 651 
Q 3003 894 3003 1313 
Q 3003 1734 2745 1975 
Q 2488 2216 2034 2216 
z
M 1403 2484 
Q 997 2584 770 2862 
Q 544 3141 544 3541 
Q 544 4100 942 4425 
Q 1341 4750 2034 4750 
Q 2731 4750 3128 4425 
Q 3525 4100 3525 3541 
Q 3525 3141 3298 2862 
Q 3072 2584 2669 2484 
Q 3125 2378 3379 2068 
Q 3634 1759 3634 1313 
Q 3634 634 3220 271 
Q 2806 -91 2034 -91 
Q 1263 -91 848 271 
Q 434 634 434 1313 
Q 434 1759 690 2068 
Q 947 2378 1403 2484 
z
M 1172 3481 
Q 1172 3119 1398 2916 
Q 1625 2713 2034 2713 
Q 2441 2713 2670 2916 
Q 2900 3119 2900 3481 
Q 2900 3844 2670 4047 
Q 2441 4250 2034 4250 
Q 1625 4250 1398 4047 
Q 1172 3844 1172 3481 
z
" transform="scale(0.015625)"/>
       <path id="DejaVuSans-25" d="M 4653 2053 
Q 4381 2053 4226 1822 
Q 4072 1591 4072 1178 
Q 4072 772 4226 539 
Q 4381 306 4653 306 
Q 4919 306 5073 539 
Q 5228 772 5228 1178 
Q 5228 1588 5073 1820 
Q 4919 2053 4653 2053 
z
M 4653 2450 
Q 5147 2450 5437 2106 
Q 5728 1763 5728 1178 
Q 5728 594 5436 251 
Q 5144 -91 4653 -91 
Q 4153 -91 3862 251 
Q 3572 594 3572 1178 
Q 3572 1766 3864 2108 
Q 4156 2450 4653 2450 
z
M 1428 4353 
Q 1159 4353 1004 4120 
Q 850 3888 850 3481 
Q 850 3069 1003 2837 
Q 1156 2606 1428 2606 
Q 1700 2606 1854 2837 
Q 2009 3069 2009 3481 
Q 2009 3884 1853 4118 
Q 1697 4353 1428 4353 
z
M 4250 4750 
L 4750 4750 
L 1831 -91 
L 1331 -91 
L 4250 4750 
z
M 1428 4750 
Q 1922 4750 2215 4408 
Q 2509 4066 2509 3481 
Q 2509 2891 2217 2550 
Q 1925 2209 1428 2209 
Q 931 2209 642 2551 
Q 353 2894 353 3481 
Q 353 4063 643 4406 
Q 934 4750 1428 4750 
z
" transform="scale(0.015625)"/>
      </defs>
      <use xlink:href="#DejaVuSans-36"/>
      <use xlink:href="#DejaVuSans-38" x="63.623047"/>
      <use xlink:href="#DejaVuSans-20" x="127.246094"/>
      <use xlink:href="#DejaVuSans-25" x="159.033203"/>
     </g>
    </g>
   </g>
  </g>
 </g>
 <defs>
  <clipPath id="pbd1b00b138">
   <rect x="60.59" y="25.44" width="288.61" height="164.9928"/>
  </clipPath>
  <clipPath id="pf856ecee92">
   <rect x="60.59" y="204.7328" width="288.61" height="109.9952"/>
  </clipPath>
 </defs>
</svg>
