<?xml version="1.0" encoding="utf-8" standalone="no"?>
<!DOCTYPE svg PUBLIC "-//W3C//DTD SVG 1.1//EN"
  "http://www.w3.org/Graphics/SVG/1.1/DTD/svg11.dtd">
<svg xmlns:xlink="http://www.w3.org/1999/xlink" width="360pt" height="360pt" viewBox="0 0 360 360" xmlns="http://www.w3.org/2000/svg" version="1.1">
 <metadata>
  <rdf:RDF xmlns:dc="http://purl.org/dc/elements/1.1/" xmlns:cc="http://creativecommons.org/ns#" xmlns:rdf="http://www.w3.org/1999/02/22-rdf-syntax-ns#">
   <cc:Work>
    <dc:type rdf:resource="http://purl.org/dc/dcmitype/StillImage"/>
    <dc:date>2023-02-01T14:51:56.390240</dc:date>
    <dc:format>image/svg+xml</dc:format>
    <dc:creator>
     <cc:Agent>
      <dc:title>Matplotlib v3.6.2, https://matplotlib.org/</dc:title>
     </cc:Agent>
    </dc:creator>
   </cc:Work>
  </rdf:RDF>
 </metadata>
 <defs>
  <style type="text/css">*{stroke-linejoin: round; stroke-linecap: butt}</style>
 </defs>
 <g id="figure_1">
  <g id="patch_1">
   <path d="M 0 360 
L 360 360 
L 360 0 
L 0 0 
z
" style="fill: #ffffff"/>
  </g>
  <g id="axes_1">
   <g id="patch_2">
    <path d="M 60.221389 188.576898 
L 349.2 188.576898 
L 349.2 25.44 
L 60.221389 25.44 
z
" style="fill: #ffffff"/>
   </g>
   <g id="PolyCollection_1">
    <path d="M 74.657351 69.935708 
L 74.657351 90.434778 
L 77.258493 91.165989 
L 79.859634 91.899828 
L 82.460775 92.636359 
L 85.061916 93.375646 
L 87.663057 94.117757 
L 90.264198 94.862762 
L 92.86534 95.610731 
L 95.466481 96.361737 
L 98.067622 97.115855 
L 100.668763 97.873162 
L 103.269904 98.633735 
L 105.871045 99.397654 
L 108.472187 100.164999 
L 111.073328 100.935852 
L 113.674469 101.710294 
L 116.27561 102.48841 
L 118.876751 103.270281 
L 121.477892 104.05599 
L 124.079034 104.845621 
L 126.680175 105.639255 
L 129.281316 106.436972 
L 131.882457 107.238852 
L 134.483598 108.044971 
L 137.084739 108.855406 
L 139.685881 109.670227 
L 142.287022 110.489503 
L 144.888163 111.3133 
L 147.489304 112.141679 
L 150.090445 112.974696 
L 152.691586 113.812402 
L 155.292728 114.654844 
L 157.893869 115.502062 
L 160.49501 116.35409 
L 163.096151 117.210958 
L 165.697292 118.072685 
L 168.298433 118.939288 
L 170.899575 119.810775 
L 173.500716 120.687146 
L 176.101857 121.568396 
L 178.702998 122.454513 
L 181.304139 123.345477 
L 183.90528 124.241263 
L 186.506422 125.141838 
L 189.107563 126.047164 
L 191.708704 126.957197 
L 194.309845 127.871887 
L 196.910986 128.79118 
L 199.512127 129.715016 
L 202.113269 130.643331 
L 204.71441 131.576058 
L 207.315551 132.513127 
L 209.916692 133.454462 
L 212.517833 134.399989 
L 215.118974 135.349628 
L 217.720116 136.303299 
L 220.321257 137.260921 
L 222.922398 138.222411 
L 225.523539 139.187688 
L 228.12468 140.156667 
L 230.725821 141.129265 
L 233.326963 142.105401 
L 235.928104 143.084993 
L 238.529245 144.067959 
L 241.130386 145.054221 
L 243.731527 146.043698 
L 246.332668 147.036316 
L 248.93381 148.031997 
L 251.534951 149.030669 
L 254.136092 150.03226 
L 256.737233 151.036699 
L 259.338374 152.043919 
L 261.939515 153.053854 
L 264.540657 154.066439 
L 267.141798 155.081614 
L 269.742939 156.099318 
L 272.34408 157.119493 
L 274.945221 158.142084 
L 277.546363 159.167038 
L 280.147504 160.194302 
L 282.748645 161.223827 
L 285.349786 162.255565 
L 287.950927 163.289471 
L 290.552068 164.325501 
L 293.15321 165.363613 
L 295.754351 166.403767 
L 298.355492 167.445923 
L 300.956633 168.490046 
L 303.557774 169.5361 
L 306.158915 170.584051 
L 308.760057 171.633868 
L 311.361198 172.68552 
L 313.962339 173.738978 
L 316.56348 174.794214 
L 319.164621 175.851201 
L 321.765762 176.909916 
L 324.366904 177.970334 
L 326.968045 179.032432 
L 329.569186 180.096189 
L 332.170327 181.161585 
L 332.170327 153.394369 
L 332.170327 153.394369 
L 329.569186 152.643289 
L 326.968045 151.891815 
L 324.366904 151.139922 
L 321.765762 150.387585 
L 319.164621 149.634777 
L 316.56348 148.88147 
L 313.962339 148.127635 
L 311.361198 147.373242 
L 308.760057 146.618259 
L 306.158915 145.862653 
L 303.557774 145.106391 
L 300.956633 144.349437 
L 298.355492 143.591753 
L 295.754351 142.833301 
L 293.15321 142.074041 
L 290.552068 141.313932 
L 287.950927 140.552929 
L 285.349786 139.790988 
L 282.748645 139.028062 
L 280.147504 138.264102 
L 277.546363 137.499058 
L 274.945221 136.732877 
L 272.34408 135.965505 
L 269.742939 135.196886 
L 267.141798 134.426962 
L 264.540657 133.655671 
L 261.939515 132.882953 
L 259.338374 132.108743 
L 256.737233 131.332974 
L 254.136092 130.555579 
L 251.534951 129.776487 
L 248.93381 128.995627 
L 246.332668 128.212924 
L 243.731527 127.428303 
L 241.130386 126.641687 
L 238.529245 125.852996 
L 235.928104 125.062152 
L 233.326963 124.269071 
L 230.725821 123.473673 
L 228.12468 122.675873 
L 225.523539 121.875588 
L 222.922398 121.072733 
L 220.321257 120.267224 
L 217.720116 119.458977 
L 215.118974 118.647908 
L 212.517833 117.833935 
L 209.916692 117.016977 
L 207.315551 116.196954 
L 204.71441 115.373789 
L 202.113269 114.547407 
L 199.512127 113.717736 
L 196.910986 112.884709 
L 194.309845 112.04826 
L 191.708704 111.20833 
L 189.107563 110.364864 
L 186.506422 109.517811 
L 183.90528 108.667126 
L 181.304139 107.812772 
L 178.702998 106.954716 
L 176.101857 106.092931 
L 173.500716 105.227399 
L 170.899575 104.358106 
L 168.298433 103.485047 
L 165.697292 102.608223 
L 163.096151 101.727642 
L 160.49501 100.84332 
L 157.893869 99.955278 
L 155.292728 99.063545 
L 152.691586 98.168155 
L 150.090445 97.26915 
L 147.489304 96.366575 
L 144.888163 95.460484 
L 142.287022 94.550932 
L 139.685881 93.637983 
L 137.084739 92.7217 
L 134.483598 91.802155 
L 131.882457 90.879419 
L 129.281316 89.953569 
L 126.680175 89.024683 
L 124.079034 88.092841 
L 121.477892 87.158124 
L 118.876751 86.220616 
L 116.27561 85.280401 
L 113.674469 84.337562 
L 111.073328 83.392183 
L 108.472187 82.44435 
L 105.871045 81.494146 
L 103.269904 80.541653 
L 100.668763 79.586955 
L 98.067622 78.630131 
L 95.466481 77.671262 
L 92.86534 76.710426 
L 90.264198 75.747699 
L 87.663057 74.783157 
L 85.061916 73.816872 
L 82.460775 72.848917 
L 79.859634 71.87936 
L 77.258493 70.908268 
L 74.657351 69.935708 
z
" clip-path="url(#pca8972218f)" style="fill: #008000; fill-opacity: 0.5"/>
   </g>
   <g id="PolyCollection_2">
    <path d="M 74.657351 72.376471 
L 74.657351 87.150923 
L 77.258493 87.849274 
L 79.859634 88.549564 
L 82.460775 89.251871 
L 85.061916 89.956281 
L 87.663057 90.662886 
L 90.264198 91.371787 
L 92.86534 92.083093 
L 95.466481 92.796921 
L 98.067622 93.5134 
L 100.668763 94.232669 
L 103.269904 94.954878 
L 105.871045 95.680189 
L 108.472187 96.408777 
L 111.073328 97.140832 
L 113.674469 97.876556 
L 116.27561 98.61617 
L 118.876751 99.359905 
L 121.477892 100.108014 
L 124.079034 100.86076 
L 126.680175 101.618426 
L 129.281316 102.381306 
L 131.882457 103.14971 
L 134.483598 103.923959 
L 137.084739 104.704382 
L 139.685881 105.491316 
L 142.287022 106.285097 
L 144.888163 107.086058 
L 147.489304 107.894527 
L 150.090445 108.710811 
L 152.691586 109.535198 
L 155.292728 110.367948 
L 157.893869 111.209284 
L 160.49501 112.059385 
L 163.096151 112.918385 
L 165.697292 113.786366 
L 168.298433 114.663355 
L 170.899575 115.549322 
L 173.500716 116.444187 
L 176.101857 117.347813 
L 178.702998 118.260019 
L 181.304139 119.180582 
L 183.90528 120.109241 
L 186.506422 121.045709 
L 189.107563 121.989676 
L 191.708704 122.940815 
L 194.309845 123.898793 
L 196.910986 124.863273 
L 199.512127 125.833919 
L 202.113269 126.810402 
L 204.71441 127.792401 
L 207.315551 128.779607 
L 209.916692 129.771725 
L 212.517833 130.768474 
L 215.118974 131.769589 
L 217.720116 132.77482 
L 220.321257 133.783935 
L 222.922398 134.796714 
L 225.523539 135.812955 
L 228.12468 136.832469 
L 230.725821 137.85508 
L 233.326963 138.880627 
L 235.928104 139.90896 
L 238.529245 140.939941 
L 241.130386 141.973441 
L 243.731527 143.009343 
L 246.332668 144.047538 
L 248.93381 145.087926 
L 251.534951 146.130414 
L 254.136092 147.174917 
L 256.737233 148.221357 
L 259.338374 149.269662 
L 261.939515 150.319763 
L 264.540657 151.371601 
L 267.141798 152.425119 
L 269.742939 153.480263 
L 272.34408 154.536987 
L 274.945221 155.595244 
L 277.546363 156.654996 
L 280.147504 157.716203 
L 282.748645 158.778831 
L 285.349786 159.842847 
L 287.950927 160.908223 
L 290.552068 161.97493 
L 293.15321 163.042945 
L 295.754351 164.112243 
L 298.355492 165.182803 
L 300.956633 166.254606 
L 303.557774 167.327635 
L 306.158915 168.401872 
L 308.760057 169.477302 
L 311.361198 170.553912 
L 313.962339 171.631689 
L 316.56348 172.710622 
L 319.164621 173.790701 
L 321.765762 174.871915 
L 324.366904 175.954258 
L 326.968045 177.03772 
L 329.569186 178.122296 
L 332.170327 179.207979 
L 332.170327 154.652339 
L 332.170327 154.652339 
L 329.569186 153.921498 
L 326.968045 153.190765 
L 324.366904 152.460129 
L 321.765762 151.729579 
L 319.164621 150.999104 
L 316.56348 150.268691 
L 313.962339 149.538327 
L 311.361198 148.807997 
L 308.760057 148.077687 
L 306.158915 147.34738 
L 303.557774 146.61706 
L 300.956633 145.886707 
L 298.355492 145.156302 
L 295.754351 144.425823 
L 293.15321 143.695248 
L 290.552068 142.964552 
L 287.950927 142.233709 
L 285.349786 141.50269 
L 282.748645 140.771467 
L 280.147504 140.040005 
L 277.546363 139.308271 
L 274.945221 138.576226 
L 272.34408 137.843831 
L 269.742939 137.111041 
L 267.141798 136.377809 
L 264.540657 135.644085 
L 261.939515 134.909814 
L 259.338374 134.174938 
L 256.737233 133.439392 
L 254.136092 132.703107 
L 251.534951 131.966009 
L 248.93381 131.228017 
L 246.332668 130.489044 
L 243.731527 129.748996 
L 241.130386 129.007771 
L 238.529245 128.265258 
L 235.928104 127.521337 
L 233.326963 126.775879 
L 230.725821 126.028745 
L 228.12468 125.279781 
L 225.523539 124.528826 
L 222.922398 123.775702 
L 220.321257 123.020219 
L 217.720116 122.262173 
L 215.118974 121.501345 
L 212.517833 120.7375 
L 209.916692 119.970387 
L 207.315551 119.199739 
L 204.71441 118.425276 
L 202.113269 117.6467 
L 199.512127 116.863703 
L 196.910986 116.075963 
L 194.309845 115.283149 
L 191.708704 114.484925 
L 189.107563 113.680954 
L 186.506422 112.870901 
L 183.90528 112.05444 
L 181.304139 111.23126 
L 178.702998 110.401073 
L 176.101857 109.563618 
L 173.500716 108.718672 
L 170.899575 107.866053 
L 168.298433 107.005626 
L 165.697292 106.137308 
L 163.096151 105.261071 
L 160.49501 104.376941 
L 157.893869 103.485002 
L 155.292728 102.585384 
L 152.691586 101.678271 
L 150.090445 100.763884 
L 147.489304 99.842483 
L 144.888163 98.914356 
L 142.287022 97.979813 
L 139.685881 97.039179 
L 137.084739 96.09279 
L 134.483598 95.140983 
L 131.882457 94.184094 
L 129.281316 93.222453 
L 126.680175 92.256383 
L 124.079034 91.286194 
L 121.477892 90.312181 
L 118.876751 89.334627 
L 116.27561 88.353799 
L 113.674469 87.369948 
L 111.073328 86.383308 
L 108.472187 85.3941 
L 105.871045 84.402529 
L 103.269904 83.408784 
L 100.668763 82.413043 
L 98.067622 81.41547 
L 95.466481 80.416216 
L 92.86534 79.415421 
L 90.264198 78.413216 
L 87.663057 77.40972 
L 85.061916 76.405043 
L 82.460775 75.399289 
L 79.859634 74.392552 
L 77.258493 73.384919 
L 74.657351 72.376471 
z
" clip-path="url(#pca8972218f)" style="fill: #ff0000; fill-opacity: 0.6"/>
   </g>
   <g id="matplotlib.axis_1">
    <g id="xtick_1">
     <g id="line2d_1">
      <defs>
       <path id="m039715d901" d="M 0 0 
L 0 3.5 
" style="stroke: #000000; stroke-width: 0.8"/>
      </defs>
      <g>
       <use xlink:href="#m039715d901" x="111.608857" y="188.576898" style="stroke: #000000; stroke-width: 0.8"/>
      </g>
     </g>
    </g>
    <g id="xtick_2">
     <g id="line2d_2">
      <g>
       <use xlink:href="#m039715d901" x="234.0155" y="188.576898" style="stroke: #000000; stroke-width: 0.8"/>
      </g>
     </g>
    </g>
    <g id="xtick_3">
     <g id="line2d_3">
      <defs>
       <path id="md1c98a74d1" d="M 0 0 
L 0 2 
" style="stroke: #000000; stroke-width: 0.6"/>
      </defs>
      <g>
       <use xlink:href="#md1c98a74d1" x="62.898356" y="188.576898" style="stroke: #000000; stroke-width: 0.6"/>
      </g>
     </g>
    </g>
    <g id="xtick_4">
     <g id="line2d_4">
      <g>
       <use xlink:href="#md1c98a74d1" x="74.760785" y="188.576898" style="stroke: #000000; stroke-width: 0.6"/>
      </g>
     </g>
    </g>
    <g id="xtick_5">
     <g id="line2d_5">
      <g>
       <use xlink:href="#md1c98a74d1" x="84.453096" y="188.576898" style="stroke: #000000; stroke-width: 0.6"/>
      </g>
     </g>
    </g>
    <g id="xtick_6">
     <g id="line2d_6">
      <g>
       <use xlink:href="#md1c98a74d1" x="92.647828" y="188.576898" style="stroke: #000000; stroke-width: 0.6"/>
      </g>
     </g>
    </g>
    <g id="xtick_7">
     <g id="line2d_7">
      <g>
       <use xlink:href="#md1c98a74d1" x="99.746427" y="188.576898" style="stroke: #000000; stroke-width: 0.6"/>
      </g>
     </g>
    </g>
    <g id="xtick_8">
     <g id="line2d_8">
      <g>
       <use xlink:href="#md1c98a74d1" x="106.007836" y="188.576898" style="stroke: #000000; stroke-width: 0.6"/>
      </g>
     </g>
    </g>
    <g id="xtick_9">
     <g id="line2d_9">
      <g>
       <use xlink:href="#md1c98a74d1" x="148.456928" y="188.576898" style="stroke: #000000; stroke-width: 0.6"/>
      </g>
     </g>
    </g>
    <g id="xtick_10">
     <g id="line2d_10">
      <g>
       <use xlink:href="#md1c98a74d1" x="170.011668" y="188.576898" style="stroke: #000000; stroke-width: 0.6"/>
      </g>
     </g>
    </g>
    <g id="xtick_11">
     <g id="line2d_11">
      <g>
       <use xlink:href="#md1c98a74d1" x="185.304999" y="188.576898" style="stroke: #000000; stroke-width: 0.6"/>
      </g>
     </g>
    </g>
    <g id="xtick_12">
     <g id="line2d_12">
      <g>
       <use xlink:href="#md1c98a74d1" x="197.167429" y="188.576898" style="stroke: #000000; stroke-width: 0.6"/>
      </g>
     </g>
    </g>
    <g id="xtick_13">
     <g id="line2d_13">
      <g>
       <use xlink:href="#md1c98a74d1" x="206.859739" y="188.576898" style="stroke: #000000; stroke-width: 0.6"/>
      </g>
     </g>
    </g>
    <g id="xtick_14">
     <g id="line2d_14">
      <g>
       <use xlink:href="#md1c98a74d1" x="215.054471" y="188.576898" style="stroke: #000000; stroke-width: 0.6"/>
      </g>
     </g>
    </g>
    <g id="xtick_15">
     <g id="line2d_15">
      <g>
       <use xlink:href="#md1c98a74d1" x="222.153071" y="188.576898" style="stroke: #000000; stroke-width: 0.6"/>
      </g>
     </g>
    </g>
    <g id="xtick_16">
     <g id="line2d_16">
      <g>
       <use xlink:href="#md1c98a74d1" x="228.414479" y="188.576898" style="stroke: #000000; stroke-width: 0.6"/>
      </g>
     </g>
    </g>
    <g id="xtick_17">
     <g id="line2d_17">
      <g>
       <use xlink:href="#md1c98a74d1" x="270.863571" y="188.576898" style="stroke: #000000; stroke-width: 0.6"/>
      </g>
     </g>
    </g>
    <g id="xtick_18">
     <g id="line2d_18">
      <g>
       <use xlink:href="#md1c98a74d1" x="292.418311" y="188.576898" style="stroke: #000000; stroke-width: 0.6"/>
      </g>
     </g>
    </g>
    <g id="xtick_19">
     <g id="line2d_19">
      <g>
       <use xlink:href="#md1c98a74d1" x="307.711643" y="188.576898" style="stroke: #000000; stroke-width: 0.6"/>
      </g>
     </g>
    </g>
    <g id="xtick_20">
     <g id="line2d_20">
      <g>
       <use xlink:href="#md1c98a74d1" x="319.574072" y="188.576898" style="stroke: #000000; stroke-width: 0.6"/>
      </g>
     </g>
    </g>
    <g id="xtick_21">
     <g id="line2d_21">
      <g>
       <use xlink:href="#md1c98a74d1" x="329.266382" y="188.576898" style="stroke: #000000; stroke-width: 0.6"/>
      </g>
     </g>
    </g>
    <g id="xtick_22">
     <g id="line2d_22">
      <g>
       <use xlink:href="#md1c98a74d1" x="337.461114" y="188.576898" style="stroke: #000000; stroke-width: 0.6"/>
      </g>
     </g>
    </g>
    <g id="xtick_23">
     <g id="line2d_23">
      <g>
       <use xlink:href="#md1c98a74d1" x="344.559714" y="188.576898" style="stroke: #000000; stroke-width: 0.6"/>
      </g>
     </g>
    </g>
   </g>
   <g id="matplotlib.axis_2">
    <g id="ytick_1">
     <g id="line2d_24">
      <defs>
       <path id="m6723ef4867" d="M 0 0 
L -3.5 0 
" style="stroke: #000000; stroke-width: 0.8"/>
      </defs>
      <g>
       <use xlink:href="#m6723ef4867" x="60.221389" y="91.698604" style="stroke: #000000; stroke-width: 0.8"/>
      </g>
     </g>
     <g id="text_1">
      <!-- $\mathdefault{10^{-12}}$ -->
      <g transform="translate(25.321389 95.497823) scale(0.1 -0.1)">
       <defs>
        <path id="DejaVuSans-31" d="M 794 531 
L 1825 531 
L 1825 4091 
L 703 3866 
L 703 4441 
L 1819 4666 
L 2450 4666 
L 2450 531 
L 3481 531 
L 3481 0 
L 794 0 
L 794 531 
z
" transform="scale(0.015625)"/>
        <path id="DejaVuSans-30" d="M 2034 4250 
Q 1547 4250 1301 3770 
Q 1056 3291 1056 2328 
Q 1056 1369 1301 889 
Q 1547 409 2034 409 
Q 2525 409 2770 889 
Q 3016 1369 3016 2328 
Q 3016 3291 2770 3770 
Q 2525 4250 2034 4250 
z
M 2034 4750 
Q 2819 4750 3233 4129 
Q 3647 3509 3647 2328 
Q 3647 1150 3233 529 
Q 2819 -91 2034 -91 
Q 1250 -91 836 529 
Q 422 1150 422 2328 
Q 422 3509 836 4129 
Q 1250 4750 2034 4750 
z
" transform="scale(0.015625)"/>
        <path id="DejaVuSans-2212" d="M 678 2272 
L 4684 2272 
L 4684 1741 
L 678 1741 
L 678 2272 
z
" transform="scale(0.015625)"/>
        <path id="DejaVuSans-32" d="M 1228 531 
L 3431 531 
L 3431 0 
L 469 0 
L 469 531 
Q 828 903 1448 1529 
Q 2069 2156 2228 2338 
Q 2531 2678 2651 2914 
Q 2772 3150 2772 3378 
Q 2772 3750 2511 3984 
Q 2250 4219 1831 4219 
Q 1534 4219 1204 4116 
Q 875 4013 500 3803 
L 500 4441 
Q 881 4594 1212 4672 
Q 1544 4750 1819 4750 
Q 2544 4750 2975 4387 
Q 3406 4025 3406 3419 
Q 3406 3131 3298 2873 
Q 3191 2616 2906 2266 
Q 2828 2175 2409 1742 
Q 1991 1309 1228 531 
z
" transform="scale(0.015625)"/>
       </defs>
       <use xlink:href="#DejaVuSans-31" transform="translate(0 0.765625)"/>
       <use xlink:href="#DejaVuSans-30" transform="translate(63.623047 0.765625)"/>
       <use xlink:href="#DejaVuSans-2212" transform="translate(128.203125 39.046875) scale(0.7)"/>
       <use xlink:href="#DejaVuSans-31" transform="translate(186.855469 39.046875) scale(0.7)"/>
       <use xlink:href="#DejaVuSans-32" transform="translate(231.391602 39.046875) scale(0.7)"/>
      </g>
     </g>
    </g>
    <g id="ytick_2">
     <g id="line2d_25">
      <defs>
       <path id="m0864bd44b3" d="M 0 0 
L -2 0 
" style="stroke: #000000; stroke-width: 0.6"/>
      </defs>
      <g>
       <use xlink:href="#m0864bd44b3" x="60.221389" y="187.347794" style="stroke: #000000; stroke-width: 0.6"/>
      </g>
     </g>
    </g>
    <g id="ytick_3">
     <g id="line2d_26">
      <g>
       <use xlink:href="#m0864bd44b3" x="60.221389" y="163.250928" style="stroke: #000000; stroke-width: 0.6"/>
      </g>
     </g>
    </g>
    <g id="ytick_4">
     <g id="line2d_27">
      <g>
       <use xlink:href="#m0864bd44b3" x="60.221389" y="146.15393" style="stroke: #000000; stroke-width: 0.6"/>
      </g>
     </g>
    </g>
    <g id="ytick_5">
     <g id="line2d_28">
      <g>
       <use xlink:href="#m0864bd44b3" x="60.221389" y="132.892468" style="stroke: #000000; stroke-width: 0.6"/>
      </g>
     </g>
    </g>
    <g id="ytick_6">
     <g id="line2d_29">
      <g>
       <use xlink:href="#m0864bd44b3" x="60.221389" y="122.057064" style="stroke: #000000; stroke-width: 0.6"/>
      </g>
     </g>
    </g>
    <g id="ytick_7">
     <g id="line2d_30">
      <g>
       <use xlink:href="#m0864bd44b3" x="60.221389" y="112.895861" style="stroke: #000000; stroke-width: 0.6"/>
      </g>
     </g>
    </g>
    <g id="ytick_8">
     <g id="line2d_31">
      <g>
       <use xlink:href="#m0864bd44b3" x="60.221389" y="104.960066" style="stroke: #000000; stroke-width: 0.6"/>
      </g>
     </g>
    </g>
    <g id="ytick_9">
     <g id="line2d_32">
      <g>
       <use xlink:href="#m0864bd44b3" x="60.221389" y="97.960199" style="stroke: #000000; stroke-width: 0.6"/>
      </g>
     </g>
    </g>
    <g id="ytick_10">
     <g id="line2d_33">
      <g>
       <use xlink:href="#m0864bd44b3" x="60.221389" y="50.50474" style="stroke: #000000; stroke-width: 0.6"/>
      </g>
     </g>
    </g>
    <g id="ytick_11">
     <g id="line2d_34">
      <g>
       <use xlink:href="#m0864bd44b3" x="60.221389" y="26.407875" style="stroke: #000000; stroke-width: 0.6"/>
      </g>
     </g>
    </g>
    <g id="text_2">
     <!-- e2 * dnde [TeV / (cm2 s)] -->
     <g transform="translate(19.241702 169.488137) rotate(-90) scale(0.1 -0.1)">
      <defs>
       <path id="DejaVuSans-65" d="M 3597 1894 
L 3597 1613 
L 953 1613 
Q 991 1019 1311 708 
Q 1631 397 2203 397 
Q 2534 397 2845 478 
Q 3156 559 3463 722 
L 3463 178 
Q 3153 47 2828 -22 
Q 2503 -91 2169 -91 
Q 1331 -91 842 396 
Q 353 884 353 1716 
Q 353 2575 817 3079 
Q 1281 3584 2069 3584 
Q 2775 3584 3186 3129 
Q 3597 2675 3597 1894 
z
M 3022 2063 
Q 3016 2534 2758 2815 
Q 2500 3097 2075 3097 
Q 1594 3097 1305 2825 
Q 1016 2553 972 2059 
L 3022 2063 
z
" transform="scale(0.015625)"/>
       <path id="DejaVuSans-20" transform="scale(0.015625)"/>
       <path id="DejaVuSans-2a" d="M 3009 3897 
L 1888 3291 
L 3009 2681 
L 2828 2375 
L 1778 3009 
L 1778 1831 
L 1422 1831 
L 1422 3009 
L 372 2375 
L 191 2681 
L 1313 3291 
L 191 3897 
L 372 4206 
L 1422 3572 
L 1422 4750 
L 1778 4750 
L 1778 3572 
L 2828 4206 
L 3009 3897 
z
" transform="scale(0.015625)"/>
       <path id="DejaVuSans-64" d="M 2906 2969 
L 2906 4863 
L 3481 4863 
L 3481 0 
L 2906 0 
L 2906 525 
Q 2725 213 2448 61 
Q 2172 -91 1784 -91 
Q 1150 -91 751 415 
Q 353 922 353 1747 
Q 353 2572 751 3078 
Q 1150 3584 1784 3584 
Q 2172 3584 2448 3432 
Q 2725 3281 2906 2969 
z
M 947 1747 
Q 947 1113 1208 752 
Q 1469 391 1925 391 
Q 2381 391 2643 752 
Q 2906 1113 2906 1747 
Q 2906 2381 2643 2742 
Q 2381 3103 1925 3103 
Q 1469 3103 1208 2742 
Q 947 2381 947 1747 
z
" transform="scale(0.015625)"/>
       <path id="DejaVuSans-6e" d="M 3513 2113 
L 3513 0 
L 2938 0 
L 2938 2094 
Q 2938 2591 2744 2837 
Q 2550 3084 2163 3084 
Q 1697 3084 1428 2787 
Q 1159 2491 1159 1978 
L 1159 0 
L 581 0 
L 581 3500 
L 1159 3500 
L 1159 2956 
Q 1366 3272 1645 3428 
Q 1925 3584 2291 3584 
Q 2894 3584 3203 3211 
Q 3513 2838 3513 2113 
z
" transform="scale(0.015625)"/>
       <path id="DejaVuSans-5b" d="M 550 4863 
L 1875 4863 
L 1875 4416 
L 1125 4416 
L 1125 -397 
L 1875 -397 
L 1875 -844 
L 550 -844 
L 550 4863 
z
" transform="scale(0.015625)"/>
       <path id="DejaVuSans-54" d="M -19 4666 
L 3928 4666 
L 3928 4134 
L 2272 4134 
L 2272 0 
L 1638 0 
L 1638 4134 
L -19 4134 
L -19 4666 
z
" transform="scale(0.015625)"/>
       <path id="DejaVuSans-56" d="M 1831 0 
L 50 4666 
L 709 4666 
L 2188 738 
L 3669 4666 
L 4325 4666 
L 2547 0 
L 1831 0 
z
" transform="scale(0.015625)"/>
       <path id="DejaVuSans-2f" d="M 1625 4666 
L 2156 4666 
L 531 -594 
L 0 -594 
L 1625 4666 
z
" transform="scale(0.015625)"/>
       <path id="DejaVuSans-28" d="M 1984 4856 
Q 1566 4138 1362 3434 
Q 1159 2731 1159 2009 
Q 1159 1288 1364 580 
Q 1569 -128 1984 -844 
L 1484 -844 
Q 1016 -109 783 600 
Q 550 1309 550 2009 
Q 550 2706 781 3412 
Q 1013 4119 1484 4856 
L 1984 4856 
z
" transform="scale(0.015625)"/>
       <path id="DejaVuSans-63" d="M 3122 3366 
L 3122 2828 
Q 2878 2963 2633 3030 
Q 2388 3097 2138 3097 
Q 1578 3097 1268 2742 
Q 959 2388 959 1747 
Q 959 1106 1268 751 
Q 1578 397 2138 397 
Q 2388 397 2633 464 
Q 2878 531 3122 666 
L 3122 134 
Q 2881 22 2623 -34 
Q 2366 -91 2075 -91 
Q 1284 -91 818 406 
Q 353 903 353 1747 
Q 353 2603 823 3093 
Q 1294 3584 2113 3584 
Q 2378 3584 2631 3529 
Q 2884 3475 3122 3366 
z
" transform="scale(0.015625)"/>
       <path id="DejaVuSans-6d" d="M 3328 2828 
Q 3544 3216 3844 3400 
Q 4144 3584 4550 3584 
Q 5097 3584 5394 3201 
Q 5691 2819 5691 2113 
L 5691 0 
L 5113 0 
L 5113 2094 
Q 5113 2597 4934 2840 
Q 4756 3084 4391 3084 
Q 3944 3084 3684 2787 
Q 3425 2491 3425 1978 
L 3425 0 
L 2847 0 
L 2847 2094 
Q 2847 2600 2669 2842 
Q 2491 3084 2119 3084 
Q 1678 3084 1418 2786 
Q 1159 2488 1159 1978 
L 1159 0 
L 581 0 
L 581 3500 
L 1159 3500 
L 1159 2956 
Q 1356 3278 1631 3431 
Q 1906 3584 2284 3584 
Q 2666 3584 2933 3390 
Q 3200 3197 3328 2828 
z
" transform="scale(0.015625)"/>
       <path id="DejaVuSans-73" d="M 2834 3397 
L 2834 2853 
Q 2591 2978 2328 3040 
Q 2066 3103 1784 3103 
Q 1356 3103 1142 2972 
Q 928 2841 928 2578 
Q 928 2378 1081 2264 
Q 1234 2150 1697 2047 
L 1894 2003 
Q 2506 1872 2764 1633 
Q 3022 1394 3022 966 
Q 3022 478 2636 193 
Q 2250 -91 1575 -91 
Q 1294 -91 989 -36 
Q 684 19 347 128 
L 347 722 
Q 666 556 975 473 
Q 1284 391 1588 391 
Q 1994 391 2212 530 
Q 2431 669 2431 922 
Q 2431 1156 2273 1281 
Q 2116 1406 1581 1522 
L 1381 1569 
Q 847 1681 609 1914 
Q 372 2147 372 2553 
Q 372 3047 722 3315 
Q 1072 3584 1716 3584 
Q 2034 3584 2315 3537 
Q 2597 3491 2834 3397 
z
" transform="scale(0.015625)"/>
       <path id="DejaVuSans-29" d="M 513 4856 
L 1013 4856 
Q 1481 4119 1714 3412 
Q 1947 2706 1947 2009 
Q 1947 1309 1714 600 
Q 1481 -109 1013 -844 
L 513 -844 
Q 928 -128 1133 580 
Q 1338 1288 1338 2009 
Q 1338 2731 1133 3434 
Q 928 4138 513 4856 
z
" transform="scale(0.015625)"/>
       <path id="DejaVuSans-5d" d="M 1947 4863 
L 1947 -844 
L 622 -844 
L 622 -397 
L 1369 -397 
L 1369 4416 
L 622 4416 
L 622 4863 
L 1947 4863 
z
" transform="scale(0.015625)"/>
      </defs>
      <use xlink:href="#DejaVuSans-65"/>
      <use xlink:href="#DejaVuSans-32" x="61.523438"/>
      <use xlink:href="#DejaVuSans-20" x="125.146484"/>
      <use xlink:href="#DejaVuSans-2a" x="156.933594"/>
      <use xlink:href="#DejaVuSans-20" x="206.933594"/>
      <use xlink:href="#DejaVuSans-64" x="238.720703"/>
      <use xlink:href="#DejaVuSans-6e" x="302.197266"/>
      <use xlink:href="#DejaVuSans-64" x="365.576172"/>
      <use xlink:href="#DejaVuSans-65" x="429.052734"/>
      <use xlink:href="#DejaVuSans-20" x="490.576172"/>
      <use xlink:href="#DejaVuSans-5b" x="522.363281"/>
      <use xlink:href="#DejaVuSans-54" x="561.376953"/>
      <use xlink:href="#DejaVuSans-65" x="605.460938"/>
      <use xlink:href="#DejaVuSans-56" x="666.984375"/>
      <use xlink:href="#DejaVuSans-20" x="735.392578"/>
      <use xlink:href="#DejaVuSans-2f" x="767.179688"/>
      <use xlink:href="#DejaVuSans-20" x="800.871094"/>
      <use xlink:href="#DejaVuSans-28" x="832.658203"/>
      <use xlink:href="#DejaVuSans-63" x="871.671875"/>
      <use xlink:href="#DejaVuSans-6d" x="926.652344"/>
      <use xlink:href="#DejaVuSans-32" x="1024.064453"/>
      <use xlink:href="#DejaVuSans-20" x="1087.6875"/>
      <use xlink:href="#DejaVuSans-73" x="1119.474609"/>
      <use xlink:href="#DejaVuSans-29" x="1171.574219"/>
      <use xlink:href="#DejaVuSans-5d" x="1210.587891"/>
     </g>
    </g>
   </g>
   <g id="line2d_35">
    <path d="M 74.657351 79.305755 
L 77.258493 80.178129 
L 79.859634 81.050504 
L 82.460775 81.922878 
L 85.061916 82.795253 
L 87.663057 83.667627 
L 90.264198 84.540002 
L 92.86534 85.412376 
L 95.466481 86.284751 
L 98.067622 87.157125 
L 100.668763 88.0295 
L 103.269904 88.901874 
L 105.871045 89.774249 
L 108.472187 90.646623 
L 111.073328 91.518997 
L 113.674469 92.391372 
L 116.27561 93.263746 
L 118.876751 94.136121 
L 121.477892 95.008495 
L 124.079034 95.88087 
L 126.680175 96.753244 
L 129.281316 97.625619 
L 131.882457 98.497993 
L 134.483598 99.370368 
L 137.084739 100.242742 
L 139.685881 101.115117 
L 142.287022 101.987491 
L 144.888163 102.859866 
L 147.489304 103.73224 
L 150.090445 104.604615 
L 152.691586 105.476989 
L 155.292728 106.349363 
L 157.893869 107.221738 
L 160.49501 108.094112 
L 163.096151 108.966487 
L 165.697292 109.838861 
L 168.298433 110.711236 
L 170.899575 111.58361 
L 173.500716 112.455985 
L 176.101857 113.328359 
L 178.702998 114.200734 
L 181.304139 115.073108 
L 183.90528 115.945483 
L 186.506422 116.817857 
L 189.107563 117.690232 
L 191.708704 118.562606 
L 194.309845 119.43498 
L 196.910986 120.307355 
L 199.512127 121.179729 
L 202.113269 122.052104 
L 204.71441 122.924478 
L 207.315551 123.796853 
L 209.916692 124.669227 
L 212.517833 125.541602 
L 215.118974 126.413976 
L 217.720116 127.286351 
L 220.321257 128.158725 
L 222.922398 129.0311 
L 225.523539 129.903474 
L 228.12468 130.775849 
L 230.725821 131.648223 
L 233.326963 132.520597 
L 235.928104 133.392972 
L 238.529245 134.265346 
L 241.130386 135.137721 
L 243.731527 136.010095 
L 246.332668 136.88247 
L 248.93381 137.754844 
L 251.534951 138.627219 
L 254.136092 139.499593 
L 256.737233 140.371968 
L 259.338374 141.244342 
L 261.939515 142.116717 
L 264.540657 142.989091 
L 267.141798 143.861466 
L 269.742939 144.73384 
L 272.34408 145.606214 
L 274.945221 146.478589 
L 277.546363 147.350963 
L 280.147504 148.223338 
L 282.748645 149.095712 
L 285.349786 149.968087 
L 287.950927 150.840461 
L 290.552068 151.712836 
L 293.15321 152.58521 
L 295.754351 153.457585 
L 298.355492 154.329959 
L 300.956633 155.202334 
L 303.557774 156.074708 
L 306.158915 156.947083 
L 308.760057 157.819457 
L 311.361198 158.691831 
L 313.962339 159.564206 
L 316.56348 160.43658 
L 319.164621 161.308955 
L 321.765762 162.181329 
L 324.366904 163.053704 
L 326.968045 163.926078 
L 329.569186 164.798453 
L 332.170327 165.670827 
" clip-path="url(#pca8972218f)" style="fill: none; stroke-dasharray: 1.5,2.475; stroke-dashoffset: 0; stroke: #000000; stroke-width: 1.5"/>
   </g>
   <g id="LineCollection_1">
    <path clip-path="url(#pca8972218f)" style="fill: none; stroke: #006400; stroke-width: 1.5"/>
    <path clip-path="url(#pca8972218f)" style="fill: none; stroke: #006400; stroke-width: 1.5"/>
    <path clip-path="url(#pca8972218f)" style="fill: none; stroke: #006400; stroke-width: 1.5"/>
    <path clip-path="url(#pca8972218f)" style="fill: none; stroke: #006400; stroke-width: 1.5"/>
    <path clip-path="url(#pca8972218f)" style="fill: none; stroke: #006400; stroke-width: 1.5"/>
    <path d="M 73.356781 361 
L 73.356781 37.777662 
" clip-path="url(#pca8972218f)" style="fill: none; stroke: #006400; stroke-width: 1.5"/>
    <path d="M 88.657611 118.882326 
L 88.657611 65.445953 
" clip-path="url(#pca8972218f)" style="fill: none; stroke: #006400; stroke-width: 1.5"/>
    <path d="M 103.958442 107.697234 
L 103.958442 79.379261 
" clip-path="url(#pca8972218f)" style="fill: none; stroke: #006400; stroke-width: 1.5"/>
    <path d="M 119.259272 111.281819 
L 119.259272 86.115883 
" clip-path="url(#pca8972218f)" style="fill: none; stroke: #006400; stroke-width: 1.5"/>
    <path d="M 134.560102 116.80963 
L 134.560102 91.622816 
" clip-path="url(#pca8972218f)" style="fill: none; stroke: #006400; stroke-width: 1.5"/>
    <path d="M 149.860933 122.708407 
L 149.860933 96.885877 
" clip-path="url(#pca8972218f)" style="fill: none; stroke: #006400; stroke-width: 1.5"/>
    <path d="M 165.161763 129.027935 
L 165.161763 101.888699 
" clip-path="url(#pca8972218f)" style="fill: none; stroke: #006400; stroke-width: 1.5"/>
    <path d="M 180.462594 135.738002 
L 180.462594 106.648691 
" clip-path="url(#pca8972218f)" style="fill: none; stroke: #006400; stroke-width: 1.5"/>
    <path d="M 195.763424 142.538497 
L 195.763424 111.386995 
" clip-path="url(#pca8972218f)" style="fill: none; stroke: #006400; stroke-width: 1.5"/>
    <path d="M 211.064254 149.919331 
L 211.064254 115.81988 
" clip-path="url(#pca8972218f)" style="fill: none; stroke: #006400; stroke-width: 1.5"/>
    <path d="M 226.365085 157.925782 
L 226.365085 119.969619 
" clip-path="url(#pca8972218f)" style="fill: none; stroke: #006400; stroke-width: 1.5"/>
    <path d="M 241.665915 166.413213 
L 241.665915 123.966677 
" clip-path="url(#pca8972218f)" style="fill: none; stroke: #006400; stroke-width: 1.5"/>
    <path d="M 256.966746 175.874849 
L 256.966746 127.634624 
" clip-path="url(#pca8972218f)" style="fill: none; stroke: #006400; stroke-width: 1.5"/>
    <path d="M 272.267576 186.515392 
L 272.267576 130.995827 
" clip-path="url(#pca8972218f)" style="fill: none; stroke: #006400; stroke-width: 1.5"/>
    <path d="M 287.568406 197.993583 
L 287.568406 134.309617 
" clip-path="url(#pca8972218f)" style="fill: none; stroke: #006400; stroke-width: 1.5"/>
    <path d="M 302.869237 211.599405 
L 302.869237 137.279376 
" clip-path="url(#pca8972218f)" style="fill: none; stroke: #006400; stroke-width: 1.5"/>
    <path d="M 318.170067 229.626503 
L 318.170067 139.63622 
" clip-path="url(#pca8972218f)" style="fill: none; stroke: #006400; stroke-width: 1.5"/>
    <path d="M 333.470898 260.192754 
L 333.470898 140.804282 
" clip-path="url(#pca8972218f)" style="fill: none; stroke: #006400; stroke-width: 1.5"/>
    <path clip-path="url(#pca8972218f)" style="fill: none; stroke: #006400; stroke-width: 1.5"/>
   </g>
   <g id="LineCollection_2">
    <path clip-path="url(#pca8972218f)" style="fill: none; stroke: #8b0000; stroke-width: 1.5"/>
    <path clip-path="url(#pca8972218f)" style="fill: none; stroke: #8b0000; stroke-width: 1.5"/>
    <path clip-path="url(#pca8972218f)" style="fill: none; stroke: #8b0000; stroke-width: 1.5"/>
    <path clip-path="url(#pca8972218f)" style="fill: none; stroke: #8b0000; stroke-width: 1.5"/>
    <path clip-path="url(#pca8972218f)" style="fill: none; stroke: #8b0000; stroke-width: 1.5"/>
    <path d="M 75.950492 361 
L 75.950492 37.923246 
" clip-path="url(#pca8972218f)" style="fill: none; stroke: #8b0000; stroke-width: 1.5"/>
    <path d="M 91.251322 117.576608 
L 91.251322 65.988294 
" clip-path="url(#pca8972218f)" style="fill: none; stroke: #8b0000; stroke-width: 1.5"/>
    <path d="M 106.552153 105.78121 
L 106.552153 80.602647 
" clip-path="url(#pca8972218f)" style="fill: none; stroke: #8b0000; stroke-width: 1.5"/>
    <path d="M 121.852983 109.157665 
L 121.852983 87.563708 
" clip-path="url(#pca8972218f)" style="fill: none; stroke: #8b0000; stroke-width: 1.5"/>
    <path d="M 137.153813 114.730658 
L 137.153813 93.039745 
" clip-path="url(#pca8972218f)" style="fill: none; stroke: #8b0000; stroke-width: 1.5"/>
    <path d="M 152.454644 120.714687 
L 152.454644 98.231612 
" clip-path="url(#pca8972218f)" style="fill: none; stroke: #8b0000; stroke-width: 1.5"/>
    <path d="M 167.755474 127.151016 
L 167.755474 103.122427 
" clip-path="url(#pca8972218f)" style="fill: none; stroke: #8b0000; stroke-width: 1.5"/>
    <path d="M 183.056305 133.985879 
L 183.056305 107.765442 
" clip-path="url(#pca8972218f)" style="fill: none; stroke: #8b0000; stroke-width: 1.5"/>
    <path d="M 198.357135 140.913423 
L 198.357135 112.387892 
" clip-path="url(#pca8972218f)" style="fill: none; stroke: #8b0000; stroke-width: 1.5"/>
    <path d="M 213.657965 148.398903 
L 213.657965 116.70776 
" clip-path="url(#pca8972218f)" style="fill: none; stroke: #8b0000; stroke-width: 1.5"/>
    <path d="M 228.958796 156.494953 
L 228.958796 120.75338 
" clip-path="url(#pca8972218f)" style="fill: none; stroke: #8b0000; stroke-width: 1.5"/>
    <path d="M 244.259626 165.06024 
L 244.259626 124.653074 
" clip-path="url(#pca8972218f)" style="fill: none; stroke: #8b0000; stroke-width: 1.5"/>
    <path d="M 259.560457 174.590663 
L 259.560457 128.224309 
" clip-path="url(#pca8972218f)" style="fill: none; stroke: #8b0000; stroke-width: 1.5"/>
    <path d="M 274.861287 185.286078 
L 274.861287 131.498729 
" clip-path="url(#pca8972218f)" style="fill: none; stroke: #8b0000; stroke-width: 1.5"/>
    <path d="M 290.162117 196.791891 
L 290.162117 134.741804 
" clip-path="url(#pca8972218f)" style="fill: none; stroke: #8b0000; stroke-width: 1.5"/>
    <path d="M 305.462948 210.387983 
L 305.462948 137.644254 
" clip-path="url(#pca8972218f)" style="fill: none; stroke: #8b0000; stroke-width: 1.5"/>
    <path d="M 320.763778 228.333861 
L 320.763778 139.93776 
" clip-path="url(#pca8972218f)" style="fill: none; stroke: #8b0000; stroke-width: 1.5"/>
    <path d="M 336.064609 258.549375 
L 336.064609 141.041823 
" clip-path="url(#pca8972218f)" style="fill: none; stroke: #8b0000; stroke-width: 1.5"/>
    <path clip-path="url(#pca8972218f)" style="fill: none; stroke: #8b0000; stroke-width: 1.5"/>
   </g>
   <g id="LineCollection_3">
    <path clip-path="url(#pca8972218f)" style="fill: none; stroke: #1f77b4; stroke-width: 1.5"/>
    <path clip-path="url(#pca8972218f)" style="fill: none; stroke: #1f77b4; stroke-width: 1.5"/>
    <path clip-path="url(#pca8972218f)" style="fill: none; stroke: #1f77b4; stroke-width: 1.5"/>
    <path clip-path="url(#pca8972218f)" style="fill: none; stroke: #1f77b4; stroke-width: 1.5"/>
    <path clip-path="url(#pca8972218f)" style="fill: none; stroke: #1f77b4; stroke-width: 1.5"/>
    <path d="M 78.42352 361 
L 78.42352 32.855314 
" clip-path="url(#pca8972218f)" style="fill: none; stroke: #1f77b4; stroke-width: 1.5"/>
    <path d="M 93.724351 115.586377 
L 93.724351 64.430285 
" clip-path="url(#pca8972218f)" style="fill: none; stroke: #1f77b4; stroke-width: 1.5"/>
    <path d="M 109.025181 104.089089 
L 109.025181 73.828163 
" clip-path="url(#pca8972218f)" style="fill: none; stroke: #1f77b4; stroke-width: 1.5"/>
    <path d="M 124.326012 107.203189 
L 124.326012 82.378969 
" clip-path="url(#pca8972218f)" style="fill: none; stroke: #1f77b4; stroke-width: 1.5"/>
    <path d="M 139.626842 111.043141 
L 139.626842 85.782267 
" clip-path="url(#pca8972218f)" style="fill: none; stroke: #1f77b4; stroke-width: 1.5"/>
    <path d="M 154.927672 117.755447 
L 154.927672 92.319248 
" clip-path="url(#pca8972218f)" style="fill: none; stroke: #1f77b4; stroke-width: 1.5"/>
    <path d="M 170.228503 125.598788 
L 170.228503 96.442137 
" clip-path="url(#pca8972218f)" style="fill: none; stroke: #1f77b4; stroke-width: 1.5"/>
    <path d="M 185.529333 129.000525 
L 185.529333 100.678441 
" clip-path="url(#pca8972218f)" style="fill: none; stroke: #1f77b4; stroke-width: 1.5"/>
    <path d="M 200.830164 136.405676 
L 200.830164 104.376177 
" clip-path="url(#pca8972218f)" style="fill: none; stroke: #1f77b4; stroke-width: 1.5"/>
    <path d="M 216.130994 143.747164 
L 216.130994 110.236185 
" clip-path="url(#pca8972218f)" style="fill: none; stroke: #1f77b4; stroke-width: 1.5"/>
    <path d="M 231.431824 152.488524 
L 231.431824 113.252909 
" clip-path="url(#pca8972218f)" style="fill: none; stroke: #1f77b4; stroke-width: 1.5"/>
    <path d="M 246.732655 156.422532 
L 246.732655 116.432238 
" clip-path="url(#pca8972218f)" style="fill: none; stroke: #1f77b4; stroke-width: 1.5"/>
    <path d="M 262.033485 168.742286 
L 262.033485 116.948023 
" clip-path="url(#pca8972218f)" style="fill: none; stroke: #1f77b4; stroke-width: 1.5"/>
    <path d="M 277.334316 176.908247 
L 277.334316 121.705653 
" clip-path="url(#pca8972218f)" style="fill: none; stroke: #1f77b4; stroke-width: 1.5"/>
    <path d="M 292.635146 191.223395 
L 292.635146 125.78004 
" clip-path="url(#pca8972218f)" style="fill: none; stroke: #1f77b4; stroke-width: 1.5"/>
    <path d="M 307.935976 201.447314 
L 307.935976 127.047664 
" clip-path="url(#pca8972218f)" style="fill: none; stroke: #1f77b4; stroke-width: 1.5"/>
    <path d="M 323.236807 223.003371 
L 323.236807 129.608457 
" clip-path="url(#pca8972218f)" style="fill: none; stroke: #1f77b4; stroke-width: 1.5"/>
    <path clip-path="url(#pca8972218f)" style="fill: none; stroke: #1f77b4; stroke-width: 1.5"/>
    <path clip-path="url(#pca8972218f)" style="fill: none; stroke: #1f77b4; stroke-width: 1.5"/>
   </g>
   <g id="line2d_36">
    <defs>
     <path id="m8ea1835d6d" d="M -3 3 
L 3 -3 
M -3 -3 
L 3 3 
" style="stroke: #006400"/>
    </defs>
    <g clip-path="url(#pca8972218f)">
     <use xlink:href="#m8ea1835d6d" x="73.356781" y="80.824149" style="fill: #006400; stroke: #006400"/>
     <use xlink:href="#m8ea1835d6d" x="88.657611" y="86.350294" style="fill: #006400; stroke: #006400"/>
     <use xlink:href="#m8ea1835d6d" x="103.958442" y="91.867307" style="fill: #006400; stroke: #006400"/>
     <use xlink:href="#m8ea1835d6d" x="119.259272" y="97.37661" style="fill: #006400; stroke: #006400"/>
     <use xlink:href="#m8ea1835d6d" x="134.560102" y="102.891803" style="fill: #006400; stroke: #006400"/>
     <use xlink:href="#m8ea1835d6d" x="149.860933" y="108.405545" style="fill: #006400; stroke: #006400"/>
     <use xlink:href="#m8ea1835d6d" x="165.161763" y="113.922427" style="fill: #006400; stroke: #006400"/>
     <use xlink:href="#m8ea1835d6d" x="180.462594" y="119.431041" style="fill: #006400; stroke: #006400"/>
     <use xlink:href="#m8ea1835d6d" x="195.763424" y="124.944609" style="fill: #006400; stroke: #006400"/>
     <use xlink:href="#m8ea1835d6d" x="211.064254" y="130.456766" style="fill: #006400; stroke: #006400"/>
     <use xlink:href="#m8ea1835d6d" x="226.365085" y="135.967668" style="fill: #006400; stroke: #006400"/>
     <use xlink:href="#m8ea1835d6d" x="241.665915" y="141.478306" style="fill: #006400; stroke: #006400"/>
     <use xlink:href="#m8ea1835d6d" x="256.966746" y="146.988839" style="fill: #006400; stroke: #006400"/>
     <use xlink:href="#m8ea1835d6d" x="272.267576" y="152.495213" style="fill: #006400; stroke: #006400"/>
     <use xlink:href="#m8ea1835d6d" x="287.568406" y="158.000701" style="fill: #006400; stroke: #006400"/>
     <use xlink:href="#m8ea1835d6d" x="302.869237" y="163.50824" style="fill: #006400; stroke: #006400"/>
     <use xlink:href="#m8ea1835d6d" x="318.170067" y="169.013313" style="fill: #006400; stroke: #006400"/>
     <use xlink:href="#m8ea1835d6d" x="333.470898" y="174.517497" style="fill: #006400; stroke: #006400"/>
    </g>
   </g>
   <g id="line2d_37">
    <defs>
     <path id="m102fe06f9c" d="M -3 3 
L 3 -3 
M -3 -3 
L 3 3 
" style="stroke: #8b0000"/>
    </defs>
    <g clip-path="url(#pca8972218f)">
     <use xlink:href="#m102fe06f9c" x="75.950492" y="80.828956" style="fill: #8b0000; stroke: #8b0000"/>
     <use xlink:href="#m102fe06f9c" x="91.251322" y="86.352195" style="fill: #8b0000; stroke: #8b0000"/>
     <use xlink:href="#m102fe06f9c" x="106.552153" y="91.86837" style="fill: #8b0000; stroke: #8b0000"/>
     <use xlink:href="#m102fe06f9c" x="121.852983" y="97.385264" style="fill: #8b0000; stroke: #8b0000"/>
     <use xlink:href="#m102fe06f9c" x="137.153813" y="102.901048" style="fill: #8b0000; stroke: #8b0000"/>
     <use xlink:href="#m102fe06f9c" x="152.454644" y="108.416232" style="fill: #8b0000; stroke: #8b0000"/>
     <use xlink:href="#m102fe06f9c" x="167.755474" y="113.93051" style="fill: #8b0000; stroke: #8b0000"/>
     <use xlink:href="#m102fe06f9c" x="183.056305" y="119.44119" style="fill: #8b0000; stroke: #8b0000"/>
     <use xlink:href="#m102fe06f9c" x="198.357135" y="124.955364" style="fill: #8b0000; stroke: #8b0000"/>
     <use xlink:href="#m102fe06f9c" x="213.657965" y="130.465483" style="fill: #8b0000; stroke: #8b0000"/>
     <use xlink:href="#m102fe06f9c" x="228.958796" y="135.976816" style="fill: #8b0000; stroke: #8b0000"/>
     <use xlink:href="#m102fe06f9c" x="244.259626" y="141.486681" style="fill: #8b0000; stroke: #8b0000"/>
     <use xlink:href="#m102fe06f9c" x="259.560457" y="146.995944" style="fill: #8b0000; stroke: #8b0000"/>
     <use xlink:href="#m102fe06f9c" x="274.861287" y="152.504368" style="fill: #8b0000; stroke: #8b0000"/>
     <use xlink:href="#m102fe06f9c" x="290.162117" y="158.011793" style="fill: #8b0000; stroke: #8b0000"/>
     <use xlink:href="#m102fe06f9c" x="305.462948" y="163.518589" style="fill: #8b0000; stroke: #8b0000"/>
     <use xlink:href="#m102fe06f9c" x="320.763778" y="169.024222" style="fill: #8b0000; stroke: #8b0000"/>
     <use xlink:href="#m102fe06f9c" x="336.064609" y="174.529446" style="fill: #8b0000; stroke: #8b0000"/>
    </g>
   </g>
   <g id="line2d_38">
    <path d="M 78.42352 74.130562 
L 93.724351 84.666068 
L 109.025181 87.053031 
L 124.326012 93.504247 
L 139.626842 97.080542 
L 154.927672 103.686768 
L 170.228503 109.250068 
L 185.529333 113.168062 
L 200.830164 118.258786 
L 216.130994 124.660333 
L 231.431824 129.689962 
L 246.732655 133.125332 
L 262.033485 137.372741 
L 277.334316 143.115458 
L 292.635146 149.915025 
L 307.935976 153.294243 
L 323.236807 159.585217 
" clip-path="url(#pca8972218f)" style="fill: none; stroke: #1f77b4; stroke-width: 1.5; stroke-linecap: square"/>
   </g>
   <g id="patch_3">
    <path d="M 60.221389 188.576898 
L 60.221389 25.44 
" style="fill: none; stroke: #000000; stroke-width: 0.8; stroke-linejoin: miter; stroke-linecap: square"/>
   </g>
   <g id="patch_4">
    <path d="M 349.2 188.576898 
L 349.2 25.44 
" style="fill: none; stroke: #000000; stroke-width: 0.8; stroke-linejoin: miter; stroke-linecap: square"/>
   </g>
   <g id="patch_5">
    <path d="M 60.221389 188.576898 
L 349.2 188.576898 
" style="fill: none; stroke: #000000; stroke-width: 0.8; stroke-linejoin: miter; stroke-linecap: square"/>
   </g>
   <g id="patch_6">
    <path d="M 60.221389 25.44 
L 349.2 25.44 
" style="fill: none; stroke: #000000; stroke-width: 0.8; stroke-linejoin: miter; stroke-linecap: square"/>
   </g>
   <g id="text_3">
    <!-- N = 215 -->
    <g transform="translate(179.927882 19.44) scale(0.12 -0.12)">
     <defs>
      <path id="DejaVuSans-4e" d="M 628 4666 
L 1478 4666 
L 3547 763 
L 3547 4666 
L 4159 4666 
L 4159 0 
L 3309 0 
L 1241 3903 
L 1241 0 
L 628 0 
L 628 4666 
z
" transform="scale(0.015625)"/>
      <path id="DejaVuSans-3d" d="M 678 2906 
L 4684 2906 
L 4684 2381 
L 678 2381 
L 678 2906 
z
M 678 1631 
L 4684 1631 
L 4684 1100 
L 678 1100 
L 678 1631 
z
" transform="scale(0.015625)"/>
      <path id="DejaVuSans-35" d="M 691 4666 
L 3169 4666 
L 3169 4134 
L 1269 4134 
L 1269 2991 
Q 1406 3038 1543 3061 
Q 1681 3084 1819 3084 
Q 2600 3084 3056 2656 
Q 3513 2228 3513 1497 
Q 3513 744 3044 326 
Q 2575 -91 1722 -91 
Q 1428 -91 1123 -41 
Q 819 9 494 109 
L 494 744 
Q 775 591 1075 516 
Q 1375 441 1709 441 
Q 2250 441 2565 725 
Q 2881 1009 2881 1497 
Q 2881 1984 2565 2268 
Q 2250 2553 1709 2553 
Q 1456 2553 1204 2497 
Q 953 2441 691 2322 
L 691 4666 
z
" transform="scale(0.015625)"/>
     </defs>
     <use xlink:href="#DejaVuSans-4e"/>
     <use xlink:href="#DejaVuSans-20" x="74.804688"/>
     <use xlink:href="#DejaVuSans-3d" x="106.591797"/>
     <use xlink:href="#DejaVuSans-20" x="190.380859"/>
     <use xlink:href="#DejaVuSans-32" x="222.167969"/>
     <use xlink:href="#DejaVuSans-31" x="285.791016"/>
     <use xlink:href="#DejaVuSans-35" x="349.414062"/>
    </g>
   </g>
   <g id="legend_1">
    <g id="patch_7">
     <path d="M 209.6 92.172813 
L 342.2 92.172813 
Q 344.2 92.172813 344.2 90.172813 
L 344.2 32.44 
Q 344.2 30.44 342.2 30.44 
L 209.6 30.44 
Q 207.6 30.44 207.6 32.44 
L 207.6 90.172813 
Q 207.6 92.172813 209.6 92.172813 
z
" style="fill: #ffffff; opacity: 0.8; stroke: #cccccc; stroke-linejoin: miter"/>
    </g>
    <g id="line2d_39">
     <path d="M 211.6 38.538438 
L 221.6 38.538438 
L 231.6 38.538438 
" style="fill: none; stroke-dasharray: 1.5,2.475; stroke-dashoffset: 0; stroke: #000000; stroke-width: 1.5"/>
    </g>
    <g id="text_4">
     <!-- Input -->
     <g transform="translate(239.6 42.038438) scale(0.1 -0.1)">
      <defs>
       <path id="DejaVuSans-49" d="M 628 4666 
L 1259 4666 
L 1259 0 
L 628 0 
L 628 4666 
z
" transform="scale(0.015625)"/>
       <path id="DejaVuSans-70" d="M 1159 525 
L 1159 -1331 
L 581 -1331 
L 581 3500 
L 1159 3500 
L 1159 2969 
Q 1341 3281 1617 3432 
Q 1894 3584 2278 3584 
Q 2916 3584 3314 3078 
Q 3713 2572 3713 1747 
Q 3713 922 3314 415 
Q 2916 -91 2278 -91 
Q 1894 -91 1617 61 
Q 1341 213 1159 525 
z
M 3116 1747 
Q 3116 2381 2855 2742 
Q 2594 3103 2138 3103 
Q 1681 3103 1420 2742 
Q 1159 2381 1159 1747 
Q 1159 1113 1420 752 
Q 1681 391 2138 391 
Q 2594 391 2855 752 
Q 3116 1113 3116 1747 
z
" transform="scale(0.015625)"/>
       <path id="DejaVuSans-75" d="M 544 1381 
L 544 3500 
L 1119 3500 
L 1119 1403 
Q 1119 906 1312 657 
Q 1506 409 1894 409 
Q 2359 409 2629 706 
Q 2900 1003 2900 1516 
L 2900 3500 
L 3475 3500 
L 3475 0 
L 2900 0 
L 2900 538 
Q 2691 219 2414 64 
Q 2138 -91 1772 -91 
Q 1169 -91 856 284 
Q 544 659 544 1381 
z
M 1991 3584 
L 1991 3584 
z
" transform="scale(0.015625)"/>
       <path id="DejaVuSans-74" d="M 1172 4494 
L 1172 3500 
L 2356 3500 
L 2356 3053 
L 1172 3053 
L 1172 1153 
Q 1172 725 1289 603 
Q 1406 481 1766 481 
L 2356 481 
L 2356 0 
L 1766 0 
Q 1100 0 847 248 
Q 594 497 594 1153 
L 594 3053 
L 172 3053 
L 172 3500 
L 594 3500 
L 594 4494 
L 1172 4494 
z
" transform="scale(0.015625)"/>
      </defs>
      <use xlink:href="#DejaVuSans-49"/>
      <use xlink:href="#DejaVuSans-6e" x="29.492188"/>
      <use xlink:href="#DejaVuSans-70" x="92.871094"/>
      <use xlink:href="#DejaVuSans-75" x="156.347656"/>
      <use xlink:href="#DejaVuSans-74" x="219.726562"/>
     </g>
    </g>
    <g id="LineCollection_4">
     <path d="M 221.6 58.216563 
L 221.6 48.216563 
" style="fill: none; stroke: #006400; stroke-width: 1.5"/>
    </g>
    <g id="line2d_40"/>
    <g id="line2d_41">
     <g>
      <use xlink:href="#m8ea1835d6d" x="221.6" y="53.216563" style="fill: #006400; stroke: #006400"/>
     </g>
    </g>
    <g id="text_5">
     <!-- Fluxpoints Nuisance -->
     <g transform="translate(239.6 56.716563) scale(0.1 -0.1)">
      <defs>
       <path id="DejaVuSans-46" d="M 628 4666 
L 3309 4666 
L 3309 4134 
L 1259 4134 
L 1259 2759 
L 3109 2759 
L 3109 2228 
L 1259 2228 
L 1259 0 
L 628 0 
L 628 4666 
z
" transform="scale(0.015625)"/>
       <path id="DejaVuSans-6c" d="M 603 4863 
L 1178 4863 
L 1178 0 
L 603 0 
L 603 4863 
z
" transform="scale(0.015625)"/>
       <path id="DejaVuSans-78" d="M 3513 3500 
L 2247 1797 
L 3578 0 
L 2900 0 
L 1881 1375 
L 863 0 
L 184 0 
L 1544 1831 
L 300 3500 
L 978 3500 
L 1906 2253 
L 2834 3500 
L 3513 3500 
z
" transform="scale(0.015625)"/>
       <path id="DejaVuSans-6f" d="M 1959 3097 
Q 1497 3097 1228 2736 
Q 959 2375 959 1747 
Q 959 1119 1226 758 
Q 1494 397 1959 397 
Q 2419 397 2687 759 
Q 2956 1122 2956 1747 
Q 2956 2369 2687 2733 
Q 2419 3097 1959 3097 
z
M 1959 3584 
Q 2709 3584 3137 3096 
Q 3566 2609 3566 1747 
Q 3566 888 3137 398 
Q 2709 -91 1959 -91 
Q 1206 -91 779 398 
Q 353 888 353 1747 
Q 353 2609 779 3096 
Q 1206 3584 1959 3584 
z
" transform="scale(0.015625)"/>
       <path id="DejaVuSans-69" d="M 603 3500 
L 1178 3500 
L 1178 0 
L 603 0 
L 603 3500 
z
M 603 4863 
L 1178 4863 
L 1178 4134 
L 603 4134 
L 603 4863 
z
" transform="scale(0.015625)"/>
       <path id="DejaVuSans-61" d="M 2194 1759 
Q 1497 1759 1228 1600 
Q 959 1441 959 1056 
Q 959 750 1161 570 
Q 1363 391 1709 391 
Q 2188 391 2477 730 
Q 2766 1069 2766 1631 
L 2766 1759 
L 2194 1759 
z
M 3341 1997 
L 3341 0 
L 2766 0 
L 2766 531 
Q 2569 213 2275 61 
Q 1981 -91 1556 -91 
Q 1019 -91 701 211 
Q 384 513 384 1019 
Q 384 1609 779 1909 
Q 1175 2209 1959 2209 
L 2766 2209 
L 2766 2266 
Q 2766 2663 2505 2880 
Q 2244 3097 1772 3097 
Q 1472 3097 1187 3025 
Q 903 2953 641 2809 
L 641 3341 
Q 956 3463 1253 3523 
Q 1550 3584 1831 3584 
Q 2591 3584 2966 3190 
Q 3341 2797 3341 1997 
z
" transform="scale(0.015625)"/>
      </defs>
      <use xlink:href="#DejaVuSans-46"/>
      <use xlink:href="#DejaVuSans-6c" x="57.519531"/>
      <use xlink:href="#DejaVuSans-75" x="85.302734"/>
      <use xlink:href="#DejaVuSans-78" x="148.681641"/>
      <use xlink:href="#DejaVuSans-70" x="207.861328"/>
      <use xlink:href="#DejaVuSans-6f" x="271.337891"/>
      <use xlink:href="#DejaVuSans-69" x="332.519531"/>
      <use xlink:href="#DejaVuSans-6e" x="360.302734"/>
      <use xlink:href="#DejaVuSans-74" x="423.681641"/>
      <use xlink:href="#DejaVuSans-73" x="462.890625"/>
      <use xlink:href="#DejaVuSans-20" x="514.990234"/>
      <use xlink:href="#DejaVuSans-4e" x="546.777344"/>
      <use xlink:href="#DejaVuSans-75" x="621.582031"/>
      <use xlink:href="#DejaVuSans-69" x="684.960938"/>
      <use xlink:href="#DejaVuSans-73" x="712.744141"/>
      <use xlink:href="#DejaVuSans-61" x="764.84375"/>
      <use xlink:href="#DejaVuSans-6e" x="826.123047"/>
      <use xlink:href="#DejaVuSans-63" x="889.501953"/>
      <use xlink:href="#DejaVuSans-65" x="944.482422"/>
     </g>
    </g>
    <g id="LineCollection_5">
     <path d="M 221.6 72.894688 
L 221.6 62.894688 
" style="fill: none; stroke: #8b0000; stroke-width: 1.5"/>
    </g>
    <g id="line2d_42"/>
    <g id="line2d_43">
     <g>
      <use xlink:href="#m102fe06f9c" x="221.6" y="67.894688" style="fill: #8b0000; stroke: #8b0000"/>
     </g>
    </g>
    <g id="text_6">
     <!-- Fluxpoints Standard -->
     <g transform="translate(239.6 71.394688) scale(0.1 -0.1)">
      <defs>
       <path id="DejaVuSans-53" d="M 3425 4513 
L 3425 3897 
Q 3066 4069 2747 4153 
Q 2428 4238 2131 4238 
Q 1616 4238 1336 4038 
Q 1056 3838 1056 3469 
Q 1056 3159 1242 3001 
Q 1428 2844 1947 2747 
L 2328 2669 
Q 3034 2534 3370 2195 
Q 3706 1856 3706 1288 
Q 3706 609 3251 259 
Q 2797 -91 1919 -91 
Q 1588 -91 1214 -16 
Q 841 59 441 206 
L 441 856 
Q 825 641 1194 531 
Q 1563 422 1919 422 
Q 2459 422 2753 634 
Q 3047 847 3047 1241 
Q 3047 1584 2836 1778 
Q 2625 1972 2144 2069 
L 1759 2144 
Q 1053 2284 737 2584 
Q 422 2884 422 3419 
Q 422 4038 858 4394 
Q 1294 4750 2059 4750 
Q 2388 4750 2728 4690 
Q 3069 4631 3425 4513 
z
" transform="scale(0.015625)"/>
       <path id="DejaVuSans-72" d="M 2631 2963 
Q 2534 3019 2420 3045 
Q 2306 3072 2169 3072 
Q 1681 3072 1420 2755 
Q 1159 2438 1159 1844 
L 1159 0 
L 581 0 
L 581 3500 
L 1159 3500 
L 1159 2956 
Q 1341 3275 1631 3429 
Q 1922 3584 2338 3584 
Q 2397 3584 2469 3576 
Q 2541 3569 2628 3553 
L 2631 2963 
z
" transform="scale(0.015625)"/>
      </defs>
      <use xlink:href="#DejaVuSans-46"/>
      <use xlink:href="#DejaVuSans-6c" x="57.519531"/>
      <use xlink:href="#DejaVuSans-75" x="85.302734"/>
      <use xlink:href="#DejaVuSans-78" x="148.681641"/>
      <use xlink:href="#DejaVuSans-70" x="207.861328"/>
      <use xlink:href="#DejaVuSans-6f" x="271.337891"/>
      <use xlink:href="#DejaVuSans-69" x="332.519531"/>
      <use xlink:href="#DejaVuSans-6e" x="360.302734"/>
      <use xlink:href="#DejaVuSans-74" x="423.681641"/>
      <use xlink:href="#DejaVuSans-73" x="462.890625"/>
      <use xlink:href="#DejaVuSans-20" x="514.990234"/>
      <use xlink:href="#DejaVuSans-53" x="546.777344"/>
      <use xlink:href="#DejaVuSans-74" x="610.253906"/>
      <use xlink:href="#DejaVuSans-61" x="649.462891"/>
      <use xlink:href="#DejaVuSans-6e" x="710.742188"/>
      <use xlink:href="#DejaVuSans-64" x="774.121094"/>
      <use xlink:href="#DejaVuSans-61" x="837.597656"/>
      <use xlink:href="#DejaVuSans-72" x="898.876953"/>
      <use xlink:href="#DejaVuSans-64" x="938.240234"/>
     </g>
    </g>
    <g id="LineCollection_6">
     <path d="M 221.6 87.572813 
L 221.6 77.572813 
" style="fill: none; stroke: #1f77b4; stroke-width: 1.5"/>
    </g>
    <g id="line2d_44">
     <path d="M 211.6 82.572813 
L 231.6 82.572813 
" style="fill: none; stroke: #1f77b4; stroke-width: 1.5; stroke-linecap: square"/>
    </g>
    <g id="line2d_45"/>
    <g id="text_7">
     <!-- $\mu$, $\sigma$ -->
     <g transform="translate(239.6 86.072813) scale(0.1 -0.1)">
      <defs>
       <path id="DejaVuSans-Oblique-3bc" d="M -84 -1331 
L 856 3500 
L 1434 3500 
L 1009 1322 
Q 997 1256 987 1175 
Q 978 1094 978 1013 
Q 978 722 1161 565 
Q 1344 409 1684 409 
Q 2147 409 2431 671 
Q 2716 934 2816 1459 
L 3213 3500 
L 3788 3500 
L 3266 809 
Q 3253 750 3248 706 
Q 3244 663 3244 628 
Q 3244 531 3283 486 
Q 3322 441 3406 441 
Q 3438 441 3492 456 
Q 3547 472 3647 513 
L 3559 50 
Q 3422 -19 3297 -55 
Q 3172 -91 3053 -91 
Q 2847 -91 2730 40 
Q 2613 172 2613 403 
Q 2438 153 2195 31 
Q 1953 -91 1625 -91 
Q 1334 -91 1117 43 
Q 900 178 831 397 
L 494 -1331 
L -84 -1331 
z
" transform="scale(0.015625)"/>
       <path id="DejaVuSans-2c" d="M 750 794 
L 1409 794 
L 1409 256 
L 897 -744 
L 494 -744 
L 750 256 
L 750 794 
z
" transform="scale(0.015625)"/>
       <path id="DejaVuSans-Oblique-3c3" d="M 2219 3044 
Q 1744 3044 1422 2700 
Q 1081 2341 969 1747 
Q 844 1119 1044 756 
Q 1241 397 1706 397 
Q 2166 397 2503 759 
Q 2844 1122 2966 1747 
Q 3075 2319 2881 2700 
Q 2700 3044 2219 3044 
z
M 2309 3503 
L 4219 3500 
L 4106 2925 
L 3463 2925 
Q 3706 2438 3575 1747 
Q 3406 888 2884 400 
Q 2359 -91 1609 -91 
Q 856 -91 525 400 
Q 194 888 363 1747 
Q 528 2609 1050 3097 
Q 1484 3503 2309 3503 
z
" transform="scale(0.015625)"/>
      </defs>
      <use xlink:href="#DejaVuSans-Oblique-3bc" transform="translate(0 0.265625)"/>
      <use xlink:href="#DejaVuSans-2c" transform="translate(63.623047 0.265625)"/>
      <use xlink:href="#DejaVuSans-20" transform="translate(95.410156 0.265625)"/>
      <use xlink:href="#DejaVuSans-Oblique-3c3" transform="translate(127.197266 0.265625)"/>
     </g>
    </g>
   </g>
  </g>
  <g id="axes_2">
   <g id="patch_8">
    <path d="M 60.221389 314.728 
L 349.2 314.728 
L 349.2 205.970068 
L 60.221389 205.970068 
z
" style="fill: #ffffff"/>
   </g>
   <g id="matplotlib.axis_3">
    <g id="xtick_24">
     <g id="line2d_46">
      <g>
       <use xlink:href="#m039715d901" x="111.608857" y="314.728" style="stroke: #000000; stroke-width: 0.8"/>
      </g>
     </g>
     <g id="text_8">
      <!-- $\mathdefault{10^{0}}$ -->
      <g transform="translate(102.808857 329.326437) scale(0.1 -0.1)">
       <use xlink:href="#DejaVuSans-31" transform="translate(0 0.765625)"/>
       <use xlink:href="#DejaVuSans-30" transform="translate(63.623047 0.765625)"/>
       <use xlink:href="#DejaVuSans-30" transform="translate(128.203125 39.046875) scale(0.7)"/>
      </g>
     </g>
    </g>
    <g id="xtick_25">
     <g id="line2d_47">
      <g>
       <use xlink:href="#m039715d901" x="234.0155" y="314.728" style="stroke: #000000; stroke-width: 0.8"/>
      </g>
     </g>
     <g id="text_9">
      <!-- $\mathdefault{10^{1}}$ -->
      <g transform="translate(225.2155 329.326437) scale(0.1 -0.1)">
       <use xlink:href="#DejaVuSans-31" transform="translate(0 0.684375)"/>
       <use xlink:href="#DejaVuSans-30" transform="translate(63.623047 0.684375)"/>
       <use xlink:href="#DejaVuSans-31" transform="translate(128.203125 38.965625) scale(0.7)"/>
      </g>
     </g>
    </g>
    <g id="xtick_26">
     <g id="line2d_48">
      <g>
       <use xlink:href="#md1c98a74d1" x="62.898356" y="314.728" style="stroke: #000000; stroke-width: 0.6"/>
      </g>
     </g>
    </g>
    <g id="xtick_27">
     <g id="line2d_49">
      <g>
       <use xlink:href="#md1c98a74d1" x="74.760785" y="314.728" style="stroke: #000000; stroke-width: 0.6"/>
      </g>
     </g>
    </g>
    <g id="xtick_28">
     <g id="line2d_50">
      <g>
       <use xlink:href="#md1c98a74d1" x="84.453096" y="314.728" style="stroke: #000000; stroke-width: 0.6"/>
      </g>
     </g>
    </g>
    <g id="xtick_29">
     <g id="line2d_51">
      <g>
       <use xlink:href="#md1c98a74d1" x="92.647828" y="314.728" style="stroke: #000000; stroke-width: 0.6"/>
      </g>
     </g>
    </g>
    <g id="xtick_30">
     <g id="line2d_52">
      <g>
       <use xlink:href="#md1c98a74d1" x="99.746427" y="314.728" style="stroke: #000000; stroke-width: 0.6"/>
      </g>
     </g>
    </g>
    <g id="xtick_31">
     <g id="line2d_53">
      <g>
       <use xlink:href="#md1c98a74d1" x="106.007836" y="314.728" style="stroke: #000000; stroke-width: 0.6"/>
      </g>
     </g>
    </g>
    <g id="xtick_32">
     <g id="line2d_54">
      <g>
       <use xlink:href="#md1c98a74d1" x="148.456928" y="314.728" style="stroke: #000000; stroke-width: 0.6"/>
      </g>
     </g>
    </g>
    <g id="xtick_33">
     <g id="line2d_55">
      <g>
       <use xlink:href="#md1c98a74d1" x="170.011668" y="314.728" style="stroke: #000000; stroke-width: 0.6"/>
      </g>
     </g>
    </g>
    <g id="xtick_34">
     <g id="line2d_56">
      <g>
       <use xlink:href="#md1c98a74d1" x="185.304999" y="314.728" style="stroke: #000000; stroke-width: 0.6"/>
      </g>
     </g>
    </g>
    <g id="xtick_35">
     <g id="line2d_57">
      <g>
       <use xlink:href="#md1c98a74d1" x="197.167429" y="314.728" style="stroke: #000000; stroke-width: 0.6"/>
      </g>
     </g>
    </g>
    <g id="xtick_36">
     <g id="line2d_58">
      <g>
       <use xlink:href="#md1c98a74d1" x="206.859739" y="314.728" style="stroke: #000000; stroke-width: 0.6"/>
      </g>
     </g>
    </g>
    <g id="xtick_37">
     <g id="line2d_59">
      <g>
       <use xlink:href="#md1c98a74d1" x="215.054471" y="314.728" style="stroke: #000000; stroke-width: 0.6"/>
      </g>
     </g>
    </g>
    <g id="xtick_38">
     <g id="line2d_60">
      <g>
       <use xlink:href="#md1c98a74d1" x="222.153071" y="314.728" style="stroke: #000000; stroke-width: 0.6"/>
      </g>
     </g>
    </g>
    <g id="xtick_39">
     <g id="line2d_61">
      <g>
       <use xlink:href="#md1c98a74d1" x="228.414479" y="314.728" style="stroke: #000000; stroke-width: 0.6"/>
      </g>
     </g>
    </g>
    <g id="xtick_40">
     <g id="line2d_62">
      <g>
       <use xlink:href="#md1c98a74d1" x="270.863571" y="314.728" style="stroke: #000000; stroke-width: 0.6"/>
      </g>
     </g>
    </g>
    <g id="xtick_41">
     <g id="line2d_63">
      <g>
       <use xlink:href="#md1c98a74d1" x="292.418311" y="314.728" style="stroke: #000000; stroke-width: 0.6"/>
      </g>
     </g>
    </g>
    <g id="xtick_42">
     <g id="line2d_64">
      <g>
       <use xlink:href="#md1c98a74d1" x="307.711643" y="314.728" style="stroke: #000000; stroke-width: 0.6"/>
      </g>
     </g>
    </g>
    <g id="xtick_43">
     <g id="line2d_65">
      <g>
       <use xlink:href="#md1c98a74d1" x="319.574072" y="314.728" style="stroke: #000000; stroke-width: 0.6"/>
      </g>
     </g>
    </g>
    <g id="xtick_44">
     <g id="line2d_66">
      <g>
       <use xlink:href="#md1c98a74d1" x="329.266382" y="314.728" style="stroke: #000000; stroke-width: 0.6"/>
      </g>
     </g>
    </g>
    <g id="xtick_45">
     <g id="line2d_67">
      <g>
       <use xlink:href="#md1c98a74d1" x="337.461114" y="314.728" style="stroke: #000000; stroke-width: 0.6"/>
      </g>
     </g>
    </g>
    <g id="xtick_46">
     <g id="line2d_68">
      <g>
       <use xlink:href="#md1c98a74d1" x="344.559714" y="314.728" style="stroke: #000000; stroke-width: 0.6"/>
      </g>
     </g>
    </g>
    <g id="text_10">
     <!-- Energy [TeV] -->
     <g transform="translate(173.013038 343.004563) scale(0.1 -0.1)">
      <defs>
       <path id="DejaVuSans-45" d="M 628 4666 
L 3578 4666 
L 3578 4134 
L 1259 4134 
L 1259 2753 
L 3481 2753 
L 3481 2222 
L 1259 2222 
L 1259 531 
L 3634 531 
L 3634 0 
L 628 0 
L 628 4666 
z
" transform="scale(0.015625)"/>
       <path id="DejaVuSans-67" d="M 2906 1791 
Q 2906 2416 2648 2759 
Q 2391 3103 1925 3103 
Q 1463 3103 1205 2759 
Q 947 2416 947 1791 
Q 947 1169 1205 825 
Q 1463 481 1925 481 
Q 2391 481 2648 825 
Q 2906 1169 2906 1791 
z
M 3481 434 
Q 3481 -459 3084 -895 
Q 2688 -1331 1869 -1331 
Q 1566 -1331 1297 -1286 
Q 1028 -1241 775 -1147 
L 775 -588 
Q 1028 -725 1275 -790 
Q 1522 -856 1778 -856 
Q 2344 -856 2625 -561 
Q 2906 -266 2906 331 
L 2906 616 
Q 2728 306 2450 153 
Q 2172 0 1784 0 
Q 1141 0 747 490 
Q 353 981 353 1791 
Q 353 2603 747 3093 
Q 1141 3584 1784 3584 
Q 2172 3584 2450 3431 
Q 2728 3278 2906 2969 
L 2906 3500 
L 3481 3500 
L 3481 434 
z
" transform="scale(0.015625)"/>
       <path id="DejaVuSans-79" d="M 2059 -325 
Q 1816 -950 1584 -1140 
Q 1353 -1331 966 -1331 
L 506 -1331 
L 506 -850 
L 844 -850 
Q 1081 -850 1212 -737 
Q 1344 -625 1503 -206 
L 1606 56 
L 191 3500 
L 800 3500 
L 1894 763 
L 2988 3500 
L 3597 3500 
L 2059 -325 
z
" transform="scale(0.015625)"/>
      </defs>
      <use xlink:href="#DejaVuSans-45"/>
      <use xlink:href="#DejaVuSans-6e" x="63.183594"/>
      <use xlink:href="#DejaVuSans-65" x="126.5625"/>
      <use xlink:href="#DejaVuSans-72" x="188.085938"/>
      <use xlink:href="#DejaVuSans-67" x="227.449219"/>
      <use xlink:href="#DejaVuSans-79" x="290.925781"/>
      <use xlink:href="#DejaVuSans-20" x="350.105469"/>
      <use xlink:href="#DejaVuSans-5b" x="381.892578"/>
      <use xlink:href="#DejaVuSans-54" x="420.90625"/>
      <use xlink:href="#DejaVuSans-65" x="464.990234"/>
      <use xlink:href="#DejaVuSans-56" x="526.513672"/>
      <use xlink:href="#DejaVuSans-5d" x="594.921875"/>
     </g>
    </g>
   </g>
   <g id="matplotlib.axis_4">
    <g id="ytick_12">
     <g id="line2d_69">
      <g>
       <use xlink:href="#m6723ef4867" x="60.221389" y="293.083301" style="stroke: #000000; stroke-width: 0.8"/>
      </g>
     </g>
     <g id="text_11">
      <!-- 0.55 -->
      <g transform="translate(30.955764 296.88252) scale(0.1 -0.1)">
       <defs>
        <path id="DejaVuSans-2e" d="M 684 794 
L 1344 794 
L 1344 0 
L 684 0 
L 684 794 
z
" transform="scale(0.015625)"/>
       </defs>
       <use xlink:href="#DejaVuSans-30"/>
       <use xlink:href="#DejaVuSans-2e" x="63.623047"/>
       <use xlink:href="#DejaVuSans-35" x="95.410156"/>
       <use xlink:href="#DejaVuSans-35" x="159.033203"/>
      </g>
     </g>
    </g>
    <g id="ytick_13">
     <g id="line2d_70">
      <g>
       <use xlink:href="#m6723ef4867" x="60.221389" y="264.357312" style="stroke: #000000; stroke-width: 0.8"/>
      </g>
     </g>
     <g id="text_12">
      <!-- 0.60 -->
      <g transform="translate(30.955764 268.15653) scale(0.1 -0.1)">
       <defs>
        <path id="DejaVuSans-36" d="M 2113 2584 
Q 1688 2584 1439 2293 
Q 1191 2003 1191 1497 
Q 1191 994 1439 701 
Q 1688 409 2113 409 
Q 2538 409 2786 701 
Q 3034 994 3034 1497 
Q 3034 2003 2786 2293 
Q 2538 2584 2113 2584 
z
M 3366 4563 
L 3366 3988 
Q 3128 4100 2886 4159 
Q 2644 4219 2406 4219 
Q 1781 4219 1451 3797 
Q 1122 3375 1075 2522 
Q 1259 2794 1537 2939 
Q 1816 3084 2150 3084 
Q 2853 3084 3261 2657 
Q 3669 2231 3669 1497 
Q 3669 778 3244 343 
Q 2819 -91 2113 -91 
Q 1303 -91 875 529 
Q 447 1150 447 2328 
Q 447 3434 972 4092 
Q 1497 4750 2381 4750 
Q 2619 4750 2861 4703 
Q 3103 4656 3366 4563 
z
" transform="scale(0.015625)"/>
       </defs>
       <use xlink:href="#DejaVuSans-30"/>
       <use xlink:href="#DejaVuSans-2e" x="63.623047"/>
       <use xlink:href="#DejaVuSans-36" x="95.410156"/>
       <use xlink:href="#DejaVuSans-30" x="159.033203"/>
      </g>
     </g>
    </g>
    <g id="ytick_14">
     <g id="line2d_71">
      <g>
       <use xlink:href="#m6723ef4867" x="60.221389" y="235.631322" style="stroke: #000000; stroke-width: 0.8"/>
      </g>
     </g>
     <g id="text_13">
      <!-- 0.65 -->
      <g transform="translate(30.955764 239.430541) scale(0.1 -0.1)">
       <use xlink:href="#DejaVuSans-30"/>
       <use xlink:href="#DejaVuSans-2e" x="63.623047"/>
       <use xlink:href="#DejaVuSans-36" x="95.410156"/>
       <use xlink:href="#DejaVuSans-35" x="159.033203"/>
      </g>
     </g>
    </g>
    <g id="ytick_15">
     <g id="line2d_72">
      <g>
       <use xlink:href="#m6723ef4867" x="60.221389" y="206.905333" style="stroke: #000000; stroke-width: 0.8"/>
      </g>
     </g>
     <g id="text_14">
      <!-- 0.70 -->
      <g transform="translate(30.955764 210.704551) scale(0.1 -0.1)">
       <defs>
        <path id="DejaVuSans-37" d="M 525 4666 
L 3525 4666 
L 3525 4397 
L 1831 0 
L 1172 0 
L 2766 4134 
L 525 4134 
L 525 4666 
z
" transform="scale(0.015625)"/>
       </defs>
       <use xlink:href="#DejaVuSans-30"/>
       <use xlink:href="#DejaVuSans-2e" x="63.623047"/>
       <use xlink:href="#DejaVuSans-37" x="95.410156"/>
       <use xlink:href="#DejaVuSans-30" x="159.033203"/>
      </g>
     </g>
    </g>
    <g id="text_15">
     <!-- Coverage -->
     <g transform="translate(24.876077 284.306065) rotate(-90) scale(0.1 -0.1)">
      <defs>
       <path id="DejaVuSans-43" d="M 4122 4306 
L 4122 3641 
Q 3803 3938 3442 4084 
Q 3081 4231 2675 4231 
Q 1875 4231 1450 3742 
Q 1025 3253 1025 2328 
Q 1025 1406 1450 917 
Q 1875 428 2675 428 
Q 3081 428 3442 575 
Q 3803 722 4122 1019 
L 4122 359 
Q 3791 134 3420 21 
Q 3050 -91 2638 -91 
Q 1578 -91 968 557 
Q 359 1206 359 2328 
Q 359 3453 968 4101 
Q 1578 4750 2638 4750 
Q 3056 4750 3426 4639 
Q 3797 4528 4122 4306 
z
" transform="scale(0.015625)"/>
       <path id="DejaVuSans-76" d="M 191 3500 
L 800 3500 
L 1894 563 
L 2988 3500 
L 3597 3500 
L 2284 0 
L 1503 0 
L 191 3500 
z
" transform="scale(0.015625)"/>
      </defs>
      <use xlink:href="#DejaVuSans-43"/>
      <use xlink:href="#DejaVuSans-6f" x="69.824219"/>
      <use xlink:href="#DejaVuSans-76" x="131.005859"/>
      <use xlink:href="#DejaVuSans-65" x="190.185547"/>
      <use xlink:href="#DejaVuSans-72" x="251.708984"/>
      <use xlink:href="#DejaVuSans-61" x="292.822266"/>
      <use xlink:href="#DejaVuSans-67" x="354.101562"/>
      <use xlink:href="#DejaVuSans-65" x="417.578125"/>
     </g>
    </g>
   </g>
   <g id="line2d_73">
    <path d="M 73.356781 221.60235 
L 88.657611 218.930165 
L 103.958442 259.012941 
L 119.259272 275.046052 
L 134.560102 307.112273 
L 149.860933 288.406977 
L 165.161763 293.751347 
L 180.462594 301.767902 
L 195.763424 275.046052 
L 211.064254 242.979831 
L 226.365085 272.373867 
L 241.665915 250.996386 
L 256.966746 309.784458 
L 272.267576 253.668571 
L 287.568406 256.340756 
L 302.869237 261.685126 
L 318.170067 234.963276 
L 333.470898 261.685126 
" clip-path="url(#pa70ca0b158)" style="fill: none; stroke: #ff0000; stroke-width: 1.5; stroke-linecap: square"/>
   </g>
   <g id="line2d_74">
    <path d="M 73.356781 221.60235 
L 88.657611 210.91361 
L 103.958442 237.635461 
L 119.259272 234.963276 
L 134.560102 269.701682 
L 149.860933 237.635461 
L 165.161763 261.685126 
L 180.462594 267.029497 
L 195.763424 256.340756 
L 211.064254 221.60235 
L 226.365085 261.685126 
L 241.665915 248.324201 
L 256.966746 304.440087 
L 272.267576 248.324201 
L 287.568406 250.996386 
L 302.869237 261.685126 
L 318.170067 234.963276 
L 333.470898 261.685126 
" clip-path="url(#pa70ca0b158)" style="fill: none; stroke: #008000; stroke-width: 1.5; stroke-linecap: square"/>
   </g>
   <g id="line2d_75">
    <path d="M 73.356781 218.395728 
L 88.657611 218.395728 
L 103.958442 218.395728 
L 119.259272 218.395728 
L 134.560102 218.395728 
L 149.860933 218.395728 
L 165.161763 218.395728 
L 180.462594 218.395728 
L 195.763424 218.395728 
L 211.064254 218.395728 
L 226.365085 218.395728 
L 241.665915 218.395728 
L 256.966746 218.395728 
L 272.267576 218.395728 
L 287.568406 218.395728 
L 302.869237 218.395728 
L 318.170067 218.395728 
L 333.470898 218.395728 
" clip-path="url(#pa70ca0b158)" style="fill: none; stroke-dasharray: 1.5,2.475; stroke-dashoffset: 0; stroke: #008000; stroke-width: 1.5"/>
   </g>
   <g id="patch_9">
    <path d="M 60.221389 314.728 
L 60.221389 205.970068 
" style="fill: none; stroke: #000000; stroke-width: 0.8; stroke-linejoin: miter; stroke-linecap: square"/>
   </g>
   <g id="patch_10">
    <path d="M 349.2 314.728 
L 349.2 205.970068 
" style="fill: none; stroke: #000000; stroke-width: 0.8; stroke-linejoin: miter; stroke-linecap: square"/>
   </g>
   <g id="patch_11">
    <path d="M 60.221389 314.728 
L 349.2 314.728 
" style="fill: none; stroke: #000000; stroke-width: 0.8; stroke-linejoin: miter; stroke-linecap: square"/>
   </g>
   <g id="patch_12">
    <path d="M 60.221389 205.970068 
L 349.2 205.970068 
" style="fill: none; stroke: #000000; stroke-width: 0.8; stroke-linejoin: miter; stroke-linecap: square"/>
   </g>
   <g id="legend_2">
    <g id="patch_13">
     <path d="M 264.276563 309.728 
L 342.2 309.728 
Q 344.2 309.728 344.2 307.728 
L 344.2 264.693625 
Q 344.2 262.693625 342.2 262.693625 
L 264.276563 262.693625 
Q 262.276563 262.693625 262.276563 264.693625 
L 262.276563 307.728 
Q 262.276563 309.728 264.276563 309.728 
z
" style="fill: #ffffff; opacity: 0.8; stroke: #cccccc; stroke-linejoin: miter"/>
    </g>
    <g id="line2d_76">
     <path d="M 266.276563 270.792063 
L 276.276563 270.792063 
L 286.276563 270.792063 
" style="fill: none; stroke: #ff0000; stroke-width: 1.5; stroke-linecap: square"/>
    </g>
    <g id="text_16">
     <!-- Standard -->
     <g transform="translate(294.276563 274.292063) scale(0.1 -0.1)">
      <use xlink:href="#DejaVuSans-53"/>
      <use xlink:href="#DejaVuSans-74" x="63.476562"/>
      <use xlink:href="#DejaVuSans-61" x="102.685547"/>
      <use xlink:href="#DejaVuSans-6e" x="163.964844"/>
      <use xlink:href="#DejaVuSans-64" x="227.34375"/>
      <use xlink:href="#DejaVuSans-61" x="290.820312"/>
      <use xlink:href="#DejaVuSans-72" x="352.099609"/>
      <use xlink:href="#DejaVuSans-64" x="391.462891"/>
     </g>
    </g>
    <g id="line2d_77">
     <path d="M 266.276563 285.470188 
L 276.276563 285.470188 
L 286.276563 285.470188 
" style="fill: none; stroke: #008000; stroke-width: 1.5; stroke-linecap: square"/>
    </g>
    <g id="text_17">
     <!-- Nuisance -->
     <g transform="translate(294.276563 288.970188) scale(0.1 -0.1)">
      <use xlink:href="#DejaVuSans-4e"/>
      <use xlink:href="#DejaVuSans-75" x="74.804688"/>
      <use xlink:href="#DejaVuSans-69" x="138.183594"/>
      <use xlink:href="#DejaVuSans-73" x="165.966797"/>
      <use xlink:href="#DejaVuSans-61" x="218.066406"/>
      <use xlink:href="#DejaVuSans-6e" x="279.345703"/>
      <use xlink:href="#DejaVuSans-63" x="342.724609"/>
      <use xlink:href="#DejaVuSans-65" x="397.705078"/>
     </g>
    </g>
    <g id="line2d_78">
     <path d="M 266.276563 300.148313 
L 276.276563 300.148313 
L 286.276563 300.148313 
" style="fill: none; stroke-dasharray: 1.5,2.475; stroke-dashoffset: 0; stroke: #008000; stroke-width: 1.5"/>
    </g>
    <g id="text_18">
     <!-- 68 % -->
     <g transform="translate(294.276563 303.648313) scale(0.1 -0.1)">
      <defs>
       <path id="DejaVuSans-38" d="M 2034 2216 
Q 1584 2216 1326 1975 
Q 1069 1734 1069 1313 
Q 1069 891 1326 650 
Q 1584 409 2034 409 
Q 2484 409 2743 651 
Q 3003 894 3003 1313 
Q 3003 1734 2745 1975 
Q 2488 2216 2034 2216 
z
M 1403 2484 
Q 997 2584 770 2862 
Q 544 3141 544 3541 
Q 544 4100 942 4425 
Q 1341 4750 2034 4750 
Q 2731 4750 3128 4425 
Q 3525 4100 3525 3541 
Q 3525 3141 3298 2862 
Q 3072 2584 2669 2484 
Q 3125 2378 3379 2068 
Q 3634 1759 3634 1313 
Q 3634 634 3220 271 
Q 2806 -91 2034 -91 
Q 1263 -91 848 271 
Q 434 634 434 1313 
Q 434 1759 690 2068 
Q 947 2378 1403 2484 
z
M 1172 3481 
Q 1172 3119 1398 2916 
Q 1625 2713 2034 2713 
Q 2441 2713 2670 2916 
Q 2900 3119 2900 3481 
Q 2900 3844 2670 4047 
Q 2441 4250 2034 4250 
Q 1625 4250 1398 4047 
Q 1172 3844 1172 3481 
z
" transform="scale(0.015625)"/>
       <path id="DejaVuSans-25" d="M 4653 2053 
Q 4381 2053 4226 1822 
Q 4072 1591 4072 1178 
Q 4072 772 4226 539 
Q 4381 306 4653 306 
Q 4919 306 5073 539 
Q 5228 772 5228 1178 
Q 5228 1588 5073 1820 
Q 4919 2053 4653 2053 
z
M 4653 2450 
Q 5147 2450 5437 2106 
Q 5728 1763 5728 1178 
Q 5728 594 5436 251 
Q 5144 -91 4653 -91 
Q 4153 -91 3862 251 
Q 3572 594 3572 1178 
Q 3572 1766 3864 2108 
Q 4156 2450 4653 2450 
z
M 1428 4353 
Q 1159 4353 1004 4120 
Q 850 3888 850 3481 
Q 850 3069 1003 2837 
Q 1156 2606 1428 2606 
Q 1700 2606 1854 2837 
Q 2009 3069 2009 3481 
Q 2009 3884 1853 4118 
Q 1697 4353 1428 4353 
z
M 4250 4750 
L 4750 4750 
L 1831 -91 
L 1331 -91 
L 4250 4750 
z
M 1428 4750 
Q 1922 4750 2215 4408 
Q 2509 4066 2509 3481 
Q 2509 2891 2217 2550 
Q 1925 2209 1428 2209 
Q 931 2209 642 2551 
Q 353 2894 353 3481 
Q 353 4063 643 4406 
Q 934 4750 1428 4750 
z
" transform="scale(0.015625)"/>
      </defs>
      <use xlink:href="#DejaVuSans-36"/>
      <use xlink:href="#DejaVuSans-38" x="63.623047"/>
      <use xlink:href="#DejaVuSans-20" x="127.246094"/>
      <use xlink:href="#DejaVuSans-25" x="159.033203"/>
     </g>
    </g>
   </g>
  </g>
 </g>
 <defs>
  <clipPath id="pca8972218f">
   <rect x="60.221389" y="25.44" width="288.978611" height="163.136898"/>
  </clipPath>
  <clipPath id="pa70ca0b158">
   <rect x="60.221389" y="205.970068" width="288.978611" height="108.757932"/>
  </clipPath>
 </defs>
</svg>
