<?xml version="1.0" encoding="utf-8" standalone="no"?>
<!DOCTYPE svg PUBLIC "-//W3C//DTD SVG 1.1//EN"
  "http://www.w3.org/Graphics/SVG/1.1/DTD/svg11.dtd">
<svg xmlns:xlink="http://www.w3.org/1999/xlink" width="288pt" height="288pt" viewBox="0 0 288 288" xmlns="http://www.w3.org/2000/svg" version="1.1">
 <metadata>
  <rdf:RDF xmlns:dc="http://purl.org/dc/elements/1.1/" xmlns:cc="http://creativecommons.org/ns#" xmlns:rdf="http://www.w3.org/1999/02/22-rdf-syntax-ns#">
   <cc:Work>
    <dc:type rdf:resource="http://purl.org/dc/dcmitype/StillImage"/>
    <dc:date>2023-07-05T09:47:00.151036</dc:date>
    <dc:format>image/svg+xml</dc:format>
    <dc:creator>
     <cc:Agent>
      <dc:title>Matplotlib v3.7.1, https://matplotlib.org/</dc:title>
     </cc:Agent>
    </dc:creator>
   </cc:Work>
  </rdf:RDF>
 </metadata>
 <defs>
  <style type="text/css">*{stroke-linejoin: round; stroke-linecap: butt}</style>
 </defs>
 <g id="figure_1">
  <g id="patch_1">
   <path d="M 0 288 
L 288 288 
L 288 0 
L 0 0 
z
" style="fill: #ffffff"/>
  </g>
  <g id="axes_1">
   <g id="patch_2">
    <path d="M 46.388889 242.728 
L 273.923033 242.728 
L 273.923033 25.44 
L 46.388889 25.44 
z
" style="fill: #ffffff"/>
   </g>
   <g id="PolyCollection_1">
    <path d="M 56.73135 35.316727 
L 56.73135 54.510683 
L 58.820736 54.473606 
L 60.910123 54.448047 
L 62.999509 54.433679 
L 65.088895 54.430217 
L 67.178281 54.437412 
L 69.267667 54.455056 
L 71.357053 54.48298 
L 73.446439 54.521052 
L 75.535825 54.569179 
L 77.625211 54.627308 
L 79.714597 54.69543 
L 81.803983 54.773577 
L 83.893369 54.861833 
L 85.982755 54.96033 
L 88.072142 55.069259 
L 90.161528 55.188873 
L 92.250914 55.319498 
L 94.3403 55.461539 
L 96.429686 55.615492 
L 98.519072 55.78196 
L 100.608458 55.961663 
L 102.697844 56.155464 
L 104.78723 56.364381 
L 106.876616 56.589613 
L 108.966002 56.832562 
L 111.055388 57.094852 
L 113.144774 57.378342 
L 115.23416 57.68513 
L 117.323547 58.017539 
L 119.412933 58.378071 
L 121.502319 58.769339 
L 123.591705 59.193953 
L 125.681091 59.654394 
L 127.770477 60.152864 
L 129.859863 60.691178 
L 131.949249 61.270686 
L 134.038635 61.892285 
L 136.128021 62.556493 
L 138.217407 63.26358 
L 140.306793 64.013726 
L 142.396179 64.807177 
L 144.485566 65.644384 
L 146.574952 66.526111 
L 148.664338 67.453523 
L 150.753724 68.428242 
L 152.84311 69.452409 
L 154.932496 70.528727 
L 157.021882 71.660512 
L 159.111268 72.851764 
L 161.200654 74.107239 
L 163.29004 75.43256 
L 165.379426 76.83435 
L 167.468812 78.320417 
L 169.558198 79.899993 
L 171.647584 81.58406 
L 173.736971 83.385795 
L 175.826357 85.321183 
L 177.915743 87.409894 
L 180.005129 89.67656 
L 182.094515 92.15269 
L 184.183901 94.879665 
L 186.273287 97.913629 
L 188.362673 101.333928 
L 190.452059 105.258732 
L 192.541445 109.876738 
L 194.630831 115.520093 
L 196.720217 122.866372 
L 198.809603 133.703711 
L 200.898989 157.03229 
L 202.988376 41812.952614 
L 205.077762 41812.952614 
L 207.167148 41812.952614 
L 209.256534 41812.952614 
L 211.34592 41812.952614 
L 213.435306 41812.952614 
L 215.524692 41812.952614 
L 217.614078 41812.952614 
L 219.703464 41812.952614 
L 221.79285 41812.952614 
L 223.882236 41812.952614 
L 225.971622 41812.952614 
L 228.061008 41812.952614 
L 230.150395 41812.952614 
L 232.239781 41812.952614 
L 234.329167 41812.952614 
L 236.418553 41812.952614 
L 238.507939 41812.952614 
L 240.597325 41812.952614 
L 242.686711 41812.952614 
L 244.776097 41812.952614 
L 246.865483 41812.952614 
L 248.954869 41812.952614 
L 251.044255 41812.952614 
L 253.133641 41812.952614 
L 255.223027 41812.952614 
L 257.312413 41812.952614 
L 259.4018 41812.952614 
L 261.491186 41812.952614 
L 263.580572 41812.952614 
L 263.580572 190.905208 
L 263.580572 190.905208 
L 261.491186 181.365814 
L 259.4018 172.485902 
L 257.312413 164.222025 
L 255.223027 156.533503 
L 253.133641 149.382248 
L 251.044255 142.732594 
L 248.954869 136.551135 
L 246.865483 130.806587 
L 244.776097 125.469642 
L 242.686711 120.512846 
L 240.597325 115.910477 
L 238.507939 111.638432 
L 236.418553 107.674125 
L 234.329167 103.996392 
L 232.239781 100.585395 
L 230.150395 97.422542 
L 228.061008 94.490409 
L 225.971622 91.772664 
L 223.882236 89.254002 
L 221.79285 86.920083 
L 219.703464 84.757469 
L 217.614078 82.753575 
L 215.524692 80.896613 
L 213.435306 79.175551 
L 211.34592 77.580065 
L 209.256534 76.100501 
L 207.167148 74.727835 
L 205.077762 73.453639 
L 202.988376 72.270049 
L 200.898989 71.16973 
L 198.809603 70.145854 
L 196.720217 69.192064 
L 194.630831 68.302452 
L 192.541445 67.471536 
L 190.452059 66.694232 
L 188.362673 65.965832 
L 186.273287 65.281984 
L 184.183901 64.638667 
L 182.094515 64.032171 
L 180.005129 63.459077 
L 177.915743 62.916237 
L 175.826357 62.400749 
L 173.736971 61.909944 
L 171.647584 61.441362 
L 169.558198 60.99273 
L 167.468812 60.561947 
L 165.379426 60.147062 
L 163.29004 59.746254 
L 161.200654 59.357809 
L 159.111268 58.980103 
L 157.021882 58.611581 
L 154.932496 58.250733 
L 152.84311 57.896071 
L 150.753724 57.546114 
L 148.664338 57.199355 
L 146.574952 56.854251 
L 144.485566 56.509194 
L 142.396179 56.162503 
L 140.306793 55.812412 
L 138.217407 55.457069 
L 136.128021 55.094559 
L 134.038635 54.722935 
L 131.949249 54.340284 
L 129.859863 53.944809 
L 127.770477 53.53494 
L 125.681091 53.109449 
L 123.591705 52.667555 
L 121.502319 52.209006 
L 119.412933 51.734094 
L 117.323547 51.243627 
L 115.23416 50.738838 
L 113.144774 50.221262 
L 111.055388 49.692605 
L 108.966002 49.15462 
L 106.876616 48.609006 
L 104.78723 48.057345 
L 102.697844 47.501056 
L 100.608458 46.941381 
L 98.519072 46.379384 
L 96.429686 45.815959 
L 94.3403 45.251848 
L 92.250914 44.687658 
L 90.161528 44.123881 
L 88.072142 43.560908 
L 85.982755 42.999051 
L 83.893369 42.438552 
L 81.803983 41.879596 
L 79.714597 41.322322 
L 77.625211 40.766833 
L 75.535825 40.2132 
L 73.446439 39.661469 
L 71.357053 39.111668 
L 69.267667 38.563807 
L 67.178281 38.017885 
L 65.088895 37.473891 
L 62.999509 36.931805 
L 60.910123 36.391603 
L 58.820736 35.853254 
L 56.73135 35.316727 
z
" clip-path="url(#pd6f375faf3)" style="fill: #6495ed; fill-opacity: 0.5; stroke: #6495ed; stroke-opacity: 0.5"/>
   </g>
   <g id="PolyCollection_2">
    <path d="M 57.765597 36.530965 
L 57.765597 51.062788 
L 59.834089 51.169496 
L 61.902581 51.282577 
L 63.971073 51.401993 
L 66.039565 51.527716 
L 68.108058 51.659737 
L 70.17655 51.798059 
L 72.245042 51.942702 
L 74.313534 52.093702 
L 76.382026 52.251111 
L 78.450519 52.414999 
L 80.519011 52.585455 
L 82.587503 52.762586 
L 84.655995 52.946521 
L 86.724488 53.137409 
L 88.79298 53.335424 
L 90.861472 53.540765 
L 92.929964 53.75366 
L 94.998456 53.974364 
L 97.066949 54.203169 
L 99.135441 54.440401 
L 101.203933 54.686425 
L 103.272425 54.941654 
L 105.340917 55.206548 
L 107.40941 55.481622 
L 109.477902 55.767453 
L 111.546394 56.064687 
L 113.614886 56.374044 
L 115.683378 56.696325 
L 117.751871 57.032424 
L 119.820363 57.383324 
L 121.888855 57.750106 
L 123.957347 58.133942 
L 126.02584 58.536087 
L 128.094332 58.957854 
L 130.162824 59.400587 
L 132.231316 59.865612 
L 134.299808 60.354186 
L 136.368301 60.867439 
L 138.436793 61.406328 
L 140.505285 61.971608 
L 142.573777 62.563834 
L 144.642269 63.183394 
L 146.710762 63.83057 
L 148.779254 64.505614 
L 150.847746 65.208836 
L 152.916238 65.940677 
L 154.984731 66.70178 
L 157.053223 67.49304 
L 159.121715 68.315647 
L 161.190207 69.171118 
L 163.258699 70.06132 
L 165.327192 70.988494 
L 167.395684 71.955277 
L 169.464176 72.964719 
L 171.532668 74.020306 
L 173.60116 75.125984 
L 175.669653 76.286187 
L 177.738145 77.505866 
L 179.806637 78.790521 
L 181.875129 80.146249 
L 183.943622 81.579794 
L 186.012114 83.098615 
L 188.080606 84.71097 
L 190.149098 86.426031 
L 192.21759 88.254028 
L 194.286083 90.206449 
L 196.354575 92.296296 
L 198.423067 94.538434 
L 200.491559 96.950069 
L 202.560051 99.551408 
L 204.628544 102.366588 
L 206.697036 105.425043 
L 208.765528 108.763543 
L 210.83402 112.42939 
L 212.902512 116.485657 
L 214.971005 121.020277 
L 217.039497 126.163014 
L 219.107989 132.120331 
L 221.176481 139.25707 
L 223.244974 148.329356 
L 225.313466 161.41668 
L 227.381958 190.977296 
L 229.45045 41812.952614 
L 231.518942 41812.952614 
L 233.587435 41812.952614 
L 235.655927 41812.952614 
L 237.724419 41812.952614 
L 239.792911 41812.952614 
L 241.861403 41812.952614 
L 243.929896 41812.952614 
L 245.998388 41812.952614 
L 248.06688 41812.952614 
L 250.135372 41812.952614 
L 252.203865 41812.952614 
L 254.272357 41812.952614 
L 256.340849 41812.952614 
L 258.409341 41812.952614 
L 260.477833 41812.952614 
L 262.546326 41812.952614 
L 262.546326 202.914566 
L 262.546326 202.914566 
L 260.477833 193.885583 
L 258.409341 185.463521 
L 256.340849 177.607894 
L 254.272357 170.280739 
L 252.203865 163.446457 
L 250.135372 157.071659 
L 248.06688 151.125033 
L 245.998388 145.57721 
L 243.929896 140.400643 
L 241.861403 135.569502 
L 239.792911 131.059559 
L 237.724419 126.848101 
L 235.655927 122.913837 
L 233.587435 119.236813 
L 231.518942 115.798341 
L 229.45045 112.580919 
L 227.381958 109.568175 
L 225.313466 106.744798 
L 223.244974 104.096484 
L 221.176481 101.609884 
L 219.107989 99.272555 
L 217.039497 97.072911 
L 214.971005 95.000186 
L 212.902512 93.044387 
L 210.83402 91.196265 
L 208.765528 89.44727 
L 206.697036 87.789527 
L 204.628544 86.215796 
L 202.560051 84.719448 
L 200.491559 83.29443 
L 198.423067 81.935237 
L 196.354575 80.636884 
L 194.286083 79.394873 
L 192.21759 78.205162 
L 190.149098 77.06413 
L 188.080606 75.968547 
L 186.012114 74.915531 
L 183.943622 73.902509 
L 181.875129 72.927182 
L 179.806637 71.987478 
L 177.738145 71.081515 
L 175.669653 70.207559 
L 173.60116 69.363991 
L 171.532668 68.549265 
L 169.464176 67.761884 
L 167.395684 67.000368 
L 165.327192 66.263232 
L 163.258699 65.548964 
L 161.190207 64.856007 
L 159.121715 64.182748 
L 157.053223 63.527502 
L 154.984731 62.888511 
L 152.916238 62.263944 
L 150.847746 61.651903 
L 148.779254 61.05045 
L 146.710762 60.457637 
L 144.642269 59.87156 
L 142.573777 59.290423 
L 140.505285 58.712603 
L 138.436793 58.136723 
L 136.368301 57.5617 
L 134.299808 56.986766 
L 132.231316 56.411461 
L 130.162824 55.835601 
L 128.094332 55.259218 
L 126.02584 54.682499 
L 123.957347 54.105727 
L 121.888855 53.529231 
L 119.820363 52.953346 
L 117.751871 52.378393 
L 115.683378 51.804655 
L 113.614886 51.232379 
L 111.546394 50.66177 
L 109.477902 50.09299 
L 107.40941 49.526167 
L 105.340917 48.961394 
L 103.272425 48.398737 
L 101.203933 47.83824 
L 99.135441 47.279924 
L 97.066949 46.723795 
L 94.998456 46.169847 
L 92.929964 45.618062 
L 90.861472 45.068414 
L 88.79298 44.520871 
L 86.724488 43.975396 
L 84.655995 43.431949 
L 82.587503 42.890485 
L 80.519011 42.35096 
L 78.450519 41.813327 
L 76.382026 41.277539 
L 74.313534 40.74355 
L 72.245042 40.211313 
L 70.17655 39.680783 
L 68.108058 39.151913 
L 66.039565 38.62466 
L 63.971073 38.09898 
L 61.902581 37.574831 
L 59.834089 37.052173 
L 57.765597 36.530965 
z
" clip-path="url(#pd6f375faf3)" style="fill: #db7093; fill-opacity: 0.9"/>
   </g>
   <g id="matplotlib.axis_1">
    <g id="xtick_1">
     <g id="line2d_1">
      <defs>
       <path id="ma21543da00" d="M 0 0 
L 0 3.5 
" style="stroke: #000000; stroke-width: 0.8"/>
      </defs>
      <g>
       <use xlink:href="#ma21543da00" x="52.234628" y="242.728" style="stroke: #000000; stroke-width: 0.8"/>
      </g>
     </g>
     <g id="text_1">
      <!-- $\mathdefault{10^{-1}}$ -->
      <g transform="translate(40.484628 257.326437) scale(0.1 -0.1)">
       <defs>
        <path id="DejaVuSans-31" d="M 794 531 
L 1825 531 
L 1825 4091 
L 703 3866 
L 703 4441 
L 1819 4666 
L 2450 4666 
L 2450 531 
L 3481 531 
L 3481 0 
L 794 0 
L 794 531 
z
" transform="scale(0.015625)"/>
        <path id="DejaVuSans-30" d="M 2034 4250 
Q 1547 4250 1301 3770 
Q 1056 3291 1056 2328 
Q 1056 1369 1301 889 
Q 1547 409 2034 409 
Q 2525 409 2770 889 
Q 3016 1369 3016 2328 
Q 3016 3291 2770 3770 
Q 2525 4250 2034 4250 
z
M 2034 4750 
Q 2819 4750 3233 4129 
Q 3647 3509 3647 2328 
Q 3647 1150 3233 529 
Q 2819 -91 2034 -91 
Q 1250 -91 836 529 
Q 422 1150 422 2328 
Q 422 3509 836 4129 
Q 1250 4750 2034 4750 
z
" transform="scale(0.015625)"/>
        <path id="DejaVuSans-2212" d="M 678 2272 
L 4684 2272 
L 4684 1741 
L 678 1741 
L 678 2272 
z
" transform="scale(0.015625)"/>
       </defs>
       <use xlink:href="#DejaVuSans-31" transform="translate(0 0.684375)"/>
       <use xlink:href="#DejaVuSans-30" transform="translate(63.623047 0.684375)"/>
       <use xlink:href="#DejaVuSans-2212" transform="translate(128.203125 38.965625) scale(0.7)"/>
       <use xlink:href="#DejaVuSans-31" transform="translate(186.855469 38.965625) scale(0.7)"/>
      </g>
     </g>
    </g>
    <g id="xtick_2">
     <g id="line2d_2">
      <g>
       <use xlink:href="#ma21543da00" x="124.182183" y="242.728" style="stroke: #000000; stroke-width: 0.8"/>
      </g>
     </g>
     <g id="text_2">
      <!-- $\mathdefault{10^{0}}$ -->
      <g transform="translate(115.382183 257.326437) scale(0.1 -0.1)">
       <use xlink:href="#DejaVuSans-31" transform="translate(0 0.765625)"/>
       <use xlink:href="#DejaVuSans-30" transform="translate(63.623047 0.765625)"/>
       <use xlink:href="#DejaVuSans-30" transform="translate(128.203125 39.046875) scale(0.7)"/>
      </g>
     </g>
    </g>
    <g id="xtick_3">
     <g id="line2d_3">
      <g>
       <use xlink:href="#ma21543da00" x="196.129739" y="242.728" style="stroke: #000000; stroke-width: 0.8"/>
      </g>
     </g>
     <g id="text_3">
      <!-- $\mathdefault{10^{1}}$ -->
      <g transform="translate(187.329739 257.326437) scale(0.1 -0.1)">
       <use xlink:href="#DejaVuSans-31" transform="translate(0 0.684375)"/>
       <use xlink:href="#DejaVuSans-30" transform="translate(63.623047 0.684375)"/>
       <use xlink:href="#DejaVuSans-31" transform="translate(128.203125 38.965625) scale(0.7)"/>
      </g>
     </g>
    </g>
    <g id="xtick_4">
     <g id="line2d_4">
      <g>
       <use xlink:href="#ma21543da00" x="268.077294" y="242.728" style="stroke: #000000; stroke-width: 0.8"/>
      </g>
     </g>
     <g id="text_4">
      <!-- $\mathdefault{10^{2}}$ -->
      <g transform="translate(259.277294 257.326437) scale(0.1 -0.1)">
       <defs>
        <path id="DejaVuSans-32" d="M 1228 531 
L 3431 531 
L 3431 0 
L 469 0 
L 469 531 
Q 828 903 1448 1529 
Q 2069 2156 2228 2338 
Q 2531 2678 2651 2914 
Q 2772 3150 2772 3378 
Q 2772 3750 2511 3984 
Q 2250 4219 1831 4219 
Q 1534 4219 1204 4116 
Q 875 4013 500 3803 
L 500 4441 
Q 881 4594 1212 4672 
Q 1544 4750 1819 4750 
Q 2544 4750 2975 4387 
Q 3406 4025 3406 3419 
Q 3406 3131 3298 2873 
Q 3191 2616 2906 2266 
Q 2828 2175 2409 1742 
Q 1991 1309 1228 531 
z
" transform="scale(0.015625)"/>
       </defs>
       <use xlink:href="#DejaVuSans-31" transform="translate(0 0.765625)"/>
       <use xlink:href="#DejaVuSans-30" transform="translate(63.623047 0.765625)"/>
       <use xlink:href="#DejaVuSans-32" transform="translate(128.203125 39.046875) scale(0.7)"/>
      </g>
     </g>
    </g>
    <g id="xtick_5">
     <g id="line2d_5">
      <defs>
       <path id="mdf8c9b4e59" d="M 0 0 
L 0 2 
" style="stroke: #000000; stroke-width: 0.6"/>
      </defs>
      <g>
       <use xlink:href="#mdf8c9b4e59" x="48.942489" y="242.728" style="stroke: #000000; stroke-width: 0.6"/>
      </g>
     </g>
    </g>
    <g id="xtick_6">
     <g id="line2d_6">
      <g>
       <use xlink:href="#mdf8c9b4e59" x="73.893" y="242.728" style="stroke: #000000; stroke-width: 0.6"/>
      </g>
     </g>
    </g>
    <g id="xtick_7">
     <g id="line2d_7">
      <g>
       <use xlink:href="#mdf8c9b4e59" x="86.562336" y="242.728" style="stroke: #000000; stroke-width: 0.6"/>
      </g>
     </g>
    </g>
    <g id="xtick_8">
     <g id="line2d_8">
      <g>
       <use xlink:href="#mdf8c9b4e59" x="95.551373" y="242.728" style="stroke: #000000; stroke-width: 0.6"/>
      </g>
     </g>
    </g>
    <g id="xtick_9">
     <g id="line2d_9">
      <g>
       <use xlink:href="#mdf8c9b4e59" x="102.523811" y="242.728" style="stroke: #000000; stroke-width: 0.6"/>
      </g>
     </g>
    </g>
    <g id="xtick_10">
     <g id="line2d_10">
      <g>
       <use xlink:href="#mdf8c9b4e59" x="108.220708" y="242.728" style="stroke: #000000; stroke-width: 0.6"/>
      </g>
     </g>
    </g>
    <g id="xtick_11">
     <g id="line2d_11">
      <g>
       <use xlink:href="#mdf8c9b4e59" x="113.037366" y="242.728" style="stroke: #000000; stroke-width: 0.6"/>
      </g>
     </g>
    </g>
    <g id="xtick_12">
     <g id="line2d_12">
      <g>
       <use xlink:href="#mdf8c9b4e59" x="117.209745" y="242.728" style="stroke: #000000; stroke-width: 0.6"/>
      </g>
     </g>
    </g>
    <g id="xtick_13">
     <g id="line2d_13">
      <g>
       <use xlink:href="#mdf8c9b4e59" x="120.890044" y="242.728" style="stroke: #000000; stroke-width: 0.6"/>
      </g>
     </g>
    </g>
    <g id="xtick_14">
     <g id="line2d_14">
      <g>
       <use xlink:href="#mdf8c9b4e59" x="145.840556" y="242.728" style="stroke: #000000; stroke-width: 0.6"/>
      </g>
     </g>
    </g>
    <g id="xtick_15">
     <g id="line2d_15">
      <g>
       <use xlink:href="#mdf8c9b4e59" x="158.509891" y="242.728" style="stroke: #000000; stroke-width: 0.6"/>
      </g>
     </g>
    </g>
    <g id="xtick_16">
     <g id="line2d_16">
      <g>
       <use xlink:href="#mdf8c9b4e59" x="167.498928" y="242.728" style="stroke: #000000; stroke-width: 0.6"/>
      </g>
     </g>
    </g>
    <g id="xtick_17">
     <g id="line2d_17">
      <g>
       <use xlink:href="#mdf8c9b4e59" x="174.471366" y="242.728" style="stroke: #000000; stroke-width: 0.6"/>
      </g>
     </g>
    </g>
    <g id="xtick_18">
     <g id="line2d_18">
      <g>
       <use xlink:href="#mdf8c9b4e59" x="180.168264" y="242.728" style="stroke: #000000; stroke-width: 0.6"/>
      </g>
     </g>
    </g>
    <g id="xtick_19">
     <g id="line2d_19">
      <g>
       <use xlink:href="#mdf8c9b4e59" x="184.984921" y="242.728" style="stroke: #000000; stroke-width: 0.6"/>
      </g>
     </g>
    </g>
    <g id="xtick_20">
     <g id="line2d_20">
      <g>
       <use xlink:href="#mdf8c9b4e59" x="189.1573" y="242.728" style="stroke: #000000; stroke-width: 0.6"/>
      </g>
     </g>
    </g>
    <g id="xtick_21">
     <g id="line2d_21">
      <g>
       <use xlink:href="#mdf8c9b4e59" x="192.837599" y="242.728" style="stroke: #000000; stroke-width: 0.6"/>
      </g>
     </g>
    </g>
    <g id="xtick_22">
     <g id="line2d_22">
      <g>
       <use xlink:href="#mdf8c9b4e59" x="217.788111" y="242.728" style="stroke: #000000; stroke-width: 0.6"/>
      </g>
     </g>
    </g>
    <g id="xtick_23">
     <g id="line2d_23">
      <g>
       <use xlink:href="#mdf8c9b4e59" x="230.457446" y="242.728" style="stroke: #000000; stroke-width: 0.6"/>
      </g>
     </g>
    </g>
    <g id="xtick_24">
     <g id="line2d_24">
      <g>
       <use xlink:href="#mdf8c9b4e59" x="239.446483" y="242.728" style="stroke: #000000; stroke-width: 0.6"/>
      </g>
     </g>
    </g>
    <g id="xtick_25">
     <g id="line2d_25">
      <g>
       <use xlink:href="#mdf8c9b4e59" x="246.418922" y="242.728" style="stroke: #000000; stroke-width: 0.6"/>
      </g>
     </g>
    </g>
    <g id="xtick_26">
     <g id="line2d_26">
      <g>
       <use xlink:href="#mdf8c9b4e59" x="252.115819" y="242.728" style="stroke: #000000; stroke-width: 0.6"/>
      </g>
     </g>
    </g>
    <g id="xtick_27">
     <g id="line2d_27">
      <g>
       <use xlink:href="#mdf8c9b4e59" x="256.932477" y="242.728" style="stroke: #000000; stroke-width: 0.6"/>
      </g>
     </g>
    </g>
    <g id="xtick_28">
     <g id="line2d_28">
      <g>
       <use xlink:href="#mdf8c9b4e59" x="261.104855" y="242.728" style="stroke: #000000; stroke-width: 0.6"/>
      </g>
     </g>
    </g>
    <g id="xtick_29">
     <g id="line2d_29">
      <g>
       <use xlink:href="#mdf8c9b4e59" x="264.785154" y="242.728" style="stroke: #000000; stroke-width: 0.6"/>
      </g>
     </g>
    </g>
    <g id="text_5">
     <!-- Energy [TeV] -->
     <g transform="translate(128.458305 271.004562) scale(0.1 -0.1)">
      <defs>
       <path id="DejaVuSans-45" d="M 628 4666 
L 3578 4666 
L 3578 4134 
L 1259 4134 
L 1259 2753 
L 3481 2753 
L 3481 2222 
L 1259 2222 
L 1259 531 
L 3634 531 
L 3634 0 
L 628 0 
L 628 4666 
z
" transform="scale(0.015625)"/>
       <path id="DejaVuSans-6e" d="M 3513 2113 
L 3513 0 
L 2938 0 
L 2938 2094 
Q 2938 2591 2744 2837 
Q 2550 3084 2163 3084 
Q 1697 3084 1428 2787 
Q 1159 2491 1159 1978 
L 1159 0 
L 581 0 
L 581 3500 
L 1159 3500 
L 1159 2956 
Q 1366 3272 1645 3428 
Q 1925 3584 2291 3584 
Q 2894 3584 3203 3211 
Q 3513 2838 3513 2113 
z
" transform="scale(0.015625)"/>
       <path id="DejaVuSans-65" d="M 3597 1894 
L 3597 1613 
L 953 1613 
Q 991 1019 1311 708 
Q 1631 397 2203 397 
Q 2534 397 2845 478 
Q 3156 559 3463 722 
L 3463 178 
Q 3153 47 2828 -22 
Q 2503 -91 2169 -91 
Q 1331 -91 842 396 
Q 353 884 353 1716 
Q 353 2575 817 3079 
Q 1281 3584 2069 3584 
Q 2775 3584 3186 3129 
Q 3597 2675 3597 1894 
z
M 3022 2063 
Q 3016 2534 2758 2815 
Q 2500 3097 2075 3097 
Q 1594 3097 1305 2825 
Q 1016 2553 972 2059 
L 3022 2063 
z
" transform="scale(0.015625)"/>
       <path id="DejaVuSans-72" d="M 2631 2963 
Q 2534 3019 2420 3045 
Q 2306 3072 2169 3072 
Q 1681 3072 1420 2755 
Q 1159 2438 1159 1844 
L 1159 0 
L 581 0 
L 581 3500 
L 1159 3500 
L 1159 2956 
Q 1341 3275 1631 3429 
Q 1922 3584 2338 3584 
Q 2397 3584 2469 3576 
Q 2541 3569 2628 3553 
L 2631 2963 
z
" transform="scale(0.015625)"/>
       <path id="DejaVuSans-67" d="M 2906 1791 
Q 2906 2416 2648 2759 
Q 2391 3103 1925 3103 
Q 1463 3103 1205 2759 
Q 947 2416 947 1791 
Q 947 1169 1205 825 
Q 1463 481 1925 481 
Q 2391 481 2648 825 
Q 2906 1169 2906 1791 
z
M 3481 434 
Q 3481 -459 3084 -895 
Q 2688 -1331 1869 -1331 
Q 1566 -1331 1297 -1286 
Q 1028 -1241 775 -1147 
L 775 -588 
Q 1028 -725 1275 -790 
Q 1522 -856 1778 -856 
Q 2344 -856 2625 -561 
Q 2906 -266 2906 331 
L 2906 616 
Q 2728 306 2450 153 
Q 2172 0 1784 0 
Q 1141 0 747 490 
Q 353 981 353 1791 
Q 353 2603 747 3093 
Q 1141 3584 1784 3584 
Q 2172 3584 2450 3431 
Q 2728 3278 2906 2969 
L 2906 3500 
L 3481 3500 
L 3481 434 
z
" transform="scale(0.015625)"/>
       <path id="DejaVuSans-79" d="M 2059 -325 
Q 1816 -950 1584 -1140 
Q 1353 -1331 966 -1331 
L 506 -1331 
L 506 -850 
L 844 -850 
Q 1081 -850 1212 -737 
Q 1344 -625 1503 -206 
L 1606 56 
L 191 3500 
L 800 3500 
L 1894 763 
L 2988 3500 
L 3597 3500 
L 2059 -325 
z
" transform="scale(0.015625)"/>
       <path id="DejaVuSans-20" transform="scale(0.015625)"/>
       <path id="DejaVuSans-5b" d="M 550 4863 
L 1875 4863 
L 1875 4416 
L 1125 4416 
L 1125 -397 
L 1875 -397 
L 1875 -844 
L 550 -844 
L 550 4863 
z
" transform="scale(0.015625)"/>
       <path id="DejaVuSans-54" d="M -19 4666 
L 3928 4666 
L 3928 4134 
L 2272 4134 
L 2272 0 
L 1638 0 
L 1638 4134 
L -19 4134 
L -19 4666 
z
" transform="scale(0.015625)"/>
       <path id="DejaVuSans-56" d="M 1831 0 
L 50 4666 
L 709 4666 
L 2188 738 
L 3669 4666 
L 4325 4666 
L 2547 0 
L 1831 0 
z
" transform="scale(0.015625)"/>
       <path id="DejaVuSans-5d" d="M 1947 4863 
L 1947 -844 
L 622 -844 
L 622 -397 
L 1369 -397 
L 1369 4416 
L 622 4416 
L 622 4863 
L 1947 4863 
z
" transform="scale(0.015625)"/>
      </defs>
      <use xlink:href="#DejaVuSans-45"/>
      <use xlink:href="#DejaVuSans-6e" x="63.183594"/>
      <use xlink:href="#DejaVuSans-65" x="126.5625"/>
      <use xlink:href="#DejaVuSans-72" x="188.085938"/>
      <use xlink:href="#DejaVuSans-67" x="227.449219"/>
      <use xlink:href="#DejaVuSans-79" x="290.925781"/>
      <use xlink:href="#DejaVuSans-20" x="350.105469"/>
      <use xlink:href="#DejaVuSans-5b" x="381.892578"/>
      <use xlink:href="#DejaVuSans-54" x="420.90625"/>
      <use xlink:href="#DejaVuSans-65" x="464.990234"/>
      <use xlink:href="#DejaVuSans-56" x="526.513672"/>
      <use xlink:href="#DejaVuSans-5d" x="594.921875"/>
     </g>
    </g>
   </g>
   <g id="matplotlib.axis_2">
    <g id="ytick_1">
     <g id="line2d_30">
      <defs>
       <path id="m0b5118eb77" d="M 0 0 
L -3.5 0 
" style="stroke: #000000; stroke-width: 0.8"/>
      </defs>
      <g>
       <use xlink:href="#m0b5118eb77" x="46.388889" y="223.379824" style="stroke: #000000; stroke-width: 0.8"/>
      </g>
     </g>
     <g id="text_6">
      <!-- $\mathdefault{10^{-16}}$ -->
      <g transform="translate(11.488889 227.179043) scale(0.1 -0.1)">
       <defs>
        <path id="DejaVuSans-36" d="M 2113 2584 
Q 1688 2584 1439 2293 
Q 1191 2003 1191 1497 
Q 1191 994 1439 701 
Q 1688 409 2113 409 
Q 2538 409 2786 701 
Q 3034 994 3034 1497 
Q 3034 2003 2786 2293 
Q 2538 2584 2113 2584 
z
M 3366 4563 
L 3366 3988 
Q 3128 4100 2886 4159 
Q 2644 4219 2406 4219 
Q 1781 4219 1451 3797 
Q 1122 3375 1075 2522 
Q 1259 2794 1537 2939 
Q 1816 3084 2150 3084 
Q 2853 3084 3261 2657 
Q 3669 2231 3669 1497 
Q 3669 778 3244 343 
Q 2819 -91 2113 -91 
Q 1303 -91 875 529 
Q 447 1150 447 2328 
Q 447 3434 972 4092 
Q 1497 4750 2381 4750 
Q 2619 4750 2861 4703 
Q 3103 4656 3366 4563 
z
" transform="scale(0.015625)"/>
       </defs>
       <use xlink:href="#DejaVuSans-31" transform="translate(0 0.765625)"/>
       <use xlink:href="#DejaVuSans-30" transform="translate(63.623047 0.765625)"/>
       <use xlink:href="#DejaVuSans-2212" transform="translate(128.203125 39.046875) scale(0.7)"/>
       <use xlink:href="#DejaVuSans-31" transform="translate(186.855469 39.046875) scale(0.7)"/>
       <use xlink:href="#DejaVuSans-36" transform="translate(231.391602 39.046875) scale(0.7)"/>
      </g>
     </g>
    </g>
    <g id="ytick_2">
     <g id="line2d_31">
      <g>
       <use xlink:href="#m0b5118eb77" x="46.388889" y="181.113998" style="stroke: #000000; stroke-width: 0.8"/>
      </g>
     </g>
     <g id="text_7">
      <!-- $\mathdefault{10^{-15}}$ -->
      <g transform="translate(11.488889 184.913217) scale(0.1 -0.1)">
       <defs>
        <path id="DejaVuSans-35" d="M 691 4666 
L 3169 4666 
L 3169 4134 
L 1269 4134 
L 1269 2991 
Q 1406 3038 1543 3061 
Q 1681 3084 1819 3084 
Q 2600 3084 3056 2656 
Q 3513 2228 3513 1497 
Q 3513 744 3044 326 
Q 2575 -91 1722 -91 
Q 1428 -91 1123 -41 
Q 819 9 494 109 
L 494 744 
Q 775 591 1075 516 
Q 1375 441 1709 441 
Q 2250 441 2565 725 
Q 2881 1009 2881 1497 
Q 2881 1984 2565 2268 
Q 2250 2553 1709 2553 
Q 1456 2553 1204 2497 
Q 953 2441 691 2322 
L 691 4666 
z
" transform="scale(0.015625)"/>
       </defs>
       <use xlink:href="#DejaVuSans-31" transform="translate(0 0.684375)"/>
       <use xlink:href="#DejaVuSans-30" transform="translate(63.623047 0.684375)"/>
       <use xlink:href="#DejaVuSans-2212" transform="translate(128.203125 38.965625) scale(0.7)"/>
       <use xlink:href="#DejaVuSans-31" transform="translate(186.855469 38.965625) scale(0.7)"/>
       <use xlink:href="#DejaVuSans-35" transform="translate(231.391602 38.965625) scale(0.7)"/>
      </g>
     </g>
    </g>
    <g id="ytick_3">
     <g id="line2d_32">
      <g>
       <use xlink:href="#m0b5118eb77" x="46.388889" y="138.848172" style="stroke: #000000; stroke-width: 0.8"/>
      </g>
     </g>
     <g id="text_8">
      <!-- $\mathdefault{10^{-14}}$ -->
      <g transform="translate(11.488889 142.647391) scale(0.1 -0.1)">
       <defs>
        <path id="DejaVuSans-34" d="M 2419 4116 
L 825 1625 
L 2419 1625 
L 2419 4116 
z
M 2253 4666 
L 3047 4666 
L 3047 1625 
L 3713 1625 
L 3713 1100 
L 3047 1100 
L 3047 0 
L 2419 0 
L 2419 1100 
L 313 1100 
L 313 1709 
L 2253 4666 
z
" transform="scale(0.015625)"/>
       </defs>
       <use xlink:href="#DejaVuSans-31" transform="translate(0 0.684375)"/>
       <use xlink:href="#DejaVuSans-30" transform="translate(63.623047 0.684375)"/>
       <use xlink:href="#DejaVuSans-2212" transform="translate(128.203125 38.965625) scale(0.7)"/>
       <use xlink:href="#DejaVuSans-31" transform="translate(186.855469 38.965625) scale(0.7)"/>
       <use xlink:href="#DejaVuSans-34" transform="translate(231.391602 38.965625) scale(0.7)"/>
      </g>
     </g>
    </g>
    <g id="ytick_4">
     <g id="line2d_33">
      <g>
       <use xlink:href="#m0b5118eb77" x="46.388889" y="96.582346" style="stroke: #000000; stroke-width: 0.8"/>
      </g>
     </g>
     <g id="text_9">
      <!-- $\mathdefault{10^{-13}}$ -->
      <g transform="translate(11.488889 100.381565) scale(0.1 -0.1)">
       <defs>
        <path id="DejaVuSans-33" d="M 2597 2516 
Q 3050 2419 3304 2112 
Q 3559 1806 3559 1356 
Q 3559 666 3084 287 
Q 2609 -91 1734 -91 
Q 1441 -91 1130 -33 
Q 819 25 488 141 
L 488 750 
Q 750 597 1062 519 
Q 1375 441 1716 441 
Q 2309 441 2620 675 
Q 2931 909 2931 1356 
Q 2931 1769 2642 2001 
Q 2353 2234 1838 2234 
L 1294 2234 
L 1294 2753 
L 1863 2753 
Q 2328 2753 2575 2939 
Q 2822 3125 2822 3475 
Q 2822 3834 2567 4026 
Q 2313 4219 1838 4219 
Q 1578 4219 1281 4162 
Q 984 4106 628 3988 
L 628 4550 
Q 988 4650 1302 4700 
Q 1616 4750 1894 4750 
Q 2613 4750 3031 4423 
Q 3450 4097 3450 3541 
Q 3450 3153 3228 2886 
Q 3006 2619 2597 2516 
z
" transform="scale(0.015625)"/>
       </defs>
       <use xlink:href="#DejaVuSans-31" transform="translate(0 0.765625)"/>
       <use xlink:href="#DejaVuSans-30" transform="translate(63.623047 0.765625)"/>
       <use xlink:href="#DejaVuSans-2212" transform="translate(128.203125 39.046875) scale(0.7)"/>
       <use xlink:href="#DejaVuSans-31" transform="translate(186.855469 39.046875) scale(0.7)"/>
       <use xlink:href="#DejaVuSans-33" transform="translate(231.391602 39.046875) scale(0.7)"/>
      </g>
     </g>
    </g>
    <g id="ytick_5">
     <g id="line2d_34">
      <g>
       <use xlink:href="#m0b5118eb77" x="46.388889" y="54.31652" style="stroke: #000000; stroke-width: 0.8"/>
      </g>
     </g>
     <g id="text_10">
      <!-- $\mathdefault{10^{-12}}$ -->
      <g transform="translate(11.488889 58.115739) scale(0.1 -0.1)">
       <use xlink:href="#DejaVuSans-31" transform="translate(0 0.765625)"/>
       <use xlink:href="#DejaVuSans-30" transform="translate(63.623047 0.765625)"/>
       <use xlink:href="#DejaVuSans-2212" transform="translate(128.203125 39.046875) scale(0.7)"/>
       <use xlink:href="#DejaVuSans-31" transform="translate(186.855469 39.046875) scale(0.7)"/>
       <use xlink:href="#DejaVuSans-32" transform="translate(231.391602 39.046875) scale(0.7)"/>
      </g>
     </g>
    </g>
    <g id="ytick_6">
     <g id="line2d_35">
      <defs>
       <path id="m4fef2f4641" d="M 0 0 
L -2 0 
" style="stroke: #000000; stroke-width: 0.6"/>
      </defs>
      <g>
       <use xlink:href="#m4fef2f4641" x="46.388889" y="240.199087" style="stroke: #000000; stroke-width: 0.6"/>
      </g>
     </g>
    </g>
    <g id="ytick_7">
     <g id="line2d_36">
      <g>
       <use xlink:href="#m4fef2f4641" x="46.388889" y="236.103106" style="stroke: #000000; stroke-width: 0.6"/>
      </g>
     </g>
    </g>
    <g id="ytick_8">
     <g id="line2d_37">
      <g>
       <use xlink:href="#m4fef2f4641" x="46.388889" y="232.756445" style="stroke: #000000; stroke-width: 0.6"/>
      </g>
     </g>
    </g>
    <g id="ytick_9">
     <g id="line2d_38">
      <g>
       <use xlink:href="#m4fef2f4641" x="46.388889" y="229.926883" style="stroke: #000000; stroke-width: 0.6"/>
      </g>
     </g>
    </g>
    <g id="ytick_10">
     <g id="line2d_39">
      <g>
       <use xlink:href="#m4fef2f4641" x="46.388889" y="227.475806" style="stroke: #000000; stroke-width: 0.6"/>
      </g>
     </g>
    </g>
    <g id="ytick_11">
     <g id="line2d_40">
      <g>
       <use xlink:href="#m4fef2f4641" x="46.388889" y="225.313802" style="stroke: #000000; stroke-width: 0.6"/>
      </g>
     </g>
    </g>
    <g id="ytick_12">
     <g id="line2d_41">
      <g>
       <use xlink:href="#m4fef2f4641" x="46.388889" y="210.656543" style="stroke: #000000; stroke-width: 0.6"/>
      </g>
     </g>
    </g>
    <g id="ytick_13">
     <g id="line2d_42">
      <g>
       <use xlink:href="#m4fef2f4641" x="46.388889" y="203.2139" style="stroke: #000000; stroke-width: 0.6"/>
      </g>
     </g>
    </g>
    <g id="ytick_14">
     <g id="line2d_43">
      <g>
       <use xlink:href="#m4fef2f4641" x="46.388889" y="197.933261" style="stroke: #000000; stroke-width: 0.6"/>
      </g>
     </g>
    </g>
    <g id="ytick_15">
     <g id="line2d_44">
      <g>
       <use xlink:href="#m4fef2f4641" x="46.388889" y="193.83728" style="stroke: #000000; stroke-width: 0.6"/>
      </g>
     </g>
    </g>
    <g id="ytick_16">
     <g id="line2d_45">
      <g>
       <use xlink:href="#m4fef2f4641" x="46.388889" y="190.490619" style="stroke: #000000; stroke-width: 0.6"/>
      </g>
     </g>
    </g>
    <g id="ytick_17">
     <g id="line2d_46">
      <g>
       <use xlink:href="#m4fef2f4641" x="46.388889" y="187.661057" style="stroke: #000000; stroke-width: 0.6"/>
      </g>
     </g>
    </g>
    <g id="ytick_18">
     <g id="line2d_47">
      <g>
       <use xlink:href="#m4fef2f4641" x="46.388889" y="185.20998" style="stroke: #000000; stroke-width: 0.6"/>
      </g>
     </g>
    </g>
    <g id="ytick_19">
     <g id="line2d_48">
      <g>
       <use xlink:href="#m4fef2f4641" x="46.388889" y="183.047976" style="stroke: #000000; stroke-width: 0.6"/>
      </g>
     </g>
    </g>
    <g id="ytick_20">
     <g id="line2d_49">
      <g>
       <use xlink:href="#m4fef2f4641" x="46.388889" y="168.390717" style="stroke: #000000; stroke-width: 0.6"/>
      </g>
     </g>
    </g>
    <g id="ytick_21">
     <g id="line2d_50">
      <g>
       <use xlink:href="#m4fef2f4641" x="46.388889" y="160.948074" style="stroke: #000000; stroke-width: 0.6"/>
      </g>
     </g>
    </g>
    <g id="ytick_22">
     <g id="line2d_51">
      <g>
       <use xlink:href="#m4fef2f4641" x="46.388889" y="155.667435" style="stroke: #000000; stroke-width: 0.6"/>
      </g>
     </g>
    </g>
    <g id="ytick_23">
     <g id="line2d_52">
      <g>
       <use xlink:href="#m4fef2f4641" x="46.388889" y="151.571454" style="stroke: #000000; stroke-width: 0.6"/>
      </g>
     </g>
    </g>
    <g id="ytick_24">
     <g id="line2d_53">
      <g>
       <use xlink:href="#m4fef2f4641" x="46.388889" y="148.224793" style="stroke: #000000; stroke-width: 0.6"/>
      </g>
     </g>
    </g>
    <g id="ytick_25">
     <g id="line2d_54">
      <g>
       <use xlink:href="#m4fef2f4641" x="46.388889" y="145.395231" style="stroke: #000000; stroke-width: 0.6"/>
      </g>
     </g>
    </g>
    <g id="ytick_26">
     <g id="line2d_55">
      <g>
       <use xlink:href="#m4fef2f4641" x="46.388889" y="142.944154" style="stroke: #000000; stroke-width: 0.6"/>
      </g>
     </g>
    </g>
    <g id="ytick_27">
     <g id="line2d_56">
      <g>
       <use xlink:href="#m4fef2f4641" x="46.388889" y="140.78215" style="stroke: #000000; stroke-width: 0.6"/>
      </g>
     </g>
    </g>
    <g id="ytick_28">
     <g id="line2d_57">
      <g>
       <use xlink:href="#m4fef2f4641" x="46.388889" y="126.124891" style="stroke: #000000; stroke-width: 0.6"/>
      </g>
     </g>
    </g>
    <g id="ytick_29">
     <g id="line2d_58">
      <g>
       <use xlink:href="#m4fef2f4641" x="46.388889" y="118.682248" style="stroke: #000000; stroke-width: 0.6"/>
      </g>
     </g>
    </g>
    <g id="ytick_30">
     <g id="line2d_59">
      <g>
       <use xlink:href="#m4fef2f4641" x="46.388889" y="113.401609" style="stroke: #000000; stroke-width: 0.6"/>
      </g>
     </g>
    </g>
    <g id="ytick_31">
     <g id="line2d_60">
      <g>
       <use xlink:href="#m4fef2f4641" x="46.388889" y="109.305628" style="stroke: #000000; stroke-width: 0.6"/>
      </g>
     </g>
    </g>
    <g id="ytick_32">
     <g id="line2d_61">
      <g>
       <use xlink:href="#m4fef2f4641" x="46.388889" y="105.958967" style="stroke: #000000; stroke-width: 0.6"/>
      </g>
     </g>
    </g>
    <g id="ytick_33">
     <g id="line2d_62">
      <g>
       <use xlink:href="#m4fef2f4641" x="46.388889" y="103.129405" style="stroke: #000000; stroke-width: 0.6"/>
      </g>
     </g>
    </g>
    <g id="ytick_34">
     <g id="line2d_63">
      <g>
       <use xlink:href="#m4fef2f4641" x="46.388889" y="100.678328" style="stroke: #000000; stroke-width: 0.6"/>
      </g>
     </g>
    </g>
    <g id="ytick_35">
     <g id="line2d_64">
      <g>
       <use xlink:href="#m4fef2f4641" x="46.388889" y="98.516324" style="stroke: #000000; stroke-width: 0.6"/>
      </g>
     </g>
    </g>
    <g id="ytick_36">
     <g id="line2d_65">
      <g>
       <use xlink:href="#m4fef2f4641" x="46.388889" y="83.859065" style="stroke: #000000; stroke-width: 0.6"/>
      </g>
     </g>
    </g>
    <g id="ytick_37">
     <g id="line2d_66">
      <g>
       <use xlink:href="#m4fef2f4641" x="46.388889" y="76.416422" style="stroke: #000000; stroke-width: 0.6"/>
      </g>
     </g>
    </g>
    <g id="ytick_38">
     <g id="line2d_67">
      <g>
       <use xlink:href="#m4fef2f4641" x="46.388889" y="71.135783" style="stroke: #000000; stroke-width: 0.6"/>
      </g>
     </g>
    </g>
    <g id="ytick_39">
     <g id="line2d_68">
      <g>
       <use xlink:href="#m4fef2f4641" x="46.388889" y="67.039802" style="stroke: #000000; stroke-width: 0.6"/>
      </g>
     </g>
    </g>
    <g id="ytick_40">
     <g id="line2d_69">
      <g>
       <use xlink:href="#m4fef2f4641" x="46.388889" y="63.693141" style="stroke: #000000; stroke-width: 0.6"/>
      </g>
     </g>
    </g>
    <g id="ytick_41">
     <g id="line2d_70">
      <g>
       <use xlink:href="#m4fef2f4641" x="46.388889" y="60.863579" style="stroke: #000000; stroke-width: 0.6"/>
      </g>
     </g>
    </g>
    <g id="ytick_42">
     <g id="line2d_71">
      <g>
       <use xlink:href="#m4fef2f4641" x="46.388889" y="58.412502" style="stroke: #000000; stroke-width: 0.6"/>
      </g>
     </g>
    </g>
    <g id="ytick_43">
     <g id="line2d_72">
      <g>
       <use xlink:href="#m4fef2f4641" x="46.388889" y="56.250498" style="stroke: #000000; stroke-width: 0.6"/>
      </g>
     </g>
    </g>
    <g id="ytick_44">
     <g id="line2d_73">
      <g>
       <use xlink:href="#m4fef2f4641" x="46.388889" y="41.593239" style="stroke: #000000; stroke-width: 0.6"/>
      </g>
     </g>
    </g>
    <g id="ytick_45">
     <g id="line2d_74">
      <g>
       <use xlink:href="#m4fef2f4641" x="46.388889" y="34.150596" style="stroke: #000000; stroke-width: 0.6"/>
      </g>
     </g>
    </g>
    <g id="ytick_46">
     <g id="line2d_75">
      <g>
       <use xlink:href="#m4fef2f4641" x="46.388889" y="28.869957" style="stroke: #000000; stroke-width: 0.6"/>
      </g>
     </g>
    </g>
   </g>
   <g id="line2d_76">
    <path d="M 57.765597 42.830631 
L 59.834089 43.210169 
L 61.902581 43.590734 
L 63.971073 43.972394 
L 66.039565 44.355227 
L 68.108058 44.739311 
L 70.17655 45.124733 
L 72.245042 45.511583 
L 74.313534 45.89996 
L 76.382026 46.289969 
L 78.450519 46.68172 
L 80.519011 47.075334 
L 82.587503 47.470937 
L 84.655995 47.868666 
L 86.724488 48.268666 
L 88.79298 48.671093 
L 90.861472 49.076112 
L 92.929964 49.483902 
L 94.998456 49.894652 
L 97.066949 50.308564 
L 99.135441 50.725855 
L 101.203933 51.146755 
L 103.272425 51.571513 
L 105.340917 52.000393 
L 107.40941 52.433675 
L 109.477902 52.871662 
L 111.546394 53.314675 
L 113.614886 53.763059 
L 115.683378 54.21718 
L 117.751871 54.677433 
L 119.820363 55.144236 
L 121.888855 55.618038 
L 123.957347 56.099317 
L 126.02584 56.588585 
L 128.094332 57.08639 
L 130.162824 57.593315 
L 132.231316 58.109985 
L 134.299808 58.637067 
L 136.368301 59.175272 
L 138.436793 59.725363 
L 140.505285 60.288153 
L 142.573777 60.86451 
L 144.642269 61.455364 
L 146.710762 62.061707 
L 148.779254 62.684599 
L 150.847746 63.325172 
L 152.916238 63.984636 
L 154.984731 64.664285 
L 157.053223 65.365499 
L 159.121715 66.089755 
L 161.190207 66.83863 
L 163.258699 67.613808 
L 165.327192 68.41709 
L 167.395684 69.250399 
L 169.464176 70.115791 
L 171.532668 71.01546 
L 173.60116 71.951753 
L 175.669653 72.927177 
L 177.738145 73.944409 
L 179.806637 75.006311 
L 181.875129 76.11594 
L 183.943622 77.276562 
L 186.012114 78.491668 
L 188.080606 79.764986 
L 190.149098 81.1005 
L 192.21759 82.502467 
L 194.286083 83.975436 
L 196.354575 85.524264 
L 198.423067 87.154145 
L 200.491559 88.870625 
L 202.560051 90.679631 
L 204.628544 92.587495 
L 206.697036 94.600984 
L 208.765528 96.727327 
L 210.83402 98.974246 
L 212.902512 101.349995 
L 214.971005 103.863389 
L 217.039497 106.523851 
L 219.107989 109.341444 
L 221.176481 112.326923 
L 223.244974 115.491779 
L 225.313466 118.848287 
L 227.381958 122.409563 
L 229.45045 126.189624 
L 231.518942 130.203441 
L 233.587435 134.467013 
L 235.655927 138.997433 
L 237.724419 143.812965 
L 239.792911 148.933121 
L 241.861403 154.378749 
L 243.929896 160.172125 
L 245.998388 166.337048 
L 248.06688 172.898948 
L 250.135372 179.884993 
L 252.203865 187.324211 
L 254.272357 195.247617 
L 256.340849 203.688349 
L 258.409341 212.681814 
L 260.477833 222.265838 
L 262.546326 232.480841 
" clip-path="url(#pd6f375faf3)" style="fill: none; stroke-dasharray: 2,3.3; stroke-dashoffset: 0; stroke: #000000; stroke-width: 2"/>
   </g>
   <g id="line2d_77">
    <path d="M 57.765597 42.704212 
L 59.834089 43.086768 
L 61.902581 43.470352 
L 63.971073 43.855034 
L 66.039565 44.240888 
L 68.108058 44.627997 
L 70.17655 45.016444 
L 72.245042 45.406322 
L 74.313534 45.797729 
L 76.382026 46.190769 
L 78.450519 46.585555 
L 80.519011 46.982205 
L 82.587503 47.380847 
L 84.655995 47.781617 
L 86.724488 48.184662 
L 88.79298 48.590137 
L 90.861472 48.998208 
L 92.929964 49.409053 
L 94.998456 49.822861 
L 97.066949 50.239836 
L 99.135441 50.660194 
L 101.203933 51.084167 
L 103.272425 51.512002 
L 105.340917 51.943963 
L 107.40941 52.380334 
L 109.477902 52.821415 
L 111.546394 53.267529 
L 113.614886 53.71902 
L 115.683378 54.176257 
L 117.751871 54.639633 
L 119.820363 55.109568 
L 121.888855 55.58651 
L 123.957347 56.07094 
L 126.02584 56.56337 
L 128.094332 57.064347 
L 130.162824 57.574456 
L 132.231316 58.094322 
L 134.299808 58.624614 
L 136.368301 59.166044 
L 138.436793 59.719375 
L 140.505285 60.285422 
L 142.573777 60.865054 
L 144.642269 61.459201 
L 146.710762 62.068858 
L 148.779254 62.695084 
L 150.847746 63.339015 
L 152.916238 64.001862 
L 154.984731 64.68492 
L 157.053223 65.389571 
L 159.121715 66.117294 
L 161.190207 66.869668 
L 163.258699 67.64838 
L 165.327192 68.455232 
L 167.395684 69.29215 
L 169.464176 70.161192 
L 171.532668 71.064557 
L 173.60116 72.004593 
L 175.669653 72.983811 
L 177.738145 74.004892 
L 179.806637 75.070701 
L 181.875129 76.184299 
L 183.943622 77.348956 
L 186.012114 78.568168 
L 188.080606 79.845669 
L 190.149098 81.185446 
L 192.21759 82.591763 
L 194.286083 84.069173 
L 196.354575 85.622543 
L 198.423067 87.25707 
L 200.491559 88.978309 
L 202.560051 90.792195 
L 204.628544 92.705068 
L 206.697036 94.723703 
L 208.765528 96.855339 
L 210.83402 99.107708 
L 212.902512 101.489075 
L 214.971005 104.008267 
L 217.039497 106.674717 
L 219.107989 109.498503 
L 221.176481 112.490395 
L 223.244974 115.661896 
L 225.313466 119.025299 
L 227.381958 122.593737 
L 229.45045 126.381244 
L 231.518942 130.402813 
L 233.587435 134.674461 
L 235.655927 139.213306 
L 237.724419 144.037633 
L 239.792911 149.166981 
L 241.861403 154.622225 
L 243.929896 160.42567 
L 245.998388 166.601146 
L 248.06688 173.174116 
L 250.135372 180.171783 
L 252.203865 187.623213 
L 254.272357 195.559463 
L 256.340849 204.013712 
L 258.409341 213.021412 
L 260.477833 222.620443 
L 262.546326 232.851273 
" clip-path="url(#pd6f375faf3)" style="fill: none; stroke-dasharray: 7.4,3.2; stroke-dashoffset: 0; stroke: #191970; stroke-opacity: 0.95; stroke-width: 2"/>
   </g>
   <g id="line2d_78">
    <path d="M 57.765597 42.394874 
L 59.834089 42.78583 
L 61.902581 43.177794 
L 63.971073 43.570835 
L 66.039565 43.965028 
L 68.108058 44.360451 
L 70.17655 44.757189 
L 72.245042 45.155331 
L 74.313534 45.554973 
L 76.382026 45.956218 
L 78.450519 46.359176 
L 80.519011 46.763965 
L 82.587503 47.170708 
L 84.655995 47.579541 
L 86.724488 47.990606 
L 88.79298 48.404055 
L 90.861472 48.820053 
L 92.929964 49.238774 
L 94.998456 49.660403 
L 97.066949 50.08514 
L 99.135441 50.513197 
L 101.203933 50.944803 
L 103.272425 51.380199 
L 105.340917 51.819645 
L 107.40941 52.263419 
L 109.477902 52.711816 
L 111.546394 53.165153 
L 113.614886 53.623767 
L 115.683378 54.088022 
L 117.751871 54.558301 
L 119.820363 55.035017 
L 121.888855 55.518612 
L 123.957347 56.009556 
L 126.02584 56.508351 
L 128.094332 57.015535 
L 130.162824 57.531683 
L 132.231316 58.057407 
L 134.299808 58.593364 
L 136.368301 59.140253 
L 138.436793 59.698822 
L 140.505285 60.269872 
L 142.573777 60.854256 
L 144.642269 61.452886 
L 146.710762 62.066739 
L 148.779254 62.696855 
L 150.847746 63.344348 
L 152.916238 64.010406 
L 154.984731 64.696301 
L 157.053223 65.403391 
L 159.121715 66.133125 
L 161.190207 66.887053 
L 163.258699 67.666832 
L 165.327192 68.47423 
L 167.395684 69.311139 
L 169.464176 70.179576 
L 171.532668 71.081701 
L 173.60116 72.019819 
L 175.669653 72.996393 
L 177.738145 74.014056 
L 179.806637 75.075618 
L 181.875129 76.184085 
L 183.943622 77.342667 
L 186.012114 78.554794 
L 188.080606 79.82413 
L 190.149098 81.154591 
L 192.21759 82.550359 
L 194.286083 84.015906 
L 196.354575 85.556005 
L 198.423067 87.17576 
L 200.491559 88.880623 
L 202.560051 90.676417 
L 204.628544 92.569367 
L 206.697036 94.566121 
L 208.765528 96.673785 
L 210.83402 98.899947 
L 212.902512 101.25272 
L 214.971005 103.740766 
L 217.039497 106.373346 
L 219.107989 109.160351 
L 221.176481 112.112348 
L 223.244974 115.240632 
L 225.313466 118.557265 
L 227.381958 122.07514 
L 229.45045 125.808028 
L 231.518942 129.770646 
L 233.587435 133.978716 
L 235.655927 138.449036 
L 237.724419 143.199556 
L 239.792911 148.249451 
L 241.861403 153.61921 
L 243.929896 159.330727 
L 245.998388 165.407389 
L 248.06688 171.874187 
L 250.135372 178.757823 
L 252.203865 186.086824 
L 254.272357 193.891671 
L 256.340849 202.204931 
L 258.409341 211.0614 
L 260.477833 220.498254 
L 262.546326 230.555214 
" clip-path="url(#pd6f375faf3)" style="fill: none; stroke: #c71585; stroke-width: 1.5; stroke-linecap: square"/>
   </g>
   <g id="patch_3">
    <path d="M 46.388889 242.728 
L 46.388889 25.44 
" style="fill: none; stroke: #000000; stroke-width: 0.8; stroke-linejoin: miter; stroke-linecap: square"/>
   </g>
   <g id="patch_4">
    <path d="M 273.923033 242.728 
L 273.923033 25.44 
" style="fill: none; stroke: #000000; stroke-width: 0.8; stroke-linejoin: miter; stroke-linecap: square"/>
   </g>
   <g id="patch_5">
    <path d="M 46.388889 242.728 
L 273.923033 242.728 
" style="fill: none; stroke: #000000; stroke-width: 0.8; stroke-linejoin: miter; stroke-linecap: square"/>
   </g>
   <g id="patch_6">
    <path d="M 46.388889 25.44 
L 273.923033 25.44 
" style="fill: none; stroke: #000000; stroke-width: 0.8; stroke-linejoin: miter; stroke-linecap: square"/>
   </g>
   <g id="text_11">
    <!-- sys = 0% -->
    <g transform="translate(131.993461 19.44) scale(0.12 -0.12)">
     <defs>
      <path id="DejaVuSans-73" d="M 2834 3397 
L 2834 2853 
Q 2591 2978 2328 3040 
Q 2066 3103 1784 3103 
Q 1356 3103 1142 2972 
Q 928 2841 928 2578 
Q 928 2378 1081 2264 
Q 1234 2150 1697 2047 
L 1894 2003 
Q 2506 1872 2764 1633 
Q 3022 1394 3022 966 
Q 3022 478 2636 193 
Q 2250 -91 1575 -91 
Q 1294 -91 989 -36 
Q 684 19 347 128 
L 347 722 
Q 666 556 975 473 
Q 1284 391 1588 391 
Q 1994 391 2212 530 
Q 2431 669 2431 922 
Q 2431 1156 2273 1281 
Q 2116 1406 1581 1522 
L 1381 1569 
Q 847 1681 609 1914 
Q 372 2147 372 2553 
Q 372 3047 722 3315 
Q 1072 3584 1716 3584 
Q 2034 3584 2315 3537 
Q 2597 3491 2834 3397 
z
" transform="scale(0.015625)"/>
      <path id="DejaVuSans-3d" d="M 678 2906 
L 4684 2906 
L 4684 2381 
L 678 2381 
L 678 2906 
z
M 678 1631 
L 4684 1631 
L 4684 1100 
L 678 1100 
L 678 1631 
z
" transform="scale(0.015625)"/>
      <path id="DejaVuSans-25" d="M 4653 2053 
Q 4381 2053 4226 1822 
Q 4072 1591 4072 1178 
Q 4072 772 4226 539 
Q 4381 306 4653 306 
Q 4919 306 5073 539 
Q 5228 772 5228 1178 
Q 5228 1588 5073 1820 
Q 4919 2053 4653 2053 
z
M 4653 2450 
Q 5147 2450 5437 2106 
Q 5728 1763 5728 1178 
Q 5728 594 5436 251 
Q 5144 -91 4653 -91 
Q 4153 -91 3862 251 
Q 3572 594 3572 1178 
Q 3572 1766 3864 2108 
Q 4156 2450 4653 2450 
z
M 1428 4353 
Q 1159 4353 1004 4120 
Q 850 3888 850 3481 
Q 850 3069 1003 2837 
Q 1156 2606 1428 2606 
Q 1700 2606 1854 2837 
Q 2009 3069 2009 3481 
Q 2009 3884 1853 4118 
Q 1697 4353 1428 4353 
z
M 4250 4750 
L 4750 4750 
L 1831 -91 
L 1331 -91 
L 4250 4750 
z
M 1428 4750 
Q 1922 4750 2215 4408 
Q 2509 4066 2509 3481 
Q 2509 2891 2217 2550 
Q 1925 2209 1428 2209 
Q 931 2209 642 2551 
Q 353 2894 353 3481 
Q 353 4063 643 4406 
Q 934 4750 1428 4750 
z
" transform="scale(0.015625)"/>
     </defs>
     <use xlink:href="#DejaVuSans-73"/>
     <use xlink:href="#DejaVuSans-79" x="52.099609"/>
     <use xlink:href="#DejaVuSans-73" x="111.279297"/>
     <use xlink:href="#DejaVuSans-20" x="163.378906"/>
     <use xlink:href="#DejaVuSans-3d" x="195.166016"/>
     <use xlink:href="#DejaVuSans-20" x="278.955078"/>
     <use xlink:href="#DejaVuSans-30" x="310.742188"/>
     <use xlink:href="#DejaVuSans-25" x="374.365234"/>
    </g>
   </g>
   <g id="legend_1">
    <g id="patch_7">
     <path d="M 53.388889 237.728 
L 195.929514 237.728 
Q 197.929514 237.728 197.929514 235.728 
L 197.929514 163.337375 
Q 197.929514 161.337375 195.929514 161.337375 
L 53.388889 161.337375 
Q 51.388889 161.337375 51.388889 163.337375 
L 51.388889 235.728 
Q 51.388889 237.728 53.388889 237.728 
z
" style="fill: #ffffff; opacity: 0.8; stroke: #cccccc; stroke-linejoin: miter"/>
    </g>
    <g id="line2d_79">
     <path d="M 55.388889 169.435812 
L 65.388889 169.435812 
L 75.388889 169.435812 
" style="fill: none; stroke-dasharray: 2,3.3; stroke-dashoffset: 0; stroke: #000000; stroke-width: 2"/>
    </g>
    <g id="text_12">
     <!-- Input -->
     <g transform="translate(83.388889 172.935812) scale(0.1 -0.1)">
      <defs>
       <path id="DejaVuSans-49" d="M 628 4666 
L 1259 4666 
L 1259 0 
L 628 0 
L 628 4666 
z
" transform="scale(0.015625)"/>
       <path id="DejaVuSans-70" d="M 1159 525 
L 1159 -1331 
L 581 -1331 
L 581 3500 
L 1159 3500 
L 1159 2969 
Q 1341 3281 1617 3432 
Q 1894 3584 2278 3584 
Q 2916 3584 3314 3078 
Q 3713 2572 3713 1747 
Q 3713 922 3314 415 
Q 2916 -91 2278 -91 
Q 1894 -91 1617 61 
Q 1341 213 1159 525 
z
M 3116 1747 
Q 3116 2381 2855 2742 
Q 2594 3103 2138 3103 
Q 1681 3103 1420 2742 
Q 1159 2381 1159 1747 
Q 1159 1113 1420 752 
Q 1681 391 2138 391 
Q 2594 391 2855 752 
Q 3116 1113 3116 1747 
z
" transform="scale(0.015625)"/>
       <path id="DejaVuSans-75" d="M 544 1381 
L 544 3500 
L 1119 3500 
L 1119 1403 
Q 1119 906 1312 657 
Q 1506 409 1894 409 
Q 2359 409 2629 706 
Q 2900 1003 2900 1516 
L 2900 3500 
L 3475 3500 
L 3475 0 
L 2900 0 
L 2900 538 
Q 2691 219 2414 64 
Q 2138 -91 1772 -91 
Q 1169 -91 856 284 
Q 544 659 544 1381 
z
M 1991 3584 
L 1991 3584 
z
" transform="scale(0.015625)"/>
       <path id="DejaVuSans-74" d="M 1172 4494 
L 1172 3500 
L 2356 3500 
L 2356 3053 
L 1172 3053 
L 1172 1153 
Q 1172 725 1289 603 
Q 1406 481 1766 481 
L 2356 481 
L 2356 0 
L 1766 0 
Q 1100 0 847 248 
Q 594 497 594 1153 
L 594 3053 
L 172 3053 
L 172 3500 
L 594 3500 
L 594 4494 
L 1172 4494 
z
" transform="scale(0.015625)"/>
      </defs>
      <use xlink:href="#DejaVuSans-49"/>
      <use xlink:href="#DejaVuSans-6e" x="29.492188"/>
      <use xlink:href="#DejaVuSans-70" x="92.871094"/>
      <use xlink:href="#DejaVuSans-75" x="156.347656"/>
      <use xlink:href="#DejaVuSans-74" x="219.726562"/>
     </g>
    </g>
    <g id="line2d_80">
     <path d="M 55.388889 184.113937 
L 65.388889 184.113937 
L 75.388889 184.113937 
" style="fill: none; stroke-dasharray: 7.4,3.2; stroke-dashoffset: 0; stroke: #191970; stroke-opacity: 0.95; stroke-width: 2"/>
    </g>
    <g id="text_13">
     <!-- Best Fit with Nuisance -->
     <g transform="translate(83.388889 187.613937) scale(0.1 -0.1)">
      <defs>
       <path id="DejaVuSans-42" d="M 1259 2228 
L 1259 519 
L 2272 519 
Q 2781 519 3026 730 
Q 3272 941 3272 1375 
Q 3272 1813 3026 2020 
Q 2781 2228 2272 2228 
L 1259 2228 
z
M 1259 4147 
L 1259 2741 
L 2194 2741 
Q 2656 2741 2882 2914 
Q 3109 3088 3109 3444 
Q 3109 3797 2882 3972 
Q 2656 4147 2194 4147 
L 1259 4147 
z
M 628 4666 
L 2241 4666 
Q 2963 4666 3353 4366 
Q 3744 4066 3744 3513 
Q 3744 3084 3544 2831 
Q 3344 2578 2956 2516 
Q 3422 2416 3680 2098 
Q 3938 1781 3938 1306 
Q 3938 681 3513 340 
Q 3088 0 2303 0 
L 628 0 
L 628 4666 
z
" transform="scale(0.015625)"/>
       <path id="DejaVuSans-46" d="M 628 4666 
L 3309 4666 
L 3309 4134 
L 1259 4134 
L 1259 2759 
L 3109 2759 
L 3109 2228 
L 1259 2228 
L 1259 0 
L 628 0 
L 628 4666 
z
" transform="scale(0.015625)"/>
       <path id="DejaVuSans-69" d="M 603 3500 
L 1178 3500 
L 1178 0 
L 603 0 
L 603 3500 
z
M 603 4863 
L 1178 4863 
L 1178 4134 
L 603 4134 
L 603 4863 
z
" transform="scale(0.015625)"/>
       <path id="DejaVuSans-77" d="M 269 3500 
L 844 3500 
L 1563 769 
L 2278 3500 
L 2956 3500 
L 3675 769 
L 4391 3500 
L 4966 3500 
L 4050 0 
L 3372 0 
L 2619 2869 
L 1863 0 
L 1184 0 
L 269 3500 
z
" transform="scale(0.015625)"/>
       <path id="DejaVuSans-68" d="M 3513 2113 
L 3513 0 
L 2938 0 
L 2938 2094 
Q 2938 2591 2744 2837 
Q 2550 3084 2163 3084 
Q 1697 3084 1428 2787 
Q 1159 2491 1159 1978 
L 1159 0 
L 581 0 
L 581 4863 
L 1159 4863 
L 1159 2956 
Q 1366 3272 1645 3428 
Q 1925 3584 2291 3584 
Q 2894 3584 3203 3211 
Q 3513 2838 3513 2113 
z
" transform="scale(0.015625)"/>
       <path id="DejaVuSans-4e" d="M 628 4666 
L 1478 4666 
L 3547 763 
L 3547 4666 
L 4159 4666 
L 4159 0 
L 3309 0 
L 1241 3903 
L 1241 0 
L 628 0 
L 628 4666 
z
" transform="scale(0.015625)"/>
       <path id="DejaVuSans-61" d="M 2194 1759 
Q 1497 1759 1228 1600 
Q 959 1441 959 1056 
Q 959 750 1161 570 
Q 1363 391 1709 391 
Q 2188 391 2477 730 
Q 2766 1069 2766 1631 
L 2766 1759 
L 2194 1759 
z
M 3341 1997 
L 3341 0 
L 2766 0 
L 2766 531 
Q 2569 213 2275 61 
Q 1981 -91 1556 -91 
Q 1019 -91 701 211 
Q 384 513 384 1019 
Q 384 1609 779 1909 
Q 1175 2209 1959 2209 
L 2766 2209 
L 2766 2266 
Q 2766 2663 2505 2880 
Q 2244 3097 1772 3097 
Q 1472 3097 1187 3025 
Q 903 2953 641 2809 
L 641 3341 
Q 956 3463 1253 3523 
Q 1550 3584 1831 3584 
Q 2591 3584 2966 3190 
Q 3341 2797 3341 1997 
z
" transform="scale(0.015625)"/>
       <path id="DejaVuSans-63" d="M 3122 3366 
L 3122 2828 
Q 2878 2963 2633 3030 
Q 2388 3097 2138 3097 
Q 1578 3097 1268 2742 
Q 959 2388 959 1747 
Q 959 1106 1268 751 
Q 1578 397 2138 397 
Q 2388 397 2633 464 
Q 2878 531 3122 666 
L 3122 134 
Q 2881 22 2623 -34 
Q 2366 -91 2075 -91 
Q 1284 -91 818 406 
Q 353 903 353 1747 
Q 353 2603 823 3093 
Q 1294 3584 2113 3584 
Q 2378 3584 2631 3529 
Q 2884 3475 3122 3366 
z
" transform="scale(0.015625)"/>
      </defs>
      <use xlink:href="#DejaVuSans-42"/>
      <use xlink:href="#DejaVuSans-65" x="68.603516"/>
      <use xlink:href="#DejaVuSans-73" x="130.126953"/>
      <use xlink:href="#DejaVuSans-74" x="182.226562"/>
      <use xlink:href="#DejaVuSans-20" x="221.435547"/>
      <use xlink:href="#DejaVuSans-46" x="253.222656"/>
      <use xlink:href="#DejaVuSans-69" x="303.492188"/>
      <use xlink:href="#DejaVuSans-74" x="331.275391"/>
      <use xlink:href="#DejaVuSans-20" x="370.484375"/>
      <use xlink:href="#DejaVuSans-77" x="402.271484"/>
      <use xlink:href="#DejaVuSans-69" x="484.058594"/>
      <use xlink:href="#DejaVuSans-74" x="511.841797"/>
      <use xlink:href="#DejaVuSans-68" x="551.050781"/>
      <use xlink:href="#DejaVuSans-20" x="614.429688"/>
      <use xlink:href="#DejaVuSans-4e" x="646.216797"/>
      <use xlink:href="#DejaVuSans-75" x="721.021484"/>
      <use xlink:href="#DejaVuSans-69" x="784.400391"/>
      <use xlink:href="#DejaVuSans-73" x="812.183594"/>
      <use xlink:href="#DejaVuSans-61" x="864.283203"/>
      <use xlink:href="#DejaVuSans-6e" x="925.5625"/>
      <use xlink:href="#DejaVuSans-63" x="988.941406"/>
      <use xlink:href="#DejaVuSans-65" x="1043.921875"/>
     </g>
    </g>
    <g id="patch_8">
     <path d="M 55.388889 202.292062 
L 75.388889 202.292062 
L 75.388889 195.292062 
L 55.388889 195.292062 
z
" style="fill: #6495ed; fill-opacity: 0.5; stroke: #6495ed; stroke-opacity: 0.5; stroke-linejoin: miter"/>
    </g>
    <g id="text_14">
     <!-- 1$\,\sigma_{tot}$ -->
     <g transform="translate(83.388889 202.292062) scale(0.1 -0.1)">
      <defs>
       <path id="DejaVuSans-Oblique-3c3" d="M 2219 3044 
Q 1744 3044 1422 2700 
Q 1081 2341 969 1747 
Q 844 1119 1044 756 
Q 1241 397 1706 397 
Q 2166 397 2503 759 
Q 2844 1122 2966 1747 
Q 3075 2319 2881 2700 
Q 2700 3044 2219 3044 
z
M 2309 3503 
L 4219 3500 
L 4106 2925 
L 3463 2925 
Q 3706 2438 3575 1747 
Q 3406 888 2884 400 
Q 2359 -91 1609 -91 
Q 856 -91 525 400 
Q 194 888 363 1747 
Q 528 2609 1050 3097 
Q 1484 3503 2309 3503 
z
" transform="scale(0.015625)"/>
       <path id="DejaVuSans-Oblique-74" d="M 2706 3500 
L 2619 3053 
L 1472 3053 
L 1100 1153 
Q 1081 1047 1072 975 
Q 1063 903 1063 863 
Q 1063 663 1183 572 
Q 1303 481 1569 481 
L 2150 481 
L 2053 0 
L 1503 0 
Q 991 0 739 200 
Q 488 400 488 806 
Q 488 878 497 964 
Q 506 1050 525 1153 
L 897 3053 
L 409 3053 
L 500 3500 
L 978 3500 
L 1172 4494 
L 1747 4494 
L 1556 3500 
L 2706 3500 
z
" transform="scale(0.015625)"/>
       <path id="DejaVuSans-Oblique-6f" d="M 1625 -91 
Q 1009 -91 651 289 
Q 294 669 294 1325 
Q 294 1706 417 2101 
Q 541 2497 738 2766 
Q 1047 3184 1428 3384 
Q 1809 3584 2291 3584 
Q 2888 3584 3255 3212 
Q 3622 2841 3622 2241 
Q 3622 1825 3500 1412 
Q 3378 1000 3181 728 
Q 2875 309 2494 109 
Q 2113 -91 1625 -91 
z
M 891 1344 
Q 891 869 1089 633 
Q 1288 397 1691 397 
Q 2269 397 2648 901 
Q 3028 1406 3028 2181 
Q 3028 2634 2825 2865 
Q 2622 3097 2228 3097 
Q 1903 3097 1650 2945 
Q 1397 2794 1197 2484 
Q 1050 2253 970 1956 
Q 891 1659 891 1344 
z
" transform="scale(0.015625)"/>
      </defs>
      <use xlink:href="#DejaVuSans-31" transform="translate(0 0.09375)"/>
      <use xlink:href="#DejaVuSans-Oblique-3c3" transform="translate(79.858723 0.09375)"/>
      <use xlink:href="#DejaVuSans-Oblique-74" transform="translate(143.237629 -16.3125) scale(0.7)"/>
      <use xlink:href="#DejaVuSans-Oblique-6f" transform="translate(170.683918 -16.3125) scale(0.7)"/>
      <use xlink:href="#DejaVuSans-Oblique-74" transform="translate(213.511067 -16.3125) scale(0.7)"/>
     </g>
    </g>
    <g id="line2d_81">
     <path d="M 55.388889 213.470187 
L 65.388889 213.470187 
L 75.388889 213.470187 
" style="fill: none; stroke: #c71585; stroke-width: 1.5; stroke-linecap: square"/>
    </g>
    <g id="text_15">
     <!-- Best Fit -->
     <g transform="translate(83.388889 216.970187) scale(0.1 -0.1)">
      <use xlink:href="#DejaVuSans-42"/>
      <use xlink:href="#DejaVuSans-65" x="68.603516"/>
      <use xlink:href="#DejaVuSans-73" x="130.126953"/>
      <use xlink:href="#DejaVuSans-74" x="182.226562"/>
      <use xlink:href="#DejaVuSans-20" x="221.435547"/>
      <use xlink:href="#DejaVuSans-46" x="253.222656"/>
      <use xlink:href="#DejaVuSans-69" x="303.492188"/>
      <use xlink:href="#DejaVuSans-74" x="331.275391"/>
     </g>
    </g>
    <g id="patch_9">
     <path d="M 55.388889 231.648312 
L 75.388889 231.648312 
L 75.388889 224.648312 
L 55.388889 224.648312 
z
" style="fill: #db7093; fill-opacity: 0.9"/>
    </g>
    <g id="text_16">
     <!-- 1$\,\sigma_{stat}$ -->
     <g transform="translate(83.388889 231.648312) scale(0.1 -0.1)">
      <defs>
       <path id="DejaVuSans-Oblique-73" d="M 3200 3397 
L 3091 2853 
Q 2863 2978 2609 3040 
Q 2356 3103 2088 3103 
Q 1634 3103 1373 2948 
Q 1113 2794 1113 2528 
Q 1113 2219 1719 2053 
Q 1766 2041 1788 2034 
L 1972 1978 
Q 2547 1819 2739 1644 
Q 2931 1469 2931 1166 
Q 2931 609 2489 259 
Q 2047 -91 1331 -91 
Q 1053 -91 747 -37 
Q 441 16 72 128 
L 184 722 
Q 500 559 806 475 
Q 1113 391 1394 391 
Q 1816 391 2080 572 
Q 2344 753 2344 1031 
Q 2344 1331 1650 1516 
L 1591 1531 
L 1394 1581 
Q 956 1697 753 1886 
Q 550 2075 550 2369 
Q 550 2928 970 3256 
Q 1391 3584 2113 3584 
Q 2397 3584 2667 3537 
Q 2938 3491 3200 3397 
z
" transform="scale(0.015625)"/>
       <path id="DejaVuSans-Oblique-61" d="M 3438 1997 
L 3047 0 
L 2472 0 
L 2578 531 
Q 2325 219 2001 64 
Q 1678 -91 1281 -91 
Q 834 -91 548 182 
Q 263 456 263 884 
Q 263 1497 752 1853 
Q 1241 2209 2100 2209 
L 2900 2209 
L 2931 2363 
Q 2938 2388 2941 2417 
Q 2944 2447 2944 2509 
Q 2944 2788 2717 2942 
Q 2491 3097 2081 3097 
Q 1800 3097 1504 3025 
Q 1209 2953 897 2809 
L 997 3341 
Q 1322 3463 1633 3523 
Q 1944 3584 2234 3584 
Q 2853 3584 3176 3315 
Q 3500 3047 3500 2534 
Q 3500 2431 3484 2292 
Q 3469 2153 3438 1997 
z
M 2816 1759 
L 2241 1759 
Q 1534 1759 1195 1570 
Q 856 1381 856 984 
Q 856 709 1029 553 
Q 1203 397 1509 397 
Q 1978 397 2328 733 
Q 2678 1069 2791 1631 
L 2816 1759 
z
" transform="scale(0.015625)"/>
      </defs>
      <use xlink:href="#DejaVuSans-31" transform="translate(0 0.09375)"/>
      <use xlink:href="#DejaVuSans-Oblique-3c3" transform="translate(79.858723 0.09375)"/>
      <use xlink:href="#DejaVuSans-Oblique-73" transform="translate(143.237629 -16.3125) scale(0.7)"/>
      <use xlink:href="#DejaVuSans-Oblique-74" transform="translate(179.707356 -16.3125) scale(0.7)"/>
      <use xlink:href="#DejaVuSans-Oblique-61" transform="translate(207.153645 -16.3125) scale(0.7)"/>
      <use xlink:href="#DejaVuSans-Oblique-74" transform="translate(250.049153 -16.3125) scale(0.7)"/>
     </g>
    </g>
   </g>
  </g>
 </g>
 <defs>
  <clipPath id="pd6f375faf3">
   <rect x="46.388889" y="25.44" width="227.534143" height="217.288"/>
  </clipPath>
 </defs>
</svg>
