<?xml version="1.0" encoding="utf-8" standalone="no"?>
<!DOCTYPE svg PUBLIC "-//W3C//DTD SVG 1.1//EN"
  "http://www.w3.org/Graphics/SVG/1.1/DTD/svg11.dtd">
<svg xmlns:xlink="http://www.w3.org/1999/xlink" width="431.743023pt" height="216.082317pt" viewBox="0 0 431.743023 216.082317" xmlns="http://www.w3.org/2000/svg" version="1.1">
 <metadata>
  <rdf:RDF xmlns:dc="http://purl.org/dc/elements/1.1/" xmlns:cc="http://creativecommons.org/ns#" xmlns:rdf="http://www.w3.org/1999/02/22-rdf-syntax-ns#">
   <cc:Work>
    <dc:type rdf:resource="http://purl.org/dc/dcmitype/StillImage"/>
    <dc:date>2024-05-10T17:58:43.763559</dc:date>
    <dc:format>image/svg+xml</dc:format>
    <dc:creator>
     <cc:Agent>
      <dc:title>Matplotlib v3.7.1, https://matplotlib.org/</dc:title>
     </cc:Agent>
    </dc:creator>
   </cc:Work>
  </rdf:RDF>
 </metadata>
 <defs>
  <style type="text/css">*{stroke-linejoin: round; stroke-linecap: butt}</style>
 </defs>
 <g id="figure_1">
  <g id="patch_1">
   <path d="M 0 216.082317 
L 431.743023 216.082317 
L 431.743023 0 
L 0 0 
z
" style="fill: #ffffff"/>
  </g>
  <g id="axes_1">
   <g id="patch_2">
    <path d="M 33.143975 179.064 
L 312.143975 179.064 
L 312.143975 7.2 
L 33.143975 7.2 
z
" style="fill: #ffffff"/>
   </g>
   <g id="PolyCollection_1">
    <defs>
     <path id="m0084b6a02c" d="M 125.907654 -201.070317 
L 125.907654 -44.830317 
L 219.542088 -44.830317 
L 219.542088 -201.070317 
L 219.542088 -201.070317 
L 125.907654 -201.070317 
z
" style="stroke: #e31a1c; stroke-opacity: 0.2"/>
    </defs>
    <g clip-path="url(#pa46143a5e9)">
     <use xlink:href="#m0084b6a02c" x="0" y="216.082317" style="fill: #e31a1c; fill-opacity: 0.2; stroke: #e31a1c; stroke-opacity: 0.2"/>
    </g>
   </g>
   <g id="PolyCollection_2">
    <defs>
     <path id="mc469893008" d="M 102.730411 -201.070317 
L 102.730411 -44.830317 
L 242.652919 -44.830317 
L 242.652919 -201.070317 
L 242.652919 -201.070317 
L 102.730411 -201.070317 
z
" style="stroke: #ff7f00; stroke-opacity: 0.2"/>
    </defs>
    <g clip-path="url(#pa46143a5e9)">
     <use xlink:href="#mc469893008" x="0" y="216.082317" style="fill: #ff7f00; fill-opacity: 0.2; stroke: #ff7f00; stroke-opacity: 0.2"/>
    </g>
   </g>
   <g id="PolyCollection_3">
    <defs>
     <path id="mab335f5f44" d="M 79.48676 -201.070317 
L 79.48676 -44.830317 
L 265.801191 -44.830317 
L 265.801191 -201.070317 
L 265.801191 -201.070317 
L 79.48676 -201.070317 
z
" style="stroke: #b15928; stroke-opacity: 0.2"/>
    </defs>
    <g clip-path="url(#pa46143a5e9)">
     <use xlink:href="#mab335f5f44" x="0" y="216.082317" style="fill: #b15928; fill-opacity: 0.2; stroke: #b15928; stroke-opacity: 0.2"/>
    </g>
   </g>
   <g id="matplotlib.axis_1">
    <g id="xtick_1">
     <g id="line2d_1">
      <defs>
       <path id="mb734038096" d="M 0 0 
L 0 3.5 
" style="stroke: #000000; stroke-width: 0.8"/>
      </defs>
      <g>
       <use xlink:href="#mb734038096" x="39.430281" y="179.064" style="stroke: #000000; stroke-width: 0.8"/>
      </g>
     </g>
     <g id="text_1">
      <!-- $\mathdefault{14}$ -->
      <g transform="translate(34.448946 192.982498) scale(0.1 -0.1)">
       <defs>
        <path id="CMR17-31" d="M 1702 4083 
C 1702 4217 1696 4224 1606 4224 
C 1357 3927 979 3833 621 3820 
C 602 3820 570 3820 563 3808 
C 557 3795 557 3782 557 3648 
C 755 3648 1088 3686 1344 3839 
L 1344 467 
C 1344 243 1331 166 781 166 
L 589 166 
L 589 0 
C 896 6 1216 12 1523 12 
C 1830 12 2150 6 2458 0 
L 2458 166 
L 2266 166 
C 1715 166 1702 236 1702 467 
L 1702 4083 
z
" transform="scale(0.015625)"/>
        <path id="CMR17-34" d="M 2150 4147 
C 2150 4281 2144 4288 2029 4288 
L 128 1254 
L 128 1088 
L 1779 1088 
L 1779 460 
C 1779 230 1766 166 1318 166 
L 1197 166 
L 1197 0 
C 1402 12 1747 12 1965 12 
C 2182 12 2528 12 2733 0 
L 2733 166 
L 2611 166 
C 2163 166 2150 230 2150 460 
L 2150 1088 
L 2803 1088 
L 2803 1254 
L 2150 1254 
L 2150 4147 
z
M 1798 3723 
L 1798 1254 
L 256 1254 
L 1798 3723 
z
" transform="scale(0.015625)"/>
       </defs>
       <use xlink:href="#CMR17-31" transform="scale(0.996264)"/>
       <use xlink:href="#CMR17-34" transform="translate(45.690477 0) scale(0.996264)"/>
      </g>
     </g>
    </g>
    <g id="xtick_2">
     <g id="line2d_2">
      <g>
       <use xlink:href="#mb734038096" x="85.930281" y="179.064" style="stroke: #000000; stroke-width: 0.8"/>
      </g>
     </g>
     <g id="text_2">
      <!-- $\mathdefault{16}$ -->
      <g transform="translate(80.948946 192.982498) scale(0.1 -0.1)">
       <defs>
        <path id="CMR17-36" d="M 678 2198 
C 678 3712 1395 4076 1811 4076 
C 1946 4076 2272 4049 2400 3782 
C 2298 3782 2106 3782 2106 3558 
C 2106 3385 2246 3328 2336 3328 
C 2394 3328 2566 3353 2566 3571 
C 2566 3987 2246 4224 1805 4224 
C 1043 4224 243 3411 243 2011 
C 243 257 966 -128 1478 -128 
C 2099 -128 2688 431 2688 1295 
C 2688 2101 2170 2688 1517 2688 
C 1126 2688 838 2430 678 1979 
L 678 2198 
z
M 1478 25 
C 691 25 691 1212 691 1450 
C 691 1914 909 2585 1504 2585 
C 1613 2585 1926 2585 2138 2140 
C 2253 1889 2253 1624 2253 1302 
C 2253 954 2253 696 2118 438 
C 1978 173 1773 25 1478 25 
z
" transform="scale(0.015625)"/>
       </defs>
       <use xlink:href="#CMR17-31" transform="scale(0.996264)"/>
       <use xlink:href="#CMR17-36" transform="translate(45.690477 0) scale(0.996264)"/>
      </g>
     </g>
    </g>
    <g id="xtick_3">
     <g id="line2d_3">
      <g>
       <use xlink:href="#mb734038096" x="132.430281" y="179.064" style="stroke: #000000; stroke-width: 0.8"/>
      </g>
     </g>
     <g id="text_3">
      <!-- $\mathdefault{18}$ -->
      <g transform="translate(127.448946 192.982498) scale(0.1 -0.1)">
       <defs>
        <path id="CMR17-38" d="M 1741 2289 
C 2144 2494 2554 2803 2554 3298 
C 2554 3884 1990 4224 1472 4224 
C 890 4224 378 3800 378 3215 
C 378 3054 416 2777 666 2533 
C 730 2469 998 2276 1171 2154 
C 883 2006 211 1652 211 945 
C 211 282 838 -128 1459 -128 
C 2144 -128 2720 366 2720 1022 
C 2720 1607 2330 1877 2074 2051 
L 1741 2289 
z
M 902 2855 
C 851 2887 595 3086 595 3388 
C 595 3781 998 4076 1459 4076 
C 1965 4076 2336 3716 2336 3298 
C 2336 2700 1670 2359 1638 2359 
C 1632 2359 1626 2359 1574 2398 
L 902 2855 
z
M 2080 1536 
C 2176 1466 2483 1253 2483 861 
C 2483 385 2010 25 1472 25 
C 890 25 448 443 448 951 
C 448 1459 838 1884 1280 2083 
L 2080 1536 
z
" transform="scale(0.015625)"/>
       </defs>
       <use xlink:href="#CMR17-31" transform="scale(0.996264)"/>
       <use xlink:href="#CMR17-38" transform="translate(45.690477 0) scale(0.996264)"/>
      </g>
     </g>
    </g>
    <g id="xtick_4">
     <g id="line2d_4">
      <g>
       <use xlink:href="#mb734038096" x="178.930281" y="179.064" style="stroke: #000000; stroke-width: 0.8"/>
      </g>
     </g>
     <g id="text_4">
      <!-- $\mathdefault{20}$ -->
      <g transform="translate(173.948946 192.982498) scale(0.1 -0.1)">
       <defs>
        <path id="CMR17-32" d="M 2669 990 
L 2554 990 
C 2490 537 2438 460 2413 422 
C 2381 371 1920 371 1830 371 
L 602 371 
C 832 620 1280 1073 1824 1596 
C 2214 1966 2669 2400 2669 3033 
C 2669 3788 2067 4224 1395 4224 
C 691 4224 262 3603 262 3027 
C 262 2777 448 2745 525 2745 
C 589 2745 781 2783 781 3007 
C 781 3206 614 3264 525 3264 
C 486 3264 448 3257 422 3244 
C 544 3788 915 4057 1306 4057 
C 1862 4057 2227 3616 2227 3033 
C 2227 2477 1901 1998 1536 1583 
L 262 147 
L 262 0 
L 2515 0 
L 2669 990 
z
" transform="scale(0.015625)"/>
        <path id="CMR17-30" d="M 2688 2038 
C 2688 2430 2682 3099 2413 3613 
C 2176 4063 1798 4224 1466 4224 
C 1158 4224 768 4082 525 3620 
C 269 3137 243 2539 243 2038 
C 243 1671 250 1112 448 623 
C 723 -39 1216 -128 1466 -128 
C 1760 -128 2208 -7 2470 604 
C 2662 1048 2688 1568 2688 2038 
z
M 1466 -26 
C 1056 -26 813 328 723 816 
C 653 1196 653 1749 653 2109 
C 653 2604 653 3015 736 3407 
C 858 3954 1216 4121 1466 4121 
C 1728 4121 2067 3947 2189 3420 
C 2272 3054 2278 2623 2278 2109 
C 2278 1691 2278 1176 2202 797 
C 2067 96 1690 -26 1466 -26 
z
" transform="scale(0.015625)"/>
       </defs>
       <use xlink:href="#CMR17-32" transform="scale(0.996264)"/>
       <use xlink:href="#CMR17-30" transform="translate(45.690477 0) scale(0.996264)"/>
      </g>
     </g>
    </g>
    <g id="xtick_5">
     <g id="line2d_5">
      <g>
       <use xlink:href="#mb734038096" x="225.430281" y="179.064" style="stroke: #000000; stroke-width: 0.8"/>
      </g>
     </g>
     <g id="text_5">
      <!-- $\mathdefault{22}$ -->
      <g transform="translate(220.448946 192.982498) scale(0.1 -0.1)">
       <use xlink:href="#CMR17-32" transform="scale(0.996264)"/>
       <use xlink:href="#CMR17-32" transform="translate(45.690477 0) scale(0.996264)"/>
      </g>
     </g>
    </g>
    <g id="xtick_6">
     <g id="line2d_6">
      <g>
       <use xlink:href="#mb734038096" x="271.930281" y="179.064" style="stroke: #000000; stroke-width: 0.8"/>
      </g>
     </g>
     <g id="text_6">
      <!-- $\mathdefault{24}$ -->
      <g transform="translate(266.948946 192.982498) scale(0.1 -0.1)">
       <use xlink:href="#CMR17-32" transform="scale(0.996264)"/>
       <use xlink:href="#CMR17-34" transform="translate(45.690477 0) scale(0.996264)"/>
      </g>
     </g>
    </g>
    <g id="text_7">
     <!-- Reconstructed Energy [TeV] -->
     <g transform="translate(110.875516 206.391657) scale(0.1 -0.1)">
      <defs>
       <path id="CMR17-52" d="M 2509 2156 
C 3117 2278 3629 2689 3629 3203 
C 3629 3806 2950 4352 2054 4352 
L 333 4352 
L 333 4185 
C 774 4185 845 4185 845 3896 
L 845 428 
C 845 140 774 140 333 140 
L 333 -26 
C 518 -13 851 -13 1050 -13 
C 1248 -13 1581 -13 1766 -26 
L 1766 140 
C 1325 140 1254 140 1254 428 
L 1254 2112 
L 2003 2112 
C 2368 2112 2573 1964 2662 1881 
C 2918 1632 2918 1459 2918 1024 
C 2918 595 2918 377 3110 160 
C 3354 -103 3680 -128 3821 -128 
C 4294 -128 4365 403 4365 512 
C 4365 550 4365 595 4307 595 
C 4256 595 4250 556 4250 531 
C 4218 115 4032 -26 3834 -26 
C 3482 -26 3443 377 3405 768 
C 3386 902 3373 998 3360 1139 
C 3322 1459 3270 1926 2509 2156 
z
M 1984 2214 
L 1254 2214 
L 1254 3935 
C 1254 4153 1267 4185 1523 4185 
L 1990 4185 
C 2522 4185 3142 3999 3142 3203 
C 3142 2374 2464 2214 1984 2214 
z
" transform="scale(0.015625)"/>
       <path id="CMR17-65" d="M 2438 1503 
C 2464 1529 2464 1542 2464 1606 
C 2464 2251 2118 2816 1389 2816 
C 710 2816 173 2175 173 1394 
C 173 554 781 -64 1459 -64 
C 2176 -64 2458 619 2458 755 
C 2458 800 2419 800 2406 800 
C 2362 800 2355 787 2330 709 
C 2189 270 1837 51 1504 51 
C 1229 51 954 206 781 490 
C 582 819 582 1200 582 1503 
L 2438 1503 
z
M 589 1600 
C 634 2511 1126 2713 1382 2713 
C 1818 2713 2112 2308 2118 1600 
L 589 1600 
z
" transform="scale(0.015625)"/>
       <path id="CMR17-63" d="M 2234 2240 
C 2112 2240 1933 2240 1933 2015 
C 1933 1836 2080 1785 2163 1785 
C 2208 1785 2394 1804 2394 2028 
C 2394 2476 1958 2816 1466 2816 
C 787 2816 211 2201 211 1379 
C 211 521 813 -64 1466 -64 
C 2259 -64 2458 676 2458 747 
C 2458 773 2451 792 2406 792 
C 2362 792 2355 786 2330 702 
C 2163 180 1798 51 1523 51 
C 1114 51 621 431 621 1385 
C 621 2358 1094 2700 1472 2700 
C 1722 2700 2093 2582 2234 2240 
z
" transform="scale(0.015625)"/>
       <path id="CMR17-6f" d="M 2758 1356 
C 2758 2176 2163 2816 1466 2816 
C 768 2816 173 2176 173 1356 
C 173 550 768 -64 1466 -64 
C 2163 -64 2758 550 2758 1356 
z
M 1466 51 
C 1165 51 909 230 762 480 
C 602 768 582 1126 582 1408 
C 582 1676 595 2009 762 2297 
C 890 2508 1139 2713 1466 2713 
C 1754 2713 1997 2553 2150 2329 
C 2349 2028 2349 1606 2349 1408 
C 2349 1158 2336 774 2163 467 
C 1984 172 1709 51 1466 51 
z
" transform="scale(0.015625)"/>
       <path id="CMR17-6e" d="M 2656 1954 
C 2656 2282 2592 2816 1837 2816 
C 1331 2816 1069 2424 973 2166 
L 966 2166 
L 966 2816 
L 211 2745 
L 211 2578 
C 589 2578 646 2540 646 2231 
L 646 443 
C 646 198 621 166 211 166 
L 211 0 
C 365 12 646 12 813 12 
C 979 12 1267 12 1421 0 
L 1421 166 
C 1011 166 986 192 986 443 
L 986 1678 
C 986 2269 1344 2713 1792 2713 
C 2266 2713 2317 2289 2317 1980 
L 2317 443 
C 2317 198 2291 166 1882 166 
L 1882 0 
C 2035 12 2317 12 2483 12 
C 2650 12 2938 12 3091 0 
L 3091 166 
C 2682 166 2656 192 2656 443 
L 2656 1954 
z
" transform="scale(0.015625)"/>
       <path id="CMR17-73" d="M 1978 2688 
C 1978 2803 1971 2809 1933 2809 
C 1907 2809 1901 2803 1824 2707 
C 1805 2681 1747 2617 1728 2592 
C 1523 2809 1235 2816 1126 2816 
C 416 2816 160 2444 160 2073 
C 160 1497 813 1363 998 1324 
C 1402 1241 1542 1216 1677 1100 
C 1760 1024 1901 883 1901 652 
C 1901 384 1747 38 1158 38 
C 602 38 403 460 288 1024 
C 269 1113 269 1120 218 1120 
C 166 1120 160 1113 160 985 
L 160 64 
C 160 -52 166 -58 205 -58 
C 237 -58 243 -52 275 0 
C 314 57 410 211 448 275 
C 576 102 800 -64 1158 -64 
C 1792 -64 2131 281 2131 780 
C 2131 1107 1958 1280 1875 1356 
C 1683 1555 1459 1600 1190 1651 
C 838 1728 390 1817 390 2208 
C 390 2374 480 2726 1126 2726 
C 1811 2726 1850 2086 1862 1881 
C 1869 1849 1901 1843 1920 1843 
C 1978 1843 1978 1862 1978 1971 
L 1978 2688 
z
" transform="scale(0.015625)"/>
       <path id="CMR17-74" d="M 966 2585 
L 1862 2585 
L 1862 2752 
L 966 2752 
L 966 3968 
L 851 3968 
C 838 3292 614 2700 70 2687 
L 70 2585 
L 627 2585 
L 627 778 
C 627 655 627 -64 1370 -64 
C 1747 -64 1965 308 1965 784 
L 1965 1151 
L 1850 1151 
L 1850 790 
C 1850 347 1677 51 1408 51 
C 1222 51 966 179 966 765 
L 966 2585 
z
" transform="scale(0.015625)"/>
       <path id="CMR17-72" d="M 960 1517 
C 960 2134 1222 2713 1702 2713 
C 1747 2713 1792 2707 1837 2687 
C 1837 2687 1696 2642 1696 2475 
C 1696 2321 1818 2257 1914 2257 
C 1990 2257 2131 2302 2131 2482 
C 2131 2687 1926 2816 1709 2816 
C 1222 2816 1011 2340 947 2115 
L 941 2115 
L 941 2816 
L 198 2745 
L 198 2578 
C 576 2578 634 2540 634 2231 
L 634 443 
C 634 198 608 166 198 166 
L 198 0 
C 352 12 646 12 813 12 
C 998 12 1325 12 1498 0 
L 1498 166 
C 1037 166 960 166 960 455 
L 960 1517 
z
" transform="scale(0.015625)"/>
       <path id="CMR17-75" d="M 1882 2745 
L 1882 2579 
C 2259 2579 2317 2540 2317 2229 
L 2317 1053 
C 2317 510 2029 38 1555 38 
C 1030 38 986 355 986 691 
L 986 2816 
L 211 2745 
L 211 2579 
C 467 2579 640 2579 646 2320 
L 646 1079 
C 646 646 646 368 813 187 
C 896 103 1056 -64 1517 -64 
C 2061 -64 2272 400 2323 536 
L 2330 536 
L 2330 -64 
L 3091 -13 
L 3091 154 
C 2714 154 2656 193 2656 503 
L 2656 2816 
L 1882 2745 
z
" transform="scale(0.015625)"/>
       <path id="CMR17-64" d="M 1869 4345 
L 1869 4179 
C 2246 4179 2304 4141 2304 3843 
L 2304 2371 
C 2278 2403 2016 2816 1498 2816 
C 845 2816 211 2228 211 1376 
C 211 529 806 -64 1434 -64 
C 1978 -64 2259 361 2291 406 
L 2291 -64 
L 3066 -13 
L 3066 154 
C 2688 154 2630 193 2630 503 
L 2630 4416 
L 1869 4345 
z
M 2291 762 
C 2291 568 2176 393 2029 264 
C 1811 70 1594 38 1472 38 
C 1286 38 621 135 621 1369 
C 621 2636 1363 2713 1530 2713 
C 1824 2713 2061 2545 2208 2313 
C 2291 2177 2291 2157 2291 2041 
L 2291 762 
z
" transform="scale(0.015625)"/>
       <path id="CMR17-45" d="M 3885 1614 
L 3770 1614 
C 3629 676 3546 166 2419 166 
L 1530 166 
C 1274 166 1261 198 1261 415 
L 1261 2176 
L 1862 2176 
C 2464 2176 2522 1959 2522 1429 
L 2637 1429 
L 2637 3086 
L 2522 3086 
C 2522 2558 2464 2342 1862 2342 
L 1261 2342 
L 1261 3924 
C 1261 4141 1274 4172 1530 4172 
L 2406 4172 
C 3398 4172 3514 3778 3603 2933 
L 3718 2933 
L 3565 4339 
L 326 4339 
L 326 4172 
C 768 4172 838 4172 838 3886 
L 838 453 
C 838 166 768 166 326 166 
L 326 0 
L 3654 0 
L 3885 1614 
z
" transform="scale(0.015625)"/>
       <path id="CMR17-67" d="M 710 1165 
C 832 1068 1043 960 1299 960 
C 1805 960 2240 1359 2240 1895 
C 2240 2063 2189 2321 1997 2521 
C 2176 2713 2438 2777 2586 2777 
C 2611 2777 2650 2777 2682 2758 
C 2656 2751 2598 2726 2598 2623 
C 2598 2540 2656 2483 2739 2483 
C 2835 2483 2886 2547 2886 2630 
C 2886 2751 2790 2880 2586 2880 
C 2330 2880 2106 2758 1926 2591 
C 1734 2764 1504 2828 1299 2828 
C 794 2828 358 2431 358 1895 
C 358 1527 570 1294 634 1230 
C 442 1004 442 742 442 710 
C 442 544 506 300 723 166 
C 390 82 128 -184 128 -517 
C 128 -996 736 -1344 1466 -1344 
C 2170 -1344 2803 -1009 2803 -510 
C 2803 384 1856 384 1363 384 
C 1216 384 954 384 922 390 
C 723 422 589 601 589 825 
C 589 883 589 1024 710 1165 
z
M 1299 1068 
C 736 1068 736 1766 736 1895 
C 736 2024 736 2719 1299 2719 
C 1862 2719 1862 2024 1862 1895 
C 1862 1766 1862 1068 1299 1068 
z
M 1466 -1236 
C 826 -1236 384 -883 384 -517 
C 384 -311 493 -118 634 -11 
C 794 102 858 102 1293 102 
C 1818 102 2547 102 2547 -517 
C 2547 -883 2106 -1236 1466 -1236 
z
" transform="scale(0.015625)"/>
       <path id="CMR17-79" d="M 2496 2183 
C 2656 2579 2944 2585 3034 2585 
L 3034 2752 
C 2912 2745 2752 2739 2630 2739 
C 2496 2739 2285 2739 2157 2752 
L 2157 2585 
C 2400 2566 2406 2384 2406 2332 
C 2406 2268 2394 2235 2362 2158 
L 1664 409 
L 902 2300 
C 870 2378 870 2423 870 2430 
C 870 2572 1018 2585 1171 2585 
L 1171 2752 
C 1018 2739 742 2739 582 2739 
C 410 2739 205 2739 64 2752 
L 64 2585 
C 410 2585 448 2553 531 2345 
L 1485 -31 
C 1197 -795 1030 -1242 627 -1242 
C 557 -1242 397 -1223 282 -1106 
C 429 -1093 493 -1002 493 -892 
C 493 -782 416 -685 288 -685 
C 147 -685 77 -782 77 -899 
C 77 -1158 339 -1344 627 -1344 
C 998 -1344 1229 -983 1357 -659 
L 2496 2183 
z
" transform="scale(0.015625)"/>
       <path id="CMR17-5b" d="M 1504 -1600 
L 1504 -1376 
L 902 -1376 
L 902 4575 
L 1504 4575 
L 1504 4800 
L 678 4800 
L 678 -1600 
L 1504 -1600 
z
" transform="scale(0.015625)"/>
       <path id="CMR17-54" d="M 3981 4332 
L 288 4332 
L 179 2924 
L 294 2924 
C 378 3981 467 4166 1453 4166 
C 1568 4166 1754 4166 1805 4159 
C 1926 4140 1926 4064 1926 3917 
L 1926 465 
C 1926 236 1907 166 1376 166 
L 1197 166 
L 1197 0 
C 1504 6 1824 12 2138 12 
C 2451 12 2771 6 3078 0 
L 3078 166 
L 2899 166 
C 2368 166 2349 236 2349 465 
L 2349 3917 
C 2349 4057 2349 4134 2464 4159 
C 2515 4166 2701 4166 2816 4166 
C 3795 4166 3891 3981 3974 2924 
L 4090 2924 
L 3981 4332 
z
" transform="scale(0.015625)"/>
       <path id="CMR17-56" d="M 3776 3762 
C 3834 3903 3936 4179 4365 4185 
L 4365 4352 
C 4218 4339 4051 4339 3891 4339 
C 3738 4339 3475 4339 3328 4352 
L 3328 4185 
C 3648 4166 3661 3942 3661 3903 
C 3661 3833 3642 3788 3622 3737 
L 2362 448 
L 1043 3903 
C 1024 3948 1011 3980 1011 4012 
C 1011 4185 1267 4185 1402 4185 
L 1402 4352 
C 1197 4339 896 4339 685 4339 
C 518 4339 218 4339 64 4352 
L 64 4185 
C 435 4185 506 4160 582 3955 
L 2106 -26 
C 2138 -116 2144 -128 2214 -128 
C 2285 -128 2291 -116 2323 -26 
L 3776 3762 
z
" transform="scale(0.015625)"/>
       <path id="CMR17-5d" d="M 915 4800 
L 90 4800 
L 90 4575 
L 691 4575 
L 691 -1376 
L 90 -1376 
L 90 -1600 
L 915 -1600 
L 915 4800 
z
" transform="scale(0.015625)"/>
      </defs>
      <use xlink:href="#CMR17-52" transform="scale(0.996264)"/>
      <use xlink:href="#CMR17-65" transform="translate(67.791102 0) scale(0.996264)"/>
      <use xlink:href="#CMR17-63" transform="translate(108.276762 0) scale(0.996264)"/>
      <use xlink:href="#CMR17-6f" transform="translate(148.762423 0) scale(0.996264)"/>
      <use xlink:href="#CMR17-6e" transform="translate(194.4529 0) scale(0.996264)"/>
      <use xlink:href="#CMR17-73" transform="translate(245.34827 0) scale(0.996264)"/>
      <use xlink:href="#CMR17-74" transform="translate(281.149607 0) scale(0.996264)"/>
      <use xlink:href="#CMR17-72" transform="translate(316.430375 0) scale(0.996264)"/>
      <use xlink:href="#CMR17-75" transform="translate(351.711143 0) scale(0.996264)"/>
      <use xlink:href="#CMR17-63" transform="translate(402.606513 0) scale(0.996264)"/>
      <use xlink:href="#CMR17-74" transform="translate(443.092173 0) scale(0.996264)"/>
      <use xlink:href="#CMR17-65" transform="translate(478.372941 0) scale(0.996264)"/>
      <use xlink:href="#CMR17-64" transform="translate(518.858602 0) scale(0.996264)"/>
      <use xlink:href="#CMR17-45" transform="translate(599.829938 0) scale(0.996264)"/>
      <use xlink:href="#CMR17-6e" transform="translate(662.416238 0) scale(0.996264)"/>
      <use xlink:href="#CMR17-65" transform="translate(713.311608 0) scale(0.996264)"/>
      <use xlink:href="#CMR17-72" transform="translate(753.797268 0) scale(0.996264)"/>
      <use xlink:href="#CMR17-67" transform="translate(789.078036 0) scale(0.996264)"/>
      <use xlink:href="#CMR17-79" transform="translate(834.768513 0) scale(0.996264)"/>
      <use xlink:href="#CMR17-5b" transform="translate(913.137396 0) scale(0.996264)"/>
      <use xlink:href="#CMR17-54" transform="translate(938.008454 0) scale(0.996264)"/>
      <use xlink:href="#CMR17-65" transform="translate(996.711079 0) scale(0.996264)"/>
      <use xlink:href="#CMR17-56" transform="translate(1037.19674 0) scale(0.996264)"/>
      <use xlink:href="#CMR17-5d" transform="translate(1106.269169 0) scale(0.996264)"/>
     </g>
    </g>
   </g>
   <g id="matplotlib.axis_2">
    <g id="ytick_1">
     <g id="line2d_7">
      <defs>
       <path id="mc91d3c683e" d="M 0 0 
L -3.5 0 
" style="stroke: #000000; stroke-width: 0.8"/>
      </defs>
      <g>
       <use xlink:href="#mc91d3c683e" x="33.143975" y="171.252" style="stroke: #000000; stroke-width: 0.8"/>
      </g>
     </g>
     <g id="text_8">
      <!-- $\mathdefault{0}$ -->
      <g transform="translate(21.16264 174.711249) scale(0.1 -0.1)">
       <use xlink:href="#CMR17-30" transform="scale(0.996264)"/>
      </g>
     </g>
    </g>
    <g id="ytick_2">
     <g id="line2d_8">
      <g>
       <use xlink:href="#mc91d3c683e" x="33.143975" y="132.192" style="stroke: #000000; stroke-width: 0.8"/>
      </g>
     </g>
     <g id="text_9">
      <!-- $\mathdefault{1}$ -->
      <g transform="translate(21.16264 135.651249) scale(0.1 -0.1)">
       <use xlink:href="#CMR17-31" transform="scale(0.996264)"/>
      </g>
     </g>
    </g>
    <g id="ytick_3">
     <g id="line2d_9">
      <g>
       <use xlink:href="#mc91d3c683e" x="33.143975" y="93.132" style="stroke: #000000; stroke-width: 0.8"/>
      </g>
     </g>
     <g id="text_10">
      <!-- $\mathdefault{2}$ -->
      <g transform="translate(21.16264 96.591249) scale(0.1 -0.1)">
       <use xlink:href="#CMR17-32" transform="scale(0.996264)"/>
      </g>
     </g>
    </g>
    <g id="ytick_4">
     <g id="line2d_10">
      <g>
       <use xlink:href="#mc91d3c683e" x="33.143975" y="54.072" style="stroke: #000000; stroke-width: 0.8"/>
      </g>
     </g>
     <g id="text_11">
      <!-- $\mathdefault{3}$ -->
      <g transform="translate(21.16264 57.531249) scale(0.1 -0.1)">
       <defs>
        <path id="CMR17-33" d="M 1414 2176 
C 1984 2176 2234 1673 2234 1094 
C 2234 322 1824 25 1453 25 
C 1114 25 563 193 390 691 
C 422 678 454 678 486 678 
C 640 678 755 780 755 947 
C 755 1132 614 1216 486 1216 
C 378 1216 211 1164 211 927 
C 211 335 787 -128 1466 -128 
C 2176 -128 2720 432 2720 1087 
C 2720 1718 2208 2176 1600 2246 
C 2086 2347 2554 2776 2554 3353 
C 2554 3856 2048 4224 1472 4224 
C 890 4224 378 3862 378 3347 
C 378 3123 544 3084 627 3084 
C 762 3084 877 3167 877 3334 
C 877 3500 762 3584 627 3584 
C 602 3584 570 3584 544 3571 
C 730 3999 1235 4076 1459 4076 
C 1683 4076 2106 3966 2106 3347 
C 2106 3167 2080 2851 1862 2574 
C 1670 2329 1453 2316 1242 2297 
C 1210 2297 1062 2284 1037 2284 
C 992 2278 966 2272 966 2227 
C 966 2182 973 2176 1101 2176 
L 1414 2176 
z
" transform="scale(0.015625)"/>
       </defs>
       <use xlink:href="#CMR17-33" transform="scale(0.996264)"/>
      </g>
     </g>
    </g>
    <g id="ytick_5">
     <g id="line2d_11">
      <g>
       <use xlink:href="#mc91d3c683e" x="33.143975" y="15.012" style="stroke: #000000; stroke-width: 0.8"/>
      </g>
     </g>
     <g id="text_12">
      <!-- $\mathdefault{4}$ -->
      <g transform="translate(21.16264 18.471249) scale(0.1 -0.1)">
       <use xlink:href="#CMR17-34" transform="scale(0.996264)"/>
      </g>
     </g>
    </g>
    <g id="text_13">
     <!-- -2 log(L) -->
     <g transform="translate(14.67198 112.296287) rotate(-90) scale(0.1 -0.1)">
      <defs>
       <path id="CMR17-2d" d="M 1632 1254 
L 1632 1536 
L 26 1536 
L 26 1254 
L 1632 1254 
z
" transform="scale(0.015625)"/>
       <path id="CMR17-6c" d="M 979 4416 
L 218 4345 
L 218 4179 
C 595 4179 653 4141 653 3835 
L 653 439 
C 653 198 627 166 218 166 
L 218 0 
C 371 12 653 12 813 12 
C 979 12 1261 12 1414 0 
L 1414 166 
C 1005 166 979 191 979 439 
L 979 4416 
z
" transform="scale(0.015625)"/>
       <path id="CMR17-28" d="M 1958 -1562 
C 1958 -1556 1958 -1543 1939 -1524 
C 1645 -1223 858 -403 858 1596 
C 858 3595 1632 4408 1946 4729 
C 1946 4735 1958 4748 1958 4767 
C 1958 4787 1939 4800 1914 4800 
C 1843 4800 1299 4325 986 3620 
C 666 2909 576 2218 576 1603 
C 576 1141 621 360 1005 -467 
C 1312 -1133 1837 -1600 1914 -1600 
C 1946 -1600 1958 -1588 1958 -1562 
z
" transform="scale(0.015625)"/>
       <path id="CMR17-4c" d="M 3469 1612 
L 3354 1612 
C 3302 981 3219 166 2125 166 
L 1530 166 
C 1274 166 1261 198 1261 414 
L 1261 3892 
C 1261 4121 1274 4185 1760 4185 
L 1901 4185 
L 1901 4352 
C 1638 4339 1331 4339 1069 4339 
C 870 4339 512 4339 326 4352 
L 326 4185 
C 768 4185 838 4185 838 3898 
L 838 453 
C 838 166 768 166 326 166 
L 326 0 
L 3315 0 
L 3469 1612 
z
" transform="scale(0.015625)"/>
       <path id="CMR17-29" d="M 1683 1596 
C 1683 2057 1638 2839 1254 3665 
C 947 4332 422 4800 346 4800 
C 326 4800 301 4793 301 4761 
C 301 4748 307 4742 314 4729 
C 621 4408 1402 3595 1402 1603 
C 1402 -396 627 -1210 314 -1530 
C 307 -1543 301 -1549 301 -1562 
C 301 -1594 326 -1600 346 -1600 
C 416 -1600 960 -1127 1274 -422 
C 1594 289 1683 981 1683 1596 
z
" transform="scale(0.015625)"/>
      </defs>
      <use xlink:href="#CMR17-2d" transform="scale(0.996264)"/>
      <use xlink:href="#CMR17-32" transform="translate(30.075966 0) scale(0.996264)"/>
      <use xlink:href="#CMR17-6c" transform="translate(105.84241 0) scale(0.996264)"/>
      <use xlink:href="#CMR17-6f" transform="translate(130.713468 0) scale(0.996264)"/>
      <use xlink:href="#CMR17-67" transform="translate(176.403945 0) scale(0.996264)"/>
      <use xlink:href="#CMR17-28" transform="translate(222.094423 0) scale(0.996264)"/>
      <use xlink:href="#CMR17-4c" transform="translate(257.37519 0) scale(0.996264)"/>
      <use xlink:href="#CMR17-29" transform="translate(314.756598 0) scale(0.996264)"/>
     </g>
    </g>
   </g>
   <g id="line2d_12">
    <path d="M 161.832948 17.001246 
L 162.583663 37.270969 
L 163.334378 56.156027 
L 164.085093 73.644778 
L 164.835808 89.726226 
L 165.586522 104.390019 
L 166.337237 117.626464 
L 167.087952 129.426521 
L 167.838667 139.781815 
L 168.589382 148.684633 
L 169.340096 156.127929 
L 170.090811 162.10533 
L 170.841526 166.61113 
L 171.592241 169.6403 
L 172.342956 171.188484 
L 173.093671 171.252 
L 173.844385 169.827843 
L 174.5951 166.913684 
L 175.345815 162.507867 
L 176.09653 156.609414 
L 176.847245 149.218017 
L 177.59796 140.334044 
L 178.348674 129.958532 
L 179.099389 118.093187 
L 179.850104 104.740383 
L 180.600819 89.903157 
L 181.351534 73.58521 
L 182.102249 55.790899 
L 182.852963 36.525238 
L 183.603678 15.793893 
" clip-path="url(#pa46143a5e9)" style="fill: none; stroke-dasharray: 1.5,2.475; stroke-dashoffset: 0; stroke: #1f78b4; stroke-width: 1.5"/>
   </g>
   <g id="LineCollection_1">
    <path d="M -1 132.192 
L 432.743023 132.192 
" clip-path="url(#pa46143a5e9)" style="fill: none; stroke: #808080; stroke-width: 1.5"/>
   </g>
   <g id="line2d_13">
    <path d="M 79.090436 15.113203 
L 85.547983 35.923174 
L 92.005531 55.25135 
L 98.463078 73.09212 
L 104.920625 89.446122 
L 111.378172 104.309439 
L 117.835719 117.690297 
L 124.293267 129.590075 
L 130.750814 140.000274 
L 137.208361 148.92351 
L 143.665908 156.358239 
L 150.123456 162.310751 
L 156.581003 166.775692 
L 163.03855 169.749055 
L 169.496097 171.24611 
L 175.953644 171.252 
L 182.411192 169.767046 
L 188.868739 166.805112 
L 195.326286 162.352089 
L 201.783833 156.407779 
L 208.24138 148.988026 
L 214.698928 140.076415 
L 221.156475 129.677844 
L 227.614022 117.789616 
L 234.071569 104.423427 
L 240.529117 89.567792 
L 246.986664 73.225213 
L 253.444211 55.396158 
L 259.901758 36.080545 
L 266.359305 15.278994 
" clip-path="url(#pa46143a5e9)" style="fill: none; stroke-dasharray: 5.55,2.4; stroke-dashoffset: 0; stroke: #e31a1c; stroke-width: 1.5"/>
   </g>
   <g id="LineCollection_2">
    <path d="M 125.907654 136.098 
L 219.542088 136.098 
" clip-path="url(#pa46143a5e9)" style="fill: none; stroke: #e31a1c; stroke-width: 1.5"/>
   </g>
   <g id="line2d_14">
    <defs>
     <path id="m42d5fd7f82" d="M 0 4 
L 0 -4 
" style="stroke: #e31a1c"/>
    </defs>
    <g clip-path="url(#pa46143a5e9)">
     <use xlink:href="#m42d5fd7f82" x="125.907654" y="136.098" style="fill: #e31a1c; stroke: #e31a1c"/>
    </g>
   </g>
   <g id="line2d_15">
    <g clip-path="url(#pa46143a5e9)">
     <use xlink:href="#m42d5fd7f82" x="219.542088" y="136.098" style="fill: #e31a1c; stroke: #e31a1c"/>
    </g>
   </g>
   <g id="line2d_16">
    <path d="M 32.769156 15.066071 
L 42.418984 35.878161 
L 52.068813 55.210168 
L 61.718641 73.051099 
L 71.368469 89.405994 
L 81.018297 104.282629 
L 90.668125 117.6668 
L 100.317953 129.566141 
L 109.967782 139.978528 
L 119.61761 148.900951 
L 129.267438 156.344592 
L 138.917266 162.298653 
L 148.567094 166.765376 
L 158.216923 169.747758 
L 167.866751 171.242935 
L 177.516579 171.252 
L 187.166407 169.774922 
L 196.816235 166.811035 
L 206.466063 162.362023 
L 216.115892 156.426067 
L 225.76572 149.000632 
L 235.415548 140.094841 
L 245.065376 129.701729 
L 254.715204 117.82117 
L 264.365033 104.454407 
L 274.014861 89.600058 
L 283.664689 73.262168 
L 293.314517 55.436732 
L 302.964345 36.12512 
L 312.614173 15.32579 
" clip-path="url(#pa46143a5e9)" style="fill: none; stroke-dasharray: 5.55,2.4; stroke-dashoffset: 0; stroke: #ff7f00; stroke-width: 1.5"/>
   </g>
   <g id="LineCollection_3">
    <path d="M 102.730411 132.192 
L 242.652919 132.192 
" clip-path="url(#pa46143a5e9)" style="fill: none; stroke: #ff7f00; stroke-width: 1.5"/>
   </g>
   <g id="line2d_17">
    <defs>
     <path id="mfea635ea6a" d="M 0 4 
L 0 -4 
" style="stroke: #ff7f00"/>
    </defs>
    <g clip-path="url(#pa46143a5e9)">
     <use xlink:href="#mfea635ea6a" x="102.730411" y="132.192" style="fill: #ff7f00; stroke: #ff7f00"/>
    </g>
   </g>
   <g id="line2d_18">
    <g clip-path="url(#pa46143a5e9)">
     <use xlink:href="#mfea635ea6a" x="242.652919" y="132.192" style="fill: #ff7f00; stroke: #ff7f00"/>
    </g>
   </g>
   <g id="line2d_19">
    <path d="M -1 35.548834 
L -0.821184 35.838566 
L 12.028087 55.171083 
L 24.877358 73.017503 
L 37.726629 89.377654 
L 50.5759 104.250289 
L 63.425171 117.639171 
L 76.274442 129.541125 
L 89.123713 139.955658 
L 101.972984 148.885917 
L 114.822256 156.326837 
L 127.671527 162.285708 
L 140.520798 166.756927 
L 153.370069 169.741564 
L 166.21934 171.239646 
L 179.068611 171.252 
L 191.917882 169.778525 
L 204.767153 166.818504 
L 217.616424 162.371948 
L 230.465695 156.439175 
L 243.314966 149.02102 
L 256.164237 140.116677 
L 269.013508 129.724392 
L 281.862779 117.848701 
L 294.712051 104.484706 
L 307.561322 89.636059 
L 320.410593 73.298171 
L 333.259864 55.478349 
L 346.109135 36.167262 
L 358.958406 15.376629 
" clip-path="url(#pa46143a5e9)" style="fill: none; stroke-dasharray: 5.55,2.4; stroke-dashoffset: 0; stroke: #b15928; stroke-width: 1.5"/>
   </g>
   <g id="LineCollection_4">
    <path d="M 79.48676 128.286 
L 265.801191 128.286 
" clip-path="url(#pa46143a5e9)" style="fill: none; stroke: #b15928; stroke-width: 1.5"/>
   </g>
   <g id="line2d_20">
    <defs>
     <path id="mbbe8bf4dfa" d="M 0 4 
L 0 -4 
" style="stroke: #b15928"/>
    </defs>
    <g clip-path="url(#pa46143a5e9)">
     <use xlink:href="#mbbe8bf4dfa" x="79.48676" y="128.286" style="fill: #b15928; stroke: #b15928"/>
    </g>
   </g>
   <g id="line2d_21">
    <g clip-path="url(#pa46143a5e9)">
     <use xlink:href="#mbbe8bf4dfa" x="265.801191" y="128.286" style="fill: #b15928; stroke: #b15928"/>
    </g>
   </g>
   <g id="LineCollection_5">
    <path d="M 167.275631 124.38 
L 178.160996 124.38 
" clip-path="url(#pa46143a5e9)" style="fill: none; stroke: #1f78b4; stroke-width: 1.5"/>
   </g>
   <g id="line2d_22">
    <defs>
     <path id="mfd99d67578" d="M 0 3 
L 0 -3 
" style="stroke: #1f78b4"/>
    </defs>
    <g clip-path="url(#pa46143a5e9)">
     <use xlink:href="#mfd99d67578" x="167.275631" y="124.38" style="fill: #1f78b4; stroke: #1f78b4"/>
    </g>
   </g>
   <g id="line2d_23">
    <g clip-path="url(#pa46143a5e9)">
     <use xlink:href="#mfd99d67578" x="178.160996" y="124.38" style="fill: #1f78b4; stroke: #1f78b4"/>
    </g>
   </g>
   <g id="line2d_24">
    <defs>
     <path id="m186ff436b8" d="M -5.5 0 
L 5.5 0 
M 0 5.5 
L 0 -5.5 
" style="stroke: #e31a1c"/>
    </defs>
    <g clip-path="url(#pa46143a5e9)">
     <use xlink:href="#m186ff436b8" x="172.724871" y="136.098" style="fill: #e31a1c; stroke: #e31a1c"/>
    </g>
   </g>
   <g id="line2d_25">
    <defs>
     <path id="me9d04fb18c" d="M -5.5 0 
L 5.5 0 
M 0 5.5 
L 0 -5.5 
" style="stroke: #ff7f00"/>
    </defs>
    <g clip-path="url(#pa46143a5e9)">
     <use xlink:href="#me9d04fb18c" x="172.691665" y="132.192" style="fill: #ff7f00; stroke: #ff7f00"/>
    </g>
   </g>
   <g id="line2d_26">
    <defs>
     <path id="mb41672854f" d="M -5.5 0 
L 5.5 0 
M 0 5.5 
L 0 -5.5 
" style="stroke: #b15928"/>
    </defs>
    <g clip-path="url(#pa46143a5e9)">
     <use xlink:href="#mb41672854f" x="172.643975" y="128.286" style="fill: #b15928; stroke: #b15928"/>
    </g>
   </g>
   <g id="line2d_27">
    <defs>
     <path id="m0fd984bf74" d="M -5.5 5.5 
L 5.5 -5.5 
M -5.5 -5.5 
L 5.5 5.5 
" style="stroke: #1f78b4"/>
    </defs>
    <g clip-path="url(#pa46143a5e9)">
     <use xlink:href="#m0fd984bf74" x="172.718313" y="124.38" style="fill: #1f78b4; stroke: #1f78b4"/>
    </g>
   </g>
   <g id="patch_3">
    <path d="M 33.143975 179.064 
L 33.143975 7.2 
" style="fill: none; stroke: #000000; stroke-width: 0.8; stroke-linejoin: miter; stroke-linecap: square"/>
   </g>
   <g id="patch_4">
    <path d="M 312.143975 179.064 
L 312.143975 7.2 
" style="fill: none; stroke: #000000; stroke-width: 0.8; stroke-linejoin: miter; stroke-linecap: square"/>
   </g>
   <g id="patch_5">
    <path d="M 33.143975 179.064 
L 312.143975 179.064 
" style="fill: none; stroke: #000000; stroke-width: 0.8; stroke-linejoin: miter; stroke-linecap: square"/>
   </g>
   <g id="patch_6">
    <path d="M 33.143975 7.2 
L 312.143975 7.2 
" style="fill: none; stroke: #000000; stroke-width: 0.8; stroke-linejoin: miter; stroke-linecap: square"/>
   </g>
   <g id="legend_1">
    <g id="patch_7">
     <path d="M 319.143975 161.903613 
L 422.543023 161.903613 
Q 424.543023 161.903613 424.543023 159.903613 
L 424.543023 26.360387 
Q 424.543023 24.360387 422.543023 24.360387 
L 319.143975 24.360387 
Q 317.143975 24.360387 317.143975 26.360387 
L 317.143975 159.903613 
Q 317.143975 161.903613 319.143975 161.903613 
z
" style="fill: #ffffff; opacity: 0.8; stroke: #cccccc; stroke-linejoin: miter"/>
    </g>
    <g id="line2d_28">
     <path d="M 321.143975 32.332367 
L 331.143975 32.332367 
L 341.143975 32.332367 
" style="fill: none; stroke-dasharray: 1.5,2.475; stroke-dashoffset: 0; stroke: #1f78b4; stroke-width: 1.5"/>
    </g>
    <g id="text_14">
     <!-- -2 log(L) scan -->
     <g transform="translate(349.143975 35.832367) scale(0.1 -0.1)">
      <defs>
       <path id="CMR17-61" d="M 2304 1656 
C 2304 2048 2304 2275 2035 2534 
C 1798 2751 1523 2816 1306 2816 
C 800 2816 435 2408 435 1977 
C 435 1740 627 1728 666 1728 
C 749 1728 896 1779 896 1958 
C 896 2118 774 2188 666 2188 
C 640 2188 608 2182 589 2176 
C 723 2594 1069 2713 1293 2713 
C 1613 2713 1965 2421 1965 1875 
L 1965 1632 
C 1587 1619 1133 1568 774 1373 
C 371 1147 256 822 256 576 
C 256 77 832 -64 1171 -64 
C 1523 -64 1850 135 1990 505 
C 2003 219 2182 -39 2464 -39 
C 2598 -39 2938 51 2938 563 
L 2938 926 
L 2822 926 
L 2822 557 
C 2822 161 2650 109 2566 109 
C 2304 109 2304 446 2304 732 
L 2304 1656 
z
M 1965 887 
C 1965 323 1568 38 1216 38 
C 896 38 646 278 646 576 
C 646 771 730 1114 1101 1322 
C 1408 1497 1760 1523 1965 1536 
L 1965 887 
z
" transform="scale(0.015625)"/>
      </defs>
      <use xlink:href="#CMR17-2d" transform="scale(0.996264)"/>
      <use xlink:href="#CMR17-32" transform="translate(30.075966 0) scale(0.996264)"/>
      <use xlink:href="#CMR17-6c" transform="translate(105.84241 0) scale(0.996264)"/>
      <use xlink:href="#CMR17-6f" transform="translate(130.713468 0) scale(0.996264)"/>
      <use xlink:href="#CMR17-67" transform="translate(176.403945 0) scale(0.996264)"/>
      <use xlink:href="#CMR17-28" transform="translate(222.094423 0) scale(0.996264)"/>
      <use xlink:href="#CMR17-4c" transform="translate(257.37519 0) scale(0.996264)"/>
      <use xlink:href="#CMR17-29" transform="translate(314.756598 0) scale(0.996264)"/>
      <use xlink:href="#CMR17-73" transform="translate(380.113332 0) scale(0.996264)"/>
      <use xlink:href="#CMR17-63" transform="translate(415.91467 0) scale(0.996264)"/>
      <use xlink:href="#CMR17-61" transform="translate(456.40033 0) scale(0.996264)"/>
      <use xlink:href="#CMR17-6e" transform="translate(502.090808 0) scale(0.996264)"/>
     </g>
    </g>
    <g id="line2d_29">
     <path d="M 321.143975 47.295007 
L 331.143975 47.295007 
L 341.143975 47.295007 
" style="fill: none; stroke-dasharray: 5.55,2.4; stroke-dashoffset: 0; stroke: #e31a1c; stroke-width: 1.5"/>
    </g>
    <g id="text_15">
     <!-- -2 log(P), $\sigma$ = 2 -->
     <g transform="translate(349.143975 50.795007) scale(0.1 -0.1)">
      <defs>
       <path id="CMR17-50" d="M 1267 2048 
L 2291 2048 
C 3117 2048 3718 2583 3718 3187 
C 3718 3791 3130 4352 2291 4352 
L 333 4352 
L 333 4185 
C 774 4185 845 4185 845 3899 
L 845 453 
C 845 166 774 166 333 166 
L 333 0 
C 518 12 858 12 1056 12 
C 1254 12 1594 12 1779 0 
L 1779 166 
C 1338 166 1267 166 1267 453 
L 1267 2048 
z
M 1254 2182 
L 1254 3937 
C 1254 4153 1267 4185 1523 4185 
L 2170 4185 
C 2995 4185 3232 3715 3232 3187 
C 3232 2608 2950 2182 2170 2182 
L 1254 2182 
z
" transform="scale(0.015625)"/>
       <path id="CMR17-2c" d="M 1011 102 
C 1024 44 1024 25 1024 -76 
C 1024 -451 896 -795 627 -1108 
C 595 -1140 595 -1152 595 -1165 
C 595 -1191 621 -1216 646 -1216 
C 685 -1216 1126 -776 1126 -82 
C 1126 128 1101 524 800 524 
C 659 524 538 428 538 262 
C 538 96 659 0 800 0 
C 877 0 960 32 1011 102 
z
" transform="scale(0.015625)"/>
       <path id="CMMI12-1b" d="M 3251 2406 
C 3334 2406 3546 2406 3546 2611 
C 3546 2752 3424 2752 3309 2752 
L 1894 2752 
C 934 2752 243 1685 243 932 
C 243 389 595 -64 1171 -64 
C 1926 -64 2752 746 2752 1704 
C 2752 1953 2694 2195 2541 2406 
L 3251 2406 
z
M 1178 64 
C 851 64 614 312 614 753 
C 614 1136 845 2406 1786 2406 
C 2061 2406 2368 2272 2368 1780 
C 2368 1557 2266 1021 2042 651 
C 1811 274 1466 64 1178 64 
z
" transform="scale(0.015625)"/>
       <path id="CMR17-3d" d="M 4115 2048 
C 4211 2048 4307 2048 4307 2156 
C 4307 2272 4198 2272 4090 2272 
L 512 2272 
C 403 2272 294 2272 294 2156 
C 294 2048 390 2048 486 2048 
L 4115 2048 
z
M 4090 927 
C 4198 927 4307 927 4307 1043 
C 4307 1152 4211 1152 4115 1152 
L 486 1152 
C 390 1152 294 1152 294 1043 
C 294 927 403 927 512 927 
L 4090 927 
z
" transform="scale(0.015625)"/>
      </defs>
      <use xlink:href="#CMR17-2d" transform="scale(0.996264)"/>
      <use xlink:href="#CMR17-32" transform="translate(30.075966 0) scale(0.996264)"/>
      <use xlink:href="#CMR17-6c" transform="translate(105.84241 0) scale(0.996264)"/>
      <use xlink:href="#CMR17-6f" transform="translate(130.713468 0) scale(0.996264)"/>
      <use xlink:href="#CMR17-67" transform="translate(176.403945 0) scale(0.996264)"/>
      <use xlink:href="#CMR17-28" transform="translate(222.094423 0) scale(0.996264)"/>
      <use xlink:href="#CMR17-50" transform="translate(257.37519 0) scale(0.996264)"/>
      <use xlink:href="#CMR17-29" transform="translate(319.961491 0) scale(0.996264)"/>
      <use xlink:href="#CMR17-2c" transform="translate(355.242259 0) scale(0.996264)"/>
      <use xlink:href="#CMMI12-1b" transform="translate(410.189283 0) scale(0.996264)"/>
      <use xlink:href="#CMR17-3d" transform="translate(499.285303 0) scale(0.996264)"/>
      <use xlink:href="#CMR17-32" transform="translate(601.076058 0) scale(0.996264)"/>
     </g>
    </g>
    <g id="line2d_30">
     <path d="M 321.143975 62.257647 
L 331.143975 62.257647 
L 341.143975 62.257647 
" style="fill: none; stroke-dasharray: 5.55,2.4; stroke-dashoffset: 0; stroke: #ff7f00; stroke-width: 1.5"/>
    </g>
    <g id="text_16">
     <!-- -2 log(P), $\sigma$ = 3 -->
     <g transform="translate(349.143975 65.757647) scale(0.1 -0.1)">
      <use xlink:href="#CMR17-2d" transform="scale(0.996264)"/>
      <use xlink:href="#CMR17-32" transform="translate(30.075966 0) scale(0.996264)"/>
      <use xlink:href="#CMR17-6c" transform="translate(105.84241 0) scale(0.996264)"/>
      <use xlink:href="#CMR17-6f" transform="translate(130.713468 0) scale(0.996264)"/>
      <use xlink:href="#CMR17-67" transform="translate(176.403945 0) scale(0.996264)"/>
      <use xlink:href="#CMR17-28" transform="translate(222.094423 0) scale(0.996264)"/>
      <use xlink:href="#CMR17-50" transform="translate(257.37519 0) scale(0.996264)"/>
      <use xlink:href="#CMR17-29" transform="translate(319.961491 0) scale(0.996264)"/>
      <use xlink:href="#CMR17-2c" transform="translate(355.242259 0) scale(0.996264)"/>
      <use xlink:href="#CMMI12-1b" transform="translate(410.189283 0) scale(0.996264)"/>
      <use xlink:href="#CMR17-3d" transform="translate(499.285303 0) scale(0.996264)"/>
      <use xlink:href="#CMR17-33" transform="translate(601.076058 0) scale(0.996264)"/>
     </g>
    </g>
    <g id="line2d_31">
     <path d="M 321.143975 77.220287 
L 331.143975 77.220287 
L 341.143975 77.220287 
" style="fill: none; stroke-dasharray: 5.55,2.4; stroke-dashoffset: 0; stroke: #b15928; stroke-width: 1.5"/>
    </g>
    <g id="text_17">
     <!-- -2 log(P), $\sigma$ = 4 -->
     <g transform="translate(349.143975 80.720287) scale(0.1 -0.1)">
      <use xlink:href="#CMR17-2d" transform="scale(0.996264)"/>
      <use xlink:href="#CMR17-32" transform="translate(30.075966 0) scale(0.996264)"/>
      <use xlink:href="#CMR17-6c" transform="translate(105.84241 0) scale(0.996264)"/>
      <use xlink:href="#CMR17-6f" transform="translate(130.713468 0) scale(0.996264)"/>
      <use xlink:href="#CMR17-67" transform="translate(176.403945 0) scale(0.996264)"/>
      <use xlink:href="#CMR17-28" transform="translate(222.094423 0) scale(0.996264)"/>
      <use xlink:href="#CMR17-50" transform="translate(257.37519 0) scale(0.996264)"/>
      <use xlink:href="#CMR17-29" transform="translate(319.961491 0) scale(0.996264)"/>
      <use xlink:href="#CMR17-2c" transform="translate(355.242259 0) scale(0.996264)"/>
      <use xlink:href="#CMMI12-1b" transform="translate(410.189283 0) scale(0.996264)"/>
      <use xlink:href="#CMR17-3d" transform="translate(499.285303 0) scale(0.996264)"/>
      <use xlink:href="#CMR17-34" transform="translate(601.076058 0) scale(0.996264)"/>
     </g>
    </g>
    <g id="LineCollection_6">
     <path d="M 326.143975 98.118974 
L 336.143975 98.118974 
" style="fill: none; stroke: #e31a1c; stroke-width: 1.5"/>
    </g>
    <g id="line2d_32">
     <g>
      <use xlink:href="#m42d5fd7f82" x="326.143975" y="98.118974" style="fill: #e31a1c; stroke: #e31a1c"/>
     </g>
    </g>
    <g id="line2d_33">
     <g>
      <use xlink:href="#m42d5fd7f82" x="336.143975" y="98.118974" style="fill: #e31a1c; stroke: #e31a1c"/>
     </g>
    </g>
    <g id="line2d_34"/>
    <g id="line2d_35">
     <g>
      <use xlink:href="#m186ff436b8" x="331.143975" y="98.118974" style="fill: #e31a1c; stroke: #e31a1c"/>
     </g>
    </g>
    <g id="text_18">
     <!--  $E_{c,ML}$ = -->
     <g transform="translate(349.143975 95.018731) scale(0.1 -0.1)">
      <defs>
       <path id="CMMI12-45" d="M 4448 1489 
C 4454 1508 4474 1553 4474 1578 
C 4474 1611 4448 1643 4410 1643 
C 4384 1643 4371 1636 4352 1617 
C 4339 1611 4339 1598 4282 1469 
C 3904 570 3629 185 2605 185 
L 1670 185 
C 1581 185 1568 185 1530 192 
C 1459 198 1453 211 1453 262 
C 1453 307 1466 346 1478 403 
L 1920 2176 
L 2554 2176 
C 3053 2176 3091 2066 3091 1874 
C 3091 1810 3091 1752 3046 1559 
C 3034 1534 3027 1508 3027 1489 
C 3027 1444 3059 1424 3098 1424 
C 3155 1424 3162 1469 3187 1559 
L 3552 3036 
C 3552 3068 3526 3099 3488 3099 
C 3430 3099 3424 3074 3398 2986 
C 3270 2500 3142 2361 2573 2361 
L 1965 2361 
L 2362 3913 
C 2419 4134 2432 4153 2694 4153 
L 3610 4153 
C 4397 4153 4557 3945 4557 3465 
C 4557 3459 4557 3282 4531 3074 
C 4525 3049 4518 3011 4518 2998 
C 4518 2948 4550 2929 4589 2929 
C 4634 2929 4659 2954 4672 3068 
L 4806 4172 
C 4806 4191 4819 4255 4819 4268 
C 4819 4339 4762 4339 4646 4339 
L 1523 4339 
C 1402 4339 1338 4339 1338 4223 
C 1338 4153 1382 4153 1491 4153 
C 1888 4153 1888 4109 1888 4039 
C 1888 4008 1882 3983 1862 3913 
L 998 474 
C 941 249 928 185 480 185 
C 358 185 294 185 294 70 
C 294 0 333 0 461 0 
L 3674 0 
C 3814 0 3821 6 3866 108 
L 4448 1489 
z
" transform="scale(0.015625)"/>
       <path id="CMMI12-63" d="M 2502 2432 
C 2381 2432 2323 2432 2234 2355 
C 2195 2323 2125 2227 2125 2124 
C 2125 1996 2221 1919 2342 1919 
C 2496 1919 2669 2047 2669 2303 
C 2669 2591 2374 2816 1933 2816 
C 1094 2816 256 1932 256 1011 
C 256 446 602 -64 1254 -64 
C 2125 -64 2675 622 2675 706 
C 2675 745 2637 777 2611 777 
C 2592 777 2586 771 2528 712 
C 2118 161 1510 64 1267 64 
C 826 64 685 453 685 777 
C 685 1004 794 1634 1024 2073 
C 1190 2374 1536 2687 1939 2687 
C 2022 2687 2374 2676 2502 2432 
z
" transform="scale(0.015625)"/>
       <path id="CMMI12-3b" d="M 1248 -26 
C 1248 345 1126 620 864 620 
C 659 620 557 454 557 313 
C 557 172 653 0 870 0 
C 954 0 1024 25 1082 83 
C 1094 96 1101 96 1107 96 
C 1120 96 1120 6 1120 -26 
C 1120 -233 1082 -642 710 -1051 
C 640 -1127 640 -1140 640 -1152 
C 640 -1184 672 -1216 704 -1216 
C 755 -1216 1248 -749 1248 -26 
z
" transform="scale(0.015625)"/>
       <path id="CMMI12-4d" d="M 5811 3886 
C 5869 4102 5882 4166 6336 4166 
C 6458 4166 6515 4166 6515 4287 
C 6515 4352 6470 4352 6349 4352 
L 5581 4352 
C 5421 4352 5414 4345 5344 4243 
L 3008 567 
L 2528 4211 
C 2509 4352 2502 4352 2336 4352 
L 1542 4352 
C 1421 4352 1363 4352 1363 4230 
C 1363 4166 1421 4166 1517 4166 
C 1907 4166 1907 4115 1907 4045 
C 1907 4032 1907 3994 1882 3898 
L 1062 650 
C 986 344 838 204 410 185 
C 390 185 314 179 314 70 
C 314 0 371 0 397 0 
C 525 0 851 12 979 12 
L 1286 12 
C 1376 12 1485 0 1574 0 
C 1619 0 1690 0 1690 121 
C 1690 179 1626 185 1600 185 
C 1389 191 1184 230 1184 459 
C 1184 523 1184 529 1210 618 
L 2093 4128 
L 2099 4128 
L 2630 172 
C 2650 19 2656 0 2714 0 
C 2784 0 2816 51 2848 108 
L 5421 4159 
L 5427 4159 
L 4499 472 
C 4442 249 4429 185 3981 185 
C 3859 185 3795 185 3795 70 
C 3795 0 3853 0 3891 0 
C 4000 0 4128 12 4237 12 
L 4992 12 
C 5101 12 5235 0 5344 0 
C 5395 0 5466 0 5466 121 
C 5466 185 5408 185 5312 185 
C 4922 185 4922 236 4922 300 
C 4922 306 4922 351 4934 402 
L 5811 3886 
z
" transform="scale(0.015625)"/>
       <path id="CMMI12-4c" d="M 2349 3860 
C 2406 4102 2426 4166 2989 4166 
C 3162 4166 3206 4166 3206 4287 
C 3206 4352 3136 4352 3110 4352 
C 2982 4352 2835 4339 2707 4339 
L 1850 4339 
C 1728 4339 1587 4352 1466 4352 
C 1414 4352 1344 4352 1344 4230 
C 1344 4166 1402 4166 1498 4166 
C 1888 4166 1888 4115 1888 4045 
C 1888 4032 1888 3994 1862 3898 
L 998 472 
C 941 249 928 185 480 185 
C 358 185 294 185 294 70 
C 294 0 333 0 461 0 
L 3328 0 
C 3469 0 3475 6 3520 121 
L 4013 1478 
C 4026 1510 4038 1548 4038 1567 
C 4038 1605 4006 1631 3974 1631 
C 3968 1631 3936 1631 3923 1605 
C 3910 1599 3910 1586 3859 1465 
C 3654 905 3366 185 2285 185 
L 1670 185 
C 1581 185 1568 185 1530 191 
C 1459 198 1453 211 1453 262 
C 1453 306 1466 344 1478 402 
L 2349 3860 
z
" transform="scale(0.015625)"/>
      </defs>
      <use xlink:href="#CMMI12-45" transform="scale(0.996264)"/>
      <use xlink:href="#CMMI12-63" transform="translate(72.211218 -14.943915) scale(0.697382)"/>
      <use xlink:href="#CMMI12-3b" transform="translate(101.599349 -14.943915) scale(0.697382)"/>
      <use xlink:href="#CMMI12-4d" transform="translate(120.567282 -14.943915) scale(0.697382)"/>
      <use xlink:href="#CMMI12-4c" transform="translate(193.913024 -14.943915) scale(0.697382)"/>
      <use xlink:href="#CMR17-3d" transform="translate(270.946536 0) scale(0.996264)"/>
     </g>
     <!-- 19.7 $\pm$ 2.01 TeV  -->
     <g transform="translate(349.143975 106.171324) scale(0.1 -0.1)">
      <defs>
       <path id="CMR17-39" d="M 2253 1871 
C 2253 448 1670 25 1190 25 
C 1043 25 685 43 538 281 
C 704 256 826 345 826 505 
C 826 678 685 736 595 736 
C 538 736 365 710 365 492 
C 365 68 742 -128 1203 -128 
C 1939 -128 2688 665 2688 2090 
C 2688 3857 1971 4224 1485 4224 
C 851 4224 243 3664 243 2800 
C 243 2000 762 1408 1414 1408 
C 1952 1408 2189 1910 2253 2122 
L 2253 1871 
z
M 1427 1510 
C 1254 1510 1011 1542 813 1929 
C 678 2181 678 2477 678 2793 
C 678 3174 678 3438 858 3722 
C 947 3857 1114 4076 1485 4076 
C 2240 4076 2240 2909 2240 2651 
C 2240 2193 2035 1510 1427 1510 
z
" transform="scale(0.015625)"/>
       <path id="CMR17-2e" d="M 1062 262 
C 1062 422 934 524 800 524 
C 672 524 538 422 538 262 
C 538 102 666 0 800 0 
C 928 0 1062 102 1062 262 
z
" transform="scale(0.015625)"/>
       <path id="CMR17-37" d="M 2886 3955 
L 2886 4096 
L 1382 4096 
C 634 4096 621 4166 595 4288 
L 480 4288 
L 294 3104 
L 410 3104 
C 429 3226 474 3552 550 3673 
C 589 3724 1062 3724 1171 3724 
L 2579 3724 
L 1869 2670 
C 1395 1961 1069 1003 1069 166 
C 1069 89 1069 -128 1299 -128 
C 1530 -128 1530 89 1530 172 
L 1530 466 
C 1530 1514 1709 2204 2003 2644 
L 2886 3955 
z
" transform="scale(0.015625)"/>
       <path id="CMSY10-6" d="M 2618 1984 
L 4397 1984 
C 4506 1984 4621 1984 4621 2112 
C 4621 2240 4506 2240 4397 2240 
L 2618 2240 
L 2618 4048 
C 2618 4153 2618 4288 2490 4288 
C 2362 4288 2362 4172 2362 4068 
L 2362 2240 
L 576 2240 
C 467 2240 352 2240 352 2112 
C 352 1984 467 1984 576 1984 
L 2362 1984 
L 2362 256 
L 576 256 
C 467 256 352 256 352 128 
C 352 0 467 0 576 0 
L 4397 0 
C 4506 0 4621 0 4621 128 
C 4621 256 4506 256 4397 256 
L 2618 256 
L 2618 1984 
z
" transform="scale(0.015625)"/>
      </defs>
      <use xlink:href="#CMR17-31" transform="scale(0.996264)"/>
      <use xlink:href="#CMR17-39" transform="translate(45.690477 0) scale(0.996264)"/>
      <use xlink:href="#CMR17-2e" transform="translate(91.380954 0) scale(0.996264)"/>
      <use xlink:href="#CMR17-37" transform="translate(116.252013 0) scale(0.996264)"/>
      <use xlink:href="#CMSY10-6" transform="translate(192.018456 0) scale(0.996264)"/>
      <use xlink:href="#CMR17-32" transform="translate(299.58189 0) scale(0.996264)"/>
      <use xlink:href="#CMR17-2e" transform="translate(345.272367 0) scale(0.996264)"/>
      <use xlink:href="#CMR17-30" transform="translate(370.143426 0) scale(0.996264)"/>
      <use xlink:href="#CMR17-31" transform="translate(415.833903 0) scale(0.996264)"/>
      <use xlink:href="#CMR17-54" transform="translate(491.600346 0) scale(0.996264)"/>
      <use xlink:href="#CMR17-65" transform="translate(550.302972 0) scale(0.996264)"/>
      <use xlink:href="#CMR17-56" transform="translate(590.788632 0) scale(0.996264)"/>
     </g>
    </g>
    <g id="LineCollection_7">
     <path d="M 326.143975 123.016529 
L 336.143975 123.016529 
" style="fill: none; stroke: #ff7f00; stroke-width: 1.5"/>
    </g>
    <g id="line2d_36">
     <g>
      <use xlink:href="#mfea635ea6a" x="326.143975" y="123.016529" style="fill: #ff7f00; stroke: #ff7f00"/>
     </g>
    </g>
    <g id="line2d_37">
     <g>
      <use xlink:href="#mfea635ea6a" x="336.143975" y="123.016529" style="fill: #ff7f00; stroke: #ff7f00"/>
     </g>
    </g>
    <g id="line2d_38"/>
    <g id="line2d_39">
     <g>
      <use xlink:href="#me9d04fb18c" x="331.143975" y="123.016529" style="fill: #ff7f00; stroke: #ff7f00"/>
     </g>
    </g>
    <g id="text_19">
     <!--  $E_{c,ML}$ = -->
     <g transform="translate(349.143975 119.916286) scale(0.1 -0.1)">
      <use xlink:href="#CMMI12-45" transform="scale(0.996264)"/>
      <use xlink:href="#CMMI12-63" transform="translate(72.211218 -14.943915) scale(0.697382)"/>
      <use xlink:href="#CMMI12-3b" transform="translate(101.599349 -14.943915) scale(0.697382)"/>
      <use xlink:href="#CMMI12-4d" transform="translate(120.567282 -14.943915) scale(0.697382)"/>
      <use xlink:href="#CMMI12-4c" transform="translate(193.913024 -14.943915) scale(0.697382)"/>
      <use xlink:href="#CMR17-3d" transform="translate(270.946536 0) scale(0.996264)"/>
     </g>
     <!-- 19.7 $\pm$ 3.01 TeV  -->
     <g transform="translate(349.143975 131.068879) scale(0.1 -0.1)">
      <use xlink:href="#CMR17-31" transform="scale(0.996264)"/>
      <use xlink:href="#CMR17-39" transform="translate(45.690477 0) scale(0.996264)"/>
      <use xlink:href="#CMR17-2e" transform="translate(91.380954 0) scale(0.996264)"/>
      <use xlink:href="#CMR17-37" transform="translate(116.252013 0) scale(0.996264)"/>
      <use xlink:href="#CMSY10-6" transform="translate(192.018456 0) scale(0.996264)"/>
      <use xlink:href="#CMR17-33" transform="translate(299.58189 0) scale(0.996264)"/>
      <use xlink:href="#CMR17-2e" transform="translate(345.272367 0) scale(0.996264)"/>
      <use xlink:href="#CMR17-30" transform="translate(370.143426 0) scale(0.996264)"/>
      <use xlink:href="#CMR17-31" transform="translate(415.833903 0) scale(0.996264)"/>
      <use xlink:href="#CMR17-54" transform="translate(491.600346 0) scale(0.996264)"/>
      <use xlink:href="#CMR17-65" transform="translate(550.302972 0) scale(0.996264)"/>
      <use xlink:href="#CMR17-56" transform="translate(590.788632 0) scale(0.996264)"/>
     </g>
    </g>
    <g id="LineCollection_8">
     <path d="M 326.143975 147.914085 
L 336.143975 147.914085 
" style="fill: none; stroke: #b15928; stroke-width: 1.5"/>
    </g>
    <g id="line2d_40">
     <g>
      <use xlink:href="#mbbe8bf4dfa" x="326.143975" y="147.914085" style="fill: #b15928; stroke: #b15928"/>
     </g>
    </g>
    <g id="line2d_41">
     <g>
      <use xlink:href="#mbbe8bf4dfa" x="336.143975" y="147.914085" style="fill: #b15928; stroke: #b15928"/>
     </g>
    </g>
    <g id="line2d_42"/>
    <g id="line2d_43">
     <g>
      <use xlink:href="#mb41672854f" x="331.143975" y="147.914085" style="fill: #b15928; stroke: #b15928"/>
     </g>
    </g>
    <g id="text_20">
     <!--  $E_{c,ML}$ = -->
     <g transform="translate(349.143975 144.813842) scale(0.1 -0.1)">
      <use xlink:href="#CMMI12-45" transform="scale(0.996264)"/>
      <use xlink:href="#CMMI12-63" transform="translate(72.211218 -14.943915) scale(0.697382)"/>
      <use xlink:href="#CMMI12-3b" transform="translate(101.599349 -14.943915) scale(0.697382)"/>
      <use xlink:href="#CMMI12-4d" transform="translate(120.567282 -14.943915) scale(0.697382)"/>
      <use xlink:href="#CMMI12-4c" transform="translate(193.913024 -14.943915) scale(0.697382)"/>
      <use xlink:href="#CMR17-3d" transform="translate(270.946536 0) scale(0.996264)"/>
     </g>
     <!-- 19.7 $\pm$ 4.01 TeV  -->
     <g transform="translate(349.143975 155.966435) scale(0.1 -0.1)">
      <use xlink:href="#CMR17-31" transform="scale(0.996264)"/>
      <use xlink:href="#CMR17-39" transform="translate(45.690477 0) scale(0.996264)"/>
      <use xlink:href="#CMR17-2e" transform="translate(91.380954 0) scale(0.996264)"/>
      <use xlink:href="#CMR17-37" transform="translate(116.252013 0) scale(0.996264)"/>
      <use xlink:href="#CMSY10-6" transform="translate(192.018456 0) scale(0.996264)"/>
      <use xlink:href="#CMR17-34" transform="translate(299.58189 0) scale(0.996264)"/>
      <use xlink:href="#CMR17-2e" transform="translate(345.272367 0) scale(0.996264)"/>
      <use xlink:href="#CMR17-30" transform="translate(370.143426 0) scale(0.996264)"/>
      <use xlink:href="#CMR17-31" transform="translate(415.833903 0) scale(0.996264)"/>
      <use xlink:href="#CMR17-54" transform="translate(491.600346 0) scale(0.996264)"/>
      <use xlink:href="#CMR17-65" transform="translate(550.302972 0) scale(0.996264)"/>
      <use xlink:href="#CMR17-56" transform="translate(590.788632 0) scale(0.996264)"/>
     </g>
    </g>
   </g>
  </g>
 </g>
 <defs>
  <clipPath id="pa46143a5e9">
   <rect x="33.143975" y="7.2" width="279" height="171.864"/>
  </clipPath>
 </defs>
</svg>
