<?xml version="1.0" encoding="utf-8" standalone="no"?>
<!DOCTYPE svg PUBLIC "-//W3C//DTD SVG 1.1//EN"
  "http://www.w3.org/Graphics/SVG/1.1/DTD/svg11.dtd">
<svg xmlns:xlink="http://www.w3.org/1999/xlink" width="460.8pt" height="345.6pt" viewBox="0 0 460.8 345.6" xmlns="http://www.w3.org/2000/svg" version="1.1">
 <metadata>
  <rdf:RDF xmlns:dc="http://purl.org/dc/elements/1.1/" xmlns:cc="http://creativecommons.org/ns#" xmlns:rdf="http://www.w3.org/1999/02/22-rdf-syntax-ns#">
   <cc:Work>
    <dc:type rdf:resource="http://purl.org/dc/dcmitype/StillImage"/>
    <dc:date>2023-07-27T14:26:47.829972</dc:date>
    <dc:format>image/svg+xml</dc:format>
    <dc:creator>
     <cc:Agent>
      <dc:title>Matplotlib v3.7.1, https://matplotlib.org/</dc:title>
     </cc:Agent>
    </dc:creator>
   </cc:Work>
  </rdf:RDF>
 </metadata>
 <defs>
  <style type="text/css">*{stroke-linejoin: round; stroke-linecap: butt}</style>
 </defs>
 <g id="figure_1">
  <g id="patch_1">
   <path d="M 0 345.6
L 460.8 345.6
L 460.8 0
L 0 0
z
" style="fill: #ffffff"/>
  </g>
  <g id="axes_1">
   <g id="patch_2">
    <path d="M 38.278823 137.581683
L 450 137.581683
L 450 25.10218
L 38.278823 25.10218
z
" style="fill: #ffffff"/>
   </g>
   <g id="matplotlib.axis_1">
    <g id="xtick_1">
     <g id="line2d_1">
      <defs>
       <path id="m9fd932a3fa" d="M 0 0
L 0 3.5
" style="stroke: #000000; stroke-width: 0.8"/>
      </defs>
      <g>
       <use xlink:href="#m9fd932a3fa" x="125.941944" y="137.581683" style="stroke: #000000; stroke-width: 0.8"/>
      </g>
     </g>
     <g id="text_1">
      <!-- $\mathdefault{10^{0}}$ -->
      <g transform="translate(118.97499 151.500182) scale(0.1 -0.1)">
       <defs>
        <path id="CMR17-31" d="M 1702 4083
C 1702 4217 1696 4224 1606 4224
C 1357 3927 979 3833 621 3820
C 602 3820 570 3820 563 3808
C 557 3795 557 3782 557 3648
C 755 3648 1088 3686 1344 3839
L 1344 467
C 1344 243 1331 166 781 166
L 589 166
L 589 0
C 896 6 1216 12 1523 12
C 1830 12 2150 6 2458 0
L 2458 166
L 2266 166
C 1715 166 1702 236 1702 467
L 1702 4083
z
" transform="scale(0.015625)"/>
        <path id="CMR17-30" d="M 2688 2038
C 2688 2430 2682 3099 2413 3613
C 2176 4063 1798 4224 1466 4224
C 1158 4224 768 4082 525 3620
C 269 3137 243 2539 243 2038
C 243 1671 250 1112 448 623
C 723 -39 1216 -128 1466 -128
C 1760 -128 2208 -7 2470 604
C 2662 1048 2688 1568 2688 2038
z
M 1466 -26
C 1056 -26 813 328 723 816
C 653 1196 653 1749 653 2109
C 653 2604 653 3015 736 3407
C 858 3954 1216 4121 1466 4121
C 1728 4121 2067 3947 2189 3420
C 2272 3054 2278 2623 2278 2109
C 2278 1691 2278 1176 2202 797
C 2067 96 1690 -26 1466 -26
z
" transform="scale(0.015625)"/>
       </defs>
       <use xlink:href="#CMR17-31" transform="scale(0.996264)"/>
       <use xlink:href="#CMR17-30" transform="translate(45.690477 0) scale(0.996264)"/>
       <use xlink:href="#CMR17-30" transform="translate(91.380954 36.153639) scale(0.697382)"/>
      </g>
     </g>
    </g>
    <g id="xtick_2">
     <g id="line2d_2">
      <g>
       <use xlink:href="#m9fd932a3fa" x="283.538567" y="137.581683" style="stroke: #000000; stroke-width: 0.8"/>
      </g>
     </g>
     <g id="text_2">
      <!-- $\mathdefault{10^{1}}$ -->
      <g transform="translate(276.571613 151.500182) scale(0.1 -0.1)">
       <use xlink:href="#CMR17-31" transform="scale(0.996264)"/>
       <use xlink:href="#CMR17-30" transform="translate(45.690477 0) scale(0.996264)"/>
       <use xlink:href="#CMR17-31" transform="translate(91.380954 36.153639) scale(0.697382)"/>
      </g>
     </g>
    </g>
    <g id="xtick_3">
     <g id="line2d_3">
      <g>
       <use xlink:href="#m9fd932a3fa" x="441.13519" y="137.581683" style="stroke: #000000; stroke-width: 0.8"/>
      </g>
     </g>
     <g id="text_3">
      <!-- $\mathdefault{10^{2}}$ -->
      <g transform="translate(434.168236 151.500182) scale(0.1 -0.1)">
       <defs>
        <path id="CMR17-32" d="M 2669 990
L 2554 990
C 2490 537 2438 460 2413 422
C 2381 371 1920 371 1830 371
L 602 371
C 832 620 1280 1073 1824 1596
C 2214 1966 2669 2400 2669 3033
C 2669 3788 2067 4224 1395 4224
C 691 4224 262 3603 262 3027
C 262 2777 448 2745 525 2745
C 589 2745 781 2783 781 3007
C 781 3206 614 3264 525 3264
C 486 3264 448 3257 422 3244
C 544 3788 915 4057 1306 4057
C 1862 4057 2227 3616 2227 3033
C 2227 2477 1901 1998 1536 1583
L 262 147
L 262 0
L 2515 0
L 2669 990
z
" transform="scale(0.015625)"/>
       </defs>
       <use xlink:href="#CMR17-31" transform="scale(0.996264)"/>
       <use xlink:href="#CMR17-30" transform="translate(45.690477 0) scale(0.996264)"/>
       <use xlink:href="#CMR17-32" transform="translate(91.380954 36.153639) scale(0.697382)"/>
      </g>
     </g>
    </g>
    <g id="xtick_4">
     <g id="line2d_4">
      <defs>
       <path id="m345202b387" d="M 0 0
L 0 2
" style="stroke: #000000; stroke-width: 0.6"/>
      </defs>
      <g>
       <use xlink:href="#m345202b387" x="43.53802" y="137.581683" style="stroke: #000000; stroke-width: 0.6"/>
      </g>
     </g>
    </g>
    <g id="xtick_5">
     <g id="line2d_5">
      <g>
       <use xlink:href="#m345202b387" x="63.227943" y="137.581683" style="stroke: #000000; stroke-width: 0.6"/>
      </g>
     </g>
    </g>
    <g id="xtick_6">
     <g id="line2d_6">
      <g>
       <use xlink:href="#m345202b387" x="78.500633" y="137.581683" style="stroke: #000000; stroke-width: 0.6"/>
      </g>
     </g>
    </g>
    <g id="xtick_7">
     <g id="line2d_7">
      <g>
       <use xlink:href="#m345202b387" x="90.97933" y="137.581683" style="stroke: #000000; stroke-width: 0.6"/>
      </g>
     </g>
    </g>
    <g id="xtick_8">
     <g id="line2d_8">
      <g>
       <use xlink:href="#m345202b387" x="101.529918" y="137.581683" style="stroke: #000000; stroke-width: 0.6"/>
      </g>
     </g>
    </g>
    <g id="xtick_9">
     <g id="line2d_9">
      <g>
       <use xlink:href="#m345202b387" x="110.669253" y="137.581683" style="stroke: #000000; stroke-width: 0.6"/>
      </g>
     </g>
    </g>
    <g id="xtick_10">
     <g id="line2d_10">
      <g>
       <use xlink:href="#m345202b387" x="118.730718" y="137.581683" style="stroke: #000000; stroke-width: 0.6"/>
      </g>
     </g>
    </g>
    <g id="xtick_11">
     <g id="line2d_11">
      <g>
       <use xlink:href="#m345202b387" x="173.383255" y="137.581683" style="stroke: #000000; stroke-width: 0.6"/>
      </g>
     </g>
    </g>
    <g id="xtick_12">
     <g id="line2d_12">
      <g>
       <use xlink:href="#m345202b387" x="201.134643" y="137.581683" style="stroke: #000000; stroke-width: 0.6"/>
      </g>
     </g>
    </g>
    <g id="xtick_13">
     <g id="line2d_13">
      <g>
       <use xlink:href="#m345202b387" x="220.824566" y="137.581683" style="stroke: #000000; stroke-width: 0.6"/>
      </g>
     </g>
    </g>
    <g id="xtick_14">
     <g id="line2d_14">
      <g>
       <use xlink:href="#m345202b387" x="236.097256" y="137.581683" style="stroke: #000000; stroke-width: 0.6"/>
      </g>
     </g>
    </g>
    <g id="xtick_15">
     <g id="line2d_15">
      <g>
       <use xlink:href="#m345202b387" x="248.575953" y="137.581683" style="stroke: #000000; stroke-width: 0.6"/>
      </g>
     </g>
    </g>
    <g id="xtick_16">
     <g id="line2d_16">
      <g>
       <use xlink:href="#m345202b387" x="259.126541" y="137.581683" style="stroke: #000000; stroke-width: 0.6"/>
      </g>
     </g>
    </g>
    <g id="xtick_17">
     <g id="line2d_17">
      <g>
       <use xlink:href="#m345202b387" x="268.265876" y="137.581683" style="stroke: #000000; stroke-width: 0.6"/>
      </g>
     </g>
    </g>
    <g id="xtick_18">
     <g id="line2d_18">
      <g>
       <use xlink:href="#m345202b387" x="276.327341" y="137.581683" style="stroke: #000000; stroke-width: 0.6"/>
      </g>
     </g>
    </g>
    <g id="xtick_19">
     <g id="line2d_19">
      <g>
       <use xlink:href="#m345202b387" x="330.979878" y="137.581683" style="stroke: #000000; stroke-width: 0.6"/>
      </g>
     </g>
    </g>
    <g id="xtick_20">
     <g id="line2d_20">
      <g>
       <use xlink:href="#m345202b387" x="358.731266" y="137.581683" style="stroke: #000000; stroke-width: 0.6"/>
      </g>
     </g>
    </g>
    <g id="xtick_21">
     <g id="line2d_21">
      <g>
       <use xlink:href="#m345202b387" x="378.421188" y="137.581683" style="stroke: #000000; stroke-width: 0.6"/>
      </g>
     </g>
    </g>
    <g id="xtick_22">
     <g id="line2d_22">
      <g>
       <use xlink:href="#m345202b387" x="393.693879" y="137.581683" style="stroke: #000000; stroke-width: 0.6"/>
      </g>
     </g>
    </g>
    <g id="xtick_23">
     <g id="line2d_23">
      <g>
       <use xlink:href="#m345202b387" x="406.172576" y="137.581683" style="stroke: #000000; stroke-width: 0.6"/>
      </g>
     </g>
    </g>
    <g id="xtick_24">
     <g id="line2d_24">
      <g>
       <use xlink:href="#m345202b387" x="416.723164" y="137.581683" style="stroke: #000000; stroke-width: 0.6"/>
      </g>
     </g>
    </g>
    <g id="xtick_25">
     <g id="line2d_25">
      <g>
       <use xlink:href="#m345202b387" x="425.862499" y="137.581683" style="stroke: #000000; stroke-width: 0.6"/>
      </g>
     </g>
    </g>
    <g id="xtick_26">
     <g id="line2d_26">
      <g>
       <use xlink:href="#m345202b387" x="433.923964" y="137.581683" style="stroke: #000000; stroke-width: 0.6"/>
      </g>
     </g>
    </g>
    <g id="text_4">
     <!-- True Energy [TeV] -->
     <g transform="translate(203.361717 164.90934) scale(0.1 -0.1)">
      <defs>
       <path id="CMR17-54" d="M 3981 4332
L 288 4332
L 179 2924
L 294 2924
C 378 3981 467 4166 1453 4166
C 1568 4166 1754 4166 1805 4159
C 1926 4140 1926 4064 1926 3917
L 1926 465
C 1926 236 1907 166 1376 166
L 1197 166
L 1197 0
C 1504 6 1824 12 2138 12
C 2451 12 2771 6 3078 0
L 3078 166
L 2899 166
C 2368 166 2349 236 2349 465
L 2349 3917
C 2349 4057 2349 4134 2464 4159
C 2515 4166 2701 4166 2816 4166
C 3795 4166 3891 3981 3974 2924
L 4090 2924
L 3981 4332
z
" transform="scale(0.015625)"/>
       <path id="CMR17-72" d="M 960 1517
C 960 2134 1222 2713 1702 2713
C 1747 2713 1792 2707 1837 2687
C 1837 2687 1696 2642 1696 2475
C 1696 2321 1818 2257 1914 2257
C 1990 2257 2131 2302 2131 2482
C 2131 2687 1926 2816 1709 2816
C 1222 2816 1011 2340 947 2115
L 941 2115
L 941 2816
L 198 2745
L 198 2578
C 576 2578 634 2540 634 2231
L 634 443
C 634 198 608 166 198 166
L 198 0
C 352 12 646 12 813 12
C 998 12 1325 12 1498 0
L 1498 166
C 1037 166 960 166 960 455
L 960 1517
z
" transform="scale(0.015625)"/>
       <path id="CMR17-75" d="M 1882 2745
L 1882 2579
C 2259 2579 2317 2540 2317 2229
L 2317 1053
C 2317 510 2029 38 1555 38
C 1030 38 986 355 986 691
L 986 2816
L 211 2745
L 211 2579
C 467 2579 640 2579 646 2320
L 646 1079
C 646 646 646 368 813 187
C 896 103 1056 -64 1517 -64
C 2061 -64 2272 400 2323 536
L 2330 536
L 2330 -64
L 3091 -13
L 3091 154
C 2714 154 2656 193 2656 503
L 2656 2816
L 1882 2745
z
" transform="scale(0.015625)"/>
       <path id="CMR17-65" d="M 2438 1503
C 2464 1529 2464 1542 2464 1606
C 2464 2251 2118 2816 1389 2816
C 710 2816 173 2175 173 1394
C 173 554 781 -64 1459 -64
C 2176 -64 2458 619 2458 755
C 2458 800 2419 800 2406 800
C 2362 800 2355 787 2330 709
C 2189 270 1837 51 1504 51
C 1229 51 954 206 781 490
C 582 819 582 1200 582 1503
L 2438 1503
z
M 589 1600
C 634 2511 1126 2713 1382 2713
C 1818 2713 2112 2308 2118 1600
L 589 1600
z
" transform="scale(0.015625)"/>
       <path id="CMR17-45" d="M 3885 1614
L 3770 1614
C 3629 676 3546 166 2419 166
L 1530 166
C 1274 166 1261 198 1261 415
L 1261 2176
L 1862 2176
C 2464 2176 2522 1959 2522 1429
L 2637 1429
L 2637 3086
L 2522 3086
C 2522 2558 2464 2342 1862 2342
L 1261 2342
L 1261 3924
C 1261 4141 1274 4172 1530 4172
L 2406 4172
C 3398 4172 3514 3778 3603 2933
L 3718 2933
L 3565 4339
L 326 4339
L 326 4172
C 768 4172 838 4172 838 3886
L 838 453
C 838 166 768 166 326 166
L 326 0
L 3654 0
L 3885 1614
z
" transform="scale(0.015625)"/>
       <path id="CMR17-6e" d="M 2656 1954
C 2656 2282 2592 2816 1837 2816
C 1331 2816 1069 2424 973 2166
L 966 2166
L 966 2816
L 211 2745
L 211 2578
C 589 2578 646 2540 646 2231
L 646 443
C 646 198 621 166 211 166
L 211 0
C 365 12 646 12 813 12
C 979 12 1267 12 1421 0
L 1421 166
C 1011 166 986 192 986 443
L 986 1678
C 986 2269 1344 2713 1792 2713
C 2266 2713 2317 2289 2317 1980
L 2317 443
C 2317 198 2291 166 1882 166
L 1882 0
C 2035 12 2317 12 2483 12
C 2650 12 2938 12 3091 0
L 3091 166
C 2682 166 2656 192 2656 443
L 2656 1954
z
" transform="scale(0.015625)"/>
       <path id="CMR17-67" d="M 710 1165
C 832 1068 1043 960 1299 960
C 1805 960 2240 1359 2240 1895
C 2240 2063 2189 2321 1997 2521
C 2176 2713 2438 2777 2586 2777
C 2611 2777 2650 2777 2682 2758
C 2656 2751 2598 2726 2598 2623
C 2598 2540 2656 2483 2739 2483
C 2835 2483 2886 2547 2886 2630
C 2886 2751 2790 2880 2586 2880
C 2330 2880 2106 2758 1926 2591
C 1734 2764 1504 2828 1299 2828
C 794 2828 358 2431 358 1895
C 358 1527 570 1294 634 1230
C 442 1004 442 742 442 710
C 442 544 506 300 723 166
C 390 82 128 -184 128 -517
C 128 -996 736 -1344 1466 -1344
C 2170 -1344 2803 -1009 2803 -510
C 2803 384 1856 384 1363 384
C 1216 384 954 384 922 390
C 723 422 589 601 589 825
C 589 883 589 1024 710 1165
z
M 1299 1068
C 736 1068 736 1766 736 1895
C 736 2024 736 2719 1299 2719
C 1862 2719 1862 2024 1862 1895
C 1862 1766 1862 1068 1299 1068
z
M 1466 -1236
C 826 -1236 384 -883 384 -517
C 384 -311 493 -118 634 -11
C 794 102 858 102 1293 102
C 1818 102 2547 102 2547 -517
C 2547 -883 2106 -1236 1466 -1236
z
" transform="scale(0.015625)"/>
       <path id="CMR17-79" d="M 2496 2183
C 2656 2579 2944 2585 3034 2585
L 3034 2752
C 2912 2745 2752 2739 2630 2739
C 2496 2739 2285 2739 2157 2752
L 2157 2585
C 2400 2566 2406 2384 2406 2332
C 2406 2268 2394 2235 2362 2158
L 1664 409
L 902 2300
C 870 2378 870 2423 870 2430
C 870 2572 1018 2585 1171 2585
L 1171 2752
C 1018 2739 742 2739 582 2739
C 410 2739 205 2739 64 2752
L 64 2585
C 410 2585 448 2553 531 2345
L 1485 -31
C 1197 -795 1030 -1242 627 -1242
C 557 -1242 397 -1223 282 -1106
C 429 -1093 493 -1002 493 -892
C 493 -782 416 -685 288 -685
C 147 -685 77 -782 77 -899
C 77 -1158 339 -1344 627 -1344
C 998 -1344 1229 -983 1357 -659
L 2496 2183
z
" transform="scale(0.015625)"/>
       <path id="CMR17-5b" d="M 1504 -1600
L 1504 -1376
L 902 -1376
L 902 4575
L 1504 4575
L 1504 4800
L 678 4800
L 678 -1600
L 1504 -1600
z
" transform="scale(0.015625)"/>
       <path id="CMR17-56" d="M 3776 3762
C 3834 3903 3936 4179 4365 4185
L 4365 4352
C 4218 4339 4051 4339 3891 4339
C 3738 4339 3475 4339 3328 4352
L 3328 4185
C 3648 4166 3661 3942 3661 3903
C 3661 3833 3642 3788 3622 3737
L 2362 448
L 1043 3903
C 1024 3948 1011 3980 1011 4012
C 1011 4185 1267 4185 1402 4185
L 1402 4352
C 1197 4339 896 4339 685 4339
C 518 4339 218 4339 64 4352
L 64 4185
C 435 4185 506 4160 582 3955
L 2106 -26
C 2138 -116 2144 -128 2214 -128
C 2285 -128 2291 -116 2323 -26
L 3776 3762
z
" transform="scale(0.015625)"/>
       <path id="CMR17-5d" d="M 915 4800
L 90 4800
L 90 4575
L 691 4575
L 691 -1376
L 90 -1376
L 90 -1600
L 915 -1600
L 915 4800
z
" transform="scale(0.015625)"/>
      </defs>
      <use xlink:href="#CMR17-54" transform="scale(0.996264)"/>
      <use xlink:href="#CMR17-72" transform="translate(58.702625 0) scale(0.996264)"/>
      <use xlink:href="#CMR17-75" transform="translate(93.983393 0) scale(0.996264)"/>
      <use xlink:href="#CMR17-65" transform="translate(144.878763 0) scale(0.996264)"/>
      <use xlink:href="#CMR17-45" transform="translate(215.44039 0) scale(0.996264)"/>
      <use xlink:href="#CMR17-6e" transform="translate(278.02669 0) scale(0.996264)"/>
      <use xlink:href="#CMR17-65" transform="translate(328.92206 0) scale(0.996264)"/>
      <use xlink:href="#CMR17-72" transform="translate(369.40772 0) scale(0.996264)"/>
      <use xlink:href="#CMR17-67" transform="translate(404.688488 0) scale(0.996264)"/>
      <use xlink:href="#CMR17-79" transform="translate(450.378965 0) scale(0.996264)"/>
      <use xlink:href="#CMR17-5b" transform="translate(528.747847 0) scale(0.996264)"/>
      <use xlink:href="#CMR17-54" transform="translate(553.618906 0) scale(0.996264)"/>
      <use xlink:href="#CMR17-65" transform="translate(612.321531 0) scale(0.996264)"/>
      <use xlink:href="#CMR17-56" transform="translate(652.807192 0) scale(0.996264)"/>
      <use xlink:href="#CMR17-5d" transform="translate(721.879621 0) scale(0.996264)"/>
     </g>
    </g>
   </g>
   <g id="matplotlib.axis_2">
    <g id="ytick_1">
     <g id="line2d_27">
      <defs>
       <path id="m951cd3590f" d="M 0 0
L -3.5 0
" style="stroke: #000000; stroke-width: 0.8"/>
      </defs>
      <g>
       <use xlink:href="#m951cd3590f" x="38.278823" y="122.297256" style="stroke: #000000; stroke-width: 0.8"/>
      </g>
     </g>
     <g id="text_5">
      <!-- $\mathdefault{0.2}$ -->
      <g transform="translate(18.548744 125.756505) scale(0.1 -0.1)">
       <defs>
        <path id="CMMI12-3a" d="M 1178 307
C 1178 492 1024 620 870 620
C 685 620 557 467 557 313
C 557 128 710 0 864 0
C 1050 0 1178 153 1178 307
z
" transform="scale(0.015625)"/>
       </defs>
       <use xlink:href="#CMR17-30" transform="scale(0.996264)"/>
       <use xlink:href="#CMMI12-3a" transform="translate(45.690477 0) scale(0.996264)"/>
       <use xlink:href="#CMR17-32" transform="translate(72.787654 0) scale(0.996264)"/>
      </g>
     </g>
    </g>
    <g id="ytick_2">
     <g id="line2d_28">
      <g>
       <use xlink:href="#m951cd3590f" x="38.278823" y="93.5007" style="stroke: #000000; stroke-width: 0.8"/>
      </g>
     </g>
     <g id="text_6">
      <!-- $\mathdefault{0.4}$ -->
      <g transform="translate(18.548744 96.959949) scale(0.1 -0.1)">
       <defs>
        <path id="CMR17-34" d="M 2150 4147
C 2150 4281 2144 4288 2029 4288
L 128 1254
L 128 1088
L 1779 1088
L 1779 460
C 1779 230 1766 166 1318 166
L 1197 166
L 1197 0
C 1402 12 1747 12 1965 12
C 2182 12 2528 12 2733 0
L 2733 166
L 2611 166
C 2163 166 2150 230 2150 460
L 2150 1088
L 2803 1088
L 2803 1254
L 2150 1254
L 2150 4147
z
M 1798 3723
L 1798 1254
L 256 1254
L 1798 3723
z
" transform="scale(0.015625)"/>
       </defs>
       <use xlink:href="#CMR17-30" transform="scale(0.996264)"/>
       <use xlink:href="#CMMI12-3a" transform="translate(45.690477 0) scale(0.996264)"/>
       <use xlink:href="#CMR17-34" transform="translate(72.787654 0) scale(0.996264)"/>
      </g>
     </g>
    </g>
    <g id="ytick_3">
     <g id="line2d_29">
      <g>
       <use xlink:href="#m951cd3590f" x="38.278823" y="64.704143" style="stroke: #000000; stroke-width: 0.8"/>
      </g>
     </g>
     <g id="text_7">
      <!-- $\mathdefault{0.6}$ -->
      <g transform="translate(18.548744 68.163393) scale(0.1 -0.1)">
       <defs>
        <path id="CMR17-36" d="M 678 2198
C 678 3712 1395 4076 1811 4076
C 1946 4076 2272 4049 2400 3782
C 2298 3782 2106 3782 2106 3558
C 2106 3385 2246 3328 2336 3328
C 2394 3328 2566 3353 2566 3571
C 2566 3987 2246 4224 1805 4224
C 1043 4224 243 3411 243 2011
C 243 257 966 -128 1478 -128
C 2099 -128 2688 431 2688 1295
C 2688 2101 2170 2688 1517 2688
C 1126 2688 838 2430 678 1979
L 678 2198
z
M 1478 25
C 691 25 691 1212 691 1450
C 691 1914 909 2585 1504 2585
C 1613 2585 1926 2585 2138 2140
C 2253 1889 2253 1624 2253 1302
C 2253 954 2253 696 2118 438
C 1978 173 1773 25 1478 25
z
" transform="scale(0.015625)"/>
       </defs>
       <use xlink:href="#CMR17-30" transform="scale(0.996264)"/>
       <use xlink:href="#CMMI12-3a" transform="translate(45.690477 0) scale(0.996264)"/>
       <use xlink:href="#CMR17-36" transform="translate(72.787654 0) scale(0.996264)"/>
      </g>
     </g>
    </g>
    <g id="ytick_4">
     <g id="line2d_30">
      <g>
       <use xlink:href="#m951cd3590f" x="38.278823" y="35.907587" style="stroke: #000000; stroke-width: 0.8"/>
      </g>
     </g>
     <g id="text_8">
      <!-- $\mathdefault{0.8}$ -->
      <g transform="translate(18.548744 39.366837) scale(0.1 -0.1)">
       <defs>
        <path id="CMR17-38" d="M 1741 2289
C 2144 2494 2554 2803 2554 3298
C 2554 3884 1990 4224 1472 4224
C 890 4224 378 3800 378 3215
C 378 3054 416 2777 666 2533
C 730 2469 998 2276 1171 2154
C 883 2006 211 1652 211 945
C 211 282 838 -128 1459 -128
C 2144 -128 2720 366 2720 1022
C 2720 1607 2330 1877 2074 2051
L 1741 2289
z
M 902 2855
C 851 2887 595 3086 595 3388
C 595 3781 998 4076 1459 4076
C 1965 4076 2336 3716 2336 3298
C 2336 2700 1670 2359 1638 2359
C 1632 2359 1626 2359 1574 2398
L 902 2855
z
M 2080 1536
C 2176 1466 2483 1253 2483 861
C 2483 385 2010 25 1472 25
C 890 25 448 443 448 951
C 448 1459 838 1884 1280 2083
L 2080 1536
z
" transform="scale(0.015625)"/>
       </defs>
       <use xlink:href="#CMR17-30" transform="scale(0.996264)"/>
       <use xlink:href="#CMMI12-3a" transform="translate(45.690477 0) scale(0.996264)"/>
       <use xlink:href="#CMR17-38" transform="translate(72.787654 0) scale(0.996264)"/>
      </g>
     </g>
    </g>
   </g>
   <g id="line2d_31">
    <path d="M 56.993422 30.214885
L 76.693 44.282988
L 96.392577 71.316862
L 116.092155 87.29374
L 135.791733 99.349539
L 155.491311 99.934463
L 175.190889 100.829251
L 194.890467 100.948113
L 214.590045 102.197542
L 234.289622 103.902831
L 253.9892 104.730708
L 273.688778 106.556592
L 293.388356 108.296415
L 313.087934 109.435441
L 332.787512 110.599666
L 352.48709 113.53278
L 372.186667 115.363651
L 391.886245 120.265303
L 411.585823 125.866186
L 431.285401 132.468978
" clip-path="url(#p054c2d7513)" style="fill: none; stroke: #1f77b4; stroke-width: 1.5; stroke-linecap: square"/>
   </g>
   <g id="patch_3">
    <path d="M 38.278823 137.581683
L 38.278823 25.10218
" style="fill: none; stroke: #000000; stroke-width: 0.8; stroke-linejoin: miter; stroke-linecap: square"/>
   </g>
   <g id="patch_4">
    <path d="M 450 137.581683
L 450 25.10218
" style="fill: none; stroke: #000000; stroke-width: 0.8; stroke-linejoin: miter; stroke-linecap: square"/>
   </g>
   <g id="patch_5">
    <path d="M 38.278823 137.581683
L 450 137.581683
" style="fill: none; stroke: #000000; stroke-width: 0.8; stroke-linejoin: miter; stroke-linecap: square"/>
   </g>
   <g id="patch_6">
    <path d="M 38.278823 25.10218
L 450 25.10218
" style="fill: none; stroke: #000000; stroke-width: 0.8; stroke-linejoin: miter; stroke-linecap: square"/>
   </g>
   <g id="text_9">
    <!-- Resolution -->
    <g transform="translate(217.037849 19.10218) scale(0.12 -0.12)">
     <defs>
      <path id="CMR17-52" d="M 2509 2156
C 3117 2278 3629 2689 3629 3203
C 3629 3806 2950 4352 2054 4352
L 333 4352
L 333 4185
C 774 4185 845 4185 845 3896
L 845 428
C 845 140 774 140 333 140
L 333 -26
C 518 -13 851 -13 1050 -13
C 1248 -13 1581 -13 1766 -26
L 1766 140
C 1325 140 1254 140 1254 428
L 1254 2112
L 2003 2112
C 2368 2112 2573 1964 2662 1881
C 2918 1632 2918 1459 2918 1024
C 2918 595 2918 377 3110 160
C 3354 -103 3680 -128 3821 -128
C 4294 -128 4365 403 4365 512
C 4365 550 4365 595 4307 595
C 4256 595 4250 556 4250 531
C 4218 115 4032 -26 3834 -26
C 3482 -26 3443 377 3405 768
C 3386 902 3373 998 3360 1139
C 3322 1459 3270 1926 2509 2156
z
M 1984 2214
L 1254 2214
L 1254 3935
C 1254 4153 1267 4185 1523 4185
L 1990 4185
C 2522 4185 3142 3999 3142 3203
C 3142 2374 2464 2214 1984 2214
z
" transform="scale(0.015625)"/>
      <path id="CMR17-73" d="M 1978 2688
C 1978 2803 1971 2809 1933 2809
C 1907 2809 1901 2803 1824 2707
C 1805 2681 1747 2617 1728 2592
C 1523 2809 1235 2816 1126 2816
C 416 2816 160 2444 160 2073
C 160 1497 813 1363 998 1324
C 1402 1241 1542 1216 1677 1100
C 1760 1024 1901 883 1901 652
C 1901 384 1747 38 1158 38
C 602 38 403 460 288 1024
C 269 1113 269 1120 218 1120
C 166 1120 160 1113 160 985
L 160 64
C 160 -52 166 -58 205 -58
C 237 -58 243 -52 275 0
C 314 57 410 211 448 275
C 576 102 800 -64 1158 -64
C 1792 -64 2131 281 2131 780
C 2131 1107 1958 1280 1875 1356
C 1683 1555 1459 1600 1190 1651
C 838 1728 390 1817 390 2208
C 390 2374 480 2726 1126 2726
C 1811 2726 1850 2086 1862 1881
C 1869 1849 1901 1843 1920 1843
C 1978 1843 1978 1862 1978 1971
L 1978 2688
z
" transform="scale(0.015625)"/>
      <path id="CMR17-6f" d="M 2758 1356
C 2758 2176 2163 2816 1466 2816
C 768 2816 173 2176 173 1356
C 173 550 768 -64 1466 -64
C 2163 -64 2758 550 2758 1356
z
M 1466 51
C 1165 51 909 230 762 480
C 602 768 582 1126 582 1408
C 582 1676 595 2009 762 2297
C 890 2508 1139 2713 1466 2713
C 1754 2713 1997 2553 2150 2329
C 2349 2028 2349 1606 2349 1408
C 2349 1158 2336 774 2163 467
C 1984 172 1709 51 1466 51
z
" transform="scale(0.015625)"/>
      <path id="CMR17-6c" d="M 979 4416
L 218 4345
L 218 4179
C 595 4179 653 4141 653 3835
L 653 439
C 653 198 627 166 218 166
L 218 0
C 371 12 653 12 813 12
C 979 12 1261 12 1414 0
L 1414 166
C 1005 166 979 191 979 439
L 979 4416
z
" transform="scale(0.015625)"/>
      <path id="CMR17-74" d="M 966 2585
L 1862 2585
L 1862 2752
L 966 2752
L 966 3968
L 851 3968
C 838 3292 614 2700 70 2687
L 70 2585
L 627 2585
L 627 778
C 627 655 627 -64 1370 -64
C 1747 -64 1965 308 1965 784
L 1965 1151
L 1850 1151
L 1850 790
C 1850 347 1677 51 1408 51
C 1222 51 966 179 966 765
L 966 2585
z
" transform="scale(0.015625)"/>
      <path id="CMR17-69" d="M 992 3961
C 992 4102 877 4224 730 4224
C 589 4224 467 4108 467 3961
C 467 3820 582 3699 730 3699
C 870 3699 992 3814 992 3961
z
M 243 2745
L 243 2579
C 602 2579 653 2540 653 2231
L 653 443
C 653 198 627 166 218 166
L 218 0
C 371 12 646 12 806 12
C 960 12 1222 12 1370 0
L 1370 166
C 992 166 979 205 979 436
L 979 2816
L 243 2745
z
" transform="scale(0.015625)"/>
     </defs>
     <use xlink:href="#CMR17-52" transform="scale(0.996264)"/>
     <use xlink:href="#CMR17-65" transform="translate(67.791102 0) scale(0.996264)"/>
     <use xlink:href="#CMR17-73" transform="translate(108.276762 0) scale(0.996264)"/>
     <use xlink:href="#CMR17-6f" transform="translate(144.0781 0) scale(0.996264)"/>
     <use xlink:href="#CMR17-6c" transform="translate(189.768577 0) scale(0.996264)"/>
     <use xlink:href="#CMR17-75" transform="translate(214.639636 0) scale(0.996264)"/>
     <use xlink:href="#CMR17-74" transform="translate(265.535005 0) scale(0.996264)"/>
     <use xlink:href="#CMR17-69" transform="translate(300.815773 0) scale(0.996264)"/>
     <use xlink:href="#CMR17-6f" transform="translate(325.686832 0) scale(0.996264)"/>
     <use xlink:href="#CMR17-6e" transform="translate(371.377309 0) scale(0.996264)"/>
    </g>
   </g>
   <g id="legend_1">
    <g id="patch_7">
     <path d="M 391.628141 47.039358
L 443 47.039358
Q 445 47.039358 445 45.039358
L 445 32.10218
Q 445 30.10218 443 30.10218
L 391.628141 30.10218
Q 389.628141 30.10218 389.628141 32.10218
L 389.628141 45.039358
Q 389.628141 47.039358 391.628141 47.039358
z
" style="fill: #ffffff; opacity: 0.8; stroke: #cccccc; stroke-linejoin: miter"/>
    </g>
    <g id="line2d_32">
     <path d="M 393.628141 37.60218
L 403.628141 37.60218
L 413.628141 37.60218
" style="fill: none; stroke: #1f77b4; stroke-width: 1.5; stroke-linecap: square"/>
    </g>
    <g id="text_10">
     <!-- data -->
     <g transform="translate(421.628141 41.10218) scale(0.1 -0.1)">
      <defs>
       <path id="CMR17-64" d="M 1869 4345
L 1869 4179
C 2246 4179 2304 4141 2304 3843
L 2304 2371
C 2278 2403 2016 2816 1498 2816
C 845 2816 211 2228 211 1376
C 211 529 806 -64 1434 -64
C 1978 -64 2259 361 2291 406
L 2291 -64
L 3066 -13
L 3066 154
C 2688 154 2630 193 2630 503
L 2630 4416
L 1869 4345
z
M 2291 762
C 2291 568 2176 393 2029 264
C 1811 70 1594 38 1472 38
C 1286 38 621 135 621 1369
C 621 2636 1363 2713 1530 2713
C 1824 2713 2061 2545 2208 2313
C 2291 2177 2291 2157 2291 2041
L 2291 762
z
" transform="scale(0.015625)"/>
       <path id="CMR17-61" d="M 2304 1656
C 2304 2048 2304 2275 2035 2534
C 1798 2751 1523 2816 1306 2816
C 800 2816 435 2408 435 1977
C 435 1740 627 1728 666 1728
C 749 1728 896 1779 896 1958
C 896 2118 774 2188 666 2188
C 640 2188 608 2182 589 2176
C 723 2594 1069 2713 1293 2713
C 1613 2713 1965 2421 1965 1875
L 1965 1632
C 1587 1619 1133 1568 774 1373
C 371 1147 256 822 256 576
C 256 77 832 -64 1171 -64
C 1523 -64 1850 135 1990 505
C 2003 219 2182 -39 2464 -39
C 2598 -39 2938 51 2938 563
L 2938 926
L 2822 926
L 2822 557
C 2822 161 2650 109 2566 109
C 2304 109 2304 446 2304 732
L 2304 1656
z
M 1965 887
C 1965 323 1568 38 1216 38
C 896 38 646 278 646 576
C 646 771 730 1114 1101 1322
C 1408 1497 1760 1523 1965 1536
L 1965 887
z
" transform="scale(0.015625)"/>
      </defs>
      <use xlink:href="#CMR17-64" transform="scale(0.996264)"/>
      <use xlink:href="#CMR17-61" transform="translate(50.89537 0) scale(0.996264)"/>
      <use xlink:href="#CMR17-74" transform="translate(96.585847 0) scale(0.996264)"/>
      <use xlink:href="#CMR17-61" transform="translate(131.866615 0) scale(0.996264)"/>
     </g>
    </g>
   </g>
  </g>
  <g id="axes_2">
   <g id="patch_8">
    <path d="M 38.278823 304.981683
L 450 304.981683
L 450 192.50218
L 38.278823 192.50218
z
" style="fill: #ffffff"/>
   </g>
   <g id="matplotlib.axis_3">
    <g id="xtick_27">
     <g id="line2d_33">
      <g>
       <use xlink:href="#m9fd932a3fa" x="48.85664" y="304.981683" style="stroke: #000000; stroke-width: 0.8"/>
      </g>
     </g>
     <g id="text_11">
      <!-- $\mathdefault{10^{-1}}$ -->
      <g transform="translate(38.776353 318.900182) scale(0.1 -0.1)">
       <defs>
        <path id="CMSY10-0" d="M 4218 1472
C 4326 1472 4442 1472 4442 1600
C 4442 1728 4326 1728 4218 1728
L 755 1728
C 646 1728 531 1728 531 1600
C 531 1472 646 1472 755 1472
L 4218 1472
z
" transform="scale(0.015625)"/>
       </defs>
       <use xlink:href="#CMR17-31" transform="scale(0.996264)"/>
       <use xlink:href="#CMR17-30" transform="translate(45.690477 0) scale(0.996264)"/>
       <use xlink:href="#CMSY10-0" transform="translate(91.380954 36.153639) scale(0.697382)"/>
       <use xlink:href="#CMR17-31" transform="translate(145.621947 36.153639) scale(0.697382)"/>
      </g>
     </g>
    </g>
    <g id="xtick_28">
     <g id="line2d_34">
      <g>
       <use xlink:href="#m9fd932a3fa" x="179.045154" y="304.981683" style="stroke: #000000; stroke-width: 0.8"/>
      </g>
     </g>
     <g id="text_12">
      <!-- $\mathdefault{10^{0}}$ -->
      <g transform="translate(172.0782 318.900182) scale(0.1 -0.1)">
       <use xlink:href="#CMR17-31" transform="scale(0.996264)"/>
       <use xlink:href="#CMR17-30" transform="translate(45.690477 0) scale(0.996264)"/>
       <use xlink:href="#CMR17-30" transform="translate(91.380954 36.153639) scale(0.697382)"/>
      </g>
     </g>
    </g>
    <g id="xtick_29">
     <g id="line2d_35">
      <g>
       <use xlink:href="#m9fd932a3fa" x="309.233669" y="304.981683" style="stroke: #000000; stroke-width: 0.8"/>
      </g>
     </g>
     <g id="text_13">
      <!-- $\mathdefault{10^{1}}$ -->
      <g transform="translate(302.266715 318.900182) scale(0.1 -0.1)">
       <use xlink:href="#CMR17-31" transform="scale(0.996264)"/>
       <use xlink:href="#CMR17-30" transform="translate(45.690477 0) scale(0.996264)"/>
       <use xlink:href="#CMR17-31" transform="translate(91.380954 36.153639) scale(0.697382)"/>
      </g>
     </g>
    </g>
    <g id="xtick_30">
     <g id="line2d_36">
      <g>
       <use xlink:href="#m9fd932a3fa" x="439.422183" y="304.981683" style="stroke: #000000; stroke-width: 0.8"/>
      </g>
     </g>
     <g id="text_14">
      <!-- $\mathdefault{10^{2}}$ -->
      <g transform="translate(432.455229 318.900182) scale(0.1 -0.1)">
       <use xlink:href="#CMR17-31" transform="scale(0.996264)"/>
       <use xlink:href="#CMR17-30" transform="translate(45.690477 0) scale(0.996264)"/>
       <use xlink:href="#CMR17-32" transform="translate(91.380954 36.153639) scale(0.697382)"/>
      </g>
     </g>
    </g>
    <g id="xtick_31">
     <g id="line2d_37">
      <g>
       <use xlink:href="#m345202b387" x="42.89954" y="304.981683" style="stroke: #000000; stroke-width: 0.6"/>
      </g>
     </g>
    </g>
    <g id="xtick_32">
     <g id="line2d_38">
      <g>
       <use xlink:href="#m345202b387" x="88.047287" y="304.981683" style="stroke: #000000; stroke-width: 0.6"/>
      </g>
     </g>
    </g>
    <g id="xtick_33">
     <g id="line2d_39">
      <g>
       <use xlink:href="#m345202b387" x="110.972347" y="304.981683" style="stroke: #000000; stroke-width: 0.6"/>
      </g>
     </g>
    </g>
    <g id="xtick_34">
     <g id="line2d_40">
      <g>
       <use xlink:href="#m345202b387" x="127.237935" y="304.981683" style="stroke: #000000; stroke-width: 0.6"/>
      </g>
     </g>
    </g>
    <g id="xtick_35">
     <g id="line2d_41">
      <g>
       <use xlink:href="#m345202b387" x="139.854506" y="304.981683" style="stroke: #000000; stroke-width: 0.6"/>
      </g>
     </g>
    </g>
    <g id="xtick_36">
     <g id="line2d_42">
      <g>
       <use xlink:href="#m345202b387" x="150.162995" y="304.981683" style="stroke: #000000; stroke-width: 0.6"/>
      </g>
     </g>
    </g>
    <g id="xtick_37">
     <g id="line2d_43">
      <g>
       <use xlink:href="#m345202b387" x="158.878698" y="304.981683" style="stroke: #000000; stroke-width: 0.6"/>
      </g>
     </g>
    </g>
    <g id="xtick_38">
     <g id="line2d_44">
      <g>
       <use xlink:href="#m345202b387" x="166.428583" y="304.981683" style="stroke: #000000; stroke-width: 0.6"/>
      </g>
     </g>
    </g>
    <g id="xtick_39">
     <g id="line2d_45">
      <g>
       <use xlink:href="#m345202b387" x="173.088054" y="304.981683" style="stroke: #000000; stroke-width: 0.6"/>
      </g>
     </g>
    </g>
    <g id="xtick_40">
     <g id="line2d_46">
      <g>
       <use xlink:href="#m345202b387" x="218.235802" y="304.981683" style="stroke: #000000; stroke-width: 0.6"/>
      </g>
     </g>
    </g>
    <g id="xtick_41">
     <g id="line2d_47">
      <g>
       <use xlink:href="#m345202b387" x="241.160861" y="304.981683" style="stroke: #000000; stroke-width: 0.6"/>
      </g>
     </g>
    </g>
    <g id="xtick_42">
     <g id="line2d_48">
      <g>
       <use xlink:href="#m345202b387" x="257.42645" y="304.981683" style="stroke: #000000; stroke-width: 0.6"/>
      </g>
     </g>
    </g>
    <g id="xtick_43">
     <g id="line2d_49">
      <g>
       <use xlink:href="#m345202b387" x="270.043021" y="304.981683" style="stroke: #000000; stroke-width: 0.6"/>
      </g>
     </g>
    </g>
    <g id="xtick_44">
     <g id="line2d_50">
      <g>
       <use xlink:href="#m345202b387" x="280.351509" y="304.981683" style="stroke: #000000; stroke-width: 0.6"/>
      </g>
     </g>
    </g>
    <g id="xtick_45">
     <g id="line2d_51">
      <g>
       <use xlink:href="#m345202b387" x="289.067213" y="304.981683" style="stroke: #000000; stroke-width: 0.6"/>
      </g>
     </g>
    </g>
    <g id="xtick_46">
     <g id="line2d_52">
      <g>
       <use xlink:href="#m345202b387" x="296.617098" y="304.981683" style="stroke: #000000; stroke-width: 0.6"/>
      </g>
     </g>
    </g>
    <g id="xtick_47">
     <g id="line2d_53">
      <g>
       <use xlink:href="#m345202b387" x="303.276569" y="304.981683" style="stroke: #000000; stroke-width: 0.6"/>
      </g>
     </g>
    </g>
    <g id="xtick_48">
     <g id="line2d_54">
      <g>
       <use xlink:href="#m345202b387" x="348.424317" y="304.981683" style="stroke: #000000; stroke-width: 0.6"/>
      </g>
     </g>
    </g>
    <g id="xtick_49">
     <g id="line2d_55">
      <g>
       <use xlink:href="#m345202b387" x="371.349376" y="304.981683" style="stroke: #000000; stroke-width: 0.6"/>
      </g>
     </g>
    </g>
    <g id="xtick_50">
     <g id="line2d_56">
      <g>
       <use xlink:href="#m345202b387" x="387.614965" y="304.981683" style="stroke: #000000; stroke-width: 0.6"/>
      </g>
     </g>
    </g>
    <g id="xtick_51">
     <g id="line2d_57">
      <g>
       <use xlink:href="#m345202b387" x="400.231535" y="304.981683" style="stroke: #000000; stroke-width: 0.6"/>
      </g>
     </g>
    </g>
    <g id="xtick_52">
     <g id="line2d_58">
      <g>
       <use xlink:href="#m345202b387" x="410.540024" y="304.981683" style="stroke: #000000; stroke-width: 0.6"/>
      </g>
     </g>
    </g>
    <g id="xtick_53">
     <g id="line2d_59">
      <g>
       <use xlink:href="#m345202b387" x="419.255727" y="304.981683" style="stroke: #000000; stroke-width: 0.6"/>
      </g>
     </g>
    </g>
    <g id="xtick_54">
     <g id="line2d_60">
      <g>
       <use xlink:href="#m345202b387" x="426.805613" y="304.981683" style="stroke: #000000; stroke-width: 0.6"/>
      </g>
     </g>
    </g>
    <g id="xtick_55">
     <g id="line2d_61">
      <g>
       <use xlink:href="#m345202b387" x="433.465083" y="304.981683" style="stroke: #000000; stroke-width: 0.6"/>
      </g>
     </g>
    </g>
    <g id="text_15">
     <!-- True Energy [TeV] -->
     <g transform="translate(203.361717 332.30934) scale(0.1 -0.1)">
      <use xlink:href="#CMR17-54" transform="scale(0.996264)"/>
      <use xlink:href="#CMR17-72" transform="translate(58.702625 0) scale(0.996264)"/>
      <use xlink:href="#CMR17-75" transform="translate(93.983393 0) scale(0.996264)"/>
      <use xlink:href="#CMR17-65" transform="translate(144.878763 0) scale(0.996264)"/>
      <use xlink:href="#CMR17-45" transform="translate(215.44039 0) scale(0.996264)"/>
      <use xlink:href="#CMR17-6e" transform="translate(278.02669 0) scale(0.996264)"/>
      <use xlink:href="#CMR17-65" transform="translate(328.92206 0) scale(0.996264)"/>
      <use xlink:href="#CMR17-72" transform="translate(369.40772 0) scale(0.996264)"/>
      <use xlink:href="#CMR17-67" transform="translate(404.688488 0) scale(0.996264)"/>
      <use xlink:href="#CMR17-79" transform="translate(450.378965 0) scale(0.996264)"/>
      <use xlink:href="#CMR17-5b" transform="translate(528.747847 0) scale(0.996264)"/>
      <use xlink:href="#CMR17-54" transform="translate(553.618906 0) scale(0.996264)"/>
      <use xlink:href="#CMR17-65" transform="translate(612.321531 0) scale(0.996264)"/>
      <use xlink:href="#CMR17-56" transform="translate(652.807192 0) scale(0.996264)"/>
      <use xlink:href="#CMR17-5d" transform="translate(721.879621 0) scale(0.996264)"/>
     </g>
    </g>
   </g>
   <g id="matplotlib.axis_4">
    <g id="ytick_5">
     <g id="line2d_62">
      <g>
       <use xlink:href="#m951cd3590f" x="38.278823" y="299.868978" style="stroke: #000000; stroke-width: 0.8"/>
      </g>
     </g>
     <g id="text_16">
      <!-- $\mathdefault{−1.0}$ -->
      <g transform="translate(10.8 303.328228) scale(0.1 -0.1)">
       <use xlink:href="#CMSY10-0" transform="scale(0.996264)"/>
       <use xlink:href="#CMR17-31" transform="translate(77.487468 0) scale(0.996264)"/>
       <use xlink:href="#CMMI12-3a" transform="translate(123.177945 0) scale(0.996264)"/>
       <use xlink:href="#CMR17-30" transform="translate(150.275122 0) scale(0.996264)"/>
      </g>
     </g>
    </g>
    <g id="ytick_6">
     <g id="line2d_63">
      <g>
       <use xlink:href="#m951cd3590f" x="38.278823" y="277.168441" style="stroke: #000000; stroke-width: 0.8"/>
      </g>
     </g>
     <g id="text_17">
      <!-- $\mathdefault{−0.5}$ -->
      <g transform="translate(10.8 280.62769) scale(0.1 -0.1)">
       <defs>
        <path id="CMR17-35" d="M 730 3750
C 794 3724 1056 3641 1325 3641
C 1920 3641 2246 3961 2432 4140
C 2432 4191 2432 4224 2394 4224
C 2387 4224 2374 4224 2323 4198
C 2099 4102 1837 4032 1517 4032
C 1325 4032 1037 4055 723 4191
C 653 4224 640 4224 634 4224
C 602 4224 595 4217 595 4090
L 595 2231
C 595 2113 595 2080 659 2080
C 691 2080 704 2093 736 2139
C 941 2435 1222 2560 1542 2560
C 1766 2560 2246 2415 2246 1293
C 2246 1087 2246 716 2054 422
C 1894 159 1645 25 1370 25
C 947 25 518 319 403 812
C 429 806 480 793 506 793
C 589 793 749 838 749 1036
C 749 1209 627 1280 506 1280
C 358 1280 262 1190 262 1011
C 262 454 704 -128 1382 -128
C 2042 -128 2669 441 2669 1267
C 2669 2054 2170 2662 1549 2662
C 1222 2662 947 2540 730 2304
L 730 3750
z
" transform="scale(0.015625)"/>
       </defs>
       <use xlink:href="#CMSY10-0" transform="scale(0.996264)"/>
       <use xlink:href="#CMR17-30" transform="translate(77.487468 0) scale(0.996264)"/>
       <use xlink:href="#CMMI12-3a" transform="translate(123.177945 0) scale(0.996264)"/>
       <use xlink:href="#CMR17-35" transform="translate(150.275122 0) scale(0.996264)"/>
      </g>
     </g>
    </g>
    <g id="ytick_7">
     <g id="line2d_64">
      <g>
       <use xlink:href="#m951cd3590f" x="38.278823" y="254.467903" style="stroke: #000000; stroke-width: 0.8"/>
      </g>
     </g>
     <g id="text_18">
      <!-- $\mathdefault{0.0}$ -->
      <g transform="translate(18.548744 257.927153) scale(0.1 -0.1)">
       <use xlink:href="#CMR17-30" transform="scale(0.996264)"/>
       <use xlink:href="#CMMI12-3a" transform="translate(45.690477 0) scale(0.996264)"/>
       <use xlink:href="#CMR17-30" transform="translate(72.787654 0) scale(0.996264)"/>
      </g>
     </g>
    </g>
    <g id="ytick_8">
     <g id="line2d_65">
      <g>
       <use xlink:href="#m951cd3590f" x="38.278823" y="231.767366" style="stroke: #000000; stroke-width: 0.8"/>
      </g>
     </g>
     <g id="text_19">
      <!-- $\mathdefault{0.5}$ -->
      <g transform="translate(18.548744 235.226615) scale(0.1 -0.1)">
       <use xlink:href="#CMR17-30" transform="scale(0.996264)"/>
       <use xlink:href="#CMMI12-3a" transform="translate(45.690477 0) scale(0.996264)"/>
       <use xlink:href="#CMR17-35" transform="translate(72.787654 0) scale(0.996264)"/>
      </g>
     </g>
    </g>
    <g id="ytick_9">
     <g id="line2d_66">
      <g>
       <use xlink:href="#m951cd3590f" x="38.278823" y="209.066828" style="stroke: #000000; stroke-width: 0.8"/>
      </g>
     </g>
     <g id="text_20">
      <!-- $\mathdefault{1.0}$ -->
      <g transform="translate(18.548744 212.526078) scale(0.1 -0.1)">
       <use xlink:href="#CMR17-31" transform="scale(0.996264)"/>
       <use xlink:href="#CMMI12-3a" transform="translate(45.690477 0) scale(0.996264)"/>
       <use xlink:href="#CMR17-30" transform="translate(72.787654 0) scale(0.996264)"/>
      </g>
     </g>
    </g>
   </g>
   <g id="line2d_67">
    <path d="M 56.993422 299.868978
L 73.266986 299.868978
L 89.54055 299.868978
L 105.814115 299.868978
L 122.087679 197.614885
L 138.361243 219.341637
L 154.634808 237.446983
L 170.908372 243.110178
L 187.181936 248.86853
L 203.455501 252.077031
L 219.729065 253.277553
L 236.002629 253.898653
L 252.276194 254.141512
L 268.549758 254.264914
L 284.823322 254.117484
L 301.096886 254.375483
L 317.370451 254.222361
L 333.644015 254.233042
L 349.917579 254.164227
L 366.191144 254.287895
L 382.464708 254.659257
L 398.738272 254.777663
L 415.011837 255.688188
L 431.285401 257.580299
" clip-path="url(#paa4cb6f4fa)" style="fill: none; stroke: #1f77b4; stroke-width: 1.5; stroke-linecap: square"/>
   </g>
   <g id="patch_9">
    <path d="M 38.278823 304.981683
L 38.278823 192.50218
" style="fill: none; stroke: #000000; stroke-width: 0.8; stroke-linejoin: miter; stroke-linecap: square"/>
   </g>
   <g id="patch_10">
    <path d="M 450 304.981683
L 450 192.50218
" style="fill: none; stroke: #000000; stroke-width: 0.8; stroke-linejoin: miter; stroke-linecap: square"/>
   </g>
   <g id="patch_11">
    <path d="M 38.278823 304.981683
L 450 304.981683
" style="fill: none; stroke: #000000; stroke-width: 0.8; stroke-linejoin: miter; stroke-linecap: square"/>
   </g>
   <g id="patch_12">
    <path d="M 38.278823 192.50218
L 450 192.50218
" style="fill: none; stroke: #000000; stroke-width: 0.8; stroke-linejoin: miter; stroke-linecap: square"/>
   </g>
   <g id="text_21">
    <!-- Bias -->
    <g transform="translate(233.133572 186.50218) scale(0.12 -0.12)">
     <defs>
      <path id="CMR17-42" d="M 333 4352
L 333 4185
C 774 4185 845 4185 845 3897
L 845 451
C 845 166 774 166 333 166
L 333 0
L 2534 0
C 3354 0 3885 578 3885 1155
C 3885 1726 3360 2214 2675 2259
C 3290 2380 3718 2790 3718 3276
C 3718 3808 3194 4352 2368 4352
L 333 4352
z
M 1248 2304
L 1248 3936
C 1248 4153 1261 4185 1517 4185
L 2336 4185
C 2970 4185 3251 3673 3251 3276
C 3251 2790 2861 2304 2170 2304
L 1248 2304
z
M 1517 166
C 1261 166 1248 198 1248 413
L 1248 2201
L 2432 2201
C 3091 2201 3411 1624 3411 1161
C 3411 698 3046 166 2349 166
L 1517 166
z
" transform="scale(0.015625)"/>
     </defs>
     <use xlink:href="#CMR17-42" transform="scale(0.996264)"/>
     <use xlink:href="#CMR17-69" transform="translate(65.188754 0) scale(0.996264)"/>
     <use xlink:href="#CMR17-61" transform="translate(90.059813 0) scale(0.996264)"/>
     <use xlink:href="#CMR17-73" transform="translate(135.75029 0) scale(0.996264)"/>
    </g>
   </g>
   <g id="legend_2">
    <g id="patch_13">
     <path d="M 391.628141 214.439358
L 443 214.439358
Q 445 214.439358 445 212.439358
L 445 199.50218
Q 445 197.50218 443 197.50218
L 391.628141 197.50218
Q 389.628141 197.50218 389.628141 199.50218
L 389.628141 212.439358
Q 389.628141 214.439358 391.628141 214.439358
z
" style="fill: #ffffff; opacity: 0.8; stroke: #cccccc; stroke-linejoin: miter"/>
    </g>
    <g id="line2d_68">
     <path d="M 393.628141 205.00218
L 403.628141 205.00218
L 413.628141 205.00218
" style="fill: none; stroke: #1f77b4; stroke-width: 1.5; stroke-linecap: square"/>
    </g>
    <g id="text_22">
     <!-- data -->
     <g transform="translate(421.628141 208.50218) scale(0.1 -0.1)">
      <use xlink:href="#CMR17-64" transform="scale(0.996264)"/>
      <use xlink:href="#CMR17-61" transform="translate(50.89537 0) scale(0.996264)"/>
      <use xlink:href="#CMR17-74" transform="translate(96.585847 0) scale(0.996264)"/>
      <use xlink:href="#CMR17-61" transform="translate(131.866615 0) scale(0.996264)"/>
     </g>
    </g>
   </g>
  </g>
 </g>
 <defs>
  <clipPath id="p054c2d7513">
   <rect x="38.278823" y="25.10218" width="411.721177" height="112.479503"/>
  </clipPath>
  <clipPath id="paa4cb6f4fa">
   <rect x="38.278823" y="192.50218" width="411.721177" height="112.479503"/>
  </clipPath>
 </defs>
</svg>
