<?xml version="1.0" encoding="utf-8" standalone="no"?>
<!DOCTYPE svg PUBLIC "-//W3C//DTD SVG 1.1//EN"
  "http://www.w3.org/Graphics/SVG/1.1/DTD/svg11.dtd">
<svg xmlns:xlink="http://www.w3.org/1999/xlink" width="720pt" height="288pt" viewBox="0 0 720 288" xmlns="http://www.w3.org/2000/svg" version="1.1">
 <metadata>
  <rdf:RDF xmlns:dc="http://purl.org/dc/elements/1.1/" xmlns:cc="http://creativecommons.org/ns#" xmlns:rdf="http://www.w3.org/1999/02/22-rdf-syntax-ns#">
   <cc:Work>
    <dc:type rdf:resource="http://purl.org/dc/dcmitype/StillImage"/>
    <dc:date>2023-05-04T14:06:02.061371</dc:date>
    <dc:format>image/svg+xml</dc:format>
    <dc:creator>
     <cc:Agent>
      <dc:title>Matplotlib v3.7.1, https://matplotlib.org/</dc:title>
     </cc:Agent>
    </dc:creator>
   </cc:Work>
  </rdf:RDF>
 </metadata>
 <defs>
  <style type="text/css">*{stroke-linejoin: round; stroke-linecap: butt}</style>
 </defs>
 <g id="figure_1">
  <g id="patch_1">
   <path d="M 0 288
L 720 288
L 720 0
L 0 0
z
" style="fill: #ffffff"/>
  </g>
  <g id="axes_1">
   <g id="patch_2">
    <path d="M 60.423889 242.728
L 354.6 242.728
L 354.6 25.44
L 60.423889 25.44
z
" style="fill: #ffffff"/>
   </g>
   <g id="PolyCollection_1">
    <path d="M 73.795531 166.185327
L 73.795531 183.860215
L 76.496872 184.123409
L 79.198214 184.386997
L 81.899556 184.650978
L 84.600898 184.915355
L 87.302239 185.180127
L 90.003581 185.445296
L 92.704923 185.710863
L 95.406264 185.976829
L 98.107606 186.243195
L 100.808948 186.509963
L 103.510289 186.777135
L 106.211631 187.044711
L 108.912973 187.312693
L 111.614314 187.581084
L 114.315656 187.849885
L 117.016998 188.119099
L 119.71834 188.388727
L 122.419681 188.658772
L 125.121023 188.929236
L 127.822365 189.200122
L 130.523706 189.471433
L 133.225048 189.74317
L 135.92639 190.015339
L 138.627731 190.287941
L 141.329073 190.56098
L 144.030415 190.834459
L 146.731757 191.108382
L 149.433098 191.382753
L 152.13444 191.657576
L 154.835782 191.932855
L 157.537123 192.208594
L 160.238465 192.484798
L 162.939807 192.761472
L 165.641148 193.038621
L 168.34249 193.31625
L 171.043832 193.594363
L 173.745173 193.872968
L 176.446515 194.15207
L 179.147857 194.431674
L 181.849199 194.711788
L 184.55054 194.992418
L 187.251882 195.273571
L 189.953224 195.555254
L 192.654565 195.837474
L 195.355907 196.12024
L 198.057249 196.403559
L 200.75859 196.68744
L 203.459932 196.971892
L 206.161274 197.256923
L 208.862616 197.542542
L 211.563957 197.828761
L 214.265299 198.115588
L 216.966641 198.403034
L 219.667982 198.69111
L 222.369324 198.979827
L 225.070666 199.269197
L 227.772007 199.559232
L 230.473349 199.849944
L 233.174691 200.141345
L 235.876032 200.43345
L 238.577374 200.726272
L 241.278716 201.019825
L 243.980058 201.314123
L 246.681399 201.609182
L 249.382741 201.905017
L 252.084083 202.201645
L 254.785424 202.49908
L 257.486766 202.797341
L 260.188108 203.096445
L 262.889449 203.396408
L 265.590791 203.697251
L 268.292133 203.998991
L 270.993475 204.301647
L 273.694816 204.605229
L 276.396158 204.905365
L 279.0975 204.253489
L 281.798841 71848.781881
L 284.500183 71848.781881
L 287.201525 71848.781881
L 289.902866 71848.781881
L 292.604208 71848.781881
L 295.30555 71848.781881
L 298.006891 71848.781881
L 300.708233 71848.781881
L 303.409575 208.503385
L 306.110917 208.329036
L 308.812258 208.646623
L 311.5136 208.965551
L 314.214942 209.285742
L 316.916283 209.607217
L 319.617625 209.929998
L 322.318967 210.254108
L 325.020308 210.579566
L 327.72165 210.906394
L 330.422992 211.234611
L 333.124334 211.564237
L 335.825675 211.895291
L 338.527017 212.227789
L 341.228359 212.56175
L 341.228359 205.087512
L 341.228359 205.087512
L 338.527017 204.722075
L 335.825675 204.355501
L 333.124334 203.987807
L 330.422992 203.619011
L 327.72165 203.249132
L 325.020308 202.878189
L 322.318967 202.506202
L 319.617625 202.133192
L 316.916283 201.75918
L 314.214942 201.384188
L 311.5136 201.008238
L 308.812258 200.631353
L 306.110917 200.253476
L 303.409575 199.500134
L 300.708233 133.957686
L 298.006891 9.214715
L 295.30555 -55.760534
L 292.604208 -38.37273
L 289.902866 -58.088385
L 287.201525 -30.259485
L 284.500183 46.480151
L 281.798841 153.648728
L 279.0975 197.176326
L 276.396158 196.047334
L 273.694816 195.657015
L 270.993475 195.269389
L 268.292133 194.881166
L 265.590791 194.492357
L 262.889449 194.102983
L 260.188108 193.713063
L 257.486766 193.322616
L 254.785424 192.931659
L 252.084083 192.540211
L 249.382741 192.148288
L 246.681399 191.755908
L 243.980058 191.363087
L 241.278716 190.969841
L 238.577374 190.576185
L 235.876032 190.182135
L 233.174691 189.787705
L 230.473349 189.392909
L 227.772007 188.997762
L 225.070666 188.602276
L 222.369324 188.206465
L 219.667982 187.810341
L 216.966641 187.413916
L 214.265299 187.017202
L 211.563957 186.620211
L 208.862616 186.222953
L 206.161274 185.82544
L 203.459932 185.427681
L 200.75859 185.029687
L 198.057249 184.631468
L 195.355907 184.233032
L 192.654565 183.834389
L 189.953224 183.435548
L 187.251882 183.036517
L 184.55054 182.637304
L 181.849199 182.237917
L 179.147857 181.838364
L 176.446515 181.438653
L 173.745173 181.03879
L 171.043832 180.638782
L 168.34249 180.238637
L 165.641148 179.83836
L 162.939807 179.437958
L 160.238465 179.037437
L 157.537123 178.636802
L 154.835782 178.23606
L 152.13444 177.835216
L 149.433098 177.434275
L 146.731757 177.033242
L 144.030415 176.632122
L 141.329073 176.23092
L 138.627731 175.82964
L 135.92639 175.428287
L 133.225048 175.026866
L 130.523706 174.62538
L 127.822365 174.223833
L 125.121023 173.822229
L 122.419681 173.420573
L 119.71834 173.018867
L 117.016998 172.617116
L 114.315656 172.215322
L 111.614314 171.813489
L 108.912973 171.41162
L 106.211631 171.009718
L 103.510289 170.607787
L 100.808948 170.205828
L 98.107606 169.803845
L 95.406264 169.401841
L 92.704923 168.999818
L 90.003581 168.597778
L 87.302239 168.195724
L 84.600898 167.793659
L 81.899556 167.391585
L 79.198214 166.989503
L 76.496872 166.587416
L 73.795531 166.185327
z
" clip-path="url(#p7a204739b1)" style="fill: #db7093; fill-opacity: 0.5"/>
   </g>
   <g id="matplotlib.axis_1">
    <g id="xtick_1">
     <g id="line2d_1">
      <defs>
       <path id="mbc01a6759b" d="M 0 0
L 0 3.5
" style="stroke: #000000; stroke-width: 0.8"/>
      </defs>
      <g>
       <use xlink:href="#mbc01a6759b" x="72.44486" y="242.728" style="stroke: #000000; stroke-width: 0.8"/>
      </g>
     </g>
     <g id="text_1">
      <!-- $\mathdefault{10^{-1}}$ -->
      <g transform="translate(60.69486 257.326437) scale(0.1 -0.1)">
       <defs>
        <path id="DejaVuSans-31" d="M 794 531
L 1825 531
L 1825 4091
L 703 3866
L 703 4441
L 1819 4666
L 2450 4666
L 2450 531
L 3481 531
L 3481 0
L 794 0
L 794 531
z
" transform="scale(0.015625)"/>
        <path id="DejaVuSans-30" d="M 2034 4250
Q 1547 4250 1301 3770
Q 1056 3291 1056 2328
Q 1056 1369 1301 889
Q 1547 409 2034 409
Q 2525 409 2770 889
Q 3016 1369 3016 2328
Q 3016 3291 2770 3770
Q 2525 4250 2034 4250
z
M 2034 4750
Q 2819 4750 3233 4129
Q 3647 3509 3647 2328
Q 3647 1150 3233 529
Q 2819 -91 2034 -91
Q 1250 -91 836 529
Q 422 1150 422 2328
Q 422 3509 836 4129
Q 1250 4750 2034 4750
z
" transform="scale(0.015625)"/>
        <path id="DejaVuSans-2212" d="M 678 2272
L 4684 2272
L 4684 1741
L 678 1741
L 678 2272
z
" transform="scale(0.015625)"/>
       </defs>
       <use xlink:href="#DejaVuSans-31" transform="translate(0 0.684375)"/>
       <use xlink:href="#DejaVuSans-30" transform="translate(63.623047 0.684375)"/>
       <use xlink:href="#DejaVuSans-2212" transform="translate(128.203125 38.965625) scale(0.7)"/>
       <use xlink:href="#DejaVuSans-31" transform="translate(186.855469 38.965625) scale(0.7)"/>
      </g>
     </g>
    </g>
    <g id="xtick_2">
     <g id="line2d_2">
      <g>
       <use xlink:href="#mbc01a6759b" x="241.061623" y="242.728" style="stroke: #000000; stroke-width: 0.8"/>
      </g>
     </g>
     <g id="text_2">
      <!-- $\mathdefault{10^{0}}$ -->
      <g transform="translate(232.261623 257.326437) scale(0.1 -0.1)">
       <use xlink:href="#DejaVuSans-31" transform="translate(0 0.765625)"/>
       <use xlink:href="#DejaVuSans-30" transform="translate(63.623047 0.765625)"/>
       <use xlink:href="#DejaVuSans-30" transform="translate(128.203125 39.046875) scale(0.7)"/>
      </g>
     </g>
    </g>
    <g id="xtick_3">
     <g id="line2d_3">
      <defs>
       <path id="mde47fe8f60" d="M 0 0
L 0 2
" style="stroke: #000000; stroke-width: 0.6"/>
      </defs>
      <g>
       <use xlink:href="#mde47fe8f60" x="64.72938" y="242.728" style="stroke: #000000; stroke-width: 0.6"/>
      </g>
     </g>
    </g>
    <g id="xtick_4">
     <g id="line2d_4">
      <g>
       <use xlink:href="#mde47fe8f60" x="123.203563" y="242.728" style="stroke: #000000; stroke-width: 0.6"/>
      </g>
     </g>
    </g>
    <g id="xtick_5">
     <g id="line2d_5">
      <g>
       <use xlink:href="#mde47fe8f60" x="152.895501" y="242.728" style="stroke: #000000; stroke-width: 0.6"/>
      </g>
     </g>
    </g>
    <g id="xtick_6">
     <g id="line2d_6">
      <g>
       <use xlink:href="#mde47fe8f60" x="173.962267" y="242.728" style="stroke: #000000; stroke-width: 0.6"/>
      </g>
     </g>
    </g>
    <g id="xtick_7">
     <g id="line2d_7">
      <g>
       <use xlink:href="#mde47fe8f60" x="190.302919" y="242.728" style="stroke: #000000; stroke-width: 0.6"/>
      </g>
     </g>
    </g>
    <g id="xtick_8">
     <g id="line2d_8">
      <g>
       <use xlink:href="#mde47fe8f60" x="203.654205" y="242.728" style="stroke: #000000; stroke-width: 0.6"/>
      </g>
     </g>
    </g>
    <g id="xtick_9">
     <g id="line2d_9">
      <g>
       <use xlink:href="#mde47fe8f60" x="214.942556" y="242.728" style="stroke: #000000; stroke-width: 0.6"/>
      </g>
     </g>
    </g>
    <g id="xtick_10">
     <g id="line2d_10">
      <g>
       <use xlink:href="#mde47fe8f60" x="224.72097" y="242.728" style="stroke: #000000; stroke-width: 0.6"/>
      </g>
     </g>
    </g>
    <g id="xtick_11">
     <g id="line2d_11">
      <g>
       <use xlink:href="#mde47fe8f60" x="233.346143" y="242.728" style="stroke: #000000; stroke-width: 0.6"/>
      </g>
     </g>
    </g>
    <g id="xtick_12">
     <g id="line2d_12">
      <g>
       <use xlink:href="#mde47fe8f60" x="291.820326" y="242.728" style="stroke: #000000; stroke-width: 0.6"/>
      </g>
     </g>
    </g>
    <g id="xtick_13">
     <g id="line2d_13">
      <g>
       <use xlink:href="#mde47fe8f60" x="321.512264" y="242.728" style="stroke: #000000; stroke-width: 0.6"/>
      </g>
     </g>
    </g>
    <g id="xtick_14">
     <g id="line2d_14">
      <g>
       <use xlink:href="#mde47fe8f60" x="342.579029" y="242.728" style="stroke: #000000; stroke-width: 0.6"/>
      </g>
     </g>
    </g>
   </g>
   <g id="matplotlib.axis_2">
    <g id="ytick_1">
     <g id="line2d_15">
      <defs>
       <path id="m603a7ebdec" d="M 0 0
L -3.5 0
" style="stroke: #000000; stroke-width: 0.8"/>
      </defs>
      <g>
       <use xlink:href="#m603a7ebdec" x="60.423889" y="195.761254" style="stroke: #000000; stroke-width: 0.8"/>
      </g>
     </g>
     <g id="text_3">
      <!-- $\mathdefault{10^{-12}}$ -->
      <g transform="translate(25.523889 199.560473) scale(0.1 -0.1)">
       <defs>
        <path id="DejaVuSans-32" d="M 1228 531
L 3431 531
L 3431 0
L 469 0
L 469 531
Q 828 903 1448 1529
Q 2069 2156 2228 2338
Q 2531 2678 2651 2914
Q 2772 3150 2772 3378
Q 2772 3750 2511 3984
Q 2250 4219 1831 4219
Q 1534 4219 1204 4116
Q 875 4013 500 3803
L 500 4441
Q 881 4594 1212 4672
Q 1544 4750 1819 4750
Q 2544 4750 2975 4387
Q 3406 4025 3406 3419
Q 3406 3131 3298 2873
Q 3191 2616 2906 2266
Q 2828 2175 2409 1742
Q 1991 1309 1228 531
z
" transform="scale(0.015625)"/>
       </defs>
       <use xlink:href="#DejaVuSans-31" transform="translate(0 0.765625)"/>
       <use xlink:href="#DejaVuSans-30" transform="translate(63.623047 0.765625)"/>
       <use xlink:href="#DejaVuSans-2212" transform="translate(128.203125 39.046875) scale(0.7)"/>
       <use xlink:href="#DejaVuSans-31" transform="translate(186.855469 39.046875) scale(0.7)"/>
       <use xlink:href="#DejaVuSans-32" transform="translate(231.391602 39.046875) scale(0.7)"/>
      </g>
     </g>
    </g>
    <g id="ytick_2">
     <g id="line2d_16">
      <g>
       <use xlink:href="#m603a7ebdec" x="60.423889" y="123.237954" style="stroke: #000000; stroke-width: 0.8"/>
      </g>
     </g>
     <g id="text_4">
      <!-- $\mathdefault{10^{-11}}$ -->
      <g transform="translate(25.523889 127.037172) scale(0.1 -0.1)">
       <use xlink:href="#DejaVuSans-31" transform="translate(0 0.684375)"/>
       <use xlink:href="#DejaVuSans-30" transform="translate(63.623047 0.684375)"/>
       <use xlink:href="#DejaVuSans-2212" transform="translate(128.203125 38.965625) scale(0.7)"/>
       <use xlink:href="#DejaVuSans-31" transform="translate(186.855469 38.965625) scale(0.7)"/>
       <use xlink:href="#DejaVuSans-31" transform="translate(231.391602 38.965625) scale(0.7)"/>
      </g>
     </g>
    </g>
    <g id="ytick_3">
     <g id="line2d_17">
      <g>
       <use xlink:href="#m603a7ebdec" x="60.423889" y="50.714654" style="stroke: #000000; stroke-width: 0.8"/>
      </g>
     </g>
     <g id="text_5">
      <!-- $\mathdefault{10^{-10}}$ -->
      <g transform="translate(25.523889 54.513872) scale(0.1 -0.1)">
       <use xlink:href="#DejaVuSans-31" transform="translate(0 0.765625)"/>
       <use xlink:href="#DejaVuSans-30" transform="translate(63.623047 0.765625)"/>
       <use xlink:href="#DejaVuSans-2212" transform="translate(128.203125 39.046875) scale(0.7)"/>
       <use xlink:href="#DejaVuSans-31" transform="translate(186.855469 39.046875) scale(0.7)"/>
       <use xlink:href="#DejaVuSans-30" transform="translate(231.391602 39.046875) scale(0.7)"/>
      </g>
     </g>
    </g>
    <g id="ytick_4">
     <g id="line2d_18">
      <defs>
       <path id="m3aec128c65" d="M 0 0
L -2 0
" style="stroke: #000000; stroke-width: 0.6"/>
      </defs>
      <g>
       <use xlink:href="#m3aec128c65" x="60.423889" y="233.682146" style="stroke: #000000; stroke-width: 0.6"/>
      </g>
     </g>
    </g>
    <g id="ytick_5">
     <g id="line2d_19">
      <g>
       <use xlink:href="#m3aec128c65" x="60.423889" y="224.621177" style="stroke: #000000; stroke-width: 0.6"/>
      </g>
     </g>
    </g>
    <g id="ytick_6">
     <g id="line2d_20">
      <g>
       <use xlink:href="#m3aec128c65" x="60.423889" y="217.592943" style="stroke: #000000; stroke-width: 0.6"/>
      </g>
     </g>
    </g>
    <g id="ytick_7">
     <g id="line2d_21">
      <g>
       <use xlink:href="#m3aec128c65" x="60.423889" y="211.850457" style="stroke: #000000; stroke-width: 0.6"/>
      </g>
     </g>
    </g>
    <g id="ytick_8">
     <g id="line2d_22">
      <g>
       <use xlink:href="#m3aec128c65" x="60.423889" y="206.995255" style="stroke: #000000; stroke-width: 0.6"/>
      </g>
     </g>
    </g>
    <g id="ytick_9">
     <g id="line2d_23">
      <g>
       <use xlink:href="#m3aec128c65" x="60.423889" y="202.789488" style="stroke: #000000; stroke-width: 0.6"/>
      </g>
     </g>
    </g>
    <g id="ytick_10">
     <g id="line2d_24">
      <g>
       <use xlink:href="#m3aec128c65" x="60.423889" y="199.079738" style="stroke: #000000; stroke-width: 0.6"/>
      </g>
     </g>
    </g>
    <g id="ytick_11">
     <g id="line2d_25">
      <g>
       <use xlink:href="#m3aec128c65" x="60.423889" y="173.929565" style="stroke: #000000; stroke-width: 0.6"/>
      </g>
     </g>
    </g>
    <g id="ytick_12">
     <g id="line2d_26">
      <g>
       <use xlink:href="#m3aec128c65" x="60.423889" y="161.158846" style="stroke: #000000; stroke-width: 0.6"/>
      </g>
     </g>
    </g>
    <g id="ytick_13">
     <g id="line2d_27">
      <g>
       <use xlink:href="#m3aec128c65" x="60.423889" y="152.097876" style="stroke: #000000; stroke-width: 0.6"/>
      </g>
     </g>
    </g>
    <g id="ytick_14">
     <g id="line2d_28">
      <g>
       <use xlink:href="#m3aec128c65" x="60.423889" y="145.069643" style="stroke: #000000; stroke-width: 0.6"/>
      </g>
     </g>
    </g>
    <g id="ytick_15">
     <g id="line2d_29">
      <g>
       <use xlink:href="#m3aec128c65" x="60.423889" y="139.327157" style="stroke: #000000; stroke-width: 0.6"/>
      </g>
     </g>
    </g>
    <g id="ytick_16">
     <g id="line2d_30">
      <g>
       <use xlink:href="#m3aec128c65" x="60.423889" y="134.471955" style="stroke: #000000; stroke-width: 0.6"/>
      </g>
     </g>
    </g>
    <g id="ytick_17">
     <g id="line2d_31">
      <g>
       <use xlink:href="#m3aec128c65" x="60.423889" y="130.266188" style="stroke: #000000; stroke-width: 0.6"/>
      </g>
     </g>
    </g>
    <g id="ytick_18">
     <g id="line2d_32">
      <g>
       <use xlink:href="#m3aec128c65" x="60.423889" y="126.556438" style="stroke: #000000; stroke-width: 0.6"/>
      </g>
     </g>
    </g>
    <g id="ytick_19">
     <g id="line2d_33">
      <g>
       <use xlink:href="#m3aec128c65" x="60.423889" y="101.406265" style="stroke: #000000; stroke-width: 0.6"/>
      </g>
     </g>
    </g>
    <g id="ytick_20">
     <g id="line2d_34">
      <g>
       <use xlink:href="#m3aec128c65" x="60.423889" y="88.635546" style="stroke: #000000; stroke-width: 0.6"/>
      </g>
     </g>
    </g>
    <g id="ytick_21">
     <g id="line2d_35">
      <g>
       <use xlink:href="#m3aec128c65" x="60.423889" y="79.574576" style="stroke: #000000; stroke-width: 0.6"/>
      </g>
     </g>
    </g>
    <g id="ytick_22">
     <g id="line2d_36">
      <g>
       <use xlink:href="#m3aec128c65" x="60.423889" y="72.546342" style="stroke: #000000; stroke-width: 0.6"/>
      </g>
     </g>
    </g>
    <g id="ytick_23">
     <g id="line2d_37">
      <g>
       <use xlink:href="#m3aec128c65" x="60.423889" y="66.803857" style="stroke: #000000; stroke-width: 0.6"/>
      </g>
     </g>
    </g>
    <g id="ytick_24">
     <g id="line2d_38">
      <g>
       <use xlink:href="#m3aec128c65" x="60.423889" y="61.948655" style="stroke: #000000; stroke-width: 0.6"/>
      </g>
     </g>
    </g>
    <g id="ytick_25">
     <g id="line2d_39">
      <g>
       <use xlink:href="#m3aec128c65" x="60.423889" y="57.742887" style="stroke: #000000; stroke-width: 0.6"/>
      </g>
     </g>
    </g>
    <g id="ytick_26">
     <g id="line2d_40">
      <g>
       <use xlink:href="#m3aec128c65" x="60.423889" y="54.033138" style="stroke: #000000; stroke-width: 0.6"/>
      </g>
     </g>
    </g>
    <g id="ytick_27">
     <g id="line2d_41">
      <g>
       <use xlink:href="#m3aec128c65" x="60.423889" y="28.882965" style="stroke: #000000; stroke-width: 0.6"/>
      </g>
     </g>
    </g>
    <g id="text_6">
     <!-- e2 * dnde [TeV / (cm2 s)] -->
     <g transform="translate(19.444202 196.563688) rotate(-90) scale(0.1 -0.1)">
      <defs>
       <path id="DejaVuSans-65" d="M 3597 1894
L 3597 1613
L 953 1613
Q 991 1019 1311 708
Q 1631 397 2203 397
Q 2534 397 2845 478
Q 3156 559 3463 722
L 3463 178
Q 3153 47 2828 -22
Q 2503 -91 2169 -91
Q 1331 -91 842 396
Q 353 884 353 1716
Q 353 2575 817 3079
Q 1281 3584 2069 3584
Q 2775 3584 3186 3129
Q 3597 2675 3597 1894
z
M 3022 2063
Q 3016 2534 2758 2815
Q 2500 3097 2075 3097
Q 1594 3097 1305 2825
Q 1016 2553 972 2059
L 3022 2063
z
" transform="scale(0.015625)"/>
       <path id="DejaVuSans-20" transform="scale(0.015625)"/>
       <path id="DejaVuSans-2a" d="M 3009 3897
L 1888 3291
L 3009 2681
L 2828 2375
L 1778 3009
L 1778 1831
L 1422 1831
L 1422 3009
L 372 2375
L 191 2681
L 1313 3291
L 191 3897
L 372 4206
L 1422 3572
L 1422 4750
L 1778 4750
L 1778 3572
L 2828 4206
L 3009 3897
z
" transform="scale(0.015625)"/>
       <path id="DejaVuSans-64" d="M 2906 2969
L 2906 4863
L 3481 4863
L 3481 0
L 2906 0
L 2906 525
Q 2725 213 2448 61
Q 2172 -91 1784 -91
Q 1150 -91 751 415
Q 353 922 353 1747
Q 353 2572 751 3078
Q 1150 3584 1784 3584
Q 2172 3584 2448 3432
Q 2725 3281 2906 2969
z
M 947 1747
Q 947 1113 1208 752
Q 1469 391 1925 391
Q 2381 391 2643 752
Q 2906 1113 2906 1747
Q 2906 2381 2643 2742
Q 2381 3103 1925 3103
Q 1469 3103 1208 2742
Q 947 2381 947 1747
z
" transform="scale(0.015625)"/>
       <path id="DejaVuSans-6e" d="M 3513 2113
L 3513 0
L 2938 0
L 2938 2094
Q 2938 2591 2744 2837
Q 2550 3084 2163 3084
Q 1697 3084 1428 2787
Q 1159 2491 1159 1978
L 1159 0
L 581 0
L 581 3500
L 1159 3500
L 1159 2956
Q 1366 3272 1645 3428
Q 1925 3584 2291 3584
Q 2894 3584 3203 3211
Q 3513 2838 3513 2113
z
" transform="scale(0.015625)"/>
       <path id="DejaVuSans-5b" d="M 550 4863
L 1875 4863
L 1875 4416
L 1125 4416
L 1125 -397
L 1875 -397
L 1875 -844
L 550 -844
L 550 4863
z
" transform="scale(0.015625)"/>
       <path id="DejaVuSans-54" d="M -19 4666
L 3928 4666
L 3928 4134
L 2272 4134
L 2272 0
L 1638 0
L 1638 4134
L -19 4134
L -19 4666
z
" transform="scale(0.015625)"/>
       <path id="DejaVuSans-56" d="M 1831 0
L 50 4666
L 709 4666
L 2188 738
L 3669 4666
L 4325 4666
L 2547 0
L 1831 0
z
" transform="scale(0.015625)"/>
       <path id="DejaVuSans-2f" d="M 1625 4666
L 2156 4666
L 531 -594
L 0 -594
L 1625 4666
z
" transform="scale(0.015625)"/>
       <path id="DejaVuSans-28" d="M 1984 4856
Q 1566 4138 1362 3434
Q 1159 2731 1159 2009
Q 1159 1288 1364 580
Q 1569 -128 1984 -844
L 1484 -844
Q 1016 -109 783 600
Q 550 1309 550 2009
Q 550 2706 781 3412
Q 1013 4119 1484 4856
L 1984 4856
z
" transform="scale(0.015625)"/>
       <path id="DejaVuSans-63" d="M 3122 3366
L 3122 2828
Q 2878 2963 2633 3030
Q 2388 3097 2138 3097
Q 1578 3097 1268 2742
Q 959 2388 959 1747
Q 959 1106 1268 751
Q 1578 397 2138 397
Q 2388 397 2633 464
Q 2878 531 3122 666
L 3122 134
Q 2881 22 2623 -34
Q 2366 -91 2075 -91
Q 1284 -91 818 406
Q 353 903 353 1747
Q 353 2603 823 3093
Q 1294 3584 2113 3584
Q 2378 3584 2631 3529
Q 2884 3475 3122 3366
z
" transform="scale(0.015625)"/>
       <path id="DejaVuSans-6d" d="M 3328 2828
Q 3544 3216 3844 3400
Q 4144 3584 4550 3584
Q 5097 3584 5394 3201
Q 5691 2819 5691 2113
L 5691 0
L 5113 0
L 5113 2094
Q 5113 2597 4934 2840
Q 4756 3084 4391 3084
Q 3944 3084 3684 2787
Q 3425 2491 3425 1978
L 3425 0
L 2847 0
L 2847 2094
Q 2847 2600 2669 2842
Q 2491 3084 2119 3084
Q 1678 3084 1418 2786
Q 1159 2488 1159 1978
L 1159 0
L 581 0
L 581 3500
L 1159 3500
L 1159 2956
Q 1356 3278 1631 3431
Q 1906 3584 2284 3584
Q 2666 3584 2933 3390
Q 3200 3197 3328 2828
z
" transform="scale(0.015625)"/>
       <path id="DejaVuSans-73" d="M 2834 3397
L 2834 2853
Q 2591 2978 2328 3040
Q 2066 3103 1784 3103
Q 1356 3103 1142 2972
Q 928 2841 928 2578
Q 928 2378 1081 2264
Q 1234 2150 1697 2047
L 1894 2003
Q 2506 1872 2764 1633
Q 3022 1394 3022 966
Q 3022 478 2636 193
Q 2250 -91 1575 -91
Q 1294 -91 989 -36
Q 684 19 347 128
L 347 722
Q 666 556 975 473
Q 1284 391 1588 391
Q 1994 391 2212 530
Q 2431 669 2431 922
Q 2431 1156 2273 1281
Q 2116 1406 1581 1522
L 1381 1569
Q 847 1681 609 1914
Q 372 2147 372 2553
Q 372 3047 722 3315
Q 1072 3584 1716 3584
Q 2034 3584 2315 3537
Q 2597 3491 2834 3397
z
" transform="scale(0.015625)"/>
       <path id="DejaVuSans-29" d="M 513 4856
L 1013 4856
Q 1481 4119 1714 3412
Q 1947 2706 1947 2009
Q 1947 1309 1714 600
Q 1481 -109 1013 -844
L 513 -844
Q 928 -128 1133 580
Q 1338 1288 1338 2009
Q 1338 2731 1133 3434
Q 928 4138 513 4856
z
" transform="scale(0.015625)"/>
       <path id="DejaVuSans-5d" d="M 1947 4863
L 1947 -844
L 622 -844
L 622 -397
L 1369 -397
L 1369 4416
L 622 4416
L 622 4863
L 1947 4863
z
" transform="scale(0.015625)"/>
      </defs>
      <use xlink:href="#DejaVuSans-65"/>
      <use xlink:href="#DejaVuSans-32" x="61.523438"/>
      <use xlink:href="#DejaVuSans-20" x="125.146484"/>
      <use xlink:href="#DejaVuSans-2a" x="156.933594"/>
      <use xlink:href="#DejaVuSans-20" x="206.933594"/>
      <use xlink:href="#DejaVuSans-64" x="238.720703"/>
      <use xlink:href="#DejaVuSans-6e" x="302.197266"/>
      <use xlink:href="#DejaVuSans-64" x="365.576172"/>
      <use xlink:href="#DejaVuSans-65" x="429.052734"/>
      <use xlink:href="#DejaVuSans-20" x="490.576172"/>
      <use xlink:href="#DejaVuSans-5b" x="522.363281"/>
      <use xlink:href="#DejaVuSans-54" x="561.376953"/>
      <use xlink:href="#DejaVuSans-65" x="605.460938"/>
      <use xlink:href="#DejaVuSans-56" x="666.984375"/>
      <use xlink:href="#DejaVuSans-20" x="735.392578"/>
      <use xlink:href="#DejaVuSans-2f" x="767.179688"/>
      <use xlink:href="#DejaVuSans-20" x="800.871094"/>
      <use xlink:href="#DejaVuSans-28" x="832.658203"/>
      <use xlink:href="#DejaVuSans-63" x="871.671875"/>
      <use xlink:href="#DejaVuSans-6d" x="926.652344"/>
      <use xlink:href="#DejaVuSans-32" x="1024.064453"/>
      <use xlink:href="#DejaVuSans-20" x="1087.6875"/>
      <use xlink:href="#DejaVuSans-73" x="1119.474609"/>
      <use xlink:href="#DejaVuSans-29" x="1171.574219"/>
      <use xlink:href="#DejaVuSans-5d" x="1210.587891"/>
     </g>
    </g>
   </g>
   <g id="line2d_42">
    <path d="M 73.795531 173.798877
L 76.496872 174.150439
L 79.198214 174.502
L 81.899556 174.853561
L 84.600898 175.205122
L 87.302239 175.556684
L 90.003581 175.908245
L 92.704923 176.259806
L 95.406264 176.611367
L 98.107606 176.962929
L 100.808948 177.31449
L 103.510289 177.666051
L 106.211631 178.017612
L 108.912973 178.369174
L 111.614314 178.720735
L 114.315656 179.072296
L 117.016998 179.423857
L 119.71834 179.775419
L 122.419681 180.12698
L 125.121023 180.478541
L 127.822365 180.830102
L 130.523706 181.181664
L 133.225048 181.533225
L 135.92639 181.884786
L 138.627731 182.236347
L 141.329073 182.587909
L 144.030415 182.93947
L 146.731757 183.291031
L 149.433098 183.642592
L 152.13444 183.994153
L 154.835782 184.345715
L 157.537123 184.697276
L 160.238465 185.048837
L 162.939807 185.400398
L 165.641148 185.75196
L 168.34249 186.103521
L 171.043832 186.455082
L 173.745173 186.806643
L 176.446515 187.158205
L 179.147857 187.509766
L 181.849199 187.861327
L 184.55054 188.212888
L 187.251882 188.56445
L 189.953224 188.916011
L 192.654565 189.267572
L 195.355907 189.619133
L 198.057249 189.970695
L 200.75859 190.322256
L 203.459932 190.673817
L 206.161274 191.025378
L 208.862616 191.37694
L 211.563957 191.728501
L 214.265299 192.080062
L 216.966641 192.431623
L 219.667982 192.783185
L 222.369324 193.134746
L 225.070666 193.486307
L 227.772007 193.837868
L 230.473349 194.18943
L 233.174691 194.540991
L 235.876032 194.892552
L 238.577374 195.244113
L 241.278716 195.595675
L 243.980058 195.947236
L 246.681399 196.298797
L 249.382741 196.650358
L 252.084083 197.00192
L 254.785424 197.353481
L 257.486766 197.705042
L 260.188108 198.056603
L 262.889449 198.408165
L 265.590791 198.759726
L 268.292133 199.111287
L 270.993475 199.462848
L 273.694816 199.81441
L 276.396158 200.165967
L 279.0975 200.516547
L 281.798841 200.745201
L 284.500183 195.505982
L 287.201525 153.691517
L 289.902866 105.924636
L 292.604208 93.477999
L 295.30555 124.632599
L 298.006891 185.097594
L 300.708233 203.053824
L 303.409575 203.681152
L 306.110917 204.033144
L 308.812258 204.384706
L 311.5136 204.736267
L 314.214942 205.087828
L 316.916283 205.43939
L 319.617625 205.790951
L 322.318967 206.142512
L 325.020308 206.494073
L 327.72165 206.845635
L 330.422992 207.197196
L 333.124334 207.548757
L 335.825675 207.900318
L 338.527017 208.251879
L 341.228359 208.603441
" clip-path="url(#p7a204739b1)" style="fill: none; stroke: #c71585; stroke-opacity: 0.95; stroke-width: 2; stroke-linecap: square"/>
   </g>
   <g id="line2d_43">
    <path d="M 73.795531 174.178544
L 76.496872 174.527104
L 79.198214 174.875664
L 81.899556 175.224224
L 84.600898 175.572784
L 87.302239 175.921344
L 90.003581 176.269904
L 92.704923 176.618464
L 95.406264 176.967024
L 98.107606 177.315584
L 100.808948 177.664144
L 103.510289 178.012704
L 106.211631 178.361264
L 108.912973 178.709824
L 111.614314 179.058384
L 114.315656 179.406944
L 117.016998 179.755504
L 119.71834 180.104064
L 122.419681 180.452625
L 125.121023 180.801185
L 127.822365 181.149745
L 130.523706 181.498305
L 133.225048 181.846865
L 135.92639 182.195425
L 138.627731 182.543985
L 141.329073 182.892545
L 144.030415 183.241105
L 146.731757 183.589665
L 149.433098 183.938225
L 152.13444 184.286785
L 154.835782 184.635345
L 157.537123 184.983905
L 160.238465 185.332465
L 162.939807 185.681025
L 165.641148 186.029585
L 168.34249 186.378145
L 171.043832 186.726705
L 173.745173 187.075265
L 176.446515 187.423825
L 179.147857 187.772385
L 181.849199 188.120945
L 184.55054 188.469505
L 187.251882 188.818065
L 189.953224 189.166625
L 192.654565 189.515185
L 195.355907 189.863745
L 198.057249 190.212305
L 200.75859 190.560865
L 203.459932 190.909426
L 206.161274 191.257986
L 208.862616 191.606546
L 211.563957 191.955106
L 214.265299 192.303666
L 216.966641 192.652226
L 219.667982 193.000786
L 222.369324 193.349346
L 225.070666 193.697906
L 227.772007 194.046466
L 230.473349 194.395026
L 233.174691 194.743586
L 235.876032 195.092146
L 238.577374 195.440706
L 241.278716 195.789266
L 243.980058 196.137826
L 246.681399 196.486386
L 249.382741 196.834946
L 252.084083 197.183506
L 254.785424 197.532066
L 257.486766 197.880626
L 260.188108 198.229186
L 262.889449 198.577746
L 265.590791 198.926306
L 268.292133 199.274866
L 270.993475 199.623426
L 273.694816 199.971986
L 276.396158 200.320545
L 279.0975 200.668602
L 281.798841 200.932697
L 284.500183 196.405881
L 287.201525 153.969532
L 289.902866 104.318828
L 292.604208 92.795696
L 295.30555 127.933056
L 298.006891 189.707285
L 300.708233 203.326982
L 303.409575 203.806027
L 306.110917 204.154707
L 308.812258 204.503267
L 311.5136 204.851827
L 314.214942 205.200387
L 316.916283 205.548947
L 319.617625 205.897507
L 322.318967 206.246067
L 325.020308 206.594627
L 327.72165 206.943187
L 330.422992 207.291747
L 333.124334 207.640307
L 335.825675 207.988867
L 338.527017 208.337427
L 341.228359 208.685987
" clip-path="url(#p7a204739b1)" style="fill: none; stroke-dasharray: 7.4,3.2; stroke-dashoffset: 0; stroke: #000000; stroke-opacity: 0.95; stroke-width: 2"/>
   </g>
   <g id="patch_3">
    <path d="M 60.423889 242.728
L 60.423889 25.44
" style="fill: none; stroke: #000000; stroke-width: 0.8; stroke-linejoin: miter; stroke-linecap: square"/>
   </g>
   <g id="patch_4">
    <path d="M 354.6 242.728
L 354.6 25.44
" style="fill: none; stroke: #000000; stroke-width: 0.8; stroke-linejoin: miter; stroke-linecap: square"/>
   </g>
   <g id="patch_5">
    <path d="M 60.423889 242.728
L 354.6 242.728
" style="fill: none; stroke: #000000; stroke-width: 0.8; stroke-linejoin: miter; stroke-linecap: square"/>
   </g>
   <g id="patch_6">
    <path d="M 60.423889 25.44
L 354.6 25.44
" style="fill: none; stroke: #000000; stroke-width: 0.8; stroke-linejoin: miter; stroke-linecap: square"/>
   </g>
   <g id="text_7">
    <!-- bias=0.0; res_assumed = 0.1 -->
    <g transform="translate(119.127257 19.44) scale(0.12 -0.12)">
     <defs>
      <path id="DejaVuSans-62" d="M 3116 1747
Q 3116 2381 2855 2742
Q 2594 3103 2138 3103
Q 1681 3103 1420 2742
Q 1159 2381 1159 1747
Q 1159 1113 1420 752
Q 1681 391 2138 391
Q 2594 391 2855 752
Q 3116 1113 3116 1747
z
M 1159 2969
Q 1341 3281 1617 3432
Q 1894 3584 2278 3584
Q 2916 3584 3314 3078
Q 3713 2572 3713 1747
Q 3713 922 3314 415
Q 2916 -91 2278 -91
Q 1894 -91 1617 61
Q 1341 213 1159 525
L 1159 0
L 581 0
L 581 4863
L 1159 4863
L 1159 2969
z
" transform="scale(0.015625)"/>
      <path id="DejaVuSans-69" d="M 603 3500
L 1178 3500
L 1178 0
L 603 0
L 603 3500
z
M 603 4863
L 1178 4863
L 1178 4134
L 603 4134
L 603 4863
z
" transform="scale(0.015625)"/>
      <path id="DejaVuSans-61" d="M 2194 1759
Q 1497 1759 1228 1600
Q 959 1441 959 1056
Q 959 750 1161 570
Q 1363 391 1709 391
Q 2188 391 2477 730
Q 2766 1069 2766 1631
L 2766 1759
L 2194 1759
z
M 3341 1997
L 3341 0
L 2766 0
L 2766 531
Q 2569 213 2275 61
Q 1981 -91 1556 -91
Q 1019 -91 701 211
Q 384 513 384 1019
Q 384 1609 779 1909
Q 1175 2209 1959 2209
L 2766 2209
L 2766 2266
Q 2766 2663 2505 2880
Q 2244 3097 1772 3097
Q 1472 3097 1187 3025
Q 903 2953 641 2809
L 641 3341
Q 956 3463 1253 3523
Q 1550 3584 1831 3584
Q 2591 3584 2966 3190
Q 3341 2797 3341 1997
z
" transform="scale(0.015625)"/>
      <path id="DejaVuSans-3d" d="M 678 2906
L 4684 2906
L 4684 2381
L 678 2381
L 678 2906
z
M 678 1631
L 4684 1631
L 4684 1100
L 678 1100
L 678 1631
z
" transform="scale(0.015625)"/>
      <path id="DejaVuSans-2e" d="M 684 794
L 1344 794
L 1344 0
L 684 0
L 684 794
z
" transform="scale(0.015625)"/>
      <path id="DejaVuSans-3b" d="M 750 3309
L 1409 3309
L 1409 2516
L 750 2516
L 750 3309
z
M 750 794
L 1409 794
L 1409 256
L 897 -744
L 494 -744
L 750 256
L 750 794
z
" transform="scale(0.015625)"/>
      <path id="DejaVuSans-72" d="M 2631 2963
Q 2534 3019 2420 3045
Q 2306 3072 2169 3072
Q 1681 3072 1420 2755
Q 1159 2438 1159 1844
L 1159 0
L 581 0
L 581 3500
L 1159 3500
L 1159 2956
Q 1341 3275 1631 3429
Q 1922 3584 2338 3584
Q 2397 3584 2469 3576
Q 2541 3569 2628 3553
L 2631 2963
z
" transform="scale(0.015625)"/>
      <path id="DejaVuSans-5f" d="M 3263 -1063
L 3263 -1509
L -63 -1509
L -63 -1063
L 3263 -1063
z
" transform="scale(0.015625)"/>
      <path id="DejaVuSans-75" d="M 544 1381
L 544 3500
L 1119 3500
L 1119 1403
Q 1119 906 1312 657
Q 1506 409 1894 409
Q 2359 409 2629 706
Q 2900 1003 2900 1516
L 2900 3500
L 3475 3500
L 3475 0
L 2900 0
L 2900 538
Q 2691 219 2414 64
Q 2138 -91 1772 -91
Q 1169 -91 856 284
Q 544 659 544 1381
z
M 1991 3584
L 1991 3584
z
" transform="scale(0.015625)"/>
     </defs>
     <use xlink:href="#DejaVuSans-62"/>
     <use xlink:href="#DejaVuSans-69" x="63.476562"/>
     <use xlink:href="#DejaVuSans-61" x="91.259766"/>
     <use xlink:href="#DejaVuSans-73" x="152.539062"/>
     <use xlink:href="#DejaVuSans-3d" x="204.638672"/>
     <use xlink:href="#DejaVuSans-30" x="288.427734"/>
     <use xlink:href="#DejaVuSans-2e" x="352.050781"/>
     <use xlink:href="#DejaVuSans-30" x="383.837891"/>
     <use xlink:href="#DejaVuSans-3b" x="447.460938"/>
     <use xlink:href="#DejaVuSans-20" x="481.152344"/>
     <use xlink:href="#DejaVuSans-72" x="512.939453"/>
     <use xlink:href="#DejaVuSans-65" x="551.802734"/>
     <use xlink:href="#DejaVuSans-73" x="613.326172"/>
     <use xlink:href="#DejaVuSans-5f" x="665.425781"/>
     <use xlink:href="#DejaVuSans-61" x="715.425781"/>
     <use xlink:href="#DejaVuSans-73" x="776.705078"/>
     <use xlink:href="#DejaVuSans-73" x="828.804688"/>
     <use xlink:href="#DejaVuSans-75" x="880.904297"/>
     <use xlink:href="#DejaVuSans-6d" x="944.283203"/>
     <use xlink:href="#DejaVuSans-65" x="1041.695312"/>
     <use xlink:href="#DejaVuSans-64" x="1103.21875"/>
     <use xlink:href="#DejaVuSans-20" x="1166.695312"/>
     <use xlink:href="#DejaVuSans-3d" x="1198.482422"/>
     <use xlink:href="#DejaVuSans-20" x="1282.271484"/>
     <use xlink:href="#DejaVuSans-30" x="1314.058594"/>
     <use xlink:href="#DejaVuSans-2e" x="1377.681641"/>
     <use xlink:href="#DejaVuSans-31" x="1409.46875"/>
    </g>
   </g>
   <g id="legend_1">
    <g id="patch_7">
     <path d="M 67.423889 77.474375
L 136.470764 77.474375
Q 138.470764 77.474375 138.470764 75.474375
L 138.470764 32.44
Q 138.470764 30.44 136.470764 30.44
L 67.423889 30.44
Q 65.423889 30.44 65.423889 32.44
L 65.423889 75.474375
Q 65.423889 77.474375 67.423889 77.474375
z
" style="fill: #ffffff; opacity: 0.8; stroke: #cccccc; stroke-linejoin: miter"/>
    </g>
    <g id="line2d_44">
     <path d="M 69.423889 38.538438
L 79.423889 38.538438
L 89.423889 38.538438
" style="fill: none; stroke: #c71585; stroke-opacity: 0.95; stroke-width: 2; stroke-linecap: square"/>
    </g>
    <g id="text_8">
     <!-- Best Fit -->
     <g transform="translate(97.423889 42.038438) scale(0.1 -0.1)">
      <defs>
       <path id="DejaVuSans-42" d="M 1259 2228
L 1259 519
L 2272 519
Q 2781 519 3026 730
Q 3272 941 3272 1375
Q 3272 1813 3026 2020
Q 2781 2228 2272 2228
L 1259 2228
z
M 1259 4147
L 1259 2741
L 2194 2741
Q 2656 2741 2882 2914
Q 3109 3088 3109 3444
Q 3109 3797 2882 3972
Q 2656 4147 2194 4147
L 1259 4147
z
M 628 4666
L 2241 4666
Q 2963 4666 3353 4366
Q 3744 4066 3744 3513
Q 3744 3084 3544 2831
Q 3344 2578 2956 2516
Q 3422 2416 3680 2098
Q 3938 1781 3938 1306
Q 3938 681 3513 340
Q 3088 0 2303 0
L 628 0
L 628 4666
z
" transform="scale(0.015625)"/>
       <path id="DejaVuSans-74" d="M 1172 4494
L 1172 3500
L 2356 3500
L 2356 3053
L 1172 3053
L 1172 1153
Q 1172 725 1289 603
Q 1406 481 1766 481
L 2356 481
L 2356 0
L 1766 0
Q 1100 0 847 248
Q 594 497 594 1153
L 594 3053
L 172 3053
L 172 3500
L 594 3500
L 594 4494
L 1172 4494
z
" transform="scale(0.015625)"/>
       <path id="DejaVuSans-46" d="M 628 4666
L 3309 4666
L 3309 4134
L 1259 4134
L 1259 2759
L 3109 2759
L 3109 2228
L 1259 2228
L 1259 0
L 628 0
L 628 4666
z
" transform="scale(0.015625)"/>
      </defs>
      <use xlink:href="#DejaVuSans-42"/>
      <use xlink:href="#DejaVuSans-65" x="68.603516"/>
      <use xlink:href="#DejaVuSans-73" x="130.126953"/>
      <use xlink:href="#DejaVuSans-74" x="182.226562"/>
      <use xlink:href="#DejaVuSans-20" x="221.435547"/>
      <use xlink:href="#DejaVuSans-46" x="253.222656"/>
      <use xlink:href="#DejaVuSans-69" x="303.492188"/>
      <use xlink:href="#DejaVuSans-74" x="331.275391"/>
     </g>
    </g>
    <g id="patch_8">
     <path d="M 69.423889 56.716563
L 89.423889 56.716563
L 89.423889 49.716563
L 69.423889 49.716563
z
" style="fill: #db7093; fill-opacity: 0.5"/>
    </g>
    <g id="text_9">
     <!-- 1$\,\sigma_{stat}$ -->
     <g transform="translate(97.423889 56.716563) scale(0.1 -0.1)">
      <defs>
       <path id="DejaVuSans-Oblique-3c3" d="M 2219 3044
Q 1744 3044 1422 2700
Q 1081 2341 969 1747
Q 844 1119 1044 756
Q 1241 397 1706 397
Q 2166 397 2503 759
Q 2844 1122 2966 1747
Q 3075 2319 2881 2700
Q 2700 3044 2219 3044
z
M 2309 3503
L 4219 3500
L 4106 2925
L 3463 2925
Q 3706 2438 3575 1747
Q 3406 888 2884 400
Q 2359 -91 1609 -91
Q 856 -91 525 400
Q 194 888 363 1747
Q 528 2609 1050 3097
Q 1484 3503 2309 3503
z
" transform="scale(0.015625)"/>
       <path id="DejaVuSans-Oblique-73" d="M 3200 3397
L 3091 2853
Q 2863 2978 2609 3040
Q 2356 3103 2088 3103
Q 1634 3103 1373 2948
Q 1113 2794 1113 2528
Q 1113 2219 1719 2053
Q 1766 2041 1788 2034
L 1972 1978
Q 2547 1819 2739 1644
Q 2931 1469 2931 1166
Q 2931 609 2489 259
Q 2047 -91 1331 -91
Q 1053 -91 747 -37
Q 441 16 72 128
L 184 722
Q 500 559 806 475
Q 1113 391 1394 391
Q 1816 391 2080 572
Q 2344 753 2344 1031
Q 2344 1331 1650 1516
L 1591 1531
L 1394 1581
Q 956 1697 753 1886
Q 550 2075 550 2369
Q 550 2928 970 3256
Q 1391 3584 2113 3584
Q 2397 3584 2667 3537
Q 2938 3491 3200 3397
z
" transform="scale(0.015625)"/>
       <path id="DejaVuSans-Oblique-74" d="M 2706 3500
L 2619 3053
L 1472 3053
L 1100 1153
Q 1081 1047 1072 975
Q 1063 903 1063 863
Q 1063 663 1183 572
Q 1303 481 1569 481
L 2150 481
L 2053 0
L 1503 0
Q 991 0 739 200
Q 488 400 488 806
Q 488 878 497 964
Q 506 1050 525 1153
L 897 3053
L 409 3053
L 500 3500
L 978 3500
L 1172 4494
L 1747 4494
L 1556 3500
L 2706 3500
z
" transform="scale(0.015625)"/>
       <path id="DejaVuSans-Oblique-61" d="M 3438 1997
L 3047 0
L 2472 0
L 2578 531
Q 2325 219 2001 64
Q 1678 -91 1281 -91
Q 834 -91 548 182
Q 263 456 263 884
Q 263 1497 752 1853
Q 1241 2209 2100 2209
L 2900 2209
L 2931 2363
Q 2938 2388 2941 2417
Q 2944 2447 2944 2509
Q 2944 2788 2717 2942
Q 2491 3097 2081 3097
Q 1800 3097 1504 3025
Q 1209 2953 897 2809
L 997 3341
Q 1322 3463 1633 3523
Q 1944 3584 2234 3584
Q 2853 3584 3176 3315
Q 3500 3047 3500 2534
Q 3500 2431 3484 2292
Q 3469 2153 3438 1997
z
M 2816 1759
L 2241 1759
Q 1534 1759 1195 1570
Q 856 1381 856 984
Q 856 709 1029 553
Q 1203 397 1509 397
Q 1978 397 2328 733
Q 2678 1069 2791 1631
L 2816 1759
z
" transform="scale(0.015625)"/>
      </defs>
      <use xlink:href="#DejaVuSans-31" transform="translate(0 0.09375)"/>
      <use xlink:href="#DejaVuSans-Oblique-3c3" transform="translate(79.858723 0.09375)"/>
      <use xlink:href="#DejaVuSans-Oblique-73" transform="translate(143.237629 -16.3125) scale(0.7)"/>
      <use xlink:href="#DejaVuSans-Oblique-74" transform="translate(179.707356 -16.3125) scale(0.7)"/>
      <use xlink:href="#DejaVuSans-Oblique-61" transform="translate(207.153645 -16.3125) scale(0.7)"/>
      <use xlink:href="#DejaVuSans-Oblique-74" transform="translate(250.049153 -16.3125) scale(0.7)"/>
     </g>
    </g>
    <g id="line2d_45">
     <path d="M 69.423889 67.894688
L 79.423889 67.894688
L 89.423889 67.894688
" style="fill: none; stroke-dasharray: 7.4,3.2; stroke-dashoffset: 0; stroke: #000000; stroke-opacity: 0.95; stroke-width: 2"/>
    </g>
    <g id="text_10">
     <!-- Input -->
     <g transform="translate(97.423889 71.394688) scale(0.1 -0.1)">
      <defs>
       <path id="DejaVuSans-49" d="M 628 4666
L 1259 4666
L 1259 0
L 628 0
L 628 4666
z
" transform="scale(0.015625)"/>
       <path id="DejaVuSans-70" d="M 1159 525
L 1159 -1331
L 581 -1331
L 581 3500
L 1159 3500
L 1159 2969
Q 1341 3281 1617 3432
Q 1894 3584 2278 3584
Q 2916 3584 3314 3078
Q 3713 2572 3713 1747
Q 3713 922 3314 415
Q 2916 -91 2278 -91
Q 1894 -91 1617 61
Q 1341 213 1159 525
z
M 3116 1747
Q 3116 2381 2855 2742
Q 2594 3103 2138 3103
Q 1681 3103 1420 2742
Q 1159 2381 1159 1747
Q 1159 1113 1420 752
Q 1681 391 2138 391
Q 2594 391 2855 752
Q 3116 1113 3116 1747
z
" transform="scale(0.015625)"/>
      </defs>
      <use xlink:href="#DejaVuSans-49"/>
      <use xlink:href="#DejaVuSans-6e" x="29.492188"/>
      <use xlink:href="#DejaVuSans-70" x="92.871094"/>
      <use xlink:href="#DejaVuSans-75" x="156.347656"/>
      <use xlink:href="#DejaVuSans-74" x="219.726562"/>
     </g>
    </g>
   </g>
  </g>
  <g id="axes_2">
   <g id="patch_9">
    <path d="M 415.023889 242.728
L 709.2 242.728
L 709.2 25.44
L 415.023889 25.44
z
" style="fill: #ffffff"/>
   </g>
   <g id="PolyCollection_2">
    <path d="M 428.395531 168.160909
L 428.395531 180.813895
L 431.096872 181.070969
L 433.798214 181.328461
L 436.499556 181.586375
L 439.200898 181.844713
L 441.902239 182.103478
L 444.603581 182.362672
L 447.304923 182.6223
L 450.006264 182.882364
L 452.707606 183.142869
L 455.408948 183.403819
L 458.110289 183.665218
L 460.811631 183.927072
L 463.512973 184.189385
L 466.214314 184.452163
L 468.915656 184.715412
L 471.616998 184.979139
L 474.31834 185.243351
L 477.019681 185.508055
L 479.721023 185.77326
L 482.422365 186.038973
L 485.123706 186.305204
L 487.825048 186.571964
L 490.52639 186.839261
L 493.227731 187.107109
L 495.929073 187.375519
L 498.630415 187.644504
L 501.331757 187.914078
L 504.033098 188.184255
L 506.73444 188.455052
L 509.435782 188.726486
L 512.137123 188.998574
L 514.838465 189.271337
L 517.539807 189.544794
L 520.241148 189.81897
L 522.94249 190.093886
L 525.643832 190.36957
L 528.345173 190.646048
L 531.046515 190.92335
L 533.747857 191.201506
L 536.449199 191.480552
L 539.15054 191.760521
L 541.851882 192.041454
L 544.553224 192.323391
L 547.254565 192.606375
L 549.955907 192.890455
L 552.657249 193.17568
L 555.35859 193.462103
L 558.059932 193.749781
L 560.761274 194.038775
L 563.462616 194.32915
L 566.163957 194.620973
L 568.865299 194.914317
L 571.566641 195.209258
L 574.267982 195.505877
L 576.969324 195.804259
L 579.670666 196.104491
L 582.372007 196.406666
L 585.073349 196.71088
L 587.774691 197.017231
L 590.476032 197.325821
L 593.177374 197.636754
L 595.878716 197.950132
L 598.580058 198.266062
L 601.281399 198.584646
L 603.982741 198.905987
L 606.684083 199.230182
L 609.385424 199.557324
L 612.086766 199.8875
L 614.788108 200.220789
L 617.489449 200.557261
L 620.190791 200.896973
L 622.892133 201.239973
L 625.593475 201.586295
L 628.294816 201.935958
L 630.996158 202.288902
L 633.6975 202.627839
L 636.398841 209.107774
L 639.100183 71848.781881
L 641.801525 71848.781881
L 644.502866 71848.781881
L 647.204208 71848.781881
L 649.90555 71848.781881
L 652.606891 71848.781881
L 655.308233 232.851273
L 658.009575 205.977882
L 660.710917 206.381533
L 663.412258 206.770665
L 666.1136 207.16222
L 668.814942 207.556098
L 671.516283 207.952195
L 674.217625 208.350409
L 676.918967 208.750644
L 679.620308 209.152804
L 682.32165 209.556797
L 685.022992 209.962536
L 687.724334 210.369936
L 690.425675 210.778919
L 693.127017 211.189409
L 695.828359 211.601333
L 695.828359 205.872164
L 695.828359 205.872164
L 693.127017 205.57202
L 690.425675 205.270851
L 687.724334 204.968588
L 685.022992 204.665152
L 682.32165 204.360465
L 679.620308 204.054442
L 676.918967 203.746995
L 674.217625 203.438032
L 671.516283 203.127458
L 668.814942 202.815175
L 666.1136 202.501081
L 663.412258 202.185073
L 660.710917 201.867049
L 658.009575 201.561426
L 655.308233 188.191154
L 652.606891 88.590124
L 649.90555 35.316727
L 647.204208 44.832758
L 644.502866 38.194807
L 641.801525 98.139307
L 639.100183 137.546088
L 636.398841 194.214063
L 633.6975 198.568315
L 630.996158 198.207838
L 628.294816 197.858522
L 625.593475 197.50632
L 622.892133 197.151184
L 620.190791 196.793133
L 617.489449 196.432201
L 614.788108 196.068435
L 612.086766 195.701893
L 609.385424 195.332645
L 606.684083 194.96077
L 603.982741 194.586355
L 601.281399 194.209493
L 598.580058 193.830282
L 595.878716 193.448823
L 593.177374 193.065222
L 590.476032 192.679582
L 587.774691 192.292008
L 585.073349 191.902604
L 582.372007 191.51147
L 579.670666 191.118707
L 576.969324 190.72441
L 574.267982 190.328672
L 571.566641 189.931581
L 568.865299 189.533222
L 566.163957 189.133676
L 563.462616 188.733021
L 560.761274 188.331328
L 558.059932 187.928666
L 555.35859 187.5251
L 552.657249 187.120691
L 549.955907 186.715497
L 547.254565 186.30957
L 544.553224 185.902963
L 541.851882 185.495722
L 539.15054 185.087891
L 536.449199 184.679513
L 533.747857 184.270626
L 531.046515 183.861267
L 528.345173 183.45147
L 525.643832 183.041266
L 522.94249 182.630687
L 520.241148 182.219759
L 517.539807 181.808509
L 514.838465 181.396962
L 512.137123 180.98514
L 509.435782 180.573065
L 506.73444 180.160758
L 504.033098 179.748236
L 501.331757 179.335519
L 498.630415 178.922623
L 495.929073 178.509563
L 493.227731 178.096353
L 490.52639 177.683009
L 487.825048 177.269542
L 485.123706 176.855965
L 482.422365 176.44229
L 479.721023 176.028526
L 477.019681 175.614685
L 474.31834 175.200775
L 471.616998 174.786807
L 468.915656 174.372787
L 466.214314 173.958725
L 463.512973 173.544628
L 460.811631 173.130502
L 458.110289 172.716356
L 455.408948 172.302194
L 452.707606 171.888022
L 450.006264 171.473848
L 447.304923 171.059675
L 444.603581 170.645509
L 441.902239 170.231355
L 439.200898 169.817217
L 436.499556 169.4031
L 433.798214 168.989007
L 431.096872 168.574942
L 428.395531 168.160909
z
" clip-path="url(#p3e61b8b599)" style="fill: #6495ed; fill-opacity: 0.6"/>
   </g>
   <g id="matplotlib.axis_3">
    <g id="xtick_15">
     <g id="line2d_46">
      <g>
       <use xlink:href="#mbc01a6759b" x="427.04486" y="242.728" style="stroke: #000000; stroke-width: 0.8"/>
      </g>
     </g>
     <g id="text_11">
      <!-- $\mathdefault{10^{-1}}$ -->
      <g transform="translate(415.29486 257.326437) scale(0.1 -0.1)">
       <use xlink:href="#DejaVuSans-31" transform="translate(0 0.684375)"/>
       <use xlink:href="#DejaVuSans-30" transform="translate(63.623047 0.684375)"/>
       <use xlink:href="#DejaVuSans-2212" transform="translate(128.203125 38.965625) scale(0.7)"/>
       <use xlink:href="#DejaVuSans-31" transform="translate(186.855469 38.965625) scale(0.7)"/>
      </g>
     </g>
    </g>
    <g id="xtick_16">
     <g id="line2d_47">
      <g>
       <use xlink:href="#mbc01a6759b" x="595.661623" y="242.728" style="stroke: #000000; stroke-width: 0.8"/>
      </g>
     </g>
     <g id="text_12">
      <!-- $\mathdefault{10^{0}}$ -->
      <g transform="translate(586.861623 257.326437) scale(0.1 -0.1)">
       <use xlink:href="#DejaVuSans-31" transform="translate(0 0.765625)"/>
       <use xlink:href="#DejaVuSans-30" transform="translate(63.623047 0.765625)"/>
       <use xlink:href="#DejaVuSans-30" transform="translate(128.203125 39.046875) scale(0.7)"/>
      </g>
     </g>
    </g>
    <g id="xtick_17">
     <g id="line2d_48">
      <g>
       <use xlink:href="#mde47fe8f60" x="419.32938" y="242.728" style="stroke: #000000; stroke-width: 0.6"/>
      </g>
     </g>
    </g>
    <g id="xtick_18">
     <g id="line2d_49">
      <g>
       <use xlink:href="#mde47fe8f60" x="477.803563" y="242.728" style="stroke: #000000; stroke-width: 0.6"/>
      </g>
     </g>
    </g>
    <g id="xtick_19">
     <g id="line2d_50">
      <g>
       <use xlink:href="#mde47fe8f60" x="507.495501" y="242.728" style="stroke: #000000; stroke-width: 0.6"/>
      </g>
     </g>
    </g>
    <g id="xtick_20">
     <g id="line2d_51">
      <g>
       <use xlink:href="#mde47fe8f60" x="528.562267" y="242.728" style="stroke: #000000; stroke-width: 0.6"/>
      </g>
     </g>
    </g>
    <g id="xtick_21">
     <g id="line2d_52">
      <g>
       <use xlink:href="#mde47fe8f60" x="544.902919" y="242.728" style="stroke: #000000; stroke-width: 0.6"/>
      </g>
     </g>
    </g>
    <g id="xtick_22">
     <g id="line2d_53">
      <g>
       <use xlink:href="#mde47fe8f60" x="558.254205" y="242.728" style="stroke: #000000; stroke-width: 0.6"/>
      </g>
     </g>
    </g>
    <g id="xtick_23">
     <g id="line2d_54">
      <g>
       <use xlink:href="#mde47fe8f60" x="569.542556" y="242.728" style="stroke: #000000; stroke-width: 0.6"/>
      </g>
     </g>
    </g>
    <g id="xtick_24">
     <g id="line2d_55">
      <g>
       <use xlink:href="#mde47fe8f60" x="579.32097" y="242.728" style="stroke: #000000; stroke-width: 0.6"/>
      </g>
     </g>
    </g>
    <g id="xtick_25">
     <g id="line2d_56">
      <g>
       <use xlink:href="#mde47fe8f60" x="587.946143" y="242.728" style="stroke: #000000; stroke-width: 0.6"/>
      </g>
     </g>
    </g>
    <g id="xtick_26">
     <g id="line2d_57">
      <g>
       <use xlink:href="#mde47fe8f60" x="646.420326" y="242.728" style="stroke: #000000; stroke-width: 0.6"/>
      </g>
     </g>
    </g>
    <g id="xtick_27">
     <g id="line2d_58">
      <g>
       <use xlink:href="#mde47fe8f60" x="676.112264" y="242.728" style="stroke: #000000; stroke-width: 0.6"/>
      </g>
     </g>
    </g>
    <g id="xtick_28">
     <g id="line2d_59">
      <g>
       <use xlink:href="#mde47fe8f60" x="697.179029" y="242.728" style="stroke: #000000; stroke-width: 0.6"/>
      </g>
     </g>
    </g>
    <g id="text_13">
     <!-- Energy [TeV] -->
     <g transform="translate(530.414288 271.004562) scale(0.1 -0.1)">
      <defs>
       <path id="DejaVuSans-45" d="M 628 4666
L 3578 4666
L 3578 4134
L 1259 4134
L 1259 2753
L 3481 2753
L 3481 2222
L 1259 2222
L 1259 531
L 3634 531
L 3634 0
L 628 0
L 628 4666
z
" transform="scale(0.015625)"/>
       <path id="DejaVuSans-67" d="M 2906 1791
Q 2906 2416 2648 2759
Q 2391 3103 1925 3103
Q 1463 3103 1205 2759
Q 947 2416 947 1791
Q 947 1169 1205 825
Q 1463 481 1925 481
Q 2391 481 2648 825
Q 2906 1169 2906 1791
z
M 3481 434
Q 3481 -459 3084 -895
Q 2688 -1331 1869 -1331
Q 1566 -1331 1297 -1286
Q 1028 -1241 775 -1147
L 775 -588
Q 1028 -725 1275 -790
Q 1522 -856 1778 -856
Q 2344 -856 2625 -561
Q 2906 -266 2906 331
L 2906 616
Q 2728 306 2450 153
Q 2172 0 1784 0
Q 1141 0 747 490
Q 353 981 353 1791
Q 353 2603 747 3093
Q 1141 3584 1784 3584
Q 2172 3584 2450 3431
Q 2728 3278 2906 2969
L 2906 3500
L 3481 3500
L 3481 434
z
" transform="scale(0.015625)"/>
       <path id="DejaVuSans-79" d="M 2059 -325
Q 1816 -950 1584 -1140
Q 1353 -1331 966 -1331
L 506 -1331
L 506 -850
L 844 -850
Q 1081 -850 1212 -737
Q 1344 -625 1503 -206
L 1606 56
L 191 3500
L 800 3500
L 1894 763
L 2988 3500
L 3597 3500
L 2059 -325
z
" transform="scale(0.015625)"/>
      </defs>
      <use xlink:href="#DejaVuSans-45"/>
      <use xlink:href="#DejaVuSans-6e" x="63.183594"/>
      <use xlink:href="#DejaVuSans-65" x="126.5625"/>
      <use xlink:href="#DejaVuSans-72" x="188.085938"/>
      <use xlink:href="#DejaVuSans-67" x="227.449219"/>
      <use xlink:href="#DejaVuSans-79" x="290.925781"/>
      <use xlink:href="#DejaVuSans-20" x="350.105469"/>
      <use xlink:href="#DejaVuSans-5b" x="381.892578"/>
      <use xlink:href="#DejaVuSans-54" x="420.90625"/>
      <use xlink:href="#DejaVuSans-65" x="464.990234"/>
      <use xlink:href="#DejaVuSans-56" x="526.513672"/>
      <use xlink:href="#DejaVuSans-5d" x="594.921875"/>
     </g>
    </g>
   </g>
   <g id="matplotlib.axis_4">
    <g id="ytick_28">
     <g id="line2d_60">
      <g>
       <use xlink:href="#m603a7ebdec" x="415.023889" y="195.761254" style="stroke: #000000; stroke-width: 0.8"/>
      </g>
     </g>
     <g id="text_14">
      <!-- $\mathdefault{10^{-12}}$ -->
      <g transform="translate(380.123889 199.560473) scale(0.1 -0.1)">
       <use xlink:href="#DejaVuSans-31" transform="translate(0 0.765625)"/>
       <use xlink:href="#DejaVuSans-30" transform="translate(63.623047 0.765625)"/>
       <use xlink:href="#DejaVuSans-2212" transform="translate(128.203125 39.046875) scale(0.7)"/>
       <use xlink:href="#DejaVuSans-31" transform="translate(186.855469 39.046875) scale(0.7)"/>
       <use xlink:href="#DejaVuSans-32" transform="translate(231.391602 39.046875) scale(0.7)"/>
      </g>
     </g>
    </g>
    <g id="ytick_29">
     <g id="line2d_61">
      <g>
       <use xlink:href="#m603a7ebdec" x="415.023889" y="123.237954" style="stroke: #000000; stroke-width: 0.8"/>
      </g>
     </g>
     <g id="text_15">
      <!-- $\mathdefault{10^{-11}}$ -->
      <g transform="translate(380.123889 127.037172) scale(0.1 -0.1)">
       <use xlink:href="#DejaVuSans-31" transform="translate(0 0.684375)"/>
       <use xlink:href="#DejaVuSans-30" transform="translate(63.623047 0.684375)"/>
       <use xlink:href="#DejaVuSans-2212" transform="translate(128.203125 38.965625) scale(0.7)"/>
       <use xlink:href="#DejaVuSans-31" transform="translate(186.855469 38.965625) scale(0.7)"/>
       <use xlink:href="#DejaVuSans-31" transform="translate(231.391602 38.965625) scale(0.7)"/>
      </g>
     </g>
    </g>
    <g id="ytick_30">
     <g id="line2d_62">
      <g>
       <use xlink:href="#m603a7ebdec" x="415.023889" y="50.714654" style="stroke: #000000; stroke-width: 0.8"/>
      </g>
     </g>
     <g id="text_16">
      <!-- $\mathdefault{10^{-10}}$ -->
      <g transform="translate(380.123889 54.513872) scale(0.1 -0.1)">
       <use xlink:href="#DejaVuSans-31" transform="translate(0 0.765625)"/>
       <use xlink:href="#DejaVuSans-30" transform="translate(63.623047 0.765625)"/>
       <use xlink:href="#DejaVuSans-2212" transform="translate(128.203125 39.046875) scale(0.7)"/>
       <use xlink:href="#DejaVuSans-31" transform="translate(186.855469 39.046875) scale(0.7)"/>
       <use xlink:href="#DejaVuSans-30" transform="translate(231.391602 39.046875) scale(0.7)"/>
      </g>
     </g>
    </g>
    <g id="ytick_31">
     <g id="line2d_63">
      <g>
       <use xlink:href="#m3aec128c65" x="415.023889" y="233.682146" style="stroke: #000000; stroke-width: 0.6"/>
      </g>
     </g>
    </g>
    <g id="ytick_32">
     <g id="line2d_64">
      <g>
       <use xlink:href="#m3aec128c65" x="415.023889" y="224.621177" style="stroke: #000000; stroke-width: 0.6"/>
      </g>
     </g>
    </g>
    <g id="ytick_33">
     <g id="line2d_65">
      <g>
       <use xlink:href="#m3aec128c65" x="415.023889" y="217.592943" style="stroke: #000000; stroke-width: 0.6"/>
      </g>
     </g>
    </g>
    <g id="ytick_34">
     <g id="line2d_66">
      <g>
       <use xlink:href="#m3aec128c65" x="415.023889" y="211.850457" style="stroke: #000000; stroke-width: 0.6"/>
      </g>
     </g>
    </g>
    <g id="ytick_35">
     <g id="line2d_67">
      <g>
       <use xlink:href="#m3aec128c65" x="415.023889" y="206.995255" style="stroke: #000000; stroke-width: 0.6"/>
      </g>
     </g>
    </g>
    <g id="ytick_36">
     <g id="line2d_68">
      <g>
       <use xlink:href="#m3aec128c65" x="415.023889" y="202.789488" style="stroke: #000000; stroke-width: 0.6"/>
      </g>
     </g>
    </g>
    <g id="ytick_37">
     <g id="line2d_69">
      <g>
       <use xlink:href="#m3aec128c65" x="415.023889" y="199.079738" style="stroke: #000000; stroke-width: 0.6"/>
      </g>
     </g>
    </g>
    <g id="ytick_38">
     <g id="line2d_70">
      <g>
       <use xlink:href="#m3aec128c65" x="415.023889" y="173.929565" style="stroke: #000000; stroke-width: 0.6"/>
      </g>
     </g>
    </g>
    <g id="ytick_39">
     <g id="line2d_71">
      <g>
       <use xlink:href="#m3aec128c65" x="415.023889" y="161.158846" style="stroke: #000000; stroke-width: 0.6"/>
      </g>
     </g>
    </g>
    <g id="ytick_40">
     <g id="line2d_72">
      <g>
       <use xlink:href="#m3aec128c65" x="415.023889" y="152.097876" style="stroke: #000000; stroke-width: 0.6"/>
      </g>
     </g>
    </g>
    <g id="ytick_41">
     <g id="line2d_73">
      <g>
       <use xlink:href="#m3aec128c65" x="415.023889" y="145.069643" style="stroke: #000000; stroke-width: 0.6"/>
      </g>
     </g>
    </g>
    <g id="ytick_42">
     <g id="line2d_74">
      <g>
       <use xlink:href="#m3aec128c65" x="415.023889" y="139.327157" style="stroke: #000000; stroke-width: 0.6"/>
      </g>
     </g>
    </g>
    <g id="ytick_43">
     <g id="line2d_75">
      <g>
       <use xlink:href="#m3aec128c65" x="415.023889" y="134.471955" style="stroke: #000000; stroke-width: 0.6"/>
      </g>
     </g>
    </g>
    <g id="ytick_44">
     <g id="line2d_76">
      <g>
       <use xlink:href="#m3aec128c65" x="415.023889" y="130.266188" style="stroke: #000000; stroke-width: 0.6"/>
      </g>
     </g>
    </g>
    <g id="ytick_45">
     <g id="line2d_77">
      <g>
       <use xlink:href="#m3aec128c65" x="415.023889" y="126.556438" style="stroke: #000000; stroke-width: 0.6"/>
      </g>
     </g>
    </g>
    <g id="ytick_46">
     <g id="line2d_78">
      <g>
       <use xlink:href="#m3aec128c65" x="415.023889" y="101.406265" style="stroke: #000000; stroke-width: 0.6"/>
      </g>
     </g>
    </g>
    <g id="ytick_47">
     <g id="line2d_79">
      <g>
       <use xlink:href="#m3aec128c65" x="415.023889" y="88.635546" style="stroke: #000000; stroke-width: 0.6"/>
      </g>
     </g>
    </g>
    <g id="ytick_48">
     <g id="line2d_80">
      <g>
       <use xlink:href="#m3aec128c65" x="415.023889" y="79.574576" style="stroke: #000000; stroke-width: 0.6"/>
      </g>
     </g>
    </g>
    <g id="ytick_49">
     <g id="line2d_81">
      <g>
       <use xlink:href="#m3aec128c65" x="415.023889" y="72.546342" style="stroke: #000000; stroke-width: 0.6"/>
      </g>
     </g>
    </g>
    <g id="ytick_50">
     <g id="line2d_82">
      <g>
       <use xlink:href="#m3aec128c65" x="415.023889" y="66.803857" style="stroke: #000000; stroke-width: 0.6"/>
      </g>
     </g>
    </g>
    <g id="ytick_51">
     <g id="line2d_83">
      <g>
       <use xlink:href="#m3aec128c65" x="415.023889" y="61.948655" style="stroke: #000000; stroke-width: 0.6"/>
      </g>
     </g>
    </g>
    <g id="ytick_52">
     <g id="line2d_84">
      <g>
       <use xlink:href="#m3aec128c65" x="415.023889" y="57.742887" style="stroke: #000000; stroke-width: 0.6"/>
      </g>
     </g>
    </g>
    <g id="ytick_53">
     <g id="line2d_85">
      <g>
       <use xlink:href="#m3aec128c65" x="415.023889" y="54.033138" style="stroke: #000000; stroke-width: 0.6"/>
      </g>
     </g>
    </g>
    <g id="ytick_54">
     <g id="line2d_86">
      <g>
       <use xlink:href="#m3aec128c65" x="415.023889" y="28.882965" style="stroke: #000000; stroke-width: 0.6"/>
      </g>
     </g>
    </g>
    <g id="text_17">
     <!-- e2 * dnde [TeV / (cm2 s)] -->
     <g transform="translate(374.044202 196.563688) rotate(-90) scale(0.1 -0.1)">
      <use xlink:href="#DejaVuSans-65"/>
      <use xlink:href="#DejaVuSans-32" x="61.523438"/>
      <use xlink:href="#DejaVuSans-20" x="125.146484"/>
      <use xlink:href="#DejaVuSans-2a" x="156.933594"/>
      <use xlink:href="#DejaVuSans-20" x="206.933594"/>
      <use xlink:href="#DejaVuSans-64" x="238.720703"/>
      <use xlink:href="#DejaVuSans-6e" x="302.197266"/>
      <use xlink:href="#DejaVuSans-64" x="365.576172"/>
      <use xlink:href="#DejaVuSans-65" x="429.052734"/>
      <use xlink:href="#DejaVuSans-20" x="490.576172"/>
      <use xlink:href="#DejaVuSans-5b" x="522.363281"/>
      <use xlink:href="#DejaVuSans-54" x="561.376953"/>
      <use xlink:href="#DejaVuSans-65" x="605.460938"/>
      <use xlink:href="#DejaVuSans-56" x="666.984375"/>
      <use xlink:href="#DejaVuSans-20" x="735.392578"/>
      <use xlink:href="#DejaVuSans-2f" x="767.179688"/>
      <use xlink:href="#DejaVuSans-20" x="800.871094"/>
      <use xlink:href="#DejaVuSans-28" x="832.658203"/>
      <use xlink:href="#DejaVuSans-63" x="871.671875"/>
      <use xlink:href="#DejaVuSans-6d" x="926.652344"/>
      <use xlink:href="#DejaVuSans-32" x="1024.064453"/>
      <use xlink:href="#DejaVuSans-20" x="1087.6875"/>
      <use xlink:href="#DejaVuSans-73" x="1119.474609"/>
      <use xlink:href="#DejaVuSans-29" x="1171.574219"/>
      <use xlink:href="#DejaVuSans-5d" x="1210.587891"/>
     </g>
    </g>
   </g>
   <g id="line2d_87">
    <path d="M 428.395531 173.856248
L 431.096872 174.207263
L 433.798214 174.558277
L 436.499556 174.909291
L 439.200898 175.260305
L 441.902239 175.61132
L 444.603581 175.962334
L 447.304923 176.313348
L 450.006264 176.664362
L 452.707606 177.015377
L 455.408948 177.366391
L 458.110289 177.717405
L 460.811631 178.06842
L 463.512973 178.419434
L 466.214314 178.770448
L 468.915656 179.121462
L 471.616998 179.472477
L 474.31834 179.823491
L 477.019681 180.174505
L 479.721023 180.525519
L 482.422365 180.876534
L 485.123706 181.227548
L 487.825048 181.578562
L 490.52639 181.929577
L 493.227731 182.280591
L 495.929073 182.631605
L 498.630415 182.982619
L 501.331757 183.333634
L 504.033098 183.684648
L 506.73444 184.035662
L 509.435782 184.386676
L 512.137123 184.737691
L 514.838465 185.088705
L 517.539807 185.439719
L 520.241148 185.790734
L 522.94249 186.141748
L 525.643832 186.492762
L 528.345173 186.843776
L 531.046515 187.194791
L 533.747857 187.545805
L 536.449199 187.896819
L 539.15054 188.247833
L 541.851882 188.598848
L 544.553224 188.949862
L 547.254565 189.300876
L 549.955907 189.651891
L 552.657249 190.002905
L 555.35859 190.353919
L 558.059932 190.704933
L 560.761274 191.055948
L 563.462616 191.406962
L 566.163957 191.757976
L 568.865299 192.108991
L 571.566641 192.460005
L 574.267982 192.811019
L 576.969324 193.162033
L 579.670666 193.513048
L 582.372007 193.864062
L 585.073349 194.215076
L 587.774691 194.56609
L 590.476032 194.917105
L 593.177374 195.268119
L 595.878716 195.619133
L 598.580058 195.970148
L 601.281399 196.321162
L 603.982741 196.672176
L 606.684083 197.02319
L 609.385424 197.374205
L 612.086766 197.725219
L 614.788108 198.076233
L 617.489449 198.427247
L 620.190791 198.778262
L 622.892133 199.129276
L 625.593475 199.48029
L 628.294816 199.831305
L 630.996158 200.182317
L 633.6975 200.532719
L 636.398841 200.788653
L 639.100183 196.006477
L 641.801525 153.527142
L 644.502866 104.548042
L 647.204208 93.105948
L 649.90555 127.579096
L 652.606891 188.942295
L 655.308233 203.191449
L 658.009575 203.692308
L 660.710917 204.043476
L 663.412258 204.39449
L 666.1136 204.745504
L 668.814942 205.096519
L 671.516283 205.447533
L 674.217625 205.798547
L 676.918967 206.149561
L 679.620308 206.500576
L 682.32165 206.85159
L 685.022992 207.202604
L 687.724334 207.553619
L 690.425675 207.904633
L 693.127017 208.255647
L 695.828359 208.606661
" clip-path="url(#p3e61b8b599)" style="fill: none; stroke: #191970; stroke-opacity: 0.95; stroke-width: 2; stroke-linecap: square"/>
   </g>
   <g id="line2d_88">
    <path d="M 428.395531 174.178544
L 431.096872 174.527104
L 433.798214 174.875664
L 436.499556 175.224224
L 439.200898 175.572784
L 441.902239 175.921344
L 444.603581 176.269904
L 447.304923 176.618464
L 450.006264 176.967024
L 452.707606 177.315584
L 455.408948 177.664144
L 458.110289 178.012704
L 460.811631 178.361264
L 463.512973 178.709824
L 466.214314 179.058384
L 468.915656 179.406944
L 471.616998 179.755504
L 474.31834 180.104064
L 477.019681 180.452625
L 479.721023 180.801185
L 482.422365 181.149745
L 485.123706 181.498305
L 487.825048 181.846865
L 490.52639 182.195425
L 493.227731 182.543985
L 495.929073 182.892545
L 498.630415 183.241105
L 501.331757 183.589665
L 504.033098 183.938225
L 506.73444 184.286785
L 509.435782 184.635345
L 512.137123 184.983905
L 514.838465 185.332465
L 517.539807 185.681025
L 520.241148 186.029585
L 522.94249 186.378145
L 525.643832 186.726705
L 528.345173 187.075265
L 531.046515 187.423825
L 533.747857 187.772385
L 536.449199 188.120945
L 539.15054 188.469505
L 541.851882 188.818065
L 544.553224 189.166625
L 547.254565 189.515185
L 549.955907 189.863745
L 552.657249 190.212305
L 555.35859 190.560865
L 558.059932 190.909426
L 560.761274 191.257986
L 563.462616 191.606546
L 566.163957 191.955106
L 568.865299 192.303666
L 571.566641 192.652226
L 574.267982 193.000786
L 576.969324 193.349346
L 579.670666 193.697906
L 582.372007 194.046466
L 585.073349 194.395026
L 587.774691 194.743586
L 590.476032 195.092146
L 593.177374 195.440706
L 595.878716 195.789266
L 598.580058 196.137826
L 601.281399 196.486386
L 603.982741 196.834946
L 606.684083 197.183506
L 609.385424 197.532066
L 612.086766 197.880626
L 614.788108 198.229186
L 617.489449 198.577746
L 620.190791 198.926306
L 622.892133 199.274866
L 625.593475 199.623426
L 628.294816 199.971986
L 630.996158 200.320545
L 633.6975 200.668602
L 636.398841 200.932697
L 639.100183 196.405881
L 641.801525 153.969532
L 644.502866 104.318828
L 647.204208 92.795696
L 649.90555 127.933056
L 652.606891 189.707285
L 655.308233 203.326982
L 658.009575 203.806027
L 660.710917 204.154707
L 663.412258 204.503267
L 666.1136 204.851827
L 668.814942 205.200387
L 671.516283 205.548947
L 674.217625 205.897507
L 676.918967 206.246067
L 679.620308 206.594627
L 682.32165 206.943187
L 685.022992 207.291747
L 687.724334 207.640307
L 690.425675 207.988867
L 693.127017 208.337427
L 695.828359 208.685987
" clip-path="url(#p3e61b8b599)" style="fill: none; stroke-dasharray: 7.4,3.2; stroke-dashoffset: 0; stroke: #000000; stroke-opacity: 0.95; stroke-width: 2"/>
   </g>
   <g id="patch_10">
    <path d="M 415.023889 242.728
L 415.023889 25.44
" style="fill: none; stroke: #000000; stroke-width: 0.8; stroke-linejoin: miter; stroke-linecap: square"/>
   </g>
   <g id="patch_11">
    <path d="M 709.2 242.728
L 709.2 25.44
" style="fill: none; stroke: #000000; stroke-width: 0.8; stroke-linejoin: miter; stroke-linecap: square"/>
   </g>
   <g id="patch_12">
    <path d="M 415.023889 242.728
L 709.2 242.728
" style="fill: none; stroke: #000000; stroke-width: 0.8; stroke-linejoin: miter; stroke-linecap: square"/>
   </g>
   <g id="patch_13">
    <path d="M 415.023889 25.44
L 709.2 25.44
" style="fill: none; stroke: #000000; stroke-width: 0.8; stroke-linejoin: miter; stroke-linecap: square"/>
   </g>
   <g id="legend_2">
    <g id="patch_14">
     <path d="M 422.023889 77.474375
L 564.564514 77.474375
Q 566.564514 77.474375 566.564514 75.474375
L 566.564514 32.44
Q 566.564514 30.44 564.564514 30.44
L 422.023889 30.44
Q 420.023889 30.44 420.023889 32.44
L 420.023889 75.474375
Q 420.023889 77.474375 422.023889 77.474375
z
" style="fill: #ffffff; opacity: 0.8; stroke: #cccccc; stroke-linejoin: miter"/>
    </g>
    <g id="line2d_89">
     <path d="M 424.023889 38.538438
L 434.023889 38.538438
L 444.023889 38.538438
" style="fill: none; stroke: #191970; stroke-opacity: 0.95; stroke-width: 2; stroke-linecap: square"/>
    </g>
    <g id="text_18">
     <!-- Best Fit with Nuisance -->
     <g transform="translate(452.023889 42.038438) scale(0.1 -0.1)">
      <defs>
       <path id="DejaVuSans-77" d="M 269 3500
L 844 3500
L 1563 769
L 2278 3500
L 2956 3500
L 3675 769
L 4391 3500
L 4966 3500
L 4050 0
L 3372 0
L 2619 2869
L 1863 0
L 1184 0
L 269 3500
z
" transform="scale(0.015625)"/>
       <path id="DejaVuSans-68" d="M 3513 2113
L 3513 0
L 2938 0
L 2938 2094
Q 2938 2591 2744 2837
Q 2550 3084 2163 3084
Q 1697 3084 1428 2787
Q 1159 2491 1159 1978
L 1159 0
L 581 0
L 581 4863
L 1159 4863
L 1159 2956
Q 1366 3272 1645 3428
Q 1925 3584 2291 3584
Q 2894 3584 3203 3211
Q 3513 2838 3513 2113
z
" transform="scale(0.015625)"/>
       <path id="DejaVuSans-4e" d="M 628 4666
L 1478 4666
L 3547 763
L 3547 4666
L 4159 4666
L 4159 0
L 3309 0
L 1241 3903
L 1241 0
L 628 0
L 628 4666
z
" transform="scale(0.015625)"/>
      </defs>
      <use xlink:href="#DejaVuSans-42"/>
      <use xlink:href="#DejaVuSans-65" x="68.603516"/>
      <use xlink:href="#DejaVuSans-73" x="130.126953"/>
      <use xlink:href="#DejaVuSans-74" x="182.226562"/>
      <use xlink:href="#DejaVuSans-20" x="221.435547"/>
      <use xlink:href="#DejaVuSans-46" x="253.222656"/>
      <use xlink:href="#DejaVuSans-69" x="303.492188"/>
      <use xlink:href="#DejaVuSans-74" x="331.275391"/>
      <use xlink:href="#DejaVuSans-20" x="370.484375"/>
      <use xlink:href="#DejaVuSans-77" x="402.271484"/>
      <use xlink:href="#DejaVuSans-69" x="484.058594"/>
      <use xlink:href="#DejaVuSans-74" x="511.841797"/>
      <use xlink:href="#DejaVuSans-68" x="551.050781"/>
      <use xlink:href="#DejaVuSans-20" x="614.429688"/>
      <use xlink:href="#DejaVuSans-4e" x="646.216797"/>
      <use xlink:href="#DejaVuSans-75" x="721.021484"/>
      <use xlink:href="#DejaVuSans-69" x="784.400391"/>
      <use xlink:href="#DejaVuSans-73" x="812.183594"/>
      <use xlink:href="#DejaVuSans-61" x="864.283203"/>
      <use xlink:href="#DejaVuSans-6e" x="925.5625"/>
      <use xlink:href="#DejaVuSans-63" x="988.941406"/>
      <use xlink:href="#DejaVuSans-65" x="1043.921875"/>
     </g>
    </g>
    <g id="patch_15">
     <path d="M 424.023889 56.716563
L 444.023889 56.716563
L 444.023889 49.716563
L 424.023889 49.716563
z
" style="fill: #6495ed; fill-opacity: 0.6"/>
    </g>
    <g id="text_19">
     <!-- 1$\,\sigma_{tot}$ -->
     <g transform="translate(452.023889 56.716563) scale(0.1 -0.1)">
      <defs>
       <path id="DejaVuSans-Oblique-6f" d="M 1625 -91
Q 1009 -91 651 289
Q 294 669 294 1325
Q 294 1706 417 2101
Q 541 2497 738 2766
Q 1047 3184 1428 3384
Q 1809 3584 2291 3584
Q 2888 3584 3255 3212
Q 3622 2841 3622 2241
Q 3622 1825 3500 1412
Q 3378 1000 3181 728
Q 2875 309 2494 109
Q 2113 -91 1625 -91
z
M 891 1344
Q 891 869 1089 633
Q 1288 397 1691 397
Q 2269 397 2648 901
Q 3028 1406 3028 2181
Q 3028 2634 2825 2865
Q 2622 3097 2228 3097
Q 1903 3097 1650 2945
Q 1397 2794 1197 2484
Q 1050 2253 970 1956
Q 891 1659 891 1344
z
" transform="scale(0.015625)"/>
      </defs>
      <use xlink:href="#DejaVuSans-31" transform="translate(0 0.09375)"/>
      <use xlink:href="#DejaVuSans-Oblique-3c3" transform="translate(79.858723 0.09375)"/>
      <use xlink:href="#DejaVuSans-Oblique-74" transform="translate(143.237629 -16.3125) scale(0.7)"/>
      <use xlink:href="#DejaVuSans-Oblique-6f" transform="translate(170.683918 -16.3125) scale(0.7)"/>
      <use xlink:href="#DejaVuSans-Oblique-74" transform="translate(213.511067 -16.3125) scale(0.7)"/>
     </g>
    </g>
    <g id="line2d_90">
     <path d="M 424.023889 67.894688
L 434.023889 67.894688
L 444.023889 67.894688
" style="fill: none; stroke-dasharray: 7.4,3.2; stroke-dashoffset: 0; stroke: #000000; stroke-opacity: 0.95; stroke-width: 2"/>
    </g>
    <g id="text_20">
     <!-- Input -->
     <g transform="translate(452.023889 71.394688) scale(0.1 -0.1)">
      <use xlink:href="#DejaVuSans-49"/>
      <use xlink:href="#DejaVuSans-6e" x="29.492188"/>
      <use xlink:href="#DejaVuSans-70" x="92.871094"/>
      <use xlink:href="#DejaVuSans-75" x="156.347656"/>
      <use xlink:href="#DejaVuSans-74" x="219.726562"/>
     </g>
    </g>
   </g>
  </g>
 </g>
 <defs>
  <clipPath id="p7a204739b1">
   <rect x="60.423889" y="25.44" width="294.176111" height="217.288"/>
  </clipPath>
  <clipPath id="p3e61b8b599">
   <rect x="415.023889" y="25.44" width="294.176111" height="217.288"/>
  </clipPath>
 </defs>
</svg>
