<?xml version="1.0" encoding="utf-8" standalone="no"?>
<!DOCTYPE svg PUBLIC "-//W3C//DTD SVG 1.1//EN"
  "http://www.w3.org/Graphics/SVG/1.1/DTD/svg11.dtd">
<svg xmlns:xlink="http://www.w3.org/1999/xlink" width="720pt" height="288pt" viewBox="0 0 720 288" xmlns="http://www.w3.org/2000/svg" version="1.1">
 <metadata>
  <rdf:RDF xmlns:dc="http://purl.org/dc/elements/1.1/" xmlns:cc="http://creativecommons.org/ns#" xmlns:rdf="http://www.w3.org/1999/02/22-rdf-syntax-ns#">
   <cc:Work>
    <dc:type rdf:resource="http://purl.org/dc/dcmitype/StillImage"/>
    <dc:date>2023-05-04T13:03:26.808422</dc:date>
    <dc:format>image/svg+xml</dc:format>
    <dc:creator>
     <cc:Agent>
      <dc:title>Matplotlib v3.7.1, https://matplotlib.org/</dc:title>
     </cc:Agent>
    </dc:creator>
   </cc:Work>
  </rdf:RDF>
 </metadata>
 <defs>
  <style type="text/css">*{stroke-linejoin: round; stroke-linecap: butt}</style>
 </defs>
 <g id="figure_1">
  <g id="patch_1">
   <path d="M 0 288 
L 720 288 
L 720 0 
L 0 0 
z
" style="fill: #ffffff"/>
  </g>
  <g id="axes_1">
   <g id="patch_2">
    <path d="M 60.232639 242.728 
L 354.6 242.728 
L 354.6 25.44 
L 60.232639 25.44 
z
" style="fill: #ffffff"/>
   </g>
   <g id="PolyCollection_1">
    <path d="M 73.612974 112.855752 
L 73.612974 141.388975 
L 76.316072 141.743365 
L 79.01917 142.098535 
L 81.722268 142.454484 
L 84.425366 142.811211 
L 87.128463 143.168714 
L 89.831561 143.526992 
L 92.534659 143.886045 
L 95.237757 144.245872 
L 97.940855 144.606472 
L 100.643953 144.967846 
L 103.347051 145.329994 
L 106.050149 145.692915 
L 108.753247 146.05661 
L 111.456344 146.421079 
L 114.159442 146.786324 
L 116.86254 147.152346 
L 119.565638 147.519145 
L 122.268736 147.886724 
L 124.971834 148.255085 
L 127.674932 148.624229 
L 130.37803 148.994159 
L 133.081128 149.364877 
L 135.784225 149.736387 
L 138.487323 150.108692 
L 141.190421 150.481796 
L 143.893519 150.855702 
L 146.596617 151.230414 
L 149.299715 151.605938 
L 152.002813 151.982279 
L 154.705911 152.359442 
L 157.409009 152.737433 
L 160.112107 153.116258 
L 162.815204 153.495924 
L 165.518302 153.876438 
L 168.2214 154.257807 
L 170.924498 154.640041 
L 173.627596 155.023148 
L 176.330694 155.407137 
L 179.033792 155.792018 
L 181.73689 156.177802 
L 184.439988 156.5645 
L 187.143085 156.952123 
L 189.846183 157.340684 
L 192.549281 157.730196 
L 195.252379 158.120674 
L 197.955477 158.512132 
L 200.658575 158.904585 
L 203.361673 159.298052 
L 206.064771 159.692548 
L 208.767869 160.088092 
L 211.470967 160.484704 
L 214.174064 160.882404 
L 216.877162 161.281214 
L 219.58026 161.681156 
L 222.283358 162.082253 
L 224.986456 162.48453 
L 227.689554 162.888006 
L 230.392652 163.292699 
L 233.09575 163.698604 
L 235.798848 164.105666 
L 238.501945 164.513695 
L 241.205043 164.922152 
L 243.908141 165.329613 
L 246.611239 165.732451 
L 249.314337 166.1217 
L 252.017435 166.475998 
L 254.720533 166.747176 
L 257.423631 166.837255 
L 260.126729 166.59335 
L 262.829827 166.008942 
L 265.532924 166.187237 
L 268.236022 169.156177 
L 270.93912 174.790735 
L 273.642218 180.16518 
L 276.345316 176.684263 
L 279.048414 156.3821 
L 281.751512 126.936329 
L 284.45461 100.071818 
L 287.157708 81.897355 
L 289.860805 73.141024 
L 292.563903 69.997913 
L 295.267001 70.712845 
L 297.970099 78.677842 
L 300.673197 102.167012 
L 303.376295 144.974369 
L 306.079393 197.805639 
L 308.782491 204.817924 
L 311.485589 184.927027 
L 314.188686 176.028806 
L 316.891784 176.435038 
L 319.594882 177.517394 
L 322.29798 178.0962 
L 325.001078 178.585461 
L 327.704176 179.069019 
L 330.407274 179.55547 
L 333.110372 180.04541 
L 335.81347 180.538914 
L 338.516568 181.036036 
L 341.219665 181.536822 
L 341.219665 172.256049 
L 341.219665 172.256049 
L 338.516568 171.716449 
L 335.81347 171.173864 
L 333.110372 170.628342 
L 330.407274 170.079935 
L 327.704176 169.528713 
L 325.001078 168.975022 
L 322.29798 168.422968 
L 319.594882 167.904676 
L 316.891784 167.465332 
L 314.188686 164.579122 
L 311.485589 149.955182 
L 308.782491 125.523964 
L 306.079393 100.295363 
L 303.376295 80.149598 
L 300.673197 66.045391 
L 297.970099 55.328399 
L 295.267001 46.845018 
L 292.563903 44.540011 
L 289.860805 49.421371 
L 287.157708 59.166958 
L 284.45461 69.986238 
L 281.751512 81.507673 
L 279.048414 94.840567 
L 276.345316 109.742781 
L 273.642218 124.925119 
L 270.93912 138.541656 
L 268.236022 148.792145 
L 265.532924 154.478546 
L 262.829827 155.845634 
L 260.126729 155.378429 
L 257.423631 154.641443 
L 254.720533 153.939247 
L 252.017435 153.285155 
L 249.314337 152.65881 
L 246.611239 152.045508 
L 243.908141 151.437615 
L 241.205043 150.83162 
L 238.501945 150.226019 
L 235.798848 149.620201 
L 233.09575 149.013939 
L 230.392652 148.407159 
L 227.689554 147.799853 
L 224.986456 147.192034 
L 222.283358 146.583726 
L 219.58026 145.974954 
L 216.877162 145.365745 
L 214.174064 144.756122 
L 211.470967 144.146111 
L 208.767869 143.535735 
L 206.064771 142.925016 
L 203.361673 142.313975 
L 200.658575 141.702632 
L 197.955477 141.091007 
L 195.252379 140.479118 
L 192.549281 139.866983 
L 189.846183 139.254618 
L 187.143085 138.642039 
L 184.439988 138.029262 
L 181.73689 137.416301 
L 179.033792 136.803171 
L 176.330694 136.189883 
L 173.627596 135.576452 
L 170.924498 134.962889 
L 168.2214 134.349205 
L 165.518302 133.735413 
L 162.815204 133.121521 
L 160.112107 132.507541 
L 157.409009 131.893482 
L 154.705911 131.279354 
L 152.002813 130.665164 
L 149.299715 130.050922 
L 146.596617 129.436635 
L 143.893519 128.822312 
L 141.190421 128.207959 
L 138.487323 127.593583 
L 135.784225 126.979192 
L 133.081128 126.364792 
L 130.37803 125.750389 
L 127.674932 125.135988 
L 124.971834 124.521596 
L 122.268736 123.907218 
L 119.565638 123.292859 
L 116.86254 122.678524 
L 114.159442 122.064218 
L 111.456344 121.449945 
L 108.753247 120.83571 
L 106.050149 120.221517 
L 103.347051 119.607369 
L 100.643953 118.993271 
L 97.940855 118.379226 
L 95.237757 117.765238 
L 92.534659 117.15131 
L 89.831561 116.537446 
L 87.128463 115.923647 
L 84.425366 115.309919 
L 81.722268 114.696262 
L 79.01917 114.08268 
L 76.316072 113.469176 
L 73.612974 112.855752 
z
" clip-path="url(#p5c13009025)" style="fill: #db7093; fill-opacity: 0.5"/>
   </g>
   <g id="matplotlib.axis_1">
    <g id="xtick_1">
     <g id="line2d_1">
      <defs>
       <path id="m0fd253f9a1" d="M 0 0 
L 0 3.5 
" style="stroke: #000000; stroke-width: 0.8"/>
      </defs>
      <g>
       <use xlink:href="#m0fd253f9a1" x="72.261425" y="242.728" style="stroke: #000000; stroke-width: 0.8"/>
      </g>
     </g>
     <g id="text_1">
      <!-- $\mathdefault{10^{-1}}$ -->
      <g transform="translate(60.511425 257.326437) scale(0.1 -0.1)">
       <defs>
        <path id="DejaVuSans-31" d="M 794 531 
L 1825 531 
L 1825 4091 
L 703 3866 
L 703 4441 
L 1819 4666 
L 2450 4666 
L 2450 531 
L 3481 531 
L 3481 0 
L 794 0 
L 794 531 
z
" transform="scale(0.015625)"/>
        <path id="DejaVuSans-30" d="M 2034 4250 
Q 1547 4250 1301 3770 
Q 1056 3291 1056 2328 
Q 1056 1369 1301 889 
Q 1547 409 2034 409 
Q 2525 409 2770 889 
Q 3016 1369 3016 2328 
Q 3016 3291 2770 3770 
Q 2525 4250 2034 4250 
z
M 2034 4750 
Q 2819 4750 3233 4129 
Q 3647 3509 3647 2328 
Q 3647 1150 3233 529 
Q 2819 -91 2034 -91 
Q 1250 -91 836 529 
Q 422 1150 422 2328 
Q 422 3509 836 4129 
Q 1250 4750 2034 4750 
z
" transform="scale(0.015625)"/>
        <path id="DejaVuSans-2212" d="M 678 2272 
L 4684 2272 
L 4684 1741 
L 678 1741 
L 678 2272 
z
" transform="scale(0.015625)"/>
       </defs>
       <use xlink:href="#DejaVuSans-31" transform="translate(0 0.684375)"/>
       <use xlink:href="#DejaVuSans-30" transform="translate(63.623047 0.684375)"/>
       <use xlink:href="#DejaVuSans-2212" transform="translate(128.203125 38.965625) scale(0.7)"/>
       <use xlink:href="#DejaVuSans-31" transform="translate(186.855469 38.965625) scale(0.7)"/>
      </g>
     </g>
    </g>
    <g id="xtick_2">
     <g id="line2d_2">
      <g>
       <use xlink:href="#m0fd253f9a1" x="240.987809" y="242.728" style="stroke: #000000; stroke-width: 0.8"/>
      </g>
     </g>
     <g id="text_2">
      <!-- $\mathdefault{10^{0}}$ -->
      <g transform="translate(232.187809 257.326437) scale(0.1 -0.1)">
       <use xlink:href="#DejaVuSans-31" transform="translate(0 0.765625)"/>
       <use xlink:href="#DejaVuSans-30" transform="translate(63.623047 0.765625)"/>
       <use xlink:href="#DejaVuSans-30" transform="translate(128.203125 39.046875) scale(0.7)"/>
      </g>
     </g>
    </g>
    <g id="xtick_3">
     <g id="line2d_3">
      <defs>
       <path id="m941584194e" d="M 0 0 
L 0 2 
" style="stroke: #000000; stroke-width: 0.6"/>
      </defs>
      <g>
       <use xlink:href="#m941584194e" x="64.540929" y="242.728" style="stroke: #000000; stroke-width: 0.6"/>
      </g>
     </g>
    </g>
    <g id="xtick_4">
     <g id="line2d_4">
      <g>
       <use xlink:href="#m941584194e" x="123.053128" y="242.728" style="stroke: #000000; stroke-width: 0.6"/>
      </g>
     </g>
    </g>
    <g id="xtick_5">
     <g id="line2d_5">
      <g>
       <use xlink:href="#m941584194e" x="152.764369" y="242.728" style="stroke: #000000; stroke-width: 0.6"/>
      </g>
     </g>
    </g>
    <g id="xtick_6">
     <g id="line2d_6">
      <g>
       <use xlink:href="#m941584194e" x="173.84483" y="242.728" style="stroke: #000000; stroke-width: 0.6"/>
      </g>
     </g>
    </g>
    <g id="xtick_7">
     <g id="line2d_7">
      <g>
       <use xlink:href="#m941584194e" x="190.196106" y="242.728" style="stroke: #000000; stroke-width: 0.6"/>
      </g>
     </g>
    </g>
    <g id="xtick_8">
     <g id="line2d_8">
      <g>
       <use xlink:href="#m941584194e" x="203.556072" y="242.728" style="stroke: #000000; stroke-width: 0.6"/>
      </g>
     </g>
    </g>
    <g id="xtick_9">
     <g id="line2d_9">
      <g>
       <use xlink:href="#m941584194e" x="214.851761" y="242.728" style="stroke: #000000; stroke-width: 0.6"/>
      </g>
     </g>
    </g>
    <g id="xtick_10">
     <g id="line2d_10">
      <g>
       <use xlink:href="#m941584194e" x="224.636533" y="242.728" style="stroke: #000000; stroke-width: 0.6"/>
      </g>
     </g>
    </g>
    <g id="xtick_11">
     <g id="line2d_11">
      <g>
       <use xlink:href="#m941584194e" x="233.267313" y="242.728" style="stroke: #000000; stroke-width: 0.6"/>
      </g>
     </g>
    </g>
    <g id="xtick_12">
     <g id="line2d_12">
      <g>
       <use xlink:href="#m941584194e" x="291.779512" y="242.728" style="stroke: #000000; stroke-width: 0.6"/>
      </g>
     </g>
    </g>
    <g id="xtick_13">
     <g id="line2d_13">
      <g>
       <use xlink:href="#m941584194e" x="321.490753" y="242.728" style="stroke: #000000; stroke-width: 0.6"/>
      </g>
     </g>
    </g>
    <g id="xtick_14">
     <g id="line2d_14">
      <g>
       <use xlink:href="#m941584194e" x="342.571214" y="242.728" style="stroke: #000000; stroke-width: 0.6"/>
      </g>
     </g>
    </g>
   </g>
   <g id="matplotlib.axis_2">
    <g id="ytick_1">
     <g id="line2d_15">
      <defs>
       <path id="m8bfb13cbd4" d="M 0 0 
L -3.5 0 
" style="stroke: #000000; stroke-width: 0.8"/>
      </defs>
      <g>
       <use xlink:href="#m8bfb13cbd4" x="60.232639" y="157.641" style="stroke: #000000; stroke-width: 0.8"/>
      </g>
     </g>
     <g id="text_3">
      <!-- $\mathdefault{10^{-12}}$ -->
      <g transform="translate(25.332639 161.440218) scale(0.1 -0.1)">
       <defs>
        <path id="DejaVuSans-32" d="M 1228 531 
L 3431 531 
L 3431 0 
L 469 0 
L 469 531 
Q 828 903 1448 1529 
Q 2069 2156 2228 2338 
Q 2531 2678 2651 2914 
Q 2772 3150 2772 3378 
Q 2772 3750 2511 3984 
Q 2250 4219 1831 4219 
Q 1534 4219 1204 4116 
Q 875 4013 500 3803 
L 500 4441 
Q 881 4594 1212 4672 
Q 1544 4750 1819 4750 
Q 2544 4750 2975 4387 
Q 3406 4025 3406 3419 
Q 3406 3131 3298 2873 
Q 3191 2616 2906 2266 
Q 2828 2175 2409 1742 
Q 1991 1309 1228 531 
z
" transform="scale(0.015625)"/>
       </defs>
       <use xlink:href="#DejaVuSans-31" transform="translate(0 0.765625)"/>
       <use xlink:href="#DejaVuSans-30" transform="translate(63.623047 0.765625)"/>
       <use xlink:href="#DejaVuSans-2212" transform="translate(128.203125 39.046875) scale(0.7)"/>
       <use xlink:href="#DejaVuSans-31" transform="translate(186.855469 39.046875) scale(0.7)"/>
       <use xlink:href="#DejaVuSans-32" transform="translate(231.391602 39.046875) scale(0.7)"/>
      </g>
     </g>
    </g>
    <g id="ytick_2">
     <g id="line2d_16">
      <g>
       <use xlink:href="#m8bfb13cbd4" x="60.232639" y="50.097927" style="stroke: #000000; stroke-width: 0.8"/>
      </g>
     </g>
     <g id="text_4">
      <!-- $\mathdefault{10^{-11}}$ -->
      <g transform="translate(25.332639 53.897146) scale(0.1 -0.1)">
       <use xlink:href="#DejaVuSans-31" transform="translate(0 0.684375)"/>
       <use xlink:href="#DejaVuSans-30" transform="translate(63.623047 0.684375)"/>
       <use xlink:href="#DejaVuSans-2212" transform="translate(128.203125 38.965625) scale(0.7)"/>
       <use xlink:href="#DejaVuSans-31" transform="translate(186.855469 38.965625) scale(0.7)"/>
       <use xlink:href="#DejaVuSans-31" transform="translate(231.391602 38.965625) scale(0.7)"/>
      </g>
     </g>
    </g>
    <g id="ytick_3">
     <g id="line2d_17">
      <defs>
       <path id="m88b3ba1a87" d="M 0 0 
L -2 0 
" style="stroke: #000000; stroke-width: 0.6"/>
      </defs>
      <g>
       <use xlink:href="#m88b3ba1a87" x="60.232639" y="232.810381" style="stroke: #000000; stroke-width: 0.6"/>
      </g>
     </g>
    </g>
    <g id="ytick_4">
     <g id="line2d_18">
      <g>
       <use xlink:href="#m88b3ba1a87" x="60.232639" y="213.872986" style="stroke: #000000; stroke-width: 0.6"/>
      </g>
     </g>
    </g>
    <g id="ytick_5">
     <g id="line2d_19">
      <g>
       <use xlink:href="#m88b3ba1a87" x="60.232639" y="200.436691" style="stroke: #000000; stroke-width: 0.6"/>
      </g>
     </g>
    </g>
    <g id="ytick_6">
     <g id="line2d_20">
      <g>
       <use xlink:href="#m88b3ba1a87" x="60.232639" y="190.01469" style="stroke: #000000; stroke-width: 0.6"/>
      </g>
     </g>
    </g>
    <g id="ytick_7">
     <g id="line2d_21">
      <g>
       <use xlink:href="#m88b3ba1a87" x="60.232639" y="181.499296" style="stroke: #000000; stroke-width: 0.6"/>
      </g>
     </g>
    </g>
    <g id="ytick_8">
     <g id="line2d_22">
      <g>
       <use xlink:href="#m88b3ba1a87" x="60.232639" y="174.299632" style="stroke: #000000; stroke-width: 0.6"/>
      </g>
     </g>
    </g>
    <g id="ytick_9">
     <g id="line2d_23">
      <g>
       <use xlink:href="#m88b3ba1a87" x="60.232639" y="168.063" style="stroke: #000000; stroke-width: 0.6"/>
      </g>
     </g>
    </g>
    <g id="ytick_10">
     <g id="line2d_24">
      <g>
       <use xlink:href="#m88b3ba1a87" x="60.232639" y="162.561901" style="stroke: #000000; stroke-width: 0.6"/>
      </g>
     </g>
    </g>
    <g id="ytick_11">
     <g id="line2d_25">
      <g>
       <use xlink:href="#m88b3ba1a87" x="60.232639" y="125.267309" style="stroke: #000000; stroke-width: 0.6"/>
      </g>
     </g>
    </g>
    <g id="ytick_12">
     <g id="line2d_26">
      <g>
       <use xlink:href="#m88b3ba1a87" x="60.232639" y="106.329914" style="stroke: #000000; stroke-width: 0.6"/>
      </g>
     </g>
    </g>
    <g id="ytick_13">
     <g id="line2d_27">
      <g>
       <use xlink:href="#m88b3ba1a87" x="60.232639" y="92.893618" style="stroke: #000000; stroke-width: 0.6"/>
      </g>
     </g>
    </g>
    <g id="ytick_14">
     <g id="line2d_28">
      <g>
       <use xlink:href="#m88b3ba1a87" x="60.232639" y="82.471618" style="stroke: #000000; stroke-width: 0.6"/>
      </g>
     </g>
    </g>
    <g id="ytick_15">
     <g id="line2d_29">
      <g>
       <use xlink:href="#m88b3ba1a87" x="60.232639" y="73.956223" style="stroke: #000000; stroke-width: 0.6"/>
      </g>
     </g>
    </g>
    <g id="ytick_16">
     <g id="line2d_30">
      <g>
       <use xlink:href="#m88b3ba1a87" x="60.232639" y="66.75656" style="stroke: #000000; stroke-width: 0.6"/>
      </g>
     </g>
    </g>
    <g id="ytick_17">
     <g id="line2d_31">
      <g>
       <use xlink:href="#m88b3ba1a87" x="60.232639" y="60.519927" style="stroke: #000000; stroke-width: 0.6"/>
      </g>
     </g>
    </g>
    <g id="ytick_18">
     <g id="line2d_32">
      <g>
       <use xlink:href="#m88b3ba1a87" x="60.232639" y="55.018828" style="stroke: #000000; stroke-width: 0.6"/>
      </g>
     </g>
    </g>
    <g id="text_5">
     <!-- e2 * dnde [TeV / (cm2 s)] -->
     <g transform="translate(19.252952 196.563688) rotate(-90) scale(0.1 -0.1)">
      <defs>
       <path id="DejaVuSans-65" d="M 3597 1894 
L 3597 1613 
L 953 1613 
Q 991 1019 1311 708 
Q 1631 397 2203 397 
Q 2534 397 2845 478 
Q 3156 559 3463 722 
L 3463 178 
Q 3153 47 2828 -22 
Q 2503 -91 2169 -91 
Q 1331 -91 842 396 
Q 353 884 353 1716 
Q 353 2575 817 3079 
Q 1281 3584 2069 3584 
Q 2775 3584 3186 3129 
Q 3597 2675 3597 1894 
z
M 3022 2063 
Q 3016 2534 2758 2815 
Q 2500 3097 2075 3097 
Q 1594 3097 1305 2825 
Q 1016 2553 972 2059 
L 3022 2063 
z
" transform="scale(0.015625)"/>
       <path id="DejaVuSans-20" transform="scale(0.015625)"/>
       <path id="DejaVuSans-2a" d="M 3009 3897 
L 1888 3291 
L 3009 2681 
L 2828 2375 
L 1778 3009 
L 1778 1831 
L 1422 1831 
L 1422 3009 
L 372 2375 
L 191 2681 
L 1313 3291 
L 191 3897 
L 372 4206 
L 1422 3572 
L 1422 4750 
L 1778 4750 
L 1778 3572 
L 2828 4206 
L 3009 3897 
z
" transform="scale(0.015625)"/>
       <path id="DejaVuSans-64" d="M 2906 2969 
L 2906 4863 
L 3481 4863 
L 3481 0 
L 2906 0 
L 2906 525 
Q 2725 213 2448 61 
Q 2172 -91 1784 -91 
Q 1150 -91 751 415 
Q 353 922 353 1747 
Q 353 2572 751 3078 
Q 1150 3584 1784 3584 
Q 2172 3584 2448 3432 
Q 2725 3281 2906 2969 
z
M 947 1747 
Q 947 1113 1208 752 
Q 1469 391 1925 391 
Q 2381 391 2643 752 
Q 2906 1113 2906 1747 
Q 2906 2381 2643 2742 
Q 2381 3103 1925 3103 
Q 1469 3103 1208 2742 
Q 947 2381 947 1747 
z
" transform="scale(0.015625)"/>
       <path id="DejaVuSans-6e" d="M 3513 2113 
L 3513 0 
L 2938 0 
L 2938 2094 
Q 2938 2591 2744 2837 
Q 2550 3084 2163 3084 
Q 1697 3084 1428 2787 
Q 1159 2491 1159 1978 
L 1159 0 
L 581 0 
L 581 3500 
L 1159 3500 
L 1159 2956 
Q 1366 3272 1645 3428 
Q 1925 3584 2291 3584 
Q 2894 3584 3203 3211 
Q 3513 2838 3513 2113 
z
" transform="scale(0.015625)"/>
       <path id="DejaVuSans-5b" d="M 550 4863 
L 1875 4863 
L 1875 4416 
L 1125 4416 
L 1125 -397 
L 1875 -397 
L 1875 -844 
L 550 -844 
L 550 4863 
z
" transform="scale(0.015625)"/>
       <path id="DejaVuSans-54" d="M -19 4666 
L 3928 4666 
L 3928 4134 
L 2272 4134 
L 2272 0 
L 1638 0 
L 1638 4134 
L -19 4134 
L -19 4666 
z
" transform="scale(0.015625)"/>
       <path id="DejaVuSans-56" d="M 1831 0 
L 50 4666 
L 709 4666 
L 2188 738 
L 3669 4666 
L 4325 4666 
L 2547 0 
L 1831 0 
z
" transform="scale(0.015625)"/>
       <path id="DejaVuSans-2f" d="M 1625 4666 
L 2156 4666 
L 531 -594 
L 0 -594 
L 1625 4666 
z
" transform="scale(0.015625)"/>
       <path id="DejaVuSans-28" d="M 1984 4856 
Q 1566 4138 1362 3434 
Q 1159 2731 1159 2009 
Q 1159 1288 1364 580 
Q 1569 -128 1984 -844 
L 1484 -844 
Q 1016 -109 783 600 
Q 550 1309 550 2009 
Q 550 2706 781 3412 
Q 1013 4119 1484 4856 
L 1984 4856 
z
" transform="scale(0.015625)"/>
       <path id="DejaVuSans-63" d="M 3122 3366 
L 3122 2828 
Q 2878 2963 2633 3030 
Q 2388 3097 2138 3097 
Q 1578 3097 1268 2742 
Q 959 2388 959 1747 
Q 959 1106 1268 751 
Q 1578 397 2138 397 
Q 2388 397 2633 464 
Q 2878 531 3122 666 
L 3122 134 
Q 2881 22 2623 -34 
Q 2366 -91 2075 -91 
Q 1284 -91 818 406 
Q 353 903 353 1747 
Q 353 2603 823 3093 
Q 1294 3584 2113 3584 
Q 2378 3584 2631 3529 
Q 2884 3475 3122 3366 
z
" transform="scale(0.015625)"/>
       <path id="DejaVuSans-6d" d="M 3328 2828 
Q 3544 3216 3844 3400 
Q 4144 3584 4550 3584 
Q 5097 3584 5394 3201 
Q 5691 2819 5691 2113 
L 5691 0 
L 5113 0 
L 5113 2094 
Q 5113 2597 4934 2840 
Q 4756 3084 4391 3084 
Q 3944 3084 3684 2787 
Q 3425 2491 3425 1978 
L 3425 0 
L 2847 0 
L 2847 2094 
Q 2847 2600 2669 2842 
Q 2491 3084 2119 3084 
Q 1678 3084 1418 2786 
Q 1159 2488 1159 1978 
L 1159 0 
L 581 0 
L 581 3500 
L 1159 3500 
L 1159 2956 
Q 1356 3278 1631 3431 
Q 1906 3584 2284 3584 
Q 2666 3584 2933 3390 
Q 3200 3197 3328 2828 
z
" transform="scale(0.015625)"/>
       <path id="DejaVuSans-73" d="M 2834 3397 
L 2834 2853 
Q 2591 2978 2328 3040 
Q 2066 3103 1784 3103 
Q 1356 3103 1142 2972 
Q 928 2841 928 2578 
Q 928 2378 1081 2264 
Q 1234 2150 1697 2047 
L 1894 2003 
Q 2506 1872 2764 1633 
Q 3022 1394 3022 966 
Q 3022 478 2636 193 
Q 2250 -91 1575 -91 
Q 1294 -91 989 -36 
Q 684 19 347 128 
L 347 722 
Q 666 556 975 473 
Q 1284 391 1588 391 
Q 1994 391 2212 530 
Q 2431 669 2431 922 
Q 2431 1156 2273 1281 
Q 2116 1406 1581 1522 
L 1381 1569 
Q 847 1681 609 1914 
Q 372 2147 372 2553 
Q 372 3047 722 3315 
Q 1072 3584 1716 3584 
Q 2034 3584 2315 3537 
Q 2597 3491 2834 3397 
z
" transform="scale(0.015625)"/>
       <path id="DejaVuSans-29" d="M 513 4856 
L 1013 4856 
Q 1481 4119 1714 3412 
Q 1947 2706 1947 2009 
Q 1947 1309 1714 600 
Q 1481 -109 1013 -844 
L 513 -844 
Q 928 -128 1133 580 
Q 1338 1288 1338 2009 
Q 1338 2731 1133 3434 
Q 928 4138 513 4856 
z
" transform="scale(0.015625)"/>
       <path id="DejaVuSans-5d" d="M 1947 4863 
L 1947 -844 
L 622 -844 
L 622 -397 
L 1369 -397 
L 1369 4416 
L 622 4416 
L 622 4863 
L 1947 4863 
z
" transform="scale(0.015625)"/>
      </defs>
      <use xlink:href="#DejaVuSans-65"/>
      <use xlink:href="#DejaVuSans-32" x="61.523438"/>
      <use xlink:href="#DejaVuSans-20" x="125.146484"/>
      <use xlink:href="#DejaVuSans-2a" x="156.933594"/>
      <use xlink:href="#DejaVuSans-20" x="206.933594"/>
      <use xlink:href="#DejaVuSans-64" x="238.720703"/>
      <use xlink:href="#DejaVuSans-6e" x="302.197266"/>
      <use xlink:href="#DejaVuSans-64" x="365.576172"/>
      <use xlink:href="#DejaVuSans-65" x="429.052734"/>
      <use xlink:href="#DejaVuSans-20" x="490.576172"/>
      <use xlink:href="#DejaVuSans-5b" x="522.363281"/>
      <use xlink:href="#DejaVuSans-54" x="561.376953"/>
      <use xlink:href="#DejaVuSans-65" x="605.460938"/>
      <use xlink:href="#DejaVuSans-56" x="666.984375"/>
      <use xlink:href="#DejaVuSans-20" x="735.392578"/>
      <use xlink:href="#DejaVuSans-2f" x="767.179688"/>
      <use xlink:href="#DejaVuSans-20" x="800.871094"/>
      <use xlink:href="#DejaVuSans-28" x="832.658203"/>
      <use xlink:href="#DejaVuSans-63" x="871.671875"/>
      <use xlink:href="#DejaVuSans-6d" x="926.652344"/>
      <use xlink:href="#DejaVuSans-32" x="1024.064453"/>
      <use xlink:href="#DejaVuSans-20" x="1087.6875"/>
      <use xlink:href="#DejaVuSans-73" x="1119.474609"/>
      <use xlink:href="#DejaVuSans-29" x="1171.574219"/>
      <use xlink:href="#DejaVuSans-5d" x="1210.587891"/>
     </g>
    </g>
   </g>
   <g id="line2d_33">
    <path d="M 73.612974 124.97649 
L 76.316072 125.498609 
L 79.01917 126.020728 
L 81.722268 126.542848 
L 84.425366 127.064967 
L 87.128463 127.587086 
L 89.831561 128.109205 
L 92.534659 128.631324 
L 95.237757 129.153444 
L 97.940855 129.675563 
L 100.643953 130.197682 
L 103.347051 130.719801 
L 106.050149 131.241921 
L 108.753247 131.76404 
L 111.456344 132.286159 
L 114.159442 132.808278 
L 116.86254 133.330397 
L 119.565638 133.852517 
L 122.268736 134.374636 
L 124.971834 134.896755 
L 127.674932 135.418874 
L 130.37803 135.940993 
L 133.081128 136.463113 
L 135.784225 136.985232 
L 138.487323 137.507351 
L 141.190421 138.02947 
L 143.893519 138.55159 
L 146.596617 139.073709 
L 149.299715 139.595828 
L 152.002813 140.117947 
L 154.705911 140.640066 
L 157.409009 141.162186 
L 160.112107 141.684305 
L 162.815204 142.206424 
L 165.518302 142.728543 
L 168.2214 143.250663 
L 170.924498 143.772782 
L 173.627596 144.294901 
L 176.330694 144.81702 
L 179.033792 145.339139 
L 181.73689 145.861259 
L 184.439988 146.383378 
L 187.143085 146.905497 
L 189.846183 147.427616 
L 192.549281 147.949735 
L 195.252379 148.471855 
L 197.955477 148.993974 
L 200.658575 149.516093 
L 203.361673 150.038212 
L 206.064771 150.560332 
L 208.767869 151.082451 
L 211.470967 151.60457 
L 214.174064 152.126689 
L 216.877162 152.648808 
L 219.58026 153.170928 
L 222.283358 153.693047 
L 224.986456 154.215165 
L 227.689554 154.737283 
L 230.392652 155.259398 
L 233.09575 155.781506 
L 235.798848 156.303594 
L 238.501945 156.82563 
L 241.205043 157.347518 
L 243.908141 157.869004 
L 246.611239 158.389396 
L 249.314337 158.906838 
L 252.017435 159.416435 
L 254.720533 159.905543 
L 257.423631 160.3424 
L 260.126729 160.650078 
L 262.829827 160.651384 
L 265.532924 159.966938 
L 268.236022 157.872976 
L 270.93912 153.234355 
L 273.642218 144.814209 
L 276.345316 132.125123 
L 279.048414 116.133242 
L 281.751512 98.903558 
L 284.45461 82.647308 
L 287.157708 69.162798 
L 289.860805 59.791332 
L 292.563903 55.555462 
L 295.267001 57.270593 
L 297.970099 65.55893 
L 300.673197 80.697883 
L 303.376295 102.116756 
L 306.079393 127.211039 
L 308.782491 150.044889 
L 311.485589 164.241571 
L 314.188686 169.953982 
L 316.891784 171.735188 
L 319.594882 172.464163 
L 322.29798 173.0096 
L 325.001078 173.533487 
L 327.704176 174.055694 
L 330.407274 174.577815 
L 333.110372 175.099935 
L 335.81347 175.622054 
L 338.516568 176.144173 
L 341.219665 176.666292 
" clip-path="url(#p5c13009025)" style="fill: none; stroke: #c71585; stroke-opacity: 0.95; stroke-width: 2; stroke-linecap: square"/>
   </g>
   <g id="line2d_34">
    <path d="M 73.612974 125.636513 
L 76.316072 126.153385 
L 79.01917 126.670256 
L 81.722268 127.187127 
L 84.425366 127.703999 
L 87.128463 128.22087 
L 89.831561 128.737742 
L 92.534659 129.254613 
L 95.237757 129.771484 
L 97.940855 130.288356 
L 100.643953 130.805227 
L 103.347051 131.322098 
L 106.050149 131.83897 
L 108.753247 132.355841 
L 111.456344 132.872712 
L 114.159442 133.389584 
L 116.86254 133.906455 
L 119.565638 134.423327 
L 122.268736 134.940198 
L 124.971834 135.457069 
L 127.674932 135.973941 
L 130.37803 136.490812 
L 133.081128 137.007683 
L 135.784225 137.524555 
L 138.487323 138.041426 
L 141.190421 138.558297 
L 143.893519 139.075169 
L 146.596617 139.59204 
L 149.299715 140.108912 
L 152.002813 140.625783 
L 154.705911 141.142654 
L 157.409009 141.659526 
L 160.112107 142.176397 
L 162.815204 142.693268 
L 165.518302 143.21014 
L 168.2214 143.727011 
L 170.924498 144.243882 
L 173.627596 144.760754 
L 176.330694 145.277625 
L 179.033792 145.794497 
L 181.73689 146.311368 
L 184.439988 146.828239 
L 187.143085 147.345111 
L 189.846183 147.861982 
L 192.549281 148.378853 
L 195.252379 148.895725 
L 197.955477 149.412596 
L 200.658575 149.929467 
L 203.361673 150.446339 
L 206.064771 150.96321 
L 208.767869 151.480082 
L 211.470967 151.996953 
L 214.174064 152.513824 
L 216.877162 153.030696 
L 219.58026 153.547567 
L 222.283358 154.064438 
L 224.986456 154.581309 
L 227.689554 155.098178 
L 230.392652 155.615046 
L 233.09575 156.131905 
L 235.798848 156.648745 
L 238.501945 157.165529 
L 241.205043 157.682161 
L 243.908141 158.198379 
L 246.611239 158.713471 
L 249.314337 159.225532 
L 252.017435 159.729548 
L 254.720533 160.212596 
L 257.423631 160.642271 
L 260.126729 160.940255 
L 262.829827 160.926541 
L 265.532924 160.216727 
L 268.236022 158.079967 
L 270.93912 153.375849 
L 273.642218 144.873061 
L 276.345316 132.104709 
L 279.048414 116.058137 
L 281.751512 98.803389 
L 284.45461 82.543112 
L 287.157708 69.064321 
L 289.860805 59.699797 
L 292.563903 55.466823 
L 295.267001 57.178076 
L 297.970099 65.455443 
L 300.673197 80.579886 
L 303.376295 101.992551 
L 306.079393 127.115365 
L 308.782491 150.038196 
L 311.485589 164.345761 
L 314.188686 170.120493 
L 316.891784 171.917913 
L 319.594882 172.645983 
L 322.29798 173.186764 
L 325.001078 173.705457 
L 327.704176 174.222419 
L 330.407274 174.739293 
L 333.110372 175.256164 
L 335.81347 175.773036 
L 338.516568 176.289907 
L 341.219665 176.806778 
" clip-path="url(#p5c13009025)" style="fill: none; stroke-dasharray: 7.4,3.2; stroke-dashoffset: 0; stroke: #000000; stroke-opacity: 0.95; stroke-width: 2"/>
   </g>
   <g id="patch_3">
    <path d="M 60.232639 242.728 
L 60.232639 25.44 
" style="fill: none; stroke: #000000; stroke-width: 0.8; stroke-linejoin: miter; stroke-linecap: square"/>
   </g>
   <g id="patch_4">
    <path d="M 354.6 242.728 
L 354.6 25.44 
" style="fill: none; stroke: #000000; stroke-width: 0.8; stroke-linejoin: miter; stroke-linecap: square"/>
   </g>
   <g id="patch_5">
    <path d="M 60.232639 242.728 
L 354.6 242.728 
" style="fill: none; stroke: #000000; stroke-width: 0.8; stroke-linejoin: miter; stroke-linecap: square"/>
   </g>
   <g id="patch_6">
    <path d="M 60.232639 25.44 
L 354.6 25.44 
" style="fill: none; stroke: #000000; stroke-width: 0.8; stroke-linejoin: miter; stroke-linecap: square"/>
   </g>
   <g id="text_6">
    <!-- bias=0.0; res_assumed = 0.1 -->
    <g transform="translate(119.031632 19.44) scale(0.12 -0.12)">
     <defs>
      <path id="DejaVuSans-62" d="M 3116 1747 
Q 3116 2381 2855 2742 
Q 2594 3103 2138 3103 
Q 1681 3103 1420 2742 
Q 1159 2381 1159 1747 
Q 1159 1113 1420 752 
Q 1681 391 2138 391 
Q 2594 391 2855 752 
Q 3116 1113 3116 1747 
z
M 1159 2969 
Q 1341 3281 1617 3432 
Q 1894 3584 2278 3584 
Q 2916 3584 3314 3078 
Q 3713 2572 3713 1747 
Q 3713 922 3314 415 
Q 2916 -91 2278 -91 
Q 1894 -91 1617 61 
Q 1341 213 1159 525 
L 1159 0 
L 581 0 
L 581 4863 
L 1159 4863 
L 1159 2969 
z
" transform="scale(0.015625)"/>
      <path id="DejaVuSans-69" d="M 603 3500 
L 1178 3500 
L 1178 0 
L 603 0 
L 603 3500 
z
M 603 4863 
L 1178 4863 
L 1178 4134 
L 603 4134 
L 603 4863 
z
" transform="scale(0.015625)"/>
      <path id="DejaVuSans-61" d="M 2194 1759 
Q 1497 1759 1228 1600 
Q 959 1441 959 1056 
Q 959 750 1161 570 
Q 1363 391 1709 391 
Q 2188 391 2477 730 
Q 2766 1069 2766 1631 
L 2766 1759 
L 2194 1759 
z
M 3341 1997 
L 3341 0 
L 2766 0 
L 2766 531 
Q 2569 213 2275 61 
Q 1981 -91 1556 -91 
Q 1019 -91 701 211 
Q 384 513 384 1019 
Q 384 1609 779 1909 
Q 1175 2209 1959 2209 
L 2766 2209 
L 2766 2266 
Q 2766 2663 2505 2880 
Q 2244 3097 1772 3097 
Q 1472 3097 1187 3025 
Q 903 2953 641 2809 
L 641 3341 
Q 956 3463 1253 3523 
Q 1550 3584 1831 3584 
Q 2591 3584 2966 3190 
Q 3341 2797 3341 1997 
z
" transform="scale(0.015625)"/>
      <path id="DejaVuSans-3d" d="M 678 2906 
L 4684 2906 
L 4684 2381 
L 678 2381 
L 678 2906 
z
M 678 1631 
L 4684 1631 
L 4684 1100 
L 678 1100 
L 678 1631 
z
" transform="scale(0.015625)"/>
      <path id="DejaVuSans-2e" d="M 684 794 
L 1344 794 
L 1344 0 
L 684 0 
L 684 794 
z
" transform="scale(0.015625)"/>
      <path id="DejaVuSans-3b" d="M 750 3309 
L 1409 3309 
L 1409 2516 
L 750 2516 
L 750 3309 
z
M 750 794 
L 1409 794 
L 1409 256 
L 897 -744 
L 494 -744 
L 750 256 
L 750 794 
z
" transform="scale(0.015625)"/>
      <path id="DejaVuSans-72" d="M 2631 2963 
Q 2534 3019 2420 3045 
Q 2306 3072 2169 3072 
Q 1681 3072 1420 2755 
Q 1159 2438 1159 1844 
L 1159 0 
L 581 0 
L 581 3500 
L 1159 3500 
L 1159 2956 
Q 1341 3275 1631 3429 
Q 1922 3584 2338 3584 
Q 2397 3584 2469 3576 
Q 2541 3569 2628 3553 
L 2631 2963 
z
" transform="scale(0.015625)"/>
      <path id="DejaVuSans-5f" d="M 3263 -1063 
L 3263 -1509 
L -63 -1509 
L -63 -1063 
L 3263 -1063 
z
" transform="scale(0.015625)"/>
      <path id="DejaVuSans-75" d="M 544 1381 
L 544 3500 
L 1119 3500 
L 1119 1403 
Q 1119 906 1312 657 
Q 1506 409 1894 409 
Q 2359 409 2629 706 
Q 2900 1003 2900 1516 
L 2900 3500 
L 3475 3500 
L 3475 0 
L 2900 0 
L 2900 538 
Q 2691 219 2414 64 
Q 2138 -91 1772 -91 
Q 1169 -91 856 284 
Q 544 659 544 1381 
z
M 1991 3584 
L 1991 3584 
z
" transform="scale(0.015625)"/>
     </defs>
     <use xlink:href="#DejaVuSans-62"/>
     <use xlink:href="#DejaVuSans-69" x="63.476562"/>
     <use xlink:href="#DejaVuSans-61" x="91.259766"/>
     <use xlink:href="#DejaVuSans-73" x="152.539062"/>
     <use xlink:href="#DejaVuSans-3d" x="204.638672"/>
     <use xlink:href="#DejaVuSans-30" x="288.427734"/>
     <use xlink:href="#DejaVuSans-2e" x="352.050781"/>
     <use xlink:href="#DejaVuSans-30" x="383.837891"/>
     <use xlink:href="#DejaVuSans-3b" x="447.460938"/>
     <use xlink:href="#DejaVuSans-20" x="481.152344"/>
     <use xlink:href="#DejaVuSans-72" x="512.939453"/>
     <use xlink:href="#DejaVuSans-65" x="551.802734"/>
     <use xlink:href="#DejaVuSans-73" x="613.326172"/>
     <use xlink:href="#DejaVuSans-5f" x="665.425781"/>
     <use xlink:href="#DejaVuSans-61" x="715.425781"/>
     <use xlink:href="#DejaVuSans-73" x="776.705078"/>
     <use xlink:href="#DejaVuSans-73" x="828.804688"/>
     <use xlink:href="#DejaVuSans-75" x="880.904297"/>
     <use xlink:href="#DejaVuSans-6d" x="944.283203"/>
     <use xlink:href="#DejaVuSans-65" x="1041.695312"/>
     <use xlink:href="#DejaVuSans-64" x="1103.21875"/>
     <use xlink:href="#DejaVuSans-20" x="1166.695312"/>
     <use xlink:href="#DejaVuSans-3d" x="1198.482422"/>
     <use xlink:href="#DejaVuSans-20" x="1282.271484"/>
     <use xlink:href="#DejaVuSans-30" x="1314.058594"/>
     <use xlink:href="#DejaVuSans-2e" x="1377.681641"/>
     <use xlink:href="#DejaVuSans-31" x="1409.46875"/>
    </g>
   </g>
   <g id="legend_1">
    <g id="patch_7">
     <path d="M 67.232639 77.474375 
L 136.279514 77.474375 
Q 138.279514 77.474375 138.279514 75.474375 
L 138.279514 32.44 
Q 138.279514 30.44 136.279514 30.44 
L 67.232639 30.44 
Q 65.232639 30.44 65.232639 32.44 
L 65.232639 75.474375 
Q 65.232639 77.474375 67.232639 77.474375 
z
" style="fill: #ffffff; opacity: 0.8; stroke: #cccccc; stroke-linejoin: miter"/>
    </g>
    <g id="line2d_35">
     <path d="M 69.232639 38.538438 
L 79.232639 38.538438 
L 89.232639 38.538438 
" style="fill: none; stroke: #c71585; stroke-opacity: 0.95; stroke-width: 2; stroke-linecap: square"/>
    </g>
    <g id="text_7">
     <!-- Best Fit -->
     <g transform="translate(97.232639 42.038438) scale(0.1 -0.1)">
      <defs>
       <path id="DejaVuSans-42" d="M 1259 2228 
L 1259 519 
L 2272 519 
Q 2781 519 3026 730 
Q 3272 941 3272 1375 
Q 3272 1813 3026 2020 
Q 2781 2228 2272 2228 
L 1259 2228 
z
M 1259 4147 
L 1259 2741 
L 2194 2741 
Q 2656 2741 2882 2914 
Q 3109 3088 3109 3444 
Q 3109 3797 2882 3972 
Q 2656 4147 2194 4147 
L 1259 4147 
z
M 628 4666 
L 2241 4666 
Q 2963 4666 3353 4366 
Q 3744 4066 3744 3513 
Q 3744 3084 3544 2831 
Q 3344 2578 2956 2516 
Q 3422 2416 3680 2098 
Q 3938 1781 3938 1306 
Q 3938 681 3513 340 
Q 3088 0 2303 0 
L 628 0 
L 628 4666 
z
" transform="scale(0.015625)"/>
       <path id="DejaVuSans-74" d="M 1172 4494 
L 1172 3500 
L 2356 3500 
L 2356 3053 
L 1172 3053 
L 1172 1153 
Q 1172 725 1289 603 
Q 1406 481 1766 481 
L 2356 481 
L 2356 0 
L 1766 0 
Q 1100 0 847 248 
Q 594 497 594 1153 
L 594 3053 
L 172 3053 
L 172 3500 
L 594 3500 
L 594 4494 
L 1172 4494 
z
" transform="scale(0.015625)"/>
       <path id="DejaVuSans-46" d="M 628 4666 
L 3309 4666 
L 3309 4134 
L 1259 4134 
L 1259 2759 
L 3109 2759 
L 3109 2228 
L 1259 2228 
L 1259 0 
L 628 0 
L 628 4666 
z
" transform="scale(0.015625)"/>
      </defs>
      <use xlink:href="#DejaVuSans-42"/>
      <use xlink:href="#DejaVuSans-65" x="68.603516"/>
      <use xlink:href="#DejaVuSans-73" x="130.126953"/>
      <use xlink:href="#DejaVuSans-74" x="182.226562"/>
      <use xlink:href="#DejaVuSans-20" x="221.435547"/>
      <use xlink:href="#DejaVuSans-46" x="253.222656"/>
      <use xlink:href="#DejaVuSans-69" x="303.492188"/>
      <use xlink:href="#DejaVuSans-74" x="331.275391"/>
     </g>
    </g>
    <g id="patch_8">
     <path d="M 69.232639 56.716563 
L 89.232639 56.716563 
L 89.232639 49.716563 
L 69.232639 49.716563 
z
" style="fill: #db7093; fill-opacity: 0.5"/>
    </g>
    <g id="text_8">
     <!-- 1$\,\sigma_{stat}$ -->
     <g transform="translate(97.232639 56.716563) scale(0.1 -0.1)">
      <defs>
       <path id="DejaVuSans-Oblique-3c3" d="M 2219 3044 
Q 1744 3044 1422 2700 
Q 1081 2341 969 1747 
Q 844 1119 1044 756 
Q 1241 397 1706 397 
Q 2166 397 2503 759 
Q 2844 1122 2966 1747 
Q 3075 2319 2881 2700 
Q 2700 3044 2219 3044 
z
M 2309 3503 
L 4219 3500 
L 4106 2925 
L 3463 2925 
Q 3706 2438 3575 1747 
Q 3406 888 2884 400 
Q 2359 -91 1609 -91 
Q 856 -91 525 400 
Q 194 888 363 1747 
Q 528 2609 1050 3097 
Q 1484 3503 2309 3503 
z
" transform="scale(0.015625)"/>
       <path id="DejaVuSans-Oblique-73" d="M 3200 3397 
L 3091 2853 
Q 2863 2978 2609 3040 
Q 2356 3103 2088 3103 
Q 1634 3103 1373 2948 
Q 1113 2794 1113 2528 
Q 1113 2219 1719 2053 
Q 1766 2041 1788 2034 
L 1972 1978 
Q 2547 1819 2739 1644 
Q 2931 1469 2931 1166 
Q 2931 609 2489 259 
Q 2047 -91 1331 -91 
Q 1053 -91 747 -37 
Q 441 16 72 128 
L 184 722 
Q 500 559 806 475 
Q 1113 391 1394 391 
Q 1816 391 2080 572 
Q 2344 753 2344 1031 
Q 2344 1331 1650 1516 
L 1591 1531 
L 1394 1581 
Q 956 1697 753 1886 
Q 550 2075 550 2369 
Q 550 2928 970 3256 
Q 1391 3584 2113 3584 
Q 2397 3584 2667 3537 
Q 2938 3491 3200 3397 
z
" transform="scale(0.015625)"/>
       <path id="DejaVuSans-Oblique-74" d="M 2706 3500 
L 2619 3053 
L 1472 3053 
L 1100 1153 
Q 1081 1047 1072 975 
Q 1063 903 1063 863 
Q 1063 663 1183 572 
Q 1303 481 1569 481 
L 2150 481 
L 2053 0 
L 1503 0 
Q 991 0 739 200 
Q 488 400 488 806 
Q 488 878 497 964 
Q 506 1050 525 1153 
L 897 3053 
L 409 3053 
L 500 3500 
L 978 3500 
L 1172 4494 
L 1747 4494 
L 1556 3500 
L 2706 3500 
z
" transform="scale(0.015625)"/>
       <path id="DejaVuSans-Oblique-61" d="M 3438 1997 
L 3047 0 
L 2472 0 
L 2578 531 
Q 2325 219 2001 64 
Q 1678 -91 1281 -91 
Q 834 -91 548 182 
Q 263 456 263 884 
Q 263 1497 752 1853 
Q 1241 2209 2100 2209 
L 2900 2209 
L 2931 2363 
Q 2938 2388 2941 2417 
Q 2944 2447 2944 2509 
Q 2944 2788 2717 2942 
Q 2491 3097 2081 3097 
Q 1800 3097 1504 3025 
Q 1209 2953 897 2809 
L 997 3341 
Q 1322 3463 1633 3523 
Q 1944 3584 2234 3584 
Q 2853 3584 3176 3315 
Q 3500 3047 3500 2534 
Q 3500 2431 3484 2292 
Q 3469 2153 3438 1997 
z
M 2816 1759 
L 2241 1759 
Q 1534 1759 1195 1570 
Q 856 1381 856 984 
Q 856 709 1029 553 
Q 1203 397 1509 397 
Q 1978 397 2328 733 
Q 2678 1069 2791 1631 
L 2816 1759 
z
" transform="scale(0.015625)"/>
      </defs>
      <use xlink:href="#DejaVuSans-31" transform="translate(0 0.09375)"/>
      <use xlink:href="#DejaVuSans-Oblique-3c3" transform="translate(79.858723 0.09375)"/>
      <use xlink:href="#DejaVuSans-Oblique-73" transform="translate(143.237629 -16.3125) scale(0.7)"/>
      <use xlink:href="#DejaVuSans-Oblique-74" transform="translate(179.707356 -16.3125) scale(0.7)"/>
      <use xlink:href="#DejaVuSans-Oblique-61" transform="translate(207.153645 -16.3125) scale(0.7)"/>
      <use xlink:href="#DejaVuSans-Oblique-74" transform="translate(250.049153 -16.3125) scale(0.7)"/>
     </g>
    </g>
    <g id="line2d_36">
     <path d="M 69.232639 67.894688 
L 79.232639 67.894688 
L 89.232639 67.894688 
" style="fill: none; stroke-dasharray: 7.4,3.2; stroke-dashoffset: 0; stroke: #000000; stroke-opacity: 0.95; stroke-width: 2"/>
    </g>
    <g id="text_9">
     <!-- Input -->
     <g transform="translate(97.232639 71.394688) scale(0.1 -0.1)">
      <defs>
       <path id="DejaVuSans-49" d="M 628 4666 
L 1259 4666 
L 1259 0 
L 628 0 
L 628 4666 
z
" transform="scale(0.015625)"/>
       <path id="DejaVuSans-70" d="M 1159 525 
L 1159 -1331 
L 581 -1331 
L 581 3500 
L 1159 3500 
L 1159 2969 
Q 1341 3281 1617 3432 
Q 1894 3584 2278 3584 
Q 2916 3584 3314 3078 
Q 3713 2572 3713 1747 
Q 3713 922 3314 415 
Q 2916 -91 2278 -91 
Q 1894 -91 1617 61 
Q 1341 213 1159 525 
z
M 3116 1747 
Q 3116 2381 2855 2742 
Q 2594 3103 2138 3103 
Q 1681 3103 1420 2742 
Q 1159 2381 1159 1747 
Q 1159 1113 1420 752 
Q 1681 391 2138 391 
Q 2594 391 2855 752 
Q 3116 1113 3116 1747 
z
" transform="scale(0.015625)"/>
      </defs>
      <use xlink:href="#DejaVuSans-49"/>
      <use xlink:href="#DejaVuSans-6e" x="29.492188"/>
      <use xlink:href="#DejaVuSans-70" x="92.871094"/>
      <use xlink:href="#DejaVuSans-75" x="156.347656"/>
      <use xlink:href="#DejaVuSans-74" x="219.726562"/>
     </g>
    </g>
   </g>
  </g>
  <g id="axes_2">
   <g id="patch_9">
    <path d="M 414.832639 242.728 
L 709.2 242.728 
L 709.2 25.44 
L 414.832639 25.44 
z
" style="fill: #ffffff"/>
   </g>
   <g id="PolyCollection_2">
    <path d="M 428.212974 112.218208 
L 428.212974 142.416179 
L 430.916072 142.762681 
L 433.61917 143.110031 
L 436.322268 143.458227 
L 439.025366 143.807267 
L 441.728463 144.157148 
L 444.431561 144.50787 
L 447.134659 144.85943 
L 449.837757 145.211826 
L 452.540855 145.565058 
L 455.243953 145.919125 
L 457.947051 146.274025 
L 460.650149 146.629759 
L 463.353247 146.986325 
L 466.056344 147.343723 
L 468.759442 147.701954 
L 471.46254 148.061018 
L 474.165638 148.420915 
L 476.868736 148.781646 
L 479.571834 149.143212 
L 482.274932 149.505614 
L 484.97803 149.868854 
L 487.681128 150.232933 
L 490.384225 150.597854 
L 493.087323 150.963619 
L 495.790421 151.330231 
L 498.493519 151.697693 
L 501.196617 152.066009 
L 503.899715 152.435181 
L 506.602813 152.805214 
L 509.305911 153.176113 
L 512.009009 153.547882 
L 514.712107 153.920526 
L 517.415204 154.294052 
L 520.118302 154.668465 
L 522.8214 155.043773 
L 525.524498 155.419981 
L 528.227596 155.797098 
L 530.930694 156.175131 
L 533.633792 156.55409 
L 536.33689 156.933983 
L 539.039988 157.31482 
L 541.743085 157.696611 
L 544.446183 158.079369 
L 547.149281 158.463103 
L 549.852379 158.847827 
L 552.555477 159.233553 
L 555.258575 159.620296 
L 557.961673 160.008071 
L 560.664771 160.396892 
L 563.367869 160.786776 
L 566.070967 161.177741 
L 568.774064 161.569804 
L 571.477162 161.962986 
L 574.18026 162.357306 
L 576.883358 162.752785 
L 579.586456 163.149446 
L 582.289554 163.547312 
L 584.992652 163.946405 
L 587.69575 164.346747 
L 590.398848 164.748346 
L 593.101945 165.151186 
L 595.805043 165.555168 
L 598.508141 165.959971 
L 601.211239 166.364695 
L 603.914337 166.767043 
L 606.617435 167.161954 
L 609.320533 167.5421 
L 612.023631 167.9179 
L 614.726729 168.437209 
L 617.429827 169.794225 
L 620.132924 173.718384 
L 622.836022 182.656419 
L 625.53912 199.787387 
L 628.242218 226.895531 
L 630.945316 231.616025 
L 633.648414 179.890632 
L 636.351512 130.97325 
L 639.05461 100.734992 
L 641.757708 92.164787 
L 644.460805 93.357386 
L 647.163903 92.205203 
L 649.867001 84.743364 
L 652.570099 80.329577 
L 655.273197 108.587584 
L 657.976295 232.851273 
L 660.679393 106410.196747 
L 663.382491 106410.196747 
L 666.085589 221.063892 
L 668.788686 183.957239 
L 671.491784 178.017583 
L 674.194882 178.073081 
L 676.89798 178.534633 
L 679.601078 179.005462 
L 682.304176 179.479651 
L 685.007274 179.957173 
L 687.710372 180.438077 
L 690.41347 180.922428 
L 693.116568 181.410289 
L 695.819665 181.901716 
L 695.819665 171.99953 
L 695.819665 171.99953 
L 693.116568 171.451119 
L 690.41347 170.899861 
L 687.710372 170.345814 
L 685.007274 169.78904 
L 682.304176 169.2296 
L 679.601078 168.667393 
L 676.89798 168.099421 
L 674.194882 167.484115 
L 671.491784 166.21393 
L 668.788686 159.167543 
L 666.085589 139.250925 
L 663.382491 111.898502 
L 660.679393 87.34772 
L 657.976295 70.989769 
L 655.273197 63.186577 
L 652.570099 54.265074 
L 649.867001 40.082641 
L 647.163903 35.316727 
L 644.460805 40.530324 
L 641.757708 53.89757 
L 639.05461 69.708218 
L 636.351512 80.099273 
L 633.648414 90.137623 
L 630.945316 102.587903 
L 628.242218 116.61754 
L 625.53912 130.351852 
L 622.836022 141.736031 
L 620.132924 149.334865 
L 617.429827 152.994311 
L 614.726729 153.967836 
L 612.023631 153.817869 
L 609.320533 153.33608 
L 606.617435 152.766055 
L 603.914337 152.171274 
L 601.211239 151.568529 
L 598.508141 150.962701 
L 595.805043 150.355375 
L 593.101945 149.747122 
L 590.398848 149.138168 
L 587.69575 148.528614 
L 584.992652 147.918518 
L 582.289554 147.307918 
L 579.586456 146.696846 
L 576.883358 146.08533 
L 574.18026 145.473397 
L 571.477162 144.86107 
L 568.774064 144.248374 
L 566.070967 143.63533 
L 563.367869 143.02196 
L 560.664771 142.408284 
L 557.961673 141.794322 
L 555.258575 141.180091 
L 552.555477 140.56561 
L 549.852379 139.950896 
L 547.149281 139.335964 
L 544.446183 138.720831 
L 541.743085 138.10551 
L 539.039988 137.490016 
L 536.33689 136.874362 
L 533.633792 136.258562 
L 530.930694 135.642627 
L 528.227596 135.026569 
L 525.524498 134.410399 
L 522.8214 133.794129 
L 520.118302 133.177767 
L 517.415204 132.561325 
L 514.712107 131.944811 
L 512.009009 131.328235 
L 509.305911 130.711605 
L 506.602813 130.094929 
L 503.899715 129.478215 
L 501.196617 128.86147 
L 498.493519 128.244703 
L 495.790421 127.627919 
L 493.087323 127.011125 
L 490.384225 126.394328 
L 487.681128 125.777533 
L 484.97803 125.160747 
L 482.274932 124.543975 
L 479.571834 123.927222 
L 476.868736 123.310493 
L 474.165638 122.693793 
L 471.46254 122.077127 
L 468.759442 121.4605 
L 466.056344 120.843915 
L 463.353247 120.227377 
L 460.650149 119.610889 
L 457.947051 118.994456 
L 455.243953 118.37808 
L 452.540855 117.761766 
L 449.837757 117.145517 
L 447.134659 116.529336 
L 444.431561 115.913225 
L 441.728463 115.297189 
L 439.025366 114.681229 
L 436.322268 114.065348 
L 433.61917 113.44955 
L 430.916072 112.833835 
L 428.212974 112.218208 
z
" clip-path="url(#p7f6b2a97c5)" style="fill: #6495ed; fill-opacity: 0.6"/>
   </g>
   <g id="matplotlib.axis_3">
    <g id="xtick_15">
     <g id="line2d_37">
      <g>
       <use xlink:href="#m0fd253f9a1" x="426.861425" y="242.728" style="stroke: #000000; stroke-width: 0.8"/>
      </g>
     </g>
     <g id="text_10">
      <!-- $\mathdefault{10^{-1}}$ -->
      <g transform="translate(415.111425 257.326437) scale(0.1 -0.1)">
       <use xlink:href="#DejaVuSans-31" transform="translate(0 0.684375)"/>
       <use xlink:href="#DejaVuSans-30" transform="translate(63.623047 0.684375)"/>
       <use xlink:href="#DejaVuSans-2212" transform="translate(128.203125 38.965625) scale(0.7)"/>
       <use xlink:href="#DejaVuSans-31" transform="translate(186.855469 38.965625) scale(0.7)"/>
      </g>
     </g>
    </g>
    <g id="xtick_16">
     <g id="line2d_38">
      <g>
       <use xlink:href="#m0fd253f9a1" x="595.587809" y="242.728" style="stroke: #000000; stroke-width: 0.8"/>
      </g>
     </g>
     <g id="text_11">
      <!-- $\mathdefault{10^{0}}$ -->
      <g transform="translate(586.787809 257.326437) scale(0.1 -0.1)">
       <use xlink:href="#DejaVuSans-31" transform="translate(0 0.765625)"/>
       <use xlink:href="#DejaVuSans-30" transform="translate(63.623047 0.765625)"/>
       <use xlink:href="#DejaVuSans-30" transform="translate(128.203125 39.046875) scale(0.7)"/>
      </g>
     </g>
    </g>
    <g id="xtick_17">
     <g id="line2d_39">
      <g>
       <use xlink:href="#m941584194e" x="419.140929" y="242.728" style="stroke: #000000; stroke-width: 0.6"/>
      </g>
     </g>
    </g>
    <g id="xtick_18">
     <g id="line2d_40">
      <g>
       <use xlink:href="#m941584194e" x="477.653128" y="242.728" style="stroke: #000000; stroke-width: 0.6"/>
      </g>
     </g>
    </g>
    <g id="xtick_19">
     <g id="line2d_41">
      <g>
       <use xlink:href="#m941584194e" x="507.364369" y="242.728" style="stroke: #000000; stroke-width: 0.6"/>
      </g>
     </g>
    </g>
    <g id="xtick_20">
     <g id="line2d_42">
      <g>
       <use xlink:href="#m941584194e" x="528.44483" y="242.728" style="stroke: #000000; stroke-width: 0.6"/>
      </g>
     </g>
    </g>
    <g id="xtick_21">
     <g id="line2d_43">
      <g>
       <use xlink:href="#m941584194e" x="544.796106" y="242.728" style="stroke: #000000; stroke-width: 0.6"/>
      </g>
     </g>
    </g>
    <g id="xtick_22">
     <g id="line2d_44">
      <g>
       <use xlink:href="#m941584194e" x="558.156072" y="242.728" style="stroke: #000000; stroke-width: 0.6"/>
      </g>
     </g>
    </g>
    <g id="xtick_23">
     <g id="line2d_45">
      <g>
       <use xlink:href="#m941584194e" x="569.451761" y="242.728" style="stroke: #000000; stroke-width: 0.6"/>
      </g>
     </g>
    </g>
    <g id="xtick_24">
     <g id="line2d_46">
      <g>
       <use xlink:href="#m941584194e" x="579.236533" y="242.728" style="stroke: #000000; stroke-width: 0.6"/>
      </g>
     </g>
    </g>
    <g id="xtick_25">
     <g id="line2d_47">
      <g>
       <use xlink:href="#m941584194e" x="587.867313" y="242.728" style="stroke: #000000; stroke-width: 0.6"/>
      </g>
     </g>
    </g>
    <g id="xtick_26">
     <g id="line2d_48">
      <g>
       <use xlink:href="#m941584194e" x="646.379512" y="242.728" style="stroke: #000000; stroke-width: 0.6"/>
      </g>
     </g>
    </g>
    <g id="xtick_27">
     <g id="line2d_49">
      <g>
       <use xlink:href="#m941584194e" x="676.090753" y="242.728" style="stroke: #000000; stroke-width: 0.6"/>
      </g>
     </g>
    </g>
    <g id="xtick_28">
     <g id="line2d_50">
      <g>
       <use xlink:href="#m941584194e" x="697.171214" y="242.728" style="stroke: #000000; stroke-width: 0.6"/>
      </g>
     </g>
    </g>
    <g id="text_12">
     <!-- Energy [TeV] -->
     <g transform="translate(530.318663 271.004562) scale(0.1 -0.1)">
      <defs>
       <path id="DejaVuSans-45" d="M 628 4666 
L 3578 4666 
L 3578 4134 
L 1259 4134 
L 1259 2753 
L 3481 2753 
L 3481 2222 
L 1259 2222 
L 1259 531 
L 3634 531 
L 3634 0 
L 628 0 
L 628 4666 
z
" transform="scale(0.015625)"/>
       <path id="DejaVuSans-67" d="M 2906 1791 
Q 2906 2416 2648 2759 
Q 2391 3103 1925 3103 
Q 1463 3103 1205 2759 
Q 947 2416 947 1791 
Q 947 1169 1205 825 
Q 1463 481 1925 481 
Q 2391 481 2648 825 
Q 2906 1169 2906 1791 
z
M 3481 434 
Q 3481 -459 3084 -895 
Q 2688 -1331 1869 -1331 
Q 1566 -1331 1297 -1286 
Q 1028 -1241 775 -1147 
L 775 -588 
Q 1028 -725 1275 -790 
Q 1522 -856 1778 -856 
Q 2344 -856 2625 -561 
Q 2906 -266 2906 331 
L 2906 616 
Q 2728 306 2450 153 
Q 2172 0 1784 0 
Q 1141 0 747 490 
Q 353 981 353 1791 
Q 353 2603 747 3093 
Q 1141 3584 1784 3584 
Q 2172 3584 2450 3431 
Q 2728 3278 2906 2969 
L 2906 3500 
L 3481 3500 
L 3481 434 
z
" transform="scale(0.015625)"/>
       <path id="DejaVuSans-79" d="M 2059 -325 
Q 1816 -950 1584 -1140 
Q 1353 -1331 966 -1331 
L 506 -1331 
L 506 -850 
L 844 -850 
Q 1081 -850 1212 -737 
Q 1344 -625 1503 -206 
L 1606 56 
L 191 3500 
L 800 3500 
L 1894 763 
L 2988 3500 
L 3597 3500 
L 2059 -325 
z
" transform="scale(0.015625)"/>
      </defs>
      <use xlink:href="#DejaVuSans-45"/>
      <use xlink:href="#DejaVuSans-6e" x="63.183594"/>
      <use xlink:href="#DejaVuSans-65" x="126.5625"/>
      <use xlink:href="#DejaVuSans-72" x="188.085938"/>
      <use xlink:href="#DejaVuSans-67" x="227.449219"/>
      <use xlink:href="#DejaVuSans-79" x="290.925781"/>
      <use xlink:href="#DejaVuSans-20" x="350.105469"/>
      <use xlink:href="#DejaVuSans-5b" x="381.892578"/>
      <use xlink:href="#DejaVuSans-54" x="420.90625"/>
      <use xlink:href="#DejaVuSans-65" x="464.990234"/>
      <use xlink:href="#DejaVuSans-56" x="526.513672"/>
      <use xlink:href="#DejaVuSans-5d" x="594.921875"/>
     </g>
    </g>
   </g>
   <g id="matplotlib.axis_4">
    <g id="ytick_19">
     <g id="line2d_51">
      <g>
       <use xlink:href="#m8bfb13cbd4" x="414.832639" y="157.641" style="stroke: #000000; stroke-width: 0.8"/>
      </g>
     </g>
     <g id="text_13">
      <!-- $\mathdefault{10^{-12}}$ -->
      <g transform="translate(379.932639 161.440218) scale(0.1 -0.1)">
       <use xlink:href="#DejaVuSans-31" transform="translate(0 0.765625)"/>
       <use xlink:href="#DejaVuSans-30" transform="translate(63.623047 0.765625)"/>
       <use xlink:href="#DejaVuSans-2212" transform="translate(128.203125 39.046875) scale(0.7)"/>
       <use xlink:href="#DejaVuSans-31" transform="translate(186.855469 39.046875) scale(0.7)"/>
       <use xlink:href="#DejaVuSans-32" transform="translate(231.391602 39.046875) scale(0.7)"/>
      </g>
     </g>
    </g>
    <g id="ytick_20">
     <g id="line2d_52">
      <g>
       <use xlink:href="#m8bfb13cbd4" x="414.832639" y="50.097927" style="stroke: #000000; stroke-width: 0.8"/>
      </g>
     </g>
     <g id="text_14">
      <!-- $\mathdefault{10^{-11}}$ -->
      <g transform="translate(379.932639 53.897146) scale(0.1 -0.1)">
       <use xlink:href="#DejaVuSans-31" transform="translate(0 0.684375)"/>
       <use xlink:href="#DejaVuSans-30" transform="translate(63.623047 0.684375)"/>
       <use xlink:href="#DejaVuSans-2212" transform="translate(128.203125 38.965625) scale(0.7)"/>
       <use xlink:href="#DejaVuSans-31" transform="translate(186.855469 38.965625) scale(0.7)"/>
       <use xlink:href="#DejaVuSans-31" transform="translate(231.391602 38.965625) scale(0.7)"/>
      </g>
     </g>
    </g>
    <g id="ytick_21">
     <g id="line2d_53">
      <g>
       <use xlink:href="#m88b3ba1a87" x="414.832639" y="232.810381" style="stroke: #000000; stroke-width: 0.6"/>
      </g>
     </g>
    </g>
    <g id="ytick_22">
     <g id="line2d_54">
      <g>
       <use xlink:href="#m88b3ba1a87" x="414.832639" y="213.872986" style="stroke: #000000; stroke-width: 0.6"/>
      </g>
     </g>
    </g>
    <g id="ytick_23">
     <g id="line2d_55">
      <g>
       <use xlink:href="#m88b3ba1a87" x="414.832639" y="200.436691" style="stroke: #000000; stroke-width: 0.6"/>
      </g>
     </g>
    </g>
    <g id="ytick_24">
     <g id="line2d_56">
      <g>
       <use xlink:href="#m88b3ba1a87" x="414.832639" y="190.01469" style="stroke: #000000; stroke-width: 0.6"/>
      </g>
     </g>
    </g>
    <g id="ytick_25">
     <g id="line2d_57">
      <g>
       <use xlink:href="#m88b3ba1a87" x="414.832639" y="181.499296" style="stroke: #000000; stroke-width: 0.6"/>
      </g>
     </g>
    </g>
    <g id="ytick_26">
     <g id="line2d_58">
      <g>
       <use xlink:href="#m88b3ba1a87" x="414.832639" y="174.299632" style="stroke: #000000; stroke-width: 0.6"/>
      </g>
     </g>
    </g>
    <g id="ytick_27">
     <g id="line2d_59">
      <g>
       <use xlink:href="#m88b3ba1a87" x="414.832639" y="168.063" style="stroke: #000000; stroke-width: 0.6"/>
      </g>
     </g>
    </g>
    <g id="ytick_28">
     <g id="line2d_60">
      <g>
       <use xlink:href="#m88b3ba1a87" x="414.832639" y="162.561901" style="stroke: #000000; stroke-width: 0.6"/>
      </g>
     </g>
    </g>
    <g id="ytick_29">
     <g id="line2d_61">
      <g>
       <use xlink:href="#m88b3ba1a87" x="414.832639" y="125.267309" style="stroke: #000000; stroke-width: 0.6"/>
      </g>
     </g>
    </g>
    <g id="ytick_30">
     <g id="line2d_62">
      <g>
       <use xlink:href="#m88b3ba1a87" x="414.832639" y="106.329914" style="stroke: #000000; stroke-width: 0.6"/>
      </g>
     </g>
    </g>
    <g id="ytick_31">
     <g id="line2d_63">
      <g>
       <use xlink:href="#m88b3ba1a87" x="414.832639" y="92.893618" style="stroke: #000000; stroke-width: 0.6"/>
      </g>
     </g>
    </g>
    <g id="ytick_32">
     <g id="line2d_64">
      <g>
       <use xlink:href="#m88b3ba1a87" x="414.832639" y="82.471618" style="stroke: #000000; stroke-width: 0.6"/>
      </g>
     </g>
    </g>
    <g id="ytick_33">
     <g id="line2d_65">
      <g>
       <use xlink:href="#m88b3ba1a87" x="414.832639" y="73.956223" style="stroke: #000000; stroke-width: 0.6"/>
      </g>
     </g>
    </g>
    <g id="ytick_34">
     <g id="line2d_66">
      <g>
       <use xlink:href="#m88b3ba1a87" x="414.832639" y="66.75656" style="stroke: #000000; stroke-width: 0.6"/>
      </g>
     </g>
    </g>
    <g id="ytick_35">
     <g id="line2d_67">
      <g>
       <use xlink:href="#m88b3ba1a87" x="414.832639" y="60.519927" style="stroke: #000000; stroke-width: 0.6"/>
      </g>
     </g>
    </g>
    <g id="ytick_36">
     <g id="line2d_68">
      <g>
       <use xlink:href="#m88b3ba1a87" x="414.832639" y="55.018828" style="stroke: #000000; stroke-width: 0.6"/>
      </g>
     </g>
    </g>
    <g id="text_15">
     <!-- e2 * dnde [TeV / (cm2 s)] -->
     <g transform="translate(373.852952 196.563688) rotate(-90) scale(0.1 -0.1)">
      <use xlink:href="#DejaVuSans-65"/>
      <use xlink:href="#DejaVuSans-32" x="61.523438"/>
      <use xlink:href="#DejaVuSans-20" x="125.146484"/>
      <use xlink:href="#DejaVuSans-2a" x="156.933594"/>
      <use xlink:href="#DejaVuSans-20" x="206.933594"/>
      <use xlink:href="#DejaVuSans-64" x="238.720703"/>
      <use xlink:href="#DejaVuSans-6e" x="302.197266"/>
      <use xlink:href="#DejaVuSans-64" x="365.576172"/>
      <use xlink:href="#DejaVuSans-65" x="429.052734"/>
      <use xlink:href="#DejaVuSans-20" x="490.576172"/>
      <use xlink:href="#DejaVuSans-5b" x="522.363281"/>
      <use xlink:href="#DejaVuSans-54" x="561.376953"/>
      <use xlink:href="#DejaVuSans-65" x="605.460938"/>
      <use xlink:href="#DejaVuSans-56" x="666.984375"/>
      <use xlink:href="#DejaVuSans-20" x="735.392578"/>
      <use xlink:href="#DejaVuSans-2f" x="767.179688"/>
      <use xlink:href="#DejaVuSans-20" x="800.871094"/>
      <use xlink:href="#DejaVuSans-28" x="832.658203"/>
      <use xlink:href="#DejaVuSans-63" x="871.671875"/>
      <use xlink:href="#DejaVuSans-6d" x="926.652344"/>
      <use xlink:href="#DejaVuSans-32" x="1024.064453"/>
      <use xlink:href="#DejaVuSans-20" x="1087.6875"/>
      <use xlink:href="#DejaVuSans-73" x="1119.474609"/>
      <use xlink:href="#DejaVuSans-29" x="1171.574219"/>
      <use xlink:href="#DejaVuSans-5d" x="1210.587891"/>
     </g>
    </g>
   </g>
   <g id="line2d_69">
    <path d="M 428.212974 124.917944 
L 430.916072 125.440881 
L 433.61917 125.963818 
L 436.322268 126.486755 
L 439.025366 127.009692 
L 441.728463 127.532628 
L 444.431561 128.055565 
L 447.134659 128.578502 
L 449.837757 129.101439 
L 452.540855 129.624376 
L 455.243953 130.147312 
L 457.947051 130.670249 
L 460.650149 131.193186 
L 463.353247 131.716123 
L 466.056344 132.23906 
L 468.759442 132.761996 
L 471.46254 133.284933 
L 474.165638 133.80787 
L 476.868736 134.330807 
L 479.571834 134.853744 
L 482.274932 135.37668 
L 484.97803 135.899617 
L 487.681128 136.422554 
L 490.384225 136.945491 
L 493.087323 137.468428 
L 495.790421 137.991364 
L 498.493519 138.514301 
L 501.196617 139.037238 
L 503.899715 139.560175 
L 506.602813 140.083112 
L 509.305911 140.606048 
L 512.009009 141.128985 
L 514.712107 141.651922 
L 517.415204 142.174859 
L 520.118302 142.697796 
L 522.8214 143.220732 
L 525.524498 143.743669 
L 528.227596 144.266606 
L 530.930694 144.789543 
L 533.633792 145.31248 
L 536.33689 145.835417 
L 539.039988 146.358353 
L 541.743085 146.88129 
L 544.446183 147.404227 
L 547.149281 147.927164 
L 549.852379 148.450101 
L 552.555477 148.973037 
L 555.258575 149.495974 
L 557.961673 150.018911 
L 560.664771 150.541848 
L 563.367869 151.064785 
L 566.070967 151.587721 
L 568.774064 152.110658 
L 571.477162 152.633595 
L 574.18026 153.156532 
L 576.883358 153.679468 
L 579.586456 154.202404 
L 582.289554 154.72534 
L 584.992652 155.248272 
L 587.69575 155.771197 
L 590.398848 156.294103 
L 593.101945 156.816953 
L 595.805043 157.339654 
L 598.508141 157.861944 
L 601.211239 158.383121 
L 603.914337 158.901303 
L 606.617435 159.411534 
L 609.320533 159.901042 
L 612.023631 160.337805 
L 614.726729 160.64442 
L 617.429827 160.64294 
L 620.132924 159.953133 
L 622.836022 157.851136 
L 625.53912 153.204281 
L 628.242218 144.78185 
L 630.945316 132.10252 
L 633.648414 116.131744 
L 636.351512 98.927007 
L 639.05461 82.691212 
L 641.757708 69.216937 
L 644.460805 59.842125 
L 647.163903 55.58728 
L 649.867001 57.266584 
L 652.570099 65.502239 
L 655.273197 80.574875 
L 657.976295 101.926047 
L 660.679393 126.983714 
L 663.382491 149.857833 
L 666.085589 164.152914 
L 668.788686 169.936646 
L 671.491784 171.743858 
L 674.194882 172.47915 
L 676.89798 173.026193 
L 679.601078 173.550972 
L 682.304176 174.074001 
L 685.007274 174.596941 
L 687.710372 175.119878 
L 690.41347 175.642814 
L 693.116568 176.165751 
L 695.819665 176.688688 
" clip-path="url(#p7f6b2a97c5)" style="fill: none; stroke: #191970; stroke-opacity: 0.95; stroke-width: 2; stroke-linecap: square"/>
   </g>
   <g id="line2d_70">
    <path d="M 428.212974 125.636513 
L 430.916072 126.153385 
L 433.61917 126.670256 
L 436.322268 127.187127 
L 439.025366 127.703999 
L 441.728463 128.22087 
L 444.431561 128.737742 
L 447.134659 129.254613 
L 449.837757 129.771484 
L 452.540855 130.288356 
L 455.243953 130.805227 
L 457.947051 131.322098 
L 460.650149 131.83897 
L 463.353247 132.355841 
L 466.056344 132.872712 
L 468.759442 133.389584 
L 471.46254 133.906455 
L 474.165638 134.423327 
L 476.868736 134.940198 
L 479.571834 135.457069 
L 482.274932 135.973941 
L 484.97803 136.490812 
L 487.681128 137.007683 
L 490.384225 137.524555 
L 493.087323 138.041426 
L 495.790421 138.558297 
L 498.493519 139.075169 
L 501.196617 139.59204 
L 503.899715 140.108912 
L 506.602813 140.625783 
L 509.305911 141.142654 
L 512.009009 141.659526 
L 514.712107 142.176397 
L 517.415204 142.693268 
L 520.118302 143.21014 
L 522.8214 143.727011 
L 525.524498 144.243882 
L 528.227596 144.760754 
L 530.930694 145.277625 
L 533.633792 145.794497 
L 536.33689 146.311368 
L 539.039988 146.828239 
L 541.743085 147.345111 
L 544.446183 147.861982 
L 547.149281 148.378853 
L 549.852379 148.895725 
L 552.555477 149.412596 
L 555.258575 149.929467 
L 557.961673 150.446339 
L 560.664771 150.96321 
L 563.367869 151.480082 
L 566.070967 151.996953 
L 568.774064 152.513824 
L 571.477162 153.030696 
L 574.18026 153.547567 
L 576.883358 154.064438 
L 579.586456 154.581309 
L 582.289554 155.098178 
L 584.992652 155.615046 
L 587.69575 156.131905 
L 590.398848 156.648745 
L 593.101945 157.165529 
L 595.805043 157.682161 
L 598.508141 158.198379 
L 601.211239 158.713471 
L 603.914337 159.225532 
L 606.617435 159.729548 
L 609.320533 160.212596 
L 612.023631 160.642271 
L 614.726729 160.940255 
L 617.429827 160.926541 
L 620.132924 160.216727 
L 622.836022 158.079967 
L 625.53912 153.375849 
L 628.242218 144.873061 
L 630.945316 132.104709 
L 633.648414 116.058137 
L 636.351512 98.803389 
L 639.05461 82.543112 
L 641.757708 69.064321 
L 644.460805 59.699797 
L 647.163903 55.466823 
L 649.867001 57.178076 
L 652.570099 65.455443 
L 655.273197 80.579886 
L 657.976295 101.992551 
L 660.679393 127.115365 
L 663.382491 150.038196 
L 666.085589 164.345761 
L 668.788686 170.120493 
L 671.491784 171.917913 
L 674.194882 172.645983 
L 676.89798 173.186764 
L 679.601078 173.705457 
L 682.304176 174.222419 
L 685.007274 174.739293 
L 687.710372 175.256164 
L 690.41347 175.773036 
L 693.116568 176.289907 
L 695.819665 176.806778 
" clip-path="url(#p7f6b2a97c5)" style="fill: none; stroke-dasharray: 7.4,3.2; stroke-dashoffset: 0; stroke: #000000; stroke-opacity: 0.95; stroke-width: 2"/>
   </g>
   <g id="patch_10">
    <path d="M 414.832639 242.728 
L 414.832639 25.44 
" style="fill: none; stroke: #000000; stroke-width: 0.8; stroke-linejoin: miter; stroke-linecap: square"/>
   </g>
   <g id="patch_11">
    <path d="M 709.2 242.728 
L 709.2 25.44 
" style="fill: none; stroke: #000000; stroke-width: 0.8; stroke-linejoin: miter; stroke-linecap: square"/>
   </g>
   <g id="patch_12">
    <path d="M 414.832639 242.728 
L 709.2 242.728 
" style="fill: none; stroke: #000000; stroke-width: 0.8; stroke-linejoin: miter; stroke-linecap: square"/>
   </g>
   <g id="patch_13">
    <path d="M 414.832639 25.44 
L 709.2 25.44 
" style="fill: none; stroke: #000000; stroke-width: 0.8; stroke-linejoin: miter; stroke-linecap: square"/>
   </g>
   <g id="legend_2">
    <g id="patch_14">
     <path d="M 421.832639 77.474375 
L 564.373264 77.474375 
Q 566.373264 77.474375 566.373264 75.474375 
L 566.373264 32.44 
Q 566.373264 30.44 564.373264 30.44 
L 421.832639 30.44 
Q 419.832639 30.44 419.832639 32.44 
L 419.832639 75.474375 
Q 419.832639 77.474375 421.832639 77.474375 
z
" style="fill: #ffffff; opacity: 0.8; stroke: #cccccc; stroke-linejoin: miter"/>
    </g>
    <g id="line2d_71">
     <path d="M 423.832639 38.538438 
L 433.832639 38.538438 
L 443.832639 38.538438 
" style="fill: none; stroke: #191970; stroke-opacity: 0.95; stroke-width: 2; stroke-linecap: square"/>
    </g>
    <g id="text_16">
     <!-- Best Fit with Nuisance -->
     <g transform="translate(451.832639 42.038438) scale(0.1 -0.1)">
      <defs>
       <path id="DejaVuSans-77" d="M 269 3500 
L 844 3500 
L 1563 769 
L 2278 3500 
L 2956 3500 
L 3675 769 
L 4391 3500 
L 4966 3500 
L 4050 0 
L 3372 0 
L 2619 2869 
L 1863 0 
L 1184 0 
L 269 3500 
z
" transform="scale(0.015625)"/>
       <path id="DejaVuSans-68" d="M 3513 2113 
L 3513 0 
L 2938 0 
L 2938 2094 
Q 2938 2591 2744 2837 
Q 2550 3084 2163 3084 
Q 1697 3084 1428 2787 
Q 1159 2491 1159 1978 
L 1159 0 
L 581 0 
L 581 4863 
L 1159 4863 
L 1159 2956 
Q 1366 3272 1645 3428 
Q 1925 3584 2291 3584 
Q 2894 3584 3203 3211 
Q 3513 2838 3513 2113 
z
" transform="scale(0.015625)"/>
       <path id="DejaVuSans-4e" d="M 628 4666 
L 1478 4666 
L 3547 763 
L 3547 4666 
L 4159 4666 
L 4159 0 
L 3309 0 
L 1241 3903 
L 1241 0 
L 628 0 
L 628 4666 
z
" transform="scale(0.015625)"/>
      </defs>
      <use xlink:href="#DejaVuSans-42"/>
      <use xlink:href="#DejaVuSans-65" x="68.603516"/>
      <use xlink:href="#DejaVuSans-73" x="130.126953"/>
      <use xlink:href="#DejaVuSans-74" x="182.226562"/>
      <use xlink:href="#DejaVuSans-20" x="221.435547"/>
      <use xlink:href="#DejaVuSans-46" x="253.222656"/>
      <use xlink:href="#DejaVuSans-69" x="303.492188"/>
      <use xlink:href="#DejaVuSans-74" x="331.275391"/>
      <use xlink:href="#DejaVuSans-20" x="370.484375"/>
      <use xlink:href="#DejaVuSans-77" x="402.271484"/>
      <use xlink:href="#DejaVuSans-69" x="484.058594"/>
      <use xlink:href="#DejaVuSans-74" x="511.841797"/>
      <use xlink:href="#DejaVuSans-68" x="551.050781"/>
      <use xlink:href="#DejaVuSans-20" x="614.429688"/>
      <use xlink:href="#DejaVuSans-4e" x="646.216797"/>
      <use xlink:href="#DejaVuSans-75" x="721.021484"/>
      <use xlink:href="#DejaVuSans-69" x="784.400391"/>
      <use xlink:href="#DejaVuSans-73" x="812.183594"/>
      <use xlink:href="#DejaVuSans-61" x="864.283203"/>
      <use xlink:href="#DejaVuSans-6e" x="925.5625"/>
      <use xlink:href="#DejaVuSans-63" x="988.941406"/>
      <use xlink:href="#DejaVuSans-65" x="1043.921875"/>
     </g>
    </g>
    <g id="patch_15">
     <path d="M 423.832639 56.716563 
L 443.832639 56.716563 
L 443.832639 49.716563 
L 423.832639 49.716563 
z
" style="fill: #6495ed; fill-opacity: 0.6"/>
    </g>
    <g id="text_17">
     <!-- 1$\,\sigma_{tot}$ -->
     <g transform="translate(451.832639 56.716563) scale(0.1 -0.1)">
      <defs>
       <path id="DejaVuSans-Oblique-6f" d="M 1625 -91 
Q 1009 -91 651 289 
Q 294 669 294 1325 
Q 294 1706 417 2101 
Q 541 2497 738 2766 
Q 1047 3184 1428 3384 
Q 1809 3584 2291 3584 
Q 2888 3584 3255 3212 
Q 3622 2841 3622 2241 
Q 3622 1825 3500 1412 
Q 3378 1000 3181 728 
Q 2875 309 2494 109 
Q 2113 -91 1625 -91 
z
M 891 1344 
Q 891 869 1089 633 
Q 1288 397 1691 397 
Q 2269 397 2648 901 
Q 3028 1406 3028 2181 
Q 3028 2634 2825 2865 
Q 2622 3097 2228 3097 
Q 1903 3097 1650 2945 
Q 1397 2794 1197 2484 
Q 1050 2253 970 1956 
Q 891 1659 891 1344 
z
" transform="scale(0.015625)"/>
      </defs>
      <use xlink:href="#DejaVuSans-31" transform="translate(0 0.09375)"/>
      <use xlink:href="#DejaVuSans-Oblique-3c3" transform="translate(79.858723 0.09375)"/>
      <use xlink:href="#DejaVuSans-Oblique-74" transform="translate(143.237629 -16.3125) scale(0.7)"/>
      <use xlink:href="#DejaVuSans-Oblique-6f" transform="translate(170.683918 -16.3125) scale(0.7)"/>
      <use xlink:href="#DejaVuSans-Oblique-74" transform="translate(213.511067 -16.3125) scale(0.7)"/>
     </g>
    </g>
    <g id="line2d_72">
     <path d="M 423.832639 67.894688 
L 433.832639 67.894688 
L 443.832639 67.894688 
" style="fill: none; stroke-dasharray: 7.4,3.2; stroke-dashoffset: 0; stroke: #000000; stroke-opacity: 0.95; stroke-width: 2"/>
    </g>
    <g id="text_18">
     <!-- Input -->
     <g transform="translate(451.832639 71.394688) scale(0.1 -0.1)">
      <use xlink:href="#DejaVuSans-49"/>
      <use xlink:href="#DejaVuSans-6e" x="29.492188"/>
      <use xlink:href="#DejaVuSans-70" x="92.871094"/>
      <use xlink:href="#DejaVuSans-75" x="156.347656"/>
      <use xlink:href="#DejaVuSans-74" x="219.726562"/>
     </g>
    </g>
   </g>
  </g>
 </g>
 <defs>
  <clipPath id="p5c13009025">
   <rect x="60.232639" y="25.44" width="294.367361" height="217.288"/>
  </clipPath>
  <clipPath id="p7f6b2a97c5">
   <rect x="414.832639" y="25.44" width="294.367361" height="217.288"/>
  </clipPath>
 </defs>
</svg>
