<?xml version="1.0" encoding="utf-8" standalone="no"?>
<!DOCTYPE svg PUBLIC "-//W3C//DTD SVG 1.1//EN"
  "http://www.w3.org/Graphics/SVG/1.1/DTD/svg11.dtd">
<svg xmlns:xlink="http://www.w3.org/1999/xlink" width="360pt" height="288pt" viewBox="0 0 360 288" xmlns="http://www.w3.org/2000/svg" version="1.1">
 <metadata>
  <rdf:RDF xmlns:dc="http://purl.org/dc/elements/1.1/" xmlns:cc="http://creativecommons.org/ns#" xmlns:rdf="http://www.w3.org/1999/02/22-rdf-syntax-ns#">
   <cc:Work>
    <dc:type rdf:resource="http://purl.org/dc/dcmitype/StillImage"/>
    <dc:date>2023-05-04T13:23:56.974068</dc:date>
    <dc:format>image/svg+xml</dc:format>
    <dc:creator>
     <cc:Agent>
      <dc:title>Matplotlib v3.7.1, https://matplotlib.org/</dc:title>
     </cc:Agent>
    </dc:creator>
   </cc:Work>
  </rdf:RDF>
 </metadata>
 <defs>
  <style type="text/css">*{stroke-linejoin: round; stroke-linecap: butt}</style>
 </defs>
 <g id="figure_1">
  <g id="patch_1">
   <path d="M 0 288
L 360 288
L 360 0
L 0 0
z
" style="fill: #ffffff"/>
  </g>
  <g id="axes_1">
   <g id="patch_2">
    <path d="M 60.423889 242.728
L 349.2 242.728
L 349.2 25.44
L 60.423889 25.44
z
" style="fill: #ffffff"/>
   </g>
   <g id="PolyCollection_1">
    <path d="M 73.550076 195.121933
L 73.550076 206.157711
L 76.201831 206.354266
L 78.853586 206.551038
L 81.505341 206.748028
L 84.157096 206.945238
L 86.808851 207.142668
L 89.460606 207.340321
L 92.112361 207.538197
L 94.764116 207.736299
L 97.41587 207.934627
L 100.067625 208.133184
L 102.71938 208.33197
L 105.371135 208.530988
L 108.02289 208.730239
L 110.674645 208.929726
L 113.3264 209.129448
L 115.978155 209.329409
L 118.62991 209.52961
L 121.281665 209.730054
L 123.93342 209.930741
L 126.585175 210.131674
L 129.236929 210.332855
L 131.888684 210.534285
L 134.540439 210.735967
L 137.192194 210.937904
L 139.843949 211.140096
L 142.495704 211.342546
L 145.147459 211.545257
L 147.799214 211.748231
L 150.450969 211.951469
L 153.102724 212.154974
L 155.754479 212.358749
L 158.406234 212.562796
L 161.057989 212.767117
L 163.709743 212.971714
L 166.361498 213.176592
L 169.013253 213.38175
L 171.665008 213.587194
L 174.316763 213.792924
L 176.968518 213.998944
L 179.620273 214.205256
L 182.272028 214.411863
L 184.923783 214.618769
L 187.575538 214.825974
L 190.227293 215.033484
L 192.879048 215.241299
L 195.530802 215.449424
L 198.182557 215.65786
L 200.834312 215.866612
L 203.486067 216.075682
L 206.137822 216.285073
L 208.789577 216.494788
L 211.441332 216.70483
L 214.093087 216.915202
L 216.744842 217.125908
L 219.396597 217.33695
L 222.048352 217.548332
L 224.700107 217.760057
L 227.351861 217.972127
L 230.003616 218.184547
L 232.655371 218.397319
L 235.307126 218.610447
L 237.958881 218.823933
L 240.610636 219.037782
L 243.262391 219.251996
L 245.914146 219.466578
L 248.565901 219.681533
L 251.217656 219.896862
L 253.869411 220.112569
L 256.521166 220.328658
L 259.172921 220.545131
L 261.824675 220.761993
L 264.47643 220.979245
L 267.128185 221.196891
L 269.77994 221.414935
L 272.431695 221.633379
L 275.08345 221.852226
L 277.735205 222.07148
L 280.38696 222.291143
L 283.038715 222.500348
L 285.69047 47986.473486
L 288.342225 47986.473486
L 290.99398 232.851273
L 293.645734 223.395701
L 296.297489 223.61788
L 298.949244 223.840489
L 301.600999 224.063529
L 304.252754 224.287003
L 306.904509 224.510913
L 309.556264 224.735262
L 312.208019 224.960052
L 314.859774 225.185284
L 317.511529 225.410963
L 320.163284 225.637088
L 322.815039 225.863662
L 325.466793 226.090688
L 328.118548 226.318166
L 330.770303 226.546098
L 333.422058 226.774486
L 336.073813 227.003331
L 336.073813 219.785481
L 336.073813 219.785481
L 333.422058 219.547882
L 330.770303 219.309961
L 328.118548 219.071719
L 325.466793 218.833158
L 322.815039 218.594279
L 320.163284 218.355083
L 317.511529 218.115574
L 314.859774 217.875753
L 312.208019 217.635621
L 309.556264 217.395181
L 306.904509 217.154436
L 304.252754 216.913387
L 301.600999 216.672036
L 298.949244 216.430388
L 296.297489 216.188443
L 293.645734 215.946204
L 290.99398 210.855112
L 288.342225 35.316727
L 285.69047 75.334926
L 283.038715 214.981939
L 280.38696 214.730707
L 277.735205 214.486766
L 275.08345 214.242552
L 272.431695 213.998067
L 269.77994 213.753316
L 267.128185 213.5083
L 264.47643 213.263023
L 261.824675 213.017489
L 259.172921 212.7717
L 256.521166 212.52566
L 253.869411 212.279372
L 251.217656 212.03284
L 248.565901 211.786066
L 245.914146 211.539054
L 243.262391 211.291808
L 240.610636 211.04433
L 237.958881 210.796625
L 235.307126 210.548695
L 232.655371 210.300544
L 230.003616 210.052175
L 227.351861 209.803592
L 224.700107 209.554797
L 222.048352 209.305795
L 219.396597 209.056589
L 216.744842 208.807181
L 214.093087 208.557575
L 211.441332 208.307775
L 208.789577 208.057784
L 206.137822 207.807605
L 203.486067 207.55724
L 200.834312 207.306694
L 198.182557 207.05597
L 195.530802 206.805071
L 192.879048 206.553999
L 190.227293 206.302758
L 187.575538 206.051351
L 184.923783 205.799781
L 182.272028 205.548052
L 179.620273 205.296165
L 176.968518 205.044124
L 174.316763 204.791932
L 171.665008 204.539592
L 169.013253 204.287106
L 166.361498 204.034478
L 163.709743 203.78171
L 161.057989 203.528805
L 158.406234 203.275765
L 155.754479 203.022594
L 153.102724 202.769294
L 150.450969 202.515868
L 147.799214 202.262317
L 145.147459 202.008645
L 142.495704 201.754855
L 139.843949 201.500948
L 137.192194 201.246927
L 134.540439 200.992794
L 131.888684 200.738553
L 129.236929 200.484204
L 126.585175 200.229751
L 123.93342 199.975195
L 121.281665 199.720539
L 118.62991 199.465786
L 115.978155 199.210936
L 113.3264 198.955993
L 110.674645 198.700958
L 108.02289 198.445834
L 105.371135 198.190622
L 102.71938 197.935324
L 100.067625 197.679943
L 97.41587 197.42448
L 94.764116 197.168937
L 92.112361 196.913316
L 89.460606 196.657619
L 86.808851 196.401847
L 84.157096 196.146003
L 81.505341 195.890088
L 78.853586 195.634103
L 76.201831 195.378051
L 73.550076 195.121933
z
" clip-path="url(#p4d49551729)" style="fill: #6495ed; fill-opacity: 0.5"/>
   </g>
   <g id="PolyCollection_2">
    <path d="M 73.550076 195.241312
L 73.550076 205.830688
L 76.201831 206.002181
L 78.853586 206.173941
L 81.505341 206.345966
L 84.157096 206.518258
L 86.808851 206.690818
L 89.460606 206.863645
L 92.112361 207.036741
L 94.764116 207.210106
L 97.41587 207.383742
L 100.067625 207.557649
L 102.71938 207.731828
L 105.371135 207.90628
L 108.02289 208.081007
L 110.674645 208.256011
L 113.3264 208.431291
L 115.978155 208.606851
L 118.62991 208.782692
L 121.281665 208.958815
L 123.93342 209.135222
L 126.585175 209.311917
L 129.236929 209.4889
L 131.888684 209.666175
L 134.540439 209.843743
L 137.192194 210.021608
L 139.843949 210.199773
L 142.495704 210.37824
L 145.147459 210.557013
L 147.799214 210.736095
L 150.450969 210.915489
L 153.102724 211.095201
L 155.754479 211.275233
L 158.406234 211.45559
L 161.057989 211.636277
L 163.709743 211.817298
L 166.361498 211.998659
L 169.013253 212.180365
L 171.665008 212.362421
L 174.316763 212.544834
L 176.968518 212.72761
L 179.620273 212.910756
L 182.272028 213.094278
L 184.923783 213.278184
L 187.575538 213.462482
L 190.227293 213.64718
L 192.879048 213.832287
L 195.530802 214.017811
L 198.182557 214.203764
L 200.834312 214.390154
L 203.486067 214.576992
L 206.137822 214.76429
L 208.789577 214.95206
L 211.441332 215.140313
L 214.093087 215.329064
L 216.744842 215.518325
L 219.396597 215.708111
L 222.048352 215.898438
L 224.700107 216.089321
L 227.351861 216.280777
L 230.003616 216.472824
L 232.655371 216.66548
L 235.307126 216.858764
L 237.958881 217.052696
L 240.610636 217.247298
L 243.262391 217.442592
L 245.914146 217.6386
L 248.565901 217.835347
L 251.217656 218.032857
L 253.869411 218.231157
L 256.521166 218.430273
L 259.172921 218.630233
L 261.824675 218.831067
L 264.47643 219.032803
L 267.128185 219.235473
L 269.77994 219.439108
L 272.431695 219.64374
L 275.08345 219.849403
L 277.735205 220.056129
L 280.38696 220.263953
L 283.038715 220.472671
L 285.69047 47986.473486
L 288.342225 47986.473486
L 290.99398 221.449557
L 293.645734 221.320739
L 296.297489 221.535868
L 298.949244 221.752331
L 301.600999 221.97016
L 304.252754 222.189384
L 306.904509 222.410032
L 309.556264 222.63213
L 312.208019 222.855701
L 314.859774 223.080769
L 317.511529 223.307352
L 320.163284 223.535465
L 322.815039 223.765124
L 325.466793 223.996337
L 328.118548 224.229111
L 330.770303 224.46345
L 333.422058 224.699354
L 336.073813 224.936818
L 336.073813 221.362668
L 336.073813 221.362668
L 333.422058 221.130989
L 330.770303 220.897993
L 328.118548 220.663677
L 325.466793 220.42804
L 322.815039 220.191087
L 320.163284 219.952824
L 317.511529 219.71326
L 314.859774 219.47241
L 312.208019 219.230289
L 309.556264 218.986917
L 306.904509 218.742316
L 304.252754 218.496509
L 301.600999 218.249524
L 298.949244 218.001388
L 296.297489 217.752132
L 293.645734 217.501787
L 290.99398 216.951495
L 288.342225 72.390771
L 285.69047 109.803706
L 283.038715 216.490327
L 280.38696 216.234881
L 277.735205 215.978704
L 275.08345 215.721675
L 272.431695 215.463829
L 269.77994 215.205199
L 267.128185 214.945819
L 264.47643 214.68572
L 261.824675 214.424934
L 259.172921 214.163493
L 256.521166 213.901426
L 253.869411 213.638762
L 251.217656 213.37553
L 248.565901 213.111757
L 245.914146 212.847469
L 243.262391 212.582691
L 240.610636 212.317447
L 237.958881 212.051761
L 235.307126 211.785655
L 232.655371 211.519151
L 230.003616 211.252268
L 227.351861 210.985027
L 224.700107 210.717446
L 222.048352 210.449543
L 219.396597 210.181336
L 216.744842 209.91284
L 214.093087 209.644071
L 211.441332 209.375044
L 208.789577 209.105773
L 206.137822 208.836272
L 203.486067 208.566553
L 200.834312 208.296629
L 198.182557 208.026511
L 195.530802 207.75621
L 192.879048 207.485738
L 190.227293 207.215104
L 187.575538 206.944317
L 184.923783 206.673387
L 182.272028 206.402323
L 179.620273 206.131133
L 176.968518 205.859825
L 174.316763 205.588406
L 171.665008 205.316884
L 169.013253 205.045266
L 166.361498 204.773557
L 163.709743 204.501765
L 161.057989 204.229895
L 158.406234 203.957952
L 155.754479 203.685944
L 153.102724 203.413873
L 150.450969 203.141746
L 147.799214 202.869567
L 145.147459 202.597341
L 142.495704 202.325072
L 139.843949 202.052763
L 137.192194 201.78042
L 134.540439 201.508045
L 131.888684 201.235642
L 129.236929 200.963215
L 126.585175 200.690767
L 123.93342 200.418301
L 121.281665 200.145819
L 118.62991 199.873326
L 115.978155 199.600823
L 113.3264 199.328313
L 110.674645 199.055799
L 108.02289 198.783283
L 105.371135 198.510767
L 102.71938 198.238254
L 100.067625 197.965746
L 97.41587 197.693243
L 94.764116 197.42075
L 92.112361 197.148267
L 89.460606 196.875795
L 86.808851 196.603338
L 84.157096 196.330896
L 81.505341 196.058471
L 78.853586 195.786065
L 76.201831 195.513678
L 73.550076 195.241312
z
" clip-path="url(#p4d49551729)" style="fill: #db7093; fill-opacity: 0.9"/>
   </g>
   <g id="matplotlib.axis_1">
    <g id="xtick_1">
     <g id="line2d_1">
      <defs>
       <path id="md21c3200ca" d="M 0 0
L 0 3.5
" style="stroke: #000000; stroke-width: 0.8"/>
      </defs>
      <g>
       <use xlink:href="#md21c3200ca" x="72.224199" y="242.728" style="stroke: #000000; stroke-width: 0.8"/>
      </g>
     </g>
     <g id="text_1">
      <!-- $\mathdefault{10^{-1}}$ -->
      <g transform="translate(60.474199 257.326437) scale(0.1 -0.1)">
       <defs>
        <path id="DejaVuSans-31" d="M 794 531
L 1825 531
L 1825 4091
L 703 3866
L 703 4441
L 1819 4666
L 2450 4666
L 2450 531
L 3481 531
L 3481 0
L 794 0
L 794 531
z
" transform="scale(0.015625)"/>
        <path id="DejaVuSans-30" d="M 2034 4250
Q 1547 4250 1301 3770
Q 1056 3291 1056 2328
Q 1056 1369 1301 889
Q 1547 409 2034 409
Q 2525 409 2770 889
Q 3016 1369 3016 2328
Q 3016 3291 2770 3770
Q 2525 4250 2034 4250
z
M 2034 4750
Q 2819 4750 3233 4129
Q 3647 3509 3647 2328
Q 3647 1150 3233 529
Q 2819 -91 2034 -91
Q 1250 -91 836 529
Q 422 1150 422 2328
Q 422 3509 836 4129
Q 1250 4750 2034 4750
z
" transform="scale(0.015625)"/>
        <path id="DejaVuSans-2212" d="M 678 2272
L 4684 2272
L 4684 1741
L 678 1741
L 678 2272
z
" transform="scale(0.015625)"/>
       </defs>
       <use xlink:href="#DejaVuSans-31" transform="translate(0 0.684375)"/>
       <use xlink:href="#DejaVuSans-30" transform="translate(63.623047 0.684375)"/>
       <use xlink:href="#DejaVuSans-2212" transform="translate(128.203125 38.965625) scale(0.7)"/>
       <use xlink:href="#DejaVuSans-31" transform="translate(186.855469 38.965625) scale(0.7)"/>
      </g>
     </g>
    </g>
    <g id="xtick_2">
     <g id="line2d_2">
      <g>
       <use xlink:href="#md21c3200ca" x="237.745773" y="242.728" style="stroke: #000000; stroke-width: 0.8"/>
      </g>
     </g>
     <g id="text_2">
      <!-- $\mathdefault{10^{0}}$ -->
      <g transform="translate(228.945773 257.326437) scale(0.1 -0.1)">
       <use xlink:href="#DejaVuSans-31" transform="translate(0 0.765625)"/>
       <use xlink:href="#DejaVuSans-30" transform="translate(63.623047 0.765625)"/>
       <use xlink:href="#DejaVuSans-30" transform="translate(128.203125 39.046875) scale(0.7)"/>
      </g>
     </g>
    </g>
    <g id="xtick_3">
     <g id="line2d_3">
      <defs>
       <path id="m872c1813c7" d="M 0 0
L 0 2
" style="stroke: #000000; stroke-width: 0.6"/>
      </defs>
      <g>
       <use xlink:href="#m872c1813c7" x="64.650347" y="242.728" style="stroke: #000000; stroke-width: 0.6"/>
      </g>
     </g>
    </g>
    <g id="xtick_4">
     <g id="line2d_4">
      <g>
       <use xlink:href="#m872c1813c7" x="122.051158" y="242.728" style="stroke: #000000; stroke-width: 0.6"/>
      </g>
     </g>
    </g>
    <g id="xtick_5">
     <g id="line2d_5">
      <g>
       <use xlink:href="#m872c1813c7" x="151.19806" y="242.728" style="stroke: #000000; stroke-width: 0.6"/>
      </g>
     </g>
    </g>
    <g id="xtick_6">
     <g id="line2d_6">
      <g>
       <use xlink:href="#m872c1813c7" x="171.878116" y="242.728" style="stroke: #000000; stroke-width: 0.6"/>
      </g>
     </g>
    </g>
    <g id="xtick_7">
     <g id="line2d_7">
      <g>
       <use xlink:href="#m872c1813c7" x="187.918814" y="242.728" style="stroke: #000000; stroke-width: 0.6"/>
      </g>
     </g>
    </g>
    <g id="xtick_8">
     <g id="line2d_8">
      <g>
       <use xlink:href="#m872c1813c7" x="201.025019" y="242.728" style="stroke: #000000; stroke-width: 0.6"/>
      </g>
     </g>
    </g>
    <g id="xtick_9">
     <g id="line2d_9">
      <g>
       <use xlink:href="#m872c1813c7" x="212.106157" y="242.728" style="stroke: #000000; stroke-width: 0.6"/>
      </g>
     </g>
    </g>
    <g id="xtick_10">
     <g id="line2d_10">
      <g>
       <use xlink:href="#m872c1813c7" x="221.705075" y="242.728" style="stroke: #000000; stroke-width: 0.6"/>
      </g>
     </g>
    </g>
    <g id="xtick_11">
     <g id="line2d_11">
      <g>
       <use xlink:href="#m872c1813c7" x="230.171921" y="242.728" style="stroke: #000000; stroke-width: 0.6"/>
      </g>
     </g>
    </g>
    <g id="xtick_12">
     <g id="line2d_12">
      <g>
       <use xlink:href="#m872c1813c7" x="287.572732" y="242.728" style="stroke: #000000; stroke-width: 0.6"/>
      </g>
     </g>
    </g>
    <g id="xtick_13">
     <g id="line2d_13">
      <g>
       <use xlink:href="#m872c1813c7" x="316.719634" y="242.728" style="stroke: #000000; stroke-width: 0.6"/>
      </g>
     </g>
    </g>
    <g id="xtick_14">
     <g id="line2d_14">
      <g>
       <use xlink:href="#m872c1813c7" x="337.399691" y="242.728" style="stroke: #000000; stroke-width: 0.6"/>
      </g>
     </g>
    </g>
    <g id="text_3">
     <!-- Energy [TeV] -->
     <g transform="translate(173.114288 271.004562) scale(0.1 -0.1)">
      <defs>
       <path id="DejaVuSans-45" d="M 628 4666
L 3578 4666
L 3578 4134
L 1259 4134
L 1259 2753
L 3481 2753
L 3481 2222
L 1259 2222
L 1259 531
L 3634 531
L 3634 0
L 628 0
L 628 4666
z
" transform="scale(0.015625)"/>
       <path id="DejaVuSans-6e" d="M 3513 2113
L 3513 0
L 2938 0
L 2938 2094
Q 2938 2591 2744 2837
Q 2550 3084 2163 3084
Q 1697 3084 1428 2787
Q 1159 2491 1159 1978
L 1159 0
L 581 0
L 581 3500
L 1159 3500
L 1159 2956
Q 1366 3272 1645 3428
Q 1925 3584 2291 3584
Q 2894 3584 3203 3211
Q 3513 2838 3513 2113
z
" transform="scale(0.015625)"/>
       <path id="DejaVuSans-65" d="M 3597 1894
L 3597 1613
L 953 1613
Q 991 1019 1311 708
Q 1631 397 2203 397
Q 2534 397 2845 478
Q 3156 559 3463 722
L 3463 178
Q 3153 47 2828 -22
Q 2503 -91 2169 -91
Q 1331 -91 842 396
Q 353 884 353 1716
Q 353 2575 817 3079
Q 1281 3584 2069 3584
Q 2775 3584 3186 3129
Q 3597 2675 3597 1894
z
M 3022 2063
Q 3016 2534 2758 2815
Q 2500 3097 2075 3097
Q 1594 3097 1305 2825
Q 1016 2553 972 2059
L 3022 2063
z
" transform="scale(0.015625)"/>
       <path id="DejaVuSans-72" d="M 2631 2963
Q 2534 3019 2420 3045
Q 2306 3072 2169 3072
Q 1681 3072 1420 2755
Q 1159 2438 1159 1844
L 1159 0
L 581 0
L 581 3500
L 1159 3500
L 1159 2956
Q 1341 3275 1631 3429
Q 1922 3584 2338 3584
Q 2397 3584 2469 3576
Q 2541 3569 2628 3553
L 2631 2963
z
" transform="scale(0.015625)"/>
       <path id="DejaVuSans-67" d="M 2906 1791
Q 2906 2416 2648 2759
Q 2391 3103 1925 3103
Q 1463 3103 1205 2759
Q 947 2416 947 1791
Q 947 1169 1205 825
Q 1463 481 1925 481
Q 2391 481 2648 825
Q 2906 1169 2906 1791
z
M 3481 434
Q 3481 -459 3084 -895
Q 2688 -1331 1869 -1331
Q 1566 -1331 1297 -1286
Q 1028 -1241 775 -1147
L 775 -588
Q 1028 -725 1275 -790
Q 1522 -856 1778 -856
Q 2344 -856 2625 -561
Q 2906 -266 2906 331
L 2906 616
Q 2728 306 2450 153
Q 2172 0 1784 0
Q 1141 0 747 490
Q 353 981 353 1791
Q 353 2603 747 3093
Q 1141 3584 1784 3584
Q 2172 3584 2450 3431
Q 2728 3278 2906 2969
L 2906 3500
L 3481 3500
L 3481 434
z
" transform="scale(0.015625)"/>
       <path id="DejaVuSans-79" d="M 2059 -325
Q 1816 -950 1584 -1140
Q 1353 -1331 966 -1331
L 506 -1331
L 506 -850
L 844 -850
Q 1081 -850 1212 -737
Q 1344 -625 1503 -206
L 1606 56
L 191 3500
L 800 3500
L 1894 763
L 2988 3500
L 3597 3500
L 2059 -325
z
" transform="scale(0.015625)"/>
       <path id="DejaVuSans-20" transform="scale(0.015625)"/>
       <path id="DejaVuSans-5b" d="M 550 4863
L 1875 4863
L 1875 4416
L 1125 4416
L 1125 -397
L 1875 -397
L 1875 -844
L 550 -844
L 550 4863
z
" transform="scale(0.015625)"/>
       <path id="DejaVuSans-54" d="M -19 4666
L 3928 4666
L 3928 4134
L 2272 4134
L 2272 0
L 1638 0
L 1638 4134
L -19 4134
L -19 4666
z
" transform="scale(0.015625)"/>
       <path id="DejaVuSans-56" d="M 1831 0
L 50 4666
L 709 4666
L 2188 738
L 3669 4666
L 4325 4666
L 2547 0
L 1831 0
z
" transform="scale(0.015625)"/>
       <path id="DejaVuSans-5d" d="M 1947 4863
L 1947 -844
L 622 -844
L 622 -397
L 1369 -397
L 1369 4416
L 622 4416
L 622 4863
L 1947 4863
z
" transform="scale(0.015625)"/>
      </defs>
      <use xlink:href="#DejaVuSans-45"/>
      <use xlink:href="#DejaVuSans-6e" x="63.183594"/>
      <use xlink:href="#DejaVuSans-65" x="126.5625"/>
      <use xlink:href="#DejaVuSans-72" x="188.085938"/>
      <use xlink:href="#DejaVuSans-67" x="227.449219"/>
      <use xlink:href="#DejaVuSans-79" x="290.925781"/>
      <use xlink:href="#DejaVuSans-20" x="350.105469"/>
      <use xlink:href="#DejaVuSans-5b" x="381.892578"/>
      <use xlink:href="#DejaVuSans-54" x="420.90625"/>
      <use xlink:href="#DejaVuSans-65" x="464.990234"/>
      <use xlink:href="#DejaVuSans-56" x="526.513672"/>
      <use xlink:href="#DejaVuSans-5d" x="594.921875"/>
     </g>
    </g>
   </g>
   <g id="matplotlib.axis_2">
    <g id="ytick_1">
     <g id="line2d_15">
      <defs>
       <path id="m42cb8ee6bb" d="M 0 0
L -3.5 0
" style="stroke: #000000; stroke-width: 0.8"/>
      </defs>
      <g>
       <use xlink:href="#m42cb8ee6bb" x="60.423889" y="214.503919" style="stroke: #000000; stroke-width: 0.8"/>
      </g>
     </g>
     <g id="text_4">
      <!-- $\mathdefault{10^{-12}}$ -->
      <g transform="translate(25.523889 218.303138) scale(0.1 -0.1)">
       <defs>
        <path id="DejaVuSans-32" d="M 1228 531
L 3431 531
L 3431 0
L 469 0
L 469 531
Q 828 903 1448 1529
Q 2069 2156 2228 2338
Q 2531 2678 2651 2914
Q 2772 3150 2772 3378
Q 2772 3750 2511 3984
Q 2250 4219 1831 4219
Q 1534 4219 1204 4116
Q 875 4013 500 3803
L 500 4441
Q 881 4594 1212 4672
Q 1544 4750 1819 4750
Q 2544 4750 2975 4387
Q 3406 4025 3406 3419
Q 3406 3131 3298 2873
Q 3191 2616 2906 2266
Q 2828 2175 2409 1742
Q 1991 1309 1228 531
z
" transform="scale(0.015625)"/>
       </defs>
       <use xlink:href="#DejaVuSans-31" transform="translate(0 0.765625)"/>
       <use xlink:href="#DejaVuSans-30" transform="translate(63.623047 0.765625)"/>
       <use xlink:href="#DejaVuSans-2212" transform="translate(128.203125 39.046875) scale(0.7)"/>
       <use xlink:href="#DejaVuSans-31" transform="translate(186.855469 39.046875) scale(0.7)"/>
       <use xlink:href="#DejaVuSans-32" transform="translate(231.391602 39.046875) scale(0.7)"/>
      </g>
     </g>
    </g>
    <g id="ytick_2">
     <g id="line2d_16">
      <g>
       <use xlink:href="#m42cb8ee6bb" x="60.423889" y="166.151723" style="stroke: #000000; stroke-width: 0.8"/>
      </g>
     </g>
     <g id="text_5">
      <!-- $\mathdefault{10^{-11}}$ -->
      <g transform="translate(25.523889 169.950942) scale(0.1 -0.1)">
       <use xlink:href="#DejaVuSans-31" transform="translate(0 0.684375)"/>
       <use xlink:href="#DejaVuSans-30" transform="translate(63.623047 0.684375)"/>
       <use xlink:href="#DejaVuSans-2212" transform="translate(128.203125 38.965625) scale(0.7)"/>
       <use xlink:href="#DejaVuSans-31" transform="translate(186.855469 38.965625) scale(0.7)"/>
       <use xlink:href="#DejaVuSans-31" transform="translate(231.391602 38.965625) scale(0.7)"/>
      </g>
     </g>
    </g>
    <g id="ytick_3">
     <g id="line2d_17">
      <g>
       <use xlink:href="#m42cb8ee6bb" x="60.423889" y="117.799527" style="stroke: #000000; stroke-width: 0.8"/>
      </g>
     </g>
     <g id="text_6">
      <!-- $\mathdefault{10^{-10}}$ -->
      <g transform="translate(25.523889 121.598746) scale(0.1 -0.1)">
       <use xlink:href="#DejaVuSans-31" transform="translate(0 0.765625)"/>
       <use xlink:href="#DejaVuSans-30" transform="translate(63.623047 0.765625)"/>
       <use xlink:href="#DejaVuSans-2212" transform="translate(128.203125 39.046875) scale(0.7)"/>
       <use xlink:href="#DejaVuSans-31" transform="translate(186.855469 39.046875) scale(0.7)"/>
       <use xlink:href="#DejaVuSans-30" transform="translate(231.391602 39.046875) scale(0.7)"/>
      </g>
     </g>
    </g>
    <g id="ytick_4">
     <g id="line2d_18">
      <g>
       <use xlink:href="#m42cb8ee6bb" x="60.423889" y="69.447331" style="stroke: #000000; stroke-width: 0.8"/>
      </g>
     </g>
     <g id="text_7">
      <!-- $\mathdefault{10^{-9}}$ -->
      <g transform="translate(29.923889 73.24655) scale(0.1 -0.1)">
       <defs>
        <path id="DejaVuSans-39" d="M 703 97
L 703 672
Q 941 559 1184 500
Q 1428 441 1663 441
Q 2288 441 2617 861
Q 2947 1281 2994 2138
Q 2813 1869 2534 1725
Q 2256 1581 1919 1581
Q 1219 1581 811 2004
Q 403 2428 403 3163
Q 403 3881 828 4315
Q 1253 4750 1959 4750
Q 2769 4750 3195 4129
Q 3622 3509 3622 2328
Q 3622 1225 3098 567
Q 2575 -91 1691 -91
Q 1453 -91 1209 -44
Q 966 3 703 97
z
M 1959 2075
Q 2384 2075 2632 2365
Q 2881 2656 2881 3163
Q 2881 3666 2632 3958
Q 2384 4250 1959 4250
Q 1534 4250 1286 3958
Q 1038 3666 1038 3163
Q 1038 2656 1286 2365
Q 1534 2075 1959 2075
z
" transform="scale(0.015625)"/>
       </defs>
       <use xlink:href="#DejaVuSans-31" transform="translate(0 0.765625)"/>
       <use xlink:href="#DejaVuSans-30" transform="translate(63.623047 0.765625)"/>
       <use xlink:href="#DejaVuSans-2212" transform="translate(128.203125 39.046875) scale(0.7)"/>
       <use xlink:href="#DejaVuSans-39" transform="translate(186.855469 39.046875) scale(0.7)"/>
      </g>
     </g>
    </g>
    <g id="ytick_5">
     <g id="line2d_19">
      <defs>
       <path id="mbfacfcf355" d="M 0 0
L -2 0
" style="stroke: #000000; stroke-width: 0.6"/>
      </defs>
      <g>
       <use xlink:href="#mbfacfcf355" x="60.423889" y="239.786255" style="stroke: #000000; stroke-width: 0.6"/>
      </g>
     </g>
    </g>
    <g id="ytick_6">
     <g id="line2d_20">
      <g>
       <use xlink:href="#mbfacfcf355" x="60.423889" y="233.745192" style="stroke: #000000; stroke-width: 0.6"/>
      </g>
     </g>
    </g>
    <g id="ytick_7">
     <g id="line2d_21">
      <g>
       <use xlink:href="#mbfacfcf355" x="60.423889" y="229.05938" style="stroke: #000000; stroke-width: 0.6"/>
      </g>
     </g>
    </g>
    <g id="ytick_8">
     <g id="line2d_22">
      <g>
       <use xlink:href="#mbfacfcf355" x="60.423889" y="225.230793" style="stroke: #000000; stroke-width: 0.6"/>
      </g>
     </g>
    </g>
    <g id="ytick_9">
     <g id="line2d_23">
      <g>
       <use xlink:href="#mbfacfcf355" x="60.423889" y="221.993769" style="stroke: #000000; stroke-width: 0.6"/>
      </g>
     </g>
    </g>
    <g id="ytick_10">
     <g id="line2d_24">
      <g>
       <use xlink:href="#mbfacfcf355" x="60.423889" y="219.189731" style="stroke: #000000; stroke-width: 0.6"/>
      </g>
     </g>
    </g>
    <g id="ytick_11">
     <g id="line2d_25">
      <g>
       <use xlink:href="#mbfacfcf355" x="60.423889" y="216.716394" style="stroke: #000000; stroke-width: 0.6"/>
      </g>
     </g>
    </g>
    <g id="ytick_12">
     <g id="line2d_26">
      <g>
       <use xlink:href="#mbfacfcf355" x="60.423889" y="199.948458" style="stroke: #000000; stroke-width: 0.6"/>
      </g>
     </g>
    </g>
    <g id="ytick_13">
     <g id="line2d_27">
      <g>
       <use xlink:href="#mbfacfcf355" x="60.423889" y="191.434059" style="stroke: #000000; stroke-width: 0.6"/>
      </g>
     </g>
    </g>
    <g id="ytick_14">
     <g id="line2d_28">
      <g>
       <use xlink:href="#mbfacfcf355" x="60.423889" y="185.392996" style="stroke: #000000; stroke-width: 0.6"/>
      </g>
     </g>
    </g>
    <g id="ytick_15">
     <g id="line2d_29">
      <g>
       <use xlink:href="#mbfacfcf355" x="60.423889" y="180.707185" style="stroke: #000000; stroke-width: 0.6"/>
      </g>
     </g>
    </g>
    <g id="ytick_16">
     <g id="line2d_30">
      <g>
       <use xlink:href="#mbfacfcf355" x="60.423889" y="176.878597" style="stroke: #000000; stroke-width: 0.6"/>
      </g>
     </g>
    </g>
    <g id="ytick_17">
     <g id="line2d_31">
      <g>
       <use xlink:href="#mbfacfcf355" x="60.423889" y="173.641573" style="stroke: #000000; stroke-width: 0.6"/>
      </g>
     </g>
    </g>
    <g id="ytick_18">
     <g id="line2d_32">
      <g>
       <use xlink:href="#mbfacfcf355" x="60.423889" y="170.837535" style="stroke: #000000; stroke-width: 0.6"/>
      </g>
     </g>
    </g>
    <g id="ytick_19">
     <g id="line2d_33">
      <g>
       <use xlink:href="#mbfacfcf355" x="60.423889" y="168.364198" style="stroke: #000000; stroke-width: 0.6"/>
      </g>
     </g>
    </g>
    <g id="ytick_20">
     <g id="line2d_34">
      <g>
       <use xlink:href="#mbfacfcf355" x="60.423889" y="151.596262" style="stroke: #000000; stroke-width: 0.6"/>
      </g>
     </g>
    </g>
    <g id="ytick_21">
     <g id="line2d_35">
      <g>
       <use xlink:href="#mbfacfcf355" x="60.423889" y="143.081863" style="stroke: #000000; stroke-width: 0.6"/>
      </g>
     </g>
    </g>
    <g id="ytick_22">
     <g id="line2d_36">
      <g>
       <use xlink:href="#mbfacfcf355" x="60.423889" y="137.040801" style="stroke: #000000; stroke-width: 0.6"/>
      </g>
     </g>
    </g>
    <g id="ytick_23">
     <g id="line2d_37">
      <g>
       <use xlink:href="#mbfacfcf355" x="60.423889" y="132.354989" style="stroke: #000000; stroke-width: 0.6"/>
      </g>
     </g>
    </g>
    <g id="ytick_24">
     <g id="line2d_38">
      <g>
       <use xlink:href="#mbfacfcf355" x="60.423889" y="128.526401" style="stroke: #000000; stroke-width: 0.6"/>
      </g>
     </g>
    </g>
    <g id="ytick_25">
     <g id="line2d_39">
      <g>
       <use xlink:href="#mbfacfcf355" x="60.423889" y="125.289377" style="stroke: #000000; stroke-width: 0.6"/>
      </g>
     </g>
    </g>
    <g id="ytick_26">
     <g id="line2d_40">
      <g>
       <use xlink:href="#mbfacfcf355" x="60.423889" y="122.485339" style="stroke: #000000; stroke-width: 0.6"/>
      </g>
     </g>
    </g>
    <g id="ytick_27">
     <g id="line2d_41">
      <g>
       <use xlink:href="#mbfacfcf355" x="60.423889" y="120.012002" style="stroke: #000000; stroke-width: 0.6"/>
      </g>
     </g>
    </g>
    <g id="ytick_28">
     <g id="line2d_42">
      <g>
       <use xlink:href="#mbfacfcf355" x="60.423889" y="103.244066" style="stroke: #000000; stroke-width: 0.6"/>
      </g>
     </g>
    </g>
    <g id="ytick_29">
     <g id="line2d_43">
      <g>
       <use xlink:href="#mbfacfcf355" x="60.423889" y="94.729667" style="stroke: #000000; stroke-width: 0.6"/>
      </g>
     </g>
    </g>
    <g id="ytick_30">
     <g id="line2d_44">
      <g>
       <use xlink:href="#mbfacfcf355" x="60.423889" y="88.688605" style="stroke: #000000; stroke-width: 0.6"/>
      </g>
     </g>
    </g>
    <g id="ytick_31">
     <g id="line2d_45">
      <g>
       <use xlink:href="#mbfacfcf355" x="60.423889" y="84.002793" style="stroke: #000000; stroke-width: 0.6"/>
      </g>
     </g>
    </g>
    <g id="ytick_32">
     <g id="line2d_46">
      <g>
       <use xlink:href="#mbfacfcf355" x="60.423889" y="80.174206" style="stroke: #000000; stroke-width: 0.6"/>
      </g>
     </g>
    </g>
    <g id="ytick_33">
     <g id="line2d_47">
      <g>
       <use xlink:href="#mbfacfcf355" x="60.423889" y="76.937181" style="stroke: #000000; stroke-width: 0.6"/>
      </g>
     </g>
    </g>
    <g id="ytick_34">
     <g id="line2d_48">
      <g>
       <use xlink:href="#mbfacfcf355" x="60.423889" y="74.133143" style="stroke: #000000; stroke-width: 0.6"/>
      </g>
     </g>
    </g>
    <g id="ytick_35">
     <g id="line2d_49">
      <g>
       <use xlink:href="#mbfacfcf355" x="60.423889" y="71.659807" style="stroke: #000000; stroke-width: 0.6"/>
      </g>
     </g>
    </g>
    <g id="ytick_36">
     <g id="line2d_50">
      <g>
       <use xlink:href="#mbfacfcf355" x="60.423889" y="54.89187" style="stroke: #000000; stroke-width: 0.6"/>
      </g>
     </g>
    </g>
    <g id="ytick_37">
     <g id="line2d_51">
      <g>
       <use xlink:href="#mbfacfcf355" x="60.423889" y="46.377471" style="stroke: #000000; stroke-width: 0.6"/>
      </g>
     </g>
    </g>
    <g id="ytick_38">
     <g id="line2d_52">
      <g>
       <use xlink:href="#mbfacfcf355" x="60.423889" y="40.336409" style="stroke: #000000; stroke-width: 0.6"/>
      </g>
     </g>
    </g>
    <g id="ytick_39">
     <g id="line2d_53">
      <g>
       <use xlink:href="#mbfacfcf355" x="60.423889" y="35.650597" style="stroke: #000000; stroke-width: 0.6"/>
      </g>
     </g>
    </g>
    <g id="ytick_40">
     <g id="line2d_54">
      <g>
       <use xlink:href="#mbfacfcf355" x="60.423889" y="31.82201" style="stroke: #000000; stroke-width: 0.6"/>
      </g>
     </g>
    </g>
    <g id="ytick_41">
     <g id="line2d_55">
      <g>
       <use xlink:href="#mbfacfcf355" x="60.423889" y="28.584985" style="stroke: #000000; stroke-width: 0.6"/>
      </g>
     </g>
    </g>
    <g id="ytick_42">
     <g id="line2d_56">
      <g>
       <use xlink:href="#mbfacfcf355" x="60.423889" y="25.780947" style="stroke: #000000; stroke-width: 0.6"/>
      </g>
     </g>
    </g>
    <g id="text_8">
     <!-- e2 * dnde [TeV / (cm2 s)] -->
     <g transform="translate(19.444202 196.563688) rotate(-90) scale(0.1 -0.1)">
      <defs>
       <path id="DejaVuSans-2a" d="M 3009 3897
L 1888 3291
L 3009 2681
L 2828 2375
L 1778 3009
L 1778 1831
L 1422 1831
L 1422 3009
L 372 2375
L 191 2681
L 1313 3291
L 191 3897
L 372 4206
L 1422 3572
L 1422 4750
L 1778 4750
L 1778 3572
L 2828 4206
L 3009 3897
z
" transform="scale(0.015625)"/>
       <path id="DejaVuSans-64" d="M 2906 2969
L 2906 4863
L 3481 4863
L 3481 0
L 2906 0
L 2906 525
Q 2725 213 2448 61
Q 2172 -91 1784 -91
Q 1150 -91 751 415
Q 353 922 353 1747
Q 353 2572 751 3078
Q 1150 3584 1784 3584
Q 2172 3584 2448 3432
Q 2725 3281 2906 2969
z
M 947 1747
Q 947 1113 1208 752
Q 1469 391 1925 391
Q 2381 391 2643 752
Q 2906 1113 2906 1747
Q 2906 2381 2643 2742
Q 2381 3103 1925 3103
Q 1469 3103 1208 2742
Q 947 2381 947 1747
z
" transform="scale(0.015625)"/>
       <path id="DejaVuSans-2f" d="M 1625 4666
L 2156 4666
L 531 -594
L 0 -594
L 1625 4666
z
" transform="scale(0.015625)"/>
       <path id="DejaVuSans-28" d="M 1984 4856
Q 1566 4138 1362 3434
Q 1159 2731 1159 2009
Q 1159 1288 1364 580
Q 1569 -128 1984 -844
L 1484 -844
Q 1016 -109 783 600
Q 550 1309 550 2009
Q 550 2706 781 3412
Q 1013 4119 1484 4856
L 1984 4856
z
" transform="scale(0.015625)"/>
       <path id="DejaVuSans-63" d="M 3122 3366
L 3122 2828
Q 2878 2963 2633 3030
Q 2388 3097 2138 3097
Q 1578 3097 1268 2742
Q 959 2388 959 1747
Q 959 1106 1268 751
Q 1578 397 2138 397
Q 2388 397 2633 464
Q 2878 531 3122 666
L 3122 134
Q 2881 22 2623 -34
Q 2366 -91 2075 -91
Q 1284 -91 818 406
Q 353 903 353 1747
Q 353 2603 823 3093
Q 1294 3584 2113 3584
Q 2378 3584 2631 3529
Q 2884 3475 3122 3366
z
" transform="scale(0.015625)"/>
       <path id="DejaVuSans-6d" d="M 3328 2828
Q 3544 3216 3844 3400
Q 4144 3584 4550 3584
Q 5097 3584 5394 3201
Q 5691 2819 5691 2113
L 5691 0
L 5113 0
L 5113 2094
Q 5113 2597 4934 2840
Q 4756 3084 4391 3084
Q 3944 3084 3684 2787
Q 3425 2491 3425 1978
L 3425 0
L 2847 0
L 2847 2094
Q 2847 2600 2669 2842
Q 2491 3084 2119 3084
Q 1678 3084 1418 2786
Q 1159 2488 1159 1978
L 1159 0
L 581 0
L 581 3500
L 1159 3500
L 1159 2956
Q 1356 3278 1631 3431
Q 1906 3584 2284 3584
Q 2666 3584 2933 3390
Q 3200 3197 3328 2828
z
" transform="scale(0.015625)"/>
       <path id="DejaVuSans-73" d="M 2834 3397
L 2834 2853
Q 2591 2978 2328 3040
Q 2066 3103 1784 3103
Q 1356 3103 1142 2972
Q 928 2841 928 2578
Q 928 2378 1081 2264
Q 1234 2150 1697 2047
L 1894 2003
Q 2506 1872 2764 1633
Q 3022 1394 3022 966
Q 3022 478 2636 193
Q 2250 -91 1575 -91
Q 1294 -91 989 -36
Q 684 19 347 128
L 347 722
Q 666 556 975 473
Q 1284 391 1588 391
Q 1994 391 2212 530
Q 2431 669 2431 922
Q 2431 1156 2273 1281
Q 2116 1406 1581 1522
L 1381 1569
Q 847 1681 609 1914
Q 372 2147 372 2553
Q 372 3047 722 3315
Q 1072 3584 1716 3584
Q 2034 3584 2315 3537
Q 2597 3491 2834 3397
z
" transform="scale(0.015625)"/>
       <path id="DejaVuSans-29" d="M 513 4856
L 1013 4856
Q 1481 4119 1714 3412
Q 1947 2706 1947 2009
Q 1947 1309 1714 600
Q 1481 -109 1013 -844
L 513 -844
Q 928 -128 1133 580
Q 1338 1288 1338 2009
Q 1338 2731 1133 3434
Q 928 4138 513 4856
z
" transform="scale(0.015625)"/>
      </defs>
      <use xlink:href="#DejaVuSans-65"/>
      <use xlink:href="#DejaVuSans-32" x="61.523438"/>
      <use xlink:href="#DejaVuSans-20" x="125.146484"/>
      <use xlink:href="#DejaVuSans-2a" x="156.933594"/>
      <use xlink:href="#DejaVuSans-20" x="206.933594"/>
      <use xlink:href="#DejaVuSans-64" x="238.720703"/>
      <use xlink:href="#DejaVuSans-6e" x="302.197266"/>
      <use xlink:href="#DejaVuSans-64" x="365.576172"/>
      <use xlink:href="#DejaVuSans-65" x="429.052734"/>
      <use xlink:href="#DejaVuSans-20" x="490.576172"/>
      <use xlink:href="#DejaVuSans-5b" x="522.363281"/>
      <use xlink:href="#DejaVuSans-54" x="561.376953"/>
      <use xlink:href="#DejaVuSans-65" x="605.460938"/>
      <use xlink:href="#DejaVuSans-56" x="666.984375"/>
      <use xlink:href="#DejaVuSans-20" x="735.392578"/>
      <use xlink:href="#DejaVuSans-2f" x="767.179688"/>
      <use xlink:href="#DejaVuSans-20" x="800.871094"/>
      <use xlink:href="#DejaVuSans-28" x="832.658203"/>
      <use xlink:href="#DejaVuSans-63" x="871.671875"/>
      <use xlink:href="#DejaVuSans-6d" x="926.652344"/>
      <use xlink:href="#DejaVuSans-32" x="1024.064453"/>
      <use xlink:href="#DejaVuSans-20" x="1087.6875"/>
      <use xlink:href="#DejaVuSans-73" x="1119.474609"/>
      <use xlink:href="#DejaVuSans-29" x="1171.574219"/>
      <use xlink:href="#DejaVuSans-5d" x="1210.587891"/>
     </g>
    </g>
   </g>
   <g id="line2d_57">
    <path d="M 73.550076 200.114455
L 76.201831 200.346844
L 78.853586 200.579234
L 81.505341 200.811623
L 84.157096 201.044012
L 86.808851 201.276402
L 89.460606 201.508791
L 92.112361 201.741181
L 94.764116 201.97357
L 97.41587 202.205959
L 100.067625 202.438349
L 102.71938 202.670738
L 105.371135 202.903127
L 108.02289 203.135517
L 110.674645 203.367906
L 113.3264 203.600295
L 115.978155 203.832685
L 118.62991 204.065074
L 121.281665 204.297463
L 123.93342 204.529853
L 126.585175 204.762242
L 129.236929 204.994631
L 131.888684 205.227021
L 134.540439 205.45941
L 137.192194 205.6918
L 139.843949 205.924189
L 142.495704 206.156578
L 145.147459 206.388968
L 147.799214 206.621357
L 150.450969 206.853746
L 153.102724 207.086136
L 155.754479 207.318525
L 158.406234 207.550914
L 161.057989 207.783304
L 163.709743 208.015693
L 166.361498 208.248082
L 169.013253 208.480472
L 171.665008 208.712861
L 174.316763 208.945251
L 176.968518 209.17764
L 179.620273 209.410029
L 182.272028 209.642419
L 184.923783 209.874808
L 187.575538 210.107197
L 190.227293 210.339587
L 192.879048 210.571976
L 195.530802 210.804365
L 198.182557 211.036755
L 200.834312 211.269144
L 203.486067 211.501533
L 206.137822 211.733923
L 208.789577 211.966312
L 211.441332 212.198702
L 214.093087 212.431091
L 216.744842 212.66348
L 219.396597 212.89587
L 222.048352 213.128259
L 224.700107 213.360648
L 227.351861 213.593038
L 230.003616 213.825427
L 232.655371 214.057816
L 235.307126 214.290206
L 237.958881 214.522595
L 240.610636 214.754984
L 243.262391 214.987374
L 245.914146 215.219763
L 248.565901 215.452152
L 251.217656 215.684542
L 253.869411 215.916931
L 256.521166 216.149321
L 259.172921 216.38171
L 261.824675 216.614099
L 264.47643 216.846489
L 267.128185 217.078878
L 269.77994 217.311267
L 272.431695 217.543657
L 275.08345 217.776046
L 277.735205 218.008435
L 280.38696 218.240825
L 283.038715 218.4732
L 285.69047 188.180817
L 288.342225 133.883042
L 290.99398 219.154444
L 293.645734 219.402772
L 296.297489 219.635161
L 298.949244 219.86755
L 301.600999 220.09994
L 304.252754 220.332329
L 306.904509 220.564718
L 309.556264 220.797108
L 312.208019 221.029497
L 314.859774 221.261886
L 317.511529 221.494276
L 320.163284 221.726665
L 322.815039 221.959054
L 325.466793 222.191444
L 328.118548 222.423833
L 330.770303 222.656223
L 333.422058 222.888612
L 336.073813 223.121001
" clip-path="url(#p4d49551729)" style="fill: none; stroke: #000000; stroke-linecap: square"/>
   </g>
   <g id="line2d_58">
    <path d="M 73.550076 199.923052
L 76.201831 200.157019
L 78.853586 200.390987
L 81.505341 200.624954
L 84.157096 200.858921
L 86.808851 201.092888
L 89.460606 201.326855
L 92.112361 201.560822
L 94.764116 201.79479
L 97.41587 202.028757
L 100.067625 202.262724
L 102.71938 202.496691
L 105.371135 202.730658
L 108.02289 202.964626
L 110.674645 203.198593
L 113.3264 203.43256
L 115.978155 203.666527
L 118.62991 203.900494
L 121.281665 204.134462
L 123.93342 204.368429
L 126.585175 204.602396
L 129.236929 204.836363
L 131.888684 205.07033
L 134.540439 205.304298
L 137.192194 205.538265
L 139.843949 205.772232
L 142.495704 206.006199
L 145.147459 206.240166
L 147.799214 206.474133
L 150.450969 206.708101
L 153.102724 206.942068
L 155.754479 207.176035
L 158.406234 207.410002
L 161.057989 207.643969
L 163.709743 207.877937
L 166.361498 208.111904
L 169.013253 208.345871
L 171.665008 208.579838
L 174.316763 208.813805
L 176.968518 209.047773
L 179.620273 209.28174
L 182.272028 209.515707
L 184.923783 209.749674
L 187.575538 209.983641
L 190.227293 210.217608
L 192.879048 210.451576
L 195.530802 210.685543
L 198.182557 210.91951
L 200.834312 211.153477
L 203.486067 211.387444
L 206.137822 211.621412
L 208.789577 211.855379
L 211.441332 212.089346
L 214.093087 212.323313
L 216.744842 212.55728
L 219.396597 212.791248
L 222.048352 213.025215
L 224.700107 213.259182
L 227.351861 213.493149
L 230.003616 213.727116
L 232.655371 213.961083
L 235.307126 214.195051
L 237.958881 214.429018
L 240.610636 214.662985
L 243.262391 214.896952
L 245.914146 215.130919
L 248.565901 215.364887
L 251.217656 215.598854
L 253.869411 215.832821
L 256.521166 216.066788
L 259.172921 216.300755
L 261.824675 216.534723
L 264.47643 216.76869
L 267.128185 217.002657
L 269.77994 217.236624
L 272.431695 217.470591
L 275.08345 217.704559
L 277.735205 217.938526
L 280.38696 218.172493
L 283.038715 218.406444
L 285.69047 186.646948
L 288.342225 134.853855
L 290.99398 219.095896
L 293.645734 219.342329
L 296.297489 219.576296
L 298.949244 219.810263
L 301.600999 220.04423
L 304.252754 220.278198
L 306.904509 220.512165
L 309.556264 220.746132
L 312.208019 220.980099
L 314.859774 221.214066
L 317.511529 221.448034
L 320.163284 221.682001
L 322.815039 221.915968
L 325.466793 222.149935
L 328.118548 222.383902
L 330.770303 222.617869
L 333.422058 222.851837
L 336.073813 223.085804
" clip-path="url(#p4d49551729)" style="fill: none; stroke-dasharray: 7.4,3.2; stroke-dashoffset: 0; stroke: #191970; stroke-opacity: 0.95; stroke-width: 2"/>
   </g>
   <g id="line2d_59">
    <path d="M 73.550076 199.875457
L 76.201831 200.109783
L 78.853586 200.34411
L 81.505341 200.578437
L 84.157096 200.812763
L 86.808851 201.04709
L 89.460606 201.281417
L 92.112361 201.515743
L 94.764116 201.75007
L 97.41587 201.984396
L 100.067625 202.218723
L 102.71938 202.45305
L 105.371135 202.687376
L 108.02289 202.921703
L 110.674645 203.15603
L 113.3264 203.390356
L 115.978155 203.624683
L 118.62991 203.859009
L 121.281665 204.093336
L 123.93342 204.327663
L 126.585175 204.561989
L 129.236929 204.796316
L 131.888684 205.030643
L 134.540439 205.264969
L 137.192194 205.499296
L 139.843949 205.733622
L 142.495704 205.967949
L 145.147459 206.202276
L 147.799214 206.436602
L 150.450969 206.670929
L 153.102724 206.905256
L 155.754479 207.139582
L 158.406234 207.373909
L 161.057989 207.608235
L 163.709743 207.842562
L 166.361498 208.076889
L 169.013253 208.311215
L 171.665008 208.545542
L 174.316763 208.779869
L 176.968518 209.014195
L 179.620273 209.248522
L 182.272028 209.482848
L 184.923783 209.717175
L 187.575538 209.951502
L 190.227293 210.185828
L 192.879048 210.420155
L 195.530802 210.654482
L 198.182557 210.888808
L 200.834312 211.123135
L 203.486067 211.357461
L 206.137822 211.591788
L 208.789577 211.826115
L 211.441332 212.060441
L 214.093087 212.294768
L 216.744842 212.529095
L 219.396597 212.763421
L 222.048352 212.997748
L 224.700107 213.232074
L 227.351861 213.466401
L 230.003616 213.700728
L 232.655371 213.935054
L 235.307126 214.169381
L 237.958881 214.403708
L 240.610636 214.638034
L 243.262391 214.872361
L 245.914146 215.106687
L 248.565901 215.341014
L 251.217656 215.575341
L 253.869411 215.809667
L 256.521166 216.043994
L 259.172921 216.278321
L 261.824675 216.512647
L 264.47643 216.746974
L 267.128185 216.9813
L 269.77994 217.215627
L 272.431695 217.449954
L 275.08345 217.68428
L 277.735205 217.918607
L 280.38696 218.152934
L 283.038715 218.387237
L 285.69047 184.383109
L 288.342225 136.08863
L 290.99398 219.080318
L 293.645734 219.324567
L 296.297489 219.558893
L 298.949244 219.79322
L 301.600999 220.027547
L 304.252754 220.261873
L 306.904509 220.4962
L 309.556264 220.730526
L 312.208019 220.964853
L 314.859774 221.19918
L 317.511529 221.433506
L 320.163284 221.667833
L 322.815039 221.90216
L 325.466793 222.136486
L 328.118548 222.370813
L 330.770303 222.605139
L 333.422058 222.839466
L 336.073813 223.073793
" clip-path="url(#p4d49551729)" style="fill: none; stroke: #c71585; stroke-width: 1.5; stroke-linecap: square"/>
   </g>
   <g id="patch_3">
    <path d="M 60.423889 242.728
L 60.423889 25.44
" style="fill: none; stroke: #000000; stroke-width: 0.8; stroke-linejoin: miter; stroke-linecap: square"/>
   </g>
   <g id="patch_4">
    <path d="M 349.2 242.728
L 349.2 25.44
" style="fill: none; stroke: #000000; stroke-width: 0.8; stroke-linejoin: miter; stroke-linecap: square"/>
   </g>
   <g id="patch_5">
    <path d="M 60.423889 242.728
L 349.2 242.728
" style="fill: none; stroke: #000000; stroke-width: 0.8; stroke-linejoin: miter; stroke-linecap: square"/>
   </g>
   <g id="patch_6">
    <path d="M 60.423889 25.44
L 349.2 25.44
" style="fill: none; stroke: #000000; stroke-width: 0.8; stroke-linejoin: miter; stroke-linecap: square"/>
   </g>
   <g id="text_9">
    <!-- sys_assumed = 10% -->
    <g transform="translate(142.756007 19.44) scale(0.12 -0.12)">
     <defs>
      <path id="DejaVuSans-5f" d="M 3263 -1063
L 3263 -1509
L -63 -1509
L -63 -1063
L 3263 -1063
z
" transform="scale(0.015625)"/>
      <path id="DejaVuSans-61" d="M 2194 1759
Q 1497 1759 1228 1600
Q 959 1441 959 1056
Q 959 750 1161 570
Q 1363 391 1709 391
Q 2188 391 2477 730
Q 2766 1069 2766 1631
L 2766 1759
L 2194 1759
z
M 3341 1997
L 3341 0
L 2766 0
L 2766 531
Q 2569 213 2275 61
Q 1981 -91 1556 -91
Q 1019 -91 701 211
Q 384 513 384 1019
Q 384 1609 779 1909
Q 1175 2209 1959 2209
L 2766 2209
L 2766 2266
Q 2766 2663 2505 2880
Q 2244 3097 1772 3097
Q 1472 3097 1187 3025
Q 903 2953 641 2809
L 641 3341
Q 956 3463 1253 3523
Q 1550 3584 1831 3584
Q 2591 3584 2966 3190
Q 3341 2797 3341 1997
z
" transform="scale(0.015625)"/>
      <path id="DejaVuSans-75" d="M 544 1381
L 544 3500
L 1119 3500
L 1119 1403
Q 1119 906 1312 657
Q 1506 409 1894 409
Q 2359 409 2629 706
Q 2900 1003 2900 1516
L 2900 3500
L 3475 3500
L 3475 0
L 2900 0
L 2900 538
Q 2691 219 2414 64
Q 2138 -91 1772 -91
Q 1169 -91 856 284
Q 544 659 544 1381
z
M 1991 3584
L 1991 3584
z
" transform="scale(0.015625)"/>
      <path id="DejaVuSans-3d" d="M 678 2906
L 4684 2906
L 4684 2381
L 678 2381
L 678 2906
z
M 678 1631
L 4684 1631
L 4684 1100
L 678 1100
L 678 1631
z
" transform="scale(0.015625)"/>
      <path id="DejaVuSans-25" d="M 4653 2053
Q 4381 2053 4226 1822
Q 4072 1591 4072 1178
Q 4072 772 4226 539
Q 4381 306 4653 306
Q 4919 306 5073 539
Q 5228 772 5228 1178
Q 5228 1588 5073 1820
Q 4919 2053 4653 2053
z
M 4653 2450
Q 5147 2450 5437 2106
Q 5728 1763 5728 1178
Q 5728 594 5436 251
Q 5144 -91 4653 -91
Q 4153 -91 3862 251
Q 3572 594 3572 1178
Q 3572 1766 3864 2108
Q 4156 2450 4653 2450
z
M 1428 4353
Q 1159 4353 1004 4120
Q 850 3888 850 3481
Q 850 3069 1003 2837
Q 1156 2606 1428 2606
Q 1700 2606 1854 2837
Q 2009 3069 2009 3481
Q 2009 3884 1853 4118
Q 1697 4353 1428 4353
z
M 4250 4750
L 4750 4750
L 1831 -91
L 1331 -91
L 4250 4750
z
M 1428 4750
Q 1922 4750 2215 4408
Q 2509 4066 2509 3481
Q 2509 2891 2217 2550
Q 1925 2209 1428 2209
Q 931 2209 642 2551
Q 353 2894 353 3481
Q 353 4063 643 4406
Q 934 4750 1428 4750
z
" transform="scale(0.015625)"/>
     </defs>
     <use xlink:href="#DejaVuSans-73"/>
     <use xlink:href="#DejaVuSans-79" x="52.099609"/>
     <use xlink:href="#DejaVuSans-73" x="111.279297"/>
     <use xlink:href="#DejaVuSans-5f" x="163.378906"/>
     <use xlink:href="#DejaVuSans-61" x="213.378906"/>
     <use xlink:href="#DejaVuSans-73" x="274.658203"/>
     <use xlink:href="#DejaVuSans-73" x="326.757812"/>
     <use xlink:href="#DejaVuSans-75" x="378.857422"/>
     <use xlink:href="#DejaVuSans-6d" x="442.236328"/>
     <use xlink:href="#DejaVuSans-65" x="539.648438"/>
     <use xlink:href="#DejaVuSans-64" x="601.171875"/>
     <use xlink:href="#DejaVuSans-20" x="664.648438"/>
     <use xlink:href="#DejaVuSans-3d" x="696.435547"/>
     <use xlink:href="#DejaVuSans-20" x="780.224609"/>
     <use xlink:href="#DejaVuSans-31" x="812.011719"/>
     <use xlink:href="#DejaVuSans-30" x="875.634766"/>
     <use xlink:href="#DejaVuSans-25" x="939.257812"/>
    </g>
   </g>
   <g id="legend_1">
    <g id="patch_7">
     <path d="M 67.423889 237.728
L 209.964514 237.728
Q 211.964514 237.728 211.964514 235.728
L 211.964514 163.337375
Q 211.964514 161.337375 209.964514 161.337375
L 67.423889 161.337375
Q 65.423889 161.337375 65.423889 163.337375
L 65.423889 235.728
Q 65.423889 237.728 67.423889 237.728
z
" style="fill: #ffffff; opacity: 0.8; stroke: #cccccc; stroke-linejoin: miter"/>
    </g>
    <g id="line2d_60">
     <path d="M 69.423889 169.435812
L 79.423889 169.435812
L 89.423889 169.435812
" style="fill: none; stroke: #000000; stroke-linecap: square"/>
    </g>
    <g id="text_10">
     <!-- Input -->
     <g transform="translate(97.423889 172.935812) scale(0.1 -0.1)">
      <defs>
       <path id="DejaVuSans-49" d="M 628 4666
L 1259 4666
L 1259 0
L 628 0
L 628 4666
z
" transform="scale(0.015625)"/>
       <path id="DejaVuSans-70" d="M 1159 525
L 1159 -1331
L 581 -1331
L 581 3500
L 1159 3500
L 1159 2969
Q 1341 3281 1617 3432
Q 1894 3584 2278 3584
Q 2916 3584 3314 3078
Q 3713 2572 3713 1747
Q 3713 922 3314 415
Q 2916 -91 2278 -91
Q 1894 -91 1617 61
Q 1341 213 1159 525
z
M 3116 1747
Q 3116 2381 2855 2742
Q 2594 3103 2138 3103
Q 1681 3103 1420 2742
Q 1159 2381 1159 1747
Q 1159 1113 1420 752
Q 1681 391 2138 391
Q 2594 391 2855 752
Q 3116 1113 3116 1747
z
" transform="scale(0.015625)"/>
       <path id="DejaVuSans-74" d="M 1172 4494
L 1172 3500
L 2356 3500
L 2356 3053
L 1172 3053
L 1172 1153
Q 1172 725 1289 603
Q 1406 481 1766 481
L 2356 481
L 2356 0
L 1766 0
Q 1100 0 847 248
Q 594 497 594 1153
L 594 3053
L 172 3053
L 172 3500
L 594 3500
L 594 4494
L 1172 4494
z
" transform="scale(0.015625)"/>
      </defs>
      <use xlink:href="#DejaVuSans-49"/>
      <use xlink:href="#DejaVuSans-6e" x="29.492188"/>
      <use xlink:href="#DejaVuSans-70" x="92.871094"/>
      <use xlink:href="#DejaVuSans-75" x="156.347656"/>
      <use xlink:href="#DejaVuSans-74" x="219.726562"/>
     </g>
    </g>
    <g id="line2d_61">
     <path d="M 69.423889 184.113937
L 79.423889 184.113937
L 89.423889 184.113937
" style="fill: none; stroke-dasharray: 7.4,3.2; stroke-dashoffset: 0; stroke: #191970; stroke-opacity: 0.95; stroke-width: 2"/>
    </g>
    <g id="text_11">
     <!-- Best Fit with Nuisance -->
     <g transform="translate(97.423889 187.613937) scale(0.1 -0.1)">
      <defs>
       <path id="DejaVuSans-42" d="M 1259 2228
L 1259 519
L 2272 519
Q 2781 519 3026 730
Q 3272 941 3272 1375
Q 3272 1813 3026 2020
Q 2781 2228 2272 2228
L 1259 2228
z
M 1259 4147
L 1259 2741
L 2194 2741
Q 2656 2741 2882 2914
Q 3109 3088 3109 3444
Q 3109 3797 2882 3972
Q 2656 4147 2194 4147
L 1259 4147
z
M 628 4666
L 2241 4666
Q 2963 4666 3353 4366
Q 3744 4066 3744 3513
Q 3744 3084 3544 2831
Q 3344 2578 2956 2516
Q 3422 2416 3680 2098
Q 3938 1781 3938 1306
Q 3938 681 3513 340
Q 3088 0 2303 0
L 628 0
L 628 4666
z
" transform="scale(0.015625)"/>
       <path id="DejaVuSans-46" d="M 628 4666
L 3309 4666
L 3309 4134
L 1259 4134
L 1259 2759
L 3109 2759
L 3109 2228
L 1259 2228
L 1259 0
L 628 0
L 628 4666
z
" transform="scale(0.015625)"/>
       <path id="DejaVuSans-69" d="M 603 3500
L 1178 3500
L 1178 0
L 603 0
L 603 3500
z
M 603 4863
L 1178 4863
L 1178 4134
L 603 4134
L 603 4863
z
" transform="scale(0.015625)"/>
       <path id="DejaVuSans-77" d="M 269 3500
L 844 3500
L 1563 769
L 2278 3500
L 2956 3500
L 3675 769
L 4391 3500
L 4966 3500
L 4050 0
L 3372 0
L 2619 2869
L 1863 0
L 1184 0
L 269 3500
z
" transform="scale(0.015625)"/>
       <path id="DejaVuSans-68" d="M 3513 2113
L 3513 0
L 2938 0
L 2938 2094
Q 2938 2591 2744 2837
Q 2550 3084 2163 3084
Q 1697 3084 1428 2787
Q 1159 2491 1159 1978
L 1159 0
L 581 0
L 581 4863
L 1159 4863
L 1159 2956
Q 1366 3272 1645 3428
Q 1925 3584 2291 3584
Q 2894 3584 3203 3211
Q 3513 2838 3513 2113
z
" transform="scale(0.015625)"/>
       <path id="DejaVuSans-4e" d="M 628 4666
L 1478 4666
L 3547 763
L 3547 4666
L 4159 4666
L 4159 0
L 3309 0
L 1241 3903
L 1241 0
L 628 0
L 628 4666
z
" transform="scale(0.015625)"/>
      </defs>
      <use xlink:href="#DejaVuSans-42"/>
      <use xlink:href="#DejaVuSans-65" x="68.603516"/>
      <use xlink:href="#DejaVuSans-73" x="130.126953"/>
      <use xlink:href="#DejaVuSans-74" x="182.226562"/>
      <use xlink:href="#DejaVuSans-20" x="221.435547"/>
      <use xlink:href="#DejaVuSans-46" x="253.222656"/>
      <use xlink:href="#DejaVuSans-69" x="303.492188"/>
      <use xlink:href="#DejaVuSans-74" x="331.275391"/>
      <use xlink:href="#DejaVuSans-20" x="370.484375"/>
      <use xlink:href="#DejaVuSans-77" x="402.271484"/>
      <use xlink:href="#DejaVuSans-69" x="484.058594"/>
      <use xlink:href="#DejaVuSans-74" x="511.841797"/>
      <use xlink:href="#DejaVuSans-68" x="551.050781"/>
      <use xlink:href="#DejaVuSans-20" x="614.429688"/>
      <use xlink:href="#DejaVuSans-4e" x="646.216797"/>
      <use xlink:href="#DejaVuSans-75" x="721.021484"/>
      <use xlink:href="#DejaVuSans-69" x="784.400391"/>
      <use xlink:href="#DejaVuSans-73" x="812.183594"/>
      <use xlink:href="#DejaVuSans-61" x="864.283203"/>
      <use xlink:href="#DejaVuSans-6e" x="925.5625"/>
      <use xlink:href="#DejaVuSans-63" x="988.941406"/>
      <use xlink:href="#DejaVuSans-65" x="1043.921875"/>
     </g>
    </g>
    <g id="patch_8">
     <path d="M 69.423889 202.292062
L 89.423889 202.292062
L 89.423889 195.292062
L 69.423889 195.292062
z
" style="fill: #6495ed; fill-opacity: 0.5"/>
    </g>
    <g id="text_12">
     <!-- 1$\,\sigma_{tot}$ -->
     <g transform="translate(97.423889 202.292062) scale(0.1 -0.1)">
      <defs>
       <path id="DejaVuSans-Oblique-3c3" d="M 2219 3044
Q 1744 3044 1422 2700
Q 1081 2341 969 1747
Q 844 1119 1044 756
Q 1241 397 1706 397
Q 2166 397 2503 759
Q 2844 1122 2966 1747
Q 3075 2319 2881 2700
Q 2700 3044 2219 3044
z
M 2309 3503
L 4219 3500
L 4106 2925
L 3463 2925
Q 3706 2438 3575 1747
Q 3406 888 2884 400
Q 2359 -91 1609 -91
Q 856 -91 525 400
Q 194 888 363 1747
Q 528 2609 1050 3097
Q 1484 3503 2309 3503
z
" transform="scale(0.015625)"/>
       <path id="DejaVuSans-Oblique-74" d="M 2706 3500
L 2619 3053
L 1472 3053
L 1100 1153
Q 1081 1047 1072 975
Q 1063 903 1063 863
Q 1063 663 1183 572
Q 1303 481 1569 481
L 2150 481
L 2053 0
L 1503 0
Q 991 0 739 200
Q 488 400 488 806
Q 488 878 497 964
Q 506 1050 525 1153
L 897 3053
L 409 3053
L 500 3500
L 978 3500
L 1172 4494
L 1747 4494
L 1556 3500
L 2706 3500
z
" transform="scale(0.015625)"/>
       <path id="DejaVuSans-Oblique-6f" d="M 1625 -91
Q 1009 -91 651 289
Q 294 669 294 1325
Q 294 1706 417 2101
Q 541 2497 738 2766
Q 1047 3184 1428 3384
Q 1809 3584 2291 3584
Q 2888 3584 3255 3212
Q 3622 2841 3622 2241
Q 3622 1825 3500 1412
Q 3378 1000 3181 728
Q 2875 309 2494 109
Q 2113 -91 1625 -91
z
M 891 1344
Q 891 869 1089 633
Q 1288 397 1691 397
Q 2269 397 2648 901
Q 3028 1406 3028 2181
Q 3028 2634 2825 2865
Q 2622 3097 2228 3097
Q 1903 3097 1650 2945
Q 1397 2794 1197 2484
Q 1050 2253 970 1956
Q 891 1659 891 1344
z
" transform="scale(0.015625)"/>
      </defs>
      <use xlink:href="#DejaVuSans-31" transform="translate(0 0.09375)"/>
      <use xlink:href="#DejaVuSans-Oblique-3c3" transform="translate(79.858723 0.09375)"/>
      <use xlink:href="#DejaVuSans-Oblique-74" transform="translate(143.237629 -16.3125) scale(0.7)"/>
      <use xlink:href="#DejaVuSans-Oblique-6f" transform="translate(170.683918 -16.3125) scale(0.7)"/>
      <use xlink:href="#DejaVuSans-Oblique-74" transform="translate(213.511067 -16.3125) scale(0.7)"/>
     </g>
    </g>
    <g id="line2d_62">
     <path d="M 69.423889 213.470187
L 79.423889 213.470187
L 89.423889 213.470187
" style="fill: none; stroke: #c71585; stroke-width: 1.5; stroke-linecap: square"/>
    </g>
    <g id="text_13">
     <!-- Best Fit -->
     <g transform="translate(97.423889 216.970187) scale(0.1 -0.1)">
      <use xlink:href="#DejaVuSans-42"/>
      <use xlink:href="#DejaVuSans-65" x="68.603516"/>
      <use xlink:href="#DejaVuSans-73" x="130.126953"/>
      <use xlink:href="#DejaVuSans-74" x="182.226562"/>
      <use xlink:href="#DejaVuSans-20" x="221.435547"/>
      <use xlink:href="#DejaVuSans-46" x="253.222656"/>
      <use xlink:href="#DejaVuSans-69" x="303.492188"/>
      <use xlink:href="#DejaVuSans-74" x="331.275391"/>
     </g>
    </g>
    <g id="patch_9">
     <path d="M 69.423889 231.648312
L 89.423889 231.648312
L 89.423889 224.648312
L 69.423889 224.648312
z
" style="fill: #db7093; fill-opacity: 0.9"/>
    </g>
    <g id="text_14">
     <!-- 1$\,\sigma_{stat}$ -->
     <g transform="translate(97.423889 231.648312) scale(0.1 -0.1)">
      <defs>
       <path id="DejaVuSans-Oblique-73" d="M 3200 3397
L 3091 2853
Q 2863 2978 2609 3040
Q 2356 3103 2088 3103
Q 1634 3103 1373 2948
Q 1113 2794 1113 2528
Q 1113 2219 1719 2053
Q 1766 2041 1788 2034
L 1972 1978
Q 2547 1819 2739 1644
Q 2931 1469 2931 1166
Q 2931 609 2489 259
Q 2047 -91 1331 -91
Q 1053 -91 747 -37
Q 441 16 72 128
L 184 722
Q 500 559 806 475
Q 1113 391 1394 391
Q 1816 391 2080 572
Q 2344 753 2344 1031
Q 2344 1331 1650 1516
L 1591 1531
L 1394 1581
Q 956 1697 753 1886
Q 550 2075 550 2369
Q 550 2928 970 3256
Q 1391 3584 2113 3584
Q 2397 3584 2667 3537
Q 2938 3491 3200 3397
z
" transform="scale(0.015625)"/>
       <path id="DejaVuSans-Oblique-61" d="M 3438 1997
L 3047 0
L 2472 0
L 2578 531
Q 2325 219 2001 64
Q 1678 -91 1281 -91
Q 834 -91 548 182
Q 263 456 263 884
Q 263 1497 752 1853
Q 1241 2209 2100 2209
L 2900 2209
L 2931 2363
Q 2938 2388 2941 2417
Q 2944 2447 2944 2509
Q 2944 2788 2717 2942
Q 2491 3097 2081 3097
Q 1800 3097 1504 3025
Q 1209 2953 897 2809
L 997 3341
Q 1322 3463 1633 3523
Q 1944 3584 2234 3584
Q 2853 3584 3176 3315
Q 3500 3047 3500 2534
Q 3500 2431 3484 2292
Q 3469 2153 3438 1997
z
M 2816 1759
L 2241 1759
Q 1534 1759 1195 1570
Q 856 1381 856 984
Q 856 709 1029 553
Q 1203 397 1509 397
Q 1978 397 2328 733
Q 2678 1069 2791 1631
L 2816 1759
z
" transform="scale(0.015625)"/>
      </defs>
      <use xlink:href="#DejaVuSans-31" transform="translate(0 0.09375)"/>
      <use xlink:href="#DejaVuSans-Oblique-3c3" transform="translate(79.858723 0.09375)"/>
      <use xlink:href="#DejaVuSans-Oblique-73" transform="translate(143.237629 -16.3125) scale(0.7)"/>
      <use xlink:href="#DejaVuSans-Oblique-74" transform="translate(179.707356 -16.3125) scale(0.7)"/>
      <use xlink:href="#DejaVuSans-Oblique-61" transform="translate(207.153645 -16.3125) scale(0.7)"/>
      <use xlink:href="#DejaVuSans-Oblique-74" transform="translate(250.049153 -16.3125) scale(0.7)"/>
     </g>
    </g>
   </g>
  </g>
 </g>
 <defs>
  <clipPath id="p4d49551729">
   <rect x="60.423889" y="25.44" width="288.776111" height="217.288"/>
  </clipPath>
 </defs>
</svg>
