<?xml version="1.0" encoding="utf-8" standalone="no"?>
<!DOCTYPE svg PUBLIC "-//W3C//DTD SVG 1.1//EN"
  "http://www.w3.org/Graphics/SVG/1.1/DTD/svg11.dtd">
<svg xmlns:xlink="http://www.w3.org/1999/xlink" width="360pt" height="288pt" viewBox="0 0 360 288" xmlns="http://www.w3.org/2000/svg" version="1.1">
 <metadata>
  <rdf:RDF xmlns:dc="http://purl.org/dc/elements/1.1/" xmlns:cc="http://creativecommons.org/ns#" xmlns:rdf="http://www.w3.org/1999/02/22-rdf-syntax-ns#">
   <cc:Work>
    <dc:type rdf:resource="http://purl.org/dc/dcmitype/StillImage"/>
    <dc:date>2023-05-04T14:06:01.405179</dc:date>
    <dc:format>image/svg+xml</dc:format>
    <dc:creator>
     <cc:Agent>
      <dc:title>Matplotlib v3.7.1, https://matplotlib.org/</dc:title>
     </cc:Agent>
    </dc:creator>
   </cc:Work>
  </rdf:RDF>
 </metadata>
 <defs>
  <style type="text/css">*{stroke-linejoin: round; stroke-linecap: butt}</style>
 </defs>
 <g id="figure_1">
  <g id="patch_1">
   <path d="M 0 288 
L 360 288 
L 360 0 
L 0 0 
z
" style="fill: #ffffff"/>
  </g>
  <g id="axes_1">
   <g id="patch_2">
    <path d="M 60.423889 242.728 
L 349.2 242.728 
L 349.2 25.44 
L 60.423889 25.44 
z
" style="fill: #ffffff"/>
   </g>
   <g id="PolyCollection_1">
    <path d="M 73.550076 188.929513 
L 73.550076 197.520305 
L 76.201831 197.694846 
L 78.853586 197.869671 
L 81.505341 198.044783 
L 84.157096 198.220182 
L 86.808851 198.395872 
L 89.460606 198.571853 
L 92.112361 198.748128 
L 94.764116 198.9247 
L 97.41587 199.10157 
L 100.067625 199.278743 
L 102.71938 199.456221 
L 105.371135 199.634008 
L 108.02289 199.812106 
L 110.674645 199.99052 
L 113.3264 200.169254 
L 115.978155 200.348313 
L 118.62991 200.5277 
L 121.281665 200.707422 
L 123.93342 200.887483 
L 126.585175 201.06789 
L 129.236929 201.248649 
L 131.888684 201.429766 
L 134.540439 201.611249 
L 137.192194 201.793106 
L 139.843949 201.975343 
L 142.495704 202.157972 
L 145.147459 202.341 
L 147.799214 202.524438 
L 150.450969 202.708296 
L 153.102724 202.892587 
L 155.754479 203.077322 
L 158.406234 203.262516 
L 161.057989 203.448181 
L 163.709743 203.634333 
L 166.361498 203.820989 
L 169.013253 204.008165 
L 171.665008 204.195881 
L 174.316763 204.384156 
L 176.968518 204.573011 
L 179.620273 204.76247 
L 182.272028 204.952557 
L 184.923783 205.143297 
L 187.575538 205.334719 
L 190.227293 205.526852 
L 192.879048 205.719729 
L 195.530802 205.913384 
L 198.182557 206.107852 
L 200.834312 206.303172 
L 203.486067 206.499386 
L 206.137822 206.696536 
L 208.789577 206.894671 
L 211.441332 207.093838 
L 214.093087 207.294089 
L 216.744842 207.49548 
L 219.396597 207.698067 
L 222.048352 207.901911 
L 224.700107 208.107073 
L 227.351861 208.313621 
L 230.003616 208.521619 
L 232.655371 208.731137 
L 235.307126 208.942246 
L 237.958881 209.155016 
L 240.610636 209.369517 
L 243.262391 209.585821 
L 245.914146 209.803997 
L 248.565901 210.02411 
L 251.217656 210.246224 
L 253.869411 210.470399 
L 256.521166 210.696687 
L 259.172921 210.925135 
L 261.824675 211.155784 
L 264.47643 211.388665 
L 267.128185 211.623802 
L 269.77994 211.861207 
L 272.431695 212.10084 
L 275.08345 212.330962 
L 277.735205 216.730537 
L 280.38696 48856.749433 
L 283.038715 48856.749433 
L 285.69047 48856.749433 
L 288.342225 48856.749433 
L 290.99398 48856.749433 
L 293.645734 48856.749433 
L 296.297489 232.851273 
L 298.949244 214.605486 
L 301.600999 214.879546 
L 304.252754 215.143748 
L 306.904509 215.409597 
L 309.556264 215.677021 
L 312.208019 215.945953 
L 314.859774 216.216322 
L 317.511529 216.488063 
L 320.163284 216.761111 
L 322.815039 217.035403 
L 325.466793 217.310881 
L 328.118548 217.587487 
L 330.770303 217.865168 
L 333.422058 218.143871 
L 336.073813 218.423548 
L 336.073813 214.533708 
L 336.073813 214.533708 
L 333.422058 214.329924 
L 330.770303 214.125445 
L 328.118548 213.920222 
L 325.466793 213.714203 
L 322.815039 213.507334 
L 320.163284 213.299559 
L 317.511529 213.090817 
L 314.859774 212.881045 
L 312.208019 212.67018 
L 309.556264 212.458154 
L 306.904509 212.244899 
L 304.252754 212.030344 
L 301.600999 211.814421 
L 298.949244 211.606917 
L 296.297489 202.529121 
L 293.645734 134.904638 
L 290.99398 98.73447 
L 288.342225 105.195414 
L 285.69047 100.688553 
L 283.038715 141.388091 
L 280.38696 168.143469 
L 277.735205 206.618398 
L 275.08345 209.574733 
L 272.431695 209.329986 
L 269.77994 209.092816 
L 267.128185 208.853688 
L 264.47643 208.612567 
L 261.824675 208.369467 
L 259.172921 208.124411 
L 256.521166 207.877431 
L 253.869411 207.628566 
L 251.217656 207.377863 
L 248.565901 207.125377 
L 245.914146 206.871167 
L 243.262391 206.615295 
L 240.610636 206.357828 
L 237.958881 206.098836 
L 235.307126 205.838388 
L 232.655371 205.576556 
L 230.003616 205.313411 
L 227.351861 205.049024 
L 224.700107 204.783463 
L 222.048352 204.516795 
L 219.396597 204.249085 
L 216.744842 203.980397 
L 214.093087 203.710791 
L 211.441332 203.440324 
L 208.789577 203.169051 
L 206.137822 202.897024 
L 203.486067 202.624293 
L 200.834312 202.350904 
L 198.182557 202.076902 
L 195.530802 201.802327 
L 192.879048 201.527219 
L 190.227293 201.251614 
L 187.575538 200.975546 
L 184.923783 200.699048 
L 182.272028 200.42215 
L 179.620273 200.14488 
L 176.968518 199.867265 
L 174.316763 199.589329 
L 171.665008 199.311096 
L 169.013253 199.032587 
L 166.361498 198.753822 
L 163.709743 198.474821 
L 161.057989 198.195601 
L 158.406234 197.91618 
L 155.754479 197.636572 
L 153.102724 197.356792 
L 150.450969 197.076855 
L 147.799214 196.796772 
L 145.147459 196.516556 
L 142.495704 196.236219 
L 139.843949 195.95577 
L 137.192194 195.67522 
L 134.540439 195.394578 
L 131.888684 195.113853 
L 129.236929 194.833054 
L 126.585175 194.552187 
L 123.93342 194.271261 
L 121.281665 193.990282 
L 118.62991 193.709257 
L 115.978155 193.428191 
L 113.3264 193.147091 
L 110.674645 192.865962 
L 108.02289 192.584809 
L 105.371135 192.303637 
L 102.71938 192.022451 
L 100.067625 191.741254 
L 97.41587 191.460051 
L 94.764116 191.178846 
L 92.112361 190.897641 
L 89.460606 190.616442 
L 86.808851 190.335251 
L 84.157096 190.05407 
L 81.505341 189.772903 
L 78.853586 189.491753 
L 76.201831 189.210623 
L 73.550076 188.929513 
z
" clip-path="url(#p3296e9b8bd)" style="fill: #6495ed; fill-opacity: 0.5"/>
   </g>
   <g id="PolyCollection_2">
    <path d="M 73.550076 187.588185 
L 73.550076 199.588615 
L 76.201831 199.767311 
L 78.853586 199.946275 
L 81.505341 200.125507 
L 84.157096 200.305006 
L 86.808851 200.484774 
L 89.460606 200.664812 
L 92.112361 200.845119 
L 94.764116 201.025698 
L 97.41587 201.206548 
L 100.067625 201.387671 
L 102.71938 201.569068 
L 105.371135 201.75074 
L 108.02289 201.932688 
L 110.674645 202.114913 
L 113.3264 202.297416 
L 115.978155 202.4802 
L 118.62991 202.663265 
L 121.281665 202.846613 
L 123.93342 203.030245 
L 126.585175 203.214164 
L 129.236929 203.398371 
L 131.888684 203.582869 
L 134.540439 203.767659 
L 137.192194 203.952743 
L 139.843949 204.138124 
L 142.495704 204.323803 
L 145.147459 204.509784 
L 147.799214 204.69607 
L 150.450969 204.882662 
L 153.102724 205.069563 
L 155.754479 205.256777 
L 158.406234 205.444307 
L 161.057989 205.632156 
L 163.709743 205.820327 
L 166.361498 206.008824 
L 169.013253 206.19765 
L 171.665008 206.38681 
L 174.316763 206.576307 
L 176.968518 206.766146 
L 179.620273 206.95633 
L 182.272028 207.146865 
L 184.923783 207.337755 
L 187.575538 207.529004 
L 190.227293 207.720619 
L 192.879048 207.912604 
L 195.530802 208.104964 
L 198.182557 208.297706 
L 200.834312 208.490836 
L 203.486067 208.684359 
L 206.137822 208.878281 
L 208.789577 209.07261 
L 211.441332 209.267352 
L 214.093087 209.462515 
L 216.744842 209.658105 
L 219.396597 209.854131 
L 222.048352 210.0506 
L 224.700107 210.24752 
L 227.351861 210.4449 
L 230.003616 210.642748 
L 232.655371 210.841073 
L 235.307126 211.039886 
L 237.958881 211.239195 
L 240.610636 211.43901 
L 243.262391 211.639341 
L 245.914146 211.840199 
L 248.565901 212.041596 
L 251.217656 212.243541 
L 253.869411 212.446046 
L 256.521166 212.649123 
L 259.172921 212.852785 
L 261.824675 213.057043 
L 264.47643 213.26191 
L 267.128185 213.4674 
L 269.77994 213.673518 
L 272.431695 213.877296 
L 275.08345 213.434703 
L 277.735205 48856.749433 
L 280.38696 48856.749433 
L 283.038715 48856.749433 
L 285.69047 48856.749433 
L 288.342225 48856.749433 
L 290.99398 48856.749433 
L 293.645734 48856.749433 
L 296.297489 48856.749433 
L 298.949244 216.320185 
L 301.600999 216.20181 
L 304.252754 216.417437 
L 306.904509 216.633975 
L 309.556264 216.851369 
L 312.208019 217.069636 
L 314.859774 217.28879 
L 317.511529 217.508845 
L 320.163284 217.729816 
L 322.815039 217.951717 
L 325.466793 218.174561 
L 328.118548 218.398362 
L 330.770303 218.623132 
L 333.422058 218.848883 
L 336.073813 219.075627 
L 336.073813 214.000966 
L 336.073813 214.000966 
L 333.422058 213.752851 
L 330.770303 213.503964 
L 328.118548 213.254317 
L 325.466793 213.003922 
L 322.815039 212.752791 
L 320.163284 212.500938 
L 317.511529 212.248376 
L 314.859774 211.995119 
L 312.208019 211.741183 
L 309.556264 211.486581 
L 306.904509 211.231328 
L 304.252754 210.97544 
L 301.600999 210.718879 
L 298.949244 210.207395 
L 296.297489 165.70711 
L 293.645734 81.012414 
L 290.99398 36.89723 
L 288.342225 48.702744 
L 285.69047 35.316727 
L 283.038715 54.211261 
L 280.38696 106.313918 
L 277.735205 179.076415 
L 275.08345 208.629637 
L 272.431695 207.863104 
L 269.77994 207.598096 
L 267.128185 207.334916 
L 264.47643 207.07133 
L 261.824675 206.807347 
L 259.172921 206.54298 
L 256.521166 206.278242 
L 253.869411 206.013147 
L 251.217656 205.747705 
L 248.565901 205.48193 
L 245.914146 205.215832 
L 243.262391 204.949425 
L 240.610636 204.682717 
L 237.958881 204.415721 
L 235.307126 204.148447 
L 232.655371 203.880905 
L 230.003616 203.613106 
L 227.351861 203.345058 
L 224.700107 203.076771 
L 222.048352 202.808255 
L 219.396597 202.539517 
L 216.744842 202.270567 
L 214.093087 202.001413 
L 211.441332 201.732063 
L 208.789577 201.462524 
L 206.137822 201.192805 
L 203.486067 200.922912 
L 200.834312 200.652852 
L 198.182557 200.382632 
L 195.530802 200.11226 
L 192.879048 199.84174 
L 190.227293 199.57108 
L 187.575538 199.300285 
L 184.923783 199.029362 
L 182.272028 198.758315 
L 179.620273 198.48715 
L 176.968518 198.215872 
L 174.316763 197.944486 
L 171.665008 197.672998 
L 169.013253 197.401411 
L 166.361498 197.129731 
L 163.709743 196.857962 
L 161.057989 196.586107 
L 158.406234 196.314172 
L 155.754479 196.04216 
L 153.102724 195.770074 
L 150.450969 195.49792 
L 147.799214 195.225699 
L 145.147459 194.953416 
L 142.495704 194.681074 
L 139.843949 194.408677 
L 137.192194 194.136226 
L 134.540439 193.863727 
L 131.888684 193.59118 
L 129.236929 193.31859 
L 126.585175 193.045958 
L 123.93342 192.773288 
L 121.281665 192.500582 
L 118.62991 192.227842 
L 115.978155 191.955072 
L 113.3264 191.682272 
L 110.674645 191.409446 
L 108.02289 191.136596 
L 105.371135 190.863723 
L 102.71938 190.59083 
L 100.067625 190.317919 
L 97.41587 190.044991 
L 94.764116 189.772049 
L 92.112361 189.499094 
L 89.460606 189.226127 
L 86.808851 188.953152 
L 84.157096 188.680168 
L 81.505341 188.407178 
L 78.853586 188.134183 
L 76.201831 187.861185 
L 73.550076 187.588185 
z
" clip-path="url(#p3296e9b8bd)" style="fill: #db7093; fill-opacity: 0.9"/>
   </g>
   <g id="matplotlib.axis_1">
    <g id="xtick_1">
     <g id="line2d_1">
      <defs>
       <path id="m647377fc2a" d="M 0 0 
L 0 3.5 
" style="stroke: #000000; stroke-width: 0.8"/>
      </defs>
      <g>
       <use xlink:href="#m647377fc2a" x="72.224199" y="242.728" style="stroke: #000000; stroke-width: 0.8"/>
      </g>
     </g>
     <g id="text_1">
      <!-- $\mathdefault{10^{-1}}$ -->
      <g transform="translate(60.474199 257.326437) scale(0.1 -0.1)">
       <defs>
        <path id="DejaVuSans-31" d="M 794 531 
L 1825 531 
L 1825 4091 
L 703 3866 
L 703 4441 
L 1819 4666 
L 2450 4666 
L 2450 531 
L 3481 531 
L 3481 0 
L 794 0 
L 794 531 
z
" transform="scale(0.015625)"/>
        <path id="DejaVuSans-30" d="M 2034 4250 
Q 1547 4250 1301 3770 
Q 1056 3291 1056 2328 
Q 1056 1369 1301 889 
Q 1547 409 2034 409 
Q 2525 409 2770 889 
Q 3016 1369 3016 2328 
Q 3016 3291 2770 3770 
Q 2525 4250 2034 4250 
z
M 2034 4750 
Q 2819 4750 3233 4129 
Q 3647 3509 3647 2328 
Q 3647 1150 3233 529 
Q 2819 -91 2034 -91 
Q 1250 -91 836 529 
Q 422 1150 422 2328 
Q 422 3509 836 4129 
Q 1250 4750 2034 4750 
z
" transform="scale(0.015625)"/>
        <path id="DejaVuSans-2212" d="M 678 2272 
L 4684 2272 
L 4684 1741 
L 678 1741 
L 678 2272 
z
" transform="scale(0.015625)"/>
       </defs>
       <use xlink:href="#DejaVuSans-31" transform="translate(0 0.684375)"/>
       <use xlink:href="#DejaVuSans-30" transform="translate(63.623047 0.684375)"/>
       <use xlink:href="#DejaVuSans-2212" transform="translate(128.203125 38.965625) scale(0.7)"/>
       <use xlink:href="#DejaVuSans-31" transform="translate(186.855469 38.965625) scale(0.7)"/>
      </g>
     </g>
    </g>
    <g id="xtick_2">
     <g id="line2d_2">
      <g>
       <use xlink:href="#m647377fc2a" x="237.745773" y="242.728" style="stroke: #000000; stroke-width: 0.8"/>
      </g>
     </g>
     <g id="text_2">
      <!-- $\mathdefault{10^{0}}$ -->
      <g transform="translate(228.945773 257.326437) scale(0.1 -0.1)">
       <use xlink:href="#DejaVuSans-31" transform="translate(0 0.765625)"/>
       <use xlink:href="#DejaVuSans-30" transform="translate(63.623047 0.765625)"/>
       <use xlink:href="#DejaVuSans-30" transform="translate(128.203125 39.046875) scale(0.7)"/>
      </g>
     </g>
    </g>
    <g id="xtick_3">
     <g id="line2d_3">
      <defs>
       <path id="m8701fa5e14" d="M 0 0 
L 0 2 
" style="stroke: #000000; stroke-width: 0.6"/>
      </defs>
      <g>
       <use xlink:href="#m8701fa5e14" x="64.650347" y="242.728" style="stroke: #000000; stroke-width: 0.6"/>
      </g>
     </g>
    </g>
    <g id="xtick_4">
     <g id="line2d_4">
      <g>
       <use xlink:href="#m8701fa5e14" x="122.051158" y="242.728" style="stroke: #000000; stroke-width: 0.6"/>
      </g>
     </g>
    </g>
    <g id="xtick_5">
     <g id="line2d_5">
      <g>
       <use xlink:href="#m8701fa5e14" x="151.19806" y="242.728" style="stroke: #000000; stroke-width: 0.6"/>
      </g>
     </g>
    </g>
    <g id="xtick_6">
     <g id="line2d_6">
      <g>
       <use xlink:href="#m8701fa5e14" x="171.878116" y="242.728" style="stroke: #000000; stroke-width: 0.6"/>
      </g>
     </g>
    </g>
    <g id="xtick_7">
     <g id="line2d_7">
      <g>
       <use xlink:href="#m8701fa5e14" x="187.918814" y="242.728" style="stroke: #000000; stroke-width: 0.6"/>
      </g>
     </g>
    </g>
    <g id="xtick_8">
     <g id="line2d_8">
      <g>
       <use xlink:href="#m8701fa5e14" x="201.025019" y="242.728" style="stroke: #000000; stroke-width: 0.6"/>
      </g>
     </g>
    </g>
    <g id="xtick_9">
     <g id="line2d_9">
      <g>
       <use xlink:href="#m8701fa5e14" x="212.106157" y="242.728" style="stroke: #000000; stroke-width: 0.6"/>
      </g>
     </g>
    </g>
    <g id="xtick_10">
     <g id="line2d_10">
      <g>
       <use xlink:href="#m8701fa5e14" x="221.705075" y="242.728" style="stroke: #000000; stroke-width: 0.6"/>
      </g>
     </g>
    </g>
    <g id="xtick_11">
     <g id="line2d_11">
      <g>
       <use xlink:href="#m8701fa5e14" x="230.171921" y="242.728" style="stroke: #000000; stroke-width: 0.6"/>
      </g>
     </g>
    </g>
    <g id="xtick_12">
     <g id="line2d_12">
      <g>
       <use xlink:href="#m8701fa5e14" x="287.572732" y="242.728" style="stroke: #000000; stroke-width: 0.6"/>
      </g>
     </g>
    </g>
    <g id="xtick_13">
     <g id="line2d_13">
      <g>
       <use xlink:href="#m8701fa5e14" x="316.719634" y="242.728" style="stroke: #000000; stroke-width: 0.6"/>
      </g>
     </g>
    </g>
    <g id="xtick_14">
     <g id="line2d_14">
      <g>
       <use xlink:href="#m8701fa5e14" x="337.399691" y="242.728" style="stroke: #000000; stroke-width: 0.6"/>
      </g>
     </g>
    </g>
    <g id="text_3">
     <!-- Energy [TeV] -->
     <g transform="translate(173.114288 271.004562) scale(0.1 -0.1)">
      <defs>
       <path id="DejaVuSans-45" d="M 628 4666 
L 3578 4666 
L 3578 4134 
L 1259 4134 
L 1259 2753 
L 3481 2753 
L 3481 2222 
L 1259 2222 
L 1259 531 
L 3634 531 
L 3634 0 
L 628 0 
L 628 4666 
z
" transform="scale(0.015625)"/>
       <path id="DejaVuSans-6e" d="M 3513 2113 
L 3513 0 
L 2938 0 
L 2938 2094 
Q 2938 2591 2744 2837 
Q 2550 3084 2163 3084 
Q 1697 3084 1428 2787 
Q 1159 2491 1159 1978 
L 1159 0 
L 581 0 
L 581 3500 
L 1159 3500 
L 1159 2956 
Q 1366 3272 1645 3428 
Q 1925 3584 2291 3584 
Q 2894 3584 3203 3211 
Q 3513 2838 3513 2113 
z
" transform="scale(0.015625)"/>
       <path id="DejaVuSans-65" d="M 3597 1894 
L 3597 1613 
L 953 1613 
Q 991 1019 1311 708 
Q 1631 397 2203 397 
Q 2534 397 2845 478 
Q 3156 559 3463 722 
L 3463 178 
Q 3153 47 2828 -22 
Q 2503 -91 2169 -91 
Q 1331 -91 842 396 
Q 353 884 353 1716 
Q 353 2575 817 3079 
Q 1281 3584 2069 3584 
Q 2775 3584 3186 3129 
Q 3597 2675 3597 1894 
z
M 3022 2063 
Q 3016 2534 2758 2815 
Q 2500 3097 2075 3097 
Q 1594 3097 1305 2825 
Q 1016 2553 972 2059 
L 3022 2063 
z
" transform="scale(0.015625)"/>
       <path id="DejaVuSans-72" d="M 2631 2963 
Q 2534 3019 2420 3045 
Q 2306 3072 2169 3072 
Q 1681 3072 1420 2755 
Q 1159 2438 1159 1844 
L 1159 0 
L 581 0 
L 581 3500 
L 1159 3500 
L 1159 2956 
Q 1341 3275 1631 3429 
Q 1922 3584 2338 3584 
Q 2397 3584 2469 3576 
Q 2541 3569 2628 3553 
L 2631 2963 
z
" transform="scale(0.015625)"/>
       <path id="DejaVuSans-67" d="M 2906 1791 
Q 2906 2416 2648 2759 
Q 2391 3103 1925 3103 
Q 1463 3103 1205 2759 
Q 947 2416 947 1791 
Q 947 1169 1205 825 
Q 1463 481 1925 481 
Q 2391 481 2648 825 
Q 2906 1169 2906 1791 
z
M 3481 434 
Q 3481 -459 3084 -895 
Q 2688 -1331 1869 -1331 
Q 1566 -1331 1297 -1286 
Q 1028 -1241 775 -1147 
L 775 -588 
Q 1028 -725 1275 -790 
Q 1522 -856 1778 -856 
Q 2344 -856 2625 -561 
Q 2906 -266 2906 331 
L 2906 616 
Q 2728 306 2450 153 
Q 2172 0 1784 0 
Q 1141 0 747 490 
Q 353 981 353 1791 
Q 353 2603 747 3093 
Q 1141 3584 1784 3584 
Q 2172 3584 2450 3431 
Q 2728 3278 2906 2969 
L 2906 3500 
L 3481 3500 
L 3481 434 
z
" transform="scale(0.015625)"/>
       <path id="DejaVuSans-79" d="M 2059 -325 
Q 1816 -950 1584 -1140 
Q 1353 -1331 966 -1331 
L 506 -1331 
L 506 -850 
L 844 -850 
Q 1081 -850 1212 -737 
Q 1344 -625 1503 -206 
L 1606 56 
L 191 3500 
L 800 3500 
L 1894 763 
L 2988 3500 
L 3597 3500 
L 2059 -325 
z
" transform="scale(0.015625)"/>
       <path id="DejaVuSans-20" transform="scale(0.015625)"/>
       <path id="DejaVuSans-5b" d="M 550 4863 
L 1875 4863 
L 1875 4416 
L 1125 4416 
L 1125 -397 
L 1875 -397 
L 1875 -844 
L 550 -844 
L 550 4863 
z
" transform="scale(0.015625)"/>
       <path id="DejaVuSans-54" d="M -19 4666 
L 3928 4666 
L 3928 4134 
L 2272 4134 
L 2272 0 
L 1638 0 
L 1638 4134 
L -19 4134 
L -19 4666 
z
" transform="scale(0.015625)"/>
       <path id="DejaVuSans-56" d="M 1831 0 
L 50 4666 
L 709 4666 
L 2188 738 
L 3669 4666 
L 4325 4666 
L 2547 0 
L 1831 0 
z
" transform="scale(0.015625)"/>
       <path id="DejaVuSans-5d" d="M 1947 4863 
L 1947 -844 
L 622 -844 
L 622 -397 
L 1369 -397 
L 1369 4416 
L 622 4416 
L 622 4863 
L 1947 4863 
z
" transform="scale(0.015625)"/>
      </defs>
      <use xlink:href="#DejaVuSans-45"/>
      <use xlink:href="#DejaVuSans-6e" x="63.183594"/>
      <use xlink:href="#DejaVuSans-65" x="126.5625"/>
      <use xlink:href="#DejaVuSans-72" x="188.085938"/>
      <use xlink:href="#DejaVuSans-67" x="227.449219"/>
      <use xlink:href="#DejaVuSans-79" x="290.925781"/>
      <use xlink:href="#DejaVuSans-20" x="350.105469"/>
      <use xlink:href="#DejaVuSans-5b" x="381.892578"/>
      <use xlink:href="#DejaVuSans-54" x="420.90625"/>
      <use xlink:href="#DejaVuSans-65" x="464.990234"/>
      <use xlink:href="#DejaVuSans-56" x="526.513672"/>
      <use xlink:href="#DejaVuSans-5d" x="594.921875"/>
     </g>
    </g>
   </g>
   <g id="matplotlib.axis_2">
    <g id="ytick_1">
     <g id="line2d_15">
      <defs>
       <path id="m6b8df86080" d="M 0 0 
L -3.5 0 
" style="stroke: #000000; stroke-width: 0.8"/>
      </defs>
      <g>
       <use xlink:href="#m6b8df86080" x="60.423889" y="207.668869" style="stroke: #000000; stroke-width: 0.8"/>
      </g>
     </g>
     <g id="text_4">
      <!-- $\mathdefault{10^{-12}}$ -->
      <g transform="translate(25.523889 211.468088) scale(0.1 -0.1)">
       <defs>
        <path id="DejaVuSans-32" d="M 1228 531 
L 3431 531 
L 3431 0 
L 469 0 
L 469 531 
Q 828 903 1448 1529 
Q 2069 2156 2228 2338 
Q 2531 2678 2651 2914 
Q 2772 3150 2772 3378 
Q 2772 3750 2511 3984 
Q 2250 4219 1831 4219 
Q 1534 4219 1204 4116 
Q 875 4013 500 3803 
L 500 4441 
Q 881 4594 1212 4672 
Q 1544 4750 1819 4750 
Q 2544 4750 2975 4387 
Q 3406 4025 3406 3419 
Q 3406 3131 3298 2873 
Q 3191 2616 2906 2266 
Q 2828 2175 2409 1742 
Q 1991 1309 1228 531 
z
" transform="scale(0.015625)"/>
       </defs>
       <use xlink:href="#DejaVuSans-31" transform="translate(0 0.765625)"/>
       <use xlink:href="#DejaVuSans-30" transform="translate(63.623047 0.765625)"/>
       <use xlink:href="#DejaVuSans-2212" transform="translate(128.203125 39.046875) scale(0.7)"/>
       <use xlink:href="#DejaVuSans-31" transform="translate(186.855469 39.046875) scale(0.7)"/>
       <use xlink:href="#DejaVuSans-32" transform="translate(231.391602 39.046875) scale(0.7)"/>
      </g>
     </g>
    </g>
    <g id="ytick_2">
     <g id="line2d_16">
      <g>
       <use xlink:href="#m6b8df86080" x="60.423889" y="158.428909" style="stroke: #000000; stroke-width: 0.8"/>
      </g>
     </g>
     <g id="text_5">
      <!-- $\mathdefault{10^{-11}}$ -->
      <g transform="translate(25.523889 162.228127) scale(0.1 -0.1)">
       <use xlink:href="#DejaVuSans-31" transform="translate(0 0.684375)"/>
       <use xlink:href="#DejaVuSans-30" transform="translate(63.623047 0.684375)"/>
       <use xlink:href="#DejaVuSans-2212" transform="translate(128.203125 38.965625) scale(0.7)"/>
       <use xlink:href="#DejaVuSans-31" transform="translate(186.855469 38.965625) scale(0.7)"/>
       <use xlink:href="#DejaVuSans-31" transform="translate(231.391602 38.965625) scale(0.7)"/>
      </g>
     </g>
    </g>
    <g id="ytick_3">
     <g id="line2d_17">
      <g>
       <use xlink:href="#m6b8df86080" x="60.423889" y="109.188949" style="stroke: #000000; stroke-width: 0.8"/>
      </g>
     </g>
     <g id="text_6">
      <!-- $\mathdefault{10^{-10}}$ -->
      <g transform="translate(25.523889 112.988167) scale(0.1 -0.1)">
       <use xlink:href="#DejaVuSans-31" transform="translate(0 0.765625)"/>
       <use xlink:href="#DejaVuSans-30" transform="translate(63.623047 0.765625)"/>
       <use xlink:href="#DejaVuSans-2212" transform="translate(128.203125 39.046875) scale(0.7)"/>
       <use xlink:href="#DejaVuSans-31" transform="translate(186.855469 39.046875) scale(0.7)"/>
       <use xlink:href="#DejaVuSans-30" transform="translate(231.391602 39.046875) scale(0.7)"/>
      </g>
     </g>
    </g>
    <g id="ytick_4">
     <g id="line2d_18">
      <g>
       <use xlink:href="#m6b8df86080" x="60.423889" y="59.948989" style="stroke: #000000; stroke-width: 0.8"/>
      </g>
     </g>
     <g id="text_7">
      <!-- $\mathdefault{10^{-9}}$ -->
      <g transform="translate(29.923889 63.748207) scale(0.1 -0.1)">
       <defs>
        <path id="DejaVuSans-39" d="M 703 97 
L 703 672 
Q 941 559 1184 500 
Q 1428 441 1663 441 
Q 2288 441 2617 861 
Q 2947 1281 2994 2138 
Q 2813 1869 2534 1725 
Q 2256 1581 1919 1581 
Q 1219 1581 811 2004 
Q 403 2428 403 3163 
Q 403 3881 828 4315 
Q 1253 4750 1959 4750 
Q 2769 4750 3195 4129 
Q 3622 3509 3622 2328 
Q 3622 1225 3098 567 
Q 2575 -91 1691 -91 
Q 1453 -91 1209 -44 
Q 966 3 703 97 
z
M 1959 2075 
Q 2384 2075 2632 2365 
Q 2881 2656 2881 3163 
Q 2881 3666 2632 3958 
Q 2384 4250 1959 4250 
Q 1534 4250 1286 3958 
Q 1038 3666 1038 3163 
Q 1038 2656 1286 2365 
Q 1534 2075 1959 2075 
z
" transform="scale(0.015625)"/>
       </defs>
       <use xlink:href="#DejaVuSans-31" transform="translate(0 0.765625)"/>
       <use xlink:href="#DejaVuSans-30" transform="translate(63.623047 0.765625)"/>
       <use xlink:href="#DejaVuSans-2212" transform="translate(128.203125 39.046875) scale(0.7)"/>
       <use xlink:href="#DejaVuSans-39" transform="translate(186.855469 39.046875) scale(0.7)"/>
      </g>
     </g>
    </g>
    <g id="ytick_5">
     <g id="line2d_19">
      <defs>
       <path id="mea2d7f1afe" d="M 0 0 
L -2 0 
" style="stroke: #000000; stroke-width: 0.6"/>
      </defs>
      <g>
       <use xlink:href="#mea2d7f1afe" x="60.423889" y="242.086124" style="stroke: #000000; stroke-width: 0.6"/>
      </g>
     </g>
    </g>
    <g id="ytick_6">
     <g id="line2d_20">
      <g>
       <use xlink:href="#mea2d7f1afe" x="60.423889" y="233.415397" style="stroke: #000000; stroke-width: 0.6"/>
      </g>
     </g>
    </g>
    <g id="ytick_7">
     <g id="line2d_21">
      <g>
       <use xlink:href="#mea2d7f1afe" x="60.423889" y="227.263419" style="stroke: #000000; stroke-width: 0.6"/>
      </g>
     </g>
    </g>
    <g id="ytick_8">
     <g id="line2d_22">
      <g>
       <use xlink:href="#mea2d7f1afe" x="60.423889" y="222.491574" style="stroke: #000000; stroke-width: 0.6"/>
      </g>
     </g>
    </g>
    <g id="ytick_9">
     <g id="line2d_23">
      <g>
       <use xlink:href="#mea2d7f1afe" x="60.423889" y="218.592692" style="stroke: #000000; stroke-width: 0.6"/>
      </g>
     </g>
    </g>
    <g id="ytick_10">
     <g id="line2d_24">
      <g>
       <use xlink:href="#mea2d7f1afe" x="60.423889" y="215.296235" style="stroke: #000000; stroke-width: 0.6"/>
      </g>
     </g>
    </g>
    <g id="ytick_11">
     <g id="line2d_25">
      <g>
       <use xlink:href="#mea2d7f1afe" x="60.423889" y="212.440714" style="stroke: #000000; stroke-width: 0.6"/>
      </g>
     </g>
    </g>
    <g id="ytick_12">
     <g id="line2d_26">
      <g>
       <use xlink:href="#mea2d7f1afe" x="60.423889" y="209.921966" style="stroke: #000000; stroke-width: 0.6"/>
      </g>
     </g>
    </g>
    <g id="ytick_13">
     <g id="line2d_27">
      <g>
       <use xlink:href="#mea2d7f1afe" x="60.423889" y="192.846164" style="stroke: #000000; stroke-width: 0.6"/>
      </g>
     </g>
    </g>
    <g id="ytick_14">
     <g id="line2d_28">
      <g>
       <use xlink:href="#mea2d7f1afe" x="60.423889" y="184.175437" style="stroke: #000000; stroke-width: 0.6"/>
      </g>
     </g>
    </g>
    <g id="ytick_15">
     <g id="line2d_29">
      <g>
       <use xlink:href="#mea2d7f1afe" x="60.423889" y="178.023459" style="stroke: #000000; stroke-width: 0.6"/>
      </g>
     </g>
    </g>
    <g id="ytick_16">
     <g id="line2d_30">
      <g>
       <use xlink:href="#mea2d7f1afe" x="60.423889" y="173.251614" style="stroke: #000000; stroke-width: 0.6"/>
      </g>
     </g>
    </g>
    <g id="ytick_17">
     <g id="line2d_31">
      <g>
       <use xlink:href="#mea2d7f1afe" x="60.423889" y="169.352732" style="stroke: #000000; stroke-width: 0.6"/>
      </g>
     </g>
    </g>
    <g id="ytick_18">
     <g id="line2d_32">
      <g>
       <use xlink:href="#mea2d7f1afe" x="60.423889" y="166.056275" style="stroke: #000000; stroke-width: 0.6"/>
      </g>
     </g>
    </g>
    <g id="ytick_19">
     <g id="line2d_33">
      <g>
       <use xlink:href="#mea2d7f1afe" x="60.423889" y="163.200754" style="stroke: #000000; stroke-width: 0.6"/>
      </g>
     </g>
    </g>
    <g id="ytick_20">
     <g id="line2d_34">
      <g>
       <use xlink:href="#mea2d7f1afe" x="60.423889" y="160.682006" style="stroke: #000000; stroke-width: 0.6"/>
      </g>
     </g>
    </g>
    <g id="ytick_21">
     <g id="line2d_35">
      <g>
       <use xlink:href="#mea2d7f1afe" x="60.423889" y="143.606204" style="stroke: #000000; stroke-width: 0.6"/>
      </g>
     </g>
    </g>
    <g id="ytick_22">
     <g id="line2d_36">
      <g>
       <use xlink:href="#mea2d7f1afe" x="60.423889" y="134.935477" style="stroke: #000000; stroke-width: 0.6"/>
      </g>
     </g>
    </g>
    <g id="ytick_23">
     <g id="line2d_37">
      <g>
       <use xlink:href="#mea2d7f1afe" x="60.423889" y="128.783499" style="stroke: #000000; stroke-width: 0.6"/>
      </g>
     </g>
    </g>
    <g id="ytick_24">
     <g id="line2d_38">
      <g>
       <use xlink:href="#mea2d7f1afe" x="60.423889" y="124.011654" style="stroke: #000000; stroke-width: 0.6"/>
      </g>
     </g>
    </g>
    <g id="ytick_25">
     <g id="line2d_39">
      <g>
       <use xlink:href="#mea2d7f1afe" x="60.423889" y="120.112772" style="stroke: #000000; stroke-width: 0.6"/>
      </g>
     </g>
    </g>
    <g id="ytick_26">
     <g id="line2d_40">
      <g>
       <use xlink:href="#mea2d7f1afe" x="60.423889" y="116.816315" style="stroke: #000000; stroke-width: 0.6"/>
      </g>
     </g>
    </g>
    <g id="ytick_27">
     <g id="line2d_41">
      <g>
       <use xlink:href="#mea2d7f1afe" x="60.423889" y="113.960794" style="stroke: #000000; stroke-width: 0.6"/>
      </g>
     </g>
    </g>
    <g id="ytick_28">
     <g id="line2d_42">
      <g>
       <use xlink:href="#mea2d7f1afe" x="60.423889" y="111.442046" style="stroke: #000000; stroke-width: 0.6"/>
      </g>
     </g>
    </g>
    <g id="ytick_29">
     <g id="line2d_43">
      <g>
       <use xlink:href="#mea2d7f1afe" x="60.423889" y="94.366244" style="stroke: #000000; stroke-width: 0.6"/>
      </g>
     </g>
    </g>
    <g id="ytick_30">
     <g id="line2d_44">
      <g>
       <use xlink:href="#mea2d7f1afe" x="60.423889" y="85.695517" style="stroke: #000000; stroke-width: 0.6"/>
      </g>
     </g>
    </g>
    <g id="ytick_31">
     <g id="line2d_45">
      <g>
       <use xlink:href="#mea2d7f1afe" x="60.423889" y="79.543539" style="stroke: #000000; stroke-width: 0.6"/>
      </g>
     </g>
    </g>
    <g id="ytick_32">
     <g id="line2d_46">
      <g>
       <use xlink:href="#mea2d7f1afe" x="60.423889" y="74.771693" style="stroke: #000000; stroke-width: 0.6"/>
      </g>
     </g>
    </g>
    <g id="ytick_33">
     <g id="line2d_47">
      <g>
       <use xlink:href="#mea2d7f1afe" x="60.423889" y="70.872812" style="stroke: #000000; stroke-width: 0.6"/>
      </g>
     </g>
    </g>
    <g id="ytick_34">
     <g id="line2d_48">
      <g>
       <use xlink:href="#mea2d7f1afe" x="60.423889" y="67.576355" style="stroke: #000000; stroke-width: 0.6"/>
      </g>
     </g>
    </g>
    <g id="ytick_35">
     <g id="line2d_49">
      <g>
       <use xlink:href="#mea2d7f1afe" x="60.423889" y="64.720834" style="stroke: #000000; stroke-width: 0.6"/>
      </g>
     </g>
    </g>
    <g id="ytick_36">
     <g id="line2d_50">
      <g>
       <use xlink:href="#mea2d7f1afe" x="60.423889" y="62.202086" style="stroke: #000000; stroke-width: 0.6"/>
      </g>
     </g>
    </g>
    <g id="ytick_37">
     <g id="line2d_51">
      <g>
       <use xlink:href="#mea2d7f1afe" x="60.423889" y="45.126284" style="stroke: #000000; stroke-width: 0.6"/>
      </g>
     </g>
    </g>
    <g id="ytick_38">
     <g id="line2d_52">
      <g>
       <use xlink:href="#mea2d7f1afe" x="60.423889" y="36.455557" style="stroke: #000000; stroke-width: 0.6"/>
      </g>
     </g>
    </g>
    <g id="ytick_39">
     <g id="line2d_53">
      <g>
       <use xlink:href="#mea2d7f1afe" x="60.423889" y="30.303579" style="stroke: #000000; stroke-width: 0.6"/>
      </g>
     </g>
    </g>
    <g id="ytick_40">
     <g id="line2d_54">
      <g>
       <use xlink:href="#mea2d7f1afe" x="60.423889" y="25.531733" style="stroke: #000000; stroke-width: 0.6"/>
      </g>
     </g>
    </g>
    <g id="text_8">
     <!-- e2 * dnde [TeV / (cm2 s)] -->
     <g transform="translate(19.444202 196.563688) rotate(-90) scale(0.1 -0.1)">
      <defs>
       <path id="DejaVuSans-2a" d="M 3009 3897 
L 1888 3291 
L 3009 2681 
L 2828 2375 
L 1778 3009 
L 1778 1831 
L 1422 1831 
L 1422 3009 
L 372 2375 
L 191 2681 
L 1313 3291 
L 191 3897 
L 372 4206 
L 1422 3572 
L 1422 4750 
L 1778 4750 
L 1778 3572 
L 2828 4206 
L 3009 3897 
z
" transform="scale(0.015625)"/>
       <path id="DejaVuSans-64" d="M 2906 2969 
L 2906 4863 
L 3481 4863 
L 3481 0 
L 2906 0 
L 2906 525 
Q 2725 213 2448 61 
Q 2172 -91 1784 -91 
Q 1150 -91 751 415 
Q 353 922 353 1747 
Q 353 2572 751 3078 
Q 1150 3584 1784 3584 
Q 2172 3584 2448 3432 
Q 2725 3281 2906 2969 
z
M 947 1747 
Q 947 1113 1208 752 
Q 1469 391 1925 391 
Q 2381 391 2643 752 
Q 2906 1113 2906 1747 
Q 2906 2381 2643 2742 
Q 2381 3103 1925 3103 
Q 1469 3103 1208 2742 
Q 947 2381 947 1747 
z
" transform="scale(0.015625)"/>
       <path id="DejaVuSans-2f" d="M 1625 4666 
L 2156 4666 
L 531 -594 
L 0 -594 
L 1625 4666 
z
" transform="scale(0.015625)"/>
       <path id="DejaVuSans-28" d="M 1984 4856 
Q 1566 4138 1362 3434 
Q 1159 2731 1159 2009 
Q 1159 1288 1364 580 
Q 1569 -128 1984 -844 
L 1484 -844 
Q 1016 -109 783 600 
Q 550 1309 550 2009 
Q 550 2706 781 3412 
Q 1013 4119 1484 4856 
L 1984 4856 
z
" transform="scale(0.015625)"/>
       <path id="DejaVuSans-63" d="M 3122 3366 
L 3122 2828 
Q 2878 2963 2633 3030 
Q 2388 3097 2138 3097 
Q 1578 3097 1268 2742 
Q 959 2388 959 1747 
Q 959 1106 1268 751 
Q 1578 397 2138 397 
Q 2388 397 2633 464 
Q 2878 531 3122 666 
L 3122 134 
Q 2881 22 2623 -34 
Q 2366 -91 2075 -91 
Q 1284 -91 818 406 
Q 353 903 353 1747 
Q 353 2603 823 3093 
Q 1294 3584 2113 3584 
Q 2378 3584 2631 3529 
Q 2884 3475 3122 3366 
z
" transform="scale(0.015625)"/>
       <path id="DejaVuSans-6d" d="M 3328 2828 
Q 3544 3216 3844 3400 
Q 4144 3584 4550 3584 
Q 5097 3584 5394 3201 
Q 5691 2819 5691 2113 
L 5691 0 
L 5113 0 
L 5113 2094 
Q 5113 2597 4934 2840 
Q 4756 3084 4391 3084 
Q 3944 3084 3684 2787 
Q 3425 2491 3425 1978 
L 3425 0 
L 2847 0 
L 2847 2094 
Q 2847 2600 2669 2842 
Q 2491 3084 2119 3084 
Q 1678 3084 1418 2786 
Q 1159 2488 1159 1978 
L 1159 0 
L 581 0 
L 581 3500 
L 1159 3500 
L 1159 2956 
Q 1356 3278 1631 3431 
Q 1906 3584 2284 3584 
Q 2666 3584 2933 3390 
Q 3200 3197 3328 2828 
z
" transform="scale(0.015625)"/>
       <path id="DejaVuSans-73" d="M 2834 3397 
L 2834 2853 
Q 2591 2978 2328 3040 
Q 2066 3103 1784 3103 
Q 1356 3103 1142 2972 
Q 928 2841 928 2578 
Q 928 2378 1081 2264 
Q 1234 2150 1697 2047 
L 1894 2003 
Q 2506 1872 2764 1633 
Q 3022 1394 3022 966 
Q 3022 478 2636 193 
Q 2250 -91 1575 -91 
Q 1294 -91 989 -36 
Q 684 19 347 128 
L 347 722 
Q 666 556 975 473 
Q 1284 391 1588 391 
Q 1994 391 2212 530 
Q 2431 669 2431 922 
Q 2431 1156 2273 1281 
Q 2116 1406 1581 1522 
L 1381 1569 
Q 847 1681 609 1914 
Q 372 2147 372 2553 
Q 372 3047 722 3315 
Q 1072 3584 1716 3584 
Q 2034 3584 2315 3537 
Q 2597 3491 2834 3397 
z
" transform="scale(0.015625)"/>
       <path id="DejaVuSans-29" d="M 513 4856 
L 1013 4856 
Q 1481 4119 1714 3412 
Q 1947 2706 1947 2009 
Q 1947 1309 1714 600 
Q 1481 -109 1013 -844 
L 513 -844 
Q 928 -128 1133 580 
Q 1338 1288 1338 2009 
Q 1338 2731 1133 3434 
Q 928 4138 513 4856 
z
" transform="scale(0.015625)"/>
      </defs>
      <use xlink:href="#DejaVuSans-65"/>
      <use xlink:href="#DejaVuSans-32" x="61.523438"/>
      <use xlink:href="#DejaVuSans-20" x="125.146484"/>
      <use xlink:href="#DejaVuSans-2a" x="156.933594"/>
      <use xlink:href="#DejaVuSans-20" x="206.933594"/>
      <use xlink:href="#DejaVuSans-64" x="238.720703"/>
      <use xlink:href="#DejaVuSans-6e" x="302.197266"/>
      <use xlink:href="#DejaVuSans-64" x="365.576172"/>
      <use xlink:href="#DejaVuSans-65" x="429.052734"/>
      <use xlink:href="#DejaVuSans-20" x="490.576172"/>
      <use xlink:href="#DejaVuSans-5b" x="522.363281"/>
      <use xlink:href="#DejaVuSans-54" x="561.376953"/>
      <use xlink:href="#DejaVuSans-65" x="605.460938"/>
      <use xlink:href="#DejaVuSans-56" x="666.984375"/>
      <use xlink:href="#DejaVuSans-20" x="735.392578"/>
      <use xlink:href="#DejaVuSans-2f" x="767.179688"/>
      <use xlink:href="#DejaVuSans-20" x="800.871094"/>
      <use xlink:href="#DejaVuSans-28" x="832.658203"/>
      <use xlink:href="#DejaVuSans-63" x="871.671875"/>
      <use xlink:href="#DejaVuSans-6d" x="926.652344"/>
      <use xlink:href="#DejaVuSans-32" x="1024.064453"/>
      <use xlink:href="#DejaVuSans-20" x="1087.6875"/>
      <use xlink:href="#DejaVuSans-73" x="1119.474609"/>
      <use xlink:href="#DejaVuSans-29" x="1171.574219"/>
      <use xlink:href="#DejaVuSans-5d" x="1210.587891"/>
     </g>
    </g>
   </g>
   <g id="line2d_55">
    <path d="M 73.550076 193.015209 
L 76.201831 193.251865 
L 78.853586 193.488521 
L 81.505341 193.725177 
L 84.157096 193.961833 
L 86.808851 194.198489 
L 89.460606 194.435145 
L 92.112361 194.671802 
L 94.764116 194.908458 
L 97.41587 195.145114 
L 100.067625 195.38177 
L 102.71938 195.618426 
L 105.371135 195.855082 
L 108.02289 196.091738 
L 110.674645 196.328394 
L 113.3264 196.56505 
L 115.978155 196.801707 
L 118.62991 197.038363 
L 121.281665 197.275019 
L 123.93342 197.511675 
L 126.585175 197.748331 
L 129.236929 197.984987 
L 131.888684 198.221643 
L 134.540439 198.458299 
L 137.192194 198.694955 
L 139.843949 198.931612 
L 142.495704 199.168268 
L 145.147459 199.404924 
L 147.799214 199.64158 
L 150.450969 199.878236 
L 153.102724 200.114892 
L 155.754479 200.351548 
L 158.406234 200.588204 
L 161.057989 200.82486 
L 163.709743 201.061517 
L 166.361498 201.298173 
L 169.013253 201.534829 
L 171.665008 201.771485 
L 174.316763 202.008141 
L 176.968518 202.244797 
L 179.620273 202.481453 
L 182.272028 202.718109 
L 184.923783 202.954765 
L 187.575538 203.191422 
L 190.227293 203.428078 
L 192.879048 203.664734 
L 195.530802 203.90139 
L 198.182557 204.138046 
L 200.834312 204.374702 
L 203.486067 204.611358 
L 206.137822 204.848014 
L 208.789577 205.08467 
L 211.441332 205.321327 
L 214.093087 205.557983 
L 216.744842 205.794639 
L 219.396597 206.031295 
L 222.048352 206.267951 
L 224.700107 206.504607 
L 227.351861 206.741263 
L 230.003616 206.977919 
L 232.655371 207.214575 
L 235.307126 207.451232 
L 237.958881 207.687888 
L 240.610636 207.924544 
L 243.262391 208.1612 
L 245.914146 208.397856 
L 248.565901 208.634512 
L 251.217656 208.871168 
L 253.869411 209.107824 
L 256.521166 209.34448 
L 259.172921 209.581137 
L 261.824675 209.817793 
L 264.47643 210.054449 
L 267.128185 210.291105 
L 269.77994 210.527761 
L 272.431695 210.764416 
L 275.08345 211.000731 
L 277.735205 211.180039 
L 280.38696 208.10654 
L 283.038715 179.294227 
L 285.69047 145.583699 
L 288.342225 137.760026 
L 290.99398 161.616666 
L 293.645734 203.558505 
L 296.297489 212.805647 
L 298.949244 213.130897 
L 301.600999 213.367634 
L 304.252754 213.60429 
L 306.904509 213.840946 
L 309.556264 214.077603 
L 312.208019 214.314259 
L 314.859774 214.550915 
L 317.511529 214.787571 
L 320.163284 215.024227 
L 322.815039 215.260883 
L 325.466793 215.497539 
L 328.118548 215.734195 
L 330.770303 215.970851 
L 333.422058 216.207508 
L 336.073813 216.444164 
" clip-path="url(#p3296e9b8bd)" style="fill: none; stroke: #000000; stroke-linecap: square"/>
   </g>
   <g id="line2d_56">
    <path d="M 73.550076 192.796385 
L 76.201831 193.034707 
L 78.853586 193.27303 
L 81.505341 193.511352 
L 84.157096 193.749675 
L 86.808851 193.987997 
L 89.460606 194.22632 
L 92.112361 194.464642 
L 94.764116 194.702964 
L 97.41587 194.941287 
L 100.067625 195.179609 
L 102.71938 195.417932 
L 105.371135 195.656254 
L 108.02289 195.894577 
L 110.674645 196.132899 
L 113.3264 196.371221 
L 115.978155 196.609544 
L 118.62991 196.847866 
L 121.281665 197.086189 
L 123.93342 197.324511 
L 126.585175 197.562833 
L 129.236929 197.801156 
L 131.888684 198.039478 
L 134.540439 198.277801 
L 137.192194 198.516123 
L 139.843949 198.754446 
L 142.495704 198.992768 
L 145.147459 199.23109 
L 147.799214 199.469413 
L 150.450969 199.707735 
L 153.102724 199.946058 
L 155.754479 200.18438 
L 158.406234 200.422703 
L 161.057989 200.661025 
L 163.709743 200.899347 
L 166.361498 201.13767 
L 169.013253 201.375992 
L 171.665008 201.614315 
L 174.316763 201.852637 
L 176.968518 202.09096 
L 179.620273 202.329282 
L 182.272028 202.567604 
L 184.923783 202.805927 
L 187.575538 203.044249 
L 190.227293 203.282572 
L 192.879048 203.520894 
L 195.530802 203.759217 
L 198.182557 203.997539 
L 200.834312 204.235861 
L 203.486067 204.474184 
L 206.137822 204.712506 
L 208.789577 204.950829 
L 211.441332 205.189151 
L 214.093087 205.427474 
L 216.744842 205.665796 
L 219.396597 205.904118 
L 222.048352 206.142441 
L 224.700107 206.380763 
L 227.351861 206.619086 
L 230.003616 206.857408 
L 232.655371 207.095731 
L 235.307126 207.334053 
L 237.958881 207.572375 
L 240.610636 207.810698 
L 243.262391 208.04902 
L 245.914146 208.287343 
L 248.565901 208.525665 
L 251.217656 208.763988 
L 253.869411 209.00231 
L 256.521166 209.240632 
L 259.172921 209.478955 
L 261.824675 209.717277 
L 264.47643 209.9556 
L 267.128185 210.193922 
L 269.77994 210.432244 
L 272.431695 210.670566 
L 275.08345 210.908472 
L 277.735205 211.08224 
L 280.38696 207.835364 
L 283.038715 178.993864 
L 285.69047 145.739325 
L 288.342225 137.970673 
L 290.99398 161.376343 
L 293.645734 203.039112 
L 296.297489 212.713627 
L 298.949244 213.053687 
L 301.600999 213.292114 
L 304.252754 213.530436 
L 306.904509 213.768758 
L 309.556264 214.007081 
L 312.208019 214.245403 
L 314.859774 214.483726 
L 317.511529 214.722048 
L 320.163284 214.960371 
L 322.815039 215.198693 
L 325.466793 215.437015 
L 328.118548 215.675338 
L 330.770303 215.91366 
L 333.422058 216.151983 
L 336.073813 216.390305 
" clip-path="url(#p3296e9b8bd)" style="fill: none; stroke-dasharray: 7.4,3.2; stroke-dashoffset: 0; stroke: #191970; stroke-opacity: 0.95; stroke-width: 2"/>
   </g>
   <g id="line2d_57">
    <path d="M 73.550076 192.757433 
L 76.201831 192.996127 
L 78.853586 193.23482 
L 81.505341 193.473514 
L 84.157096 193.712208 
L 86.808851 193.950902 
L 89.460606 194.189596 
L 92.112361 194.428289 
L 94.764116 194.666983 
L 97.41587 194.905677 
L 100.067625 195.144371 
L 102.71938 195.383065 
L 105.371135 195.621758 
L 108.02289 195.860452 
L 110.674645 196.099146 
L 113.3264 196.33784 
L 115.978155 196.576533 
L 118.62991 196.815227 
L 121.281665 197.053921 
L 123.93342 197.292615 
L 126.585175 197.531309 
L 129.236929 197.770002 
L 131.888684 198.008696 
L 134.540439 198.24739 
L 137.192194 198.486084 
L 139.843949 198.724778 
L 142.495704 198.963471 
L 145.147459 199.202165 
L 147.799214 199.440859 
L 150.450969 199.679553 
L 153.102724 199.918247 
L 155.754479 200.15694 
L 158.406234 200.395634 
L 161.057989 200.634328 
L 163.709743 200.873022 
L 166.361498 201.111716 
L 169.013253 201.350409 
L 171.665008 201.589103 
L 174.316763 201.827797 
L 176.968518 202.066491 
L 179.620273 202.305185 
L 182.272028 202.543878 
L 184.923783 202.782572 
L 187.575538 203.021266 
L 190.227293 203.25996 
L 192.879048 203.498654 
L 195.530802 203.737347 
L 198.182557 203.976041 
L 200.834312 204.214735 
L 203.486067 204.453429 
L 206.137822 204.692123 
L 208.789577 204.930816 
L 211.441332 205.16951 
L 214.093087 205.408204 
L 216.744842 205.646898 
L 219.396597 205.885591 
L 222.048352 206.124285 
L 224.700107 206.362979 
L 227.351861 206.601673 
L 230.003616 206.840367 
L 232.655371 207.07906 
L 235.307126 207.317754 
L 237.958881 207.556448 
L 240.610636 207.795142 
L 243.262391 208.033836 
L 245.914146 208.272529 
L 248.565901 208.511223 
L 251.217656 208.749917 
L 253.869411 208.988611 
L 256.521166 209.227305 
L 259.172921 209.465998 
L 261.824675 209.704692 
L 264.47643 209.943386 
L 267.128185 210.18208 
L 269.77994 210.420774 
L 272.431695 210.659465 
L 275.08345 210.897493 
L 277.735205 211.052738 
L 280.38696 207.495551 
L 283.038715 179.105467 
L 285.69047 146.673968 
L 288.342225 138.223278 
L 290.99398 159.375808 
L 293.645734 200.428738 
L 296.297489 212.620186 
L 298.949244 213.046113 
L 301.600999 213.285099 
L 304.252754 213.523793 
L 306.904509 213.762487 
L 309.556264 214.001181 
L 312.208019 214.239874 
L 314.859774 214.478568 
L 317.511529 214.717262 
L 320.163284 214.955956 
L 322.815039 215.194649 
L 325.466793 215.433343 
L 328.118548 215.672037 
L 330.770303 215.910731 
L 333.422058 216.149425 
L 336.073813 216.388118 
" clip-path="url(#p3296e9b8bd)" style="fill: none; stroke: #c71585; stroke-width: 1.5; stroke-linecap: square"/>
   </g>
   <g id="patch_3">
    <path d="M 60.423889 242.728 
L 60.423889 25.44 
" style="fill: none; stroke: #000000; stroke-width: 0.8; stroke-linejoin: miter; stroke-linecap: square"/>
   </g>
   <g id="patch_4">
    <path d="M 349.2 242.728 
L 349.2 25.44 
" style="fill: none; stroke: #000000; stroke-width: 0.8; stroke-linejoin: miter; stroke-linecap: square"/>
   </g>
   <g id="patch_5">
    <path d="M 60.423889 242.728 
L 349.2 242.728 
" style="fill: none; stroke: #000000; stroke-width: 0.8; stroke-linejoin: miter; stroke-linecap: square"/>
   </g>
   <g id="patch_6">
    <path d="M 60.423889 25.44 
L 349.2 25.44 
" style="fill: none; stroke: #000000; stroke-width: 0.8; stroke-linejoin: miter; stroke-linecap: square"/>
   </g>
   <g id="text_9">
    <!-- sys_assumed = 10% -->
    <g transform="translate(142.756007 19.44) scale(0.12 -0.12)">
     <defs>
      <path id="DejaVuSans-5f" d="M 3263 -1063 
L 3263 -1509 
L -63 -1509 
L -63 -1063 
L 3263 -1063 
z
" transform="scale(0.015625)"/>
      <path id="DejaVuSans-61" d="M 2194 1759 
Q 1497 1759 1228 1600 
Q 959 1441 959 1056 
Q 959 750 1161 570 
Q 1363 391 1709 391 
Q 2188 391 2477 730 
Q 2766 1069 2766 1631 
L 2766 1759 
L 2194 1759 
z
M 3341 1997 
L 3341 0 
L 2766 0 
L 2766 531 
Q 2569 213 2275 61 
Q 1981 -91 1556 -91 
Q 1019 -91 701 211 
Q 384 513 384 1019 
Q 384 1609 779 1909 
Q 1175 2209 1959 2209 
L 2766 2209 
L 2766 2266 
Q 2766 2663 2505 2880 
Q 2244 3097 1772 3097 
Q 1472 3097 1187 3025 
Q 903 2953 641 2809 
L 641 3341 
Q 956 3463 1253 3523 
Q 1550 3584 1831 3584 
Q 2591 3584 2966 3190 
Q 3341 2797 3341 1997 
z
" transform="scale(0.015625)"/>
      <path id="DejaVuSans-75" d="M 544 1381 
L 544 3500 
L 1119 3500 
L 1119 1403 
Q 1119 906 1312 657 
Q 1506 409 1894 409 
Q 2359 409 2629 706 
Q 2900 1003 2900 1516 
L 2900 3500 
L 3475 3500 
L 3475 0 
L 2900 0 
L 2900 538 
Q 2691 219 2414 64 
Q 2138 -91 1772 -91 
Q 1169 -91 856 284 
Q 544 659 544 1381 
z
M 1991 3584 
L 1991 3584 
z
" transform="scale(0.015625)"/>
      <path id="DejaVuSans-3d" d="M 678 2906 
L 4684 2906 
L 4684 2381 
L 678 2381 
L 678 2906 
z
M 678 1631 
L 4684 1631 
L 4684 1100 
L 678 1100 
L 678 1631 
z
" transform="scale(0.015625)"/>
      <path id="DejaVuSans-25" d="M 4653 2053 
Q 4381 2053 4226 1822 
Q 4072 1591 4072 1178 
Q 4072 772 4226 539 
Q 4381 306 4653 306 
Q 4919 306 5073 539 
Q 5228 772 5228 1178 
Q 5228 1588 5073 1820 
Q 4919 2053 4653 2053 
z
M 4653 2450 
Q 5147 2450 5437 2106 
Q 5728 1763 5728 1178 
Q 5728 594 5436 251 
Q 5144 -91 4653 -91 
Q 4153 -91 3862 251 
Q 3572 594 3572 1178 
Q 3572 1766 3864 2108 
Q 4156 2450 4653 2450 
z
M 1428 4353 
Q 1159 4353 1004 4120 
Q 850 3888 850 3481 
Q 850 3069 1003 2837 
Q 1156 2606 1428 2606 
Q 1700 2606 1854 2837 
Q 2009 3069 2009 3481 
Q 2009 3884 1853 4118 
Q 1697 4353 1428 4353 
z
M 4250 4750 
L 4750 4750 
L 1831 -91 
L 1331 -91 
L 4250 4750 
z
M 1428 4750 
Q 1922 4750 2215 4408 
Q 2509 4066 2509 3481 
Q 2509 2891 2217 2550 
Q 1925 2209 1428 2209 
Q 931 2209 642 2551 
Q 353 2894 353 3481 
Q 353 4063 643 4406 
Q 934 4750 1428 4750 
z
" transform="scale(0.015625)"/>
     </defs>
     <use xlink:href="#DejaVuSans-73"/>
     <use xlink:href="#DejaVuSans-79" x="52.099609"/>
     <use xlink:href="#DejaVuSans-73" x="111.279297"/>
     <use xlink:href="#DejaVuSans-5f" x="163.378906"/>
     <use xlink:href="#DejaVuSans-61" x="213.378906"/>
     <use xlink:href="#DejaVuSans-73" x="274.658203"/>
     <use xlink:href="#DejaVuSans-73" x="326.757812"/>
     <use xlink:href="#DejaVuSans-75" x="378.857422"/>
     <use xlink:href="#DejaVuSans-6d" x="442.236328"/>
     <use xlink:href="#DejaVuSans-65" x="539.648438"/>
     <use xlink:href="#DejaVuSans-64" x="601.171875"/>
     <use xlink:href="#DejaVuSans-20" x="664.648438"/>
     <use xlink:href="#DejaVuSans-3d" x="696.435547"/>
     <use xlink:href="#DejaVuSans-20" x="780.224609"/>
     <use xlink:href="#DejaVuSans-31" x="812.011719"/>
     <use xlink:href="#DejaVuSans-30" x="875.634766"/>
     <use xlink:href="#DejaVuSans-25" x="939.257812"/>
    </g>
   </g>
   <g id="legend_1">
    <g id="patch_7">
     <path d="M 67.423889 237.728 
L 209.964514 237.728 
Q 211.964514 237.728 211.964514 235.728 
L 211.964514 163.337375 
Q 211.964514 161.337375 209.964514 161.337375 
L 67.423889 161.337375 
Q 65.423889 161.337375 65.423889 163.337375 
L 65.423889 235.728 
Q 65.423889 237.728 67.423889 237.728 
z
" style="fill: #ffffff; opacity: 0.8; stroke: #cccccc; stroke-linejoin: miter"/>
    </g>
    <g id="line2d_58">
     <path d="M 69.423889 169.435812 
L 79.423889 169.435812 
L 89.423889 169.435812 
" style="fill: none; stroke: #000000; stroke-linecap: square"/>
    </g>
    <g id="text_10">
     <!-- Input -->
     <g transform="translate(97.423889 172.935812) scale(0.1 -0.1)">
      <defs>
       <path id="DejaVuSans-49" d="M 628 4666 
L 1259 4666 
L 1259 0 
L 628 0 
L 628 4666 
z
" transform="scale(0.015625)"/>
       <path id="DejaVuSans-70" d="M 1159 525 
L 1159 -1331 
L 581 -1331 
L 581 3500 
L 1159 3500 
L 1159 2969 
Q 1341 3281 1617 3432 
Q 1894 3584 2278 3584 
Q 2916 3584 3314 3078 
Q 3713 2572 3713 1747 
Q 3713 922 3314 415 
Q 2916 -91 2278 -91 
Q 1894 -91 1617 61 
Q 1341 213 1159 525 
z
M 3116 1747 
Q 3116 2381 2855 2742 
Q 2594 3103 2138 3103 
Q 1681 3103 1420 2742 
Q 1159 2381 1159 1747 
Q 1159 1113 1420 752 
Q 1681 391 2138 391 
Q 2594 391 2855 752 
Q 3116 1113 3116 1747 
z
" transform="scale(0.015625)"/>
       <path id="DejaVuSans-74" d="M 1172 4494 
L 1172 3500 
L 2356 3500 
L 2356 3053 
L 1172 3053 
L 1172 1153 
Q 1172 725 1289 603 
Q 1406 481 1766 481 
L 2356 481 
L 2356 0 
L 1766 0 
Q 1100 0 847 248 
Q 594 497 594 1153 
L 594 3053 
L 172 3053 
L 172 3500 
L 594 3500 
L 594 4494 
L 1172 4494 
z
" transform="scale(0.015625)"/>
      </defs>
      <use xlink:href="#DejaVuSans-49"/>
      <use xlink:href="#DejaVuSans-6e" x="29.492188"/>
      <use xlink:href="#DejaVuSans-70" x="92.871094"/>
      <use xlink:href="#DejaVuSans-75" x="156.347656"/>
      <use xlink:href="#DejaVuSans-74" x="219.726562"/>
     </g>
    </g>
    <g id="line2d_59">
     <path d="M 69.423889 184.113937 
L 79.423889 184.113937 
L 89.423889 184.113937 
" style="fill: none; stroke-dasharray: 7.4,3.2; stroke-dashoffset: 0; stroke: #191970; stroke-opacity: 0.95; stroke-width: 2"/>
    </g>
    <g id="text_11">
     <!-- Best Fit with Nuisance -->
     <g transform="translate(97.423889 187.613937) scale(0.1 -0.1)">
      <defs>
       <path id="DejaVuSans-42" d="M 1259 2228 
L 1259 519 
L 2272 519 
Q 2781 519 3026 730 
Q 3272 941 3272 1375 
Q 3272 1813 3026 2020 
Q 2781 2228 2272 2228 
L 1259 2228 
z
M 1259 4147 
L 1259 2741 
L 2194 2741 
Q 2656 2741 2882 2914 
Q 3109 3088 3109 3444 
Q 3109 3797 2882 3972 
Q 2656 4147 2194 4147 
L 1259 4147 
z
M 628 4666 
L 2241 4666 
Q 2963 4666 3353 4366 
Q 3744 4066 3744 3513 
Q 3744 3084 3544 2831 
Q 3344 2578 2956 2516 
Q 3422 2416 3680 2098 
Q 3938 1781 3938 1306 
Q 3938 681 3513 340 
Q 3088 0 2303 0 
L 628 0 
L 628 4666 
z
" transform="scale(0.015625)"/>
       <path id="DejaVuSans-46" d="M 628 4666 
L 3309 4666 
L 3309 4134 
L 1259 4134 
L 1259 2759 
L 3109 2759 
L 3109 2228 
L 1259 2228 
L 1259 0 
L 628 0 
L 628 4666 
z
" transform="scale(0.015625)"/>
       <path id="DejaVuSans-69" d="M 603 3500 
L 1178 3500 
L 1178 0 
L 603 0 
L 603 3500 
z
M 603 4863 
L 1178 4863 
L 1178 4134 
L 603 4134 
L 603 4863 
z
" transform="scale(0.015625)"/>
       <path id="DejaVuSans-77" d="M 269 3500 
L 844 3500 
L 1563 769 
L 2278 3500 
L 2956 3500 
L 3675 769 
L 4391 3500 
L 4966 3500 
L 4050 0 
L 3372 0 
L 2619 2869 
L 1863 0 
L 1184 0 
L 269 3500 
z
" transform="scale(0.015625)"/>
       <path id="DejaVuSans-68" d="M 3513 2113 
L 3513 0 
L 2938 0 
L 2938 2094 
Q 2938 2591 2744 2837 
Q 2550 3084 2163 3084 
Q 1697 3084 1428 2787 
Q 1159 2491 1159 1978 
L 1159 0 
L 581 0 
L 581 4863 
L 1159 4863 
L 1159 2956 
Q 1366 3272 1645 3428 
Q 1925 3584 2291 3584 
Q 2894 3584 3203 3211 
Q 3513 2838 3513 2113 
z
" transform="scale(0.015625)"/>
       <path id="DejaVuSans-4e" d="M 628 4666 
L 1478 4666 
L 3547 763 
L 3547 4666 
L 4159 4666 
L 4159 0 
L 3309 0 
L 1241 3903 
L 1241 0 
L 628 0 
L 628 4666 
z
" transform="scale(0.015625)"/>
      </defs>
      <use xlink:href="#DejaVuSans-42"/>
      <use xlink:href="#DejaVuSans-65" x="68.603516"/>
      <use xlink:href="#DejaVuSans-73" x="130.126953"/>
      <use xlink:href="#DejaVuSans-74" x="182.226562"/>
      <use xlink:href="#DejaVuSans-20" x="221.435547"/>
      <use xlink:href="#DejaVuSans-46" x="253.222656"/>
      <use xlink:href="#DejaVuSans-69" x="303.492188"/>
      <use xlink:href="#DejaVuSans-74" x="331.275391"/>
      <use xlink:href="#DejaVuSans-20" x="370.484375"/>
      <use xlink:href="#DejaVuSans-77" x="402.271484"/>
      <use xlink:href="#DejaVuSans-69" x="484.058594"/>
      <use xlink:href="#DejaVuSans-74" x="511.841797"/>
      <use xlink:href="#DejaVuSans-68" x="551.050781"/>
      <use xlink:href="#DejaVuSans-20" x="614.429688"/>
      <use xlink:href="#DejaVuSans-4e" x="646.216797"/>
      <use xlink:href="#DejaVuSans-75" x="721.021484"/>
      <use xlink:href="#DejaVuSans-69" x="784.400391"/>
      <use xlink:href="#DejaVuSans-73" x="812.183594"/>
      <use xlink:href="#DejaVuSans-61" x="864.283203"/>
      <use xlink:href="#DejaVuSans-6e" x="925.5625"/>
      <use xlink:href="#DejaVuSans-63" x="988.941406"/>
      <use xlink:href="#DejaVuSans-65" x="1043.921875"/>
     </g>
    </g>
    <g id="patch_8">
     <path d="M 69.423889 202.292062 
L 89.423889 202.292062 
L 89.423889 195.292062 
L 69.423889 195.292062 
z
" style="fill: #6495ed; fill-opacity: 0.5"/>
    </g>
    <g id="text_12">
     <!-- 1$\,\sigma_{tot}$ -->
     <g transform="translate(97.423889 202.292062) scale(0.1 -0.1)">
      <defs>
       <path id="DejaVuSans-Oblique-3c3" d="M 2219 3044 
Q 1744 3044 1422 2700 
Q 1081 2341 969 1747 
Q 844 1119 1044 756 
Q 1241 397 1706 397 
Q 2166 397 2503 759 
Q 2844 1122 2966 1747 
Q 3075 2319 2881 2700 
Q 2700 3044 2219 3044 
z
M 2309 3503 
L 4219 3500 
L 4106 2925 
L 3463 2925 
Q 3706 2438 3575 1747 
Q 3406 888 2884 400 
Q 2359 -91 1609 -91 
Q 856 -91 525 400 
Q 194 888 363 1747 
Q 528 2609 1050 3097 
Q 1484 3503 2309 3503 
z
" transform="scale(0.015625)"/>
       <path id="DejaVuSans-Oblique-74" d="M 2706 3500 
L 2619 3053 
L 1472 3053 
L 1100 1153 
Q 1081 1047 1072 975 
Q 1063 903 1063 863 
Q 1063 663 1183 572 
Q 1303 481 1569 481 
L 2150 481 
L 2053 0 
L 1503 0 
Q 991 0 739 200 
Q 488 400 488 806 
Q 488 878 497 964 
Q 506 1050 525 1153 
L 897 3053 
L 409 3053 
L 500 3500 
L 978 3500 
L 1172 4494 
L 1747 4494 
L 1556 3500 
L 2706 3500 
z
" transform="scale(0.015625)"/>
       <path id="DejaVuSans-Oblique-6f" d="M 1625 -91 
Q 1009 -91 651 289 
Q 294 669 294 1325 
Q 294 1706 417 2101 
Q 541 2497 738 2766 
Q 1047 3184 1428 3384 
Q 1809 3584 2291 3584 
Q 2888 3584 3255 3212 
Q 3622 2841 3622 2241 
Q 3622 1825 3500 1412 
Q 3378 1000 3181 728 
Q 2875 309 2494 109 
Q 2113 -91 1625 -91 
z
M 891 1344 
Q 891 869 1089 633 
Q 1288 397 1691 397 
Q 2269 397 2648 901 
Q 3028 1406 3028 2181 
Q 3028 2634 2825 2865 
Q 2622 3097 2228 3097 
Q 1903 3097 1650 2945 
Q 1397 2794 1197 2484 
Q 1050 2253 970 1956 
Q 891 1659 891 1344 
z
" transform="scale(0.015625)"/>
      </defs>
      <use xlink:href="#DejaVuSans-31" transform="translate(0 0.09375)"/>
      <use xlink:href="#DejaVuSans-Oblique-3c3" transform="translate(79.858723 0.09375)"/>
      <use xlink:href="#DejaVuSans-Oblique-74" transform="translate(143.237629 -16.3125) scale(0.7)"/>
      <use xlink:href="#DejaVuSans-Oblique-6f" transform="translate(170.683918 -16.3125) scale(0.7)"/>
      <use xlink:href="#DejaVuSans-Oblique-74" transform="translate(213.511067 -16.3125) scale(0.7)"/>
     </g>
    </g>
    <g id="line2d_60">
     <path d="M 69.423889 213.470187 
L 79.423889 213.470187 
L 89.423889 213.470187 
" style="fill: none; stroke: #c71585; stroke-width: 1.5; stroke-linecap: square"/>
    </g>
    <g id="text_13">
     <!-- Best Fit -->
     <g transform="translate(97.423889 216.970187) scale(0.1 -0.1)">
      <use xlink:href="#DejaVuSans-42"/>
      <use xlink:href="#DejaVuSans-65" x="68.603516"/>
      <use xlink:href="#DejaVuSans-73" x="130.126953"/>
      <use xlink:href="#DejaVuSans-74" x="182.226562"/>
      <use xlink:href="#DejaVuSans-20" x="221.435547"/>
      <use xlink:href="#DejaVuSans-46" x="253.222656"/>
      <use xlink:href="#DejaVuSans-69" x="303.492188"/>
      <use xlink:href="#DejaVuSans-74" x="331.275391"/>
     </g>
    </g>
    <g id="patch_9">
     <path d="M 69.423889 231.648312 
L 89.423889 231.648312 
L 89.423889 224.648312 
L 69.423889 224.648312 
z
" style="fill: #db7093; fill-opacity: 0.9"/>
    </g>
    <g id="text_14">
     <!-- 1$\,\sigma_{stat}$ -->
     <g transform="translate(97.423889 231.648312) scale(0.1 -0.1)">
      <defs>
       <path id="DejaVuSans-Oblique-73" d="M 3200 3397 
L 3091 2853 
Q 2863 2978 2609 3040 
Q 2356 3103 2088 3103 
Q 1634 3103 1373 2948 
Q 1113 2794 1113 2528 
Q 1113 2219 1719 2053 
Q 1766 2041 1788 2034 
L 1972 1978 
Q 2547 1819 2739 1644 
Q 2931 1469 2931 1166 
Q 2931 609 2489 259 
Q 2047 -91 1331 -91 
Q 1053 -91 747 -37 
Q 441 16 72 128 
L 184 722 
Q 500 559 806 475 
Q 1113 391 1394 391 
Q 1816 391 2080 572 
Q 2344 753 2344 1031 
Q 2344 1331 1650 1516 
L 1591 1531 
L 1394 1581 
Q 956 1697 753 1886 
Q 550 2075 550 2369 
Q 550 2928 970 3256 
Q 1391 3584 2113 3584 
Q 2397 3584 2667 3537 
Q 2938 3491 3200 3397 
z
" transform="scale(0.015625)"/>
       <path id="DejaVuSans-Oblique-61" d="M 3438 1997 
L 3047 0 
L 2472 0 
L 2578 531 
Q 2325 219 2001 64 
Q 1678 -91 1281 -91 
Q 834 -91 548 182 
Q 263 456 263 884 
Q 263 1497 752 1853 
Q 1241 2209 2100 2209 
L 2900 2209 
L 2931 2363 
Q 2938 2388 2941 2417 
Q 2944 2447 2944 2509 
Q 2944 2788 2717 2942 
Q 2491 3097 2081 3097 
Q 1800 3097 1504 3025 
Q 1209 2953 897 2809 
L 997 3341 
Q 1322 3463 1633 3523 
Q 1944 3584 2234 3584 
Q 2853 3584 3176 3315 
Q 3500 3047 3500 2534 
Q 3500 2431 3484 2292 
Q 3469 2153 3438 1997 
z
M 2816 1759 
L 2241 1759 
Q 1534 1759 1195 1570 
Q 856 1381 856 984 
Q 856 709 1029 553 
Q 1203 397 1509 397 
Q 1978 397 2328 733 
Q 2678 1069 2791 1631 
L 2816 1759 
z
" transform="scale(0.015625)"/>
      </defs>
      <use xlink:href="#DejaVuSans-31" transform="translate(0 0.09375)"/>
      <use xlink:href="#DejaVuSans-Oblique-3c3" transform="translate(79.858723 0.09375)"/>
      <use xlink:href="#DejaVuSans-Oblique-73" transform="translate(143.237629 -16.3125) scale(0.7)"/>
      <use xlink:href="#DejaVuSans-Oblique-74" transform="translate(179.707356 -16.3125) scale(0.7)"/>
      <use xlink:href="#DejaVuSans-Oblique-61" transform="translate(207.153645 -16.3125) scale(0.7)"/>
      <use xlink:href="#DejaVuSans-Oblique-74" transform="translate(250.049153 -16.3125) scale(0.7)"/>
     </g>
    </g>
   </g>
  </g>
 </g>
 <defs>
  <clipPath id="p3296e9b8bd">
   <rect x="60.423889" y="25.44" width="288.776111" height="217.288"/>
  </clipPath>
 </defs>
</svg>
