<?xml version="1.0" encoding="utf-8" standalone="no"?>
<!DOCTYPE svg PUBLIC "-//W3C//DTD SVG 1.1//EN"
  "http://www.w3.org/Graphics/SVG/1.1/DTD/svg11.dtd">
<svg xmlns:xlink="http://www.w3.org/1999/xlink" width="460.8pt" height="345.6pt" viewBox="0 0 460.8 345.6" xmlns="http://www.w3.org/2000/svg" version="1.1">
 <metadata>
  <rdf:RDF xmlns:dc="http://purl.org/dc/elements/1.1/" xmlns:cc="http://creativecommons.org/ns#" xmlns:rdf="http://www.w3.org/1999/02/22-rdf-syntax-ns#">
   <cc:Work>
    <dc:type rdf:resource="http://purl.org/dc/dcmitype/StillImage"/>
    <dc:date>2023-08-18T12:56:44.518336</dc:date>
    <dc:format>image/svg+xml</dc:format>
    <dc:creator>
     <cc:Agent>
      <dc:title>Matplotlib v3.7.1, https://matplotlib.org/</dc:title>
     </cc:Agent>
    </dc:creator>
   </cc:Work>
  </rdf:RDF>
 </metadata>
 <defs>
  <style type="text/css">*{stroke-linejoin: round; stroke-linecap: butt}</style>
 </defs>
 <g id="figure_1">
  <g id="patch_1">
   <path d="M 0 345.6 
L 460.8 345.6 
L 460.8 0 
L 0 0 
z
" style="fill: #ffffff"/>
  </g>
  <g id="axes_1">
   <g id="patch_2">
    <path d="M 57.6 307.584 
L 414.72 307.584 
L 414.72 51.84 
L 57.6 51.84 
z
" style="fill: #ffffff"/>
   </g>
   <g id="patch_3">
    <path d="M 100.468756 70642.479917 
L 107.32464 70642.479917 
L 107.32464 264.613246 
L 100.468756 264.613246 
z
" clip-path="url(#p672f1222f2)" style="fill: #b22222; opacity: 0.9"/>
   </g>
   <g id="patch_4">
    <path d="M 107.32464 70642.479917 
L 114.180531 70642.479917 
L 114.180531 257.76975 
L 107.32464 257.76975 
z
" clip-path="url(#p672f1222f2)" style="fill: #b22222; opacity: 0.9"/>
   </g>
   <g id="patch_5">
    <path d="M 114.180531 70642.479917 
L 121.036414 70642.479917 
L 121.036414 307.129136 
L 114.180531 307.129136 
z
" clip-path="url(#p672f1222f2)" style="fill: #b22222; opacity: 0.9"/>
   </g>
   <g id="patch_6">
    <path d="M 121.036414 70642.479917 
L 127.892298 70642.479917 
L 127.892298 215.253825 
L 121.036414 215.253825 
z
" clip-path="url(#p672f1222f2)" style="fill: #b22222; opacity: 0.9"/>
   </g>
   <g id="patch_7">
    <path d="M 127.892298 70642.479917 
L 134.748189 70642.479917 
L 134.748189 198.091153 
L 127.892298 198.091153 
z
" clip-path="url(#p672f1222f2)" style="fill: #b22222; opacity: 0.9"/>
   </g>
   <g id="patch_8">
    <path d="M 134.748189 70642.479917 
L 141.604073 70642.479917 
L 141.604073 162.971363 
L 134.748189 162.971363 
z
" clip-path="url(#p672f1222f2)" style="fill: #b22222; opacity: 0.9"/>
   </g>
   <g id="patch_9">
    <path d="M 141.604073 70642.479917 
L 148.459956 70642.479917 
L 148.459956 173.5144 
L 141.604073 173.5144 
z
" clip-path="url(#p672f1222f2)" style="fill: #b22222; opacity: 0.9"/>
   </g>
   <g id="patch_10">
    <path d="M 148.459956 70642.479917 
L 155.315847 70642.479917 
L 155.315847 147.193703 
L 148.459956 147.193703 
z
" clip-path="url(#p672f1222f2)" style="fill: #b22222; opacity: 0.9"/>
   </g>
   <g id="patch_11">
    <path d="M 155.315847 70642.479917 
L 162.171731 70642.479917 
L 162.171731 140.084607 
L 155.315847 140.084607 
z
" clip-path="url(#p672f1222f2)" style="fill: #b22222; opacity: 0.9"/>
   </g>
   <g id="patch_12">
    <path d="M 162.171731 70642.479917 
L 169.027622 70642.479917 
L 169.027622 119.562513 
L 162.171731 119.562513 
z
" clip-path="url(#p672f1222f2)" style="fill: #b22222; opacity: 0.9"/>
   </g>
   <g id="patch_13">
    <path d="M 169.027622 70642.479917 
L 175.883505 70642.479917 
L 175.883505 107.835062 
L 169.027622 107.835062 
z
" clip-path="url(#p672f1222f2)" style="fill: #b22222; opacity: 0.9"/>
   </g>
   <g id="patch_14">
    <path d="M 175.883505 70642.479917 
L 182.739389 70642.479917 
L 182.739389 95.15461 
L 175.883505 95.15461 
z
" clip-path="url(#p672f1222f2)" style="fill: #b22222; opacity: 0.9"/>
   </g>
   <g id="patch_15">
    <path d="M 182.739389 70642.479917 
L 189.595276 70642.479917 
L 189.595276 87.538909 
L 182.739389 87.538909 
z
" clip-path="url(#p672f1222f2)" style="fill: #b22222; opacity: 0.9"/>
   </g>
   <g id="patch_16">
    <path d="M 189.595276 70642.479917 
L 196.451164 70642.479917 
L 196.451164 75.447282 
L 189.595276 75.447282 
z
" clip-path="url(#p672f1222f2)" style="fill: #b22222; opacity: 0.9"/>
   </g>
   <g id="patch_17">
    <path d="M 196.451164 70642.479917 
L 203.307047 70642.479917 
L 203.307047 71.929762 
L 196.451164 71.929762 
z
" clip-path="url(#p672f1222f2)" style="fill: #b22222; opacity: 0.9"/>
   </g>
   <g id="patch_18">
    <path d="M 203.307047 70642.479917 
L 210.162935 70642.479917 
L 210.162935 63.50341 
L 203.307047 63.50341 
z
" clip-path="url(#p672f1222f2)" style="fill: #b22222; opacity: 0.9"/>
   </g>
   <g id="patch_19">
    <path d="M 210.162935 70642.479917 
L 217.018822 70642.479917 
L 217.018822 60.906613 
L 210.162935 60.906613 
z
" clip-path="url(#p672f1222f2)" style="fill: #b22222; opacity: 0.9"/>
   </g>
   <g id="patch_20">
    <path d="M 217.018822 70642.479917 
L 223.874707 70642.479917 
L 223.874707 57.093901 
L 217.018822 57.093901 
z
" clip-path="url(#p672f1222f2)" style="fill: #b22222; opacity: 0.9"/>
   </g>
   <g id="patch_21">
    <path d="M 223.874707 70642.479917 
L 230.730594 70642.479917 
L 230.730594 54.326193 
L 223.874707 54.326193 
z
" clip-path="url(#p672f1222f2)" style="fill: #b22222; opacity: 0.9"/>
   </g>
   <g id="patch_22">
    <path d="M 230.730594 70642.479917 
L 237.58648 70642.479917 
L 237.58648 55.019808 
L 230.730594 55.019808 
z
" clip-path="url(#p672f1222f2)" style="fill: #b22222; opacity: 0.9"/>
   </g>
   <g id="patch_23">
    <path d="M 237.58648 70642.479917 
L 244.442366 70642.479917 
L 244.442366 53.451248 
L 237.58648 53.451248 
z
" clip-path="url(#p672f1222f2)" style="fill: #b22222; opacity: 0.9"/>
   </g>
   <g id="patch_24">
    <path d="M 244.442366 70642.479917 
L 251.298253 70642.479917 
L 251.298253 57.89914 
L 244.442366 57.89914 
z
" clip-path="url(#p672f1222f2)" style="fill: #b22222; opacity: 0.9"/>
   </g>
   <g id="patch_25">
    <path d="M 251.298253 70642.479917 
L 258.154138 70642.479917 
L 258.154138 59.176413 
L 251.298253 59.176413 
z
" clip-path="url(#p672f1222f2)" style="fill: #b22222; opacity: 0.9"/>
   </g>
   <g id="patch_26">
    <path d="M 258.154138 70642.479917 
L 265.010026 70642.479917 
L 265.010026 64.883513 
L 258.154138 64.883513 
z
" clip-path="url(#p672f1222f2)" style="fill: #b22222; opacity: 0.9"/>
   </g>
   <g id="patch_27">
    <path d="M 265.010026 70642.479917 
L 271.865913 70642.479917 
L 271.865913 70.189539 
L 265.010026 70.189539 
z
" clip-path="url(#p672f1222f2)" style="fill: #b22222; opacity: 0.9"/>
   </g>
   <g id="patch_28">
    <path d="M 271.865913 70642.479917 
L 278.721796 70642.479917 
L 278.721796 78.537844 
L 271.865913 78.537844 
z
" clip-path="url(#p672f1222f2)" style="fill: #b22222; opacity: 0.9"/>
   </g>
   <g id="patch_29">
    <path d="M 278.721796 70642.479917 
L 285.577684 70642.479917 
L 285.577684 86.164235 
L 278.721796 86.164235 
z
" clip-path="url(#p672f1222f2)" style="fill: #b22222; opacity: 0.9"/>
   </g>
   <g id="patch_30">
    <path d="M 285.577684 70642.479917 
L 292.433571 70642.479917 
L 292.433571 95.492493 
L 285.577684 95.492493 
z
" clip-path="url(#p672f1222f2)" style="fill: #b22222; opacity: 0.9"/>
   </g>
   <g id="patch_31">
    <path d="M 292.433571 70642.479917 
L 299.289455 70642.479917 
L 299.289455 104.636137 
L 292.433571 104.636137 
z
" clip-path="url(#p672f1222f2)" style="fill: #b22222; opacity: 0.9"/>
   </g>
   <g id="patch_32">
    <path d="M 299.289455 70642.479917 
L 306.145338 70642.479917 
L 306.145338 119.225826 
L 299.289455 119.225826 
z
" clip-path="url(#p672f1222f2)" style="fill: #b22222; opacity: 0.9"/>
   </g>
   <g id="patch_33">
    <path d="M 306.145338 70642.479917 
L 313.001229 70642.479917 
L 313.001229 128.182923 
L 306.145338 128.182923 
z
" clip-path="url(#p672f1222f2)" style="fill: #b22222; opacity: 0.9"/>
   </g>
   <g id="patch_34">
    <path d="M 313.001229 70642.479917 
L 319.857113 70642.479917 
L 319.857113 142.561455 
L 313.001229 142.561455 
z
" clip-path="url(#p672f1222f2)" style="fill: #b22222; opacity: 0.9"/>
   </g>
   <g id="patch_35">
    <path d="M 319.857113 70642.479917 
L 326.713004 70642.479917 
L 326.713004 151.480024 
L 319.857113 151.480024 
z
" clip-path="url(#p672f1222f2)" style="fill: #b22222; opacity: 0.9"/>
   </g>
   <g id="patch_36">
    <path d="M 326.713004 70642.479917 
L 333.568888 70642.479917 
L 333.568888 173.5144 
L 326.713004 173.5144 
z
" clip-path="url(#p672f1222f2)" style="fill: #b22222; opacity: 0.9"/>
   </g>
   <g id="patch_37">
    <path d="M 333.568888 70642.479917 
L 340.424771 70642.479917 
L 340.424771 192.499548 
L 333.568888 192.499548 
z
" clip-path="url(#p672f1222f2)" style="fill: #b22222; opacity: 0.9"/>
   </g>
   <g id="patch_38">
    <path d="M 340.424771 70642.479917 
L 347.280662 70642.479917 
L 347.280662 210.967538 
L 340.424771 210.967538 
z
" clip-path="url(#p672f1222f2)" style="fill: #b22222; opacity: 0.9"/>
   </g>
   <g id="patch_39">
    <path d="M 347.280662 70642.479917 
L 354.136546 70642.479917 
L 354.136546 220.238075 
L 347.280662 220.238075 
z
" clip-path="url(#p672f1222f2)" style="fill: #b22222; opacity: 0.9"/>
   </g>
   <g id="patch_40">
    <path d="M 354.136546 70642.479917 
L 360.992429 70642.479917 
L 360.992429 226.192594 
L 354.136546 226.192594 
z
" clip-path="url(#p672f1222f2)" style="fill: #b22222; opacity: 0.9"/>
   </g>
   <g id="patch_41">
    <path d="M 360.992429 70642.479917 
L 367.848313 70642.479917 
L 367.848313 273.43609 
L 360.992429 273.43609 
z
" clip-path="url(#p672f1222f2)" style="fill: #b22222; opacity: 0.9"/>
   </g>
   <g id="patch_42">
    <path d="M 367.848313 70642.479917 
L 374.704204 70642.479917 
L 374.704204 273.436125 
L 367.848313 273.436125 
z
" clip-path="url(#p672f1222f2)" style="fill: #b22222; opacity: 0.9"/>
   </g>
   <g id="matplotlib.axis_1">
    <g id="xtick_1">
     <g id="line2d_1">
      <defs>
       <path id="m96a7973b01" d="M 0 0 
L 0 3.5 
" style="stroke: #000000; stroke-width: 0.8"/>
      </defs>
      <g>
       <use xlink:href="#m96a7973b01" x="106.298182" y="307.584" style="stroke: #000000; stroke-width: 0.8"/>
      </g>
     </g>
     <g id="text_1">
      <!-- $\mathdefault{−4}$ -->
      <g transform="translate(99.933142 321.502498) scale(0.1 -0.1)">
       <defs>
        <path id="CMSY10-0" d="M 4218 1472 
C 4326 1472 4442 1472 4442 1600 
C 4442 1728 4326 1728 4218 1728 
L 755 1728 
C 646 1728 531 1728 531 1600 
C 531 1472 646 1472 755 1472 
L 4218 1472 
z
" transform="scale(0.015625)"/>
        <path id="CMR17-34" d="M 2150 4147 
C 2150 4281 2144 4288 2029 4288 
L 128 1254 
L 128 1088 
L 1779 1088 
L 1779 460 
C 1779 230 1766 166 1318 166 
L 1197 166 
L 1197 0 
C 1402 12 1747 12 1965 12 
C 2182 12 2528 12 2733 0 
L 2733 166 
L 2611 166 
C 2163 166 2150 230 2150 460 
L 2150 1088 
L 2803 1088 
L 2803 1254 
L 2150 1254 
L 2150 4147 
z
M 1798 3723 
L 1798 1254 
L 256 1254 
L 1798 3723 
z
" transform="scale(0.015625)"/>
       </defs>
       <use xlink:href="#CMSY10-0" transform="scale(0.996264)"/>
       <use xlink:href="#CMR17-34" transform="translate(77.487468 0) scale(0.996264)"/>
      </g>
     </g>
    </g>
    <g id="xtick_2">
     <g id="line2d_2">
      <g>
       <use xlink:href="#m96a7973b01" x="171.229091" y="307.584" style="stroke: #000000; stroke-width: 0.8"/>
      </g>
     </g>
     <g id="text_2">
      <!-- $\mathdefault{−2}$ -->
      <g transform="translate(164.864051 321.502498) scale(0.1 -0.1)">
       <defs>
        <path id="CMR17-32" d="M 2669 990 
L 2554 990 
C 2490 537 2438 460 2413 422 
C 2381 371 1920 371 1830 371 
L 602 371 
C 832 620 1280 1073 1824 1596 
C 2214 1966 2669 2400 2669 3033 
C 2669 3788 2067 4224 1395 4224 
C 691 4224 262 3603 262 3027 
C 262 2777 448 2745 525 2745 
C 589 2745 781 2783 781 3007 
C 781 3206 614 3264 525 3264 
C 486 3264 448 3257 422 3244 
C 544 3788 915 4057 1306 4057 
C 1862 4057 2227 3616 2227 3033 
C 2227 2477 1901 1998 1536 1583 
L 262 147 
L 262 0 
L 2515 0 
L 2669 990 
z
" transform="scale(0.015625)"/>
       </defs>
       <use xlink:href="#CMSY10-0" transform="scale(0.996264)"/>
       <use xlink:href="#CMR17-32" transform="translate(77.487468 0) scale(0.996264)"/>
      </g>
     </g>
    </g>
    <g id="xtick_3">
     <g id="line2d_3">
      <g>
       <use xlink:href="#m96a7973b01" x="236.16" y="307.584" style="stroke: #000000; stroke-width: 0.8"/>
      </g>
     </g>
     <g id="text_3">
      <!-- $\mathdefault{0}$ -->
      <g transform="translate(233.669332 321.502498) scale(0.1 -0.1)">
       <defs>
        <path id="CMR17-30" d="M 2688 2038 
C 2688 2430 2682 3099 2413 3613 
C 2176 4063 1798 4224 1466 4224 
C 1158 4224 768 4082 525 3620 
C 269 3137 243 2539 243 2038 
C 243 1671 250 1112 448 623 
C 723 -39 1216 -128 1466 -128 
C 1760 -128 2208 -7 2470 604 
C 2662 1048 2688 1568 2688 2038 
z
M 1466 -26 
C 1056 -26 813 328 723 816 
C 653 1196 653 1749 653 2109 
C 653 2604 653 3015 736 3407 
C 858 3954 1216 4121 1466 4121 
C 1728 4121 2067 3947 2189 3420 
C 2272 3054 2278 2623 2278 2109 
C 2278 1691 2278 1176 2202 797 
C 2067 96 1690 -26 1466 -26 
z
" transform="scale(0.015625)"/>
       </defs>
       <use xlink:href="#CMR17-30" transform="scale(0.996264)"/>
      </g>
     </g>
    </g>
    <g id="xtick_4">
     <g id="line2d_4">
      <g>
       <use xlink:href="#m96a7973b01" x="301.090909" y="307.584" style="stroke: #000000; stroke-width: 0.8"/>
      </g>
     </g>
     <g id="text_4">
      <!-- $\mathdefault{2}$ -->
      <g transform="translate(298.600241 321.502498) scale(0.1 -0.1)">
       <use xlink:href="#CMR17-32" transform="scale(0.996264)"/>
      </g>
     </g>
    </g>
    <g id="xtick_5">
     <g id="line2d_5">
      <g>
       <use xlink:href="#m96a7973b01" x="366.021818" y="307.584" style="stroke: #000000; stroke-width: 0.8"/>
      </g>
     </g>
     <g id="text_5">
      <!-- $\mathdefault{4}$ -->
      <g transform="translate(363.531151 321.502498) scale(0.1 -0.1)">
       <use xlink:href="#CMR17-34" transform="scale(0.996264)"/>
      </g>
     </g>
    </g>
   </g>
   <g id="matplotlib.axis_2">
    <g id="ytick_1">
     <g id="line2d_6">
      <defs>
       <path id="mcb69e0c4e2" d="M 0 0 
L -3.5 0 
" style="stroke: #000000; stroke-width: 0.8"/>
      </defs>
      <g>
       <use xlink:href="#mcb69e0c4e2" x="57.6" y="307.584" style="stroke: #000000; stroke-width: 0.8"/>
      </g>
     </g>
     <g id="text_6">
      <!-- $\mathdefault{10^{-4}}$ -->
      <g transform="translate(30.439427 311.043249) scale(0.1 -0.1)">
       <defs>
        <path id="CMR17-31" d="M 1702 4083 
C 1702 4217 1696 4224 1606 4224 
C 1357 3927 979 3833 621 3820 
C 602 3820 570 3820 563 3808 
C 557 3795 557 3782 557 3648 
C 755 3648 1088 3686 1344 3839 
L 1344 467 
C 1344 243 1331 166 781 166 
L 589 166 
L 589 0 
C 896 6 1216 12 1523 12 
C 1830 12 2150 6 2458 0 
L 2458 166 
L 2266 166 
C 1715 166 1702 236 1702 467 
L 1702 4083 
z
" transform="scale(0.015625)"/>
       </defs>
       <use xlink:href="#CMR17-31" transform="scale(0.996264)"/>
       <use xlink:href="#CMR17-30" transform="translate(45.690477 0) scale(0.996264)"/>
       <use xlink:href="#CMSY10-0" transform="translate(91.380954 36.153639) scale(0.697382)"/>
       <use xlink:href="#CMR17-34" transform="translate(145.621947 36.153639) scale(0.697382)"/>
      </g>
     </g>
    </g>
    <g id="ytick_2">
     <g id="line2d_7">
      <g>
       <use xlink:href="#mcb69e0c4e2" x="57.6" y="236.966635" style="stroke: #000000; stroke-width: 0.8"/>
      </g>
     </g>
     <g id="text_7">
      <!-- $\mathdefault{10^{-3}}$ -->
      <g transform="translate(30.439427 240.425884) scale(0.1 -0.1)">
       <defs>
        <path id="CMR17-33" d="M 1414 2176 
C 1984 2176 2234 1673 2234 1094 
C 2234 322 1824 25 1453 25 
C 1114 25 563 193 390 691 
C 422 678 454 678 486 678 
C 640 678 755 780 755 947 
C 755 1132 614 1216 486 1216 
C 378 1216 211 1164 211 927 
C 211 335 787 -128 1466 -128 
C 2176 -128 2720 432 2720 1087 
C 2720 1718 2208 2176 1600 2246 
C 2086 2347 2554 2776 2554 3353 
C 2554 3856 2048 4224 1472 4224 
C 890 4224 378 3862 378 3347 
C 378 3123 544 3084 627 3084 
C 762 3084 877 3167 877 3334 
C 877 3500 762 3584 627 3584 
C 602 3584 570 3584 544 3571 
C 730 3999 1235 4076 1459 4076 
C 1683 4076 2106 3966 2106 3347 
C 2106 3167 2080 2851 1862 2574 
C 1670 2329 1453 2316 1242 2297 
C 1210 2297 1062 2284 1037 2284 
C 992 2278 966 2272 966 2227 
C 966 2182 973 2176 1101 2176 
L 1414 2176 
z
" transform="scale(0.015625)"/>
       </defs>
       <use xlink:href="#CMR17-31" transform="scale(0.996264)"/>
       <use xlink:href="#CMR17-30" transform="translate(45.690477 0) scale(0.996264)"/>
       <use xlink:href="#CMSY10-0" transform="translate(91.380954 36.153639) scale(0.697382)"/>
       <use xlink:href="#CMR17-33" transform="translate(145.621947 36.153639) scale(0.697382)"/>
      </g>
     </g>
    </g>
    <g id="ytick_3">
     <g id="line2d_8">
      <g>
       <use xlink:href="#mcb69e0c4e2" x="57.6" y="166.349269" style="stroke: #000000; stroke-width: 0.8"/>
      </g>
     </g>
     <g id="text_8">
      <!-- $\mathdefault{10^{-2}}$ -->
      <g transform="translate(30.439427 169.808518) scale(0.1 -0.1)">
       <use xlink:href="#CMR17-31" transform="scale(0.996264)"/>
       <use xlink:href="#CMR17-30" transform="translate(45.690477 0) scale(0.996264)"/>
       <use xlink:href="#CMSY10-0" transform="translate(91.380954 36.153639) scale(0.697382)"/>
       <use xlink:href="#CMR17-32" transform="translate(145.621947 36.153639) scale(0.697382)"/>
      </g>
     </g>
    </g>
    <g id="ytick_4">
     <g id="line2d_9">
      <g>
       <use xlink:href="#mcb69e0c4e2" x="57.6" y="95.731904" style="stroke: #000000; stroke-width: 0.8"/>
      </g>
     </g>
     <g id="text_9">
      <!-- $\mathdefault{10^{-1}}$ -->
      <g transform="translate(30.439427 99.191153) scale(0.1 -0.1)">
       <use xlink:href="#CMR17-31" transform="scale(0.996264)"/>
       <use xlink:href="#CMR17-30" transform="translate(45.690477 0) scale(0.996264)"/>
       <use xlink:href="#CMSY10-0" transform="translate(91.380954 36.153639) scale(0.697382)"/>
       <use xlink:href="#CMR17-31" transform="translate(145.621947 36.153639) scale(0.697382)"/>
      </g>
     </g>
    </g>
    <g id="ytick_5">
     <g id="line2d_10">
      <defs>
       <path id="m260e6dfc12" d="M 0 0 
L -2 0 
" style="stroke: #000000; stroke-width: 0.6"/>
      </defs>
      <g>
       <use xlink:href="#m260e6dfc12" x="57.6" y="286.326055" style="stroke: #000000; stroke-width: 0.6"/>
      </g>
     </g>
    </g>
    <g id="ytick_6">
     <g id="line2d_11">
      <g>
       <use xlink:href="#m260e6dfc12" x="57.6" y="273.890954" style="stroke: #000000; stroke-width: 0.6"/>
      </g>
     </g>
    </g>
    <g id="ytick_7">
     <g id="line2d_12">
      <g>
       <use xlink:href="#m260e6dfc12" x="57.6" y="265.06811" style="stroke: #000000; stroke-width: 0.6"/>
      </g>
     </g>
    </g>
    <g id="ytick_8">
     <g id="line2d_13">
      <g>
       <use xlink:href="#m260e6dfc12" x="57.6" y="258.22458" style="stroke: #000000; stroke-width: 0.6"/>
      </g>
     </g>
    </g>
    <g id="ytick_9">
     <g id="line2d_14">
      <g>
       <use xlink:href="#m260e6dfc12" x="57.6" y="252.633009" style="stroke: #000000; stroke-width: 0.6"/>
      </g>
     </g>
    </g>
    <g id="ytick_10">
     <g id="line2d_15">
      <g>
       <use xlink:href="#m260e6dfc12" x="57.6" y="247.905403" style="stroke: #000000; stroke-width: 0.6"/>
      </g>
     </g>
    </g>
    <g id="ytick_11">
     <g id="line2d_16">
      <g>
       <use xlink:href="#m260e6dfc12" x="57.6" y="243.810164" style="stroke: #000000; stroke-width: 0.6"/>
      </g>
     </g>
    </g>
    <g id="ytick_12">
     <g id="line2d_17">
      <g>
       <use xlink:href="#m260e6dfc12" x="57.6" y="240.197908" style="stroke: #000000; stroke-width: 0.6"/>
      </g>
     </g>
    </g>
    <g id="ytick_13">
     <g id="line2d_18">
      <g>
       <use xlink:href="#m260e6dfc12" x="57.6" y="215.708689" style="stroke: #000000; stroke-width: 0.6"/>
      </g>
     </g>
    </g>
    <g id="ytick_14">
     <g id="line2d_19">
      <g>
       <use xlink:href="#m260e6dfc12" x="57.6" y="203.273589" style="stroke: #000000; stroke-width: 0.6"/>
      </g>
     </g>
    </g>
    <g id="ytick_15">
     <g id="line2d_20">
      <g>
       <use xlink:href="#m260e6dfc12" x="57.6" y="194.450744" style="stroke: #000000; stroke-width: 0.6"/>
      </g>
     </g>
    </g>
    <g id="ytick_16">
     <g id="line2d_21">
      <g>
       <use xlink:href="#m260e6dfc12" x="57.6" y="187.607214" style="stroke: #000000; stroke-width: 0.6"/>
      </g>
     </g>
    </g>
    <g id="ytick_17">
     <g id="line2d_22">
      <g>
       <use xlink:href="#m260e6dfc12" x="57.6" y="182.015643" style="stroke: #000000; stroke-width: 0.6"/>
      </g>
     </g>
    </g>
    <g id="ytick_18">
     <g id="line2d_23">
      <g>
       <use xlink:href="#m260e6dfc12" x="57.6" y="177.288038" style="stroke: #000000; stroke-width: 0.6"/>
      </g>
     </g>
    </g>
    <g id="ytick_19">
     <g id="line2d_24">
      <g>
       <use xlink:href="#m260e6dfc12" x="57.6" y="173.192799" style="stroke: #000000; stroke-width: 0.6"/>
      </g>
     </g>
    </g>
    <g id="ytick_20">
     <g id="line2d_25">
      <g>
       <use xlink:href="#m260e6dfc12" x="57.6" y="169.580543" style="stroke: #000000; stroke-width: 0.6"/>
      </g>
     </g>
    </g>
    <g id="ytick_21">
     <g id="line2d_26">
      <g>
       <use xlink:href="#m260e6dfc12" x="57.6" y="145.091324" style="stroke: #000000; stroke-width: 0.6"/>
      </g>
     </g>
    </g>
    <g id="ytick_22">
     <g id="line2d_27">
      <g>
       <use xlink:href="#m260e6dfc12" x="57.6" y="132.656223" style="stroke: #000000; stroke-width: 0.6"/>
      </g>
     </g>
    </g>
    <g id="ytick_23">
     <g id="line2d_28">
      <g>
       <use xlink:href="#m260e6dfc12" x="57.6" y="123.833379" style="stroke: #000000; stroke-width: 0.6"/>
      </g>
     </g>
    </g>
    <g id="ytick_24">
     <g id="line2d_29">
      <g>
       <use xlink:href="#m260e6dfc12" x="57.6" y="116.989849" style="stroke: #000000; stroke-width: 0.6"/>
      </g>
     </g>
    </g>
    <g id="ytick_25">
     <g id="line2d_30">
      <g>
       <use xlink:href="#m260e6dfc12" x="57.6" y="111.398278" style="stroke: #000000; stroke-width: 0.6"/>
      </g>
     </g>
    </g>
    <g id="ytick_26">
     <g id="line2d_31">
      <g>
       <use xlink:href="#m260e6dfc12" x="57.6" y="106.670672" style="stroke: #000000; stroke-width: 0.6"/>
      </g>
     </g>
    </g>
    <g id="ytick_27">
     <g id="line2d_32">
      <g>
       <use xlink:href="#m260e6dfc12" x="57.6" y="102.575434" style="stroke: #000000; stroke-width: 0.6"/>
      </g>
     </g>
    </g>
    <g id="ytick_28">
     <g id="line2d_33">
      <g>
       <use xlink:href="#m260e6dfc12" x="57.6" y="98.963177" style="stroke: #000000; stroke-width: 0.6"/>
      </g>
     </g>
    </g>
    <g id="ytick_29">
     <g id="line2d_34">
      <g>
       <use xlink:href="#m260e6dfc12" x="57.6" y="74.473959" style="stroke: #000000; stroke-width: 0.6"/>
      </g>
     </g>
    </g>
    <g id="ytick_30">
     <g id="line2d_35">
      <g>
       <use xlink:href="#m260e6dfc12" x="57.6" y="62.038858" style="stroke: #000000; stroke-width: 0.6"/>
      </g>
     </g>
    </g>
    <g id="ytick_31">
     <g id="line2d_36">
      <g>
       <use xlink:href="#m260e6dfc12" x="57.6" y="53.216013" style="stroke: #000000; stroke-width: 0.6"/>
      </g>
     </g>
    </g>
   </g>
   <g id="line2d_37">
    <path d="M 87.645356 346.6 
L 90.229421 336.394796 
L 93.50876 323.734543 
L 96.788099 311.36507 
L 100.067438 299.286377 
L 103.346777 287.498466 
L 106.626116 276.001336 
L 109.905455 264.794986 
L 113.184793 253.879418 
L 116.464132 243.25463 
L 119.743471 232.920624 
L 123.02281 222.877398 
L 126.302149 213.124953 
L 129.581488 203.663289 
L 132.860826 194.492406 
L 136.140165 185.612304 
L 139.419504 177.022982 
L 142.698843 168.724442 
L 145.978182 160.716682 
L 149.257521 152.999704 
L 152.53686 145.573506 
L 155.816198 138.438089 
L 159.095537 131.593453 
L 162.374876 125.039598 
L 165.654215 118.776524 
L 168.933554 112.804231 
L 172.212893 107.122719 
L 175.492231 101.731987 
L 178.77157 96.632037 
L 182.050909 91.822867 
L 185.330248 87.304478 
L 188.609587 83.076871 
L 191.888926 79.140044 
L 195.168264 75.493998 
L 198.447603 72.138733 
L 201.726942 69.074248 
L 205.006281 66.300545 
L 208.28562 63.817623 
L 211.564959 61.625481 
L 214.844298 59.724121 
L 218.123636 58.113541 
L 221.402975 56.793742 
L 224.682314 55.764724 
L 227.961653 55.026487 
L 231.240992 54.579031 
L 234.520331 54.422356 
L 237.799669 54.556462 
L 241.079008 54.981348 
L 244.358347 55.697016 
L 247.637686 56.703464 
L 250.917025 58.000694 
L 254.196364 59.588704 
L 257.475702 61.467495 
L 260.755041 63.637067 
L 264.03438 66.09742 
L 267.313719 68.848554 
L 270.593058 71.890468 
L 273.872397 75.223164 
L 277.151736 78.846641 
L 280.431074 82.760898 
L 283.710413 86.965936 
L 286.989752 91.461756 
L 290.269091 96.248356 
L 293.54843 101.325737 
L 296.827769 106.693899 
L 300.107107 112.352842 
L 303.386446 118.302565 
L 306.665785 124.54307 
L 309.945124 131.074355 
L 313.224463 137.896422 
L 316.503802 145.009269 
L 319.78314 152.412897 
L 323.062479 160.107307 
L 326.341818 168.092497 
L 329.621157 176.368468 
L 332.900496 184.935219 
L 336.179835 193.792752 
L 339.459174 202.941066 
L 342.738512 212.38016 
L 346.017851 222.110036 
L 349.29719 232.130692 
L 352.576529 242.442129 
L 355.855868 253.044347 
L 359.135207 263.937347 
L 362.414545 275.121126 
L 365.693884 286.595687 
L 368.973223 298.361029 
L 372.252562 310.417152 
L 375.531901 322.764055 
L 378.81124 335.40174 
L 381.651707 346.6 
" clip-path="url(#p672f1222f2)" style="fill: none; stroke: #000000; stroke-width: 2; stroke-linecap: square"/>
   </g>
   <g id="line2d_38">
    <path d="M 94.179791 346.6 
L 96.788099 335.89796 
L 100.067438 322.755559 
L 103.346777 309.926072 
L 106.626116 297.409499 
L 109.905455 285.205841 
L 113.184793 273.315097 
L 116.464132 261.737267 
L 119.743471 250.472352 
L 123.02281 239.52035 
L 126.302149 228.881264 
L 129.581488 218.555091 
L 132.860826 208.541833 
L 136.140165 198.841489 
L 139.419504 189.45406 
L 142.698843 180.379545 
L 145.978182 171.617944 
L 149.257521 163.169257 
L 152.53686 155.033485 
L 155.816198 147.210627 
L 159.095537 139.700684 
L 162.374876 132.503654 
L 165.654215 125.619539 
L 168.933554 119.048339 
L 172.212893 112.790053 
L 175.492231 106.844681 
L 178.77157 101.212223 
L 182.050909 95.892679 
L 185.330248 90.88605 
L 188.609587 86.192336 
L 191.888926 81.811535 
L 195.168264 77.743649 
L 198.447603 73.988677 
L 201.726942 70.54662 
L 205.006281 67.417477 
L 208.28562 64.601248 
L 211.564959 62.097933 
L 214.844298 59.907533 
L 218.123636 58.030047 
L 221.402975 56.465476 
L 224.682314 55.213818 
L 227.961653 54.275075 
L 231.240992 53.649247 
L 234.520331 53.336332 
L 237.799669 53.336332 
L 241.079008 53.649247 
L 244.358347 54.275075 
L 247.637686 55.213818 
L 250.917025 56.465476 
L 254.196364 58.030047 
L 257.475702 59.907533 
L 260.755041 62.097933 
L 264.03438 64.601248 
L 267.313719 67.417477 
L 270.593058 70.54662 
L 273.872397 73.988677 
L 277.151736 77.743649 
L 280.431074 81.811535 
L 283.710413 86.192336 
L 286.989752 90.88605 
L 290.269091 95.892679 
L 293.54843 101.212223 
L 296.827769 106.844681 
L 300.107107 112.790053 
L 303.386446 119.048339 
L 306.665785 125.619539 
L 309.945124 132.503654 
L 313.224463 139.700684 
L 316.503802 147.210627 
L 319.78314 155.033485 
L 323.062479 163.169257 
L 326.341818 171.617944 
L 329.621157 180.379545 
L 332.900496 189.45406 
L 336.179835 198.841489 
L 339.459174 208.541833 
L 342.738512 218.555091 
L 346.017851 228.881264 
L 349.29719 239.52035 
L 352.576529 250.472352 
L 355.855868 261.737267 
L 359.135207 273.315097 
L 362.414545 285.205841 
L 365.693884 297.409499 
L 368.973223 309.926072 
L 372.252562 322.755559 
L 375.531901 335.89796 
L 378.140209 346.6 
" clip-path="url(#p672f1222f2)" style="fill: none; stroke: #1f77b4; stroke-width: 2; stroke-linecap: square"/>
   </g>
   <g id="patch_43">
    <path d="M 57.6 307.584 
L 57.6 51.84 
" style="fill: none; stroke: #000000; stroke-width: 0.8; stroke-linejoin: miter; stroke-linecap: square"/>
   </g>
   <g id="patch_44">
    <path d="M 414.72 307.584 
L 414.72 51.84 
" style="fill: none; stroke: #000000; stroke-width: 0.8; stroke-linejoin: miter; stroke-linecap: square"/>
   </g>
   <g id="patch_45">
    <path d="M 57.6 307.584 
L 414.72 307.584 
" style="fill: none; stroke: #000000; stroke-width: 0.8; stroke-linejoin: miter; stroke-linecap: square"/>
   </g>
   <g id="patch_46">
    <path d="M 57.6 51.84 
L 414.72 51.84 
" style="fill: none; stroke: #000000; stroke-width: 0.8; stroke-linejoin: miter; stroke-linecap: square"/>
   </g>
   <g id="legend_1">
    <g id="patch_47">
     <path d="M 127.751302 300.584 
L 344.568698 300.584 
Q 347.368698 300.584 347.368698 297.784 
L 347.368698 260.159943 
Q 347.368698 257.359943 344.568698 257.359943 
L 127.751302 257.359943 
Q 124.951302 257.359943 124.951302 260.159943 
L 124.951302 297.784 
Q 124.951302 300.584 127.751302 300.584 
z
" style="fill: #ffffff; opacity: 0.8; stroke: #cccccc; stroke-linejoin: miter"/>
    </g>
    <g id="line2d_39">
     <path d="M 130.551302 267.859943 
L 144.551302 267.859943 
L 158.551302 267.859943 
" style="fill: none; stroke: #000000; stroke-width: 2; stroke-linecap: square"/>
    </g>
    <g id="text_10">
     <!-- $\mu$ = -0.046585, $\sigma$ = 1.037361 -->
     <g transform="translate(169.751302 272.759943) scale(0.14 -0.14)">
      <defs>
       <path id="CMMI12-16" d="M 922 140 
C 1082 -7 1318 -64 1536 -64 
C 1946 -64 2227 210 2374 408 
C 2438 70 2707 -64 2931 -64 
C 3123 -64 3277 51 3392 281 
C 3494 498 3584 887 3584 913 
C 3584 944 3558 970 3520 970 
C 3462 970 3456 938 3430 842 
C 3334 466 3213 64 2950 64 
C 2765 64 2752 229 2752 357 
C 2752 504 2810 734 2854 925 
L 3034 1615 
C 3059 1736 3130 2023 3162 2138 
C 3200 2291 3270 2566 3270 2591 
C 3270 2687 3194 2752 3098 2752 
C 3040 2752 2906 2726 2854 2534 
L 2406 759 
C 2374 632 2374 619 2291 517 
C 2214 408 1965 64 1562 64 
C 1203 64 1088 325 1088 625 
C 1088 811 1146 1034 1171 1143 
L 1459 2292 
C 1491 2413 1542 2617 1542 2656 
C 1542 2758 1459 2816 1376 2816 
C 1318 2816 1178 2796 1126 2592 
L 198 -1085 
C 192 -1116 179 -1154 179 -1191 
C 179 -1287 256 -1351 352 -1351 
C 538 -1351 576 -1204 621 -1029 
L 922 140 
z
" transform="scale(0.015625)"/>
       <path id="CMR17-3d" d="M 4115 2048 
C 4211 2048 4307 2048 4307 2156 
C 4307 2272 4198 2272 4090 2272 
L 512 2272 
C 403 2272 294 2272 294 2156 
C 294 2048 390 2048 486 2048 
L 4115 2048 
z
M 4090 927 
C 4198 927 4307 927 4307 1043 
C 4307 1152 4211 1152 4115 1152 
L 486 1152 
C 390 1152 294 1152 294 1043 
C 294 927 403 927 512 927 
L 4090 927 
z
" transform="scale(0.015625)"/>
       <path id="CMR17-2d" d="M 1632 1254 
L 1632 1536 
L 26 1536 
L 26 1254 
L 1632 1254 
z
" transform="scale(0.015625)"/>
       <path id="CMR17-2e" d="M 1062 262 
C 1062 422 934 524 800 524 
C 672 524 538 422 538 262 
C 538 102 666 0 800 0 
C 928 0 1062 102 1062 262 
z
" transform="scale(0.015625)"/>
       <path id="CMR17-36" d="M 678 2198 
C 678 3712 1395 4076 1811 4076 
C 1946 4076 2272 4049 2400 3782 
C 2298 3782 2106 3782 2106 3558 
C 2106 3385 2246 3328 2336 3328 
C 2394 3328 2566 3353 2566 3571 
C 2566 3987 2246 4224 1805 4224 
C 1043 4224 243 3411 243 2011 
C 243 257 966 -128 1478 -128 
C 2099 -128 2688 431 2688 1295 
C 2688 2101 2170 2688 1517 2688 
C 1126 2688 838 2430 678 1979 
L 678 2198 
z
M 1478 25 
C 691 25 691 1212 691 1450 
C 691 1914 909 2585 1504 2585 
C 1613 2585 1926 2585 2138 2140 
C 2253 1889 2253 1624 2253 1302 
C 2253 954 2253 696 2118 438 
C 1978 173 1773 25 1478 25 
z
" transform="scale(0.015625)"/>
       <path id="CMR17-35" d="M 730 3750 
C 794 3724 1056 3641 1325 3641 
C 1920 3641 2246 3961 2432 4140 
C 2432 4191 2432 4224 2394 4224 
C 2387 4224 2374 4224 2323 4198 
C 2099 4102 1837 4032 1517 4032 
C 1325 4032 1037 4055 723 4191 
C 653 4224 640 4224 634 4224 
C 602 4224 595 4217 595 4090 
L 595 2231 
C 595 2113 595 2080 659 2080 
C 691 2080 704 2093 736 2139 
C 941 2435 1222 2560 1542 2560 
C 1766 2560 2246 2415 2246 1293 
C 2246 1087 2246 716 2054 422 
C 1894 159 1645 25 1370 25 
C 947 25 518 319 403 812 
C 429 806 480 793 506 793 
C 589 793 749 838 749 1036 
C 749 1209 627 1280 506 1280 
C 358 1280 262 1190 262 1011 
C 262 454 704 -128 1382 -128 
C 2042 -128 2669 441 2669 1267 
C 2669 2054 2170 2662 1549 2662 
C 1222 2662 947 2540 730 2304 
L 730 3750 
z
" transform="scale(0.015625)"/>
       <path id="CMR17-38" d="M 1741 2289 
C 2144 2494 2554 2803 2554 3298 
C 2554 3884 1990 4224 1472 4224 
C 890 4224 378 3800 378 3215 
C 378 3054 416 2777 666 2533 
C 730 2469 998 2276 1171 2154 
C 883 2006 211 1652 211 945 
C 211 282 838 -128 1459 -128 
C 2144 -128 2720 366 2720 1022 
C 2720 1607 2330 1877 2074 2051 
L 1741 2289 
z
M 902 2855 
C 851 2887 595 3086 595 3388 
C 595 3781 998 4076 1459 4076 
C 1965 4076 2336 3716 2336 3298 
C 2336 2700 1670 2359 1638 2359 
C 1632 2359 1626 2359 1574 2398 
L 902 2855 
z
M 2080 1536 
C 2176 1466 2483 1253 2483 861 
C 2483 385 2010 25 1472 25 
C 890 25 448 443 448 951 
C 448 1459 838 1884 1280 2083 
L 2080 1536 
z
" transform="scale(0.015625)"/>
       <path id="CMR17-2c" d="M 1011 102 
C 1024 44 1024 25 1024 -76 
C 1024 -451 896 -795 627 -1108 
C 595 -1140 595 -1152 595 -1165 
C 595 -1191 621 -1216 646 -1216 
C 685 -1216 1126 -776 1126 -82 
C 1126 128 1101 524 800 524 
C 659 524 538 428 538 262 
C 538 96 659 0 800 0 
C 877 0 960 32 1011 102 
z
" transform="scale(0.015625)"/>
       <path id="CMMI12-1b" d="M 3251 2406 
C 3334 2406 3546 2406 3546 2611 
C 3546 2752 3424 2752 3309 2752 
L 1894 2752 
C 934 2752 243 1685 243 932 
C 243 389 595 -64 1171 -64 
C 1926 -64 2752 746 2752 1704 
C 2752 1953 2694 2195 2541 2406 
L 3251 2406 
z
M 1178 64 
C 851 64 614 312 614 753 
C 614 1136 845 2406 1786 2406 
C 2061 2406 2368 2272 2368 1780 
C 2368 1557 2266 1021 2042 651 
C 1811 274 1466 64 1178 64 
z
" transform="scale(0.015625)"/>
       <path id="CMR17-37" d="M 2886 3955 
L 2886 4096 
L 1382 4096 
C 634 4096 621 4166 595 4288 
L 480 4288 
L 294 3104 
L 410 3104 
C 429 3226 474 3552 550 3673 
C 589 3724 1062 3724 1171 3724 
L 2579 3724 
L 1869 2670 
C 1395 1961 1069 1003 1069 166 
C 1069 89 1069 -128 1299 -128 
C 1530 -128 1530 89 1530 172 
L 1530 466 
C 1530 1514 1709 2204 2003 2644 
L 2886 3955 
z
" transform="scale(0.015625)"/>
      </defs>
      <use xlink:href="#CMMI12-16" transform="scale(0.996264)"/>
      <use xlink:href="#CMR17-3d" transform="translate(88.767388 0) scale(0.996264)"/>
      <use xlink:href="#CMR17-2d" transform="translate(190.558143 0) scale(0.996264)"/>
      <use xlink:href="#CMR17-30" transform="translate(220.634109 0) scale(0.996264)"/>
      <use xlink:href="#CMR17-2e" transform="translate(266.324586 0) scale(0.996264)"/>
      <use xlink:href="#CMR17-30" transform="translate(291.195645 0) scale(0.996264)"/>
      <use xlink:href="#CMR17-34" transform="translate(336.886122 0) scale(0.996264)"/>
      <use xlink:href="#CMR17-36" transform="translate(382.576599 0) scale(0.996264)"/>
      <use xlink:href="#CMR17-35" transform="translate(428.267076 0) scale(0.996264)"/>
      <use xlink:href="#CMR17-38" transform="translate(473.957553 0) scale(0.996264)"/>
      <use xlink:href="#CMR17-35" transform="translate(519.64803 0) scale(0.996264)"/>
      <use xlink:href="#CMR17-2c" transform="translate(565.338507 0) scale(0.996264)"/>
      <use xlink:href="#CMMI12-1b" transform="translate(620.285532 0) scale(0.996264)"/>
      <use xlink:href="#CMR17-3d" transform="translate(709.381552 0) scale(0.996264)"/>
      <use xlink:href="#CMR17-31" transform="translate(811.172307 0) scale(0.996264)"/>
      <use xlink:href="#CMR17-2e" transform="translate(856.862784 0) scale(0.996264)"/>
      <use xlink:href="#CMR17-30" transform="translate(881.733842 0) scale(0.996264)"/>
      <use xlink:href="#CMR17-33" transform="translate(927.424319 0) scale(0.996264)"/>
      <use xlink:href="#CMR17-37" transform="translate(973.114797 0) scale(0.996264)"/>
      <use xlink:href="#CMR17-33" transform="translate(1018.805274 0) scale(0.996264)"/>
      <use xlink:href="#CMR17-36" transform="translate(1064.495751 0) scale(0.996264)"/>
      <use xlink:href="#CMR17-31" transform="translate(1110.186228 0) scale(0.996264)"/>
     </g>
    </g>
    <g id="line2d_40">
     <path d="M 130.551302 287.371972 
L 144.551302 287.371972 
L 158.551302 287.371972 
" style="fill: none; stroke: #1f77b4; stroke-width: 2; stroke-linecap: square"/>
    </g>
    <g id="text_11">
     <!-- $\mu$ = 0.000, $\sigma$ = 1.000 -->
     <g transform="translate(169.751302 292.271972) scale(0.14 -0.14)">
      <use xlink:href="#CMMI12-16" transform="scale(0.996264)"/>
      <use xlink:href="#CMR17-3d" transform="translate(88.767388 0) scale(0.996264)"/>
      <use xlink:href="#CMR17-30" transform="translate(190.558143 0) scale(0.996264)"/>
      <use xlink:href="#CMR17-2e" transform="translate(236.24862 0) scale(0.996264)"/>
      <use xlink:href="#CMR17-30" transform="translate(261.119678 0) scale(0.996264)"/>
      <use xlink:href="#CMR17-30" transform="translate(306.810155 0) scale(0.996264)"/>
      <use xlink:href="#CMR17-30" transform="translate(352.500632 0) scale(0.996264)"/>
      <use xlink:href="#CMR17-2c" transform="translate(398.19111 0) scale(0.996264)"/>
      <use xlink:href="#CMMI12-1b" transform="translate(453.138134 0) scale(0.996264)"/>
      <use xlink:href="#CMR17-3d" transform="translate(542.234154 0) scale(0.996264)"/>
      <use xlink:href="#CMR17-31" transform="translate(644.024909 0) scale(0.996264)"/>
      <use xlink:href="#CMR17-2e" transform="translate(689.715386 0) scale(0.996264)"/>
      <use xlink:href="#CMR17-30" transform="translate(714.586445 0) scale(0.996264)"/>
      <use xlink:href="#CMR17-30" transform="translate(760.276922 0) scale(0.996264)"/>
      <use xlink:href="#CMR17-30" transform="translate(805.967399 0) scale(0.996264)"/>
     </g>
    </g>
   </g>
  </g>
  <g id="text_12">
   <!-- With BKG sys -->
   <g transform="translate(192.499456 11.75818) scale(0.12 -0.12)">
    <defs>
     <path id="CMR17-57" d="M 5523 3775 
C 5581 3948 5677 4173 6048 4185 
L 6048 4352 
C 5939 4345 5715 4339 5600 4339 
C 5440 4339 5158 4339 5005 4352 
L 5005 4185 
C 5293 4179 5414 4019 5414 3865 
C 5414 3820 5408 3794 5382 3724 
L 4390 557 
L 3347 3890 
C 3328 3955 3322 3980 3322 4006 
C 3322 4185 3603 4185 3725 4185 
L 3725 4352 
C 3539 4339 3219 4339 3021 4339 
C 2861 4339 2573 4339 2426 4352 
L 2426 4185 
C 2720 4185 2797 4166 2861 4051 
C 2886 3993 2989 3660 2989 3640 
C 2989 3615 2976 3576 2970 3557 
L 2029 564 
L 986 3890 
C 954 3980 954 3993 954 4006 
C 954 4185 1235 4185 1363 4185 
L 1363 4352 
C 1178 4339 858 4339 659 4339 
C 493 4339 211 4339 58 4352 
L 58 4185 
C 442 4185 467 4147 531 3942 
L 1779 -20 
C 1811 -116 1811 -128 1869 -128 
C 1920 -128 1939 -116 1965 -26 
L 3053 3448 
L 4141 -26 
C 4166 -116 4186 -128 4237 -128 
C 4294 -128 4294 -116 4326 -20 
L 5523 3775 
z
" transform="scale(0.015625)"/>
     <path id="CMR17-69" d="M 992 3961 
C 992 4102 877 4224 730 4224 
C 589 4224 467 4108 467 3961 
C 467 3820 582 3699 730 3699 
C 870 3699 992 3814 992 3961 
z
M 243 2745 
L 243 2579 
C 602 2579 653 2540 653 2231 
L 653 443 
C 653 198 627 166 218 166 
L 218 0 
C 371 12 646 12 806 12 
C 960 12 1222 12 1370 0 
L 1370 166 
C 992 166 979 205 979 436 
L 979 2816 
L 243 2745 
z
" transform="scale(0.015625)"/>
     <path id="CMR17-74" d="M 966 2585 
L 1862 2585 
L 1862 2752 
L 966 2752 
L 966 3968 
L 851 3968 
C 838 3292 614 2700 70 2687 
L 70 2585 
L 627 2585 
L 627 778 
C 627 655 627 -64 1370 -64 
C 1747 -64 1965 308 1965 784 
L 1965 1151 
L 1850 1151 
L 1850 790 
C 1850 347 1677 51 1408 51 
C 1222 51 966 179 966 765 
L 966 2585 
z
" transform="scale(0.015625)"/>
     <path id="CMR17-68" d="M 2656 1954 
C 2656 2282 2592 2816 1837 2816 
C 1312 2816 1056 2392 979 2179 
L 973 2179 
L 973 4416 
L 211 4345 
L 211 4179 
C 589 4179 646 4141 646 3843 
L 646 443 
C 646 198 621 166 211 166 
L 211 0 
C 365 12 646 12 813 12 
C 979 12 1267 12 1421 0 
L 1421 166 
C 1011 166 986 192 986 443 
L 986 1678 
C 986 2269 1344 2713 1792 2713 
C 2266 2713 2317 2289 2317 1980 
L 2317 443 
C 2317 198 2291 166 1882 166 
L 1882 0 
C 2035 12 2317 12 2483 12 
C 2650 12 2938 12 3091 0 
L 3091 166 
C 2682 166 2656 192 2656 443 
L 2656 1954 
z
" transform="scale(0.015625)"/>
     <path id="CMR17-42" d="M 333 4352 
L 333 4185 
C 774 4185 845 4185 845 3897 
L 845 451 
C 845 166 774 166 333 166 
L 333 0 
L 2534 0 
C 3354 0 3885 578 3885 1155 
C 3885 1726 3360 2214 2675 2259 
C 3290 2380 3718 2790 3718 3276 
C 3718 3808 3194 4352 2368 4352 
L 333 4352 
z
M 1248 2304 
L 1248 3936 
C 1248 4153 1261 4185 1517 4185 
L 2336 4185 
C 2970 4185 3251 3673 3251 3276 
C 3251 2790 2861 2304 2170 2304 
L 1248 2304 
z
M 1517 166 
C 1261 166 1248 198 1248 413 
L 1248 2201 
L 2432 2201 
C 3091 2201 3411 1624 3411 1161 
C 3411 698 3046 166 2349 166 
L 1517 166 
z
" transform="scale(0.015625)"/>
     <path id="CMR17-4b" d="M 2362 2669 
L 3469 3771 
C 3699 3994 3942 4172 4301 4185 
L 4301 4352 
C 4173 4345 4013 4339 3885 4339 
C 3712 4339 3411 4339 3245 4352 
L 3245 4185 
C 3411 4172 3437 4057 3437 4013 
C 3437 3968 3411 3898 3386 3860 
L 1261 1739 
L 1261 3898 
C 1261 4185 1331 4185 1773 4185 
L 1773 4352 
C 1587 4339 1248 4339 1050 4339 
C 851 4339 512 4339 326 4352 
L 326 4185 
C 768 4185 838 4185 838 3898 
L 838 453 
C 838 166 768 166 326 166 
L 326 0 
C 512 12 851 12 1050 12 
C 1248 12 1587 12 1773 0 
L 1773 166 
C 1331 166 1261 166 1261 453 
L 1261 1580 
L 2080 2389 
L 3290 542 
C 3328 478 3373 395 3373 332 
C 3373 166 3194 166 3110 166 
L 3110 0 
C 3315 12 3610 12 3821 12 
C 3974 12 4237 12 4384 0 
L 4384 166 
C 4077 166 3981 204 3789 497 
L 2362 2669 
z
" transform="scale(0.015625)"/>
     <path id="CMR17-47" d="M 3974 1258 
C 3974 1503 3994 1536 4390 1536 
L 4390 1702 
C 4237 1689 3891 1689 3718 1689 
C 3539 1689 3040 1696 2797 1702 
L 2797 1536 
L 2989 1536 
C 3539 1536 3552 1464 3552 1232 
L 3552 806 
C 3552 96 2720 38 2522 38 
C 1862 38 781 496 781 2179 
C 781 3862 1843 4313 2464 4313 
C 3187 4313 3712 3681 3834 2785 
C 3846 2708 3846 2695 3904 2695 
C 3974 2695 3974 2708 3974 2824 
L 3974 4351 
C 3974 4467 3968 4473 3930 4473 
C 3904 4473 3898 4467 3853 4390 
L 3571 3849 
C 3258 4249 2874 4480 2381 4480 
C 1286 4480 294 3507 294 2179 
C 294 858 1267 -128 2394 -128 
C 2912 -128 3418 57 3616 425 
C 3725 161 3904 -20 3936 -20 
C 3968 -20 3974 -13 3974 102 
L 3974 1258 
z
" transform="scale(0.015625)"/>
     <path id="CMR17-73" d="M 1978 2688 
C 1978 2803 1971 2809 1933 2809 
C 1907 2809 1901 2803 1824 2707 
C 1805 2681 1747 2617 1728 2592 
C 1523 2809 1235 2816 1126 2816 
C 416 2816 160 2444 160 2073 
C 160 1497 813 1363 998 1324 
C 1402 1241 1542 1216 1677 1100 
C 1760 1024 1901 883 1901 652 
C 1901 384 1747 38 1158 38 
C 602 38 403 460 288 1024 
C 269 1113 269 1120 218 1120 
C 166 1120 160 1113 160 985 
L 160 64 
C 160 -52 166 -58 205 -58 
C 237 -58 243 -52 275 0 
C 314 57 410 211 448 275 
C 576 102 800 -64 1158 -64 
C 1792 -64 2131 281 2131 780 
C 2131 1107 1958 1280 1875 1356 
C 1683 1555 1459 1600 1190 1651 
C 838 1728 390 1817 390 2208 
C 390 2374 480 2726 1126 2726 
C 1811 2726 1850 2086 1862 1881 
C 1869 1849 1901 1843 1920 1843 
C 1978 1843 1978 1862 1978 1971 
L 1978 2688 
z
" transform="scale(0.015625)"/>
     <path id="CMR17-79" d="M 2496 2183 
C 2656 2579 2944 2585 3034 2585 
L 3034 2752 
C 2912 2745 2752 2739 2630 2739 
C 2496 2739 2285 2739 2157 2752 
L 2157 2585 
C 2400 2566 2406 2384 2406 2332 
C 2406 2268 2394 2235 2362 2158 
L 1664 409 
L 902 2300 
C 870 2378 870 2423 870 2430 
C 870 2572 1018 2585 1171 2585 
L 1171 2752 
C 1018 2739 742 2739 582 2739 
C 410 2739 205 2739 64 2752 
L 64 2585 
C 410 2585 448 2553 531 2345 
L 1485 -31 
C 1197 -795 1030 -1242 627 -1242 
C 557 -1242 397 -1223 282 -1106 
C 429 -1093 493 -1002 493 -892 
C 493 -782 416 -685 288 -685 
C 147 -685 77 -782 77 -899 
C 77 -1158 339 -1344 627 -1344 
C 998 -1344 1229 -983 1357 -659 
L 2496 2183 
z
" transform="scale(0.015625)"/>
    </defs>
    <use xlink:href="#CMR17-57" transform="scale(0.996264)"/>
    <use xlink:href="#CMR17-69" transform="translate(95.09665 0) scale(0.996264)"/>
    <use xlink:href="#CMR17-74" transform="translate(119.967708 0) scale(0.996264)"/>
    <use xlink:href="#CMR17-68" transform="translate(155.248476 0) scale(0.996264)"/>
    <use xlink:href="#CMR17-42" transform="translate(236.219812 0) scale(0.996264)"/>
    <use xlink:href="#CMR17-4b" transform="translate(301.408567 0) scale(0.996264)"/>
    <use xlink:href="#CMR17-47" transform="translate(370.48089 0) scale(0.996264)"/>
    <use xlink:href="#CMR17-73" transform="translate(472.912202 0) scale(0.996264)"/>
    <use xlink:href="#CMR17-79" transform="translate(508.71354 0) scale(0.996264)"/>
    <use xlink:href="#CMR17-73" transform="translate(557.006456 0) scale(0.996264)"/>
   </g>
   <!--  corr_radius = 0.1 deg -->
   <g transform="translate(175.908664 24.045391) scale(0.12 -0.12)">
    <defs>
     <path id="CMR17-63" d="M 2234 2240 
C 2112 2240 1933 2240 1933 2015 
C 1933 1836 2080 1785 2163 1785 
C 2208 1785 2394 1804 2394 2028 
C 2394 2476 1958 2816 1466 2816 
C 787 2816 211 2201 211 1379 
C 211 521 813 -64 1466 -64 
C 2259 -64 2458 676 2458 747 
C 2458 773 2451 792 2406 792 
C 2362 792 2355 786 2330 702 
C 2163 180 1798 51 1523 51 
C 1114 51 621 431 621 1385 
C 621 2358 1094 2700 1472 2700 
C 1722 2700 2093 2582 2234 2240 
z
" transform="scale(0.015625)"/>
     <path id="CMR17-6f" d="M 2758 1356 
C 2758 2176 2163 2816 1466 2816 
C 768 2816 173 2176 173 1356 
C 173 550 768 -64 1466 -64 
C 2163 -64 2758 550 2758 1356 
z
M 1466 51 
C 1165 51 909 230 762 480 
C 602 768 582 1126 582 1408 
C 582 1676 595 2009 762 2297 
C 890 2508 1139 2713 1466 2713 
C 1754 2713 1997 2553 2150 2329 
C 2349 2028 2349 1606 2349 1408 
C 2349 1158 2336 774 2163 467 
C 1984 172 1709 51 1466 51 
z
" transform="scale(0.015625)"/>
     <path id="CMR17-72" d="M 960 1517 
C 960 2134 1222 2713 1702 2713 
C 1747 2713 1792 2707 1837 2687 
C 1837 2687 1696 2642 1696 2475 
C 1696 2321 1818 2257 1914 2257 
C 1990 2257 2131 2302 2131 2482 
C 2131 2687 1926 2816 1709 2816 
C 1222 2816 1011 2340 947 2115 
L 941 2115 
L 941 2816 
L 198 2745 
L 198 2578 
C 576 2578 634 2540 634 2231 
L 634 443 
C 634 198 608 166 198 166 
L 198 0 
C 352 12 646 12 813 12 
C 998 12 1325 12 1498 0 
L 1498 166 
C 1037 166 960 166 960 455 
L 960 1517 
z
" transform="scale(0.015625)"/>
     <path id="CMR17-61" d="M 2304 1656 
C 2304 2048 2304 2275 2035 2534 
C 1798 2751 1523 2816 1306 2816 
C 800 2816 435 2408 435 1977 
C 435 1740 627 1728 666 1728 
C 749 1728 896 1779 896 1958 
C 896 2118 774 2188 666 2188 
C 640 2188 608 2182 589 2176 
C 723 2594 1069 2713 1293 2713 
C 1613 2713 1965 2421 1965 1875 
L 1965 1632 
C 1587 1619 1133 1568 774 1373 
C 371 1147 256 822 256 576 
C 256 77 832 -64 1171 -64 
C 1523 -64 1850 135 1990 505 
C 2003 219 2182 -39 2464 -39 
C 2598 -39 2938 51 2938 563 
L 2938 926 
L 2822 926 
L 2822 557 
C 2822 161 2650 109 2566 109 
C 2304 109 2304 446 2304 732 
L 2304 1656 
z
M 1965 887 
C 1965 323 1568 38 1216 38 
C 896 38 646 278 646 576 
C 646 771 730 1114 1101 1322 
C 1408 1497 1760 1523 1965 1536 
L 1965 887 
z
" transform="scale(0.015625)"/>
     <path id="CMR17-64" d="M 1869 4345 
L 1869 4179 
C 2246 4179 2304 4141 2304 3843 
L 2304 2371 
C 2278 2403 2016 2816 1498 2816 
C 845 2816 211 2228 211 1376 
C 211 529 806 -64 1434 -64 
C 1978 -64 2259 361 2291 406 
L 2291 -64 
L 3066 -13 
L 3066 154 
C 2688 154 2630 193 2630 503 
L 2630 4416 
L 1869 4345 
z
M 2291 762 
C 2291 568 2176 393 2029 264 
C 1811 70 1594 38 1472 38 
C 1286 38 621 135 621 1369 
C 621 2636 1363 2713 1530 2713 
C 1824 2713 2061 2545 2208 2313 
C 2291 2177 2291 2157 2291 2041 
L 2291 762 
z
" transform="scale(0.015625)"/>
     <path id="CMR17-75" d="M 1882 2745 
L 1882 2579 
C 2259 2579 2317 2540 2317 2229 
L 2317 1053 
C 2317 510 2029 38 1555 38 
C 1030 38 986 355 986 691 
L 986 2816 
L 211 2745 
L 211 2579 
C 467 2579 640 2579 646 2320 
L 646 1079 
C 646 646 646 368 813 187 
C 896 103 1056 -64 1517 -64 
C 2061 -64 2272 400 2323 536 
L 2330 536 
L 2330 -64 
L 3091 -13 
L 3091 154 
C 2714 154 2656 193 2656 503 
L 2656 2816 
L 1882 2745 
z
" transform="scale(0.015625)"/>
     <path id="CMR17-65" d="M 2438 1503 
C 2464 1529 2464 1542 2464 1606 
C 2464 2251 2118 2816 1389 2816 
C 710 2816 173 2175 173 1394 
C 173 554 781 -64 1459 -64 
C 2176 -64 2458 619 2458 755 
C 2458 800 2419 800 2406 800 
C 2362 800 2355 787 2330 709 
C 2189 270 1837 51 1504 51 
C 1229 51 954 206 781 490 
C 582 819 582 1200 582 1503 
L 2438 1503 
z
M 589 1600 
C 634 2511 1126 2713 1382 2713 
C 1818 2713 2112 2308 2118 1600 
L 589 1600 
z
" transform="scale(0.015625)"/>
     <path id="CMR17-67" d="M 710 1165 
C 832 1068 1043 960 1299 960 
C 1805 960 2240 1359 2240 1895 
C 2240 2063 2189 2321 1997 2521 
C 2176 2713 2438 2777 2586 2777 
C 2611 2777 2650 2777 2682 2758 
C 2656 2751 2598 2726 2598 2623 
C 2598 2540 2656 2483 2739 2483 
C 2835 2483 2886 2547 2886 2630 
C 2886 2751 2790 2880 2586 2880 
C 2330 2880 2106 2758 1926 2591 
C 1734 2764 1504 2828 1299 2828 
C 794 2828 358 2431 358 1895 
C 358 1527 570 1294 634 1230 
C 442 1004 442 742 442 710 
C 442 544 506 300 723 166 
C 390 82 128 -184 128 -517 
C 128 -996 736 -1344 1466 -1344 
C 2170 -1344 2803 -1009 2803 -510 
C 2803 384 1856 384 1363 384 
C 1216 384 954 384 922 390 
C 723 422 589 601 589 825 
C 589 883 589 1024 710 1165 
z
M 1299 1068 
C 736 1068 736 1766 736 1895 
C 736 2024 736 2719 1299 2719 
C 1862 2719 1862 2024 1862 1895 
C 1862 1766 1862 1068 1299 1068 
z
M 1466 -1236 
C 826 -1236 384 -883 384 -517 
C 384 -311 493 -118 634 -11 
C 794 102 858 102 1293 102 
C 1818 102 2547 102 2547 -517 
C 2547 -883 2106 -1236 1466 -1236 
z
" transform="scale(0.015625)"/>
    </defs>
    <use xlink:href="#CMR17-63" transform="scale(0.996264)"/>
    <use xlink:href="#CMR17-6f" transform="translate(40.48566 0) scale(0.996264)"/>
    <use xlink:href="#CMR17-72" transform="translate(86.176138 0) scale(0.996264)"/>
    <use xlink:href="#CMR17-72" transform="translate(121.456905 0) scale(0.996264)"/>
    <use xlink:href="#CMR17-72" transform="translate(189.634893 0) scale(0.996264)"/>
    <use xlink:href="#CMR17-61" transform="translate(224.915661 0) scale(0.996264)"/>
    <use xlink:href="#CMR17-64" transform="translate(270.606138 0) scale(0.996264)"/>
    <use xlink:href="#CMR17-69" transform="translate(321.501507 0) scale(0.996264)"/>
    <use xlink:href="#CMR17-75" transform="translate(346.372566 0) scale(0.996264)"/>
    <use xlink:href="#CMR17-73" transform="translate(397.267936 0) scale(0.996264)"/>
    <use xlink:href="#CMR17-3d" transform="translate(463.14524 0) scale(0.996264)"/>
    <use xlink:href="#CMR17-30" transform="translate(564.935994 0) scale(0.996264)"/>
    <use xlink:href="#CMR17-2e" transform="translate(610.626472 0) scale(0.996264)"/>
    <use xlink:href="#CMR17-31" transform="translate(635.49753 0) scale(0.996264)"/>
    <use xlink:href="#CMR17-64" transform="translate(711.263973 0) scale(0.996264)"/>
    <use xlink:href="#CMR17-65" transform="translate(762.159343 0) scale(0.996264)"/>
    <use xlink:href="#CMR17-67" transform="translate(802.645004 0) scale(0.996264)"/>
    <path d="M 162.220302 0 
L 189.634893 0 
L 189.634893 0.3985 
L 162.220302 0.3985 
L 162.220302 0 
z
"/>
   </g>
  </g>
 </g>
 <defs>
  <clipPath id="p672f1222f2">
   <rect x="57.6" y="51.84" width="357.12" height="255.744"/>
  </clipPath>
 </defs>
</svg>
